<svg width="184" height="26" viewBox="0 0 184 26" fill="none" xmlns="http://www.w3.org/2000/svg">
<path d="M178.178 7.64557C179.803 7.64557 181.051 8.07187 181.921 8.92446C182.792 9.77706 183.227 11.1137 183.227 12.9343V22.4061H181.895V13.0143C181.895 11.5755 181.566 10.5186 180.909 9.84367C180.252 9.16869 179.297 8.83121 178.045 8.83121C176.455 8.83121 175.238 9.29747 174.395 10.23C173.56 11.1536 173.142 12.5524 173.142 14.4264V22.4061H171.797V7.92533H172.889L173.089 10.563H173.169C173.427 10.0213 173.777 9.53282 174.221 9.09764C174.674 8.65358 175.229 8.30278 175.887 8.04522C176.544 7.77879 177.308 7.64557 178.178 7.64557Z" fill="#333333"/>
<path d="M162.293 22.4061L159.216 12.6812C159.118 12.3881 159.029 12.1083 158.95 11.8419C158.87 11.5755 158.794 11.3179 158.723 11.0692C158.652 10.8206 158.585 10.5808 158.523 10.3499C158.461 10.1101 158.399 9.87472 158.337 9.64381H158.27C158.208 9.87472 158.146 10.1101 158.084 10.3499C158.021 10.5897 157.955 10.8383 157.884 11.0959C157.813 11.3534 157.737 11.6154 157.657 11.8819C157.577 12.1483 157.489 12.4236 157.391 12.7078L154.207 22.4061H152.822L148.705 7.92529H150.131L152.675 17.1839C152.826 17.7257 152.955 18.2097 153.061 18.636C153.168 19.0623 153.261 19.4487 153.341 19.795C153.421 20.1414 153.492 20.47 153.554 20.7808H153.621C153.674 20.5588 153.732 20.3279 153.794 20.0881C153.856 19.8394 153.923 19.573 153.994 19.2888C154.065 19.0046 154.149 18.7026 154.247 18.3829C154.345 18.0632 154.451 17.7168 154.567 17.3438L157.671 7.92529H159.003L161.987 17.3172C162.129 17.7701 162.258 18.2053 162.373 18.6227C162.498 19.0312 162.604 19.4131 162.693 19.7684C162.791 20.1236 162.871 20.4567 162.933 20.7675H163.013C163.048 20.4744 163.102 20.1547 163.173 19.8083C163.252 19.4531 163.346 19.0579 163.452 18.6227C163.568 18.1875 163.697 17.7079 163.839 17.1839L166.29 7.92529H167.649L163.719 22.4061H162.293Z" fill="#333333"/>
<path d="M145.356 15.1457C145.356 16.2648 145.218 17.2861 144.943 18.2098C144.668 19.1245 144.259 19.915 143.717 20.581C143.176 21.2471 142.501 21.7623 141.692 22.1264C140.893 22.4905 139.961 22.6726 138.895 22.6726C137.882 22.6726 136.981 22.495 136.19 22.1397C135.4 21.7756 134.73 21.2605 134.179 20.5944C133.637 19.9283 133.224 19.1378 132.94 18.2231C132.656 17.2994 132.514 16.2737 132.514 15.1457C132.514 13.5915 132.771 12.2549 133.286 11.1359C133.81 10.008 134.556 9.14649 135.524 8.55145C136.501 7.94753 137.669 7.64557 139.028 7.64557C140.431 7.64557 141.599 7.96529 142.532 8.60474C143.473 9.2353 144.179 10.1145 144.65 11.2425C145.121 12.3704 145.356 13.6715 145.356 15.1457ZM133.899 15.1457C133.899 16.4158 134.081 17.5259 134.445 18.4762C134.809 19.4265 135.36 20.1681 136.097 20.7009C136.843 21.2338 137.785 21.5003 138.921 21.5003C140.085 21.5003 141.04 21.2338 141.786 20.7009C142.532 20.1681 143.082 19.422 143.438 18.4629C143.793 17.5037 143.97 16.398 143.97 15.1457C143.97 13.929 143.802 12.8455 143.464 11.8952C143.127 10.9449 142.594 10.1989 141.866 9.65716C141.137 9.10653 140.187 8.83121 139.015 8.83121C137.336 8.83121 136.062 9.39073 135.191 10.5098C134.33 11.6288 133.899 13.1741 133.899 15.1457Z" fill="#333333"/>
<path d="M127.872 12.4814C127.872 14.6573 127.486 16.4824 126.713 17.9566C125.95 19.4309 124.813 20.5411 123.303 21.2871C121.802 22.0331 119.942 22.4061 117.721 22.4061H113.059V2.92963H118.334C120.412 2.92963 122.157 3.29376 123.57 4.02201C124.982 4.75027 126.052 5.8249 126.78 7.2459C127.508 8.65801 127.872 10.4032 127.872 12.4814ZM126.434 12.5347C126.434 10.6785 126.132 9.12871 125.528 7.88534C124.924 6.64197 124 5.70945 122.757 5.08776C121.514 4.4572 119.937 4.14191 118.028 4.14191H114.431V21.1938H117.655C120.594 21.1938 122.792 20.4745 124.249 19.0357C125.705 17.5881 126.434 15.421 126.434 12.5347Z" fill="#333333"/>
<path d="M98.0873 22.4061H96.7285V1.67737H98.0873V22.4061Z" fill="#333333"/>
<path d="M90.5424 22.4061H89.1836V1.67737H90.5424V22.4061Z" fill="#333333"/>
<path d="M83.809 15.1457C83.809 16.2648 83.6714 17.2861 83.396 18.2098C83.1207 19.1245 82.7122 19.915 82.1704 20.581C81.6287 21.2471 80.9537 21.7623 80.1455 22.1264C79.3462 22.4905 78.4137 22.6726 77.3479 22.6726C76.3355 22.6726 75.434 22.495 74.6436 22.1397C73.8532 21.7756 73.1827 21.2605 72.632 20.5944C72.0903 19.9283 71.6773 19.1378 71.3931 18.2231C71.1089 17.2994 70.9668 16.2737 70.9668 15.1457C70.9668 13.5915 71.2243 12.2549 71.7395 11.1359C72.2635 10.008 73.0095 9.14649 73.9775 8.55145C74.9545 7.94753 76.1223 7.64557 77.4812 7.64557C78.8844 7.64557 80.0523 7.96529 80.9848 8.60474C81.9262 9.2353 82.6323 10.1145 83.103 11.2425C83.5737 12.3704 83.809 13.6715 83.809 15.1457ZM72.3523 15.1457C72.3523 16.4158 72.5343 17.5259 72.8985 18.4762C73.2626 19.4265 73.8132 20.1681 74.5504 20.7009C75.2964 21.2338 76.2378 21.5003 77.3746 21.5003C78.538 21.5003 79.4928 21.2338 80.2388 20.7009C80.9848 20.1681 81.5354 19.422 81.8907 18.4629C82.2459 17.5037 82.4236 16.398 82.4236 15.1457C82.4236 13.929 82.2548 12.8455 81.9173 11.8952C81.5798 10.9449 81.047 10.1989 80.3187 9.65716C79.5904 9.10653 78.6402 8.83121 77.4678 8.83121C75.7893 8.83121 74.5148 9.39073 73.6445 10.5098C72.783 11.6288 72.3523 13.1741 72.3523 15.1457Z" fill="#333333"/>
<path d="M65.5665 7.67218C65.9484 7.67218 66.3081 7.69438 66.6456 7.73879C66.9831 7.78319 67.2984 7.84537 67.5915 7.9253L67.3783 9.16422C67.0852 9.08429 66.7877 9.02656 66.4858 8.99104C66.1838 8.94663 65.8596 8.92443 65.5133 8.92443C64.8294 8.92443 64.2166 9.05321 63.6749 9.31076C63.142 9.56832 62.689 9.93689 62.316 10.4165C61.943 10.8961 61.6588 11.4733 61.4634 12.1483C61.268 12.8233 61.1703 13.5782 61.1703 14.413V22.4061H59.8115V7.9253H60.9705L61.1037 10.6563H61.1837C61.4057 10.0967 61.7165 9.59496 62.1162 9.1509C62.5247 8.69796 63.0176 8.33827 63.5949 8.07183C64.1722 7.8054 64.8294 7.67218 65.5665 7.67218Z" fill="#333333"/>
<path d="M51.2671 22.6726C49.8283 22.6726 48.6116 22.3751 47.6169 21.78C46.6311 21.1761 45.8851 20.3191 45.3788 19.2089C44.8815 18.0899 44.6328 16.7666 44.6328 15.239C44.6328 13.6493 44.9215 12.2904 45.4987 11.1625C46.076 10.0257 46.8886 9.15537 47.9366 8.55145C48.9846 7.94753 50.2147 7.64557 51.6268 7.64557C52.3195 7.64557 52.9634 7.70774 53.5584 7.83207C54.1535 7.95641 54.6908 8.12959 55.1704 8.35162L54.8107 9.53727C54.3133 9.31524 53.7849 9.14649 53.2254 9.03104C52.6659 8.91558 52.1286 8.85785 51.6134 8.85785C50.4234 8.85785 49.4109 9.11985 48.5761 9.64384C47.7501 10.159 47.1151 10.8961 46.671 11.8553C46.2359 12.8055 46.0183 13.929 46.0183 15.2257C46.0183 16.4424 46.2048 17.5215 46.5778 18.4629C46.9508 19.3954 47.5236 20.1325 48.2963 20.6743C49.069 21.2072 50.0592 21.4736 51.2671 21.4736C51.9687 21.4736 52.6348 21.4026 53.2653 21.2605C53.9048 21.1184 54.4865 20.9363 55.0105 20.7143V21.9399C54.5398 22.153 53.9936 22.3262 53.3719 22.4594C52.7591 22.6015 52.0575 22.6726 51.2671 22.6726Z" fill="#333333"/>
<path d="M40.2709 17.3838C40.2709 18.5472 39.9778 19.5241 39.3916 20.3146C38.8055 21.0961 38.0106 21.6867 37.007 22.0864C36.0035 22.4771 34.8667 22.6725 33.5967 22.6725C32.8062 22.6725 32.0868 22.6326 31.4385 22.5526C30.7991 22.4816 30.2174 22.3839 29.6934 22.2596C29.1783 22.1352 28.7075 21.9931 28.2812 21.8333V20.4611C28.974 20.7275 29.7733 20.9629 30.6792 21.1672C31.5939 21.3625 32.5886 21.4602 33.6633 21.4602C34.6757 21.4602 35.5727 21.3137 36.3543 21.0206C37.1447 20.7275 37.7664 20.2835 38.2193 19.6884C38.6723 19.0934 38.8987 18.3429 38.8987 17.4371C38.8987 16.6377 38.7078 15.985 38.3259 15.4787C37.9529 14.9636 37.3889 14.524 36.634 14.1599C35.8791 13.7869 34.9288 13.4094 33.7832 13.0275C32.9838 12.7522 32.2556 12.4636 31.5984 12.1616C30.9501 11.8508 30.395 11.4955 29.9332 11.0959C29.4713 10.6873 29.1161 10.1989 28.8674 9.63047C28.6276 9.05319 28.5077 8.37378 28.5077 7.59224C28.5077 6.51761 28.7786 5.61616 29.3204 4.88791C29.871 4.15076 30.6126 3.59569 31.5451 3.22268C32.4865 2.84079 33.5434 2.64984 34.7157 2.64984C35.6482 2.64984 36.5319 2.73865 37.3667 2.91628C38.2104 3.08502 39.0231 3.34257 39.8046 3.68894L39.325 4.87458C38.5435 4.5371 37.7619 4.28842 36.9804 4.12856C36.1988 3.9687 35.4262 3.88877 34.6624 3.88877C33.7476 3.88877 32.9306 4.02643 32.2112 4.30175C31.5007 4.56818 30.9367 4.97228 30.5193 5.51403C30.1019 6.05578 29.8932 6.73964 29.8932 7.56559C29.8932 8.41819 30.0841 9.10648 30.466 9.63047C30.8568 10.1545 31.4074 10.5896 32.1179 10.936C32.8373 11.2824 33.6855 11.6199 34.6624 11.9485C35.817 12.3392 36.8117 12.7522 37.6465 13.1874C38.4813 13.6137 39.1252 14.1555 39.5781 14.8127C40.04 15.4699 40.2709 16.3269 40.2709 17.3838Z" fill="#333333"/>
<path d="M11.514 19.6056C11.8182 19.91 11.8183 20.4037 11.514 20.7081L6.55213 25.67C6.24764 25.9745 5.7531 25.9745 5.44861 25.67L0.486697 20.7081C0.182468 20.4037 0.182535 19.91 0.486697 19.6056C0.791187 19.3011 1.28572 19.3011 1.59021 19.6056L5.22107 23.2364L5.22107 1.12805C5.22107 0.697437 5.56975 0.348755 6.00037 0.348755C6.43098 0.348755 6.77967 0.697437 6.77967 1.12805L6.77967 23.2365L10.4105 19.6056C10.715 19.3011 11.2096 19.3011 11.514 19.6056Z" fill="#333333"/>
</svg>
