<svg width="89" height="188" viewBox="0 0 89 188" fill="none" xmlns="http://www.w3.org/2000/svg">
<path d="M141.132 187.991C78.1127 188.667 16.7016 151.183 19.4915 95.0105C23.2497 19.4335 124.934 -13.9941 198.966 23.355C279.594 64.0441 260.229 166.477 169.671 184.989C160.268 186.909 150.667 187.896 141.116 187.991H141.132Z" fill="#F9C37B"/>
<path d="M121.454 183C86.86 183 52.6741 171.419 29.6986 151.865C9.26863 134.474 -0.897389 112.542 0.293814 88.461C1.94192 55.0967 22.8777 27.1243 57.7 11.7326C96.0143 -5.19952 143.483 -3.71305 181.569 15.5974C200.889 25.3946 215.673 39.4348 224.289 56.2048C232.317 71.8127 234.863 89.1908 231.648 106.447C228.45 123.596 219.785 139.42 206.6 152.203C192.453 165.906 173.557 175.487 151.919 179.932C142.586 181.851 132.893 182.878 123.102 182.986C122.547 182.986 121.992 182.986 121.438 182.986L121.454 183ZM114.992 3.08411C95.7696 3.08411 76.6614 6.85432 59.4624 14.4623C25.8312 29.3269 5.61343 56.3535 4.01428 88.5962C2.87203 111.812 12.6627 132.947 32.3747 149.73C55.0076 169 88.9324 180.297 123.086 179.919C132.583 179.811 141.998 178.824 151.054 176.96C191.931 168.554 221.417 141.366 228.01 105.988C234.651 70.3532 216.114 36.7322 179.643 18.2325C159.785 8.16512 137.315 3.08411 114.992 3.08411Z" fill="#FCAF17"/>
</svg>
