<svg width="203" height="191" viewBox="0 0 203 191" fill="none" xmlns="http://www.w3.org/2000/svg">
<path d="M193.277 79.777C179.347 101.967 153.444 110.912 127.477 108.091C105.096 105.648 79.9862 98.6427 67.6745 121.934C60.5561 135.388 59.8157 151.873 51.3434 164.625C43.8231 175.961 32.1355 184.141 19.2738 188.168C-6.62951 196.274 -37.4511 186.574 -56.8389 164.258C-91.4471 124.44 -72.969 68.378 -50.0378 32.7441C-21.4057 -11.7616 26.9104 -38.9536 80.2083 -41.6173C96.8037 -42.4457 114.922 -42.1731 132.248 -38.3244C147.806 -34.8743 162.731 -28.5508 175.36 -17.5712C203.199 6.63214 211.565 50.6344 193.277 79.777Z" fill="#F4F4F4"/>
</svg>
