<svg width="358" height="273" viewBox="0 0 358 273" fill="none" xmlns="http://www.w3.org/2000/svg">
<path d="M17.8773 68.6934C43.4905 109.454 91.1191 125.886 138.864 120.704C180.017 116.216 226.187 103.348 248.824 146.131C261.913 170.846 263.274 201.128 278.852 224.552C292.68 245.375 314.17 260.4 337.819 267.797C385.448 282.688 442.12 264.869 477.768 223.877C541.403 150.735 507.427 47.7544 465.263 -17.7019C412.617 -99.4547 323.778 -149.404 225.778 -154.297C195.264 -155.819 161.949 -155.318 130.093 -148.248C101.485 -141.911 74.0436 -130.295 50.8225 -110.127C-0.365124 -65.6671 -15.7486 15.1611 17.8773 68.6934Z" fill="#E3F4FF"/>
</svg>
