<svg width="96" height="183" viewBox="0 0 96 183" fill="none" xmlns="http://www.w3.org/2000/svg">
<path d="M-37.3691 42.8539L-53.4729 127.02C-53.291 127.33 -53.1158 127.631 -52.9173 127.944C-51.0862 130.893 -49.078 133.591 -46.9056 136.062L-27.8247 36.3364C-31.192 38.264 -34.3777 40.4587 -37.3525 42.857L-37.3691 42.8539Z" fill="#DEE235"/>
<path d="M-19.5476 32.2367L-40.6037 142.286C-38.2796 144.235 -35.8477 145.98 -33.3147 147.512L-10.6747 29.1838C-13.7223 30.0264 -16.6822 31.0408 -19.5476 32.2367Z" fill="#DEE235"/>
<path d="M5.50032 26.6022C2.68249 26.739 -0.0808372 27.0413 -2.7999 27.4726L-26.445 151.054C-23.9256 152.161 -21.3279 153.085 -18.6886 153.836L5.65633 26.5973C5.65633 26.5973 5.55339 26.595 5.50032 26.6022Z" fill="#DEE235"/>
<path d="M13.1565 26.6805L-11.4842 155.465C-8.80421 155.913 -6.08926 156.179 -3.35558 156.302L21.2374 27.7669C18.6165 27.2348 15.9305 26.8626 13.1664 26.6738L13.1565 26.6805Z" fill="#DEE235"/>
<path d="M28.425 29.6881L4.21369 156.228C7.04778 156.052 9.88042 155.702 12.6985 155.204L36.1083 32.8524C33.6444 31.6352 31.0888 30.5815 28.4317 29.698L28.425 29.6881Z" fill="#DEE235"/>
<path d="M42.8879 36.7663L20.5818 153.349C23.5926 152.473 26.5719 151.403 29.4801 150.163L50.1004 42.391C47.8454 40.352 45.439 38.4738 42.8879 36.7663Z" fill="#DEE235"/>
<path d="M56.3789 48.9397L37.8132 145.973C39.6736 144.896 41.4967 143.743 43.2594 142.502C44.6524 141.526 46.0216 140.494 47.3474 139.419L62.8723 58.2782C60.9785 54.9814 58.8106 51.8564 56.3721 48.9299L56.3789 48.9397Z" fill="#DEE235"/>
<path d="M69.3782 106.994L71.2707 97.103C72.2361 87.9145 71.0926 78.6701 68.1644 70.0171L56.5835 130.544C62.8712 123.305 67.0605 115.28 69.3782 106.994Z" fill="#DEE235"/>
</svg>
