<svg width="312" height="348" viewBox="0 0 312 348" fill="none" xmlns="http://www.w3.org/2000/svg">
<path d="M59.4293 125.223C26.9327 125.647 -4.72685 102.224 -3.28456 67.1182C-1.34005 19.8924 51.0846 -0.991163 89.2538 22.3485C130.823 47.7714 120.842 111.779 74.1548 123.346C69.3064 124.548 64.3614 125.159 59.4357 125.223H59.4293Z" fill="#F9C37B"/>
<path d="M48.3858 120.101C29.5941 120.101 11.0244 112.52 -1.44736 99.7095C-12.5461 88.3107 -18.0719 73.9411 -17.4257 58.1668C-16.5306 36.3033 -5.15591 17.9818 13.7705 7.90024C34.5814 -3.18946 60.3662 -2.22164 81.056 10.4341C91.5557 16.8527 99.5853 26.0537 104.277 37.0426C108.645 47.272 110.024 58.6508 108.274 69.9622C106.538 81.1998 101.833 91.5636 94.6653 99.9381C86.9789 108.911 76.7081 115.195 64.9498 118.112C59.8817 119.369 54.6183 120.041 49.3012 120.108C48.9983 120.108 48.6954 120.108 48.3926 120.108L48.3858 120.101ZM44.8859 2.50325C34.4872 2.50325 24.1558 4.96315 14.8541 9.91655C-3.33192 19.6083 -14.2556 37.2241 -15.1239 58.2542C-15.7431 73.39 -10.4461 87.1681 0.201637 98.1032C12.4446 110.672 30.7921 118.038 49.2608 117.796C54.403 117.729 59.4913 117.077 64.3844 115.867C86.4809 110.389 102.426 92.6659 105.993 69.5993C109.587 46.3647 99.5651 24.4407 79.8445 12.3832C69.1025 5.81672 56.9471 2.50325 44.8792 2.50325H44.8859Z" fill="#FCAF17"/>
<path d="M293.014 220.95C284.742 212.07 274.052 205.381 261.532 202.355C221.176 192.607 182.7 226.101 155.383 181.131C132.215 142.998 105.08 144.255 66.1591 151.01C16.8704 159.568 29.3081 117.698 11.0475 86.9078C-9.59667 52.1074 -59.8421 45.9807 -89.6908 72.1657C-116.867 96.0192 -115.259 135.243 -105.601 167.05C-94.9034 202.314 -73.4592 233.633 -44.1631 255.965C-14.6608 278.455 18.3138 287.905 54.6947 291.692C81.6979 294.503 102.994 320.456 127.58 330.932C148.447 339.829 171.029 344.624 193.711 344.971C232.352 345.558 283.125 337.332 303.992 300.224C318.508 274.42 312.363 241.703 293.022 220.95H293.014Z" fill="#8EC9EC"/>
<rect x="-15" y="257" width="136" height="91" fill="#8EC9EC"/>
<path d="M120.585 166.695L116.347 188.847C116.291 196.256 117.6 203.836 120.439 211.359L132.877 146.351C127.612 152.422 123.43 159.309 120.592 166.705L120.585 166.695Z" fill="#8EC9EC"/>
<path d="M142.262 137.305L125.944 222.595C126.128 222.909 126.305 223.213 126.507 223.531C128.362 226.519 130.397 229.254 132.599 231.758L151.934 130.7C148.522 132.654 145.294 134.878 142.279 137.308L142.262 137.305Z" fill="#8EC9EC"/>
<path d="M160.322 126.546L138.985 238.065C141.34 240.04 143.804 241.808 146.371 243.36L169.313 123.453C166.225 124.306 163.226 125.334 160.322 126.546Z" fill="#8EC9EC"/>
<path d="M185.704 120.836C182.849 120.974 180.048 121.281 177.293 121.718L153.332 246.949C155.885 248.071 158.518 249.007 161.192 249.768L185.862 120.831C185.862 120.831 185.758 120.829 185.704 120.836Z" fill="#8EC9EC"/>
<path d="M193.463 120.916L168.493 251.419C171.209 251.874 173.96 252.143 176.73 252.268L201.651 122.016C198.995 121.477 196.274 121.1 193.473 120.909L193.463 120.916Z" fill="#8EC9EC"/>
<path d="M208.935 123.963L184.4 252.192C187.272 252.013 190.143 251.659 192.998 251.154L216.721 127.169C214.224 125.936 211.634 124.868 208.942 123.973L208.935 123.963Z" fill="#8EC9EC"/>
<path d="M223.591 131.136L200.987 249.275C204.038 248.388 207.057 247.302 210.004 246.046L230.9 136.835C228.615 134.769 226.176 132.866 223.591 131.136Z" fill="#8EC9EC"/>
<path d="M237.262 143.472L218.449 241.801C220.334 240.709 222.181 239.541 223.967 238.283C225.379 237.294 226.767 236.248 228.11 235.159L243.842 152.935C241.923 149.594 239.726 146.428 237.255 143.462L237.262 143.472Z" fill="#8EC9EC"/>
<path d="M250.435 202.301L252.353 192.278C253.331 182.967 252.172 173.599 249.205 164.831L237.469 226.166C243.841 218.83 248.086 210.698 250.435 202.301Z" fill="#8EC9EC"/>
</svg>
