<svg width="329" height="308" viewBox="0 0 329 308" fill="none" xmlns="http://www.w3.org/2000/svg">
<path d="M316.482 1.48667C278.318 7.94414 245.623 33.9893 226.82 65.2004C210.616 92.1065 197.499 124.152 159.397 128.277C137.382 130.663 117.238 124.367 94.8983 128.618C75.0512 132.394 55.393 142.34 39.6575 155.444C7.9525 181.847 -6.84737 221.659 3.0312 253.732C20.6741 310.97 102.834 313.938 164.588 302.916C241.727 289.14 315.16 245.131 363.779 184.735C378.921 165.919 394.045 144.878 404.283 123.201C413.469 103.73 418.714 83.7477 416.492 64.4022C411.579 21.747 366.604 -6.99773 316.482 1.48667Z" fill="#DEE235"/>
<path d="M243.361 275.923C240.422 275.41 238.463 272.586 238.972 269.627C239.481 266.668 242.285 264.695 245.224 265.207C248.163 265.729 250.122 268.544 249.613 271.503C249.162 274.143 246.876 276 244.302 276C243.995 276 243.678 275.981 243.371 275.923H243.361ZM262.454 271.493C261.935 268.534 263.904 265.72 266.843 265.198C269.782 264.675 272.577 266.658 273.095 269.617C273.614 272.576 271.645 275.391 268.706 275.913C268.389 275.961 268.082 275.99 267.765 275.99C265.191 275.99 262.915 274.133 262.454 271.493ZM219.534 267.209C216.95 265.71 216.067 262.374 217.555 259.782C219.044 257.18 222.357 256.291 224.931 257.79C227.515 259.289 228.398 262.615 226.909 265.217C225.911 266.958 224.096 267.934 222.232 267.934C221.32 267.934 220.388 267.702 219.534 267.209ZM285.148 265.188C283.66 262.586 284.533 259.26 287.117 257.761C289.7 256.262 293.004 257.142 294.493 259.743C295.981 262.345 295.108 265.671 292.524 267.17C291.669 267.664 290.738 267.905 289.825 267.905C287.962 267.905 286.147 266.929 285.148 265.188ZM200.114 250.807C198.194 248.505 198.482 245.082 200.767 243.148C203.053 241.214 206.453 241.504 208.374 243.805C210.295 246.107 209.997 249.531 207.721 251.465C206.703 252.316 205.473 252.741 204.244 252.741C202.707 252.741 201.18 252.084 200.114 250.807ZM304.327 251.426C302.042 249.492 301.753 246.068 303.665 243.767C305.576 241.465 308.985 241.165 311.271 243.099C313.557 245.024 313.855 248.457 311.934 250.759C310.868 252.035 309.341 252.693 307.794 252.693C306.565 252.693 305.336 252.277 304.327 251.426ZM187.408 228.719C186.381 225.895 187.831 222.781 190.626 221.746C193.43 220.711 196.522 222.162 197.55 224.986C198.578 227.81 197.127 230.924 194.333 231.958C193.718 232.181 193.094 232.287 192.479 232.287C190.28 232.287 188.205 230.914 187.408 228.709V228.719ZM317.696 231.9C314.901 230.866 313.451 227.752 314.469 224.928C315.487 222.104 318.589 220.653 321.394 221.678C324.198 222.703 325.639 225.827 324.621 228.641C323.823 230.846 321.749 232.22 319.55 232.22C318.935 232.22 318.311 232.113 317.696 231.891V231.9ZM183 203.584C183 200.586 185.411 198.149 188.397 198.139C191.375 198.139 193.805 200.567 193.805 203.574C193.805 206.572 191.394 209.009 188.417 209.019C185.439 209.019 183.019 206.592 183.019 203.584H183ZM318.205 203.506V203.439V203.371C318.205 200.373 320.616 197.926 323.593 197.926C326.57 197.926 329 200.344 329 203.352V203.439V203.506C329 206.504 326.58 208.942 323.603 208.942C320.625 208.942 318.205 206.504 318.205 203.506ZM190.587 185.402C187.783 184.377 186.342 181.263 187.351 178.439C188.369 175.615 191.461 174.155 194.275 175.18C197.079 176.205 198.52 179.319 197.512 182.143C196.715 184.358 194.65 185.731 192.441 185.731C191.826 185.731 191.211 185.625 190.597 185.402H190.587ZM314.431 181.96C313.403 179.145 314.844 176.022 317.638 174.987C320.433 173.952 323.535 175.403 324.563 178.217C325.591 181.031 324.15 184.155 321.355 185.19C320.741 185.412 320.116 185.528 319.502 185.528C317.302 185.528 315.228 184.165 314.431 181.96ZM200.691 163.981C198.405 162.057 198.107 158.624 200.018 156.322C201.929 154.02 205.339 153.72 207.625 155.645C209.91 157.569 210.208 161.003 208.297 163.304C207.231 164.581 205.704 165.248 204.158 165.248C202.928 165.248 201.699 164.832 200.691 163.981ZM303.588 163.159C301.667 160.867 301.955 157.434 304.231 155.5C306.507 153.566 309.917 153.856 311.838 156.148C313.758 158.44 313.47 161.873 311.194 163.807C310.176 164.668 308.947 165.084 307.718 165.084C306.181 165.084 304.654 164.426 303.588 163.15V163.159ZM217.45 147.318C215.951 144.726 216.825 141.39 219.409 139.891C221.983 138.382 225.296 139.262 226.785 141.864C228.283 144.456 227.409 147.792 224.825 149.291C223.971 149.784 223.039 150.026 222.117 150.026C220.254 150.026 218.439 149.059 217.44 147.318H217.45ZM287.011 149.194C284.428 147.695 283.535 144.369 285.033 141.777C286.522 139.175 289.825 138.276 292.399 139.785C294.983 141.284 295.866 144.61 294.378 147.202C293.379 148.953 291.564 149.929 289.7 149.929C288.788 149.929 287.856 149.697 287.011 149.204V149.194ZM238.847 137.415C238.329 134.456 240.288 131.642 243.227 131.119C246.166 130.597 248.96 132.57 249.488 135.529C250.007 138.489 248.048 141.303 245.109 141.835C244.792 141.893 244.475 141.922 244.168 141.922C241.594 141.922 239.318 140.065 238.857 137.425L238.847 137.415ZM266.708 141.796C263.77 141.284 261.801 138.469 262.31 135.51C262.819 132.551 265.614 130.568 268.552 131.081C271.491 131.593 273.46 134.408 272.951 137.367C272.5 140.007 270.214 141.873 267.64 141.873C267.333 141.873 267.016 141.844 266.708 141.796Z" fill="white"/>
</svg>
