<svg width="664" height="259" viewBox="0 0 664 259" fill="none" xmlns="http://www.w3.org/2000/svg">
<path d="M587.65 26.355C555.382 48.4041 511.715 48.7391 473.901 34.2417C441.314 21.7311 406.91 2.32993 376.53 26.4469C358.972 40.3758 349.519 60.8073 330.27 73.2813C313.174 84.3752 291.377 89.7403 269.905 89.3848C226.663 88.6641 184.989 63.4636 166.972 27.2092C134.802 -37.4859 191.067 -100.24 243.734 -135.411C309.501 -179.342 396.262 -193.188 478.151 -174.069C503.648 -168.115 530.891 -160.133 555.127 -147.985C576.895 -137.084 596.252 -122.835 609.786 -103.695C639.62 -61.5021 630.019 -2.60561 587.65 26.355Z" fill="#F9C37B"/>
<path d="M337.958 83.3345C311.536 118.381 262.403 132.509 213.15 128.054C170.699 124.195 123.071 113.131 99.718 149.917C86.216 171.167 84.8117 197.203 68.7417 217.344C54.4774 235.248 32.3086 248.167 7.91275 254.527C-41.2199 267.33 -99.6815 252.009 -136.456 216.764C-202.1 153.875 -167.051 65.3308 -123.556 9.05072C-69.247 -61.2415 22.3978 -104.189 123.492 -108.396C154.97 -109.704 189.336 -109.273 222.199 -103.195C251.71 -97.7457 280.018 -87.7584 303.973 -70.4172C356.777 -32.1905 372.646 37.3067 337.958 83.3345Z" fill="#F4F4F4"/>
</svg>
