<svg width="400" height="258" viewBox="0 0 400 258" fill="none" xmlns="http://www.w3.org/2000/svg">
<path d="M147.925 206.581C142.228 200.467 134.866 195.861 126.244 193.777C98.4514 187.065 71.9538 210.128 53.1415 179.163C37.1861 152.906 18.4987 153.771 -8.30552 158.422C-42.2496 164.315 -33.6841 135.484 -46.2597 114.283C-60.477 90.3196 -95.0799 86.1009 -115.636 104.131C-134.352 120.556 -133.244 147.565 -126.593 169.467C-119.226 193.749 -104.458 215.315 -84.2821 230.692C-63.9645 246.178 -41.2556 252.685 -16.2008 255.293C2.39573 257.229 17.0617 275.1 33.9939 282.313C48.3645 288.439 63.9165 291.741 79.5367 291.98C106.148 292.384 141.114 286.72 155.485 261.168C165.482 243.4 161.25 220.872 147.93 206.581H147.925Z" fill="#8EC9EC" fill-opacity="0.45"/>
<path d="M535.482 1.48667C497.318 7.94414 464.623 33.9893 445.82 65.2004C429.616 92.1065 416.499 124.152 378.397 128.277C356.382 130.663 336.238 124.367 313.898 128.618C294.051 132.394 274.393 142.34 258.657 155.444C226.952 181.847 212.153 221.659 222.031 253.732C239.674 310.97 321.834 313.938 383.588 302.916C460.727 289.14 534.16 245.131 582.779 184.735C597.921 165.919 613.045 144.878 623.283 123.201C632.469 103.73 637.714 83.7477 635.492 64.4022C630.579 21.747 585.604 -6.99773 535.482 1.48667Z" fill="#DEE235" fill-opacity="0.86"/>
<path d="M356.237 296.943C354.083 296.569 352.648 294.504 353.021 292.341C353.394 290.178 355.449 288.735 357.603 289.11C359.757 289.492 361.192 291.549 360.819 293.713C360.489 295.643 358.813 297 356.927 297C356.702 297 356.47 296.986 356.244 296.943H356.237ZM370.23 293.705C369.85 291.542 371.293 289.485 373.447 289.103C375.6 288.721 377.649 290.171 378.029 292.334C378.409 294.497 376.966 296.555 374.812 296.936C374.58 296.972 374.355 296.993 374.122 296.993C372.236 296.993 370.568 295.636 370.23 293.705ZM338.775 290.574C336.881 289.478 336.234 287.039 337.325 285.144C338.416 283.242 340.844 282.592 342.73 283.688C344.624 284.783 345.271 287.215 344.18 289.117C343.448 290.39 342.118 291.104 340.752 291.104C340.084 291.104 339.401 290.934 338.775 290.574ZM386.862 289.096C385.771 287.194 386.412 284.762 388.305 283.666C390.198 282.571 392.62 283.214 393.711 285.116C394.801 287.017 394.161 289.449 392.268 290.545C391.641 290.906 390.958 291.083 390.29 291.083C388.924 291.083 387.594 290.369 386.862 289.096ZM324.543 278.583C323.135 276.901 323.346 274.398 325.021 272.984C326.696 271.57 329.188 271.782 330.596 273.465C332.004 275.147 331.785 277.65 330.117 279.064C329.371 279.686 328.47 279.997 327.569 279.997C326.443 279.997 325.324 279.516 324.543 278.583ZM400.918 279.036C399.243 277.622 399.032 275.119 400.432 273.436C401.833 271.754 404.332 271.535 406.007 272.949C407.682 274.355 407.9 276.865 406.493 278.548C405.711 279.481 404.592 279.962 403.459 279.962C402.558 279.962 401.657 279.658 400.918 279.036ZM315.231 262.436C314.478 260.371 315.54 258.095 317.589 257.338C319.644 256.582 321.91 257.642 322.663 259.707C323.417 261.771 322.354 264.048 320.305 264.804C319.855 264.967 319.398 265.044 318.947 265.044C317.335 265.044 315.815 264.041 315.231 262.429V262.436ZM410.716 264.762C408.667 264.005 407.605 261.729 408.351 259.664C409.097 257.6 411.37 256.54 413.425 257.289C415.481 258.038 416.537 260.322 415.79 262.379C415.206 263.991 413.686 264.995 412.074 264.995C411.624 264.995 411.166 264.917 410.716 264.755V264.762ZM312 244.061C312 241.87 313.767 240.088 315.956 240.081C318.138 240.081 319.918 241.856 319.918 244.054C319.918 246.246 318.152 248.027 315.97 248.035C313.788 248.035 312.014 246.26 312.014 244.061H312ZM411.089 244.005V243.955V243.906C411.089 241.714 412.855 239.925 415.037 239.925C417.219 239.925 419 241.693 419 243.892V243.955V244.005C419 246.196 417.226 247.978 415.044 247.978C412.862 247.978 411.089 246.196 411.089 244.005ZM317.56 230.77C315.505 230.021 314.449 227.744 315.188 225.68C315.935 223.615 318.201 222.548 320.263 223.297C322.319 224.047 323.374 226.323 322.635 228.388C322.051 230.007 320.538 231.01 318.919 231.01C318.468 231.01 318.018 230.933 317.567 230.77H317.56ZM408.323 228.253C407.569 226.196 408.625 223.912 410.673 223.156C412.722 222.399 414.995 223.46 415.748 225.517C416.501 227.575 415.446 229.858 413.397 230.615C412.947 230.777 412.489 230.862 412.039 230.862C410.427 230.862 408.907 229.865 408.323 228.253ZM324.965 215.11C323.29 213.704 323.072 211.194 324.472 209.511C325.873 207.829 328.372 207.609 330.047 209.016C331.722 210.423 331.94 212.933 330.54 214.616C329.758 215.549 328.639 216.037 327.506 216.037C326.605 216.037 325.704 215.733 324.965 215.11ZM400.376 214.51C398.968 212.834 399.179 210.324 400.848 208.91C402.516 207.496 405.014 207.708 406.422 209.384C407.83 211.059 407.619 213.569 405.951 214.983C405.204 215.612 404.304 215.916 403.403 215.916C402.276 215.916 401.157 215.436 400.376 214.502V214.51ZM337.247 202.929C336.149 201.034 336.79 198.595 338.683 197.5C340.569 196.397 342.998 197.04 344.089 198.942C345.187 200.837 344.546 203.276 342.653 204.371C342.026 204.732 341.344 204.909 340.668 204.909C339.303 204.909 337.972 204.202 337.24 202.929H337.247ZM388.227 204.301C386.334 203.205 385.68 200.773 386.778 198.878C387.869 196.976 390.29 196.319 392.176 197.422C394.069 198.518 394.717 200.95 393.626 202.844C392.894 204.124 391.564 204.838 390.198 204.838C389.53 204.838 388.847 204.668 388.227 204.308V204.301ZM352.929 195.69C352.549 193.526 353.985 191.469 356.139 191.087C358.293 190.706 360.341 192.148 360.728 194.311C361.108 196.474 359.672 198.532 357.518 198.921C357.286 198.963 357.054 198.984 356.829 198.984C354.942 198.984 353.274 197.627 352.936 195.697L352.929 195.69ZM373.348 198.892C371.194 198.518 369.751 196.46 370.124 194.297C370.497 192.134 372.546 190.684 374.699 191.059C376.853 191.434 378.296 193.491 377.923 195.654C377.592 197.584 375.917 198.949 374.031 198.949C373.805 198.949 373.573 198.928 373.348 198.892Z" fill="white"/>
</svg>
