<svg width="55" height="170" viewBox="0 0 55 170" fill="none" xmlns="http://www.w3.org/2000/svg">
<path d="M107.156 169.992C59.6678 170.604 13.3917 136.708 15.4941 85.9141C18.326 17.5732 94.95 -12.6539 150.736 21.1192C211.494 57.9125 196.901 150.538 128.662 167.278C121.575 169.014 114.341 169.907 107.144 169.992H107.156Z" fill="#F9C37B"/>
<path d="M92.3275 165.479C66.2594 165.479 40.4987 155.007 23.1856 137.325C7.7907 121.599 0.130135 101.766 1.02776 79.9914C2.26968 49.8215 18.0458 24.5273 44.286 10.6093C73.1576 -4.70169 108.927 -3.35755 137.627 14.1041C152.186 22.9632 163.326 35.6592 169.818 50.8235C175.868 64.937 177.786 80.6512 175.364 96.2555C172.954 111.762 166.425 126.071 156.489 137.631C145.828 150.021 131.589 158.685 115.285 162.705C108.251 164.44 100.947 165.369 93.5694 165.466C93.1513 165.466 92.7332 165.466 92.3152 165.466L92.3275 165.479ZM87.4581 2.78883C72.9731 2.78883 58.5742 6.19805 45.614 13.0776C20.2714 26.519 5.03634 50.9579 3.83131 80.1136C2.97057 101.107 10.3483 120.218 25.2022 135.394C42.2571 152.819 67.821 163.035 93.5571 162.693C100.714 162.595 107.808 161.703 114.633 160.017C145.435 152.416 167.654 127.831 172.622 95.84C177.627 63.6173 163.658 33.2153 136.176 16.4868C121.211 7.38335 104.279 2.78883 87.4581 2.78883Z" fill="#FCAF17"/>
</svg>
