<svg width="371" height="224" viewBox="0 0 371 224" fill="none" xmlns="http://www.w3.org/2000/svg">
<path d="M49.5485 115.298L52.8883 119.391C51.1008 119.83 49.1565 120.206 47.0554 120.52C44.9542 120.833 42.7747 121.116 40.5168 121.366C38.2589 121.586 36.001 121.774 33.743 121.931C31.5165 122.088 29.337 122.213 27.2045 122.307C27.1418 121.711 26.9693 121.006 26.687 120.19C26.4362 119.375 26.1853 118.685 25.9344 118.121C28.0042 118.027 30.121 117.885 32.2848 117.697C34.48 117.509 36.6125 117.305 38.6822 117.086C40.752 116.835 42.712 116.553 44.5622 116.239C46.4438 115.925 48.1059 115.612 49.5485 115.298ZM27.3926 123.812L31.6733 122.448C32.2064 123.358 32.7395 124.377 33.2726 125.506C33.8058 126.604 34.1821 127.56 34.4016 128.375L29.9328 129.975C29.7133 129.128 29.3683 128.14 28.8979 127.011C28.4275 125.851 27.9258 124.785 27.3926 123.812ZM36.4243 122.825L40.799 121.837C41.2067 122.778 41.5987 123.828 41.975 124.988C42.3514 126.149 42.6179 127.137 42.7747 127.952L38.1648 129.128C38.0394 128.313 37.8042 127.309 37.4592 126.117C37.1142 124.926 36.7693 123.828 36.4243 122.825ZM47.808 121.178L53.0294 122.731C52.1827 124.299 51.3046 125.898 50.3952 127.529C49.5171 129.128 48.7018 130.476 47.9491 131.574L43.8096 130.163C44.28 129.348 44.7661 128.422 45.2678 127.388C45.7696 126.321 46.24 125.255 46.679 124.189C47.1181 123.091 47.4944 122.088 47.808 121.178ZM25.417 129.645H54.0643V137.36H48.8429V134.208H30.4502V137.313H25.417V129.645ZM27.9101 138.254H47.9491V142.864H27.9101V138.254ZM46.2086 138.254H47.1965L48.0902 138.066L51.4301 139.336C50.4893 142.284 49.2035 144.871 47.5728 147.097C45.9734 149.292 44.0762 151.19 41.881 152.789C39.6858 154.357 37.2554 155.643 34.5898 156.646C31.9242 157.681 29.0704 158.512 26.0285 159.14C25.903 158.669 25.6992 158.12 25.417 157.493C25.1661 156.866 24.8682 156.254 24.5232 155.659C24.2096 155.063 23.896 154.577 23.5824 154.2C26.3734 153.793 28.9763 153.181 31.391 152.366C33.8058 151.55 36.001 150.531 37.9766 149.308C39.9523 148.054 41.6301 146.58 43.0099 144.886C44.4211 143.162 45.4874 141.186 46.2086 138.959V138.254ZM33.7901 142.252C35.4835 145.514 38.0707 148.164 41.5517 150.202C45.064 152.24 49.329 153.62 54.3466 154.341C53.9389 154.718 53.5155 155.188 53.0765 155.753C52.6688 156.348 52.2768 156.944 51.9005 157.54C51.5242 158.167 51.2106 158.716 50.9597 159.187C45.5971 158.152 41.1283 156.348 37.5533 153.777C33.9782 151.205 31.1402 147.803 29.039 143.569L33.7901 142.252ZM9.98784 138.771C11.8694 138.364 14.1117 137.815 16.7146 137.125C19.3488 136.435 21.9987 135.714 24.6643 134.961L25.3699 140.041C22.9552 140.763 20.5091 141.5 18.0317 142.252C15.5856 142.973 13.312 143.632 11.2109 144.228L9.98784 138.771ZM10.5523 123.954H24.9466V129.128H10.5523V123.954ZM15.6326 115.063H20.807V153.26C20.807 154.545 20.6659 155.564 20.3837 156.317C20.1328 157.101 19.6467 157.713 18.9254 158.152C18.2042 158.591 17.3104 158.889 16.2442 159.045C15.2093 159.202 13.9235 159.265 12.3869 159.234C12.3242 158.544 12.1517 157.681 11.8694 156.646C11.5872 155.643 11.2736 154.765 10.9286 154.012C11.7754 154.044 12.5594 154.075 13.2806 154.106C14.0333 154.106 14.5507 154.091 14.833 154.059C15.1466 154.059 15.3504 154.012 15.4445 153.918C15.5699 153.793 15.6326 153.573 15.6326 153.26V115.063ZM65.7302 143.804H107.69V148.461H65.7302V143.804ZM65.8714 122.731H107.549V127.34H65.8714V122.731ZM67.8 131.151H105.714V135.572H67.8V131.151ZM70.105 137.642H103.55V141.735H70.105V137.642ZM83.7466 133.362H89.3443V159.234H83.7466V133.362ZM79.6541 114.969H84.9226V124.941H79.6541V114.969ZM88.4035 114.969H93.719V124.612H88.4035V114.969ZM82.7117 145.874L87.1805 147.897C85.7066 149.528 83.919 151.049 81.8179 152.46C79.7482 153.84 77.5216 155.047 75.1382 156.082C72.7549 157.148 70.3558 158.011 67.9411 158.669C67.6902 158.199 67.3453 157.666 66.9062 157.07C66.4986 156.505 66.0595 155.941 65.5891 155.376C65.1501 154.812 64.7267 154.341 64.319 153.965C66.671 153.463 69.0074 152.82 71.328 152.036C73.68 151.252 75.8438 150.327 77.8195 149.261C79.7952 148.195 81.4259 147.066 82.7117 145.874ZM90.4733 145.733C91.4454 146.674 92.6058 147.568 93.9542 148.414C95.3027 149.23 96.7766 149.982 98.376 150.672C100.007 151.331 101.716 151.911 103.503 152.413C105.322 152.915 107.157 153.307 109.007 153.589C108.568 154.028 108.098 154.53 107.596 155.094C107.125 155.69 106.671 156.301 106.232 156.929C105.824 157.587 105.479 158.183 105.197 158.716C103.315 158.246 101.465 157.634 99.6461 156.882C97.8586 156.16 96.1494 155.329 94.5187 154.388C92.888 153.448 91.3514 152.397 89.9088 151.237C88.4662 150.076 87.1962 148.838 86.0986 147.521L90.4733 145.733ZM99.2227 115.392L105.103 116.804C104.381 118.089 103.644 119.344 102.892 120.567C102.139 121.758 101.449 122.778 100.822 123.624L96.2122 122.213C96.5885 121.586 96.9648 120.88 97.3411 120.096C97.7174 119.281 98.0624 118.466 98.376 117.65C98.721 116.804 99.0032 116.051 99.2227 115.392ZM93.0134 125.459L98.9875 126.87C98.329 127.968 97.7018 129.034 97.1059 130.069C96.5101 131.072 95.977 131.935 95.5066 132.656L90.7085 131.339C91.1162 130.461 91.5395 129.489 91.9786 128.422C92.4176 127.325 92.7626 126.337 93.0134 125.459ZM69.2112 116.898L74.0563 115.251C74.7462 116.223 75.4362 117.352 76.1261 118.638C76.816 119.892 77.3178 120.974 77.6314 121.884L72.551 123.765C72.3002 122.825 71.8454 121.711 71.1869 120.426C70.5283 119.14 69.8698 117.964 69.2112 116.898ZM75.1853 127.435L80.689 126.541C81.0966 127.199 81.4886 127.952 81.865 128.799C82.2726 129.614 82.5706 130.335 82.7587 130.963L77.0198 131.95C76.863 131.355 76.6122 130.618 76.2672 129.74C75.9222 128.861 75.5616 128.093 75.1853 127.435ZM128.246 115.016L133.797 116.662C132.95 118.387 131.947 120.081 130.787 121.743C129.626 123.405 128.372 124.941 127.023 126.353C125.706 127.764 124.389 129.003 123.072 130.069C122.758 129.692 122.319 129.269 121.755 128.799C121.19 128.328 120.61 127.874 120.014 127.435C119.419 126.996 118.901 126.635 118.462 126.353C120.469 125.036 122.351 123.373 124.107 121.366C125.863 119.359 127.243 117.243 128.246 115.016ZM127.87 120.002H160.281V124.941H126.506L127.87 120.002ZM119.497 130.963H162.021V135.996H119.497V130.963ZM120.25 141.97H161.316V147.003H120.25V141.97ZM134.22 121.743H138.924V144.604H134.22V121.743ZM125.847 121.743H130.881V144.651H125.847V121.743ZM142.405 121.743H147.109V144.651H142.405V121.743ZM150.684 121.743H155.859V144.651H150.684V121.743ZM132.809 149.637L138.031 149.073C138.344 150.484 138.611 152.021 138.83 153.683C139.081 155.345 139.222 156.756 139.254 157.916L133.703 158.716C133.703 157.964 133.656 157.07 133.562 156.035C133.499 155 133.405 153.918 133.28 152.789C133.154 151.66 132.997 150.61 132.809 149.637ZM142.17 149.779L147.439 148.885C147.846 149.794 148.238 150.782 148.615 151.848C148.991 152.915 149.32 153.949 149.603 154.953C149.885 155.956 150.089 156.866 150.214 157.681L144.569 158.763C144.412 157.603 144.099 156.176 143.628 154.483C143.189 152.789 142.703 151.221 142.17 149.779ZM151.484 149.496L156.894 147.803C157.646 148.775 158.399 149.826 159.152 150.955C159.904 152.084 160.626 153.212 161.316 154.341C162.005 155.439 162.539 156.427 162.915 157.305L157.129 159.234C156.784 158.387 156.298 157.399 155.671 156.27C155.075 155.141 154.401 153.996 153.648 152.836C152.927 151.644 152.205 150.531 151.484 149.496ZM124.342 147.991L129.799 149.355C129.266 151.143 128.529 152.93 127.588 154.718C126.647 156.505 125.596 158.026 124.436 159.281L119.027 157.07C120.093 156.066 121.112 154.733 122.084 153.071C123.056 151.409 123.809 149.716 124.342 147.991ZM180.226 115.251H185.4V159.092H180.226V115.251ZM173.076 130.727H192.362V135.996H173.076V130.727ZM179.191 133.503L182.342 135.055C181.935 136.623 181.464 138.285 180.931 140.041C180.398 141.766 179.802 143.491 179.144 145.216C178.485 146.94 177.795 148.571 177.074 150.108C176.353 151.613 175.584 152.93 174.769 154.059C174.612 153.463 174.377 152.82 174.063 152.131C173.781 151.409 173.468 150.704 173.123 150.014C172.809 149.324 172.511 148.728 172.229 148.226C173.17 147.066 174.079 145.639 174.957 143.946C175.867 142.221 176.698 140.449 177.45 138.63C178.203 136.78 178.783 135.071 179.191 133.503ZM185.353 136.231C185.604 136.482 185.964 136.874 186.435 137.407C186.937 137.94 187.485 138.552 188.081 139.242C188.677 139.9 189.242 140.574 189.775 141.264C190.339 141.923 190.841 142.519 191.28 143.052C191.75 143.585 192.08 143.993 192.268 144.275L188.834 148.697C188.52 148.007 188.113 147.207 187.611 146.298C187.109 145.357 186.56 144.4 185.964 143.428C185.369 142.425 184.788 141.484 184.224 140.606C183.66 139.728 183.173 139.006 182.766 138.442L185.353 136.231ZM173.028 118.873L176.98 117.838C177.388 118.967 177.748 120.19 178.062 121.508C178.407 122.825 178.689 124.11 178.908 125.365C179.128 126.619 179.285 127.748 179.379 128.752L175.145 129.881C175.114 128.877 174.988 127.748 174.769 126.494C174.581 125.208 174.33 123.907 174.016 122.589C173.734 121.241 173.405 120.002 173.028 118.873ZM188.505 117.603L193.256 118.638C192.879 119.924 192.472 121.241 192.033 122.589C191.594 123.938 191.155 125.239 190.716 126.494C190.276 127.717 189.869 128.799 189.492 129.74L185.917 128.705C186.262 127.701 186.592 126.556 186.905 125.271C187.25 123.954 187.564 122.621 187.846 121.272C188.128 119.924 188.348 118.701 188.505 117.603ZM206.333 115.016H211.601V159.187H206.333V115.016ZM192.268 144.463L216.446 140.135L217.293 145.357L193.115 149.732L192.268 144.463ZM194.902 121.413L197.677 117.603C198.556 118.105 199.465 118.685 200.406 119.344C201.378 120.002 202.287 120.676 203.134 121.366C204.012 122.056 204.702 122.699 205.204 123.295L202.287 127.529C201.817 126.901 201.158 126.227 200.312 125.506C199.496 124.785 198.618 124.063 197.677 123.342C196.737 122.621 195.812 121.978 194.902 121.413ZM192.785 133.268L195.42 129.222C196.36 129.692 197.332 130.257 198.336 130.916C199.34 131.543 200.296 132.186 201.205 132.844C202.115 133.471 202.852 134.083 203.416 134.679L200.547 139.195C200.045 138.599 199.355 137.956 198.477 137.266C197.599 136.545 196.658 135.839 195.655 135.149C194.683 134.428 193.726 133.801 192.785 133.268ZM235.78 115.204L241.142 116.851C240.233 119.485 239.135 122.15 237.85 124.847C236.595 127.513 235.215 130.053 233.71 132.468C232.236 134.851 230.7 136.952 229.1 138.771C228.912 138.301 228.63 137.705 228.253 136.984C227.908 136.231 227.532 135.478 227.124 134.726C226.717 133.973 226.34 133.362 225.996 132.891C227.344 131.449 228.614 129.787 229.806 127.905C231.029 125.992 232.142 123.954 233.146 121.79C234.18 119.626 235.059 117.431 235.78 115.204ZM231.97 128.234L237.332 122.872V122.919V159.14H231.97V128.234ZM252.009 115.251H257.512V158.857H252.009V115.251ZM240.06 123.436H270.542V128.799H240.06V123.436ZM245.799 146.251H263.863V151.284H245.799V146.251ZM259.535 126.447C260.35 129.081 261.401 131.747 262.687 134.444C263.972 137.109 265.399 139.602 266.967 141.923C268.535 144.212 270.166 146.156 271.86 147.756C271.201 148.226 270.448 148.885 269.602 149.732C268.786 150.578 268.128 151.378 267.626 152.131C265.932 150.249 264.317 147.991 262.781 145.357C261.244 142.723 259.864 139.884 258.641 136.843C257.418 133.769 256.368 130.68 255.49 127.576L259.535 126.447ZM250.268 125.976L254.361 127.105C253.483 130.367 252.401 133.565 251.115 136.701C249.829 139.837 248.387 142.738 246.787 145.404C245.188 148.069 243.463 150.359 241.613 152.272C241.299 151.833 240.907 151.347 240.437 150.813C239.966 150.249 239.465 149.716 238.932 149.214C238.43 148.712 237.975 148.305 237.567 147.991C239.386 146.392 241.095 144.416 242.695 142.064C244.325 139.681 245.784 137.109 247.069 134.349C248.387 131.558 249.453 128.767 250.268 125.976ZM306.857 137.595V141.923H318.9V137.595H306.857ZM302.247 133.503H323.698V146.015H302.247V133.503ZM312.502 119.955C311.812 121.21 310.918 122.527 309.821 123.907C308.723 125.286 307.484 126.604 306.105 127.858C304.756 129.112 303.329 130.21 301.824 131.151C301.573 130.461 301.197 129.677 300.695 128.799C300.193 127.889 299.707 127.152 299.237 126.588C300.742 125.741 302.169 124.675 303.517 123.389C304.897 122.103 306.136 120.739 307.234 119.297C308.331 117.823 309.209 116.412 309.868 115.063H314.807C315.716 116.474 316.767 117.885 317.959 119.297C319.15 120.676 320.42 121.931 321.769 123.06C323.117 124.157 324.482 125.051 325.861 125.741C325.36 126.368 324.842 127.152 324.309 128.093C323.807 129.003 323.384 129.834 323.039 130.586C321.691 129.771 320.358 128.783 319.041 127.623C317.724 126.431 316.5 125.177 315.372 123.86C314.243 122.542 313.286 121.241 312.502 119.955ZM310.291 128.564H315.277V137.783C315.277 139.665 315.136 141.594 314.854 143.569C314.603 145.514 314.039 147.442 313.161 149.355C312.314 151.237 311.06 153.024 309.397 154.718C307.735 156.411 305.509 157.948 302.718 159.328C302.467 158.92 302.138 158.465 301.73 157.964C301.354 157.493 300.946 157.007 300.507 156.505C300.068 156.035 299.66 155.659 299.284 155.376C301.761 154.216 303.721 152.946 305.164 151.566C306.638 150.155 307.735 148.681 308.457 147.144C309.209 145.576 309.695 143.993 309.915 142.393C310.166 140.794 310.291 139.226 310.291 137.689V128.564ZM315.748 143.569C316.595 146.015 317.849 148.242 319.511 150.249C321.204 152.225 323.259 153.714 325.673 154.718C325.266 155.063 324.827 155.486 324.356 155.988C323.917 156.521 323.494 157.07 323.086 157.634C322.678 158.199 322.333 158.716 322.051 159.187C319.417 157.775 317.237 155.8 315.513 153.26C313.819 150.719 312.471 147.85 311.467 144.651L315.748 143.569ZM305.493 126.635H320.028V131.01H305.493V126.635ZM285.83 123.907H299.566V128.187H285.83V123.907ZM285.83 131.057H299.566V135.29H285.83V131.057ZM283.149 138.207H299.284V142.581H283.149V138.207ZM291.005 119.438H295.474V140.606H291.005V119.438ZM292.557 144.698L294.768 143.993C295.238 144.902 295.677 145.921 296.085 147.05C296.524 148.179 296.822 149.151 296.979 149.967L294.674 150.813C294.517 149.998 294.235 149.01 293.827 147.85C293.451 146.69 293.028 145.639 292.557 144.698ZM289.5 145.357L291.899 144.933C292.306 146.125 292.651 147.442 292.933 148.885C293.216 150.296 293.388 151.503 293.451 152.507L290.958 153.024C290.895 151.989 290.723 150.766 290.44 149.355C290.189 147.913 289.876 146.58 289.5 145.357ZM286.254 145.592L288.7 145.357C288.951 146.737 289.108 148.242 289.17 149.873C289.233 151.472 289.249 152.852 289.217 154.012L286.63 154.388C286.724 153.197 286.724 151.786 286.63 150.155C286.567 148.524 286.442 147.003 286.254 145.592ZM282.773 144.604L285.877 145.216C285.815 146.658 285.689 148.085 285.501 149.496C285.344 150.908 285.078 152.225 284.701 153.448C284.356 154.639 283.87 155.674 283.243 156.552L280.374 155C280.938 154.185 281.377 153.244 281.691 152.178C282.004 151.08 282.24 149.888 282.396 148.603C282.585 147.285 282.71 145.953 282.773 144.604ZM283.149 116.804H300.507V121.366H287.806V141.217H283.149V116.804ZM296.838 138.207H301.448C301.448 138.207 301.448 138.442 301.448 138.912C301.448 139.383 301.432 139.775 301.401 140.088C301.275 143.883 301.118 146.956 300.93 149.308C300.742 151.66 300.523 153.479 300.272 154.765C300.021 156.019 299.707 156.882 299.331 157.352C298.955 157.885 298.547 158.261 298.108 158.481C297.669 158.732 297.151 158.904 296.556 158.998C296.085 159.092 295.474 159.14 294.721 159.14C294 159.171 293.231 159.171 292.416 159.14C292.385 158.45 292.259 157.697 292.04 156.882C291.82 156.066 291.538 155.361 291.193 154.765C291.82 154.828 292.385 154.875 292.886 154.906C293.388 154.937 293.796 154.953 294.109 154.953C294.36 154.953 294.58 154.906 294.768 154.812C294.956 154.718 295.144 154.561 295.332 154.341C295.583 154.028 295.787 153.354 295.944 152.319C296.132 151.284 296.289 149.7 296.414 147.568C296.571 145.435 296.712 142.581 296.838 139.006V138.207Z" fill="#FD6161"/>
<path d="M26.1226 179.413C25.9971 178.724 25.8403 178.096 25.6522 177.532C25.4954 176.967 25.3386 176.403 25.1818 175.838L31.8144 174.756C31.8771 175.227 31.9398 175.823 32.0026 176.544C32.0966 177.234 32.2064 177.861 32.3318 178.426C32.3946 178.865 32.5357 179.68 32.7552 180.872C32.9747 182.063 33.2413 183.506 33.5549 185.199C33.8685 186.893 34.2134 188.727 34.5898 190.703C34.9974 192.647 35.3894 194.623 35.7658 196.63C36.1421 198.606 36.5027 200.487 36.8477 202.275C37.224 204.062 37.5376 205.646 37.7885 207.026C38.0707 208.406 38.2746 209.425 38.4 210.084C38.5568 210.773 38.745 211.526 38.9645 212.341C39.184 213.157 39.4035 213.941 39.623 214.693L32.8022 215.916C32.6768 215.038 32.5827 214.192 32.52 213.376C32.4573 212.592 32.3475 211.855 32.1907 211.165C32.0653 210.538 31.8771 209.582 31.6262 208.296C31.4067 206.979 31.1245 205.442 30.7795 203.686C30.4659 201.93 30.121 200.064 29.7446 198.088C29.3683 196.113 28.992 194.137 28.6157 192.161C28.2394 190.186 27.8787 188.335 27.5338 186.611C27.2202 184.886 26.9379 183.396 26.687 182.142C26.4362 180.856 26.248 179.947 26.1226 179.413ZM13.2806 185.388C14.0333 185.356 14.7702 185.325 15.4915 185.293C16.2128 185.231 16.9341 185.152 17.6554 185.058C18.3453 184.964 19.3174 184.839 20.5718 184.682C21.8262 184.494 23.2688 184.29 24.8995 184.07C26.5302 183.82 28.208 183.553 29.9328 183.271C31.689 182.988 33.3824 182.722 35.0131 182.471C36.6438 182.189 38.0864 181.938 39.3408 181.718C40.6266 181.499 41.6301 181.326 42.3514 181.201C43.104 181.044 43.888 180.887 44.7034 180.731C45.5187 180.542 46.2086 180.37 46.7731 180.213L47.9021 186.375C47.4003 186.407 46.7261 186.485 45.8794 186.611C45.0326 186.736 44.2643 186.846 43.5744 186.94C42.7277 187.065 41.6144 187.238 40.2346 187.457C38.8861 187.677 37.3808 187.928 35.7187 188.21C34.0566 188.461 32.3632 188.727 30.6384 189.01C28.9136 189.26 27.2672 189.527 25.6992 189.809C24.1312 190.06 22.7514 190.28 21.5597 190.468C20.368 190.656 19.4742 190.797 18.8784 190.891C18.1258 191.048 17.4202 191.205 16.7616 191.362C16.103 191.487 15.3661 191.66 14.5507 191.879L13.2806 185.388ZM13.3277 199.217C13.9549 199.186 14.7389 199.123 15.6797 199.029C16.6518 198.904 17.4986 198.794 18.2198 198.7C19.0666 198.574 20.1955 198.402 21.6067 198.182C23.0179 197.963 24.6016 197.712 26.3578 197.43C28.1453 197.148 29.9798 196.865 31.8614 196.583C33.743 196.269 35.5776 195.956 37.3651 195.642C39.1526 195.329 40.7834 195.046 42.2573 194.796C43.7312 194.545 44.9229 194.341 45.8323 194.184C46.7418 193.996 47.6042 193.808 48.4195 193.62C49.2662 193.431 50.0032 193.243 50.6304 193.055L51.9005 199.264C51.2733 199.296 50.505 199.39 49.5955 199.547C48.7174 199.672 47.8237 199.813 46.9142 199.97C45.9107 200.127 44.6563 200.331 43.151 200.581C41.6458 200.832 39.9837 201.115 38.1648 201.428C36.3773 201.71 34.5427 202.008 32.6611 202.322C30.7795 202.604 28.9763 202.902 27.2515 203.216C25.5267 203.498 23.9744 203.749 22.5946 203.968C21.2147 204.188 20.1328 204.376 19.3488 204.533C18.3453 204.721 17.4358 204.893 16.6205 205.05C15.8365 205.207 15.1779 205.364 14.6448 205.521L13.3277 199.217ZM81.912 183.13C82.0061 183.663 82.1158 184.243 82.2413 184.87C82.3981 185.466 82.5392 186.077 82.6646 186.705C82.9469 187.614 83.2762 188.79 83.6525 190.233C84.0602 191.675 84.4992 193.259 84.9696 194.984C85.44 196.708 85.9104 198.465 86.3808 200.252C86.8826 202.008 87.3686 203.702 87.839 205.332C88.3094 206.932 88.7171 208.359 89.0621 209.613C89.407 210.836 89.6736 211.777 89.8618 212.436C89.9872 212.686 90.1126 213.063 90.2381 213.564C90.3635 214.066 90.5046 214.568 90.6614 215.07C90.8496 215.572 91.0064 215.979 91.1318 216.293L84.7344 217.892C84.6403 217.234 84.5306 216.544 84.4051 215.822C84.2797 215.101 84.1072 214.411 83.8877 213.753C83.6995 213.063 83.433 212.075 83.088 210.789C82.743 209.472 82.351 207.982 81.912 206.32C81.473 204.658 81.0026 202.933 80.5008 201.146C80.0304 199.358 79.5757 197.618 79.1366 195.924C78.6976 194.2 78.2742 192.647 77.8666 191.268C77.4902 189.856 77.1766 188.759 76.9258 187.975C76.769 187.348 76.5651 186.752 76.3142 186.187C76.0947 185.623 75.8595 185.105 75.6086 184.635L81.912 183.13ZM104.491 190.374C104.021 191.409 103.378 192.585 102.563 193.902C101.779 195.219 100.916 196.567 99.9754 197.947C99.0346 199.327 98.0938 200.644 97.153 201.899C96.2122 203.122 95.3184 204.188 94.4717 205.097L89.2973 202.51C90.1126 201.789 90.975 200.911 91.8845 199.876C92.7939 198.841 93.6406 197.806 94.4246 196.771C95.24 195.705 95.8358 194.796 96.2122 194.043C95.8672 194.106 95.2086 194.231 94.2365 194.419C93.2957 194.607 92.151 194.843 90.8026 195.125C89.4541 195.407 87.9802 195.721 86.3808 196.066C84.8128 196.379 83.2291 196.708 81.6298 197.053C80.0304 197.398 78.5094 197.728 77.0669 198.041C75.6243 198.324 74.3542 198.59 73.2566 198.841C72.159 199.06 71.328 199.233 70.7635 199.358L69.3053 193.714C70.0579 193.651 70.7792 193.572 71.4691 193.478C72.159 193.384 72.8803 193.275 73.633 193.149C74.0093 193.086 74.6678 192.977 75.6086 192.82C76.5808 192.663 77.7254 192.459 79.0426 192.208C80.391 191.957 81.8336 191.691 83.3702 191.409C84.9069 191.095 86.4592 190.797 88.0272 190.515C89.5952 190.201 91.0691 189.919 92.449 189.668C93.8288 189.386 95.0362 189.151 96.071 188.963C97.1059 188.743 97.8586 188.571 98.329 188.445C98.7366 188.382 99.16 188.288 99.599 188.163C100.038 188.006 100.414 187.849 100.728 187.692L104.491 190.374ZM128.529 177.25C129.344 177.814 130.3 178.504 131.398 179.319C132.496 180.135 133.625 181.028 134.785 182.001C135.977 182.941 137.09 183.867 138.125 184.776C139.16 185.685 140.006 186.501 140.665 187.222L135.867 192.114C135.271 191.456 134.487 190.672 133.515 189.762C132.543 188.853 131.492 187.912 130.363 186.94C129.234 185.968 128.121 185.043 127.023 184.164C125.926 183.286 124.954 182.549 124.107 181.954L128.529 177.25ZM122.649 208.578C125.095 208.233 127.4 207.747 129.564 207.12C131.727 206.493 133.734 205.772 135.585 204.956C137.435 204.141 139.128 203.294 140.665 202.416C143.331 200.817 145.777 198.998 148.003 196.959C150.23 194.921 152.174 192.804 153.836 190.609C155.498 188.382 156.815 186.219 157.788 184.117L161.457 190.75C160.265 192.851 158.791 194.952 157.035 197.053C155.31 199.155 153.35 201.162 151.155 203.075C148.96 204.956 146.592 206.65 144.052 208.155C142.452 209.127 140.728 210.052 138.877 210.93C137.027 211.777 135.067 212.53 132.997 213.188C130.959 213.878 128.827 214.411 126.6 214.788L122.649 208.578ZM205.298 184.212C205.298 185.027 205.58 185.732 206.145 186.328C206.74 186.893 207.446 187.175 208.261 187.175C209.108 187.175 209.814 186.893 210.378 186.328C210.974 185.732 211.272 185.027 211.272 184.212C211.272 183.365 210.974 182.659 210.378 182.095C209.814 181.499 209.108 181.201 208.261 181.201C207.446 181.201 206.74 181.499 206.145 182.095C205.58 182.659 205.298 183.365 205.298 184.212ZM202.193 184.212C202.193 183.051 202.46 182.016 202.993 181.107C203.557 180.197 204.294 179.476 205.204 178.943C206.113 178.379 207.132 178.096 208.261 178.096C209.422 178.096 210.457 178.379 211.366 178.943C212.276 179.476 212.997 180.197 213.53 181.107C214.094 182.016 214.377 183.051 214.377 184.212C214.377 185.309 214.094 186.328 213.53 187.269C212.997 188.179 212.276 188.916 211.366 189.48C210.457 190.013 209.422 190.28 208.261 190.28C207.132 190.28 206.113 190.013 205.204 189.48C204.294 188.916 203.557 188.179 202.993 187.269C202.46 186.328 202.193 185.309 202.193 184.212ZM172.934 199.594C173.656 198.998 174.299 198.433 174.863 197.9C175.428 197.367 176.086 196.74 176.839 196.019C177.372 195.454 177.983 194.78 178.673 193.996C179.363 193.212 180.1 192.334 180.884 191.362C181.7 190.389 182.531 189.402 183.377 188.398C184.224 187.363 185.055 186.36 185.87 185.388C187.25 183.725 188.677 182.816 190.151 182.659C191.625 182.471 193.271 183.255 195.09 185.011C196.156 185.983 197.238 187.034 198.336 188.163C199.465 189.292 200.563 190.421 201.629 191.55C202.726 192.679 203.746 193.761 204.686 194.796C205.753 195.893 206.944 197.163 208.261 198.606C209.61 200.048 210.974 201.522 212.354 203.028C213.765 204.533 215.067 205.928 216.258 207.214L211.084 212.765C210.049 211.448 208.936 210.068 207.744 208.625C206.552 207.183 205.392 205.787 204.263 204.439C203.134 203.059 202.099 201.836 201.158 200.77C200.5 199.954 199.747 199.092 198.9 198.182C198.085 197.242 197.27 196.316 196.454 195.407C195.639 194.498 194.886 193.682 194.196 192.961C193.507 192.24 192.958 191.66 192.55 191.22C191.766 190.468 191.092 190.123 190.527 190.186C189.994 190.217 189.383 190.656 188.693 191.503C188.254 192.099 187.721 192.804 187.093 193.62C186.466 194.435 185.823 195.297 185.165 196.207C184.506 197.116 183.863 197.994 183.236 198.841C182.64 199.688 182.107 200.425 181.637 201.052C181.104 201.804 180.571 202.573 180.037 203.357C179.504 204.109 179.018 204.799 178.579 205.427L172.934 199.594ZM229.712 191.22C230.276 191.252 230.997 191.299 231.876 191.362C232.754 191.393 233.663 191.424 234.604 191.456C235.576 191.487 236.47 191.503 237.285 191.503C238.069 191.503 239.041 191.503 240.202 191.503C241.362 191.503 242.616 191.503 243.965 191.503C245.345 191.503 246.756 191.503 248.198 191.503C249.672 191.503 251.131 191.503 252.573 191.503C254.016 191.503 255.38 191.503 256.666 191.503C257.951 191.503 259.096 191.503 260.1 191.503C261.134 191.503 261.95 191.503 262.546 191.503C263.643 191.503 264.678 191.471 265.65 191.409C266.622 191.315 267.422 191.252 268.049 191.22V198.606C267.516 198.574 266.716 198.527 265.65 198.465C264.584 198.402 263.549 198.371 262.546 198.371C261.95 198.371 261.134 198.371 260.1 198.371C259.065 198.371 257.904 198.371 256.619 198.371C255.333 198.371 253.969 198.371 252.526 198.371C251.115 198.371 249.672 198.371 248.198 198.371C246.724 198.371 245.298 198.371 243.918 198.371C242.569 198.371 241.315 198.371 240.155 198.371C239.026 198.371 238.069 198.371 237.285 198.371C235.937 198.371 234.557 198.402 233.146 198.465C231.734 198.496 230.59 198.543 229.712 198.606V191.22ZM288.474 177.25C289.289 177.814 290.246 178.504 291.343 179.319C292.441 180.135 293.57 181.028 294.73 182.001C295.922 182.941 297.035 183.867 298.07 184.776C299.105 185.685 299.952 186.501 300.61 187.222L295.812 192.114C295.216 191.456 294.432 190.672 293.46 189.762C292.488 188.853 291.437 187.912 290.308 186.94C289.179 185.968 288.066 185.043 286.969 184.164C285.871 183.286 284.899 182.549 284.052 181.954L288.474 177.25ZM282.594 208.578C285.04 208.233 287.345 207.747 289.509 207.12C291.673 206.493 293.68 205.772 295.53 204.956C297.38 204.141 299.074 203.294 300.61 202.416C303.276 200.817 305.722 198.998 307.948 196.959C310.175 194.921 312.119 192.804 313.781 190.609C315.443 188.382 316.761 186.219 317.733 184.117L321.402 190.75C320.21 192.851 318.736 194.952 316.98 197.053C315.255 199.155 313.295 201.162 311.1 203.075C308.905 204.956 306.537 206.65 303.997 208.155C302.398 209.127 300.673 210.052 298.823 210.93C296.972 211.777 295.012 212.53 292.943 213.188C290.904 213.878 288.772 214.411 286.545 214.788L282.594 208.578Z" fill="#333333"/>
<path d="M35.9385 93.2269H22.812V57.2885L22.9395 51.3837L23.1519 44.9266C20.9712 47.1073 19.4561 48.5375 18.6064 49.2172L11.4697 54.952L5.14014 47.0507L25.1484 31.1205H35.9385V93.2269ZM126.711 93.2269H111.715L103.304 60.6019C102.992 59.4408 102.454 57.0477 101.69 53.4227C100.953 49.7694 100.529 47.3197 100.415 46.0736C100.245 47.6029 99.8206 50.0668 99.1409 53.4652C98.4612 56.8353 97.9373 59.2426 97.5691 60.6869L89.2005 93.2269H74.2474L58.4021 31.1205H71.3587L79.3025 65.0199C80.6902 71.2787 81.6956 76.702 82.3187 81.2899C82.4886 79.6757 82.8709 77.1835 83.4656 73.8134C84.0887 70.4149 84.6692 67.7811 85.2073 65.912L94.2557 31.1205H106.702L115.751 65.912C116.147 67.4696 116.643 69.8485 117.238 73.0487C117.832 76.2489 118.285 78.996 118.597 81.2899C118.88 79.0809 119.333 76.3339 119.956 73.0487C120.579 69.7352 121.146 67.059 121.656 65.0199L129.557 31.1205H142.513L126.711 93.2269ZM194.798 93.2269H159.03V31.1205H194.798V41.9105H172.199V55.5468H193.227V66.3368H172.199V82.3519H194.798V93.2269ZM252.266 93.2269H216.497V31.1205H252.266V41.9105H229.666V55.5468H250.694V66.3368H229.666V82.3519H252.266V93.2269ZM323.922 93.2269H308.969L292.699 67.059L287.134 71.0521V93.2269H273.965V31.1205H287.134V59.5399L292.317 52.2333L309.139 31.1205H323.752L302.087 58.6053L323.922 93.2269Z" fill="#FD6161"/>
</svg>
