<svg width="541" height="339" viewBox="0 0 541 339" fill="none" xmlns="http://www.w3.org/2000/svg">
<path d="M69.1905 198.644L74.132 204.869C71.6506 205.425 68.9552 205.917 66.046 206.345C63.1795 206.73 60.206 207.093 57.1256 207.436C54.0452 207.778 50.9648 208.056 47.8844 208.27C44.804 208.441 41.8306 208.591 38.9641 208.719C38.8785 207.821 38.6218 206.751 38.194 205.51C37.8089 204.27 37.4239 203.243 37.0388 202.43C39.8625 202.302 42.7504 202.131 45.7025 201.917C48.6545 201.66 51.5424 201.36 54.3661 201.018C57.1898 200.676 59.8638 200.312 62.388 199.927C64.9122 199.499 67.1797 199.072 69.1905 198.644ZM38.9641 210.644L45.3816 208.591C46.1089 209.789 46.8148 211.158 47.4994 212.698C48.2267 214.195 48.7401 215.479 49.0396 216.549L42.3012 218.923C42.0445 217.811 41.5953 216.484 40.9535 214.944C40.3118 213.361 39.6486 211.928 38.9641 210.644ZM51.2215 209.297L57.8316 207.821C58.3022 209.104 58.7942 210.516 59.3076 212.056C59.8638 213.597 60.2488 214.901 60.4627 215.971L53.5318 217.768C53.3607 216.698 53.0398 215.351 52.5692 213.725C52.1414 212.099 51.6921 210.623 51.2215 209.297ZM66.431 206.922L74.3245 209.168C73.1694 211.393 71.9928 213.597 70.7949 215.778C69.6398 217.96 68.5488 219.8 67.522 221.298L61.297 219.18C61.9388 218.067 62.5805 216.805 63.2223 215.393C63.864 213.939 64.463 212.484 65.0192 211.03C65.6181 209.532 66.0887 208.163 66.431 206.922ZM36.2687 218.217H75.6722V228.806H67.8429V225.148H43.7772V228.742H36.2687V218.217ZM39.67 230.09H66.9444V236.956H39.67V230.09ZM64.3132 230.09H65.8534L67.2011 229.769L72.1426 231.694C70.9019 235.758 69.1905 239.309 67.0086 242.347C64.8694 245.385 62.3024 247.973 59.3076 250.112C56.3127 252.251 52.9756 254.005 49.2963 255.374C45.6597 256.786 41.7236 257.92 37.4881 258.776C37.2742 258.091 36.9533 257.278 36.5254 256.337C36.1404 255.396 35.6912 254.476 35.1778 253.578C34.7071 252.679 34.2365 251.93 33.7659 251.331C37.6164 250.818 41.1888 250.027 44.4831 248.957C47.8202 247.887 50.8151 246.54 53.4677 244.914C56.1202 243.245 58.345 241.277 60.1419 239.01C61.9815 236.7 63.372 234.047 64.3132 231.052V230.09ZM48.2053 235.994C50.4728 240.229 53.9383 243.652 58.6017 246.262C63.3078 248.871 69.0622 250.647 75.8647 251.588C75.2658 252.102 74.6454 252.807 74.0037 253.706C73.3619 254.604 72.7416 255.503 72.1426 256.401C71.5864 257.3 71.1372 258.134 70.7949 258.904C63.4362 257.492 57.3395 255.075 52.505 251.652C47.7133 248.23 43.8628 243.673 40.9535 237.983L48.2053 235.994ZM15.2193 230.346C17.7863 229.79 20.8667 229.063 24.4605 228.164C28.0543 227.266 31.6695 226.346 35.3061 225.405L36.3971 233.042C33.1028 233.983 29.7657 234.945 26.3858 235.929C23.0059 236.871 19.8827 237.726 17.0162 238.496L15.2193 230.346ZM16.0536 210.259H35.7553V218.089H16.0536V210.259ZM22.5995 198.387H30.4288V250.048C30.4288 251.93 30.2363 253.449 29.8512 254.604C29.4662 255.76 28.7603 256.679 27.7335 257.364C26.7067 258.006 25.4445 258.433 23.9471 258.647C22.4925 258.861 20.6956 258.968 18.5564 258.968C18.5136 257.941 18.2783 256.637 17.8505 255.054C17.4227 253.513 16.9521 252.187 16.4387 251.075C17.551 251.118 18.5778 251.16 19.5191 251.203C20.5031 251.203 21.1876 251.182 21.5727 251.139C21.9577 251.139 22.2144 251.075 22.3428 250.946C22.5139 250.818 22.5995 250.519 22.5995 250.048V198.387ZM91.2668 237.47H148.832V244.401H91.2668V237.47ZM91.3951 208.527H148.575V215.458H91.3951V208.527ZM94.0263 220.142H146.072V226.752H94.0263V220.142ZM97.235 229.063H143.12V235.159H97.235V229.063ZM115.589 223.544H124.06V258.904H115.589V223.544ZM110.134 198.259H118.028V211.8H110.134V198.259ZM121.942 198.259H129.964V211.286H121.942V198.259ZM114.241 240.614L120.916 243.63C118.862 245.855 116.423 247.909 113.6 249.791C110.776 251.674 107.76 253.342 104.551 254.797C101.342 256.252 98.0479 257.407 94.668 258.262C94.283 257.535 93.7696 256.722 93.1278 255.824C92.5289 254.968 91.8871 254.112 91.2026 253.257C90.518 252.444 89.8549 251.738 89.2132 251.139C92.4647 250.54 95.6734 249.727 98.8394 248.7C102.005 247.631 104.915 246.411 107.567 245.042C110.263 243.63 112.487 242.154 114.241 240.614ZM125.6 240.422C126.884 241.62 128.424 242.775 130.221 243.887C132.018 244.957 134.007 245.919 136.189 246.775C138.414 247.631 140.724 248.379 143.12 249.021C145.559 249.663 148.062 250.176 150.629 250.561C149.987 251.203 149.302 251.973 148.575 252.872C147.848 253.77 147.142 254.69 146.457 255.631C145.816 256.615 145.281 257.492 144.853 258.262C142.286 257.621 139.783 256.808 137.344 255.824C134.906 254.882 132.574 253.77 130.349 252.487C128.125 251.16 126.05 249.706 124.124 248.123C122.199 246.54 120.488 244.85 118.99 243.053L125.6 240.422ZM136.639 198.708L145.623 200.762C144.553 202.516 143.505 204.206 142.478 205.831C141.494 207.457 140.575 208.848 139.719 210.003L132.852 207.885C133.323 207.029 133.793 206.067 134.264 204.997C134.777 203.927 135.227 202.837 135.612 201.724C136.04 200.612 136.382 199.606 136.639 198.708ZM128.232 212.506L137.28 214.559C136.382 216.142 135.526 217.618 134.713 218.987C133.9 220.356 133.152 221.533 132.467 222.517L125.215 220.527C125.772 219.329 126.328 218.003 126.884 216.549C127.44 215.051 127.889 213.703 128.232 212.506ZM95.8232 200.954L103.139 198.451C104.038 199.82 104.936 201.36 105.834 203.072C106.776 204.74 107.46 206.195 107.888 207.436L100.123 210.195C99.8234 208.955 99.2458 207.479 98.3902 205.767C97.5345 204.013 96.6788 202.409 95.8232 200.954ZM103.909 215.458L112.188 214.174C112.701 215.03 113.215 216.014 113.728 217.126C114.241 218.196 114.605 219.137 114.819 219.95L106.155 221.426C105.941 220.656 105.621 219.693 105.193 218.538C104.765 217.383 104.337 216.356 103.909 215.458ZM176.363 198.323L184.706 200.762C183.55 203.115 182.16 205.425 180.534 207.692C178.951 209.917 177.261 211.992 175.464 213.917C173.668 215.843 171.871 217.511 170.074 218.923C169.56 218.41 168.876 217.811 168.02 217.126C167.164 216.399 166.287 215.714 165.389 215.073C164.533 214.388 163.763 213.832 163.079 213.404C165.774 211.65 168.32 209.425 170.715 206.73C173.111 204.034 174.994 201.232 176.363 198.323ZM176.299 204.869H220.515V212.377H174.373L176.299 204.869ZM164.619 219.757H222.826V227.33H164.619V219.757ZM165.71 234.774H221.927V242.347H165.71V234.774ZM184.641 207.564H191.701V238.753H184.641V207.564ZM173.282 207.564H180.791V238.817H173.282V207.564ZM195.68 207.564H202.739V238.817H195.68V207.564ZM206.846 207.564H214.611V238.817H206.846V207.564ZM182.652 245.684L190.546 244.786C190.973 246.711 191.337 248.829 191.637 251.139C191.979 253.449 192.171 255.417 192.214 257.043L183.807 258.262C183.807 257.193 183.764 255.931 183.679 254.476C183.593 253.064 183.465 251.588 183.294 250.048C183.123 248.508 182.909 247.053 182.652 245.684ZM195.294 245.877L203.316 244.529C203.873 245.812 204.386 247.203 204.857 248.7C205.37 250.155 205.819 251.567 206.204 252.936C206.589 254.305 206.867 255.546 207.039 256.658L198.503 258.327C198.289 256.701 197.883 254.733 197.284 252.422C196.685 250.069 196.022 247.887 195.294 245.877ZM208.001 245.556L216.151 243.053C217.135 244.336 218.141 245.77 219.168 247.353C220.194 248.893 221.157 250.433 222.055 251.973C222.954 253.471 223.66 254.84 224.173 256.08L215.445 258.968C215.018 257.77 214.397 256.401 213.584 254.861C212.772 253.321 211.852 251.738 210.825 250.112C209.841 248.486 208.9 246.968 208.001 245.556ZM170.972 243.31L179.315 245.299C178.588 247.738 177.604 250.198 176.363 252.679C175.122 255.161 173.732 257.257 172.191 258.968L163.913 255.695C165.368 254.326 166.737 252.508 168.02 250.24C169.304 247.973 170.288 245.663 170.972 243.31ZM247.212 198.644H255.106V258.776H247.212V198.644ZM237.714 219.629H264.283V227.587H237.714V219.629ZM245.672 223.865L250.292 226.175C249.779 228.357 249.159 230.646 248.431 233.042C247.747 235.395 246.977 237.748 246.121 240.101C245.265 242.411 244.346 244.614 243.362 246.711C242.378 248.807 241.351 250.626 240.281 252.166C240.024 251.267 239.682 250.305 239.254 249.278C238.827 248.208 238.356 247.16 237.843 246.133C237.372 245.064 236.901 244.122 236.431 243.31C237.714 241.769 238.955 239.866 240.153 237.598C241.351 235.288 242.442 232.935 243.426 230.539C244.41 228.1 245.158 225.875 245.672 223.865ZM254.977 227.843C255.362 228.143 255.876 228.656 256.517 229.384C257.159 230.068 257.865 230.838 258.635 231.694C259.448 232.55 260.24 233.427 261.01 234.325C261.78 235.181 262.464 235.972 263.063 236.7C263.662 237.384 264.09 237.897 264.347 238.24L259.213 244.85C258.785 243.951 258.229 242.882 257.544 241.641C256.903 240.4 256.175 239.138 255.362 237.855C254.592 236.528 253.844 235.288 253.116 234.133C252.389 232.935 251.726 231.929 251.127 231.116L254.977 227.843ZM237.457 203.649L243.362 202.109C243.918 203.649 244.41 205.339 244.838 207.179C245.265 208.976 245.629 210.73 245.929 212.441C246.228 214.153 246.421 215.714 246.506 217.126L240.153 218.795C240.153 217.426 240.024 215.864 239.768 214.11C239.511 212.356 239.169 210.559 238.741 208.719C238.356 206.88 237.928 205.19 237.457 203.649ZM258.699 201.724L265.823 203.264C265.267 205.018 264.689 206.837 264.09 208.719C263.534 210.559 262.956 212.334 262.357 214.046C261.801 215.714 261.245 217.212 260.689 218.538L255.362 217.062C255.79 215.65 256.218 214.046 256.646 212.249C257.074 210.452 257.48 208.634 257.865 206.794C258.25 204.954 258.528 203.264 258.699 201.724ZM282.829 198.259H290.787V258.84H282.829V198.259ZM264.09 238.24L297.076 232.336L298.36 240.229L265.438 246.197L264.09 238.24ZM267.427 207.243L271.534 201.467C272.732 202.195 273.973 203.008 275.257 203.906C276.583 204.805 277.824 205.724 278.979 206.666C280.177 207.564 281.118 208.42 281.802 209.233L277.374 215.65C276.733 214.794 275.856 213.875 274.743 212.891C273.631 211.907 272.433 210.923 271.149 209.939C269.866 208.912 268.625 208.013 267.427 207.243ZM264.604 223.415L268.582 217.319C269.823 217.96 271.128 218.731 272.497 219.629C273.866 220.485 275.171 221.362 276.412 222.26C277.652 223.159 278.658 224.014 279.428 224.827L275.192 231.566C274.465 230.795 273.502 229.918 272.305 228.934C271.107 227.95 269.823 226.988 268.454 226.046C267.128 225.062 265.844 224.185 264.604 223.415ZM322.874 198.58L330.896 201.018C329.656 204.655 328.158 208.313 326.404 211.992C324.65 215.672 322.746 219.18 320.693 222.517C318.639 225.811 316.521 228.699 314.339 231.18C314.083 230.496 313.676 229.598 313.12 228.485C312.564 227.33 311.986 226.175 311.387 225.02C310.831 223.865 310.296 222.945 309.783 222.26C311.537 220.335 313.227 218.11 314.853 215.586C316.521 213.019 318.04 210.281 319.409 207.372C320.778 204.462 321.933 201.532 322.874 198.58ZM317.869 216.613L325.891 208.527L325.955 208.591V258.84H317.869V216.613ZM345.272 198.644H353.614V258.455H345.272V198.644ZM329.485 209.297H370.942V217.383H329.485V209.297ZM337.442 240.807H361.7V248.379H337.442V240.807ZM356.438 213.917C357.55 217.468 358.941 221.062 360.609 224.699C362.321 228.293 364.225 231.672 366.321 234.838C368.417 237.962 370.599 240.636 372.867 242.86C371.883 243.63 370.77 244.657 369.53 245.941C368.289 247.181 367.284 248.379 366.514 249.535C364.246 246.839 362.085 243.673 360.032 240.037C358.021 236.4 356.203 232.485 354.577 228.293C352.994 224.1 351.604 219.886 350.406 215.65L356.438 213.917ZM342.833 213.211L348.93 214.88C347.732 219.372 346.298 223.779 344.63 228.1C342.961 232.421 341.057 236.443 338.918 240.165C336.779 243.844 334.447 247.032 331.923 249.727C331.453 249.043 330.854 248.294 330.126 247.481C329.399 246.668 328.65 245.877 327.88 245.106C327.153 244.336 326.468 243.716 325.827 243.245C328.265 241.021 330.554 238.304 332.693 235.095C334.875 231.844 336.843 228.335 338.597 224.57C340.351 220.763 341.763 216.976 342.833 213.211ZM420.998 229.576V234.838H436.336V229.576H420.998ZM414.131 223.544H443.588V240.871H414.131V223.544ZM428.122 205.703C427.18 207.372 425.961 209.147 424.464 211.03C423.009 212.869 421.362 214.645 419.522 216.356C417.682 218.067 415.757 219.522 413.746 220.72C413.361 219.736 412.784 218.581 412.014 217.254C411.286 215.885 410.58 214.773 409.896 213.917C411.907 212.762 413.832 211.329 415.672 209.618C417.511 207.864 419.158 206.002 420.613 204.034C422.11 202.024 423.308 200.12 424.207 198.323H431.523C432.806 200.248 434.24 202.152 435.823 204.034C437.406 205.874 439.095 207.543 440.892 209.04C442.732 210.495 444.572 211.671 446.411 212.57C445.684 213.554 444.935 214.752 444.165 216.164C443.395 217.533 442.732 218.795 442.176 219.95C440.379 218.837 438.603 217.511 436.849 215.971C435.095 214.388 433.448 212.698 431.908 210.901C430.41 209.104 429.148 207.372 428.122 205.703ZM424.849 216.934H432.357V229.319C432.357 231.929 432.165 234.582 431.78 237.277C431.394 239.972 430.603 242.646 429.405 245.299C428.25 247.909 426.539 250.39 424.271 252.743C422.004 255.096 418.945 257.214 415.094 259.097C414.752 258.498 414.26 257.813 413.618 257.043C413.019 256.316 412.377 255.588 411.693 254.861C411.051 254.177 410.452 253.599 409.896 253.128C413.233 251.588 415.886 249.877 417.854 247.994C419.864 246.069 421.362 244.058 422.346 241.962C423.373 239.866 424.036 237.726 424.335 235.544C424.677 233.362 424.849 231.245 424.849 229.191V216.934ZM432.935 237.277C434.047 240.529 435.737 243.481 438.005 246.133C440.272 248.786 442.989 250.797 446.155 252.166C445.599 252.679 444.978 253.321 444.294 254.091C443.609 254.904 442.946 255.717 442.304 256.53C441.662 257.385 441.149 258.155 440.764 258.84C437.213 256.915 434.282 254.198 431.972 250.69C429.662 247.181 427.843 243.245 426.517 238.881L432.935 237.277ZM418.624 214.11H438.325V220.592H418.624V214.11ZM391.798 210.388H410.473V216.741H391.798V210.388ZM391.798 220.078H410.473V226.496H391.798V220.078ZM387.82 229.833H409.96V236.379H387.82V229.833ZM398.601 204.612H405.275V233.491H398.601V204.612ZM400.655 239.202L403.863 238.111C404.505 239.395 405.083 240.807 405.596 242.347C406.152 243.844 406.537 245.149 406.751 246.262L403.35 247.481C403.136 246.369 402.772 245.042 402.259 243.502C401.788 241.919 401.254 240.486 400.655 239.202ZM396.547 239.972L400.013 239.395C400.526 241.063 400.954 242.86 401.296 244.786C401.681 246.711 401.917 248.358 402.002 249.727L398.28 250.497C398.237 249.085 398.045 247.395 397.703 245.427C397.403 243.459 397.018 241.641 396.547 239.972ZM392.119 240.293L395.649 239.908C395.991 241.791 396.205 243.844 396.291 246.069C396.376 248.294 396.376 250.198 396.291 251.781L392.569 252.294C392.654 250.668 392.654 248.743 392.569 246.518C392.526 244.294 392.376 242.219 392.119 240.293ZM387.306 238.881L391.927 239.716C391.841 241.727 391.67 243.695 391.413 245.62C391.2 247.545 390.836 249.342 390.322 251.011C389.852 252.636 389.167 254.07 388.269 255.31L384.033 253C384.803 251.888 385.402 250.604 385.83 249.149C386.258 247.652 386.579 246.026 386.793 244.272C387.05 242.475 387.221 240.678 387.306 238.881ZM387.82 200.633H411.757V207.436H394.751V234.389H387.82V200.633ZM406.238 229.833H413.233C413.233 229.833 413.233 230.196 413.233 230.924C413.233 231.608 413.212 232.165 413.169 232.592C412.955 237.726 412.72 241.919 412.463 245.171C412.249 248.379 411.971 250.861 411.629 252.615C411.286 254.326 410.858 255.524 410.345 256.209C409.789 256.979 409.19 257.535 408.548 257.877C407.949 258.22 407.265 258.455 406.495 258.583C405.81 258.754 404.954 258.84 403.928 258.84C402.944 258.883 401.895 258.883 400.783 258.84C400.74 257.813 400.569 256.679 400.27 255.439C399.97 254.198 399.564 253.15 399.05 252.294C399.82 252.38 400.505 252.444 401.104 252.487C401.746 252.487 402.259 252.487 402.644 252.487C403.029 252.487 403.35 252.444 403.607 252.358C403.863 252.23 404.12 252.016 404.377 251.716C404.676 251.246 404.933 250.326 405.147 248.957C405.361 247.545 405.553 245.406 405.724 242.539C405.938 239.673 406.11 235.844 406.238 231.052V229.833Z" fill="#FD6161"/>
<path d="M36.9105 283.051C36.6966 282.109 36.4613 281.232 36.2046 280.419C35.9906 279.607 35.7553 278.815 35.4986 278.045L45.5741 276.441C45.6597 277.082 45.7453 277.895 45.8308 278.879C45.9592 279.863 46.0875 280.762 46.2159 281.575C46.3442 282.259 46.5367 283.414 46.7934 285.04C47.0929 286.666 47.4566 288.634 47.8844 290.944C48.355 293.212 48.847 295.672 49.3604 298.324C49.8738 300.977 50.3873 303.672 50.9007 306.41C51.4141 309.106 51.9061 311.694 52.3767 314.176C52.8473 316.614 53.2751 318.796 53.6602 320.721C54.0452 322.604 54.3447 324.059 54.5586 325.085C54.7725 326.027 55.0079 327.075 55.2646 328.23C55.564 329.342 55.8635 330.433 56.163 331.503L45.9592 333.236C45.788 332.038 45.6597 330.861 45.5741 329.706C45.4886 328.594 45.3388 327.567 45.1249 326.626C44.9538 325.727 44.6971 324.379 44.3548 322.582C44.0553 320.743 43.6703 318.625 43.1996 316.229C42.7718 313.833 42.3012 311.309 41.7878 308.657C41.2744 305.961 40.761 303.287 40.2476 300.635C39.7342 297.939 39.2422 295.415 38.7716 293.062C38.3437 290.709 37.9587 288.655 37.6164 286.901C37.2741 285.147 37.0388 283.864 36.9105 283.051ZM19.5191 290.944C20.5886 290.859 21.6154 290.794 22.5995 290.752C23.6263 290.666 24.6531 290.559 25.6799 290.431C26.5783 290.302 27.8832 290.131 29.5945 289.917C31.3059 289.661 33.2525 289.383 35.4345 289.083C37.6592 288.741 39.9481 288.399 42.3012 288.056C44.6971 287.671 47.0074 287.308 49.2321 286.965C51.4568 286.58 53.4463 286.238 55.2004 285.939C56.9545 285.639 58.3022 285.382 59.2434 285.168C60.313 284.997 61.4254 284.783 62.5805 284.527C63.7784 284.227 64.8052 283.971 65.6609 283.757L67.3936 293.062C66.6235 293.105 65.6181 293.212 64.3774 293.383C63.1795 293.554 62.0671 293.704 61.0403 293.832C59.9279 294.003 58.4305 294.239 56.5481 294.538C54.6656 294.837 52.5906 295.18 50.3231 295.565C48.0556 295.907 45.7453 296.271 43.3922 296.656C41.0391 297.041 38.793 297.404 36.6538 297.747C34.5146 298.089 32.6322 298.389 31.0064 298.645C29.4234 298.902 28.2469 299.094 27.4768 299.223C26.45 299.437 25.4659 299.651 24.5247 299.865C23.6263 300.078 22.5995 300.335 21.4443 300.635L19.5191 290.944ZM19.6474 309.812C20.5459 309.769 21.6582 309.683 22.9845 309.555C24.3536 309.427 25.5515 309.277 26.5783 309.106C27.7335 308.935 29.2737 308.699 31.1989 308.4C33.1242 308.1 35.2847 307.758 37.6806 307.373C40.1192 306.988 42.6007 306.603 45.1249 306.218C47.6919 305.79 50.1733 305.384 52.5692 304.999C55.0079 304.571 57.2326 304.186 59.2434 303.843C61.2542 303.458 62.8586 303.159 64.0565 302.945C65.2973 302.731 66.5166 302.474 67.7145 302.175C68.9124 301.875 69.9606 301.619 70.8591 301.405L72.7202 310.71C71.8217 310.753 70.7307 310.881 69.4472 311.095C68.1637 311.309 66.923 311.523 65.7251 311.737C64.356 311.951 62.6447 312.229 60.5911 312.571C58.5375 312.871 56.2914 313.234 53.8527 313.662C51.4141 314.047 48.9112 314.454 46.3442 314.881C43.82 315.267 41.36 315.673 38.9641 316.101C36.611 316.486 34.4932 316.85 32.6108 317.192C30.7711 317.491 29.3164 317.748 28.2469 317.962C26.835 318.219 25.5515 318.454 24.3964 318.668C23.284 318.839 22.3641 319.031 21.6368 319.245L19.6474 309.812ZM113.792 287.8C113.921 288.613 114.07 289.447 114.241 290.302C114.455 291.158 114.648 292.014 114.819 292.869C115.204 294.281 115.675 295.993 116.231 298.003C116.787 299.971 117.386 302.132 118.028 304.485C118.669 306.795 119.311 309.149 119.953 311.544C120.638 313.897 121.279 316.165 121.878 318.347C122.477 320.486 123.012 322.39 123.483 324.059C123.953 325.727 124.338 327.032 124.638 327.973C124.766 328.358 124.937 328.893 125.151 329.578C125.365 330.305 125.579 331.032 125.793 331.76C126.05 332.487 126.264 333.064 126.435 333.492L116.808 335.867C116.68 334.968 116.509 333.984 116.295 332.915C116.124 331.888 115.889 330.904 115.589 329.963C115.29 329.021 114.905 327.674 114.434 325.92C114.006 324.123 113.493 322.112 112.894 319.887C112.295 317.662 111.674 315.352 111.033 312.956C110.434 310.518 109.813 308.143 109.172 305.833C108.573 303.523 108.016 301.405 107.503 299.479C106.99 297.554 106.54 295.993 106.155 294.795C105.941 293.982 105.663 293.169 105.321 292.356C104.979 291.543 104.615 290.773 104.23 290.046L113.792 287.8ZM144.596 298.068C143.912 299.437 143.035 301.041 141.965 302.881C140.895 304.72 139.698 306.603 138.371 308.528C137.088 310.453 135.804 312.293 134.521 314.047C133.237 315.759 132.039 317.235 130.927 318.475L123.098 314.561C124.124 313.619 125.237 312.486 126.435 311.159C127.633 309.79 128.745 308.421 129.772 307.052C130.841 305.683 131.633 304.507 132.146 303.523C131.633 303.608 130.734 303.779 129.451 304.036C128.167 304.293 126.627 304.613 124.83 304.999C123.076 305.384 121.151 305.79 119.055 306.218C116.958 306.646 114.84 307.095 112.701 307.566C110.605 307.993 108.573 308.421 106.605 308.849C104.679 309.234 102.968 309.598 101.471 309.94C100.016 310.239 98.9036 310.475 98.1335 310.646L95.9515 302.239C97.0211 302.153 98.0265 302.046 98.9678 301.918C99.909 301.79 100.936 301.64 102.048 301.469C102.519 301.383 103.396 301.234 104.679 301.02C106.006 300.763 107.567 300.463 109.364 300.121C111.161 299.779 113.086 299.415 115.14 299.03C117.193 298.645 119.268 298.26 121.365 297.875C123.461 297.49 125.451 297.105 127.333 296.72C129.216 296.335 130.863 296.014 132.275 295.757C133.686 295.458 134.735 295.244 135.419 295.116C136.018 294.987 136.617 294.816 137.216 294.602C137.858 294.388 138.393 294.196 138.82 294.025L144.596 298.068ZM177.325 279.714C178.438 280.484 179.743 281.446 181.24 282.601C182.738 283.714 184.278 284.912 185.861 286.195C187.487 287.479 189.005 288.762 190.417 290.046C191.829 291.286 193.006 292.399 193.947 293.383L186.695 300.827C185.839 299.886 184.748 298.795 183.422 297.554C182.139 296.314 180.727 295.03 179.187 293.704C177.646 292.335 176.128 291.051 174.63 289.853C173.133 288.655 171.785 287.671 170.587 286.901L177.325 279.714ZM168.534 322.39C171.828 321.919 174.908 321.278 177.775 320.465C180.684 319.652 183.401 318.732 185.925 317.705C188.449 316.636 190.759 315.502 192.856 314.304C196.621 312.079 200.043 309.576 203.124 306.795C206.204 303.972 208.9 301.041 211.21 298.003C213.563 294.923 215.424 291.907 216.793 288.955L222.312 298.966C220.644 301.918 218.569 304.849 216.087 307.758C213.649 310.667 210.889 313.427 207.809 316.037C204.771 318.604 201.498 320.935 197.99 323.032C195.808 324.315 193.455 325.535 190.931 326.69C188.406 327.845 185.754 328.85 182.973 329.706C180.235 330.604 177.432 331.289 174.566 331.76L168.534 322.39ZM282.123 289.468C282.123 290.581 282.487 291.522 283.214 292.292C283.984 293.019 284.926 293.383 286.038 293.383C287.108 293.383 288.006 293.019 288.733 292.292C289.503 291.522 289.888 290.581 289.888 289.468C289.888 288.399 289.503 287.5 288.733 286.773C288.006 286.003 287.108 285.618 286.038 285.618C284.926 285.618 283.984 286.003 283.214 286.773C282.487 287.5 282.123 288.399 282.123 289.468ZM277.567 289.468C277.567 287.885 277.931 286.452 278.658 285.168C279.428 283.885 280.455 282.88 281.738 282.152C283.022 281.382 284.455 280.997 286.038 280.997C287.621 280.997 289.054 281.382 290.338 282.152C291.621 282.88 292.627 283.885 293.354 285.168C294.124 286.452 294.509 287.885 294.509 289.468C294.509 291.051 294.124 292.484 293.354 293.768C292.627 295.051 291.621 296.078 290.338 296.848C289.054 297.576 287.621 297.939 286.038 297.939C284.455 297.939 283.022 297.576 281.738 296.848C280.455 296.078 279.428 295.051 278.658 293.768C277.931 292.484 277.567 291.051 277.567 289.468ZM237.329 310.325C238.313 309.512 239.212 308.721 240.024 307.951C240.88 307.18 241.821 306.282 242.848 305.255C243.576 304.528 244.388 303.629 245.287 302.56C246.228 301.49 247.233 300.314 248.303 299.03C249.415 297.747 250.528 296.42 251.64 295.051C252.795 293.64 253.929 292.27 255.041 290.944C257.009 288.591 259.042 287.308 261.138 287.094C263.234 286.837 265.566 287.928 268.133 290.367C269.673 291.736 271.192 293.19 272.69 294.731C274.187 296.271 275.663 297.811 277.118 299.351C278.572 300.849 279.941 302.303 281.225 303.715C282.68 305.255 284.305 307.009 286.102 308.977C287.942 310.903 289.824 312.892 291.75 314.946C293.675 316.999 295.45 318.903 297.076 320.657L289.247 329.128C287.835 327.331 286.337 325.47 284.754 323.545C283.172 321.577 281.61 319.652 280.07 317.769C278.572 315.887 277.203 314.24 275.963 312.828C275.021 311.673 273.994 310.475 272.882 309.234C271.77 307.951 270.657 306.71 269.545 305.512C268.475 304.271 267.47 303.159 266.529 302.175C265.63 301.191 264.924 300.421 264.411 299.865C263.384 298.881 262.486 298.41 261.716 298.453C260.988 298.495 260.197 299.073 259.341 300.185C258.742 300.956 258.036 301.897 257.223 303.009C256.453 304.079 255.64 305.212 254.785 306.41C253.929 307.608 253.095 308.785 252.282 309.94C251.469 311.052 250.742 312.036 250.1 312.892C249.373 313.962 248.624 315.053 247.854 316.165C247.127 317.277 246.463 318.283 245.864 319.181L237.329 310.325ZM314.917 298.709C315.73 298.752 316.778 298.816 318.061 298.902C319.345 298.987 320.65 299.052 321.976 299.094C323.345 299.137 324.564 299.159 325.634 299.159C326.832 299.159 328.222 299.159 329.805 299.159C331.431 299.159 333.164 299.159 335.004 299.159C336.886 299.159 338.79 299.159 340.715 299.159C342.683 299.159 344.608 299.159 346.491 299.159C348.416 299.159 350.234 299.159 351.946 299.159C353.657 299.159 355.197 299.159 356.566 299.159C357.935 299.159 359.048 299.159 359.903 299.159C361.401 299.159 362.834 299.094 364.203 298.966C365.572 298.838 366.706 298.752 367.604 298.709V309.94C366.834 309.897 365.679 309.833 364.139 309.747C362.642 309.619 361.23 309.555 359.903 309.555C359.048 309.555 357.914 309.555 356.502 309.555C355.133 309.555 353.593 309.555 351.882 309.555C350.17 309.555 348.352 309.555 346.427 309.555C344.544 309.555 342.619 309.555 340.651 309.555C338.726 309.555 336.843 309.555 335.004 309.555C333.164 309.555 331.431 309.555 329.805 309.555C328.18 309.555 326.789 309.555 325.634 309.555C323.794 309.555 321.869 309.598 319.858 309.683C317.847 309.769 316.2 309.854 314.917 309.94V298.709ZM395.533 279.714C396.646 280.484 397.95 281.446 399.448 282.601C400.945 283.714 402.485 284.912 404.068 286.195C405.694 287.479 407.213 288.762 408.625 290.046C410.037 291.286 411.213 292.399 412.154 293.383L404.903 300.827C404.047 299.886 402.956 298.795 401.63 297.554C400.346 296.314 398.934 295.03 397.394 293.704C395.854 292.335 394.335 291.051 392.838 289.853C391.34 288.655 389.993 287.671 388.795 286.901L395.533 279.714ZM386.741 322.39C390.035 321.919 393.116 321.278 395.982 320.465C398.892 319.652 401.608 318.732 404.133 317.705C406.657 316.636 408.967 315.502 411.064 314.304C414.828 312.079 418.251 309.576 421.332 306.795C424.412 303.972 427.107 301.041 429.418 298.003C431.771 294.923 433.632 291.907 435.001 288.955L440.52 298.966C438.851 301.918 436.776 304.849 434.295 307.758C431.856 310.667 429.097 313.427 426.016 316.037C422.979 318.604 419.706 320.935 416.198 323.032C414.016 324.315 411.662 325.535 409.138 326.69C406.614 327.845 403.961 328.85 401.181 329.706C398.442 330.604 395.64 331.289 392.774 331.76L386.741 322.39Z" fill="#333333"/>
<path d="M64.3213 166.227H40.8281V101.906C40.8281 100.132 40.8534 97.9521 40.9041 95.3671C40.9548 92.7314 41.0308 90.045 41.1322 87.3079C41.2336 84.5201 41.3349 82.0111 41.4363 79.7809C40.8787 80.4399 39.7383 81.5803 38.015 83.2023C36.3423 84.7736 34.771 86.1928 33.3011 87.4599L20.5281 97.724L9.19962 83.5824L45.0097 55.0712H64.3213V166.227ZM212.621 86.5237L192.341 166.227H173.096L162.302 124.358C162.084 123.559 161.793 122.341 161.43 120.706C161.066 119.07 160.685 117.289 160.285 115.363C159.885 113.4 159.522 111.565 159.195 109.857C158.904 108.112 158.704 106.731 158.595 105.714C158.486 106.731 158.268 108.094 157.941 109.802C157.65 111.51 157.305 113.328 156.905 115.254C156.541 117.18 156.178 118.979 155.815 120.651C155.451 122.323 155.16 123.595 154.942 124.467L144.203 166.227H125.013L104.678 86.5237H121.306L131.5 130.028C131.791 131.336 132.118 132.899 132.481 134.716C132.881 136.534 133.263 138.442 133.626 140.441C134.026 142.403 134.371 144.311 134.662 146.165C134.989 147.982 135.225 149.563 135.371 150.908C135.553 149.527 135.789 147.928 136.08 146.11C136.37 144.257 136.679 142.385 137.006 140.495C137.37 138.569 137.733 136.788 138.097 135.152C138.46 133.517 138.787 132.19 139.078 131.173L150.69 86.5237H166.663L178.275 131.173C178.53 132.154 178.821 133.481 179.148 135.152C179.511 136.788 179.875 138.569 180.238 140.495C180.601 142.421 180.929 144.311 181.219 146.165C181.546 147.982 181.783 149.563 181.928 150.908C182.182 149.091 182.528 146.892 182.964 144.311C183.436 141.694 183.927 139.096 184.436 136.515C184.981 133.935 185.453 131.772 185.853 130.028L195.993 86.5237H212.621ZM279.72 166.227H233.817V86.5237H279.72V100.371H250.717V117.871H277.703V131.718H250.717V152.271H279.72V166.227ZM353.47 166.227H307.567V86.5237H353.47V100.371H324.467V117.871H351.453V131.718H324.467V152.271H353.47V166.227ZM445.429 166.227H426.239L405.359 132.645L398.217 137.769V166.227H381.317V86.5237H398.217V122.995C399.344 121.432 400.452 119.87 401.543 118.307C402.633 116.744 403.742 115.181 404.868 113.618L426.457 86.5237H445.21L417.407 121.796L445.429 166.227Z" fill="#FD6161"/>
</svg>
