<svg width="76" height="77" viewBox="0 0 76 77" fill="none" xmlns="http://www.w3.org/2000/svg">
<circle cx="38.0005" cy="38.9238" r="38" fill="#A56FA5"/>
<path d="M48.0005 31.9238L31.5005 41.4501V22.3975L48.0005 31.9238Z" fill="white"/>
<path d="M58.2122 49.6161L55.3262 54.2441V58.9241H53.4672V54.2441L50.6592 49.6161L52.2452 48.6541L54.4032 52.2161L56.6392 48.6411L58.2122 49.6161Z" fill="white"/>
<path d="M47.0799 58.4691L45.3769 59.2101L42.6599 52.9311L41.6719 54.9201H43.3619V56.7791H40.7489L39.5659 59.1581L37.9019 58.3391L42.7769 48.5371L47.0799 58.4691Z" fill="white"/>
<path d="M34.3177 58.9241H28.5327V48.8101H30.3917V57.0651H34.3177V58.9241Z" fill="white"/>
<path d="M24.3118 52.2939C24.3118 53.2299 24.0258 54.0359 23.4538 54.7249C22.8818 55.4139 22.1278 55.8429 21.2048 56.0249L20.8538 54.2049C21.3218 54.1139 21.7118 53.8799 22.0108 53.5289C22.3098 53.1779 22.4528 52.7749 22.4528 52.2939C22.4528 51.7349 22.2578 51.3059 21.8808 51.0069C21.5298 50.7339 21.0748 50.5909 20.5028 50.5909C20.3858 50.5909 20.2558 50.5909 20.1388 50.6039V58.9239H18.2798V49.0959C19.2808 48.8489 20.0218 48.7319 20.5028 48.7319C21.5818 48.7319 22.4788 49.0569 23.1938 49.6939C23.9348 50.3569 24.3118 51.2149 24.3118 52.2939Z" fill="white"/>
</svg>
