<svg width="376" height="39" viewBox="0 0 376 39" fill="none" xmlns="http://www.w3.org/2000/svg">
<path d="M375.681 20.2218C375.681 27.6141 373.58 33.8782 369.417 38.975L365.487 35.7457C368.911 31.5827 370.623 26.408 370.623 20.2996C370.623 13.841 368.911 8.35511 365.448 3.88079L369.456 0.807129C373.619 6.1374 375.681 12.6349 375.681 20.2218Z" fill="white"/>
<path d="M358.601 38.2357H353.154V24.0347H332.027V38.2357H326.58V3.4917H358.601V38.2357ZM353.154 18.5877V8.74416H345.178V18.5877H353.154ZM339.731 18.5877V8.74416H332.027V18.5877H339.731Z" fill="white"/>
<path d="M320.792 19.599C320.792 23.6064 320.014 27.0692 318.458 29.9483C316.551 33.4888 313.711 35.2786 310.015 35.2786C306.319 35.2786 303.478 33.4888 301.572 29.9483C300.055 27.1081 299.276 23.6453 299.276 19.599C299.276 15.5527 300.055 12.0899 301.572 9.24971C303.478 5.70916 306.319 3.91943 310.015 3.91943C313.711 3.91943 316.551 5.70916 318.458 9.24971C320.014 12.1288 320.792 15.5916 320.792 19.599ZM315.189 19.599C315.189 17.3424 314.839 15.2803 314.178 13.4128C313.283 10.8838 311.882 9.59987 310.015 9.59987C308.186 9.59987 306.785 10.8838 305.891 13.4128C305.229 15.2803 304.879 17.3424 304.879 19.599C304.879 21.8556 305.229 23.9177 305.891 25.7852C306.785 28.3142 308.186 29.5981 310.015 29.5981C311.882 29.5981 313.283 28.3142 314.178 25.7852C314.839 23.9177 315.189 21.8556 315.189 19.599Z" fill="white"/>
<path d="M294.462 19.599C294.462 23.6064 293.684 27.0692 292.127 29.9483C290.221 33.4888 287.381 35.2786 283.685 35.2786C279.988 35.2786 277.148 33.4888 275.242 29.9483C273.724 27.1081 272.946 23.6453 272.946 19.599C272.946 15.5527 273.724 12.0899 275.242 9.24971C277.148 5.70916 279.988 3.91943 283.685 3.91943C287.381 3.91943 290.221 5.70916 292.127 9.24971C293.684 12.1288 294.462 15.5916 294.462 19.599ZM288.859 19.599C288.859 17.3424 288.509 15.2803 287.848 13.4128C286.953 10.8838 285.552 9.59987 283.685 9.59987C281.856 9.59987 280.455 10.8838 279.56 13.4128C278.899 15.2803 278.549 17.3424 278.549 19.599C278.549 21.8556 278.899 23.9177 279.56 25.7852C280.455 28.3142 281.856 29.5981 283.685 29.5981C285.552 29.5981 286.953 28.3142 287.848 25.7852C288.509 23.9177 288.859 21.8556 288.859 19.599Z" fill="white"/>
<path d="M268.222 26.1359C268.222 28.8983 267.327 31.0771 265.498 32.7501C263.67 34.4231 261.374 35.2791 258.612 35.2791C255.966 35.2791 253.748 34.4231 251.92 32.7501C250.091 31.0771 249.157 28.8983 249.157 26.2916C249.157 23.7626 250.441 21.0391 252.97 18.1989C250.908 16.3702 249.896 14.3082 249.896 12.0516C249.896 9.79494 250.597 7.84958 252.036 6.25439C253.515 4.54248 255.343 3.68652 257.561 3.68652C259.584 3.68652 261.18 4.07559 262.308 4.81483L260.324 9.95057C259.818 9.5615 258.923 9.36696 257.561 9.36696C256.9 9.36696 256.394 9.6004 256.005 10.1062C255.616 10.612 255.421 11.1956 255.421 11.857C255.421 12.713 256.044 13.5689 257.25 14.4638C259.156 12.9075 261.491 11.2734 264.175 9.6004L266.899 14.3082C265.148 15.3976 263.553 16.4481 262.191 17.4596C266.199 19.9886 268.222 22.8677 268.222 26.1359ZM262.697 26.1359C262.697 24.3073 261.024 22.5954 257.678 20.9613C256.822 21.5449 256.122 22.3619 255.538 23.4124C254.954 24.4629 254.682 25.5134 254.682 26.525C254.682 27.4977 255.071 28.3147 255.888 28.9761C256.705 29.6376 257.6 29.9488 258.612 29.9488C259.74 29.9488 260.713 29.5987 261.53 28.8594C262.308 28.1591 262.697 27.2642 262.697 26.1359Z" fill="white"/>
<path d="M244.458 27.7309L242.318 38.6638L237.61 38.0802L239.167 26.9917L244.458 27.7309Z" fill="white"/>
<path d="M232.887 26.1359C232.887 28.8983 231.992 31.0771 230.163 32.7501C228.335 34.4231 226.039 35.2791 223.277 35.2791C220.631 35.2791 218.413 34.4231 216.585 32.7501C214.756 31.0771 213.822 28.8983 213.822 26.2916C213.822 23.7626 215.106 21.0391 217.635 18.1989C215.573 16.3702 214.562 14.3082 214.562 12.0516C214.562 9.79494 215.262 7.84958 216.701 6.25439C218.18 4.54248 220.008 3.68652 222.226 3.68652C224.249 3.68652 225.845 4.07559 226.973 4.81483L224.989 9.95057C224.483 9.5615 223.588 9.36696 222.226 9.36696C221.565 9.36696 221.059 9.6004 220.67 10.1062C220.281 10.612 220.086 11.1956 220.086 11.857C220.086 12.713 220.709 13.5689 221.915 14.4638C223.821 12.9075 226.156 11.2734 228.84 9.6004L231.564 14.3082C229.813 15.3976 228.218 16.4481 226.856 17.4596C230.864 19.9886 232.887 22.8677 232.887 26.1359ZM227.362 26.1359C227.362 24.3073 225.689 22.5954 222.343 20.9613C221.487 21.5449 220.787 22.3619 220.203 23.4124C219.619 24.4629 219.347 25.5134 219.347 26.525C219.347 27.4977 219.736 28.3147 220.553 28.9761C221.37 29.6376 222.265 29.9488 223.277 29.9488C224.405 29.9488 225.378 29.5987 226.195 28.8594C226.973 28.1591 227.362 27.2642 227.362 26.1359Z" fill="white"/>
<path d="M207.937 3.88079C204.474 8.35511 202.762 13.841 202.762 20.2996C202.762 26.408 204.474 31.5827 207.898 35.7457L204.007 38.975C199.844 33.8782 197.743 27.6141 197.743 20.2218C197.743 12.6349 199.805 6.1374 203.929 0.807129L207.937 3.88079Z" fill="white"/>
<path d="M192.801 26.4463L187.82 28.6251L178.911 8.54904H170.818V3.10205H182.451L192.801 26.4463ZM164.749 7.07058L160.936 10.9224L156.928 6.95385L160.78 3.10205L164.749 7.07058ZM181.167 17.4977C178.716 21.972 175.643 25.8627 171.869 29.1698L168.523 25.1624C171.83 22.2443 174.514 18.7816 176.576 14.7742L181.167 17.4977ZM193.151 34.8113C189.104 36.4454 184.63 37.2625 179.728 37.2625C172.841 37.2625 167.511 35.7451 163.737 32.7493L160.274 36.9512L156.072 33.4885L160.702 27.8859V18.9372H157.201V13.4902H166.149V28.1582C168.834 30.8428 173.386 32.2046 179.806 32.2046C184.008 32.2046 187.82 31.5042 191.283 30.1425L193.151 34.8113Z" fill="white"/>
<path d="M138.33 23.8409H146.89V12.3633H138.33V15.2813H145.645V20.3393H138.33V23.8409ZM132.883 20.3393H125.297V23.8409H132.883V20.3393ZM132.883 12.3633H125.297V15.2813H132.883V12.3633ZM132.883 1.8584H138.33V6.91632H152.337V29.2879H138.33V38.042H132.883V29.2879H119.85V6.91632H132.883V1.8584Z" fill="white"/>
<path d="M114.252 18.8667L112.155 21.0249L109.966 18.9275L107.839 21.1161L105.68 19.0187L107.808 16.8606L109.966 18.9275L112.094 16.7694L114.252 18.8667ZM109.085 11.1157C107.079 13.0307 105.528 15.3104 104.404 17.9549C103.279 20.5993 102.732 23.335 102.732 26.1314C102.732 29.2014 103.401 32.0587 104.768 34.6728L100.878 37.0437C98.9324 33.8521 97.9598 30.1437 97.9598 25.8883C97.9598 21.9976 98.8108 18.5932 100.543 15.6751H90.7559V11.1157H109.085Z" fill="white"/>
<path d="M81.8726 21.5052H73.5465V15.9415H81.8726V21.5052ZM83.1565 34.7336H66.1152V4.46387H83.1565V9.98868H71.679V29.1699H83.1565V34.7336Z" fill="white"/>
<path d="M59.7929 35.7448L41.8956 17.4585L41.8567 34.7332H36.293L36.3319 3.87988L54.2291 22.1662V4.46349H59.7929V35.7448Z" fill="white"/>
<path d="M29.218 34.7336H23.6543V4.46387H29.218V34.7336Z" fill="white"/>
<path d="M18.258 34.7336H0.944336V4.46387H6.50805V29.1699H18.258V34.7336Z" fill="white"/>
</svg>
