<svg width="96" height="100" viewBox="0 0 96 100" fill="none" xmlns="http://www.w3.org/2000/svg">
<g clip-path="url(#clip0_157_30344)">
<path d="M63.4436 3.15281C54.29 7.75009 48.0462 16.9159 45.7196 26.3238C43.7156 34.4336 42.8927 43.6143 33.5734 47.6125C28.1888 49.9231 22.6014 49.8766 17.2802 52.6877C12.5525 55.1849 8.35324 59.24 5.39243 63.7961C-0.573019 72.9768 -1.21663 84.2669 3.78111 91.676C12.7037 104.898 33.7233 99.2999 48.4902 91.7149C66.9352 82.2383 82.0874 65.3438 89.6848 46.1928C92.0504 40.2267 94.2381 33.6952 95.1401 27.3792C95.9477 21.7069 95.7184 16.209 93.6492 11.451C89.0837 0.96094 75.4648 -2.88575 63.4436 3.15281Z" fill="#DEE235"/>
<path d="M36.2651 25.3946L34.1903 29.3151C33.7517 30.7062 33.5591 32.2095 33.6569 33.7915L39.7457 22.2865C38.4075 23.1204 37.2254 24.1714 36.2658 25.3969L36.2651 25.3946Z" fill="#8EC9EC"/>
<path d="M42.0226 21.1353L34.0341 36.2299C34.0505 36.2999 34.0662 36.3676 34.0856 36.4391C34.2609 37.1103 34.4845 37.7442 34.7526 38.3444L44.215 20.4577C43.4623 20.6253 42.7284 20.8546 42.0226 21.1353Z" fill="#8EC9EC"/>
<path d="M46.0355 20.1703L35.5903 39.9069C35.9179 40.4166 36.2778 40.8938 36.6695 41.3364L47.8997 20.1128C47.2712 20.0925 46.6494 20.1102 46.0348 20.168L46.0355 20.1703Z" fill="#8EC9EC"/>
<path d="M51.1255 20.5815C50.582 20.4402 50.0392 20.3337 49.4972 20.2545L37.7677 42.4179C38.1816 42.7787 38.6212 43.1092 39.0787 43.4091L51.1531 20.5905C51.1531 20.5905 51.1337 20.5839 51.1232 20.5822L51.1255 20.5815Z" fill="#8EC9EC"/>
<path d="M52.5769 21.0518L40.3535 44.1484C40.8365 44.3931 41.3369 44.605 41.8492 44.7908L54.0489 21.739C53.582 21.4818 53.0934 21.2513 52.5792 21.0511L52.5769 21.0518Z" fill="#8EC9EC"/>
<path d="M55.3009 22.5295L43.2905 45.2236C43.8394 45.3582 44.3981 45.4598 44.9629 45.5321L56.5756 23.5893C56.1787 23.2109 55.7547 22.8581 55.3016 22.5318L55.3009 22.5295Z" fill="#8EC9EC"/>
<path d="M57.6326 24.7403L46.5673 45.6485C47.1907 45.6604 47.8196 45.6331 48.4448 45.5695L58.6738 26.2413C58.3647 25.7186 58.0174 25.2174 57.6326 24.7403Z" fill="#8EC9EC"/>
<path d="M59.4835 27.8641L50.2738 45.2663C50.6903 45.1714 51.1043 45.0599 51.512 44.9278C51.8338 44.8244 52.1545 44.7089 52.4693 44.5827L60.1707 30.0307C60.0039 29.2895 59.7749 28.5647 59.4828 27.8618L59.4835 27.8641Z" fill="#8EC9EC"/>
<path d="M58.5532 39.7085L59.492 37.9346C60.2135 36.2397 60.5375 34.4088 60.4877 32.5847L54.7428 43.4398C56.3616 42.4327 57.6276 41.151 58.5532 39.7085Z" fill="#8EC9EC"/>
<path d="M77.6535 77.6944C76.9199 77.7862 76.2515 77.2607 76.1584 76.5245C76.0653 75.7882 76.5875 75.1188 77.3211 75.027C78.0554 74.9375 78.7231 75.4606 78.8162 76.1969C78.8999 76.8536 78.4923 77.458 77.8822 77.6445C77.8094 77.6667 77.7328 77.6851 77.6558 77.6937L77.6535 77.6944ZM81.8598 75.2666C81.5231 74.6048 81.7865 73.797 82.4453 73.4607C83.1042 73.1244 83.9099 73.3904 84.2466 74.0522C84.5833 74.714 84.3199 75.5217 83.661 75.8581C83.5894 75.8925 83.5187 75.9216 83.4435 75.9446C82.8334 76.131 82.1598 75.8571 81.8598 75.2666ZM71.3763 77.3614C70.6556 77.1944 70.2052 76.4699 70.3708 75.7495C70.5357 75.0268 71.2568 74.5765 71.9752 74.7443C72.6958 74.9114 73.1456 75.6336 72.9806 76.3562C72.8696 76.84 72.51 77.2023 72.0683 77.3373C71.8521 77.4034 71.6145 77.4161 71.3763 77.3614ZM86.7835 72.1322C86.2427 71.6252 86.2096 70.7757 86.7137 70.2342C87.2177 69.6928 88.0644 69.6614 88.6052 70.1684C89.1459 70.6753 89.1784 71.5226 88.675 72.0663C88.5081 72.2448 88.3047 72.3694 88.0885 72.4355C87.6468 72.5705 87.146 72.4712 86.7835 72.1322ZM65.5885 74.8921C64.9669 74.4874 64.7879 73.6574 65.19 73.0347C65.592 72.412 66.4189 72.2342 67.0404 72.639C67.662 73.0438 67.8387 73.8745 67.4389 74.4965C67.2591 74.7714 66.9984 74.961 66.7071 75.05C66.3428 75.1614 65.9334 75.1166 65.5885 74.8921ZM90.3325 67.4887C89.651 67.1972 89.3353 66.409 89.6221 65.7266C89.9088 65.0441 90.6953 64.7263 91.3768 65.0178C92.0576 65.307 92.3762 66.0968 92.0872 66.7799C91.9267 67.1588 91.6123 67.4249 91.2458 67.5369C90.9544 67.626 90.633 67.6168 90.3325 67.4887ZM60.9818 70.5949C60.5343 70.0019 60.653 69.1609 61.2407 68.7139C61.8307 68.2662 62.6685 68.3849 63.1161 68.9778C63.5636 69.5708 63.4449 70.4118 62.8572 70.8588C62.7275 70.9559 62.5873 71.0263 62.4416 71.0708C61.9203 71.2302 61.3294 71.0559 60.9811 70.5926L60.9818 70.5949ZM92.0937 61.9072C91.3565 61.8651 90.7879 61.2343 90.8252 60.4931C90.8625 59.752 91.493 59.1844 92.2317 59.2235C92.9705 59.2626 93.5376 59.8965 93.4996 60.6353C93.47 61.2142 93.0774 61.689 92.5561 61.8483C92.4105 61.8929 92.2548 61.913 92.093 61.9049L92.0937 61.9072ZM58.119 64.9748C57.9024 64.2663 58.2978 63.5157 59.005 63.297C59.7107 63.0813 60.462 63.4789 60.6793 64.1897C60.8958 64.8983 60.5005 65.6489 59.7955 65.8669C59.0898 66.0826 58.3408 65.6842 58.1235 64.9734L58.119 64.9748ZM90.1626 55.1577L90.1577 55.1417L90.1528 55.1257C89.9362 54.4172 90.3309 53.6643 91.0366 53.4486C91.7423 53.2329 92.4928 53.6283 92.7101 54.3391L92.7164 54.3596L92.7213 54.3756C92.9379 55.0841 92.5402 55.8354 91.8345 56.0511C91.1289 56.2669 90.3791 55.8662 90.1626 55.1577ZM58.6056 60.1254C57.8668 60.0863 57.3004 59.4547 57.3354 58.7143C57.3727 57.9731 58.0002 57.404 58.7413 57.4423C59.4801 57.4814 60.0465 58.113 60.0114 58.8534C59.9825 59.4346 59.5922 59.9087 59.0687 60.0688C58.923 60.1133 58.7696 60.1327 58.6078 60.1247L58.6056 60.1254ZM87.7114 50.339C87.2646 49.7484 87.3804 48.9058 87.9681 48.4588C88.5558 48.0117 89.3958 48.1298 89.8427 48.7204C90.2896 49.3111 90.1738 50.1537 89.5861 50.6007C89.4565 50.6978 89.3169 50.7705 89.1712 50.815C88.6499 50.9743 88.0597 50.8024 87.7114 50.339ZM59.453 54.3309C58.7721 54.0417 58.4536 53.2519 58.7403 52.5695C59.027 51.887 59.8135 51.5692 60.4943 51.8584C61.1751 52.1476 61.4937 52.9374 61.207 53.6198C61.0465 53.9987 60.7328 54.2671 60.3663 54.3791C60.0749 54.4682 59.7535 54.459 59.453 54.3309ZM83.7833 46.6815C83.1624 46.279 82.9827 45.4468 83.3825 44.8248C83.7823 44.2028 84.6114 44.0243 85.2322 44.4268C85.8531 44.8293 86.0328 45.6616 85.633 46.2836C85.4539 46.5607 85.1925 46.7481 84.9011 46.8372C84.5369 46.9485 84.1275 46.9037 83.7826 46.6793L83.7833 46.6815ZM62.2216 49.1787C61.6793 48.6747 61.6454 47.8229 62.1495 47.2815C62.6506 46.7384 63.4995 46.7064 64.0403 47.2133C64.5827 47.7173 64.6165 48.5691 64.1124 49.1106C63.9455 49.2891 63.7421 49.4137 63.5236 49.4805C63.082 49.6155 62.5818 49.5184 62.2193 49.1794L62.2216 49.1787ZM78.8453 44.5822C78.1247 44.4151 77.6727 43.6936 77.8406 42.9726C78.0055 42.2499 78.7236 41.798 79.4427 41.968C80.1633 42.1351 80.6131 42.8573 80.4475 43.5777C80.3372 44.0638 79.9775 44.4261 79.5358 44.5611C79.3196 44.6272 79.082 44.6398 78.846 44.5845L78.8453 44.5822ZM66.5781 45.288C66.2414 44.6262 66.5025 43.8192 67.1614 43.4828C67.8203 43.1465 68.6252 43.4103 68.9642 44.0714C69.3009 44.7332 69.0398 45.5402 68.3816 45.8788C68.3107 45.9155 68.2377 45.9453 68.1648 45.9676C67.5548 46.1541 66.8811 45.8802 66.5811 45.2896L66.5781 45.288ZM73.4985 44.3048C72.7649 44.3966 72.095 43.8741 72.0018 43.1379C71.9087 42.4016 72.4279 41.7306 73.1616 41.6388C73.8952 41.547 74.5651 42.0695 74.6583 42.8057C74.742 43.4624 74.335 44.0691 73.7249 44.2556C73.6521 44.2778 73.5749 44.2939 73.4985 44.3048Z" fill="white"/>
</g>
<defs>
<clipPath id="clip0_157_30344">
<rect width="96" height="100" fill="white"/>
</clipPath>
</defs>
</svg>
