<svg width="87" height="86" viewBox="0 0 87 86" fill="none" xmlns="http://www.w3.org/2000/svg">
<path d="M43.8501 85.9961C21.1454 86.2904 -0.974532 70.0469 0.0331669 45.7017C1.39176 12.9517 38.0198 -1.53052 64.6879 14.655C93.7312 32.2852 86.7583 76.6727 54.1385 84.6941C50.751 85.5279 47.2961 85.9515 43.8546 85.9961H43.8501Z" fill="#F9C37B"/>
<path d="M46.2596 79.9955C33.6315 79.9955 21.1527 74.9368 12.7716 66.3891C5.31329 58.7831 1.59995 49.1948 2.03415 38.6693C2.6357 24.0807 10.2795 11.8555 22.998 5.12855C36.983 -2.27115 54.3104 -1.62535 68.2139 6.81927C75.2697 11.1021 80.6656 17.2416 83.8181 24.5741C86.7535 31.3997 87.6807 38.9922 86.5048 46.5399C85.3378 54.0383 82.1763 60.9536 77.3594 66.5415C72.1941 72.5286 65.2921 76.7217 57.3905 78.6681C53.9848 79.5067 50.4478 79.9552 46.8747 80C46.6711 80 46.4676 80 46.2641 80L46.2596 79.9955ZM43.9076 1.52736C36.9197 1.52736 29.9769 3.16875 23.7262 6.47395C11.5052 12.9408 4.16446 24.6951 3.581 38.7276C3.16489 48.8271 6.72445 58.0207 13.8798 65.3172C22.107 73.7035 34.4366 78.6187 46.8475 78.4573C50.3031 78.4124 53.7224 77.9774 57.0106 77.1702C71.8595 73.5152 82.5743 61.6891 84.9715 46.2978C87.3867 30.7943 80.6521 16.1653 67.3998 8.11982C60.1812 3.7383 52.0127 1.52736 43.9031 1.52736H43.9076Z" fill="#FCAF17"/>
</svg>
