<svg width="133" height="111" viewBox="0 0 133 111" fill="none" xmlns="http://www.w3.org/2000/svg">
<path d="M71.7392 99.9973C56.2667 100.197 41.1891 89.1141 41.874 72.5055C42.7968 50.1594 67.7623 40.2758 85.9385 51.3189C105.734 63.3495 100.98 93.6361 78.7462 99.1097C76.4374 99.6775 74.0802 99.9693 71.7352 99.9973H71.7392Z" fill="#F9C37B"/>
<path d="M67.4173 97.145C58.8752 97.145 50.4338 93.7185 44.7605 87.933C39.7159 82.7873 37.2056 76.2982 37.4997 69.1733C37.9067 59.3017 43.0763 51.0254 51.6748 46.4714C61.1356 41.4616 72.8568 41.9014 82.2612 47.6149C87.0319 50.5136 90.6825 54.6677 92.8099 59.6296C94.7923 64.2475 95.4209 69.3892 94.6271 74.495C93.8374 79.5687 91.6978 84.2507 88.4422 88.033C84.9488 92.0872 80.2828 94.9219 74.94 96.2374C72.6352 96.8051 70.2418 97.109 67.8242 97.141C67.6872 97.141 67.5502 97.141 67.4132 97.141L67.4173 97.145ZM65.8217 43.9125C61.0752 43.9125 56.3569 45.028 52.11 47.279C43.8056 51.6771 38.8133 59.6735 38.4184 69.2133C38.1364 76.0823 40.5539 82.3355 45.4213 87.3013C51.01 93.0028 59.3869 96.3453 67.8202 96.2334C70.1653 96.2014 72.4902 95.9095 74.7264 95.3577C84.8198 92.8708 92.1008 84.8264 93.7286 74.359C95.3685 63.8157 90.7912 53.8681 81.7858 48.3945C76.8821 45.4158 71.3338 43.9125 65.8217 43.9125Z" fill="#FCAF17"/>
<path d="M4.63485 58.014C11.2753 68.5851 23.6235 72.8465 36.0019 71.5027C46.671 70.3386 58.641 67.0014 64.51 78.0972C67.9034 84.5068 68.2563 92.3602 72.2951 98.4351C75.88 103.836 81.4515 107.732 87.5828 109.651C99.9309 113.513 114.624 108.891 123.866 98.2603C140.364 79.2911 131.555 52.5835 120.624 35.6077C106.975 14.4054 83.9424 1.45127 58.5351 0.182327C50.624 -0.212343 41.9869 -0.0824514 33.7279 1.75101C26.3109 3.39464 19.1965 6.40712 13.1762 11.6377C-0.0946619 23.1681 -4.08298 44.1306 4.63485 58.014Z" fill="#EAEAEA"/>
</svg>
