<svg width="83" height="66" viewBox="0 0 83 66" fill="none" xmlns="http://www.w3.org/2000/svg">
<g clip-path="url(#clip0_157_30335)">
<path d="M2.65574 59.6737C4.93764 61.6759 8.10742 61.8227 10.892 60.6622C13.2932 59.6619 15.8444 58.068 17.9848 60.2439C19.2221 61.5022 19.8509 63.3019 21.2143 64.4388C22.4259 65.4475 23.9938 65.9737 25.5531 65.999C28.6956 66.0513 31.7904 63.9716 33.1998 60.8696C35.7134 55.3321 31.8006 49.7287 28.0753 46.5323C23.4212 42.5398 17.1583 41.1044 11.1613 42.5482C9.29352 42.9986 7.29282 43.6193 5.50002 44.6094C3.88957 45.4983 2.44443 46.6858 1.40828 48.3135C-0.875318 51.9012 -0.340205 57.0441 2.65745 59.6737H2.65574Z" fill="#8EC9EC"/>
<path d="M13.0764 48.7026C19.9221 50.9066 27.2101 48.6796 32.5226 44.1405C37.1023 40.2284 41.5234 35.0015 48.1956 37.6673C52.0514 39.2078 54.9943 42.3166 59.0327 43.5129C62.6215 44.576 66.6074 44.3821 70.1537 43.1968C77.2976 40.8066 82.5387 34.1754 83.1023 26.8353C84.1096 13.7323 70.5393 5.60157 59.4222 2.15178C45.5339 -2.15896 30.1735 -0.0589121 17.8379 7.59966C13.9951 9.98513 10.0018 12.8211 6.78449 16.2334C3.8952 19.2979 1.63111 22.8268 0.665506 26.9117C-1.46593 35.9207 4.08451 45.8126 13.0754 48.7045L13.0764 48.7026Z" fill="#DEE235"/>
</g>
<defs>
<clipPath id="clip0_157_30335">
<rect width="83" height="66" fill="white"/>
</clipPath>
</defs>
</svg>
