<svg width="109" height="96" viewBox="0 0 109 96" fill="none" xmlns="http://www.w3.org/2000/svg">
<g clip-path="url(#clip0_157_30337)">
<path d="M29.123 42.1388C18.2071 41.4498 8.18595 32.7385 9.57357 20.9344C11.4417 5.05514 29.5715 -0.646241 41.7793 8.20356C55.0742 17.8431 50.0776 39.1768 34.1128 41.8827C32.4549 42.1641 30.7797 42.2435 29.1252 42.139L29.123 42.1388Z" fill="#F9C37B"/>
<path d="M30.6328 39.4315C24.6001 38.9711 18.8255 36.0699 15.1372 31.6308C11.8549 27.6808 10.4348 22.9088 11.0307 17.8347C11.8564 10.8019 15.9591 5.16872 22.2832 2.37935C29.2371 -0.689151 37.4909 0.254828 43.8212 4.84534C47.0338 7.17366 49.3849 10.3393 50.6203 14C51.7707 17.4078 51.9334 21.1132 51.0931 24.7202C50.259 28.3037 48.4934 31.5326 45.9861 34.0592C43.2977 36.7661 39.8457 38.5422 35.9992 39.1953C34.3412 39.4767 32.635 39.5646 30.9264 39.4561C30.8292 39.4487 30.732 39.4412 30.6347 39.4338L30.6328 39.4315ZM32.4049 1.40017C29.0667 1.14542 25.6895 1.68606 22.5814 3.05651C16.5046 5.73823 12.5641 11.1547 11.7675 17.9193C11.196 22.788 12.5572 27.3636 15.7061 31.1529C19.3269 35.5083 25.0355 38.3347 30.9704 38.7091C32.6228 38.8133 34.2724 38.7276 35.873 38.4571C43.1014 37.231 48.6564 31.9028 50.3696 24.5472C52.0955 17.1381 49.4181 9.81833 43.3842 5.44458C40.0975 3.06261 36.2769 1.69565 32.4028 1.40001L32.4049 1.40017Z" fill="#FCAF17"/>
<path d="M104.16 63.6709C102.17 61.1763 99.504 59.2082 96.2847 58.1641C85.9076 54.8005 75.1576 62.8166 68.9016 50.475C63.5955 40.0098 56.4617 39.797 46.1302 40.7907C33.0467 42.0499 37.1431 31.3163 32.9757 22.8751C28.2641 13.3343 15.2238 10.7228 6.88017 16.9943C-0.71674 22.7077 -1.08054 33.0281 0.812944 41.5641C2.90949 51.0275 7.90035 59.6712 15.1281 66.1145C22.4067 72.6031 30.8559 75.7412 40.3109 77.4618C47.3287 78.739 52.3881 85.9722 58.6194 89.2115C63.9078 91.9622 69.7278 93.6715 75.6627 94.216C85.7738 95.1425 99.2396 93.9997 105.449 84.6838C109.768 78.2055 108.813 69.5011 104.162 63.6711L104.16 63.6709Z" fill="#8EC9EC"/>
<path d="M67.3567 37.0318L64.2977 39.6668C63.4647 40.7005 62.803 41.9108 62.3613 43.284L71.3381 35.5513C69.9271 35.8145 68.5764 36.3135 67.3565 37.034L67.3567 37.0318Z" fill="#DEE235"/>
<path d="M73.6522 35.3288L61.8747 45.474C61.8654 45.5388 61.8563 45.6013 61.849 45.6684C61.7751 46.2953 61.7545 46.9067 61.7828 47.5044L75.7376 35.4835C75.0438 35.3761 74.3456 35.3272 73.6542 35.3311L73.6522 35.3288Z" fill="#DEE235"/>
<path d="M77.374 35.8425L61.9747 49.1077C62.0834 49.6482 62.2303 50.1721 62.4157 50.677L78.9734 36.4139C78.4473 36.1884 77.9142 35.9972 77.374 35.8425Z" fill="#DEE235"/>
<path d="M81.5455 37.8772C81.1316 37.5773 80.7066 37.3071 80.2734 37.0603L62.9806 51.9565C63.2119 52.3995 63.475 52.8253 63.7635 53.2313L81.5681 37.8942C81.5681 37.8942 81.5538 37.8822 81.5455 37.8772Z" fill="#DEE235"/>
<path d="M82.6255 38.7569L64.6046 54.2803C64.933 54.6479 65.2869 54.9933 65.6596 55.3206L83.6457 39.8272C83.3351 39.4545 82.9973 39.0972 82.6277 38.757L82.6255 38.7569Z" fill="#DEE235"/>
<path d="M84.4393 40.9138L66.7324 56.1668C67.1532 56.4628 67.5932 56.7342 68.048 56.9826L85.1687 42.2347C84.9576 41.7823 84.7152 41.3428 84.4391 40.916L84.4393 40.9138Z" fill="#DEE235"/>
<path d="M85.688 43.5587L69.3745 57.6114C69.8991 57.8281 70.4413 58.0134 70.9925 58.1667L86.0731 45.1761C85.9844 44.6305 85.8561 44.0907 85.688 43.5587Z" fill="#DEE235"/>
<path d="M86.2172 46.8191L72.6393 58.5153C73.0239 58.573 73.4118 58.6157 73.8012 58.6389C74.1084 58.658 74.4185 58.6664 74.7273 58.6637L86.0814 48.8832C86.1857 48.1997 86.2319 47.5095 86.2174 46.8169L86.2172 46.8191Z" fill="#DEE235"/>
<path d="M81.5056 56.5506L82.8897 55.3584C84.0633 54.161 84.9451 52.7166 85.5077 51.1541L77.038 58.4499C78.7443 58.133 80.2426 57.4664 81.5056 56.5506Z" fill="#DEE235"/>
<path d="M52.5933 54.4698C53.6692 53.2369 53.5461 51.3627 52.3184 50.2835C51.0907 49.2044 49.2233 49.3289 48.1473 50.5617C47.0714 51.7946 47.1945 53.6688 48.4222 54.748C49.6499 55.8271 51.5174 55.7026 52.5933 54.4698Z" fill="#DCF4F8"/>
<path d="M38.7384 49.9524C39.3557 49.4347 39.4383 48.513 38.9229 47.8936C38.4074 47.2743 37.4891 47.1919 36.8717 47.7096C36.2544 48.2273 36.1718 49.149 36.6872 49.7684C37.2027 50.3877 38.121 50.4701 38.7384 49.9524Z" fill="#DCF4F8"/>
</g>
<defs>
<clipPath id="clip0_157_30337">
<rect width="109" height="96" fill="white"/>
</clipPath>
</defs>
</svg>
