<svg width="22" height="27" viewBox="0 0 22 27" fill="none" xmlns="http://www.w3.org/2000/svg">
<path d="M18.8489 7.15127C18.4286 7.15127 18.0395 7.27618 17.6989 7.47916C17.427 6.47986 16.5442 5.73974 15.488 5.73974C15.0504 5.73974 14.6442 5.87246 14.2958 6.09106C13.9833 5.16203 13.1333 4.49061 12.127 4.49061C11.7442 4.49061 11.3895 4.59679 11.0708 4.76699L11.0723 2.37334C11.0723 1.0649 10.038 0 8.76764 0C7.49576 0 6.46296 1.0649 6.46296 2.37334V14.8286C5.28328 13.3781 4.25516 11.6777 4.22232 11.6262C3.4692 10.5551 2.0114 10.2803 0.969204 11.0094C-0.0698762 11.7401 -0.302676 13.2063 0.412964 14.2165C0.5614 14.4898 4.05048 20.8355 8.20816 24.3798V25.796C8.20816 26.1411 8.48785 26.4206 8.83316 26.4206L18.7832 26.419C19.1285 26.419 19.4082 26.1395 19.4082 25.7945V24.1784C19.6457 23.3758 21.2457 17.8049 21.1488 13.6062L21.1535 9.52466C21.1535 8.21621 20.1192 7.15127 18.8489 7.15127ZM18.1848 23.9067C18.1661 23.9645 18.1582 24.027 18.1582 24.0879V25.1715H9.45824V24.0879C9.45824 23.9005 9.37386 23.7241 9.23011 23.6054C5.16291 20.2609 1.54891 13.6887 1.47211 13.5592C0.784594 12.3773 2.32835 11.1172 3.17367 12.307C3.24555 12.4288 5.59399 15.9076 6.64243 16.8898C7.02525 17.2473 7.71119 17.0209 7.71119 16.451V2.37326C7.71119 1.75337 8.18463 1.24904 8.76587 1.24904C9.34711 1.24904 9.82056 1.75337 9.82056 2.37326V12.1009C9.82056 12.8956 11.0706 12.9096 11.0706 12.1009V6.86372C11.0706 6.24383 11.544 5.7395 12.1268 5.7395C12.708 5.7395 13.1815 6.24383 13.1815 6.86372V12.0993C13.1815 12.9003 14.4315 12.9096 14.4315 12.0993V8.11296C14.4315 7.49308 14.9049 6.98875 15.4877 6.98875C16.069 6.98875 16.5424 7.49308 16.5424 8.11296V12.0993C16.5424 12.8925 17.7924 12.9128 17.7924 12.0993V9.5245C17.7924 8.90461 18.2658 8.40028 18.8486 8.40028C19.4299 8.40028 19.9033 8.90461 19.9033 9.5245C19.9033 9.5245 19.8986 13.6028 19.8986 13.62C20.0018 17.8579 18.2033 23.8457 18.1845 23.9064L18.1848 23.9067Z" fill="white"/>
</svg>
