<svg width="30" height="32" viewBox="0 0 30 32" fill="none" xmlns="http://www.w3.org/2000/svg">
<g clip-path="url(#clip0_142_15255)">
<path d="M22.9316 27.46C23.0266 27.465 23.1491 27.4725 23.2991 27.4825C23.4491 27.4925 23.6016 27.5 23.7566 27.505C23.9166 27.51 24.0591 27.5125 24.1841 27.5125C24.3241 27.5125 24.4866 27.5125 24.6716 27.5125C24.8616 27.5125 25.0641 27.5125 25.2791 27.5125C25.4991 27.5125 25.7216 27.5125 25.9466 27.5125C26.1766 27.5125 26.4016 27.5125 26.6216 27.5125C26.8466 27.5125 27.0591 27.5125 27.2591 27.5125C27.4591 27.5125 27.6391 27.5125 27.7991 27.5125C27.9591 27.5125 28.0891 27.5125 28.1891 27.5125C28.3641 27.5125 28.5316 27.505 28.6916 27.49C28.8516 27.475 28.9841 27.465 29.0891 27.46V28.7725C28.9991 28.7675 28.8641 28.76 28.6841 28.75C28.5091 28.735 28.3441 28.7275 28.1891 28.7275C28.0891 28.7275 27.9566 28.7275 27.7916 28.7275C27.6316 28.7275 27.4516 28.7275 27.2516 28.7275C27.0516 28.7275 26.8391 28.7275 26.6141 28.7275C26.3941 28.7275 26.1691 28.7275 25.9391 28.7275C25.7141 28.7275 25.4941 28.7275 25.2791 28.7275C25.0641 28.7275 24.8616 28.7275 24.6716 28.7275C24.4816 28.7275 24.3191 28.7275 24.1841 28.7275C23.9691 28.7275 23.7441 28.7325 23.5091 28.7425C23.2741 28.7525 23.0816 28.7625 22.9316 28.7725V27.46Z" fill="#EA5B6F"/>
<path d="M20.3512 27.4225C20.3312 27.4725 20.3138 27.5325 20.2987 27.6025C20.2888 27.6675 20.2813 27.72 20.2763 27.76C20.2613 27.865 20.2387 28.0075 20.2087 28.1875C20.1837 28.3675 20.1537 28.5675 20.1187 28.7875C20.0887 29.0075 20.0562 29.2275 20.0212 29.4475C19.9862 29.6675 19.9538 29.87 19.9237 30.055C19.8987 30.24 19.8763 30.3875 19.8563 30.4975H18.7087C18.7287 30.3925 18.7512 30.26 18.7762 30.1C18.8062 29.94 18.8362 29.7675 18.8662 29.5825C18.8962 29.3975 18.9237 29.215 18.9487 29.035C18.9737 28.85 18.9962 28.6775 19.0162 28.5175C19.0412 28.3575 19.0563 28.2275 19.0613 28.1275C18.9913 28.1275 18.8887 28.1275 18.7537 28.1275C18.6237 28.1275 18.4737 28.1275 18.3037 28.1275C18.1337 28.1275 17.9663 28.1275 17.8013 28.1275C17.6413 28.1275 17.4987 28.1275 17.3737 28.1275C17.2537 28.1275 17.1712 28.1275 17.1262 28.1275C17.0062 28.1275 16.8713 28.1325 16.7213 28.1425C16.5763 28.1475 16.4487 28.155 16.3387 28.165V27.07C16.4087 27.08 16.4913 27.09 16.5863 27.1C16.6813 27.105 16.7763 27.11 16.8713 27.115C16.9713 27.12 17.0537 27.1225 17.1187 27.1225C17.1987 27.1225 17.3013 27.1225 17.4263 27.1225C17.5563 27.1225 17.6937 27.1225 17.8387 27.1225C17.9837 27.1225 18.1262 27.1225 18.2662 27.1225C18.4112 27.1225 18.5437 27.1225 18.6637 27.1225C18.7837 27.1225 18.8787 27.1225 18.9487 27.1225C19.0037 27.1225 19.0712 27.12 19.1512 27.115C19.2312 27.105 19.3087 27.095 19.3837 27.085C19.4637 27.07 19.5212 27.0525 19.5562 27.0325L20.3512 27.4225ZM15.6562 30.0925C15.7612 30.1025 15.8812 30.1125 16.0162 30.1225C16.1562 30.1325 16.2937 30.1375 16.4287 30.1375C16.5037 30.1375 16.6437 30.1375 16.8487 30.1375C17.0537 30.1375 17.2912 30.1375 17.5612 30.1375C17.8362 30.1375 18.1188 30.1375 18.4088 30.1375C18.7038 30.1375 18.9863 30.1375 19.2563 30.1375C19.5263 30.1375 19.7562 30.1375 19.9462 30.1375C20.1362 30.1375 20.2612 30.1375 20.3212 30.1375C20.4162 30.1375 20.5412 30.135 20.6962 30.13C20.8562 30.12 20.9888 30.11 21.0938 30.1V31.1725C21.0438 31.1675 20.9712 31.1625 20.8762 31.1575C20.7812 31.1575 20.6837 31.155 20.5837 31.15C20.4887 31.15 20.4063 31.15 20.3363 31.15C20.2713 31.15 20.1387 31.15 19.9387 31.15C19.7437 31.15 19.5112 31.15 19.2412 31.15C18.9712 31.15 18.6862 31.15 18.3862 31.15C18.0862 31.15 17.7988 31.15 17.5238 31.15C17.2488 31.15 17.0138 31.15 16.8188 31.15C16.6238 31.15 16.4937 31.15 16.4287 31.15C16.2937 31.15 16.1687 31.15 16.0537 31.15C15.9387 31.155 15.8063 31.1625 15.6562 31.1725V30.0925Z" fill="#EA5B6F"/>
<path d="M8.21625 25.8475C8.35625 25.8675 8.51125 25.88 8.68125 25.885C8.85625 25.89 9.00875 25.8925 9.13875 25.8925C9.25375 25.8925 9.39875 25.8925 9.57375 25.8925C9.74875 25.8925 9.93875 25.8925 10.1438 25.8925C10.3488 25.8925 10.5588 25.8925 10.7738 25.8925C10.9888 25.8925 11.1913 25.8925 11.3813 25.8925C11.5763 25.8925 11.7463 25.8925 11.8913 25.8925C12.0363 25.8925 12.1438 25.8925 12.2138 25.8925C12.3688 25.8925 12.5238 25.89 12.6788 25.885C12.8338 25.875 12.9663 25.8625 13.0763 25.8475V27.0475C12.9663 27.0425 12.8288 27.0375 12.6638 27.0325C12.4988 27.0275 12.3488 27.025 12.2138 27.025C12.1438 27.025 12.0313 27.025 11.8763 27.025C11.7263 27.025 11.5463 27.025 11.3363 27.025C11.1263 27.025 10.9088 27.025 10.6838 27.025C10.4638 27.025 10.2488 27.025 10.0388 27.025C9.83375 27.025 9.65125 27.025 9.49125 27.025C9.33125 27.025 9.21625 27.025 9.14625 27.025C9.00125 27.025 8.84375 27.0275 8.67375 27.0325C8.50375 27.0375 8.35125 27.0425 8.21625 27.0475V25.8475ZM7.59375 29.5075C7.74875 29.5125 7.91375 29.5225 8.08875 29.5375C8.26375 29.5475 8.42625 29.5525 8.57625 29.5525C8.64625 29.5525 8.76625 29.5525 8.93625 29.5525C9.10625 29.5525 9.30875 29.5525 9.54375 29.5525C9.78375 29.5525 10.0363 29.5525 10.3013 29.5525C10.5713 29.5525 10.8388 29.5525 11.1038 29.5525C11.3738 29.5525 11.6263 29.5525 11.8613 29.5525C12.1013 29.5525 12.3038 29.5525 12.4688 29.5525C12.6388 29.5525 12.7588 29.5525 12.8288 29.5525C12.9588 29.5525 13.1013 29.5475 13.2563 29.5375C13.4163 29.5275 13.5638 29.5175 13.6988 29.5075V30.775C13.5588 30.76 13.4063 30.7475 13.2413 30.7375C13.0813 30.7275 12.9438 30.7225 12.8288 30.7225C12.7588 30.7225 12.6388 30.7225 12.4688 30.7225C12.3038 30.7225 12.1013 30.7225 11.8613 30.7225C11.6263 30.7225 11.3738 30.7225 11.1038 30.7225C10.8388 30.7225 10.5713 30.7225 10.3013 30.7225C10.0363 30.7225 9.78375 30.7225 9.54375 30.7225C9.30875 30.7225 9.10625 30.7225 8.93625 30.7225C8.76625 30.7225 8.64625 30.7225 8.57625 30.7225C8.42625 30.7225 8.26125 30.7275 8.08125 30.7375C7.90125 30.7475 7.73875 30.76 7.59375 30.775V29.5075Z" fill="#EA5B6F"/>
<path d="M5.71203 25.4725C5.65703 25.5625 5.59703 25.6825 5.53203 25.8325C5.46703 25.9775 5.41453 26.095 5.37453 26.185C5.27953 26.43 5.16453 26.7 5.02953 26.995C4.89953 27.29 4.74953 27.5875 4.57953 27.8875C4.40953 28.1825 4.21953 28.4675 4.00953 28.7425C3.77953 29.0425 3.51953 29.345 3.22953 29.65C2.94453 29.955 2.61453 30.2575 2.23953 30.5575C1.86953 30.8575 1.43703 31.145 0.942031 31.42L0.0195312 30.5725C0.694531 30.2475 1.27703 29.8775 1.76703 29.4625C2.26203 29.0475 2.70953 28.58 3.10953 28.06C3.40453 27.67 3.64203 27.285 3.82203 26.905C4.00203 26.525 4.15703 26.1475 4.28703 25.7725C4.32203 25.6675 4.35703 25.545 4.39203 25.405C4.42703 25.265 4.45453 25.145 4.47453 25.045L5.71203 25.4725ZM1.54203 26.155C1.72703 26.27 1.92703 26.3975 2.14203 26.5375C2.35703 26.6775 2.57203 26.8225 2.78703 26.9725C3.00203 27.1225 3.20953 27.27 3.40953 27.415C3.61453 27.56 3.79703 27.695 3.95703 27.82C4.36703 28.135 4.76453 28.465 5.14953 28.81C5.53453 29.155 5.87953 29.49 6.18453 29.815L5.32953 30.7675C4.99953 30.3775 4.66203 30.02 4.31703 29.695C3.97203 29.37 3.59953 29.04 3.19953 28.705C3.06453 28.59 2.90953 28.4675 2.73453 28.3375C2.56453 28.2025 2.37953 28.06 2.17953 27.91C1.97953 27.76 1.76453 27.61 1.53453 27.46C1.30953 27.305 1.07453 27.1525 0.829531 27.0025L1.54203 26.155Z" fill="#EA5B6F"/>
<path d="M26.5195 0C27.348 0 28.0195 0.671573 28.0195 1.5C28.0195 2.32843 27.348 3 26.5195 3H2.51953C1.6911 3 1.01953 2.32843 1.01953 1.5C1.01953 0.671573 1.6911 0 2.51953 0H26.5195Z" fill="#EA5B6F"/>
<path d="M26.5195 8.5C27.348 8.5 28.0195 9.17157 28.0195 10C28.0195 10.8284 27.348 11.5 26.5195 11.5H2.51953C1.6911 11.5 1.01953 10.8284 1.01953 10C1.01953 9.17157 1.6911 8.5 2.51953 8.5H26.5195Z" fill="#EA5B6F"/>
<path d="M26.5195 16.5C27.348 16.5 28.0195 17.1716 28.0195 18C28.0195 18.8284 27.348 19.5 26.5195 19.5H2.51953C1.6911 19.5 1.01953 18.8284 1.01953 18C1.01953 17.1716 1.6911 16.5 2.51953 16.5H26.5195Z" fill="#EA5B6F"/>
</g>
<defs>
<clipPath id="clip0_142_15255">
<rect width="29.0696" height="31.42" fill="white"/>
</clipPath>
</defs>
</svg>
