<svg width="73" height="73" viewBox="0 0 73 73" fill="none" xmlns="http://www.w3.org/2000/svg">
<path d="M72.228 45.9169C72.228 47.3053 73.1824 48.7002 72.9688 50.036C72.7553 51.3717 72.7019 52.8588 72.2814 54.1419C71.861 55.425 71.4605 56.8792 70.8332 58.0899C70.2058 59.3007 68.3905 59.8402 67.5763 60.9391C66.7621 62.038 65.6942 62.8078 64.7131 63.7751C63.7321 64.7424 63.1982 66.111 62.0769 66.9138C60.9557 67.7165 59.5141 67.8679 58.2728 68.493C57.0314 69.1181 56.0704 70.184 54.7422 70.6117C53.4141 71.0394 52.1728 71.7369 50.7846 71.9475C49.3964 72.158 48.0149 71.2237 46.6067 71.2237C45.1984 71.2237 43.6901 72.6844 42.342 72.4805C40.9938 72.2765 39.8526 70.796 38.5512 70.3749C37.2498 69.9537 36.0484 69.3484 34.8204 68.7299C33.5924 68.1113 31.5435 68.6772 30.429 67.881C29.3144 67.0848 28.4001 65.8083 27.419 64.8411C26.4379 63.8738 25.7105 62.5841 24.8962 61.4787C24.082 60.3732 23.4547 59.0967 22.8206 57.8794C22.1866 56.6621 21.6126 55.3855 21.1788 54.0761C20.745 52.7667 20.3846 51.4244 20.1711 50.0623C19.9575 48.7002 20.2378 47.325 20.2378 45.9366C20.2378 44.5482 19.8507 43.1204 20.0643 41.7912C20.2778 40.462 20.418 38.9684 20.8385 37.6787C21.2589 36.389 22.22 35.2112 22.8473 34.0005C23.4747 32.7897 24.0153 31.4408 24.8295 30.3354C25.6437 29.2299 26.2444 27.7889 27.2188 26.8216C28.1932 25.8544 29.9885 25.7162 31.1097 24.9134C32.2309 24.1107 33.0385 22.7157 34.2798 22.0906C35.5212 21.4655 37.2297 21.9458 38.5578 21.5247C39.886 21.1036 40.9805 19.7613 42.3687 19.5507C43.7569 19.3401 45.1984 19.8534 46.6067 19.8534C48.0149 19.8534 49.3296 20.3798 50.6778 20.5904C52.0259 20.8009 53.354 21.0839 54.6555 21.4984C55.9569 21.9129 57.6921 21.4787 58.9201 22.0972C60.1481 22.7157 61.6097 23.2421 62.731 24.0449C63.8522 24.8476 64.3995 26.4532 65.3739 27.4204C66.3483 28.3877 66.4284 30.0327 67.2493 31.1381C68.0702 32.2436 68.8643 33.2043 69.4984 34.4216C70.1324 35.6389 71.2069 36.593 71.6341 37.9024C72.0612 39.2118 71.5406 40.6265 71.7542 41.9886C71.9678 43.3507 72.2214 44.5285 72.2214 45.9169H72.228Z" fill="#57C43B" fill-opacity="0.8"/>
<path d="M53.2135 46.4153C53.2135 47.8299 54.1859 49.2512 53.9683 50.6121C53.7507 51.9731 53.6963 53.4882 53.2679 54.7955C52.8395 56.1029 52.4315 57.5845 51.7923 58.8181C51.1531 60.0516 49.3035 60.6014 48.4739 61.721C47.6444 62.8406 46.5564 63.625 45.5568 64.6105C44.5572 65.596 44.0132 66.9905 42.8708 67.8084C41.7284 68.6263 40.2597 68.7805 38.9949 69.4174C37.7301 70.0543 36.7509 71.1403 35.3977 71.5761C34.0446 72.0119 32.7798 72.7225 31.3654 72.9371C29.951 73.1516 28.5434 72.1996 27.1087 72.1996C25.6739 72.1996 24.1371 73.6879 22.7635 73.4801C21.39 73.2723 20.2272 71.7638 18.9012 71.3348C17.5752 70.9057 16.3512 70.2889 15.1001 69.6587C13.8489 69.0285 11.7613 69.6051 10.6257 68.7939C9.49014 67.9827 8.55855 66.6821 7.55897 65.6965C6.55938 64.711 5.8182 63.397 4.98861 62.2707C4.15902 61.1444 3.51983 59.8438 2.87384 58.6035C2.22785 57.3633 1.64306 56.0626 1.20107 54.7285C0.759075 53.3944 0.391881 52.0267 0.174284 50.639C-0.0433127 49.2512 0.242283 47.85 0.242283 46.4354C0.242283 45.0209 -0.152111 43.566 0.0654856 42.2118C0.283082 40.8576 0.42588 39.3357 0.854273 38.0217C1.28267 36.7077 2.26185 35.5076 2.90104 34.274C3.54023 33.0405 4.09102 31.6661 4.92061 30.5398C5.7502 29.4135 6.36219 27.9453 7.35497 26.9598C8.34776 25.9743 10.1769 25.8335 11.3193 25.0156C12.4617 24.1977 13.2845 22.7764 14.5493 22.1395C15.814 21.5026 17.5548 21.992 18.908 21.5629C20.2612 21.1339 21.3764 19.7662 22.7907 19.5517C24.2051 19.3371 25.6739 19.8601 27.1087 19.8601C28.5434 19.8601 29.883 20.3964 31.2566 20.6109C32.6302 20.8255 33.9834 21.1137 35.3093 21.5361C36.6353 21.9585 38.4033 21.516 39.6545 22.1462C40.9057 22.7764 42.3948 23.3127 43.5372 24.1306C44.6796 24.9485 45.2372 26.5844 46.23 27.5699C47.2228 28.5554 47.3044 30.2314 48.1407 31.3577C48.9771 32.484 49.7863 33.4628 50.4323 34.7031C51.0783 35.9434 52.1731 36.9155 52.6083 38.2496C53.0435 39.5838 52.5131 41.0252 52.7307 42.4129C52.9483 43.8007 53.2067 45.0007 53.2067 46.4153H53.2135Z" fill="#3B72C4" fill-opacity="0.8"/>
<path d="M62.9632 25.986C62.9632 27.3177 63.0331 28.5128 62.8304 29.783C62.6276 31.0532 62.9073 32.4327 62.4948 33.6687C62.0823 34.9048 60.8378 35.7516 60.2296 36.9057C59.6213 38.0599 60.0548 39.8218 59.2718 40.8803C58.4887 41.9388 58.0133 43.4139 57.0695 44.3358C56.1256 45.2578 53.9164 44.7797 52.8327 45.5514C51.749 46.3231 50.994 47.4567 49.7914 48.0577C48.5889 48.6587 47.7709 50.2567 46.4845 50.6596C45.1981 51.0625 43.7509 51.2674 42.4085 51.4723C41.0662 51.6771 39.6399 50.6801 38.2766 50.6801C36.9133 50.6801 35.6339 50.5298 34.3265 50.325C33.0191 50.1201 31.453 50.6937 30.1876 50.2908C28.9222 49.8879 27.5239 49.4577 26.3353 48.8635C25.1468 48.2694 24.4337 46.808 23.357 46.0363C22.2803 45.2646 21.0988 44.609 20.155 43.6802C19.2111 42.7515 18.5819 41.5769 17.7919 40.5184C17.0018 39.4598 16.2678 38.4082 15.6525 37.2404C15.0373 36.0726 13.9816 35.0824 13.5621 33.8258C13.1426 32.5693 13.7439 31.1215 13.5341 29.8103C13.3244 28.4991 13.3943 27.3108 13.3943 25.9792C13.3943 24.6475 12.842 23.3499 13.0447 22.0729C13.2475 20.7959 13.2405 19.3959 13.653 18.1598C14.0655 16.9237 14.0725 15.3872 14.6807 14.2331C15.289 13.079 17.1067 12.5668 17.8967 11.5151C18.6868 10.4634 18.9105 8.91319 19.8613 7.98443C20.8122 7.05567 22.0776 6.42057 23.1613 5.64887C24.2449 4.87718 25.2587 3.90745 26.4612 3.31332C27.6637 2.71918 29.1459 2.78065 30.4323 2.3709C31.7187 1.96115 32.8164 0.725081 34.1587 0.520208C35.5011 0.315334 36.9203 1.73579 38.2836 1.73579C39.6469 1.73579 41.0872 0.4246 42.3946 0.622644C43.7019 0.820689 45.1841 1.03922 46.4496 1.44214C47.715 1.84506 48.7707 3.01966 49.9592 3.60697C51.1478 4.19427 52.0706 5.22547 53.1543 5.99716C54.238 6.76885 54.7903 8.01858 55.7341 8.94051C56.6779 9.86244 57.9294 10.4224 58.7194 11.4809C59.5095 12.5395 60.1876 13.6048 60.8029 14.7726C61.4181 15.9404 62.2711 16.9784 62.6905 18.2349C63.11 19.4915 62.6556 20.8642 62.8653 22.1753C63.0751 23.4865 62.9772 24.6475 62.9772 25.9792L62.9632 25.986Z" fill="#FFD012"/>
</svg>
