<svg id="logo-waomirai-white" xmlns="http://www.w3.org/2000/svg" width="180.013" height="20.366" viewBox="0 0 180.013 20.366">
  <path id="パス_11" data-name="パス 11" d="M27.435.04,19.006,14.964l-1.83-3.795,5.009-8.862A1.375,1.375,0,0,0,22.066.77,1.961,1.961,0,0,0,20.528.045H10.582A1.946,1.946,0,0,0,9.075.733a1.364,1.364,0,0,0-.193,1.491l4.269,8.846-2.205,3.9L3.795.04H0L9.107,19.405a1.873,1.873,0,0,0,1.652.97,1.96,1.96,0,0,0,1.71-.886l2.559-4.525,2.142,4.441a1.873,1.873,0,0,0,1.652.97h.052a1.9,1.9,0,0,0,1.658-.886L31.47.04H27.435ZM17.6,3.183,15.289,7.265l-1.97-4.082h4.274Zm1.225,16.926Z" transform="translate(0 -0.019)" fill="#fff"/>
  <g id="グループ_6" data-name="グループ 6" transform="translate(38.116 0)">
    <path id="パス_12" data-name="パス 12" d="M78.1,11.832l.156-4.092.01-.235h8.314l-.01.255-.031.891c-.125,3.315-.417,4.9-1.084,5.854-.917,1.282-2.935,1.809-6.959,1.809H73.25l-.13,4.155h6.672c4.082,0,6.709-.579,8.523-1.882,2.059-1.491,2.836-3.529,3.2-8.393.177-2.236.349-5.724.391-6.865H73.652l-.323,8.507h4.78Z" transform="translate(-73.12 -1.594)" fill="#fff"/>
    <path id="パス_13" data-name="パス 13" d="M146.367,2.922h-.261V.78h-4.353V2.922H131.229l-.089,3.3h8.325L139.2,6.6l-4.613,6.7A3.878,3.878,0,0,1,131,15.251h-.089l-.156,4.108c3.9-.01,5.536-.756,7.241-3.263l3.289-4.921.511-.761-.036.9-.318,8.466h4.884l.026-13.313V6.222h4.337l-.021-3.3h-4.306Z" transform="translate(-100.714 -0.373)" fill="#fff"/>
    <path id="パス_14" data-name="パス 14" d="M201.908,8.637l.109-2.862.01-.235h7.267l.13-3.414h-7.267l.01-.255L202.21.01H197.5l-.047,1.882-.01.235H189.9l-.13,3.414h7.538l-.01.255-.109,2.862-.01.235h-7.418l-.13,3.394h5.911l-.537.433a14.626,14.626,0,0,1-5.38,2.648l-.156,4.191a17.217,17.217,0,0,0,7-3.534l.453-.4-.021.589-.13,4.155h4.712l.13-4.108.021-.584.422.422a14.794,14.794,0,0,0,6.693,3.461l.156-4.175a14.125,14.125,0,0,1-5.228-2.659l-.558-.433h6.016l.13-3.394h-7.376l.01-.255Z" transform="translate(-128.819 -0.005)" fill="#fff"/>
    <g id="グループ_4" data-name="グループ 4" transform="translate(121.395 0.021)">
      <path id="パス_15" data-name="パス 15" d="M316.582,8.234l.052-1.314h-9.685L306.86,10h7.929a1.663,1.663,0,0,0,1.8-1.767ZM313.115,8.1l-.016.448-.01.24h-3.013l.01-.255.016-.448.01-.24h3.013Z" transform="translate(-306.412 -3.334)" fill="#fff"/>
      <path id="パス_16" data-name="パス 16" d="M314.121.535l.016-.5h-3.857l-.021.511-.01.944h-3.19L307,3.079h9.873l.057-1.585h-2.82Z" transform="translate(-306.479 -0.04)" fill="#fff"/>
      <path id="パス_17" data-name="パス 17" d="M322.321,11.18l-.026.641a1.422,1.422,0,0,0,.271,1.105c.271.266.808.375,1.8.375a3.67,3.67,0,0,0,2.1-.49l.042-2.93c-.036.016-.235.078-.271.089l-.344.094.01-.339.271-7.142h-4.045l.01-.255L322.191.04h-3.5l-.063,2.309-.01.24h-1.241l-.11,2.893h1.241l-.01.255-.031.86-.01.313-.318-.083-.912-.24-.094,2.434.344.094.36.1-.224.287a2.826,2.826,0,0,1-1.34.98l-.375.146.016-.386.01-.255-2.033.021-.12-.469,2.064-.964.047-1.225h-9.466l-.052,1.392h5.067l-.735.454a3.906,3.906,0,0,1-1.105.5l-.031.151-.036.2h-.214l-2.94.063-.068,1.84,2.888-.078.292-.01-.026.276a2.269,2.269,0,0,1-.553,1.126h3.946a2.266,2.266,0,0,0,.542-1.288l.031-.2.214-.01,2.419-.13.287-.016-.01.271-.042,1.157-.01.24h-2.236l-.026.641-.01.24h-7.772l-.083,2.163h7.772l-.01.255-.021.558-.01.24h-7.793L306,20.365h20.346l.042-2.992h-7.856l.01-.255.021-.558.01-.24h7.83l.031-2.163h-7.777l.01-.255.026-.62h-1.256l.834-.464a5.018,5.018,0,0,0,2.408-2.32l.12-.219.235.115,1.152.558.146.073v.156ZM322.1,7.995l-.448-.151-.182-.063V7.6l.078-1.887.01-.24h.975l-.01.255-.078,2.038-.01.339-.334-.115Z" transform="translate(-306 -0.04)" fill="#fff"/>
    </g>
    <g id="グループ_5" data-name="グループ 5" transform="translate(91.26)">
      <path id="パス_18" data-name="パス 18" d="M260.737,5.765l.01-.235h7.282l.13-3.414h-7.282l.01-.255L260.93,0h-4.712l-.047,1.882-.01.235H248.7l-.13,3.414h7.46l-.01.255-.109,2.862-.01.235h-7.418l-.13,3.394h5.911l-.537.433a14.625,14.625,0,0,1-5.38,2.648l-.156,4.191a17.217,17.217,0,0,0,7-3.534l.453-.4-.021.589-.13,4.155h4.712l.13-4.108.021-.584.422.422a14.794,14.794,0,0,0,6.693,3.461l.156-4.175a14.126,14.126,0,0,1-5.228-2.659l-.558-.433h6.016l.13-3.394h-7.376l.01-.255.109-2.862Z" transform="translate(-248.19 0)" fill="#fff"/>
      <path id="パス_19" data-name="パス 19" d="M255.061,12.645l2.408,1.016c.261.109.589-.031.49-.209l-4.118-6.923c-.13-.219-.7-.172-.636.068l1.074,4.149.782,1.892Z" transform="translate(-250.589 -3.059)" fill="#fff"/>
      <path id="パス_20" data-name="パス 20" d="M276.441,12.525l2.408,1.016c.261.109.589-.031.49-.209l-4.118-6.923c-.13-.219-.7-.172-.636.068l1.074,4.149.782,1.892Z" transform="translate(-260.824 -3.002)" fill="#fff"/>
    </g>
  </g>
</svg>
