<svg width="18" height="18" viewBox="0 0 18 18" fill="none" xmlns="http://www.w3.org/2000/svg">
<path d="M18 9C18 13.9706 13.9706 18 9 18C4.02944 18 0 13.9706 0 9C0 4.02944 4.02944 0 9 0C13.9706 0 18 4.02944 18 9Z" fill="white"/>
<path d="M16.875 9C16.875 4.65076 13.3492 1.125 9 1.125C4.65076 1.125 1.125 4.65076 1.125 9C1.125 13.3492 4.65076 16.875 9 16.875V18C4.02944 18 0 13.9706 0 9C0 4.02944 4.02944 0 9 0C13.9706 0 18 4.02944 18 9C18 13.9706 13.9706 18 9 18V16.875C13.3492 16.875 16.875 13.3492 16.875 9Z" fill="#262626"/>
<path d="M9 4.5V10.125H7.875V4.5H9Z" fill="#262626"/>
<path d="M7.875 9.5625H13.5V10.6875H7.875V9.5625Z" fill="#262626"/>
</svg>
