<svg width="115" height="132" viewBox="0 0 115 132" fill="none" xmlns="http://www.w3.org/2000/svg">
<path d="M115 85.2918L111.487 83.9433L100.391 86.8931L92.2162 82.0217L105.626 77.3189L107.4 74.1162L103.887 72.7677L85.0889 77.774L76.9651 72.9363L79.414 72.2452L81.2212 69.1268L77.742 67.6266L70.7835 69.2448L65.3282 66.0084L70.7835 62.7552L77.742 64.3902L81.2212 62.8901L79.414 59.7717L76.9651 59.0637L85.0889 54.226L103.887 59.2323L107.4 57.8838L105.626 54.6811L92.2162 49.9783L100.391 45.1069L111.487 48.0736L115 46.7082L113.362 43.8764L105.745 41.9042L112.551 37.8588L114.78 33.0042L109.443 32.4985L102.536 36.3417L104.63 28.7733L102.992 25.9415L100.053 28.3014L97.0803 39.3758L88.7708 44.0112L91.3886 30.0713L89.497 26.936L86.5582 29.279L81.5252 48.0398L73.2663 52.6416L73.8743 50.1806L72.0671 47.0622L69.027 49.304L66.9665 56.1476L61.4099 59.2323L61.3255 52.8944L66.2234 47.6859L66.6456 43.9438H63.0482L61.2241 45.6968L61.0721 36.2743L74.837 22.5197L75.4112 18.8114L71.7462 18.744L60.9539 27.9811L60.8188 18.4911L68.9426 10.3665L69.5168 6.65815H66.2403L60.7174 12.2544L60.5992 4.34887L57.5084 0L54.4008 4.34887L54.2826 12.2544L48.7766 6.65815H45.4832L46.0743 10.3665L54.1981 18.4911L54.0461 27.9811L43.2707 18.744L39.5888 18.8114L40.1799 22.5197L53.9279 36.2743L53.7928 45.6968L51.9518 43.9438H48.3544L48.7766 47.6859L53.6746 52.8944L53.5901 59.2323L48.0504 56.1476L45.973 49.304L42.9329 47.0622L41.1426 50.1806L41.7506 52.6416L33.4917 48.0398L28.4418 29.279L25.503 26.936L23.6114 30.0713L26.2461 44.0112L17.9197 39.3758L14.9471 28.3014L12.0084 25.9415L10.3701 28.7733L12.4813 36.3417L5.55662 32.4985L0.236452 33.0042L2.44896 37.8588L9.2554 41.9042L1.63827 43.8764L0 46.7082L3.513 48.0736L14.6093 45.1069L22.7838 49.9783L9.37362 54.6811L7.60024 57.8838L11.1132 59.2323L29.9111 54.226L38.035 59.0637L35.586 59.7717L33.7957 62.8901L37.258 64.3902L44.2165 62.7552L49.6718 66.0084L44.2165 69.2448L37.258 67.6266L33.7957 69.1268L35.586 72.2452L38.035 72.9363L29.9111 77.774L11.1132 72.7677L7.60024 74.1162L9.37362 77.3189L22.7838 82.0217L14.6093 86.8931L3.513 83.9433L0 85.2918L1.63827 88.1236L9.2554 90.0958L2.44896 94.1412L0.236452 98.9958L5.55662 99.5015L12.4813 95.6583L10.3701 103.227L12.0084 106.058L14.9471 103.699L17.9197 92.6242L26.2461 87.9888L23.6114 101.946L25.503 105.081L28.4418 102.721L33.4917 83.9602L41.7506 79.3585L41.1426 81.8194L42.9329 84.9378L45.973 82.696L48.0504 75.8524L53.5901 72.7677L53.6746 79.1056L48.7766 84.3141L48.3544 88.0562H51.9518L53.7928 86.3032L53.9279 95.7426L40.1799 109.48L39.5888 113.189L43.2707 113.256L54.0461 104.019L54.1981 113.509L46.0743 121.634L45.4832 125.342H48.7766L54.2826 119.746L54.4008 127.651L57.5084 132L60.5992 127.651L60.7174 119.746L66.2403 125.342H69.5168L68.9426 121.634L60.8188 113.509L60.9539 104.019L71.7462 113.256L75.4112 113.189L74.837 109.48L61.0721 95.7426L61.2241 86.3032L63.0482 88.0562H66.6456L66.2234 84.3141L61.3255 79.1056L61.4099 72.7677L66.9665 75.8524L69.027 82.696L72.0671 84.9378L73.8743 81.8194L73.2663 79.3585L81.5252 83.9602L86.5582 102.721L89.497 105.081L91.3886 101.946L88.7708 87.9888L97.0803 92.6242L100.053 103.699L102.992 106.058L104.63 103.227L102.536 95.6583L109.443 99.5015L114.78 98.9958L112.551 94.1412L105.745 90.0958L113.362 88.1236L115 85.2918Z" fill="white"/>
</svg>
