<svg width="400" height="45" viewBox="0 0 400 45" fill="none" xmlns="http://www.w3.org/2000/svg">
<path d="M0 22.4432C0 10.0482 10.0482 0 22.4432 0H400V27.2727C400 37.0005 392.114 44.8864 382.386 44.8864H22.4432C10.0482 44.8864 0 34.8382 0 22.4432Z" fill="#FCE8D4"/>
<path d="M0 22.4432C0 10.0482 10.0482 0 22.4432 0H400V22.1591C400 34.711 389.825 44.8864 377.273 44.8864H22.4432C10.0482 44.8864 0 34.8382 0 22.4432Z" fill="#FCE8D4"/>
<path d="M30 12.5269C30 11.566 30.7789 10.7871 31.7398 10.7871H400V14.2667H31.7398C30.7789 14.2667 30 13.4877 30 12.5269Z" fill="#E1C5A9"/>
<path d="M30.1172 32.9545C30.1172 32.0132 30.8803 31.25 31.8217 31.25H398.867V34.6591H31.8217C30.8803 34.6591 30.1172 33.8959 30.1172 32.9545Z" fill="#E1C5A9"/>
<path d="M22.6641 22.6167C22.6641 21.6559 23.443 20.877 24.4038 20.877H399.997V24.3565H24.4038C23.443 24.3565 22.6641 23.5776 22.6641 22.6167Z" fill="#E1C5A9"/>
</svg>
