<svg width="334" height="297" viewBox="0 0 334 297" fill="none" xmlns="http://www.w3.org/2000/svg">
<path d="M167 63.3933C216.981 30.3973 299.018 50.0193 334 64.0623V296.329C269.801 261.349 197.945 280.51 168 295.316V296.329C167.673 296.159 167.339 295.989 167 295.817C166.661 295.989 166.327 296.159 166 296.329V295.316C136.055 280.51 64.1993 261.349 0 296.329V64.0623C34.9823 50.0193 117.019 30.3973 167 63.3933Z" fill="#C32929"/>
<path d="M167 59.2771C216.981 27.5958 299.018 46.4362 334 59.9197V282.932C269.801 249.346 197.946 267.744 168 281.96V282.932C167.673 282.769 167.339 282.605 167 282.44C166.661 282.605 166.327 282.769 166 282.932V281.96C136.054 267.744 64.1991 249.346 0 282.932V59.9197C34.9823 46.4362 117.019 27.5958 167 59.2771Z" fill="white"/>
<rect x="239.789" width="69.1614" height="63.5028" fill="black"/>
<path d="M289.819 27.7112L287.744 29.6644L285.465 27.223L287.56 25.2698L289.819 27.7112ZM285.2 26.2464L284.61 29.644L282.189 29.2168L282.8 25.8395L285.2 26.2464ZM289.514 33.1637L287.438 35.0965L285.16 32.6551L287.255 30.7223L289.514 33.1637ZM295.332 38.2093L293.359 38.4942V43.7432H290.51V38.9011L285.16 39.6945L284.814 37.2328L283.207 38.2093L281.884 36.0934V43.5398H279.239V37.7821L277.876 39.8573L275.943 38.4128L279.239 33.2451H275.964V30.5189H279.239V24.5577H281.884V30.5189H284.59V33.2451H281.884V35.2796L283.593 34.2217L285.16 36.7038L290.51 35.9307V24.7612H293.359V35.5034L294.925 35.2796L295.332 38.2093ZM279.077 29.1151L276.676 29.4813L276.188 26.3888L278.609 26.0226L279.077 29.1151Z" fill="white"/>
<path d="M272.098 33.3672H270.267V35.5035H271.793V38.2501H253.991V35.5035H255.822V33.3672H253.483V30.5189H255.822V28.7896H253.259C253.767 27.6299 254.52 26.2057 255.558 24.5171L258.732 24.924C258.589 25.1681 258.365 25.5343 258.081 26.043H271.59V28.7896H270.267V30.5189H272.098V33.3672ZM272.485 42.0546L270.084 43.6008L267.989 40.3456L270.389 38.7994L272.485 42.0546ZM266.483 39.5725L266.463 43.1329H263.614L263.635 39.5725H266.483ZM261.926 43.1329H259.057L259.098 39.5725H261.926V43.1329ZM257.816 40.1218L256.087 43.845L253.442 42.5429L255.314 38.9825L257.816 40.1218ZM267.521 30.5189V28.7896H266.097V30.5189H267.521ZM263.655 30.5189V28.7896H262.333V30.5189H263.655ZM267.521 35.5035V33.3672H266.097V35.5035H267.521ZM259.891 30.5189V28.7896H258.569V30.5189H259.891ZM263.655 35.5035V33.3672H262.333V35.5035H263.655ZM259.891 35.5035V33.3672H258.569V35.5035H259.891Z" fill="white"/>
<path d="M295.073 14.0234H293.681V19.0288H292.423L295.046 19.6311L294.685 21.1969L291.071 20.2735L291.352 19.0288H286.855L287.15 20.2735L283.536 21.1969L283.175 19.6311L285.785 19.0288H284.741V14.9469L284.152 15.2279L283.349 13.7557C283.991 13.4747 284.527 13.1803 284.955 12.8992H283.429L283.898 10.4099H286.909L287.016 10.0619H283.456V8.99125H287.257C287.27 8.84403 287.297 8.68343 287.324 8.52283H288.997L288.943 8.99125H289.853V8.52283H291.526V8.99125H294.644V11.4806H291.526V11.8285H295.073V14.0234ZM292.824 10.4099V10.0619H291.526V10.4099H292.824ZM293.293 12.8992H291.526V13.5148H293.293V12.8992ZM289.853 10.4099V10.0619H288.756L288.675 10.4099H289.853ZM289.853 11.8285V11.4806H288.314C288.274 11.601 288.22 11.7081 288.153 11.8285H289.853ZM289.853 13.5148V12.8992H287.471C287.297 13.1133 287.11 13.3141 286.909 13.5148H289.853ZM286.387 11.4806H285.423L285.356 11.8285H286.146C286.24 11.7215 286.32 11.601 286.387 11.4806ZM291.874 17.7574V14.8532H286.547V15.2413H291.539V16.0577H286.547V16.4726H291.539V17.3157H286.547V17.7574H291.874Z" fill="white"/>
<path d="M280.123 20.5144H275.211V10.0485H280.123V20.5144ZM274.208 21.0229H272.334V12.6851H271.344C271.063 15.0272 270.487 17.5165 269.59 20.1664L267.851 19.4839C268.654 17.0615 269.189 14.7863 269.457 12.6851H268.038V10.8114H269.644C269.698 10.1422 269.738 9.4329 269.764 8.67004L271.638 8.75034C271.611 9.40613 271.571 10.1021 271.518 10.8114H274.208V21.0229ZM278.25 18.6407V11.9222H277.085V18.6407H278.25Z" fill="white"/>
<path d="M265.628 15.7499L264.678 17.2087L261.573 15.2145L262.229 14.2241H257.946C257.518 14.6792 257.05 15.1075 256.555 15.4956L260.208 14.2911L260.73 15.7097L256.983 16.941L256.474 15.5625C255.685 16.1781 254.788 16.7268 253.811 17.2087L252.968 15.5893C253.824 15.1744 254.587 14.7193 255.256 14.2241H253.088V12.4843H257.143C257.304 12.2835 257.465 12.0828 257.612 11.882H254.038L255.899 8.4425L257.665 9.01799L257.023 10.2091H262.055C261.948 9.9816 261.801 9.71393 261.613 9.37934L263.313 8.77709L264.732 11.882L259.659 11.9222C259.552 12.1096 259.432 12.2969 259.312 12.4843H265.334V14.2241H263.246L265.628 15.7499ZM262.042 17.3157L256.702 19.176L256.166 17.7038L261.493 15.8435L262.042 17.3157ZM264.022 18.3998C263.019 19.2162 261.654 19.8853 259.927 20.4207C258.401 20.8891 256.903 21.1701 255.417 21.2638L255.096 19.6043C256.381 19.5106 257.746 19.2563 259.178 18.8414C260.824 18.3596 262.069 17.7841 262.898 17.1016L264.022 18.3998Z" fill="white"/>
<path d="M184.336 266.116V65.8501C225.601 36.5958 294.186 53.6608 323.321 65.8501V266.116C268.988 235.262 208.025 253.26 184.336 266.116Z" fill="white"/>
<path d="M288.493 105.773L284.88 109.157C282.646 106.726 279.328 103.047 274.893 98.1521C273.513 96.5752 272.823 95.0312 272.823 93.553C272.823 91.8119 273.71 90.0379 275.517 88.264L284.551 79.2957L288.066 82.7122C286.194 84.519 284.321 86.3586 282.449 88.1654C279.328 91.2534 277.784 93.0602 277.784 93.5858C277.784 93.98 279.393 95.9182 282.58 99.4333C284.551 101.569 286.522 103.671 288.493 105.773Z" fill="#262626"/>
<path d="M240.892 99.6304C240.399 99.6304 240.071 99.3019 240.071 98.8092V97.0024C240.071 96.5096 240.399 96.1811 240.892 96.1811H261.588C262.081 96.1811 262.409 96.5096 262.409 97.0024V98.8092C262.409 99.3019 262.081 99.6304 261.588 99.6304H250.616C250.386 99.6304 250.123 99.729 249.992 99.9261L249.926 100.025C249.795 100.156 249.729 100.287 249.63 100.419C249.63 100.452 249.63 100.452 249.598 100.485C249.269 100.912 249.4 101.207 249.992 101.207H260.373C260.865 101.207 261.194 101.536 261.194 102.029V108.796C261.194 109.289 260.865 109.617 260.373 109.617H256.956C256.726 109.617 256.562 109.453 256.562 109.256C256.562 109.026 256.398 108.862 256.201 108.862H248.448C248.218 108.862 248.054 109.026 248.054 109.256C248.054 109.453 247.889 109.617 247.692 109.617H244.506C244.013 109.617 243.684 109.289 243.684 108.796V107.482C243.684 106.595 243.192 106.332 242.403 106.792C242.042 106.989 241.68 107.186 241.319 107.35C240.925 107.548 240.498 107.416 240.268 107.055C239.972 106.628 239.611 106.168 239.25 105.708C238.658 104.985 238.133 105.149 237.837 106.004C237.541 106.989 237.18 107.909 236.786 108.73C236.523 109.289 235.997 109.354 235.504 108.993C234.847 108.5 234.059 107.942 233.369 107.548C232.942 107.285 232.811 106.825 233.041 106.365C235.077 102.193 235.209 96.4439 235.209 92.2061V83.0736C235.209 82.5808 235.537 82.2523 236.03 82.2523H245.82C246.312 82.2523 246.641 81.9238 246.641 81.431V80.8397C246.641 80.3469 246.969 80.0184 247.462 80.0184H250.583C251.076 80.0184 251.404 80.3469 251.404 80.8397V81.431C251.404 81.9238 251.733 82.2523 252.226 82.2523H261.292C261.785 82.2523 262.114 82.5808 262.114 83.0736V85.3731C262.114 85.8659 261.785 86.1944 261.292 86.1944H258.829C258.402 86.1944 258.139 86.4572 258.139 86.8843C258.139 87.3113 258.402 87.5741 258.829 87.5741H261.391C261.884 87.5741 262.212 87.9027 262.212 88.3954V89.7423C262.212 90.2351 261.884 90.5636 261.391 90.5636H260.734C259.814 90.5636 259.683 90.9249 260.438 91.4177L261.654 92.0747C262.409 92.4689 262.508 93.0274 261.917 93.6516C261.588 93.9801 261.26 94.3743 260.997 94.7028C260.701 95.0642 260.274 95.1627 259.946 94.8999H259.88C259.584 94.7028 259.289 94.44 258.96 94.1772C258.467 93.7501 258.139 93.8815 258.139 94.5385V94.867C258.139 95.3598 257.81 95.6883 257.318 95.6883H255.445C254.952 95.6883 254.624 95.3598 254.624 94.867V94.5714C254.624 93.9144 254.328 93.8158 253.835 94.2429C253.441 94.5714 253.047 94.867 252.653 95.1299C252.324 95.327 251.897 95.2284 251.634 94.8999C251.437 94.6699 251.207 94.4071 250.977 94.1115C250.616 93.7173 250.123 93.7501 249.795 94.1772C249.466 94.6042 248.973 94.6371 248.579 94.3086L248.513 94.2429C248.448 94.21 248.382 94.1115 248.316 94.0786L248.251 94.0129C247.791 93.6187 247.429 93.783 247.429 94.44V94.7685C247.429 95.2613 247.101 95.5898 246.608 95.5898H244.768C244.276 95.5898 243.947 95.2613 243.947 94.7685V94.6042C243.947 94.0129 243.684 93.9144 243.224 94.2757C242.863 94.6042 242.502 94.867 242.108 95.097C241.713 95.3598 241.286 95.2284 241.023 94.867C240.859 94.6699 240.728 94.4728 240.564 94.3086L240.498 94.2429C239.972 93.5859 239.512 93.783 239.479 94.7028C239.381 97.2323 239.151 100.09 238.625 102.817C238.461 103.802 238.888 104.164 239.775 103.704C241.221 102.948 242.6 101.963 243.783 100.912C244.571 100.189 244.341 99.6304 243.224 99.6304H240.892ZM243.947 86.6872C243.947 86.3915 243.75 86.1944 243.454 86.1944H240.005C239.709 86.1944 239.512 86.3915 239.512 86.6872V92.5675C239.512 92.7974 239.644 92.896 239.841 92.7974C240.629 92.4032 241.418 91.9105 242.075 91.352C242.6 90.8921 242.469 90.5636 241.779 90.5636H240.958C240.662 90.5636 240.465 90.3665 240.465 90.0708V88.0669C240.465 87.7712 240.662 87.5741 240.958 87.5741H243.454C243.75 87.5741 243.947 87.377 243.947 87.0814V86.6872ZM254.131 87.5741C254.427 87.5741 254.624 87.377 254.624 87.0814V86.6872C254.624 86.3915 254.427 86.1944 254.131 86.1944H247.922C247.626 86.1944 247.429 86.3915 247.429 86.6872V87.0814C247.429 87.377 247.626 87.5741 247.922 87.5741H249.959C250.255 87.5741 250.452 87.7712 250.452 88.0669V90.0708C250.452 90.3665 250.255 90.5636 249.959 90.5636H249.236C248.513 90.5636 248.448 90.7607 249.105 91.122C249.828 91.4834 250.616 91.9105 251.076 92.1733C251.207 92.239 251.437 92.239 251.569 92.1404C251.996 91.8776 252.39 91.582 252.784 91.2534C253.244 90.8592 253.113 90.5636 252.521 90.5636H251.996C251.7 90.5636 251.503 90.3665 251.503 90.0708V88.0669C251.503 87.7712 251.7 87.5741 251.996 87.5741H254.131ZM256.069 105.741C256.365 105.741 256.562 105.544 256.562 105.248V104.854C256.562 104.558 256.365 104.361 256.069 104.361H248.546C248.251 104.361 248.054 104.558 248.054 104.854V105.248C248.054 105.544 248.251 105.741 248.546 105.741H256.069Z" fill="#262626"/>
<path d="M221.871 93.0603C220.689 93.4873 219.572 94.013 218.521 94.6043C219.276 95.8198 219.835 97.0024 220.262 98.1522L215.597 99.7947C215.367 99.1705 215.071 98.5135 214.677 97.8237C214.053 98.7106 213.757 99.5976 213.757 100.55C213.757 101.7 214.283 102.653 215.334 103.408C216.221 104.032 217.305 104.427 218.553 104.591L217.962 109.453C215.433 109.157 213.297 108.237 211.622 106.726C209.749 105.084 208.83 103.047 208.83 100.583C208.83 98.1193 209.749 95.8855 211.589 93.8487C210.932 93.2574 209.684 92.5675 207.844 91.7791L209.092 86.8515H206.957V81.9238H210.341L211.129 78.803L215.925 80.0185L215.433 81.9238H218.521V86.8515H214.184L213.593 89.1839C214.217 89.6109 214.808 90.1365 215.4 90.7279C216.878 89.8409 218.455 89.0525 220.196 88.4283L221.871 93.0603Z" fill="#262626"/>
<path d="M193.127 109.519H182.746V107.252H190.696V88.264H193.127V109.519Z" fill="#262626"/>
<path d="M178.836 109.223H174.073V89.6109H164.415C162.772 97.1337 159.98 103.671 156.071 109.157L152.096 106.628C155.479 101.831 157.943 96.1482 159.52 89.6109H150.913V85.0117H160.407C160.703 82.9093 160.867 80.8725 160.867 78.9343H165.63C165.63 80.8725 165.499 82.8764 165.203 85.0117H178.836V109.223Z" fill="#262626"/>
<path d="M141.025 99.4004C141.025 102.226 140.105 104.558 138.298 106.398C136.491 108.237 134.159 109.157 131.334 109.157C129.264 109.157 127.589 108.5 126.275 107.219C124.961 105.938 124.304 104.262 124.304 102.226C124.304 100.55 124.961 99.1048 126.308 97.955C127.589 96.838 129.067 96.2796 130.775 96.2796C132.944 96.2796 134.717 97.1994 136.064 99.0391C135.9 97.1994 135.177 95.6226 133.863 94.2757C132.944 93.323 131.465 92.3046 129.461 91.2534L132.385 85.3731H125.782V80.4454H140.335L135.9 89.3809C137.411 90.5964 138.627 92.1075 139.547 93.8486C140.532 95.6883 141.025 97.5279 141.025 99.4004ZM135.572 101.634L132.944 102.751C132.779 102.324 132.516 101.93 132.089 101.569C131.662 101.207 131.235 101.043 130.775 101.043C130.447 101.043 130.118 101.174 129.757 101.404C129.396 101.634 129.231 101.93 129.231 102.226C129.231 103.572 129.921 104.229 131.334 104.229C133.371 104.229 134.783 103.375 135.572 101.634Z" fill="#262626"/>
<path d="M113.595 107.975C112.248 108.402 110.901 108.599 109.554 108.599C107.353 108.599 105.284 108.04 103.411 106.891C101.506 105.708 100.06 104.164 99.042 102.193L94.18 108.829L90.2051 105.905L100.849 91.352H92.5046L92.5375 86.4572H103.214L98.5492 83.1064L101.407 79.0986L106.729 82.9093L104.2 86.4572H110.54L99.8633 101.076L103.247 99.5648C103.805 100.846 104.659 101.831 105.809 102.554C106.959 103.31 108.207 103.671 109.587 103.671C110.441 103.671 111.295 103.54 112.182 103.277L113.595 107.975Z" fill="#262626"/>
<path d="M83.8978 91.0891H71.7102C69.9034 92.2389 68.2937 93.2244 66.8482 94.0457L79.6272 92.436L80.1857 96.4438L67.0453 97.955L66.5197 94.2428C66.0926 94.4728 65.6984 94.7027 65.2714 94.9327L64.5486 99.3019H80.6785V109.65H76.0793V103.572H59.1283L60.1795 97.4622C58.5369 98.2178 56.9272 98.9076 55.3504 99.5318L53.6421 95.2612C58.4055 93.3887 61.6578 92.009 63.3989 91.0891H53.5107V86.9171H63.8588V84.716H57.0258V80.5768H63.8588V79.0328H68.4579V80.5768H74.6996V83.3035C75.9808 82.2194 77.1306 81.1353 78.0832 80.0841L81.4997 83.2049C80.7442 84.0262 79.4958 85.2745 77.7876 86.9171H83.8978V91.0891ZM73.3527 84.716H68.4579V86.9171H70.4947C71.086 86.5228 72.0387 85.8001 73.3527 84.716Z" fill="#262626"/>
<path d="M40.6982 78.9015H51.0791V81.1682H43.1292V100.156H40.6982V78.9015Z" fill="#262626"/>
<path d="M288.621 179.557H268.835V162.475H254.333C250.277 169.726 245.238 175.625 239.155 180.233L233.993 173.351C237.742 170.524 241.121 166.899 244.194 162.475H235.345V154.056H248.987C249.909 151.967 250.584 149.878 251.138 147.789L259.31 149.878V136.851H249.724L254.026 142.811L240.937 152.336L235.898 145.331L247.574 136.851H241.183V140.845H232.58V128.248H255.316V123.332H263.919V128.248H286.962V140.845H278.359V136.851H267.913V142.074H283.275V150.677H259.31V150.554C259.003 151.721 258.634 152.889 258.204 154.056H277.437V170.955H288.621V179.557Z" fill="#B30912"/>
<path d="M181.394 150.615C182.377 150.369 183.176 150.861 183.299 151.906L183.975 156.453C184.097 157.252 183.667 157.928 182.93 158.112C182.008 158.419 181.025 158.665 180.103 158.911C179.427 159.095 178.997 159.71 178.997 160.385V172.429C178.997 176.116 178.383 178.267 176.416 179.557C174.696 180.663 172.422 181.032 169.35 181.155C168.428 181.155 167.875 180.602 167.691 179.742C167.445 178.39 167.076 176.792 166.585 175.379C166.154 174.088 166.707 173.351 167.998 173.413C168.92 173.413 169.78 173.413 170.21 173.351H170.333C170.947 173.351 171.255 173.167 171.255 172.429V163.335C171.255 162.106 170.456 161.492 169.288 161.86L168.059 162.167C167.138 162.413 166.4 161.983 166.154 161L165.11 156.023C164.864 155.101 165.356 154.364 166.277 154.179L170.087 153.319C170.763 153.196 171.255 152.581 171.255 151.844V145.638C171.255 144.716 170.64 144.102 169.718 144.102H167.261C166.339 144.102 165.724 143.487 165.724 142.565V137.895C165.724 136.974 166.339 136.359 167.261 136.359H169.718C170.64 136.359 171.255 135.745 171.255 134.823V127.265C171.255 126.343 171.869 125.729 172.791 125.729H177.461C178.383 125.729 178.997 126.343 178.997 127.265V134.823C178.997 135.745 179.612 136.359 180.533 136.359H182.131C183.053 136.359 183.667 136.974 183.667 137.895V142.565C183.667 143.487 183.053 144.102 182.131 144.102H180.533C179.612 144.102 178.997 144.716 178.997 145.638V149.263C178.997 150.431 179.735 151.045 180.902 150.738L181.394 150.615ZM193.499 135.192C192.577 135.192 191.963 135.806 191.963 136.728V139.309C191.963 140.23 191.348 140.845 190.427 140.845H186.371C185.449 140.845 184.835 140.23 184.835 139.309V129.6C184.835 128.678 185.449 128.064 186.371 128.064H218.201C219.123 128.064 219.738 128.678 219.738 129.6V138.94C219.738 139.862 219.123 140.476 218.201 140.476H213.777C212.855 140.476 212.241 139.862 212.241 138.94V136.728C212.241 135.806 211.626 135.192 210.705 135.192H193.499ZM219.738 162.045C219.738 162.966 219.123 163.581 218.201 163.581H213.838C211.872 163.581 211.381 164.625 212.794 165.977C214.822 168.067 217.157 169.91 219.492 171.446C220.721 172.184 220.782 173.167 219.799 174.15C218.693 175.317 217.525 176.669 216.604 177.837C216.051 178.574 215.19 178.82 214.453 178.267C212.609 176.854 210.827 175.195 209.107 173.351C207.202 171.2 206.157 171.508 206.157 174.396V179.496C206.157 180.418 205.543 181.032 204.621 181.032H199.337C198.415 181.032 197.8 180.418 197.8 179.496V174.027C197.8 171.262 196.756 170.955 194.851 172.921C192.516 175.379 189.996 177.407 187.231 179.004C186.494 179.434 185.695 179.189 185.203 178.513C184.405 177.407 183.36 176.116 182.377 175.01C181.394 173.966 181.578 172.921 182.868 172.245C185.941 170.647 188.829 168.435 191.225 165.977C192.577 164.625 192.024 163.581 190.119 163.581H186.002C185.081 163.581 184.466 162.966 184.466 162.045V157.62C184.466 156.699 185.081 156.084 186.002 156.084H196.264C197.186 156.084 197.8 155.47 197.8 154.548V152.09C197.8 151.168 198.415 150.554 199.337 150.554H201.18C203.146 150.554 203.515 149.755 203.146 148.096C202.839 146.928 202.778 145.515 202.778 143.733V137.834C202.778 136.912 203.392 136.298 204.314 136.298H208.738C209.66 136.298 210.274 136.912 210.274 137.834V143.671C210.274 145.208 210.459 145.331 211.258 145.331H213.04C213.654 145.331 213.961 145.023 214.146 143.549C214.269 142.197 215.006 141.828 216.235 142.381C217.218 142.873 218.386 143.303 219.492 143.61C220.229 143.856 220.721 144.532 220.598 145.331C219.738 150.554 217.833 151.967 213.961 151.967H209.906L208.001 151.844C206.895 151.721 206.157 152.274 206.157 153.442V154.548C206.157 155.47 206.772 156.084 207.694 156.084H218.201C219.123 156.084 219.738 156.699 219.738 157.62V162.045ZM193.315 137.834C193.376 136.974 193.991 136.359 194.851 136.359H199.398C200.32 136.359 200.996 137.035 200.873 137.957C200.32 145.453 198.353 150.308 188.952 152.95C188.214 153.196 187.477 152.827 187.108 152.09C186.678 151.291 186.125 150.369 185.511 149.509C184.528 148.096 184.835 147.113 186.494 146.621C191.963 144.9 192.946 142.197 193.315 137.834Z" fill="#DC910F"/>
<path d="M153.251 154.671C153.251 161.614 151.039 167.882 146.676 173.474L139.425 167.821C142.497 163.827 144.034 159.464 144.034 154.671C144.034 150.185 142.682 146.437 140.039 143.487C137.274 140.353 133.71 138.817 129.224 138.817C125.046 138.817 121.543 140.23 118.655 143.057C115.767 145.884 114.292 149.386 114.292 153.565C114.292 156.33 115.153 159.095 116.873 161.922L125.599 145.638L133.71 150.001L120.192 175.194C118.963 174.703 117.672 174.15 116.32 173.535C112.941 171.999 110.237 169.173 108.086 165.117C106.058 161.369 105.075 157.497 105.075 153.565C105.075 146.867 107.41 141.152 112.142 136.543C116.812 131.935 122.527 129.6 129.224 129.6C136.291 129.6 142.067 131.996 146.553 136.789C151.039 141.582 153.251 147.543 153.251 154.671Z" fill="#B30912"/>
<path d="M93.7689 152.827L90.1435 160.631L67.1003 150.062C64.9496 151.353 62.676 152.643 60.2795 153.81L76.6862 159.832L73.6753 167.944L56.4697 161.553L59.112 154.363C53.2744 157.252 46.8223 159.709 39.7557 161.86L37.2363 153.626C44.733 151.353 51.4309 148.71 57.3914 145.576L53.09 143.61L56.7155 135.806L66.3015 140.23C68.5136 138.694 70.5414 137.096 72.4463 135.437L59.6036 132.426L42.0908 143.917L37.3592 136.728L57.9445 123.209L88.6687 130.337C85.0432 135.437 80.5575 140.107 75.2729 144.347L93.7689 152.827ZM85.0432 173.167L83.7528 181.647L43.9957 175.502L45.2861 167.022L85.0432 173.167Z" fill="#0D9668"/>
<path d="M250.825 239.367L236.12 220.051V239.367H225.465V195.625H236.12V214.817L250.701 195.625H263.225L246.277 217.06L263.848 239.367H250.825Z" fill="#B30912"/>
<path d="M196.179 204.162V213.01H210.448V221.235H196.179V230.831H212.317V239.367H185.523V195.625H212.317V204.162H196.179Z" fill="#0D9668"/>
<path d="M156.236 204.162V213.01H170.505V221.235H156.236V230.831H172.375V239.367H145.581V195.625H172.375V204.162H156.236Z" fill="#DC910F"/>
<path d="M134.006 195.625L122.603 239.367H109.705L102.726 210.58L95.4983 239.367H82.6L71.5088 195.625H82.9116L89.2049 227.466L96.9937 195.625H108.708L116.185 227.466L122.541 195.625H134.006Z" fill="#0D9668"/>
</svg>
