<svg width="307" height="249" viewBox="0 0 307 249" fill="none" xmlns="http://www.w3.org/2000/svg">
<g clip-path="url(#clip0_5_2970)">
<path d="M286.216 203.953H18.9634V205.581H286.216V203.953Z" fill="#231815"/>
<path d="M228.748 225.034H214.865V229.09H228.748V225.034Z" fill="#231815"/>
<path d="M275.888 225.034H262.005V229.09H275.888V225.034Z" fill="#231815"/>
<path d="M228.748 231.975H214.865V236.032H228.748V231.975Z" fill="#231815"/>
<path d="M282.09 228.49C282.09 235.889 279.416 244.858 264.679 244.858H262.034V249H264.679C279.416 249 286.244 241.145 286.244 228.49H282.09Z" fill="#231815"/>
<path d="M234.95 228.49C234.95 235.889 232.276 244.858 217.539 244.858H214.893V249H217.539C232.276 249 239.104 241.145 239.104 228.49H234.978H234.95Z" fill="#231815"/>
<path d="M166.786 244.83V225.034H162.49V249H165.306C178.336 249 186.074 242.144 186.814 230.119H182.66C181.949 240.602 175.235 244.401 166.786 244.801V244.83Z" fill="#231815"/>
<path d="M129.489 234.86H107.981V239.174H129.489V234.86Z" fill="#231815"/>
<path d="M210.825 234.86H189.317V239.174H210.825V234.86Z" fill="#231815"/>
<path d="M84.1689 226.205V230.347H100.812V243.687H84.1689V247.857H105.278V226.205H84.1689Z" fill="#231815"/>
<path d="M18.9634 225.034V236.374H23.4868V229.176H39.5322C39.1623 234.375 38.0528 237.917 35.8053 240.259C33.2733 242.887 29.3189 244.23 22.804 244.687V249C30.6276 248.4 35.4639 246.572 38.7925 243.144C42.3771 239.402 44.0556 233.746 44.1125 225.034H18.9634Z" fill="#231815"/>
<path d="M76.943 233.004C74.7239 233.004 72.9316 234.803 72.9316 237.031C72.9316 239.259 74.7239 241.03 76.943 241.03C79.162 241.03 80.9543 239.231 80.9543 237.031C80.9543 234.832 79.162 233.004 76.943 233.004Z" fill="#231815"/>
<path d="M156.771 231.118C156.231 231.29 155.69 231.404 155.093 231.404C153.044 231.404 151.252 230.233 150.399 228.519H146.842V224.12H142.547V228.519H132.362V232.661H142.547V249.029H146.842V232.661H156.743V231.147L156.771 231.118Z" fill="#231815"/>
<path d="M155.093 222.12C152.902 222.12 151.082 223.892 151.082 226.091C151.082 228.29 152.874 230.119 155.093 230.119C157.312 230.119 159.104 228.348 159.104 226.091C159.104 223.834 157.312 222.12 155.093 222.12ZM155.093 228.49C153.813 228.49 152.76 227.405 152.76 226.12C152.76 224.834 153.813 223.777 155.093 223.777C156.373 223.777 157.426 224.834 157.426 226.12C157.426 227.405 156.373 228.49 155.093 228.49Z" fill="#231815"/>
<path d="M131.765 244.058V249C138.422 246.601 139.617 240.202 139.645 235.575H135.406C135.378 239.174 134.553 242.316 131.765 244.058Z" fill="#231815"/>
<path d="M154.012 235.489H149.773C149.801 240.173 151.025 246.686 157.909 249.029V244.144C154.922 242.43 154.04 239.231 154.012 235.517V235.489Z" fill="#231815"/>
<path d="M241.351 230.576V233.918H254.665V238.003H241.778V241.316H254.665V245.687H241.038V249H258.392V230.576H241.351Z" fill="#231815"/>
<path d="M64.0839 224.091H59.9588V228.49H45.6772V232.632H57.5121C54.781 236.431 50.9404 239.745 45.6772 241.973V246.429C51.5093 244.287 56.2888 240.83 59.9588 236.203V244.858H54.6388V249H59.9588C62.2347 249 64.0839 247.143 64.0839 244.858V232.661H70.485V228.519H64.0839V224.12V224.091Z" fill="#231815"/>
<path d="M23.7146 25.5941C23.3163 26.2797 22.8611 26.9653 22.4344 27.6508L19.1627 24.5658C19.7317 23.766 20.1015 23.2233 20.5852 22.3663H14.9238C13.9565 23.3946 12.9039 24.3658 11.8512 25.2799H18.9067V28.6791C17.1428 30.393 15.8341 31.4785 13.7858 32.821V33.5923C16.3178 33.2781 18.8782 32.9924 21.4102 32.564V36.1346C18.8782 36.6202 16.3178 37.0201 13.7858 37.3914V42.9045C13.7858 44.5326 12.7047 45.9038 10.9978 45.9038H4.99498L4.22685 42.0189H8.83563C9.51841 42.0189 9.88825 41.819 9.88825 41.0763V37.877C6.92953 38.2484 3.94236 38.4769 0.955188 38.734L0.642246 34.792C3.71476 34.6206 6.81573 34.3921 9.88825 34.0208V31.1929H11.0262C11.7943 30.6501 13.2737 29.4218 13.8142 28.6791H7.47006C5.76311 29.8503 4.16995 30.8786 2.3492 31.8498L0.5 28.2507C3.88546 26.5939 6.64504 24.7943 9.54686 22.3663H0.955188V18.6814H8.38044V14.8823H1.95091V11.226H8.38044V7.99817H12.1357V11.226H16.8014V14.2253C17.9394 12.5686 18.7075 10.9975 19.5041 9.16933L23.0887 10.7975C21.6662 13.7683 20.2153 16.1106 18.167 18.71H20.8412V21.9378C23.1456 17.7674 24.3974 12.4829 25.0801 7.79822L29.0915 8.19813C28.8354 10.1405 28.5794 12.0829 28.1527 14.0254H38.5366V18.253H36.5452C36.09 24.0516 35.0943 30.0503 32.1356 35.1062C34.2408 37.7056 36.659 39.8766 39.191 41.9904L36.8012 45.9323C33.9848 43.79 31.7088 41.5619 29.5751 38.7054C26.8724 41.819 24.0844 43.9042 20.5283 45.9323L17.854 42.0475C21.4955 40.4764 24.7672 38.3055 27.2707 35.1634C25.5638 32.1641 24.312 28.9934 23.6861 25.5941H23.7146ZM16.3747 14.8823H12.1357V18.6814H13.3306C14.4117 17.4531 15.4359 16.1963 16.3747 14.8823ZM32.5623 18.253H27.0431C26.844 18.8243 26.6733 19.3956 26.4457 19.9669C26.844 23.9374 27.7259 27.9079 29.6605 31.4499C31.4812 27.4794 32.2778 22.6234 32.5623 18.2815V18.253Z" fill="#231815"/>
<path d="M45.3645 21.9093L45.0515 18.1101C47.7542 18.1101 50.4284 18.0244 53.0742 17.9959C53.8424 16.9104 54.582 15.7678 55.2079 14.5967H43.9136V10.8547H60.9547V7.94104H65.0229V10.8547H81.8933V14.5967H71.7654C74.2405 15.8249 78.2518 18.6814 80.2717 20.5667L76.9716 23.3946C75.6345 22.1092 74.6672 21.3665 73.1878 20.3096C63.8849 21.0523 54.6389 21.8807 45.3645 21.9378V21.9093ZM76.9716 41.9618C76.9716 44.5898 75.606 46.1037 72.9318 46.1037H66.104L65.1652 41.9618H71.6231C72.5904 41.9618 72.8464 41.9332 72.8464 40.962V38.734H52.9889V46.1037H48.8353V23.6803H76.9716V41.9618ZM52.9889 26.9652V29.5647H72.8464V26.9652H52.9889ZM52.9889 32.7639V35.449H72.8464V32.7639H52.9889ZM66.5876 16.2249L69.7739 14.5681H60.0727C59.0486 16.1392 58.9063 16.4248 57.8252 17.8816C61.4668 17.8531 65.1367 17.596 68.7782 17.4817C68.0385 17.0247 67.3273 16.6248 66.5876 16.2249Z" fill="#231815"/>
<path d="M98.4506 9.16931L103.259 9.54065C103.088 10.7975 102.889 11.883 102.604 13.1398H119.048V17.3103H101.438C101.039 18.5957 100.641 19.5955 100.072 20.7952C101.808 20.024 102.832 19.6241 104.766 19.6241C108.294 19.6241 110.058 21.0523 111.224 24.3373C114.382 22.9947 117.597 21.9949 120.925 21.1094L121.921 25.6512C118.564 26.4225 115.293 27.3937 112.021 28.5649C112.135 29.736 112.192 30.9072 112.192 32.1069C112.192 33.4495 112.192 34.792 112.163 36.106H107.64C107.753 35.0491 107.81 34.1064 107.81 33.0781C107.81 32.1926 107.782 31.3071 107.725 30.393C105.478 31.4785 101.068 33.7637 101.068 36.6773C101.068 40.0765 105.563 40.1336 109.517 40.1336C112.874 40.1336 116.26 39.9622 119.617 39.6766V44.047C116.345 44.1613 113.073 44.247 109.802 44.247C106.331 44.247 101.694 44.2184 98.9058 42.0189C97.2842 40.6764 96.2884 38.991 96.2884 36.8201C96.2884 33.9065 98.5928 31.5642 100.783 29.9645C102.832 28.4506 105.022 27.2794 107.241 26.1083C106.729 24.4515 105.876 23.6231 104.055 23.6231C101.182 23.6231 98.3937 25.6227 96.1747 27.9936C95.4919 28.9648 94.8375 29.9931 94.0694 31.05C93.2728 32.2212 92.334 33.5351 90.9969 35.0777L87.6968 31.6213C91.765 27.5937 94.9798 22.7376 96.829 17.3103H88.721V13.1398H98.0238C98.3083 11.7116 98.4221 10.6261 98.5359 9.16931H98.4506Z" fill="#231815"/>
<path d="M205.221 10.3691H222.831V14.4538H210.342V23.5375C210.342 25.3371 208.891 26.651 207.155 26.651H202.603L201.978 22.1378H204.993C205.96 22.1378 206.017 21.7379 206.017 20.9095V14.4538H200.697C199.844 20.9095 196.999 25.5656 191.423 28.9362L188.578 25.6513C193.073 23.0519 195.832 19.7955 196.487 14.4538H182.917V10.3691H200.697V6.99841H205.249V10.3691H205.221ZM182.888 23.1661C185.904 20.5953 187.355 18.9957 189.431 15.5679L193.329 17.2246C191.337 20.5667 188.606 23.6232 185.591 26.0512L182.86 23.1376L182.888 23.1661ZM216.373 28.9362V32.7354C213.955 35.9346 211.366 38.3341 207.867 40.3336C212.703 41.8761 217.738 42.3332 222.802 42.5046L221.067 47.0749C214.979 46.4465 208.066 45.2468 202.404 42.9045C196.743 45.1325 191.11 46.218 185.05 46.9035L183.656 43.1044C188.549 42.5902 193.443 41.9047 198.165 40.4193C196.089 38.8482 194.382 37.1344 192.817 35.0491C190.484 36.4488 188.493 37.4486 185.961 38.4769L183.571 34.8206C189.773 32.4783 193.699 30.3359 197.824 24.9086L202.034 26.7082C201.437 27.5651 201.01 28.165 200.327 28.9648H216.401L216.373 28.9362ZM195.889 32.9924C198.052 35.2205 200.356 37.0487 203.087 38.4483C206.017 36.963 208.265 34.992 210.598 32.7354H196.231C196.231 32.7354 196.003 32.9068 195.889 32.9924ZM211.707 17.6817L214.922 15.1965C217.056 18.3672 219.758 21.0809 222.774 23.3946L220.014 26.6796C216.145 23.766 214.495 21.5094 211.679 17.6817H211.707Z" fill="#231815"/>
<path d="M257.681 17.9102V21.7379C254.694 24.223 251.821 26.7653 248.833 29.2504C249.346 29.1076 249.772 29.0219 250.313 29.0219C253.727 29.0219 254.523 32.2783 254.523 35.0777V36.8773C254.552 39.4481 254.609 40.6193 258.25 40.6193C260.498 40.6193 263.684 40.5336 265.903 40.2765V44.9611C263.343 45.0468 260.811 45.0754 258.25 45.0754C255.576 45.0754 252.048 44.7897 250.683 42.0761C250 40.7906 249.886 39.0767 249.886 37.6771V36.106C249.886 34.4492 249.744 32.8782 247.667 32.8782C246.131 32.8782 244.395 33.5637 243.172 34.6778C241.351 36.306 239.644 38.0484 238.193 39.5338C236.458 41.3334 234.552 43.3329 232.76 44.9611L229.346 41.4476C232.105 38.9625 234.751 36.3631 237.454 33.8494C241.664 29.8217 246.045 25.9655 250.37 22.0806L232.56 22.5091V17.9959L257.624 17.8816L257.681 17.9102ZM258.734 10.8547L257.681 15.5107C251.223 13.4255 243.741 12.9113 236.97 12.5971L237.653 8.25525C244.765 8.51233 251.849 9.05507 258.734 10.8547Z" fill="#231815"/>
<path d="M299.018 9.28363V13.3398C296.031 16.0821 293.186 18.9671 290.142 21.6237C291.877 20.9095 293.072 20.7381 294.95 20.7381C297.852 20.7381 301.038 21.4237 303.2 23.4232C305.504 25.5942 306.529 28.7934 306.529 31.907C306.529 36.0775 304.822 40.0194 301.379 42.476C298.278 44.7041 294.751 45.1325 290.995 45.1325C288.264 45.1325 286.017 44.9326 283.598 43.5615C281.379 42.3332 279.872 40.1051 279.872 37.5343C279.872 33.4781 283.826 31.1643 287.496 31.1643C292.304 31.1643 295.49 34.8206 295.49 39.5338V40.4193C299.53 39.2767 301.863 36.2774 301.863 32.0213C301.863 27.1652 298.591 24.8801 294.039 24.8801C289.943 24.8801 286.244 26.2797 282.944 28.6221C280.298 31.0215 277.852 33.4781 275.462 36.0489L272.532 32.0784C276.059 28.9077 279.473 25.5942 282.944 22.3378C286.074 19.3956 289.231 16.482 292.332 13.5112L275.462 13.6826V9.25507H299.046L299.018 9.28363ZM291.337 39.7624C291.337 37.3629 289.943 35.2491 287.297 35.2491C285.732 35.2491 284.111 36.0489 284.111 37.8485C284.111 39.6481 286.017 40.5907 287.553 40.8478C288.691 41.0763 290.028 41.0763 291.166 41.0763C291.251 40.6479 291.337 40.2765 291.337 39.7909V39.7624Z" fill="#231815"/>
<path d="M262.546 185.472H286.216C287.325 185.472 287.894 184.672 288.122 183.615L291.906 160.763C292.048 159.735 291.365 158.935 290.313 158.849L265.932 157.507C264.936 157.45 263.741 158.135 263.599 159.363L260.839 183.586C260.754 184.643 261.494 185.5 262.546 185.5V185.472Z" fill="#005C3F"/>
<path d="M104.084 61.3002L81.6089 65.4421C80.7838 65.5849 80.1295 66.2991 80.1011 67.1274L73.956 132.341L66.986 70.2124C66.9006 69.2412 65.9902 68.3557 64.7954 68.5843L41.9222 72.7833C41.0972 72.9261 40.4997 73.6117 40.4144 74.4115L32.5339 135.712L27.157 77.6108C27.0717 76.6395 26.1613 75.6969 24.938 75.9254L2.0648 80.153C1.06907 80.353 0.414739 81.2956 0.556986 82.324L17.1429 183.872C17.2851 184.786 18.0817 185.443 18.9921 185.472H45.2223C46.1611 185.472 46.9861 184.729 47.0999 183.786L53.3303 123.515L58.7072 183.758C58.7926 184.7 59.5892 185.443 60.5564 185.443H87.2134C88.1522 185.443 88.9488 184.786 89.0626 183.844L106.303 63.414C106.474 62.2143 105.421 61.0431 104.112 61.3002H104.084Z" fill="#005C3F"/>
<path d="M222.205 61.643C200.356 57.5011 181.523 64.3853 181.523 93.0644V143.024C181.523 173.56 192.191 187.357 216.145 187.357C240.1 187.357 251.479 175.246 253.898 148.023L257.909 103.462C259.929 81.2671 247.269 66.4134 222.148 61.6716L222.205 61.643ZM224.794 148.423C224.083 162.534 219.673 162.506 217.34 162.506C215.548 162.506 210.114 162.191 210.655 147.223L212.39 98.8345C212.76 87.8941 215.889 85.6661 220.242 86.3802C226.757 87.4371 227.781 92.9216 227.326 101.405L224.794 148.423Z" fill="#005C3F"/>
<path d="M272.958 76.6967C272.958 76.6967 269.687 103.376 269.687 103.462C269.687 103.519 269.687 103.691 269.687 103.748C269.687 103.805 270.54 149.88 270.54 149.88C270.54 150.794 271.28 151.48 272.247 151.565L285.362 152.508C286.415 152.565 287.496 151.879 287.78 150.908C287.78 150.908 301.721 107.832 301.749 107.747C301.749 107.69 301.806 107.575 301.806 107.518C301.806 107.461 306.5 81.8955 306.5 81.8955C306.671 80.9814 306.016 80.1816 304.907 79.9817L275.974 74.9257C274.751 74.6972 273.158 75.3827 272.987 76.6967H272.958Z" fill="#005C3F"/>
<path d="M178.621 183.187L152.334 61.0432L165.079 71.3265C166.473 72.4691 168.493 71.098 168.066 69.3841L151.139 1.42827C150.598 -0.742661 147.327 -0.342753 147.44 1.99957L149.631 42.5331L139.503 32.2783C138.507 31.3071 136.744 31.6499 136.345 33.1924L102.604 183.215C102.32 184.529 103.287 185.472 104.397 185.472H128.152C129.062 185.472 129.859 184.786 130.03 183.872L132.732 165.819H148.066L151.025 183.929C151.167 184.815 151.935 185.472 152.846 185.472H176.743C177.625 185.472 178.877 184.758 178.592 183.187H178.621ZM135.919 144.224L141.039 112.66L145.392 144.224H135.919Z" fill="#EF7A00"/>
</g>
<defs>
<clipPath id="clip0_5_2970">
<rect width="306" height="249" fill="white" transform="translate(0.5)"/>
</clipPath>
</defs>
</svg>
