<svg width="480" height="294" viewBox="0 0 480 294" fill="none" xmlns="http://www.w3.org/2000/svg">
<path fill-rule="evenodd" clip-rule="evenodd" d="M240 46.0537C311.258 -4.75514 429.691 24.8833 480 46.0537V294C386.177 240.412 280.907 271.672 240 294C199.093 271.672 93.8227 240.412 0 294V46.0537C50.3093 24.8833 168.742 -4.7551 240 46.0537Z" fill="#05845A"/>
<path d="M240 28.0543C311.258 -22.7547 429.691 6.88388 480 28.0543V276C386.177 222.412 280.907 253.671 240 276C199.093 253.671 93.8226 222.412 0 276V28.0543C50.3093 6.88388 168.742 -22.7547 240 28.0543Z" fill="white"/>
<path d="M439.888 97.3631H409.431L414.552 84.2626L423.263 86.1911C422.931 86.9226 422.399 87.9866 421.8 89.3831H439.888V97.3631ZM438.226 109.533H413.953V101.553H438.226V109.533ZM409.963 91.6441H401.651V93.3731H407.902V102.816H401.651V104.745H409.631V110.198H379.373V86.2576H409.963V91.6441ZM440.088 146.706H411.426V135.534H399.855L401.717 141.918L382.765 147.571L380.504 139.923L395.134 135.534H384.959V111.993H433.305V135.534H421.069V138.726H440.088V146.706ZM393.671 93.3731V91.6441H387.353V93.3731H393.671ZM400.121 99.2251V96.9641H387.353V99.2251H400.121ZM393.671 104.745V102.816H387.353V104.745H393.671ZM423.529 129.749V118.244H394.668V119.574H421.468V122.966H394.668V124.961H421.468V128.419H394.668V129.749H423.529Z" fill="#07B279"/>
<path d="M369.398 120.638H311.543V110.198H369.398V120.638Z" fill="#07B279"/>
<path d="M276.83 104.346L279.158 100.356H262.865L265.193 104.346H276.83ZM265.991 111.661H243.048V104.346H255.151L252.824 100.356H240.721V92.3756H248.102L246.24 89.1836L253.688 84.7946L258.144 92.3756H260.671V85.7256H269.316V92.3756H272.641V85.7256H281.286V92.3756H283.946L288.601 84.5951L296.049 88.9841L293.987 92.3756H301.236V100.356H289.266L286.872 104.346H299.573V111.661H275.301V113.656H295.916V120.572H275.301V123.298H300.903V130.613H275.301V147.571H265.991V130.613H240.721V123.298H265.991V120.572H246.041V113.656H265.991V111.661ZM240.056 138.926L258.011 131.611L261.336 139.591L243.381 146.906L240.056 138.926ZM280.621 139.591L283.946 131.611L301.901 138.926L298.576 146.906L280.621 139.591Z" fill="#07B279"/>
<path d="M231.81 141.187L227.354 148.635L210.862 138.793C206.274 142.384 200.954 145.31 194.902 147.637L191.843 139.524C195.966 137.995 199.624 136.133 202.749 133.938L197.629 130.879L202.018 123.498L209.532 127.887C211.062 126.158 212.458 124.229 213.722 122.168H199.823V113.523H223.032V109.666H198.759V116.515H190.114V105.21H185.792V116.116L189.516 115.318L191.511 124.429L185.792 125.626V148.036H176.482V127.621L171.893 128.618L169.898 119.508L176.482 118.111V105.21H170.896V95.9H176.482V85.0605H185.792V95.9H190.646V101.021H195.7V95.0355L192.907 95.1685L192.242 86.5235L228.019 85.1935L228.684 93.8385L223.165 94.038L229.349 96.964L227.354 101.021H231.677V116.515H226.689C224.694 122.5 221.569 127.887 217.379 132.608L231.81 141.187ZM221.968 94.038L215.384 94.3705V101.021H218.51L221.968 94.038ZM206.939 101.021V94.6365L203.414 94.7695V101.021H206.939Z" fill="#07B279"/>
<path d="M164.179 96.4985L159.391 103.681L156.931 102.018V106.673H150.746C150.746 107.671 150.746 108.668 150.68 109.666H162.583V129.416H146.69C144.096 135.8 140.04 141.652 134.52 147.039L128.535 140.788C132.193 137.263 135.119 133.473 137.18 129.416H130.663V109.666H142.035C142.101 108.668 142.101 107.671 142.101 106.673H135.983V101.486L132.725 103.681L127.937 96.4985L146.091 84.3955L164.179 96.4985ZM164.512 141.253L158.261 147.238L148.951 137.596L155.202 131.611L164.512 141.253ZM129.134 93.905H122.151V97.1635H127.139V104.013H122.151V107.471H127.139V114.254H122.151V117.978H128.203V147.903H121.22V125.958H102.933V86.2575H129.134V93.905ZM119.957 141.386H116.698V128.286H119.957V141.386ZM115.169 141.386H111.91V128.286H115.169V141.386ZM110.447 141.386H107.189V128.286H110.447V141.386ZM106.058 128.352L105.327 145.243L101.337 145.044L102.068 128.219L106.058 128.352ZM150.946 98.028L146.091 94.7695L141.237 98.028H150.946ZM154.603 122.101V116.981H150.015C149.749 118.776 149.416 120.439 149.017 122.101H154.603ZM141.237 116.981H137.978V122.101H140.439C140.505 121.968 140.771 120.239 141.237 116.981ZM114.836 97.1635V93.905H110.913V97.1635H114.836ZM114.836 107.471V104.013H110.913V107.471H114.836ZM114.836 117.978V114.254H110.913V117.978H114.836Z" fill="#07B279"/>
<path d="M97.2805 129.882L89.101 134.271L77.131 112.06L85.377 107.671L97.2805 129.882ZM91.894 103.481H76.6655V127.82H83.9805V137.13H76.6655V147.571H67.3555V137.13H59.575V127.82H67.3555V103.481H50.8635V94.1711H67.3555V85.0606H76.6655V94.1711H91.894V103.481ZM66.89 112.06L54.92 134.271L48.669 130.879V147.571H39.359V119.441L31.3125 116.05L44.6125 84.5951L53.1245 88.1861L44.3465 109.001H48.669V126.291L58.644 107.671L66.89 112.06Z" fill="#07B279"/>
<path d="M353.938 179.32C353.925 179.396 353.906 179.529 353.881 179.719C353.868 179.909 353.856 180.099 353.843 180.289C353.83 180.479 353.824 180.619 353.824 180.707C353.811 180.948 353.799 181.284 353.786 181.714C353.786 182.132 353.786 182.595 353.786 183.101C353.786 183.608 353.786 184.121 353.786 184.64C353.799 185.147 353.805 185.628 353.805 186.084C353.818 186.528 353.824 186.901 353.824 187.205L351.981 186.445C351.981 186.243 351.981 185.958 351.981 185.59C351.981 185.21 351.975 184.786 351.962 184.317C351.962 183.836 351.956 183.361 351.943 182.892C351.943 182.424 351.937 181.993 351.924 181.6C351.924 181.208 351.918 180.91 351.905 180.707C351.88 180.403 351.848 180.118 351.81 179.852C351.785 179.586 351.766 179.409 351.753 179.32H353.938ZM343.545 181.847C344.09 181.835 344.698 181.822 345.369 181.809C346.053 181.797 346.775 181.784 347.535 181.771C348.295 181.746 349.049 181.727 349.796 181.714C350.556 181.689 351.278 181.676 351.962 181.676C352.646 181.664 353.254 181.657 353.786 181.657C354.331 181.657 354.888 181.657 355.458 181.657C356.028 181.657 356.573 181.657 357.092 181.657C357.611 181.657 358.08 181.657 358.498 181.657C358.929 181.657 359.264 181.657 359.505 181.657L359.467 183.443C358.922 183.418 358.181 183.399 357.244 183.386C356.319 183.361 355.154 183.348 353.748 183.348C352.912 183.348 352.051 183.355 351.164 183.367C350.277 183.38 349.384 183.405 348.485 183.443C347.598 183.469 346.737 183.5 345.901 183.538C345.078 183.576 344.311 183.621 343.602 183.671L343.545 181.847ZM353.653 187.395C353.653 188.333 353.526 189.112 353.273 189.732C353.032 190.34 352.684 190.803 352.228 191.119C351.772 191.423 351.221 191.575 350.575 191.575C350.182 191.575 349.796 191.506 349.416 191.366C349.049 191.227 348.707 191.018 348.39 190.739C348.086 190.448 347.839 190.1 347.649 189.694C347.472 189.276 347.383 188.801 347.383 188.269C347.383 187.598 347.541 187.009 347.858 186.502C348.187 185.983 348.618 185.578 349.15 185.286C349.695 184.995 350.284 184.849 350.917 184.849C351.702 184.849 352.355 185.027 352.874 185.381C353.406 185.736 353.805 186.217 354.071 186.825C354.337 187.421 354.47 188.098 354.47 188.858C354.47 189.479 354.375 190.125 354.185 190.796C353.995 191.455 353.678 192.095 353.235 192.715C352.792 193.336 352.19 193.906 351.43 194.425C350.683 194.932 349.745 195.35 348.618 195.679L347.003 194.083C347.852 193.906 348.618 193.672 349.302 193.38C349.986 193.076 350.575 192.709 351.069 192.278C351.563 191.835 351.943 191.316 352.209 190.72C352.488 190.112 352.627 189.409 352.627 188.611C352.627 187.851 352.456 187.3 352.114 186.958C351.785 186.616 351.379 186.445 350.898 186.445C350.607 186.445 350.328 186.515 350.062 186.654C349.796 186.794 349.581 186.996 349.416 187.262C349.251 187.528 349.169 187.851 349.169 188.231C349.169 188.763 349.34 189.181 349.682 189.485C350.037 189.777 350.442 189.922 350.898 189.922C351.265 189.922 351.576 189.821 351.829 189.618C352.095 189.403 352.279 189.074 352.38 188.63C352.481 188.174 352.456 187.598 352.304 186.901L353.653 187.395Z" fill="#07B279"/>
<path d="M324.222 181.752C324.589 181.74 324.925 181.727 325.229 181.714C325.545 181.689 325.799 181.67 325.989 181.657C326.331 181.619 326.787 181.575 327.357 181.524C327.939 181.461 328.598 181.398 329.333 181.334C330.067 181.271 330.853 181.201 331.689 181.125C332.525 181.049 333.38 180.973 334.254 180.897C334.925 180.847 335.577 180.802 336.211 180.764C336.857 180.714 337.458 180.676 338.016 180.65C338.573 180.612 339.067 180.587 339.498 180.574V182.493C339.143 182.481 338.738 182.481 338.282 182.493C337.838 182.506 337.395 182.531 336.952 182.569C336.521 182.607 336.135 182.671 335.793 182.759C335.172 182.949 334.602 183.247 334.083 183.652C333.563 184.058 333.114 184.526 332.734 185.058C332.366 185.59 332.081 186.154 331.879 186.749C331.689 187.345 331.594 187.921 331.594 188.478C331.594 189.175 331.708 189.783 331.936 190.302C332.176 190.809 332.506 191.246 332.924 191.613C333.342 191.968 333.823 192.266 334.368 192.506C334.912 192.734 335.489 192.905 336.097 193.019C336.717 193.133 337.338 193.203 337.959 193.228L337.275 195.261C336.527 195.223 335.786 195.109 335.052 194.919C334.317 194.742 333.627 194.489 332.981 194.159C332.335 193.817 331.758 193.393 331.252 192.886C330.758 192.38 330.365 191.797 330.074 191.138C329.795 190.48 329.656 189.732 329.656 188.896C329.656 187.934 329.814 187.047 330.131 186.236C330.46 185.426 330.872 184.723 331.366 184.127C331.86 183.519 332.366 183.051 332.886 182.721C332.506 182.759 332.037 182.81 331.48 182.873C330.922 182.924 330.321 182.987 329.675 183.063C329.041 183.139 328.402 183.222 327.756 183.31C327.11 183.386 326.495 183.469 325.913 183.557C325.343 183.646 324.842 183.735 324.412 183.823L324.222 181.752ZM336.762 184.602C336.914 184.818 337.085 185.084 337.275 185.4C337.465 185.704 337.655 186.021 337.845 186.35C338.035 186.667 338.193 186.958 338.32 187.224L337.142 187.756C336.914 187.275 336.673 186.813 336.42 186.369C336.179 185.926 335.913 185.502 335.622 185.096L336.762 184.602ZM338.871 183.785C339.023 184.001 339.2 184.26 339.403 184.564C339.605 184.856 339.802 185.16 339.992 185.476C340.182 185.793 340.346 186.091 340.486 186.369L339.327 186.92C339.073 186.439 338.82 185.989 338.567 185.571C338.313 185.141 338.035 184.716 337.731 184.298L338.871 183.785Z" fill="#07B279"/>
<path d="M307.52 178.389L309.401 178.807C309.173 179.352 308.926 179.916 308.66 180.498C308.394 181.068 308.128 181.613 307.862 182.132C307.596 182.652 307.343 183.114 307.102 183.519L305.544 183.101C305.785 182.671 306.026 182.183 306.266 181.638C306.52 181.094 306.754 180.536 306.969 179.966C307.197 179.396 307.381 178.871 307.52 178.389ZM304.48 182.379C305.152 182.354 305.918 182.329 306.779 182.303C307.653 182.265 308.578 182.221 309.553 182.17C310.529 182.12 311.51 182.075 312.498 182.037L312.479 183.633C311.542 183.684 310.605 183.741 309.667 183.804C308.73 183.855 307.831 183.906 306.969 183.956C306.108 184.007 305.323 184.058 304.613 184.108L304.48 182.379ZM305.62 185.248H311.643V186.749H307.292V196.059H305.62V185.248ZM310.807 185.248H312.574V194.14C312.574 194.558 312.524 194.894 312.422 195.147C312.321 195.401 312.125 195.597 311.833 195.736C311.555 195.876 311.2 195.958 310.769 195.983C310.339 196.021 309.832 196.04 309.249 196.04C309.199 195.8 309.116 195.521 309.002 195.204C308.888 194.888 308.768 194.622 308.641 194.406C309.047 194.419 309.42 194.432 309.762 194.444C310.117 194.444 310.364 194.438 310.503 194.425C310.617 194.425 310.693 194.406 310.731 194.368C310.782 194.318 310.807 194.235 310.807 194.121V185.248ZM306.399 188.117H311.776V189.485H306.399V188.117ZM306.399 190.929H311.776V192.316H306.399V190.929ZM314.246 178.484H316.032V184.526C316.032 184.843 316.089 185.046 316.203 185.134C316.317 185.223 316.571 185.267 316.963 185.267C317.052 185.267 317.21 185.267 317.438 185.267C317.679 185.267 317.939 185.267 318.217 185.267C318.509 185.267 318.781 185.267 319.034 185.267C319.288 185.267 319.471 185.267 319.585 185.267C319.813 185.267 319.984 185.217 320.098 185.115C320.225 185.014 320.314 184.818 320.364 184.526C320.415 184.222 320.453 183.773 320.478 183.177C320.605 183.266 320.757 183.361 320.934 183.462C321.124 183.551 321.321 183.633 321.523 183.709C321.726 183.773 321.91 183.823 322.074 183.861C322.011 184.647 321.897 185.261 321.732 185.704C321.58 186.148 321.346 186.458 321.029 186.635C320.713 186.8 320.282 186.882 319.737 186.882C319.649 186.882 319.503 186.882 319.3 186.882C319.098 186.882 318.87 186.882 318.616 186.882C318.363 186.882 318.11 186.882 317.856 186.882C317.603 186.882 317.375 186.882 317.172 186.882C316.982 186.882 316.843 186.882 316.754 186.882C316.096 186.882 315.583 186.819 315.215 186.692C314.848 186.553 314.595 186.312 314.455 185.97C314.316 185.628 314.246 185.153 314.246 184.545V178.484ZM320.003 179.776L321.181 181.087C320.624 181.341 320.016 181.594 319.357 181.847C318.699 182.088 318.027 182.316 317.343 182.531C316.659 182.747 315.994 182.949 315.348 183.139C315.31 182.962 315.241 182.753 315.139 182.512C315.038 182.259 314.937 182.05 314.835 181.885C315.443 181.695 316.064 181.48 316.697 181.239C317.331 180.999 317.932 180.752 318.502 180.498C319.085 180.245 319.585 180.004 320.003 179.776ZM314.246 187.357H316.013V193.589C316.013 193.906 316.077 194.115 316.203 194.216C316.33 194.305 316.602 194.349 317.02 194.349C317.109 194.349 317.274 194.349 317.514 194.349C317.755 194.349 318.021 194.349 318.312 194.349C318.616 194.349 318.895 194.349 319.148 194.349C319.402 194.349 319.592 194.349 319.718 194.349C319.972 194.349 320.162 194.292 320.288 194.178C320.415 194.064 320.504 193.836 320.554 193.494C320.605 193.14 320.643 192.62 320.668 191.936C320.871 192.063 321.124 192.19 321.428 192.316C321.745 192.443 322.03 192.538 322.283 192.601C322.207 193.475 322.087 194.153 321.922 194.634C321.77 195.116 321.53 195.451 321.2 195.641C320.884 195.831 320.44 195.926 319.87 195.926C319.782 195.926 319.63 195.926 319.414 195.926C319.212 195.926 318.977 195.926 318.711 195.926C318.458 195.926 318.198 195.926 317.932 195.926C317.666 195.926 317.426 195.926 317.21 195.926C317.008 195.926 316.868 195.926 316.792 195.926C316.121 195.926 315.602 195.857 315.234 195.717C314.867 195.578 314.607 195.337 314.455 194.995C314.316 194.666 314.246 194.197 314.246 193.589V187.357ZM320.193 188.269L321.39 189.599C320.846 189.916 320.231 190.214 319.547 190.492C318.863 190.758 318.16 191.012 317.438 191.252C316.716 191.48 316.02 191.689 315.348 191.879C315.31 191.702 315.234 191.487 315.12 191.233C315.006 190.98 314.905 190.771 314.816 190.606C315.45 190.404 316.096 190.176 316.754 189.922C317.426 189.656 318.059 189.384 318.654 189.105C319.262 188.827 319.775 188.548 320.193 188.269ZM309.99 180.327L311.491 179.738C311.821 180.182 312.144 180.663 312.46 181.182C312.777 181.702 313.062 182.215 313.315 182.721C313.581 183.228 313.778 183.684 313.904 184.089L312.289 184.754C312.175 184.349 311.998 183.893 311.757 183.386C311.517 182.88 311.244 182.36 310.94 181.828C310.636 181.284 310.32 180.783 309.99 180.327Z" fill="#07B279"/>
<path d="M298.705 180.27H300.586V193.665C300.586 194.248 300.504 194.698 300.339 195.014C300.174 195.331 299.889 195.565 299.484 195.717C299.066 195.882 298.515 195.977 297.831 196.002C297.147 196.04 296.33 196.059 295.38 196.059C295.342 195.869 295.279 195.654 295.19 195.413C295.114 195.185 295.025 194.951 294.924 194.71C294.823 194.482 294.721 194.286 294.62 194.121C295.114 194.147 295.595 194.166 296.064 194.178C296.545 194.178 296.97 194.178 297.337 194.178C297.717 194.178 297.983 194.178 298.135 194.178C298.338 194.166 298.483 194.128 298.572 194.064C298.661 193.988 298.705 193.849 298.705 193.646V180.27ZM287.666 184.07H289.414V192.791H287.666V184.07ZM288.407 184.07H295.589V191.29H288.407V189.58H293.803V185.78H288.407V184.07ZM285.785 179.757H302.866V181.562H285.785V179.757Z" fill="#07B279"/>
<path d="M273.53 179.947H283.847V181.258H273.53V179.947ZM273.017 184.621H284.151V186.008H273.017V184.621ZM272.998 191.727H284.189V193.171H272.998V191.727ZM274.86 189.409H282.517V190.568H274.86V189.409ZM273.891 182.246H283.467V183.557H273.891V182.246ZM275.677 178.446H277.292V185.248H275.677V178.446ZM279.952 178.446H281.586V185.248H279.952V178.446ZM277.786 185.305H279.287V192.563H277.786V185.305ZM281.529 186.939H283.182V194.387C283.182 194.793 283.131 195.103 283.03 195.318C282.929 195.546 282.732 195.724 282.441 195.85C282.162 195.964 281.795 196.028 281.339 196.04C280.896 196.066 280.357 196.078 279.724 196.078C279.686 195.863 279.623 195.622 279.534 195.356C279.458 195.09 279.369 194.856 279.268 194.653C279.699 194.666 280.098 194.672 280.465 194.672C280.845 194.685 281.092 194.691 281.206 194.691C281.345 194.679 281.434 194.647 281.472 194.596C281.51 194.558 281.529 194.482 281.529 194.368V186.939ZM274.062 186.939H282.137V188.212H275.582V196.097H274.062V186.939ZM267.279 184.336H272.409V185.742H267.279V184.336ZM267.393 179.073H272.352V180.479H267.393V179.073ZM267.279 186.958H272.409V188.364H267.279V186.958ZM266.462 181.657H272.941V183.12H266.462V181.657ZM268.134 189.618H272.485V195.261H268.134V193.798H270.965V191.062H268.134V189.618ZM267.241 189.618H268.742V196.078H267.241V189.618Z" fill="#07B279"/>
<path d="M248.089 183.918H264.524V187.908H262.776V185.495H249.78V187.908H248.089V183.918ZM250.597 187.338H260.952V189.01H250.597V187.338ZM262.396 178.351L263.631 179.814C262.618 180.004 261.503 180.182 260.287 180.346C259.084 180.511 257.823 180.657 256.506 180.783C255.201 180.897 253.884 180.992 252.554 181.068C251.224 181.144 249.932 181.208 248.678 181.258C248.665 181.03 248.615 180.764 248.526 180.46C248.437 180.156 248.349 179.909 248.26 179.719C249.514 179.669 250.787 179.605 252.079 179.529C253.384 179.441 254.663 179.339 255.917 179.225C257.184 179.111 258.368 178.985 259.47 178.845C260.572 178.693 261.547 178.529 262.396 178.351ZM249.894 181.638L251.452 181.182C251.718 181.55 251.965 181.961 252.193 182.417C252.421 182.873 252.586 183.26 252.687 183.576L251.053 184.089C250.964 183.76 250.806 183.367 250.578 182.911C250.363 182.443 250.135 182.018 249.894 181.638ZM254.929 181.22L256.544 180.878C256.747 181.284 256.937 181.733 257.114 182.227C257.304 182.721 257.431 183.152 257.494 183.519L255.803 183.937C255.752 183.583 255.645 183.152 255.48 182.645C255.315 182.126 255.132 181.651 254.929 181.22ZM261.218 180.84L263.099 181.315C262.871 181.721 262.63 182.132 262.377 182.55C262.136 182.956 261.889 183.348 261.636 183.728C261.395 184.096 261.167 184.425 260.952 184.716L259.489 184.26C259.692 183.944 259.901 183.589 260.116 183.196C260.331 182.791 260.534 182.386 260.724 181.98C260.927 181.562 261.091 181.182 261.218 180.84ZM260.287 187.338H260.667L260.99 187.262L262.206 188.003C261.623 189.232 260.87 190.296 259.945 191.195C259.033 192.095 257.982 192.861 256.791 193.494C255.613 194.115 254.34 194.628 252.972 195.033C251.604 195.439 250.185 195.749 248.716 195.964C248.653 195.825 248.558 195.648 248.431 195.432C248.317 195.23 248.19 195.033 248.051 194.843C247.924 194.653 247.798 194.495 247.671 194.368C249.115 194.191 250.496 193.938 251.813 193.608C253.13 193.266 254.34 192.829 255.442 192.297C256.557 191.753 257.526 191.1 258.349 190.34C259.172 189.568 259.818 188.668 260.287 187.642V187.338ZM252.611 188.516C253.333 189.58 254.296 190.505 255.499 191.29C256.702 192.076 258.096 192.715 259.679 193.209C261.275 193.703 263.01 194.058 264.885 194.273C264.758 194.4 264.625 194.565 264.486 194.767C264.347 194.97 264.214 195.173 264.087 195.375C263.973 195.591 263.872 195.781 263.783 195.945C261.87 195.679 260.11 195.255 258.501 194.672C256.892 194.102 255.461 193.361 254.207 192.449C252.953 191.525 251.902 190.429 251.053 189.162L252.611 188.516Z" fill="#07B279"/>
<path d="M228.462 188.478H237.924V189.96H228.462V188.478ZM228.614 181.809H237.848V183.253H228.614V181.809ZM231.958 186.958L233.63 187.319C233.326 187.953 232.997 188.618 232.642 189.314C232.287 190.011 231.939 190.682 231.597 191.328C231.255 191.974 230.932 192.551 230.628 193.057L229.051 192.544C229.342 192.063 229.659 191.506 230.001 190.872C230.356 190.226 230.698 189.561 231.027 188.877C231.369 188.193 231.679 187.554 231.958 186.958ZM234.732 189.428L236.404 189.618C236.227 190.568 235.967 191.398 235.625 192.107C235.283 192.817 234.827 193.425 234.257 193.931C233.687 194.438 232.99 194.862 232.167 195.204C231.356 195.559 230.394 195.857 229.279 196.097C229.228 195.844 229.127 195.578 228.975 195.299C228.836 195.021 228.684 194.786 228.519 194.596C229.824 194.394 230.894 194.096 231.73 193.703C232.579 193.298 233.237 192.747 233.706 192.05C234.187 191.354 234.529 190.48 234.732 189.428ZM235.986 178.75L237.525 179.377C237.234 179.808 236.936 180.239 236.632 180.669C236.341 181.1 236.068 181.474 235.815 181.79L234.618 181.239C234.859 180.897 235.106 180.492 235.359 180.023C235.625 179.542 235.834 179.118 235.986 178.75ZM232.414 178.427H234.086V187.205H232.414V178.427ZM229.222 179.377L230.552 178.826C230.818 179.206 231.059 179.624 231.274 180.08C231.502 180.524 231.66 180.91 231.749 181.239L230.362 181.866C230.286 181.524 230.14 181.125 229.925 180.669C229.71 180.201 229.475 179.77 229.222 179.377ZM232.471 182.493L233.649 183.196C233.332 183.716 232.933 184.241 232.452 184.773C231.983 185.293 231.47 185.774 230.913 186.217C230.368 186.661 229.824 187.034 229.279 187.338C229.178 187.136 229.038 186.901 228.861 186.635C228.684 186.369 228.506 186.154 228.329 185.989C228.861 185.774 229.387 185.483 229.906 185.115C230.438 184.748 230.926 184.336 231.369 183.88C231.825 183.424 232.192 182.962 232.471 182.493ZM233.915 183.101C234.08 183.19 234.32 183.336 234.637 183.538C234.966 183.728 235.315 183.937 235.682 184.165C236.062 184.381 236.404 184.59 236.708 184.792C237.025 184.982 237.246 185.128 237.373 185.229L236.404 186.483C236.239 186.331 236.011 186.135 235.72 185.894C235.429 185.654 235.112 185.407 234.77 185.153C234.441 184.887 234.118 184.64 233.801 184.412C233.497 184.172 233.244 183.982 233.041 183.842L233.915 183.101ZM239.254 181.923H246.113V183.576H239.254V181.923ZM239.596 178.427L241.42 178.693C241.217 179.96 240.958 181.182 240.641 182.36C240.324 183.538 239.944 184.628 239.501 185.628C239.058 186.629 238.551 187.509 237.981 188.269C237.892 188.155 237.759 188.022 237.582 187.87C237.405 187.718 237.221 187.566 237.031 187.414C236.841 187.25 236.676 187.123 236.537 187.034C237.082 186.363 237.55 185.578 237.943 184.678C238.336 183.766 238.671 182.778 238.95 181.714C239.229 180.65 239.444 179.555 239.596 178.427ZM243.225 182.911L245.049 183.082C244.758 185.261 244.314 187.18 243.719 188.839C243.136 190.499 242.332 191.93 241.306 193.133C240.293 194.324 238.988 195.325 237.392 196.135C237.341 195.996 237.253 195.819 237.126 195.603C236.999 195.401 236.866 195.198 236.727 194.995C236.588 194.793 236.461 194.634 236.347 194.52C237.816 193.836 239.013 192.969 239.938 191.917C240.875 190.853 241.597 189.574 242.104 188.079C242.623 186.585 242.997 184.862 243.225 182.911ZM240.242 183.31C240.508 184.995 240.888 186.578 241.382 188.06C241.889 189.53 242.541 190.822 243.339 191.936C244.15 193.038 245.144 193.9 246.322 194.52C246.183 194.634 246.031 194.78 245.866 194.957C245.701 195.147 245.549 195.337 245.41 195.527C245.271 195.717 245.15 195.895 245.049 196.059C243.795 195.325 242.75 194.349 241.914 193.133C241.078 191.905 240.394 190.486 239.862 188.877C239.343 187.256 238.925 185.489 238.608 183.576L240.242 183.31ZM230.419 192.411L231.388 191.176C232.135 191.468 232.883 191.797 233.63 192.164C234.377 192.519 235.068 192.893 235.701 193.285C236.347 193.665 236.892 194.026 237.335 194.368L236.1 195.66C235.682 195.306 235.169 194.932 234.561 194.539C233.953 194.147 233.294 193.767 232.585 193.399C231.876 193.032 231.154 192.703 230.419 192.411Z" fill="#07B279"/>
<path d="M219.418 189.409H224.7V190.758H218.468L219.418 189.409ZM224.13 189.409H224.51L224.833 189.352L225.897 189.979C225.34 191.17 224.567 192.171 223.579 192.981C222.604 193.792 221.483 194.444 220.216 194.938C218.962 195.445 217.632 195.838 216.226 196.116C216.175 195.964 216.093 195.787 215.979 195.584C215.878 195.394 215.764 195.204 215.637 195.014C215.523 194.824 215.415 194.679 215.314 194.577C216.657 194.375 217.911 194.077 219.076 193.684C220.254 193.279 221.28 192.747 222.154 192.088C223.041 191.43 223.699 190.632 224.13 189.694V189.409ZM219.342 190.283C219.811 191.031 220.438 191.689 221.223 192.259C222.021 192.829 222.939 193.304 223.978 193.684C225.029 194.064 226.169 194.343 227.398 194.52C227.271 194.647 227.138 194.799 226.999 194.976C226.86 195.166 226.727 195.356 226.6 195.546C226.486 195.749 226.385 195.926 226.296 196.078C225.017 195.838 223.839 195.477 222.762 194.995C221.698 194.527 220.748 193.938 219.912 193.228C219.089 192.519 218.405 191.696 217.86 190.758L219.342 190.283ZM219.19 186.122V187.186H224.149V186.122H219.19ZM219.19 183.975V185.02H224.149V183.975H219.19ZM217.556 182.816H225.859V188.345H217.556V182.816ZM218.145 180.251H226.961V181.752H218.145V180.251ZM218.468 178.446L220.159 178.712C219.792 179.637 219.336 180.574 218.791 181.524C218.259 182.474 217.588 183.361 216.777 184.184C216.638 184.007 216.441 183.817 216.188 183.614C215.935 183.399 215.713 183.241 215.523 183.139C216.245 182.443 216.853 181.67 217.347 180.821C217.841 179.96 218.215 179.168 218.468 178.446ZM219.969 187.851L221.717 188.193C221.16 189.055 220.463 189.884 219.627 190.682C218.804 191.48 217.809 192.209 216.644 192.867C216.555 192.741 216.441 192.601 216.302 192.449C216.175 192.297 216.036 192.152 215.884 192.012C215.732 191.873 215.593 191.765 215.466 191.689C216.555 191.145 217.474 190.53 218.221 189.846C218.981 189.162 219.564 188.497 219.969 187.851ZM212.008 188.06L213.623 186.141V196.078H212.008V188.06ZM209.747 181.999H214.858V183.576H209.747V181.999ZM211.97 178.541H213.585V182.854H211.97V178.541ZM213.414 186.217C213.541 186.357 213.731 186.585 213.984 186.901C214.25 187.205 214.529 187.541 214.82 187.908C215.111 188.276 215.377 188.618 215.618 188.934C215.871 189.251 216.049 189.479 216.15 189.618L215.105 190.815C214.978 190.562 214.801 190.264 214.573 189.922C214.358 189.568 214.117 189.2 213.851 188.82C213.598 188.44 213.357 188.086 213.129 187.756C212.901 187.414 212.705 187.142 212.54 186.939L213.414 186.217ZM214.231 181.999H214.573L214.858 181.923L215.789 182.531C215.409 183.709 214.915 184.862 214.307 185.989C213.699 187.104 213.034 188.136 212.312 189.086C211.59 190.024 210.855 190.822 210.108 191.48C210.07 191.328 209.994 191.151 209.88 190.948C209.779 190.733 209.671 190.53 209.557 190.34C209.443 190.15 209.342 190.011 209.253 189.922C209.937 189.365 210.602 188.681 211.248 187.87C211.894 187.047 212.477 186.16 212.996 185.21C213.528 184.248 213.94 183.291 214.231 182.341V181.999ZM215.542 185.514L216.587 186.255C216.308 186.661 216.023 187.072 215.732 187.49C215.453 187.908 215.194 188.263 214.953 188.554L214.136 187.927C214.364 187.598 214.611 187.199 214.877 186.73C215.156 186.262 215.377 185.856 215.542 185.514Z" fill="#07B279"/>
<path d="M198.384 181.448C198.942 181.537 199.569 181.6 200.265 181.638C200.975 181.676 201.703 181.689 202.45 181.676C203.198 181.664 203.913 181.638 204.597 181.6C205.281 181.562 205.87 181.512 206.364 181.448V183.386C205.82 183.437 205.205 183.481 204.521 183.519C203.837 183.545 203.128 183.557 202.393 183.557C201.671 183.557 200.962 183.545 200.265 183.519C199.569 183.481 198.948 183.437 198.403 183.386L198.384 181.448ZM199.467 189.352C199.391 189.682 199.328 189.979 199.277 190.245C199.239 190.511 199.22 190.777 199.22 191.043C199.22 191.259 199.265 191.461 199.353 191.651C199.455 191.841 199.613 192.006 199.828 192.145C200.056 192.285 200.36 192.399 200.74 192.487C201.133 192.563 201.614 192.601 202.184 192.601C203.046 192.601 203.85 192.563 204.597 192.487C205.357 192.399 206.13 192.266 206.915 192.088L206.953 194.121C206.358 194.235 205.661 194.33 204.863 194.406C204.078 194.47 203.172 194.501 202.146 194.501C200.538 194.501 199.347 194.242 198.574 193.722C197.814 193.19 197.434 192.462 197.434 191.537C197.434 191.195 197.46 190.841 197.51 190.473C197.561 190.093 197.643 189.669 197.757 189.2L199.467 189.352ZM195.078 180.08C195.04 180.194 194.99 180.346 194.926 180.536C194.876 180.714 194.825 180.897 194.774 181.087C194.736 181.265 194.705 181.41 194.679 181.524C194.616 181.841 194.54 182.227 194.451 182.683C194.375 183.127 194.293 183.614 194.204 184.146C194.128 184.666 194.052 185.198 193.976 185.742C193.913 186.274 193.856 186.794 193.805 187.3C193.767 187.807 193.748 188.269 193.748 188.687C193.748 189.017 193.755 189.352 193.767 189.694C193.793 190.024 193.824 190.366 193.862 190.72C193.976 190.467 194.09 190.201 194.204 189.922C194.318 189.631 194.432 189.346 194.546 189.067C194.66 188.789 194.768 188.535 194.869 188.307L195.819 189.067C195.655 189.536 195.477 190.055 195.287 190.625C195.097 191.195 194.926 191.74 194.774 192.259C194.635 192.766 194.534 193.178 194.47 193.494C194.445 193.621 194.42 193.773 194.394 193.95C194.369 194.115 194.363 194.254 194.375 194.368C194.375 194.457 194.375 194.565 194.375 194.691C194.388 194.831 194.401 194.957 194.413 195.071L192.684 195.185C192.494 194.527 192.33 193.659 192.19 192.582C192.051 191.506 191.981 190.328 191.981 189.048C191.981 188.339 192.013 187.623 192.076 186.901C192.14 186.167 192.216 185.457 192.304 184.773C192.393 184.089 192.482 183.462 192.57 182.892C192.672 182.322 192.748 181.847 192.798 181.467C192.836 181.227 192.868 180.967 192.893 180.688C192.931 180.41 192.957 180.144 192.969 179.89L195.078 180.08Z" fill="#07B279"/>
<path d="M175.281 183.785H188.657V185.229H175.281V183.785ZM175.49 189.314H186.187V190.758H175.49V189.314ZM178.131 182.303H179.841V186.92H183.964V182.303H185.731V188.307H178.131V182.303ZM185.712 189.314H186.073L186.396 189.238L187.517 189.827C186.997 190.841 186.326 191.708 185.503 192.43C184.679 193.14 183.736 193.741 182.672 194.235C181.62 194.729 180.487 195.122 179.271 195.413C178.055 195.705 176.788 195.933 175.471 196.097C175.42 195.882 175.319 195.622 175.167 195.318C175.015 195.027 174.869 194.786 174.73 194.596C175.933 194.482 177.098 194.305 178.226 194.064C179.366 193.824 180.423 193.507 181.399 193.114C182.387 192.709 183.248 192.215 183.983 191.632C184.73 191.05 185.306 190.359 185.712 189.561V189.314ZM179.119 190.492C179.701 191.278 180.493 191.949 181.494 192.506C182.494 193.064 183.641 193.513 184.933 193.855C186.237 194.197 187.637 194.438 189.132 194.577C189.018 194.704 188.891 194.862 188.752 195.052C188.612 195.242 188.486 195.426 188.372 195.603C188.258 195.793 188.163 195.971 188.087 196.135C186.529 195.933 185.085 195.616 183.755 195.185C182.425 194.767 181.234 194.216 180.183 193.532C179.131 192.848 178.257 192.025 177.561 191.062L179.119 190.492ZM179.936 178.446H181.798V181.163H179.936V178.446ZM173.894 180.251H188.79V181.866H173.894V180.251ZM173.001 180.251H174.73V185.685C174.73 186.433 174.704 187.256 174.654 188.155C174.616 189.055 174.527 189.973 174.388 190.91C174.261 191.848 174.065 192.76 173.799 193.646C173.545 194.533 173.21 195.344 172.792 196.078C172.69 195.977 172.545 195.857 172.355 195.717C172.177 195.591 171.994 195.464 171.804 195.337C171.614 195.223 171.449 195.141 171.31 195.09C171.702 194.406 172.013 193.665 172.241 192.867C172.469 192.069 172.633 191.252 172.735 190.416C172.849 189.568 172.918 188.738 172.944 187.927C172.982 187.117 173.001 186.369 173.001 185.685V180.251Z" fill="#07B279"/>
<path d="M152.595 186.084H170.075V188.06H152.595V186.084Z" fill="#07B279"/>
<path d="M142.297 183.272C141.904 183.272 141.569 183.133 141.29 182.854C141.011 182.576 140.872 182.24 140.872 181.847C140.872 181.455 141.011 181.119 141.29 180.84C141.569 180.562 141.904 180.422 142.297 180.422C142.69 180.422 143.025 180.562 143.304 180.84C143.583 181.119 143.722 181.455 143.722 181.847C143.722 182.24 143.583 182.576 143.304 182.854C143.025 183.133 142.69 183.272 142.297 183.272ZM142.297 186.711L148.567 180.441L149.118 180.992L142.848 187.262L149.118 193.532L148.567 194.083L142.297 187.813L136.008 194.102L135.457 193.551L141.746 187.262L135.476 180.992L136.027 180.441L142.297 186.711ZM138.307 187.262C138.307 187.655 138.168 187.991 137.889 188.269C137.61 188.548 137.275 188.687 136.882 188.687C136.489 188.687 136.154 188.548 135.875 188.269C135.596 187.991 135.457 187.655 135.457 187.262C135.457 186.87 135.596 186.534 135.875 186.255C136.154 185.977 136.489 185.837 136.882 185.837C137.275 185.837 137.61 185.977 137.889 186.255C138.168 186.534 138.307 186.87 138.307 187.262ZM146.287 187.262C146.287 186.87 146.426 186.534 146.705 186.255C146.984 185.977 147.319 185.837 147.712 185.837C148.105 185.837 148.44 185.977 148.719 186.255C148.998 186.534 149.137 186.87 149.137 187.262C149.137 187.655 148.998 187.991 148.719 188.269C148.44 188.548 148.105 188.687 147.712 188.687C147.319 188.687 146.984 188.548 146.705 188.269C146.426 187.991 146.287 187.655 146.287 187.262ZM142.297 191.252C142.69 191.252 143.025 191.392 143.304 191.67C143.583 191.949 143.722 192.285 143.722 192.677C143.722 193.07 143.583 193.406 143.304 193.684C143.025 193.963 142.69 194.102 142.297 194.102C141.904 194.102 141.569 193.963 141.29 193.684C141.011 193.406 140.872 193.07 140.872 192.677C140.872 192.285 141.011 191.949 141.29 191.67C141.569 191.392 141.904 191.252 142.297 191.252Z" fill="#07B279"/>
</svg>
