<svg xmlns="http://www.w3.org/2000/svg" width="86" height="86" fill="none"><circle cx="43" cy="43" r="41" fill="#F9F9F9" stroke="#005C3F" stroke-width="4"/><path fill="#096447" d="M37.763 63.561c-2.656 0-5.05-.58-7.183-1.74-2.095-1.16-3.76-2.675-4.995-4.545-1.197-1.87-1.796-3.873-1.796-6.005 0-1.87.319-3.573.954-5.107.674-1.571 1.665-2.956 2.975-4.153 1.347-1.197 3.05-2.207 5.107-3.03l4.377 4.545c-2.619.562-4.377 1.422-5.275 2.582-.86 1.122-1.29 2.507-1.29 4.153 0 1.122.28 2.226.84 3.31.562 1.048 1.479 1.928 2.75 2.639 1.273.673 2.975 1.01 5.108 1.01 1.758 0 3.33-.393 4.714-1.179a12.437 12.437 0 0 0 3.648-3.199 17.9 17.9 0 0 0 2.525-4.433 20.205 20.205 0 0 0 1.347-4.995c.075-.599.3-1.066.673-1.403.412-.337 1.085-.505 2.02-.505.973 0 1.74.393 2.302 1.179.56.785.767 1.702.617 2.75a25.318 25.318 0 0 1-1.964 6.622 21.236 21.236 0 0 1-3.816 5.836c-1.572 1.721-3.499 3.105-5.78 4.153-2.246 1.01-4.865 1.515-7.858 1.515Zm19.98-.449c-.45 0-.843-.056-1.18-.168a2.66 2.66 0 0 1-.729-.393 3100.16 3100.16 0 0 1-7.408-6.398 252.588 252.588 0 0 1-6.117-5.668 90.578 90.578 0 0 1-5.275-5.5 312.194 312.194 0 0 0-3.592-4.04c-1.085-1.197-1.964-2.357-2.637-3.48-.636-1.16-.954-2.432-.954-3.816 0-1.833.486-3.535 1.459-5.107 1.01-1.609 2.431-2.9 4.265-3.872 1.833-1.01 4.003-1.515 6.51-1.515 2.581 0 4.9.43 6.959 1.29 2.095.861 3.498 2.002 4.209 3.424.037.037.13.28.28.73.15.411.225.897.225 1.459 0 .71-.262 1.328-.786 1.852-.524.523-1.235.785-2.133.785-.598 0-1.066-.112-1.403-.337a3.657 3.657 0 0 1-.785-.673c-.823-1.085-1.778-1.833-2.863-2.245-1.047-.449-2.282-.673-3.703-.673-1.684 0-2.975.449-3.873 1.347-.86.898-1.29 1.964-1.29 3.198 0 1.16.411 2.32 1.234 3.48a24.904 24.904 0 0 0 2.806 3.199c1.085 1.01 1.983 1.908 2.694 2.694 1.16 1.234 2.45 2.562 3.872 3.984 1.46 1.384 2.919 2.75 4.378 4.097a241.87 241.87 0 0 1 4.04 3.704c1.272 1.122 2.301 2.058 3.087 2.806.486.449.842.898 1.066 1.347.262.449.393.991.393 1.627 0 .486-.224 1.085-.673 1.796-.412.71-1.104 1.066-2.077 1.066Z"/></svg>