<svg width="52" height="52" viewBox="0 0 52 52" fill="none" xmlns="http://www.w3.org/2000/svg">
<path d="M26 0L29.6889 3.89367L34.4422 1.40875L36.6669 6.28923L41.9695 5.48235L42.489 10.8208L47.7663 11.7793L46.5243 16.9972L51.2044 19.6174L48.3354 24.1492L51.9112 28.1471L47.7262 31.5018L49.8101 36.4441L44.7626 38.2582L45.1288 43.6093L39.7657 43.6862L38.3746 48.8663L33.2772 47.1977L30.2795 51.6454L26 48.412L21.7205 51.6454L18.7228 47.1977L13.6254 48.8663L12.2343 43.6862L6.87118 43.6093L7.23742 38.2582L2.18989 36.4441L4.2738 31.5018L0.0888023 28.1471L3.66455 24.1492L0.795593 19.6174L5.47569 16.9972L4.23367 11.7793L9.51096 10.8208L10.0305 5.48235L15.3331 6.28923L17.5578 1.40875L22.3111 3.89367L26 0Z" fill="#FFFB8C"/>
<path d="M29.0799 28.92H30.1359V39.984H29.0799V28.92ZM27.1959 32.892H32.0199V33.948H27.1959V32.892ZM28.8999 33.444L29.5479 33.756C29.4439 34.156 29.3199 34.58 29.1759 35.028C29.0319 35.476 28.8719 35.92 28.6959 36.36C28.5199 36.792 28.3319 37.2 28.1319 37.584C27.9399 37.96 27.7439 38.288 27.5439 38.568C27.5039 38.456 27.4519 38.332 27.3879 38.196C27.3319 38.052 27.2679 37.912 27.1959 37.776C27.1239 37.64 27.0559 37.524 26.9919 37.428C27.2399 37.124 27.4879 36.744 27.7359 36.288C27.9839 35.832 28.2079 35.356 28.4079 34.86C28.6159 34.356 28.7799 33.884 28.8999 33.444ZM30.1119 34.068C30.1839 34.132 30.2799 34.24 30.3999 34.392C30.5279 34.544 30.6679 34.712 30.8199 34.896C30.9719 35.08 31.1199 35.268 31.2639 35.46C31.4159 35.652 31.5479 35.824 31.6599 35.976C31.7799 36.128 31.8679 36.24 31.9239 36.312L31.1919 37.2C31.1199 37.04 31.0159 36.836 30.8799 36.588C30.7439 36.34 30.5919 36.084 30.4239 35.82C30.2639 35.556 30.1079 35.308 29.9559 35.076C29.8039 34.844 29.6799 34.66 29.5839 34.524L30.1119 34.068ZM27.2439 29.82L28.0479 29.616C28.1679 29.896 28.2719 30.2 28.3599 30.528C28.4479 30.856 28.5239 31.176 28.5879 31.488C28.6519 31.792 28.6959 32.072 28.7199 32.328L27.8439 32.556C27.8359 32.308 27.7999 32.028 27.7359 31.716C27.6799 31.396 27.6079 31.072 27.5199 30.744C27.4319 30.408 27.3399 30.1 27.2439 29.82ZM31.1439 29.556L32.1279 29.796C32.0239 30.1 31.9159 30.424 31.8039 30.768C31.6919 31.104 31.5799 31.428 31.4679 31.74C31.3559 32.052 31.2479 32.324 31.1439 32.556L30.4119 32.34C30.4999 32.092 30.5919 31.804 30.6879 31.476C30.7839 31.148 30.8719 30.816 30.9519 30.48C31.0399 30.144 31.1039 29.836 31.1439 29.556ZM35.7519 28.872H36.8319V39.996H35.7519V28.872ZM31.9959 36.456L38.1639 35.34L38.3319 36.396L32.1759 37.512L31.9959 36.456ZM32.7999 30.408L33.3639 29.64C33.5959 29.768 33.8319 29.92 34.0719 30.096C34.3199 30.264 34.5519 30.436 34.7679 30.612C34.9839 30.788 35.1559 30.952 35.2839 31.104L34.6959 31.956C34.5679 31.804 34.3999 31.636 34.1919 31.452C33.9839 31.268 33.7559 31.084 33.5079 30.9C33.2679 30.716 33.0319 30.552 32.7999 30.408ZM32.2119 33.432L32.7519 32.628C32.9839 32.748 33.2279 32.888 33.4839 33.048C33.7479 33.208 33.9919 33.372 34.2159 33.54C34.4479 33.7 34.6359 33.852 34.7799 33.996L34.2159 34.908C34.0799 34.756 33.8999 34.596 33.6759 34.428C33.4519 34.252 33.2119 34.076 32.9559 33.9C32.6999 33.724 32.4519 33.568 32.2119 33.432Z" fill="#EE7A00"/>
<path d="M15.9639 28.872L17.0679 29.196C16.8519 29.636 16.5959 30.072 16.2999 30.504C16.0119 30.928 15.6999 31.324 15.3639 31.692C15.0279 32.052 14.6919 32.372 14.3559 32.652C14.2919 32.58 14.1999 32.496 14.0799 32.4C13.9679 32.304 13.8519 32.212 13.7319 32.124C13.6199 32.028 13.5159 31.952 13.4199 31.896C13.9319 31.536 14.4159 31.088 14.8719 30.552C15.3279 30.016 15.6919 29.456 15.9639 28.872ZM15.6879 30.204H23.9559V31.212H15.3639L15.6879 30.204ZM13.6239 33.024H24.3999V34.044H13.6239V33.024ZM13.8039 35.856H24.2319V36.888H13.8039V35.856ZM17.4159 30.552H18.3759V36.372H17.4159V30.552ZM15.2799 30.552H16.2879V36.408H15.2799V30.552ZM19.5519 30.552H20.5119V36.408H19.5519V30.552ZM21.7119 30.552H22.7559V36.408H21.7119V30.552ZM17.0679 37.632L18.1239 37.524C18.2039 37.884 18.2719 38.272 18.3279 38.688C18.3839 39.104 18.4159 39.452 18.4239 39.732L17.3079 39.9C17.3079 39.708 17.2959 39.48 17.2719 39.216C17.2559 38.96 17.2319 38.696 17.1999 38.424C17.1679 38.144 17.1239 37.88 17.0679 37.632ZM19.4919 37.656L20.5599 37.464C20.6639 37.696 20.7639 37.948 20.8599 38.22C20.9639 38.492 21.0519 38.752 21.1239 39C21.2039 39.256 21.2639 39.484 21.3039 39.684L20.1759 39.912C20.1279 39.616 20.0399 39.256 19.9119 38.832C19.7839 38.408 19.6439 38.016 19.4919 37.656ZM21.9159 37.572L22.9959 37.236C23.1879 37.476 23.3839 37.74 23.5839 38.028C23.7919 38.316 23.9839 38.6 24.1599 38.88C24.3359 39.152 24.4759 39.4 24.5799 39.624L23.4279 40.02C23.3399 39.804 23.2119 39.556 23.0439 39.276C22.8759 38.996 22.6919 38.708 22.4919 38.412C22.2999 38.108 22.1079 37.828 21.9159 37.572ZM14.9439 37.284L16.0479 37.548C15.8959 38.004 15.6919 38.456 15.4359 38.904C15.1879 39.352 14.9079 39.724 14.5959 40.02L13.5159 39.576C13.8199 39.32 14.0999 38.984 14.3559 38.568C14.6119 38.152 14.8079 37.724 14.9439 37.284Z" fill="#EE7A00"/>
<path d="M29.8119 14.472H35.9559V15.576H29.8119V14.472ZM29.8119 17.352H36.0039V18.432H29.8119V17.352ZM29.7279 20.232H35.9319V21.324H29.7279V20.232ZM29.0559 14.472H30.2199V18.3C30.2199 18.82 30.1919 19.38 30.1359 19.98C30.0799 20.572 29.9719 21.172 29.8119 21.78C29.6519 22.388 29.4159 22.972 29.1039 23.532C28.7919 24.084 28.3759 24.58 27.8559 25.02C27.7999 24.94 27.7199 24.844 27.6159 24.732C27.5119 24.628 27.4039 24.524 27.2919 24.42C27.1799 24.324 27.0799 24.248 26.9919 24.192C27.4639 23.784 27.8359 23.336 28.1079 22.848C28.3879 22.36 28.5959 21.856 28.7319 21.336C28.8679 20.816 28.9559 20.296 28.9959 19.776C29.0359 19.256 29.0559 18.76 29.0559 18.288V14.472ZM35.4399 14.472H36.6399V23.46C36.6399 23.828 36.5839 24.108 36.4719 24.3C36.3679 24.5 36.1919 24.648 35.9439 24.744C35.6879 24.848 35.3479 24.912 34.9239 24.936C34.5079 24.96 33.9799 24.972 33.3399 24.972C33.3239 24.852 33.2879 24.72 33.2319 24.576C33.1759 24.432 33.1159 24.288 33.0519 24.144C32.9959 24 32.9359 23.876 32.8719 23.772C33.1839 23.788 33.4879 23.8 33.7839 23.808C34.0879 23.808 34.3519 23.808 34.5759 23.808C34.8079 23.8 34.9719 23.796 35.0679 23.796C35.2039 23.796 35.2999 23.772 35.3559 23.724C35.4119 23.668 35.4399 23.576 35.4399 23.448V14.472Z" fill="#EE7A00"/>
<path d="M17.9559 14.892H23.5959V15.972H17.9559V14.892ZM23.1759 14.892H24.3279C24.3279 14.892 24.3279 14.932 24.3279 15.012C24.3279 15.092 24.3279 15.18 24.3279 15.276C24.3279 15.372 24.3279 15.448 24.3279 15.504C24.2959 17.024 24.2599 18.308 24.2199 19.356C24.1879 20.404 24.1439 21.264 24.0879 21.936C24.0399 22.608 23.9759 23.128 23.8959 23.496C23.8239 23.856 23.7319 24.112 23.6199 24.264C23.4759 24.472 23.3279 24.62 23.1759 24.708C23.0239 24.796 22.8399 24.856 22.6239 24.888C22.4159 24.928 22.1559 24.944 21.8439 24.936C21.5399 24.936 21.2239 24.928 20.8959 24.912C20.8879 24.744 20.8519 24.548 20.7879 24.324C20.7239 24.1 20.6399 23.904 20.5359 23.736C20.8799 23.768 21.1879 23.788 21.4599 23.796C21.7399 23.796 21.9519 23.796 22.0959 23.796C22.2959 23.804 22.4479 23.732 22.5519 23.58C22.6479 23.476 22.7279 23.252 22.7919 22.908C22.8559 22.556 22.9119 22.052 22.9599 21.396C23.0079 20.74 23.0479 19.904 23.0799 18.888C23.1119 17.864 23.1439 16.624 23.1759 15.168V14.892ZM19.8879 15.384H21.0399C21.0239 16.104 20.9959 16.832 20.9559 17.568C20.9159 18.304 20.8399 19.028 20.7279 19.74C20.6239 20.444 20.4599 21.12 20.2359 21.768C20.0119 22.408 19.7079 23.008 19.3239 23.568C18.9479 24.12 18.4719 24.604 17.8959 25.02C17.7999 24.876 17.6679 24.72 17.4999 24.552C17.3399 24.384 17.1839 24.248 17.0319 24.144C17.5839 23.776 18.0319 23.34 18.3759 22.836C18.7279 22.332 19.0039 21.788 19.2039 21.204C19.4039 20.612 19.5479 19.992 19.6359 19.344C19.7319 18.696 19.7959 18.04 19.8279 17.376C19.8599 16.704 19.8799 16.04 19.8879 15.384ZM15.2679 19.836L16.3839 18.504V25.008H15.2679V19.836ZM13.5999 16.044H17.2719V17.076H13.5999V16.044ZM15.2679 13.872H16.3839V16.608H15.2679V13.872ZM16.3119 19.092C16.3999 19.164 16.5359 19.292 16.7199 19.476C16.9119 19.652 17.1119 19.844 17.3199 20.052C17.5279 20.26 17.7199 20.456 17.8959 20.64C18.0799 20.816 18.2079 20.944 18.2799 21.024L17.5959 21.876C17.4919 21.732 17.3599 21.556 17.1999 21.348C17.0399 21.14 16.8639 20.928 16.6719 20.712C16.4879 20.488 16.3079 20.28 16.1319 20.088C15.9639 19.888 15.8239 19.728 15.7119 19.608L16.3119 19.092ZM16.9599 16.044H17.1759L17.3679 15.996L18.0159 16.416C17.7279 17.168 17.3599 17.9 16.9119 18.612C16.4639 19.324 15.9759 19.98 15.4479 20.58C14.9199 21.172 14.3959 21.672 13.8759 22.08C13.8439 21.984 13.7879 21.872 13.7079 21.744C13.6359 21.608 13.5599 21.476 13.4799 21.348C13.3999 21.22 13.3279 21.124 13.2639 21.06C13.7599 20.716 14.2479 20.288 14.7279 19.776C15.2079 19.256 15.6439 18.692 16.0359 18.084C16.4279 17.476 16.7359 16.872 16.9599 16.272V16.044ZM17.7759 18.312L18.5079 18.912C18.2839 19.16 18.0639 19.408 17.8479 19.656C17.6319 19.904 17.4319 20.116 17.2479 20.292L16.7199 19.824C16.8799 19.624 17.0639 19.38 17.2719 19.092C17.4799 18.796 17.6479 18.536 17.7759 18.312Z" fill="#EE7A00"/>
</svg>
