<svg xmlns="http://www.w3.org/2000/svg" xmlns:xlink="http://www.w3.org/1999/xlink" width="51.197" height="48.782" viewBox="0 0 51.197 48.782">
  <defs>
    <clipPath id="clip-path">
      <rect id="長方形_186" data-name="長方形 186" width="51.197" height="48.782" fill="#fff"/>
    </clipPath>
  </defs>
  <g id="グループ_359" data-name="グループ 359" clip-path="url(#clip-path)">
    <path id="パス_595" data-name="パス 595" d="M51.2,20.773C51.2,9.32,39.713,0,25.6,0S0,9.32,0,20.773c0,10.27,9.106,18.87,21.407,20.5.834.18,1.969.549,2.255,1.262a5.242,5.242,0,0,1,.082,2.314s-.3,1.807-.366,2.192c-.111.647-.514,2.531,2.218,1.38s14.74-8.681,20.112-14.864h0c3.712-4.067,5.49-8.2,5.49-12.781M15.578,27.59H10.492a1.343,1.343,0,0,1-1.341-1.344V16.073a1.341,1.341,0,1,1,2.683,0V24.9h3.744a1.344,1.344,0,0,1,0,2.689m5.259-1.344a1.341,1.341,0,1,1-2.683,0V16.073a1.341,1.341,0,1,1,2.683,0Zm12.245,0a1.341,1.341,0,0,1-2.415.806l-5.212-7.1v6.292a1.344,1.344,0,0,1-2.689,0V16.073a1.342,1.342,0,0,1,.919-1.273,1.323,1.323,0,0,1,.426-.069,1.353,1.353,0,0,1,1.072.538l5.214,7.1V16.073a1.342,1.342,0,1,1,2.685,0Zm8.231-6.429a1.342,1.342,0,1,1,0,2.685H37.568v2.4h3.744a1.342,1.342,0,1,1,0,2.685H36.228a1.345,1.345,0,0,1-1.342-1.344V16.075a1.342,1.342,0,0,1,1.342-1.341h5.085a1.341,1.341,0,1,1,0,2.683H37.568v2.4h3.744Z" transform="translate(0 0)" fill="#fff"/>
  </g>
</svg>
