<svg xmlns="http://www.w3.org/2000/svg" width="494.708" height="61" viewBox="0 0 494.708 61">
  <g id="scrolldown-yugothic" transform="translate(-41.576 -274.32)">
    <path id="パス_596" data-name="パス 596" d="M11.2-21.472c-1.984,0-3.392,0-4.96-.128a12.393,12.393,0,0,0,.192,2.048c.064.256.1.352.384.352,1.44-.1,2.816-.192,4.608-.192h9.632a40.226,40.226,0,0,1-6.08,8.576A41.374,41.374,0,0,1,3.2-2.144,5.474,5.474,0,0,1,4.864-.992c.256.288.448.256.8.064A48.924,48.924,0,0,0,17.088-9.856,58.478,58.478,0,0,1,25.92-1.728c.224.256.352.256.576.064a13.045,13.045,0,0,0,1.152-1.152c.256-.32.256-.416-.032-.672a65.543,65.543,0,0,0-9.184-8.032,58.132,58.132,0,0,0,4.736-6.88,4.226,4.226,0,0,1,.928-1.184c.288-.256.352-.48.16-.736a8.475,8.475,0,0,0-1.312-1.312.548.548,0,0,0-.64-.1,3.347,3.347,0,0,1-1.824.256Zm39.584,1.44c.448-.64.8-1.248,1.28-2.016a3.558,3.558,0,0,1,.96-1.088.469.469,0,0,0,0-.832,8.018,8.018,0,0,0-2.4-1.12,9.532,9.532,0,0,1-1.6,4,34.2,34.2,0,0,1-8.352,9.312A4.321,4.321,0,0,1,42.3-11.1a.681.681,0,0,0,.992-.064,46.342,46.342,0,0,0,6.336-6.848l9.216-.256A35.965,35.965,0,0,1,52.832-8.48,35.548,35.548,0,0,1,42.24,0a4.521,4.521,0,0,1,1.792.928.543.543,0,0,0,.7.1A39.732,39.732,0,0,0,54.72-7.264,43.008,43.008,0,0,0,60.9-17.248a3.193,3.193,0,0,1,.832-1.12c.256-.256.32-.576-.064-.96a9.3,9.3,0,0,0-1.28-1.056c-.352-.224-.608-.288-.832-.128-.352.256-.64.32-1.6.352ZM94.656-4.416v1.888c0,.32.032.416.32.416H96.64c.32,0,.416-.1.416-.448-.064-1.632-.16-3.84-.16-6.3V-15.3c0-1.728.032-3.424.064-5.056,0-.352-.064-.448-.384-.448-1.664.064-3.744.064-5.664.064h-7.04c-1.792,0-3.52,0-5.152-.064-.256,0-.352.064-.352.352.064,1.728.064,3.424.064,5.12v6.3c0,2.72-.032,4.832-.128,6.848,0,.32.1.384.448.416.448.032,1.088,0,1.5,0,.384-.032.448-.1.448-.48V-4.416Zm0-2.048H80.672V-18.688H94.656Zm33.632-4.256c2.144,0,4.512,0,6.912.064.384.032.48-.032.48-.384a14.431,14.431,0,0,0,0-1.664c0-.352-.1-.416-.48-.384-2.432.064-4.8.1-7.008.1h-9.824a58.446,58.446,0,0,1-7.072-.288,18.915,18.915,0,0,0,.32,2.432c.1.32.256.448.544.448a26.178,26.178,0,0,1,4.32-.32ZM161.664-16.9a15.282,15.282,0,0,1,.288-4.224c.192-.448.288-.768-.192-.928a22.238,22.238,0,0,0-2.656-.416,28.6,28.6,0,0,1,.32,5.6v9.088a16.4,16.4,0,0,1-.128,3.168.889.889,0,0,0,.064.8,6.584,6.584,0,0,0,1.248,1.248.61.61,0,0,0,.864-.032,4.482,4.482,0,0,1,1.056-.7,61.159,61.159,0,0,0,5.536-3.584,43.722,43.722,0,0,0,5.056-4.48c.352-.352.32-.544.192-.832a5.391,5.391,0,0,1-.544-2.016A29.887,29.887,0,0,1,167.1-8.864a41.691,41.691,0,0,1-5.44,3.392Zm-9.312-3.584a13.155,13.155,0,0,1,.288,3.328,18.742,18.742,0,0,1-1.728,8.288,15.21,15.21,0,0,1-5.152,5.952,4.628,4.628,0,0,1,1.7.8c.256.224.544.192.9-.128a16.753,16.753,0,0,0,4.576-5.7,20.627,20.627,0,0,0,1.984-8.768,7.577,7.577,0,0,1,.32-2.5c.16-.384.128-.672-.224-.8A12.083,12.083,0,0,0,152.352-20.48Zm35.776-4.32a17.62,17.62,0,0,1,.256,4.832c-.16,4.512-.448,9.728-.448,14.272,0,4.7,1.952,6.432,5.568,6.432A17.809,17.809,0,0,0,205.7-4.64c.288-.256.384-.416.384-.608a1.628,1.628,0,0,0-.128-.448,7.574,7.574,0,0,1-.544-1.856c-3.3,3.648-7.456,6.112-11.52,6.112-2.784,0-3.776-1.088-3.776-4.672,0-4.416.192-8.8.48-13.632a18.236,18.236,0,0,1,.384-3.3,2.442,2.442,0,0,0,.256-.832c0-.224-.16-.384-.512-.48A12.713,12.713,0,0,0,188.128-24.8ZM231.3-19.936c-5.024,2.656-7.808,6.368-7.808,10.88,0,6.464,5.824,8.768,11.232,9.248.352.032.448-.1.512-.448a9.572,9.572,0,0,0,.192-1.536c0-.256-.1-.32-.512-.352C230.24-2.528,225.6-4.1,225.6-9.408c0-4.288,3.584-8.224,8.256-10.08a13.247,13.247,0,0,1,4.672-.96c.32-.032.416-.1.416-.384a9.1,9.1,0,0,0-.192-1.6c-.064-.192-.224-.288-.544-.256-8.576,1.056-15.072,2.016-19.84,2.784a25.027,25.027,0,0,1-3.968.384,17.72,17.72,0,0,0,.9,2.272.542.542,0,0,0,.448.288,1.776,1.776,0,0,0,.608-.224,6.886,6.886,0,0,1,1.92-.544c4.032-.832,8.192-1.5,12.992-2.272Zm25.568,4.544c-.384.192-.448.224-.32.448a22.358,22.358,0,0,1,.96,2.176c-1.632.192-3.2.288-4.768.384,1.824-2.4,3.648-5.056,5.44-7.9a5.094,5.094,0,0,1,1.056-1.408c.192-.128.288-.192.288-.384,0-.16-.064-.256-.288-.384a11.871,11.871,0,0,0-1.7-.8,9.964,9.964,0,0,1-.672,1.6c-.9,1.5-1.76,2.976-2.656,4.352l-2.048-2.272c1.088-1.536,1.888-2.848,2.912-4.576a3.183,3.183,0,0,1,.672-.864c.16-.128.256-.192.256-.352s-.1-.256-.32-.384a13.773,13.773,0,0,0-1.7-.8,5.893,5.893,0,0,1-.544,1.536,42.557,42.557,0,0,1-2.464,4.224l-1.248-1.216c-.192-.16-.256-.128-.512.16l-.512.64c-.256.32-.288.384-.1.576a41.615,41.615,0,0,1,4.576,4.9c-.8,1.184-1.632,2.3-2.5,3.424h-.256c-.608,0-1.152-.032-1.888-.1l.288,1.728c.064.256.16.384.32.384a.729.729,0,0,0,.352-.1,3.458,3.458,0,0,1,1.216-.256c1.024-.064,2.016-.128,3.04-.224V-2.5c0,3.488-.064,4.48-.064,4.672s.032.224.256.224h1.44c.224,0,.256-.032.256-.224,0-.16-.064-1.184-.064-4.672v-8.576q1.152-.1,2.4-.288l.48,1.792c.064.288.1.288.512.128l.768-.288c.352-.128.352-.192.288-.416a29.675,29.675,0,0,0-2.08-5.472c-.1-.192-.192-.192-.48-.064Zm20.064-7.04c0-.192-.032-.224-.256-.224-.16,0-1.184.064-4.224.064h-3.456v-.992a5.535,5.535,0,0,1,.16-2.048,1,1,0,0,0,.224-.576c0-.1-.16-.224-.416-.256-.64-.064-1.248-.128-2.016-.16a12.379,12.379,0,0,1,.224,3.168v.864h-2.4c-3.072,0-4.064-.064-4.224-.064-.224,0-.256.032-.256.224v1.248c0,.224.032.256.256.256.16,0,1.152-.064,4.224-.064h2.4v2.944H265.44c-2.912,0-3.84-.064-4-.064-.192,0-.224.032-.224.256v1.216c0,.224.032.256.224.256.16,0,1.088-.064,4-.064h6.112c2.88,0,3.808.064,3.968.064.224,0,.256-.032.256-.256v-1.216c0-.224-.032-.256-.256-.256-.16,0-1.088.064-3.968.064h-2.56v-2.944h3.456c3.04,0,4.064.064,4.224.064.224,0,.256-.032.256-.256Zm-.352,9.856c0-.64.064-.96.064-1.12,0-.224-.032-.256-.256-.256-.16,0-1.216.064-4.224.064h-7.2c-2.976,0-4-.064-4.192-.064-.224,0-.256.1-.256.32,0,.16.064.48.064,1.248v.672c0,2.208-.064,2.464-.064,2.624,0,.224.032.256.256.256h1.376c.192,0,.224-.032.224-.256v-3.2h12.384v3.2c0,.224,0,.256.256.256h1.376c.224,0,.256-.032.256-.256,0-.16-.064-.416-.064-2.624ZM271.1-6.688c0-2.016.032-2.272.16-2.592a1.635,1.635,0,0,0,.192-.64c0-.128-.16-.256-.416-.288a16.218,16.218,0,0,0-1.92-.192,24.521,24.521,0,0,1,.16,3.52V-.768c0,1.472.384,1.888.928,2.176a6.607,6.607,0,0,0,2.752.352c2.144,0,3.04-.416,3.552-.928.544-.544.864-1.344.96-3.36,0-.576,0-.576-.544-.8a4.32,4.32,0,0,1-1.056-.608c-.032,2.016-.192,2.912-.512,3.36-.256.384-.864.64-2.24.64a3.911,3.911,0,0,1-1.728-.256c-.256-.128-.288-.416-.288-1.056Zm-4.128-3.168c0-.192-.192-.256-.512-.32-.544-.1-1.12-.16-1.76-.224a15.388,15.388,0,0,1,.1,2.752c-.1,3.84-1.408,6.624-6.592,8.256a3.256,3.256,0,0,1,.992.992c.192.32.288.448.448.448a1.372,1.372,0,0,0,.48-.16c5.28-2.208,6.272-5.248,6.5-9.5a7.2,7.2,0,0,1,.192-1.632A2.139,2.139,0,0,0,266.976-9.856Zm-14.72,2.112c0-.128-.128-.224-.448-.32a15.459,15.459,0,0,0-1.6-.32,9.638,9.638,0,0,1-.032,1.664,20.834,20.834,0,0,1-1.6,6.112,4.355,4.355,0,0,1,1.088.448c.224.16.352.256.48.256s.192-.16.288-.448a30.256,30.256,0,0,0,1.44-6.016,2.811,2.811,0,0,1,.256-.96A.8.8,0,0,0,252.256-7.744Zm5.024-.672c-.416.128-.416.16-.352.384a29.663,29.663,0,0,1,1.248,5.472c.032.256.128.256.544.128l.7-.224c.384-.128.448-.16.384-.448A36.6,36.6,0,0,0,258.4-8.448c-.1-.256-.128-.256-.48-.16Zm40-12.224a64.624,64.624,0,0,1-8.576.768c.1.576.224,1.216.288,1.472.064.288.16.32.416.32a58.378,58.378,0,0,0,8.416-.928c.512,1.28,1.056,2.528,1.568,3.616a57.758,57.758,0,0,1-9.12.96,6.971,6.971,0,0,0,.288,1.5c.1.288.128.32.384.32a64.53,64.53,0,0,0,9.248-1.056,27.308,27.308,0,0,0,3.616,5.312,15.439,15.439,0,0,0-6.624-1.184c-4.672,0-7.392,1.92-7.392,5.056,0,3.68,3.68,5.408,10.08,5.408,1.216,0,1.984-.064,2.816-.128.288-.032.352-.128.416-.384a9.587,9.587,0,0,0,.352-1.536c.032-.224,0-.384-.256-.352-1.056.1-2.112.192-3.264.192-5.088,0-8.1-.9-8.1-3.36,0-2.208,2.144-3.168,5.472-3.168a16.775,16.775,0,0,1,6.112.96A11.625,11.625,0,0,1,305.7-5.7c.288.256.448.224.7-.064a5.442,5.442,0,0,0,.768-1.248c.128-.256.064-.352-.128-.544a22.859,22.859,0,0,1-4.992-6.528c2.016-.448,4.128-1.024,6.08-1.664a.341.341,0,0,0,.256-.448,8.37,8.37,0,0,0-.288-1.216c-.1-.224-.192-.256-.448-.16a37.391,37.391,0,0,1-6.368,1.824,30.08,30.08,0,0,1-1.5-3.616c2.272-.512,4.512-1.056,6.88-1.792a.356.356,0,0,0,.288-.448,9.064,9.064,0,0,0-.288-1.184c-.064-.224-.16-.192-.352-.128a59.7,59.7,0,0,1-7.072,1.856c-.192-.672-.384-1.248-.608-2.08a5.849,5.849,0,0,1-.256-1.344c0-.192.064-.384.064-.512,0-.224-.224-.384-.544-.384a15.876,15.876,0,0,0-2.5.224,5.644,5.644,0,0,1,1.056,2.048C296.8-22.08,297.024-21.376,297.28-20.64Zm40.256,10.624c2.336-.992,4.352-1.728,6.784-2.752a9.357,9.357,0,0,1,1.76-.512c.32-.064.576-.256.32-.736a7.686,7.686,0,0,0-1.568-1.856A8.757,8.757,0,0,1,342.4-14.24c-1.6.768-3.424,1.6-4.992,2.3-.256-2.5-1.664-3.744-4.032-3.744a6.936,6.936,0,0,0-4,1.376l-.032-.064a26.829,26.829,0,0,0,3.264-4.768c2.56-.256,5.28-.608,7.808-1.056.352-.064.416-.16.416-.384-.032-.512-.128-.96-.192-1.408-.064-.192-.128-.192-.384-.128a60.422,60.422,0,0,1-6.752,1.056c.416-.96.7-1.632,1.088-2.432a2.97,2.97,0,0,1,.576-.9.4.4,0,0,0-.064-.7,10.345,10.345,0,0,0-2.4-.7,4.793,4.793,0,0,1-.256,1.728,28.309,28.309,0,0,1-1.152,3.2,64.049,64.049,0,0,1-7.424.032c.032.512.128,1.216.192,1.6.032.224.1.32.352.32,2.016.064,3.968.064,5.952-.064a35.138,35.138,0,0,1-7.424,8.9c-.192.192-.16.256-.064.448A10.386,10.386,0,0,0,324-8.384c.16.16.288.16.48-.064,1.12-1.184,1.888-2.016,3.04-3.1,2.048-1.76,3.872-2.56,5.248-2.592,1.888-.032,2.624.832,2.688,3.008-5.312,2.592-7.072,4.768-7.072,7.456C328.384-.256,331.3.9,335.776.9a63.231,63.231,0,0,0,7.9-.448c.128-.032.256-.16.256-.448a9.114,9.114,0,0,0-.192-1.568.266.266,0,0,0-.352-.224,56.346,56.346,0,0,1-7.616.64c-3.712,0-5.472-.768-5.472-2.656,0-1.92,1.728-3.552,5.248-5.312-.032,1.632-.032,3.2-.032,4.608,0,.224.1.384.288.384a8.759,8.759,0,0,0,1.376-.128c.288-.032.352-.128.352-.384ZM384.608-.96c0-.224-.032-.256-.256-.256-.16,0-1.056.064-3.872.064h-2.944v-3.52h1.248c2.912,0,3.84.064,4.032.064.224,0,.256-.032.256-.256v-1.12c0-.224-.032-.256-.256-.256-.192,0-1.12.064-4.032.064h-1.248v-3.36h1.248c2.912,0,3.84.064,4,.064.224,0,.256-.032.256-.288v-1.088c0-.224-.032-.256-.256-.256-.16,0-1.088.064-4,.064h-1.248v-3.3h2.176c2.592,0,3.456.064,3.616.064.224,0,.256-.032.256-.256V-15.68c0-.224-.032-.256-.256-.256-.16,0-1.024.064-3.616.064h-1.888c.32-.672.576-1.28.8-1.792a2.32,2.32,0,0,1,.48-.8.548.548,0,0,0,.256-.384c0-.192-.128-.288-.384-.384-.416-.128-.928-.288-1.568-.448a8.437,8.437,0,0,1-.416,1.664c-.256.672-.576,1.376-.96,2.144H371.9a29.968,29.968,0,0,0,2.432-4.864h8.416v2.752c0,.224.032.256.256.256h1.312c.224,0,.256-.032.256-.256,0-.16-.064-.384-.064-2.4v-.736c0-.544.064-.864.064-1.024,0-.224-.032-.256-.256-.256-.16,0-1.248.064-4.384.064h-5.024c.16-.512.32-.992.448-1.472a4.138,4.138,0,0,1,.512-1.5c.192-.224.288-.32.288-.512,0-.16-.1-.256-.448-.352l-1.824-.352a12.762,12.762,0,0,1-.416,2.784c-.128.48-.256.928-.416,1.408h-1.5c-3.136,0-4.192-.064-4.352-.064-.224,0-.256.032-.256.256,0,.16.064.48.064,1.152v.64c0,2.048-.064,2.272-.064,2.432,0,.224.032.256.256.256h1.28c.224,0,.256-.032.256-.256v-2.816h3.776a25.087,25.087,0,0,1-6.432,9.568,3.209,3.209,0,0,1,.7,1.056c.1.224.192.32.288.32s.192-.1.32-.224c.736-.8,1.44-1.568,2.08-2.368-.032,1.024-.064,1.984-.064,3.232v8c0,2.3-.064,2.976-.064,3.136,0,.224.032.256.256.256h1.28c.224,0,.256-.032.256-.256V.416h9.344c2.816,0,3.712.064,3.872.064.224,0,.256-.032.256-.256Zm-8.768-.192h-4.7v-3.52h4.7Zm0-5.024h-4.7v-3.36h4.7Zm0-4.864h-4.7v-3.3h4.7Zm-9.216-12.8c0-.224-.032-.256-.288-.256-.16,0-.864.064-3.2.064H360.1c-2.336,0-3.04-.064-3.232-.064-.224,0-.256.032-.256.256v1.312c0,.224.032.256.256.256.192,0,.9-.064,3.232-.064h.8a25.473,25.473,0,0,1-5.312,12.256,4.212,4.212,0,0,1,.736,1.152c.128.256.224.384.32.384s.224-.128.352-.32a33.351,33.351,0,0,0,1.92-2.944V-6.24c0,4.928-.064,5.856-.064,6.016,0,.224.032.256.256.256h1.248c.224,0,.256-.032.256-.256V-3.072h3.52v1.28c0,.192.032.224.256.224H365.6c.224,0,.256-.032.256-.224s-.064-.832-.064-5.632v-2.944c0-2.784.064-3.616.064-3.776,0-.224-.032-.256-.256-.256-.16,0-.768.064-2.24.064h-3.136a31.175,31.175,0,0,0,2.5-8h.416c2.336,0,3.04.064,3.2.064.256,0,.288-.032.288-.256ZM364.128-4.7h-3.52v-8h3.52ZM408.672-24.96c-2.912,0-3.84-.064-4.032-.064-.224,0-.256.032-.256.256v1.28c0,.224.032.256.256.256.192,0,1.12-.064,4.032-.064h1.344a15.075,15.075,0,0,1-.736,3.968c-1.216-.544-2.464-.992-3.584-1.376-.224-.1-.32-.064-.448.192l-.384.832c-.16.32-.192.384.032.448a39.747,39.747,0,0,1,3.744,1.5,11.6,11.6,0,0,1-6.144,5.472,2.962,2.962,0,0,1,.96.928c.192.32.288.416.448.416a1.467,1.467,0,0,0,.512-.192,13.2,13.2,0,0,0,5.824-5.856c.96.512,1.888,1.024,2.688,1.5.224.128.32.128.512-.256l.416-.864c.16-.32.224-.384,0-.48-.928-.512-1.92-1.024-2.944-1.536a18.043,18.043,0,0,0,.96-4.7H417.5c-.064,4.128-.448,7.52-.864,8.48a1.546,1.546,0,0,1-1.568.864,13.875,13.875,0,0,1-2.752-.288,3.756,3.756,0,0,1,.448,1.312c.1.64.128.64.608.7a20.221,20.221,0,0,0,2.144.1,2.824,2.824,0,0,0,2.88-1.792c.512-1.376.832-4.48.992-8.768.032-.672.032-1.312.128-2.048,0-.224-.064-.288-.288-.288-.16,0-1.152.064-4.1.064Zm-6.72,19.744c0-1.44.064-2.112.064-2.3,0-.224-.032-.224-.256-.224-.16,0-.768.064-2.752.064H396.64c-1.952,0-2.56-.064-2.72-.064-.256,0-.288,0-.288.224,0,.192.064.928.064,2.848v1.92c0,3.9-.064,4.512-.064,4.672,0,.224.032.256.288.256h1.28c.224,0,.256-.032.256-.256V.256h4.768V1.28c0,.224.032.256.256.256h1.28c.224,0,.256-.032.256-.256,0-.16-.064-.864-.064-4.544Zm-1.728,3.9h-4.768v-4.8h4.768ZM409.7-6.464a4,4,0,0,1,.16-1.5,1.08,1.08,0,0,0,.128-.384c0-.128-.1-.192-.384-.256a14.653,14.653,0,0,0-1.792-.192,20.821,20.821,0,0,1,.128,2.464V-.768c0,1.376.512,1.856,1.152,2.112a8.058,8.058,0,0,0,2.944.352,6.187,6.187,0,0,0,3.3-.544c1.056-.576,1.312-1.5,1.568-3.456.032-.544.032-.608-.512-.8a4.248,4.248,0,0,1-1.184-.64c-.032,1.728-.16,2.848-.864,3.36a4.142,4.142,0,0,1-2.24.32A4.961,4.961,0,0,1,410.3-.256c-.512-.224-.608-.416-.608-1.28ZM403.1-20.512c0-.224-.032-.256-.256-.256-.192,0-.9.064-3.328.064h-3.712c-2.4,0-3.168-.064-3.328-.064-.192,0-.224.032-.224.256v1.344c0,.224.032.256.224.256.16,0,.928-.064,3.328-.064h3.712c2.432,0,3.136.064,3.328.064.224,0,.256-.032.256-.256Zm-.96-4.288c0-.224-.032-.256-.256-.256-.16,0-.736.064-2.784.064h-2.5c-2.016,0-2.592-.064-2.784-.064-.224,0-.256.032-.256.256v1.28c0,.224.032.256.256.256.192,0,.768-.064,2.784-.064h2.5c2.048,0,2.624.064,2.784.064.224,0,.256-.032.256-.256Zm-.512,12.928c0-.224-.032-.256-.256-.256-.16,0-.7.064-2.592.064h-2.016c-1.888,0-2.432-.064-2.592-.064-.224,0-.256.032-.256.256v1.248c0,.224.032.256.256.256.16,0,.7-.064,2.592-.064h2.016c1.888,0,2.432.064,2.592.064.224,0,.256-.032.256-.256Zm0-4.288c0-.224-.032-.256-.256-.256-.16,0-.7.064-2.592.064h-2.016c-1.888,0-2.432-.064-2.592-.064-.224,0-.256.032-.256.256v1.248c0,.224.032.256.256.256.16,0,.7-.064,2.592-.064h2.016c1.888,0,2.432.064,2.592.064.224,0,.256-.032.256-.256Zm3.392,8.64c-.416-.128-.48-.1-.512.16A17.5,17.5,0,0,1,402.784-1.7c-.1.192-.1.256.32.48l.768.384c.384.16.416.16.544-.064a20.622,20.622,0,0,0,1.792-6.016c.032-.224,0-.256-.32-.352Zm11.936,0c-.416.192-.448.224-.32.384a20.438,20.438,0,0,1,2.848,5.472c.1.224.128.224.544,0l.768-.384c.384-.224.416-.224.352-.448a23.585,23.585,0,0,0-2.944-5.312c-.16-.224-.192-.224-.544-.032ZM409.472-11.3c-.288.288-.32.288-.1.448a15.845,15.845,0,0,1,3.872,3.36c.16.192.224.128.544-.192l.608-.608c.32-.32.32-.384.128-.576A24.91,24.91,0,0,0,410.592-12c-.224-.16-.256-.128-.512.128Z" transform="translate(115.105 317.958)" fill="#a3a3a3"/>
    <path id="合体_1" data-name="合体 1" d="M0,28.027H15.187V0H40.5V28.027H54L27,61Z" transform="translate(41.576 274.32)" fill="#9e9e9e"/>
  </g>
</svg>
