<svg xmlns="http://www.w3.org/2000/svg" width="498.01" height="61" viewBox="0 0 498.01 61">
  <g id="scrolldown-noto" transform="translate(-41.576 -274.32)">
    <path id="パス_597" data-name="パス 597" d="M25.6-21.408a4.306,4.306,0,0,0-.4.624q-.24.432-.4.784a35.006,35.006,0,0,1-1.6,3.472q-.992,1.9-2.208,3.76a28.333,28.333,0,0,1-2.56,3.36A45.585,45.585,0,0,1,14.56-5.552a47.074,47.074,0,0,1-4.448,3.488A31.493,31.493,0,0,1,5.248.7L3.2-1.44A29.184,29.184,0,0,0,8.176-3.984a38.7,38.7,0,0,0,4.48-3.328,40.405,40.405,0,0,0,3.728-3.632,31.515,31.515,0,0,0,2.16-2.8,30.557,30.557,0,0,0,1.92-3.168A16.241,16.241,0,0,0,21.7-19.84H9.216q-.544,0-1.232.032t-1.248.064q-.56.032-.752.064v-2.912q.224.032.816.08t1.264.08q.672.032,1.152.032H21.568a14.1,14.1,0,0,0,1.424-.064,4.235,4.235,0,0,0,.976-.192ZM18.848-11.1q1.312,1.088,2.7,2.4T24.288-6q1.344,1.392,2.5,2.656t1.984,2.288L26.528.864Q25.408-.672,23.84-2.448T20.528-6q-1.744-1.776-3.5-3.28Zm44.9-8.9a3.858,3.858,0,0,0-.416.816q-.192.5-.32.88a26.094,26.094,0,0,1-1.216,3.5,33.915,33.915,0,0,1-1.92,3.84A26.236,26.236,0,0,1,57.312-7.3a27.642,27.642,0,0,1-5.2,4.848,31.232,31.232,0,0,1-7.536,3.856l-2.3-2.08a28.521,28.521,0,0,0,5.28-2.1A25.608,25.608,0,0,0,51.744-5.5a24.726,24.726,0,0,0,3.3-3.2,23.36,23.36,0,0,0,2.288-3.232A28.1,28.1,0,0,0,59.1-15.472a19.676,19.676,0,0,0,1.056-3.216H48.288l1.024-2.3H59.52a8.159,8.159,0,0,0,1.184-.08,3.378,3.378,0,0,0,.9-.24Zm-10.72-4.864q-.416.64-.8,1.36t-.608,1.168a38.63,38.63,0,0,1-2.4,3.792,31.314,31.314,0,0,1-3.424,4.016,29.887,29.887,0,0,1-4.576,3.712L39.008-12.48a23.561,23.561,0,0,0,3.712-2.656,27.126,27.126,0,0,0,2.864-2.912,28.131,28.131,0,0,0,2.1-2.816A21.567,21.567,0,0,0,49.056-23.3a8.111,8.111,0,0,0,.56-1.168,8.18,8.18,0,0,0,.432-1.36ZM76.352-21.92q.96.032,1.632.048t1.216.016H96.384q.512,0,1.3-.016t1.52-.048q-.032.576-.048,1.232t-.016,1.264V-2.688q0,.608.016,1.216T99.184-.4q.016.464.016.624H96.448q0-.192.016-.784T96.5-1.9q.016-.752.016-1.424v-16h-17.5v16.96q0,.544.016,1.072t.032.944q.016.416.016.576H76.32q0-.16.016-.624t.032-1.072q.016-.608.016-1.2v-18Q76.384-21.344,76.352-21.92ZM97.536-4.128v2.5H77.76v-2.5Zm13.248-9.728,1.184.08q.7.048,1.552.064t1.712.016h17.536q1.216,0,2.08-.064t1.376-.1v3.136l-1.424-.1q-.944-.064-2-.064H115.232q-1.312,0-2.5.048t-1.952.112ZM160.128-.672a6.09,6.09,0,0,0,.144-.848,9.17,9.17,0,0,0,.048-.944V-21.632q0-.928-.064-1.552t-.1-.816H163.1q0,.192-.064.832t-.064,1.536V-3.168a23.467,23.467,0,0,0,3.2-1.856,26.132,26.132,0,0,0,3.312-2.688,20.349,20.349,0,0,0,2.832-3.328l1.5,2.176a25.481,25.481,0,0,1-3.216,3.552,32.719,32.719,0,0,1-3.824,3.04A32.489,32.489,0,0,1,162.912,0q-.384.224-.656.416t-.432.32Zm-14.656-.16A14,14,0,0,0,148.9-4.32,16.4,16.4,0,0,0,151.04-8.7a14.51,14.51,0,0,0,.544-2.72q.192-1.632.288-3.472t.112-3.584q.016-1.744.016-3.088a11.224,11.224,0,0,0-.064-1.264q-.064-.56-.16-1.072h2.944q-.032.192-.064.56t-.064.816q-.032.448-.032.928,0,1.344-.032,3.152t-.144,3.776q-.112,1.968-.288,3.728A16.175,16.175,0,0,1,153.568-8a17,17,0,0,1-2.192,4.832A18.128,18.128,0,0,1,147.872.8Zm44.608-24.1q-.128.8-.192,1.616t-.1,1.616q-.064,1.344-.128,3.328t-.128,4.208q-.064,2.224-.1,4.432t-.032,3.968a5.19,5.19,0,0,0,.672,2.816,3.69,3.69,0,0,0,1.856,1.5,7.654,7.654,0,0,0,2.72.448,12.946,12.946,0,0,0,3.936-.56,11.863,11.863,0,0,0,3.136-1.5,13.868,13.868,0,0,0,2.448-2.128,23.868,23.868,0,0,0,1.936-2.432l1.824,2.176A21.482,21.482,0,0,1,205.9-3.056a16.264,16.264,0,0,1-2.832,2.288A15.448,15.448,0,0,1,199.312.96a15.738,15.738,0,0,1-4.752.672,10.792,10.792,0,0,1-4.032-.7,5.656,5.656,0,0,1-2.752-2.272,7.7,7.7,0,0,1-.992-4.16q0-1.44.032-3.184t.1-3.6q.064-1.856.1-3.632t.064-3.28q.032-1.5.032-2.5,0-.9-.064-1.728a15.077,15.077,0,0,0-.192-1.536Zm26.72,3.68q.928-.032,1.664-.08t1.184-.08q.768-.1,2.224-.24t3.344-.32q1.888-.176,4.064-.368l4.384-.384q1.76-.16,3.328-.272t2.912-.192q1.344-.08,2.4-.112v2.56q-.9-.032-2.048,0t-2.272.144a10.107,10.107,0,0,0-1.952.368,9.321,9.321,0,0,0-3.056,1.648,11.582,11.582,0,0,0-2.32,2.528,11.659,11.659,0,0,0-1.456,2.976,9.722,9.722,0,0,0-.5,2.96,7.79,7.79,0,0,0,.64,3.28,6.882,6.882,0,0,0,1.744,2.352,9.515,9.515,0,0,0,2.528,1.568,14.064,14.064,0,0,0,2.992.9,22.4,22.4,0,0,0,3.136.352L238.816.992a18.171,18.171,0,0,1-3.568-.5,15.956,15.956,0,0,1-3.44-1.248A11.526,11.526,0,0,1,228.9-2.816a9.254,9.254,0,0,1-2.016-2.912,9.328,9.328,0,0,1-.736-3.808,11.981,11.981,0,0,1,.88-4.624,13.688,13.688,0,0,1,2.256-3.728,11.492,11.492,0,0,1,2.848-2.464q-1.024.128-2.528.288t-3.248.336q-1.744.176-3.472.4t-3.248.432q-1.52.208-2.544.432Zm53.664-5.664h2.368v8.992h-2.368Zm-7.36,3.04h17.184v2.016H263.1Zm1.152,4.928H279.2V-16.9H264.256Zm-.992,4.224h17.088v5.76H278.24v-3.808H265.312V-8.96h-2.048Zm9.984,4.288h2.176V-.64a1.3,1.3,0,0,0,.144.768.86.86,0,0,0,.624.16h2.016a.558.558,0,0,0,.5-.272,2.723,2.723,0,0,0,.24-1.12q.064-.848.1-2.544a5,5,0,0,0,.944.512,8.7,8.7,0,0,0,1.04.384,15.89,15.89,0,0,1-.336,3.12,2.807,2.807,0,0,1-.8,1.536,2.182,2.182,0,0,1-1.424.432h-2.592a3.921,3.921,0,0,1-1.632-.272,1.458,1.458,0,0,1-.784-.912,6.049,6.049,0,0,1-.208-1.792Zm-5.888.032h2.176v2.016a18.159,18.159,0,0,1-.208,2.608,10.594,10.594,0,0,1-.9,2.912,10.628,10.628,0,0,1-2.048,2.9,13.339,13.339,0,0,1-3.664,2.56,10.172,10.172,0,0,0-.784-.832,8.393,8.393,0,0,0-.944-.8A12.963,12.963,0,0,0,264.416-1.3a9.044,9.044,0,0,0,1.9-2.512,9.334,9.334,0,0,0,.832-2.464,12.5,12.5,0,0,0,.208-2.144ZM256.192-26.88l2.112.8q-.576,1.184-1.264,2.464t-1.376,2.48q-.688,1.2-1.3,2.1l-1.664-.736q.608-.928,1.264-2.176t1.248-2.56Q255.808-25.824,256.192-26.88Zm3.584,3.648,2.016.96q-1.088,1.76-2.432,3.76t-2.7,3.856q-1.36,1.856-2.576,3.232l-1.472-.832q.9-1.056,1.888-2.416t1.952-2.848q.96-1.488,1.824-2.96T259.776-23.232Zm-8.672,3.04,1.248-1.536q.864.768,1.744,1.7t1.616,1.824a11.741,11.741,0,0,1,1.152,1.632l-1.344,1.792a14.322,14.322,0,0,0-1.136-1.728q-.72-.96-1.584-1.92T251.1-20.192Zm7.424,4.288,1.76-.7a22.07,22.07,0,0,1,1.28,2.24q.608,1.216,1.1,2.352a13.721,13.721,0,0,1,.72,2l-1.92.9a12.8,12.8,0,0,0-.656-2.1q-.464-1.168-1.04-2.4A20.157,20.157,0,0,0,258.528-15.9Zm-7.712,3.168q2.08-.1,4.944-.24t5.872-.3v2.016q-2.816.192-5.584.368t-4.944.3Zm8.576,4.576,1.76-.512A25.051,25.051,0,0,1,262.24-5.68a19.008,19.008,0,0,1,.64,2.8l-1.888.608a15.228,15.228,0,0,0-.56-2.864A26.3,26.3,0,0,0,259.392-8.16Zm-6.624-.416,2.016.32a41.278,41.278,0,0,1-.88,4.464,20.354,20.354,0,0,1-1.3,3.728,5.285,5.285,0,0,0-.544-.3q-.352-.176-.7-.336t-.608-.256a14.139,14.139,0,0,0,1.28-3.5A38.14,38.14,0,0,0,252.768-8.576Zm3.392-3.2h2.112V2.56H256.16ZM291.488-21.92q3.36.384,6.416.448a49.888,49.888,0,0,0,5.52-.16,37.2,37.2,0,0,0,3.888-.592,37.416,37.416,0,0,0,3.664-.944l.352,2.3q-1.568.448-3.5.832t-3.856.576q-2.432.224-5.648.208t-6.672-.336Zm-.608,6.56q2.72.288,5.376.368t5.024-.016q2.368-.1,4.224-.32A40.209,40.209,0,0,0,309.7-16q1.888-.416,3.168-.832l.384,2.4q-1.312.352-3.072.688t-3.776.592q-1.984.224-4.512.336t-5.328.064q-2.8-.048-5.552-.208Zm10.944-6.976q-.192-.736-.432-1.456l-.464-1.392,2.72-.352a24.018,24.018,0,0,0,.512,2.8q.352,1.456.768,2.848t.8,2.512q.448,1.248,1.056,2.656t1.344,2.784q.736,1.376,1.568,2.624a8.316,8.316,0,0,0,.56.688l.624.688-1.312,1.952a16.247,16.247,0,0,0-2.112-.432q-1.216-.176-2.5-.32l-2.4-.272.224-1.952q1.28.128,2.656.288t2.144.256a33.627,33.627,0,0,1-2.352-4.288q-1.008-2.208-1.712-4.16-.384-1.088-.688-2.032t-.544-1.808Q302.048-21.568,301.824-22.336ZM295.52-8.48a10.406,10.406,0,0,0-.96,1.7,4.676,4.676,0,0,0-.384,1.92,3.2,3.2,0,0,0,1.808,2.976,12.054,12.054,0,0,0,5.584.992q2.24,0,4.064-.16a31.631,31.631,0,0,0,3.552-.512l-.1,2.56q-1.664.256-3.552.4t-3.936.144A19.22,19.22,0,0,1,296.272.9a6.786,6.786,0,0,1-3.328-1.952,5.076,5.076,0,0,1-1.168-3.36,7.014,7.014,0,0,1,.336-2.448,15.964,15.964,0,0,1,.912-2.128Zm40.8-16.832q-.192.96-.5,2.256a19.542,19.542,0,0,1-.976,2.928,26.687,26.687,0,0,1-1.424,2.976,21.984,21.984,0,0,1-1.808,2.784,6.851,6.851,0,0,1,1.376-.656,8.835,8.835,0,0,1,1.584-.4,9.67,9.67,0,0,1,1.488-.128,4.812,4.812,0,0,1,3.136,1.04,3.669,3.669,0,0,1,1.28,3.024v1.552q0,.944.016,1.984t.048,2.032q.032.992.032,1.728h-2.464q.032-.64.064-1.5t.048-1.824q.016-.96,0-1.824t-.016-1.472a2.446,2.446,0,0,0-.848-2.064,3.374,3.374,0,0,0-2.128-.656,7.141,7.141,0,0,0-2.96.656,9.176,9.176,0,0,0-2.544,1.68,16.261,16.261,0,0,0-1.392,1.52q-.688.848-1.52,1.808l-2.176-1.6a43.336,43.336,0,0,0,3.84-4.192,30.21,30.21,0,0,0,2.5-3.632,25.491,25.491,0,0,0,1.5-3.024,21.286,21.286,0,0,0,.832-2.7,14.561,14.561,0,0,0,.384-2.512Zm-10.944,3.456q1.28.16,2.784.256t2.624.1q2.144,0,4.608-.112t4.976-.336q2.512-.224,4.784-.64l-.032,2.368q-1.664.288-3.552.464t-3.84.288q-1.952.112-3.76.16t-3.344.048q-.672,0-1.552-.016t-1.84-.064q-.96-.048-1.856-.112Zm24.448,7.744a8.4,8.4,0,0,0-.912.272q-.5.176-.992.368t-.944.384q-1.664.64-3.872,1.568t-4.512,2.144a20.247,20.247,0,0,0-2.816,1.68,8.8,8.8,0,0,0-1.92,1.824,3.378,3.378,0,0,0-.7,2.064,2.442,2.442,0,0,0,.432,1.5,2.682,2.682,0,0,0,1.232.88,6.987,6.987,0,0,0,1.84.4q1.04.1,2.288.1,1.856,0,4.24-.208t4.5-.56l-.064,2.56q-1.216.16-2.736.288t-3.072.208q-1.552.08-2.96.08a19.131,19.131,0,0,1-4.144-.416,6.227,6.227,0,0,1-2.992-1.472,3.935,3.935,0,0,1-1.12-3.008,5.311,5.311,0,0,1,.672-2.64,8.29,8.29,0,0,1,1.808-2.192,18.817,18.817,0,0,1,2.512-1.84q1.376-.848,2.816-1.552,1.536-.832,2.9-1.44t2.576-1.12q1.216-.512,2.272-1.024.7-.32,1.344-.608t1.28-.64Zm24.32,2.72h12.512v1.856H374.144Zm0,5.248h12.512v1.888H374.144ZM374.176-.9H388.16V1.152H374.176Zm-3.68-22.72H388v5.5h-2.176v-3.424H372.608v3.424H370.5Zm8.832,8.384h2.24V.192h-2.24Zm-4.352-1.5H387.2v2.08H374.976V2.56H372.7V-14.592l2.08-2.144Zm3.04-10.176,2.272.448a34.915,34.915,0,0,1-3.7,8.768,23.535,23.535,0,0,1-5.616,6.464,6.611,6.611,0,0,0-.464-.56q-.3-.336-.64-.656a6.83,6.83,0,0,0-.592-.512,20.542,20.542,0,0,0,5.36-5.936A30.509,30.509,0,0,0,378.016-26.912Zm3.328,6.368,2.24.544q-.576,1.248-1.168,2.512a23.021,23.021,0,0,1-1.136,2.16l-1.824-.512a23.665,23.665,0,0,0,1.056-2.32A24.2,24.2,0,0,0,381.344-20.544Zm-22.208-4.192h11.3v2.24h-11.3Zm3.232,9.344h7.2V-1.376h-7.2V-3.488h5.12v-9.76h-5.12Zm.512-8.288,2.3.352q-.48,3.36-1.232,6.512a43.6,43.6,0,0,1-1.824,5.872,23.455,23.455,0,0,1-2.544,4.832q-.128-.256-.384-.688l-.512-.864a4.691,4.691,0,0,0-.48-.688,19.073,19.073,0,0,0,2.192-4.24,36.628,36.628,0,0,0,1.52-5.248Q362.528-20.672,362.88-23.68Zm-1.5,8.288h2.016V1.152h-2.016ZM413.12-24.64h2.208a29.711,29.711,0,0,1-.7,3.824,17.853,17.853,0,0,1-1.344,3.632A12.807,12.807,0,0,1,411.008-14a12.8,12.8,0,0,1-3.52,2.512,4.773,4.773,0,0,0-.624-.9,6.248,6.248,0,0,0-.784-.8,10.836,10.836,0,0,0,3.232-2.192,11.171,11.171,0,0,0,2.048-2.816,14.681,14.681,0,0,0,1.168-3.168A27.534,27.534,0,0,0,413.12-24.64Zm-5.856,4.576,1.152-1.7q1.664.576,3.456,1.36t3.376,1.632a26.825,26.825,0,0,1,2.64,1.584L416.7-15.3a27.937,27.937,0,0,0-2.64-1.664q-1.584-.9-3.36-1.728A30.4,30.4,0,0,0,407.264-20.064Zm13.408-5.44h2.272v.992q-.16,3.776-.352,6.112a30.757,30.757,0,0,1-.448,3.552,3.63,3.63,0,0,1-.672,1.664,1.963,1.963,0,0,1-.8.672,3.774,3.774,0,0,1-1.12.256,13.259,13.259,0,0,1-1.584.048q-1.008-.016-2.16-.08a6.17,6.17,0,0,0-.192-1.1,3.644,3.644,0,0,0-.448-1.072q1.12.1,2.048.112t1.312.016a1.118,1.118,0,0,0,1.024-.32,3.232,3.232,0,0,0,.5-1.408,30.976,30.976,0,0,0,.368-3.264q.16-2.176.256-5.792ZM410.88-8.48h2.208V-.736q0,.576.192.736a1.512,1.512,0,0,0,.864.16h3.008a.833.833,0,0,0,.64-.24,1.928,1.928,0,0,0,.32-1.008q.1-.768.128-2.4a2.83,2.83,0,0,0,.576.368,5.609,5.609,0,0,0,.736.3q.384.128.7.224a15.159,15.159,0,0,1-.384,3.024,2.469,2.469,0,0,1-.88,1.472,2.852,2.852,0,0,1-1.616.4h-3.552a5.239,5.239,0,0,1-1.84-.256,1.439,1.439,0,0,1-.88-.928A5.959,5.959,0,0,1,410.88-.7Zm-3.04,1.088,1.92.512q-.16,1.408-.464,2.848a14.286,14.286,0,0,1-.848,2.7,7.492,7.492,0,0,1-1.376,2.16L405.28-.32a6.543,6.543,0,0,0,1.264-1.936,14.83,14.83,0,0,0,.816-2.464A23,23,0,0,0,407.84-7.392Zm3.552-4,1.44-1.408a17.345,17.345,0,0,1,2.144,1.248q1.088.736,2.048,1.5a11.454,11.454,0,0,1,1.536,1.44l-1.472,1.6a14.236,14.236,0,0,0-1.5-1.472,23.866,23.866,0,0,0-2.016-1.552Q412.48-10.784,411.392-11.392Zm7.488,4.224,1.952-.8a24.064,24.064,0,0,1,1.616,2.544,22.89,22.89,0,0,1,1.28,2.7,15.043,15.043,0,0,1,.752,2.432l-2.144.864a13.539,13.539,0,0,0-.7-2.432A26.5,26.5,0,0,0,420.4-4.592,25.63,25.63,0,0,0,418.88-7.168ZM407.52-25.5H421.7v2.048H407.52Zm-11.584,8.32h9.088V-15.3h-9.088Zm.128-8.576h8.864v1.92h-8.864Zm-.128,12.832h9.088v1.92h-9.088Zm-1.44-8.64h11.456v2.016H394.5Zm2.528,12.96h8.032V.736h-8.032V-1.248h5.952V-6.592h-5.952Zm-1.12,0h2.048V2.208H395.9Z" transform="translate(115.105 317.958)" fill="#a3a3a3"/>
    <path id="合体_1" data-name="合体 1" d="M0,28.027H15.187V0H40.5V28.027H54L27,61Z" transform="translate(41.576 274.32)" fill="#9e9e9e"/>
  </g>
</svg>
