<svg xmlns="http://www.w3.org/2000/svg" width="431.414" height="304.06" viewBox="0 0 431.414 304.06">
  <g id="グループ_287" data-name="グループ 287" transform="translate(-53.108 -195.562)">
    <g id="Group_17" data-name="Group 17">
      <path id="楽しく学ぼう_英語がもっと_身近になる" data-name="楽しく学ぼう！ 英語がもっと 身近になる" d="M21.071,39.014c-5.014,4.451-10.817,7.1-18.7,9.127a13.213,13.213,0,0,1,2.2,3.549c.507,1.07.676,1.465,1.127,1.465a5.92,5.92,0,0,0,1.352-.394c7.324-2.648,13.522-6.366,17.972-11.324-.056,7.155-.225,11.155-.225,12.282,0,.563.056.62.62.62h4.9c.563,0,.62-.056.62-.62,0-1.183-.282-5.465-.282-12.677A43.182,43.182,0,0,0,49.467,52.761a4.566,4.566,0,0,0,1.352.338c.507,0,.676-.394,1.127-1.409a14.657,14.657,0,0,1,2.31-3.662c-7.888-1.859-13.972-4.507-19.494-9.014H44.9c5.071,0,6.817.113,7.155.113.62,0,.676-.056.676-.62V34.563c0-.62-.056-.676-.676-.676-.338,0-2.085.113-7.155.113H30.762a5.025,5.025,0,0,1,.282-1.8c.056-.338.338-.62.338-.958,0-.282-.282-.563-.845-.62-1.916-.113-3.944-.282-6.028-.338A27.945,27.945,0,0,1,24.9,34h-13.3c-5.127,0-6.873-.113-7.212-.113-.563,0-.62.056-.62.676v3.944c0,.563.056.62.62.62.338,0,2.085-.113,7.212-.113ZM29.578,8.646c.394-.789.732-1.634,1.07-2.479a3.409,3.409,0,0,1,.732-1.3,1.055,1.055,0,0,0,.451-.789c0-.338-.225-.563-.732-.676-1.578-.282-3.775-.507-5.465-.676a12.57,12.57,0,0,1-.563,2.761c-.394,1.183-.732,2.085-1.183,3.155-3.549,0-4.789-.113-5.071-.113-.62,0-.676.056-.676.62,0,.338.113,1.859.113,5.409V23.52c0,3.493-.113,5.014-.113,5.352,0,.563.056.62.676.62.338,0,1.634-.113,5.747-.113H31.55c4.169,0,5.409.113,5.8.113.563,0,.62-.056.62-.62,0-.338-.113-1.859-.113-5.352V14.562c0-3.549.113-5.071.113-5.409,0-.563-.056-.62-.62-.62-.394,0-1.634.113-5.8.113ZM32.79,25.1H23.325V20.985H32.79Zm0-12.226v3.944H23.325V12.872Zm-17.578,5.69a57.861,57.861,0,0,1-8.676,5.3,27.359,27.359,0,0,1-3.549,1.408,33.02,33.02,0,0,0,2.31,5.24c.282.451.507.563.789.563a.864.864,0,0,0,.676-.507,4.1,4.1,0,0,1,1.521-1.239c2.535-1.465,4.789-2.873,7.155-4.507.845-.563,1.183-.789,1.183-1.3a4.821,4.821,0,0,0-.338-1.409C15.944,21.041,15.381,19.407,15.212,18.562Zm24.4,3.944a.962.962,0,0,0-.282.62c0,.169.113.282.394.451a61.877,61.877,0,0,1,9.916,6.592.762.762,0,0,0,.507.282c.169,0,.338-.169.563-.563l2.2-3.549c.394-.62.338-.789-.056-1.127a70.484,70.484,0,0,0-9.972-6.141c-.507-.282-.62-.282-1.014.338Zm-.563-8.338A15.141,15.141,0,0,1,41.8,16.647c.62.732.9,1.07,1.239,1.07s.676-.282,1.3-.845a53.274,53.274,0,0,0,5.634-5.183,5.049,5.049,0,0,1,1.578-1.239c.394-.169.732-.451.732-.789S52,9.1,51.551,8.646a32.935,32.935,0,0,0-4.056-3.1A11.5,11.5,0,0,1,45.8,7.97,36.665,36.665,0,0,1,39.044,14.168Zm-34.48-4.9c-.282.282-.451.451-.451.62,0,.113.169.282.394.451a45.264,45.264,0,0,1,7.155,6.423c.394.507.563.451,1.07-.169l2.7-3.1c.563-.676.507-.789.113-1.183A42.611,42.611,0,0,0,8.338,6.224c-.507-.338-.507-.338-1.127.282ZM82.087,5.548c.845,3.38.676,6.986.563,10.31-.282,6.761-.789,14.874-.789,24.339,0,8.62,3.38,11.493,10.592,11.493a32.188,32.188,0,0,0,21.353-8.451c.9-.789,1.127-1.239,1.127-1.747a3.7,3.7,0,0,0-.451-1.352,19.587,19.587,0,0,1-1.3-5.352c-6.873,7.324-14.7,10.367-19.719,10.367-4.507,0-5.183-1.3-5.183-6.986,0-7.381.282-13.127.845-21.8.282-4.338.507-6.085.789-6.873a5.466,5.466,0,0,0,.563-1.859c0-.563-.394-.845-1.352-1.07A58.271,58.271,0,0,0,82.087,5.548Zm84.623-1.3a16.259,16.259,0,0,1-3.042,4.225c-4.845,5.3-9.521,9.972-14.31,15.155-1.747,1.859-2.761,3.1-2.761,4.958s.845,3.1,2.986,4.733A142.213,142.213,0,0,1,170.09,52.366c.282.338.451.507.676.507s.451-.169.789-.451c.958-.845,2.592-2.479,3.887-3.887.282-.282.394-.451.394-.676a1.35,1.35,0,0,0-.394-.732A156.315,156.315,0,0,0,154.484,29.38c-.507-.394-.732-.676-.732-1.014,0-.282.225-.62.732-1.239,4.338-4.507,10.536-10.31,15.381-14.648a10.673,10.673,0,0,1,2.7-1.972,1.131,1.131,0,0,0,.789-1.07,1.38,1.38,0,0,0-.451-.9A44.855,44.855,0,0,0,166.71,4.252Zm60,35.269v7.042c0,1.578-.62,1.972-2.2,1.972a54.812,54.812,0,0,1-6.028-.338,16.994,16.994,0,0,1,1.69,4.113c.451,1.69.451,1.634,2.2,1.634,5.409,0,7.155-.338,8.62-1.239,1.352-.958,1.8-2.2,1.8-4.62,0-1.465-.113-3.549-.113-4.9V39.521h14.085c5.014,0,6.7.113,7.043.113.563,0,.62-.056.62-.62V34.676c0-.563-.056-.62-.62-.62-.338,0-2.028.113-7.043.113H232.684v-.9a66.741,66.741,0,0,0,7.888-5.859,13.482,13.482,0,0,1,2.7-1.859.9.9,0,0,0,.676-.9c0-.507-.451-1.239-1.578-2.423-1.408-1.352-1.972-1.8-2.423-1.8a1.836,1.836,0,0,0-.732.225,3.534,3.534,0,0,1-1.352.113H222.6c-5.183,0-6.986-.113-7.268-.113-.563,0-.62.056-.62.62V25.21c0,.507.056.563.62.563.282,0,2.085-.113,7.268-.113h12.169a35.259,35.259,0,0,1-5.127,4.056l-3.268-.338a40.734,40.734,0,0,1,.338,4.789H211.895c-5.014,0-6.7-.113-7.042-.113-.563,0-.62.056-.62.62v4.338c0,.563.056.62.62.62.338,0,2.028-.113,7.042-.113ZM212.007,4.7c-.676.225-.732.338-.394.845a32.7,32.7,0,0,1,3.606,6.31H213.7c-5.24,0-7.1-.113-7.437-.113-.62,0-.676.056-.676.62,0,.394.113,1.409.113,3.493v2.085c0,5.071-.113,5.972-.113,6.366,0,.563.056.62.676.62h4.451c.563,0,.62-.056.62-.62V16.872h36.058v7.437c0,.62.056.676.62.676h4.451c.62,0,.676-.056.676-.676,0-.338-.113-1.239-.113-6.31V15.407c0-1.634.113-2.7.113-3.042,0-.563-.056-.62-.676-.62-.338,0-2.2.113-7.437.113h-1.465c.845-1.352,1.521-2.535,2.31-4a4.24,4.24,0,0,1,1.07-1.3,1.061,1.061,0,0,0,.563-.845c0-.338-.282-.62-.789-.845a28.3,28.3,0,0,0-5.578-1.69,18.659,18.659,0,0,1-.845,2.986,44.523,44.523,0,0,1-2.761,5.69h-8.676l3.662-1.3c.789-.282.789-.338.62-.845a43.984,43.984,0,0,0-3.1-6.535c-.282-.451-.451-.563-1.127-.338L225.191,3.97c-.676.225-.845.282-.507.845a43.576,43.576,0,0,1,3.211,7.043H216.177l3.718-1.352c.789-.282.789-.338.507-.9a42.357,42.357,0,0,0-3.775-5.859c-.338-.451-.507-.563-1.239-.282Zm98.651.563a24.758,24.758,0,0,1,4.564,7.324c.169.507.507.563.958.338l2.2-1.07c.451-.225.507-.451.338-.845A26.287,26.287,0,0,0,314.377,4.2a.594.594,0,0,0-.789-.225ZM315.729,2.9a26.983,26.983,0,0,1,4.564,7.324c.169.338.394.507.9.282l2.254-1.127a.634.634,0,0,0,.338-.958,23.816,23.816,0,0,0-4.338-6.592c-.282-.338-.451-.394-.789-.225ZM302.039,23.126c-1.8.169-3.549.225-5.3.225a40.1,40.1,0,0,1-6.423-.451,51.081,51.081,0,0,0,.338,5.127c.056.451.225.62.732.676a59.054,59.054,0,0,0,10.761.225c.056,3.268.113,5.183.225,8.057a24.136,24.136,0,0,0-4.564-.394c-5.465,0-9.409,3.155-9.409,7.831,0,4.507,3.831,7.606,10.085,7.606,6.085,0,9.071-2.31,9.8-7.212a34.024,34.024,0,0,1,6.479,4.676c.282.225.451.394.62.394s.338-.169.507-.451a30.35,30.35,0,0,0,2.31-4.395c.225-.507.225-.789-.225-1.127a37.356,37.356,0,0,0-9.578-5.352c-.225-3.268-.338-6.479-.394-10.31,2.535-.338,5.578-.676,7.944-1.239.394-.113.62-.225.62-.62a35.859,35.859,0,0,0-.507-4.733c-.056-.451-.169-.62-.676-.507a63.507,63.507,0,0,1-7.493,1.183c.056-2.535.113-5.24.169-7.662,1.465-.056,2.761-.169,3.944-.169.394,0,.62-.225.62-.789a29.013,29.013,0,0,0-.113-3.831c-.056-.62-.169-.958-1.127-.958-1.239,0-3.775.113-6.085.225-3.549.169-9.465.563-14.2,1.07-.62.056-.958.169-.958.676.056,1.69.169,3.211.338,5.24,4.113-.507,6.7-.789,11.55-1.127Zm.507,19.156a4.874,4.874,0,0,1-.676,2.93,5.179,5.179,0,0,1-4.056,1.408c-2.479,0-4-.845-4-2.535,0-1.521,1.521-2.592,3.887-2.592A14.547,14.547,0,0,1,302.546,42.281ZM276.46,6.618a43.941,43.941,0,0,1-.732,7.719,156.152,156.152,0,0,0-2.028,20.9c0,7.268.62,12.338,2.2,16.9.113.394.394.732,1.183.676a25.5,25.5,0,0,0,3.944-1.014c.563-.169.676-.394.676-.845a11.1,11.1,0,0,1-.056-1.183,9.477,9.477,0,0,1,.394-2.479c1.014-2.817,2.366-5.972,2.986-7.55a2.166,2.166,0,0,0,.338-.958c0-.282-.113-.507-.451-1.014A17.059,17.059,0,0,1,283.221,34c-1.521,3.437-2.592,5.69-3.831,8.395-.056-1.972-.056-4.845-.056-6.085a124.169,124.169,0,0,1,2.761-22.142,13.612,13.612,0,0,1,1.183-3.887,1.343,1.343,0,0,0,.338-.789c0-.507-.282-.789-.958-1.07A31.274,31.274,0,0,0,276.46,6.618ZM354.886,3.35a26.565,26.565,0,0,0-1.69,5.3c-.169.732.113,1.014.394,1.127a74.386,74.386,0,0,0,16.339,4.338c.451.056.62-.225.789-.789a45.535,45.535,0,0,0,1.239-4.958.8.8,0,0,0-.732-1.014A70.738,70.738,0,0,1,354.886,3.35Zm-10.93,18.592a38.9,38.9,0,0,0,2.873,5.916c.338.507.845,1.239,1.578,1.239a2.054,2.054,0,0,0,1.239-.563,26.722,26.722,0,0,1,4.789-2.7c3.211-1.578,5.69-2.423,8.845-2.423,3.268,0,5.24,2.423,5.24,7.1a16.5,16.5,0,0,1-3.1,9.972c-2.366,3.324-6.2,6.479-12.395,9.409a13.91,13.91,0,0,1,4.676,2.986,1.829,1.829,0,0,0,1.352.732,2.539,2.539,0,0,0,.958-.282,31.823,31.823,0,0,0,10.874-8.958A22.083,22.083,0,0,0,375.45,30.9c0-8.282-4.338-13.409-11.888-13.409-4.282,0-8.169,1.239-12.9,2.817A29.324,29.324,0,0,1,343.956,21.943ZM432.522,5.379h-8.789L425.311,38.9H431Zm-8.451,38.987v7.606h8V44.366ZM22.649,129.394a9.852,9.852,0,0,1-.9,1.521c-2.761,4-8.845,7.606-18.987,9.127a13.959,13.959,0,0,1,2.366,3.718c.451,1.127.62,1.465,1.239,1.465a6.308,6.308,0,0,0,1.239-.169c8.845-2.028,14.93-5.578,18.48-10.536a16.436,16.436,0,0,0,1.634-2.7c4.564,6.817,12.564,11.55,21.466,13.24a6.426,6.426,0,0,0,1.183.169c.676,0,.845-.338,1.183-1.521a13.734,13.734,0,0,1,2.254-4.338c-9.521-1.014-16.846-4.451-21.409-9.972H45.072c5.014,0,6.761.113,7.1.113.62,0,.676-.056.676-.62V124.83c0-.563-.056-.62-.676-.62-.338,0-1.972.113-6.254.113v-7.437c0-3.042.113-4.507.113-4.845,0-.563-.056-.62-.62-.62-.394,0-2.366.113-7.831.113H30.762a11.776,11.776,0,0,1,.338-2.873,4.643,4.643,0,0,0,.338-1.07c0-.394-.282-.676-.9-.732-1.859-.225-3.606-.338-5.859-.394.225,1.69.282,3.38.338,5.071H18.48c-5.465,0-7.437-.113-7.775-.113-.62,0-.676.056-.676.62,0,.394.113,1.859.113,4.9v7.381c-4.338,0-6.028-.113-6.31-.113-.563,0-.62.056-.62.62v4.056c0,.563.056.62.62.62.338,0,2.085-.113,7.1-.113Zm7.381-5.071a61.523,61.523,0,0,0,.676-7.775h9.409v7.775Zm-5.071-7.775a54.535,54.535,0,0,1-.732,7.775H15.888v-7.775Zm-14.2-17.3c-5.014,0-6.7-.113-7.042-.113-.563,0-.62.056-.62.62v4.113c0,.563.056.62.62.62.338,0,2.028-.113,7.042-.113h6.366c-.056,2.254-.113,3.38-.113,3.718,0,.563.056.62.62.62h4.451c.563,0,.62-.056.62-.62,0-.282-.113-1.409-.113-3.718H33.128c-.056,2.31-.113,3.38-.113,3.662,0,.62.056.676.62.676h4.451c.563,0,.62-.056.62-.676,0-.282-.113-1.352-.113-3.662h6.761c5.014,0,6.7.113,7.043.113.62,0,.676-.056.676-.62V99.759c0-.563-.056-.62-.676-.62-.338,0-2.028.113-7.043.113H38.593c0-2.141.113-3.155.338-3.549a1.486,1.486,0,0,0,.282-.845c0-.338-.282-.507-.789-.563a53.162,53.162,0,0,0-5.634-.451,31.214,31.214,0,0,1,.338,5.409H22.592A9.765,9.765,0,0,1,22.93,95.7a1.484,1.484,0,0,0,.338-.845c0-.338-.338-.507-.789-.563a55.262,55.262,0,0,0-5.69-.394,30.536,30.536,0,0,1,.338,5.352Zm89.806,1.465c-.282,1.747-.676,3.493-1.07,5.24-3.944,0-5.409-.113-5.69-.113-.563,0-.62.056-.62.676v3.662c0,.563.056.62.62.62.282,0,1.465-.056,4.451-.113-.62,2.2-1.3,4.338-2.028,6.366-3.662,0-5.071-.113-5.352-.113-.563,0-.62.056-.62.62v3.887c0,.563.056.62.62.62.338,0,2.141-.113,7.437-.113h14.817c5.24,0,7.1.113,7.437.113.507,0,.563-.056.563-.62v-3.887c0-.563-.056-.62-.563-.62-.282,0-1.578.113-4.789.113v-6.479c0-2.648.113-3.775.113-4.056,0-.62-.056-.676-.676-.676-.282,0-1.859.113-6.31.113h-3.887c.394-1.69.732-3.437,1.07-5.24h6.141c5.071,0,6.817.113,7.155.113.563,0,.62-.056.62-.62V96.379c0-.62-.056-.676-.62-.676-.338,0-2.085.113-7.155.113H99.665c-5.071,0-6.817-.113-7.1-.113-.563,0-.62.056-.62.676v3.831c0,.563.056.62.62.62.282,0,2.028-.113,7.1-.113Zm9.69,9.972v6.366h-8.338c.676-2.085,1.3-4.225,1.916-6.366ZM98.37,145.507c.563,0,.62-.056.62-.676V142.8h12.958v1.859c0,.563.056.62.62.62h4.564c.563,0,.62-.056.62-.62,0-.338-.113-1.747-.113-8.789v-4.451c0-3.042.113-4.507.113-4.9,0-.563-.056-.62-.62-.62-.338,0-1.972.113-6.7.113H100.68c-4.733,0-6.31-.113-6.7-.113-.563,0-.62.056-.62.62,0,.394.113,1.859.113,5.634v3.831c0,7.155-.113,8.507-.113,8.845,0,.62.056.676.62.676Zm.62-14.7h12.958v7.212H98.989Zm-10.029.9c0-2.648.113-4,.113-4.338,0-.563-.056-.62-.62-.62-.394,0-1.521.113-5.183.113H77.862c-3.606,0-4.789-.113-5.127-.113-.62,0-.676.056-.676.62,0,.394.113,1.747.113,5.3v3.775c0,6.817-.113,8.113-.113,8.507,0,.563.056.62.676.62h4.113c.563,0,.62-.056.62-.62v-2.592h6.254v1.521c0,.563.056.62.62.62h4.113c.563,0,.62-.056.62-.62,0-.338-.113-1.578-.113-8.113Zm-5.24-.169v6.2H77.467v-6.2Zm-7.381-27.776c-4.282,0-5.69-.113-6.028-.113-.507,0-.563.056-.563.62v4c0,.62.056.676.563.676.338,0,1.747-.113,6.028-.113h7.55c4.282,0,5.69.113,6.028.113.563,0,.62-.056.62-.676v-4c0-.563-.056-.62-.62-.62-.338,0-1.747.113-6.028.113Zm1.69-7.719c-3.662,0-4.789-.113-5.127-.113-.563,0-.62.056-.62.62v3.775c0,.563.056.62.62.62.338,0,1.465-.113,5.127-.113H83.44c3.662,0,4.733.113,5.071.113.62,0,.676-.056.676-.62V96.548c0-.563-.056-.62-.676-.62-.338,0-1.409.113-5.071.113Zm.169,23.212c-3.437,0-4.451-.113-4.789-.113-.563,0-.62.056-.62.62v3.662c0,.507.056.563.62.563.338,0,1.352-.113,4.789-.113h4.789c3.437,0,4.395.113,4.733.113.62,0,.676-.056.676-.563V119.76c0-.563-.056-.62-.676-.62-.338,0-1.3.113-4.733.113Zm0-7.493c-3.437,0-4.451-.113-4.789-.113-.563,0-.62.056-.62.62v3.606c0,.563.056.62.62.62.338,0,1.352-.113,4.789-.113h4.789c3.437,0,4.395.113,4.733.113.62,0,.676-.056.676-.62v-3.606c0-.563-.056-.62-.676-.62-.338,0-1.3.113-4.733.113Zm96.51-11.381a27.955,27.955,0,0,1,5.69,6.535.589.589,0,0,0,.958.169l2.366-1.747a.568.568,0,0,0,.169-.9,25.931,25.931,0,0,0-5.352-6.028c-.338-.282-.563-.338-.845-.113Zm5.183-3.718a26.653,26.653,0,0,1,5.634,6.479.578.578,0,0,0,.958.169l2.254-1.747a.651.651,0,0,0,.169-1.014,23.528,23.528,0,0,0-5.352-5.8c-.338-.282-.507-.338-.845-.113Zm-27.719,12.846c-2.2.338-4.282.62-6.648.845-2.479.225-4.958.394-7.437.394a51.475,51.475,0,0,0,1.747,5.8,1.235,1.235,0,0,0,1.8.732,16.556,16.556,0,0,1,3.1-.9c1.521-.282,3.324-.62,5.521-.958a118.8,118.8,0,0,1-10.31,22.085,1.049,1.049,0,0,0-.225.62,1.159,1.159,0,0,0,.451.845,25.619,25.619,0,0,0,3.887,2.479.924.924,0,0,0,1.465-.507c4.395-7.888,7.606-15.663,11.324-26.48a37.321,37.321,0,0,1,4.733-.394c2.479,0,3.211,1.239,3.211,5.183a43.512,43.512,0,0,1-2.2,14.029c-.9,2.31-1.747,2.986-3.606,2.986a14.993,14.993,0,0,1-6.479-1.465,16.1,16.1,0,0,1,1.07,5.24,1.5,1.5,0,0,0,1.014,1.578,14.93,14.93,0,0,0,5.859.845c3.268,0,5.972-1.69,7.606-5.3,1.916-4.056,3.042-11.55,3.042-17.634,0-7.212-2.817-10.874-8.057-10.874a43.051,43.051,0,0,0-4.507.225c.732-2.366,1.3-4.451,2.028-6.761a7.129,7.129,0,0,1,1.127-2.141,1.174,1.174,0,0,0,.394-.845,1.186,1.186,0,0,0-.9-1.127,41.236,41.236,0,0,0-6.761-1.859,38.35,38.35,0,0,1-.563,6.254C153.47,104.323,153.076,106.295,152.174,109.506Zm19.437-.451a38.138,38.138,0,0,1,9.24,14.592c.169.676.732.732,1.3.451a22.993,22.993,0,0,0,4.226-2.817.807.807,0,0,0,.225-1.127,37.7,37.7,0,0,0-9.352-13.691c-.394-.394-.676-.507-1.07-.282A47.775,47.775,0,0,0,171.612,109.055Zm52.734,17.3c2.873.056,5.8.056,8.62-.169.563,0,.732-.225.789-.9a37.97,37.97,0,0,0,.282-4.226c0-.507-.169-.732-.9-.62-2.7.169-5.014.225-8,.169.338-2.254.9-6.085,1.239-8.057a55.548,55.548,0,0,0,7.493-.282c.676-.056.9-.225.9-.845a26.3,26.3,0,0,0,.113-4.226c0-.394-.169-.676-.563-.676a32.116,32.116,0,0,1-6.93.338c.282-2.085.62-4,.9-5.3a5.523,5.523,0,0,1,1.014-2.423,1.648,1.648,0,0,0,.451-1.07c0-.507-.451-1.014-1.239-1.3a33.491,33.491,0,0,0-6.761-1.578,26.5,26.5,0,0,1,.056,4.733c-.113,1.69-.282,3.211-.732,6.479a45.8,45.8,0,0,1-10.2-2.141c0,2.028.113,3.887.169,5.24,0,.507.225.789.9.958a39.4,39.4,0,0,0,8.113,1.578c-.225,2.31-.676,5.972-.958,8.057a35.231,35.231,0,0,1-9.127-2.2,32.562,32.562,0,0,0,.113,5.24c.056.676.225.958.62,1.07a44.383,44.383,0,0,0,7.662,1.69c-.225,2.535-.394,4.113-.394,5.3,0,8.226,4.226,12.733,14.2,12.733,9.69,0,16.226-5.183,16.226-13.184a14.686,14.686,0,0,0-4.789-10.592,1.29,1.29,0,0,0-1.183-.225,17.97,17.97,0,0,1-5.747.338c4.282,4.507,5.071,7.1,5.071,10.254,0,5.071-3.662,7.606-10.254,7.606-5.24,0-7.493-2.028-7.493-7.212A34.708,34.708,0,0,1,224.346,126.352Zm52.509-7.268a28.8,28.8,0,0,0,3.042,5.465c.563.676.958,1.014,1.465,1.014a1.762,1.762,0,0,0,1.127-.563,18.084,18.084,0,0,1,3.155-1.747c6.141-2.479,12.057-4.395,15.944-4.395,4.507,0,6.986,2.2,6.986,6.2a8.811,8.811,0,0,1-5.071,8.395c-3.887,1.916-6.986,2.873-13.578,3.887a11.832,11.832,0,0,1,3.437,3.718c.394.732.845.958,1.859.789a30.564,30.564,0,0,0,11.662-3.718c5.352-2.873,8.057-6.873,8.057-12.62,0-7.043-5.183-12.057-12.846-12.057-4.056,0-9.521,1.127-16.451,3.437A60.644,60.644,0,0,1,276.855,119.084Zm75.721-22.761a25.21,25.21,0,0,1,1.465,6.535,85.5,85.5,0,0,0,2.93,13.747c-6.592,4.169-10.7,8.282-10.7,14.536,0,7.324,5.634,10.817,16.282,10.817a120.4,120.4,0,0,0,16.789-.845c.676-.056,1.07-.338,1.014-.958a49.744,49.744,0,0,0-.563-5.24c-.113-.676-.394-.789-1.014-.676a98.4,98.4,0,0,1-17.184,1.3c-6.479,0-8.958-1.408-8.958-4.733,0-2.648,1.747-5.3,6.648-8.507a78.4,78.4,0,0,1,13.24-6.592,27.035,27.035,0,0,1,5.409-1.69c.789-.113,1.127-.563,1.127-1.127a2.282,2.282,0,0,0-.394-1.183,28.93,28.93,0,0,0-4.113-5.3,13.936,13.936,0,0,1-3.887,3.042c-3.155,1.69-5.183,2.761-8,4.282a79.215,79.215,0,0,1-1.8-9.69c-.113-1.3-.282-2.648-.282-3.775,0-.789.394-1.578.394-2.366,0-.451-.338-.732-1.014-.9A32.607,32.607,0,0,0,352.576,96.322ZM43.382,216.507a65.29,65.29,0,0,0,7.324-7.437A6.87,6.87,0,0,1,52.96,207.1a1,1,0,0,0,.676-.9c0-.338-.282-.676-.732-1.183a31.5,31.5,0,0,0-3.549-3.1,22.956,22.956,0,0,1-2.366,3.662,43.9,43.9,0,0,1-3.606,4.282V198.534c0-4.733.113-7.155.113-7.493,0-.563-.056-.62-.62-.62-.394,0-2.2.113-7.437.113H28.17c.451-.789.845-1.634,1.352-2.7a3.619,3.619,0,0,1,.9-1.127,1.038,1.038,0,0,0,.507-.789.887.887,0,0,0-.789-.789c-1.578-.338-4.226-.676-6.028-.845a12.765,12.765,0,0,1-.789,3.211,24.631,24.631,0,0,1-1.465,3.042h-1.07c-5.24,0-7.042-.113-7.437-.113-.563,0-.62.056-.62.62,0,.338.113,2.423.113,6.7v17.916c-.845.056-1.69.113-2.479.113-2.085.113-3.775.169-5.916.169a42.7,42.7,0,0,0,.958,5.071c.169.507.451.845.789.845a1.781,1.781,0,0,0,.958-.338,5,5,0,0,1,2.028-.507c8-.676,15.606-1.465,23.775-2.592-8.169,5.24-18.141,9.183-29.579,12.169a9.692,9.692,0,0,1,2.366,3.324c.451,1.07.676,1.409,1.239,1.409a5.742,5.742,0,0,0,1.352-.282c10.986-3.493,20.9-8,29.409-14.085v7.493a1.77,1.77,0,0,1-2.028,2.028,55.527,55.527,0,0,1-6.254-.282,18.688,18.688,0,0,1,1.465,3.944c.394,1.747.394,1.747,2.085,1.69,4.845-.056,7.1-.282,8.676-1.352,1.239-.9,1.859-2.7,1.859-4.733,0-2.254-.169-4.958-.169-7.493Zm-5.634-21.353v3.493H18.423v-3.493ZM18.423,206.534v-3.493H37.748v3.493Zm19.325,6.817c-6.873.845-13.522,1.521-19.325,1.916v-4.338H37.748Zm67.608-6.479v13.691c0,4-.113,5.859-.113,6.254,0,.563.056.62.62.62h4.789c.563,0,.62-.056.62-.62,0-.338-.113-2.254-.113-6.254V206.872h1.69c5.014,0,6.7.113,7.043.113.563,0,.62-.056.62-.62v-4.338c0-.563-.056-.62-.62-.62-.338,0-2.028.113-7.043.113H96v-5.859a91.479,91.479,0,0,0,18.48-4.507,11.383,11.383,0,0,1,2.366-.394c.507-.056.845-.282.845-.62a1.261,1.261,0,0,0-.338-.958,25.616,25.616,0,0,0-4-4.169,19.5,19.5,0,0,1-3.437,1.69,65.007,65.007,0,0,1-15.155,3.831,38.554,38.554,0,0,0-4.845-1.3c.282,3.042.507,5.747.507,9.014v4.225c0,5.69-.169,8.676-.732,11.381a19,19,0,0,1-4.676,9.24,15.5,15.5,0,0,1,3.324,2.817c.563.62.9.958,1.127.958.282,0,.563-.338,1.07-1.07a26.731,26.731,0,0,0,4.282-8.845,45.827,45.827,0,0,0,1.127-10.085Zm-22.311,5.071c0-3.437.113-5.014.113-5.352,0-.563-.056-.62-.62-.62-.338,0-1.239.113-4.226.113H74.763c-3.042,0-3.831-.113-4.113-.113-.62,0-.676.056-.676.62v4.282c0,.62.056.676.676.676.282,0,1.07-.113,4.113-.113h2.761v12.507a34.829,34.829,0,0,1-4.958,3.606,25.531,25.531,0,0,1-3.324,1.747,44.714,44.714,0,0,0,2.31,5.3,1.074,1.074,0,0,0,.789.676.94.94,0,0,0,.845-.507,5.157,5.157,0,0,1,1.127-1.127c1.8-1.465,3.944-3.324,5.69-5.014a15.006,15.006,0,0,0,5.859,5.127c2.31,1.183,7.324,1.521,13.127,1.521,5.859,0,12.564-.113,19.719-.507,1.8-.113,1.8-.113,2.085-1.916a11.276,11.276,0,0,1,1.521-4.451c-8.395.845-16.958,1.3-24.226,1.3-4.9,0-8.395-.282-10.367-1.07a8.643,8.643,0,0,1-4.676-4.676Zm-11.1-22.874c-.62.451-.732.62-.282,1.014a47.745,47.745,0,0,1,7.437,9.24c.169.282.282.394.451.394a1.563,1.563,0,0,0,.732-.338l3.268-2.535c.62-.507.676-.676.338-1.07a49.4,49.4,0,0,0-7.662-8.958,1.051,1.051,0,0,0-.563-.282c-.169,0-.338.113-.676.338Zm72.51,0a45.457,45.457,0,0,1-1.014,8.395,107.554,107.554,0,0,0-1.916,18.48c0,5.69,1.014,12.846,2.592,16.789.113.394.338.676.732.62a27.965,27.965,0,0,0,4.62-.9c.507-.113.732-.338.732-.732,0-.451-.113-.9-.113-1.578a6.4,6.4,0,0,1,.169-1.747,55.078,55.078,0,0,1,3.211-8.507,1.559,1.559,0,0,0,.282-.9,2.244,2.244,0,0,0-.394-.845,14.625,14.625,0,0,1-1.972-3.549c-1.634,3.944-2.648,5.8-3.831,8.395a54.331,54.331,0,0,1-.338-6.592,91.292,91.292,0,0,1,2.366-18.2,13.31,13.31,0,0,1,1.352-4c.732-1.127.845-1.3.845-1.69,0-.507-.338-.845-1.3-1.352A24.934,24.934,0,0,0,144.456,189.069Zm12.958,29.071c0,2.648.563,5.521,1.972,7.324,2.423,3.324,6.31,4.676,14.648,4.676a75.645,75.645,0,0,0,9.183-.62c.958-.113.958-.169.958-.845a41.746,41.746,0,0,0-.338-4.845c-.113-.732-.225-.789-.789-.732a80.762,80.762,0,0,1-10.761.732c-6.141,0-8.845-1.409-9.183-5.3,0-.62-.113-.9-.563-.845Zm1.8-16a68.878,68.878,0,0,1,12.789-1.3c2.873,0,5.8.113,9.183.338.507.056.676-.169.732-.676.113-1.578.113-3.1.113-4.789,0-.563-.113-.676-1.3-.732-2.366-.225-4.958-.338-8.338-.338a89.951,89.951,0,0,0-12.226,1.014c-.563.113-.732.282-.789.958C159.273,197.576,159.273,198.985,159.217,202.14Zm74.932,17.3a29.035,29.035,0,0,0-4.451-.338c-6.366,0-10.423,3.324-10.423,8.226,0,4.845,4.169,8,10.367,8,6.423,0,10.479-2.592,10.479-8.226a41.905,41.905,0,0,1,6.873,4.733c.225.225.394.338.563.338s.338-.113.507-.394a34.667,34.667,0,0,0,2.592-4.564c.282-.563.225-.789-.338-1.183a44.176,44.176,0,0,0-10.141-5.24,73.577,73.577,0,0,1-.62-9.578,5.854,5.854,0,0,1,.225-2.31,7.064,7.064,0,0,0,.338-1.183.866.866,0,0,0-.789-.9,30.455,30.455,0,0,0-6.141-1.07,19.787,19.787,0,0,1,.451,4C233.7,212.394,233.811,215.83,234.149,219.436Zm.113,5.352a6.49,6.49,0,0,1,.056,1.127c0,2.366-1.859,4-4.9,4-3.211,0-4.789-.9-4.789-2.7,0-2.141,2.2-3.268,5.014-3.268A14.358,14.358,0,0,1,234.262,224.788Zm-9.183-28.9c.507-1.69.958-3.437,1.352-4.789a6.193,6.193,0,0,1,.9-2.085,1.388,1.388,0,0,0,.507-1.07c0-.394-.338-.732-.9-.845a52.1,52.1,0,0,0-6.592-1.183,21.8,21.8,0,0,1-.338,4.564c-.394,2.028-.789,3.944-1.465,6.31-2.592.225-4.282.282-6.479.282-1.634,0-2.93-.056-5.24-.225a29.437,29.437,0,0,0,.563,4.789c.113.732.225.9.789.9,1.409.056,1.859.056,3.1.056,1.747,0,3.493,0,5.634-.113a113.66,113.66,0,0,1-9.747,19.663,1.078,1.078,0,0,0-.282.676c0,.225.113.394.394.62a26.746,26.746,0,0,0,3.887,2.873,1.562,1.562,0,0,0,.676.282c.225,0,.394-.169.62-.563,4.056-6.873,7.381-14.648,10.986-24.17,3.493-.507,6.254-.9,9.3-1.521.451-.056.676-.169.676-.676a30.569,30.569,0,0,0-.507-4.564c-.113-.62-.338-.62-.845-.451A60.55,60.55,0,0,1,225.078,195.886Zm12.507,5.352a48.69,48.69,0,0,1,11.662,6.141.785.785,0,0,0,.507.225c.169,0,.338-.113.507-.394a34.271,34.271,0,0,0,2.366-4.169,1.344,1.344,0,0,0,.225-.676c0-.225-.169-.394-.507-.62a43.956,43.956,0,0,0-11.043-5.3.786.786,0,0,0-1.183.394C239.389,197.858,238.544,199.548,237.586,201.238Zm55.213,6.986c4.282-4.113,8.057-8.057,12.169-12.057a9.092,9.092,0,0,1,2.479-1.8,1.49,1.49,0,0,0,.958-1.352,1.956,1.956,0,0,0-.62-1.352,21.32,21.32,0,0,0-3.775-3.606,2.009,2.009,0,0,0-1.3-.451,2.911,2.911,0,0,0-1.07.451,14.949,14.949,0,0,1-3.1.845c-4.395.845-9.352,1.578-12.789,1.916a27.153,27.153,0,0,1-5.24-.113,26.976,26.976,0,0,0,1.972,6.085,1.281,1.281,0,0,0,1.239.958,4.133,4.133,0,0,0,1.127-.282,17.34,17.34,0,0,1,2.366-.676c3.493-.732,7.493-1.521,10.874-2.141-2.592,3.211-5.24,6.028-8.733,9.634a135.618,135.618,0,0,1-13.353,12.451c-.451.451-.62.845-.282,1.3a25.364,25.364,0,0,0,3.324,3.662,1.384,1.384,0,0,0,.845.507c.282,0,.563-.225.958-.62,1.69-1.69,3.268-3.324,4.9-4.789,4.564-3.887,9.747-5.972,14.423-5.972,5.24,0,8.845,3.38,8.845,8.507,0,4.282-1.8,6.761-5.747,8.564-1.409-5.409-5.3-8.226-10.592-8.226-4.395,0-7.944,3.1-7.944,6.873,0,5.24,4.282,8.282,11.381,8.282,12.057,0,19.663-6.028,19.663-15.437,0-8.113-5.747-13.522-13.972-13.522a16.955,16.955,0,0,0-8.958,2.535Zm4.9,21.071a12.335,12.335,0,0,1-2.592.225c-3.38,0-4.9-1.183-4.9-2.93,0-1.183,1.07-2.141,2.7-2.141C295.278,224.45,296.968,226.2,297.7,229.3Z" transform="translate(52 263.775)"/>
    </g>
    <g id="btn">
      <path id="子どもオンライン英会話" d="M16.426,19.79v8.94c0,1.272-.545,1.781-1.708,1.781a42.959,42.959,0,0,1-5.051-.254,13.112,13.112,0,0,1,1.345,3.053c.254,1.163.254,1.127,1.381,1.127,3.925,0,5.524-.145,6.578-.945,1.018-.763,1.526-1.708,1.526-3.816,0-1.272-.073-3.089-.073-5.742V19.79h9.049c3.234,0,4.361.073,4.579.073.363,0,.4-.036.4-.4v-2.98c0-.363-.036-.4-.4-.4-.218,0-1.345.073-4.579.073H20.423V14.593a42,42,0,0,0,8.1-6.4A6.189,6.189,0,0,1,30.09,6.925c.4-.218.618-.472.618-.8,0-.4-.218-.763-1.345-1.89-1.09-1.054-1.381-1.163-1.6-1.163a1.115,1.115,0,0,0-.472.109,1.92,1.92,0,0,1-.618.145H11.265c-3.561,0-4.8-.073-5.015-.073-.363,0-.4.036-.4.4V6.526c0,.363.036.4.4.4.218,0,1.454-.073,5.015-.073H24.457a39.349,39.349,0,0,1-6.141,4.979c-.727-.109-1.49-.145-2.18-.218a37.168,37.168,0,0,1,.291,4.543H7.086c-3.234,0-4.361-.073-4.579-.073-.363,0-.4.036-.4.4v2.98c0,.363.036.4.4.4.218,0,1.345-.073,4.579-.073ZM48.4,3.509a16.261,16.261,0,0,1,.945,4.215,55.151,55.151,0,0,0,1.89,8.867c-4.252,2.689-6.9,5.342-6.9,9.376,0,4.724,3.634,6.977,10.5,6.977A77.656,77.656,0,0,0,65.666,32.4c.436-.036.69-.218.654-.618a32.09,32.09,0,0,0-.363-3.38c-.073-.436-.254-.509-.654-.436a64.632,64.632,0,0,1-10.829.836c-4.543,0-6.032-.945-6.032-3.053,0-1.708,1.127-3.416,4.288-5.487a50.57,50.57,0,0,1,8.54-4.252,17.438,17.438,0,0,1,3.489-1.09c.509-.073.727-.363.727-.727a1.472,1.472,0,0,0-.254-.763,18.66,18.66,0,0,0-2.653-3.416,8.989,8.989,0,0,1-2.507,1.962c-2.035,1.09-3.343,1.781-5.16,2.762a51.1,51.1,0,0,1-1.163-6.25c-.073-.836-.182-1.708-.182-2.435,0-.509.254-1.018.254-1.526,0-.291-.218-.472-.654-.581A21.032,21.032,0,0,0,48.4,3.509ZM63.123,5.726a18.032,18.032,0,0,1,3.67,4.215.38.38,0,0,0,.618.109l1.526-1.127a.366.366,0,0,0,.109-.581,16.726,16.726,0,0,0-3.452-3.888c-.218-.182-.363-.218-.545-.073Zm3.343-2.4A17.191,17.191,0,0,1,70.1,7.507a.373.373,0,0,0,.618.109l1.454-1.127a.42.42,0,0,0,.109-.654,15.176,15.176,0,0,0-3.452-3.743c-.218-.182-.327-.218-.545-.073Zm22.64,19.224c1.853.036,3.743.036,5.56-.109.363,0,.472-.145.509-.581a24.49,24.49,0,0,0,.182-2.726c0-.327-.109-.472-.581-.4-1.744.109-3.234.145-5.16.109.218-1.454.581-3.925.8-5.2a35.829,35.829,0,0,0,4.833-.182c.436-.036.581-.145.581-.545A16.966,16.966,0,0,0,95.9,10.2c0-.254-.109-.436-.363-.436a20.715,20.715,0,0,1-4.47.218c.182-1.345.4-2.58.581-3.416A3.563,3.563,0,0,1,92.3,5a1.063,1.063,0,0,0,.291-.69c0-.327-.291-.654-.8-.836a21.6,21.6,0,0,0-4.361-1.018,17.09,17.09,0,0,1,.036,3.053C87.4,6.6,87.289,7.58,87,9.687A29.54,29.54,0,0,1,80.42,8.306c0,1.308.073,2.507.109,3.38,0,.327.145.509.581.618a25.413,25.413,0,0,0,5.233,1.018c-.145,1.49-.436,3.852-.618,5.2A22.724,22.724,0,0,1,79.839,17.1a21,21,0,0,0,.073,3.38c.036.436.145.618.4.69a28.629,28.629,0,0,0,4.942,1.09C85.108,23.9,85,24.914,85,25.677c0,5.306,2.726,8.213,9.158,8.213,6.25,0,10.466-3.343,10.466-8.5a9.472,9.472,0,0,0-3.089-6.832.832.832,0,0,0-.763-.145,11.591,11.591,0,0,1-3.707.218c2.762,2.907,3.271,4.579,3.271,6.614,0,3.271-2.362,4.906-6.614,4.906-3.38,0-4.833-1.308-4.833-4.652A22.388,22.388,0,0,1,89.106,22.552Zm42.263,4.288c.073,1.6-.218,1.962-1.054,2.144a26.05,26.05,0,0,1-5.124.363,7.372,7.372,0,0,1,2.544,3.234c.182.472.436.618,1.127.618a11.131,11.131,0,0,0,5.015-1.272,3.822,3.822,0,0,0,1.744-3.852l-.654-13.664h2.944c2.253,0,4.324.073,6.977.182a.459.459,0,0,0,.509-.509c.036-1.018.036-2.144,0-3.162,0-.254-.182-.436-.545-.436-2.689.109-4.506.182-7.05.182H134.64l-.109-2.762a10.321,10.321,0,0,1,.145-3.343,2.041,2.041,0,0,0,.145-.545c0-.218-.109-.363-.472-.436a31.839,31.839,0,0,0-4.579-.4,18.218,18.218,0,0,1,.581,4.288L130.5,10.7h-8.649c-2.18,0-4.324-.036-6.5-.182a32.446,32.446,0,0,0,.291,3.525c.036.4.182.654.509.618,1.89-.109,3.925-.182,5.814-.182l6.36-.036a34.932,34.932,0,0,1-5.342,5.633,42.822,42.822,0,0,1-8.467,5.742,8.223,8.223,0,0,1,2.98,2.144.758.758,0,0,0,.618.363,1.532,1.532,0,0,0,.836-.327,40.976,40.976,0,0,0,6.868-5.088,30.1,30.1,0,0,0,5.124-5.6ZM154.59,9.36A38.467,38.467,0,0,1,162,15.284c.182.182.327.291.472.291s.254-.109.436-.291c.509-.545,1.708-2,2.253-2.726a.781.781,0,0,0,.218-.472c0-.145-.109-.291-.327-.509a37.894,37.894,0,0,0-6.941-5.16.968.968,0,0,0-.472-.182.681.681,0,0,0-.509.291C156.444,7.252,155.39,8.379,154.59,9.36Zm.8,18.134a25.18,25.18,0,0,0,2.907,4.034.942.942,0,0,0,.618.4,1,1,0,0,0,.654-.363A12.543,12.543,0,0,1,162,29.892a78.134,78.134,0,0,0,10.975-7.123,59.4,59.4,0,0,0,8.358-7.7c.4-.472.581-.763.581-1.09a1.777,1.777,0,0,0-.182-.69,16.221,16.221,0,0,1-1.018-4.252,54.6,54.6,0,0,1-9.957,9.884A53.865,53.865,0,0,1,160.3,25.677,21.892,21.892,0,0,1,155.39,27.494Zm53.965-19.26c2.217,0,3.925.073,5.124.073.545.036.654-.109.654-.727a18.452,18.452,0,0,0,0-2.835c0-.4-.109-.581-.436-.581-1.417.073-3.343.182-5.705.182H202.45a50.066,50.066,0,0,1-5.96-.254,31.672,31.672,0,0,0,.182,3.489c.036.581.145.8.509.8,1.526-.109,3.343-.145,4.979-.145Zm2.762,7.777c-2.616,7.014-8.54,12.029-15.263,15.154a10.653,10.653,0,0,1,3.38,1.89,1.186,1.186,0,0,0,.8.436,1.745,1.745,0,0,0,.727-.254c7.014-3.779,11.193-8.322,14.827-16.062a4.162,4.162,0,0,1,1.236-1.708.876.876,0,0,0,.4-.69,1.071,1.071,0,0,0-.363-.763,21.448,21.448,0,0,0-2.435-2.253.935.935,0,0,0-.545-.254.781.781,0,0,0-.472.218,4,4,0,0,1-1.926.4H200.015a64.311,64.311,0,0,1-6.687-.291,27.547,27.547,0,0,0,.4,3.67c.073.472.218.69.545.69,1.817-.109,3.634-.145,5.451-.145Zm35.5-2.835A57.524,57.524,0,0,0,251.873,8.6a11.972,11.972,0,0,1,2.18-2,1.04,1.04,0,0,0,.509-.8.643.643,0,0,0-.291-.545,32.331,32.331,0,0,0-4.034-2.544,10.533,10.533,0,0,1-2.289,3.743,58.96,58.96,0,0,1-7.74,7.6A58.336,58.336,0,0,1,228.76,21.5a13.6,13.6,0,0,1,3.125,2.144,1.013,1.013,0,0,0,.763.363,1.025,1.025,0,0,0,.545-.145,62.868,62.868,0,0,0,9.994-6.977V25.35c0,2.471-.109,4.833-.145,7.45-.036.436.109.581.509.581a30.312,30.312,0,0,0,3.634,0c.4,0,.581-.145.545-.618-.073-2.907-.109-5.051-.109-7.559Zm20.35-3.816a38.468,38.468,0,0,1,7.413,5.923c.182.182.327.291.472.291s.254-.109.436-.291c.509-.545,1.708-2,2.253-2.726a.781.781,0,0,0,.218-.472c0-.145-.109-.291-.327-.509a37.893,37.893,0,0,0-6.941-5.16.968.968,0,0,0-.472-.182.681.681,0,0,0-.509.291C269.824,7.252,268.771,8.379,267.971,9.36Zm.8,18.134a25.181,25.181,0,0,0,2.907,4.034.942.942,0,0,0,.618.4,1,1,0,0,0,.654-.363,12.543,12.543,0,0,1,2.435-1.672,78.136,78.136,0,0,0,10.975-7.123,59.4,59.4,0,0,0,8.358-7.7c.4-.472.581-.763.581-1.09a1.777,1.777,0,0,0-.182-.69A16.221,16.221,0,0,1,294.1,9.033a54.6,54.6,0,0,1-9.957,9.884,53.866,53.866,0,0,1-10.466,6.759A21.892,21.892,0,0,1,268.771,27.494Zm46.733-2.98a6.356,6.356,0,0,1-.581.981c-1.781,2.58-5.705,4.906-12.247,5.887a9,9,0,0,1,1.526,2.4c.291.727.4.945.8.945a4.069,4.069,0,0,0,.8-.109c5.705-1.308,9.63-3.6,11.919-6.8a10.6,10.6,0,0,0,1.054-1.744c2.944,4.4,8.1,7.45,13.846,8.54a4.146,4.146,0,0,0,.763.109c.436,0,.545-.218.763-.981a8.858,8.858,0,0,1,1.454-2.8c-6.141-.654-10.866-2.871-13.809-6.432h8.176c3.234,0,4.361.073,4.579.073.4,0,.436-.036.436-.4V21.57c0-.363-.036-.4-.436-.4-.218,0-1.272.073-4.034.073v-4.8c0-1.962.073-2.907.073-3.125,0-.363-.036-.4-.4-.4-.254,0-1.526.073-5.051.073h-4.4a7.6,7.6,0,0,1,.218-1.853,3,3,0,0,0,.218-.69c0-.254-.182-.436-.581-.472-1.2-.145-2.326-.218-3.779-.254.145,1.09.182,2.18.218,3.271h-4.215c-3.525,0-4.8-.073-5.015-.073-.4,0-.436.036-.436.4,0,.254.073,1.2.073,3.162v4.761c-2.8,0-3.888-.073-4.07-.073-.363,0-.4.036-.4.4v2.616c0,.363.036.4.4.4.218,0,1.345-.073,4.579-.073Zm4.761-3.271a39.688,39.688,0,0,0,.436-5.015h6.069v5.015Zm-3.271-5.015a35.175,35.175,0,0,1-.472,5.015h-5.378V16.228ZM307.836,5.072c-3.234,0-4.324-.073-4.543-.073-.363,0-.4.036-.4.4V8.052c0,.363.036.4.4.4.218,0,1.308-.073,4.543-.073h4.106c-.036,1.454-.073,2.18-.073,2.4,0,.363.036.4.4.4h2.871c.363,0,.4-.036.4-.4,0-.182-.073-.909-.073-2.4h6.8c-.036,1.49-.073,2.18-.073,2.362,0,.4.036.436.4.436h2.871c.363,0,.4-.036.4-.436,0-.182-.073-.872-.073-2.362h4.361c3.234,0,4.324.073,4.543.073.4,0,.436-.036.436-.4V5.4c0-.363-.036-.4-.436-.4-.218,0-1.308.073-4.543.073h-4.361a6.156,6.156,0,0,1,.218-2.289.959.959,0,0,0,.182-.545c0-.218-.182-.327-.509-.363a34.29,34.29,0,0,0-3.634-.291,20.133,20.133,0,0,1,.218,3.489h-6.8a6.3,6.3,0,0,1,.218-2.289.957.957,0,0,0,.218-.545c0-.218-.218-.327-.509-.363a35.646,35.646,0,0,0-3.67-.254,19.7,19.7,0,0,1,.218,3.452Zm43.245,17.879a58.706,58.706,0,0,1-3.2,7.05c-.4,0-.8.036-1.163.036a28.812,28.812,0,0,1-3.961,0c.218,1.272.436,2.544.763,3.743.073.327.254.509.509.509a.917.917,0,0,0,.618-.218,3.226,3.226,0,0,1,1.308-.327c6.178-.472,13.591-1.09,19.624-1.853.581.872,1.2,1.817,1.817,2.835.109.182.182.254.291.254s.218-.073.436-.218l2.507-1.635c.363-.254.363-.4.182-.69a64.136,64.136,0,0,0-6.759-8.431c-.254-.254-.363-.291-.763-.073l-2.326,1.2c-.436.218-.472.363-.218.654.981,1.054,1.817,2.071,2.653,3.089-3.452.363-7.413.69-11.193.909a68.044,68.044,0,0,0,3.234-6.832h11.229c3.416,0,4.579.073,4.8.073.4,0,.436-.036.436-.4V19.9c0-.363-.036-.4-.436-.4-.218,0-1.381.073-4.8.073H347.3c-3.416,0-4.579-.073-4.8-.073-.4,0-.436.036-.436.4v2.726c0,.363.036.4.436.4.218,0,1.381-.073,4.8-.073Zm-1.454-7.086c0,.363.036.4.4.4.218,0,1.2-.073,4.106-.073h5.6c2.907,0,3.888.073,4.106.073.363,0,.4-.036.4-.4V13.176a40.038,40.038,0,0,0,6.941,3.852,2.5,2.5,0,0,0,.836.291c.254,0,.363-.254.618-.908a10.793,10.793,0,0,1,1.563-2.726A32.725,32.725,0,0,1,358.821,3.291a3.092,3.092,0,0,1,.509-.327.6.6,0,0,0,.363-.581c0-.254-.218-.4-.654-.509a27.851,27.851,0,0,0-3.925-.763,10.838,10.838,0,0,1-1.272,2.362,30.333,30.333,0,0,1-13.955,10.575,8.5,8.5,0,0,1,1.635,2.4c.291.654.4.909.654.909a2.381,2.381,0,0,0,.872-.327,42.5,42.5,0,0,0,6.578-3.925Zm4.506-3.053c-2.653,0-3.67-.036-4-.073a33.911,33.911,0,0,0,6.65-6.65,33.112,33.112,0,0,0,6.868,6.65c-.4.036-1.49.073-3.925.073Zm45.207,3.307v4.906H398c-3.053,0-4.106-.073-4.361-.073-.363,0-.4.036-.4.4,0,.218.073,1.236.073,4.106v2.835c0,5.015-.073,5.96-.073,6.214,0,.327.036.363.4.363h2.98c.363,0,.4-.036.4-.363v-1.49h8.649v1.308c0,.327.036.363.4.363h2.98c.363,0,.4-.036.4-.363,0-.218-.073-1.163-.073-6.141V24.914c0-2.326.073-3.343.073-3.561,0-.363-.036-.4-.4-.4-.218,0-1.308.073-4.361.073h-1.526V16.119h2.98c3.38,0,4.543.073,4.761.073.363,0,.4-.036.4-.4V13.031c0-.327-.036-.363-.4-.363-.218,0-1.381.073-4.761.073h-2.98V7.034c1.635-.4,3.2-.872,4.652-1.381a5.785,5.785,0,0,1,1.417-.291c.509,0,.727-.145.727-.4a.982.982,0,0,0-.254-.618,25.94,25.94,0,0,0-2.18-2.616,8,8,0,0,1-1.853.909A51.8,51.8,0,0,1,391.891,5.4a6.785,6.785,0,0,1,1.272,2.471c.291.872.291.908,1.163.8q2.562-.327,5.015-.763V12.74h-2.362c-3.38,0-4.506-.073-4.724-.073-.363,0-.4.036-.4.363v2.762c0,.363.036.4.4.4.218,0,1.345-.073,4.724-.073ZM397.014,24.3h8.649v5.487h-8.649ZM390.655,26c0-1.708.073-2.58.073-2.8,0-.363-.036-.4-.4-.4-.254,0-.981.073-3.343.073H383.5c-2.326,0-3.089-.073-3.307-.073-.4,0-.436.036-.436.4,0,.254.073,1.127.073,3.416v2.435c0,4.4-.073,5.233-.073,5.487,0,.327.036.363.436.363h2.653c.363,0,.4-.036.4-.363V32.872h4.034v.981c0,.363.036.4.4.4h2.653c.363,0,.4-.036.4-.4,0-.218-.073-1.018-.073-5.233Zm-3.38-.109v4h-4.034v-4ZM382.515,7.979c-2.762,0-3.67-.073-3.888-.073-.327,0-.363.036-.363.4v2.58c0,.4.036.436.363.436.218,0,1.127-.073,3.888-.073h4.979c2.762,0,3.67.073,3.888.073.363,0,.4-.036.4-.436V8.306c0-.363-.036-.4-.4-.4-.218,0-1.127.073-3.888.073ZM383.605,3c-2.362,0-3.089-.073-3.307-.073-.363,0-.4.036-.4.4v2.4c0,.363.036.4.4.4.218,0,.945-.073,3.307-.073h3.489c2.326,0,3.053.073,3.271.073.4,0,.436-.036.436-.4v-2.4c0-.363-.036-.4-.436-.4-.218,0-.945.073-3.271.073Zm.109,10.1c-2.217,0-2.871-.073-3.089-.073-.363,0-.4.036-.4.4v2.362c0,.363.036.4.4.4.218,0,.872-.073,3.089-.073H386.8c2.217,0,2.835.073,3.053.073.4,0,.436-.036.436-.4V13.43c0-.363-.036-.4-.436-.4-.218,0-.836.073-3.053.073Zm0,4.87c-2.217,0-2.871-.073-3.089-.073-.363,0-.4.036-.4.4v2.326c0,.363.036.4.4.4.218,0,.872-.073,3.089-.073H386.8c2.217,0,2.835.073,3.053.073.4,0,.436-.036.436-.4V18.3c0-.363-.036-.4-.436-.4-.218,0-.836.073-3.053.073Z" transform="translate(51 194.451)" fill="#aa68aa"/>
    </g>
  </g>
</svg>
