<svg width="307" height="245" viewBox="0 0 307 245" fill="none" xmlns="http://www.w3.org/2000/svg">
<rect x="1.5" y="1.5" width="304" height="242" rx="18.5" fill="#AA68AA" stroke="black" stroke-width="3"/>
<rect x="65" y="18" width="171" height="40" rx="20" fill="black" fill-opacity="0.2"/>
<rect x="38.5" y="165.5" width="236" height="51" rx="18.5" fill="#FFFBFB" stroke="black" stroke-width="3"/>
<path d="M239.088 73.9212L232.571 84.6372L230.291 83.2502L236.808 72.5342L239.088 73.9212ZM231.564 86.5752L229.873 89.2352L227.479 87.6962L229.17 85.0552L231.564 86.5752Z" fill="white"/>
<path d="M219.517 83.7823C219.517 85.4163 218.985 86.7653 217.94 87.8293C216.895 88.8933 215.546 89.4253 213.912 89.4253C212.715 89.4253 211.746 89.0453 210.986 88.3043C210.226 87.5633 209.846 86.5943 209.846 85.4163C209.846 84.4473 210.226 83.6113 211.005 82.9463C211.746 82.3003 212.601 81.9773 213.589 81.9773C214.843 81.9773 215.869 82.5093 216.648 83.5733C216.553 82.5093 216.135 81.5973 215.375 80.8183C214.843 80.2673 213.988 79.6783 212.829 79.0703L214.52 75.6693H210.701V72.8193H219.118L216.553 77.9873C217.427 78.6903 218.13 79.5643 218.662 80.5713C219.232 81.6353 219.517 82.6993 219.517 83.7823ZM216.363 85.0743L214.843 85.7203C214.748 85.4733 214.596 85.2453 214.349 85.0363C214.102 84.8273 213.855 84.7323 213.589 84.7323C213.399 84.7323 213.209 84.8083 213 84.9413C212.791 85.0743 212.696 85.2453 212.696 85.4163C212.696 86.1953 213.095 86.5753 213.912 86.5753C215.09 86.5753 215.907 86.0813 216.363 85.0743Z" fill="white"/>
<path d="M202.17 76.0493L200.859 77.4173L199.491 76.1063L198.161 77.4553L196.812 76.1633L198.142 74.7953L199.491 76.1063L200.821 74.7383L202.17 76.0493ZM203.842 83.6493L202.018 85.8533C196.679 81.4263 193.943 79.2223 193.829 79.2223C193.544 79.2223 192.765 79.9063 191.454 81.2933C190.751 82.0343 190.067 82.7943 189.383 83.5543L187.35 81.5593C188.205 80.6473 189.497 79.2983 191.226 77.5313C192.024 76.7523 192.898 76.3723 193.848 76.3723C194.589 76.3723 195.254 76.6193 195.843 77.0943L203.842 83.6493Z" fill="white"/>
<path d="M182.219 82.6423C182.219 83.1743 182.162 83.7253 182.048 84.3143L179.616 83.7823C179.711 83.3833 179.768 82.9843 179.768 82.6233C179.768 81.1983 179.046 80.4953 177.583 80.4953C176.823 80.4953 175.968 80.6663 175.037 81.0273L176.937 88.4373L174.543 89.0453L172.757 82.1483C172.377 82.3763 171.997 82.6233 171.636 82.8703L170.23 80.8373C170.857 80.4003 171.503 80.0013 172.13 79.6593L171.541 77.3603L173.935 76.7333L174.41 78.6333C175.151 78.3673 175.854 78.1963 176.538 78.1013L175.36 76.9233L177.108 75.1753L179.103 77.1703L178.229 78.0443C179.502 78.1773 180.471 78.6523 181.174 79.4693C181.877 80.2863 182.219 81.3503 182.219 82.6423Z" fill="white"/>
<path d="M161.434 86.8603L160.712 89.6153C156.095 88.3803 153.777 84.4473 153.777 77.7973C153.777 76.2583 153.891 74.4343 154.138 72.3633L156.969 72.6863C156.741 74.6053 156.627 76.2963 156.627 77.7973C156.627 80.0963 156.912 81.9203 157.463 83.3073C158.242 85.1883 159.553 86.3663 161.434 86.8603Z" fill="white"/>
<path d="M144.219 82.6423C144.219 83.1743 144.162 83.7253 144.048 84.3143L141.616 83.7823C141.711 83.3833 141.768 82.9843 141.768 82.6233C141.768 81.1983 141.046 80.4953 139.583 80.4953C138.823 80.4953 137.968 80.6663 137.037 81.0273L138.937 88.4373L136.543 89.0453L134.757 82.1483C134.377 82.3763 133.997 82.6233 133.636 82.8703L132.23 80.8373C132.857 80.4003 133.503 80.0013 134.13 79.6593L133.541 77.3603L135.935 76.7333L136.41 78.6333C137.151 78.3673 137.854 78.1963 138.538 78.1013L137.36 76.9233L139.108 75.1753L141.103 77.1703L140.229 78.0443C141.502 78.1773 142.471 78.6523 143.174 79.4693C143.877 80.2863 144.219 81.3503 144.219 82.6423Z" fill="white"/>
<path d="M124.022 77.1892H119.348L119.044 79.8112C120.165 80.1912 121.058 80.8372 121.761 81.7302C122.445 82.6232 122.787 83.6492 122.787 84.8082C122.787 85.7962 122.483 86.7272 121.875 87.6012C121.324 88.3992 120.583 89.0642 119.652 89.5772L118.246 87.1072C119.367 86.4802 119.937 85.7012 119.937 84.7702C119.937 83.8012 119.481 83.1172 118.55 82.7182C118.018 82.4712 117.144 82.3002 115.909 82.1862L116.479 77.1892H114.123V74.3392H116.802L117.049 72.1162L119.88 72.4392L119.671 74.3392H124.022V77.1892Z" fill="white"/>
<path d="M106.543 82.8133C106.543 85.1503 105.213 87.1453 102.534 88.7603L101.261 86.6513C103.142 85.5113 104.073 84.2193 104.073 82.7563C104.073 81.9963 103.731 81.4073 103.066 80.9893C102.496 80.6283 101.812 80.4573 100.995 80.4573C99.4183 80.4573 97.6513 81.0653 95.6943 82.2623L94.4023 80.1723C96.7393 78.7093 98.9433 77.9873 100.995 77.9873C102.534 77.9873 103.826 78.4053 104.852 79.2223C105.973 80.1153 106.543 81.3123 106.543 82.8133Z" fill="white"/>
<path d="M89.2719 82.5663C89.2719 83.8393 88.9869 85.0933 88.3979 86.3283L85.8139 85.1123C86.2129 84.2763 86.4219 83.4213 86.4219 82.5663C86.4219 80.9133 85.7569 79.6213 84.4269 78.6903C83.8379 80.8373 83.1159 82.6613 82.2989 84.1433C81.3679 85.7963 80.1519 87.3163 78.6319 88.7033C76.9789 88.0953 75.7819 87.3923 75.0409 86.5753C74.1479 85.6063 73.7109 84.3143 73.7109 82.6993C73.7109 81.5023 74.1099 80.2863 74.8889 79.0513C75.5919 77.9303 76.4849 76.9993 77.5679 76.2583V73.5413H80.0759V75.1943C80.8169 75.0043 81.5769 74.9473 82.3179 75.0423C82.4509 74.2633 82.5459 73.5033 82.6029 72.8003L85.4339 73.0283C85.3769 73.9213 85.2439 74.8523 85.0729 75.8023C86.3649 76.4293 87.3909 77.3603 88.1509 78.5763C88.8919 79.7923 89.2719 81.1223 89.2719 82.5663ZM81.6909 77.8543C81.5199 77.8353 81.3869 77.8353 81.2539 77.8353C80.9689 77.8353 80.5699 77.9493 80.0759 78.1583V82.1863C80.7219 80.8943 81.2539 79.4503 81.6909 77.8543ZM79.9429 82.4523L77.6819 82.4143V79.8493C77.3589 80.1533 77.0929 80.5903 76.8839 81.1413C76.6749 81.6923 76.5609 82.2243 76.5609 82.6993C76.5609 83.9343 77.0359 84.8083 78.0049 85.3403C78.7079 84.5423 79.3539 83.5733 79.9429 82.4523Z" fill="white"/>
<line x1="239.976" y1="91.1093" x2="263.609" y2="67.4767" stroke="white" stroke-width="2"/>
<line x1="41.7071" y1="67.4765" x2="65.3397" y2="91.1091" stroke="white" stroke-width="2"/>
<path d="M217.156 45.1644H202.773L207.485 31.6934L210.164 32.6434L206.782 42.3144H213.432L212.501 38.7614L215.237 38.0394L217.156 45.1644Z" fill="white"/>
<path d="M196.181 34.1629H185.142V31.2749H196.181V34.1629ZM197.188 36.0819L196.846 37.7919C196.124 41.4209 193.958 44.7269 190.367 47.7099L188.543 45.5249C190.994 43.4919 192.666 41.3069 193.559 38.9319H183.717V36.0819H197.188Z" fill="white"/>
<path d="M180.202 31.5791L178.872 32.9281L177.523 31.6171L176.193 32.9851L174.844 31.6741L176.155 30.3061L177.523 31.6171L178.853 30.2681L180.202 31.5791ZM178.872 34.4291C176.345 40.2811 173.248 44.7271 169.581 47.7671L167.776 45.5631C170.683 43.1501 173.153 39.8631 175.167 35.7021L171.728 33.9161L167.719 38.9891L165.477 37.2411L170.949 30.2871L178.872 34.4291Z" fill="white"/>
<path d="M159.111 45.4112H146.457V32.7192H159.111V45.4112ZM156.261 42.5612V35.5692H149.307V42.5612H156.261Z" fill="white"/>
<path d="M142.581 32.3011C142.581 32.9281 142.372 33.4411 141.935 33.8781C141.498 34.3151 140.966 34.5431 140.339 34.5431C139.997 34.5431 139.674 34.4671 139.389 34.3151C138.42 39.2171 136.14 43.5681 132.511 47.3871L130.44 45.4301C133.328 42.3711 135.285 38.9321 136.292 35.0941H126.887V32.2441H138.097C138.116 31.6361 138.344 31.1231 138.781 30.6861C139.218 30.2681 139.731 30.0591 140.339 30.0591C140.966 30.0591 141.498 30.2681 141.935 30.7051C142.372 31.1421 142.581 31.6741 142.581 32.3011ZM141.441 32.3011C141.441 31.9971 141.327 31.7311 141.118 31.5221C140.909 31.3131 140.643 31.1991 140.339 31.1991C140.054 31.1991 139.788 31.2941 139.579 31.5031C139.37 31.7121 139.256 31.9591 139.237 32.2441C139.218 32.5671 139.332 32.8331 139.541 33.0611C139.75 33.2891 140.016 33.4031 140.339 33.4031C140.643 33.4031 140.909 33.2891 141.118 33.0801C141.327 32.8711 141.441 32.6051 141.441 32.3011Z" fill="white"/>
<path d="M122.803 43.5871H116.685V47.7101H114.025V43.5871H105.57V40.9271H107.793V35.9871H114.025V34.3531H105.627C106.026 33.1751 106.52 31.6741 107.071 29.8691L109.845 30.4011L109.408 31.6931H122.537V34.3531H116.685V35.9871H121.91V38.6471H116.685V40.9271H122.803V43.5871ZM114.025 40.9271V38.6471H110.453V40.9271H114.025Z" fill="white"/>
<path d="M90.6734 31.8261L88.8114 33.7071L86.8164 31.7691L88.6974 29.8691L90.6734 31.8261ZM104.334 46.6081C102.605 47.2541 100.724 47.5771 98.6914 47.5771C97.0384 47.5771 95.4994 47.3491 94.0364 46.9121C92.3264 46.3991 90.9774 45.6391 89.9704 44.6321L88.4314 46.4751L86.3984 44.7651L88.6974 42.0101V37.6211H86.9304V34.9611H91.3574V42.1241C91.6044 42.5231 91.9464 42.8651 92.3644 43.1691V33.8971H95.1004L94.9294 33.6691L96.4684 32.4151H92.5164V30.1351H103.479L100.933 33.8971H103.935V43.5111H101.37V35.9871H99.3754V36.7281H100.876V38.5331H99.3754V39.3881H100.876V41.1931H99.3754V43.5871H96.9054V41.1931H94.9294V43.5871H93.0104C94.4924 44.4041 96.4114 44.8221 98.7674 44.8221C100.553 44.8221 102.187 44.5751 103.688 44.0811L104.334 46.6081ZM98.9954 32.4151H97.0764L98.1214 33.6881L98.9954 32.4151ZM96.9054 36.7281V35.9871H94.9294V36.7281H96.9054ZM96.9054 39.3881V38.5331H94.9294V39.3881H96.9054Z" fill="white"/>
<path d="M275.086 130.921L268.569 141.637L266.289 140.25L272.806 129.534L275.086 130.921ZM267.562 143.575L265.871 146.235L263.477 144.696L265.168 142.055L267.562 143.575Z" fill="white"/>
<path d="M259.43 138.54H249.265V136.07H251.165L251.469 134.55H250.215V132.308H252.001L252.172 131.51H249.455V129.135H259.335V131.51H254.699L254.528 132.308H257.91V136.07H259.43V138.54ZM248.923 133.049H241.627V130.579H243.85V128.888H246.51V130.579H248.923V133.049ZM258.594 146.387H249.911V139.338H258.594V146.387ZM248.467 136.013H242.178V133.733H248.467V136.013ZM248.467 139.072H242.178V136.792H248.467V139.072ZM248.486 146.292H242.121V139.832H248.486V146.292ZM255.44 136.07V134.55H253.996L253.692 136.07H255.44ZM256.124 143.917V141.808H252.381V143.917H256.124ZM246.263 144.069V142.055H244.344V144.069H246.263Z" fill="white"/>
<path d="M239.84 132.555H236.724V133.505H234.064V132.555H228.934V133.505H226.274V132.555H223.177V129.895H226.274V128.66H228.934V129.895H234.064V128.66H236.724V129.895H239.84V132.555ZM239.688 144.563L238.32 146.843L234.235 144.373L235.603 142.093L239.688 144.563ZM240.239 141.105H231.024C229.789 143.518 227.775 145.418 224.982 146.843L223.766 144.487C225.571 143.556 226.958 142.435 227.927 141.105H222.664V138.445H224.925V134.36H229.96C229.979 133.999 229.979 133.619 229.979 133.22H232.639C232.639 133.619 232.639 133.999 232.62 134.36H238.073V138.445H240.239V141.105ZM235.413 138.445V136.64H232.411C232.316 137.267 232.202 137.875 232.05 138.445H235.413ZM229.713 136.64H227.585V138.445H229.276C229.447 137.894 229.599 137.286 229.713 136.64Z" fill="white"/>
<path d="M220.67 140.535C219.625 141.523 218.371 142.454 216.946 143.347C215.369 144.316 213.963 144.981 212.747 145.342L210.904 145.874V130.389H213.754V141.865C215.635 140.934 217.288 139.794 218.713 138.445L220.67 140.535ZM209.612 131.985L208.054 144.05L205.223 143.67L206.781 131.605L209.612 131.985Z" fill="white"/>
<path d="M202.241 143.062L199.581 144.088C197.871 139.604 196.389 135.918 195.154 133.03L197.738 131.928L196.845 131.054L198.156 129.686L199.524 130.997L200.854 129.648L202.203 130.959L200.873 132.308L199.524 130.997L198.194 132.365L197.814 132.004C199.049 134.911 200.531 138.597 202.241 143.062ZM191.734 132.65C191.012 137.096 189.758 141.086 187.972 144.62L185.426 143.328C187.079 140.06 188.257 136.355 188.922 132.194L191.734 132.65Z" fill="white"/>
<path d="M182.404 138.977H166.824V136.317H182.404V138.977Z" fill="white"/>
<path d="M162.111 144.411H149.457V131.719H162.111V144.411ZM159.261 141.561V134.569H152.307V141.561H159.261Z" fill="white"/>
<path d="M145.202 130.579L143.872 131.928L142.523 130.617L141.193 131.985L139.844 130.674L141.155 129.306L142.523 130.617L143.853 129.268L145.202 130.579ZM143.872 133.429C141.345 139.281 138.248 143.727 134.581 146.767L132.776 144.563C135.683 142.15 138.153 138.863 140.167 134.702L136.728 132.916L132.719 137.989L130.477 136.241L135.949 129.287L143.872 133.429Z" fill="white"/>
<path d="M108.836 144.468H126.164V146.33H108.836V144.468ZM110.622 141.561H124.606V143.328H110.622V141.561ZM116.303 140.459H118.602V145.418H116.303V140.459ZM108.874 129.971H117.405V131.434H108.874V129.971ZM117.158 135.367L118.26 133.885C118.78 134.163 119.331 134.486 119.913 134.854C120.509 135.208 121.066 135.576 121.585 135.956C122.117 136.323 122.548 136.671 122.877 137.001L121.699 138.654C121.395 138.337 120.984 137.982 120.464 137.59C119.958 137.184 119.413 136.785 118.83 136.393C118.248 136 117.69 135.658 117.158 135.367ZM112.161 128.869H114.27V130.845H112.161V128.869ZM112.332 136.982H114.251V139.623C114.251 140.028 114.194 140.332 114.08 140.535C113.966 140.725 113.751 140.877 113.434 140.991C113.118 141.079 112.731 141.136 112.275 141.162C111.819 141.174 111.281 141.181 110.66 141.181C110.622 140.953 110.546 140.712 110.432 140.459C110.318 140.205 110.211 139.984 110.109 139.794C110.375 139.806 110.635 139.813 110.888 139.813C111.142 139.813 111.37 139.813 111.572 139.813C111.788 139.813 111.933 139.813 112.009 139.813C112.136 139.813 112.218 139.794 112.256 139.756C112.307 139.718 112.332 139.648 112.332 139.547V136.982ZM108.779 137.495C109.514 137.469 110.35 137.444 111.287 137.419C112.225 137.393 113.225 137.362 114.289 137.324C115.353 137.286 116.411 137.248 117.462 137.21L117.443 138.616C116.405 138.654 115.372 138.698 114.346 138.749C113.32 138.799 112.339 138.844 111.401 138.882C110.477 138.907 109.641 138.932 108.893 138.958L108.779 137.495ZM109.881 135.253H115.277V136.507H109.881V135.253ZM117.69 131.187H123.637V133.163H117.69V131.187ZM114.764 135.253H115.239L115.6 135.158L116.664 136.089C116.234 136.443 115.752 136.792 115.22 137.134C114.688 137.476 114.188 137.78 113.719 138.046C113.631 137.906 113.498 137.748 113.32 137.571C113.156 137.381 113.01 137.235 112.883 137.134C113.213 136.918 113.555 136.665 113.909 136.374C114.277 136.07 114.562 135.791 114.764 135.538V135.253ZM122.668 131.187H124.682C124.67 132.251 124.663 133.251 124.663 134.189C124.663 135.113 124.682 135.937 124.72 136.659C124.758 137.368 124.815 137.925 124.891 138.331C124.98 138.736 125.1 138.939 125.252 138.939C125.341 138.939 125.411 138.73 125.461 138.312C125.512 137.881 125.544 137.343 125.556 136.697C125.721 136.925 125.911 137.165 126.126 137.419C126.354 137.659 126.563 137.856 126.753 138.008C126.715 138.679 126.639 139.23 126.525 139.661C126.411 140.091 126.24 140.408 126.012 140.611C125.797 140.813 125.487 140.915 125.081 140.915C124.499 140.915 124.043 140.668 123.713 140.174C123.384 139.667 123.15 138.97 123.01 138.084C122.871 137.184 122.776 136.146 122.725 134.968C122.687 133.79 122.668 132.529 122.668 131.187ZM111.439 133.03V133.714H114.764V133.03H111.439ZM109.539 131.928H116.778V134.797H109.539V131.928ZM119.571 129.059H121.49V132.175C121.49 132.833 121.446 133.549 121.357 134.322C121.281 135.082 121.117 135.854 120.863 136.64C120.623 137.412 120.255 138.16 119.761 138.882C119.28 139.591 118.634 140.237 117.823 140.82C117.735 140.668 117.608 140.503 117.443 140.326C117.291 140.136 117.127 139.952 116.949 139.775C116.772 139.597 116.614 139.458 116.474 139.357C117.171 138.863 117.722 138.312 118.127 137.704C118.545 137.083 118.856 136.45 119.058 135.804C119.261 135.158 119.394 134.518 119.457 133.885C119.533 133.251 119.571 132.662 119.571 132.118V129.059Z" fill="white"/>
<path d="M107.431 143.727L105.911 145.893L101.161 142.549L102.681 140.364L107.431 143.727ZM107.013 139.547H99.6405V146.463H96.9805V139.547H89.9315V136.887H96.9805V132.973H90.5775V130.313H96.9805V128.983H99.6405V130.313H106.424V132.973H99.6405V136.887H103.536L101.332 136.279L102.224 133.049L104.79 133.771L103.934 136.887H107.013V139.547ZM95.4035 136.146L92.8575 136.887L91.9645 133.771L94.5295 133.049L95.4035 136.146ZM95.9165 142.606L90.9765 145.893L89.4375 143.727L94.3775 140.421L95.9165 142.606Z" fill="white"/>
<path d="M88.3722 143.632L86.5863 145.608L82.0262 141.238L83.8122 139.262L88.3722 143.632ZM87.9543 138.16H80.7342V146.71H78.0742V138.16H71.0442V135.5H78.0742V133.41H72.2792V130.75H78.0742V128.66H80.7342V130.75H86.8143V133.41H80.7342V135.5H87.9543V138.16ZM76.8773 141.238L72.3172 145.608L70.5312 143.632L75.0912 139.262L76.8773 141.238Z" fill="white"/>
<path d="M67.6445 135.88H64.5665V145.988H61.7165V135.88H54.3255V133.03H61.7165V129.819H64.5665V133.03H67.6445V135.88ZM60.3865 138.008C58.9615 140.63 57.2515 142.986 55.2185 145.057L53.1855 143.062C55.0285 141.181 56.5865 139.034 57.8785 136.659L60.3865 138.008Z" fill="white"/>
<path d="M47.9598 130.978C47.8268 134.208 47.3898 136.925 46.6678 139.129C45.8128 141.77 44.4258 144.126 42.5068 146.216L40.3978 144.297C42.9248 141.523 44.4448 138.027 44.9198 133.828H37.5668V138.331H34.7168V130.978H47.9598Z" fill="white"/>
<path d="M258.27 107.65L256.598 109.93L252.988 107.289L254.679 104.99L258.27 107.65ZM266.725 111.697C263.514 115.098 259.619 118.062 255.078 120.589L253.71 118.081C257.985 115.706 261.652 112.913 264.673 109.74L266.725 111.697Z" fill="white"/>
<path d="M248.62 119.335L246.492 121.235L241.362 115.459C239.823 117.568 238.17 119.525 236.403 121.292L234.389 119.278C237.657 116.01 240.279 112.438 242.255 108.562H235.301V105.712H246.644C245.39 108.714 244.174 111.146 242.996 113.008L248.62 119.335Z" fill="white"/>
<path d="M223.215 112.514L220.783 112.894L220.251 109.417L222.683 109.056L223.215 112.514ZM228.307 109.949C227.946 112.02 227.186 114.072 226.027 116.086C224.906 118.043 223.557 119.772 221.961 121.235L220.289 119.43C221.695 118.119 222.892 116.618 223.861 114.908C224.868 113.141 225.552 111.355 225.875 109.512L228.307 109.949ZM219.358 113.217L216.907 113.578L216.375 110.12L218.826 109.74L219.358 113.217Z" fill="white"/>
<path d="M210.259 114.756C206.554 117.701 203.001 119.506 199.562 120.152L197.852 120.475V106.225H200.702V116.884C203.267 116.067 205.87 114.623 208.473 112.514L210.259 114.756Z" fill="white"/>
<path d="M182.27 107.65L180.598 109.93L176.988 107.289L178.679 104.99L182.27 107.65ZM190.725 111.697C187.514 115.098 183.619 118.062 179.078 120.589L177.71 118.081C181.985 115.706 185.652 112.913 188.673 109.74L190.725 111.697Z" fill="white"/>
<path d="M171.175 106.567L166.995 109.322V121.33H164.145V111.184L158.882 114.661L157.305 112.286L169.598 104.173L171.175 106.567Z" fill="white"/>
<path d="M151.681 108.163H140.642V105.275H151.681V108.163ZM152.688 110.082L152.346 111.792C151.624 115.421 149.458 118.727 145.867 121.71L144.043 119.525C146.494 117.492 148.166 115.307 149.059 112.932H139.217V110.082H152.688Z" fill="white"/>
<path d="M125.27 107.65L123.598 109.93L119.988 107.289L121.679 104.99L125.27 107.65ZM133.725 111.697C130.514 115.098 126.619 118.062 122.078 120.589L120.71 118.081C124.985 115.706 128.652 112.913 131.673 109.74L133.725 111.697Z" fill="white"/>
<path d="M115.145 110.88H112.067V120.988H109.217V110.88H101.826V108.03H109.217V104.819H112.067V108.03H115.145V110.88ZM107.887 113.008C106.462 115.63 104.752 117.986 102.719 120.057L100.686 118.062C102.529 116.181 104.087 114.034 105.379 111.659L107.887 113.008Z" fill="white"/>
<path d="M92.7235 113.597H89.1135C89.4365 116.162 90.5385 118.1 92.3815 119.411L90.7475 121.729C88.1445 119.886 86.6435 117.188 86.2635 113.597H84.4395V110.842H86.1875C86.2065 110.253 86.2445 109.759 86.3015 109.36H84.5915V106.586H86.7575C86.9285 105.845 87.1185 105.066 87.3655 104.249L90.1015 105.028L89.6835 106.586H92.5525V109.36H89.1515C89.0945 109.759 89.0565 110.253 89.0185 110.842H92.7235V113.597Z" fill="white"/>
<path d="M76.8014 106.016L75.4714 107.384L74.1224 106.073L72.7924 107.441L71.4434 106.13L72.7544 104.762L74.1224 106.073L75.4524 104.705L76.8014 106.016ZM73.2674 110.595C71.9944 110.842 70.9114 111.355 70.0184 112.134C69.0114 113.008 68.4984 114.053 68.4984 115.269C68.4984 116.162 68.8784 116.903 69.6574 117.492C70.3034 117.986 71.1204 118.309 72.0894 118.461L71.6144 121.273C69.9044 120.988 68.5174 120.342 67.4534 119.354C66.2564 118.252 65.6484 116.884 65.6484 115.231C65.6484 113.293 66.4274 111.602 67.9854 110.177H67.2634V104.344H70.1134V108.695C70.9304 108.277 71.8044 107.973 72.6974 107.802L73.2674 110.595Z" fill="white"/>
<path d="M59.7778 114.642H52.4248V121.71H49.7648V114.642H42.2598V111.982H49.7648V109.987L52.6718 107.08H43.7228V104.42H59.0938L52.4248 111.089V111.982H59.7778V114.642Z" fill="white"/>
<path d="M212.842 194.649L211.018 196.853C205.679 192.426 202.943 190.222 202.829 190.222C202.544 190.222 201.765 190.906 200.454 192.293C199.751 193.034 199.067 193.794 198.383 194.554L196.35 192.559C197.205 191.647 198.497 190.298 200.226 188.531C201.024 187.752 201.898 187.372 202.848 187.372C203.589 187.372 204.254 187.619 204.843 188.094L212.842 194.649Z" fill="#AA68AA"/>
<path d="M192.455 191.799L191.239 194.364L184.114 190.963V200.102H181.264V183.344H184.114V190.032L184.988 188.227L192.455 191.799Z" fill="#AA68AA"/>
<path d="M172.675 185.567L168.495 188.322V200.33H165.645V190.184L160.382 193.661L158.805 191.286L171.098 183.173L172.675 185.567Z" fill="#AA68AA"/>
<path d="M154.968 189.937H152.441C152.004 194.269 150.693 197.898 148.527 200.843L146.228 199.133C148.052 196.682 149.173 193.604 149.572 189.937H145.544V193.3H142.694V189.937H140.129V187.087H142.694V184.028H145.544V187.087H149.781C149.819 186.118 149.838 184.902 149.838 183.439H152.688C152.688 184.864 152.669 186.08 152.631 187.087H154.968V189.937Z" fill="#AA68AA"/>
<path d="M137.089 198.905L135.056 200.615C132.282 197.29 130.534 193.262 129.831 188.531H119.951V185.871H129.508C129.432 184.921 129.375 183.933 129.356 182.888L132.016 182.812C132.035 183.819 132.092 184.826 132.187 185.871H133.821L132.738 184.009L134.714 182.812L135.968 184.959L134.505 185.871H137.051V188.531H132.51C133.156 192.559 134.676 196.017 137.089 198.905ZM130.002 198.791L120.217 200.121L119.875 197.499L123.371 197.024V192.54H120.426V189.88H128.786V192.54H126.031V196.663L129.66 196.169L130.002 198.791Z" fill="#AA68AA"/>
<path d="M117.955 188.949L115.903 190.659L110.659 184.37L112.711 182.66L117.955 188.949ZM108.056 184.37L102.907 190.659L100.855 188.949L106.004 182.66L108.056 184.37ZM116.435 199.76H102.85L106.916 188.531L109.424 189.443L106.65 197.1H112.825L111.742 193.623L114.288 192.844L116.435 199.76Z" fill="#AA68AA"/>
</svg>
