<?xml version="1.0" encoding="UTF-8"?>
<svg id="_レイヤー_2" data-name="レイヤー_2" xmlns="http://www.w3.org/2000/svg" viewBox="0 0 1892.9 616.58">
  <defs>
    <style>
      .cls-1 {
        fill: #7ccad4;
      }

      .cls-2 {
        fill: #acdbe1;
      }

      .cls-3 {
        fill: #e2f2f4;
      }

      .cls-4 {
        fill: #83ccd5;
      }

      .cls-5 {
        fill: #80cbd4;
      }

      .cls-6 {
        fill: #e1f2f4;
      }

      .cls-7 {
        fill: #dff1f3;
      }

      .cls-8 {
        fill: #7dcad4;
      }

      .cls-9 {
        fill: #7fcbd4;
      }
    </style>
  </defs>
  <g id="_レイヤー_1-2" data-name="レイヤー_1">
    <g>
      <path class="cls-2" d="M506.2,287.56c.26-.61.53-1.22.79-1.83.88-.44,1.9-.72,2.61-1.35,8.02-7.02,17.31-11.7,27.29-15.21,22.86-8.03,46.55-9.81,70.43-8.25,16.09,1.05,32.05,3.77,46.86,10.84,2.25,1.07,3.69.56,4.93-1.6,2.6-4.54,6.17-8.28,10.43-11.25,19.61-13.7,41.13-16.02,63.81-10.16,3.94,1.02,5.98.39,8.13-3.12,7.99-13.07,18.86-23.23,32.73-29.82,20.85-9.91,42.39-11.84,64.43-4.31,3.59,1.23,5.82,1.01,8.49-2.27,6.58-8.11,15.77-11.75,25.88-13.61,13.64-2.51,26.67-.11,38.96,5.41,18.39,8.25,32.59,20.61,35.98,41.95.34,2.16,1.56,2.59,3.41,2.78,5.78.58,11.6.99,17.32,1.99,20.45,3.58,39.88,9.41,54.14,25.95.46,4.37-.02,8.69-1.88,12.62-1.71,3.63-.36,4.93,2.94,6.08,10.22,3.55,19.87,8.19,28.09,15.43,3.24,2.85,6.5,5.65,7.96,9.9-9.8,8.71-20.9,15.2-33.26,19.52-16.85,5.9-34.19,8.28-52.02,7.53-19.18-.81-36.79-7.1-53.71-15.48-8.04-3.98-14.89-9.99-22.22-15.18-.91-.64-1.97-1.92-2.98-.7-1,1.2.5,2.05,1.22,2.85,1.22,1.37,2.44,2.77,3.86,3.91,3.81,3.06,2.31,4.6-1.43,5.78-7.46,2.35-14.89,4.87-22.73,5.53-9.47.79-18.99,2.69-29.17-.34,9.45-5.38,17.59-11.32,22.66-20.87-26.4,14.83-52.86,14.84-79.6.69,4.48,9.45,12.75,14.35,21.13,20.31-4.15.56-7.37,1.34-10.61,1.37-20.57.21-40.39-3.07-58.5-13.53-2.35-1.36-4.11-1.39-6.22.56-3.31,3.06-7.22,5.17-11.41,6.98-8.94,3.87-18.28,3.24-27.55,3.02-14.27-.35-27.45-4.77-39.61-12.09-6.4-3.85-6.26-4.25.48-7.97,7.97-4.4,14.99-9.84,19.64-17.89,0,0,.24-.23.24-.23l-.22.24c-1.81-.13-3.05.91-4.46,1.87-8.86,6-18.34,11.13-28.73,13.42-9.83,2.17-20.03,3.24-30.11,3.54-18.26.54-36.59,1-54.75-1.88-19.42-3.08-38.82-6.34-53.66-21.12ZM832.88,240.74c-.08,2.12.76,3.91,2.1,5.45,17.42,20.1,42.99,25.58,65.47,8.05,4.78-3.73,9.31-7.97,12.04-13.85-2.22-.71-3.1.56-4.24,1.14-17.81,9.15-36.29,11.92-55.92,6.69-6.81-1.82-12.77-5.52-19.45-7.48Z"/>
      <path class="cls-1" d="M506.2,287.56c14.84,14.78,34.24,18.04,53.66,21.12,18.16,2.88,36.49,2.42,54.75,1.88,10.07-.3,20.28-1.37,30.11-3.54,10.39-2.29,19.87-7.42,28.73-13.42,1.41-.95,2.65-2,4.46-1.87h-.01c-4.65,8.03-11.66,13.47-19.64,17.87-6.75,3.72-6.88,4.13-.48,7.97,12.16,7.31,25.34,11.74,39.61,12.09,9.27.23,18.62.86,27.55-3.02,4.19-1.82,8.11-3.92,11.41-6.98,2.11-1.95,3.88-1.91,6.22-.56,18.11,10.46,37.93,13.73,58.5,13.53,3.23-.03,6.46-.81,10.61-1.37-8.38-5.96-16.65-10.86-21.13-20.31,26.74,14.15,53.2,14.14,79.6-.69-5.07,9.55-13.21,15.48-22.66,20.87,10.18,3.03,19.7,1.13,29.17.34,7.84-.66,15.27-3.18,22.73-5.53,3.75-1.18,5.24-2.72,1.43-5.78-1.42-1.14-2.64-2.54-3.86-3.91-.71-.8-2.21-1.65-1.22-2.85,1.01-1.22,2.07.06,2.98.7,7.32,5.19,14.17,11.2,22.22,15.18,16.92,8.38,34.53,14.67,53.71,15.48,17.83.75,35.17-1.63,52.02-7.53,12.37-4.33,23.47-10.82,33.26-19.52,8.07,9.03,6.61,24.81-2.52,35.09-10.89,12.25-25.01,18.34-40.2,22.86-18.56,5.53-37.59,7.04-56.76,5.89-17.7-1.06-34.88-5-50.83-13.09-3.62-1.84-6.23-1.49-9.58.66-21.61,13.88-44.46,16.71-68.46,6.85-2.38-.98-4.27-.86-6.61.07-24.97,9.95-48.58,7.01-70.61-8.15-4.49-3.09-8.48-6.95-12.41-10.75-2.34-2.26-3.28-2.18-4.96.74-7.44,12.9-19.07,19.4-33.69,19.47-12.82.06-24.21-4.77-34.5-12.56-8.9-6.75-16.39-14.61-21.53-24.5-2.08-4.01-4.52-4.21-8.42-3.12-30.13,8.41-60.12,7.72-89.77-2.29-12.75-4.31-24.36-10.67-33.44-20.93-6.66-7.52-10.58-16.06-9.44-26.39Z"/>
      <path class="cls-2" d="M1223.93,269.65c.25-1.17.49-2.33.74-3.5,4.2-2.37,8.17-5.31,12.63-7,20.18-7.68,40.91-8.99,61.57-2.7,6.8,2.07,10.82,2.07,16.44-3.35,9.82-9.46,22.77-9.93,35.65-7.3,3.28.67,5.14.37,6.81-2.8,1.44-2.74,3.54-5.29,5.85-7.38,13.86-12.51,29.95-15.71,47.79-10.86,1.71.47,3,.52,4.58-.67,21.3-16,48.96-7.66,57.49,17.36.78,2.28,1.8,3.14,4.17,3.28,14.31.84,27.37,4.95,38.11,14.94-2.56,8.59,1.83,12.32,9.38,15.07,5.05,1.84,9.44,5.56,11.68,10.98-.42.26-.86.49-1.27.78-23.99,16.78-49.09,18.72-75.49,6.01-5.1-2.46-9.15-6.44-14.24-8.8-.3-.13-.41-.98-.94-.25l.93.26c2.66,5.89,2.23,6.62-4.72,7.86-1.8.32-3.59.74-5.41.89-5.98.48-11.95,2.34-18.34.51,10.46-7.97,10.58-8.09,11.4-11.87-14.2,8.14-28.67,7.43-44.48.31,2.37,4.05,4.59,5.79,6.65,7.67,1.18,1.08,3.67,1.69,3.09,3.44-.7,2.11-3.22,1.14-4.91,1.11-10.73-.23-21.21-1.71-30.68-7.22-1.73-1.01-2.9-1.41-4.86-.08-11.48,7.82-32.19,7.14-43.86-1.02-2.87-2.01-3-3.2.23-4.66,3.76-1.7,6.38-4.54,8.26-8.08-2.4.71-4.35,1.93-6.39,2.96-10.43,5.25-21.9,5.74-33.09,5.95-19.04.35-37.93-1.33-54.75-11.85ZM1408.8,241.75l-.21-.23.23.2c-.08,1.58.5,2.87,1.57,4.04,7.24,7.92,16.37,10.85,26.55,8.46,6.92-1.63,12.44-6.23,17.09-13.38-7.47,2.97-13.55,5.98-20.76,6.09-8.68.13-16.75-1.43-24.48-5.18ZM1320.45,270.81l-.14-.28-.15.28h.28Z"/>
      <path class="cls-3" d="M1022.82,273.69c-14.26-16.54-33.69-22.37-54.14-25.95-5.72-1-11.54-1.41-17.32-1.99-1.85-.19-3.07-.62-3.41-2.78-3.39-21.33-17.59-33.7-35.98-41.95-12.29-5.51-25.32-7.92-38.96-5.41-10.11,1.86-19.31,5.5-25.88,13.61-2.67,3.29-4.89,3.5-8.49,2.27-22.04-7.53-43.58-5.6-64.43,4.31-13.87,6.59-24.74,16.75-32.73,29.82-2.15,3.51-4.19,4.13-8.13,3.12-22.68-5.85-44.21-3.54-63.81,10.16-4.26,2.98-7.84,6.71-10.43,11.25-1.24,2.16-2.68,2.67-4.93,1.6-14.81-7.07-30.78-9.79-46.86-10.84-23.89-1.56-47.57.22-70.43,8.25-9.98,3.5-19.27,8.19-27.29,15.21-.72.63-1.73.91-2.61,1.35,1.22-10.33,7.46-17.57,15.06-23.77,14.65-11.93,32.05-17.54,50.31-20.45,27.46-4.38,54.42-2.55,80.36,8.38.77.32,1.6.57,2.26,1.06,4.12,3.05,6.24,1.62,8.83-2.55,10.44-16.82,26.77-23.79,45.7-25.52,8.83-.81,17.72-.19,26.09,3.07,3.73,1.45,5.21.32,6.89-2.93,10.09-19.57,24.95-33.94,46.09-41.16,16.58-5.66,33.09-5.27,49.29,1.34,3.54,1.44,5.24,1.29,7.6-2.07,10.59-15.07,26.03-19,43.21-16.75,27.95,3.66,52.91,27.28,55.84,54.79.4,3.75,2.54,3.48,5.11,3.66,21.21,1.48,41.11,6.87,57.64,20.94,9.1,7.75,15.9,17.09,15.56,29.94Z"/>
      <path class="cls-1" d="M1445.81,283.72c5.09,2.36,9.14,6.34,14.24,8.8,26.4,12.71,51.5,10.77,75.49-6.01.41-.28.85-.52,1.27-.78,4.99,4.32,3.62,14.51-1.85,20.28-6.3,6.65-14.45,10.09-23.01,12.37-20.39,5.45-40.46,4.83-59.79-4.5-1.99-.96-3.57-1.03-5.53.26-12.18,8.03-25.1,10.13-38.81,4.25-1.99-.85-3.6,0-5.27.58-16.54,5.77-31.03,2.32-43.63-9.65-1.75-1.67-3.15-3.55-5.4-.25-9.86,14.5-27.62,10.68-37.58,3.22-5.1-3.82-9.51-8.31-12.37-14.09-1.42-2.87-3.46-2.38-5.88-1.71-13.53,3.77-27.19,4.35-40.89,1.12-10.29-2.43-20.15-5.89-27.56-14.01-3.59-3.93-6.03-8.36-5.32-13.96,16.82,10.52,35.71,12.2,54.75,11.85,11.19-.21,22.66-.69,33.09-5.95,2.04-1.03,3.99-2.25,6.39-2.96-1.88,3.54-4.5,6.38-8.26,8.08-3.23,1.46-3.1,2.65-.23,4.66,11.67,8.16,32.38,8.84,43.86,1.02,1.96-1.33,3.13-.93,4.86.08,9.48,5.51,19.96,6.99,30.68,7.22,1.69.04,4.21,1,4.91-1.11.58-1.75-1.91-2.36-3.09-3.44-2.06-1.87-4.28-3.61-6.65-7.67,15.81,7.12,30.28,7.83,44.48-.31-.82,3.78-.94,3.9-11.4,11.87,6.39,1.83,12.36-.03,18.34-.51,1.81-.15,3.61-.57,5.41-.89,6.94-1.25,7.38-1.98,4.72-7.86h.01Z"/>
      <path class="cls-2" d="M374.06,583.57c-.06-1.71-.6-3.5.69-5.02.67.64,1.4.78,2.26.33,15.92-8.35,32.33-9.06,49.15-3.15,1.42.5,2.49.51,3.52-.77,6.28-7.82,14.75-8.67,23.89-7.51,2.48.32,4.78.48,6.55-2.23,5.78-8.86,14.63-12.62,24.7-12.38,6.53.16,12.94,2.08,18.29-3.39.41-.42,1.24-.44,1.88-.62,11.69-3.34,25.1,4.1,28.69,14.86.77,2.32,2.1,3.53,4.16,3.57,8.65.18,16.11,3.39,22.95,8.41.78.85.64,1.82.37,2.8-.9,3.25.19,4.98,3.42,6.47,4.09,1.88,8.55,3.82,10.27,8.71-1.45.77-2.95,1.47-4.36,2.32-6.77,4.09-13.95,6.45-22,6.8-11.92.52-22.07-3.62-31.43-10.51-1.43,4.74-9.86,7.4-17.32,5.54.52-2.47,4-2.87,4.13-6.07-8.37,2.72-16.64,3.29-25.15,1.01,1.52,1.62,3.03,3.24,5.56,5.94-8.07-1.09-15.01-.49-21.42-3.57-2.37-1.14-4.56-1.84-7.07-.42-7.26,4.11-14.72,3.13-22.19.65-6.57-2.18-6.78-3.06-1.93-7.62.57-.53.86-1.36,1.28-2.05,0,0,.25-.27.25-.27l-.27.24c-2.47.95-4.86,2.24-7.42,2.81-17.65,3.92-34.88,2.85-51.44-4.89ZM520.14,565.27c-9.32,3.95-18.4,3.28-27.67.19,3.79,5.07,8.29,8.63,14.78,8.13,5.65-.43,10.18-2.95,12.88-8.32Z"/>
      <path class="cls-6" d="M1515.75,259.68c-10.74-9.99-23.8-14.11-38.11-14.94-2.36-.14-3.39-1-4.17-3.28-8.52-25.02-36.18-33.36-57.49-17.36-1.58,1.19-2.87,1.13-4.58.67-17.84-4.85-33.93-1.65-47.79,10.86-2.31,2.08-4.41,4.64-5.85,7.38-1.67,3.17-3.53,3.47-6.81,2.8-12.87-2.63-25.83-2.16-35.65,7.3-5.62,5.41-9.64,5.42-16.44,3.35-20.67-6.3-41.4-4.98-61.57,2.7-4.45,1.69-8.43,4.63-12.63,7,.28-6.13,4.18-10.07,8.69-13.28,15.81-11.25,33.78-13.32,52.46-11.54,7.48.71,14.78,2.52,21.58,5.89,2.3,1.14,3.72.95,5.35-1.39,9.25-13.29,22.47-16.5,37.42-13.29,4.72,1.01,6.52.06,8.78-3.91,11.38-19.94,33.94-27.47,52.12-19.73,2.39,1.02,3.51.2,4.92-1.63,6.24-8.09,14.88-10.71,24.48-8.89,15.96,3.03,26.71,12.4,30.63,28.46.92,3.78,2.69,4.71,6.07,4.94,10.18.7,19.56,3.83,27.9,9.81,6.22,4.46,10.22,10.23,10.67,18.09Z"/>
      <path class="cls-8" d="M374.06,583.57c16.57,7.74,33.79,8.81,51.44,4.89,2.55-.57,4.95-1.85,7.42-2.81l.03.03c-.42.69-.72,1.51-1.28,2.04-4.84,4.56-4.64,5.44,1.93,7.62,7.47,2.48,14.93,3.46,22.19-.65,2.51-1.42,4.7-.73,7.07.42,6.4,3.08,13.35,2.48,21.42,3.57-2.53-2.7-4.05-4.32-5.56-5.94,8.51,2.28,16.78,1.71,25.15-1.01-.13,3.2-3.61,3.59-4.13,6.07,7.46,1.86,15.88-.79,17.32-5.54,9.36,6.89,19.51,11.03,31.43,10.51,8.05-.35,15.23-2.71,22-6.8,1.41-.85,2.9-1.55,4.36-2.32,2.96,5.55,2.3,10.08-2.39,13.61-9.88,7.46-21.1,9.85-33.33,8.76-6.69-.6-13.22-1.43-19.2-4.69-1.62-.88-2.82-.07-4.12.76-7.03,4.48-14.51,5.31-22.37,2.56-1.97-.69-3.74-.77-5.76.07-9.93,4.12-18.6,1.05-26.35-5.35-2.32-1.92-3.13-2.13-5.31.34-7.35,8.32-21.95,6.12-28.6-4.74-2.92-4.77-5.61-4.7-10.47-4.03-14.26,1.97-28.36,1.83-39.66-9.37-2.23-2.21-3.74-4.68-3.23-7.99Z"/>
      <path class="cls-7" d="M560.78,575.66c-6.84-5.01-14.31-8.23-22.95-8.41-2.06-.04-3.39-1.25-4.16-3.57-3.58-10.76-16.99-18.2-28.69-14.86-.64.18-1.47.2-1.88.62-5.35,5.47-11.76,3.55-18.29,3.39-10.07-.25-18.92,3.52-24.7,12.38-1.77,2.71-4.07,2.55-6.55,2.23-9.13-1.17-17.61-.32-23.89,7.51-1.03,1.28-2.1,1.27-3.52.77-16.82-5.92-33.24-5.21-49.15,3.15-.86.45-1.58.3-2.26-.33,5.2-9.99,14.87-12.12,24.65-13.74,9.22-1.52,18.27-.56,26.9,3.27,1.87.83,3.22.94,4.69-1,5.95-7.83,13.96-10.46,23.41-8.3,3.09.71,4.6.1,6.29-2.7,7.25-12,18.17-16.29,32.04-12.91,1.74.42,2.94.58,4.48-.78,11.26-9.97,28.69-5.57,33.89,9.1,1.9,5.36,4.63,6.77,9.71,7.63,8.42,1.42,15.95,4.98,19.61,13.61.37.87.25,1.96.36,2.94Z"/>
      <path class="cls-9" d="M832.88,240.73c6.68,1.97,12.63,5.68,19.45,7.49,19.62,5.23,38.1,2.46,55.92-6.69,1.13-.58,2.01-1.85,4.24-1.14-2.73,5.88-7.26,10.12-12.04,13.85-22.48,17.53-48.05,12.05-65.47-8.05-1.34-1.55-2.18-3.34-2.1-5.45h0Z"/>
      <polygon class="cls-1" points="677.9 291.73 678.13 291.49 677.89 291.72 677.9 291.73"/>
      <path class="cls-5" d="M1408.8,241.75c7.73,3.75,15.8,5.31,24.48,5.18,7.21-.1,13.28-3.12,20.76-6.09-4.65,7.15-10.17,11.76-17.09,13.38-10.17,2.39-19.31-.54-26.55-8.46-1.07-1.17-1.65-2.46-1.57-4.04l-.02.02Z"/>
      <polygon class="cls-1" points="1320.45 270.81 1320.17 270.81 1320.32 270.53 1320.45 270.81"/>
      <path class="cls-1" d="M1445.8,283.74l-.93-.26c.53-.73.64.13.94.25,0,0-.01.01-.01.01Z"/>
      <polygon class="cls-5" points="1408.82 241.73 1408.59 241.52 1408.8 241.75 1408.82 241.73"/>
      <path class="cls-4" d="M520.14,565.27c-2.7,5.37-7.24,7.9-12.88,8.32-6.5.49-10.99-3.06-14.78-8.13,9.27,3.09,18.34,3.76,27.67-.19Z"/>
      <polygon class="cls-8" points="432.92 585.65 433.19 585.41 432.95 585.67 432.92 585.65"/>
      <path class="cls-2" d="M.12,443.54c.17-.39.34-.78.5-1.16.56-.28,1.21-.46,1.66-.86,5.1-4.47,11.02-7.45,17.37-9.68,14.55-5.11,29.62-6.24,44.82-5.25,10.24.67,20.39,2.4,29.82,6.9,1.43.68,2.35.36,3.14-1.02,1.65-2.89,3.93-5.27,6.64-7.16,12.48-8.72,26.17-10.19,40.61-6.47,2.51.65,3.81.25,5.17-1.98,5.09-8.31,12-14.78,20.83-18.97,13.27-6.31,26.97-7.53,41-2.74,2.28.78,3.7.64,5.4-1.45,4.19-5.16,10.04-7.48,16.47-8.66,8.68-1.6,16.97-.07,24.79,3.44,11.7,5.25,20.74,13.12,22.9,26.69.22,1.37.99,1.65,2.17,1.77,3.68.37,7.38.63,11.02,1.27,13.01,2.28,25.38,5.99,34.45,16.51.29,2.78-.02,5.53-1.19,8.03-1.09,2.31-.23,3.14,1.87,3.87,6.5,2.26,12.65,5.21,17.88,9.82,2.06,1.81,4.13,3.59,5.07,6.3-6.23,5.54-13.3,9.67-21.17,12.42-10.72,3.75-21.75,5.27-33.1,4.79-12.21-.51-23.41-4.52-34.18-9.85-5.12-2.53-9.48-6.36-14.14-9.66-.58-.41-1.25-1.22-1.9-.45-.63.76.32,1.3.77,1.81.78.87,1.55,1.76,2.46,2.49,2.42,1.95,1.47,2.93-.91,3.68-4.75,1.49-9.48,3.1-14.46,3.52-6.03.5-12.08,1.71-18.56-.22,6.02-3.43,11.19-7.2,14.42-13.28-16.8,9.44-33.64,9.44-50.65.44,2.85,6.01,8.11,9.13,13.44,12.93-2.64.35-4.69.85-6.75.87-13.09.13-25.7-1.95-37.23-8.61-1.49-.86-2.62-.89-3.96.36-2.1,1.95-4.6,3.29-7.26,4.44-5.69,2.46-11.63,2.06-17.53,1.92-9.08-.22-17.47-3.04-25.2-7.69-4.07-2.45-3.99-2.7.31-5.07,5.07-2.8,9.54-6.26,12.5-11.38,0,0,.15-.14.15-.14l-.14.15c-1.15-.09-1.94.58-2.84,1.19-5.64,3.82-11.67,7.08-18.28,8.54-6.25,1.38-12.75,2.06-19.16,2.25-11.62.34-23.28.63-34.84-1.2-12.36-1.96-24.7-4.04-34.15-13.44ZM208,413.75c-.05,1.35.48,2.49,1.34,3.47,11.09,12.79,27.36,16.28,41.66,5.12,3.04-2.37,5.92-5.07,7.66-8.81-1.42-.45-1.98.35-2.7.72-11.33,5.82-23.1,7.58-35.58,4.26-4.34-1.16-8.13-3.51-12.38-4.76Z"/>
      <path class="cls-1" d="M.12,443.54c9.44,9.4,21.79,11.48,34.15,13.44,11.55,1.83,23.22,1.54,34.84,1.2,6.41-.19,12.9-.87,19.16-2.25,6.61-1.46,12.65-4.72,18.28-8.54.9-.61,1.69-1.27,2.84-1.19h0c-2.96,5.11-7.42,8.57-12.5,11.37-4.29,2.37-4.38,2.63-.31,5.07,7.74,4.65,16.12,7.47,25.2,7.69,5.9.14,11.85.54,17.53-1.92,2.67-1.16,5.16-2.5,7.26-4.44,1.34-1.24,2.47-1.22,3.96-.36,11.52,6.66,24.13,8.74,37.23,8.61,2.06-.02,4.11-.52,6.75-.87-5.33-3.79-10.6-6.91-13.44-12.93,17.02,9.01,33.85,9,50.65-.44-3.22,6.07-8.4,9.85-14.42,13.28,6.48,1.93,12.53.72,18.56.22,4.99-.42,9.72-2.02,14.46-3.52,2.38-.75,3.33-1.73.91-3.68-.9-.73-1.68-1.62-2.46-2.49-.45-.51-1.41-1.05-.77-1.81.64-.77,1.32.04,1.9.45,4.66,3.3,9.02,7.12,14.14,9.66,10.77,5.33,21.97,9.34,34.18,9.85,11.35.48,22.38-1.04,33.1-4.79,7.87-2.75,14.93-6.88,21.17-12.42,5.13,5.75,4.21,15.79-1.61,22.33-6.93,7.79-15.92,11.67-25.58,14.54-11.81,3.52-23.92,4.48-36.12,3.75-11.26-.67-22.19-3.18-32.34-8.33-2.3-1.17-3.97-.95-6.09.42-13.75,8.83-28.29,10.63-43.57,4.36-1.52-.62-2.72-.55-4.21.04-15.89,6.33-30.91,4.46-44.93-5.19-2.85-1.96-5.4-4.42-7.9-6.84-1.49-1.44-2.09-1.39-3.16.47-4.74,8.21-12.13,12.34-21.44,12.39-8.16.04-15.4-3.03-21.95-7.99-5.67-4.29-10.43-9.3-13.7-15.59-1.33-2.55-2.88-2.68-5.36-1.98-19.18,5.35-38.25,4.92-57.13-1.46-8.12-2.74-15.5-6.79-21.28-13.32-4.24-4.78-6.73-10.22-6.01-16.79Z"/>
      <path class="cls-3" d="M328.88,434.72c-9.08-10.52-21.44-14.23-34.45-16.51-3.64-.64-7.34-.9-11.02-1.27-1.18-.12-1.95-.39-2.17-1.77-2.15-13.58-11.19-21.44-22.9-26.69-7.82-3.51-16.11-5.04-24.79-3.44-6.43,1.19-12.29,3.5-16.47,8.66-1.7,2.09-3.11,2.23-5.4,1.45-14.03-4.79-27.73-3.57-41,2.74-8.82,4.19-15.74,10.66-20.83,18.97-1.37,2.23-2.66,2.63-5.17,1.98-14.43-3.72-28.13-2.25-40.61,6.47-2.71,1.89-4.99,4.27-6.64,7.16-.79,1.37-1.7,1.7-3.14,1.02-9.43-4.5-19.58-6.23-29.82-6.9-15.2-.99-30.27.14-44.82,5.25-6.35,2.23-12.26,5.21-17.37,9.68-.46.4-1.1.58-1.66.86.78-6.57,4.75-11.18,9.58-15.13,9.32-7.59,20.39-11.16,32.02-13.02,17.48-2.79,34.63-1.62,51.13,5.33.49.21,1.02.37,1.44.67,2.62,1.94,3.97,1.03,5.62-1.62,6.64-10.7,17.03-15.14,29.08-16.24,5.62-.51,11.28-.12,16.6,1.95,2.37.92,3.31.2,4.38-1.87,6.42-12.45,15.88-21.6,29.33-26.19,10.55-3.6,21.06-3.35,31.37.85,2.25.92,3.34.82,4.84-1.32,6.74-9.59,16.57-12.09,27.5-10.66,17.78,2.33,33.67,17.36,35.54,34.86.25,2.39,1.62,2.22,3.25,2.33,13.49.94,26.16,4.37,36.68,13.33,5.79,4.93,10.12,10.87,9.9,19.05Z"/>
      <path class="cls-9" d="M208.01,413.75c4.25,1.26,8.04,3.61,12.37,4.77,12.49,3.33,24.25,1.56,35.58-4.26.72-.37,1.28-1.18,2.7-.72-1.73,3.74-4.62,6.44-7.66,8.81-14.31,11.15-30.57,7.67-41.66-5.12-.85-.98-1.38-2.12-1.34-3.47h0Z"/>
      <polygon class="cls-1" points="109.39 446.2 109.53 446.05 109.38 446.19 109.39 446.2"/>
      <path class="cls-2" d="M1258.85,130.86c-5.78.92-11.62.77-17.44.6-3.21-.09-6.46-.44-9.59-1.13-3.31-.73-6.33-2.36-9.15-4.28-.45-.3-.84-.64-1.42-.59l-.07-.08s.07.07.07.07c1.48,2.56,3.72,4.3,6.26,5.7,2.15,1.19,2.19,1.31.15,2.54-3.87,2.33-8.07,3.74-12.62,3.85-2.95.07-5.93.27-8.78-.96-1.34-.58-2.58-1.25-3.64-2.22-.67-.62-1.24-.61-1.98-.18-5.77,3.33-12.08,4.37-18.64,4.31-1.03-.01-2.06-.26-3.38-.44,2.67-1.9,5.3-3.46,6.73-6.47-8.52,4.51-16.95,4.51-25.36-.22,1.61,3.04,4.21,4.93,7.22,6.65-3.24.96-6.27.36-9.29.11-2.5-.21-4.87-1.01-7.24-1.76-1.19-.38-1.67-.87-.46-1.84.45-.36.84-.81,1.23-1.25.23-.25.71-.53.39-.91-.32-.39-.66.02-.95.22-2.33,1.65-4.51,3.57-7.08,4.84-5.39,2.67-11,4.67-17.11,4.93-5.68.24-11.21-.52-16.57-2.4-3.94-1.38-7.48-3.45-10.6-6.22.47-1.36,1.51-2.25,2.54-3.16,2.62-2.31,5.7-3.78,8.95-4.92,1.05-.37,1.48-.78.94-1.94-.59-1.25-.74-2.63-.6-4.02,4.54-5.27,10.73-7.13,17.25-8.27,1.82-.32,3.68-.45,5.52-.63.59-.06.98-.2,1.09-.88,1.08-6.8,5.6-10.74,11.46-13.36,3.91-1.76,8.07-2.52,12.41-1.72,3.22.59,6.15,1.75,8.25,4.34.85,1.05,1.56,1.12,2.7.72,7.02-2.4,13.88-1.78,20.53,1.37,4.42,2.1,7.88,5.34,10.43,9.5.68,1.12,1.33,1.32,2.59.99,7.23-1.86,14.08-1.13,20.33,3.24,1.36.95,2.5,2.14,3.32,3.59.39.69.85.85,1.57.51,4.72-2.25,9.8-3.12,14.93-3.45,7.61-.5,15.16.07,22.44,2.63,3.18,1.12,6.14,2.61,8.69,4.84.23.2.55.29.83.43.08.19.17.39.25.58-4.73,4.71-10.91,5.75-17.1,6.73ZM1165.67,111.6c-6.25,1.67-12.14.78-17.81-2.13-.36-.19-.64-.59-1.35-.36.87,1.87,2.31,3.22,3.83,4.41,7.16,5.58,15.31,3.84,20.86-2.56.43-.49.69-1.06.67-1.74-2.13.63-4.03,1.81-6.2,2.38Z"/>
      <path class="cls-1" d="M1275.95,124.13c-4.73,4.71-10.91,5.75-17.1,6.73-5.78.92-11.62.77-17.44.6-3.21-.09-6.46-.44-9.59-1.13-3.31-.73-6.33-2.36-9.15-4.28-.45-.3-.84-.64-1.42-.59h0c1.48,2.56,3.72,4.29,6.26,5.69,2.15,1.19,2.19,1.31.15,2.54-3.87,2.33-8.07,3.74-12.62,3.85-2.95.07-5.93.27-8.78-.96-1.34-.58-2.58-1.25-3.64-2.22-.67-.62-1.24-.61-1.98-.18-5.77,3.33-12.08,4.37-18.64,4.31-1.03-.01-2.06-.26-3.38-.44,2.67-1.9,5.3-3.46,6.73-6.47-8.52,4.51-16.95,4.51-25.36-.22,1.61,3.04,4.21,4.93,7.22,6.65-3.24.96-6.27.36-9.29.11-2.5-.21-4.87-1.01-7.24-1.76-1.19-.38-1.67-.87-.46-1.84.45-.36.84-.81,1.23-1.25.23-.25.71-.53.39-.91-.32-.39-.66.02-.95.22-2.33,1.65-4.51,3.57-7.08,4.84-5.39,2.67-11,4.67-17.11,4.93-5.68.24-11.21-.52-16.57-2.4-3.94-1.38-7.48-3.45-10.6-6.22-2.57,2.88-2.11,7.91.8,11.18,3.47,3.9,7.97,5.84,12.81,7.28,5.91,1.76,11.98,2.24,18.08,1.88,5.64-.34,11.11-1.59,16.19-4.17,1.15-.59,1.99-.48,3.05.21,6.88,4.42,14.16,5.32,21.81,2.18.76-.31,1.36-.28,2.11.02,7.96,3.17,15.48,2.23,22.5-2.6,1.43-.98,2.7-2.21,3.95-3.43.75-.72,1.05-.69,1.58.23,2.37,4.11,6.07,6.18,10.73,6.2,4.08.02,7.71-1.52,10.99-4,2.84-2.15,5.22-4.66,6.86-7.8.66-1.28,1.44-1.34,2.68-.99,9.6,2.68,19.15,2.46,28.6-.73,4.06-1.37,7.76-3.4,10.65-6.67,2.12-2.39,3.37-5.12,3.01-8.41Z"/>
      <path class="cls-3" d="M1111.35,119.71c4.54-5.27,10.73-7.13,17.25-8.27,1.82-.32,3.68-.45,5.52-.63.59-.06.98-.2,1.09-.88,1.08-6.8,5.6-10.74,11.46-13.36,3.91-1.76,8.07-2.52,12.41-1.72,3.22.59,6.15,1.75,8.25,4.34.85,1.05,1.56,1.12,2.7.72,7.02-2.4,13.88-1.78,20.53,1.37,4.42,2.1,7.88,5.34,10.43,9.5.68,1.12,1.33,1.32,2.59.99,7.23-1.86,14.08-1.13,20.33,3.24,1.36.95,2.5,2.14,3.32,3.59.39.69.85.85,1.57.51,4.72-2.25,9.8-3.12,14.93-3.45,7.61-.5,15.16.07,22.44,2.63,3.18,1.12,6.14,2.61,8.69,4.84.23.2.55.29.83.43-.39-3.29-2.38-5.6-4.8-7.57-4.67-3.8-10.21-5.59-16.03-6.52-8.75-1.4-17.34-.81-25.6,2.67-.24.1-.51.18-.72.34-1.31.97-1.99.52-2.81-.81-3.33-5.36-8.53-7.58-14.56-8.13-2.81-.26-5.65-.06-8.31.98-1.19.46-1.66.1-2.19-.93-3.22-6.23-7.95-10.81-14.68-13.11-5.28-1.8-10.54-1.68-15.7.43-1.13.46-1.67.41-2.42-.66-3.37-4.8-8.29-6.05-13.77-5.34-8.9,1.17-16.86,8.69-17.79,17.45-.13,1.2-.81,1.11-1.63,1.17-6.76.47-13.1,2.19-18.37,6.67-2.9,2.47-5.07,5.44-4.96,9.54Z"/>
      <path class="cls-9" d="M1171.86,109.21c-2.13.63-4.02,1.81-6.2,2.39-6.25,1.67-12.14.78-17.81-2.13-.36-.19-.64-.59-1.35-.36.87,1.87,2.31,3.22,3.83,4.41,7.16,5.58,15.31,3.84,20.86-2.56.43-.49.69-1.06.67-1.74h0Z"/>
      <polygon class="cls-1" points="1221.24 125.46 1221.17 125.38 1221.24 125.45 1221.24 125.46"/>
      <path class="cls-2" d="M1550.81,576.21c-5.46.87-10.97.73-16.46.57-3.03-.09-6.1-.41-9.05-1.06-3.12-.69-5.98-2.23-8.64-4.04-.42-.29-.8-.6-1.34-.56l-.07-.07s.07.07.07.07c1.4,2.42,3.51,4.05,5.9,5.38,2.03,1.12,2.07,1.24.15,2.4-3.66,2.2-7.62,3.53-11.91,3.63-2.79.07-5.6.26-8.28-.91-1.26-.55-2.44-1.18-3.43-2.1-.63-.59-1.17-.58-1.87-.17-5.45,3.15-11.4,4.13-17.59,4.07-.97,0-1.94-.24-3.19-.41,2.52-1.79,5.01-3.27,6.35-6.11-8.04,4.26-15.99,4.25-23.93-.21,1.52,2.87,3.97,4.66,6.81,6.27-3.06.91-5.92.34-8.77.1-2.36-.2-4.59-.96-6.83-1.66-1.13-.35-1.58-.82-.43-1.74.43-.34.79-.76,1.16-1.18.21-.24.67-.5.37-.86-.3-.37-.62.02-.9.21-2.2,1.56-4.26,3.37-6.68,4.56-5.09,2.52-10.38,4.41-16.15,4.65-5.36.23-10.58-.49-15.64-2.26-3.72-1.3-7.06-3.25-10-5.87.44-1.28,1.42-2.12,2.39-2.98,2.47-2.18,5.38-3.57,8.45-4.64.99-.34,1.4-.74.88-1.83-.56-1.18-.7-2.48-.56-3.79,4.29-4.97,10.13-6.73,16.28-7.8,1.72-.3,3.47-.42,5.21-.6.56-.06.92-.19,1.03-.83,1.02-6.41,5.29-10.13,10.82-12.61,3.69-1.66,7.61-2.38,11.71-1.63,3.04.56,5.81,1.65,7.78,4.09.8.99,1.47,1.05,2.55.68,6.63-2.26,13.1-1.68,19.37,1.29,4.17,1.98,7.44,5.04,9.84,8.97.65,1.05,1.26,1.24,2.44.94,6.82-1.76,13.29-1.06,19.19,3.06,1.28.9,2.36,2.02,3.14,3.38.37.65.8.8,1.48.48,4.45-2.13,9.25-2.94,14.09-3.26,7.18-.47,14.3.07,21.18,2.48,3,1.05,5.79,2.46,8.21,4.57.22.19.52.27.79.41.08.18.16.37.24.55-4.46,4.44-10.29,5.42-16.14,6.35ZM1462.86,558.04c-5.9,1.57-11.46.74-16.81-2.01-.34-.17-.6-.56-1.27-.34.82,1.77,2.18,3.04,3.62,4.16,6.76,5.27,14.45,3.62,19.69-2.42.4-.46.65-1,.63-1.64-2.01.59-3.8,1.7-5.85,2.25Z"/>
      <path class="cls-1" d="M1566.94,569.86c-4.46,4.44-10.29,5.42-16.14,6.35-5.46.87-10.97.73-16.46.57-3.03-.09-6.1-.41-9.05-1.06-3.12-.69-5.98-2.23-8.64-4.04-.42-.29-.8-.6-1.34-.56h0c1.4,2.41,3.51,4.05,5.9,5.37,2.03,1.12,2.07,1.24.15,2.4-3.66,2.2-7.62,3.53-11.91,3.63-2.79.07-5.6.26-8.28-.91-1.26-.55-2.44-1.18-3.43-2.1-.63-.59-1.17-.58-1.87-.17-5.45,3.15-11.4,4.13-17.59,4.07-.97,0-1.94-.24-3.19-.41,2.52-1.79,5.01-3.27,6.35-6.11-8.04,4.26-15.99,4.25-23.93-.21,1.52,2.87,3.97,4.66,6.81,6.27-3.06.91-5.92.34-8.77.1-2.36-.2-4.59-.96-6.83-1.66-1.13-.35-1.58-.82-.43-1.74.43-.34.79-.76,1.16-1.18.21-.24.67-.5.37-.86-.3-.37-.62.02-.9.21-2.2,1.56-4.26,3.37-6.68,4.56-5.09,2.52-10.38,4.41-16.15,4.65-5.36.23-10.58-.49-15.64-2.26-3.72-1.3-7.06-3.25-10-5.87-2.43,2.72-1.99,7.46.76,10.55,3.27,3.68,7.52,5.51,12.09,6.87,5.58,1.66,11.3,2.12,17.07,1.77,5.32-.32,10.49-1.5,15.28-3.94,1.09-.55,1.87-.45,2.88.2,6.5,4.17,13.37,5.02,20.59,2.06.72-.29,1.28-.26,1.99.02,7.51,2.99,14.61,2.11,21.23-2.45,1.35-.93,2.55-2.09,3.73-3.23.7-.68.99-.65,1.49.22,2.24,3.88,5.73,5.83,10.13,5.85,3.85.02,7.28-1.43,10.37-3.78,2.68-2.03,4.93-4.39,6.47-7.37.63-1.21,1.36-1.26,2.53-.94,9.06,2.53,18.08,2.32,26.99-.69,3.84-1.3,7.32-3.21,10.06-6.29,2-2.26,3.18-4.83,2.84-7.93Z"/>
      <path class="cls-3" d="M1411.6,565.69c4.29-4.97,10.13-6.73,16.28-7.8,1.72-.3,3.47-.42,5.21-.6.56-.06.92-.19,1.03-.83,1.02-6.41,5.29-10.13,10.82-12.61,3.69-1.66,7.61-2.38,11.71-1.63,3.04.56,5.81,1.65,7.78,4.09.8.99,1.47,1.05,2.55.68,6.63-2.26,13.1-1.68,19.37,1.29,4.17,1.98,7.44,5.04,9.84,8.97.65,1.05,1.26,1.24,2.44.94,6.82-1.76,13.29-1.06,19.19,3.06,1.28.9,2.36,2.02,3.14,3.38.37.65.8.8,1.48.48,4.45-2.13,9.25-2.94,14.09-3.26,7.18-.47,14.3.07,21.18,2.48,3,1.05,5.79,2.46,8.21,4.57.22.19.52.27.79.41-.37-3.11-2.24-5.28-4.53-7.15-4.4-3.59-9.64-5.27-15.13-6.15-8.26-1.32-16.36-.77-24.16,2.52-.23.1-.48.17-.68.32-1.24.92-1.88.49-2.66-.77-3.14-5.06-8.05-7.15-13.74-7.67-2.65-.24-5.33-.06-7.84.92-1.12.44-1.57.1-2.07-.88-3.03-5.88-7.5-10.2-13.86-12.38-4.98-1.7-9.95-1.58-14.82.4-1.06.43-1.58.39-2.29-.62-3.18-4.53-7.83-5.71-12.99-5.04-8.4,1.1-15.91,8.2-16.79,16.47-.12,1.13-.76,1.05-1.54,1.1-6.38.45-12.36,2.07-17.33,6.3-2.74,2.33-4.78,5.14-4.68,9Z"/>
      <path class="cls-9" d="M1468.71,555.78c-2.01.59-3.8,1.71-5.85,2.25-5.9,1.57-11.46.74-16.81-2.01-.34-.17-.6-.56-1.27-.34.82,1.77,2.18,3.04,3.62,4.16,6.76,5.27,14.45,3.62,19.69-2.42.4-.46.65-1,.63-1.64h0Z"/>
      <polygon class="cls-1" points="1515.31 571.12 1515.24 571.05 1515.31 571.12 1515.31 571.12"/>
      <path class="cls-2" d="M1538.44,441.17c.17-.39.33-.77.5-1.16.56-.28,1.2-.46,1.66-.86,5.08-4.45,10.98-7.42,17.3-9.64,14.5-5.09,29.51-6.22,44.66-5.23,10.2.67,20.32,2.39,29.71,6.87,1.43.68,2.34.36,3.12-1.01,1.65-2.88,3.92-5.25,6.62-7.13,12.43-8.69,26.08-10.16,40.46-6.44,2.5.65,3.79.25,5.15-1.98,5.07-8.29,11.96-14.73,20.75-18.91,13.22-6.28,26.88-7.5,40.85-2.73,2.28.78,3.69.64,5.38-1.44,4.17-5.14,10-7.45,16.41-8.63,8.65-1.59,16.91-.07,24.7,3.43,11.66,5.23,20.67,13.07,22.81,26.6.22,1.37.99,1.64,2.16,1.76,3.67.37,7.36.63,10.98,1.26,12.96,2.27,25.29,5.97,34.33,16.45.29,2.77-.02,5.51-1.19,8-1.09,2.3-.23,3.13,1.86,3.85,6.48,2.25,12.6,5.19,17.81,9.78,2.05,1.81,4.12,3.58,5.05,6.28-6.21,5.52-13.25,9.64-21.09,12.38-10.68,3.74-21.68,5.25-32.98,4.77-12.16-.51-23.33-4.5-34.06-9.81-5.1-2.53-9.44-6.34-14.09-9.62-.58-.41-1.25-1.22-1.89-.45-.63.76.32,1.3.77,1.8.77.87,1.55,1.75,2.45,2.48,2.41,1.94,1.47,2.92-.91,3.67-4.73,1.49-9.44,3.09-14.41,3.5-6.01.5-12.04,1.7-18.49-.22,5.99-3.41,11.15-7.18,14.37-13.23-16.74,9.4-33.52,9.41-50.47.43,2.84,5.99,8.08,9.1,13.4,12.88-2.63.35-4.68.85-6.73.87-13.04.13-25.61-1.94-37.09-8.58-1.49-.86-2.61-.88-3.95.35-2.1,1.94-4.58,3.28-7.24,4.43-5.67,2.46-11.59,2.06-17.47,1.91-9.05-.22-17.4-3.03-25.11-7.66-4.06-2.44-3.97-2.7.31-5.06,5.06-2.79,9.5-6.24,12.45-11.34,0,0,.15-.14.15-.14l-.14.15c-1.15-.09-1.94.58-2.83,1.18-5.62,3.8-11.63,7.06-18.22,8.51-6.23,1.37-12.7,2.05-19.09,2.24-11.58.34-23.2.63-34.71-1.19-12.32-1.95-24.62-4.02-34.03-13.39ZM1745.58,411.49c-.05,1.34.48,2.48,1.33,3.46,11.05,12.75,27.26,16.22,41.51,5.1,3.03-2.36,5.9-5.05,7.63-8.78-1.41-.45-1.97.35-2.69.72-11.29,5.8-23.01,7.56-35.45,4.24-4.32-1.15-8.1-3.5-12.33-4.74Z"/>
      <path class="cls-1" d="M1538.44,441.17c9.41,9.37,21.71,11.44,34.03,13.39,11.51,1.83,23.14,1.54,34.71,1.19,6.39-.19,12.86-.87,19.09-2.24,6.59-1.45,12.6-4.71,18.22-8.51.89-.6,1.68-1.27,2.83-1.18h0c-2.95,5.09-7.4,8.54-12.45,11.33-4.28,2.36-4.36,2.62-.31,5.06,7.71,4.64,16.07,7.44,25.11,7.66,5.88.14,11.8.54,17.47-1.91,2.66-1.15,5.14-2.49,7.24-4.43,1.34-1.24,2.46-1.21,3.95-.35,11.48,6.63,24.05,8.71,37.09,8.58,2.05-.02,4.1-.51,6.73-.87-5.31-3.78-10.56-6.89-13.4-12.88,16.96,8.97,33.73,8.97,50.47-.43-3.21,6.05-8.37,9.82-14.37,13.23,6.45,1.92,12.49.72,18.49.22,4.97-.42,9.68-2.01,14.41-3.5,2.37-.75,3.32-1.72.91-3.67-.9-.72-1.67-1.61-2.45-2.48-.45-.51-1.4-1.05-.77-1.8.64-.77,1.32.04,1.89.45,4.64,3.29,8.99,7.1,14.09,9.62,10.73,5.31,21.89,9.3,34.06,9.81,11.31.48,22.3-1.04,32.98-4.77,7.84-2.74,14.88-6.86,21.09-12.38,5.12,5.73,4.19,15.73-1.6,22.25-6.9,7.77-15.86,11.63-25.49,14.49-11.77,3.5-23.84,4.46-35.99,3.74-11.22-.67-22.11-3.17-32.23-8.3-2.3-1.16-3.95-.95-6.07.42-13.7,8.8-28.19,10.6-43.41,4.34-1.51-.62-2.71-.55-4.19.04-15.83,6.31-30.8,4.44-44.77-5.17-2.84-1.96-5.38-4.41-7.87-6.82-1.48-1.43-2.08-1.38-3.15.47-4.72,8.18-12.09,12.3-21.36,12.34-8.13.04-15.35-3.02-21.87-7.97-5.65-4.28-10.4-9.27-13.65-15.53-1.32-2.54-2.87-2.67-5.34-1.98-19.11,5.34-38.12,4.9-56.92-1.45-8.09-2.73-15.45-6.77-21.21-13.27-4.22-4.77-6.71-10.18-5.99-16.73Z"/>
      <path class="cls-3" d="M1866.02,432.38c-9.04-10.49-21.36-14.18-34.33-16.45-3.62-.63-7.32-.89-10.98-1.26-1.17-.12-1.95-.39-2.16-1.76-2.15-13.53-11.15-21.37-22.81-26.6-7.79-3.5-16.06-5.02-24.7-3.43-6.41,1.18-12.24,3.49-16.41,8.63-1.69,2.08-3.1,2.22-5.38,1.44-13.98-4.77-27.63-3.55-40.85,2.73-8.79,4.18-15.68,10.62-20.75,18.91-1.36,2.22-2.65,2.62-5.15,1.98-14.38-3.71-28.03-2.24-40.46,6.44-2.7,1.89-4.97,4.26-6.62,7.13-.78,1.37-1.7,1.69-3.12,1.01-9.39-4.48-19.51-6.21-29.71-6.87-15.14-.99-30.16.14-44.66,5.23-6.33,2.22-12.22,5.19-17.3,9.64-.45.4-1.1.58-1.66.86.77-6.55,4.73-11.14,9.55-15.07,9.29-7.57,20.32-11.12,31.9-12.97,17.41-2.78,34.51-1.61,50.95,5.31.49.2,1.02.36,1.43.67,2.61,1.93,3.96,1.03,5.6-1.62,6.62-10.66,16.97-15.09,28.97-16.18,5.6-.51,11.24-.12,16.54,1.95,2.36.92,3.3.2,4.37-1.86,6.4-12.41,15.82-21.52,29.22-26.1,10.51-3.59,20.98-3.34,31.25.85,2.24.92,3.33.81,4.82-1.31,6.71-9.56,16.51-12.05,27.4-10.62,17.72,2.32,33.55,17.3,35.41,34.74.25,2.38,1.61,2.21,3.24,2.32,13.45.94,26.06,4.36,36.55,13.28,5.77,4.91,10.08,10.84,9.86,18.98Z"/>
      <path class="cls-9" d="M1745.58,411.49c4.23,1.25,8.01,3.6,12.33,4.75,12.44,3.32,24.16,1.56,35.45-4.24.72-.37,1.28-1.17,2.69-.72-1.73,3.73-4.6,6.42-7.63,8.78-14.25,11.11-30.47,7.64-41.51-5.1-.85-.98-1.38-2.12-1.33-3.46h0Z"/>
      <polygon class="cls-1" points="1647.32 443.82 1647.46 443.67 1647.31 443.82 1647.32 443.82"/>
      <path class="cls-2" d="M1698.86,45.76c.11-.53.23-1.07.34-1.6,1.92-1.09,3.75-2.43,5.79-3.21,9.25-3.52,18.76-4.12,28.23-1.24,3.12.95,4.96.95,7.54-1.53,4.5-4.34,10.44-4.55,16.35-3.35,1.51.31,2.36.17,3.12-1.28.66-1.25,1.62-2.43,2.68-3.38,6.36-5.74,13.73-7.21,21.91-4.98.78.21,1.37.24,2.1-.31,9.77-7.34,22.45-3.51,26.36,7.96.36,1.05.83,1.44,1.91,1.5,6.56.38,12.55,2.27,17.48,6.85-1.17,3.94.84,5.65,4.3,6.91,2.32.85,4.33,2.55,5.35,5.03-.19.12-.4.23-.58.36-11,7.69-22.51,8.58-34.61,2.76-2.34-1.13-4.19-2.95-6.53-4.03-.14-.06-.19-.45-.43-.12l.42.12c1.22,2.7,1.02,3.04-2.16,3.61-.82.15-1.65.34-2.48.41-2.74.22-5.48,1.07-8.41.24,4.8-3.65,4.85-3.71,5.23-5.44-6.51,3.73-13.15,3.41-20.4.14,1.09,1.86,2.1,2.66,3.05,3.51.54.49,1.68.77,1.42,1.58-.32.97-1.48.52-2.25.51-4.92-.11-9.72-.79-14.07-3.31-.79-.46-1.33-.65-2.23-.03-5.27,3.59-14.76,3.27-20.11-.47-1.32-.92-1.38-1.47.1-2.14,1.72-.78,2.92-2.08,3.79-3.7-1.1.32-1.99.88-2.93,1.36-4.78,2.41-10.04,2.63-15.17,2.73-8.73.16-17.39-.61-25.1-5.44ZM1783.63,32.97l-.1-.1.11.09c-.04.73.23,1.31.72,1.85,3.32,3.63,7.51,4.97,12.17,3.88,3.17-.75,5.71-2.86,7.84-6.14-3.43,1.36-6.21,2.74-9.52,2.79-3.98.06-7.68-.65-11.22-2.38ZM1743.12,46.29l-.06-.13-.07.13h.13Z"/>
      <path class="cls-1" d="M1800.6,52.21c2.34,1.08,4.19,2.91,6.53,4.03,12.1,5.83,23.61,4.94,34.61-2.76.19-.13.39-.24.58-.36,2.29,1.98,1.66,6.66-.85,9.3-2.89,3.05-6.63,4.62-10.55,5.67-9.35,2.5-18.55,2.22-27.41-2.06-.91-.44-1.64-.47-2.54.12-5.59,3.68-11.51,4.65-17.8,1.95-.91-.39-1.65,0-2.42.27-7.59,2.64-14.23,1.06-20-4.42-.8-.76-1.44-1.63-2.47-.11-4.52,6.65-12.66,4.9-17.23,1.48-2.34-1.75-4.36-3.81-5.67-6.46-.65-1.32-1.59-1.09-2.69-.78-6.2,1.73-12.47,2-18.75.51-4.72-1.11-9.24-2.7-12.64-6.43-1.65-1.8-2.77-3.83-2.44-6.4,7.71,4.82,16.37,5.6,25.11,5.43,5.13-.09,10.39-.32,15.17-2.73.94-.47,1.83-1.03,2.93-1.36-.86,1.62-2.06,2.93-3.79,3.7-1.48.67-1.42,1.21-.1,2.14,5.35,3.74,14.85,4.05,20.11.47.9-.61,1.43-.43,2.23.03,4.35,2.53,9.15,3.2,14.07,3.31.78.02,1.93.46,2.25-.51.27-.8-.88-1.08-1.42-1.58-.94-.86-1.96-1.66-3.05-3.51,7.25,3.26,13.88,3.59,20.4-.14-.38,1.73-.43,1.79-5.23,5.44,2.93.84,5.67-.01,8.41-.24.83-.07,1.65-.26,2.48-.41,3.18-.57,3.38-.91,2.16-3.61h0Z"/>
      <path class="cls-6" d="M1832.67,41.19c-4.92-4.58-10.91-6.47-17.48-6.85-1.08-.06-1.55-.46-1.91-1.5-3.91-11.47-16.59-15.3-26.36-7.96-.73.54-1.32.52-2.1.31-8.18-2.23-15.56-.76-21.91,4.98-1.06.96-2.02,2.13-2.68,3.38-.76,1.45-1.62,1.59-3.12,1.28-5.9-1.21-11.85-.99-16.35,3.35-2.58,2.48-4.42,2.48-7.54,1.53-9.48-2.89-18.98-2.28-28.23,1.24-2.04.78-3.87,2.13-5.79,3.21.13-2.81,1.92-4.62,3.99-6.09,7.25-5.16,15.49-6.11,24.06-5.29,3.43.33,6.78,1.16,9.9,2.7,1.05.52,1.7.44,2.45-.64,4.24-6.1,10.3-7.56,17.16-6.1,2.16.46,2.99.03,4.03-1.79,5.22-9.14,15.56-12.6,23.9-9.05,1.09.47,1.61.09,2.26-.75,2.86-3.71,6.82-4.91,11.22-4.08,7.32,1.39,12.25,5.69,14.04,13.05.42,1.73,1.24,2.16,2.78,2.27,4.67.32,8.97,1.76,12.79,4.5,2.85,2.04,4.68,4.69,4.89,8.29Z"/>
      <path class="cls-5" d="M1783.63,32.97c3.54,1.72,7.24,2.43,11.22,2.38,3.3-.05,6.09-1.43,9.52-2.79-2.13,3.28-4.66,5.39-7.84,6.14-4.67,1.1-8.85-.25-12.17-3.88-.49-.54-.76-1.13-.72-1.85h-.01Z"/>
      <polygon class="cls-1" points="1743.12 46.29 1742.99 46.29 1743.06 46.16 1743.12 46.29"/>
      <path class="cls-1" d="M1800.6,52.22l-.42-.12c.24-.33.29.06.43.12,0,0,0,0,0,0Z"/>
      <polygon class="cls-5" points="1783.64 32.96 1783.54 32.86 1783.63 32.97 1783.64 32.96"/>
      <path class="cls-2" d="M449.2,69c-8.65,1.37-17.38,1.15-26.07.9-4.8-.14-9.66-.65-14.34-1.68-4.95-1.09-9.46-3.53-13.68-6.39-.67-.45-1.26-.95-2.12-.89l-.11-.11s.11.11.11.11c2.21,3.83,5.55,6.42,9.35,8.52,3.21,1.77,3.28,1.97.23,3.8-5.79,3.48-12.07,5.59-18.86,5.76-4.42.11-8.86.41-13.12-1.44-2-.86-3.86-1.87-5.44-3.33-1.01-.93-1.85-.91-2.96-.27-8.62,4.98-18.06,6.54-27.86,6.44-1.54-.02-3.08-.39-5.05-.65,3.99-2.84,7.93-5.17,10.06-9.67-12.73,6.74-25.33,6.74-37.91-.33,2.41,4.55,6.29,7.37,10.79,9.94-4.85,1.44-9.38.54-13.89.16-3.73-.31-7.27-1.51-10.82-2.63-1.78-.56-2.5-1.29-.68-2.75.68-.54,1.26-1.21,1.84-1.86.34-.38,1.05-.79.58-1.35-.48-.58-.99.03-1.42.34-3.49,2.47-6.75,5.33-10.58,7.23-8.06,3.99-16.44,6.99-25.58,7.37-8.49.36-16.75-.78-24.77-3.59-5.89-2.06-11.17-5.15-15.84-9.3.7-2.03,2.25-3.36,3.79-4.72,3.91-3.45,8.51-5.66,13.38-7.35,1.57-.55,2.22-1.17,1.4-2.89-.88-1.87-1.11-3.93-.89-6.01,6.79-7.88,16.05-10.65,25.78-12.36,2.72-.48,5.49-.67,8.25-.95.88-.09,1.46-.29,1.63-1.32,1.61-10.16,8.38-16.05,17.13-19.98,5.85-2.63,12.06-3.77,18.55-2.58,4.82.89,9.19,2.62,12.33,6.48,1.27,1.57,2.33,1.67,4.04,1.08,10.5-3.59,20.75-2.67,30.68,2.05,6.6,3.14,11.78,7.98,15.59,14.2,1.02,1.67,1.99,1.97,3.87,1.48,10.8-2.79,21.05-1.68,30.39,4.84,2.03,1.42,3.73,3.2,4.97,5.36.59,1.03,1.27,1.27,2.35.76,7.05-3.37,14.66-4.66,22.32-5.16,11.37-.74,22.65.11,33.54,3.93,4.75,1.67,9.18,3.9,13,7.24.34.3.83.43,1.24.64.13.29.25.58.38.87-7.07,7.04-16.3,8.59-25.55,10.06ZM309.93,40.21c-9.34,2.49-18.15,1.17-26.63-3.19-.54-.28-.96-.88-2.02-.54,1.3,2.8,3.46,4.82,5.73,6.59,10.71,8.35,22.88,5.74,31.18-3.83.64-.74,1.04-1.59,1-2.6-3.18.94-6.02,2.7-9.26,3.56Z"/>
      <path class="cls-1" d="M474.76,58.94c-7.07,7.04-16.3,8.59-25.55,10.06-8.65,1.37-17.38,1.15-26.07.9-4.8-.14-9.66-.65-14.34-1.68-4.95-1.09-9.46-3.53-13.68-6.39-.67-.45-1.26-.95-2.12-.89h0c2.21,3.82,5.55,6.42,9.35,8.51,3.21,1.77,3.28,1.97.23,3.8-5.79,3.48-12.07,5.59-18.86,5.76-4.42.11-8.86.41-13.12-1.44-2-.86-3.86-1.87-5.44-3.33-1.01-.93-1.85-.91-2.96-.27-8.62,4.98-18.06,6.54-27.86,6.44-1.54-.02-3.08-.39-5.05-.65,3.99-2.84,7.93-5.17,10.06-9.67-12.73,6.74-25.33,6.74-37.91-.33,2.41,4.55,6.29,7.37,10.79,9.94-4.85,1.44-9.38.54-13.89.16-3.73-.31-7.27-1.51-10.82-2.63-1.78-.56-2.5-1.29-.68-2.75.68-.54,1.26-1.21,1.84-1.86.34-.38,1.05-.79.58-1.35-.48-.58-.99.03-1.42.34-3.49,2.47-6.75,5.33-10.58,7.23-8.06,3.99-16.44,6.99-25.58,7.37-8.49.36-16.75-.78-24.77-3.59-5.89-2.06-11.17-5.15-15.84-9.3-3.84,4.3-3.15,11.82,1.2,16.71,5.19,5.83,11.91,8.73,19.14,10.88,8.84,2.63,17.9,3.35,27.03,2.81,8.43-.5,16.61-2.38,24.2-6.23,1.72-.87,2.97-.71,4.56.31,10.29,6.61,21.17,7.96,32.6,3.26,1.14-.47,2.03-.41,3.15.03,11.89,4.74,23.13,3.34,33.63-3.88,2.14-1.47,4.04-3.31,5.91-5.12,1.11-1.08,1.56-1.04,2.36.35,3.54,6.14,9.08,9.24,16.05,9.27,6.1.03,11.53-2.27,16.43-5.98,4.24-3.21,7.81-6.96,10.25-11.67.99-1.91,2.15-2,4.01-1.49,14.35,4.01,28.63,3.68,42.75-1.09,6.07-2.05,11.6-5.08,15.93-9.96,3.17-3.58,5.04-7.65,4.5-12.57Z"/>
      <path class="cls-3" d="M228.73,52.34c6.79-7.88,16.05-10.65,25.78-12.36,2.72-.48,5.49-.67,8.25-.95.88-.09,1.46-.29,1.63-1.32,1.61-10.16,8.38-16.05,17.13-19.98,5.85-2.63,12.06-3.77,18.55-2.58,4.82.89,9.19,2.62,12.33,6.48,1.27,1.57,2.33,1.67,4.04,1.08,10.5-3.59,20.75-2.67,30.68,2.05,6.6,3.14,11.78,7.98,15.59,14.2,1.02,1.67,1.99,1.97,3.87,1.48,10.8-2.79,21.05-1.68,30.39,4.84,2.03,1.42,3.73,3.2,4.97,5.36.59,1.03,1.27,1.27,2.35.76,7.05-3.37,14.66-4.66,22.32-5.16,11.37-.74,22.65.11,33.54,3.93,4.75,1.67,9.18,3.9,13,7.24.34.3.83.43,1.24.64-.58-4.92-3.55-8.37-7.17-11.32-6.97-5.68-15.26-8.35-23.96-9.74-13.08-2.09-25.92-1.21-38.27,3.99-.37.15-.76.27-1.07.5-1.96,1.45-2.97.77-4.21-1.22-4.97-8.01-12.75-11.33-21.76-12.15-4.2-.38-8.44-.09-12.42,1.46-1.78.69-2.48.15-3.28-1.4-4.81-9.32-11.88-16.16-21.95-19.6-7.89-2.7-15.76-2.51-23.47.64-1.69.69-2.5.61-3.62-.99-5.04-7.18-12.4-9.05-20.58-7.97-13.31,1.75-25.2,12.99-26.59,26.09-.19,1.79-1.21,1.66-2.43,1.74-10.1.71-19.58,3.27-27.45,9.97-4.33,3.69-7.57,8.14-7.41,14.26Z"/>
      <path class="cls-9" d="M319.19,36.65c-3.18.94-6.02,2.7-9.26,3.57-9.34,2.49-18.15,1.17-26.63-3.19-.54-.28-.96-.88-2.02-.54,1.3,2.8,3.46,4.82,5.73,6.59,10.71,8.35,22.88,5.74,31.18-3.83.64-.74,1.04-1.59,1-2.6h0Z"/>
      <polygon class="cls-1" points="392.99 60.93 392.88 60.82 393 60.93 392.99 60.93"/>
    </g>
  </g>
</svg>