<svg width="366" height="94" viewBox="0 0 366 94" fill="none" xmlns="http://www.w3.org/2000/svg">
<rect width="366" height="94" fill="#EC3F42"/>
<path d="M299.965 53.184L295.869 54.976L288.541 38.464H281.885V33.984H291.453L299.965 53.184ZM276.893 37.248L273.757 40.416L270.461 37.152L273.629 33.984L276.893 37.248ZM290.397 45.824C288.381 49.504 285.853 52.704 282.749 55.424L279.997 52.128C282.717 49.728 284.925 46.88 286.621 43.584L290.397 45.824ZM300.253 60.064C296.925 61.408 293.245 62.08 289.213 62.08C283.549 62.08 279.165 60.832 276.061 58.368L273.213 61.824L269.757 58.976L273.565 54.368V47.008H270.685V42.528H278.045V54.592C280.253 56.8 283.997 57.92 289.277 57.92C292.733 57.92 295.869 57.344 298.717 56.224L300.253 60.064Z" fill="white"/>
<path d="M253.885 51.0401H260.925V41.6001H253.885V44.0001H259.901V48.1601H253.885V51.0401ZM249.405 48.1601H243.165V51.0401H249.405V48.1601ZM249.405 41.6001H243.165V44.0001H249.405V41.6001ZM249.405 32.9601H253.885V37.1201H265.405V55.5201H253.885V62.7201H249.405V55.5201H238.685V37.1201H249.405V32.9601Z" fill="white"/>
<path d="M233.341 58.208H220.669V62.784H216.189V58.208H203.709V54.048H216.189V52.416H206.237V37.792H207.965V33.44H212.445V37.792H215.325V33.44H219.805V37.792H223.357L225.917 32.832L229.917 34.88L228.413 37.792H230.813V52.416H220.669V54.048H233.341V58.208ZM226.333 48.576V41.632H220.669V43.296H225.405V46.816H220.669V48.576H226.333ZM216.189 43.296V41.632H210.717V43.296H216.189ZM216.189 48.576V46.816H210.717V48.576H216.189Z" fill="white"/>
<path d="M199.965 38.0161H195.101V39.392H199.005V62.7841H194.845V49.9841H186.429V39.392H190.333V38.0161H185.181C185.949 36.416 186.845 34.5921 187.901 32.576L191.709 33.5361C191.645 33.792 191.517 34.1761 191.325 34.656H199.965V38.0161ZM184.221 49.9841H175.709V62.7841H171.549V39.392H176.189V38.0161H169.661C170.717 36.0961 171.805 34.2721 172.861 32.576L176.669 33.5361C176.605 33.792 176.477 34.1761 176.285 34.656H183.869V38.0161H180.221V39.392H184.221V49.9841ZM191.741 61.8241H178.845V51.1041H191.741V61.8241ZM194.845 46.7521V42.7521H190.269V43.7441H194.205V45.8561H190.269V46.7521H194.845ZM180.381 46.7521V42.7521H175.709V43.7441H179.709V45.8561H175.709V46.7521H180.381ZM188.221 58.7841V54.1121H182.365V54.9761H187.421V57.6961H182.365V58.7841H188.221Z" fill="white"/>
<path d="M166.52 46.9501L164.795 48.7251L162.995 47.0001L161.245 48.8001L159.47 47.0751L161.22 45.3001L162.995 47.0001L164.745 45.2251L166.52 46.9501ZM162.27 40.5751C160.62 42.1501 159.345 44.0251 158.42 46.2001C157.495 48.3751 157.045 50.6251 157.045 52.9251C157.045 55.4501 157.595 57.8001 158.72 59.9501L155.52 61.9001C153.92 59.2751 153.12 56.2251 153.12 52.7251C153.12 49.5251 153.82 46.7251 155.245 44.3251H147.195V40.5751H162.27Z" fill="white"/>
<path d="M138.61 49.12H131.762V44.544H138.61V49.12ZM139.666 60H125.65V35.104H139.666V39.648H130.226V55.424H139.666V60Z" fill="white"/>
<path d="M119.169 60.832L104.449 45.792L104.417 60H99.8408L99.8728 34.624L114.593 49.664V35.104H119.169V60.832Z" fill="white"/>
<path d="M92.743 60H88.167V35.104H92.743V60Z" fill="white"/>
<path d="M82.448 60H68.208V35.104H72.784V55.424H82.448V60Z" fill="white"/>
</svg>
