<svg width="3" height="9" viewBox="0 0 3 9" fill="none" xmlns="http://www.w3.org/2000/svg">
<path d="M1.1011 3.30322C0.80907 3.30322 0.529001 3.4397 0.322505 3.68264C0.116009 3.92558 0 4.25507 0 4.59863V7.51331C0 7.85688 0.116009 8.18637 0.322505 8.42931C0.529001 8.67224 0.80907 8.80872 1.1011 8.80872C1.39313 8.80872 1.6732 8.67224 1.8797 8.42931C2.08619 8.18637 2.2022 7.85688 2.2022 7.51331V4.59863C2.2022 4.25507 2.08619 3.92558 1.8797 3.68264C1.6732 3.4397 1.39313 3.30322 1.1011 3.30322Z" fill="white"/>
<path d="M1.1011 2.2022C1.70922 2.2022 2.2022 1.70922 2.2022 1.1011C2.2022 0.492979 1.70922 0 1.1011 0C0.492979 0 0 0.492979 0 1.1011C0 1.70922 0.492979 2.2022 1.1011 2.2022Z" fill="white"/>
</svg>
