<svg width="40" height="38" viewBox="0 0 40 38" fill="none" xmlns="http://www.w3.org/2000/svg">
<path d="M39.6682 16.0955C39.6682 7.2206 30.7709 0 19.8342 0C8.89741 0 1.75536e-07 7.2206 1.75536e-07 16.0955C1.75536e-07 24.0522 7.05692 30.715 16.5882 31.9755C17.2333 32.1149 18.1127 32.4012 18.3357 32.9534C18.5364 33.4554 18.4659 34.2398 18.4008 34.7473C18.4008 34.7473 18.1685 36.1473 18.1183 36.4447C18.0308 36.9465 17.7204 38.4059 19.8359 37.5136C21.9534 36.6213 31.2579 30.7876 35.4184 25.9987C38.2925 22.8458 39.6682 19.6483 39.6682 16.0955Z" fill="#06C755"/>
<path d="M33.0835 21.2218H27.512C27.3018 21.2218 27.1328 21.0528 27.1328 20.8426V20.837V12.1962V12.1869C27.1328 11.9768 27.3018 11.8076 27.512 11.8076H33.0835C33.2917 11.8076 33.4628 11.9787 33.4628 12.1869V13.5942C33.4628 13.8044 33.2936 13.9736 33.0835 13.9736H29.2966V15.4347H33.0835C33.2917 15.4347 33.4628 15.6057 33.4628 15.8139V17.2211C33.4628 17.4313 33.2936 17.6005 33.0835 17.6005H29.2966V19.0616H33.0835C33.2917 19.0616 33.4628 19.2328 33.4628 19.441V20.8482C33.4628 21.0582 33.2936 21.2274 33.0835 21.2274V21.2218Z" fill="white"/>
<path d="M12.4604 21.2198C12.6686 21.2198 12.8397 21.0506 12.8397 20.8405V19.4332C12.8397 19.225 12.6686 19.0539 12.4604 19.0539H8.67357V12.1829C8.67357 11.9747 8.50263 11.8037 8.29442 11.8037H6.88706C6.67699 11.8037 6.50781 11.9729 6.50781 12.1829V20.8331V20.8405C6.50781 21.0506 6.67699 21.2198 6.88706 21.2198H12.4604Z" fill="white"/>
<path d="M15.8237 11.8076H14.4182C14.2088 11.8076 14.0391 11.9775 14.0391 12.1869V20.8426C14.0391 21.0521 14.2088 21.2218 14.4182 21.2218H15.8237C16.0332 21.2218 16.2029 21.0521 16.2029 20.8426V12.1869C16.2029 11.9775 16.0332 11.8076 15.8237 11.8076Z" fill="white"/>
<path d="M25.398 11.8076H23.9907C23.7806 11.8076 23.6114 11.9768 23.6114 12.1869V17.3272L19.6517 11.9787C19.6424 11.9658 19.6312 11.9527 19.6219 11.9397L19.62 11.9378C19.6127 11.9304 19.6051 11.9212 19.5978 11.9136L19.5903 11.908C19.5829 11.9024 19.5773 11.8969 19.57 11.8914C19.5661 11.8895 19.5624 11.8858 19.5588 11.8839C19.5532 11.8783 19.5457 11.8746 19.5383 11.871C19.5346 11.869 19.5308 11.8654 19.5271 11.8634C19.5198 11.8598 19.5142 11.8561 19.5066 11.8522C19.503 11.8505 19.4993 11.8486 19.4956 11.8468C19.4881 11.843 19.4807 11.8393 19.4732 11.8374C19.4695 11.8374 19.4657 11.8337 19.4603 11.8337C19.4527 11.8319 19.4454 11.8281 19.4379 11.8263C19.4342 11.8263 19.4286 11.8244 19.4249 11.8225C19.4174 11.8225 19.4101 11.8188 19.4025 11.8171C19.3969 11.8171 19.3915 11.8171 19.3859 11.8151C19.3784 11.8151 19.3728 11.8132 19.3654 11.8132C19.3579 11.8132 19.3523 11.8132 19.345 11.8132C19.3413 11.8132 19.3357 11.8132 19.332 11.8132H17.934C17.7258 11.8132 17.5547 11.9824 17.5547 12.1925V20.8482C17.5547 21.0565 17.7239 21.2274 17.934 21.2274H19.3413C19.5513 21.2274 19.7204 21.0582 19.7204 20.8482V15.708L23.6858 21.0638C23.7138 21.1028 23.7472 21.1345 23.7843 21.1586L23.7881 21.1623C23.7955 21.1679 23.803 21.1718 23.8123 21.1772C23.8159 21.1791 23.8196 21.181 23.8233 21.1828C23.8289 21.1866 23.8364 21.1884 23.842 21.1921C23.8476 21.1959 23.855 21.1977 23.8606 21.1996C23.8642 21.1996 23.8681 21.2033 23.8718 21.2033C23.881 21.2069 23.8884 21.2089 23.8978 21.2108H23.9032C23.9349 21.2181 23.9683 21.2237 24.0019 21.2237H25.3999C25.6081 21.2237 25.7791 21.0545 25.7791 20.8446V12.1889C25.7791 11.9807 25.6099 11.8095 25.3999 11.8095L25.398 11.8076Z" fill="white"/>
</svg>
