<svg width="30" height="29" viewBox="0 0 30 29" fill="none" xmlns="http://www.w3.org/2000/svg">
<path d="M14.1839 15.3161C14.2907 15.4237 14.4178 15.5091 14.5577 15.5674C14.6979 15.6258 14.8482 15.6558 15 15.6558C15.1518 15.6558 15.3021 15.6258 15.4423 15.5674C15.5823 15.509 15.7094 15.4236 15.8163 15.3159C15.8163 15.3158 15.8164 15.3157 15.8165 15.3156L26.85 4.28215V8.50002C26.85 8.80502 26.9712 9.09752 27.1868 9.31319C27.4025 9.52886 27.695 9.65002 28 9.65002C28.305 9.65002 28.5975 9.52886 28.8132 9.31319C29.0288 9.09752 29.15 8.80502 29.15 8.50002L29.15 1.50088L29 1.50002H29.15V1.50055C29.1508 1.34931 29.1218 1.1994 29.0646 1.05939C29.0074 0.919277 28.9231 0.791839 28.8165 0.68438L28.8156 0.683519L28 0.500017V0.350017H27.9996H21C20.695 0.350017 20.4025 0.471177 20.1868 0.686844C19.9712 0.902511 19.85 1.19502 19.85 1.50002C19.85 1.80502 19.9712 2.09752 20.1868 2.31319C20.4025 2.52886 20.695 2.65002 21 2.65002H25.2276L14.1844 13.6835C14.1842 13.6836 14.1841 13.6838 14.184 13.6839C14.0764 13.7907 13.991 13.9178 13.9326 14.0578C13.8743 14.1979 13.8442 14.3482 13.8442 14.5C13.8442 14.6518 13.8743 14.8021 13.9326 14.9423C13.9909 15.0822 14.0764 15.2093 14.1839 15.3161ZM14.1839 15.3161C14.1838 15.3159 14.1836 15.3158 14.1835 15.3156L14.29 15.21L14.1844 15.3165C14.1842 15.3164 14.1841 15.3162 14.1839 15.3161ZM29.15 23.5V14.5C29.15 14.195 29.0288 13.9025 28.8132 13.6868C28.5975 13.4712 28.305 13.35 28 13.35C27.695 13.35 27.4025 13.4712 27.1868 13.6868C26.9712 13.9025 26.85 14.195 26.85 14.5V23.5C26.85 24.2559 26.5497 24.9808 26.0153 25.5153C25.4808 26.0498 24.7559 26.35 24 26.35H6C5.24413 26.35 4.51922 26.0498 3.98475 25.5153C3.45027 24.9808 3.15 24.2559 3.15 23.5V5.50002C3.15 4.74415 3.45027 4.01924 3.98475 3.48476C4.51922 2.95028 5.24413 2.65002 6 2.65002H15C15.305 2.65002 15.5975 2.52886 15.8132 2.31319C16.0288 2.09752 16.15 1.80502 16.15 1.50002C16.15 1.19502 16.0288 0.902511 15.8132 0.686844C15.5975 0.471177 15.305 0.350017 15 0.350017H6C4.63414 0.350017 3.32421 0.892604 2.3584 1.85842C1.39259 2.82423 0.85 4.13415 0.85 5.50002V23.5C0.85 24.8659 1.39259 26.1758 2.3584 27.1416C3.32421 28.1074 4.63414 28.65 6 28.65H24C25.3659 28.65 26.6758 28.1074 27.6416 27.1416C28.6074 26.1758 29.15 24.8659 29.15 23.5Z" fill="white" stroke="white" stroke-width="0.3"/>
</svg>
