<svg width="84" height="68" viewBox="0 0 84 68" fill="none" xmlns="http://www.w3.org/2000/svg">
<path d="M20 14C20 11.7909 21.7909 10 24 10H61C63.2091 10 65 11.7909 65 14V20C65 22.2091 63.2091 24 61 24H24C21.7909 24 20 22.2091 20 20V14Z" fill="white"/>
<path d="M61 22.333V24H24V22.333H61ZM63.333 20V14C63.333 12.7113 62.2887 11.667 61 11.667H24C22.7113 11.667 21.667 12.7113 21.667 14V20C21.667 21.2887 22.7113 22.333 24 22.333V24L23.7939 23.9951C21.7488 23.8913 20.1087 22.2512 20.0049 20.2061L20 20V14C20 11.7909 21.7909 10 24 10H61C63.2091 10 65 11.7909 65 14V20C65 22.14 63.3194 23.8879 61.2061 23.9951L61 24V22.333C62.2887 22.333 63.333 21.2887 63.333 20Z" fill="#4D4D4D"/>
<path d="M20 32C20 29.7909 21.7909 28 24 28H61C63.2091 28 65 29.7909 65 32V38C65 40.2091 63.2091 42 61 42H24C21.7909 42 20 40.2091 20 38V32Z" fill="#9CC1E8"/>
<path d="M61 40.333V42H24V40.333H61ZM63.333 38V32C63.333 30.7113 62.2887 29.667 61 29.667H24C22.7113 29.667 21.667 30.7113 21.667 32V38C21.667 39.2887 22.7113 40.333 24 40.333V42L23.7939 41.9951C21.7488 41.8913 20.1087 40.2512 20.0049 38.2061L20 38V32C20 29.7909 21.7909 28 24 28H61C63.2091 28 65 29.7909 65 32V38C65 40.14 63.3194 41.8879 61.2061 41.9951L61 42V40.333C62.2887 40.333 63.333 39.2887 63.333 38Z" fill="#4D4D4D"/>
<path d="M20 50C20 47.7909 21.7909 46 24 46H61C63.2091 46 65 47.7909 65 50V56C65 58.2091 63.2091 60 61 60H24C21.7909 60 20 58.2091 20 56V50Z" fill="white"/>
<path d="M61 58.333V60H24V58.333H61ZM63.333 56V50C63.333 48.7113 62.2887 47.667 61 47.667H24C22.7113 47.667 21.667 48.7113 21.667 50V56C21.667 57.2887 22.7113 58.333 24 58.333V60L23.7939 59.9951C21.7488 59.8913 20.1087 58.2512 20.0049 56.2061L20 56V50C20 47.7909 21.7909 46 24 46H61C63.2091 46 65 47.7909 65 50V56C65 58.14 63.3194 59.8879 61.2061 59.9951L61 60V58.333C62.2887 58.333 63.333 57.2887 63.333 56Z" fill="#4D4D4D"/>
<path d="M71.0539 37.1643L79.6885 36.9421L78.6138 41.342L71.0539 37.1643Z" fill="white"/>
<path d="M69.4318 36.7679C69.6107 36.0359 70.258 35.5144 71.0114 35.495L79.6456 35.2728C80.1656 35.2594 80.6622 35.4894 80.9887 35.8943C81.315 36.2992 81.4339 36.8329 81.3105 37.3381L80.2358 41.7381C80.1124 42.2434 79.7608 42.663 79.2844 42.8718C78.808 43.0807 78.2613 43.0558 77.806 42.8043L70.2465 38.6266C69.5868 38.2621 69.253 37.5001 69.4318 36.7679ZM78.6136 41.3418L79.6883 36.9419L71.054 37.1642L78.6136 41.3418Z" fill="#4D4D4D"/>
<path d="M70.3121 32.2169L76.8141 26.5312L78.7974 30.6031L70.3121 32.2169Z" fill="white"/>
<path d="M68.8105 32.9484C68.4807 32.2708 68.6457 31.4562 69.2129 30.9601L75.7147 25.2744C76.1063 24.932 76.6353 24.7918 77.1451 24.8949C77.6548 24.998 78.0871 25.3327 78.3149 25.8002L80.2982 29.8722C80.526 30.3399 80.5234 30.8873 80.2902 31.3523C80.0571 31.8172 79.6205 32.1473 79.1096 32.2445L70.6245 33.8582C69.8841 33.9991 69.1405 33.626 68.8105 32.9484ZM78.7969 30.6035L76.8136 26.5315L70.3118 32.2172L78.7969 30.6035Z" fill="#4D4D4D"/>
</svg>
