<svg width="84" height="68" viewBox="0 0 84 68" fill="none" xmlns="http://www.w3.org/2000/svg">
<g clip-path="url(#clip0_398_13382)">
<path d="M40.3311 5.85352C40.3313 5.39236 40.7053 5.01874 41.1664 5.01897C41.6276 5.01923 42.0012 5.39321 42.001 5.85435L41.9985 10.8592C41.9982 11.3204 41.6242 11.694 41.1631 11.6938C40.7019 11.6935 40.3283 11.3195 40.3285 10.8584L40.3311 5.85352Z" fill="#4D4D4D"/>
<path d="M49.3984 6.51807C49.7245 6.19198 50.2532 6.19198 50.5792 6.51807C50.9053 6.84416 50.9053 7.3728 50.5792 7.69888L47.0403 11.2379C46.7142 11.5639 46.1855 11.5639 45.8594 11.2379C45.5334 10.9118 45.5334 10.3831 45.8594 10.0571L49.3984 6.51807Z" fill="#4D4D4D"/>
<path d="M32.6465 6.51807C32.3204 6.19198 31.7918 6.19198 31.4657 6.51807C31.1396 6.84416 31.1396 7.3728 31.4657 7.69888L35.0047 11.2379C35.3307 11.5639 35.8594 11.5639 36.1855 11.2379C36.5116 10.9118 36.5115 10.3831 36.1855 10.0571L32.6465 6.51807Z" fill="#4D4D4D"/>
<path d="M58.6595 16.1436H25.3407C17.3377 16.1436 10.8501 22.1206 10.8501 29.4936C10.8501 36.8666 17.3377 42.8436 25.3407 42.8436H58.6595C66.6624 42.8436 73.1501 36.8666 73.1501 29.4936C73.1501 22.1206 66.6624 16.1436 58.6595 16.1436Z" fill="#52BB70" stroke="#4D4D4D" stroke-width="1.5"/>
<path d="M51.2888 28.843L53.4427 24.5918H55.8013L52.3764 30.898V34.9161H50.2013V30.9686L46.7764 24.5918H49.1491L51.2888 28.843Z" fill="white"/>
<path d="M43.5425 34.9165L42.794 32.459H39.03L38.2815 34.9165H35.9229L39.5667 24.5498H42.2431L45.9011 34.9165H43.5425ZM42.2714 30.6229L41.5228 28.2219C41.4758 28.0619 41.4122 27.8571 41.3322 27.6075C41.2568 27.3533 41.1792 27.0967 41.0991 26.8378C41.0238 26.5742 40.9626 26.3458 40.9155 26.1528C40.8684 26.3458 40.8025 26.5859 40.7178 26.8731C40.6378 27.1556 40.5601 27.4239 40.4848 27.6782C40.4094 27.9324 40.3553 28.1136 40.3223 28.2219L39.5808 30.6229H42.2714Z" fill="white"/>
<path d="M30.5713 24.5918C31.9036 24.5918 32.8758 24.879 33.4878 25.4533C34.0998 26.023 34.4058 26.8092 34.4058 27.812C34.4058 28.2639 34.3376 28.697 34.201 29.1113C34.0645 29.5209 33.8409 29.8858 33.5302 30.2059C33.2242 30.526 32.8146 30.7803 32.3014 30.9686C31.7883 31.1522 31.1551 31.244 30.4018 31.244H29.4626V34.9161H27.2734V24.5918H30.5713ZM30.4583 26.3855H29.4626V29.4503H30.1829C30.5925 29.4503 30.9479 29.3962 31.2492 29.2879C31.5505 29.1796 31.7836 29.0101 31.9483 28.7794C32.1131 28.5487 32.1955 28.2521 32.1955 27.8896C32.1955 27.3812 32.0543 27.0046 31.7718 26.7598C31.4893 26.5102 31.0515 26.3855 30.4583 26.3855Z" fill="white"/>
<path d="M56.0503 36.2064C56.0503 34.5289 57.4102 33.1689 59.0878 33.1689H62.1253C63.8029 33.1689 65.1628 34.5289 65.1628 36.2064V44.3064H56.0503V36.2064Z" fill="#52BB70"/>
<rect x="53.0127" y="40.5498" width="12.15" height="3.0375" fill="#52BB70"/>
<path d="M59.0879 37.2184C59.0879 36.1 59.9945 35.1934 61.1129 35.1934V35.1934C62.2313 35.1934 63.1379 36.1 63.1379 37.2184V45.3184H59.0879V37.2184Z" fill="white"/>
<path d="M59.0879 45.3188C59.0879 43.6412 60.4478 42.2812 62.1254 42.2812H63.1379C64.8155 42.2812 66.1754 43.6412 66.1754 45.3188V45.3188H59.0879V45.3188Z" fill="white"/>
<path d="M73.2476 61.5239C73.2494 61.5068 73.257 61.4915 73.257 61.4744C73.257 61.4019 73.2343 61.3371 73.2154 61.2703C73.1227 60.624 72.7764 60.0977 72.1746 59.7507C72.1311 59.724 72.0838 59.7011 72.0364 59.6783C72.0383 59.6382 72.0421 59.5982 72.0459 59.5581C72.0894 59.0796 72.1311 58.5915 72.2446 58.1205L72.3525 57.6839C72.7347 56.1109 73.1302 54.4845 73.1813 52.7894C73.24 50.8599 73.2532 48.9265 73.24 46.995C73.2343 46.4974 73.0791 45.9521 72.8029 45.4544C72.2484 44.4649 71.3457 43.9024 70.146 43.8223H69.5291C68.9159 43.0749 67.9868 42.5811 67.0463 42.6535L66.6167 42.7126C66.4748 42.5258 66.3177 42.3465 66.1361 42.1883C65.5835 41.7078 64.9174 41.4485 64.274 41.4523C64.274 40.0509 64.2796 38.6476 64.2664 37.2462C64.255 36.3233 63.8066 35.4539 63.0345 34.8571C62.2605 34.2584 61.2689 34.0391 60.3908 34.2717C59.0075 34.634 58.0008 35.9668 57.997 37.4445V44.4401C57.8078 44.1998 57.5882 43.9729 57.3233 43.7727C56.7386 43.3323 55.9797 43.1493 55.2341 43.2732C54.4848 43.399 53.8168 43.8242 53.4023 44.4401C52.9028 45.1818 52.8819 46.24 53.3494 47.016C53.4875 47.2429 53.6237 47.4831 53.6881 47.7062C54.0325 48.8769 54.3656 50.0495 54.7024 51.2221L55.571 54.2404C55.6807 54.6218 55.853 54.9802 56.0725 55.2777L56.4509 55.7982C57.2609 56.9098 58.067 58.0233 58.9243 59.0948C59.0832 59.295 59.1703 59.4838 59.1968 59.7031C58.4663 60.0691 58.1484 60.5439 58.0481 61.3428C58.0405 61.3867 58.0216 61.4286 58.0216 61.4744C58.0216 61.4953 58.0311 61.5125 58.033 61.5335C58.0216 61.6708 58.0008 61.7909 58.0008 61.9472L57.9838 61.7661C57.9838 62.1875 58.3225 62.5288 58.7388 62.5307C59.157 62.5307 59.4958 62.1894 59.4976 61.7699L59.509 62.237H71.7412L71.7488 61.7699C71.7507 62.1894 72.0894 62.5307 72.5057 62.5307H72.5076C72.9259 62.5307 73.2627 62.1875 73.2627 61.7661L73.2532 61.6078C73.257 61.5792 73.2476 61.5525 73.2476 61.5239ZM71.6693 52.7418C71.622 54.2747 71.2625 55.7543 70.8821 57.3197L70.7742 57.7601C70.6437 58.3036 70.5888 58.8641 70.5396 59.419C70.5188 59.6439 70.4998 59.8651 70.4715 60.0844C70.4412 60.3342 70.5642 60.5496 70.7421 60.7117H60.4892C60.5839 60.603 60.6539 60.4734 60.6747 60.3246C60.7958 59.4933 60.6104 58.7802 60.0994 58.1396C59.2592 57.0852 58.4625 55.9907 57.6677 54.8963L57.2874 54.3739C57.1738 54.2194 57.0811 54.0192 57.0186 53.8114L56.1519 50.7969C55.8151 49.6205 55.4802 48.446 55.1357 47.2734C55.0203 46.8806 54.8292 46.5355 54.6381 46.2209C54.4791 45.9559 54.4848 45.5421 54.6513 45.2943C54.8349 45.0216 55.1357 44.8329 55.4802 44.7757C55.8227 44.7185 56.1557 44.7985 56.4112 44.9911C56.8881 45.3515 57.1644 45.9158 57.452 46.5603C57.6677 47.0522 57.8872 47.4259 58.1635 47.771C58.3622 48.0208 58.6972 48.1181 59.0037 48.0132C59.3065 47.9064 59.5109 47.6166 59.5109 47.2944L59.509 43.7232L59.5109 37.4445C59.5109 36.6646 60.054 35.9344 60.7712 35.7475C61.2027 35.635 61.706 35.7532 62.1129 36.0659C62.5122 36.3748 62.7449 36.8095 62.7487 37.2576C62.7714 39.5113 62.7676 41.765 62.762 44.0187L62.7582 46.8234C62.7582 47.2448 63.0988 47.5861 63.5151 47.5861C63.9315 47.5861 64.2721 47.2448 64.2721 46.8234L64.2759 44.0225C64.2759 43.6736 64.274 43.3247 64.274 42.9757C64.5578 42.9796 64.8682 43.0997 65.1445 43.3399C65.487 43.6355 65.7065 44.0397 65.733 44.421C65.7765 45.0197 65.7689 45.6222 65.7614 46.2247L65.7538 47.5461C65.7538 47.9674 66.0925 48.2229 66.5089 48.2229C66.9271 48.2229 67.2658 47.7977 67.2677 47.3783L67.2734 46.2438C67.2809 45.5974 67.2904 44.9511 67.2431 44.3104C67.2393 44.2628 67.2242 44.217 67.2185 44.1712C67.8714 44.1693 68.6548 44.8004 68.7229 45.6051C68.7702 46.1694 68.7589 46.7395 68.7475 47.3173L68.7343 48.1505C68.7343 48.5719 69.0749 48.9131 69.4912 48.9131C69.9075 48.9131 70.2482 48.5719 70.2482 48.1505L70.2595 47.3497C70.2728 46.7167 70.2841 46.0913 70.2292 45.4735C70.2273 45.4392 70.2141 45.4087 70.2103 45.3743C70.7818 45.4449 71.2 45.6966 71.482 46.198C71.6277 46.4592 71.7204 46.7681 71.7223 47.0007C71.7375 48.917 71.7261 50.8294 71.6693 52.7418Z" fill="#4D4D4D"/>
</g>
<defs>
<clipPath id="clip0_398_13382">
<rect width="84" height="68" fill="white"/>
</clipPath>
</defs>
</svg>
