<svg width="109" height="52" viewBox="0 0 109 52" fill="none" xmlns="http://www.w3.org/2000/svg">
<rect x="1" y="1" width="107" height="49.775" rx="24.8875" fill="#44B60E" stroke="black" stroke-width="2"/>
<path d="M79.9236 26.0673L78.0401 27.881L73.9591 23.6257L75.8426 21.8119L79.9236 26.0673ZM72.4767 28.9274L68.047 33.27C67.0006 31.683 66.2855 30.2529 65.9193 28.9798C65.5356 27.7241 65.3438 26.137 65.3438 24.2361C65.3438 22.6665 65.5182 21.2538 65.8844 19.9807L68.3958 20.6958C68.0993 21.7596 67.9598 22.9281 67.9598 24.2361C67.9598 25.9626 68.2039 27.5497 68.6748 28.9972L70.6455 27.0614L72.4767 28.9274Z" fill="white"/>
<path d="M62.8318 33.7409H52.1411L55.0885 18.2193L57.4777 18.6727L55.0885 31.2993H59.6926L58.4021 26.294L60.7739 25.6836L62.8318 33.7409ZM53.1701 27.9508L50.9377 28.4217V34.2466H48.4961V28.9274L46.787 29.2937L46.2812 26.8869L48.4961 26.4335V22.806H46.5254V20.3644H48.4961V17.853H50.9377V20.3644H52.9782V22.806H50.9377V25.9277L52.6643 25.5615L53.1701 27.9508Z" fill="white"/>
<path d="M45.2006 32.2062L44.1891 34.4385L37.3177 31.2819C35.6261 32.3457 33.2891 33.3398 30.3417 34.2292L29.5744 31.8923C31.4928 31.2819 33.0973 30.6191 34.4053 29.939L32.8531 29.2239L33.8646 27.0091L36.8817 28.4043C37.8061 27.7067 38.6257 26.9393 39.3233 26.0847H31.1789V23.6431H36.0621V21.8991H29.3477V19.4575H36.0621V17.8879H38.5037V19.4575H45.1309V21.8991H38.5037V23.6431H43.7705C42.4974 26.2417 41.0848 28.2473 39.5501 29.6251L45.2006 32.2062Z" fill="white"/>
</svg>
