<svg width="328" height="85" viewBox="0 0 328 85" fill="none" xmlns="http://www.w3.org/2000/svg">
<g clip-path="url(#clip0_1_32)">
<path d="M46.9084 27.6483L36.7248 29.5135C36.3458 29.5833 36.0566 29.8925 36.0366 30.2715L33.2538 59.6853L30.092 31.6679C30.0521 31.2291 29.6432 30.8401 29.0946 30.9298L18.7315 32.8249C18.3624 32.8947 18.0831 33.194 18.0433 33.563L14.4725 61.2114L12.0388 34.9993C11.9989 34.5604 11.59 34.1415 11.0414 34.2413L0.678252 36.1463C0.229416 36.2361 -0.0797832 36.655 -0.00996414 37.1238L7.50057 82.9251C7.57039 83.344 7.91949 83.6432 8.3384 83.6432H20.2176C20.6465 83.6432 21.0155 83.3141 21.0654 82.8852L23.8881 55.7056L26.3218 82.8852C26.3617 83.3141 26.7208 83.6432 27.1596 83.6432H39.2284C39.6572 83.6432 40.0063 83.344 40.0662 82.9251L47.8759 28.6059C47.9557 28.0573 47.4869 27.5386 46.8785 27.6483H46.9084Z" fill="#005C3F"/>
<path d="M100.4 27.798C90.5154 25.9328 81.9776 29.0348 81.9776 41.9613V64.5028C81.9776 78.2672 86.815 84.501 97.6569 84.501C108.499 84.501 113.665 79.0452 114.763 66.757L116.588 46.6591C117.496 36.645 111.77 29.9524 100.4 27.8079V27.798ZM101.577 66.9465C101.258 73.31 99.2528 73.3001 98.2055 73.3001C97.3976 73.3001 94.934 73.1604 95.1833 66.4079L95.9713 44.5845C96.1409 39.6473 97.5572 38.6399 99.5221 38.9591C102.464 39.4378 102.933 41.9014 102.724 45.7315L101.577 66.9365V66.9465Z" fill="#005C3F"/>
<path d="M118.672 83.6532H129.395C129.893 83.6532 130.153 83.2841 130.252 82.8054L131.968 72.4921C132.038 72.0333 131.729 71.6642 131.24 71.6343L120.199 71.0259C119.75 71.006 119.211 71.3052 119.141 71.8637L117.885 82.7854C117.845 83.2642 118.184 83.6432 118.662 83.6432L118.672 83.6532Z" fill="#005C3F"/>
<path d="M123.39 34.6003C123.39 34.6003 121.904 46.6391 121.904 46.669C121.904 46.6989 121.904 46.7787 121.904 46.7987C121.904 46.8186 122.293 67.6048 122.293 67.6048C122.293 68.0137 122.622 68.3229 123.071 68.3628L129.006 68.7917C129.484 68.8216 129.973 68.5124 130.103 68.0735C130.103 68.0735 136.416 48.6439 136.426 48.614C136.426 48.5841 136.446 48.5342 136.456 48.5043C136.456 48.4743 138.581 36.9442 138.581 36.9442C138.661 36.5353 138.361 36.1762 137.863 36.0765L124.757 33.8024C124.198 33.7026 123.48 34.0118 123.4 34.6003H123.39Z" fill="#005C3F"/>
<path d="M80.661 82.6258L68.7518 27.5286L74.5269 32.1666C75.1552 32.6753 76.0629 32.0669 75.8734 31.2989L68.2232 0.638319C67.9838 -0.339148 66.4977 -0.159613 66.5475 0.887673L67.535 19.1703L62.9469 14.5523C62.498 14.1234 61.7001 14.273 61.5206 14.9712L46.2302 82.6258C46.1005 83.2243 46.5394 83.6432 47.0481 83.6432H57.8102C58.2291 83.6432 58.5882 83.334 58.658 82.9251L59.8848 74.7862H66.8268L68.1634 82.955C68.2332 83.3639 68.5823 83.6532 68.9912 83.6532H79.8132C80.2121 83.6532 80.7807 83.334 80.641 82.6258H80.661ZM61.3211 65.0514L63.6451 50.8183L65.61 65.0514H61.3211Z" fill="#EF7A00"/>
<path d="M327.99 57.3913H152.315V58.5682H327.99V57.3913Z" fill="#231815"/>
<path d="M290.228 67.9639H281.102V70.627H290.228V67.9639Z" fill="#231815"/>
<path d="M321.208 67.9639H312.081V70.627H321.208V67.9639Z" fill="#231815"/>
<path d="M290.228 72.5021H281.102V75.1652H290.228V72.5021Z" fill="#231815"/>
<path d="M325.277 70.228C325.277 75.0755 323.512 80.9403 313.827 80.9403H312.081V83.6532H313.827C323.512 83.6532 328 78.5165 328 70.228H325.277Z" fill="#231815"/>
<path d="M294.297 70.228C294.297 75.0755 292.532 80.9403 282.847 80.9403H281.102V83.6532H282.847C292.532 83.6532 297.02 78.5165 297.02 70.228H294.297Z" fill="#231815"/>
<path d="M249.493 80.9103V67.9539H246.671V83.6432H248.526C257.094 83.6432 262.181 79.1548 262.659 71.2852H259.936C259.468 78.1574 255.049 80.641 249.503 80.9003L249.493 80.9103Z" fill="#231815"/>
<path d="M224.967 74.3972H210.834V77.2199H224.967V74.3972Z" fill="#231815"/>
<path d="M278.418 74.3972H264.285V77.2199H278.418V74.3972Z" fill="#231815"/>
<path d="M195.184 68.7219V71.4449H206.116V80.1722H195.184V82.8952H209.048V68.7219H195.184Z" fill="#231815"/>
<path d="M152.315 67.9639V75.3946H155.298V70.6868H165.84C165.601 74.088 164.873 76.402 163.377 77.938C161.711 79.6536 159.118 80.5313 154.829 80.8405V83.6532C159.985 83.2642 163.157 82.0773 165.342 79.8231C167.705 77.3795 168.803 73.6691 168.842 67.9639H152.315Z" fill="#231815"/>
<path d="M190.427 73.1804C188.97 73.1804 187.793 74.3573 187.793 75.8135C187.793 77.2698 188.97 78.4367 190.427 78.4367C191.883 78.4367 193.06 77.2598 193.06 75.8135C193.06 74.3673 191.883 73.1804 190.427 73.1804Z" fill="#231815"/>
<path d="M242.9 71.9435C242.551 72.0632 242.182 72.1231 241.803 72.1231C240.457 72.1231 239.29 71.3451 238.721 70.228H236.387V67.3455H233.565V70.228H226.862V72.941H233.565V83.6532H236.387V72.941H242.9V71.9435Z" fill="#231815"/>
<path d="M241.803 66.0488C240.357 66.0488 239.17 67.2158 239.17 68.6621C239.17 70.1083 240.357 71.2952 241.803 71.2952C243.25 71.2952 244.437 70.1283 244.437 68.6621C244.437 67.1959 243.25 66.0488 241.803 66.0488ZM241.803 70.218C240.956 70.218 240.257 69.5099 240.257 68.6621C240.257 67.8142 240.946 67.126 241.803 67.126C242.661 67.126 243.339 67.8142 243.339 68.6621C243.339 69.5099 242.651 70.218 241.803 70.218Z" fill="#231815"/>
<path d="M226.453 80.4116V83.6532C230.832 82.0773 231.61 77.8882 231.64 74.856H228.857C228.837 77.2199 228.288 79.2646 226.463 80.4116H226.453Z" fill="#231815"/>
<path d="M241.085 74.7961H238.302C238.322 77.8682 239.13 82.1271 243.649 83.6532V80.4515C241.694 79.3244 241.115 77.2298 241.085 74.7961Z" fill="#231815"/>
<path d="M298.506 71.5945V73.7688H307.254V76.4419H298.776V78.6163H307.254V81.4789H298.287V83.6532H309.697V71.5945H298.506Z" fill="#231815"/>
<path d="M181.968 67.3455H179.255V70.228H169.87V72.941H177.65C175.844 75.4245 173.341 77.5989 169.87 79.0551V81.9676C173.7 80.5612 176.852 78.2971 179.265 75.2649V80.9303H175.765V83.6532H179.265C180.762 83.6532 181.978 82.4364 181.978 80.9303V72.941H186.187V70.228H181.978V67.3455H181.968Z" fill="#231815"/>
<path d="M165.192 37.7322C164.972 38.1013 164.723 38.4604 164.474 38.8294L162.658 37.1936C162.968 36.7647 163.177 36.4855 163.446 36.0366H160.315C159.776 36.5752 159.197 37.0939 158.609 37.5826H162.529V39.3879C161.541 40.2856 160.823 40.8741 159.686 41.5823V41.9912C161.093 41.8216 162.509 41.672 163.915 41.4526V43.3477C162.509 43.607 161.093 43.8165 159.686 44.016V46.9384C159.686 47.7962 159.078 48.5243 158.14 48.5243H154.799L154.37 46.4596H156.923C157.302 46.4596 157.502 46.3499 157.502 45.9609V44.2653C155.866 44.4548 154.21 44.5845 152.555 44.7141L152.375 42.6295C154.081 42.5398 155.796 42.4101 157.502 42.2206V40.7145H158.13C158.559 40.4352 159.387 39.767 159.676 39.378H156.155C155.218 39.9964 154.32 40.535 153.313 41.0536L152.305 39.1386C154.19 38.2609 155.706 37.3133 157.322 36.0267H152.555V34.0717H156.674V32.0569H153.113V30.122H156.674V28.4064H158.759V30.122H161.352V31.7178C161.98 30.8401 162.409 30.0023 162.848 29.0348L164.843 29.8926C164.055 31.4585 163.257 32.7053 162.11 34.0817H163.586V35.7973C164.863 33.583 165.561 30.7902 165.94 28.2967L168.154 28.5161C168.025 29.5435 167.865 30.5808 167.636 31.6081H173.391V33.8423H172.294C172.044 36.9144 171.486 40.0961 169.85 42.7792C171.017 44.1556 172.353 45.3126 173.77 46.4297L172.453 48.5143C170.887 47.3772 169.63 46.1903 168.443 44.6842C166.947 46.3399 165.401 47.4371 163.426 48.5143L161.95 46.4496C163.965 45.6118 165.78 44.4748 167.167 42.7991C166.229 41.2132 165.531 39.5276 165.172 37.7322H165.192ZM161.112 32.0569H158.759V34.0717H159.427C160.035 33.4234 160.594 32.7651 161.103 32.0569H161.112ZM170.089 33.8423H167.017C166.907 34.1415 166.818 34.4408 166.678 34.75C166.897 36.8545 167.396 38.9591 168.473 40.8342C169.481 38.7297 169.93 36.1463 170.089 33.8523V33.8423Z" fill="#231815"/>
<path d="M185.26 35.7773L185.08 33.7526C186.576 33.7526 188.063 33.7127 189.539 33.6927C189.968 33.1142 190.367 32.5158 190.726 31.8874H184.452V29.9125H193.898V28.3665H196.162V29.9125H205.517V31.8874H199.892C201.258 32.5357 203.503 34.0618 204.62 35.0492L202.784 36.5553C202.046 35.8671 201.508 35.4781 200.68 34.9195C195.533 35.3085 190.397 35.7574 185.25 35.7773H185.26ZM202.794 46.4197C202.794 47.8161 202.036 48.614 200.55 48.614H196.77L196.251 46.4197H199.832C200.371 46.4197 200.5 46.3998 200.5 45.8811V44.7042H189.479V48.614H187.175V36.7249H202.784V46.4197H202.794ZM189.489 38.4703V39.8468H200.51V38.4703H189.489ZM189.489 41.5424V42.9587H200.51V41.5424H189.489ZM197.039 32.7751L198.805 31.8974H193.429C192.87 32.7352 192.78 32.8848 192.172 33.6628C194.187 33.6428 196.222 33.5132 198.236 33.4434C197.837 33.204 197.428 32.9945 197.029 32.7751H197.039Z" fill="#231815"/>
<path d="M222.743 29.0348L225.406 29.2243C225.316 29.8926 225.206 30.4711 225.047 31.1393H234.163V33.3536H224.398C224.169 34.0418 223.95 34.5605 223.64 35.1988C224.598 34.7899 225.167 34.5804 226.234 34.5804C228.179 34.5804 229.166 35.3285 229.814 37.074C231.56 36.3658 233.355 35.8272 235.191 35.3584L235.749 37.7622C233.894 38.1711 232.079 38.6898 230.263 39.3082C230.333 39.9266 230.353 40.5549 230.353 41.1833C230.353 41.8915 230.353 42.5996 230.333 43.3078H227.83C227.899 42.7492 227.919 42.2505 227.919 41.692C227.919 41.2232 227.899 40.7444 227.879 40.2757C226.623 40.8542 224.189 42.061 224.189 43.607C224.189 45.4123 226.673 45.4323 228.867 45.4323C230.722 45.4323 232.607 45.3425 234.462 45.1929V47.5169C232.647 47.5767 230.832 47.6266 229.017 47.6266C227.092 47.6266 224.518 47.6067 222.972 46.4497C222.075 45.7415 221.516 44.8338 221.516 43.6968C221.516 42.1508 222.793 40.904 224 40.0662C225.137 39.2683 226.353 38.6499 227.58 38.0215C227.291 37.1438 226.822 36.7149 225.815 36.7149C224.229 36.7149 222.683 37.7721 221.446 39.0389C221.067 39.5575 220.708 40.0961 220.279 40.6547C219.83 41.2731 219.312 41.9613 218.574 42.7792L216.738 40.9539C219.002 38.8294 220.768 36.2461 221.795 33.3636H217.297V31.1493H222.444C222.603 30.4012 222.673 29.8128 222.733 29.0448L222.743 29.0348Z" fill="#231815"/>
<path d="M258.989 30.0821H268.265V32.1467H261.682V36.7248C261.682 37.6225 260.924 38.2908 260.006 38.2908H257.612L257.273 36.0167H258.859C259.378 36.0167 259.398 35.8272 259.398 35.3983V32.1567H256.595C256.146 35.3983 254.65 37.7422 251.718 39.4478L250.222 37.7921C252.595 36.4855 254.052 34.8497 254.391 32.1567H247.249V30.092H256.605V28.3964H258.999V30.092L258.989 30.0821ZM247.229 36.5353C248.815 35.2487 249.583 34.4308 250.68 32.7053L252.745 33.5431C251.688 35.2187 250.261 36.7647 248.666 37.9916L247.229 36.5353ZM264.874 39.4378V41.3528C263.597 42.9687 262.23 44.1656 260.395 45.1829C262.949 45.9609 265.592 46.1903 268.255 46.2801L267.337 48.5841C264.135 48.2649 260.485 47.6565 257.503 46.4796C254.52 47.5967 251.548 48.1552 248.366 48.5043L247.628 46.5893C250.202 46.3299 252.775 45.9908 255.268 45.2328C254.171 44.4349 253.274 43.5771 252.446 42.5198C251.219 43.228 250.162 43.7267 248.835 44.2354L247.578 42.3902C250.85 41.2032 252.905 40.136 255.079 37.4031L257.293 38.3008C256.984 38.7296 256.755 39.0289 256.396 39.4378H264.864H264.874ZM254.082 41.4825C255.219 42.5996 256.435 43.5272 257.862 44.2354C259.408 43.4873 260.595 42.4999 261.821 41.3528H254.251C254.251 41.3528 254.141 41.4426 254.072 41.4825H254.082ZM262.41 33.7625L264.116 32.5157C265.233 34.1016 266.669 35.4781 268.255 36.645L266.799 38.3008C264.764 36.8346 263.886 35.6975 262.41 33.7625Z" fill="#231815"/>
<path d="M294.457 33.8922V35.8271C292.891 37.0739 291.365 38.3606 289.799 39.6074C290.068 39.5475 290.288 39.4976 290.587 39.4976C292.382 39.4976 292.801 41.1334 292.801 42.5497V43.4474C292.821 44.7341 292.841 45.3425 294.776 45.3425C295.963 45.3425 297.639 45.3026 298.806 45.1729V47.5368C297.459 47.5767 296.123 47.5967 294.776 47.5967C293.37 47.5967 291.505 47.447 290.786 46.0906C290.427 45.4422 290.358 44.5845 290.358 43.8763V43.0784C290.358 42.2405 290.288 41.4426 289.191 41.4426C288.383 41.4426 287.465 41.7817 286.817 42.3403C285.849 43.1582 284.962 44.0359 284.193 44.7939C283.276 45.7016 282.268 46.709 281.331 47.5268L279.536 45.7614C280.992 44.5146 282.378 43.208 283.814 41.9313C286.029 39.9066 288.333 37.9516 290.617 35.9967L281.231 36.2161V33.942L294.447 33.8822L294.457 33.8922ZM295.015 30.3414L294.457 32.6853C291.056 31.628 287.116 31.3787 283.555 31.2191L283.914 29.0248C287.655 29.1544 291.395 29.4337 295.025 30.3414H295.015Z" fill="#231815"/>
<path d="M324.06 29.5435V31.5882C322.494 32.9646 320.988 34.4208 319.382 35.7574C320.3 35.3883 320.928 35.3085 321.916 35.3085C323.442 35.3085 325.117 35.6476 326.264 36.665C327.471 37.7622 328.01 39.378 328.01 40.9439C328.01 43.0485 327.112 45.0233 325.297 46.2701C323.661 47.3872 321.806 47.6066 319.831 47.6066C318.395 47.6066 317.208 47.4969 315.931 46.8087C314.764 46.1903 313.956 45.0732 313.956 43.7766C313.956 41.7319 316.041 40.5749 317.966 40.5749C320.499 40.5749 322.175 42.4201 322.175 44.784V45.2328C324.3 44.6543 325.536 43.1482 325.536 41.0038C325.536 38.5501 323.811 37.4131 321.417 37.4131C319.263 37.4131 317.318 38.1212 315.572 39.3082C314.186 40.515 312.889 41.7618 311.632 43.0485L310.086 41.0536C311.942 39.4677 313.737 37.7821 315.572 36.1563C317.228 34.6702 318.884 33.2139 320.519 31.7078L311.632 31.7976V29.5634H324.06V29.5435ZM320.011 44.8937C320.011 43.6868 319.273 42.6196 317.886 42.6196C317.058 42.6196 316.211 43.0285 316.211 43.9262C316.211 44.8239 317.218 45.3026 318.026 45.4323C318.634 45.542 319.322 45.542 319.931 45.542C319.971 45.3226 320.021 45.1331 320.021 44.8937H320.011Z" fill="#231815"/>
</g>
<defs>
<clipPath id="clip0_1_32">
<rect width="328" height="84.501" fill="white"/>
</clipPath>
</defs>
</svg>
