<?xml version="1.0" encoding="UTF-8"?>
<svg id="_レイヤー_1" data-name="レイヤー 1" xmlns="http://www.w3.org/2000/svg" viewBox="0 0 345.33 39.05">
  <defs>
    <style>
      .cls-1 {
        fill: #231815;
      }

      .cls-2 {
        fill: #005c3f;
      }
    </style>
  </defs>
  <path class="cls-2" d="m52.63.04l-16.17,28.63-3.51-7.28,9.61-17c.53-.94.45-2.07-.23-2.95-.66-.86-1.79-1.39-2.95-1.39h-19.08c-1.13,0-2.22.49-2.89,1.32-.69.84-.83,1.91-.37,2.86l8.19,16.97-4.23,7.48L7.28.04H0l17.47,37.15c.53,1.09,1.77,1.82,3.17,1.86,1.38,0,2.68-.65,3.28-1.7l4.91-8.68,4.11,8.52c.53,1.09,1.77,1.82,3.17,1.86h.1c1.35,0,2.6-.67,3.18-1.7L60.37.04h-7.74Zm-18.87,6.03l-4.43,7.83-3.78-7.83h8.2Zm2.35,32.47h0,0s0,0,0,0Z"/>
  <g>
    <path class="cls-1" d="m82.67,19.64l.3-7.85.02-.45h15.95l-.02.49-.06,1.71c-.24,6.36-.8,9.4-2.08,11.23-1.76,2.46-5.63,3.47-13.35,3.47h-10.06l-.25,7.97h12.8c7.83,0,12.87-1.11,16.35-3.61,3.95-2.86,5.44-6.77,6.13-16.1.34-4.29.67-10.98.75-13.17h.05-35.06l-.62,16.32h9.17Z"/>
    <path class="cls-1" d="m160.7,4.89h-.5v-.47s0-3.64,0-3.64h-8.35v3.64s0,.47,0,.47h-20.19l-.17,6.33h15.97l-.5.73-8.85,12.86c-2.1,2.82-3.77,3.73-6.88,3.73-.06,0-.11,0-.17,0l-.3,7.88c7.49-.02,10.62-1.45,13.89-6.26l6.31-9.44.98-1.46-.07,1.73-.61,16.24h9.37l.05-25.54v-.47h8.32l-.04-6.33h-8.26Z"/>
    <path class="cls-1" d="m213.33,16.56l.21-5.49.02-.45h13.94l.25-6.55h-13.94l.02-.49.08-3.57h-9.04l-.09,3.61-.02.45h-14.46l-.25,6.55h14.46l-.02.49-.21,5.49-.02.45h-14.23l-.25,6.51h11.34l-1.03.83c-2.82,2.27-5.83,3.75-10.32,5.08l-.3,8.04c4.93-1.2,9.91-3.7,13.43-6.78l.87-.76-.04,1.13-.25,7.97h9.04l.25-7.88.04-1.12.81.81c2.91,2.9,7.34,5.19,12.84,6.64l.3-8.01c-4.66-1.48-6.77-2.57-10.03-5.1l-1.07-.83h11.54l.25-6.51h-14.15l.02-.49Z"/>
    <g>
      <path class="cls-1" d="m325.51,9.44l.1-2.52h-18.58l-.17,5.91h15.21c2.85,0,3.43-2.13,3.45-3.39Zm-6.65-.26l-.03.86-.02.46h-5.78l.02-.49.03-.86.02-.46h5.78l-.02.49Z"/>
      <polygon class="cls-1" points="320.66 .99 320.69 .04 313.29 .04 313.25 1.02 313.23 2.83 312.75 2.83 307.11 2.83 307 5.87 325.94 5.87 326.05 2.83 321.16 2.83 320.64 2.83 320.66 .99"/>
      <path class="cls-1" d="m337.31,21.41l-.05,1.23c-.04,1.07.12,1.72.52,2.12.52.51,1.55.72,3.45.72,1.62,0,3.16-.28,4.02-.94l.08-5.62c-.07.03-.45.15-.52.17l-.66.18.02-.65.52-13.7h-7.76l.02-.49.11-4.39h-6.71l-.12,4.43-.02.46h-2.38l-.21,5.55h2.38l-.02.49-.06,1.65-.02.6-.61-.16-1.75-.46-.18,4.67.66.18.69.19-.43.55c-.73.93-1.43,1.44-2.57,1.88l-.72.28.03-.74.02-.49-3.9.04-.23-.9,3.96-1.85.09-2.35h-18.16l-.1,2.67h9.72l-1.41.87c-.79.49-1.23.68-2.12.95l-.06.29-.07.38h-.41s-5.64.12-5.64.12l-.13,3.53,5.54-.15.56-.02-.05.53c-.06.65-.48,1.47-1.06,2.16h7.57c.74-.99.89-1.43,1.04-2.47l.06-.39.41-.02,4.64-.25.55-.03-.02.52-.08,2.22-.02.46h-4.29l-.05,1.23-.02.46h-14.91l-.16,4.15h14.91l-.02.49-.04,1.07-.02.46h-14.95l-.17,5.74h39.03l.08-5.74h-15.07l.02-.49.04-1.07.02-.46h15.02l.06-4.15h-14.92l.02-.49.05-1.19h-2.41l1.6-.89c2.49-1.38,3.48-2.34,4.62-4.45l.23-.42.45.22,2.21,1.07.28.14v.3Zm-.42-6.11l-.86-.29-.35-.12v-.35s.15-3.62.15-3.62l.02-.46h1.87l-.02.49-.15,3.91-.02.65-.64-.22Z"/>
    </g>
    <g>
      <path class="cls-1" d="m272.26,11.06l.02-.45h13.97l.25-6.55h-13.97l.02-.49.08-3.57h-9.04l-.09,3.61-.02.45h-14.31l-.25,6.55h14.31l-.02.49-.21,5.49-.02.45h-14.23l-.25,6.51h11.34l-1.03.83c-2.82,2.27-5.83,3.75-10.32,5.08l-.3,8.04c4.93-1.2,9.91-3.7,13.43-6.78l.87-.76-.04,1.13-.25,7.97h9.04l.25-7.88.04-1.12.81.81c2.91,2.9,7.34,5.19,12.84,6.64l.3-8.01c-4.66-1.48-6.77-2.57-10.03-5.1l-1.07-.83h11.54l.25-6.51h-14.15l.02-.49.21-5.49Z"/>
      <path class="cls-1" d="m256.77,18.39l4.62,1.95c.5.21,1.13-.06.94-.4l-7.9-13.28c-.25-.42-1.34-.33-1.22.13l2.06,7.96,1.5,3.63Z"/>
      <path class="cls-1" d="m278.15,18.27l4.62,1.95c.5.21,1.13-.06.94-.4l-7.9-13.28c-.25-.42-1.34-.33-1.22.13l2.06,7.96,1.5,3.63Z"/>
    </g>
  </g>
</svg>