<svg width="293" height="29" viewBox="0 0 293 29" fill="none" xmlns="http://www.w3.org/2000/svg">
<path d="M253.25 12.8899C253.25 13.7599 253.025 14.5549 252.575 15.2899C252.11 16.0249 251.495 16.6249 250.73 17.0749V17.8099H248.6V15.7249C249.365 15.4099 249.95 15.0649 250.34 14.6899C250.85 14.1949 251.105 13.5949 251.105 12.8899C251.105 12.2149 250.865 11.5999 250.385 11.0449C249.98 10.5649 249.425 10.1899 248.735 9.90494L249.575 7.93994C250.67 8.40494 251.54 9.04994 252.185 9.85994C252.89 10.7449 253.25 11.7649 253.25 12.8899ZM250.595 20.6599H248.45V18.7249H250.595V20.6599Z" fill="#231815"/>
<path d="M238.055 18.1698V19.2348H242.675V21.0948H231.455V19.2348H235.955V18.1698H232.385V16.3098H235.955V14.7498L235.16 15.7398C234.95 15.4398 234.605 15.0498 234.23 14.6598C233.9 15.1698 233.51 15.6198 233.03 15.9798C232.745 15.6798 232.085 15.1398 231.62 14.8248C231.485 17.0298 231.095 19.5498 230.15 21.2748C229.76 20.8998 228.8 20.2698 228.29 20.0598C229.475 17.8998 229.565 14.6898 229.565 12.4698V8.4198H234.98V7.1748H237.26V8.4198H242.54V10.4298H231.695V12.4848C231.695 13.1148 231.68 13.8348 231.635 14.5998C232.73 13.8198 233.18 12.5748 233.3 10.9998L235.28 11.1348C235.22 11.7798 235.115 12.3648 234.965 12.9048C235.325 13.2048 235.67 13.5348 235.955 13.8348V10.8498H238.055V14.1048C238.805 13.3398 239.195 12.2598 239.345 10.9998L241.28 11.2098C241.19 11.8098 241.07 12.3648 240.905 12.8898C241.595 13.4298 242.36 14.0298 242.795 14.4498L241.535 15.9648C241.205 15.6048 240.665 15.1098 240.095 14.6148C239.765 15.1248 239.36 15.5598 238.895 15.9198C238.715 15.7248 238.385 15.4098 238.055 15.1398V16.3098H241.91V18.1698H238.055Z" fill="#231815"/>
<path d="M217.88 10.595H212.84V8.645H214.25V7.295H216.35V8.645H217.88V10.595ZM226.985 19.61H226.205V21.425H224.555V19.61H220.25V21.425H218.6V19.61H217.7V21.05H213.065V15.95H217.7V17.96H218.6V13.625H221.3V13.16H218.105V11.51H219.71V11.105H218.57V9.605H219.71V9.185H218.405V7.685H219.71V7.25H221.66V7.685H223.1V7.25H225.05V7.685H226.49V9.185H225.05V9.605H226.325V11.105H225.05V11.51H226.79V13.16H223.25V13.625H226.205V17.96H226.985V19.61ZM217.565 12.935H213.23V11.135H217.565V12.935ZM217.565 15.35H213.23V13.55H217.565V15.35ZM223.1 9.605V9.185H221.66V9.605H223.1ZM223.1 11.51V11.105H221.66V11.51H223.1ZM224.555 17.96V15.125H223.25V15.785H224.225V17.285H223.25V17.96H224.555ZM221.3 15.785V15.125H220.25V15.785H221.3ZM221.3 17.96V17.285H220.25V17.96H221.3ZM215.9 19.25V17.75H214.865V19.25H215.9Z" fill="#231815"/>
<path d="M208.835 12.4848H205.565V10.2348H208.835V12.4848ZM204.68 11.2998H202.79L200.63 16.3548L198.56 15.4698L200.345 11.2998H199.415V9.04979H201.305L202.07 7.27979L204.14 8.16479L203.75 9.04979H204.68V11.2998ZM209.42 15.0798L208.925 17.2698L207.8 17.0298V17.8998C207.8 18.8298 207.5 19.6098 206.885 20.2698C206.27 20.9148 205.49 21.2298 204.56 21.2298C203.72 21.2298 203.015 20.9298 202.43 20.3148C201.845 19.6848 201.56 18.9648 201.56 18.1098C201.56 16.9848 201.95 16.0848 202.73 15.4248C203.465 14.7948 204.395 14.4798 205.55 14.4798V13.5498H207.8V14.7348C208.265 14.8248 208.805 14.9448 209.42 15.0798ZM205.55 17.8998V16.7298C204.395 16.7298 203.81 17.1948 203.81 18.1098C203.81 18.3348 203.885 18.5298 204.035 18.7098C204.17 18.8898 204.35 18.9798 204.56 18.9798C204.845 18.9798 205.085 18.8748 205.28 18.6498C205.46 18.4398 205.55 18.1848 205.55 17.8998Z" fill="#231815"/>
<path d="M194.21 19.9398C193.145 20.4648 192.125 20.7348 191.135 20.7348C190.01 20.7348 188.99 20.4048 188.06 19.7448C187.22 19.1448 186.515 18.3198 185.945 17.2698L184.685 20.5248L182.585 19.6998L187.325 7.5498L189.425 8.3748L186.14 16.7598L187.805 15.9648C188.615 17.6448 189.725 18.4848 191.135 18.4848C191.78 18.4848 192.47 18.2898 193.205 17.9148L194.21 19.9398Z" fill="#231815"/>
<path d="M177.995 8.96014L176.945 10.0401L175.88 9.00514L174.83 10.0851L173.765 9.05014L174.8 7.97014L175.88 9.00514L176.93 7.92514L177.995 8.96014ZM175.205 12.5751C174.2 12.7701 173.345 13.1751 172.64 13.7901C171.845 14.4801 171.44 15.3051 171.44 16.2651C171.44 16.9701 171.74 17.5551 172.355 18.0201C172.865 18.4101 173.51 18.6651 174.275 18.7851L173.9 21.0051C172.55 20.7801 171.455 20.2701 170.615 19.4901C169.67 18.6201 169.19 17.5401 169.19 16.2351C169.19 14.7051 169.805 13.3701 171.035 12.2451H170.465V7.64014H172.715V11.0751C173.36 10.7451 174.05 10.5051 174.755 10.3701L175.205 12.5751Z" fill="#231815"/>
<path d="M161.18 8.34521C160.19 9.29021 159.425 10.4152 158.87 11.7202C158.315 13.0252 158.045 14.3752 158.045 15.7552C158.045 17.2702 158.375 18.6802 159.05 19.9702L157.13 21.1402C156.17 19.5652 155.69 17.7352 155.69 15.6352C155.69 13.7152 156.11 12.0352 156.965 10.5952H152.12V8.34521H161.18Z" fill="#231815"/>
<path d="M145.895 15.9052C145.895 17.7502 144.845 19.3252 142.73 20.6002L141.725 18.9352C143.21 18.0352 143.945 17.0152 143.945 15.8602C143.945 15.2602 143.675 14.7952 143.15 14.4652C142.7 14.1802 142.16 14.0452 141.515 14.0452C140.27 14.0452 138.875 14.5252 137.33 15.4702L136.31 13.8202C138.155 12.6652 139.895 12.0952 141.515 12.0952C142.73 12.0952 143.75 12.4252 144.56 13.0702C145.445 13.7752 145.895 14.7202 145.895 15.9052Z" fill="#231815"/>
<path d="M124.01 10.2499L122.69 12.0499L119.84 9.9649L121.175 8.1499L124.01 10.2499ZM130.685 13.4449C128.15 16.1299 125.075 18.4699 121.49 20.4649L120.41 18.4849C123.785 16.6099 126.68 14.4049 129.065 11.8999L130.685 13.4449Z" fill="#231815"/>
<path d="M115.64 19.4752L113.96 20.9752L109.91 16.4152C108.695 18.0802 107.39 19.6252 105.995 21.0202L104.405 19.4302C106.985 16.8502 109.055 14.0302 110.615 10.9702H105.125V8.72021H114.08C113.09 11.0902 112.13 13.0102 111.2 14.4802L115.64 19.4752Z" fill="#231815"/>
<path d="M94.835 14.0899L92.915 14.3899L92.495 11.6449L94.415 11.3599L94.835 14.0899ZM98.855 12.0649C98.57 13.6999 97.97 15.3199 97.055 16.9099C96.17 18.4549 95.105 19.8199 93.845 20.9749L92.525 19.5499C93.635 18.5149 94.58 17.3299 95.345 15.9799C96.14 14.5849 96.68 13.1749 96.935 11.7199L98.855 12.0649ZM91.79 14.6449L89.855 14.9299L89.435 12.1999L91.37 11.8999L91.79 14.6449Z" fill="#231815"/>
<path d="M83.855 15.86C80.93 18.185 78.125 19.61 75.41 20.12L74.06 20.375V9.125H76.31V17.54C78.335 16.895 80.39 15.755 82.445 14.09L83.855 15.86Z" fill="#231815"/>
<path d="M68.93 18.0951H64.1V21.3501H62V18.0951H55.325V15.9951H57.08V12.0951H62V10.8051H55.37C55.685 9.87514 56.075 8.69014 56.51 7.26514L58.7 7.68514L58.355 8.70514H68.72V10.8051H64.1V12.0951H68.225V14.1951H64.1V15.9951H68.93V18.0951ZM62 15.9951V14.1951H59.18V15.9951H62Z" fill="#231815"/>
<path d="M42.815 8.81014L41.345 10.2951L39.77 8.76514L41.255 7.26514L42.815 8.81014ZM53.6 20.4801C52.235 20.9901 50.75 21.2451 49.145 21.2451C47.84 21.2451 46.625 21.0651 45.47 20.7201C44.12 20.3151 43.055 19.7151 42.26 18.9201L41.045 20.3751L39.44 19.0251L41.255 16.8501V13.3851H39.86V11.2851H43.355V16.9401C43.55 17.2551 43.82 17.5251 44.15 17.7651V10.4451H46.31L46.175 10.2651L47.39 9.27514H44.27V7.47514H52.925L50.915 10.4451H53.285V18.0351H51.26V12.0951H49.685V12.6801H50.87V14.1051H49.685V14.7801H50.87V16.2051H49.685V18.0951H47.735V16.2051H46.175V18.0951H44.66C45.83 18.7401 47.345 19.0701 49.205 19.0701C50.615 19.0701 51.905 18.8751 53.09 18.4851L53.6 20.4801ZM49.385 9.27514H47.87L48.695 10.2801L49.385 9.27514ZM47.735 12.6801V12.0951H46.175V12.6801H47.735ZM47.735 14.7801V14.1051H46.175V14.7801H47.735Z" fill="#231815"/>
<path d="M14.3929 1.19044L16 -1.87212e-05L36 27L34.3929 28.1904L14.3929 1.19044Z" fill="black"/>
<path d="M278.607 1.19044L277 -1.87212e-05L257 27L258.607 28.1904L278.607 1.19044Z" fill="black"/>
</svg>
