<svg width="293" height="62" viewBox="0 0 293 62" fill="none" xmlns="http://www.w3.org/2000/svg">
<g clip-path="url(#clip0_4582_159920)">
<rect x="1" y="1" width="291" height="60" rx="30" fill="#A56FA5" stroke="black" stroke-width="2"/>
<path d="M35.1414 24.0087L33.0932 26.0778L30.8987 23.946L32.9678 21.856L35.1414 24.0087ZM50.1685 40.2689C48.2666 40.9795 46.1975 41.3348 43.9612 41.3348C42.1429 41.3348 40.45 41.084 38.8407 40.6033C36.9597 40.039 35.4758 39.203 34.3681 38.0953L32.6752 40.1226L30.4389 38.2416L32.9678 35.2111V30.3832H31.0241V27.4572H35.8938V35.3365C36.1655 35.7754 36.5417 36.1516 37.0015 36.486V26.2868H40.0111L39.823 26.036L41.5159 24.6566H37.1687V22.1486H49.228L46.4274 26.2868H49.7296V36.8622H46.9081V28.5858H44.7136V29.4009H46.3647V31.3864H44.7136V32.3269H46.3647V34.3124H44.7136V36.9458H41.9966V34.3124H39.823V36.9458H37.7121C39.3423 37.8445 41.4532 38.3043 44.0448 38.3043C46.0094 38.3043 47.8068 38.0326 49.4579 37.4892L50.1685 40.2689ZM44.2956 24.6566H42.1847L43.3342 26.0569L44.2956 24.6566ZM41.9966 29.4009V28.5858H39.823V29.4009H41.9966ZM41.9966 32.3269V31.3864H39.823V32.3269H41.9966ZM70.4833 36.9458H63.7535V41.4811H60.8275V36.9458H51.527V34.0198H53.9723V28.5858H60.8275V26.7884H51.5897C52.0286 25.4926 52.572 23.8415 53.1781 21.856L56.2295 22.4412L55.7488 23.8624H70.1907V26.7884H63.7535V28.5858H69.501V31.5118H63.7535V34.0198H70.4833V36.9458ZM60.8275 34.0198V31.5118H56.8983V34.0198H60.8275ZM90.2338 33.8317C86.1583 37.0712 82.25 39.0567 78.4671 39.7673L76.5861 40.1226V24.4476H79.7211V36.1725C82.5426 35.2738 85.4059 33.6854 88.2692 31.3655L90.2338 33.8317ZM104.488 31.3655L101.812 31.7835L101.227 27.9588L103.902 27.5617L104.488 31.3655ZM110.089 28.544C109.692 30.8221 108.856 33.0793 107.581 35.2947C106.348 37.4474 104.864 39.3493 103.108 40.9586L101.269 38.9731C102.816 37.531 104.132 35.8799 105.198 33.9989C106.306 32.0552 107.058 30.0906 107.414 28.0633L110.089 28.544ZM100.245 32.1388L97.5488 32.5359L96.9636 28.7321L99.6597 28.3141L100.245 32.1388ZM132.431 38.8686L130.09 40.9586L124.447 34.605C122.754 36.9249 120.936 39.0776 118.992 41.0213L116.777 38.8059C120.372 35.2111 123.256 31.2819 125.429 27.0183H117.78V23.8833H130.257C128.878 27.1855 127.54 29.8607 126.244 31.9089L132.431 38.8686ZM143.048 26.0151L141.209 28.5231L137.238 25.618L139.098 23.0891L143.048 26.0151ZM152.349 30.4668C148.817 34.2079 144.532 37.4683 139.537 40.248L138.032 37.4892C142.735 34.8767 146.768 31.8044 150.091 28.3141L152.349 30.4668ZM174.085 32.4941C174.085 34.8558 173.332 36.9876 171.848 38.8895L169.382 36.9667C170.427 35.6082 170.95 34.1243 170.95 32.4941C170.95 30.9684 170.49 29.6935 169.591 28.6903C168.651 27.6244 167.438 27.1019 165.913 27.1019C164.491 27.1019 163.3 27.5826 162.318 28.544C161.336 29.5054 160.834 30.6967 160.834 32.1179C160.834 33.0584 161.127 33.9989 161.712 34.9603L164.68 29.4218L167.438 30.9057L162.84 39.4747C162.422 39.3075 161.983 39.1194 161.524 38.9104C160.374 38.3879 159.455 37.4265 158.723 36.0471C158.033 34.7722 157.699 33.4555 157.699 32.1179C157.699 29.8398 158.493 27.8961 160.102 26.3286C161.691 24.7611 163.635 23.9669 165.913 23.9669C168.316 23.9669 170.281 24.782 171.806 26.4122C173.332 28.0424 174.085 30.0697 174.085 32.4941ZM185.559 25.6389H196.385V28.3768H185.559V25.6389ZM186.019 29.9443H195.904V32.6404H186.019V29.9443ZM184.869 34.2706H196.74V37.0294H184.869V34.2706ZM189.342 26.6212H192.351V41.5856H189.342V26.6212ZM193.083 21.6679L196.051 22.5039C195.702 23.1866 195.361 23.8485 195.026 24.4894C194.692 25.1164 194.385 25.6528 194.107 26.0987L191.745 25.3254C191.912 24.991 192.08 24.6148 192.247 24.1968C192.414 23.7649 192.574 23.3329 192.727 22.901C192.881 22.4551 192.999 22.0441 193.083 21.6679ZM186.06 22.7129L188.506 21.8142C188.826 22.3437 189.112 22.9219 189.363 23.5489C189.627 24.1759 189.808 24.7332 189.906 25.2209L187.314 26.2241C187.231 25.7504 187.07 25.1861 186.834 24.5312C186.597 23.8624 186.339 23.2563 186.06 22.7129ZM177.847 28.1887H184.451V30.4459H177.847V28.1887ZM177.909 22.3367H184.409V24.5939H177.909V22.3367ZM177.847 31.0729H184.451V33.3301H177.847V31.0729ZM176.823 25.2H185.203V27.5617H176.823V25.2ZM179.226 34.0198H184.409V40.5197H179.226V38.158H181.818V36.3815H179.226V34.0198ZM177.763 34.0198H180.313V41.2721H177.763V34.0198ZM216.783 40.7078H206.187V36.4651L204.745 37.322L203.428 34.8558V41.4184H200.837V32.6404H197.493L200.523 28.1051L198.161 26.7257L202.153 21.7933L203.951 23.4235L201.861 26.0151L204.013 27.2691L202.091 30.1324H203.282V29.1501H205.664V32.6404H203.428V34.6259L205.393 33.4346L206.187 34.9394V23.0891H216.783V40.7078ZM200.147 38.7014H197.973V33.8108H200.147V38.7014ZM210.158 29.8816V25.9106H208.841V29.8816H210.158ZM214.129 37.8236V25.9106H212.603V29.8816H213.69V32.5986H212.603V37.8236H214.129ZM210.158 37.8236V32.5986H208.841V37.8236H210.158ZM237.725 34.814L235.719 37.2384C229.846 32.3687 226.836 29.9443 226.711 29.9443C226.397 29.9443 225.54 30.6967 224.098 32.2224C223.325 33.0375 222.573 33.8735 221.82 34.7095L219.584 32.515C220.524 31.5118 221.946 30.0279 223.847 28.0842C224.725 27.2273 225.687 26.8093 226.732 26.8093C227.547 26.8093 228.278 27.081 228.926 27.6035L237.725 34.814Z" fill="white"/>
<path d="M253.032 31.9902C253.1 32.0549 253.18 32.1062 253.269 32.1412C253.359 32.1763 253.454 32.1943 253.551 32.1943C253.647 32.1943 253.743 32.1763 253.832 32.1412C253.921 32.1061 254.002 32.0548 254.07 31.9901C254.07 31.9902 254.07 31.9901 254.07 31.9901L261.088 25.3621V27.8958C261.088 28.079 261.165 28.2547 261.302 28.3842C261.439 28.5138 261.625 28.5866 261.819 28.5866C262.013 28.5866 262.199 28.5138 262.337 28.3842C262.474 28.2547 262.551 28.079 262.551 27.8958V23.6913C262.551 23.6005 262.533 23.5102 262.496 23.4261C262.46 23.342 262.406 23.2654 262.339 23.2009L262.338 23.2003L261.819 23.0901V23H257.367C257.173 23 256.987 23.0728 256.85 23.2023C256.713 23.3319 256.636 23.5076 256.636 23.6908C256.636 23.874 256.713 24.0497 256.85 24.1793C256.987 24.3088 257.173 24.3816 257.367 24.3816H260.056L253.032 31.0095C253.032 31.0096 253.032 31.0095 253.032 31.0095C252.964 31.0737 252.909 31.1503 252.872 31.2344C252.835 31.3185 252.816 31.4088 252.816 31.5C252.816 31.5912 252.835 31.6815 252.872 31.7657C252.909 31.8497 252.963 31.9261 253.032 31.9902ZM262.551 36.9064V31.5C262.551 31.3168 262.474 31.1411 262.337 31.0115C262.199 30.882 262.013 30.8092 261.819 30.8092C261.625 30.8092 261.439 30.882 261.302 31.0115C261.165 31.1411 261.088 31.3168 261.088 31.5V36.9064C261.088 37.3604 260.897 37.7959 260.557 38.117C260.217 38.438 259.756 38.6184 259.275 38.6184H247.826C247.346 38.6184 246.885 38.438 246.545 38.117C246.205 37.7959 246.014 37.3604 246.014 36.9064V26.0936C246.014 25.6396 246.205 25.2041 246.545 24.8831C246.885 24.562 247.346 24.3816 247.826 24.3816H253.551C253.745 24.3816 253.931 24.3088 254.068 24.1793C254.205 24.0497 254.282 23.874 254.282 23.6908C254.282 23.5076 254.205 23.3319 254.068 23.2023C253.931 23.0728 253.745 23 253.551 23H247.826C246.958 23 246.124 23.3259 245.51 23.9061C244.896 24.4863 244.551 25.2732 244.551 26.0936V36.9064C244.551 37.7269 244.896 38.5137 245.51 39.0939C246.124 39.6741 246.958 40 247.826 40H259.275C260.144 40 260.977 39.6741 261.591 39.0939C262.206 38.5137 262.551 37.7269 262.551 36.9064Z" fill="white"/>
<path d="M253.032 31.9902C253.1 32.0549 253.18 32.1062 253.269 32.1412C253.359 32.1763 253.454 32.1943 253.551 32.1943C253.647 32.1943 253.743 32.1763 253.832 32.1412C253.921 32.1061 254.002 32.0548 254.07 31.9901M253.032 31.9902C252.963 31.9261 252.909 31.8497 252.872 31.7657C252.835 31.6815 252.816 31.5912 252.816 31.5C252.816 31.4088 252.835 31.3185 252.872 31.2344C252.909 31.1503 252.964 31.0737 253.032 31.0095M253.032 31.9902C253.032 31.9901 253.032 31.9904 253.032 31.9902ZM253.032 31.9902L253.099 31.9265M254.07 31.9901C254.07 31.9901 254.07 31.9902 254.07 31.9901ZM254.07 31.9901L261.088 25.3621V27.8958C261.088 28.079 261.165 28.2547 261.302 28.3842C261.439 28.5138 261.625 28.5866 261.819 28.5866C262.013 28.5866 262.199 28.5138 262.337 28.3842C262.474 28.2547 262.551 28.079 262.551 27.8958V23.6913M262.551 23.6913L262.455 23.6908M262.551 23.6913C262.551 23.6005 262.533 23.5102 262.496 23.4261C262.46 23.342 262.406 23.2654 262.339 23.2009L262.338 23.2003L261.819 23.0901V23H257.367C257.173 23 256.987 23.0728 256.85 23.2023C256.713 23.3319 256.636 23.5076 256.636 23.6908C256.636 23.874 256.713 24.0497 256.85 24.1793C256.987 24.3088 257.173 24.3816 257.367 24.3816H260.056L253.032 31.0095M253.032 31.0095C253.032 31.0096 253.032 31.0095 253.032 31.0095ZM262.551 36.9064V31.5C262.551 31.3168 262.474 31.1411 262.337 31.0115C262.199 30.882 262.013 30.8092 261.819 30.8092C261.625 30.8092 261.439 30.882 261.302 31.0115C261.165 31.1411 261.088 31.3168 261.088 31.5V36.9064C261.088 37.3604 260.897 37.7959 260.557 38.117C260.217 38.438 259.756 38.6184 259.275 38.6184H247.826C247.346 38.6184 246.885 38.438 246.545 38.117C246.205 37.7959 246.014 37.3604 246.014 36.9064V26.0936C246.014 25.6396 246.205 25.2041 246.545 24.8831C246.885 24.562 247.346 24.3816 247.826 24.3816H253.551C253.745 24.3816 253.931 24.3088 254.068 24.1793C254.205 24.0497 254.282 23.874 254.282 23.6908C254.282 23.5076 254.205 23.3319 254.068 23.2023C253.931 23.0728 253.745 23 253.551 23H247.826C246.958 23 246.124 23.3259 245.51 23.9061C244.896 24.4863 244.551 25.2732 244.551 26.0936V36.9064C244.551 37.7269 244.896 38.5137 245.51 39.0939C246.124 39.6741 246.958 40 247.826 40H259.275C260.144 40 260.977 39.6741 261.591 39.0939C262.206 38.5137 262.551 37.7269 262.551 36.9064Z" stroke="white" stroke-width="0.5"/>
</g>
<defs>
<clipPath id="clip0_4582_159920">
<rect width="293" height="62" fill="white"/>
</clipPath>
</defs>
</svg>
