<svg width="276" height="29" viewBox="0 0 276 29" fill="none" xmlns="http://www.w3.org/2000/svg">
<path d="M248.582 12.8899C248.582 13.7599 248.357 14.5549 247.907 15.2899C247.442 16.0249 246.827 16.6249 246.062 17.0749V17.8099H243.932V15.7249C244.697 15.4099 245.282 15.0649 245.672 14.6899C246.182 14.1949 246.437 13.5949 246.437 12.8899C246.437 12.2149 246.197 11.5999 245.717 11.0449C245.312 10.5649 244.757 10.1899 244.067 9.90494L244.907 7.93994C246.002 8.40494 246.872 9.04994 247.517 9.85994C248.222 10.7449 248.582 11.7649 248.582 12.8899ZM245.927 20.6599H243.782V18.7249H245.927V20.6599Z" fill="#231815"/>
<path d="M233.837 18.1698V19.2348H238.457V21.0948H227.237V19.2348H231.737V18.1698H228.167V16.3098H231.737V14.7498L230.942 15.7398C230.732 15.4398 230.387 15.0498 230.012 14.6598C229.682 15.1698 229.292 15.6198 228.812 15.9798C228.527 15.6798 227.867 15.1398 227.402 14.8248C227.267 17.0298 226.877 19.5498 225.932 21.2748C225.542 20.8998 224.582 20.2698 224.072 20.0598C225.257 17.8998 225.347 14.6898 225.347 12.4698V8.4198H230.762V7.1748H233.042V8.4198H238.322V10.4298H227.477V12.4848C227.477 13.1148 227.462 13.8348 227.417 14.5998C228.512 13.8198 228.962 12.5748 229.082 10.9998L231.062 11.1348C231.002 11.7798 230.897 12.3648 230.747 12.9048C231.107 13.2048 231.452 13.5348 231.737 13.8348V10.8498H233.837V14.1048C234.587 13.3398 234.977 12.2598 235.127 10.9998L237.062 11.2098C236.972 11.8098 236.852 12.3648 236.687 12.8898C237.377 13.4298 238.142 14.0298 238.577 14.4498L237.317 15.9648C236.987 15.6048 236.447 15.1098 235.877 14.6148C235.547 15.1248 235.142 15.5598 234.677 15.9198C234.497 15.7248 234.167 15.4098 233.837 15.1398V16.3098H237.692V18.1698H233.837Z" fill="#231815"/>
<path d="M214.112 10.595H209.072V8.645H210.482V7.295H212.582V8.645H214.112V10.595ZM223.217 19.61H222.437V21.425H220.787V19.61H216.482V21.425H214.832V19.61H213.932V21.05H209.297V15.95H213.932V17.96H214.832V13.625H217.532V13.16H214.337V11.51H215.942V11.105H214.802V9.605H215.942V9.185H214.637V7.685H215.942V7.25H217.892V7.685H219.332V7.25H221.282V7.685H222.722V9.185H221.282V9.605H222.557V11.105H221.282V11.51H223.022V13.16H219.482V13.625H222.437V17.96H223.217V19.61ZM213.797 12.935H209.462V11.135H213.797V12.935ZM213.797 15.35H209.462V13.55H213.797V15.35ZM219.332 9.605V9.185H217.892V9.605H219.332ZM219.332 11.51V11.105H217.892V11.51H219.332ZM220.787 17.96V15.125H219.482V15.785H220.457V17.285H219.482V17.96H220.787ZM217.532 15.785V15.125H216.482V15.785H217.532ZM217.532 17.96V17.285H216.482V17.96H217.532ZM212.132 19.25V17.75H211.097V19.25H212.132Z" fill="#231815"/>
<path d="M205.517 12.4848H202.247V10.2348H205.517V12.4848ZM201.362 11.2998H199.472L197.312 16.3548L195.242 15.4698L197.027 11.2998H196.097V9.04979H197.987L198.752 7.27979L200.822 8.16479L200.432 9.04979H201.362V11.2998ZM206.102 15.0798L205.607 17.2698L204.482 17.0298V17.8998C204.482 18.8298 204.182 19.6098 203.567 20.2698C202.952 20.9148 202.172 21.2298 201.242 21.2298C200.402 21.2298 199.697 20.9298 199.112 20.3148C198.527 19.6848 198.242 18.9648 198.242 18.1098C198.242 16.9848 198.632 16.0848 199.412 15.4248C200.147 14.7948 201.077 14.4798 202.232 14.4798V13.5498H204.482V14.7348C204.947 14.8248 205.487 14.9448 206.102 15.0798ZM202.232 17.8998V16.7298C201.077 16.7298 200.492 17.1948 200.492 18.1098C200.492 18.3348 200.567 18.5298 200.717 18.7098C200.852 18.8898 201.032 18.9798 201.242 18.9798C201.527 18.9798 201.767 18.8748 201.962 18.6498C202.142 18.4398 202.232 18.1848 202.232 17.8998Z" fill="#231815"/>
<path d="M191.342 19.9398C190.277 20.4648 189.257 20.7348 188.267 20.7348C187.142 20.7348 186.122 20.4048 185.192 19.7448C184.352 19.1448 183.647 18.3198 183.077 17.2698L181.817 20.5248L179.717 19.6998L184.457 7.5498L186.557 8.3748L183.272 16.7598L184.937 15.9648C185.747 17.6448 186.857 18.4848 188.267 18.4848C188.912 18.4848 189.602 18.2898 190.337 17.9148L191.342 19.9398Z" fill="#231815"/>
<path d="M175.577 8.96014L174.527 10.0401L173.462 9.00514L172.412 10.0851L171.347 9.05014L172.382 7.97014L173.462 9.00514L174.512 7.92514L175.577 8.96014ZM172.787 12.5751C171.782 12.7701 170.927 13.1751 170.222 13.7901C169.427 14.4801 169.022 15.3051 169.022 16.2651C169.022 16.9701 169.322 17.5551 169.937 18.0201C170.447 18.4101 171.092 18.6651 171.857 18.7851L171.482 21.0051C170.132 20.7801 169.037 20.2701 168.197 19.4901C167.252 18.6201 166.772 17.5401 166.772 16.2351C166.772 14.7051 167.387 13.3701 168.617 12.2451H168.047V7.64014H170.297V11.0751C170.942 10.7451 171.632 10.5051 172.337 10.3701L172.787 12.5751Z" fill="#231815"/>
<path d="M159.212 8.34521C158.222 9.29021 157.457 10.4152 156.902 11.7202C156.347 13.0252 156.077 14.3752 156.077 15.7552C156.077 17.2702 156.407 18.6802 157.082 19.9702L155.162 21.1402C154.202 19.5652 153.722 17.7352 153.722 15.6352C153.722 13.7152 154.142 12.0352 154.997 10.5952H150.152V8.34521H159.212Z" fill="#231815"/>
<path d="M144.377 15.9052C144.377 17.7502 143.327 19.3252 141.212 20.6002L140.207 18.9352C141.692 18.0352 142.427 17.0152 142.427 15.8602C142.427 15.2602 142.157 14.7952 141.632 14.4652C141.182 14.1802 140.642 14.0452 139.997 14.0452C138.752 14.0452 137.357 14.5252 135.812 15.4702L134.792 13.8202C136.637 12.6652 138.377 12.0952 139.997 12.0952C141.212 12.0952 142.232 12.4252 143.042 13.0702C143.927 13.7752 144.377 14.7202 144.377 15.9052Z" fill="#231815"/>
<path d="M131.357 14.8998H123.332V12.9498H124.832L125.072 11.7498H124.082V9.97979H125.492L125.627 9.34979H123.482V7.47479H131.282V9.34979H127.622L127.487 9.97979H130.157V12.9498H131.357V14.8998ZM123.062 10.5648H117.302V8.61478H119.057V7.27979H121.157V8.61478H123.062V10.5648ZM130.697 21.0948H123.842V15.5298H130.697V21.0948ZM122.702 12.9048H117.737V11.1048H122.702V12.9048ZM122.702 15.3198H117.737V13.5198H122.702V15.3198ZM122.717 21.0198H117.692V15.9198H122.717V21.0198ZM128.207 12.9498V11.7498H127.067L126.827 12.9498H128.207ZM128.747 19.1448V17.4798H125.792V19.1448H128.747ZM120.962 19.2648V17.6748H119.447V19.2648H120.962Z" fill="#231815"/>
<path d="M115.592 10.1751H113.132V10.9251H111.032V10.1751H106.982V10.9251H104.882V10.1751H102.437V8.0751H104.882V7.1001H106.982V8.0751H111.032V7.1001H113.132V8.0751H115.592V10.1751ZM115.472 19.6551L114.392 21.4551L111.167 19.5051L112.247 17.7051L115.472 19.6551ZM115.907 16.9251H108.632C107.657 18.8301 106.067 20.3301 103.862 21.4551L102.902 19.5951C104.327 18.8601 105.422 17.9751 106.187 16.9251H102.032V14.8251H103.817V11.6001H107.792C107.807 11.3151 107.807 11.0151 107.807 10.7001H109.907C109.907 11.0151 109.907 11.3151 109.892 11.6001H114.197V14.8251H115.907V16.9251ZM112.097 14.8251V13.4001H109.727C109.652 13.8951 109.562 14.3751 109.442 14.8251H112.097ZM107.597 13.4001H105.917V14.8251H107.252C107.387 14.3901 107.507 13.9101 107.597 13.4001Z" fill="#231815"/>
<path d="M100.157 16.4748C99.332 17.2548 98.342 17.9898 97.217 18.6948C95.972 19.4598 94.862 19.9848 93.902 20.2698L92.447 20.6898V8.46484H94.697V17.5248C96.182 16.7898 97.487 15.8898 98.612 14.8248L100.157 16.4748ZM91.427 9.72484L90.197 19.2498L87.962 18.9498L89.192 9.42484L91.427 9.72484Z" fill="#231815"/>
<path d="M85.3071 18.4699L83.2071 19.2799C81.8571 15.7399 80.6871 12.8299 79.7121 10.5499L81.7521 9.67988L81.0471 8.98988L82.0821 7.90988L83.1621 8.94488L84.2121 7.87988L85.2771 8.91488L84.2271 9.97988L83.1621 8.94488L82.1121 10.0249L81.8121 9.73988C82.7871 12.0349 83.9571 14.9449 85.3071 18.4699ZM77.0121 10.2499C76.4421 13.7599 75.4521 16.9099 74.0421 19.6999L72.0321 18.6799C73.3371 16.0999 74.2671 13.1749 74.7921 9.88988L77.0121 10.2499Z" fill="#231815"/>
<path d="M69.347 15.245H57.047V13.145H69.347V15.245Z" fill="#231815"/>
<path d="M53.027 19.5351H43.037V9.51514H53.027V19.5351ZM50.777 17.2851V11.7651H45.287V17.2851H50.777Z" fill="#231815"/>
<path d="M39.3771 8.61508L38.3271 9.68008L37.2621 8.64508L36.2121 9.72508L35.1471 8.69008L36.1821 7.61008L37.2621 8.64508L38.3121 7.58008L39.3771 8.61508ZM38.3271 10.8651C36.3321 15.4851 33.8871 18.9951 30.9921 21.3951L29.5671 19.6551C31.8621 17.7501 33.8121 15.1551 35.4021 11.8701L32.6871 10.4601L29.5221 14.4651L27.7521 13.0851L32.0721 7.59508L38.3271 10.8651Z" fill="#231815"/>
<line x1="20.8035" y1="27.5952" x2="0.8035" y2="0.595228" stroke="black" stroke-width="2" stroke-linejoin="round"/>
<line y1="-1" x2="33.6006" y2="-1" transform="matrix(0.595228 -0.803557 -0.803557 -0.595228 253.607 27)" stroke="black" stroke-width="2" stroke-linejoin="round"/>
</svg>
