<svg width="169" height="20" viewBox="0 0 169 20" fill="none" xmlns="http://www.w3.org/2000/svg">
<path d="M10.4774 17.3584H1.90195V2.36573H4.65767V14.6027H10.4774V17.3584ZM16.0989 17.3584H13.3432V2.36573H16.0989V17.3584ZM31.435 17.8594L22.5705 8.80217L22.5512 17.3584H19.7955L19.8147 2.07666L28.6793 11.1339V2.36573H31.435V17.8594ZM42.5645 10.8063H38.4406V8.05061H42.5645V10.8063ZM43.2004 17.3584H34.7598V2.36573H43.2004V5.10218H37.5156V14.6027H43.2004V17.3584ZM58.7941 9.49953L57.7553 10.5685L56.6713 9.52964L55.6175 10.6136L54.5485 9.57481L55.6024 8.50588L56.6713 9.52964L57.7252 8.46071L58.7941 9.49953ZM56.2347 5.66043C55.2411 6.60891 54.4733 7.73806 53.9162 9.04787C53.3592 10.3577 53.0882 11.7127 53.0882 13.0977C53.0882 14.6183 53.4194 16.0335 54.0969 17.3283L52.1698 18.5026C51.2063 16.9218 50.7245 15.085 50.7245 12.9773C50.7245 11.0502 51.146 9.36403 52.0042 7.91872H47.1564V5.66043H56.2347ZM70.8715 11.9626H75.1111V6.2777H70.8715V7.72301H74.4944V10.2282H70.8715V11.9626ZM68.1736 10.2282H64.4158V11.9626H68.1736V10.2282ZM68.1736 6.2777H64.4158V7.72301H68.1736V6.2777ZM68.1736 1.07458H70.8715V3.57979H77.809V14.6605H70.8715V18.9964H68.1736V14.6605H61.7179V3.57979H68.1736V1.07458ZM98.0433 13.2537L95.5766 14.3329L91.1636 4.38916H87.1553V1.69125H92.9173L98.0433 13.2537ZM84.1491 3.65687L82.2605 5.56468L80.2756 3.59906L82.1834 1.69125L84.1491 3.65687ZM92.2813 8.82144C91.0673 11.0376 89.5449 12.9647 87.6756 14.6027L86.0183 12.6178C87.6563 11.1725 88.986 9.45738 90.0074 7.47248L92.2813 8.82144ZM98.2167 17.3969C96.2126 18.2063 93.9964 18.611 91.5683 18.611C88.1574 18.611 85.5173 17.8594 83.648 16.3756L81.9329 18.4568L79.8517 16.7417L82.1449 13.9667V9.53446H80.4105V6.83655H84.8428V14.1016C86.1725 15.4313 88.4272 16.1058 91.6069 16.1058C93.6881 16.1058 95.5766 15.7589 97.2917 15.0844L98.2167 17.3969Z" fill="white"/>
<path d="M107.8 4.73579C106.587 6.30276 105.988 8.22399 105.988 10.4859C105.988 12.6251 106.587 14.4373 107.786 15.8953L106.424 17.0262C104.966 15.2412 104.23 13.0475 104.23 10.4586C104.23 7.80159 104.952 5.52609 106.397 3.65936L107.8 4.73579ZM116.674 12.5297C116.674 13.4972 116.361 14.2602 115.721 14.8461C115.08 15.432 114.276 15.7318 113.309 15.7318C112.382 15.7318 111.606 15.432 110.965 14.8461C110.325 14.2602 109.998 13.4972 109.998 12.5842C109.998 11.6986 110.447 10.7448 111.333 9.75007C110.611 9.10966 110.257 8.3875 110.257 7.5972C110.257 6.80691 110.502 6.12562 111.006 5.56697C111.524 4.96743 112.164 4.66767 112.941 4.66767C113.649 4.66767 114.208 4.80392 114.603 5.06281L113.908 6.86141C113.731 6.72515 113.418 6.65703 112.941 6.65703C112.709 6.65703 112.532 6.73878 112.396 6.91592C112.26 7.09305 112.192 7.29744 112.192 7.52907C112.192 7.82884 112.41 8.12861 112.832 8.442C113.5 7.89697 114.317 7.32469 115.257 6.73878L116.211 8.3875C115.598 8.76902 115.039 9.13691 114.562 9.49118C115.966 10.3769 116.674 11.3852 116.674 12.5297ZM114.74 12.5297C114.74 11.8893 114.154 11.2898 112.982 10.7175C112.682 10.9219 112.437 11.208 112.232 11.5759C112.028 11.9438 111.933 12.3117 111.933 12.666C111.933 13.0066 112.069 13.2928 112.355 13.5244C112.641 13.756 112.955 13.865 113.309 13.865C113.704 13.865 114.045 13.7424 114.331 13.4835C114.603 13.2383 114.74 12.9249 114.74 12.5297ZM120.863 13.0884L120.113 16.9172L118.465 16.7128L119.01 12.8295L120.863 13.0884ZM129.322 12.5297C129.322 13.4972 129.008 14.2602 128.368 14.8461C127.728 15.432 126.924 15.7318 125.956 15.7318C125.03 15.7318 124.253 15.432 123.613 14.8461C122.972 14.2602 122.645 13.4972 122.645 12.5842C122.645 11.6986 123.095 10.7448 123.981 9.75007C123.258 9.10966 122.904 8.3875 122.904 7.5972C122.904 6.80691 123.149 6.12562 123.654 5.56697C124.171 4.96743 124.812 4.66767 125.588 4.66767C126.297 4.66767 126.856 4.80392 127.251 5.06281L126.556 6.86141C126.379 6.72515 126.065 6.65703 125.588 6.65703C125.357 6.65703 125.18 6.73878 125.043 6.91592C124.907 7.09305 124.839 7.29744 124.839 7.52907C124.839 7.82884 125.057 8.12861 125.479 8.442C126.147 7.89697 126.965 7.32469 127.905 6.73878L128.859 8.3875C128.245 8.76902 127.687 9.13691 127.21 9.49118C128.613 10.3769 129.322 11.3852 129.322 12.5297ZM127.387 12.5297C127.387 11.8893 126.801 11.2898 125.629 10.7175C125.33 10.9219 125.084 11.208 124.88 11.5759C124.675 11.9438 124.58 12.3117 124.58 12.666C124.58 13.0066 124.716 13.2928 125.002 13.5244C125.289 13.756 125.602 13.865 125.956 13.865C126.351 13.865 126.692 13.7424 126.978 13.4835C127.251 13.2383 127.387 12.9249 127.387 12.5297ZM138.647 10.2406C138.647 11.6441 138.375 12.8567 137.83 13.865C137.162 15.105 136.167 15.7318 134.873 15.7318C133.579 15.7318 132.584 15.105 131.916 13.865C131.385 12.8704 131.112 11.6577 131.112 10.2406C131.112 8.82352 131.385 7.61083 131.916 6.61615C132.584 5.37621 133.579 4.74942 134.873 4.74942C136.167 4.74942 137.162 5.37621 137.83 6.61615C138.375 7.62445 138.647 8.83715 138.647 10.2406ZM136.685 10.2406C136.685 9.4503 136.563 8.72814 136.331 8.0741C136.018 7.18843 135.527 6.73878 134.873 6.73878C134.233 6.73878 133.742 7.18843 133.429 8.0741C133.197 8.72814 133.074 9.4503 133.074 10.2406C133.074 11.0309 133.197 11.7531 133.429 12.4071C133.742 13.2928 134.233 13.7424 134.873 13.7424C135.527 13.7424 136.018 13.2928 136.331 12.4071C136.563 11.7531 136.685 11.0309 136.685 10.2406ZM148.005 10.2406C148.005 11.6441 147.732 12.8567 147.187 13.865C146.52 15.105 145.525 15.7318 144.231 15.7318C142.936 15.7318 141.941 15.105 141.274 13.865C140.742 12.8704 140.47 11.6577 140.47 10.2406C140.47 8.82352 140.742 7.61083 141.274 6.61615C141.941 5.37621 142.936 4.74942 144.231 4.74942C145.525 4.74942 146.52 5.37621 147.187 6.61615C147.732 7.62445 148.005 8.83715 148.005 10.2406ZM146.043 10.2406C146.043 9.4503 145.92 8.72814 145.689 8.0741C145.375 7.18843 144.885 6.73878 144.231 6.73878C143.59 6.73878 143.1 7.18843 142.786 8.0741C142.555 8.72814 142.432 9.4503 142.432 10.2406C142.432 11.0309 142.555 11.7531 142.786 12.4071C143.1 13.2928 143.59 13.7424 144.231 13.7424C144.885 13.7424 145.375 13.2928 145.689 12.4071C145.92 11.7531 146.043 11.0309 146.043 10.2406ZM161.382 16.7673H159.474V11.7939H152.076V16.7673H150.168V4.59954H161.382V16.7673ZM159.474 9.88633V6.43901H156.681V9.88633H159.474ZM154.774 9.88633V6.43901H152.076V9.88633H154.774ZM167.5 10.4586C167.5 13.0475 166.764 15.2412 165.306 17.0262L163.93 15.8953C165.129 14.4373 165.729 12.6251 165.729 10.4859C165.729 8.22399 165.129 6.30276 163.916 4.73579L165.32 3.65936C166.778 5.52609 167.5 7.80159 167.5 10.4586Z" fill="white"/>
</svg>
