<svg width="376" height="39" viewBox="0 0 376 39" fill="none" xmlns="http://www.w3.org/2000/svg">
<g clip-path="url(#clip0_4638_245272)">
<path d="M375.681 20.2218C375.681 27.6141 373.58 33.8782 369.417 38.975L365.487 35.7457C368.911 31.5827 370.623 26.408 370.623 20.2996C370.623 13.841 368.911 8.35511 365.448 3.88079L369.456 0.807129C373.619 6.1374 375.681 12.6349 375.681 20.2218Z" fill="white"/>
<path d="M358.601 38.2357H353.154V24.0347H332.027V38.2357H326.58V3.4917H358.601V38.2357ZM353.154 18.5877V8.74416H345.178V18.5877H353.154ZM339.731 18.5877V8.74416H332.027V18.5877H339.731Z" fill="white"/>
<path d="M318.792 19.599C318.792 23.6064 318.014 27.0692 316.458 29.9483C314.551 33.4888 311.711 35.2786 308.015 35.2786C304.319 35.2786 301.478 33.4888 299.572 29.9483C298.055 27.1081 297.276 23.6453 297.276 19.599C297.276 15.5527 298.055 12.0899 299.572 9.24971C301.478 5.70916 304.319 3.91943 308.015 3.91943C311.711 3.91943 314.551 5.70916 316.458 9.24971C318.014 12.1288 318.792 15.5916 318.792 19.599ZM313.189 19.599C313.189 17.3424 312.839 15.2803 312.178 13.4128C311.283 10.8838 309.882 9.59987 308.015 9.59987C306.186 9.59987 304.785 10.8838 303.891 13.4128C303.229 15.2803 302.879 17.3424 302.879 19.599C302.879 21.8556 303.229 23.9177 303.891 25.7852C304.785 28.3142 306.186 29.5981 308.015 29.5981C309.882 29.5981 311.283 28.3142 312.178 25.7852C312.839 23.9177 313.189 21.8556 313.189 19.599Z" fill="white"/>
<path d="M292.462 19.599C292.462 23.6064 291.684 27.0692 290.127 29.9483C288.221 33.4888 285.381 35.2786 281.685 35.2786C277.988 35.2786 275.148 33.4888 273.242 29.9483C271.724 27.1081 270.946 23.6453 270.946 19.599C270.946 15.5527 271.724 12.0899 273.242 9.24971C275.148 5.70916 277.988 3.91943 281.685 3.91943C285.381 3.91943 288.221 5.70916 290.127 9.24971C291.684 12.1288 292.462 15.5916 292.462 19.599ZM286.859 19.599C286.859 17.3424 286.509 15.2803 285.848 13.4128C284.953 10.8838 283.552 9.59987 281.685 9.59987C279.856 9.59987 278.455 10.8838 277.56 13.4128C276.899 15.2803 276.549 17.3424 276.549 19.599C276.549 21.8556 276.899 23.9177 277.56 25.7852C278.455 28.3142 279.856 29.5981 281.685 29.5981C283.552 29.5981 284.953 28.3142 285.848 25.7852C286.509 23.9177 286.859 21.8556 286.859 19.599Z" fill="white"/>
<path d="M243.482 27.6255L241.647 37L237.61 36.4996L238.945 26.9917L243.482 27.6255Z" fill="white"/>
<path d="M207.937 3.88079C204.474 8.35511 202.762 13.841 202.762 20.2996C202.762 26.408 204.474 31.5827 207.898 35.7457L204.007 38.975C199.844 33.8782 197.743 27.6141 197.743 20.2218C197.743 12.6349 199.805 6.1374 203.929 0.807129L207.937 3.88079Z" fill="white"/>
<path d="M192.801 26.4463L187.82 28.6251L178.911 8.54904H170.818V3.10205H182.451L192.801 26.4463ZM164.749 7.07058L160.936 10.9224L156.928 6.95385L160.78 3.10205L164.749 7.07058ZM181.167 17.4977C178.716 21.972 175.643 25.8627 171.869 29.1698L168.523 25.1624C171.83 22.2443 174.514 18.7816 176.576 14.7742L181.167 17.4977ZM193.151 34.8113C189.104 36.4454 184.63 37.2625 179.728 37.2625C172.841 37.2625 167.511 35.7451 163.737 32.7493L160.274 36.9512L156.072 33.4885L160.702 27.8859V18.9372H157.201V13.4902H166.149V28.1582C168.834 30.8428 173.386 32.2046 179.806 32.2046C184.008 32.2046 187.82 31.5042 191.283 30.1425L193.151 34.8113Z" fill="white"/>
<path d="M138.33 23.8409H146.89V12.3633H138.33V15.2813H145.645V20.3393H138.33V23.8409ZM132.883 20.3393H125.297V23.8409H132.883V20.3393ZM132.883 12.3633H125.297V15.2813H132.883V12.3633ZM132.883 1.8584H138.33V6.91632H152.337V29.2879H138.33V38.042H132.883V29.2879H119.85V6.91632H132.883V1.8584Z" fill="white"/>
<path d="M114.252 18.8667L112.155 21.0249L109.966 18.9275L107.839 21.1161L105.68 19.0187L107.808 16.8606L109.966 18.9275L112.094 16.7694L114.252 18.8667ZM109.085 11.1157C107.079 13.0307 105.528 15.3104 104.404 17.9549C103.279 20.5993 102.732 23.335 102.732 26.1314C102.732 29.2014 103.401 32.0587 104.768 34.6728L100.878 37.0437C98.9324 33.8521 97.9598 30.1437 97.9598 25.8883C97.9598 21.9976 98.8108 18.5932 100.543 15.6751H90.7559V11.1157H109.085Z" fill="white"/>
<path d="M81.8726 21.5052H73.5465V15.9415H81.8726V21.5052ZM83.1565 34.7336H66.1152V4.46387H83.1565V9.98868H71.679V29.1699H83.1565V34.7336Z" fill="white"/>
<path d="M59.7929 35.7448L41.8956 17.4585L41.8567 34.7332H36.293L36.3319 3.87988L54.2291 22.1662V4.46349H59.7929V35.7448Z" fill="white"/>
<path d="M29.218 34.7336H23.6543V4.46387H29.218V34.7336Z" fill="white"/>
<path d="M18.258 34.7336H0.944336V4.46387H6.50805V29.1699H18.258V34.7336Z" fill="white"/>
<path d="M263.725 23.2419C263.725 25.8359 262.951 28.2362 261.441 30.4431C259.931 32.6499 257.957 34.3147 255.518 35.36L253.233 30.5205C256.524 28.6234 258.189 26.1843 258.189 23.2032C258.189 21.6545 257.569 20.493 256.331 19.7574C255.285 19.0993 253.93 18.7895 252.304 18.7895C250.291 18.7895 248.51 18.9831 247 19.3703V4H261.906V9.49768H252.536V13.4854C260.009 13.4854 263.725 16.7376 263.725 23.2419Z" fill="white"/>
<path d="M232.725 23.2419C232.725 25.8359 231.951 28.2362 230.441 30.4431C228.931 32.6499 226.957 34.3147 224.518 35.36L222.233 30.5205C225.524 28.6234 227.189 26.1843 227.189 23.2032C227.189 21.6545 226.569 20.493 225.331 19.7574C224.285 19.0993 222.93 18.7895 221.304 18.7895C219.291 18.7895 217.51 18.9831 216 19.3703V4H230.906V9.49768H221.536V13.4854C229.009 13.4854 232.725 16.7376 232.725 23.2419Z" fill="white"/>
</g>
<defs>
<clipPath id="clip0_4638_245272">
<rect width="376" height="39" fill="white"/>
</clipPath>
</defs>
</svg>
