<svg width="169" height="20" viewBox="0 0 169 20" fill="none" xmlns="http://www.w3.org/2000/svg">
<path d="M10.4773 17.3584H1.90186V2.36574H4.65758V14.6027H10.4773V17.3584ZM16.0988 17.3584H13.3431V2.36574H16.0988V17.3584ZM31.4349 17.8594L22.5704 8.80217L22.5511 17.3584H19.7954L19.8146 2.07666L28.6792 11.1339V2.36574H31.4349V17.8594ZM42.5644 10.8063H38.4405V8.05061H42.5644V10.8063ZM43.2003 17.3584H34.7597V2.36574H43.2003V5.10219H37.5155V14.6027H43.2003V17.3584ZM58.794 9.49953L57.7552 10.5685L56.6712 9.52964L55.6174 10.6136L54.5484 9.57481L55.6023 8.50589L56.6712 9.52964L57.7251 8.46071L58.794 9.49953ZM56.2346 5.66043C55.241 6.60891 54.4732 7.73806 53.9161 9.04787C53.3591 10.3577 53.0881 11.7127 53.0881 13.0977C53.0881 14.6183 53.4193 16.0335 54.0968 17.3283L52.1697 18.5026C51.2062 16.9218 50.7244 15.085 50.7244 12.9773C50.7244 11.0502 51.1459 9.36404 52.0041 7.91873H47.1563V5.66043H56.2346ZM70.8714 11.9626H75.111V6.27771H70.8714V7.72301H74.4943V10.2282H70.8714V11.9626ZM68.1735 10.2282H64.4157V11.9626H68.1735V10.2282ZM68.1735 6.27771H64.4157V7.72301H68.1735V6.27771ZM68.1735 1.07458H70.8714V3.5798H77.8089V14.6605H70.8714V18.9964H68.1735V14.6605H61.7178V3.5798H68.1735V1.07458ZM98.0432 13.2537L95.5765 14.3329L91.1635 4.38917H87.1552V1.69125H92.9172L98.0432 13.2537ZM84.149 3.65687L82.2604 5.56468L80.2755 3.59907L82.1833 1.69125L84.149 3.65687ZM92.2812 8.82144C91.0672 11.0376 89.5448 12.9647 87.6755 14.6027L86.0182 12.6178C87.6562 11.1725 88.9859 9.45738 90.0073 7.47248L92.2812 8.82144ZM98.2166 17.3969C96.2125 18.2063 93.9963 18.611 91.5682 18.611C88.1573 18.611 85.5172 17.8594 83.6479 16.3756L81.9328 18.4568L79.8516 16.7417L82.1448 13.9667V9.53446H80.4104V6.83656H84.8427V14.1016C86.1724 15.4313 88.4271 16.1058 91.6068 16.1058C93.688 16.1058 95.5765 15.7589 97.2916 15.0844L98.2166 17.3969Z" fill="white"/>
<path d="M107.8 4.73579C106.587 6.30276 105.988 8.22399 105.988 10.4859C105.988 12.6251 106.587 14.4373 107.786 15.8953L106.424 17.0262C104.966 15.2412 104.23 13.0475 104.23 10.4586C104.23 7.80159 104.952 5.52609 106.397 3.65936L107.8 4.73579ZM120.863 13.0884L120.113 16.9172L118.465 16.7128L119.01 12.8295L120.863 13.0884ZM138.647 10.2406C138.647 11.6441 138.375 12.8567 137.83 13.865C137.162 15.105 136.167 15.7318 134.873 15.7318C133.579 15.7318 132.584 15.105 131.916 13.865C131.385 12.8704 131.112 11.6577 131.112 10.2406C131.112 8.82352 131.385 7.61083 131.916 6.61615C132.584 5.37621 133.579 4.74942 134.873 4.74942C136.167 4.74942 137.162 5.37621 137.83 6.61615C138.375 7.62445 138.647 8.83715 138.647 10.2406ZM136.685 10.2406C136.685 9.4503 136.563 8.72814 136.331 8.0741C136.018 7.18843 135.527 6.73878 134.873 6.73878C134.233 6.73878 133.742 7.18843 133.429 8.0741C133.197 8.72814 133.074 9.4503 133.074 10.2406C133.074 11.0309 133.197 11.7531 133.429 12.4071C133.742 13.2928 134.233 13.7424 134.873 13.7424C135.527 13.7424 136.018 13.2928 136.331 12.4071C136.563 11.7531 136.685 11.0309 136.685 10.2406ZM148.005 10.2406C148.005 11.6441 147.732 12.8567 147.187 13.865C146.52 15.105 145.525 15.7318 144.231 15.7318C142.936 15.7318 141.941 15.105 141.274 13.865C140.742 12.8704 140.47 11.6577 140.47 10.2406C140.47 8.82352 140.742 7.61083 141.274 6.61615C141.941 5.37621 142.936 4.74942 144.231 4.74942C145.525 4.74942 146.52 5.37621 147.187 6.61615C147.732 7.62445 148.005 8.83715 148.005 10.2406ZM146.043 10.2406C146.043 9.4503 145.92 8.72814 145.689 8.0741C145.375 7.18843 144.885 6.73878 144.231 6.73878C143.59 6.73878 143.1 7.18843 142.786 8.0741C142.555 8.72814 142.432 9.4503 142.432 10.2406C142.432 11.0309 142.555 11.7531 142.786 12.4071C143.1 13.2928 143.59 13.7424 144.231 13.7424C144.885 13.7424 145.375 13.2928 145.689 12.4071C145.92 11.7531 146.043 11.0309 146.043 10.2406ZM161.382 16.7673H159.474V11.7939H152.076V16.7673H150.168V4.59954H161.382V16.7673ZM159.474 9.88633V6.43901H156.681V9.88633H159.474ZM154.774 9.88633V6.43901H152.076V9.88633H154.774ZM167.5 10.4586C167.5 13.0475 166.764 15.2412 165.306 17.0262L163.93 15.8953C165.129 14.4373 165.729 12.6251 165.729 10.4859C165.729 8.22399 165.129 6.30276 163.916 4.73579L165.32 3.65936C166.778 5.52609 167.5 7.80159 167.5 10.4586Z" fill="white"/>
<path d="M129 11.7494C129 12.6593 128.722 13.5012 128.181 14.2753C127.639 15.0494 126.931 15.6333 126.056 16L125.236 14.3025C126.417 13.637 127.014 12.7815 127.014 11.7358C127.014 11.1926 126.792 10.7852 126.347 10.5272C125.972 10.2963 125.486 10.1877 124.903 10.1877C124.181 10.1877 123.542 10.2556 123 10.3914V5H128.347V6.9284H124.986V8.32716C127.667 8.32716 129 9.4679 129 11.7494Z" fill="white"/>
<path d="M117 11.7494C117 12.6593 116.722 13.5012 116.181 14.2753C115.639 15.0494 114.931 15.6333 114.056 16L113.236 14.3025C114.417 13.637 115.014 12.7815 115.014 11.7358C115.014 11.1926 114.792 10.7852 114.347 10.5272C113.972 10.2963 113.486 10.1877 112.903 10.1877C112.181 10.1877 111.542 10.2556 111 10.3914V5H116.347V6.9284H112.986V8.32716C115.667 8.32716 117 9.4679 117 11.7494Z" fill="white"/>
</svg>
