<svg width="129" height="476" viewBox="0 0 129 476" fill="none" xmlns="http://www.w3.org/2000/svg">
<rect width="55" height="476" fill="white"/>
<rect x="74" width="55" height="306" fill="white"/>
<path d="M14.6786 451.217C16.5028 451.155 18.614 451.094 21.0122 451.032C23.4308 450.95 25.9622 450.858 28.6063 450.756C31.271 450.653 33.8946 450.551 36.4772 450.448L36.3542 453.83C33.8536 453.974 31.312 454.097 28.7293 454.199C26.1672 454.322 23.728 454.435 21.4119 454.537C19.0957 454.66 17.005 454.763 15.1398 454.845L14.6786 451.217ZM14.5249 442.085H40.0745V445.529H14.5249V442.085ZM19.9976 436.151H34.4173V439.533H19.9976V436.151ZM22.0268 444.33L26.2389 445.467C25.7675 446.431 25.2653 447.415 24.7324 448.419C24.22 449.403 23.7076 450.346 23.1951 451.247C22.7032 452.149 22.2318 452.949 21.7808 453.646L18.5525 452.57C18.9625 451.811 19.3929 450.961 19.8439 450.018C20.2948 449.054 20.7047 448.081 21.0737 447.097C21.4631 446.092 21.7808 445.17 22.0268 444.33ZM29.6824 447.497L32.9107 445.775C33.8331 446.574 34.7452 447.435 35.6471 448.357C36.549 449.28 37.3791 450.212 38.1375 451.155C38.8959 452.078 39.5108 452.928 39.9822 453.707L36.5387 455.798C36.1288 455.019 35.5446 454.138 34.7862 453.154C34.0483 452.19 33.2284 451.207 32.3266 450.202C31.4452 449.198 30.5638 448.296 29.6824 447.497ZM27.1613 430.463C26.3414 431.632 25.2858 432.831 23.9945 434.061C22.7032 435.27 21.2684 436.418 19.6901 437.504C18.1118 438.591 16.4721 439.544 14.7708 440.364C14.6478 440.056 14.4531 439.718 14.1867 439.349C13.9407 438.959 13.6742 438.591 13.3873 438.242C13.1208 437.873 12.8544 437.555 12.5879 437.289C14.3506 436.51 16.0416 435.547 17.6609 434.399C19.2802 433.231 20.7252 432.001 21.996 430.709C23.2874 429.398 24.3122 428.137 25.0706 426.928H28.9446C29.7644 428.055 30.6766 429.121 31.6809 430.125C32.6853 431.13 33.7511 432.052 34.8785 432.892C36.0058 433.712 37.1639 434.45 38.3527 435.106C39.562 435.741 40.7816 436.285 42.0114 436.736C41.5605 437.187 41.1301 437.719 40.7201 438.334C40.3102 438.949 39.9412 439.533 39.6133 440.087C38.076 439.369 36.5182 438.488 34.9399 437.443C33.3617 436.397 31.8859 435.27 30.5126 434.061C29.1598 432.851 28.0427 431.652 27.1613 430.463Z" fill="#262626"/>
<path d="M15.8764 394.557H24.7312V413.435H15.8764V410.084H21.3184V397.909H15.8764V394.557ZM15.9379 402.244H22.6405V405.533H15.9379V402.244ZM29.0663 394.127H38.4744V397.54H29.0663V394.127ZM29.0663 401.444H38.4744V404.765H29.0663V401.444ZM29.0048 408.731H38.4437V412.052H29.0048V408.731ZM13.9395 394.557H17.3522V416.11H13.9395V394.557ZM37.1216 394.127H40.7804V417.524C40.7804 418.488 40.6574 419.236 40.4114 419.769C40.186 420.322 39.7658 420.753 39.1508 421.06C38.5359 421.347 37.7775 421.531 36.8757 421.613C35.9738 421.695 34.8772 421.736 33.5859 421.736C33.5244 421.388 33.4219 420.988 33.2784 420.537C33.1555 420.107 33.0017 419.676 32.8173 419.246C32.6533 418.836 32.479 418.477 32.2946 418.17C32.848 418.19 33.4014 418.211 33.9548 418.231C34.5083 418.231 35.0002 418.231 35.4306 418.231C35.8816 418.211 36.189 418.201 36.353 418.201C36.64 418.201 36.8347 418.149 36.9372 418.047C37.0601 417.944 37.1216 417.76 37.1216 417.493V394.127ZM26.8526 394.127H30.4806V405.288C30.4806 406.599 30.3986 408.014 30.2346 409.53C30.0706 411.047 29.7632 412.564 29.3123 414.081C28.8818 415.577 28.2362 417.012 27.3753 418.385C26.5144 419.738 25.3768 420.937 23.9625 421.982C23.778 421.736 23.5116 421.449 23.1631 421.121C22.8352 420.814 22.4867 420.507 22.1178 420.199C21.7693 419.892 21.4516 419.666 21.1647 419.523C22.4765 418.559 23.5116 417.504 24.27 416.356C25.0284 415.188 25.592 413.978 25.961 412.728C26.3299 411.457 26.5656 410.186 26.6681 408.915C26.7911 407.645 26.8526 406.425 26.8526 405.257V394.127Z" fill="#262626"/>
<path d="M28.8202 367.629V372.148H36.814V367.629H28.8202ZM25.2844 364.462H40.5957V375.284H25.2844V364.462ZM36.3221 358.805L40.1653 359.789C39.7349 360.752 39.3044 361.685 38.874 362.586C38.4436 363.468 38.0541 364.236 37.7057 364.892L34.5081 363.97C34.7336 363.499 34.9591 362.966 35.1845 362.371C35.4305 361.756 35.656 361.141 35.8609 360.526C36.0659 359.912 36.2196 359.338 36.3221 358.805ZM25.6534 360.065L28.9124 359.02C29.4248 359.758 29.8963 360.588 30.3267 361.51C30.7572 362.412 31.0749 363.212 31.2798 363.908L27.8363 365.138C27.6928 364.441 27.4059 363.621 26.9754 362.679C26.5655 361.715 26.1248 360.844 25.6534 360.065ZM33.3705 374.577H36.8755V383.217C36.8755 383.688 36.896 383.985 36.937 384.108C36.9985 384.211 37.1317 384.262 37.3367 384.262C37.3982 384.262 37.4904 384.262 37.6134 384.262C37.7364 384.262 37.8696 384.262 38.0131 384.262C38.1566 384.262 38.2591 384.262 38.3206 384.262C38.4846 384.262 38.6075 384.17 38.6895 383.985C38.792 383.78 38.8637 383.36 38.9047 382.725C38.9457 382.089 38.9765 381.136 38.997 379.865C39.2224 380.05 39.5197 380.234 39.8886 380.419C40.2575 380.603 40.6367 380.767 41.0262 380.911C41.4361 381.054 41.7948 381.177 42.1023 381.28C42.0203 382.919 41.8563 384.19 41.6104 385.092C41.3644 385.994 41.0057 386.619 40.5343 386.968C40.0833 387.337 39.4787 387.521 38.7203 387.521C38.5973 387.521 38.4436 387.521 38.2591 387.521C38.0951 387.521 37.9106 387.521 37.7057 387.521C37.5212 387.521 37.3367 387.521 37.1522 387.521C36.9883 387.521 36.8345 387.521 36.6911 387.521C35.7892 387.521 35.0923 387.388 34.6004 387.121C34.1289 386.855 33.801 386.404 33.6165 385.769C33.4525 385.133 33.3705 384.293 33.3705 383.247V374.577ZM28.113 374.7H31.8333C31.7308 376.053 31.577 377.365 31.3721 378.636C31.1671 379.906 30.8391 381.106 30.3882 382.233C29.9373 383.36 29.3121 384.395 28.5127 385.338C27.7338 386.301 26.709 387.152 25.4382 387.89C25.2947 387.562 25.0897 387.214 24.8233 386.845C24.5568 386.496 24.2698 386.148 23.9624 385.799C23.6549 385.451 23.3577 385.164 23.0708 384.938C24.4851 384.18 25.5304 383.278 26.2068 382.233C26.9037 381.167 27.3751 379.999 27.6211 378.728C27.8671 377.437 28.031 376.094 28.113 374.7ZM14.216 368.52H23.1015V371.318H14.216V368.52ZM14.4005 359.85H23.1322V362.617H14.4005V359.85ZM14.216 372.825H23.1015V375.623H14.216V372.825ZM12.7402 364.093H24.2083V367.014H12.7402V364.093ZM15.9378 377.191H23.3475V386.537H15.9378V383.616H20.2114V380.111H15.9378V377.191ZM14.1238 377.191H17.2291V387.736H14.1238V377.191Z" fill="#262626"/>
<path d="M25.0701 351.369C23.3688 351.369 21.9238 351.103 20.735 350.57C19.5666 350.037 18.6853 349.289 18.0908 348.325C17.4964 347.362 17.1992 346.265 17.1992 345.035C17.1992 343.908 17.4554 342.934 17.9679 342.115C18.5008 341.295 19.1669 340.567 19.9663 339.932C20.7862 339.296 21.6573 338.722 22.5797 338.21C23.5021 337.697 24.3629 337.195 25.1623 336.703C25.9822 336.191 26.6484 335.637 27.1608 335.043C27.6937 334.449 27.9602 333.772 27.9602 333.014C27.9602 332.337 27.7655 331.794 27.376 331.384C27.0071 330.974 26.4946 330.769 25.8387 330.769C25.1008 330.769 24.5167 331.005 24.0862 331.477C23.6558 331.927 23.4406 332.583 23.4406 333.444C23.4406 334.141 23.6558 334.879 24.0862 335.658C24.5167 336.437 25.1008 337.236 25.8387 338.056C26.5766 338.856 27.3965 339.655 28.2984 340.454C29.2003 341.233 30.1124 342.002 31.0347 342.76C31.9776 343.498 32.859 344.185 33.6789 344.82C34.5807 345.538 35.4416 346.163 36.2615 346.696C37.0814 347.208 37.7373 347.598 38.2292 347.864L36.2307 351.369C35.4109 350.898 34.5807 350.395 33.7404 349.862C32.9205 349.33 31.9571 348.592 30.8503 347.649C29.5794 346.583 28.2881 345.486 26.9763 344.359C25.685 343.211 24.4962 342.053 23.4098 340.885C22.3235 339.696 21.4524 338.497 20.7965 337.288C20.1405 336.058 19.8126 334.828 19.8126 333.598C19.8126 332.389 20.0688 331.354 20.5812 330.493C21.0937 329.632 21.7906 328.966 22.6719 328.494C23.5738 328.023 24.5884 327.787 25.7157 327.787C27.458 327.787 28.8416 328.238 29.8664 329.14C30.8913 330.042 31.4037 331.282 31.4037 332.86C31.4037 333.926 31.1577 334.859 30.6658 335.658C30.1944 336.457 29.5692 337.165 28.7903 337.779C28.0114 338.394 27.1813 338.968 26.2999 339.501C25.439 340.034 24.6192 340.567 23.8403 341.1C23.0819 341.612 22.4567 342.176 21.9648 342.791C21.4729 343.406 21.2269 344.113 21.2269 344.912C21.2269 345.896 21.6266 346.644 22.426 347.157C23.2254 347.669 24.24 347.925 25.4698 347.925C26.4331 347.925 27.3658 347.618 28.2676 347.003C29.19 346.368 30.0304 345.548 30.7888 344.543C31.4652 343.683 32.0186 342.75 32.449 341.746C32.9 340.721 33.2074 339.573 33.3714 338.302H37.3683C37.0609 339.86 36.6099 341.315 36.0155 342.668C35.4211 344.021 34.673 345.343 33.7711 346.634C32.7257 348.089 31.5267 349.248 30.1739 350.108C28.8211 350.949 27.1198 351.369 25.0701 351.369Z" fill="#262626"/>
<path d="M13.5396 309.683H40.9646V312.726H13.5396V309.683ZM13.6318 295.908H40.8724V298.922H13.6318V295.908ZM14.8924 301.412H39.6733V304.302H14.8924V301.412ZM16.3989 305.655H38.259V308.33H16.3989V305.655ZM25.3151 302.857H28.9738V319.767H25.3151V302.857ZM22.6403 290.835H26.0838V297.354H22.6403V290.835ZM28.3589 290.835H31.8332V297.138H28.3589V290.835ZM24.6387 311.035L27.5595 312.357C26.5962 313.423 25.4279 314.417 24.0546 315.34C22.7017 316.242 21.2465 317.031 19.6887 317.707C18.1309 318.404 16.5629 318.968 14.9846 319.398C14.8206 319.091 14.5952 318.742 14.3082 318.353C14.0417 317.984 13.7548 317.615 13.4473 317.246C13.1604 316.877 12.8836 316.57 12.6172 316.324C14.1545 315.996 15.6815 315.575 17.1983 315.063C18.7356 314.551 20.1499 313.946 21.4412 313.249C22.7325 312.552 23.7983 311.814 24.6387 311.035ZM29.7117 310.943C30.3471 311.558 31.1055 312.142 31.9869 312.696C32.8683 313.229 33.8317 313.72 34.877 314.171C35.9428 314.602 37.0599 314.981 38.2283 315.309C39.4171 315.637 40.6162 315.893 41.8255 316.078C41.5385 316.365 41.2311 316.693 40.9031 317.061C40.5957 317.451 40.2985 317.851 40.0115 318.261C39.7451 318.691 39.5196 319.08 39.3351 319.429C38.1053 319.121 36.896 318.722 35.7071 318.23C34.5388 317.758 33.4217 317.215 32.3559 316.6C31.29 315.985 30.2857 315.299 29.3428 314.54C28.3999 313.782 27.5698 312.972 26.8524 312.111L29.7117 310.943ZM35.4304 291.112L39.2736 292.035C38.8022 292.875 38.3205 293.695 37.8286 294.494C37.3366 295.273 36.8857 295.939 36.4758 296.493L33.4627 295.57C33.7087 295.16 33.9546 294.699 34.2006 294.187C34.4466 293.654 34.672 293.121 34.877 292.588C35.1025 292.035 35.2869 291.543 35.4304 291.112ZM31.372 297.692L35.2767 298.614C34.8463 299.332 34.4363 300.028 34.0469 300.705C33.6574 301.361 33.309 301.924 33.0015 302.396L29.8655 301.535C30.1319 300.961 30.4086 300.326 30.6956 299.629C30.9826 298.911 31.208 298.266 31.372 297.692ZM15.8147 292.096L18.9815 291.02C19.4325 291.655 19.8834 292.393 20.3343 293.234C20.7853 294.053 21.1132 294.761 21.3182 295.355L17.9977 296.585C17.8337 295.97 17.5365 295.242 17.106 294.402C16.6756 293.562 16.2452 292.793 15.8147 292.096ZM19.7194 298.983L23.3167 298.399C23.5831 298.829 23.8393 299.321 24.0853 299.875C24.3518 300.408 24.5465 300.879 24.6695 301.289L20.9185 301.935C20.816 301.545 20.652 301.064 20.4266 300.49C20.2011 299.916 19.9654 299.413 19.7194 298.983Z" fill="#262626"/>
<path d="M38.3219 257.051L40.5048 259.726C39.3365 260.013 38.0657 260.258 36.6924 260.463C35.3191 260.668 33.8945 260.853 32.4187 261.017C30.943 261.16 29.4672 261.283 27.9914 261.386C26.5361 261.488 25.1115 261.57 23.7177 261.632C23.6767 261.242 23.564 260.781 23.3795 260.248C23.2156 259.715 23.0516 259.264 22.8876 258.895C24.2404 258.834 25.624 258.742 27.0383 258.619C28.4731 258.496 29.8669 258.363 31.2197 258.219C32.5725 258.055 33.8535 257.871 35.0629 257.666C36.2927 257.461 37.379 257.256 38.3219 257.051ZM23.8407 262.616L26.6386 261.724C26.987 262.318 27.3355 262.985 27.6839 263.722C28.0324 264.44 28.2783 265.065 28.4218 265.598L25.501 266.643C25.3575 266.09 25.132 265.444 24.8246 264.706C24.5171 263.948 24.1892 263.251 23.8407 262.616ZM29.7439 261.97L32.6032 261.324C32.8697 261.939 33.1259 262.626 33.3719 263.384C33.6178 264.143 33.792 264.788 33.8945 265.321L30.8815 266.09C30.7995 265.557 30.6457 264.901 30.4203 264.122C30.1948 263.343 29.9693 262.626 29.7439 261.97ZM37.1843 260.894L40.5971 261.909C40.0436 262.933 39.4697 263.979 38.8753 265.045C38.3014 266.09 37.7685 266.971 37.2765 267.689L34.5709 266.766C34.8784 266.233 35.1961 265.629 35.524 264.952C35.852 264.255 36.1595 263.559 36.4464 262.862C36.7334 262.144 36.9793 261.488 37.1843 260.894ZM22.5494 266.428H41.2735V271.47H37.8607V269.41H25.8392V271.44H22.5494V266.428ZM24.1789 272.055H37.2765V275.068H24.1789V272.055ZM36.139 272.055H36.7846L37.3688 271.932L39.5517 272.762C38.9368 274.688 38.0964 276.379 37.0306 277.835C35.9852 279.27 34.7452 280.51 33.3104 281.555C31.8756 282.58 30.287 283.42 28.5448 284.076C26.8025 284.752 24.9373 285.296 22.9491 285.706C22.8671 285.398 22.7339 285.039 22.5494 284.63C22.3854 284.22 22.1907 283.82 21.9652 283.43C21.7603 283.041 21.5553 282.723 21.3503 282.477C23.1746 282.211 24.8758 281.811 26.4541 281.278C28.0324 280.745 29.4672 280.079 30.7585 279.28C32.0498 278.46 33.1464 277.497 34.0483 276.39C34.9706 275.262 35.6675 273.971 36.139 272.516V272.055ZM28.0221 274.668C29.129 276.8 30.82 278.532 33.0951 279.864C35.3908 281.196 38.1784 282.098 41.4579 282.57C41.1915 282.815 40.9148 283.123 40.6278 283.492C40.3614 283.881 40.1051 284.271 39.8592 284.66C39.6132 285.07 39.4082 285.429 39.2443 285.736C35.7393 285.06 32.8184 283.881 30.4818 282.201C28.1451 280.52 26.2901 278.296 24.9168 275.529L28.0221 274.668ZM12.4648 272.393C13.6947 272.126 15.1602 271.768 16.8615 271.317C18.5832 270.866 20.3152 270.394 22.0575 269.902L22.5187 273.223C20.9404 273.694 19.3416 274.176 17.7223 274.668C16.1236 275.139 14.6375 275.57 13.2642 275.959L12.4648 272.393ZM12.8338 262.708H22.2419V266.09H12.8338V262.708ZM16.1543 256.897H19.5363V281.862C19.5363 282.703 19.4441 283.369 19.2596 283.861C19.0956 284.373 18.7779 284.773 18.3065 285.06C17.8351 285.347 17.2509 285.542 16.554 285.644C15.8776 285.747 15.0372 285.788 14.0329 285.767C13.9919 285.316 13.8791 284.752 13.6947 284.076C13.5102 283.42 13.3052 282.846 13.0798 282.354C13.6332 282.375 14.1456 282.395 14.617 282.416C15.109 282.416 15.4472 282.406 15.6316 282.385C15.8366 282.385 15.9698 282.354 16.0313 282.293C16.1133 282.211 16.1543 282.067 16.1543 281.862V256.897Z" fill="#262626"/>
<path d="M29.7121 237.624V240.453H37.583V237.624H29.7121ZM26.699 234.949H40.719V243.128H26.699V234.949ZM33.4016 226.095C32.9507 226.914 32.3665 227.775 31.6491 228.677C30.9317 229.579 30.1221 230.44 29.2202 231.26C28.3388 232.08 27.4062 232.797 26.4223 233.412C26.2584 232.961 26.0124 232.449 25.6844 231.875C25.3565 231.28 25.0388 230.799 24.7313 230.43C25.7152 229.876 26.6478 229.179 27.5292 228.339C28.4311 227.499 29.2407 226.607 29.9581 225.664C30.6755 224.701 31.2494 223.778 31.6798 222.897H34.9081C35.5025 223.819 36.1892 224.742 36.9681 225.664C37.747 226.566 38.5771 227.386 39.4585 228.124C40.3398 228.841 41.2315 229.425 42.1333 229.876C41.8054 230.286 41.4672 230.799 41.1187 231.413C40.7908 232.008 40.5141 232.551 40.2886 233.043C39.4072 232.51 38.5361 231.864 37.6752 231.106C36.8144 230.327 36.015 229.507 35.2771 228.646C34.5392 227.786 33.914 226.935 33.4016 226.095ZM31.9565 231.721H35.2156V237.747C35.2156 238.977 35.1233 240.237 34.9389 241.529C34.7749 242.8 34.4059 244.06 33.832 245.311C33.2786 246.54 32.4587 247.709 31.3724 248.816C30.286 249.922 28.8307 250.927 27.0065 251.829C26.8425 251.562 26.6273 251.265 26.3608 250.937C26.1149 250.629 25.8484 250.312 25.5615 249.984C25.2745 249.676 25.008 249.43 24.7621 249.246C26.3813 248.488 27.6624 247.657 28.6053 246.756C29.5686 245.833 30.286 244.87 30.7575 243.865C31.2494 242.841 31.5671 241.806 31.7106 240.76C31.8746 239.715 31.9565 238.69 31.9565 237.686V231.721ZM35.523 241.529C36.0765 243.128 36.8963 244.583 37.9827 245.895C39.0895 247.186 40.4321 248.16 42.0104 248.816C41.7439 249.041 41.4569 249.318 41.1495 249.646C40.8625 249.994 40.5858 250.353 40.3193 250.722C40.0529 251.091 39.8274 251.429 39.6429 251.736C37.9212 250.814 36.4966 249.523 35.3693 247.862C34.2625 246.202 33.3811 244.327 32.7252 242.236L35.523 241.529ZM28.8205 230.46H38.3209V233.32H28.8205V230.46ZM15.9688 228.677H24.9465V231.475H15.9688V228.677ZM15.9688 233.35H24.9465V236.118H15.9688V233.35ZM14.2163 238.024H24.7621V240.883H14.2163V238.024ZM19.3508 225.756H22.2717V239.592H19.3508V225.756ZM20.3655 242.267L21.8105 241.806C22.118 242.4 22.4049 243.066 22.6714 243.804C22.9583 244.542 23.1531 245.177 23.2555 245.71L21.749 246.264C21.6465 245.731 21.462 245.085 21.1956 244.327C20.9496 243.568 20.6729 242.882 20.3655 242.267ZM18.367 242.697L19.935 242.42C20.2015 243.199 20.4269 244.06 20.6114 245.003C20.7959 245.925 20.9086 246.715 20.9496 247.37L19.3201 247.709C19.2791 247.032 19.1664 246.233 18.9819 245.311C18.8179 244.368 18.613 243.497 18.367 242.697ZM16.2455 242.851L17.8443 242.697C18.0083 243.599 18.1108 244.583 18.1518 245.649C18.1928 246.694 18.203 247.596 18.1825 248.354L16.4915 248.6C16.553 247.821 16.553 246.899 16.4915 245.833C16.4505 244.767 16.3685 243.773 16.2455 242.851ZM13.9704 242.205L15.9996 242.605C15.9586 243.548 15.8766 244.48 15.7536 245.403C15.6511 246.325 15.4769 247.186 15.2309 247.985C15.0055 248.764 14.6878 249.441 14.2778 250.015L12.4023 249C12.7713 248.467 13.0582 247.852 13.2632 247.155C13.4682 246.438 13.6219 245.659 13.7244 244.819C13.8474 243.958 13.9294 243.087 13.9704 242.205ZM14.2163 224.035H25.5615V227.017H17.2601V239.992H14.2163V224.035ZM23.1633 238.024H26.1764C26.1764 238.024 26.1764 238.178 26.1764 238.485C26.1764 238.792 26.1661 239.049 26.1456 239.254C26.0636 241.734 25.9612 243.742 25.8382 245.28C25.7152 246.817 25.5717 248.006 25.4077 248.846C25.2438 249.666 25.0388 250.23 24.7928 250.537C24.5469 250.886 24.2804 251.132 23.9934 251.275C23.7065 251.439 23.3683 251.552 22.9788 251.613C22.6714 251.675 22.2717 251.706 21.7798 251.706C21.3083 251.726 20.8061 251.726 20.2732 251.706C20.2527 251.255 20.1707 250.763 20.0273 250.23C19.8838 249.697 19.6993 249.236 19.4738 248.846C19.8838 248.887 20.2527 248.918 20.5807 248.938C20.9086 248.959 21.1751 248.969 21.3801 248.969C21.544 248.969 21.6875 248.938 21.8105 248.877C21.9335 248.816 22.0565 248.713 22.1794 248.57C22.3434 248.365 22.4767 247.924 22.5791 247.247C22.7021 246.571 22.8046 245.536 22.8866 244.142C22.9891 242.748 23.0813 240.883 23.1633 238.546V238.024Z" fill="#262626"/>
<path d="M18.6138 188.989L22.1188 190.065C21.5244 191.787 20.807 193.529 19.9666 195.292C19.1468 197.034 18.2449 198.695 17.261 200.273C16.2977 201.831 15.2933 203.204 14.248 204.393C14.125 204.085 13.9405 203.696 13.6945 203.224C13.4691 202.733 13.2231 202.241 12.9566 201.749C12.6902 201.257 12.4442 200.857 12.2188 200.55C13.1001 199.607 13.9303 198.52 14.7091 197.291C15.5085 196.04 16.2362 194.708 16.8921 193.294C17.5685 191.879 18.1424 190.445 18.6138 188.989ZM16.1234 197.506L19.6284 194.001V194.032V217.706H16.1234V197.506ZM29.2211 189.02H32.8183V217.521H29.2211V189.02ZM21.4117 194.37H41.3348V197.875H21.4117V194.37ZM25.1626 209.281H36.969V212.571H25.1626V209.281ZM34.1404 196.337C34.6733 198.059 35.3599 199.801 36.2003 201.564C37.0407 203.306 37.9733 204.936 38.9982 206.453C40.023 207.949 41.0889 209.22 42.1957 210.265C41.7653 210.573 41.2733 211.003 40.7199 211.557C40.187 212.11 39.7566 212.633 39.4286 213.125C38.3218 211.895 37.2662 210.419 36.2618 208.697C35.2575 206.975 34.3556 205.12 33.5562 203.132C32.7568 201.124 32.0702 199.105 31.4962 197.075L34.1404 196.337ZM28.0835 196.03L30.7583 196.768C30.1844 198.9 29.4773 200.99 28.6369 203.04C27.7965 205.09 26.8537 206.986 25.8083 208.728C24.763 210.47 23.6356 211.966 22.4263 213.217C22.2213 212.93 21.9651 212.612 21.6576 212.264C21.3502 211.895 21.0222 211.546 20.6738 211.218C20.3458 210.89 20.0486 210.624 19.7822 210.419C20.971 209.374 22.0881 208.082 23.1334 206.545C24.1993 204.987 25.1524 203.306 25.9928 201.503C26.8537 199.678 27.5506 197.854 28.0835 196.03Z" fill="#262626"/>
<path d="M19.228 157.633C19.7609 158.002 20.386 158.453 21.1034 158.986C21.8208 159.519 22.5587 160.103 23.3171 160.739C24.096 161.354 24.8237 161.958 25.5001 162.553C26.1765 163.147 26.7299 163.68 27.1603 164.151L24.0243 167.349C23.6348 166.918 23.1224 166.406 22.487 165.812C21.8516 165.217 21.1649 164.602 20.427 163.967C19.6891 163.331 18.9615 162.727 18.2441 162.153C17.5267 161.579 16.8913 161.097 16.3379 160.708L19.228 157.633ZM15.3848 178.11C16.9835 177.884 18.4901 177.567 19.9044 177.157C21.3187 176.747 22.6305 176.275 23.8398 175.742C25.0491 175.21 26.156 174.656 27.1603 174.082C28.9026 173.037 30.5014 171.848 31.9566 170.516C33.4119 169.183 34.6828 167.8 35.7691 166.365C36.8554 164.91 37.7163 163.495 38.3517 162.122L40.7499 166.457C39.971 167.831 39.0076 169.204 37.8598 170.577C36.7325 171.95 35.4514 173.262 34.0166 174.513C32.5818 175.742 31.0343 176.849 29.374 177.833C28.3287 178.469 27.2013 179.073 25.992 179.647C24.7827 180.201 23.5016 180.693 22.1488 181.123C20.8165 181.574 19.4227 181.922 17.9674 182.168L15.3848 178.11Z" fill="#262626"/>
<path d="M13.7246 135.04C16.4917 134.323 18.9924 133.492 21.2265 132.55C23.4812 131.586 25.4592 130.582 27.1604 129.536C28.2263 128.881 29.2921 128.132 30.358 127.292C31.4443 126.431 32.4589 125.55 33.4018 124.648C34.3652 123.746 35.1748 122.885 35.8307 122.065L39.1512 125.232C38.2084 126.154 37.1733 127.087 36.0459 128.03C34.9391 128.973 33.781 129.875 32.5717 130.736C31.3623 131.596 30.1633 132.386 28.9744 133.103C27.8061 133.779 26.4943 134.476 25.039 135.194C23.6042 135.911 22.0874 136.587 20.4886 137.223C18.8899 137.858 17.2809 138.422 15.6616 138.914L13.7246 135.04ZM26.5148 131.504L30.8807 130.49V144.325C30.8807 144.776 30.8909 145.268 30.9114 145.801C30.9319 146.334 30.9626 146.826 31.0036 147.277C31.0446 147.748 31.0959 148.107 31.1574 148.353H26.2996C26.3406 148.107 26.3713 147.748 26.3918 147.277C26.4328 146.826 26.4635 146.334 26.484 145.801C26.5045 145.268 26.5148 144.776 26.5148 144.325V131.504Z" fill="#262626"/>
<path d="M18.6743 89.4181C19.1047 89.4796 19.6172 89.5206 20.2116 89.5411C20.806 89.5616 21.3594 89.5718 21.8718 89.5718C22.2613 89.5718 22.8557 89.5718 23.6551 89.5718C24.475 89.5718 25.3768 89.5718 26.3607 89.5718C27.3651 89.5718 28.3592 89.5718 29.343 89.5718C30.3269 89.5718 31.2083 89.5718 31.9871 89.5718C32.766 89.5718 33.3399 89.5718 33.7089 89.5718C34.1803 89.5718 34.744 89.5616 35.3999 89.5411C36.0558 89.5206 36.599 89.4796 37.0294 89.4181V93.3843C36.6195 93.3433 36.0866 93.3228 35.4306 93.3228C34.7952 93.3023 34.2008 93.292 33.6474 93.292C33.3195 93.292 32.7558 93.292 31.9564 93.292C31.1775 93.292 30.2859 93.292 29.2815 93.292C28.2977 93.292 27.3036 93.292 26.2992 93.292C25.3153 93.292 24.4237 93.292 23.6243 93.292C22.825 93.292 22.2408 93.292 21.8718 93.292C21.3799 93.292 20.8367 93.3023 20.2423 93.3228C19.6684 93.3433 19.1457 93.3638 18.6743 93.3843V89.4181ZM39.6121 98.3343C39.5096 98.5393 39.3968 98.7648 39.2739 99.0107C39.1714 99.2567 39.0894 99.4617 39.0279 99.6256C38.5565 101.101 37.962 102.577 37.2446 104.053C36.5477 105.508 35.6254 106.871 34.4775 108.142C32.9403 109.864 31.2185 111.268 29.3123 112.354C27.406 113.42 25.4691 114.23 23.5014 114.783L20.4575 111.309C22.7737 110.817 24.8337 110.1 26.6374 109.157C28.4412 108.214 29.9272 107.138 31.0955 105.928C31.9154 105.088 32.5713 104.207 33.0632 103.284C33.5757 102.341 33.9754 101.45 34.2623 100.609C34.0369 100.609 33.6474 100.609 33.094 100.609C32.5406 100.609 31.8744 100.609 31.0955 100.609C30.3371 100.609 29.5172 100.609 28.6359 100.609C27.7545 100.609 26.8526 100.609 25.9303 100.609C25.0079 100.609 24.1265 100.609 23.2861 100.609C22.4458 100.609 21.6874 100.609 21.011 100.609C20.3551 100.609 19.8221 100.609 19.4122 100.609C19.0432 100.609 18.5206 100.62 17.8442 100.64C17.1678 100.661 16.5016 100.702 15.8457 100.763V96.7663C16.5016 96.8073 17.137 96.8483 17.7519 96.8893C18.3873 96.9303 18.9408 96.9508 19.4122 96.9508C19.7196 96.9508 20.1808 96.9508 20.7957 96.9508C21.4312 96.9508 22.1588 96.9508 22.9787 96.9508C23.7986 96.9508 24.6697 96.9508 25.5921 96.9508C26.5349 96.9508 27.4675 96.9508 28.3899 96.9508C29.3328 96.9508 30.2244 96.9508 31.0648 96.9508C31.9052 96.9508 32.6328 96.9508 33.2477 96.9508C33.8626 96.9508 34.3238 96.9508 34.6313 96.9508C35.1232 96.9508 35.5639 96.92 35.9533 96.8585C36.3633 96.797 36.6707 96.7253 36.8757 96.6433L39.6121 98.3343Z" fill="#262626"/>
<path d="M19.228 55.6333C19.7609 56.0022 20.386 56.4532 21.1034 56.9861C21.8208 57.519 22.5587 58.1032 23.3171 58.7386C24.096 59.3535 24.8237 59.9582 25.5001 60.5526C26.1765 61.147 26.7299 61.6799 27.1603 62.1514L24.0243 65.3489C23.6348 64.9185 23.1224 64.406 22.487 63.8116C21.8516 63.2172 21.1649 62.6023 20.427 61.9669C19.6891 61.3315 18.9615 60.7268 18.2441 60.1529C17.5267 59.579 16.8913 59.0973 16.3379 58.7079L19.228 55.6333ZM15.3848 76.1099C16.9835 75.8844 18.4901 75.5667 19.9044 75.1568C21.3187 74.7468 22.6305 74.2754 23.8398 73.7425C25.0491 73.2095 26.156 72.6561 27.1603 72.0822C28.9026 71.0368 30.5014 69.848 31.9566 68.5157C33.4119 67.1834 34.6828 65.7998 35.7691 64.3651C36.8554 62.9098 37.7163 61.4955 38.3517 60.1222L40.7499 64.4573C39.971 65.8306 39.0076 67.2039 37.8598 68.5772C36.7325 69.9505 35.4514 71.2623 34.0166 72.5126C32.5818 73.7425 31.0343 74.8493 29.374 75.8332C28.3287 76.4686 27.2013 77.0732 25.992 77.6472C24.7827 78.2006 23.5016 78.6925 22.1488 79.1229C20.8165 79.5739 19.4227 79.9223 17.9674 80.1683L15.3848 76.1099Z" fill="#262626"/>
<path d="M32.8493 20.3728C32.7878 20.8442 32.7366 21.3567 32.6956 21.9101C32.6751 22.4635 32.6648 22.9862 32.6648 23.4781C32.6853 24.339 32.7058 25.2716 32.7263 26.276C32.7468 27.2803 32.7673 28.3462 32.7878 29.4735C32.8288 30.6008 32.8596 31.7589 32.8801 32.9478C32.9006 34.1161 32.9211 35.2947 32.9416 36.4835C32.9621 37.6518 32.9825 38.8099 33.003 39.9578C33.0235 41.0851 33.044 42.1714 33.0645 43.2168C33.085 44.2006 32.8083 44.959 32.2344 45.492C31.6605 46.0454 30.7894 46.3221 29.621 46.3221C28.6987 46.3221 27.7968 46.3016 26.9154 46.2606C26.034 46.2401 25.1527 46.1991 24.2713 46.1376L23.9331 42.1407C24.63 42.2637 25.3576 42.3559 26.116 42.4174C26.8744 42.4789 27.5098 42.5096 28.0223 42.5096C28.4117 42.5096 28.6884 42.4072 28.8524 42.2022C29.0164 41.9972 29.0984 41.6693 29.0984 41.2183C29.0984 40.5214 29.0984 39.722 29.0984 38.8202C29.0984 37.8978 29.0881 36.9242 29.0676 35.8993C29.0676 34.854 29.0574 33.7881 29.0369 32.7018C29.0164 31.5949 28.9959 30.4984 28.9754 29.412C28.9549 28.3257 28.9241 27.2803 28.8831 26.276C28.8626 25.2716 28.8319 24.339 28.7909 23.4781C28.7499 22.8017 28.6987 22.2175 28.6372 21.7256C28.5962 21.2132 28.5449 20.7622 28.4834 20.3728H32.8493ZM15.2936 25.4766C15.7445 25.5381 16.2877 25.5893 16.9231 25.6303C17.579 25.6713 18.1734 25.6918 18.7063 25.6918C19.0138 25.6918 19.5365 25.6918 20.2744 25.6918C21.0123 25.6918 21.8834 25.6918 22.8877 25.6918C23.9126 25.6918 24.9989 25.6918 26.1468 25.6918C27.2946 25.6918 28.4322 25.6918 29.5595 25.6918C30.6869 25.6918 31.7425 25.6918 32.7263 25.6918C33.7102 25.6918 34.5403 25.6918 35.2167 25.6918C35.8931 25.6918 36.3338 25.6918 36.5388 25.6918C37.0307 25.6918 37.5944 25.6713 38.2298 25.6303C38.8652 25.5688 39.3674 25.5073 39.7363 25.4458V29.535C39.2444 29.5145 38.7217 29.494 38.1683 29.4735C37.6354 29.453 37.164 29.4428 36.754 29.4428C36.5695 29.4428 36.1391 29.4428 35.4627 29.4428C34.7863 29.4428 33.9459 29.4428 32.9416 29.4428C31.9577 29.4428 30.8816 29.4428 29.7133 29.4428C28.5449 29.4428 27.3664 29.4428 26.1775 29.4428C25.0092 29.4428 23.9023 29.4428 22.857 29.4428C21.8321 29.4428 20.961 29.4428 20.2436 29.4428C19.5262 29.4428 19.0445 29.4428 18.7986 29.4428C18.2452 29.4428 17.661 29.453 17.0461 29.4735C16.4312 29.494 15.847 29.5247 15.2936 29.5657V25.4766ZM13.6641 40.1115C15.2628 39.3531 16.7899 38.5025 18.2452 37.5596C19.7004 36.6167 21.0328 35.6329 22.2421 34.608C23.4514 33.5832 24.5173 32.5686 25.4396 31.5642C26.3825 30.5393 27.1306 29.576 27.6841 28.6741L29.6825 28.7049L29.7133 31.9639C29.0984 32.9068 28.3092 33.8906 27.3459 34.9155C26.3825 35.9403 25.3166 36.9652 24.1483 37.99C22.98 39.0149 21.7399 39.9885 20.4281 40.9109C19.1163 41.8127 17.8045 42.6121 16.4927 43.309L13.6641 40.1115Z" fill="#262626"/>
<path d="M92.5897 260.553C93.0201 260.615 93.4813 260.656 93.9732 260.676C94.4652 260.697 94.9366 260.707 95.3875 260.707C95.7155 260.707 96.2074 260.707 96.8633 260.707C97.5192 260.686 98.2571 260.666 99.077 260.645C99.9174 260.625 100.748 260.604 101.567 260.584C102.387 260.563 103.125 260.543 103.781 260.522C104.457 260.481 104.98 260.451 105.349 260.43C105.985 260.369 106.487 260.317 106.856 260.277C107.225 260.215 107.501 260.154 107.686 260.092L109.684 262.828C109.336 263.054 108.977 263.279 108.608 263.505C108.239 263.73 107.88 263.976 107.532 264.243C107.122 264.53 106.63 264.909 106.056 265.38C105.482 265.831 104.867 266.313 104.212 266.825C103.576 267.338 102.951 267.84 102.336 268.332C101.742 268.824 101.198 269.264 100.707 269.654C101.219 269.531 101.711 269.449 102.182 269.408C102.654 269.346 103.135 269.316 103.627 269.316C105.37 269.316 106.927 269.654 108.301 270.33C109.694 271.007 110.791 271.929 111.59 273.097C112.41 274.245 112.82 275.567 112.82 277.064C112.82 278.683 112.41 280.148 111.59 281.46C110.771 282.772 109.53 283.817 107.87 284.596C106.23 285.375 104.171 285.765 101.69 285.765C100.276 285.765 98.995 285.56 97.8472 285.15C96.7198 284.74 95.8282 284.156 95.1723 283.397C94.5164 282.639 94.1884 281.747 94.1884 280.722C94.1884 279.882 94.4139 279.103 94.8648 278.386C95.3363 277.648 95.9819 277.053 96.8018 276.602C97.6422 276.151 98.6056 275.926 99.6919 275.926C101.106 275.926 102.295 276.213 103.258 276.787C104.242 277.34 104.99 278.088 105.503 279.031C106.036 279.974 106.312 281.009 106.333 282.137L102.736 282.629C102.715 281.501 102.428 280.599 101.875 279.923C101.342 279.226 100.625 278.878 99.7226 278.878C99.1487 278.878 98.6875 279.031 98.3391 279.339C97.9906 279.626 97.8164 279.964 97.8164 280.353C97.8164 280.927 98.1034 281.389 98.6773 281.737C99.2512 282.085 99.9994 282.26 100.922 282.26C102.664 282.26 104.119 282.055 105.288 281.645C106.456 281.214 107.327 280.61 107.901 279.831C108.495 279.031 108.793 278.088 108.793 277.002C108.793 276.08 108.506 275.27 107.932 274.573C107.378 273.876 106.62 273.333 105.657 272.944C104.693 272.554 103.607 272.36 102.398 272.36C101.209 272.36 100.122 272.513 99.1385 272.821C98.1546 273.108 97.222 273.528 96.3406 274.081C95.4798 274.614 94.6291 275.27 93.7887 276.049C92.9689 276.807 92.149 277.658 91.3291 278.601L88.5312 275.711C89.0847 275.26 89.7098 274.758 90.4067 274.204C91.1036 273.63 91.8108 273.036 92.5282 272.421C93.2661 271.806 93.9527 271.232 94.5881 270.699C95.244 270.146 95.7975 269.685 96.2484 269.316C96.6788 268.967 97.181 268.557 97.7549 268.086C98.3288 267.614 98.9233 267.133 99.5382 266.641C100.153 266.128 100.737 265.647 101.291 265.196C101.844 264.724 102.305 264.325 102.674 263.997C102.367 263.997 101.967 264.007 101.475 264.027C100.983 264.048 100.44 264.068 99.8456 264.089C99.2717 264.109 98.6875 264.13 98.0931 264.15C97.5192 264.171 96.976 264.202 96.4636 264.243C95.9717 264.263 95.5617 264.284 95.2338 264.304C94.8238 264.325 94.3934 264.355 93.9425 264.396C93.4915 264.437 93.0816 264.489 92.7127 264.55L92.5897 260.553Z" fill="#262626"/>
<path d="M91.1687 227.906C93.4233 228.173 95.4935 228.337 97.3793 228.398C99.2855 228.439 101.048 228.398 102.668 228.275C104.082 228.152 105.435 227.968 106.726 227.722C108.017 227.476 109.288 227.158 110.538 226.769L111.03 230.304C109.923 230.612 108.724 230.878 107.433 231.104C106.142 231.329 104.82 231.503 103.467 231.626C101.889 231.749 100.064 231.811 97.9942 231.811C95.9445 231.79 93.741 231.667 91.3839 231.442L91.1687 227.906ZM90.6152 234.363C92.4805 234.527 94.2637 234.639 95.965 234.701C97.6662 234.762 99.265 234.762 100.761 234.701C102.258 234.639 103.621 234.557 104.85 234.455C106.511 234.311 107.935 234.106 109.124 233.84C110.313 233.553 111.348 233.287 112.229 233.041L112.844 236.669C111.922 236.894 110.907 237.109 109.8 237.314C108.694 237.519 107.515 237.693 106.265 237.837C104.953 237.96 103.446 238.062 101.745 238.144C100.064 238.206 98.2914 238.226 96.4262 238.206C94.5609 238.165 92.6957 238.093 90.8305 237.991L90.6152 234.363ZM100.884 228.767C100.741 228.193 100.577 227.629 100.392 227.076C100.208 226.502 100.003 225.918 99.7774 225.323L103.928 224.862C104.051 225.826 104.205 226.779 104.389 227.722C104.594 228.644 104.82 229.536 105.066 230.397C105.332 231.257 105.588 232.088 105.834 232.887C106.08 233.584 106.398 234.383 106.787 235.285C107.197 236.166 107.638 237.058 108.109 237.96C108.581 238.841 109.052 239.641 109.524 240.358C109.729 240.645 109.934 240.922 110.139 241.188C110.364 241.434 110.62 241.68 110.907 241.926L109.032 244.755C108.458 244.632 107.741 244.509 106.88 244.386C106.039 244.263 105.158 244.15 104.236 244.048C103.334 243.945 102.504 243.853 101.745 243.771L102.053 240.85C102.688 240.912 103.375 240.973 104.113 241.034C104.871 241.096 105.476 241.157 105.927 241.219C105.107 239.846 104.4 238.503 103.805 237.191C103.231 235.879 102.749 234.66 102.36 233.533C102.114 232.815 101.909 232.2 101.745 231.688C101.581 231.155 101.427 230.663 101.284 230.212C101.161 229.741 101.028 229.259 100.884 228.767ZM96.5184 241.496C96.1494 242.008 95.8317 242.541 95.5653 243.094C95.2988 243.627 95.1656 244.232 95.1656 244.908C95.1656 246.036 95.6883 246.856 96.7336 247.368C97.7995 247.86 99.347 248.106 101.376 248.106C102.831 248.106 104.205 248.044 105.496 247.922C106.808 247.799 108.007 247.635 109.093 247.43L108.878 251.334C107.812 251.519 106.613 251.662 105.281 251.765C103.949 251.867 102.657 251.918 101.407 251.918C99.3572 251.918 97.5842 251.703 96.088 251.273C94.6122 250.842 93.4643 250.176 92.6444 249.274C91.8246 248.352 91.4044 247.163 91.3839 245.708C91.3634 244.724 91.4864 243.843 91.7528 243.064C92.0398 242.264 92.3575 241.496 92.7059 240.758L96.5184 241.496Z" fill="#262626"/>
<path d="M87.9473 194.89C88.5622 194.869 89.1463 194.849 89.6998 194.828C90.2532 194.787 90.6734 194.757 90.9603 194.736C91.5957 194.695 92.3746 194.634 93.297 194.552C94.2399 194.449 95.2852 194.347 96.4331 194.244C97.6014 194.142 98.8415 194.039 100.153 193.937C101.465 193.834 102.828 193.722 104.242 193.599C105.308 193.496 106.364 193.414 107.409 193.353C108.475 193.271 109.479 193.209 110.422 193.168C111.386 193.107 112.226 193.066 112.943 193.045L112.974 196.981C112.421 196.981 111.785 196.991 111.068 197.011C110.351 197.032 109.633 197.073 108.916 197.134C108.219 197.175 107.594 197.268 107.04 197.411C106.118 197.657 105.257 198.077 104.458 198.672C103.658 199.246 102.961 199.932 102.367 200.732C101.793 201.51 101.342 202.361 101.014 203.283C100.686 204.185 100.522 205.097 100.522 206.02C100.522 207.024 100.696 207.916 101.045 208.695C101.414 209.453 101.906 210.109 102.521 210.662C103.156 211.195 103.894 211.646 104.734 212.015C105.575 212.364 106.477 212.63 107.44 212.815C108.424 212.999 109.438 213.122 110.484 213.184L109.039 217.396C107.747 217.314 106.487 217.109 105.257 216.781C104.048 216.453 102.91 216.002 101.844 215.428C100.778 214.854 99.8458 214.157 99.0464 213.337C98.2675 212.497 97.6424 211.544 97.1709 210.478C96.72 209.392 96.4945 208.182 96.4945 206.85C96.4945 205.374 96.7303 204.021 97.2017 202.792C97.6731 201.541 98.2573 200.455 98.9542 199.532C99.6716 198.59 100.379 197.862 101.076 197.35C100.502 197.432 99.8048 197.514 98.9849 197.596C98.1856 197.678 97.3144 197.78 96.3716 197.903C95.4492 198.005 94.5063 198.118 93.543 198.241C92.5796 198.364 91.647 198.508 90.7451 198.672C89.8637 198.815 89.0644 198.959 88.347 199.102L87.9473 194.89ZM108.578 199.994C108.844 200.363 109.121 200.803 109.408 201.316C109.715 201.808 110.012 202.31 110.299 202.822C110.586 203.314 110.832 203.765 111.037 204.175L108.701 205.22C108.311 204.36 107.932 203.601 107.563 202.945C107.215 202.289 106.794 201.623 106.302 200.947L108.578 199.994ZM112.021 198.579C112.288 198.948 112.574 199.379 112.882 199.871C113.21 200.342 113.528 200.834 113.835 201.346C114.143 201.838 114.399 202.279 114.604 202.669L112.298 203.775C111.888 202.955 111.488 202.228 111.099 201.592C110.73 200.957 110.289 200.301 109.777 199.625L112.021 198.579Z" fill="#262626"/>
<path d="M104.674 178.415H112.544V181.951H104.674V178.415ZM87.3638 161.382H98.6167V164.979H87.3638V161.382ZM103.013 159.383H114.205V183.888H110.515V162.95H106.549V184.103H103.013V159.383ZM97.725 161.382H101.292C101.292 161.382 101.292 161.495 101.292 161.72C101.292 161.925 101.292 162.161 101.292 162.427C101.292 162.694 101.281 162.909 101.261 163.073C101.199 166.352 101.128 169.15 101.046 171.466C100.984 173.762 100.902 175.648 100.8 177.124C100.718 178.599 100.595 179.757 100.431 180.598C100.267 181.438 100.062 182.033 99.8157 182.381C99.4673 182.894 99.1086 183.262 98.7396 183.488C98.3707 183.713 97.93 183.877 97.4176 183.98C96.9667 184.082 96.4132 184.134 95.7573 184.134C95.1014 184.154 94.4148 184.144 93.6974 184.103C93.6769 183.57 93.5744 182.945 93.3899 182.227C93.2054 181.53 92.9595 180.926 92.652 180.413C93.2669 180.454 93.8306 180.485 94.343 180.506C94.8555 180.526 95.2551 180.536 95.5421 180.536C95.7676 180.536 95.9623 180.495 96.1263 180.413C96.2902 180.331 96.444 180.178 96.5875 179.952C96.7514 179.727 96.8949 179.255 97.0179 178.538C97.1409 177.821 97.2434 176.775 97.3253 175.402C97.4073 174.029 97.4791 172.266 97.5406 170.114C97.6021 167.941 97.6635 165.297 97.725 162.181V161.382ZM91.0225 156.309H94.6505C94.6505 159.342 94.5992 162.243 94.4968 165.01C94.4148 167.756 94.2098 170.339 93.8818 172.758C93.5539 175.176 93.0107 177.4 92.2523 179.43C91.5144 181.438 90.4793 183.211 89.147 184.749C88.9625 184.441 88.7166 184.113 88.4091 183.765C88.1017 183.416 87.7737 183.088 87.4253 182.781C87.0768 182.473 86.7489 182.227 86.4414 182.043C87.4048 180.957 88.1734 179.737 88.7473 178.384C89.3417 177.011 89.7927 175.515 90.1001 173.895C90.4281 172.276 90.6536 170.544 90.7765 168.699C90.8995 166.834 90.9713 164.866 90.9918 162.796C91.0123 160.705 91.0225 158.543 91.0225 156.309Z" fill="#262626"/>
<path d="M96.3101 121.848L100.43 122.893C99.6921 123.938 98.9132 124.994 98.0934 126.06C97.294 127.105 96.5561 127.997 95.8797 128.735L92.8666 127.689C93.297 127.156 93.7275 126.552 94.1579 125.875C94.5884 125.199 94.988 124.512 95.357 123.815C95.7464 123.098 96.0641 122.442 96.3101 121.848ZM104.027 124.584L106.948 122.924C107.788 123.539 108.68 124.236 109.623 125.014C110.566 125.773 111.457 126.541 112.298 127.32C113.159 128.099 113.856 128.817 114.389 129.473L111.191 131.379C110.72 130.723 110.084 130.005 109.285 129.227C108.485 128.427 107.624 127.618 106.702 126.798C105.78 125.978 104.888 125.24 104.027 124.584ZM88.3163 126.828C89.7101 126.787 91.2781 126.746 93.0203 126.705C94.7831 126.664 96.6381 126.623 98.5853 126.582C100.553 126.521 102.562 126.459 104.611 126.398C106.661 126.337 108.69 126.275 110.699 126.214L110.545 129.257C107.963 129.36 105.349 129.473 102.705 129.596C100.061 129.698 97.5399 129.79 95.1418 129.872C92.7436 129.954 90.6017 130.016 88.7159 130.057L88.3163 126.828ZM87.2709 131.778H115.28V134.884H87.2709V131.778ZM101.691 135.837L104.55 137.22C103.751 137.774 102.838 138.286 101.814 138.758C100.789 139.209 99.7229 139.608 98.616 139.957C97.5297 140.305 96.4843 140.592 95.48 140.818C95.2545 140.49 94.9471 140.121 94.5576 139.711C94.1887 139.301 93.8197 138.952 93.4508 138.665C94.3731 138.481 95.357 138.245 96.4023 137.958C97.4477 137.671 98.4316 137.343 99.3539 136.974C100.297 136.606 101.076 136.226 101.691 135.837ZM104.519 139.219L107.44 140.633C106.436 141.433 105.257 142.15 103.904 142.785C102.572 143.421 101.147 143.974 99.6306 144.446C98.1343 144.917 96.6278 145.317 95.111 145.645C94.9061 145.255 94.6191 144.815 94.2502 144.323C93.9017 143.81 93.543 143.38 93.1741 143.031C94.5269 142.806 95.9207 142.509 97.3555 142.14C98.8108 141.771 100.164 141.34 101.414 140.848C102.664 140.357 103.699 139.813 104.519 139.219ZM108.209 142.478L111.437 143.954C110.125 145.307 108.506 146.434 106.579 147.336C104.673 148.238 102.551 148.965 100.215 149.519C97.8781 150.072 95.398 150.503 92.7744 150.81C92.6104 150.339 92.3747 149.816 92.0672 149.242C91.7598 148.689 91.4318 148.207 91.0834 147.797C93.4815 147.592 95.7772 147.274 97.9704 146.844C100.164 146.413 102.142 145.85 103.904 145.153C105.688 144.435 107.122 143.544 108.209 142.478ZM97.2632 128.581L100.922 129.473C99.7536 132.588 98.1241 135.283 96.0334 137.559C93.9632 139.813 91.5753 141.627 88.8697 143.001C88.7057 142.755 88.4597 142.447 88.1318 142.078C87.8038 141.709 87.4656 141.351 87.1172 141.002C86.7687 140.654 86.451 140.367 86.1641 140.141C88.8287 139.034 91.1141 137.507 93.0203 135.56C94.9266 133.592 96.3409 131.266 97.2632 128.581ZM106.733 132.547C107.348 133.551 108.137 134.525 109.1 135.468C110.064 136.39 111.14 137.231 112.329 137.989C113.517 138.747 114.716 139.373 115.926 139.865C115.68 140.07 115.403 140.346 115.096 140.695C114.788 141.043 114.491 141.402 114.204 141.771C113.938 142.14 113.712 142.468 113.528 142.755C112.236 142.119 110.976 141.34 109.746 140.418C108.516 139.496 107.379 138.461 106.333 137.313C105.308 136.144 104.417 134.935 103.658 133.685L106.733 132.547Z" fill="#262626"/>
<path d="M87.9473 92.8899C88.5622 92.8694 89.1463 92.8489 89.6998 92.8284C90.2532 92.7874 90.6734 92.7567 90.9603 92.7362C91.5957 92.6952 92.3746 92.6337 93.297 92.5517C94.2399 92.4492 95.2852 92.3467 96.4331 92.2442C97.6014 92.1418 98.8415 92.0393 100.153 91.9368C101.465 91.8343 102.828 91.7216 104.242 91.5986C105.308 91.4961 106.364 91.4141 107.409 91.3526C108.475 91.2706 109.479 91.2091 110.422 91.1681C111.386 91.1067 112.226 91.0657 112.943 91.0452L112.974 94.9806C112.421 94.9806 111.785 94.9908 111.068 95.0113C110.351 95.0318 109.633 95.0728 108.916 95.1343C108.219 95.1753 107.594 95.2676 107.04 95.411C106.118 95.657 105.257 96.0772 104.458 96.6716C103.658 97.2455 102.961 97.9322 102.367 98.7316C101.793 99.5105 101.342 100.361 101.014 101.283C100.686 102.185 100.522 103.097 100.522 104.02C100.522 105.024 100.696 105.916 101.045 106.695C101.414 107.453 101.906 108.109 102.521 108.662C103.156 109.195 103.894 109.646 104.734 110.015C105.575 110.364 106.477 110.63 107.44 110.815C108.424 110.999 109.438 111.122 110.484 111.184L109.039 115.396C107.747 115.314 106.487 115.109 105.257 114.781C104.048 114.453 102.91 114.002 101.844 113.428C100.778 112.854 99.8458 112.157 99.0464 111.337C98.2675 110.497 97.6424 109.544 97.1709 108.478C96.72 107.392 96.4945 106.182 96.4945 104.85C96.4945 103.374 96.7303 102.021 97.2017 100.792C97.6731 99.5412 98.2573 98.4549 98.9542 97.5325C99.6716 96.5896 100.379 95.862 101.076 95.3495C100.502 95.4315 99.8048 95.5135 98.9849 95.5955C98.1856 95.6775 97.3144 95.78 96.3716 95.903C95.4492 96.0055 94.5063 96.1182 93.543 96.2412C92.5796 96.3642 91.647 96.5076 90.7451 96.6716C89.8637 96.8151 89.0644 96.9586 88.347 97.1021L87.9473 92.8899ZM108.578 97.9937C108.844 98.3626 109.121 98.8033 109.408 99.3157C109.715 99.8077 110.012 100.31 110.299 100.822C110.586 101.314 110.832 101.765 111.037 102.175L108.701 103.22C108.311 102.36 107.932 101.601 107.563 100.945C107.215 100.289 106.794 99.6232 106.302 98.9468L108.578 97.9937ZM112.021 96.5794C112.288 96.9483 112.574 97.3788 112.882 97.8707C113.21 98.3421 113.528 98.8341 113.835 99.3465C114.143 99.8384 114.399 100.279 114.604 100.669L112.298 101.775C111.888 100.956 111.488 100.228 111.099 99.5924C110.73 98.957 110.289 98.3011 109.777 97.6247L112.021 96.5794Z" fill="#262626"/>
<path d="M87.0254 67.3143H115.404V71.0345H87.0254V67.3143ZM99.2929 62.4257H103.167V78.4442C103.167 79.4895 103.023 80.2992 102.736 80.8731C102.47 81.447 101.958 81.8774 101.199 82.1644C100.461 82.4513 99.5593 82.6358 98.4935 82.7178C97.4277 82.7998 96.1876 82.8305 94.7733 82.81C94.7118 82.4411 94.5888 82.0209 94.4043 81.5495C94.2199 81.0985 94.0251 80.6374 93.8202 80.1659C93.6152 79.715 93.4102 79.3255 93.2053 78.9976C93.9227 79.0181 94.6298 79.0386 95.3267 79.0591C96.0441 79.0796 96.6795 79.0898 97.2329 79.0898C97.8068 79.0898 98.2065 79.0898 98.432 79.0898C98.76 79.0898 98.9854 79.0386 99.1084 78.9361C99.2314 78.8336 99.2929 78.6491 99.2929 78.3827V62.4257ZM90.2537 55.7539H109.623V59.3819H90.2537V55.7539ZM108.394 55.7539H109.377L110.238 55.5387L113.036 57.6601C112.093 58.6645 111.007 59.6689 109.777 60.6732C108.568 61.6776 107.307 62.6409 105.995 63.5633C104.684 64.4652 103.403 65.2441 102.152 65.9C101.968 65.6335 101.732 65.3363 101.445 65.0083C101.158 64.6804 100.861 64.3627 100.553 64.0552C100.246 63.7273 99.9693 63.4506 99.7233 63.2251C100.83 62.6717 101.947 62.0055 103.075 61.2266C104.222 60.4477 105.268 59.6484 106.211 58.8285C107.154 58.0086 107.881 57.2604 108.394 56.584V55.7539Z" fill="#262626"/>
<path d="M87.3335 22.7377H100.493V25.7815H87.3335V22.7377ZM86.8415 29.9322H100.769V33.0067H86.8415V29.9322ZM92.1605 20.0321H95.6655V24.7977H92.1605V20.0321ZM92.2528 32.9145H95.7885V48.7178H92.2528V32.9145ZM92.222 36.7577L94.8046 38.2028C94.3742 39.3096 93.8105 40.4267 93.1136 41.554C92.4372 42.6814 91.6891 43.737 90.8692 44.7208C90.0698 45.6842 89.2499 46.5041 88.4096 47.1805C88.1841 46.75 87.8664 46.2684 87.4565 45.7354C87.067 45.182 86.6981 44.7311 86.3496 44.3826C87.149 43.8497 87.9176 43.1835 88.6555 42.3842C89.4139 41.5643 90.1006 40.6727 90.7155 39.7093C91.3509 38.7254 91.8531 37.7416 92.222 36.7577ZM95.3581 38.2642C95.6245 38.4487 96.0037 38.7357 96.4957 39.1251C96.9876 39.5146 97.5103 39.945 98.0637 40.4164C98.6171 40.8674 99.1295 41.2978 99.601 41.7078C100.072 42.0972 100.4 42.3842 100.585 42.5686L98.3096 45.2128C98.0637 44.8438 97.7255 44.4236 97.295 43.9522C96.8851 43.4603 96.4342 42.9581 95.9422 42.4456C95.4708 41.9332 95.0096 41.4515 94.5587 41.0006C94.1078 40.5292 93.7183 40.1397 93.3904 39.8323L95.3581 38.2642ZM88.9322 26.1197L91.7301 25.5048C92.0375 26.1402 92.2835 26.8371 92.468 27.5955C92.673 28.3334 92.8062 28.9893 92.8677 29.5632L89.8854 30.3011C89.8444 29.7272 89.7316 29.0508 89.5472 28.2719C89.3832 27.493 89.1782 26.7756 88.9322 26.1197ZM95.85 25.4433L99.1398 26.0582C98.8733 26.8166 98.6171 27.5648 98.3711 28.3027C98.1252 29.0201 97.8997 29.6452 97.6947 30.1782L94.8661 29.5632C95.0096 29.1738 95.1429 28.7331 95.2658 28.2412C95.3888 27.7493 95.5016 27.2573 95.604 26.7654C95.7065 26.2735 95.7885 25.8328 95.85 25.4433ZM104.889 29.1635V31.1005H110.762V29.1635H104.889ZM104.889 33.9906V35.8968H110.762V33.9906H104.889ZM104.889 24.4287V26.3042H110.762V24.4287H104.889ZM101.599 21.2004H114.236V39.0944H101.599V21.2004ZM107.995 38.1413H111.346V44.1981C111.346 44.5876 111.366 44.8336 111.407 44.936C111.448 45.0385 111.561 45.0898 111.745 45.0898C111.807 45.0898 111.889 45.0898 111.991 45.0898C112.094 45.0898 112.196 45.0898 112.299 45.0898C112.422 45.0898 112.504 45.0898 112.545 45.0898C112.709 45.0898 112.822 45.018 112.883 44.8745C112.965 44.7106 113.027 44.3621 113.068 43.8292C113.109 43.2963 113.139 42.4866 113.16 41.4003C113.365 41.5643 113.641 41.7385 113.99 41.923C114.338 42.087 114.707 42.2407 115.097 42.3842C115.507 42.5071 115.855 42.6199 116.142 42.7224C116.06 44.1777 115.896 45.305 115.65 46.1044C115.404 46.9243 115.066 47.4777 114.636 47.7646C114.205 48.0721 113.641 48.2258 112.945 48.2258C112.781 48.2258 112.586 48.2258 112.36 48.2258C112.135 48.2258 111.909 48.2258 111.684 48.2258C111.479 48.2258 111.295 48.2258 111.131 48.2258C110.27 48.2258 109.614 48.0926 109.163 47.8261C108.712 47.5802 108.404 47.16 108.24 46.5656C108.076 45.9916 107.995 45.2128 107.995 44.2289V38.1413ZM103.229 38.3257H106.58C106.457 39.9655 106.211 41.4515 105.842 42.7838C105.494 44.0957 104.869 45.2537 103.967 46.2581C103.085 47.2625 101.794 48.1131 100.093 48.81C99.9289 48.4 99.6522 47.9184 99.2628 47.3649C98.8733 46.832 98.4941 46.4118 98.1252 46.1044C99.5395 45.6124 100.595 44.9975 101.292 44.2596C101.989 43.5217 102.46 42.6609 102.706 41.677C102.973 40.6931 103.147 39.5761 103.229 38.3257ZM87.0568 35.3127H100.462V38.418H87.0568V35.3127Z" fill="#262626"/>
</svg>
