<svg width="480" height="447" viewBox="0 0 480 447" fill="none" xmlns="http://www.w3.org/2000/svg">
<path d="M240 98.1377C311.258 47.1772 429.691 76.9041 480 98.1377V447C386.177 393.252 280.907 424.605 240 447C199.093 424.605 93.8227 393.252 0 447V98.1377C50.3093 76.9041 168.742 47.1772 240 98.1377Z" fill="#C32929"/>
<path d="M240 76.1377C311.258 25.1772 429.691 54.9041 480 76.1377V425C386.177 371.252 280.907 402.605 240 425C199.093 402.605 93.8227 371.252 0 425V76.1377C50.3093 54.9041 168.742 25.1772 240 76.1377Z" fill="white"/>
<rect x="348.449" width="103.829" height="95.3336" fill="#262626"/>
<path d="M423.518 42.0577L420.403 44.9899L416.982 41.3247L420.128 38.3926L423.518 42.0577ZM416.585 39.8586L415.699 44.9593L412.064 44.3179L412.981 39.2478L416.585 39.8586ZM423.06 50.2433L419.944 53.1449L416.524 49.4797L419.67 46.5781L423.06 50.2433ZM431.795 57.818L428.832 58.2456V66.1258H424.556V58.8565L416.524 60.0477L416.004 56.3519L413.591 57.818L411.606 54.6415V65.8203H407.635V57.1766L405.589 60.292L402.688 58.1235L407.635 50.3655H402.718V46.2727H407.635V37.3235H411.606V46.2727H415.668V50.3655H411.606V53.4198L414.172 51.8316L416.524 55.5578L424.556 54.3972V37.629H428.832V53.7558L431.184 53.4198L431.795 57.818ZM407.391 44.1652L403.787 44.715L403.054 40.0724L406.689 39.5227L407.391 44.1652Z" fill="white"/>
<path d="M396.914 50.5487H394.165V53.7558H396.456V57.8791H369.73V53.7558H372.479V50.5487H368.967V46.2727H372.479V43.6765H368.631C369.394 41.9356 370.525 39.7975 372.082 37.2625L376.847 37.8733C376.633 38.2398 376.297 38.7896 375.87 39.5532H396.15V43.6765H394.165V46.2727H396.914V50.5487ZM397.494 63.5907L393.89 65.912L390.744 61.025L394.348 58.7038L397.494 63.5907ZM388.484 59.8644L388.453 65.2095H384.177L384.208 59.8644H388.484ZM381.642 65.2095H377.336L377.397 59.8644H381.642V65.2095ZM375.473 60.6891L372.876 66.2785L368.906 64.3237L371.716 58.9787L375.473 60.6891ZM390.042 46.2727V43.6765H387.904V46.2727H390.042ZM384.238 46.2727V43.6765H382.253V46.2727H384.238ZM390.042 53.7558V50.5487H387.904V53.7558H390.042ZM378.588 46.2727V43.6765H376.603V46.2727H378.588ZM384.238 53.7558V50.5487H382.253V53.7558H384.238ZM378.588 53.7558V50.5487H376.603V53.7558H378.588Z" fill="white"/>
<path d="M431.405 20.5365H429.315V28.0508H427.426L431.364 28.955L430.822 31.3057L425.397 29.9194L425.819 28.0508H419.068L419.51 29.9194L414.085 31.3057L413.543 28.955L417.461 28.0508H415.894V21.9228L415.01 22.3447L413.804 20.1346C414.769 19.7127 415.572 19.2707 416.215 18.8487H413.925L414.628 15.1116H419.149L419.309 14.5893H413.965V12.9819H419.671C419.691 12.7609 419.731 12.5198 419.771 12.2787H422.283L422.203 12.9819H423.569V12.2787H426.08V12.9819H430.762V16.719H426.08V17.2414H431.405V20.5365ZM428.029 15.1116V14.5893H426.08V15.1116H428.029ZM428.732 18.8487H426.08V19.773H428.732V18.8487ZM423.569 15.1116V14.5893H421.921L421.801 15.1116H423.569ZM423.569 17.2414V16.719H421.258C421.198 16.8998 421.118 17.0606 421.017 17.2414H423.569ZM423.569 19.773V18.8487H419.992C419.731 19.1702 419.45 19.4716 419.149 19.773H423.569ZM418.365 16.719H416.918L416.818 17.2414H418.003C418.144 17.0806 418.265 16.8998 418.365 16.719ZM426.603 26.1421V21.7821H418.606V22.3648H426.1V23.5904H418.606V24.2133H426.1V25.4791H418.606V26.1421H426.603Z" fill="white"/>
<path d="M408.961 30.281H401.588V14.5692H408.961V30.281ZM400.081 31.0445H397.268V18.5273H395.781C395.359 22.0433 394.495 25.7804 393.149 29.7586L390.537 28.7339C391.743 25.0973 392.546 21.6817 392.948 18.5273H390.818V15.7144H393.229C393.31 14.7098 393.37 13.6449 393.41 12.4997L396.223 12.6202C396.183 13.6047 396.123 14.6495 396.042 15.7144H400.081V31.0445ZM406.149 27.4682V17.382H404.401V27.4682H406.149Z" fill="white"/>
<path d="M387.202 23.1283L385.776 25.3183L381.114 22.3246L382.099 20.8378H375.669C375.027 21.521 374.323 22.1639 373.58 22.7466L379.065 20.9383L379.849 23.068L374.223 24.9165L373.459 22.847C372.274 23.7713 370.928 24.595 369.461 25.3183L368.195 22.8872C369.481 22.2644 370.626 21.5812 371.631 20.8378H368.376V18.2259H374.464C374.705 17.9245 374.946 17.6231 375.167 17.3218H369.803L372.595 12.1581L375.248 13.0221L374.283 14.8103H381.838C381.677 14.4687 381.456 14.0669 381.175 13.5646L383.726 12.6604L385.856 17.3218L378.241 17.382C378.081 17.6633 377.9 17.9446 377.719 18.2259H386.76V20.8378H383.626L387.202 23.1283ZM381.818 25.4791L373.801 28.2718L372.997 26.0617L380.994 23.269L381.818 25.4791ZM384.791 27.1065C383.284 28.3321 381.235 29.3367 378.643 30.1404C376.353 30.8436 374.102 31.2655 371.872 31.4062L371.39 28.9148C373.319 28.7741 375.368 28.3924 377.518 27.7695C379.989 27.0462 381.858 26.1823 383.103 25.1576L384.791 27.1065Z" fill="white"/>
<path d="M265.184 399.509V98.8588C327.134 54.9408 430.097 80.5596 473.835 98.8588V399.509C392.267 353.189 300.747 380.209 265.184 399.509Z" fill="white"/>
<path d="M420.401 146.739L414.976 151.819C411.623 148.17 406.642 142.646 399.984 135.298C397.913 132.93 396.877 130.613 396.877 128.393C396.877 125.779 398.209 123.116 400.921 120.453L414.483 106.989L419.76 112.118C416.949 114.831 414.138 117.593 411.327 120.305C406.642 124.941 404.324 127.653 404.324 128.443C404.324 129.034 406.74 131.944 411.524 137.221C414.483 140.427 417.442 143.583 420.401 146.739Z" fill="#262626"/>
<path d="M348.941 137.517C348.202 137.517 347.708 137.024 347.708 136.284V133.572C347.708 132.832 348.202 132.339 348.941 132.339H380.011C380.751 132.339 381.244 132.832 381.244 133.572V136.284C381.244 137.024 380.751 137.517 380.011 137.517H363.539C363.194 137.517 362.8 137.665 362.602 137.961L362.504 138.109C362.306 138.306 362.208 138.503 362.06 138.701C362.06 138.75 362.06 138.75 362.01 138.799C361.517 139.44 361.715 139.884 362.602 139.884H378.187C378.926 139.884 379.419 140.377 379.419 141.117V151.277C379.419 152.016 378.926 152.509 378.187 152.509H373.058C372.712 152.509 372.466 152.263 372.466 151.967C372.466 151.622 372.219 151.375 371.923 151.375H360.284C359.939 151.375 359.693 151.622 359.693 151.967C359.693 152.263 359.446 152.509 359.15 152.509H354.366C353.626 152.509 353.133 152.016 353.133 151.277V149.304C353.133 147.972 352.394 147.578 351.21 148.268C350.667 148.564 350.125 148.86 349.582 149.107C348.991 149.402 348.349 149.205 348.004 148.663C347.56 148.022 347.018 147.331 346.475 146.641C345.588 145.556 344.799 145.802 344.355 147.085C343.911 148.564 343.368 149.945 342.777 151.178C342.382 152.016 341.593 152.115 340.853 151.572C339.867 150.833 338.683 149.994 337.648 149.402C337.006 149.008 336.809 148.317 337.154 147.627C340.212 141.364 340.409 132.733 340.409 126.371V112.661C340.409 111.921 340.903 111.428 341.642 111.428H356.339C357.079 111.428 357.572 110.935 357.572 110.195V109.307C357.572 108.568 358.065 108.074 358.805 108.074H363.49C364.23 108.074 364.723 108.568 364.723 109.307V110.195C364.723 110.935 365.216 111.428 365.956 111.428H379.567C380.307 111.428 380.8 111.921 380.8 112.661V116.113C380.8 116.853 380.307 117.346 379.567 117.346H375.869C375.227 117.346 374.833 117.741 374.833 118.382C374.833 119.023 375.227 119.417 375.869 119.417H379.715C380.455 119.417 380.948 119.911 380.948 120.65V122.672C380.948 123.412 380.455 123.905 379.715 123.905H378.729C377.348 123.905 377.151 124.448 378.285 125.188L380.11 126.174C381.244 126.766 381.392 127.604 380.504 128.541C380.011 129.034 379.518 129.626 379.124 130.119C378.68 130.662 378.039 130.81 377.545 130.415H377.447C377.003 130.119 376.559 129.725 376.066 129.33C375.326 128.689 374.833 128.886 374.833 129.873V130.366C374.833 131.106 374.34 131.599 373.6 131.599H370.789C370.049 131.599 369.556 131.106 369.556 130.366V129.922C369.556 128.936 369.112 128.788 368.372 129.429C367.781 129.922 367.189 130.366 366.597 130.76C366.104 131.056 365.463 130.908 365.068 130.415C364.772 130.07 364.427 129.675 364.082 129.232C363.539 128.64 362.8 128.689 362.306 129.33C361.813 129.971 361.073 130.021 360.482 129.528L360.383 129.429C360.284 129.38 360.186 129.232 360.087 129.182L359.988 129.084C359.298 128.492 358.755 128.738 358.755 129.725V130.218C358.755 130.958 358.262 131.451 357.523 131.451H354.761C354.021 131.451 353.528 130.958 353.528 130.218V129.971C353.528 129.084 353.133 128.936 352.443 129.478C351.9 129.971 351.358 130.366 350.766 130.711C350.174 131.106 349.533 130.908 349.139 130.366C348.892 130.07 348.695 129.774 348.448 129.528L348.349 129.429C347.56 128.443 346.87 128.738 346.821 130.119C346.673 133.917 346.327 138.207 345.538 142.301C345.292 143.78 345.933 144.323 347.264 143.632C349.434 142.498 351.506 141.018 353.281 139.44C354.465 138.355 354.12 137.517 352.443 137.517H348.941ZM353.528 118.086C353.528 117.642 353.232 117.346 352.788 117.346H347.61C347.166 117.346 346.87 117.642 346.87 118.086V126.914C346.87 127.259 347.067 127.407 347.363 127.259C348.547 126.667 349.73 125.927 350.717 125.089C351.506 124.398 351.309 123.905 350.273 123.905H349.04C348.596 123.905 348.3 123.609 348.3 123.166V120.157C348.3 119.713 348.596 119.417 349.04 119.417H352.788C353.232 119.417 353.528 119.122 353.528 118.678V118.086ZM368.816 119.417C369.26 119.417 369.556 119.122 369.556 118.678V118.086C369.556 117.642 369.26 117.346 368.816 117.346H359.495C359.051 117.346 358.755 117.642 358.755 118.086V118.678C358.755 119.122 359.051 119.417 359.495 119.417H362.553C362.997 119.417 363.293 119.713 363.293 120.157V123.166C363.293 123.609 362.997 123.905 362.553 123.905H361.468C360.383 123.905 360.284 124.201 361.271 124.744C362.356 125.286 363.539 125.927 364.23 126.322C364.427 126.421 364.772 126.421 364.969 126.273C365.611 125.878 366.202 125.434 366.794 124.941C367.485 124.349 367.287 123.905 366.4 123.905H365.611C365.167 123.905 364.871 123.609 364.871 123.166V120.157C364.871 119.713 365.167 119.417 365.611 119.417H368.816ZM371.726 146.69C372.17 146.69 372.466 146.394 372.466 145.95V145.358C372.466 144.915 372.17 144.619 371.726 144.619H360.432C359.988 144.619 359.693 144.915 359.693 145.358V145.95C359.693 146.394 359.988 146.69 360.432 146.69H371.726Z" fill="#262626"/>
<path d="M320.386 127.653C318.611 128.295 316.934 129.084 315.356 129.971C316.49 131.796 317.329 133.572 317.97 135.298L310.967 137.764C310.621 136.827 310.178 135.84 309.586 134.805C308.649 136.136 308.205 137.468 308.205 138.898C308.205 140.624 308.994 142.054 310.572 143.188C311.904 144.126 313.531 144.717 315.405 144.964L314.517 152.263C310.72 151.819 307.514 150.438 304.999 148.17C302.188 145.704 300.807 142.646 300.807 138.947C300.807 135.248 302.188 131.895 304.95 128.837C303.964 127.949 302.089 126.914 299.328 125.73L301.202 118.332H297.996V110.935H303.076L304.259 106.25L311.46 108.074L310.72 110.935H315.356V118.332H308.846L307.958 121.834C308.895 122.475 309.783 123.264 310.671 124.152C312.89 122.82 315.257 121.637 317.871 120.7L320.386 127.653Z" fill="#262626"/>
<path d="M277.233 152.362H261.648V148.959H273.583V120.453H277.233V152.362Z" fill="#262626"/>
<path d="M255.781 151.918H248.63V122.475H234.131C231.665 133.769 227.473 143.583 221.604 151.819L215.637 148.022C220.716 140.821 224.415 132.289 226.783 122.475H213.861V115.571H228.114C228.558 112.414 228.805 109.357 228.805 106.447H235.956C235.956 109.357 235.758 112.365 235.314 115.571H255.781V151.918Z" fill="#262626"/>
<path d="M199.017 137.172C199.017 141.413 197.636 144.915 194.923 147.676C192.211 150.438 188.709 151.819 184.468 151.819C181.361 151.819 178.846 150.833 176.873 148.909C174.9 146.986 173.914 144.471 173.914 141.413C173.914 138.898 174.9 136.728 176.922 135.002C178.846 133.325 181.065 132.487 183.63 132.487C186.885 132.487 189.548 133.867 191.57 136.629C191.323 133.867 190.238 131.5 188.265 129.478C186.885 128.048 184.665 126.519 181.657 124.941L186.046 116.113H176.133V108.716H197.981L191.323 122.13C193.592 123.955 195.416 126.223 196.797 128.837C198.277 131.599 199.017 134.361 199.017 137.172ZM190.83 140.525L186.885 142.202C186.638 141.561 186.243 140.969 185.602 140.427C184.961 139.884 184.32 139.638 183.63 139.638C183.136 139.638 182.643 139.835 182.101 140.18C181.558 140.525 181.312 140.969 181.312 141.413C181.312 143.435 182.347 144.421 184.468 144.421C187.526 144.421 189.646 143.139 190.83 140.525Z" fill="#262626"/>
<path d="M157.837 150.044C155.815 150.685 153.793 150.981 151.771 150.981C148.466 150.981 145.359 150.142 142.548 148.416C139.688 146.641 137.518 144.323 135.989 141.364L128.69 151.326L122.723 146.937L138.702 125.089H126.175L126.224 117.741H142.252L135.249 112.71L139.54 106.694L147.529 112.414L143.732 117.741H153.25L137.222 139.687L142.302 137.418C143.14 139.342 144.422 140.821 146.148 141.906C147.875 143.041 149.749 143.583 151.82 143.583C153.102 143.583 154.384 143.386 155.716 142.991L157.837 150.044Z" fill="#262626"/>
<path d="M113.253 124.694H94.9567C92.2442 126.421 89.8276 127.9 87.6577 129.133L106.842 126.716L107.681 132.733L87.9536 135.002L87.1645 129.429C86.5234 129.774 85.9316 130.119 85.2904 130.465L84.2054 137.024H108.42V152.559H101.516V143.435H76.0681L77.6462 134.262C75.1803 135.396 72.7638 136.432 70.3965 137.369L67.832 130.958C74.9831 128.147 79.8655 126.075 82.4793 124.694H67.6348V118.431H83.1698V115.127H72.9117V108.913H83.1698V106.595H90.0742V108.913H99.4445V113.006C101.368 111.379 103.094 109.751 104.524 108.173L109.653 112.858C108.519 114.091 106.645 115.965 104.08 118.431H113.253V124.694ZM97.4225 115.127H90.0742V118.431H93.1319C94.0196 117.839 95.4498 116.754 97.4225 115.127Z" fill="#262626"/>
<path d="M48.4004 106.398H63.9847V109.801H52.0499V138.306H48.4004V106.398Z" fill="#262626"/>
<path d="M424.765 267.674H394.284V241.358H371.944C365.696 252.528 357.934 261.615 348.562 268.715L340.611 258.113C346.385 253.758 351.591 248.173 356.325 241.358H342.693V228.389H363.708C365.128 225.171 366.169 221.952 367.021 218.734L379.611 221.952V201.884H364.844L371.47 211.066L351.307 225.739L343.545 214.947L361.531 201.884H351.686V208.037H338.434V188.631H373.458V181.059H386.711V188.631H422.209V208.037H408.956V201.884H392.864V209.93H416.529V223.183H379.611V222.993C379.138 224.792 378.57 226.591 377.907 228.389H407.536V254.421H424.765V267.674Z" fill="#B30912"/>
<path d="M259.581 223.088C261.095 222.71 262.326 223.467 262.515 225.076L263.556 232.081C263.746 233.312 263.083 234.353 261.947 234.637C260.527 235.11 259.013 235.489 257.593 235.867C256.551 236.151 255.889 237.098 255.889 238.139V256.693C255.889 262.373 254.942 265.686 251.913 267.674C249.263 269.377 245.76 269.945 241.027 270.135C239.607 270.135 238.755 269.283 238.471 267.958C238.093 265.875 237.525 263.414 236.767 261.237C236.105 259.249 236.957 258.113 238.944 258.207C240.364 258.207 241.69 258.207 242.352 258.113H242.542C243.488 258.113 243.962 257.829 243.962 256.693V242.683C243.962 240.79 242.731 239.843 240.932 240.411L239.039 240.884C237.619 241.263 236.483 240.6 236.105 239.086L234.495 231.418C234.117 229.998 234.874 228.863 236.294 228.579L242.163 227.253C243.204 227.064 243.962 226.117 243.962 224.981V215.421C243.962 214.001 243.015 213.054 241.595 213.054H237.809C236.389 213.054 235.442 212.107 235.442 210.688V203.493C235.442 202.073 236.389 201.127 237.809 201.127H241.595C243.015 201.127 243.962 200.18 243.962 198.76V187.117C243.962 185.697 244.908 184.75 246.328 184.75H253.522C254.942 184.75 255.889 185.697 255.889 187.117V198.76C255.889 200.18 256.835 201.127 258.255 201.127H260.717C262.136 201.127 263.083 202.073 263.083 203.493V210.688C263.083 212.107 262.136 213.054 260.717 213.054H258.255C256.835 213.054 255.889 214.001 255.889 215.421V221.006C255.889 222.804 257.025 223.751 258.823 223.278L259.581 223.088ZM278.229 199.328C276.809 199.328 275.862 200.275 275.862 201.695V205.671C275.862 207.09 274.916 208.037 273.496 208.037H267.248C265.828 208.037 264.882 207.09 264.882 205.671V190.714C264.882 189.294 265.828 188.348 267.248 188.348H316.283C317.703 188.348 318.649 189.294 318.649 190.714V205.103C318.649 206.522 317.703 207.469 316.283 207.469H309.467C308.047 207.469 307.1 206.522 307.1 205.103V201.695C307.1 200.275 306.154 199.328 304.734 199.328H278.229ZM318.649 240.695C318.649 242.115 317.703 243.062 316.283 243.062H309.562C306.533 243.062 305.775 244.671 307.952 246.753C311.076 249.972 314.673 252.812 318.271 255.178C320.164 256.314 320.258 257.829 318.744 259.343C317.04 261.142 315.241 263.224 313.821 265.023C312.969 266.159 311.644 266.538 310.508 265.686C307.668 263.508 304.923 260.953 302.273 258.113C299.338 254.8 297.729 255.273 297.729 259.722V267.579C297.729 268.999 296.782 269.945 295.363 269.945H287.222C285.802 269.945 284.855 268.999 284.855 267.579V259.154C284.855 254.894 283.246 254.421 280.311 257.45C276.714 261.237 272.833 264.36 268.573 266.822C267.437 267.484 266.207 267.106 265.45 266.064C264.219 264.36 262.61 262.373 261.095 260.669C259.581 259.059 259.865 257.45 261.852 256.409C266.586 253.948 271.035 250.54 274.726 246.753C276.809 244.671 275.957 243.062 273.022 243.062H266.68C265.26 243.062 264.314 242.115 264.314 240.695V233.88C264.314 232.46 265.26 231.513 266.68 231.513H282.489C283.909 231.513 284.855 230.566 284.855 229.146V225.36C284.855 223.94 285.802 222.994 287.222 222.994H290.061C293.091 222.994 293.659 221.763 293.091 219.207C292.617 217.409 292.523 215.231 292.523 212.486V203.399C292.523 201.979 293.469 201.032 294.889 201.032H301.705C303.125 201.032 304.071 201.979 304.071 203.399V212.391C304.071 214.758 304.355 214.947 305.586 214.947H308.331C309.278 214.947 309.751 214.474 310.035 212.202C310.224 210.12 311.36 209.552 313.253 210.404C314.768 211.161 316.567 211.824 318.271 212.297C319.406 212.675 320.164 213.717 319.974 214.947C318.649 222.994 315.715 225.171 309.751 225.171H303.503L300.569 224.981C298.865 224.792 297.729 225.644 297.729 227.443V229.146C297.729 230.566 298.676 231.513 300.096 231.513H316.283C317.703 231.513 318.649 232.46 318.649 233.88V240.695ZM277.945 203.399C278.04 202.073 278.986 201.127 280.311 201.127H287.316C288.736 201.127 289.778 202.168 289.588 203.588C288.736 215.137 285.707 222.615 271.224 226.685C270.088 227.064 268.952 226.496 268.384 225.36C267.721 224.129 266.87 222.71 265.923 221.384C264.408 219.207 264.882 217.692 267.437 216.935C275.862 214.285 277.377 210.12 277.945 203.399Z" fill="#DC910F"/>
<path d="M216.226 229.336C216.226 240.032 212.818 249.688 206.097 258.302L194.927 249.593C199.66 243.44 202.027 236.719 202.027 229.336C202.027 222.426 199.944 216.651 195.874 212.107C191.614 207.28 186.124 204.913 179.214 204.913C172.777 204.913 167.381 207.09 162.932 211.445C158.483 215.799 156.211 221.195 156.211 227.632C156.211 231.892 157.536 236.151 160.187 240.506L173.629 215.421L186.124 222.142L165.298 260.953C163.405 260.195 161.417 259.343 159.335 258.397C154.128 256.03 149.963 251.676 146.65 245.428C143.526 239.654 142.012 233.69 142.012 227.632C142.012 217.314 145.609 208.51 152.898 201.411C160.092 194.311 168.895 190.714 179.214 190.714C190.1 190.714 198.998 194.406 205.908 201.789C212.818 209.173 216.226 218.355 216.226 229.336Z" fill="#B30912"/>
<path d="M124.594 226.496L119.009 238.518L83.5112 222.236C80.198 224.224 76.6956 226.212 73.0038 228.011L98.2783 237.287L93.6399 249.783L67.1348 239.938L71.2052 228.863C62.2124 233.312 52.273 237.098 41.387 240.411L37.5059 227.727C49.0545 224.224 59.3726 220.154 68.5547 215.326L61.9284 212.297L67.5134 200.275L82.2806 207.09C85.6884 204.724 88.8122 202.263 91.7467 199.707L71.9625 195.068L44.9841 212.77L37.6952 201.695L69.4067 180.869L116.737 191.85C111.152 199.707 104.242 206.901 96.1011 213.433L124.594 226.496ZM111.152 257.829L109.164 270.892L47.9186 261.426L49.9065 248.363L111.152 257.829Z" fill="#0D9668"/>
<path d="M366.53 360.353L343.877 330.596V360.353H327.463V292.968H343.877V322.533L366.338 292.968H385.632L359.523 325.989L386.592 360.353H366.53Z" fill="#B30912"/>
<path d="M282.346 306.119V319.749H304.327V332.42H282.346V347.202H307.207V360.353H265.932V292.968H307.207V306.119H282.346Z" fill="#0D9668"/>
<path d="M220.816 306.119V319.749H242.798V332.42H220.816V347.202H245.678V360.353H204.402V292.968H245.678V306.119H220.816Z" fill="#DC910F"/>
<path d="M186.572 292.968L169.006 360.353H149.136L138.385 316.006L127.251 360.353H107.381L90.2949 292.968H107.861L117.556 342.019L129.554 292.968H147.6L159.119 342.019L168.91 292.968H186.572Z" fill="#0D9668"/>
</svg>
