<svg width="480" height="294" viewBox="0 0 480 294" fill="none" xmlns="http://www.w3.org/2000/svg">
<path d="M240 46.0537C311.258 -4.75514 429.691 24.8833 480 46.0537V294C386.177 240.412 280.907 271.672 240 294C199.093 271.672 93.8227 240.412 0 294V46.0537C50.3093 24.8833 168.742 -4.7551 240 46.0537Z" fill="#05845A"/>
<path d="M240 28.0543C311.258 -22.7547 429.691 6.88388 480 28.0543V276C386.177 222.412 280.907 253.671 240 276C199.093 253.671 93.8226 222.412 0 276V28.0543C50.3093 6.88388 168.742 -22.7547 240 28.0543Z" fill="white"/>
<path d="M439.888 100.363H409.431L414.552 87.2626L423.263 89.1911C422.931 89.9226 422.399 90.9866 421.8 92.3831H439.888V100.363ZM438.226 112.533H413.953V104.553H438.226V112.533ZM409.963 94.6441H401.651V96.3731H407.902V105.816H401.651V107.745H409.631V113.198H379.373V89.2576H409.963V94.6441ZM440.088 149.706H411.426V138.534H399.855L401.717 144.918L382.765 150.571L380.504 142.923L395.134 138.534H384.959V114.993H433.305V138.534H421.069V141.726H440.088V149.706ZM393.671 96.3731V94.6441H387.353V96.3731H393.671ZM400.121 102.225V99.9641H387.353V102.225H400.121ZM393.671 107.745V105.816H387.353V107.745H393.671ZM423.529 132.749V121.244H394.668V122.574H421.468V125.966H394.668V127.961H421.468V131.419H394.668V132.749H423.529Z" fill="#07B279"/>
<path d="M369.398 123.638H311.543V113.198H369.398V123.638Z" fill="#07B279"/>
<path d="M276.831 107.346L279.159 103.356H262.866L265.194 107.346H276.831ZM265.992 114.661H243.049V107.346H255.152L252.825 103.356H240.722V95.3756H248.103L246.241 92.1836L253.689 87.7946L258.145 95.3756H260.672V88.7256H269.317V95.3756H272.642V88.7256H281.287V95.3756H283.947L288.602 87.5951L296.05 91.9841L293.988 95.3756H301.237V103.356H289.267L286.873 107.346H299.574V114.661H275.302V116.656H295.917V123.572H275.302V126.298H300.904V133.613H275.302V150.571H265.992V133.613H240.722V126.298H265.992V123.572H246.042V116.656H265.992V114.661ZM240.057 141.926L258.012 134.611L261.337 142.591L243.382 149.906L240.057 141.926ZM280.622 142.591L283.947 134.611L301.902 141.926L298.577 149.906L280.622 142.591Z" fill="#07B279"/>
<path d="M231.81 144.187L227.354 151.635L210.862 141.793C206.274 145.384 200.954 148.31 194.902 150.637L191.843 142.524C195.966 140.995 199.624 139.133 202.749 136.938L197.629 133.879L202.018 126.498L209.532 130.887C211.062 129.158 212.458 127.229 213.722 125.168H199.823V116.523H223.032V112.666H198.759V119.515H190.114V108.21H185.792V119.116L189.516 118.318L191.511 127.429L185.792 128.626V151.036H176.482V130.621L171.893 131.618L169.898 122.508L176.482 121.111V108.21H170.896V98.9H176.482V88.0605H185.792V98.9H190.646V104.021H195.7V98.0355L192.907 98.1685L192.242 89.5235L228.019 88.1935L228.684 96.8385L223.165 97.038L229.349 99.964L227.354 104.021H231.677V119.515H226.689C224.694 125.5 221.569 130.887 217.379 135.608L231.81 144.187ZM221.968 97.038L215.384 97.3705V104.021H218.51L221.968 97.038ZM206.939 104.021V97.6365L203.414 97.7695V104.021H206.939Z" fill="#07B279"/>
<path d="M164.18 99.4985L159.392 106.681L156.932 105.018V109.673H150.747C150.747 110.671 150.747 111.668 150.681 112.666H162.584V132.416H146.691C144.097 138.8 140.041 144.652 134.521 150.039L128.536 143.788C132.194 140.263 135.12 136.473 137.181 132.416H130.664V112.666H142.036C142.102 111.668 142.102 110.671 142.102 109.673H135.984V104.486L132.726 106.681L127.938 99.4985L146.092 87.3955L164.18 99.4985ZM164.513 144.253L158.262 150.238L148.952 140.596L155.203 134.611L164.513 144.253ZM129.135 96.905H122.152V100.164H127.14V107.013H122.152V110.471H127.14V117.254H122.152V120.978H128.204V150.903H121.221V128.958H102.934V89.2575H129.135V96.905ZM119.958 144.386H116.699V131.286H119.958V144.386ZM115.17 144.386H111.911V131.286H115.17V144.386ZM110.448 144.386H107.19V131.286H110.448V144.386ZM106.059 131.352L105.328 148.243L101.338 148.044L102.069 131.219L106.059 131.352ZM150.947 101.028L146.092 97.7695L141.238 101.028H150.947ZM154.604 125.101V119.981H150.016C149.75 121.776 149.417 123.439 149.018 125.101H154.604ZM141.238 119.981H137.979V125.101H140.44C140.506 124.968 140.772 123.239 141.238 119.981ZM114.837 100.164V96.905H110.914V100.164H114.837ZM114.837 110.471V107.013H110.914V110.471H114.837ZM114.837 120.978V117.254H110.914V120.978H114.837Z" fill="#07B279"/>
<path d="M97.2805 132.882L89.101 137.271L77.131 115.06L85.377 110.671L97.2805 132.882ZM91.894 106.481H76.6655V130.82H83.9805V140.13H76.6655V150.571H67.3555V140.13H59.575V130.82H67.3555V106.481H50.8635V97.1711H67.3555V88.0606H76.6655V97.1711H91.894V106.481ZM66.89 115.06L54.92 137.271L48.669 133.879V150.571H39.359V122.441L31.3125 119.05L44.6125 87.5951L53.1245 91.1861L44.3465 112.001H48.669V129.291L58.644 110.671L66.89 115.06Z" fill="#07B279"/>
<path d="M353.938 175.32C353.925 175.396 353.906 175.529 353.881 175.719C353.868 175.909 353.856 176.099 353.843 176.289C353.83 176.479 353.824 176.619 353.824 176.707C353.811 176.948 353.799 177.284 353.786 177.714C353.786 178.132 353.786 178.595 353.786 179.101C353.786 179.608 353.786 180.121 353.786 180.64C353.799 181.147 353.805 181.628 353.805 182.084C353.818 182.528 353.824 182.901 353.824 183.205L351.981 182.445C351.981 182.243 351.981 181.958 351.981 181.59C351.981 181.21 351.975 180.786 351.962 180.317C351.962 179.836 351.956 179.361 351.943 178.892C351.943 178.424 351.937 177.993 351.924 177.6C351.924 177.208 351.918 176.91 351.905 176.707C351.88 176.403 351.848 176.118 351.81 175.852C351.785 175.586 351.766 175.409 351.753 175.32H353.938ZM343.545 177.847C344.09 177.835 344.698 177.822 345.369 177.809C346.053 177.797 346.775 177.784 347.535 177.771C348.295 177.746 349.049 177.727 349.796 177.714C350.556 177.689 351.278 177.676 351.962 177.676C352.646 177.664 353.254 177.657 353.786 177.657C354.331 177.657 354.888 177.657 355.458 177.657C356.028 177.657 356.573 177.657 357.092 177.657C357.611 177.657 358.08 177.657 358.498 177.657C358.929 177.657 359.264 177.657 359.505 177.657L359.467 179.443C358.922 179.418 358.181 179.399 357.244 179.386C356.319 179.361 355.154 179.348 353.748 179.348C352.912 179.348 352.051 179.355 351.164 179.367C350.277 179.38 349.384 179.405 348.485 179.443C347.598 179.469 346.737 179.5 345.901 179.538C345.078 179.576 344.311 179.621 343.602 179.671L343.545 177.847ZM353.653 183.395C353.653 184.333 353.526 185.112 353.273 185.732C353.032 186.34 352.684 186.803 352.228 187.119C351.772 187.423 351.221 187.575 350.575 187.575C350.182 187.575 349.796 187.506 349.416 187.366C349.049 187.227 348.707 187.018 348.39 186.739C348.086 186.448 347.839 186.1 347.649 185.694C347.472 185.276 347.383 184.801 347.383 184.269C347.383 183.598 347.541 183.009 347.858 182.502C348.187 181.983 348.618 181.578 349.15 181.286C349.695 180.995 350.284 180.849 350.917 180.849C351.702 180.849 352.355 181.027 352.874 181.381C353.406 181.736 353.805 182.217 354.071 182.825C354.337 183.421 354.47 184.098 354.47 184.858C354.47 185.479 354.375 186.125 354.185 186.796C353.995 187.455 353.678 188.095 353.235 188.715C352.792 189.336 352.19 189.906 351.43 190.425C350.683 190.932 349.745 191.35 348.618 191.679L347.003 190.083C347.852 189.906 348.618 189.672 349.302 189.38C349.986 189.076 350.575 188.709 351.069 188.278C351.563 187.835 351.943 187.316 352.209 186.72C352.488 186.112 352.627 185.409 352.627 184.611C352.627 183.851 352.456 183.3 352.114 182.958C351.785 182.616 351.379 182.445 350.898 182.445C350.607 182.445 350.328 182.515 350.062 182.654C349.796 182.794 349.581 182.996 349.416 183.262C349.251 183.528 349.169 183.851 349.169 184.231C349.169 184.763 349.34 185.181 349.682 185.485C350.037 185.777 350.442 185.922 350.898 185.922C351.265 185.922 351.576 185.821 351.829 185.618C352.095 185.403 352.279 185.074 352.38 184.63C352.481 184.174 352.456 183.598 352.304 182.901L353.653 183.395Z" fill="#07B279"/>
<path d="M324.223 177.752C324.59 177.74 324.926 177.727 325.23 177.714C325.546 177.689 325.8 177.67 325.99 177.657C326.332 177.619 326.788 177.575 327.358 177.524C327.94 177.461 328.599 177.398 329.334 177.334C330.068 177.271 330.854 177.201 331.69 177.125C332.526 177.049 333.381 176.973 334.255 176.897C334.926 176.847 335.578 176.802 336.212 176.764C336.858 176.714 337.459 176.676 338.017 176.65C338.574 176.612 339.068 176.587 339.499 176.574V178.493C339.144 178.481 338.739 178.481 338.283 178.493C337.839 178.506 337.396 178.531 336.953 178.569C336.522 178.607 336.136 178.671 335.794 178.759C335.173 178.949 334.603 179.247 334.084 179.652C333.564 180.058 333.115 180.526 332.735 181.058C332.367 181.59 332.082 182.154 331.88 182.749C331.69 183.345 331.595 183.921 331.595 184.478C331.595 185.175 331.709 185.783 331.937 186.302C332.177 186.809 332.507 187.246 332.925 187.613C333.343 187.968 333.824 188.266 334.369 188.506C334.913 188.734 335.49 188.905 336.098 189.019C336.718 189.133 337.339 189.203 337.96 189.228L337.276 191.261C336.528 191.223 335.787 191.109 335.053 190.919C334.318 190.742 333.628 190.489 332.982 190.159C332.336 189.817 331.759 189.393 331.253 188.886C330.759 188.38 330.366 187.797 330.075 187.138C329.796 186.48 329.657 185.732 329.657 184.896C329.657 183.934 329.815 183.047 330.132 182.236C330.461 181.426 330.873 180.723 331.367 180.127C331.861 179.519 332.367 179.051 332.887 178.721C332.507 178.759 332.038 178.81 331.481 178.873C330.923 178.924 330.322 178.987 329.676 179.063C329.042 179.139 328.403 179.222 327.757 179.31C327.111 179.386 326.496 179.469 325.914 179.557C325.344 179.646 324.843 179.735 324.413 179.823L324.223 177.752ZM336.763 180.602C336.915 180.818 337.086 181.084 337.276 181.4C337.466 181.704 337.656 182.021 337.846 182.35C338.036 182.667 338.194 182.958 338.321 183.224L337.143 183.756C336.915 183.275 336.674 182.813 336.421 182.369C336.18 181.926 335.914 181.502 335.623 181.096L336.763 180.602ZM338.872 179.785C339.024 180.001 339.201 180.26 339.404 180.564C339.606 180.856 339.803 181.16 339.993 181.476C340.183 181.793 340.347 182.091 340.487 182.369L339.328 182.92C339.074 182.439 338.821 181.989 338.568 181.571C338.314 181.141 338.036 180.716 337.732 180.298L338.872 179.785Z" fill="#07B279"/>
<path d="M307.52 174.389L309.401 174.807C309.173 175.352 308.926 175.916 308.66 176.498C308.394 177.068 308.128 177.613 307.862 178.132C307.596 178.652 307.343 179.114 307.102 179.519L305.544 179.101C305.785 178.671 306.026 178.183 306.266 177.638C306.52 177.094 306.754 176.536 306.969 175.966C307.197 175.396 307.381 174.871 307.52 174.389ZM304.48 178.379C305.152 178.354 305.918 178.329 306.779 178.303C307.653 178.265 308.578 178.221 309.553 178.17C310.529 178.12 311.51 178.075 312.498 178.037L312.479 179.633C311.542 179.684 310.605 179.741 309.667 179.804C308.73 179.855 307.831 179.906 306.969 179.956C306.108 180.007 305.323 180.058 304.613 180.108L304.48 178.379ZM305.62 181.248H311.643V182.749H307.292V192.059H305.62V181.248ZM310.807 181.248H312.574V190.14C312.574 190.558 312.524 190.894 312.422 191.147C312.321 191.401 312.125 191.597 311.833 191.736C311.555 191.876 311.2 191.958 310.769 191.983C310.339 192.021 309.832 192.04 309.249 192.04C309.199 191.8 309.116 191.521 309.002 191.204C308.888 190.888 308.768 190.622 308.641 190.406C309.047 190.419 309.42 190.432 309.762 190.444C310.117 190.444 310.364 190.438 310.503 190.425C310.617 190.425 310.693 190.406 310.731 190.368C310.782 190.318 310.807 190.235 310.807 190.121V181.248ZM306.399 184.117H311.776V185.485H306.399V184.117ZM306.399 186.929H311.776V188.316H306.399V186.929ZM314.246 174.484H316.032V180.526C316.032 180.843 316.089 181.046 316.203 181.134C316.317 181.223 316.571 181.267 316.963 181.267C317.052 181.267 317.21 181.267 317.438 181.267C317.679 181.267 317.939 181.267 318.217 181.267C318.509 181.267 318.781 181.267 319.034 181.267C319.288 181.267 319.471 181.267 319.585 181.267C319.813 181.267 319.984 181.217 320.098 181.115C320.225 181.014 320.314 180.818 320.364 180.526C320.415 180.222 320.453 179.773 320.478 179.177C320.605 179.266 320.757 179.361 320.934 179.462C321.124 179.551 321.321 179.633 321.523 179.709C321.726 179.773 321.91 179.823 322.074 179.861C322.011 180.647 321.897 181.261 321.732 181.704C321.58 182.148 321.346 182.458 321.029 182.635C320.713 182.8 320.282 182.882 319.737 182.882C319.649 182.882 319.503 182.882 319.3 182.882C319.098 182.882 318.87 182.882 318.616 182.882C318.363 182.882 318.11 182.882 317.856 182.882C317.603 182.882 317.375 182.882 317.172 182.882C316.982 182.882 316.843 182.882 316.754 182.882C316.096 182.882 315.583 182.819 315.215 182.692C314.848 182.553 314.595 182.312 314.455 181.97C314.316 181.628 314.246 181.153 314.246 180.545V174.484ZM320.003 175.776L321.181 177.087C320.624 177.341 320.016 177.594 319.357 177.847C318.699 178.088 318.027 178.316 317.343 178.531C316.659 178.747 315.994 178.949 315.348 179.139C315.31 178.962 315.241 178.753 315.139 178.512C315.038 178.259 314.937 178.05 314.835 177.885C315.443 177.695 316.064 177.48 316.697 177.239C317.331 176.999 317.932 176.752 318.502 176.498C319.085 176.245 319.585 176.004 320.003 175.776ZM314.246 183.357H316.013V189.589C316.013 189.906 316.077 190.115 316.203 190.216C316.33 190.305 316.602 190.349 317.02 190.349C317.109 190.349 317.274 190.349 317.514 190.349C317.755 190.349 318.021 190.349 318.312 190.349C318.616 190.349 318.895 190.349 319.148 190.349C319.402 190.349 319.592 190.349 319.718 190.349C319.972 190.349 320.162 190.292 320.288 190.178C320.415 190.064 320.504 189.836 320.554 189.494C320.605 189.14 320.643 188.62 320.668 187.936C320.871 188.063 321.124 188.19 321.428 188.316C321.745 188.443 322.03 188.538 322.283 188.601C322.207 189.475 322.087 190.153 321.922 190.634C321.77 191.116 321.53 191.451 321.2 191.641C320.884 191.831 320.44 191.926 319.87 191.926C319.782 191.926 319.63 191.926 319.414 191.926C319.212 191.926 318.977 191.926 318.711 191.926C318.458 191.926 318.198 191.926 317.932 191.926C317.666 191.926 317.426 191.926 317.21 191.926C317.008 191.926 316.868 191.926 316.792 191.926C316.121 191.926 315.602 191.857 315.234 191.717C314.867 191.578 314.607 191.337 314.455 190.995C314.316 190.666 314.246 190.197 314.246 189.589V183.357ZM320.193 184.269L321.39 185.599C320.846 185.916 320.231 186.214 319.547 186.492C318.863 186.758 318.16 187.012 317.438 187.252C316.716 187.48 316.02 187.689 315.348 187.879C315.31 187.702 315.234 187.487 315.12 187.233C315.006 186.98 314.905 186.771 314.816 186.606C315.45 186.404 316.096 186.176 316.754 185.922C317.426 185.656 318.059 185.384 318.654 185.105C319.262 184.827 319.775 184.548 320.193 184.269ZM309.99 176.327L311.491 175.738C311.821 176.182 312.144 176.663 312.46 177.182C312.777 177.702 313.062 178.215 313.315 178.721C313.581 179.228 313.778 179.684 313.904 180.089L312.289 180.754C312.175 180.349 311.998 179.893 311.757 179.386C311.517 178.88 311.244 178.36 310.94 177.828C310.636 177.284 310.32 176.783 309.99 176.327Z" fill="#07B279"/>
<path d="M298.705 176.27H300.586V189.665C300.586 190.248 300.504 190.698 300.339 191.014C300.174 191.331 299.889 191.565 299.484 191.717C299.066 191.882 298.515 191.977 297.831 192.002C297.147 192.04 296.33 192.059 295.38 192.059C295.342 191.869 295.279 191.654 295.19 191.413C295.114 191.185 295.025 190.951 294.924 190.71C294.823 190.482 294.721 190.286 294.62 190.121C295.114 190.147 295.595 190.166 296.064 190.178C296.545 190.178 296.97 190.178 297.337 190.178C297.717 190.178 297.983 190.178 298.135 190.178C298.338 190.166 298.483 190.128 298.572 190.064C298.661 189.988 298.705 189.849 298.705 189.646V176.27ZM287.666 180.07H289.414V188.791H287.666V180.07ZM288.407 180.07H295.589V187.29H288.407V185.58H293.803V181.78H288.407V180.07ZM285.785 175.757H302.866V177.562H285.785V175.757Z" fill="#07B279"/>
<path d="M273.529 175.947H283.846V177.258H273.529V175.947ZM273.016 180.621H284.15V182.008H273.016V180.621ZM272.997 187.727H284.188V189.171H272.997V187.727ZM274.859 185.409H282.516V186.568H274.859V185.409ZM273.89 178.246H283.466V179.557H273.89V178.246ZM275.676 174.446H277.291V181.248H275.676V174.446ZM279.951 174.446H281.585V181.248H279.951V174.446ZM277.785 181.305H279.286V188.563H277.785V181.305ZM281.528 182.939H283.181V190.387C283.181 190.793 283.13 191.103 283.029 191.318C282.928 191.546 282.731 191.724 282.44 191.85C282.161 191.964 281.794 192.028 281.338 192.04C280.895 192.066 280.356 192.078 279.723 192.078C279.685 191.863 279.622 191.622 279.533 191.356C279.457 191.09 279.368 190.856 279.267 190.653C279.698 190.666 280.097 190.672 280.464 190.672C280.844 190.685 281.091 190.691 281.205 190.691C281.344 190.679 281.433 190.647 281.471 190.596C281.509 190.558 281.528 190.482 281.528 190.368V182.939ZM274.061 182.939H282.136V184.212H275.581V192.097H274.061V182.939ZM267.278 180.336H272.408V181.742H267.278V180.336ZM267.392 175.073H272.351V176.479H267.392V175.073ZM267.278 182.958H272.408V184.364H267.278V182.958ZM266.461 177.657H272.94V179.12H266.461V177.657ZM268.133 185.618H272.484V191.261H268.133V189.798H270.964V187.062H268.133V185.618ZM267.24 185.618H268.741V192.078H267.24V185.618Z" fill="#07B279"/>
<path d="M248.088 179.918H264.523V183.908H262.775V181.495H249.779V183.908H248.088V179.918ZM250.596 183.338H260.951V185.01H250.596V183.338ZM262.395 174.351L263.63 175.814C262.617 176.004 261.502 176.182 260.286 176.346C259.083 176.511 257.822 176.657 256.505 176.783C255.2 176.897 253.883 176.992 252.553 177.068C251.223 177.144 249.931 177.208 248.677 177.258C248.664 177.03 248.614 176.764 248.525 176.46C248.436 176.156 248.348 175.909 248.259 175.719C249.513 175.669 250.786 175.605 252.078 175.529C253.383 175.441 254.662 175.339 255.916 175.225C257.183 175.111 258.367 174.985 259.469 174.845C260.571 174.693 261.546 174.529 262.395 174.351ZM249.893 177.638L251.451 177.182C251.717 177.55 251.964 177.961 252.192 178.417C252.42 178.873 252.585 179.26 252.686 179.576L251.052 180.089C250.963 179.76 250.805 179.367 250.577 178.911C250.362 178.443 250.134 178.018 249.893 177.638ZM254.928 177.22L256.543 176.878C256.746 177.284 256.936 177.733 257.113 178.227C257.303 178.721 257.43 179.152 257.493 179.519L255.802 179.937C255.751 179.583 255.644 179.152 255.479 178.645C255.314 178.126 255.131 177.651 254.928 177.22ZM261.217 176.84L263.098 177.315C262.87 177.721 262.629 178.132 262.376 178.55C262.135 178.956 261.888 179.348 261.635 179.728C261.394 180.096 261.166 180.425 260.951 180.716L259.488 180.26C259.691 179.944 259.9 179.589 260.115 179.196C260.33 178.791 260.533 178.386 260.723 177.98C260.926 177.562 261.09 177.182 261.217 176.84ZM260.286 183.338H260.666L260.989 183.262L262.205 184.003C261.622 185.232 260.869 186.296 259.944 187.195C259.032 188.095 257.981 188.861 256.79 189.494C255.612 190.115 254.339 190.628 252.971 191.033C251.603 191.439 250.184 191.749 248.715 191.964C248.652 191.825 248.557 191.648 248.43 191.432C248.316 191.23 248.189 191.033 248.05 190.843C247.923 190.653 247.797 190.495 247.67 190.368C249.114 190.191 250.495 189.938 251.812 189.608C253.129 189.266 254.339 188.829 255.441 188.297C256.556 187.753 257.525 187.1 258.348 186.34C259.171 185.568 259.817 184.668 260.286 183.642V183.338ZM252.61 184.516C253.332 185.58 254.295 186.505 255.498 187.29C256.701 188.076 258.095 188.715 259.678 189.209C261.274 189.703 263.009 190.058 264.884 190.273C264.757 190.4 264.624 190.565 264.485 190.767C264.346 190.97 264.213 191.173 264.086 191.375C263.972 191.591 263.871 191.781 263.782 191.945C261.869 191.679 260.109 191.255 258.5 190.672C256.891 190.102 255.46 189.361 254.206 188.449C252.952 187.525 251.901 186.429 251.052 185.162L252.61 184.516Z" fill="#07B279"/>
<path d="M228.461 184.478H237.923V185.96H228.461V184.478ZM228.613 177.809H237.847V179.253H228.613V177.809ZM231.957 182.958L233.629 183.319C233.325 183.953 232.996 184.618 232.641 185.314C232.286 186.011 231.938 186.682 231.596 187.328C231.254 187.974 230.931 188.551 230.627 189.057L229.05 188.544C229.341 188.063 229.658 187.506 230 186.872C230.355 186.226 230.697 185.561 231.026 184.877C231.368 184.193 231.678 183.554 231.957 182.958ZM234.731 185.428L236.403 185.618C236.226 186.568 235.966 187.398 235.624 188.107C235.282 188.817 234.826 189.425 234.256 189.931C233.686 190.438 232.989 190.862 232.166 191.204C231.355 191.559 230.393 191.857 229.278 192.097C229.227 191.844 229.126 191.578 228.974 191.299C228.835 191.021 228.683 190.786 228.518 190.596C229.823 190.394 230.893 190.096 231.729 189.703C232.578 189.298 233.236 188.747 233.705 188.05C234.186 187.354 234.528 186.48 234.731 185.428ZM235.985 174.75L237.524 175.377C237.233 175.808 236.935 176.239 236.631 176.669C236.34 177.1 236.067 177.474 235.814 177.79L234.617 177.239C234.858 176.897 235.105 176.492 235.358 176.023C235.624 175.542 235.833 175.118 235.985 174.75ZM232.413 174.427H234.085V183.205H232.413V174.427ZM229.221 175.377L230.551 174.826C230.817 175.206 231.058 175.624 231.273 176.08C231.501 176.524 231.659 176.91 231.748 177.239L230.361 177.866C230.285 177.524 230.139 177.125 229.924 176.669C229.709 176.201 229.474 175.77 229.221 175.377ZM232.47 178.493L233.648 179.196C233.331 179.716 232.932 180.241 232.451 180.773C231.982 181.293 231.469 181.774 230.912 182.217C230.367 182.661 229.823 183.034 229.278 183.338C229.177 183.136 229.037 182.901 228.86 182.635C228.683 182.369 228.505 182.154 228.328 181.989C228.86 181.774 229.386 181.483 229.905 181.115C230.437 180.748 230.925 180.336 231.368 179.88C231.824 179.424 232.191 178.962 232.47 178.493ZM233.914 179.101C234.079 179.19 234.319 179.336 234.636 179.538C234.965 179.728 235.314 179.937 235.681 180.165C236.061 180.381 236.403 180.59 236.707 180.792C237.024 180.982 237.245 181.128 237.372 181.229L236.403 182.483C236.238 182.331 236.01 182.135 235.719 181.894C235.428 181.654 235.111 181.407 234.769 181.153C234.44 180.887 234.117 180.64 233.8 180.412C233.496 180.172 233.243 179.982 233.04 179.842L233.914 179.101ZM239.253 177.923H246.112V179.576H239.253V177.923ZM239.595 174.427L241.419 174.693C241.216 175.96 240.957 177.182 240.64 178.36C240.323 179.538 239.943 180.628 239.5 181.628C239.057 182.629 238.55 183.509 237.98 184.269C237.891 184.155 237.758 184.022 237.581 183.87C237.404 183.718 237.22 183.566 237.03 183.414C236.84 183.25 236.675 183.123 236.536 183.034C237.081 182.363 237.549 181.578 237.942 180.678C238.335 179.766 238.67 178.778 238.949 177.714C239.228 176.65 239.443 175.555 239.595 174.427ZM243.224 178.911L245.048 179.082C244.757 181.261 244.313 183.18 243.718 184.839C243.135 186.499 242.331 187.93 241.305 189.133C240.292 190.324 238.987 191.325 237.391 192.135C237.34 191.996 237.252 191.819 237.125 191.603C236.998 191.401 236.865 191.198 236.726 190.995C236.587 190.793 236.46 190.634 236.346 190.52C237.815 189.836 239.012 188.969 239.937 187.917C240.874 186.853 241.596 185.574 242.103 184.079C242.622 182.585 242.996 180.862 243.224 178.911ZM240.241 179.31C240.507 180.995 240.887 182.578 241.381 184.06C241.888 185.53 242.54 186.822 243.338 187.936C244.149 189.038 245.143 189.9 246.321 190.52C246.182 190.634 246.03 190.78 245.865 190.957C245.7 191.147 245.548 191.337 245.409 191.527C245.27 191.717 245.149 191.895 245.048 192.059C243.794 191.325 242.749 190.349 241.913 189.133C241.077 187.905 240.393 186.486 239.861 184.877C239.342 183.256 238.924 181.489 238.607 179.576L240.241 179.31ZM230.418 188.411L231.387 187.176C232.134 187.468 232.882 187.797 233.629 188.164C234.376 188.519 235.067 188.893 235.7 189.285C236.346 189.665 236.891 190.026 237.334 190.368L236.099 191.66C235.681 191.306 235.168 190.932 234.56 190.539C233.952 190.147 233.293 189.767 232.584 189.399C231.875 189.032 231.153 188.703 230.418 188.411Z" fill="#07B279"/>
<path d="M219.417 185.409H224.699V186.758H218.467L219.417 185.409ZM224.129 185.409H224.509L224.832 185.352L225.896 185.979C225.339 187.17 224.566 188.171 223.578 188.981C222.603 189.792 221.482 190.444 220.215 190.938C218.961 191.445 217.631 191.838 216.225 192.116C216.174 191.964 216.092 191.787 215.978 191.584C215.877 191.394 215.763 191.204 215.636 191.014C215.522 190.824 215.414 190.679 215.313 190.577C216.656 190.375 217.91 190.077 219.075 189.684C220.253 189.279 221.279 188.747 222.153 188.088C223.04 187.43 223.698 186.632 224.129 185.694V185.409ZM219.341 186.283C219.81 187.031 220.437 187.689 221.222 188.259C222.02 188.829 222.938 189.304 223.977 189.684C225.028 190.064 226.168 190.343 227.397 190.52C227.27 190.647 227.137 190.799 226.998 190.976C226.859 191.166 226.726 191.356 226.599 191.546C226.485 191.749 226.384 191.926 226.295 192.078C225.016 191.838 223.838 191.477 222.761 190.995C221.697 190.527 220.747 189.938 219.911 189.228C219.088 188.519 218.404 187.696 217.859 186.758L219.341 186.283ZM219.189 182.122V183.186H224.148V182.122H219.189ZM219.189 179.975V181.02H224.148V179.975H219.189ZM217.555 178.816H225.858V184.345H217.555V178.816ZM218.144 176.251H226.96V177.752H218.144V176.251ZM218.467 174.446L220.158 174.712C219.791 175.637 219.335 176.574 218.79 177.524C218.258 178.474 217.587 179.361 216.776 180.184C216.637 180.007 216.44 179.817 216.187 179.614C215.934 179.399 215.712 179.241 215.522 179.139C216.244 178.443 216.852 177.67 217.346 176.821C217.84 175.96 218.214 175.168 218.467 174.446ZM219.968 183.851L221.716 184.193C221.159 185.055 220.462 185.884 219.626 186.682C218.803 187.48 217.808 188.209 216.643 188.867C216.554 188.741 216.44 188.601 216.301 188.449C216.174 188.297 216.035 188.152 215.883 188.012C215.731 187.873 215.592 187.765 215.465 187.689C216.554 187.145 217.473 186.53 218.22 185.846C218.98 185.162 219.563 184.497 219.968 183.851ZM212.007 184.06L213.622 182.141V192.078H212.007V184.06ZM209.746 177.999H214.857V179.576H209.746V177.999ZM211.969 174.541H213.584V178.854H211.969V174.541ZM213.413 182.217C213.54 182.357 213.73 182.585 213.983 182.901C214.249 183.205 214.528 183.541 214.819 183.908C215.11 184.276 215.376 184.618 215.617 184.934C215.87 185.251 216.048 185.479 216.149 185.618L215.104 186.815C214.977 186.562 214.8 186.264 214.572 185.922C214.357 185.568 214.116 185.2 213.85 184.82C213.597 184.44 213.356 184.086 213.128 183.756C212.9 183.414 212.704 183.142 212.539 182.939L213.413 182.217ZM214.23 177.999H214.572L214.857 177.923L215.788 178.531C215.408 179.709 214.914 180.862 214.306 181.989C213.698 183.104 213.033 184.136 212.311 185.086C211.589 186.024 210.854 186.822 210.107 187.48C210.069 187.328 209.993 187.151 209.879 186.948C209.778 186.733 209.67 186.53 209.556 186.34C209.442 186.15 209.341 186.011 209.252 185.922C209.936 185.365 210.601 184.681 211.247 183.87C211.893 183.047 212.476 182.16 212.995 181.21C213.527 180.248 213.939 179.291 214.23 178.341V177.999ZM215.541 181.514L216.586 182.255C216.307 182.661 216.022 183.072 215.731 183.49C215.452 183.908 215.193 184.263 214.952 184.554L214.135 183.927C214.363 183.598 214.61 183.199 214.876 182.73C215.155 182.262 215.376 181.856 215.541 181.514Z" fill="#07B279"/>
<path d="M198.385 177.448C198.943 177.537 199.57 177.6 200.266 177.638C200.976 177.676 201.704 177.689 202.451 177.676C203.199 177.664 203.914 177.638 204.598 177.6C205.282 177.562 205.871 177.512 206.365 177.448V179.386C205.821 179.437 205.206 179.481 204.522 179.519C203.838 179.545 203.129 179.557 202.394 179.557C201.672 179.557 200.963 179.545 200.266 179.519C199.57 179.481 198.949 179.437 198.404 179.386L198.385 177.448ZM199.468 185.352C199.392 185.682 199.329 185.979 199.278 186.245C199.24 186.511 199.221 186.777 199.221 187.043C199.221 187.259 199.266 187.461 199.354 187.651C199.456 187.841 199.614 188.006 199.829 188.145C200.057 188.285 200.361 188.399 200.741 188.487C201.134 188.563 201.615 188.601 202.185 188.601C203.047 188.601 203.851 188.563 204.598 188.487C205.358 188.399 206.131 188.266 206.916 188.088L206.954 190.121C206.359 190.235 205.662 190.33 204.864 190.406C204.079 190.47 203.173 190.501 202.147 190.501C200.539 190.501 199.348 190.242 198.575 189.722C197.815 189.19 197.435 188.462 197.435 187.537C197.435 187.195 197.461 186.841 197.511 186.473C197.562 186.093 197.644 185.669 197.758 185.2L199.468 185.352ZM195.079 176.08C195.041 176.194 194.991 176.346 194.927 176.536C194.877 176.714 194.826 176.897 194.775 177.087C194.737 177.265 194.706 177.41 194.68 177.524C194.617 177.841 194.541 178.227 194.452 178.683C194.376 179.127 194.294 179.614 194.205 180.146C194.129 180.666 194.053 181.198 193.977 181.742C193.914 182.274 193.857 182.794 193.806 183.3C193.768 183.807 193.749 184.269 193.749 184.687C193.749 185.017 193.756 185.352 193.768 185.694C193.794 186.024 193.825 186.366 193.863 186.72C193.977 186.467 194.091 186.201 194.205 185.922C194.319 185.631 194.433 185.346 194.547 185.067C194.661 184.789 194.769 184.535 194.87 184.307L195.82 185.067C195.656 185.536 195.478 186.055 195.288 186.625C195.098 187.195 194.927 187.74 194.775 188.259C194.636 188.766 194.535 189.178 194.471 189.494C194.446 189.621 194.421 189.773 194.395 189.95C194.37 190.115 194.364 190.254 194.376 190.368C194.376 190.457 194.376 190.565 194.376 190.691C194.389 190.831 194.402 190.957 194.414 191.071L192.685 191.185C192.495 190.527 192.331 189.659 192.191 188.582C192.052 187.506 191.982 186.328 191.982 185.048C191.982 184.339 192.014 183.623 192.077 182.901C192.141 182.167 192.217 181.457 192.305 180.773C192.394 180.089 192.483 179.462 192.571 178.892C192.673 178.322 192.749 177.847 192.799 177.467C192.837 177.227 192.869 176.967 192.894 176.688C192.932 176.41 192.958 176.144 192.97 175.89L195.079 176.08Z" fill="#07B279"/>
<path d="M175.282 179.785H188.658V181.229H175.282V179.785ZM175.491 185.314H186.188V186.758H175.491V185.314ZM178.132 178.303H179.842V182.92H183.965V178.303H185.732V184.307H178.132V178.303ZM185.713 185.314H186.074L186.397 185.238L187.518 185.827C186.998 186.841 186.327 187.708 185.504 188.43C184.68 189.14 183.737 189.741 182.673 190.235C181.621 190.729 180.488 191.122 179.272 191.413C178.056 191.705 176.789 191.933 175.472 192.097C175.421 191.882 175.32 191.622 175.168 191.318C175.016 191.027 174.87 190.786 174.731 190.596C175.934 190.482 177.099 190.305 178.227 190.064C179.367 189.824 180.424 189.507 181.4 189.114C182.388 188.709 183.249 188.215 183.984 187.632C184.731 187.05 185.307 186.359 185.713 185.561V185.314ZM179.12 186.492C179.702 187.278 180.494 187.949 181.495 188.506C182.495 189.064 183.642 189.513 184.934 189.855C186.238 190.197 187.638 190.438 189.133 190.577C189.019 190.704 188.892 190.862 188.753 191.052C188.613 191.242 188.487 191.426 188.373 191.603C188.259 191.793 188.164 191.971 188.088 192.135C186.53 191.933 185.086 191.616 183.756 191.185C182.426 190.767 181.235 190.216 180.184 189.532C179.132 188.848 178.258 188.025 177.562 187.062L179.12 186.492ZM179.937 174.446H181.799V177.163H179.937V174.446ZM173.895 176.251H188.791V177.866H173.895V176.251ZM173.002 176.251H174.731V181.685C174.731 182.433 174.705 183.256 174.655 184.155C174.617 185.055 174.528 185.973 174.389 186.91C174.262 187.848 174.066 188.76 173.8 189.646C173.546 190.533 173.211 191.344 172.793 192.078C172.691 191.977 172.546 191.857 172.356 191.717C172.178 191.591 171.995 191.464 171.805 191.337C171.615 191.223 171.45 191.141 171.311 191.09C171.703 190.406 172.014 189.665 172.242 188.867C172.47 188.069 172.634 187.252 172.736 186.416C172.85 185.568 172.919 184.738 172.945 183.927C172.983 183.117 173.002 182.369 173.002 181.685V176.251Z" fill="#07B279"/>
<path d="M152.596 182.084H170.076V184.06H152.596V182.084Z" fill="#07B279"/>
<path d="M142.297 179.272C141.904 179.272 141.569 179.133 141.29 178.854C141.011 178.576 140.872 178.24 140.872 177.847C140.872 177.455 141.011 177.119 141.29 176.84C141.569 176.562 141.904 176.422 142.297 176.422C142.69 176.422 143.025 176.562 143.304 176.84C143.583 177.119 143.722 177.455 143.722 177.847C143.722 178.24 143.583 178.576 143.304 178.854C143.025 179.133 142.69 179.272 142.297 179.272ZM142.297 182.711L148.567 176.441L149.118 176.992L142.848 183.262L149.118 189.532L148.567 190.083L142.297 183.813L136.008 190.102L135.457 189.551L141.746 183.262L135.476 176.992L136.027 176.441L142.297 182.711ZM138.307 183.262C138.307 183.655 138.168 183.991 137.889 184.269C137.61 184.548 137.275 184.687 136.882 184.687C136.489 184.687 136.154 184.548 135.875 184.269C135.596 183.991 135.457 183.655 135.457 183.262C135.457 182.87 135.596 182.534 135.875 182.255C136.154 181.977 136.489 181.837 136.882 181.837C137.275 181.837 137.61 181.977 137.889 182.255C138.168 182.534 138.307 182.87 138.307 183.262ZM146.287 183.262C146.287 182.87 146.426 182.534 146.705 182.255C146.984 181.977 147.319 181.837 147.712 181.837C148.105 181.837 148.44 181.977 148.719 182.255C148.998 182.534 149.137 182.87 149.137 183.262C149.137 183.655 148.998 183.991 148.719 184.269C148.44 184.548 148.105 184.687 147.712 184.687C147.319 184.687 146.984 184.548 146.705 184.269C146.426 183.991 146.287 183.655 146.287 183.262ZM142.297 187.252C142.69 187.252 143.025 187.392 143.304 187.67C143.583 187.949 143.722 188.285 143.722 188.677C143.722 189.07 143.583 189.406 143.304 189.684C143.025 189.963 142.69 190.102 142.297 190.102C141.904 190.102 141.569 189.963 141.29 189.684C141.011 189.406 140.872 189.07 140.872 188.677C140.872 188.285 141.011 187.949 141.29 187.67C141.569 187.392 141.904 187.252 142.297 187.252Z" fill="#07B279"/>
</svg>
