<svg width="903" height="575" viewBox="0 0 903 575" fill="none" xmlns="http://www.w3.org/2000/svg">
<g opacity="0.8" clip-path="url(#clip0_482_1050)">
<path d="M162.049 358.904C169.631 358.445 187.092 359.791 180.356 371.528C177.763 372.94 169.37 377.404 167.872 378.985C165.898 379.735 158.458 379.482 155.958 379.468C154.525 378.539 152.777 377.742 152.193 376.251C152.555 374.825 153.363 372.166 152.789 370.872C150.984 370.004 148.517 368.325 149.892 365.901C152.375 361.53 157.821 360.485 162.049 358.904Z" fill="#F4EBEF"/>
<path d="M96.6979 309.374C99.8721 309.238 104.133 308.929 107.191 309.642C110.834 310.495 111.838 310.988 115.675 311.274C116.831 312.859 118.136 315.072 119.205 316.77C117.72 318.247 114.816 322.599 113.198 324.662L108.279 325.581L105.506 328.357C102.779 329.15 93.7976 328.845 90.5442 328.807C89.2856 327.677 88.351 327.082 87.8029 325.497C88.3182 323.335 88.428 323.002 88.4092 320.817C87.0854 320.174 87.107 320.226 86.0542 319.217C84.5963 314.556 93.2687 310.148 96.6979 309.374Z" fill="#419AFF"/>
<path d="M37.5985 447.991C41.1722 447.803 45.8591 447.92 49.5195 447.906C50.0302 452.816 49.4374 455.184 48.682 460.052C46.23 462.734 44.4739 465.933 41.6003 468.624C38.6043 471.429 37.463 470.111 35.3064 473.107C32.8487 473.675 30.5514 473.6 28.0263 473.651C26.6908 472.306 25.2971 471.171 23.851 469.951C23.8463 468.507 23.6559 463.761 24.5225 462.875C26.4488 460.91 26.2073 459.658 26.7789 456.868C30.6917 453.172 33.3176 451.264 37.5985 447.991Z" fill="#F4EBEF"/>
<path d="M656.371 261.716C670.61 256.539 682.726 268.776 680.678 268.921C676.185 269.219 675.977 272.505 667.179 278.499C661.833 282.132 658.352 281.603 653.18 283.479C650.437 284.473 651.965 278.489 653.881 277.097C652.753 276.47 643.512 277.156 644.128 274.529C645.226 270.013 650.027 264.03 656.351 261.723L656.371 261.716Z" fill="#FFEDF6"/>
<path d="M539.031 219.368C553.27 214.19 565.386 226.427 563.338 226.573C558.845 226.871 558.638 230.156 549.839 236.15C544.493 239.783 541.012 239.254 535.84 241.131C533.097 242.125 534.625 236.141 536.542 234.748C535.413 234.122 526.172 234.808 526.789 232.18C527.886 227.665 532.687 221.682 539.011 219.375L539.031 219.368Z" fill="#FFEDF6"/>
<path d="M393.555 193.51C378.93 197.467 376.059 214.447 377.818 213.387C381.665 211.046 383.724 213.614 394.369 213.455C400.832 213.351 403.375 210.916 408.685 209.475C411.501 208.71 406.808 204.695 404.439 204.658C405.002 203.497 412.956 198.741 410.939 196.947C407.444 193.885 400.075 191.753 393.575 193.504L393.555 193.51Z" fill="#FFEDF6"/>
<path d="M374.685 49.2432C360.059 53.2002 357.189 70.1799 358.948 69.1205C362.795 66.7791 364.854 69.3473 375.499 69.1882C381.962 69.0847 384.505 66.6491 389.815 65.2085C392.631 64.4434 387.938 60.4281 385.569 60.3916C386.132 59.2301 394.085 54.4745 392.069 52.6802C388.574 49.6184 381.205 47.4864 374.705 49.2376L374.685 49.2432Z" fill="#FFEDF6"/>
<path d="M355.001 390.505C369.502 394.896 380.931 382.015 378.878 381.981C374.375 381.93 373.989 378.661 364.876 373.157C359.339 369.821 355.892 370.54 350.625 368.949C347.832 368.106 349.685 373.998 351.675 375.284C350.582 375.971 341.317 375.791 342.077 378.381C343.42 382.83 348.541 388.541 354.981 390.499L355.001 390.505Z" fill="#FFEDF6"/>
<path d="M725.062 310.183C732.644 309.723 750.105 311.069 743.368 322.807C740.775 324.218 732.382 328.683 730.885 330.263C728.911 331.013 721.471 330.76 718.97 330.746C717.537 329.817 715.79 329.02 715.206 327.529C715.568 326.103 716.376 323.444 715.802 322.15C713.997 321.283 711.53 319.604 712.905 317.179C715.388 312.809 720.834 311.763 725.062 310.183Z" fill="#F4EBEF"/>
<path d="M600.603 399.269C604.177 399.081 608.864 399.199 612.524 399.185C613.035 404.094 612.442 406.463 611.687 411.33C609.235 414.013 607.479 417.211 604.605 419.903C601.609 422.707 600.468 421.389 598.311 424.386C595.854 424.953 593.556 424.878 591.031 424.93C589.696 423.584 588.302 422.449 586.856 421.23C586.851 419.785 586.661 415.04 587.527 414.153C589.454 412.188 589.212 410.936 589.784 408.146C593.697 404.451 596.323 402.542 600.603 399.269Z" fill="#F4EBEF"/>
<path d="M435.466 345.796C425.361 376.361 389.002 380.466 391.456 376.857C396.873 368.97 391.665 364.301 393.248 341.736C394.223 328.037 399.688 322.926 403.365 311.829C405.317 305.945 413.287 316.37 413.088 321.4C415.618 320.343 426.637 304.025 430.208 308.512C436.295 316.286 439.956 332.169 435.481 345.754L435.466 345.796Z" fill="#FFCAE3"/>
<path d="M590.432 55.7714C615.849 36.0148 648.333 52.8575 644.285 54.4884C635.393 58.0209 637.117 64.7996 623.234 82.6591C614.794 93.4928 607.408 94.6938 598.174 101.862C593.275 105.661 592.462 92.5632 595.43 88.4971C592.74 87.9663 574.499 95.3809 574.032 89.6651C573.307 79.818 579.113 64.5878 590.397 55.7983L590.432 55.7714Z" fill="white"/>
<path d="M317.648 284.233C346.274 269.506 375.091 292.054 370.812 292.91C361.421 294.741 361.865 301.722 344.924 316.712C334.63 325.802 327.149 325.62 316.75 330.96C311.235 333.79 312.853 320.768 316.52 317.319C313.974 316.301 294.678 320.222 295.275 314.518C296.379 304.706 304.896 290.809 317.608 284.253L317.648 284.233Z" fill="white"/>
<path d="M505.265 467.18C480.387 485.445 449.7 468.451 453.622 466.994C462.236 463.842 460.762 457.301 474.536 440.55C482.909 430.39 490.018 429.433 499.057 422.806C503.852 419.294 504.286 431.867 501.335 435.686C503.899 436.265 521.575 429.639 521.872 435.129C522.308 444.585 516.344 459.028 505.299 467.155L505.265 467.18Z" fill="#FF9BCA"/>
<path d="M190.047 446.054C220.547 435.75 245.688 462.335 241.329 462.544C231.77 462.958 231.17 469.926 212.188 482.23C200.656 489.687 193.286 488.394 182.208 492.128C176.333 494.105 179.871 481.469 184.01 478.604C181.644 477.218 161.979 478.225 163.418 472.673C165.97 463.135 176.459 450.66 190.005 446.068L190.047 446.054Z" fill="white"/>
<path d="M305.321 179.732C330.738 159.975 363.221 176.818 359.173 178.449C350.282 181.981 352.006 188.76 338.123 206.619C329.682 217.453 322.297 218.654 313.062 225.822C308.163 229.621 307.351 216.523 310.318 212.457C307.628 211.926 289.387 219.341 288.921 213.625C288.196 203.778 294.002 188.548 305.286 179.758L305.321 179.732Z" fill="white"/>
<path d="M328.682 406.735C360.498 401.83 380.693 432.342 376.363 431.799C366.876 430.562 365.086 437.324 344.271 446.18C331.628 451.542 324.59 449.001 313.035 450.774C306.907 451.711 312.566 439.872 317.136 437.761C315.044 435.989 295.499 433.599 297.871 428.378C302.025 419.421 314.504 408.935 328.638 406.741L328.682 406.735Z" fill="white"/>
<path d="M168.651 270.896C200.468 265.991 220.663 296.503 216.333 295.96C206.845 294.723 205.056 301.485 184.241 310.34C171.597 315.703 164.56 313.162 153.005 314.935C146.877 315.872 152.536 304.033 157.106 301.922C155.013 300.15 135.469 297.76 137.84 292.539C141.995 283.581 154.474 273.096 168.608 270.902L168.651 270.896Z" fill="white"/>
<path d="M813.46 126.051C839.651 107.332 871.431 125.467 867.321 126.933C858.294 130.106 859.745 136.948 845.155 154.235C836.286 164.721 828.858 165.624 819.343 172.415C814.295 176.014 814.01 162.895 817.139 158.951C814.472 158.313 795.948 164.988 795.712 159.258C795.383 149.39 801.796 134.405 813.424 126.076L813.46 126.051Z" fill="white"/>
<path d="M757.12 389.169C786.495 375.997 814.063 400.056 809.744 400.682C800.268 402.007 800.337 409.001 782.618 423.063C771.851 431.589 764.392 431.006 753.722 435.782C748.062 438.312 750.376 425.395 754.222 422.147C751.734 420.994 732.256 423.876 733.157 418.213C734.786 408.474 744.035 395.053 757.08 389.187L757.12 389.169Z" fill="white"/>
<path d="M551.408 330.446C577.001 310.918 609.332 328.051 605.27 329.645C596.347 333.098 598.01 339.892 583.967 357.626C575.431 368.384 568.035 369.519 558.736 376.604C553.803 380.359 553.108 367.255 556.112 363.215C553.427 362.66 535.12 369.911 534.705 364.191C534.068 354.338 540.01 339.161 551.372 330.472L551.408 330.446Z" fill="white"/>
<path d="M458.03 85.9398C492.217 81.2633 513.304 114.331 508.673 113.67C498.528 112.172 496.487 119.386 474.018 128.497C460.37 134.014 452.875 131.161 440.459 132.851C433.875 133.744 440.155 121.159 445.091 118.98C442.881 117.043 421.978 114.125 424.615 108.573C429.231 99.0493 442.796 88.0395 457.983 85.9459L458.03 85.9398Z" fill="white"/>
</g>
<defs>
<clipPath id="clip0_482_1050">
<rect width="903" height="575" fill="white"/>
</clipPath>
</defs>
</svg>
