<svg width="303" height="114" viewBox="0 0 303 114" fill="none" xmlns="http://www.w3.org/2000/svg">
<g clip-path="url(#clip0_398_17696)">
<g filter="url(#filter0_d_398_17696)">
<rect x="1.375" y="30" width="300" height="82" fill="#EB7538"/>
<path d="M2.375 34.9565C2.375 31.1145 5.48954 28 9.33152 28H292.418C296.26 28 299.375 31.1145 299.375 34.9565V102.043C299.375 105.885 296.26 109 292.418 109H9.33151C5.48953 109 2.375 105.885 2.375 102.043V34.9565Z" fill="url(#paint0_linear_398_17696)"/>
<rect x="2.29171" y="28.9167" width="298.167" height="80.1666" rx="7.77894" stroke="#EB7538" stroke-width="1.83342"/>
<g filter="url(#filter1_d_398_17696)">
<path d="M237.66 60.5655C237.764 60.8002 237.712 60.9828 237.503 61.1393L234.295 63.3822C234.217 63.4343 234.113 63.4604 234.035 63.4604C233.904 63.4604 233.8 63.3822 233.722 63.2257C232.913 61.6087 231.661 59.8874 230.331 58.6878C230.227 58.5834 230.175 58.4791 230.175 58.3748C230.175 58.2705 230.227 58.1662 230.357 58.0879L233.383 55.9494C233.461 55.8972 233.565 55.845 233.643 55.845C233.748 55.845 233.852 55.8972 233.956 55.9754C235.443 57.1751 236.825 58.9225 237.66 60.5655ZM237.034 70.2151C240.607 68.1026 242.511 64.5558 243.058 60.8524C243.058 60.7742 243.084 60.722 243.11 60.6698V60.4612H238.938C238.677 60.4612 238.52 60.3047 238.52 60.0439V56.5492C238.52 56.2884 238.677 56.1319 238.938 56.1319H247.544C247.805 56.1319 247.961 56.2884 247.961 56.5753C247.909 62.2607 249.213 67.3202 254.064 70.0847C254.22 70.163 254.299 70.2673 254.299 70.3977C254.299 70.4759 254.273 70.5542 254.194 70.6585L251.508 74.1793C251.404 74.3097 251.299 74.3618 251.195 74.3618C251.091 74.3618 251.013 74.3358 250.908 74.2575C248.822 72.5884 246.762 70.163 245.536 67.2942C244.284 70.2151 242.25 72.8492 240.007 74.3097C239.903 74.3618 239.824 74.3879 239.746 74.3879C239.642 74.3879 239.537 74.3358 239.433 74.2054L237.034 71.2062V72.7188C237.842 74.2836 239.068 74.9617 241.259 75.1703C242.406 75.2746 243.762 75.3529 245.301 75.3529C247.831 75.3529 250.856 75.1964 254.22 74.8834C254.559 74.8574 254.716 75.0399 254.612 75.3268L253.36 79.0562C253.282 79.291 253.151 79.3953 252.916 79.4214C250.491 79.6039 247.57 79.7082 245.04 79.7082C243.58 79.7082 242.25 79.6822 241.207 79.5778C238.781 79.3692 236.59 78.8998 235.026 77.1785C234.243 78.0913 233.2 78.978 232.157 79.7865C232.079 79.8647 231.974 79.8908 231.896 79.8908C231.792 79.8908 231.661 79.8126 231.583 79.6822L229.444 76.2135C229.392 76.1353 229.366 76.031 229.366 75.9788C229.366 75.8223 229.444 75.718 229.627 75.6398C230.696 75.1442 231.739 74.4401 232.548 73.7359V69.1198H230.409C230.149 69.1198 229.992 68.9633 229.992 68.7025V65.1295C229.992 64.8687 230.149 64.7122 230.409 64.7122H236.616C236.877 64.7122 237.034 64.8687 237.034 65.1295V70.2151Z" fill="#BF8E1D"/>
</g>
<g filter="url(#filter2_d_398_17696)">
<path d="M211.945 56.0015C211.945 55.7407 212.101 55.5842 212.362 55.5842H216.483C216.743 55.5842 216.9 55.7407 216.9 56.0015V58.4009H225.219C225.48 58.4009 225.637 58.5573 225.637 58.8181V74.6748C225.637 74.9356 225.48 75.0921 225.219 75.0921H216.9V79.7343C216.9 79.9951 216.743 80.1516 216.483 80.1516H212.388C212.127 80.1516 211.971 79.9951 211.971 79.7343V75.0921H203.834C203.573 75.0921 203.417 74.9356 203.417 74.6748V58.8181C203.417 58.5573 203.573 58.4009 203.834 58.4009H211.945V56.0015ZM211.997 62.6519H207.981V64.7122L211.997 64.7383V62.6519ZM216.848 64.7644L221.047 64.7905V62.6519H216.848V64.7644ZM211.997 68.5199L207.981 68.4938V70.8671H211.997V68.5199ZM221.047 68.5721L216.848 68.546V70.8671H221.047V68.5721Z" fill="#BF8E1D"/>
</g>
<g filter="url(#filter3_d_398_17696)">
<path d="M192.75 55.8711C192.854 55.6364 193.037 55.5581 193.271 55.6103L197.262 56.497C197.549 56.5492 197.653 56.7578 197.496 57.0186C197.001 57.9314 196.297 58.8703 195.671 59.6266H197.47C197.731 59.6266 197.888 59.7831 197.888 60.0439V71.6756C197.888 71.9364 197.731 72.0929 197.47 72.0929H189.464V73.1621H198.983C199.244 73.1621 199.4 73.3186 199.4 73.5794V76.5525C199.4 76.8133 199.244 76.9698 198.983 76.9698H189.464V79.7343C189.464 79.9951 189.307 80.1516 189.046 80.1516H185.187C184.926 80.1516 184.769 79.9951 184.769 79.7343V76.9698H175.328C175.068 76.9698 174.911 76.8133 174.911 76.5525V73.5794C174.911 73.3186 175.068 73.1621 175.328 73.1621H184.769V72.0929H176.841C176.58 72.0929 176.424 71.9364 176.424 71.6756V60.0439C176.424 59.7831 176.58 59.6266 176.841 59.6266H178.745C178.249 58.766 177.623 57.8793 176.971 57.0969C176.867 56.9925 176.841 56.9143 176.841 56.8361C176.841 56.7057 176.945 56.6013 177.128 56.5492L180.91 55.7407C181.144 55.6885 181.327 55.7668 181.483 56.0015C182.318 57.2012 183.048 58.453 183.57 59.6266H185.213C184.822 58.7399 184.326 57.7749 183.7 56.9143C183.622 56.8361 183.596 56.7317 183.596 56.6535C183.596 56.5231 183.7 56.4188 183.909 56.3666L187.742 55.6103C188.003 55.5581 188.186 55.6364 188.316 55.8972C188.994 57.1751 189.516 58.4269 189.855 59.6266H190.611C191.498 58.4269 192.176 57.149 192.75 55.8711ZM184.874 67.2159H180.857V68.4417H184.874V67.2159ZM184.874 63.2517H180.857V64.4253H184.874V63.2517ZM193.454 67.2159H189.333V68.4417H193.454V67.2159ZM189.333 64.4253H193.454V63.2517H189.333V64.4253Z" fill="#BF8E1D"/>
</g>
<g filter="url(#filter4_d_398_17696)">
<path d="M169.669 60.4091C169.721 60.4873 169.774 60.5655 169.774 60.6438C169.774 60.8003 169.643 60.9046 169.435 60.9307L165.862 61.3219C165.601 61.3479 165.444 61.2436 165.366 61.0089C165.262 60.722 165.131 60.4091 164.975 60.0961H163.853C163.54 60.5916 163.201 61.0611 162.862 61.4523H170.53C170.791 61.4523 170.947 61.6087 170.947 61.8695V75.4051C170.947 79.0302 170.582 80.1777 165.757 80.0212C165.496 80.0212 165.34 79.9169 165.262 79.7083L164.923 78.8476C164.871 78.8737 164.818 78.8737 164.74 78.8737H154.725C154.465 78.8737 154.308 78.7172 154.308 78.4564V71.1801C154.308 70.9193 154.465 70.7628 154.725 70.7628H164.74C165.001 70.7628 165.157 70.9193 165.157 71.1801V76.0049C166.253 75.9527 166.461 75.6659 166.461 74.9617V70.0587H160.541C160.28 70.0587 160.124 69.9022 160.124 69.6414V61.8695C160.124 61.6087 160.28 61.4523 160.541 61.4523H161.663L159.029 60.0961H157.829C157.907 60.2004 157.985 60.3047 158.038 60.4091C158.194 60.6699 158.064 60.8524 157.751 60.9046L154.439 61.3219C154.178 61.3479 154.021 61.2436 153.943 61.0089L153.604 60.0961H152.769C152.404 60.5916 152.013 61.035 151.622 61.4523H158.872C159.133 61.4523 159.289 61.6087 159.289 61.8695V69.6414C159.289 69.9022 159.133 70.0587 158.872 70.0587H153.161V79.6561C153.161 79.9169 153.004 80.0734 152.743 80.0734H149.092C148.831 80.0734 148.675 79.9169 148.675 79.6561V61.8695C148.675 61.6087 148.831 61.4523 149.092 61.4523H149.327L147.397 60.07C147.267 59.9918 147.214 59.8875 147.214 59.8092C147.214 59.7049 147.293 59.5745 147.449 59.4702C148.727 58.5052 149.953 57.0447 150.527 55.8711C150.657 55.6625 150.787 55.5582 151.048 55.5843L154.882 55.819C155.195 55.8451 155.299 56.0276 155.169 56.3145C155.143 56.3406 155.143 56.3667 155.117 56.4188L155.012 56.6014C154.986 56.6275 154.986 56.6796 154.96 56.7057H159.446C159.707 56.7057 159.863 56.8622 159.863 57.123V58.1662C160.489 57.4099 161.011 56.6014 161.324 55.8711C161.428 55.6364 161.584 55.5321 161.819 55.5582L165.601 55.819C165.888 55.8451 166.018 56.0276 165.888 56.3145C165.888 56.3406 165.862 56.3667 165.835 56.4188L165.757 56.6014C165.731 56.6275 165.731 56.6796 165.705 56.7057H171.547C171.808 56.7057 171.964 56.8622 171.964 57.123V59.6788C171.964 59.9396 171.808 60.0961 171.547 60.0961H169.435L169.669 60.4091ZM161.089 75.4572H158.377V76.4222H161.089V75.4572ZM158.377 73.8924H161.089V72.9796H158.377V73.8924ZM153.004 65.0252H155.299V64.0603H153.004V65.0252ZM155.299 66.5639H153.004V67.5289H155.299V66.5639ZM164.14 65.0252H166.618V64.0603H164.14V65.0252ZM166.618 66.5639H164.14V67.5289H166.618V66.5639Z" fill="#BF8E1D"/>
</g>
<g filter="url(#filter5_d_398_17696)">
<path d="M138.947 79.1345C129.819 79.0302 126.428 74.9878 126.428 70.841C126.428 67.6332 128.463 64.3471 131.488 62.7823C128.541 62.8866 124.838 63.0692 121.786 63.1214C121.473 63.1214 121.291 62.9649 121.291 62.6258L121.212 58.8442C121.212 58.5313 121.369 58.3487 121.682 58.3487C127.185 58.3487 136.521 58.3487 142.285 58.2183C142.598 58.2183 142.781 58.3748 142.781 58.6878V62.4172C142.781 62.7302 142.624 62.9127 142.311 62.9127C141.529 62.9127 140.798 62.991 140.094 63.1214C136.886 63.6169 131.592 66.6422 131.592 70.1369C131.592 72.3798 134.018 74.2054 139.755 74.101C140.068 74.101 140.225 74.2575 140.225 74.4922V74.6226L139.494 78.6911C139.442 79.0041 139.26 79.1345 138.947 79.1345ZM139.051 70.7106C138.738 70.841 138.53 70.7106 138.425 70.4238C137.956 69.0937 137.252 67.7375 136.443 66.6682C136.365 66.5378 136.313 66.4335 136.313 66.3292C136.313 66.1988 136.417 66.0684 136.6 65.9902L138.138 65.3903C138.399 65.286 138.608 65.3121 138.79 65.5468C139.599 66.4857 140.538 68.1026 141.059 69.3806C141.164 69.6674 141.059 69.9022 140.772 70.0065L139.051 70.7106ZM142.65 69.2762C142.337 69.4066 142.129 69.2762 142.024 68.9894C141.555 67.7897 140.72 66.3031 139.99 65.3642C139.912 65.2599 139.86 65.1556 139.86 65.0513C139.86 64.8948 139.964 64.7644 140.173 64.6862L141.633 64.0863C141.894 63.982 142.129 64.0081 142.311 64.2167C143.146 65.1556 144.137 66.7986 144.58 67.9983C144.684 68.2852 144.58 68.5199 144.293 68.6242L142.65 69.2762Z" fill="#BF8E1D"/>
</g>
<g filter="url(#filter6_d_398_17696)">
<path d="M102.197 78.8737C101.91 78.8737 101.753 78.6911 101.753 78.4042V58.114C101.753 57.8271 101.91 57.6445 102.197 57.6445H116.176C116.436 57.6445 116.645 57.8271 116.645 58.114V61.8434C116.645 62.1303 116.436 62.3128 116.176 62.3128H107.1V65.7815H115.106C115.393 65.7815 115.576 65.938 115.576 66.2249V69.8239C115.576 70.1108 115.393 70.2933 115.106 70.2933H107.1V74.2053H116.515C116.775 74.2053 116.984 74.3879 116.984 74.6748V78.4042C116.984 78.6911 116.775 78.8737 116.515 78.8737H102.197Z" fill="#BF8E1D"/>
</g>
<g filter="url(#filter7_d_398_17696)">
<path d="M78.3276 78.8737C78.0408 78.8737 77.8843 78.6911 77.8843 78.4042V58.114C77.8843 57.8271 78.0408 57.6445 78.3276 57.6445H83.022C83.2828 57.6445 83.4393 57.7489 83.5697 57.9575L91.159 70.5802V58.114C91.159 57.8271 91.3155 57.6445 91.6284 57.6445H95.8795C96.1664 57.6445 96.3228 57.8271 96.3228 58.114V78.4042C96.3228 78.6911 96.1664 78.8737 95.8795 78.8737H91.2112C90.9504 78.8737 90.7678 78.7693 90.6635 78.5607L83.0481 65.8858V78.4042C83.0481 78.6911 82.8916 78.8737 82.6048 78.8737H78.3276Z" fill="#BF8E1D"/>
</g>
<g filter="url(#filter8_d_398_17696)">
<path d="M67.498 78.8737C67.2112 78.8737 67.0547 78.6911 67.0547 78.4042V58.114C67.0547 57.8271 67.2112 57.6445 67.498 57.6445H71.9838C72.2707 57.6445 72.4532 57.8271 72.4532 58.114V78.4042C72.4532 78.6911 72.2707 78.8737 71.9838 78.8737H67.498Z" fill="#BF8E1D"/>
</g>
<g filter="url(#filter9_d_398_17696)">
<path d="M48.1626 78.8737C47.8757 78.8737 47.7192 78.6911 47.7192 78.4042V58.114C47.7192 57.8271 47.8757 57.6445 48.1626 57.6445H52.6484C52.9352 57.6445 53.1178 57.8271 53.1178 58.114V73.762H62.4284C62.6892 73.762 62.8717 73.9185 62.8717 74.1793V78.4042C62.8717 78.6911 62.6892 78.8737 62.4284 78.8737H48.1626Z" fill="#BF8E1D"/>
</g>
<g filter="url(#filter10_d_398_17696)">
<path d="M245.536 67.2939C246.762 70.1627 248.822 72.5887 250.908 74.2578C251.012 74.336 251.091 74.3623 251.195 74.3623C251.299 74.3623 251.404 74.3097 251.508 74.1797L254.194 70.6582C254.253 70.5802 254.282 70.5168 254.293 70.457L254.299 70.3975C254.299 70.2673 254.221 70.1631 254.064 70.085C249.214 67.3205 247.909 62.2606 247.961 56.5752C247.961 56.2884 247.805 56.1318 247.544 56.1318V54.2988C248.044 54.2988 248.677 54.457 249.176 54.9785C249.664 55.4891 249.795 56.109 249.795 56.5752V56.5918C249.745 62.0633 251.005 66.2317 254.972 68.4922L254.97 68.4941C255.488 68.7817 256.132 69.391 256.132 70.3975C256.132 70.9814 255.902 71.4371 255.661 71.7588L255.656 71.7646L255.652 71.7705L254.653 73.0781C255.07 73.1411 255.562 73.3232 255.962 73.7803C256.611 74.522 256.522 75.3961 256.348 75.9092L256.35 75.9102L255.099 79.6348L255.1 79.6357C254.991 79.9606 254.782 80.3893 254.357 80.7363C253.93 81.0861 253.465 81.2047 253.119 81.2432L253.087 81.2471L253.054 81.25C250.579 81.4362 247.612 81.542 245.04 81.542C243.576 81.542 242.166 81.5165 241.024 81.4023V81.4014C239.09 81.2336 236.96 80.8881 235.141 79.6768C234.552 80.2181 233.932 80.7267 233.337 81.1895C232.851 81.6102 232.289 81.7246 231.896 81.7246C231.001 81.7244 230.347 81.1708 230.023 80.6436L230.022 80.6445L227.884 77.1758L227.885 77.1748C227.759 76.9729 227.681 76.7786 227.634 76.626C227.6 76.5147 227.56 76.3576 227.542 76.1729L227.533 75.9785L227.538 75.8232C227.564 75.4527 227.685 75.0411 227.972 74.666C228.254 74.2966 228.601 74.093 228.856 73.9775V73.9766C229.502 73.6776 230.146 73.2792 230.715 72.8564V70.9531H230.409C229.911 70.9531 229.298 70.7967 228.807 70.3057C228.315 69.8144 228.159 69.2002 228.159 68.7021V65.1299C228.159 64.6319 228.315 64.0176 228.807 63.5264C229.298 63.0354 229.911 62.879 230.409 62.8789V64.7119C230.149 64.712 229.992 64.8692 229.992 65.1299V68.7021C229.992 68.9303 230.112 69.0787 230.316 69.1123L230.409 69.1201H232.548V73.7363C231.739 74.4404 230.696 75.1442 229.627 75.6396C229.445 75.7178 229.366 75.8222 229.366 75.9785C229.366 76.0307 229.392 76.1356 229.444 76.2139L231.583 79.6826C231.661 79.8126 231.791 79.8904 231.896 79.8906C231.954 79.8906 232.028 79.8762 232.094 79.8359L232.157 79.7861C233.2 78.9778 234.243 78.0913 235.025 77.1787C236.59 78.8999 238.781 79.3695 241.206 79.5781C242.249 79.6824 243.58 79.708 245.04 79.708C247.57 79.708 250.491 79.6034 252.916 79.4209C253.121 79.3981 253.248 79.316 253.328 79.1387L253.359 79.0566L254.611 75.3271C254.716 75.0403 254.56 74.8578 254.221 74.8838C250.856 75.1967 247.831 75.3525 245.301 75.3525V73.5195C245.97 73.5195 246.677 73.507 247.418 73.4844C246.758 72.7614 246.129 71.9709 245.555 71.1211C245.003 71.9659 244.393 72.7635 243.733 73.4873C244.231 73.5054 244.754 73.5195 245.301 73.5195V75.3525C243.762 75.3525 242.406 75.2742 241.259 75.1699C239.068 74.9613 237.843 74.2834 237.034 72.7188V71.2061L239.433 74.2051C239.537 74.3355 239.642 74.3877 239.746 74.3877C239.824 74.3877 239.903 74.3617 240.007 74.3096C242.25 72.8491 244.284 70.2149 245.536 67.2939ZM233.644 54.0117C234.17 54.0118 234.583 54.2024 234.846 54.3643L235.057 54.5088L235.082 54.5283L235.107 54.5488C235.672 55.0045 236.219 55.5257 236.733 56.0859C236.809 55.701 236.988 55.293 237.335 54.9463C237.826 54.4552 238.44 54.2988 238.938 54.2988V56.1318C238.677 56.1319 238.521 56.2883 238.521 56.5488V60.0439C238.521 60.3047 238.677 60.4609 238.938 60.4609H243.11V60.6699C243.084 60.7221 243.059 60.7743 243.059 60.8525C242.511 64.5557 240.607 68.1023 237.034 70.2148V65.1299C237.034 64.8691 236.877 64.7119 236.616 64.7119H230.409V62.8789H231.421C230.814 61.9118 230.076 60.9746 229.316 60.2471L229.104 60.0488L229.068 60.0176L229.035 59.9844C228.75 59.6992 228.389 59.2036 228.346 58.5146L228.341 58.375L228.347 58.2236C228.396 57.5154 228.787 56.9318 229.321 56.5752L232.324 54.4521L232.345 54.4375L232.365 54.4238C232.475 54.351 232.62 54.2658 232.791 54.1924C232.933 54.1316 233.245 54.0117 233.644 54.0117ZM233.644 55.8447C233.565 55.8447 233.461 55.8971 233.383 55.9492L230.357 58.0879C230.227 58.1661 230.175 58.2707 230.175 58.375C230.175 58.4792 230.227 58.5833 230.331 58.6875C231.661 59.8872 232.913 61.6086 233.722 63.2256C233.8 63.3819 233.904 63.4598 234.034 63.46C234.112 63.46 234.217 63.4339 234.295 63.3818L237.503 61.1396C237.712 60.9832 237.764 60.8001 237.659 60.5654C236.825 58.9225 235.443 57.1752 233.956 55.9756C233.852 55.8974 233.748 55.8448 233.644 55.8447ZM247.544 54.2988V56.1318H238.938V54.2988H247.544ZM238.867 66.2363C239.798 65.0742 240.46 63.7302 240.873 62.2949H238.947C238.832 62.4202 238.714 62.5239 238.604 62.6064L238.579 62.624L238.554 62.6416L237.774 63.1855C237.929 63.2753 238.08 63.3864 238.22 63.5264C238.711 64.0176 238.867 64.6319 238.867 65.1299V66.2363Z" fill="#BF8E1D"/>
</g>
<g filter="url(#filter11_d_398_17696)">
<path d="M211.979 79.8271C212.012 80.0316 212.16 80.1512 212.388 80.1514H216.482C216.711 80.1514 216.859 80.0318 216.893 79.8271L216.9 79.7344V75.0918H225.22L225.312 75.085C225.488 75.0562 225.601 74.943 225.63 74.7676L225.637 74.6748V58.8184C225.637 58.5902 225.517 58.4418 225.312 58.4082L225.22 58.4014V56.5674C225.718 56.5674 226.331 56.7239 226.822 57.2148C227.252 57.6445 227.426 58.1683 227.463 58.626L227.47 58.8184V74.6748L227.463 74.8662C227.426 75.324 227.252 75.8474 226.822 76.2773C226.331 76.7685 225.718 76.9257 225.22 76.9258H218.733V79.7344L218.726 79.9258C218.689 80.3835 218.516 80.9071 218.086 81.3369C217.595 81.8281 216.98 81.9854 216.482 81.9854H212.388C211.89 81.9853 211.276 81.828 210.785 81.3369C210.294 80.8457 210.138 80.2323 210.138 79.7344V76.9258H203.834C203.336 76.9258 202.723 76.7685 202.231 76.2773C201.74 75.7861 201.583 75.1728 201.583 74.6748V58.8184C201.583 58.3203 201.74 57.7061 202.231 57.2148C202.723 56.724 203.336 56.5674 203.834 56.5674V58.4014L203.741 58.4082C203.536 58.4417 203.417 58.5901 203.417 58.8184V74.6748C203.417 74.9031 203.536 75.0515 203.741 75.085L203.834 75.0918H211.971V79.7344L211.979 79.8271ZM211.997 68.5195V70.8672H207.98V68.4941L211.997 68.5195ZM221.047 68.5723V70.8672H216.848V68.5459L221.047 68.5723ZM221.047 62.6523V64.79L216.848 64.7646V62.6523H221.047ZM211.997 62.6523V64.7383L207.98 64.7119V62.6523H211.997ZM216.9 56.002C216.9 55.7412 216.743 55.584 216.482 55.584V53.751C216.98 53.751 217.595 53.9072 218.086 54.3984C218.516 54.8282 218.689 55.3519 218.726 55.8096L218.733 56.002V56.5674H225.22V58.4014H216.9V56.002ZM210.111 56.002C210.111 55.504 210.268 54.8896 210.759 54.3984C211.25 53.9072 211.864 53.751 212.362 53.751V55.584L212.27 55.5918C212.065 55.6252 211.944 55.7737 211.944 56.002V58.4014H203.834V56.5674H210.111V56.002ZM216.482 53.751V55.584H212.362V53.751H216.482Z" fill="#BF8E1D"/>
</g>
<g filter="url(#filter12_d_398_17696)">
<path d="M184.776 79.8272C184.81 80.0318 184.958 80.1513 185.187 80.1514H189.047L189.14 80.1445C189.315 80.1157 189.428 80.0025 189.457 79.8272L189.464 79.7344V76.9697H198.983L199.076 76.9629C199.251 76.9341 199.364 76.8207 199.393 76.6455L199.4 76.5527V73.5791C199.4 73.3186 199.244 73.1623 198.983 73.1621H189.464V72.0928H197.471C197.731 72.0927 197.888 71.9364 197.888 71.6758V60.044C197.888 59.7833 197.731 59.6271 197.471 59.627H195.671C196.297 58.8707 197.001 57.9313 197.496 57.0186C197.653 56.7578 197.549 56.5492 197.262 56.4971L193.271 55.6104C193.037 55.5582 192.854 55.6364 192.75 55.8711L192.529 56.3506C192.003 57.4676 191.387 58.5774 190.611 59.627H189.855L189.72 59.1748C189.384 58.114 188.91 57.0157 188.316 55.8975C188.186 55.6367 188.003 55.5582 187.742 55.6104L183.909 56.3662C183.701 56.4184 183.596 56.523 183.596 56.6533C183.596 56.7315 183.622 56.8358 183.7 56.9141C184.326 57.7747 184.822 58.7402 185.213 59.627H183.569C183.048 58.4535 182.318 57.2016 181.483 56.002C181.327 55.7672 181.144 55.6881 180.909 55.7403L177.128 56.5488C176.945 56.601 176.841 56.7056 176.841 56.836C176.841 56.9142 176.867 56.9924 176.972 57.0967C177.624 57.8791 178.25 58.7663 178.745 59.627H176.841C176.58 59.6271 176.424 59.7833 176.424 60.044V71.6758C176.424 71.9364 176.58 72.0927 176.841 72.0928H184.77V73.1621H175.328C175.068 73.1623 174.911 73.3186 174.911 73.5791V76.5527C174.911 76.8133 175.068 76.9696 175.328 76.9697H184.77V79.7344L184.776 79.8272ZM184.874 67.2158V68.4414H180.857V67.2158H184.874ZM193.454 67.2158V68.4414H189.333V67.2158H193.454ZM184.874 63.252V64.4258H180.857V63.252H184.874ZM193.454 63.252V64.4258H189.333V63.252H193.454ZM199.721 71.4473C200.02 71.5455 200.321 71.7115 200.586 71.9766C201.077 72.4677 201.233 73.0812 201.233 73.5791V76.5527L201.226 76.7442C201.189 77.2019 201.016 77.7255 200.586 78.1553C200.095 78.6464 199.481 78.8036 198.983 78.8037H191.297V79.7344L191.289 79.9258C191.252 80.3836 191.079 80.9071 190.649 81.3369C190.158 81.828 189.545 81.9853 189.047 81.9854H185.187C184.689 81.9853 184.075 81.8281 183.584 81.3369C183.093 80.8457 182.936 80.2324 182.936 79.7344V78.8037H175.328C174.83 78.8037 174.217 78.6464 173.726 78.1553C173.234 77.6641 173.078 77.0507 173.078 76.5527V73.5791C173.078 73.0812 173.234 72.4677 173.726 71.9766C173.991 71.7115 174.292 71.5455 174.591 71.4473V60.044C174.591 59.546 174.747 58.9326 175.238 58.4414C175.326 58.354 175.419 58.2792 175.513 58.2119C175.265 57.911 175.073 57.5325 175.021 57.0781L175.008 56.836L175.021 56.5947C175.143 55.4327 176.133 54.9265 176.624 54.7861L176.684 54.7695L176.745 54.7559L180.519 53.9492C180.936 53.8576 181.453 53.8565 181.976 54.0908C182.389 54.2762 182.682 54.5548 182.887 54.8174C183.106 54.6988 183.313 54.6256 183.464 54.5879L183.509 54.5772L183.554 54.5684L187.388 53.8115C187.764 53.737 188.31 53.7126 188.875 53.9854C189.425 54.2507 189.749 54.6798 189.936 55.0381C190.149 55.4412 190.349 55.845 190.536 56.2481C190.726 55.878 190.906 55.502 191.077 55.1201C191.263 54.7052 191.603 54.2528 192.166 53.9815C192.721 53.714 193.269 53.7314 193.669 53.8203L197.659 54.707L197.658 54.708C198.147 54.8125 198.845 55.1251 199.208 55.9072C199.575 56.6985 199.356 57.4411 199.105 57.8926L199.107 57.8936C199.038 58.0221 198.964 58.1498 198.889 58.2774C198.952 58.3275 199.014 58.3818 199.073 58.4414C199.564 58.9326 199.721 59.546 199.721 60.044V71.4473Z" fill="#BF8E1D"/>
</g>
<g filter="url(#filter13_d_398_17696)">
<path d="M153.604 60.0957L153.942 61.0088C154.021 61.2435 154.178 61.3483 154.438 61.3223L157.751 60.9043C158.064 60.852 158.194 60.6698 158.037 60.4092C157.985 60.3048 157.907 60.2 157.829 60.0957H159.028L161.662 61.4521H160.541C160.28 61.4522 160.124 61.6086 160.124 61.8691V69.6416C160.124 69.9022 160.28 70.0586 160.541 70.0586H166.461V74.9619C166.461 75.6659 166.252 75.9527 165.157 76.0049V71.1797C165.157 70.9192 165.001 70.7628 164.74 70.7627H154.726C154.465 70.7627 154.308 70.9191 154.308 71.1797V78.456C154.308 78.7168 154.465 78.874 154.726 78.874H164.74L164.841 78.8701C164.87 78.8668 164.897 78.8607 164.923 78.8476L165.262 79.708C165.34 79.9166 165.496 80.0214 165.757 80.0215C170.28 80.1682 170.884 79.1684 170.941 76.0556L170.947 75.4053V61.8691C170.947 61.6086 170.79 61.4521 170.529 61.4521H162.862C163.201 61.061 163.541 60.5912 163.854 60.0957H164.975C165.131 60.4086 165.262 60.7219 165.366 61.0088C165.444 61.2434 165.601 61.3483 165.861 61.3223L169.435 60.9306C169.643 60.9045 169.773 60.8 169.773 60.6435C169.773 60.5654 169.721 60.4873 169.669 60.4092L169.435 60.0957H171.547C171.808 60.0957 171.964 59.9395 171.964 59.6787V57.123C171.964 56.8948 171.844 56.7464 171.64 56.7129L171.547 56.706V54.8721C172.045 54.8721 172.658 55.0293 173.149 55.5205C173.579 55.9504 173.753 56.4738 173.79 56.9316L173.798 57.123V59.6787L173.79 59.8701C173.753 60.328 173.579 60.8513 173.149 61.2812C173.026 61.4043 172.895 61.506 172.761 61.5898C172.772 61.6859 172.78 61.7792 172.78 61.8691V75.4053L172.775 76.081C172.763 76.7522 172.725 77.4054 172.619 77.999C172.474 78.814 172.173 79.6858 171.481 80.4033C170.789 81.122 169.897 81.4872 168.962 81.6738C168.044 81.8569 166.952 81.8942 165.697 81.8535V81.8525C165.339 81.8447 164.887 81.7655 164.452 81.4873C164.115 81.2714 163.877 80.9926 163.713 80.707H154.744C154.647 80.8988 154.518 81.0868 154.346 81.2588C153.854 81.7499 153.241 81.9072 152.743 81.9072H149.092C148.594 81.9072 147.98 81.7499 147.489 81.2588C146.998 80.7676 146.841 80.1542 146.841 79.6562V61.9267L146.329 61.5605L146.33 61.5586C145.869 61.2383 145.442 60.6943 145.387 59.9697L145.381 59.8096L145.388 59.6328C145.453 58.8344 145.954 58.2935 146.344 58.0078V58.0068C147.424 57.1914 148.448 55.9465 148.879 55.0654L148.921 54.9805L148.972 54.8994C149.093 54.7055 149.345 54.3376 149.795 54.0674C150.267 53.7843 150.754 53.7254 151.159 53.7549L151.16 53.7539L154.994 53.9892L155.014 53.9902L155.034 53.9922C155.42 54.0244 156.167 54.1838 156.662 54.8721H159.445C159.548 54.8721 159.655 54.8808 159.765 54.8955C159.922 54.6181 160.163 54.3099 160.534 54.0723C161.01 53.7679 161.516 53.6955 161.944 53.7295H161.945L165.727 53.9902L165.747 53.9912L165.767 53.9931C166.187 54.0314 166.894 54.2137 167.371 54.8721H171.547V56.706H165.705C165.731 56.68 165.731 56.6277 165.757 56.6015L165.835 56.4189C165.861 56.3668 165.888 56.3405 165.888 56.3144C166.018 56.0276 165.887 55.8454 165.601 55.8193L161.819 55.5586C161.585 55.5325 161.428 55.6364 161.323 55.8711C161.01 56.6012 160.489 57.4098 159.863 58.166V57.123C159.863 56.8622 159.706 56.706 159.445 56.706H154.96C154.986 56.6801 154.986 56.6277 155.012 56.6015L155.116 56.4189C155.142 56.3668 155.143 56.3405 155.169 56.3144C155.299 56.0277 155.195 55.8454 154.882 55.8193L151.048 55.584C150.787 55.5579 150.657 55.6625 150.526 55.8711C149.953 57.0446 148.727 58.5047 147.449 59.4697L147.347 59.5527C147.259 59.6383 147.214 59.7313 147.214 59.8096C147.214 59.8877 147.266 59.9922 147.396 60.0703L149.327 61.4521H149.092C148.831 61.4522 148.675 61.6086 148.675 61.8691V79.6562C148.675 79.9169 148.831 80.0732 149.092 80.0732H152.743L152.836 80.0664C153.041 80.0329 153.16 79.8844 153.16 79.6562V70.0586H158.872C159.133 70.0585 159.289 69.9022 159.289 69.6416V61.8691C159.289 61.6086 159.133 61.4522 158.872 61.4521H151.622C152.013 61.0349 152.404 60.5911 152.77 60.0957H153.604ZM161.089 75.457V76.4219H158.376V75.457H161.089ZM161.089 72.9795V73.8926H158.376V72.9795H161.089ZM155.299 66.5635V67.5293H153.004V66.5635H155.299ZM166.618 66.5635V67.5293H164.14V66.5635H166.618ZM155.299 64.0605V65.0254H153.004V64.0605H155.299ZM166.618 64.0605V65.0254H164.14V64.0605H166.618Z" fill="#BF8E1D"/>
</g>
<g filter="url(#filter14_d_398_17696)">
<path d="M142.78 58.6875C142.78 58.3747 142.598 58.2188 142.285 58.2188C136.521 58.3491 127.185 58.3486 121.682 58.3486C121.369 58.3487 121.213 58.5318 121.213 58.8447L121.291 62.626C121.291 62.9649 121.473 63.1211 121.786 63.1211C124.837 63.0689 128.541 62.8865 131.488 62.7822C128.463 64.347 126.429 67.633 126.429 70.8408L126.438 71.2295C126.639 75.1073 129.884 78.7881 138.107 79.1133L138.947 79.1348C139.26 79.1346 139.442 79.004 139.494 78.6914L140.225 74.623V74.4922C140.225 74.2575 140.068 74.1006 139.755 74.1006C134.197 74.2016 131.747 72.4918 131.6 70.3457L131.593 70.1367C131.593 66.6421 136.887 63.6166 140.095 63.1211C140.799 62.9907 141.529 62.9131 142.312 62.9131C142.624 62.9129 142.78 62.7298 142.78 62.417V58.6875ZM138.79 65.5469C138.608 65.3123 138.399 65.2864 138.139 65.3906L136.6 65.9902C136.417 66.0685 136.313 66.1987 136.312 66.3291C136.312 66.4334 136.365 66.5376 136.443 66.668C137.252 67.7372 137.955 69.0938 138.425 70.4238C138.529 70.7106 138.738 70.841 139.051 70.7109L140.772 70.0068C141.059 69.9026 141.164 69.6676 141.06 69.3809C140.538 68.1029 139.599 66.4858 138.79 65.5469ZM142.312 64.2168C142.129 64.0082 141.894 63.9816 141.633 64.0859L140.173 64.6865C139.964 64.7648 139.859 64.8953 139.859 65.0518C139.86 65.1559 139.912 65.2601 139.99 65.3643C140.72 66.3031 141.555 67.7896 142.024 68.9893C142.129 69.2761 142.337 69.4068 142.65 69.2764L144.293 68.624C144.58 68.5197 144.684 68.2849 144.58 67.998C144.137 66.7985 143.146 65.1556 142.312 64.2168ZM133.433 70.2666C133.469 70.5826 133.659 70.9845 134.401 71.3906C135.053 71.747 136.074 72.0576 137.561 72.1953C137.147 71.9057 136.903 71.5237 136.765 71.207L136.702 71.0508L136.699 71.042L136.696 71.0342C136.333 70.006 135.814 68.9701 135.233 68.124L134.98 67.7744L134.922 67.6953L134.896 67.6533C133.879 68.5808 133.426 69.4631 133.426 70.1367L133.433 70.2666ZM144.614 62.417L144.608 62.5908C144.587 62.9208 144.495 63.3229 144.251 63.707C145.066 64.7956 145.876 66.2167 146.3 67.3623L146.303 67.3721L146.362 67.5576C146.488 68.0085 146.51 68.5722 146.253 69.1387C145.966 69.7707 145.45 70.1406 144.969 70.3271L144.97 70.3281L143.326 70.9805L143.325 70.9795C143.039 71.0945 142.683 71.1743 142.297 71.1533C142.045 71.4115 141.75 71.5883 141.466 71.7012L141.467 71.7031L140.043 72.2842C140.439 72.3276 140.904 72.4701 141.314 72.8291C141.793 73.248 142.004 73.7908 142.049 74.2842L142.059 74.4922V74.7861L142.029 74.9463L141.299 79.0146L141.298 79.0137C141.218 79.4683 140.997 80.0427 140.451 80.4717C139.92 80.889 139.336 80.9677 138.947 80.9678H138.926C134.121 80.9128 130.552 79.8209 128.142 77.9521C125.684 76.0466 124.595 73.4537 124.595 70.8408C124.595 68.7157 125.312 66.6003 126.541 64.8105C124.922 64.8729 123.291 64.9289 121.817 64.9541L121.802 64.9551H121.786C121.347 64.9551 120.694 64.8445 120.15 64.3223C119.663 63.8541 119.498 63.2796 119.464 62.8164L119.457 62.626L119.38 58.8818L119.379 58.8633V58.8447C119.379 58.4059 119.488 57.7704 119.982 57.2354C120.499 56.6755 121.166 56.5157 121.682 56.5156L126.413 56.5137C131.626 56.5076 137.94 56.4831 142.243 56.3857L142.265 56.3848H142.285C142.724 56.3848 143.359 56.4946 143.894 56.9883C144.453 57.5051 144.614 58.172 144.614 58.6875V62.417Z" fill="#BF8E1D"/>
</g>
<g filter="url(#filter15_d_398_17696)">
<path d="M101.761 78.5068C101.79 78.7016 101.905 78.832 102.096 78.8652L102.197 78.874H116.515L116.609 78.8652C116.794 78.8321 116.937 78.7016 116.975 78.5068L116.984 78.4043V74.6748C116.984 74.3879 116.775 74.2051 116.515 74.2051V72.3721C117.644 72.3721 118.68 73.1949 118.805 74.4238L118.817 74.6748V78.4043L118.805 78.6553C118.68 79.8841 117.644 80.707 116.515 80.707H102.197C101.651 80.707 101.009 80.5208 100.519 79.9883C100.049 79.4778 99.9199 78.8677 99.9199 78.4043V58.1143C99.9199 57.6509 100.049 57.0407 100.519 56.5303C101.009 55.9976 101.651 55.8115 102.197 55.8115V57.6445L102.096 57.6533C101.873 57.6921 101.754 57.8632 101.754 58.1143V78.4043L101.761 78.5068ZM115.576 69.8242V66.2246C115.576 65.9379 115.393 65.7812 115.106 65.7812H107.1V62.3125H116.176L116.271 62.3047C116.455 62.2715 116.598 62.1409 116.636 61.9463L116.646 61.8438V58.1143C116.646 57.8632 116.485 57.6921 116.271 57.6533L116.176 57.6445V55.8115C117.305 55.8115 118.341 56.6342 118.466 57.8633L118.479 58.1143V61.8438L118.466 62.0947C118.341 63.3235 117.305 64.1465 116.176 64.1465H116.077C116.287 64.2381 116.496 64.3671 116.69 64.5459C117.223 65.036 117.409 65.6784 117.409 66.2246V69.8242L117.4 70.0293C117.359 70.5144 117.169 71.0387 116.745 71.4629C116.26 71.9476 115.645 72.127 115.106 72.127H108.934V72.3721H116.515V74.2051H107.1V70.293H115.106C115.357 70.293 115.528 70.1537 115.567 69.9268L115.576 69.8242ZM116.176 55.8115V57.6445H102.197V55.8115H116.176Z" fill="#BF8E1D"/>
</g>
<g filter="url(#filter16_d_398_17696)">
<path d="M77.8916 78.5068C77.9207 78.7016 78.0359 78.832 78.2266 78.8652L78.3271 78.874H82.6045L82.7061 78.8652C82.8965 78.8319 83.012 78.7015 83.041 78.5068L83.0479 78.4043V65.8857L90.6631 78.5605C90.7544 78.7432 90.906 78.8464 91.1172 78.8691L91.2109 78.874H95.8789L95.9805 78.8652C96.171 78.832 96.2864 78.7016 96.3154 78.5068L96.3223 78.4043V58.1143C96.3223 57.8274 96.1658 57.6445 95.8789 57.6445V55.8115C96.4251 55.8115 97.0675 55.9976 97.5576 56.5303C97.9684 56.9768 98.1183 57.4995 98.1494 57.9336L98.1562 58.1143V78.4043L98.1494 78.584C98.1184 79.0182 97.9687 79.5415 97.5576 79.9883C97.0675 80.5208 96.4251 80.707 95.8789 80.707H91.2109C90.8374 80.707 90.3962 80.6319 89.9688 80.3877C89.5689 80.1592 89.277 79.8363 89.0801 79.4854L84.8818 72.4971V78.4043L84.875 78.584C84.844 79.0182 84.6942 79.5415 84.2832 79.9883C83.7931 80.5209 83.1507 80.707 82.6045 80.707H78.3271C77.7811 80.7069 77.1394 80.5206 76.6494 79.9883C76.1798 79.4778 76.0508 78.8677 76.0508 78.4043V58.1143C76.0508 57.6509 76.1798 57.0407 76.6494 56.5303C77.1394 55.9978 77.781 55.8116 78.3271 55.8115V57.6445C78.0405 57.6447 77.8838 57.8275 77.8838 58.1143V78.4043L77.8916 78.5068ZM83.0215 55.8115C83.4065 55.8115 83.8506 55.8915 84.2793 56.1455C84.696 56.3924 84.959 56.7214 85.124 56.9854L85.1328 56.999L85.1406 57.0127L89.3252 63.9717V58.1143C89.3252 57.6504 89.4556 57.0212 89.9541 56.502C90.4649 55.9701 91.1137 55.8116 91.6279 55.8115V57.6445C91.3153 57.6447 91.1592 57.8275 91.1592 58.1143V70.5801L83.5693 57.957C83.439 57.7487 83.2821 57.6445 83.0215 57.6445V55.8115ZM95.8789 55.8115V57.6445H91.6279V55.8115H95.8789ZM83.0215 55.8115V57.6445H78.3271V55.8115H83.0215Z" fill="#BF8E1D"/>
</g>
<g filter="url(#filter17_d_398_17696)">
<path d="M67.0625 78.5068C67.0915 78.7013 67.2063 78.8318 67.3965 78.8652L67.498 78.874H71.9844L72.0869 78.8652C72.2814 78.8318 72.412 78.7014 72.4453 78.5068L72.4531 78.4043V58.1143C72.4531 57.8634 72.3138 57.6923 72.0869 57.6533L71.9844 57.6445V55.8115C72.5228 55.8116 73.1383 55.9908 73.623 56.4756C74.0472 56.8999 74.2374 57.4241 74.2783 57.9092L74.2871 58.1143V78.4043L74.2783 78.6094C74.2374 79.0945 74.0472 79.6187 73.623 80.043C73.1383 80.5277 72.5228 80.7069 71.9844 80.707H67.498C66.9518 80.707 66.3094 80.521 65.8193 79.9883C65.3497 79.4778 65.2217 78.8677 65.2217 78.4043V58.1143C65.2217 57.6509 65.3498 57.0407 65.8193 56.5303C66.3095 55.9975 66.9518 55.8116 67.498 55.8115V57.6445C67.2113 57.6446 67.0547 57.8274 67.0547 58.1143V78.4043L67.0625 78.5068ZM71.9844 55.8115V57.6445H67.498V55.8115H71.9844Z" fill="#BF8E1D"/>
</g>
<g filter="url(#filter18_d_398_17696)">
<path d="M47.7266 78.5068C47.7556 78.7013 47.8704 78.8318 48.0605 78.8652L48.1621 78.874H62.4277L62.5225 78.8652C62.7019 78.8318 62.8303 78.7014 62.8633 78.5068L62.8711 78.4043V74.1797C62.8711 73.9189 62.6885 73.7617 62.4277 73.7617V71.9287C62.9191 71.9287 63.5042 72.0795 63.9863 72.5215C64.4249 72.9235 64.6459 73.4462 64.6943 73.96L64.7051 74.1797V78.4043L64.6963 78.6084C64.656 79.0892 64.4704 79.5998 64.0703 80.0166C63.6085 80.4976 62.9999 80.707 62.4277 80.707H48.1621C47.6159 80.707 46.9735 80.521 46.4834 79.9883C46.0138 79.4778 45.8858 78.8677 45.8857 78.4043V58.1143C45.8857 57.6509 46.0139 57.0407 46.4834 56.5303C46.9735 55.9976 47.6159 55.8116 48.1621 55.8115V57.6445C47.8754 57.6446 47.7188 57.8275 47.7188 58.1143V78.4043L47.7266 78.5068ZM53.1172 58.1143C53.1172 57.8634 52.9779 57.6923 52.751 57.6533L52.6484 57.6445V55.8115C53.1868 55.8116 53.8023 55.9908 54.2871 56.4756C54.7113 56.8999 54.9015 57.424 54.9424 57.9092L54.9512 58.1143V71.9287H62.4277V73.7617H53.1172V58.1143ZM52.6484 55.8115V57.6445H48.1621V55.8115H52.6484Z" fill="#BF8E1D"/>
</g>
<path d="M237.66 60.5655C237.764 60.8002 237.712 60.9828 237.503 61.1393L234.295 63.3822C234.217 63.4343 234.113 63.4604 234.035 63.4604C233.904 63.4604 233.8 63.3822 233.722 63.2257C232.913 61.6087 231.661 59.8874 230.331 58.6878C230.227 58.5834 230.175 58.4791 230.175 58.3748C230.175 58.2705 230.227 58.1662 230.357 58.0879L233.383 55.9494C233.461 55.8972 233.565 55.845 233.643 55.845C233.748 55.845 233.852 55.8972 233.956 55.9754C235.443 57.1751 236.825 58.9225 237.66 60.5655ZM237.034 70.2151C240.607 68.1026 242.511 64.5558 243.058 60.8524C243.058 60.7742 243.084 60.722 243.11 60.6698V60.4612H238.938C238.677 60.4612 238.52 60.3047 238.52 60.0439V56.5492C238.52 56.2884 238.677 56.1319 238.938 56.1319H247.544C247.805 56.1319 247.961 56.2884 247.961 56.5753C247.909 62.2607 249.213 67.3202 254.064 70.0847C254.22 70.163 254.299 70.2673 254.299 70.3977C254.299 70.4759 254.273 70.5542 254.194 70.6585L251.508 74.1793C251.404 74.3097 251.299 74.3618 251.195 74.3618C251.091 74.3618 251.013 74.3358 250.908 74.2575C248.822 72.5884 246.762 70.163 245.536 67.2942C244.284 70.2151 242.25 72.8492 240.007 74.3097C239.903 74.3618 239.824 74.3879 239.746 74.3879C239.642 74.3879 239.537 74.3358 239.433 74.2054L237.034 71.2062V72.7188C237.842 74.2836 239.068 74.9617 241.259 75.1703C242.406 75.2746 243.762 75.3529 245.301 75.3529C247.831 75.3529 250.856 75.1964 254.22 74.8834C254.559 74.8574 254.716 75.0399 254.612 75.3268L253.36 79.0562C253.282 79.291 253.151 79.3953 252.916 79.4214C250.491 79.6039 247.57 79.7082 245.04 79.7082C243.58 79.7082 242.25 79.6822 241.207 79.5778C238.781 79.3692 236.59 78.8998 235.026 77.1785C234.243 78.0913 233.2 78.978 232.157 79.7865C232.079 79.8647 231.974 79.8908 231.896 79.8908C231.792 79.8908 231.661 79.8126 231.583 79.6822L229.444 76.2135C229.392 76.1353 229.366 76.031 229.366 75.9788C229.366 75.8223 229.444 75.718 229.627 75.6398C230.696 75.1442 231.739 74.4401 232.548 73.7359V69.1198H230.409C230.149 69.1198 229.992 68.9633 229.992 68.7025V65.1295C229.992 64.8687 230.149 64.7122 230.409 64.7122H236.616C236.877 64.7122 237.034 64.8687 237.034 65.1295V70.2151Z" fill="white"/>
<path d="M211.945 56.0015C211.945 55.7407 212.101 55.5842 212.362 55.5842H216.483C216.743 55.5842 216.9 55.7407 216.9 56.0015V58.4009H225.219C225.48 58.4009 225.637 58.5573 225.637 58.8181V74.6748C225.637 74.9356 225.48 75.0921 225.219 75.0921H216.9V79.7343C216.9 79.9951 216.743 80.1516 216.483 80.1516H212.388C212.127 80.1516 211.971 79.9951 211.971 79.7343V75.0921H203.834C203.573 75.0921 203.417 74.9356 203.417 74.6748V58.8181C203.417 58.5573 203.573 58.4009 203.834 58.4009H211.945V56.0015ZM211.997 62.6519H207.981V64.7122L211.997 64.7383V62.6519ZM216.848 64.7644L221.047 64.7905V62.6519H216.848V64.7644ZM211.997 68.5199L207.981 68.4938V70.8671H211.997V68.5199ZM221.047 68.5721L216.848 68.546V70.8671H221.047V68.5721Z" fill="white"/>
<path d="M192.75 55.8711C192.854 55.6364 193.037 55.5581 193.271 55.6103L197.262 56.497C197.549 56.5492 197.653 56.7578 197.496 57.0186C197.001 57.9314 196.297 58.8703 195.671 59.6266H197.47C197.731 59.6266 197.888 59.7831 197.888 60.0439V71.6756C197.888 71.9364 197.731 72.0929 197.47 72.0929H189.464V73.1621H198.983C199.244 73.1621 199.4 73.3186 199.4 73.5794V76.5525C199.4 76.8133 199.244 76.9698 198.983 76.9698H189.464V79.7343C189.464 79.9951 189.307 80.1516 189.046 80.1516H185.187C184.926 80.1516 184.769 79.9951 184.769 79.7343V76.9698H175.328C175.068 76.9698 174.911 76.8133 174.911 76.5525V73.5794C174.911 73.3186 175.068 73.1621 175.328 73.1621H184.769V72.0929H176.841C176.58 72.0929 176.424 71.9364 176.424 71.6756V60.0439C176.424 59.7831 176.58 59.6266 176.841 59.6266H178.745C178.249 58.766 177.623 57.8793 176.971 57.0969C176.867 56.9925 176.841 56.9143 176.841 56.8361C176.841 56.7057 176.945 56.6013 177.128 56.5492L180.91 55.7407C181.144 55.6885 181.327 55.7668 181.483 56.0015C182.318 57.2012 183.048 58.453 183.57 59.6266H185.213C184.822 58.7399 184.326 57.7749 183.7 56.9143C183.622 56.8361 183.596 56.7317 183.596 56.6535C183.596 56.5231 183.7 56.4188 183.909 56.3666L187.742 55.6103C188.003 55.5581 188.186 55.6364 188.316 55.8972C188.994 57.1751 189.516 58.4269 189.855 59.6266H190.611C191.498 58.4269 192.176 57.149 192.75 55.8711ZM184.874 67.2159H180.857V68.4417H184.874V67.2159ZM184.874 63.2517H180.857V64.4253H184.874V63.2517ZM193.454 67.2159H189.333V68.4417H193.454V67.2159ZM189.333 64.4253H193.454V63.2517H189.333V64.4253Z" fill="white"/>
<path d="M169.669 60.4091C169.721 60.4873 169.774 60.5655 169.774 60.6438C169.774 60.8003 169.643 60.9046 169.435 60.9307L165.862 61.3219C165.601 61.3479 165.444 61.2436 165.366 61.0089C165.262 60.722 165.131 60.4091 164.975 60.0961H163.853C163.54 60.5916 163.201 61.0611 162.862 61.4523H170.53C170.791 61.4523 170.947 61.6087 170.947 61.8695V75.4051C170.947 79.0302 170.582 80.1777 165.757 80.0212C165.496 80.0212 165.34 79.9169 165.262 79.7083L164.923 78.8476C164.871 78.8737 164.818 78.8737 164.74 78.8737H154.725C154.465 78.8737 154.308 78.7172 154.308 78.4564V71.1801C154.308 70.9193 154.465 70.7628 154.725 70.7628H164.74C165.001 70.7628 165.157 70.9193 165.157 71.1801V76.0049C166.253 75.9527 166.461 75.6659 166.461 74.9617V70.0587H160.541C160.28 70.0587 160.124 69.9022 160.124 69.6414V61.8695C160.124 61.6087 160.28 61.4523 160.541 61.4523H161.663L159.029 60.0961H157.829C157.907 60.2004 157.985 60.3047 158.038 60.4091C158.194 60.6699 158.064 60.8524 157.751 60.9046L154.439 61.3219C154.178 61.3479 154.021 61.2436 153.943 61.0089L153.604 60.0961H152.769C152.404 60.5916 152.013 61.035 151.622 61.4523H158.872C159.133 61.4523 159.289 61.6087 159.289 61.8695V69.6414C159.289 69.9022 159.133 70.0587 158.872 70.0587H153.161V79.6561C153.161 79.9169 153.004 80.0734 152.743 80.0734H149.092C148.831 80.0734 148.675 79.9169 148.675 79.6561V61.8695C148.675 61.6087 148.831 61.4523 149.092 61.4523H149.327L147.397 60.07C147.267 59.9918 147.214 59.8875 147.214 59.8092C147.214 59.7049 147.293 59.5745 147.449 59.4702C148.727 58.5052 149.953 57.0447 150.527 55.8711C150.657 55.6625 150.787 55.5582 151.048 55.5843L154.882 55.819C155.195 55.8451 155.299 56.0276 155.169 56.3145C155.143 56.3406 155.143 56.3667 155.117 56.4188L155.012 56.6014C154.986 56.6275 154.986 56.6796 154.96 56.7057H159.446C159.707 56.7057 159.863 56.8622 159.863 57.123V58.1662C160.489 57.4099 161.011 56.6014 161.324 55.8711C161.428 55.6364 161.584 55.5321 161.819 55.5582L165.601 55.819C165.888 55.8451 166.018 56.0276 165.888 56.3145C165.888 56.3406 165.862 56.3667 165.835 56.4188L165.757 56.6014C165.731 56.6275 165.731 56.6796 165.705 56.7057H171.547C171.808 56.7057 171.964 56.8622 171.964 57.123V59.6788C171.964 59.9396 171.808 60.0961 171.547 60.0961H169.435L169.669 60.4091ZM161.089 75.4572H158.377V76.4222H161.089V75.4572ZM158.377 73.8924H161.089V72.9796H158.377V73.8924ZM153.004 65.0252H155.299V64.0603H153.004V65.0252ZM155.299 66.5639H153.004V67.5289H155.299V66.5639ZM164.14 65.0252H166.618V64.0603H164.14V65.0252ZM166.618 66.5639H164.14V67.5289H166.618V66.5639Z" fill="white"/>
<path d="M138.947 79.1345C129.819 79.0302 126.428 74.9878 126.428 70.841C126.428 67.6332 128.463 64.3471 131.488 62.7823C128.541 62.8866 124.838 63.0692 121.786 63.1214C121.473 63.1214 121.291 62.9649 121.291 62.6258L121.212 58.8442C121.212 58.5313 121.369 58.3487 121.682 58.3487C127.185 58.3487 136.521 58.3487 142.285 58.2183C142.598 58.2183 142.781 58.3748 142.781 58.6878V62.4172C142.781 62.7302 142.624 62.9127 142.311 62.9127C141.529 62.9127 140.798 62.991 140.094 63.1214C136.886 63.6169 131.592 66.6422 131.592 70.1369C131.592 72.3798 134.018 74.2054 139.755 74.101C140.068 74.101 140.225 74.2575 140.225 74.4922V74.6226L139.494 78.6911C139.442 79.0041 139.26 79.1345 138.947 79.1345ZM139.051 70.7106C138.738 70.841 138.53 70.7106 138.425 70.4238C137.956 69.0937 137.252 67.7375 136.443 66.6682C136.365 66.5378 136.313 66.4335 136.313 66.3292C136.313 66.1988 136.417 66.0684 136.6 65.9902L138.138 65.3903C138.399 65.286 138.608 65.3121 138.79 65.5468C139.599 66.4857 140.538 68.1026 141.059 69.3806C141.164 69.6674 141.059 69.9022 140.772 70.0065L139.051 70.7106ZM142.65 69.2762C142.337 69.4066 142.129 69.2762 142.024 68.9894C141.555 67.7897 140.72 66.3031 139.99 65.3642C139.912 65.2599 139.86 65.1556 139.86 65.0513C139.86 64.8948 139.964 64.7644 140.173 64.6862L141.633 64.0863C141.894 63.982 142.129 64.0081 142.311 64.2167C143.146 65.1556 144.137 66.7986 144.58 67.9983C144.684 68.2852 144.58 68.5199 144.293 68.6242L142.65 69.2762Z" fill="white"/>
<path d="M102.197 78.8737C101.91 78.8737 101.753 78.6911 101.753 78.4042V58.114C101.753 57.8271 101.91 57.6445 102.197 57.6445H116.176C116.436 57.6445 116.645 57.8271 116.645 58.114V61.8434C116.645 62.1303 116.436 62.3128 116.176 62.3128H107.1V65.7815H115.106C115.393 65.7815 115.576 65.938 115.576 66.2249V69.8239C115.576 70.1108 115.393 70.2933 115.106 70.2933H107.1V74.2053H116.515C116.775 74.2053 116.984 74.3879 116.984 74.6748V78.4042C116.984 78.6911 116.775 78.8737 116.515 78.8737H102.197Z" fill="white"/>
<path d="M78.3276 78.8737C78.0408 78.8737 77.8843 78.6911 77.8843 78.4042V58.114C77.8843 57.8271 78.0408 57.6445 78.3276 57.6445H83.022C83.2828 57.6445 83.4393 57.7489 83.5697 57.9575L91.159 70.5802V58.114C91.159 57.8271 91.3155 57.6445 91.6284 57.6445H95.8795C96.1664 57.6445 96.3228 57.8271 96.3228 58.114V78.4042C96.3228 78.6911 96.1664 78.8737 95.8795 78.8737H91.2112C90.9504 78.8737 90.7678 78.7693 90.6635 78.5607L83.0481 65.8858V78.4042C83.0481 78.6911 82.8916 78.8737 82.6048 78.8737H78.3276Z" fill="white"/>
<path d="M67.498 78.8737C67.2112 78.8737 67.0547 78.6911 67.0547 78.4042V58.114C67.0547 57.8271 67.2112 57.6445 67.498 57.6445H71.9838C72.2707 57.6445 72.4532 57.8271 72.4532 58.114V78.4042C72.4532 78.6911 72.2707 78.8737 71.9838 78.8737H67.498Z" fill="white"/>
<path d="M48.1626 78.8737C47.8757 78.8737 47.7192 78.6911 47.7192 78.4042V58.114C47.7192 57.8271 47.8757 57.6445 48.1626 57.6445H52.6484C52.9352 57.6445 53.1178 57.8271 53.1178 58.114V73.762H62.4284C62.6892 73.762 62.8717 73.9185 62.8717 74.1793V78.4042C62.8717 78.6911 62.6892 78.8737 62.4284 78.8737H48.1626Z" fill="white"/>
<path d="M245.536 67.2939C246.762 70.1627 248.822 72.5887 250.908 74.2578C251.012 74.336 251.091 74.3623 251.195 74.3623C251.299 74.3623 251.404 74.3097 251.508 74.1797L254.194 70.6582C254.253 70.5802 254.282 70.5168 254.293 70.457L254.299 70.3975C254.299 70.2673 254.221 70.1631 254.064 70.085C249.214 67.3205 247.909 62.2606 247.961 56.5752C247.961 56.2884 247.805 56.1318 247.544 56.1318V54.2988C248.044 54.2988 248.677 54.457 249.176 54.9785C249.664 55.4891 249.795 56.109 249.795 56.5752V56.5918C249.745 62.0633 251.005 66.2317 254.972 68.4922L254.97 68.4941C255.488 68.7817 256.132 69.391 256.132 70.3975C256.132 70.9814 255.902 71.4371 255.661 71.7588L255.656 71.7646L255.652 71.7705L254.653 73.0781C255.07 73.1411 255.562 73.3232 255.962 73.7803C256.611 74.522 256.522 75.3961 256.348 75.9092L256.35 75.9102L255.099 79.6348L255.1 79.6357C254.991 79.9606 254.782 80.3893 254.357 80.7363C253.93 81.0861 253.465 81.2047 253.119 81.2432L253.087 81.2471L253.054 81.25C250.579 81.4362 247.612 81.542 245.04 81.542C243.576 81.542 242.166 81.5165 241.024 81.4023V81.4014C239.09 81.2336 236.96 80.8881 235.141 79.6768C234.552 80.2181 233.932 80.7267 233.337 81.1895C232.851 81.6102 232.289 81.7246 231.896 81.7246C231.001 81.7244 230.347 81.1708 230.023 80.6436L230.022 80.6445L227.884 77.1758L227.885 77.1748C227.759 76.9729 227.681 76.7786 227.634 76.626C227.6 76.5147 227.56 76.3576 227.542 76.1729L227.533 75.9785L227.538 75.8232C227.564 75.4527 227.685 75.0411 227.972 74.666C228.254 74.2966 228.601 74.093 228.856 73.9775V73.9766C229.502 73.6776 230.146 73.2792 230.715 72.8564V70.9531H230.409C229.911 70.9531 229.298 70.7967 228.807 70.3057C228.315 69.8144 228.159 69.2002 228.159 68.7021V65.1299C228.159 64.6319 228.315 64.0176 228.807 63.5264C229.298 63.0354 229.911 62.879 230.409 62.8789V64.7119C230.149 64.712 229.992 64.8692 229.992 65.1299V68.7021C229.992 68.9303 230.112 69.0787 230.316 69.1123L230.409 69.1201H232.548V73.7363C231.739 74.4404 230.696 75.1442 229.627 75.6396C229.445 75.7178 229.366 75.8222 229.366 75.9785C229.366 76.0307 229.392 76.1356 229.444 76.2139L231.583 79.6826C231.661 79.8126 231.791 79.8904 231.896 79.8906C231.954 79.8906 232.028 79.8762 232.094 79.8359L232.157 79.7861C233.2 78.9778 234.243 78.0913 235.025 77.1787C236.59 78.8999 238.781 79.3695 241.206 79.5781C242.249 79.6824 243.58 79.708 245.04 79.708C247.57 79.708 250.491 79.6034 252.916 79.4209C253.121 79.3981 253.248 79.316 253.328 79.1387L253.359 79.0566L254.611 75.3271C254.716 75.0403 254.56 74.8578 254.221 74.8838C250.856 75.1967 247.831 75.3525 245.301 75.3525V73.5195C245.97 73.5195 246.677 73.507 247.418 73.4844C246.758 72.7614 246.129 71.9709 245.555 71.1211C245.003 71.9659 244.393 72.7635 243.733 73.4873C244.231 73.5054 244.754 73.5195 245.301 73.5195V75.3525C243.762 75.3525 242.406 75.2742 241.259 75.1699C239.068 74.9613 237.843 74.2834 237.034 72.7188V71.2061L239.433 74.2051C239.537 74.3355 239.642 74.3877 239.746 74.3877C239.824 74.3877 239.903 74.3617 240.007 74.3096C242.25 72.8491 244.284 70.2149 245.536 67.2939ZM233.644 54.0117C234.17 54.0118 234.583 54.2024 234.846 54.3643L235.057 54.5088L235.082 54.5283L235.107 54.5488C235.672 55.0045 236.219 55.5257 236.733 56.0859C236.809 55.701 236.988 55.293 237.335 54.9463C237.826 54.4552 238.44 54.2988 238.938 54.2988V56.1318C238.677 56.1319 238.521 56.2883 238.521 56.5488V60.0439C238.521 60.3047 238.677 60.4609 238.938 60.4609H243.11V60.6699C243.084 60.7221 243.059 60.7743 243.059 60.8525C242.511 64.5557 240.607 68.1023 237.034 70.2148V65.1299C237.034 64.8691 236.877 64.7119 236.616 64.7119H230.409V62.8789H231.421C230.814 61.9118 230.076 60.9746 229.316 60.2471L229.104 60.0488L229.068 60.0176L229.035 59.9844C228.75 59.6992 228.389 59.2036 228.346 58.5146L228.341 58.375L228.347 58.2236C228.396 57.5154 228.787 56.9318 229.321 56.5752L232.324 54.4521L232.345 54.4375L232.365 54.4238C232.475 54.351 232.62 54.2658 232.791 54.1924C232.933 54.1316 233.245 54.0117 233.644 54.0117ZM233.644 55.8447C233.565 55.8447 233.461 55.8971 233.383 55.9492L230.357 58.0879C230.227 58.1661 230.175 58.2707 230.175 58.375C230.175 58.4792 230.227 58.5833 230.331 58.6875C231.661 59.8872 232.913 61.6086 233.722 63.2256C233.8 63.3819 233.904 63.4598 234.034 63.46C234.112 63.46 234.217 63.4339 234.295 63.3818L237.503 61.1396C237.712 60.9832 237.764 60.8001 237.659 60.5654C236.825 58.9225 235.443 57.1752 233.956 55.9756C233.852 55.8974 233.748 55.8448 233.644 55.8447ZM247.544 54.2988V56.1318H238.938V54.2988H247.544ZM238.867 66.2363C239.798 65.0742 240.46 63.7302 240.873 62.2949H238.947C238.832 62.4202 238.714 62.5239 238.604 62.6064L238.579 62.624L238.554 62.6416L237.774 63.1855C237.929 63.2753 238.08 63.3864 238.22 63.5264C238.711 64.0176 238.867 64.6319 238.867 65.1299V66.2363Z" fill="#EE7F16"/>
<path d="M211.979 79.8271C212.012 80.0316 212.16 80.1512 212.388 80.1514H216.482C216.711 80.1514 216.859 80.0318 216.893 79.8271L216.9 79.7344V75.0918H225.22L225.312 75.085C225.488 75.0562 225.601 74.943 225.63 74.7676L225.637 74.6748V58.8184C225.637 58.5902 225.517 58.4418 225.312 58.4082L225.22 58.4014V56.5674C225.718 56.5674 226.331 56.7239 226.822 57.2148C227.252 57.6445 227.426 58.1683 227.463 58.626L227.47 58.8184V74.6748L227.463 74.8662C227.426 75.324 227.252 75.8474 226.822 76.2773C226.331 76.7685 225.718 76.9257 225.22 76.9258H218.733V79.7344L218.726 79.9258C218.689 80.3835 218.516 80.9071 218.086 81.3369C217.595 81.8281 216.98 81.9854 216.482 81.9854H212.388C211.89 81.9853 211.276 81.828 210.785 81.3369C210.294 80.8457 210.138 80.2323 210.138 79.7344V76.9258H203.834C203.336 76.9258 202.723 76.7685 202.231 76.2773C201.74 75.7861 201.583 75.1728 201.583 74.6748V58.8184C201.583 58.3203 201.74 57.7061 202.231 57.2148C202.723 56.724 203.336 56.5674 203.834 56.5674V58.4014L203.741 58.4082C203.536 58.4417 203.417 58.5901 203.417 58.8184V74.6748C203.417 74.9031 203.536 75.0515 203.741 75.085L203.834 75.0918H211.971V79.7344L211.979 79.8271ZM211.997 68.5195V70.8672H207.98V68.4941L211.997 68.5195ZM221.047 68.5723V70.8672H216.848V68.5459L221.047 68.5723ZM221.047 62.6523V64.79L216.848 64.7646V62.6523H221.047ZM211.997 62.6523V64.7383L207.98 64.7119V62.6523H211.997ZM216.9 56.002C216.9 55.7412 216.743 55.584 216.482 55.584V53.751C216.98 53.751 217.595 53.9072 218.086 54.3984C218.516 54.8282 218.689 55.3519 218.726 55.8096L218.733 56.002V56.5674H225.22V58.4014H216.9V56.002ZM210.111 56.002C210.111 55.504 210.268 54.8896 210.759 54.3984C211.25 53.9072 211.864 53.751 212.362 53.751V55.584L212.27 55.5918C212.065 55.6252 211.944 55.7737 211.944 56.002V58.4014H203.834V56.5674H210.111V56.002ZM216.482 53.751V55.584H212.362V53.751H216.482Z" fill="#EE7F16"/>
<path d="M184.776 79.8272C184.81 80.0318 184.958 80.1513 185.187 80.1514H189.047L189.14 80.1445C189.315 80.1157 189.428 80.0025 189.457 79.8272L189.464 79.7344V76.9697H198.983L199.076 76.9629C199.251 76.9341 199.364 76.8207 199.393 76.6455L199.4 76.5527V73.5791C199.4 73.3186 199.244 73.1623 198.983 73.1621H189.464V72.0928H197.471C197.731 72.0927 197.888 71.9364 197.888 71.6758V60.044C197.888 59.7833 197.731 59.6271 197.471 59.627H195.671C196.297 58.8707 197.001 57.9313 197.496 57.0186C197.653 56.7578 197.549 56.5492 197.262 56.4971L193.271 55.6104C193.037 55.5582 192.854 55.6364 192.75 55.8711L192.529 56.3506C192.003 57.4676 191.387 58.5774 190.611 59.627H189.855L189.72 59.1748C189.384 58.114 188.91 57.0157 188.316 55.8975C188.186 55.6367 188.003 55.5582 187.742 55.6104L183.909 56.3662C183.701 56.4184 183.596 56.523 183.596 56.6533C183.596 56.7315 183.622 56.8358 183.7 56.9141C184.326 57.7747 184.822 58.7402 185.213 59.627H183.569C183.048 58.4535 182.318 57.2016 181.483 56.002C181.327 55.7672 181.144 55.6881 180.909 55.7403L177.128 56.5488C176.945 56.601 176.841 56.7056 176.841 56.836C176.841 56.9142 176.867 56.9924 176.972 57.0967C177.624 57.8791 178.25 58.7663 178.745 59.627H176.841C176.58 59.6271 176.424 59.7833 176.424 60.044V71.6758C176.424 71.9364 176.58 72.0927 176.841 72.0928H184.77V73.1621H175.328C175.068 73.1623 174.911 73.3186 174.911 73.5791V76.5527C174.911 76.8133 175.068 76.9696 175.328 76.9697H184.77V79.7344L184.776 79.8272ZM184.874 67.2158V68.4414H180.857V67.2158H184.874ZM193.454 67.2158V68.4414H189.333V67.2158H193.454ZM184.874 63.252V64.4258H180.857V63.252H184.874ZM193.454 63.252V64.4258H189.333V63.252H193.454ZM199.721 71.4473C200.02 71.5455 200.321 71.7115 200.586 71.9766C201.077 72.4677 201.233 73.0812 201.233 73.5791V76.5527L201.226 76.7442C201.189 77.2019 201.016 77.7255 200.586 78.1553C200.095 78.6464 199.481 78.8036 198.983 78.8037H191.297V79.7344L191.289 79.9258C191.252 80.3836 191.079 80.9071 190.649 81.3369C190.158 81.828 189.545 81.9853 189.047 81.9854H185.187C184.689 81.9853 184.075 81.8281 183.584 81.3369C183.093 80.8457 182.936 80.2324 182.936 79.7344V78.8037H175.328C174.83 78.8037 174.217 78.6464 173.726 78.1553C173.234 77.6641 173.078 77.0507 173.078 76.5527V73.5791C173.078 73.0812 173.234 72.4677 173.726 71.9766C173.991 71.7115 174.292 71.5455 174.591 71.4473V60.044C174.591 59.546 174.747 58.9326 175.238 58.4414C175.326 58.354 175.419 58.2792 175.513 58.2119C175.265 57.911 175.073 57.5325 175.021 57.0781L175.008 56.836L175.021 56.5947C175.143 55.4327 176.133 54.9265 176.624 54.7861L176.684 54.7695L176.745 54.7559L180.519 53.9492C180.936 53.8576 181.453 53.8565 181.976 54.0908C182.389 54.2762 182.682 54.5548 182.887 54.8174C183.106 54.6988 183.313 54.6256 183.464 54.5879L183.509 54.5772L183.554 54.5684L187.388 53.8115C187.764 53.737 188.31 53.7126 188.875 53.9854C189.425 54.2507 189.749 54.6798 189.936 55.0381C190.149 55.4412 190.349 55.845 190.536 56.2481C190.726 55.878 190.906 55.502 191.077 55.1201C191.263 54.7052 191.603 54.2528 192.166 53.9815C192.721 53.714 193.269 53.7314 193.669 53.8203L197.659 54.707L197.658 54.708C198.147 54.8125 198.845 55.1251 199.208 55.9072C199.575 56.6985 199.356 57.4411 199.105 57.8926L199.107 57.8936C199.038 58.0221 198.964 58.1498 198.889 58.2774C198.952 58.3275 199.014 58.3818 199.073 58.4414C199.564 58.9326 199.721 59.546 199.721 60.044V71.4473Z" fill="#EE7F16"/>
<path d="M153.604 60.0957L153.942 61.0088C154.021 61.2435 154.178 61.3483 154.438 61.3223L157.751 60.9043C158.064 60.852 158.194 60.6698 158.037 60.4092C157.985 60.3048 157.907 60.2 157.829 60.0957H159.028L161.662 61.4521H160.541C160.28 61.4522 160.124 61.6086 160.124 61.8691V69.6416C160.124 69.9022 160.28 70.0586 160.541 70.0586H166.461V74.9619C166.461 75.6659 166.252 75.9527 165.157 76.0049V71.1797C165.157 70.9192 165.001 70.7628 164.74 70.7627H154.726C154.465 70.7627 154.308 70.9191 154.308 71.1797V78.456C154.308 78.7168 154.465 78.874 154.726 78.874H164.74L164.841 78.8701C164.87 78.8668 164.897 78.8607 164.923 78.8476L165.262 79.708C165.34 79.9166 165.496 80.0214 165.757 80.0215C170.28 80.1682 170.884 79.1684 170.941 76.0556L170.947 75.4053V61.8691C170.947 61.6086 170.79 61.4521 170.529 61.4521H162.862C163.201 61.061 163.541 60.5912 163.854 60.0957H164.975C165.131 60.4086 165.262 60.7219 165.366 61.0088C165.444 61.2434 165.601 61.3483 165.861 61.3223L169.435 60.9306C169.643 60.9045 169.773 60.8 169.773 60.6435C169.773 60.5654 169.721 60.4873 169.669 60.4092L169.435 60.0957H171.547C171.808 60.0957 171.964 59.9395 171.964 59.6787V57.123C171.964 56.8948 171.844 56.7464 171.64 56.7129L171.547 56.706V54.8721C172.045 54.8721 172.658 55.0293 173.149 55.5205C173.579 55.9504 173.753 56.4738 173.79 56.9316L173.798 57.123V59.6787L173.79 59.8701C173.753 60.328 173.579 60.8513 173.149 61.2812C173.026 61.4043 172.895 61.506 172.761 61.5898C172.772 61.6859 172.78 61.7792 172.78 61.8691V75.4053L172.775 76.081C172.763 76.7522 172.725 77.4054 172.619 77.999C172.474 78.814 172.173 79.6858 171.481 80.4033C170.789 81.122 169.897 81.4872 168.962 81.6738C168.044 81.8569 166.952 81.8942 165.697 81.8535V81.8525C165.339 81.8447 164.887 81.7655 164.452 81.4873C164.115 81.2714 163.877 80.9926 163.713 80.707H154.744C154.647 80.8988 154.518 81.0868 154.346 81.2588C153.854 81.7499 153.241 81.9072 152.743 81.9072H149.092C148.594 81.9072 147.98 81.7499 147.489 81.2588C146.998 80.7676 146.841 80.1542 146.841 79.6562V61.9267L146.329 61.5605L146.33 61.5586C145.869 61.2383 145.442 60.6943 145.387 59.9697L145.381 59.8096L145.388 59.6328C145.453 58.8344 145.954 58.2935 146.344 58.0078V58.0068C147.424 57.1914 148.448 55.9465 148.879 55.0654L148.921 54.9805L148.972 54.8994C149.093 54.7055 149.345 54.3376 149.795 54.0674C150.267 53.7843 150.754 53.7254 151.159 53.7549L151.16 53.7539L154.994 53.9892L155.014 53.9902L155.034 53.9922C155.42 54.0244 156.167 54.1838 156.662 54.8721H159.445C159.548 54.8721 159.655 54.8808 159.765 54.8955C159.922 54.6181 160.163 54.3099 160.534 54.0723C161.01 53.7679 161.516 53.6955 161.944 53.7295H161.945L165.727 53.9902L165.747 53.9912L165.767 53.9931C166.187 54.0314 166.894 54.2137 167.371 54.8721H171.547V56.706H165.705C165.731 56.68 165.731 56.6277 165.757 56.6015L165.835 56.4189C165.861 56.3668 165.888 56.3405 165.888 56.3144C166.018 56.0276 165.887 55.8454 165.601 55.8193L161.819 55.5586C161.585 55.5325 161.428 55.6364 161.323 55.8711C161.01 56.6012 160.489 57.4098 159.863 58.166V57.123C159.863 56.8622 159.706 56.706 159.445 56.706H154.96C154.986 56.6801 154.986 56.6277 155.012 56.6015L155.116 56.4189C155.142 56.3668 155.143 56.3405 155.169 56.3144C155.299 56.0277 155.195 55.8454 154.882 55.8193L151.048 55.584C150.787 55.5579 150.657 55.6625 150.526 55.8711C149.953 57.0446 148.727 58.5047 147.449 59.4697L147.347 59.5527C147.259 59.6383 147.214 59.7313 147.214 59.8096C147.214 59.8877 147.266 59.9922 147.396 60.0703L149.327 61.4521H149.092C148.831 61.4522 148.675 61.6086 148.675 61.8691V79.6562C148.675 79.9169 148.831 80.0732 149.092 80.0732H152.743L152.836 80.0664C153.041 80.0329 153.16 79.8844 153.16 79.6562V70.0586H158.872C159.133 70.0585 159.289 69.9022 159.289 69.6416V61.8691C159.289 61.6086 159.133 61.4522 158.872 61.4521H151.622C152.013 61.0349 152.404 60.5911 152.77 60.0957H153.604ZM161.089 75.457V76.4219H158.376V75.457H161.089ZM161.089 72.9795V73.8926H158.376V72.9795H161.089ZM155.299 66.5635V67.5293H153.004V66.5635H155.299ZM166.618 66.5635V67.5293H164.14V66.5635H166.618ZM155.299 64.0605V65.0254H153.004V64.0605H155.299ZM166.618 64.0605V65.0254H164.14V64.0605H166.618Z" fill="#EE7F16"/>
<path d="M142.78 58.6875C142.78 58.3747 142.598 58.2188 142.285 58.2188C136.521 58.3491 127.185 58.3486 121.682 58.3486C121.369 58.3487 121.213 58.5318 121.213 58.8447L121.291 62.626C121.291 62.9649 121.473 63.1211 121.786 63.1211C124.837 63.0689 128.541 62.8865 131.488 62.7822C128.463 64.347 126.429 67.633 126.429 70.8408L126.438 71.2295C126.639 75.1073 129.884 78.7881 138.107 79.1133L138.947 79.1348C139.26 79.1346 139.442 79.004 139.494 78.6914L140.225 74.623V74.4922C140.225 74.2575 140.068 74.1006 139.755 74.1006C134.197 74.2016 131.747 72.4918 131.6 70.3457L131.593 70.1367C131.593 66.6421 136.887 63.6166 140.095 63.1211C140.799 62.9907 141.529 62.9131 142.312 62.9131C142.624 62.9129 142.78 62.7298 142.78 62.417V58.6875ZM138.79 65.5469C138.608 65.3123 138.399 65.2864 138.139 65.3906L136.6 65.9902C136.417 66.0685 136.313 66.1987 136.312 66.3291C136.312 66.4334 136.365 66.5376 136.443 66.668C137.252 67.7372 137.955 69.0938 138.425 70.4238C138.529 70.7106 138.738 70.841 139.051 70.7109L140.772 70.0068C141.059 69.9026 141.164 69.6676 141.06 69.3809C140.538 68.1029 139.599 66.4858 138.79 65.5469ZM142.312 64.2168C142.129 64.0082 141.894 63.9816 141.633 64.0859L140.173 64.6865C139.964 64.7648 139.859 64.8953 139.859 65.0518C139.86 65.1559 139.912 65.2601 139.99 65.3643C140.72 66.3031 141.555 67.7896 142.024 68.9893C142.129 69.2761 142.337 69.4068 142.65 69.2764L144.293 68.624C144.58 68.5197 144.684 68.2849 144.58 67.998C144.137 66.7985 143.146 65.1556 142.312 64.2168ZM133.433 70.2666C133.469 70.5826 133.659 70.9845 134.401 71.3906C135.053 71.747 136.074 72.0576 137.561 72.1953C137.147 71.9057 136.903 71.5237 136.765 71.207L136.702 71.0508L136.699 71.042L136.696 71.0342C136.333 70.006 135.814 68.9701 135.233 68.124L134.98 67.7744L134.922 67.6953L134.896 67.6533C133.879 68.5808 133.426 69.4631 133.426 70.1367L133.433 70.2666ZM144.614 62.417L144.608 62.5908C144.587 62.9208 144.495 63.3229 144.251 63.707C145.066 64.7956 145.876 66.2167 146.3 67.3623L146.303 67.3721L146.362 67.5576C146.488 68.0085 146.51 68.5722 146.253 69.1387C145.966 69.7707 145.45 70.1406 144.969 70.3271L144.97 70.3281L143.326 70.9805L143.325 70.9795C143.039 71.0945 142.683 71.1743 142.297 71.1533C142.045 71.4115 141.75 71.5883 141.466 71.7012L141.467 71.7031L140.043 72.2842C140.439 72.3276 140.904 72.4701 141.314 72.8291C141.793 73.248 142.004 73.7908 142.049 74.2842L142.059 74.4922V74.7861L142.029 74.9463L141.299 79.0146L141.298 79.0137C141.218 79.4683 140.997 80.0427 140.451 80.4717C139.92 80.889 139.336 80.9677 138.947 80.9678H138.926C134.121 80.9128 130.552 79.8209 128.142 77.9521C125.684 76.0466 124.595 73.4537 124.595 70.8408C124.595 68.7157 125.312 66.6003 126.541 64.8105C124.922 64.8729 123.291 64.9289 121.817 64.9541L121.802 64.9551H121.786C121.347 64.9551 120.694 64.8445 120.15 64.3223C119.663 63.8541 119.498 63.2796 119.464 62.8164L119.457 62.626L119.38 58.8818L119.379 58.8633V58.8447C119.379 58.4059 119.488 57.7704 119.982 57.2354C120.499 56.6755 121.166 56.5157 121.682 56.5156L126.413 56.5137C131.626 56.5076 137.94 56.4831 142.243 56.3857L142.265 56.3848H142.285C142.724 56.3848 143.359 56.4946 143.894 56.9883C144.453 57.5051 144.614 58.172 144.614 58.6875V62.417Z" fill="#EE7F16"/>
<path d="M101.761 78.5068C101.79 78.7016 101.905 78.832 102.096 78.8652L102.197 78.874H116.515L116.609 78.8652C116.794 78.8321 116.937 78.7016 116.975 78.5068L116.984 78.4043V74.6748C116.984 74.3879 116.775 74.2051 116.515 74.2051V72.3721C117.644 72.3721 118.68 73.1949 118.805 74.4238L118.817 74.6748V78.4043L118.805 78.6553C118.68 79.8841 117.644 80.707 116.515 80.707H102.197C101.651 80.707 101.009 80.5208 100.519 79.9883C100.049 79.4778 99.9199 78.8677 99.9199 78.4043V58.1143C99.9199 57.6509 100.049 57.0407 100.519 56.5303C101.009 55.9976 101.651 55.8115 102.197 55.8115V57.6445L102.096 57.6533C101.873 57.6921 101.754 57.8632 101.754 58.1143V78.4043L101.761 78.5068ZM115.576 69.8242V66.2246C115.576 65.9379 115.393 65.7812 115.106 65.7812H107.1V62.3125H116.176L116.271 62.3047C116.455 62.2715 116.598 62.1409 116.636 61.9463L116.646 61.8438V58.1143C116.646 57.8632 116.485 57.6921 116.271 57.6533L116.176 57.6445V55.8115C117.305 55.8115 118.341 56.6342 118.466 57.8633L118.479 58.1143V61.8438L118.466 62.0947C118.341 63.3235 117.305 64.1465 116.176 64.1465H116.077C116.287 64.2381 116.496 64.3671 116.69 64.5459C117.223 65.036 117.409 65.6784 117.409 66.2246V69.8242L117.4 70.0293C117.359 70.5144 117.169 71.0387 116.745 71.4629C116.26 71.9476 115.645 72.127 115.106 72.127H108.934V72.3721H116.515V74.2051H107.1V70.293H115.106C115.357 70.293 115.528 70.1537 115.567 69.9268L115.576 69.8242ZM116.176 55.8115V57.6445H102.197V55.8115H116.176Z" fill="#EE7F16"/>
<path d="M77.8916 78.5068C77.9207 78.7016 78.0359 78.832 78.2266 78.8652L78.3271 78.874H82.6045L82.7061 78.8652C82.8965 78.8319 83.012 78.7015 83.041 78.5068L83.0479 78.4043V65.8857L90.6631 78.5605C90.7544 78.7432 90.906 78.8464 91.1172 78.8691L91.2109 78.874H95.8789L95.9805 78.8652C96.171 78.832 96.2864 78.7016 96.3154 78.5068L96.3223 78.4043V58.1143C96.3223 57.8274 96.1658 57.6445 95.8789 57.6445V55.8115C96.4251 55.8115 97.0675 55.9976 97.5576 56.5303C97.9684 56.9768 98.1183 57.4995 98.1494 57.9336L98.1562 58.1143V78.4043L98.1494 78.584C98.1184 79.0182 97.9687 79.5415 97.5576 79.9883C97.0675 80.5208 96.4251 80.707 95.8789 80.707H91.2109C90.8374 80.707 90.3962 80.6319 89.9688 80.3877C89.5689 80.1592 89.277 79.8363 89.0801 79.4854L84.8818 72.4971V78.4043L84.875 78.584C84.844 79.0182 84.6942 79.5415 84.2832 79.9883C83.7931 80.5209 83.1507 80.707 82.6045 80.707H78.3271C77.7811 80.7069 77.1394 80.5206 76.6494 79.9883C76.1798 79.4778 76.0508 78.8677 76.0508 78.4043V58.1143C76.0508 57.6509 76.1798 57.0407 76.6494 56.5303C77.1394 55.9978 77.781 55.8116 78.3271 55.8115V57.6445C78.0405 57.6447 77.8838 57.8275 77.8838 58.1143V78.4043L77.8916 78.5068ZM83.0215 55.8115C83.4065 55.8115 83.8506 55.8915 84.2793 56.1455C84.696 56.3924 84.959 56.7214 85.124 56.9854L85.1328 56.999L85.1406 57.0127L89.3252 63.9717V58.1143C89.3252 57.6504 89.4556 57.0212 89.9541 56.502C90.4649 55.9701 91.1137 55.8116 91.6279 55.8115V57.6445C91.3153 57.6447 91.1592 57.8275 91.1592 58.1143V70.5801L83.5693 57.957C83.439 57.7487 83.2821 57.6445 83.0215 57.6445V55.8115ZM95.8789 55.8115V57.6445H91.6279V55.8115H95.8789ZM83.0215 55.8115V57.6445H78.3271V55.8115H83.0215Z" fill="#EE7F16"/>
<path d="M67.0625 78.5068C67.0915 78.7013 67.2063 78.8318 67.3965 78.8652L67.498 78.874H71.9844L72.0869 78.8652C72.2814 78.8318 72.412 78.7014 72.4453 78.5068L72.4531 78.4043V58.1143C72.4531 57.8634 72.3138 57.6923 72.0869 57.6533L71.9844 57.6445V55.8115C72.5228 55.8116 73.1383 55.9908 73.623 56.4756C74.0472 56.8999 74.2374 57.4241 74.2783 57.9092L74.2871 58.1143V78.4043L74.2783 78.6094C74.2374 79.0945 74.0472 79.6187 73.623 80.043C73.1383 80.5277 72.5228 80.7069 71.9844 80.707H67.498C66.9518 80.707 66.3094 80.521 65.8193 79.9883C65.3497 79.4778 65.2217 78.8677 65.2217 78.4043V58.1143C65.2217 57.6509 65.3498 57.0407 65.8193 56.5303C66.3095 55.9975 66.9518 55.8116 67.498 55.8115V57.6445C67.2113 57.6446 67.0547 57.8274 67.0547 58.1143V78.4043L67.0625 78.5068ZM71.9844 55.8115V57.6445H67.498V55.8115H71.9844Z" fill="#EE7F16"/>
<path d="M47.7266 78.5068C47.7556 78.7013 47.8704 78.8318 48.0605 78.8652L48.1621 78.874H62.4277L62.5225 78.8652C62.7019 78.8318 62.8303 78.7014 62.8633 78.5068L62.8711 78.4043V74.1797C62.8711 73.9189 62.6885 73.7617 62.4277 73.7617V71.9287C62.9191 71.9287 63.5042 72.0795 63.9863 72.5215C64.4249 72.9235 64.6459 73.4462 64.6943 73.96L64.7051 74.1797V78.4043L64.6963 78.6084C64.656 79.0892 64.4704 79.5998 64.0703 80.0166C63.6085 80.4976 62.9999 80.707 62.4277 80.707H48.1621C47.6159 80.707 46.9735 80.521 46.4834 79.9883C46.0138 79.4778 45.8858 78.8677 45.8857 78.4043V58.1143C45.8857 57.6509 46.0139 57.0407 46.4834 56.5303C46.9735 55.9976 47.6159 55.8116 48.1621 55.8115V57.6445C47.8754 57.6446 47.7188 57.8275 47.7188 58.1143V78.4043L47.7266 78.5068ZM53.1172 58.1143C53.1172 57.8634 52.9779 57.6923 52.751 57.6533L52.6484 57.6445V55.8115C53.1868 55.8116 53.8023 55.9908 54.2871 56.4756C54.7113 56.8999 54.9015 57.424 54.9424 57.9092L54.9512 58.1143V71.9287H62.4277V73.7617H53.1172V58.1143ZM52.6484 55.8115V57.6445H48.1621V55.8115H52.6484Z" fill="#EE7F16"/>
</g>
</g>
<rect x="0.687467" y="27.3125" width="301.375" height="85.3751" rx="9.68753" stroke="#8B4569" stroke-width="1.37507"/>
<path d="M266.946 3C275.467 3 282.375 9.90775 282.375 18.4287C282.375 26.9496 275.467 33.8574 266.946 33.8574H153.339L149.875 39L146.411 33.8574H35.8037C27.2828 33.8574 20.3751 26.9496 20.375 18.4287C20.375 9.90775 27.2828 3 35.8037 3H266.946Z" fill="white"/>
<path d="M17.375 18.4287C17.375 8.2509 25.6259 0 35.8037 0V3C27.2828 3 20.375 9.90775 20.375 18.4287C20.3751 26.9496 27.2828 33.8574 35.8037 33.8574H146.411L149.875 39L153.339 33.8574H266.946C275.467 33.8574 282.375 26.9496 282.375 18.4287C282.375 9.90775 275.467 3 266.946 3V0C277.124 0 285.375 8.2509 285.375 18.4287C285.375 28.6064 277.124 36.8574 266.946 36.8574H154.936L149.875 44.3701L144.814 36.8574H35.8037C25.6259 36.8574 17.3751 28.6064 17.375 18.4287ZM266.946 0V3H35.8037V0H266.946Z" fill="#EB7538"/>
<path d="M244.947 23.84C244.947 23.966 244.877 24.036 244.751 24.036H243.379C243.253 24.036 243.183 23.966 243.183 23.84V11.982C243.183 11.856 243.253 11.786 243.379 11.786H254.397C254.523 11.786 254.593 11.856 254.593 11.982V21.908C254.593 23.574 253.613 24.106 251.163 24.036C251.051 24.036 250.981 23.994 250.939 23.882L250.449 22.524C250.435 22.496 250.435 22.468 250.435 22.44C250.435 22.356 250.505 22.3 250.631 22.3L251.191 22.314C252.577 22.314 252.815 22.006 252.815 21.474V18.814H244.947V23.84ZM247.971 13.466H244.947V17.064H247.971V13.466ZM252.815 13.466H249.735V17.064H252.815V13.466Z" fill="#EB7538"/>
<path d="M236.804 23.728C234.102 23.728 232.492 21.572 232.492 17.96C232.492 14.334 234.102 12.178 236.804 12.178C239.52 12.178 241.116 14.334 241.116 17.96C241.116 21.572 239.52 23.728 236.804 23.728ZM234.62 17.96C234.62 20.536 235.446 21.726 236.804 21.726C238.162 21.726 239.002 20.536 239.002 17.96C239.002 15.37 238.162 14.18 236.804 14.18C235.446 14.18 234.62 15.37 234.62 17.96Z" fill="#EB7538"/>
<path d="M226.66 23.728C223.958 23.728 222.348 21.572 222.348 17.96C222.348 14.334 223.958 12.178 226.66 12.178C229.376 12.178 230.972 14.334 230.972 17.96C230.972 21.572 229.376 23.728 226.66 23.728ZM224.476 17.96C224.476 20.536 225.302 21.726 226.66 21.726C228.018 21.726 228.858 20.536 228.858 17.96C228.858 15.37 228.018 14.18 226.66 14.18C225.302 14.18 224.476 15.37 224.476 17.96Z" fill="#EB7538"/>
<path d="M214.785 23.518C214.645 23.518 214.575 23.434 214.631 23.294L218.565 14.32H213.595C213.469 14.32 213.385 14.236 213.385 14.124V12.584C213.385 12.458 213.469 12.388 213.595 12.388H221.029C221.155 12.388 221.225 12.458 221.225 12.584V13.102C221.225 13.186 221.211 13.27 221.183 13.34L216.913 23.364C216.857 23.462 216.787 23.518 216.689 23.518H214.785Z" fill="#EB7538"/>
<path d="M210.141 25.968C210.001 25.968 209.917 25.884 209.973 25.744L210.715 23.518C210.351 23.308 210.113 22.944 210.113 22.468C210.113 21.768 210.645 21.278 211.345 21.278C212.045 21.278 212.577 21.768 212.577 22.468C212.577 22.916 212.423 23.322 211.905 24.47L211.303 25.828C211.261 25.912 211.177 25.968 211.079 25.968H210.141Z" fill="#EB7538"/>
<path d="M203.697 23.518C203.557 23.518 203.487 23.434 203.543 23.294L207.477 14.32H202.507C202.381 14.32 202.297 14.236 202.297 14.124V12.584C202.297 12.458 202.381 12.388 202.507 12.388H209.941C210.067 12.388 210.137 12.458 210.137 12.584V13.102C210.137 13.186 210.123 13.27 210.095 13.34L205.825 23.364C205.769 23.462 205.699 23.518 205.601 23.518H203.697Z" fill="#EB7538"/>
<path d="M183.767 23.266C183.683 23.266 183.613 23.21 183.585 23.112L183.067 21.446C183.067 21.362 183.123 21.306 183.235 21.292C188.079 20.676 190.613 18.1 192.027 13.872C192.055 13.788 192.111 13.746 192.167 13.746C192.209 13.746 192.251 13.76 192.279 13.774L193.693 14.628C193.791 14.698 193.833 14.768 193.791 14.866C192.307 19.318 189.185 22.482 183.823 23.266H183.767ZM182.633 14.138C182.633 14.096 182.647 14.054 182.675 14.012L183.641 12.738C183.711 12.654 183.795 12.626 183.893 12.668C185.083 13.116 186.539 13.956 187.589 14.908C187.645 14.95 187.673 15.006 187.673 15.048C187.673 15.09 187.645 15.146 187.603 15.188L186.483 16.504C186.427 16.56 186.385 16.588 186.329 16.588C186.287 16.588 186.245 16.56 186.203 16.518C185.223 15.622 183.879 14.726 182.759 14.278C182.675 14.25 182.633 14.194 182.633 14.138Z" fill="#EB7538"/>
<path d="M171.579 23.168C171.453 23.168 171.383 23.098 171.383 22.972V21.726C171.383 21.586 171.453 21.53 171.579 21.53H177.753V19.64H171.999C171.873 19.64 171.803 19.57 171.803 19.444V18.212C171.803 18.086 171.873 18.016 171.999 18.016H177.753V16.336H171.691C171.565 16.336 171.495 16.266 171.495 16.14V14.88C171.495 14.754 171.565 14.684 171.691 14.684H179.391C179.517 14.684 179.587 14.754 179.587 14.88V22.986C179.587 23.112 179.517 23.182 179.391 23.182L171.579 23.168Z" fill="#EB7538"/>
<path d="M160.511 18.422C160.469 18.478 160.427 18.52 160.371 18.52C160.329 18.52 160.287 18.492 160.245 18.464C159.419 17.806 158.187 17.176 157.109 16.812C157.025 16.784 156.983 16.728 156.983 16.672C156.983 16.63 156.997 16.602 157.011 16.56L157.753 15.328C157.809 15.23 157.893 15.188 158.005 15.216C159.139 15.524 160.441 16.168 161.323 16.854C161.379 16.896 161.407 16.952 161.407 17.008C161.407 17.036 161.393 17.078 161.365 17.12L160.511 18.422ZM157.991 21.6C157.991 21.53 158.047 21.474 158.145 21.46C163.423 20.83 165.607 18.072 166.951 14.04C166.979 13.956 167.035 13.9 167.091 13.9C167.133 13.9 167.161 13.914 167.203 13.942L168.575 14.796C168.673 14.852 168.715 14.922 168.673 15.02C167.273 19.318 164.431 22.552 158.817 23.378H158.775C158.677 23.378 158.621 23.336 158.579 23.238L158.005 21.698C157.991 21.656 157.991 21.628 157.991 21.6ZM158.635 13.578C158.635 13.536 158.635 13.508 158.663 13.466L159.419 12.29C159.475 12.192 159.559 12.15 159.671 12.192C160.973 12.556 162.149 13.144 163.115 13.886C163.171 13.928 163.199 13.984 163.199 14.026C163.199 14.068 163.185 14.11 163.143 14.152L162.261 15.356C162.219 15.412 162.177 15.454 162.121 15.454C162.079 15.454 162.037 15.426 161.995 15.398C161.141 14.74 159.867 14.082 158.761 13.718C158.677 13.69 158.635 13.634 158.635 13.578Z" fill="#EB7538"/>
<path d="M147.323 18.38C147.323 18.478 147.267 18.548 147.169 18.576L145.853 18.94H145.783C145.699 18.94 145.643 18.884 145.629 18.786C145.489 17.61 145.125 16.28 144.621 15.23C144.607 15.202 144.593 15.16 144.593 15.132C144.593 15.062 144.635 15.006 144.733 14.992L145.979 14.698C146.007 14.684 146.021 14.684 146.049 14.684C146.119 14.684 146.175 14.726 146.217 14.796C146.763 15.804 147.169 17.134 147.323 18.338V18.38ZM145.629 22.16C145.629 22.104 145.685 22.048 145.783 22.034C150.305 21.25 152.181 18.912 152.307 14.334C152.307 14.208 152.391 14.138 152.517 14.152L154.001 14.334C154.127 14.348 154.183 14.432 154.183 14.558C153.777 19.71 151.705 22.608 147.057 23.63C147.029 23.644 147.015 23.644 146.987 23.644C146.917 23.644 146.861 23.616 146.805 23.546L145.699 22.286C145.657 22.244 145.629 22.202 145.629 22.16ZM147.729 14.586C147.729 14.502 147.785 14.46 147.883 14.432L149.171 14.138C149.185 14.124 149.213 14.124 149.241 14.124C149.311 14.124 149.367 14.166 149.409 14.236C149.857 15.23 150.263 16.63 150.347 17.82V17.848C150.347 17.946 150.305 18.016 150.193 18.044L148.877 18.38C148.849 18.394 148.821 18.394 148.807 18.394C148.709 18.394 148.653 18.338 148.653 18.226C148.555 17.064 148.233 15.706 147.757 14.684C147.743 14.642 147.729 14.614 147.729 14.586Z" fill="#EB7538"/>
<path d="M141.055 21.586C141.167 21.628 141.195 21.726 141.153 21.838L140.467 23.42C140.411 23.546 140.327 23.574 140.215 23.518C138.059 22.496 134.335 21.74 131.115 21.586C130.975 21.586 130.919 21.488 130.961 21.362L131.507 19.92C131.549 19.822 131.619 19.766 131.731 19.766C134.643 19.864 138.479 20.48 141.055 21.586ZM132.081 12.5C132.109 12.388 132.179 12.332 132.291 12.332L132.921 12.318C135.399 12.318 138.815 12.64 140.943 13.186C141.069 13.214 141.111 13.298 141.083 13.424L140.663 14.964C140.635 15.09 140.551 15.146 140.425 15.104C138.241 14.502 134.937 14.124 132.361 14.124H131.927C131.787 14.124 131.731 14.04 131.759 13.914L132.081 12.5ZM132.431 16.07C132.473 15.958 132.543 15.902 132.655 15.902C134.797 15.93 137.947 16.308 139.963 16.952C140.075 16.994 140.117 17.078 140.089 17.19L139.599 18.8C139.571 18.926 139.473 18.968 139.361 18.912C137.471 18.226 134.307 17.764 132.151 17.778C131.997 17.778 131.941 17.694 131.983 17.568L132.431 16.07Z" fill="#EB7538"/>
<path d="M117.815 15.076C117.815 15.202 117.745 15.272 117.619 15.272H116.289C116.163 15.272 116.093 15.202 116.093 15.076V12.542C116.093 12.416 116.163 12.346 116.289 12.346H121.077V11.45C121.077 11.324 121.147 11.254 121.273 11.254H122.925C123.051 11.254 123.121 11.324 123.121 11.45V12.346H127.951C128.077 12.346 128.147 12.416 128.147 12.542V14.572C128.147 14.698 128.077 14.768 127.951 14.768H126.621C126.495 14.768 126.425 14.698 126.425 14.572V13.83H124.031L124.045 13.886V15.09C124.045 15.496 124.199 15.608 124.787 15.608C124.997 15.608 125.249 15.608 125.403 15.594C125.809 15.566 125.921 15.356 125.991 14.936C126.019 14.796 126.103 14.74 126.229 14.782L127.433 15.16C127.545 15.202 127.587 15.272 127.573 15.398C127.377 16.546 126.887 16.952 125.515 16.98H124.129C122.827 16.952 122.421 16.392 122.421 15.622V13.886L122.435 13.83H117.815V15.076ZM116.667 16.182C116.653 16.14 116.639 16.112 116.639 16.084C116.639 16 116.695 15.958 116.807 15.944C118.641 15.734 119.551 15.104 119.943 14.138C119.985 14.026 120.069 13.984 120.181 14.012L121.343 14.32C121.469 14.348 121.539 14.418 121.497 14.516C120.951 15.944 119.537 17.078 117.507 17.386H117.465C117.381 17.386 117.311 17.344 117.255 17.26L116.667 16.182ZM116.891 19.654C116.765 19.654 116.695 19.584 116.695 19.458V18.254C116.695 18.128 116.765 18.058 116.891 18.058H120.279C120.307 17.68 120.321 17.274 120.321 16.91C120.321 16.784 120.391 16.714 120.517 16.714H121.945C122.071 16.714 122.141 16.784 122.141 16.91C122.141 17.246 122.127 17.68 122.099 18.058H125.641C125.781 18.058 125.837 18.142 125.823 18.268C125.683 19.36 125.515 20.844 125.431 21.614C125.389 21.964 125.501 22.076 125.781 22.104C125.949 22.118 126.159 22.118 126.313 22.104C126.873 22.062 126.985 21.67 127.055 19.836C127.055 19.682 127.153 19.612 127.293 19.668L128.469 20.186C128.567 20.228 128.609 20.298 128.609 20.424C128.497 23.336 127.923 23.686 126.453 23.756L125.809 23.77C125.543 23.77 125.291 23.77 125.109 23.756C124.241 23.714 123.555 23.266 123.555 22.412C123.555 22.342 123.555 22.272 123.569 22.202L123.905 19.654H121.875C121.259 22.272 119.495 23.546 116.695 24.008H116.653C116.569 24.008 116.499 23.966 116.443 23.882L115.743 22.538C115.729 22.496 115.715 22.468 115.715 22.44C115.715 22.356 115.771 22.314 115.883 22.3C118.347 22.02 119.663 21.25 120.097 19.654H116.891Z" fill="#EB7538"/>
<path d="M105.033 21.432C105.033 23.518 104.669 23.994 102.513 24.036C102.401 24.036 102.331 23.994 102.289 23.882L101.827 22.496C101.813 22.468 101.813 22.44 101.813 22.426C101.813 22.328 101.883 22.272 102.009 22.272C103.017 22.272 103.339 22.132 103.339 21.432V19.458L102.093 19.766C102.065 19.766 102.051 19.78 102.037 19.78C101.939 19.78 101.883 19.71 101.869 19.612L101.659 18.24V18.198C101.659 18.1 101.715 18.044 101.827 18.016C102.331 17.918 102.835 17.806 103.339 17.666V15.272H102.121C101.995 15.272 101.925 15.202 101.925 15.076V13.816C101.925 13.69 101.995 13.62 102.121 13.62H103.339V11.478C103.339 11.352 103.409 11.282 103.535 11.282H104.837C104.963 11.282 105.033 11.352 105.033 11.478V13.62H105.859C105.985 13.62 106.055 13.69 106.055 13.816V15.076C106.055 15.202 105.985 15.272 105.859 15.272H105.033V17.218C105.299 17.148 105.551 17.064 105.817 16.966C105.845 16.952 105.873 16.952 105.901 16.952C105.985 16.952 106.041 17.022 106.041 17.134V18.436C106.041 18.548 105.999 18.632 105.901 18.674C105.649 18.786 105.355 18.898 105.033 19.01V21.432ZM107.889 14.348C107.889 14.474 107.819 14.544 107.693 14.544H106.503C106.377 14.544 106.307 14.474 106.307 14.348V11.87C106.307 11.744 106.377 11.674 106.503 11.674H114.175C114.301 11.674 114.371 11.744 114.371 11.87V14.306C114.371 14.432 114.301 14.502 114.175 14.502H112.901C112.775 14.502 112.705 14.432 112.705 14.306V13.116H107.889V14.348ZM112.201 17.036C111.277 17.036 110.353 16.98 110.353 15.762V13.844C110.353 13.718 110.423 13.648 110.549 13.648H111.599C111.725 13.648 111.795 13.718 111.795 13.844V15.16C111.795 15.496 111.907 15.594 112.173 15.622L112.411 15.636C112.943 15.636 113.139 15.58 113.209 14.88C113.223 14.726 113.321 14.656 113.447 14.712L114.399 15.076C114.511 15.118 114.553 15.188 114.539 15.314C114.301 17.008 113.657 17.036 112.201 17.036ZM106.055 16.308C106.027 16.266 106.013 16.224 106.013 16.196C106.013 16.112 106.069 16.056 106.167 16.042C107.637 15.72 108.351 15.02 108.701 13.83C108.743 13.704 108.813 13.662 108.939 13.704L109.919 14.054C110.031 14.096 110.073 14.18 110.045 14.292C109.625 15.832 108.617 16.91 107.035 17.442C107.007 17.456 106.965 17.456 106.937 17.456C106.867 17.456 106.811 17.428 106.769 17.358L106.055 16.308ZM106.349 19.542C106.223 19.542 106.153 19.472 106.153 19.346V18.142C106.153 18.016 106.223 17.946 106.349 17.946H109.233L109.219 17.078C109.219 16.952 109.289 16.882 109.415 16.882H110.745C110.871 16.882 110.941 16.952 110.941 17.078V17.946H114.091C114.217 17.946 114.287 18.016 114.287 18.142V19.346C114.287 19.472 114.217 19.542 114.091 19.542H111.515C112.383 20.536 113.489 21.376 114.595 21.88C114.679 21.922 114.721 21.964 114.721 22.034C114.721 22.062 114.707 22.104 114.679 22.146L113.965 23.448C113.909 23.56 113.811 23.602 113.699 23.532C112.677 22.944 111.655 21.936 110.899 20.858L110.941 23.854C110.941 23.98 110.871 24.05 110.745 24.05H109.415C109.289 24.05 109.219 23.98 109.219 23.854L109.275 20.914C108.533 21.964 107.483 22.93 106.391 23.546C106.349 23.56 106.321 23.574 106.279 23.574C106.223 23.574 106.167 23.546 106.125 23.476L105.313 22.202C105.285 22.16 105.271 22.132 105.271 22.09C105.271 22.034 105.313 21.992 105.397 21.95C106.643 21.432 107.819 20.606 108.701 19.542H106.349Z" fill="#EB7538"/>
<path d="M88.3448 16.154C88.2188 16.154 88.1488 16.084 88.1488 15.958V14.516C88.1488 14.39 88.2188 14.32 88.3448 14.32H93.1188V11.478C93.1188 11.352 93.1888 11.282 93.3148 11.282H94.8968C95.0228 11.282 95.0928 11.352 95.0928 11.478V14.32H99.9088C100.035 14.32 100.105 14.39 100.105 14.516V15.958C100.105 16.084 100.035 16.154 99.9088 16.154H95.2048C95.9188 18.87 97.9208 21.026 100.413 22.146C100.497 22.188 100.539 22.23 100.539 22.286C100.539 22.328 100.525 22.356 100.497 22.398L99.5308 23.868C99.4608 23.966 99.3768 23.994 99.2648 23.938C97.0668 22.846 95.2328 20.984 94.1688 18.66C93.1748 20.914 91.3408 22.93 89.0448 23.98C89.0028 23.994 88.9748 24.008 88.9328 24.008C88.8768 24.008 88.8208 23.98 88.7788 23.91L87.7568 22.454C87.7288 22.412 87.7148 22.37 87.7148 22.342C87.7148 22.272 87.7568 22.23 87.8408 22.188C90.6408 21.11 92.4608 18.814 92.9648 16.154H88.3448Z" fill="#EB7538"/>
<path d="M83.025 17.274C84.285 17.694 85.055 18.646 85.055 19.99C85.055 21.978 83.417 23.308 81.023 23.308C79.035 23.308 77.593 22.188 77.061 20.368V20.312C77.061 20.214 77.117 20.158 77.215 20.13L78.811 19.696C78.895 19.696 78.965 19.752 78.993 19.85C79.315 20.718 79.945 21.306 81.023 21.306C82.185 21.306 82.941 20.676 82.941 19.696C82.941 18.73 82.129 18.198 80.897 18.198H80.435C80.309 18.198 80.239 18.128 80.239 18.002V16.658C80.239 16.532 80.309 16.462 80.435 16.462H80.897C81.933 16.462 82.647 15.93 82.647 15.16C82.647 14.348 81.947 13.76 80.981 13.76C80.029 13.76 79.399 14.348 79.077 15.216C79.035 15.342 78.965 15.384 78.839 15.356L77.313 14.936C77.187 14.908 77.131 14.838 77.159 14.698C77.691 12.878 79.119 11.758 81.023 11.758C83.179 11.758 84.775 13.032 84.775 14.768C84.775 15.86 84.117 16.77 83.025 17.274Z" fill="#EB7538"/>
<path d="M69.4591 23.378C69.3611 23.378 69.2911 23.322 69.2491 23.224L68.6751 21.768C68.6611 21.74 68.6611 21.712 68.6611 21.684C68.6611 21.6 68.7171 21.544 68.8431 21.544C71.9091 21.404 73.1411 19.696 73.1411 17.918C73.1411 16.098 71.9371 14.656 70.1451 14.264C70.1311 16.392 69.1791 19.57 67.8631 21.53C67.4151 22.188 66.7011 22.524 65.9591 22.524C63.9011 22.524 62.8091 20.34 62.8091 18.52C62.8091 16.882 63.5651 15.104 65.2451 13.774C66.3371 12.906 67.7511 12.486 69.1371 12.486C72.4131 12.486 75.0591 14.726 75.0591 18.044C75.0591 20.872 72.8191 23.182 69.4871 23.378H69.4591ZM64.5871 18.45C64.5871 19.136 64.8111 19.794 65.2731 20.298C65.4551 20.48 65.6651 20.578 65.8751 20.578C66.0991 20.578 66.3231 20.452 66.5051 20.2C67.4851 18.744 68.2971 15.86 68.2551 14.236C66.2951 14.614 64.5871 16.406 64.5871 18.45Z" fill="#EB7538"/>
<path d="M50.811 23.798C50.685 23.798 50.615 23.728 50.615 23.602V19.906C50.237 20.116 49.831 20.326 49.397 20.508C49.369 20.522 49.341 20.522 49.313 20.522C49.243 20.522 49.187 20.48 49.145 20.41L48.403 19.15C48.375 19.108 48.375 19.066 48.375 19.038C48.375 18.968 48.417 18.926 48.501 18.898C49.495 18.576 50.307 18.114 50.993 17.554H48.767C48.641 17.554 48.571 17.484 48.571 17.358V16.266C48.571 16.14 48.641 16.07 48.767 16.07H52.323L52.673 15.482H49.803C49.677 15.482 49.607 15.412 49.607 15.286V14.32C49.607 14.194 49.677 14.124 49.803 14.124H53.247C53.317 13.928 53.359 13.732 53.415 13.522H49.327C49.201 13.522 49.131 13.452 49.131 13.326V12.276C49.131 12.15 49.201 12.08 49.327 12.08H53.667C53.695 11.87 53.695 11.646 53.709 11.436C53.709 11.31 53.793 11.254 53.919 11.254L55.403 11.268C55.515 11.268 55.585 11.324 55.585 11.436C55.585 11.66 55.557 11.856 55.529 12.08H60.527C60.653 12.08 60.723 12.15 60.723 12.276V13.326C60.723 13.452 60.653 13.522 60.527 13.522H55.263L55.095 14.124H60.079C60.205 14.124 60.275 14.194 60.275 14.32V15.286C60.275 15.412 60.205 15.482 60.079 15.482H57.307C57.405 15.692 57.503 15.888 57.615 16.07H61.073C61.199 16.07 61.269 16.14 61.269 16.266V17.358C61.269 17.484 61.199 17.554 61.073 17.554H58.861C59.561 18.142 60.415 18.59 61.367 18.884C61.493 18.926 61.549 19.01 61.479 19.136L60.807 20.396C60.751 20.508 60.667 20.522 60.555 20.48C60.093 20.284 59.659 20.074 59.267 19.836V23.602C59.267 23.728 59.197 23.798 59.071 23.798H50.811ZM57.517 21.684H52.365V22.398H57.517V21.684ZM57.517 19.808H52.365V20.494H57.517V19.808ZM57.489 18.436C57.195 18.142 56.943 17.848 56.719 17.554H53.387C53.149 17.862 52.869 18.156 52.589 18.436H57.489ZM55.781 16.07C55.669 15.86 55.585 15.664 55.501 15.482H54.605C54.521 15.678 54.409 15.874 54.311 16.07H55.781Z" fill="#EB7538"/>
<defs>
<filter id="filter0_d_398_17696" x="0.507812" y="28" width="300.867" height="85.8334" filterUnits="userSpaceOnUse" color-interpolation-filters="sRGB">
<feFlood flood-opacity="0" result="BackgroundImageFix"/>
<feColorMatrix in="SourceAlpha" type="matrix" values="0 0 0 0 0 0 0 0 0 0 0 0 0 0 0 0 0 0 127 0" result="hardAlpha"/>
<feOffset dy="1.83342"/>
<feComposite in2="hardAlpha" operator="out"/>
<feColorMatrix type="matrix" values="0 0 0 0 0.921569 0 0 0 0 0.458824 0 0 0 0 0.219608 0 0 0 1 0"/>
<feBlend mode="normal" in2="BackgroundImageFix" result="effect1_dropShadow_398_17696"/>
<feBlend mode="normal" in="SourceGraphic" in2="effect1_dropShadow_398_17696" result="shape"/>
</filter>
<filter id="filter1_d_398_17696" x="229.366" y="55.845" width="25.2773" height="24.9625" filterUnits="userSpaceOnUse" color-interpolation-filters="sRGB">
<feFlood flood-opacity="0" result="BackgroundImageFix"/>
<feColorMatrix in="SourceAlpha" type="matrix" values="0 0 0 0 0 0 0 0 0 0 0 0 0 0 0 0 0 0 127 0" result="hardAlpha"/>
<feOffset dy="0.91671"/>
<feComposite in2="hardAlpha" operator="out"/>
<feColorMatrix type="matrix" values="0 0 0 0 0 0 0 0 0 0 0 0 0 0 0 0 0 0 0.25 0"/>
<feBlend mode="normal" in2="BackgroundImageFix" result="effect1_dropShadow_398_17696"/>
<feBlend mode="normal" in="SourceGraphic" in2="effect1_dropShadow_398_17696" result="shape"/>
</filter>
<filter id="filter2_d_398_17696" x="203.417" y="55.5842" width="22.2202" height="25.4841" filterUnits="userSpaceOnUse" color-interpolation-filters="sRGB">
<feFlood flood-opacity="0" result="BackgroundImageFix"/>
<feColorMatrix in="SourceAlpha" type="matrix" values="0 0 0 0 0 0 0 0 0 0 0 0 0 0 0 0 0 0 127 0" result="hardAlpha"/>
<feOffset dy="0.91671"/>
<feComposite in2="hardAlpha" operator="out"/>
<feColorMatrix type="matrix" values="0 0 0 0 0 0 0 0 0 0 0 0 0 0 0 0 0 0 0.25 0"/>
<feBlend mode="normal" in2="BackgroundImageFix" result="effect1_dropShadow_398_17696"/>
<feBlend mode="normal" in="SourceGraphic" in2="effect1_dropShadow_398_17696" result="shape"/>
</filter>
<filter id="filter3_d_398_17696" x="174.911" y="55.5948" width="24.4893" height="25.4734" filterUnits="userSpaceOnUse" color-interpolation-filters="sRGB">
<feFlood flood-opacity="0" result="BackgroundImageFix"/>
<feColorMatrix in="SourceAlpha" type="matrix" values="0 0 0 0 0 0 0 0 0 0 0 0 0 0 0 0 0 0 127 0" result="hardAlpha"/>
<feOffset dy="0.91671"/>
<feComposite in2="hardAlpha" operator="out"/>
<feColorMatrix type="matrix" values="0 0 0 0 0 0 0 0 0 0 0 0 0 0 0 0 0 0 0.25 0"/>
<feBlend mode="normal" in2="BackgroundImageFix" result="effect1_dropShadow_398_17696"/>
<feBlend mode="normal" in="SourceGraphic" in2="effect1_dropShadow_398_17696" result="shape"/>
</filter>
<filter id="filter4_d_398_17696" x="147.214" y="55.5543" width="24.75" height="25.4358" filterUnits="userSpaceOnUse" color-interpolation-filters="sRGB">
<feFlood flood-opacity="0" result="BackgroundImageFix"/>
<feColorMatrix in="SourceAlpha" type="matrix" values="0 0 0 0 0 0 0 0 0 0 0 0 0 0 0 0 0 0 127 0" result="hardAlpha"/>
<feOffset dy="0.91671"/>
<feComposite in2="hardAlpha" operator="out"/>
<feColorMatrix type="matrix" values="0 0 0 0 0 0 0 0 0 0 0 0 0 0 0 0 0 0 0.25 0"/>
<feBlend mode="normal" in2="BackgroundImageFix" result="effect1_dropShadow_398_17696"/>
<feBlend mode="normal" in="SourceGraphic" in2="effect1_dropShadow_398_17696" result="shape"/>
</filter>
<filter id="filter5_d_398_17696" x="121.212" y="58.2183" width="23.4072" height="21.8328" filterUnits="userSpaceOnUse" color-interpolation-filters="sRGB">
<feFlood flood-opacity="0" result="BackgroundImageFix"/>
<feColorMatrix in="SourceAlpha" type="matrix" values="0 0 0 0 0 0 0 0 0 0 0 0 0 0 0 0 0 0 127 0" result="hardAlpha"/>
<feOffset dy="0.91671"/>
<feComposite in2="hardAlpha" operator="out"/>
<feColorMatrix type="matrix" values="0 0 0 0 0 0 0 0 0 0 0 0 0 0 0 0 0 0 0.25 0"/>
<feBlend mode="normal" in2="BackgroundImageFix" result="effect1_dropShadow_398_17696"/>
<feBlend mode="normal" in="SourceGraphic" in2="effect1_dropShadow_398_17696" result="shape"/>
</filter>
<filter id="filter6_d_398_17696" x="101.753" y="57.6445" width="15.231" height="22.1458" filterUnits="userSpaceOnUse" color-interpolation-filters="sRGB">
<feFlood flood-opacity="0" result="BackgroundImageFix"/>
<feColorMatrix in="SourceAlpha" type="matrix" values="0 0 0 0 0 0 0 0 0 0 0 0 0 0 0 0 0 0 127 0" result="hardAlpha"/>
<feOffset dy="0.91671"/>
<feComposite in2="hardAlpha" operator="out"/>
<feColorMatrix type="matrix" values="0 0 0 0 0 0 0 0 0 0 0 0 0 0 0 0 0 0 0.25 0"/>
<feBlend mode="normal" in2="BackgroundImageFix" result="effect1_dropShadow_398_17696"/>
<feBlend mode="normal" in="SourceGraphic" in2="effect1_dropShadow_398_17696" result="shape"/>
</filter>
<filter id="filter7_d_398_17696" x="77.8843" y="57.6445" width="18.4385" height="22.1458" filterUnits="userSpaceOnUse" color-interpolation-filters="sRGB">
<feFlood flood-opacity="0" result="BackgroundImageFix"/>
<feColorMatrix in="SourceAlpha" type="matrix" values="0 0 0 0 0 0 0 0 0 0 0 0 0 0 0 0 0 0 127 0" result="hardAlpha"/>
<feOffset dy="0.91671"/>
<feComposite in2="hardAlpha" operator="out"/>
<feColorMatrix type="matrix" values="0 0 0 0 0 0 0 0 0 0 0 0 0 0 0 0 0 0 0.25 0"/>
<feBlend mode="normal" in2="BackgroundImageFix" result="effect1_dropShadow_398_17696"/>
<feBlend mode="normal" in="SourceGraphic" in2="effect1_dropShadow_398_17696" result="shape"/>
</filter>
<filter id="filter8_d_398_17696" x="67.0547" y="57.6445" width="5.39844" height="22.1458" filterUnits="userSpaceOnUse" color-interpolation-filters="sRGB">
<feFlood flood-opacity="0" result="BackgroundImageFix"/>
<feColorMatrix in="SourceAlpha" type="matrix" values="0 0 0 0 0 0 0 0 0 0 0 0 0 0 0 0 0 0 127 0" result="hardAlpha"/>
<feOffset dy="0.91671"/>
<feComposite in2="hardAlpha" operator="out"/>
<feColorMatrix type="matrix" values="0 0 0 0 0 0 0 0 0 0 0 0 0 0 0 0 0 0 0.25 0"/>
<feBlend mode="normal" in2="BackgroundImageFix" result="effect1_dropShadow_398_17696"/>
<feBlend mode="normal" in="SourceGraphic" in2="effect1_dropShadow_398_17696" result="shape"/>
</filter>
<filter id="filter9_d_398_17696" x="47.7192" y="57.6445" width="15.1523" height="22.1458" filterUnits="userSpaceOnUse" color-interpolation-filters="sRGB">
<feFlood flood-opacity="0" result="BackgroundImageFix"/>
<feColorMatrix in="SourceAlpha" type="matrix" values="0 0 0 0 0 0 0 0 0 0 0 0 0 0 0 0 0 0 127 0" result="hardAlpha"/>
<feOffset dy="0.91671"/>
<feComposite in2="hardAlpha" operator="out"/>
<feColorMatrix type="matrix" values="0 0 0 0 0 0 0 0 0 0 0 0 0 0 0 0 0 0 0.25 0"/>
<feBlend mode="normal" in2="BackgroundImageFix" result="effect1_dropShadow_398_17696"/>
<feBlend mode="normal" in="SourceGraphic" in2="effect1_dropShadow_398_17696" result="shape"/>
</filter>
<filter id="filter10_d_398_17696" x="227.533" y="54.0117" width="28.9409" height="28.6296" filterUnits="userSpaceOnUse" color-interpolation-filters="sRGB">
<feFlood flood-opacity="0" result="BackgroundImageFix"/>
<feColorMatrix in="SourceAlpha" type="matrix" values="0 0 0 0 0 0 0 0 0 0 0 0 0 0 0 0 0 0 127 0" result="hardAlpha"/>
<feOffset dy="0.91671"/>
<feComposite in2="hardAlpha" operator="out"/>
<feColorMatrix type="matrix" values="0 0 0 0 0 0 0 0 0 0 0 0 0 0 0 0 0 0 0.25 0"/>
<feBlend mode="normal" in2="BackgroundImageFix" result="effect1_dropShadow_398_17696"/>
<feBlend mode="normal" in="SourceGraphic" in2="effect1_dropShadow_398_17696" result="shape"/>
</filter>
<filter id="filter11_d_398_17696" x="201.583" y="53.751" width="25.8867" height="29.1511" filterUnits="userSpaceOnUse" color-interpolation-filters="sRGB">
<feFlood flood-opacity="0" result="BackgroundImageFix"/>
<feColorMatrix in="SourceAlpha" type="matrix" values="0 0 0 0 0 0 0 0 0 0 0 0 0 0 0 0 0 0 127 0" result="hardAlpha"/>
<feOffset dy="0.91671"/>
<feComposite in2="hardAlpha" operator="out"/>
<feColorMatrix type="matrix" values="0 0 0 0 0 0 0 0 0 0 0 0 0 0 0 0 0 0 0.25 0"/>
<feBlend mode="normal" in2="BackgroundImageFix" result="effect1_dropShadow_398_17696"/>
<feBlend mode="normal" in="SourceGraphic" in2="effect1_dropShadow_398_17696" result="shape"/>
</filter>
<filter id="filter12_d_398_17696" x="173.078" y="53.7616" width="28.1553" height="29.1405" filterUnits="userSpaceOnUse" color-interpolation-filters="sRGB">
<feFlood flood-opacity="0" result="BackgroundImageFix"/>
<feColorMatrix in="SourceAlpha" type="matrix" values="0 0 0 0 0 0 0 0 0 0 0 0 0 0 0 0 0 0 127 0" result="hardAlpha"/>
<feOffset dy="0.91671"/>
<feComposite in2="hardAlpha" operator="out"/>
<feColorMatrix type="matrix" values="0 0 0 0 0 0 0 0 0 0 0 0 0 0 0 0 0 0 0.25 0"/>
<feBlend mode="normal" in2="BackgroundImageFix" result="effect1_dropShadow_398_17696"/>
<feBlend mode="normal" in="SourceGraphic" in2="effect1_dropShadow_398_17696" result="shape"/>
</filter>
<filter id="filter13_d_398_17696" x="145.381" y="53.7218" width="28.417" height="29.1021" filterUnits="userSpaceOnUse" color-interpolation-filters="sRGB">
<feFlood flood-opacity="0" result="BackgroundImageFix"/>
<feColorMatrix in="SourceAlpha" type="matrix" values="0 0 0 0 0 0 0 0 0 0 0 0 0 0 0 0 0 0 127 0" result="hardAlpha"/>
<feOffset dy="0.91671"/>
<feComposite in2="hardAlpha" operator="out"/>
<feColorMatrix type="matrix" values="0 0 0 0 0 0 0 0 0 0 0 0 0 0 0 0 0 0 0.25 0"/>
<feBlend mode="normal" in2="BackgroundImageFix" result="effect1_dropShadow_398_17696"/>
<feBlend mode="normal" in="SourceGraphic" in2="effect1_dropShadow_398_17696" result="shape"/>
</filter>
<filter id="filter14_d_398_17696" x="119.379" y="56.3848" width="27.0742" height="25.4997" filterUnits="userSpaceOnUse" color-interpolation-filters="sRGB">
<feFlood flood-opacity="0" result="BackgroundImageFix"/>
<feColorMatrix in="SourceAlpha" type="matrix" values="0 0 0 0 0 0 0 0 0 0 0 0 0 0 0 0 0 0 127 0" result="hardAlpha"/>
<feOffset dy="0.91671"/>
<feComposite in2="hardAlpha" operator="out"/>
<feColorMatrix type="matrix" values="0 0 0 0 0 0 0 0 0 0 0 0 0 0 0 0 0 0 0.25 0"/>
<feBlend mode="normal" in2="BackgroundImageFix" result="effect1_dropShadow_398_17696"/>
<feBlend mode="normal" in="SourceGraphic" in2="effect1_dropShadow_398_17696" result="shape"/>
</filter>
<filter id="filter15_d_398_17696" x="99.9199" y="55.8115" width="18.8975" height="25.8122" filterUnits="userSpaceOnUse" color-interpolation-filters="sRGB">
<feFlood flood-opacity="0" result="BackgroundImageFix"/>
<feColorMatrix in="SourceAlpha" type="matrix" values="0 0 0 0 0 0 0 0 0 0 0 0 0 0 0 0 0 0 127 0" result="hardAlpha"/>
<feOffset dy="0.91671"/>
<feComposite in2="hardAlpha" operator="out"/>
<feColorMatrix type="matrix" values="0 0 0 0 0 0 0 0 0 0 0 0 0 0 0 0 0 0 0.25 0"/>
<feBlend mode="normal" in2="BackgroundImageFix" result="effect1_dropShadow_398_17696"/>
<feBlend mode="normal" in="SourceGraphic" in2="effect1_dropShadow_398_17696" result="shape"/>
</filter>
<filter id="filter16_d_398_17696" x="76.0508" y="55.8115" width="22.1055" height="25.8122" filterUnits="userSpaceOnUse" color-interpolation-filters="sRGB">
<feFlood flood-opacity="0" result="BackgroundImageFix"/>
<feColorMatrix in="SourceAlpha" type="matrix" values="0 0 0 0 0 0 0 0 0 0 0 0 0 0 0 0 0 0 127 0" result="hardAlpha"/>
<feOffset dy="0.91671"/>
<feComposite in2="hardAlpha" operator="out"/>
<feColorMatrix type="matrix" values="0 0 0 0 0 0 0 0 0 0 0 0 0 0 0 0 0 0 0.25 0"/>
<feBlend mode="normal" in2="BackgroundImageFix" result="effect1_dropShadow_398_17696"/>
<feBlend mode="normal" in="SourceGraphic" in2="effect1_dropShadow_398_17696" result="shape"/>
</filter>
<filter id="filter17_d_398_17696" x="65.2217" y="55.8115" width="9.06543" height="25.8122" filterUnits="userSpaceOnUse" color-interpolation-filters="sRGB">
<feFlood flood-opacity="0" result="BackgroundImageFix"/>
<feColorMatrix in="SourceAlpha" type="matrix" values="0 0 0 0 0 0 0 0 0 0 0 0 0 0 0 0 0 0 127 0" result="hardAlpha"/>
<feOffset dy="0.91671"/>
<feComposite in2="hardAlpha" operator="out"/>
<feColorMatrix type="matrix" values="0 0 0 0 0 0 0 0 0 0 0 0 0 0 0 0 0 0 0.25 0"/>
<feBlend mode="normal" in2="BackgroundImageFix" result="effect1_dropShadow_398_17696"/>
<feBlend mode="normal" in="SourceGraphic" in2="effect1_dropShadow_398_17696" result="shape"/>
</filter>
<filter id="filter18_d_398_17696" x="45.8857" y="55.8115" width="18.8193" height="25.8122" filterUnits="userSpaceOnUse" color-interpolation-filters="sRGB">
<feFlood flood-opacity="0" result="BackgroundImageFix"/>
<feColorMatrix in="SourceAlpha" type="matrix" values="0 0 0 0 0 0 0 0 0 0 0 0 0 0 0 0 0 0 127 0" result="hardAlpha"/>
<feOffset dy="0.91671"/>
<feComposite in2="hardAlpha" operator="out"/>
<feColorMatrix type="matrix" values="0 0 0 0 0 0 0 0 0 0 0 0 0 0 0 0 0 0 0.25 0"/>
<feBlend mode="normal" in2="BackgroundImageFix" result="effect1_dropShadow_398_17696"/>
<feBlend mode="normal" in="SourceGraphic" in2="effect1_dropShadow_398_17696" result="shape"/>
</filter>
<linearGradient id="paint0_linear_398_17696" x1="182.185" y1="109" x2="182.534" y2="28.0005" gradientUnits="userSpaceOnUse">
<stop offset="0.4999" stop-color="#FFBD26"/>
<stop offset="0.5" stop-color="#FFC849"/>
</linearGradient>
<clipPath id="clip0_398_17696">
<rect x="1.375" y="28" width="300" height="84" rx="9" fill="white"/>
</clipPath>
</defs>
</svg>
