<svg width="348" height="83" viewBox="0 0 348 83" fill="none" xmlns="http://www.w3.org/2000/svg">
<g clip-path="url(#clip0_395_12366)">
<g filter="url(#filter0_d_395_12366)">
<path d="M1.5 3.5H346.5V81.5H1.5V3.5Z" fill="#EB7538"/>
<path d="M2.5 9.5C2.5 5.08172 6.08172 1.5 10.5 1.5H336.5C340.918 1.5 344.5 5.08172 344.5 9.5V69.5C344.5 73.9183 340.918 77.5 336.5 77.5H10.5C6.08173 77.5 2.5 73.9183 2.5 69.5V9.5Z" fill="url(#paint0_linear_395_12366)"/>
<path d="M336.5 77.3916V79.5H11.5V77.3916H336.5ZM344.392 69.5V11.5C344.392 7.14161 340.858 3.6084 336.5 3.6084H11.5C7.14161 3.6084 3.6084 7.14161 3.6084 11.5V69.5C3.6084 73.8584 7.14161 77.3916 11.5 77.3916V79.5L10.9854 79.4873C5.87212 79.2281 1.7719 75.1279 1.5127 70.0146L1.5 69.5V11.5C1.5 5.97715 5.97715 1.5 11.5 1.5H336.5C342.023 1.5 346.5 5.97715 346.5 11.5V69.5C346.5 74.8503 342.298 79.2195 337.015 79.4873L336.5 79.5V77.3916C340.858 77.3916 344.392 73.8584 344.392 69.5Z" fill="#EB7538"/>
<path d="M298.898 56.3173C298.632 56.3173 298.462 56.1718 298.462 55.9051V51.9771C298.462 51.7104 298.607 51.5406 298.874 51.5164C301.662 51.2497 302.681 48.8492 302.681 43.6846C302.681 38.52 301.662 36.1196 298.874 35.8528C298.607 35.8286 298.462 35.6831 298.462 35.4164V31.4884C298.462 31.2217 298.632 31.0519 298.874 31.0519C305.057 31.3429 307.773 36.0226 307.773 43.6846C307.773 51.3224 305.057 56.0263 298.898 56.3173Z" fill="#BF8E1D"/>
<path d="M296.462 31.4885C296.462 30.9259 296.648 30.2918 297.134 29.7853C297.625 29.2737 298.271 29.052 298.874 29.0519H298.921L298.968 29.0539C302.62 29.2258 305.46 30.7425 307.303 33.4894C309.07 36.1236 309.772 39.6691 309.772 43.6848C309.772 47.6895 309.069 51.232 307.308 53.8674C305.471 56.615 302.639 58.1423 298.993 58.3146L298.945 58.3176H298.898C298.416 58.3176 297.769 58.183 297.226 57.6828C296.658 57.1603 296.462 56.478 296.462 55.9055V51.9767C296.462 51.4833 296.602 50.8612 297.07 50.3312C297.544 49.7957 298.158 49.5753 298.684 49.5256L298.832 49.507C299.16 49.4583 299.36 49.365 299.494 49.2707C299.647 49.1627 299.832 48.9717 300.015 48.5842C300.419 47.7274 300.681 46.2139 300.681 43.6848C300.681 41.1558 300.419 39.6421 300.015 38.7853C299.832 38.3975 299.647 38.2058 299.494 38.0978C299.341 37.9901 299.102 37.884 298.684 37.8439V37.843C298.239 37.801 297.625 37.6323 297.124 37.1096C296.605 36.5684 296.462 35.9148 296.462 35.4162V31.4885ZM298.462 35.4162C298.462 35.6829 298.607 35.8285 298.874 35.8527C301.662 36.1194 302.681 38.5201 302.681 43.6848L302.669 44.6203C302.547 49.1408 301.488 51.2667 298.874 51.5168L298.78 51.5324C298.574 51.5847 298.462 51.7434 298.462 51.9767V55.9055C298.462 56.1385 298.592 56.2792 298.803 56.3107L298.898 56.3176C304.865 56.0357 307.6 51.612 307.765 44.3918L307.772 43.6848C307.772 36.0227 305.057 31.3429 298.874 31.0519C298.632 31.052 298.462 31.2218 298.462 31.4885V35.4162Z" fill="#BF8E1D"/>
<path d="M274.239 31.7308C274.239 31.4884 274.385 31.3429 274.627 31.3429H294.582C294.825 31.3429 294.97 31.4884 294.97 31.7308V49.2614C294.97 52.5348 293.055 53.6501 288.23 53.4319C287.987 53.4319 287.866 53.3107 287.793 53.0924L286.557 49.6251C286.532 49.5766 286.532 49.5281 286.532 49.4796C286.532 49.2372 286.726 49.1887 286.92 49.1887C290.145 49.3584 290.63 49.019 290.63 48.1703V44.8242H278.555V53.0197C278.555 53.2864 278.41 53.4077 278.167 53.4077H274.627C274.385 53.4077 274.239 53.2864 274.239 53.0197V31.7308ZM282.362 35.4164H278.555V40.5568H282.362V35.4164ZM290.63 35.4164H286.702V40.5568H290.63V35.4164Z" fill="#BF8E1D"/>
<path d="M274.239 53.0197C274.239 53.2863 274.385 53.4073 274.627 53.4073H278.167C278.379 53.4073 278.518 53.315 278.549 53.1134L278.556 53.0197V44.8243H290.63V48.17C290.63 49.0186 290.145 49.3583 286.921 49.1886C286.727 49.1886 286.532 49.2372 286.532 49.4796C286.532 49.5281 286.532 49.5766 286.557 49.6251L287.793 53.0929C287.866 53.3108 287.987 53.4317 288.229 53.4318C292.904 53.6432 294.848 52.6031 294.965 49.5616L294.971 49.2618V31.7306C294.971 31.4883 294.824 31.3429 294.582 31.3429V29.3429C295.104 29.3429 295.757 29.5074 296.281 30.0314C296.805 30.5556 296.971 31.2083 296.971 31.7306V49.2618C296.971 51.316 296.334 53.2145 294.452 54.3634C292.821 55.3597 290.601 55.5411 288.14 55.4298V55.4288C287.685 55.4133 287.149 55.2785 286.674 54.8859C286.224 54.5142 286.014 54.062 285.91 53.7638L285.909 53.7648L284.686 50.3331C284.608 50.1326 284.569 49.9489 284.551 49.8009C284.53 49.6327 284.532 49.4836 284.532 49.4796C284.532 48.7074 284.908 47.946 285.646 47.5157C286.191 47.1975 286.733 47.1886 286.921 47.1886H286.973L287.025 47.1915C287.714 47.2278 288.236 47.236 288.63 47.2257V46.8243H280.556V53.0197C280.556 53.5075 280.415 54.2051 279.833 54.7609C279.268 55.3002 278.596 55.4073 278.167 55.4073H274.627C274.198 55.4073 273.526 55.3004 272.961 54.7609C272.379 54.2051 272.239 53.5075 272.239 53.0197V31.7306C272.239 31.2084 272.404 30.5556 272.928 30.0314C273.452 29.5072 274.105 29.3429 274.627 29.3429V31.3429C274.385 31.343 274.239 31.4884 274.239 31.7306V53.0197ZM282.362 35.4161V40.5568H278.556V35.4161H282.362ZM290.63 35.4161V40.5568H286.702V35.4161H290.63ZM294.582 29.3429V31.3429H274.627V29.3429H294.582Z" fill="#BF8E1D"/>
<path d="M262.071 52.6803C257.076 52.6803 254.094 48.8492 254.094 42.4238C254.094 35.9983 257.076 32.1673 262.071 32.1673C267.114 32.1673 270.073 35.9983 270.073 42.4238C270.073 48.8492 267.114 52.6803 262.071 52.6803ZM259.113 42.4238C259.113 46.3275 260.325 47.8309 262.071 47.8309C263.841 47.8309 265.053 46.3275 265.053 42.4238C265.053 38.52 263.841 37.0167 262.071 37.0167C260.325 37.0167 259.113 38.52 259.113 42.4238Z" fill="#BF8E1D"/>
<path d="M270.072 42.4241C270.072 36.1996 267.297 32.409 262.538 32.178L262.071 32.1673C257.076 32.1673 254.094 35.9987 254.094 42.4241L254.103 43.0189C254.276 48.8893 257.045 52.4458 261.608 52.6693L262.071 52.68C266.957 52.6799 269.885 49.0849 270.063 43.0189L270.072 42.4241ZM263.054 42.4241C263.054 40.6181 262.762 39.6992 262.517 39.2943C262.362 39.0396 262.271 39.0169 262.071 39.0169C261.894 39.0169 261.806 39.0301 261.649 39.2894C261.404 39.6964 261.113 40.6186 261.113 42.4241C261.113 44.2294 261.404 45.1509 261.649 45.5579C261.806 45.8173 261.894 45.8304 262.071 45.8304V47.8304L261.909 47.8265C260.358 47.7407 259.262 46.3971 259.127 43.1282L259.113 42.4241C259.113 38.5204 260.326 37.0169 262.071 37.0169L262.235 37.0208C263.916 37.1127 265.054 38.6424 265.054 42.4241L265.039 43.1282C264.899 46.5095 263.73 47.8302 262.071 47.8304V45.8304C262.271 45.8304 262.362 45.8077 262.517 45.553C262.762 45.1481 263.054 44.2297 263.054 42.4241ZM272.072 42.4241C272.072 45.9118 271.274 48.964 269.542 51.1898C267.759 53.4811 265.153 54.6799 262.071 54.68C259.008 54.68 256.41 53.4771 254.631 51.1898C252.901 48.9661 252.094 45.9155 252.094 42.4241C252.094 38.9326 252.901 35.8813 254.631 33.6575C256.41 31.3703 259.009 30.1673 262.071 30.1673C265.153 30.1674 267.759 31.3662 269.542 33.6575C271.274 35.8834 272.072 38.9362 272.072 42.4241Z" fill="#BF8E1D"/>
<path d="M242.508 52.6803C237.513 52.6803 234.531 48.8492 234.531 42.4238C234.531 35.9983 237.513 32.1673 242.508 32.1673C247.551 32.1673 250.51 35.9983 250.51 42.4238C250.51 48.8492 247.551 52.6803 242.508 52.6803ZM239.55 42.4238C239.55 46.3275 240.762 47.8309 242.508 47.8309C244.278 47.8309 245.49 46.3275 245.49 42.4238C245.49 38.52 244.278 37.0167 242.508 37.0167C240.762 37.0167 239.55 38.52 239.55 42.4238Z" fill="#BF8E1D"/>
<path d="M250.509 42.4241C250.509 36.1996 247.734 32.409 242.975 32.178L242.508 32.1673C237.513 32.1673 234.531 35.9987 234.531 42.4241L234.54 43.0189C234.714 48.8893 237.482 52.4458 242.045 52.6693L242.508 52.68C247.394 52.6799 250.322 49.0849 250.5 43.0189L250.509 42.4241ZM243.491 42.4241C243.491 40.6181 243.199 39.6992 242.954 39.2943C242.799 39.0396 242.708 39.0169 242.508 39.0169C242.331 39.0169 242.243 39.0301 242.086 39.2894C241.841 39.6964 241.55 40.6186 241.55 42.4241C241.55 44.2294 241.841 45.1509 242.086 45.5579C242.243 45.8173 242.331 45.8304 242.508 45.8304V47.8304L242.346 47.8265C240.795 47.7407 239.699 46.3971 239.564 43.1282L239.55 42.4241C239.55 38.5204 240.763 37.0169 242.508 37.0169L242.672 37.0208C244.353 37.1127 245.491 38.6424 245.491 42.4241L245.476 43.1282C245.336 46.5095 244.167 47.8302 242.508 47.8304V45.8304C242.708 45.8304 242.799 45.8077 242.954 45.553C243.199 45.1481 243.491 44.2297 243.491 42.4241ZM252.509 42.4241C252.509 45.9118 251.711 48.964 249.979 51.1898C248.196 53.4811 245.59 54.6799 242.508 54.68C239.446 54.68 236.847 53.4771 235.068 51.1898C233.338 48.9661 232.531 45.9155 232.531 42.4241C232.531 38.9326 233.338 35.8813 235.068 33.6575C236.847 31.3703 239.446 30.1673 242.508 30.1673C245.59 30.1674 248.196 31.3662 249.979 33.6575C251.711 35.8834 252.509 38.9362 252.509 42.4241Z" fill="#BF8E1D"/>
<path d="M219.866 52.2923C219.551 52.2923 219.43 52.0741 219.527 51.8073L225.467 37.2834H217.708C217.442 37.2834 217.272 37.1379 217.272 36.8954V32.9917C217.272 32.725 217.442 32.5552 217.708 32.5552H231.359C231.626 32.5552 231.796 32.725 231.796 32.9917V34.2768C231.796 34.4707 231.772 34.6162 231.723 34.786L224.91 51.9528C224.837 52.1468 224.643 52.2923 224.425 52.2923H219.866Z" fill="#BF8E1D"/>
<path d="M231.796 34.2769V32.9918C231.796 32.7583 231.666 32.5991 231.455 32.563L231.36 32.5552V30.5552C231.924 30.5553 232.577 30.7436 233.092 31.2593C233.608 31.7751 233.796 32.4276 233.796 32.9918V34.2769C233.796 34.6774 233.74 35.0082 233.646 35.3355L233.619 35.4312L233.583 35.524L226.769 52.691L226.767 52.69C226.408 53.6031 225.509 54.2923 224.425 54.2925H219.867C219.256 54.2925 218.404 54.0607 217.87 53.2457C217.36 52.4683 217.459 51.6401 217.647 51.1236L217.661 51.0865L217.676 51.0504L222.489 39.2838H217.708C217.226 39.2838 216.601 39.1505 216.069 38.6822C215.505 38.1863 215.272 37.5116 215.272 36.8951V32.9918C215.272 32.4275 215.46 31.7751 215.976 31.2593C216.492 30.7436 217.144 30.5552 217.708 30.5552V32.5552L217.613 32.563C217.402 32.5993 217.272 32.7585 217.272 32.9918V36.8951C217.272 37.1072 217.402 37.2457 217.613 37.2769L217.708 37.2838H225.467L219.527 51.8072C219.442 52.0406 219.524 52.2374 219.757 52.2828L219.867 52.2925H224.425L224.505 52.2857C224.69 52.2552 224.846 52.1224 224.91 51.9527L231.723 34.7857C231.759 34.6586 231.782 34.5451 231.792 34.4146L231.796 34.2769ZM231.36 30.5552V32.5552H217.708V30.5552H231.36Z" fill="#BF8E1D"/>
<path d="M210.048 56.9477C209.733 56.9477 209.587 56.7295 209.684 56.4628L211.091 52.2923C210.169 51.8559 209.563 51.0072 209.563 49.8676C209.563 48.2916 210.8 47.1762 212.376 47.1762C213.976 47.1762 215.164 48.2916 215.164 49.8676C215.164 51.1285 214.776 52.0499 213.733 54.3533L212.691 56.6325C212.618 56.8265 212.448 56.9477 212.206 56.9477H210.048Z" fill="#BF8E1D"/>
<path d="M215.164 49.8676C215.164 48.2916 213.976 47.1762 212.375 47.1762C210.8 47.1763 209.563 48.2916 209.563 49.8676C209.563 51.0072 210.169 51.856 211.09 52.2924L209.684 56.4623C209.599 56.6958 209.7 56.8926 209.938 56.9379L210.048 56.9477H212.206C212.448 56.9477 212.618 56.8262 212.691 56.6323L213.734 54.353C214.776 52.0498 215.164 51.1284 215.164 49.8676ZM217.164 49.8676C217.164 51.6385 216.557 52.9652 215.555 55.1782L215.552 55.185L214.509 57.4643C214.094 58.4119 213.179 58.9477 212.206 58.9477H210.048C209.442 58.9477 208.631 58.7236 208.091 57.978C207.561 57.2451 207.589 56.4164 207.792 55.8237H207.79L208.743 52.9975C208.009 52.1888 207.563 51.1159 207.563 49.8676C207.563 47.0725 209.813 45.1763 212.375 45.1762C214.997 45.1762 217.164 47.1057 217.164 49.8676Z" fill="#BF8E1D"/>
<path d="M196.912 52.2923C196.597 52.2923 196.476 52.0741 196.573 51.8073L202.513 37.2834H194.754C194.488 37.2834 194.318 37.1379 194.318 36.8954V32.9917C194.318 32.725 194.488 32.5552 194.754 32.5552H208.405C208.672 32.5552 208.842 32.725 208.842 32.9917V34.2768C208.842 34.4707 208.818 34.6162 208.769 34.786L201.956 51.9528C201.883 52.1468 201.689 52.2923 201.471 52.2923H196.912Z" fill="#BF8E1D"/>
<path d="M208.842 34.2769V32.9918C208.842 32.7583 208.712 32.5991 208.5 32.563L208.406 32.5552V30.5552C208.97 30.5553 209.623 30.7436 210.138 31.2593C210.654 31.7751 210.842 32.4276 210.842 32.9918V34.2769C210.842 34.6774 210.785 35.0082 210.692 35.3355L210.665 35.4312L210.628 35.524L203.815 52.691L203.813 52.69C203.454 53.6031 202.555 54.2923 201.471 54.2925H196.913C196.302 54.2925 195.45 54.0607 194.916 53.2457C194.406 52.4683 194.505 51.6401 194.693 51.1236L194.707 51.0865L194.722 51.0504L199.535 39.2838H194.754C194.272 39.2838 193.647 39.1505 193.115 38.6822C192.551 38.1863 192.318 37.5116 192.318 36.8951V32.9918C192.318 32.4275 192.506 31.7751 193.022 31.2593C193.538 30.7436 194.19 30.5552 194.754 30.5552V32.5552L194.659 32.563C194.448 32.5993 194.318 32.7585 194.318 32.9918V36.8951C194.318 37.1072 194.448 37.2457 194.659 37.2769L194.754 37.2838H202.513L196.573 51.8072C196.488 52.0406 196.57 52.2374 196.803 52.2828L196.913 52.2925H201.471L201.551 52.2857C201.736 52.2552 201.892 52.1224 201.956 51.9527L208.769 34.7857C208.805 34.6586 208.828 34.5451 208.837 34.4146L208.842 34.2769ZM208.406 30.5552V32.5552H194.754V30.5552H208.406Z" fill="#BF8E1D"/>
<path d="M190.89 56.3173C184.683 56.0263 181.967 51.3467 181.967 43.6846C181.967 36.0468 184.683 31.3429 190.866 31.0519C191.133 31.0519 191.254 31.2217 191.254 31.4884V35.4164C191.254 35.6831 191.133 35.8286 190.89 35.8528C188.053 36.1196 187.035 38.52 187.035 43.6846C187.035 48.8492 188.053 51.2497 190.89 51.5164C191.133 51.5406 191.254 51.7104 191.254 51.9771V55.9051C191.254 56.1718 191.133 56.3173 190.89 56.3173Z" fill="#BF8E1D"/>
<path d="M191.253 31.4885C191.253 31.2217 191.132 31.0519 190.866 31.0519C184.683 31.343 181.967 36.047 181.967 43.6848L181.975 44.3937C182.135 51.4013 184.703 55.749 190.319 56.2775L190.89 56.3176C191.102 56.3176 191.222 56.2059 191.249 55.9992L191.253 55.9055V51.9767C191.253 51.7102 191.133 51.541 190.89 51.5168C188.23 51.2667 187.17 49.1408 187.047 44.6203L187.035 43.6848C187.035 38.5202 188.053 36.1195 190.89 35.8527C191.133 35.8285 191.253 35.6829 191.253 35.4162V31.4885ZM193.253 35.4162C193.253 35.8289 193.162 36.4517 192.7 37.006C192.215 37.5877 191.576 37.7942 191.089 37.843L191.078 37.8439C190.642 37.8849 190.392 37.9948 190.232 38.1057C190.073 38.2157 189.888 38.4074 189.705 38.7922C189.298 39.6451 189.035 41.154 189.035 43.6848C189.035 46.2155 189.298 47.7244 189.705 48.5773C189.888 48.962 190.073 49.1538 190.232 49.2639C190.372 49.3608 190.58 49.4571 190.922 49.507L191.078 49.5256L191.089 49.5266C191.668 49.5844 192.3 49.8533 192.749 50.4367C193.162 50.9744 193.253 51.5641 193.253 51.9767V55.9055C193.253 56.304 193.167 56.9543 192.672 57.5236C192.134 58.1429 191.422 58.3176 190.89 58.3176H190.843L190.796 58.3146C187.135 58.143 184.288 56.629 182.441 53.881C180.67 51.2462 179.967 47.7001 179.967 43.6848C179.967 39.6802 180.67 36.1363 182.436 33.5002C184.277 30.7516 187.116 29.2259 190.772 29.0539L190.819 29.0519H190.866C191.447 29.0519 192.164 29.2569 192.691 29.884C193.167 30.451 193.253 31.0898 193.253 31.4885V35.4162Z" fill="#BF8E1D"/>
<path d="M163.54 35.2709C163.637 35.4891 163.588 35.6589 163.394 35.8043L160.412 37.8896C160.339 37.9381 160.242 37.9623 160.169 37.9623C160.048 37.9623 159.951 37.8896 159.878 37.7441C159.127 36.2408 157.963 34.6405 156.726 33.5251C156.629 33.4281 156.581 33.3311 156.581 33.2342C156.581 33.1372 156.629 33.0402 156.75 32.9674L159.563 30.9792C159.636 30.9307 159.733 30.8822 159.806 30.8822C159.903 30.8822 160 30.9307 160.097 31.0034C161.479 32.1188 162.764 33.7433 163.54 35.2709ZM162.958 44.2423C166.28 42.2783 168.05 38.9807 168.559 35.5376C168.559 35.4649 168.583 35.4164 168.607 35.3679V35.1739H164.728C164.485 35.1739 164.34 35.0284 164.34 34.786V31.5369C164.34 31.2944 164.485 31.1489 164.728 31.1489H172.729C172.972 31.1489 173.117 31.2944 173.117 31.5611C173.069 36.847 174.281 41.5509 178.791 44.1211C178.936 44.1938 179.009 44.2908 179.009 44.412C179.009 44.4848 178.985 44.5575 178.912 44.6545L176.415 47.9278C176.318 48.0491 176.221 48.0976 176.124 48.0976C176.027 48.0976 175.954 48.0733 175.857 48.0006C173.917 46.4488 172.002 44.1938 170.862 41.5266C169.698 44.2423 167.807 46.6912 165.722 48.0491C165.625 48.0976 165.552 48.1218 165.479 48.1218C165.382 48.1218 165.285 48.0733 165.188 47.9521L162.958 45.1637V46.57C163.709 48.0248 164.849 48.6552 166.886 48.8492C167.953 48.9462 169.213 49.0189 170.644 49.0189C172.996 49.0189 175.809 48.8735 178.936 48.5825C179.252 48.5583 179.397 48.728 179.3 48.9947L178.136 52.462C178.064 52.6802 177.942 52.7772 177.724 52.8015C175.469 52.9712 172.753 53.0682 170.402 53.0682C169.044 53.0682 167.807 53.044 166.837 52.947C164.582 52.753 162.546 52.3165 161.091 50.7162C160.363 51.5649 159.393 52.3893 158.424 53.1409C158.351 53.2137 158.254 53.2379 158.181 53.2379C158.084 53.2379 157.963 53.1652 157.89 53.044L155.902 49.8191C155.853 49.7464 155.829 49.6494 155.829 49.6009C155.829 49.4554 155.902 49.3584 156.072 49.2857C157.066 48.825 158.036 48.1703 158.787 47.5156V43.2239H156.799C156.557 43.2239 156.411 43.0784 156.411 42.836V39.5141C156.411 39.2717 156.557 39.1262 156.799 39.1262H162.57C162.812 39.1262 162.958 39.2717 162.958 39.5141V44.2423Z" fill="#BF8E1D"/>
<path d="M170.862 41.5267C172.002 44.1939 173.918 46.4486 175.857 48.0004C175.954 48.073 176.027 48.098 176.124 48.098C176.221 48.098 176.318 48.0492 176.415 47.9281L178.912 44.6547C178.967 44.582 178.994 44.5228 179.004 44.4672L179.009 44.4125C179.009 44.2913 178.936 44.1942 178.791 44.1215C174.281 41.5513 173.069 36.8468 173.117 31.5609C173.117 31.3276 173.006 31.1871 172.815 31.1556L172.729 31.1488V29.1488C173.253 29.1489 173.927 29.316 174.459 29.8724C174.98 30.4173 175.117 31.0754 175.117 31.5609V31.5795C175.071 36.6319 176.236 40.3628 179.781 42.3832L179.779 42.3851C180.321 42.6874 181.009 43.3368 181.009 44.4125C181.009 45.0366 180.763 45.5208 180.513 45.8549L180.507 45.8607L180.502 45.8676L179.846 46.726C180.163 46.8398 180.492 47.0358 180.778 47.3627C181.475 48.1586 181.377 49.0926 181.194 49.6302L181.196 49.6312L180.033 53.0931L180.034 53.0941C179.922 53.4296 179.702 53.8832 179.251 54.2523C178.796 54.6246 178.304 54.7496 177.945 54.7894L177.91 54.7933L177.874 54.7963C175.566 54.97 172.8 55.0677 170.401 55.0677C169.051 55.0677 167.739 55.0443 166.666 54.9388V54.9398C164.919 54.7896 162.949 54.4838 161.229 53.4115C160.728 53.8628 160.207 54.2853 159.71 54.6722C159.193 55.1179 158.597 55.2377 158.181 55.2377C157.221 55.2375 156.528 54.6468 156.188 54.0922V54.0931L154.199 50.8685L154.201 50.8676C154.068 50.6537 153.985 50.4494 153.936 50.2894C153.9 50.1732 153.858 50.0067 153.839 49.809L153.829 49.601L153.835 49.4349C153.862 49.0417 153.991 48.6025 154.298 48.2015C154.599 47.8079 154.966 47.5922 155.231 47.472L155.23 47.4711C155.766 47.2228 156.303 46.897 156.787 46.5482V45.223C156.267 45.2205 155.62 45.0558 155.1 44.5355C154.575 44.0113 154.411 43.3585 154.411 42.8363V39.514C154.411 38.9918 154.575 38.3391 155.1 37.8148C155.624 37.2906 156.277 37.1264 156.799 37.1263V39.1263L156.713 39.1332C156.523 39.1643 156.411 39.3019 156.411 39.514V42.8363C156.411 43.0483 156.523 43.1861 156.713 43.2172L156.799 43.224H158.787V47.516C158.035 48.1706 157.065 48.8249 156.071 49.2855C155.902 49.3583 155.829 49.4555 155.829 49.601C155.829 49.6494 155.853 49.7461 155.901 49.8187L157.89 53.0443C157.962 53.1653 158.084 53.2375 158.181 53.2377C158.253 53.2377 158.351 53.2137 158.424 53.141C159.394 52.3894 160.363 51.5648 161.091 50.7162C162.546 52.3164 164.582 52.7527 166.837 52.9467C167.807 53.0436 169.044 53.0677 170.401 53.0677C172.459 53.0677 174.796 52.994 176.858 52.8617L177.725 52.8011C177.942 52.7768 178.064 52.6803 178.137 52.4623L179.3 48.9945C179.397 48.7278 179.252 48.5582 178.937 48.5824C175.809 48.8734 172.996 49.0189 170.644 49.0189V47.0189C171.069 47.0189 171.512 47.0122 171.97 47.0023C171.593 46.5618 171.229 46.0972 170.884 45.6107C170.55 46.0966 170.196 46.5648 169.822 47.0082C170.089 47.0137 170.363 47.0189 170.644 47.0189V49.0189C169.213 49.0189 167.952 48.946 166.886 48.849C164.849 48.655 163.71 48.0245 162.958 46.5697V45.1635L165.188 47.9525C165.285 48.0735 165.383 48.1215 165.479 48.1215C165.552 48.1214 165.625 48.0976 165.722 48.0492C167.807 46.6914 169.698 44.2424 170.862 41.5267ZM159.943 28.8861C160.44 28.9157 160.829 29.1003 161.08 29.2552L161.297 29.4037L161.325 29.4252L161.353 29.4467C161.764 29.7785 162.164 30.1475 162.549 30.5404C162.656 30.2966 162.81 30.0553 163.028 29.8373C163.553 29.3131 164.205 29.1488 164.728 29.1488V31.1488C164.485 31.1489 164.34 31.2943 164.34 31.5365V34.7855C164.34 35.0279 164.485 35.1741 164.728 35.1742H168.607V35.3676C168.583 35.416 168.559 35.4648 168.559 35.5375C168.049 38.9805 166.28 42.2785 162.958 44.2426V39.514C162.958 39.302 162.846 39.1644 162.656 39.1332L162.569 39.1263H156.799V37.1263H157.195C156.651 36.3296 156.02 35.5817 155.387 35.0101L155.349 34.976L155.312 34.9398C154.998 34.6249 154.581 34.0483 154.581 33.2338C154.581 32.4024 155.019 31.7176 155.625 31.3138L158.408 29.3461L158.431 29.3304L158.454 29.3148C158.567 29.2396 158.717 29.1514 158.896 29.0746C159.044 29.0115 159.376 28.8822 159.806 28.8822L159.943 28.8861ZM159.806 30.8822C159.733 30.8822 159.636 30.9305 159.563 30.9789L156.751 32.9672L156.673 33.0258C156.608 33.0882 156.581 33.1611 156.581 33.2338C156.581 33.3307 156.63 33.4278 156.727 33.5248C157.963 34.6401 159.126 36.2412 159.878 37.7445C159.951 37.8897 160.048 37.9621 160.169 37.9623C160.242 37.9623 160.339 37.9385 160.412 37.89L163.395 35.8041C163.588 35.6587 163.637 35.4889 163.54 35.2709C162.813 33.8387 161.637 32.3212 160.354 31.2181L160.097 31.0033C160 30.9306 159.903 30.8822 159.806 30.8822ZM172.729 29.1488V31.1488H164.728V29.1488H172.729ZM164.958 39.6351C165.456 38.8754 165.842 38.046 166.126 37.1742H164.861C164.77 37.2636 164.679 37.3407 164.594 37.4047L164.567 37.4242L164.54 37.4437L164.157 37.7103C164.195 37.7434 164.232 37.7783 164.269 37.8148C164.793 38.3391 164.958 38.9918 164.958 39.514V39.6351Z" fill="#BF8E1D"/>
<path d="M139.632 31.0277C139.632 30.7852 139.778 30.6397 140.02 30.6397H143.851C144.094 30.6397 144.239 30.7852 144.239 31.0277V33.2584H151.974C152.217 33.2584 152.362 33.4039 152.362 33.6463V48.3885C152.362 48.631 152.217 48.7765 151.974 48.7765H144.239V53.0924C144.239 53.3349 144.094 53.4804 143.851 53.4804H140.045C139.802 53.4804 139.657 53.3349 139.657 53.0924V48.7765H132.092C131.849 48.7765 131.704 48.631 131.704 48.3885V33.6463C131.704 33.4039 131.849 33.2584 132.092 33.2584H139.632V31.0277ZM139.681 37.2106H135.947V39.1262L139.681 39.1504V37.2106ZM144.191 39.1746L148.095 39.1989V37.2106H144.191V39.1746ZM139.681 42.6662L135.947 42.642V44.8484H139.681V42.6662ZM148.095 42.7147L144.191 42.6905V44.8484H148.095V42.7147Z" fill="#BF8E1D"/>
<path d="M139.664 53.1788C139.69 53.3419 139.795 53.447 139.958 53.4737L140.044 53.4805H143.851L143.938 53.4737C144.101 53.4469 144.206 53.3418 144.233 53.1788L144.24 53.0928V48.7764H151.974L152.06 48.7696C152.223 48.743 152.328 48.6379 152.355 48.4747L152.362 48.3887V33.6465C152.362 33.4342 152.251 33.2957 152.06 33.2647L151.974 33.2589V31.2589C152.496 31.2589 153.149 31.423 153.673 31.9473C154.198 32.4716 154.362 33.1243 154.362 33.6465V48.3887C154.362 48.911 154.198 49.5637 153.673 50.088C153.149 50.6122 152.496 50.7764 151.974 50.7764H146.24V53.0928C146.24 53.615 146.074 54.2669 145.55 54.7911C145.026 55.3154 144.373 55.4805 143.851 55.4805H140.044C139.522 55.4805 138.869 55.3153 138.345 54.7911C137.821 54.267 137.657 53.6149 137.657 53.0928V50.7764H132.091C131.569 50.7764 130.916 50.6122 130.392 50.088C129.868 49.5637 129.704 48.9109 129.704 48.3887V33.6465C129.704 33.1244 129.868 32.4716 130.392 31.9473C130.916 31.4231 131.569 31.2589 132.091 31.2589V33.2589L132.005 33.2647C131.815 33.2958 131.704 33.4343 131.704 33.6465V48.3887C131.704 48.631 131.849 48.7763 132.091 48.7764H139.657V53.0928L139.664 53.1788ZM139.681 42.6661V44.8487H135.947V42.6417L139.681 42.6661ZM148.094 42.7149V44.8487H144.191V42.6905L148.094 42.7149ZM148.094 37.211V39.1993L144.191 39.1749V37.211H148.094ZM139.681 37.211V39.1505L135.947 39.126V37.211H139.681ZM144.24 31.0274C144.24 30.7851 144.093 30.6397 143.851 30.6397V28.6397C144.373 28.6397 145.026 28.8041 145.55 29.3282C146.075 29.8524 146.24 30.5052 146.24 31.0274V31.2589H151.974V33.2589H144.24V31.0274ZM137.632 31.0274C137.632 30.5052 137.797 29.8524 138.321 29.3282C138.845 28.804 139.498 28.6398 140.02 28.6397V30.6397C139.778 30.6398 139.632 30.7852 139.632 31.0274V33.2589H132.091V31.2589H137.632V31.0274ZM143.851 28.6397V30.6397H140.02V28.6397H143.851Z" fill="#BF8E1D"/>
<path d="M122.684 52.5348C114.197 52.4378 111.045 48.6795 111.045 44.8242C111.045 41.8418 112.936 38.7867 115.749 37.3319C113.009 37.4289 109.566 37.5986 106.729 37.6471C106.438 37.6471 106.269 37.5016 106.269 37.1864L106.196 33.6706C106.196 33.3796 106.341 33.2099 106.632 33.2099C111.748 33.2099 120.429 33.2099 125.787 33.0887C126.078 33.0887 126.248 33.2342 126.248 33.5251V36.9924C126.248 37.2834 126.103 37.4531 125.812 37.4531C125.084 37.4531 124.405 37.5259 123.751 37.6471C120.768 38.1078 115.846 40.9205 115.846 44.1696C115.846 46.2548 118.101 47.9521 123.435 47.8551C123.726 47.8551 123.872 48.0006 123.872 48.2188V48.34L123.193 52.1226C123.144 52.4135 122.975 52.5348 122.684 52.5348ZM122.781 44.703C122.49 44.8242 122.296 44.703 122.199 44.4363C121.762 43.1997 121.108 41.9388 120.356 40.9447C120.283 40.8235 120.235 40.7265 120.235 40.6295C120.235 40.5083 120.332 40.387 120.502 40.3143L121.932 39.7566C122.175 39.6596 122.369 39.6839 122.538 39.9021C123.29 40.775 124.163 42.2783 124.648 43.4664C124.745 43.7331 124.648 43.9513 124.381 44.0483L122.781 44.703ZM126.127 43.3694C125.836 43.4906 125.642 43.3694 125.545 43.1027C125.108 41.9873 124.333 40.6053 123.654 39.7324C123.581 39.6354 123.532 39.5384 123.532 39.4414C123.532 39.2959 123.629 39.1747 123.823 39.1019L125.181 38.5443C125.424 38.4473 125.642 38.4715 125.812 38.6655C126.588 39.5384 127.509 41.0659 127.921 42.1813C128.018 42.448 127.921 42.6662 127.654 42.7632L126.127 43.3694Z" fill="#BF8E1D"/>
<path d="M126.249 33.5252C126.249 33.2343 126.078 33.0888 125.788 33.0887C120.429 33.2099 111.748 33.2098 106.632 33.2098C106.341 33.2098 106.196 33.3798 106.196 33.6707L106.268 37.1863C106.268 37.462 106.398 37.6082 106.625 37.6404L106.729 37.6473C109.566 37.5988 113.01 37.4288 115.75 37.3318C112.937 38.7866 111.045 41.8417 111.045 44.824L111.054 45.1854C111.241 48.7907 114.258 52.2133 121.904 52.5154L122.684 52.535C122.975 52.5349 123.144 52.4135 123.193 52.1229L123.872 48.3397V48.2186C123.871 48.0005 123.726 47.8553 123.435 47.8553C118.268 47.9492 115.99 46.3592 115.853 44.3641L115.846 44.1697C115.846 40.9207 120.768 38.108 123.75 37.6473C124.405 37.526 125.085 37.4529 125.812 37.4529C126.103 37.4528 126.249 37.2828 126.249 36.992V33.5252ZM122.539 39.9022C122.369 39.6839 122.175 39.6597 121.932 39.7567L120.501 40.3143C120.332 40.387 120.235 40.5085 120.235 40.6297C120.235 40.7266 120.283 40.824 120.356 40.9451C121.108 41.9392 121.762 43.1998 122.199 44.4363C122.296 44.703 122.49 44.8242 122.781 44.7029L124.381 44.0486C124.648 43.9517 124.745 43.7332 124.648 43.4666C124.163 42.2786 123.29 40.7751 122.539 39.9022ZM125.812 38.6658C125.642 38.4719 125.424 38.4478 125.181 38.5447L123.824 39.1024C123.63 39.1751 123.533 39.2958 123.533 39.4412C123.533 39.5382 123.581 39.6353 123.654 39.7322C124.333 40.605 125.108 41.9871 125.544 43.1024C125.641 43.369 125.836 43.4901 126.126 43.369L127.655 42.7635C127.921 42.6665 128.018 42.448 127.921 42.1815C127.561 41.2055 126.81 39.9137 126.108 39.0213L125.812 38.6658ZM117.846 44.1697C117.846 44.3505 117.888 44.6865 118.6 45.076C119.041 45.3168 119.693 45.5417 120.607 45.6883C120.472 45.4857 120.379 45.2866 120.319 45.1199L120.313 45.1024C119.96 44.1033 119.442 43.1001 118.875 42.3113C118.14 43.0508 117.846 43.709 117.846 44.1697ZM128.249 36.992C128.249 37.3131 128.188 37.7431 127.968 38.1697C128.643 39.0993 129.297 40.2452 129.697 41.2303L129.797 41.4881L129.8 41.4979C129.981 41.9938 130.058 42.6744 129.745 43.3631C129.439 44.0348 128.893 44.4246 128.391 44.6199L128.392 44.6219L126.865 45.2283L126.864 45.2274C126.598 45.3339 126.271 45.4134 125.913 45.4139C125.67 45.6362 125.398 45.7932 125.137 45.8973L125.138 45.8992L124.59 46.1229C124.756 46.2064 124.922 46.3121 125.08 46.45C125.664 46.9612 125.872 47.6445 125.872 48.2186V48.5184L125.162 52.4764L125.16 52.4754C125.077 52.9464 124.845 53.5547 124.265 54.0106C123.7 54.4543 123.083 54.5349 122.684 54.535H122.661C118.155 54.4834 114.765 53.4598 112.457 51.6697C110.096 49.8395 109.045 47.3402 109.045 44.824C109.045 42.9742 109.611 41.1362 110.593 39.533C109.275 39.5821 107.962 39.6268 106.763 39.6473H106.729C106.276 39.6472 105.582 39.5329 105.003 38.9764C104.426 38.421 104.277 37.7285 104.27 37.2264L104.269 37.2274L104.196 33.7117V33.6707C104.196 33.2173 104.309 32.5445 104.835 31.9744C105.387 31.3774 106.095 31.2098 106.632 31.2098L111.031 31.2078C115.877 31.2021 121.744 31.1801 125.742 31.0897L125.765 31.0887H125.788C126.241 31.0887 126.913 31.2024 127.483 31.7283C128.08 32.2795 128.249 32.9881 128.249 33.5252V36.992Z" fill="#BF8E1D"/>
<path d="M88.5167 52.2923C88.25 52.2923 88.1045 52.1226 88.1045 51.8558V32.9917C88.1045 32.725 88.25 32.5552 88.5167 32.5552H101.513C101.756 32.5552 101.95 32.725 101.95 32.9917V36.459C101.95 36.7257 101.756 36.8954 101.513 36.8954H93.0751V40.1203H100.519C100.786 40.1203 100.955 40.2658 100.955 40.5325V43.8786C100.955 44.1453 100.786 44.315 100.519 44.315H93.0751V47.9521H101.828C102.071 47.9521 102.265 48.1218 102.265 48.3885V51.8558C102.265 52.1226 102.071 52.2923 101.828 52.2923H88.5167Z" fill="#BF8E1D"/>
<path d="M88.1113 51.9507C88.1382 52.1321 88.2454 52.2539 88.4229 52.2847L88.5166 52.2925H101.828L101.917 52.2847C102.088 52.2537 102.221 52.1319 102.256 51.9507L102.265 51.856V48.3882C102.265 48.1217 102.071 47.9517 101.828 47.9517V45.9517C103.1 45.9517 104.264 46.9439 104.265 48.3882V51.856C104.265 53.3004 103.1 54.2925 101.828 54.2925H88.5166C87.9438 54.2925 87.2609 54.0959 86.7383 53.5279C86.2384 52.9843 86.1045 52.3382 86.1045 51.856V32.9918C86.1045 32.5094 86.2381 31.8626 86.7383 31.3189C87.2609 30.7509 87.9438 30.5553 88.5166 30.5552V32.5552C88.2499 32.5553 88.1045 32.7251 88.1045 32.9918V51.856L88.1113 51.9507ZM100.955 43.8785V40.5328C100.955 40.2994 100.825 40.159 100.614 40.1275L100.519 40.1207H93.0752V36.8951H101.513C101.755 36.8951 101.949 36.7253 101.949 36.4586V32.9918C101.949 32.725 101.755 32.5552 101.513 32.5552V30.5552C102.785 30.5552 103.949 31.5473 103.949 32.9918V36.4586C103.949 37.6256 103.189 38.4968 102.227 38.7886C102.767 39.3067 102.955 39.9722 102.955 40.5328V43.8785C102.955 44.4428 102.767 45.0951 102.251 45.6109C102.116 45.7464 101.971 45.8589 101.82 45.9517H101.828V47.9517H93.0752V44.315H100.519C100.785 44.315 100.955 44.1452 100.955 43.8785ZM101.513 30.5552V32.5552H88.5166V30.5552H101.513Z" fill="#BF8E1D"/>
<path d="M66.3248 52.2923C66.0581 52.2923 65.9126 52.1226 65.9126 51.8558V32.9917C65.9126 32.725 66.0581 32.5552 66.3248 32.5552H70.6893C70.9317 32.5552 71.0772 32.6522 71.1984 32.8462L78.2543 44.5817V32.9917C78.2543 32.725 78.3998 32.5552 78.6908 32.5552H82.643C82.9097 32.5552 83.0552 32.725 83.0552 32.9917V51.8558C83.0552 52.1226 82.9097 52.2923 82.643 52.2923H78.3028C78.0603 52.2923 77.8906 52.1953 77.7936 52.0013L70.7135 40.2173V51.8558C70.7135 52.1226 70.568 52.2923 70.3013 52.2923H66.3248Z" fill="#BF8E1D"/>
<path d="M65.9194 51.9507C65.9464 52.1321 66.0535 52.2539 66.231 52.2847L66.3247 52.2925H70.3013L70.396 52.2847C70.5729 52.2536 70.6797 52.1318 70.7065 51.9507L70.7134 51.856V40.2173L77.7935 52.0015C77.8783 52.1712 78.0191 52.2665 78.2153 52.2877L78.3032 52.2925H82.6431L82.7378 52.2847C82.9147 52.2536 83.0215 52.1318 83.0483 51.9507L83.0552 51.856V32.9918C83.0552 32.7586 82.944 32.5993 82.7378 32.563L82.6431 32.5552V30.5552C83.2158 30.5552 83.8988 30.7509 84.4214 31.3189C84.9216 31.8626 85.0552 32.5094 85.0552 32.9918V51.856C85.0551 52.3382 84.9213 52.9843 84.4214 53.5279C83.8988 54.096 83.2159 54.2925 82.6431 54.2925H78.3032C77.9167 54.2925 77.4531 54.2137 77.0015 53.9556C76.5802 53.7149 76.2725 53.3761 76.0659 53.0093L72.7134 47.4283V51.856C72.7133 52.3383 72.5795 52.9843 72.0796 53.5279C71.557 54.096 70.8741 54.2925 70.3013 54.2925H66.3247C65.7519 54.2925 65.069 54.0959 64.5464 53.5279C64.0465 52.9843 63.9126 52.3382 63.9126 51.856V32.9918C63.9126 32.5094 64.0462 31.8626 64.5464 31.3189C65.069 30.7509 65.7519 30.5553 66.3247 30.5552V32.5552C66.058 32.5553 65.9126 32.7251 65.9126 32.9918V51.856L65.9194 51.9507ZM70.689 30.5552C71.0879 30.5552 71.5558 30.6391 72.0093 30.9078C72.4497 31.1689 72.7246 31.5155 72.894 31.7867L72.9038 31.8013L76.2544 37.3736V32.9918C76.2544 32.5089 76.3894 31.8419 76.9204 31.2886C77.4652 30.7212 78.155 30.5552 78.6909 30.5552V32.5552L78.5884 32.563C78.3657 32.5992 78.2544 32.7584 78.2544 32.9918V44.5816L71.1987 32.8463C71.0775 32.6523 70.9314 32.5552 70.689 32.5552V30.5552ZM82.6431 30.5552V32.5552H78.6909V30.5552H82.6431ZM70.689 30.5552V32.5552H66.3247V30.5552H70.689Z" fill="#BF8E1D"/>
<path d="M56.2564 52.2923C55.9897 52.2923 55.8442 52.1226 55.8442 51.8558V32.9917C55.8442 32.725 55.9897 32.5552 56.2564 32.5552H60.4269C60.6936 32.5552 60.8634 32.725 60.8634 32.9917V51.8558C60.8634 52.1226 60.6936 52.2923 60.4269 52.2923H56.2564Z" fill="#BF8E1D"/>
<path d="M55.8511 51.9507C55.878 52.1321 55.9852 52.2539 56.1626 52.2847L56.2563 52.2925H60.4272L60.522 52.2847C60.7033 52.2538 60.8251 52.1321 60.856 51.9507L60.8638 51.856V32.9918C60.8638 32.7583 60.7333 32.5991 60.522 32.563L60.4272 32.5552V30.5552C60.9915 30.5553 61.644 30.7436 62.1597 31.2593C62.6753 31.7751 62.8638 32.4275 62.8638 32.9918V51.856C62.8637 52.4202 62.6753 53.0727 62.1597 53.5884C61.644 54.1041 60.9915 54.2925 60.4272 54.2925H56.2563C55.6836 54.2925 55.0006 54.0959 54.478 53.5279C53.9782 52.9843 53.8443 52.3382 53.8442 51.856V32.9918C53.8442 32.5094 53.9778 31.8626 54.478 31.3189C55.0006 30.7509 55.6836 30.5553 56.2563 30.5552V32.5552C55.9897 32.5553 55.8442 32.7251 55.8442 32.9918V51.856L55.8511 51.9507ZM60.4272 30.5552V32.5552H56.2563V30.5552H60.4272Z" fill="#BF8E1D"/>
<path d="M38.2799 52.2923C38.0132 52.2923 37.8677 52.1226 37.8677 51.8558V32.9917C37.8677 32.725 38.0132 32.5552 38.2799 32.5552H42.4504C42.7171 32.5552 42.8868 32.725 42.8868 32.9917V47.5399H51.543C51.7854 47.5399 51.9552 47.6854 51.9552 47.9278V51.8558C51.9552 52.1226 51.7854 52.2923 51.543 52.2923H38.2799Z" fill="#BF8E1D"/>
<path d="M37.8745 51.9507C37.9014 52.1321 38.0086 52.2539 38.186 52.2847L38.2798 52.2925H51.5435L51.6304 52.2847C51.7976 52.2537 51.9172 52.132 51.9478 51.9507L51.9556 51.856V47.9283C51.9556 47.7161 51.8253 47.5776 51.6304 47.5464L51.5435 47.5396V45.5396C52.0583 45.5397 52.6787 45.6981 53.1919 46.1685C53.7259 46.6581 53.9556 47.3153 53.9556 47.9283V51.856C53.9555 52.4187 53.7689 53.0527 53.2827 53.5591C52.7917 54.0706 52.1465 54.2924 51.5435 54.2925H38.2798C37.707 54.2925 37.0241 54.0959 36.5015 53.5279C36.0016 52.9843 35.8677 52.3382 35.8677 51.856V32.9918C35.8677 32.5094 36.0013 31.8626 36.5015 31.3189C37.0241 30.7509 37.707 30.5553 38.2798 30.5552V32.5552C38.0131 32.5553 37.8677 32.7251 37.8677 32.9918V51.856L37.8745 51.9507ZM42.8872 32.9918C42.8872 32.7583 42.7567 32.5991 42.5454 32.563L42.4507 32.5552V30.5552C43.0149 30.5553 43.6674 30.7437 44.1831 31.2593C44.6987 31.7751 44.8872 32.4275 44.8872 32.9918V45.5396H51.5435V47.5396H42.8872V32.9918ZM42.4507 30.5552V32.5552H38.2798V30.5552H42.4507Z" fill="#BF8E1D"/>
<path d="M298.898 54.3173C298.632 54.3173 298.462 54.1718 298.462 53.9051V49.9771C298.462 49.7104 298.607 49.5406 298.874 49.5164C301.662 49.2497 302.681 46.8492 302.681 41.6846C302.681 36.52 301.662 34.1196 298.874 33.8528C298.607 33.8286 298.462 33.6831 298.462 33.4164V29.4884C298.462 29.2217 298.632 29.0519 298.874 29.0519C305.057 29.3429 307.773 34.0226 307.773 41.6846C307.773 49.3224 305.057 54.0263 298.898 54.3173Z" fill="white"/>
<path d="M274.239 29.7308C274.239 29.4884 274.385 29.3429 274.627 29.3429H294.582C294.825 29.3429 294.97 29.4884 294.97 29.7308V47.2614C294.97 50.5348 293.055 51.6501 288.23 51.4319C287.987 51.4319 287.866 51.3107 287.793 51.0924L286.557 47.6251C286.532 47.5766 286.532 47.5281 286.532 47.4796C286.532 47.2372 286.726 47.1887 286.92 47.1887C290.145 47.3584 290.63 47.019 290.63 46.1703V42.8242H278.555V51.0197C278.555 51.2864 278.41 51.4077 278.167 51.4077H274.627C274.385 51.4077 274.239 51.2864 274.239 51.0197V29.7308ZM282.362 33.4164H278.555V38.5568H282.362V33.4164ZM290.63 33.4164H286.702V38.5568H290.63V33.4164Z" fill="white"/>
<path d="M262.071 50.6803C257.076 50.6803 254.094 46.8492 254.094 40.4238C254.094 33.9983 257.076 30.1673 262.071 30.1673C267.114 30.1673 270.073 33.9983 270.073 40.4238C270.073 46.8492 267.114 50.6803 262.071 50.6803ZM259.113 40.4238C259.113 44.3275 260.325 45.8309 262.071 45.8309C263.841 45.8309 265.053 44.3275 265.053 40.4238C265.053 36.52 263.841 35.0167 262.071 35.0167C260.325 35.0167 259.113 36.52 259.113 40.4238Z" fill="white"/>
<path d="M242.508 50.6803C237.513 50.6803 234.531 46.8492 234.531 40.4238C234.531 33.9983 237.513 30.1673 242.508 30.1673C247.551 30.1673 250.51 33.9983 250.51 40.4238C250.51 46.8492 247.551 50.6803 242.508 50.6803ZM239.55 40.4238C239.55 44.3275 240.762 45.8309 242.508 45.8309C244.278 45.8309 245.49 44.3275 245.49 40.4238C245.49 36.52 244.278 35.0167 242.508 35.0167C240.762 35.0167 239.55 36.52 239.55 40.4238Z" fill="white"/>
<path d="M219.866 50.2923C219.551 50.2923 219.43 50.0741 219.527 49.8073L225.467 35.2834H217.708C217.442 35.2834 217.272 35.1379 217.272 34.8954V30.9917C217.272 30.725 217.442 30.5552 217.708 30.5552H231.359C231.626 30.5552 231.796 30.725 231.796 30.9917V32.2768C231.796 32.4707 231.772 32.6162 231.723 32.786L224.91 49.9528C224.837 50.1468 224.643 50.2923 224.425 50.2923H219.866Z" fill="white"/>
<path d="M210.048 54.9477C209.733 54.9477 209.587 54.7295 209.684 54.4628L211.091 50.2923C210.169 49.8559 209.563 49.0072 209.563 47.8676C209.563 46.2916 210.8 45.1762 212.376 45.1762C213.976 45.1762 215.164 46.2916 215.164 47.8676C215.164 49.1285 214.776 50.0499 213.733 52.3533L212.691 54.6325C212.618 54.8265 212.448 54.9477 212.206 54.9477H210.048Z" fill="white"/>
<path d="M196.912 50.2923C196.597 50.2923 196.476 50.0741 196.573 49.8073L202.513 35.2834H194.754C194.488 35.2834 194.318 35.1379 194.318 34.8954V30.9917C194.318 30.725 194.488 30.5552 194.754 30.5552H208.405C208.672 30.5552 208.842 30.725 208.842 30.9917V32.2768C208.842 32.4707 208.818 32.6162 208.769 32.786L201.956 49.9528C201.883 50.1468 201.689 50.2923 201.471 50.2923H196.912Z" fill="white"/>
<path d="M190.89 54.3173C184.683 54.0263 181.967 49.3467 181.967 41.6846C181.967 34.0468 184.683 29.3429 190.866 29.0519C191.133 29.0519 191.254 29.2217 191.254 29.4884V33.4164C191.254 33.6831 191.133 33.8286 190.89 33.8528C188.053 34.1196 187.035 36.52 187.035 41.6846C187.035 46.8492 188.053 49.2497 190.89 49.5164C191.133 49.5406 191.254 49.7104 191.254 49.9771V53.9051C191.254 54.1718 191.133 54.3173 190.89 54.3173Z" fill="white"/>
<path d="M163.54 33.2709C163.637 33.4891 163.588 33.6589 163.394 33.8043L160.412 35.8896C160.339 35.9381 160.242 35.9623 160.169 35.9623C160.048 35.9623 159.951 35.8896 159.878 35.7441C159.127 34.2408 157.963 32.6405 156.726 31.5251C156.629 31.4281 156.581 31.3311 156.581 31.2342C156.581 31.1372 156.629 31.0402 156.75 30.9674L159.563 28.9792C159.636 28.9307 159.733 28.8822 159.806 28.8822C159.903 28.8822 160 28.9307 160.097 29.0034C161.479 30.1188 162.764 31.7433 163.54 33.2709ZM162.958 42.2423C166.28 40.2783 168.05 36.9807 168.559 33.5376C168.559 33.4649 168.583 33.4164 168.607 33.3679V33.1739H164.728C164.485 33.1739 164.34 33.0284 164.34 32.786V29.5369C164.34 29.2944 164.485 29.1489 164.728 29.1489H172.729C172.972 29.1489 173.117 29.2944 173.117 29.5611C173.069 34.847 174.281 39.5509 178.791 42.1211C178.936 42.1938 179.009 42.2908 179.009 42.412C179.009 42.4848 178.985 42.5575 178.912 42.6545L176.415 45.9278C176.318 46.0491 176.221 46.0976 176.124 46.0976C176.027 46.0976 175.954 46.0733 175.857 46.0006C173.917 44.4488 172.002 42.1938 170.862 39.5266C169.698 42.2423 167.807 44.6912 165.722 46.0491C165.625 46.0976 165.552 46.1218 165.479 46.1218C165.382 46.1218 165.285 46.0733 165.188 45.9521L162.958 43.1637V44.57C163.709 46.0248 164.849 46.6552 166.886 46.8492C167.953 46.9462 169.213 47.0189 170.644 47.0189C172.996 47.0189 175.809 46.8735 178.936 46.5825C179.252 46.5583 179.397 46.728 179.3 46.9947L178.136 50.462C178.064 50.6802 177.942 50.7772 177.724 50.8015C175.469 50.9712 172.753 51.0682 170.402 51.0682C169.044 51.0682 167.807 51.044 166.837 50.947C164.582 50.753 162.546 50.3165 161.091 48.7162C160.363 49.5649 159.393 50.3893 158.424 51.1409C158.351 51.2137 158.254 51.2379 158.181 51.2379C158.084 51.2379 157.963 51.1652 157.89 51.044L155.902 47.8191C155.853 47.7464 155.829 47.6494 155.829 47.6009C155.829 47.4554 155.902 47.3584 156.072 47.2857C157.066 46.825 158.036 46.1703 158.787 45.5156V41.2239H156.799C156.557 41.2239 156.411 41.0784 156.411 40.836V37.5141C156.411 37.2717 156.557 37.1262 156.799 37.1262H162.57C162.812 37.1262 162.958 37.2717 162.958 37.5141V42.2423Z" fill="white"/>
<path d="M139.632 29.0277C139.632 28.7852 139.778 28.6397 140.02 28.6397H143.851C144.094 28.6397 144.239 28.7852 144.239 29.0277V31.2584H151.974C152.217 31.2584 152.362 31.4039 152.362 31.6463V46.3885C152.362 46.631 152.217 46.7765 151.974 46.7765H144.239V51.0924C144.239 51.3349 144.094 51.4804 143.851 51.4804H140.045C139.802 51.4804 139.657 51.3349 139.657 51.0924V46.7765H132.092C131.849 46.7765 131.704 46.631 131.704 46.3885V31.6463C131.704 31.4039 131.849 31.2584 132.092 31.2584H139.632V29.0277ZM139.681 35.2106H135.947V37.1262L139.681 37.1504V35.2106ZM144.191 37.1746L148.095 37.1989V35.2106H144.191V37.1746ZM139.681 40.6662L135.947 40.642V42.8484H139.681V40.6662ZM148.095 40.7147L144.191 40.6905V42.8484H148.095V40.7147Z" fill="white"/>
<path d="M122.684 50.5348C114.197 50.4378 111.045 46.6795 111.045 42.8242C111.045 39.8418 112.936 36.7867 115.749 35.3319C113.009 35.4289 109.566 35.5986 106.729 35.6471C106.438 35.6471 106.269 35.5016 106.269 35.1864L106.196 31.6706C106.196 31.3796 106.341 31.2099 106.632 31.2099C111.748 31.2099 120.429 31.2099 125.787 31.0887C126.078 31.0887 126.248 31.2342 126.248 31.5251V34.9924C126.248 35.2834 126.103 35.4531 125.812 35.4531C125.084 35.4531 124.405 35.5259 123.751 35.6471C120.768 36.1078 115.846 38.9205 115.846 42.1696C115.846 44.2548 118.101 45.9521 123.435 45.8551C123.726 45.8551 123.872 46.0006 123.872 46.2188V46.34L123.193 50.1226C123.144 50.4135 122.975 50.5348 122.684 50.5348ZM122.781 42.703C122.49 42.8242 122.296 42.703 122.199 42.4363C121.762 41.1997 121.108 39.9388 120.356 38.9447C120.283 38.8235 120.235 38.7265 120.235 38.6295C120.235 38.5083 120.332 38.387 120.502 38.3143L121.932 37.7566C122.175 37.6596 122.369 37.6839 122.538 37.9021C123.29 38.775 124.163 40.2783 124.648 41.4664C124.745 41.7331 124.648 41.9513 124.381 42.0483L122.781 42.703ZM126.127 41.3694C125.836 41.4906 125.642 41.3694 125.545 41.1027C125.108 39.9873 124.333 38.6053 123.654 37.7324C123.581 37.6354 123.532 37.5384 123.532 37.4414C123.532 37.2959 123.629 37.1747 123.823 37.1019L125.181 36.5443C125.424 36.4473 125.642 36.4715 125.812 36.6655C126.588 37.5384 127.509 39.0659 127.921 40.1813C128.018 40.448 127.921 40.6662 127.654 40.7632L126.127 41.3694Z" fill="white"/>
<path d="M88.5167 50.2923C88.25 50.2923 88.1045 50.1226 88.1045 49.8558V30.9917C88.1045 30.725 88.25 30.5552 88.5167 30.5552H101.513C101.756 30.5552 101.95 30.725 101.95 30.9917V34.459C101.95 34.7257 101.756 34.8954 101.513 34.8954H93.0751V38.1203H100.519C100.786 38.1203 100.955 38.2658 100.955 38.5325V41.8786C100.955 42.1453 100.786 42.315 100.519 42.315H93.0751V45.9521H101.828C102.071 45.9521 102.265 46.1218 102.265 46.3885V49.8558C102.265 50.1226 102.071 50.2923 101.828 50.2923H88.5167Z" fill="white"/>
<path d="M66.3248 50.2923C66.0581 50.2923 65.9126 50.1226 65.9126 49.8558V30.9917C65.9126 30.725 66.0581 30.5552 66.3248 30.5552H70.6893C70.9317 30.5552 71.0772 30.6522 71.1984 30.8462L78.2543 42.5817V30.9917C78.2543 30.725 78.3998 30.5552 78.6908 30.5552H82.643C82.9097 30.5552 83.0552 30.725 83.0552 30.9917V49.8558C83.0552 50.1226 82.9097 50.2923 82.643 50.2923H78.3028C78.0603 50.2923 77.8906 50.1953 77.7936 50.0013L70.7135 38.2173V49.8558C70.7135 50.1226 70.568 50.2923 70.3013 50.2923H66.3248Z" fill="white"/>
<path d="M56.2564 50.2923C55.9897 50.2923 55.8442 50.1226 55.8442 49.8558V30.9917C55.8442 30.725 55.9897 30.5552 56.2564 30.5552H60.4269C60.6936 30.5552 60.8634 30.725 60.8634 30.9917V49.8558C60.8634 50.1226 60.6936 50.2923 60.4269 50.2923H56.2564Z" fill="white"/>
<path d="M38.2799 50.2923C38.0132 50.2923 37.8677 50.1226 37.8677 49.8558V30.9917C37.8677 30.725 38.0132 30.5552 38.2799 30.5552H42.4504C42.7171 30.5552 42.8868 30.725 42.8868 30.9917V45.5399H51.543C51.7854 45.5399 51.9552 45.6854 51.9552 45.9278V49.8558C51.9552 50.1226 51.7854 50.2923 51.543 50.2923H38.2799Z" fill="white"/>
<path d="M296.363 29.2651C296.407 28.7388 296.611 28.1739 297.056 27.7104C297.57 27.1752 298.245 26.9439 298.874 26.9438H298.924L298.974 26.9458C302.656 27.1192 305.528 28.6507 307.393 31.4292C309.177 34.0889 309.881 37.6594 309.881 41.6851L309.873 42.4321C309.789 46.142 309.065 49.4338 307.397 51.9282C305.539 54.7071 302.675 56.2496 298.998 56.4233L298.948 56.4253H298.898C298.397 56.4253 297.721 56.2867 297.152 55.7632C296.558 55.216 296.354 54.5014 296.354 53.9048V49.9771C296.354 49.4639 296.499 48.8138 296.989 48.2593C297.485 47.6992 298.126 47.4693 298.673 47.4175C299.076 47.3789 299.297 47.2771 299.432 47.1821C299.567 47.0869 299.74 46.9116 299.916 46.5376C300.309 45.7038 300.572 44.2111 300.572 41.6851C300.572 39.1587 300.309 37.6654 299.916 36.8315C299.74 36.4575 299.567 36.2822 299.432 36.187C299.297 36.092 299.076 35.9903 298.673 35.9517V35.9507C298.212 35.907 297.57 35.7311 297.046 35.1841C296.503 34.6176 296.354 33.9349 296.354 33.4165V29.4888L296.363 29.2651ZM298.462 33.4165C298.462 33.6831 298.607 33.8288 298.874 33.853C301.662 34.1197 302.681 36.5205 302.681 41.6851L302.669 42.6206C302.547 47.1409 301.488 49.2661 298.874 49.5161C298.607 49.5404 298.462 49.7104 298.462 49.9771V53.9048C298.462 54.138 298.592 54.2785 298.803 54.3101L298.898 54.3169C304.865 54.035 307.6 49.6121 307.765 42.3921L307.772 41.6851C307.772 34.023 305.057 29.3432 298.874 29.0522C298.632 29.0523 298.462 29.2221 298.462 29.4888V33.4165Z" fill="#EE7F16"/>
<path d="M274.246 51.1128C274.273 51.286 274.378 51.3789 274.541 51.4019L274.627 51.4077H278.167L278.254 51.4019C278.417 51.3787 278.522 51.2858 278.549 51.1128L278.555 51.02V42.8247H290.63V46.1704L290.624 46.3237C290.559 47.0595 289.943 47.3481 286.92 47.189C286.726 47.189 286.532 47.2377 286.532 47.48C286.532 47.5284 286.532 47.5771 286.557 47.6255L287.793 51.0923C287.866 51.3105 287.987 51.4321 288.229 51.4321C292.904 51.6435 294.848 50.6032 294.965 47.562L294.971 47.2612V29.731C294.971 29.5189 294.859 29.3814 294.669 29.3501L294.582 29.3433V27.2349C295.126 27.2349 295.809 27.4056 296.358 27.9546C296.839 28.4351 297.03 29.0184 297.07 29.521L297.079 29.731V47.2612L297.071 47.6489C296.993 49.578 296.313 51.3535 294.508 52.4556C292.847 53.4698 290.599 53.65 288.135 53.5386V53.5366C287.662 53.5202 287.102 53.3799 286.604 52.9692C286.134 52.5805 285.916 52.1081 285.809 51.7993L285.808 51.8003L284.582 48.3677C284.501 48.1591 284.463 47.9678 284.443 47.814C284.432 47.7258 284.428 47.6428 284.426 47.5815L284.424 47.48L284.429 47.3286C284.475 46.5738 284.866 45.8455 285.591 45.4224C286.162 45.0894 286.727 45.0806 286.92 45.0806H286.976L287.031 45.0835L287.573 45.1079C287.948 45.1216 288.261 45.1238 288.521 45.1196V44.9331H280.663V51.02L280.656 51.2192C280.62 51.7065 280.442 52.3287 279.908 52.8384C279.316 53.4038 278.613 53.5161 278.167 53.5161H274.627C274.181 53.5161 273.479 53.4037 272.887 52.8384C272.277 52.256 272.131 51.5271 272.131 51.02V29.731C272.131 29.187 272.302 28.5037 272.852 27.9546C273.401 27.4058 274.083 27.2349 274.627 27.2349V29.3433L274.541 29.3501C274.351 29.3812 274.239 29.5188 274.239 29.731V51.02L274.246 51.1128ZM282.362 33.4165V38.5571H278.555V33.4165H282.362ZM290.63 33.4165V38.5571H286.702V33.4165H290.63ZM294.582 27.2349V29.3433H274.627V27.2349H294.582Z" fill="#EE7F16"/>
<path d="M270.072 40.4233C270.072 34.1991 267.297 30.4091 262.538 30.1782L262.071 30.1675C257.077 30.1675 254.094 33.9981 254.094 40.4233C254.094 46.6478 256.893 50.4385 261.608 50.6694L262.071 50.6802C267.115 50.6801 270.072 46.8487 270.072 40.4233ZM262.945 40.4233C262.945 38.6251 262.654 37.73 262.424 37.3501C262.326 37.189 262.261 37.1566 262.258 37.1548C262.253 37.152 262.208 37.1255 262.071 37.1255C261.945 37.1255 261.906 37.1502 261.905 37.1509C261.899 37.1544 261.836 37.1915 261.742 37.3462C261.512 37.7287 261.222 38.6268 261.222 40.4233L261.234 41.0562C261.293 42.4372 261.54 43.1667 261.742 43.5015C261.836 43.6566 261.899 43.6934 261.905 43.6968C261.906 43.6974 261.945 43.7222 262.071 43.7222V45.8306L261.909 45.8267C260.358 45.7408 259.262 44.3969 259.127 41.1274L259.113 40.4233C259.113 36.5199 260.326 35.0171 262.071 35.0171L262.235 35.021C263.916 35.1128 265.054 36.6418 265.054 40.4233L265.039 41.1274C264.899 44.5094 263.731 45.8305 262.071 45.8306V43.7222C262.208 43.7221 262.253 43.6958 262.258 43.6929C262.261 43.6911 262.326 43.6586 262.424 43.4976C262.654 43.1177 262.945 42.2218 262.945 40.4233ZM272.181 40.4233C272.181 43.9261 271.378 47.0053 269.627 49.2563C267.822 51.5763 265.183 52.7885 262.071 52.7886C258.978 52.7886 256.347 51.5723 254.545 49.2563C252.795 47.0075 251.985 43.9299 251.985 40.4233C251.985 36.917 252.796 33.8401 254.545 31.5913C256.347 29.2754 258.978 28.0591 262.071 28.0591C265.183 28.0591 267.822 29.2713 269.627 31.5913C271.378 33.8423 272.181 36.9207 272.181 40.4233Z" fill="#EE7F16"/>
<path d="M250.51 40.4233C250.51 34.199 247.733 30.4091 242.975 30.1782L242.508 30.1675C237.513 30.1675 234.53 33.9981 234.53 40.4233C234.53 46.6482 237.33 50.4389 242.046 50.6694L242.508 50.6802C247.394 50.6802 250.323 47.0847 250.501 41.0181L250.51 40.4233ZM243.382 40.4233C243.382 38.6251 243.091 37.73 242.86 37.3501C242.763 37.1891 242.698 37.1566 242.694 37.1548C242.689 37.1517 242.644 37.1255 242.508 37.1255C242.383 37.1255 242.345 37.1495 242.343 37.1509C242.342 37.1511 242.278 37.1832 242.18 37.3462C241.949 37.7285 241.658 38.6262 241.658 40.4233L241.671 41.0562C241.73 42.4377 241.978 43.1669 242.18 43.5015C242.278 43.6644 242.342 43.6966 242.343 43.6968C242.345 43.6984 242.384 43.7222 242.508 43.7222V45.8306L242.346 45.8267C240.794 45.7407 239.698 44.3968 239.563 41.1274L239.55 40.4233C239.55 36.5199 240.762 35.0171 242.508 35.0171L242.672 35.021C244.352 35.1127 245.49 36.6417 245.49 40.4233L245.477 41.1274C245.337 44.5095 244.167 45.8306 242.508 45.8306V43.7222C242.644 43.7222 242.689 43.6961 242.694 43.6929C242.698 43.6911 242.763 43.6585 242.86 43.4976C243.091 43.1177 243.382 42.2218 243.382 40.4233ZM252.608 41.0757C252.514 44.3083 251.705 47.146 250.063 49.2563C248.258 51.5763 245.62 52.7886 242.508 52.7886C239.414 52.7886 236.784 51.5721 234.982 49.2563C233.233 47.0075 232.422 43.93 232.422 40.4233C232.422 36.9169 233.233 33.8401 234.982 31.5913C236.784 29.2755 239.414 28.0591 242.508 28.0591C245.62 28.0591 248.258 29.2713 250.063 31.5913C251.815 33.8423 252.618 36.9207 252.618 40.4233L252.608 41.0757Z" fill="#EE7F16"/>
<path d="M231.796 32.2769V30.9917C231.796 30.7585 231.666 30.5993 231.455 30.563L231.359 30.5552V28.4468C231.947 28.4468 232.628 28.6428 233.168 29.1821C233.64 29.6542 233.85 30.2356 233.895 30.7671L233.904 30.9917V32.2769L233.894 32.5737C233.873 32.8587 233.822 33.1131 233.75 33.3647L233.722 33.4663L233.683 33.564L226.869 50.731L226.867 50.73C226.493 51.6821 225.555 52.4008 224.425 52.4009H219.866C219.231 52.4009 218.338 52.1597 217.778 51.3052C217.245 50.4904 217.35 49.6237 217.545 49.0864L217.56 49.0474L217.575 49.0093L222.326 37.3921H217.708C217.207 37.392 216.554 37.2533 215.997 36.7632C215.407 36.244 215.163 35.5383 215.163 34.895V30.9917C215.163 30.404 215.36 29.7218 215.899 29.1821C216.439 28.6428 217.121 28.4468 217.708 28.4468V30.5552C217.441 30.5553 217.271 30.7251 217.271 30.9917V34.895C217.271 35.1073 217.402 35.2458 217.613 35.2769L217.708 35.2837H225.467L219.526 49.8071C219.442 50.0404 219.524 50.2372 219.757 50.2827L219.866 50.2925H224.425L224.505 50.2856C224.689 50.2552 224.845 50.1224 224.909 49.9526L231.723 32.7856C231.759 32.6585 231.782 32.5451 231.791 32.4146L231.796 32.2769ZM231.359 28.4468V30.5552H217.708V28.4468H231.359Z" fill="#EE7F16"/>
<path d="M215.164 47.8677C215.164 46.3901 214.12 45.3173 212.671 45.189L212.376 45.1763C210.8 45.1763 209.563 46.2916 209.563 47.8677L209.57 48.0776C209.64 49.1116 210.227 49.8833 211.091 50.2925L209.685 54.4624C209.6 54.6956 209.7 54.8924 209.938 54.938L210.048 54.9478H212.206L212.294 54.9419C212.49 54.9159 212.628 54.8019 212.691 54.6323L213.733 52.353C214.711 50.1934 215.113 49.2488 215.159 48.1001L215.164 47.8677ZM217.266 48.1997C217.194 49.838 216.591 51.153 215.654 53.2231L215.651 53.23L214.608 55.5093L214.607 55.5083C214.174 56.4971 213.219 57.0562 212.206 57.0562H210.048C209.417 57.0561 208.57 56.8227 208.004 56.0415C207.448 55.2741 207.478 54.4074 207.688 53.7896H207.687L208.618 51.0239C207.893 50.2019 207.455 49.1199 207.455 47.8677C207.455 45.0064 209.76 43.0679 212.376 43.0679C215.053 43.068 217.272 45.0415 217.272 47.8677L217.266 48.1997Z" fill="#EE7F16"/>
<path d="M208.842 32.2769V30.9917C208.842 30.7585 208.712 30.5993 208.501 30.563L208.405 30.5552V28.4468C208.993 28.4468 209.674 28.6428 210.214 29.1821C210.686 29.6542 210.895 30.2356 210.94 30.7671L210.95 30.9917V32.2769L210.939 32.5737C210.919 32.8587 210.868 33.1131 210.796 33.3647L210.768 33.4663L210.729 33.564L203.915 50.731L203.913 50.73C203.539 51.6821 202.601 52.4008 201.471 52.4009H196.912C196.277 52.4009 195.384 52.1597 194.824 51.3052C194.29 50.4904 194.395 49.6237 194.591 49.0864L194.605 49.0474L194.621 49.0093L199.372 37.3921H194.754C194.253 37.3921 193.6 37.2533 193.043 36.7632C192.453 36.244 192.209 35.5383 192.209 34.895V30.9917C192.209 30.404 192.406 29.7218 192.945 29.1821C193.485 28.6428 194.166 28.4468 194.754 28.4468V30.5552C194.487 30.5553 194.317 30.725 194.317 30.9917V34.895C194.317 35.1073 194.448 35.2458 194.659 35.2769L194.754 35.2837H202.513L196.572 49.8071C196.487 50.0404 196.57 50.2372 196.803 50.2827L196.912 50.2925H201.471L201.551 50.2856C201.735 50.2552 201.891 50.1224 201.955 49.9526L208.769 32.7856C208.805 32.6585 208.828 32.5451 208.837 32.4146L208.842 32.2769ZM208.405 28.4468V30.5552H194.754V28.4468H208.405Z" fill="#EE7F16"/>
<path d="M191.254 29.4888C191.254 29.2221 191.133 29.0523 190.866 29.0522C184.683 29.3432 181.968 34.0473 181.968 41.6851L181.976 42.394C182.135 49.4011 184.703 53.7481 190.318 54.2769L190.891 54.3169C191.133 54.3168 191.254 54.1714 191.254 53.9048V49.9771C191.254 49.7105 191.133 49.5405 190.891 49.5161C188.231 49.2661 187.169 47.1409 187.047 42.6206L187.035 41.6851C187.035 36.6817 187.991 34.2724 190.63 33.8843L190.891 33.853C191.103 33.8317 191.222 33.7173 191.248 33.5103L191.254 33.4165V29.4888ZM193.362 33.4165L193.357 33.5864C193.332 34.0056 193.207 34.5676 192.783 35.0757C192.276 35.6847 191.607 35.8999 191.101 35.9507L191.088 35.9517C190.667 35.9912 190.436 36.0966 190.294 36.1948C190.154 36.2922 189.979 36.4676 189.803 36.8384C189.407 37.6682 189.144 39.1571 189.144 41.6851L189.155 42.5845C189.211 44.5743 189.457 45.8047 189.803 46.5308C189.979 46.9016 190.154 47.0769 190.294 47.1743C190.418 47.2603 190.61 47.352 190.938 47.3999L191.088 47.4175L191.101 47.4185C191.704 47.4789 192.364 47.7599 192.834 48.3706C193.267 48.9335 193.362 49.5492 193.362 49.9771V53.9048C193.362 54.3177 193.273 54.9986 192.754 55.5952C192.19 56.2438 191.445 56.4252 190.891 56.4253H190.841L190.792 56.4233C187.1 56.2503 184.22 54.7213 182.352 51.9419C180.563 49.2816 179.859 45.7103 179.859 41.6851C179.859 37.6703 180.564 34.1015 182.347 31.4399C184.209 28.6599 187.08 27.1194 190.767 26.9458L190.816 26.9438H190.866C191.472 26.9439 192.223 27.1571 192.774 27.814C193.273 28.4076 193.362 29.0758 193.362 29.4888V33.4165Z" fill="#EE7F16"/>
<path d="M170.862 39.5269C172.002 42.1939 173.918 44.4487 175.857 46.0005C175.954 46.0732 176.027 46.0972 176.124 46.0972C176.221 46.0971 176.318 46.0493 176.415 45.9282L178.912 42.6548C178.967 42.5822 178.994 42.5229 179.004 42.4673L179.01 42.4116C179.01 42.2906 178.936 42.1933 178.791 42.1206C174.281 39.5504 173.069 34.8468 173.117 29.561C173.117 29.3276 173.006 29.1872 172.815 29.1558L172.729 29.1489V27.0405C173.275 27.0406 173.98 27.2142 174.538 27.7974C175.084 28.3681 175.226 29.0564 175.226 29.561V29.5806C175.179 34.6203 176.342 38.299 179.835 40.2896L179.834 40.2905C180.361 40.5849 181.023 41.1968 181.108 42.1938L181.118 42.4116L181.106 42.6509C181.053 43.1907 180.826 43.6159 180.599 43.9194L180.589 43.9331L180.02 44.6782C180.308 44.8021 180.6 44.9955 180.859 45.2915C181.59 46.1264 181.486 47.1045 181.297 47.6646L181.299 47.6655L180.136 51.1274L180.137 51.1284C180.021 51.4761 179.792 51.9503 179.32 52.3364C178.844 52.7262 178.329 52.8557 177.957 52.897L177.92 52.9009L177.883 52.9038C175.571 53.0778 172.802 53.1763 170.401 53.1763C169.04 53.1763 167.711 53.1537 166.628 53.0454V53.0444C164.909 52.8951 162.959 52.5916 161.242 51.5454C160.767 51.9697 160.277 52.3672 159.808 52.7329C159.261 53.2181 158.623 53.3462 158.181 53.3462C157.175 53.346 156.452 52.7277 156.097 52.1499L156.096 52.1509L154.107 48.9253L154.108 48.9243C153.969 48.7009 153.883 48.4873 153.832 48.3208C153.795 48.1998 153.751 48.0261 153.731 47.8188L153.721 47.6011L153.727 47.4282C153.755 47.0166 153.89 46.5558 154.212 46.1353C154.527 45.7236 154.91 45.4994 155.186 45.3745V45.3726C155.698 45.1352 156.212 44.8261 156.679 44.4937V43.3267C156.157 43.3026 155.533 43.121 155.023 42.6118C154.474 42.0629 154.303 41.3803 154.303 40.8364V37.5142C154.303 36.9702 154.474 36.2879 155.023 35.7388C155.572 35.1897 156.255 35.0181 156.799 35.0181V37.1265L156.713 37.1333C156.523 37.1644 156.411 37.302 156.411 37.5142V40.8364C156.411 41.0484 156.523 41.1862 156.713 41.2173L156.799 41.2241H158.787V45.5161C158.036 46.1707 157.065 46.825 156.071 47.2856C155.902 47.3584 155.829 47.4557 155.829 47.6011C155.829 47.6496 155.854 47.7462 155.902 47.8188L157.891 51.0444C157.963 51.1651 158.084 51.2376 158.181 51.2378C158.253 51.2378 158.351 51.2139 158.424 51.1411C159.394 50.3895 160.363 49.5649 161.091 48.7163C162.546 50.3165 164.582 50.7528 166.837 50.9468C167.807 51.0438 169.044 51.0679 170.401 51.0679C172.459 51.0679 174.796 50.9941 176.858 50.8618L177.725 50.8013C177.942 50.777 178.064 50.6803 178.137 50.4624L179.3 46.9946C179.397 46.7279 179.252 46.5583 178.937 46.5825C175.809 46.8735 172.996 47.019 170.645 47.019V44.9106C170.998 44.9106 171.363 44.9058 171.739 44.8989C171.445 44.5464 171.16 44.1783 170.885 43.7974C170.619 44.1782 170.34 44.5479 170.049 44.9028C170.244 44.9057 170.442 44.9106 170.645 44.9106V47.019L169.604 47.0063C168.595 46.9813 167.686 46.9219 166.886 46.8491C164.849 46.6551 163.71 46.0246 162.958 44.5698V43.1636L165.188 45.9517C165.285 46.0729 165.383 46.1216 165.479 46.1216C165.552 46.1216 165.625 46.0977 165.722 46.0493C167.807 44.6915 169.698 42.2424 170.862 39.5269ZM159.806 26.7739C160.394 26.7739 160.852 26.9869 161.137 27.1626L161.361 27.3169L161.392 27.3394L161.421 27.3628C161.797 27.6662 162.164 27.9994 162.519 28.354C162.626 28.1484 162.767 27.9468 162.952 27.7612C163.501 27.2122 164.184 27.0406 164.728 27.0405V29.1489L164.642 29.1558C164.451 29.1869 164.34 29.3246 164.34 29.5366V32.7856C164.34 33.028 164.485 33.1742 164.728 33.1743H168.607V33.3677C168.583 33.4162 168.559 33.4649 168.559 33.5376C168.049 36.9807 166.28 40.2787 162.958 42.2427V37.5142C162.958 37.3021 162.846 37.1645 162.656 37.1333L162.57 37.1265H156.799V35.0181H156.984C156.529 34.3718 156.022 33.7634 155.505 33.2681L155.314 33.0903L155.273 33.0542L155.235 33.0161C154.929 32.7097 154.527 32.1616 154.478 31.3911L154.473 31.2339L154.479 31.064C154.533 30.276 154.966 29.6279 155.55 29.2329L158.346 27.2573L158.37 27.2407L158.394 27.2251C158.511 27.1471 158.667 27.0542 158.854 26.9741C159.006 26.9086 159.355 26.7739 159.806 26.7739ZM164.905 35.2827C164.821 35.3626 164.738 35.4319 164.659 35.4907L164.631 35.5122L164.603 35.5327L164.329 35.7231C164.334 35.7284 164.34 35.7335 164.346 35.7388C164.817 36.2105 165.009 36.7807 165.054 37.2769C165.432 36.6509 165.738 35.9817 165.977 35.2827H164.905ZM159.806 28.8823C159.733 28.8823 159.636 28.9306 159.563 28.979L156.751 30.9673L156.673 31.0259C156.608 31.0883 156.581 31.1612 156.581 31.2339C156.581 31.3309 156.63 31.4279 156.727 31.5249C157.963 32.6401 159.126 34.2405 159.878 35.7437C159.951 35.889 160.048 35.9622 160.169 35.9624C160.242 35.9624 160.339 35.9377 160.412 35.8892L163.395 33.8042C163.588 33.6588 163.637 33.489 163.54 33.271C162.764 31.7434 161.479 30.1188 160.097 29.0034C160 28.9307 159.903 28.8823 159.806 28.8823ZM172.729 27.0405V29.1489H164.728V27.0405H172.729Z" fill="#EE7F16"/>
<path d="M139.656 51.0923C139.656 51.3346 139.802 51.4798 140.044 51.48H143.852L143.938 51.4741C144.1 51.4474 144.206 51.342 144.232 51.1792L144.239 51.0923V46.7769H151.974L152.061 46.77C152.223 46.7432 152.329 46.638 152.355 46.4751L152.362 46.3882V31.646C152.362 31.4037 152.216 31.2583 151.974 31.2583V29.1499C152.518 29.1499 153.201 29.3215 153.75 29.8706C154.23 30.3509 154.422 30.9336 154.462 31.436L154.471 31.646V46.3882L154.462 46.5981C154.422 47.1008 154.231 47.684 153.75 48.1646C153.201 48.7137 152.518 48.8853 151.974 48.8853H146.348V51.0923L146.339 51.3022C146.299 51.8049 146.107 52.3881 145.627 52.8687C145.078 53.4175 144.395 53.5883 143.852 53.5884H140.044C139.5 53.5883 138.817 53.4175 138.269 52.8687C137.719 52.3195 137.548 51.6363 137.548 51.0923V48.8853H132.092C131.548 48.8853 130.865 48.7136 130.315 48.1646C129.766 47.6154 129.595 46.9322 129.595 46.3882V31.646C129.595 31.1021 129.767 30.4196 130.315 29.8706C130.865 29.3215 131.548 29.1499 132.092 29.1499V31.2583L132.005 31.2651C131.815 31.2963 131.703 31.4341 131.703 31.646V46.3882C131.703 46.6003 131.815 46.7388 132.005 46.77L132.092 46.7769H139.656V51.0923ZM139.681 40.6665V42.8481H135.946V40.6421L139.681 40.6665ZM148.095 40.7144V42.8481H144.19V40.6909L148.095 40.7144ZM148.095 35.2104V37.1987L144.19 37.1743V35.2104H148.095ZM139.681 35.2104V37.1509L135.946 37.1265V35.2104H139.681ZM144.239 29.0278C144.239 28.8157 144.128 28.6772 143.938 28.646L143.852 28.6401V26.5317C144.395 26.5318 145.078 26.7027 145.627 27.2515C146.107 27.732 146.299 28.3152 146.339 28.8179L146.348 29.0278V29.1499H151.974V31.2583H144.239V29.0278ZM137.523 29.0278C137.523 28.4838 137.695 27.8006 138.244 27.2515C138.793 26.7024 139.477 26.5317 140.021 26.5317V28.6401L139.934 28.646C139.743 28.6772 139.632 28.8157 139.632 29.0278V31.2583H132.092V29.1499H137.523V29.0278ZM143.852 26.5317V28.6401H140.021V26.5317H143.852Z" fill="#EE7F16"/>
<path d="M126.248 31.5249C126.248 31.2341 126.078 31.0884 125.787 31.0884C120.429 31.2096 111.748 31.2095 106.632 31.2095C106.341 31.2095 106.195 31.3796 106.195 31.6704L106.269 35.186C106.269 35.462 106.398 35.6081 106.626 35.6401L106.729 35.647C109.566 35.5985 113.009 35.4285 115.749 35.3315C112.936 36.7864 111.045 39.8423 111.045 42.8247L111.055 43.1851C111.241 46.7905 114.258 50.2129 121.903 50.5151L122.684 50.5347C122.975 50.5347 123.144 50.4135 123.192 50.1226L123.872 46.3403V46.2192C123.872 46.0011 123.726 45.8551 123.436 45.855C118.101 45.952 115.846 44.2547 115.846 42.1694C115.846 38.9205 120.768 36.1078 123.75 35.647C124.405 35.5257 125.084 35.4536 125.812 35.4536C126.102 35.4536 126.248 35.2835 126.248 34.9927V31.5249ZM122.538 37.9019C122.368 37.6838 122.174 37.6594 121.932 37.7563L120.501 38.314C120.331 38.3867 120.234 38.5082 120.234 38.6294C120.234 38.7264 120.283 38.8236 120.355 38.9448C121.107 39.9389 121.762 41.1995 122.198 42.436C122.295 42.7027 122.489 42.8238 122.78 42.7026L124.381 42.0483C124.648 41.9513 124.744 41.733 124.647 41.4663C124.163 40.2782 123.29 38.7747 122.538 37.9019ZM125.812 36.6655C125.642 36.4716 125.423 36.4474 125.181 36.5444L123.823 37.1021C123.629 37.1747 123.532 37.2956 123.532 37.4409C123.532 37.5378 123.581 37.6351 123.653 37.7319C124.332 38.6048 125.108 39.9877 125.545 41.103C125.642 41.3695 125.836 41.4908 126.127 41.3696L127.654 40.7632C127.921 40.6662 128.018 40.4478 127.921 40.1812C127.509 39.0658 126.587 37.5384 125.812 36.6655ZM117.954 42.1694C117.954 42.3034 117.967 42.6067 118.651 42.981C119.041 43.1942 119.609 43.3973 120.392 43.5415C120.317 43.4037 120.259 43.2725 120.217 43.1567L120.214 43.147L120.21 43.1382C119.876 42.1917 119.394 41.2417 118.863 40.479C118.206 41.1679 117.954 41.7656 117.954 42.1694ZM128.356 34.9927L128.351 35.1792C128.332 35.4671 128.261 35.811 128.095 36.1577C128.761 37.085 129.403 38.2148 129.798 39.1899L129.898 39.4507L129.902 39.4604C130.09 39.9761 130.171 40.688 129.844 41.4087C129.524 42.1113 128.953 42.5179 128.431 42.7212L128.432 42.7231L126.904 43.3296L126.903 43.3276C126.638 43.4343 126.311 43.5176 125.953 43.5239C125.708 43.7403 125.438 43.8939 125.178 43.9976L125.179 43.9995L124.837 44.1392C124.943 44.2055 125.05 44.2797 125.151 44.3687C125.686 44.8371 125.92 45.4432 125.97 45.9888L125.98 46.2192V46.5278L125.271 50.4683L125.272 50.4692C125.19 50.9613 124.949 51.61 124.332 52.0952C123.741 52.5595 123.096 52.6431 122.684 52.6431H122.659C118.139 52.5914 114.723 51.5648 112.39 49.7554C110.002 47.9037 108.937 45.3727 108.937 42.8247C108.937 41.0201 109.468 39.2272 110.396 37.6489C109.145 37.6948 107.904 37.7359 106.765 37.7554H106.729C106.259 37.7554 105.534 37.6378 104.928 37.0552C104.323 36.4741 104.169 35.7502 104.161 35.229L104.16 35.23L104.088 31.7144L104.087 31.6929V31.6704C104.087 31.2003 104.205 30.4975 104.756 29.9009C105.333 29.276 106.074 29.1011 106.632 29.1011C111.758 29.1011 120.41 29.1015 125.739 28.981L125.764 28.98H125.787C126.257 28.98 126.96 29.0981 127.557 29.6489C128.182 30.226 128.356 30.9666 128.356 31.5249V34.9927Z" fill="#EE7F16"/>
<path d="M88.1113 49.9517C88.1384 50.1323 88.2452 50.2536 88.4219 50.2847L88.5166 50.2925H101.828L101.916 50.2847C102.087 50.2539 102.221 50.1326 102.256 49.9517L102.265 49.856V46.3882C102.264 46.1548 102.116 45.9954 101.916 45.9595L101.828 45.9517H93.0752V42.3149H100.519C100.785 42.3149 100.955 42.1451 100.955 41.8784V38.5327C100.955 38.2994 100.825 38.159 100.614 38.1274L100.519 38.1206H93.0752V34.895H101.513C101.725 34.895 101.9 34.7654 101.94 34.5542L101.949 34.4595V30.9917C101.949 30.725 101.755 30.5552 101.513 30.5552V28.4468C102.758 28.4468 103.905 29.3577 104.044 30.7144L104.058 30.9917V34.4595L104.044 34.7358C103.941 35.7501 103.272 36.5127 102.422 36.8345C102.83 37.2843 103.012 37.8189 103.054 38.3042L103.063 38.5327V41.8784C103.063 42.4661 102.868 43.1483 102.328 43.688C102.265 43.7516 102.198 43.8095 102.131 43.8638C103.254 43.9977 104.232 44.8658 104.359 46.1118L104.373 46.3882V49.856L104.359 50.1333C104.221 51.4899 103.073 52.4009 101.828 52.4009H88.5166C87.9201 52.4009 87.2063 52.1965 86.6592 51.6021C86.1357 51.033 85.9961 50.3572 85.9961 49.856V30.9917C85.9961 30.4904 86.1356 29.8147 86.6592 29.2456C87.2063 28.6511 87.9201 28.4468 88.5166 28.4468V30.5552L88.4219 30.563C88.2155 30.5992 88.1045 30.7584 88.1045 30.9917V49.856L88.1113 49.9517ZM101.513 28.4468V30.5552H88.5166V28.4468H101.513Z" fill="#EE7F16"/>
<path d="M65.9189 49.9517C65.946 50.1324 66.0536 50.2537 66.2305 50.2847L66.3252 50.2925H70.3018L70.3955 50.2847C70.5725 50.2538 70.6799 50.1325 70.707 49.9517L70.7139 49.856V38.2173L77.7939 50.0015C77.8788 50.1709 78.0189 50.2663 78.2148 50.2876L78.3027 50.2925H82.6426L82.7373 50.2847C82.9142 50.2537 83.0217 50.1325 83.0488 49.9517L83.0557 49.856V30.9917C83.0557 30.725 82.9093 30.5552 82.6426 30.5552V28.4468C83.2392 28.4468 83.9538 28.6509 84.501 29.2456C84.9592 29.7436 85.1225 30.3235 85.1562 30.7964L85.1641 30.9917V49.856L85.1562 50.0513C85.1225 50.5242 84.9591 51.1041 84.501 51.6021C83.9538 52.1967 83.2392 52.4009 82.6426 52.4009H78.3027C77.9019 52.4009 77.4187 52.3197 76.9473 52.0503C76.5128 51.8019 76.1947 51.4533 75.9795 51.0767L72.8223 45.8208V49.856L72.8154 50.0513C72.7816 50.5242 72.6173 51.104 72.1592 51.6021C71.6121 52.1965 70.8982 52.4008 70.3018 52.4009H66.3252C65.7286 52.4009 65.014 52.1967 64.4668 51.6021C63.9433 51.033 63.8037 50.3572 63.8037 49.856V30.9917C63.8037 30.4904 63.9433 29.8147 64.4668 29.2456C65.014 28.6509 65.7286 28.4468 66.3252 28.4468V30.5552L66.2305 30.563C66.024 30.5991 65.9131 30.7583 65.9131 30.9917V49.856L65.9189 49.9517ZM70.6895 28.4468C71.1034 28.4468 71.5909 28.5334 72.0645 28.814C72.4094 29.0184 72.6568 29.2726 72.833 29.5054L72.9863 29.729L73.0059 29.7603L76.1455 34.9819V30.9917C76.1455 30.4899 76.2867 29.7926 76.8428 29.2134C77.413 28.6195 78.1334 28.4469 78.6904 28.4468V30.5552C78.3997 30.5553 78.2539 30.7251 78.2539 30.9917V42.5815L71.1982 30.8462C71.0921 30.6764 70.9675 30.5812 70.7754 30.5601L70.6895 30.5552V28.4468ZM82.6426 28.4468V30.5552H78.6904V28.4468H82.6426ZM70.6895 28.4468V30.5552H66.3252V28.4468H70.6895Z" fill="#EE7F16"/>
<path d="M55.8516 49.9517C55.8787 50.1323 55.9854 50.2537 56.1621 50.2847L56.2568 50.2925H60.4268L60.5225 50.2847C60.7033 50.2537 60.8244 50.1324 60.8555 49.9517L60.8633 49.856V30.9917C60.8633 30.725 60.6935 30.5552 60.4268 30.5552V28.4468C61.0143 28.4468 61.6967 28.6426 62.2363 29.1821C62.7084 29.6542 62.9179 30.2356 62.9629 30.7671L62.9717 30.9917V49.856L62.9629 50.0806C62.9179 50.6119 62.7082 51.1925 62.2363 51.6646C61.6967 52.2042 61.0144 52.4009 60.4268 52.4009H56.2568C55.6602 52.4009 54.9456 52.1968 54.3984 51.6021C53.8749 51.033 53.7363 50.3572 53.7363 49.856V30.9917C53.7363 30.4904 53.8749 29.8147 54.3984 29.2456C54.9456 28.6508 55.6602 28.4468 56.2568 28.4468V30.5552L56.1621 30.563C55.9557 30.5992 55.8447 30.7584 55.8447 30.9917V49.856L55.8516 49.9517ZM60.4268 28.4468V30.5552H56.2568V28.4468H60.4268Z" fill="#EE7F16"/>
<path d="M37.874 49.9517C37.9011 50.1325 38.0086 50.2537 38.1855 50.2847L38.2793 50.2925H51.543L51.6299 50.2847C51.797 50.2538 51.9164 50.1325 51.9473 49.9517L51.9551 49.856V45.9282C51.9551 45.7159 51.825 45.5774 51.6299 45.5464L51.543 45.5396V43.4312C52.0792 43.4312 52.7275 43.5961 53.2646 44.0884C53.7539 44.5368 53.9982 45.1191 54.0518 45.686L54.0635 45.9282V49.856L54.0537 50.0786C54.0097 50.6052 53.8063 51.1706 53.3613 51.6343C52.8475 52.1695 52.1723 52.4009 51.543 52.4009H38.2793C37.6828 52.4008 36.9689 52.1965 36.4219 51.6021C35.8984 51.033 35.7588 50.3572 35.7588 49.856V30.9917C35.7588 30.4904 35.8983 29.8147 36.4219 29.2456C36.9689 28.6511 37.6828 28.4469 38.2793 28.4468V30.5552C38.0129 30.5554 37.8672 30.7251 37.8672 30.9917V49.856L37.874 49.9517ZM42.8867 30.9917C42.8867 30.725 42.7169 30.5552 42.4502 30.5552V28.4468C43.0378 28.4468 43.7201 28.6425 44.2598 29.1821C44.7319 29.6542 44.9404 30.2356 44.9854 30.7671L44.9951 30.9917V43.4312H51.543V45.5396H42.8867V30.9917ZM42.4502 28.4468V30.5552H38.2793V28.4468H42.4502Z" fill="#EE7F16"/>
</g>
</g>
<rect x="0.75" y="0.75" width="346.5" height="81.5" rx="10.75" stroke="#8B4569" stroke-width="1.5"/>
<defs>
<filter id="filter0_d_395_12366" x="0.5" y="1.5" width="346" height="82.1084" filterUnits="userSpaceOnUse" color-interpolation-filters="sRGB">
<feFlood flood-opacity="0" result="BackgroundImageFix"/>
<feColorMatrix in="SourceAlpha" type="matrix" values="0 0 0 0 0 0 0 0 0 0 0 0 0 0 0 0 0 0 127 0" result="hardAlpha"/>
<feOffset dy="2.10843"/>
<feComposite in2="hardAlpha" operator="out"/>
<feColorMatrix type="matrix" values="0 0 0 0 0.921569 0 0 0 0 0.458824 0 0 0 0 0.219608 0 0 0 1 0"/>
<feBlend mode="normal" in2="BackgroundImageFix" result="effect1_dropShadow_395_12366"/>
<feBlend mode="normal" in="SourceGraphic" in2="effect1_dropShadow_395_12366" result="shape"/>
</filter>
<linearGradient id="paint0_linear_395_12366" x1="209.554" y1="77.5" x2="209.821" y2="1.50003" gradientUnits="userSpaceOnUse">
<stop offset="0.4999" stop-color="#FFBD26"/>
<stop offset="0.5" stop-color="#FFC849"/>
</linearGradient>
<clipPath id="clip0_395_12366">
<rect x="1.5" y="1.5" width="345" height="80" rx="10" fill="white"/>
</clipPath>
</defs>
</svg>
