<svg width="348" height="83" viewBox="0 0 348 83" fill="none" xmlns="http://www.w3.org/2000/svg">
<g clip-path="url(#clip0_477_710)">
<mask id="mask0_477_710" style="mask-type:luminance" maskUnits="userSpaceOnUse" x="1" y="1" width="346" height="81">
<path d="M336.039 1.58154H12.1237C6.30145 1.58154 1.58154 6.30145 1.58154 12.1237V71.0393C1.58154 76.8616 6.30145 81.5815 12.1237 81.5815H336.039C341.862 81.5815 346.582 76.8616 346.582 71.0393V12.1237C346.582 6.30145 341.862 1.58154 336.039 1.58154Z" fill="white"/>
</mask>
<g mask="url(#mask0_477_710)">
<g filter="url(#filter0_d_477_710)">
<path d="M346.582 3.58154H1.58154V81.5815H346.582V3.58154Z" fill="#EB7538"/>
<path d="M336.582 1.58154H10.5815C6.16326 1.58154 2.58154 5.16326 2.58154 9.58154V69.5815C2.58154 73.9998 6.16326 77.5815 10.5815 77.5815H336.582C341 77.5815 344.582 73.9998 344.582 69.5815V9.58154C344.582 5.16326 341 1.58154 336.582 1.58154Z" fill="url(#paint0_linear_477_710)"/>
<path d="M344.474 11.5811C344.473 7.22291 340.94 3.69048 336.582 3.69043H11.5811C7.22303 3.69068 3.69068 7.22303 3.69043 11.5811V69.582C3.69069 73.94 7.22304 77.4724 11.5811 77.4727H336.582C340.94 77.4726 344.473 73.9402 344.474 69.582V11.5811ZM346.582 69.582C346.582 75.1046 342.105 79.582 336.582 79.582H11.5811C6.05858 79.5818 1.58131 75.1045 1.58105 69.582V11.5811C1.58131 6.05858 6.05858 1.58131 11.5811 1.58105H336.582C342.105 1.5811 346.582 6.05845 346.582 11.5811V69.582Z" fill="#EB7538"/>
<path d="M298.98 54.3986C298.713 54.3986 298.543 54.2532 298.543 53.9864V50.0584C298.543 49.7917 298.689 49.622 298.956 49.5977C301.744 49.331 302.762 46.9306 302.762 41.766C302.762 36.6014 301.744 34.2009 298.956 33.9342C298.689 33.9099 298.543 33.7645 298.543 33.4977V29.5697C298.543 29.303 298.713 29.1333 298.956 29.1333C305.139 29.4242 307.854 34.1039 307.854 41.766C307.854 49.4038 305.139 54.1077 298.98 54.3986Z" fill="white"/>
<path d="M274.321 29.8122C274.321 29.5698 274.466 29.4243 274.709 29.4243H294.664C294.906 29.4243 295.052 29.5698 295.052 29.8122V47.3428C295.052 50.6162 293.136 51.7315 288.311 51.5133C288.069 51.5133 287.948 51.3921 287.875 51.1738L286.638 47.7065C286.614 47.658 286.614 47.6095 286.614 47.561C286.614 47.3186 286.808 47.2701 287.002 47.2701C290.227 47.4398 290.712 47.1003 290.712 46.2517V42.9056H278.637V51.1011C278.637 51.3678 278.491 51.4891 278.249 51.4891H274.709C274.466 51.4891 274.321 51.3678 274.321 51.1011V29.8122ZM282.444 33.4978H278.637V38.6382H282.444V33.4978ZM290.712 33.4978H286.784V38.6382H290.712V33.4978Z" fill="white"/>
<path d="M262.153 50.7615C257.158 50.7615 254.175 46.9305 254.175 40.505C254.175 34.0796 257.158 30.2485 262.153 30.2485C267.196 30.2485 270.154 34.0796 270.154 40.505C270.154 46.9305 267.196 50.7615 262.153 50.7615ZM259.194 40.505C259.194 44.4088 260.407 45.9121 262.153 45.9121C263.923 45.9121 265.135 44.4088 265.135 40.505C265.135 36.6012 263.923 35.0979 262.153 35.0979C260.407 35.0979 259.194 36.6012 259.194 40.505Z" fill="white"/>
<path d="M242.59 50.7615C237.595 50.7615 234.612 46.9305 234.612 40.505C234.612 34.0796 237.595 30.2485 242.59 30.2485C247.633 30.2485 250.591 34.0796 250.591 40.505C250.591 46.9305 247.633 50.7615 242.59 50.7615ZM239.631 40.505C239.631 44.4088 240.844 45.9121 242.59 45.9121C244.36 45.9121 245.572 44.4088 245.572 40.505C245.572 36.6012 244.36 35.0979 242.59 35.0979C240.844 35.0979 239.631 36.6012 239.631 40.505Z" fill="white"/>
<path d="M219.948 50.3737C219.633 50.3737 219.512 50.1555 219.608 49.8888L225.549 35.3649H217.79C217.523 35.3649 217.354 35.2194 217.354 34.9769V31.0731C217.354 30.8064 217.523 30.6367 217.79 30.6367H231.441C231.708 30.6367 231.877 30.8064 231.877 31.0731V32.3582C231.877 32.5522 231.853 32.6977 231.805 32.8674L224.991 50.0343C224.919 50.2283 224.725 50.3737 224.506 50.3737H219.948Z" fill="white"/>
<path d="M210.129 55.0294C209.814 55.0294 209.669 54.8112 209.766 54.5444L211.172 50.374C210.251 49.9375 209.645 49.0889 209.645 47.9493C209.645 46.3732 210.881 45.2578 212.457 45.2578C214.057 45.2578 215.246 46.3732 215.246 47.9493C215.246 49.2101 214.858 50.1315 213.815 52.435L212.772 54.7142C212.7 54.9081 212.53 55.0294 212.287 55.0294H210.129Z" fill="white"/>
<path d="M196.994 50.3737C196.679 50.3737 196.557 50.1555 196.654 49.8888L202.595 35.3649H194.836C194.569 35.3649 194.399 35.2194 194.399 34.9769V31.0731C194.399 30.8064 194.569 30.6367 194.836 30.6367H208.487C208.754 30.6367 208.923 30.8064 208.923 31.0731V32.3582C208.923 32.5522 208.899 32.6977 208.851 32.8674L202.037 50.0343C201.964 50.2283 201.77 50.3737 201.552 50.3737H196.994Z" fill="white"/>
<path d="M190.972 54.3986C184.764 54.1077 182.049 49.428 182.049 41.766C182.049 34.1282 184.764 29.4242 190.947 29.1333C191.214 29.1333 191.335 29.303 191.335 29.5697V33.4977C191.335 33.7645 191.214 33.9099 190.972 33.9342C188.135 34.2009 187.116 36.6014 187.116 41.766C187.116 46.9306 188.135 49.331 190.972 49.5977C191.214 49.622 191.335 49.7917 191.335 50.0584V53.9864C191.335 54.2532 191.214 54.3986 190.972 54.3986Z" fill="white"/>
<path d="M163.621 33.3526C163.718 33.5708 163.67 33.7406 163.476 33.886L160.493 35.9713C160.421 36.0198 160.324 36.044 160.251 36.044C160.13 36.044 160.033 35.9713 159.96 35.8258C159.208 34.3225 158.044 32.7222 156.808 31.6068C156.711 31.5098 156.662 31.4128 156.662 31.3159C156.662 31.2189 156.711 31.1219 156.832 31.0491L159.645 29.0609C159.717 29.0124 159.814 28.9639 159.887 28.9639C159.984 28.9639 160.081 29.0124 160.178 29.0851C161.56 30.2005 162.845 31.825 163.621 33.3526ZM163.039 42.324C166.361 40.36 168.131 37.0624 168.64 33.6193C168.64 33.5466 168.665 33.4981 168.689 33.4496V33.2556H164.809C164.567 33.2556 164.421 33.1101 164.421 32.8677V29.6186C164.421 29.3761 164.567 29.2306 164.809 29.2306H172.811C173.053 29.2306 173.199 29.3761 173.199 29.6428C173.15 34.9287 174.363 39.6326 178.873 42.2028C179.018 42.2755 179.091 42.3725 179.091 42.4937C179.091 42.5665 179.067 42.6392 178.994 42.7362L176.496 46.0095C176.399 46.1308 176.302 46.1793 176.205 46.1793C176.108 46.1793 176.036 46.155 175.939 46.0823C173.999 44.5305 172.083 42.2755 170.944 39.6083C169.78 42.324 167.889 44.7729 165.803 46.1308C165.706 46.1793 165.634 46.2035 165.561 46.2035C165.464 46.2035 165.367 46.155 165.27 46.0338L163.039 43.2454V44.6517C163.791 46.1065 164.931 46.7369 166.967 46.9309C168.034 47.0279 169.295 47.1006 170.726 47.1006C173.078 47.1006 175.89 46.9552 179.018 46.6642C179.333 46.64 179.479 46.8097 179.382 47.0764L178.218 50.5437C178.145 50.7619 178.024 50.8589 177.806 50.8832C175.551 51.0529 172.835 51.1499 170.483 51.1499C169.125 51.1499 167.889 51.1256 166.919 51.0287C164.664 50.8347 162.627 50.3982 161.172 48.7979C160.445 49.6466 159.475 50.471 158.505 51.2226C158.432 51.2954 158.335 51.3196 158.263 51.3196C158.166 51.3196 158.044 51.2469 157.972 51.1256L155.983 47.9008C155.935 47.8281 155.911 47.7311 155.911 47.6826C155.911 47.5371 155.983 47.4401 156.153 47.3674C157.147 46.9067 158.117 46.252 158.869 45.5973V41.3056H156.881C156.638 41.3056 156.493 41.1601 156.493 40.9177V37.5958C156.493 37.3534 156.638 37.2079 156.881 37.2079H162.651C162.894 37.2079 163.039 37.3534 163.039 37.5958V42.324Z" fill="white"/>
<path d="M139.714 29.1091C139.714 28.8667 139.859 28.7212 140.102 28.7212H143.933C144.175 28.7212 144.321 28.8667 144.321 29.1091V31.3398H152.056C152.298 31.3398 152.444 31.4853 152.444 31.7278V46.47C152.444 46.7124 152.298 46.8579 152.056 46.8579H144.321V51.1739C144.321 51.4164 144.175 51.5618 143.933 51.5618H140.126C139.884 51.5618 139.738 51.4164 139.738 51.1739V46.8579H132.173C131.931 46.8579 131.785 46.7124 131.785 46.47V31.7278C131.785 31.4853 131.931 31.3398 132.173 31.3398H139.714V29.1091ZM139.762 35.2921H136.028V37.2076L139.762 37.2319V35.2921ZM144.272 37.2561L148.176 37.2804V35.2921H144.272V37.2561ZM139.762 40.7477L136.028 40.7234V42.9299H139.762V40.7477ZM148.176 40.7962L144.272 40.7719V42.9299H148.176V40.7962Z" fill="white"/>
<path d="M122.765 50.616C114.279 50.519 111.127 46.7607 111.127 42.9055C111.127 39.9231 113.018 36.868 115.831 35.4131C113.091 35.5101 109.648 35.6799 106.811 35.7284C106.52 35.7284 106.35 35.5829 106.35 35.2677L106.277 31.7519C106.277 31.4609 106.423 31.2912 106.714 31.2912C111.83 31.2912 120.51 31.2912 125.869 31.1699C126.16 31.1699 126.33 31.3154 126.33 31.6064V35.0737C126.33 35.3647 126.184 35.5344 125.893 35.5344C125.166 35.5344 124.487 35.6071 123.832 35.7284C120.85 36.189 115.928 39.0017 115.928 42.2508C115.928 44.336 118.183 46.0333 123.517 45.9363C123.808 45.9363 123.953 46.0818 123.953 46.3V46.4213L123.274 50.2038C123.226 50.4948 123.056 50.616 122.765 50.616ZM122.862 42.7842C122.571 42.9055 122.377 42.7842 122.28 42.5175C121.844 41.2809 121.189 40.0201 120.438 39.0259C120.365 38.9047 120.316 38.8077 120.316 38.7107C120.316 38.5895 120.413 38.4683 120.583 38.3955L122.014 37.8378C122.256 37.7409 122.45 37.7651 122.62 37.9833C123.371 38.8562 124.244 40.3595 124.729 41.5476C124.826 41.8144 124.729 42.0326 124.463 42.1296L122.862 42.7842ZM126.208 41.4506C125.917 41.5719 125.723 41.4506 125.626 41.1839C125.19 40.0686 124.414 38.6865 123.735 37.8136C123.662 37.7166 123.614 37.6196 123.614 37.5226C123.614 37.3772 123.711 37.2559 123.905 37.1832L125.263 36.6255C125.505 36.5285 125.723 36.5528 125.893 36.7467C126.669 37.6196 127.59 39.1472 128.003 40.2625C128.1 40.5293 128.003 40.7475 127.736 40.8445L126.208 41.4506Z" fill="white"/>
<path d="M88.5982 50.3737C88.3315 50.3737 88.186 50.204 88.186 49.9373V31.0731C88.186 30.8064 88.3315 30.6367 88.5982 30.6367H101.595C101.837 30.6367 102.031 30.8064 102.031 31.0731V34.5405C102.031 34.8072 101.837 34.9769 101.595 34.9769H93.1567V38.2018H100.6C100.867 38.2018 101.037 38.3472 101.037 38.614V41.96C101.037 42.2268 100.867 42.3965 100.6 42.3965H93.1567V46.0335H101.91C102.152 46.0335 102.346 46.2033 102.346 46.47V49.9373C102.346 50.204 102.152 50.3737 101.91 50.3737H88.5982Z" fill="white"/>
<path d="M66.4063 50.3737C66.1396 50.3737 65.9941 50.204 65.9941 49.9373V31.0731C65.9941 30.8064 66.1396 30.6367 66.4063 30.6367H70.7708C71.0133 30.6367 71.1587 30.7337 71.28 30.9277L78.3359 42.6632V31.0731C78.3359 30.8064 78.4813 30.6367 78.7723 30.6367H82.7246C82.9913 30.6367 83.1368 30.8064 83.1368 31.0731V49.9373C83.1368 50.204 82.9913 50.3737 82.7246 50.3737H78.3844C78.1419 50.3737 77.9722 50.2768 77.8752 50.0828L70.795 38.2987V49.9373C70.795 50.204 70.6496 50.3737 70.3828 50.3737H66.4063Z" fill="white"/>
<path d="M56.338 50.3737C56.0713 50.3737 55.9258 50.204 55.9258 49.9373V31.0731C55.9258 30.8064 56.0713 30.6367 56.338 30.6367H60.5085C60.7752 30.6367 60.9449 30.8064 60.9449 31.0731V49.9373C60.9449 50.204 60.7752 50.3737 60.5085 50.3737H56.338Z" fill="white"/>
<path d="M38.3614 50.3737C38.0947 50.3737 37.9492 50.204 37.9492 49.9373V31.0731C37.9492 30.8064 38.0947 30.6367 38.3614 30.6367H42.5319C42.7986 30.6367 42.9683 30.8064 42.9683 31.0731V45.6213H51.6245C51.867 45.6213 52.0367 45.7668 52.0367 46.0093V49.9373C52.0367 50.204 51.867 50.3737 51.6245 50.3737H38.3614Z" fill="white"/>
<path d="M296.552 29.3555C296.595 28.8504 296.791 28.3093 297.216 27.8663C297.707 27.355 298.353 27.1339 298.956 27.1338H299.002L299.049 27.1358C302.701 27.3077 305.541 28.8242 307.384 31.5713C309.151 34.2055 309.854 37.751 309.854 41.7667L309.846 42.5118C309.762 46.2105 309.041 49.4786 307.389 51.9493C305.552 54.6968 302.721 56.2242 299.075 56.3965L299.027 56.3985H298.98C298.498 56.3985 297.851 56.2649 297.307 55.7647C296.739 55.2421 296.543 54.5591 296.543 53.9864V50.0586C296.543 49.565 296.683 48.9422 297.152 48.4122C297.626 47.8769 298.24 47.6572 298.765 47.6075L298.914 47.5889C299.242 47.5402 299.442 47.4469 299.576 47.3526C299.729 47.2446 299.913 47.0537 300.096 46.6661C300.5 45.8094 300.762 44.2958 300.762 41.7667C300.762 39.2373 300.5 37.723 300.096 36.8663C299.913 36.4786 299.729 36.2877 299.576 36.1797C299.423 36.072 299.184 35.9659 298.765 35.9258V35.9239C298.321 35.8819 297.707 35.7133 297.206 35.1905C296.687 34.6495 296.543 33.9967 296.543 33.4981V29.5704L296.552 29.3555ZM298.543 33.4981C298.543 33.7647 298.689 33.9104 298.956 33.9346C301.744 34.2013 302.762 36.602 302.762 41.7667L302.75 42.7022C302.628 47.2225 301.57 49.3477 298.956 49.5977C298.689 49.622 298.543 49.792 298.543 50.0586V53.9864C298.543 54.2196 298.673 54.3601 298.884 54.3917L298.98 54.3985C304.946 54.1166 307.681 49.6937 307.846 42.4737L307.854 41.7667C307.854 34.1046 305.139 29.4248 298.956 29.1338C298.713 29.1339 298.543 29.3037 298.543 29.5704V33.4981Z" fill="#EE7F16"/>
<path d="M274.328 51.1943C274.354 51.3675 274.459 51.4604 274.623 51.4834L274.708 51.4892H278.249L278.335 51.4834C278.498 51.4602 278.604 51.3673 278.63 51.1943L278.636 51.1015V42.9062H290.711V46.2519L290.706 46.4052C290.64 47.141 290.024 47.4296 287.001 47.2705C286.808 47.2705 286.614 47.3192 286.614 47.5615C286.614 47.6099 286.614 47.6586 286.638 47.707L287.875 51.1738C287.947 51.392 288.069 51.5136 288.311 51.5136C292.985 51.725 294.929 50.6847 295.046 47.6435L295.052 47.3427V29.8125C295.052 29.6004 294.941 29.4629 294.75 29.4316L294.664 29.4248V27.4248C295.186 27.4248 295.839 27.589 296.363 28.1132C296.822 28.5721 297.005 29.1293 297.043 29.6113L297.052 29.8125V47.3427L297.044 47.7265C296.968 49.6317 296.297 51.3671 294.534 52.4443C292.902 53.4405 290.683 53.623 288.221 53.5117V53.5097C287.767 53.4942 287.231 53.3603 286.755 52.9677C286.305 52.5958 286.096 52.143 285.992 51.8447L285.991 51.8457L284.765 48.4091C284.688 48.2106 284.651 48.0285 284.632 47.8818C284.622 47.7978 284.618 47.7187 284.616 47.6601L284.614 47.5615L284.619 47.4169C284.663 46.6954 285.036 46.001 285.727 45.5976C286.272 45.2796 286.813 45.2705 287.001 45.2705H287.054L287.107 45.2734L287.651 45.2978C288.08 45.3135 288.428 45.314 288.711 45.3066V44.9062H280.636V51.1015L280.629 51.2929C280.595 51.7608 280.424 52.3553 279.915 52.8418C279.349 53.3814 278.677 53.4892 278.249 53.4892H274.708C274.28 53.4892 273.608 53.3813 273.042 52.8418C272.461 52.2861 272.321 51.5893 272.321 51.1015V29.8125C272.321 29.2902 272.485 28.6375 273.009 28.1132C273.534 27.589 274.186 27.4248 274.708 27.4248V29.4248L274.623 29.4316C274.432 29.4627 274.321 29.6002 274.321 29.8125V51.1015L274.328 51.1943ZM282.444 33.498V38.6386H278.636V33.498H282.444ZM290.711 33.498V38.6386H286.784V33.498H290.711ZM294.664 27.4248V29.4248H274.708V27.4248H294.664Z" fill="#EE7F16"/>
<path d="M270.154 40.5048C270.154 34.2805 267.378 30.4906 262.62 30.2597L262.153 30.249C257.158 30.249 254.175 34.0796 254.175 40.5048C254.175 46.7293 256.974 50.52 261.69 50.7509L262.153 50.7617C267.196 50.7616 270.154 46.9302 270.154 40.5048ZM263.135 40.5048C263.135 38.6992 262.844 37.7808 262.598 37.3759C262.444 37.1212 262.353 37.0986 262.153 37.0986C261.975 37.0986 261.888 37.1116 261.731 37.371C261.485 37.7781 261.195 38.6996 261.195 40.5048L261.208 41.1416C261.267 42.5331 261.516 43.2834 261.731 43.6396C261.887 43.899 261.975 43.9121 262.153 43.9121V45.9121L261.991 45.9082C260.439 45.8223 259.343 44.4784 259.208 41.2089L259.195 40.5048C259.195 36.6014 260.407 35.0986 262.153 35.0986L262.317 35.1025C263.997 35.1943 265.135 36.7233 265.135 40.5048L265.121 41.2089C264.981 44.5909 263.812 45.912 262.153 45.9121V43.9121C262.353 43.9121 262.444 43.8894 262.598 43.6347C262.844 43.2298 263.135 42.3109 263.135 40.5048ZM272.154 40.5048C272.154 43.9927 271.355 47.0456 269.624 49.2714C267.841 51.5627 265.234 52.7616 262.153 52.7617C259.09 52.7617 256.492 51.5587 254.712 49.2714C252.982 47.0477 252.175 43.9964 252.175 40.5048C252.175 37.0135 252.982 33.9629 254.712 31.7392C256.492 29.4519 259.09 28.249 262.153 28.249C265.234 28.249 267.841 29.4479 269.624 31.7392C271.355 33.965 272.154 37.0171 272.154 40.5048Z" fill="#EE7F16"/>
<path d="M250.591 40.5048C250.591 34.2805 247.815 30.4906 243.056 30.2597L242.589 30.249C237.595 30.249 234.612 34.0796 234.612 40.5048C234.612 46.7297 237.411 50.5204 242.127 50.7509L242.589 50.7617C247.475 50.7617 250.404 47.1662 250.583 41.0996L250.591 40.5048ZM243.572 40.5048C243.572 38.6991 243.28 37.7808 243.035 37.3759C242.88 37.1212 242.789 37.0986 242.589 37.0986C242.412 37.0986 242.324 37.1116 242.167 37.371C241.922 37.7781 241.631 38.6997 241.631 40.5048L241.644 41.1416C241.703 42.5331 241.953 43.2834 242.167 43.6396C242.324 43.899 242.412 43.9121 242.589 43.9121V45.9121L242.427 45.9082C240.876 45.8222 239.78 44.4783 239.645 41.2089L239.631 40.5048C239.631 36.6014 240.844 35.0986 242.589 35.0986L242.753 35.1025C244.434 35.1942 245.572 36.7232 245.572 40.5048L245.558 41.2089C245.419 44.591 244.249 45.9121 242.589 45.9121V43.9121C242.789 43.9121 242.88 43.8895 243.035 43.6347C243.28 43.2298 243.572 42.311 243.572 40.5048ZM252.582 41.1543C252.487 44.3716 251.683 47.1848 250.06 49.2714C248.277 51.5627 245.671 52.7617 242.589 52.7617C239.527 52.7617 236.928 51.5588 235.149 49.2714C233.419 47.0477 232.612 43.9964 232.612 40.5048C232.612 37.0135 233.419 33.9629 235.149 31.7392C236.928 29.4519 239.527 28.249 242.589 28.249C245.671 28.249 248.277 29.4479 250.06 31.7392C251.792 33.965 252.591 37.0171 252.591 40.5048L252.582 41.1543Z" fill="#EE7F16"/>
<path d="M231.877 32.3584V31.0732C231.877 30.84 231.748 30.6808 231.537 30.6445L231.441 30.6367V28.6367C232.005 28.6367 232.658 28.825 233.173 29.3408C233.625 29.7922 233.826 30.3483 233.869 30.8584L233.877 31.0732V32.3584L233.867 32.6464C233.847 32.9238 233.798 33.1714 233.728 33.4169L233.701 33.5127L233.664 33.6054L226.85 50.7724L226.848 50.7714C226.489 51.6846 225.59 52.3739 224.506 52.374H219.948C219.337 52.374 218.485 52.1422 217.951 51.3271C217.441 50.5497 217.541 49.7215 217.729 49.205L217.743 49.1679L217.757 49.1318L222.57 37.3652H217.79C217.307 37.3651 216.682 37.232 216.15 36.7636C215.586 36.2677 215.353 35.593 215.353 34.9765V31.0732C215.353 30.5089 215.541 29.8565 216.057 29.3408C216.573 28.8251 217.225 28.6367 217.79 28.6367V30.6367C217.523 30.6368 217.353 30.8066 217.353 31.0732V34.9765C217.353 35.1888 217.483 35.3273 217.695 35.3584L217.79 35.3652H225.548L219.608 49.8886C219.523 50.1219 219.606 50.3187 219.838 50.3642L219.948 50.374H224.506L224.586 50.3671C224.771 50.3367 224.927 50.2039 224.991 50.0341L231.804 32.8671C231.841 32.74 231.863 32.6266 231.873 32.496L231.877 32.3584ZM231.441 28.6367V30.6367H217.79V28.6367H231.441Z" fill="#EE7F16"/>
<path d="M215.246 47.9492C215.246 46.4716 214.202 45.3988 212.752 45.2705L212.458 45.2578C210.881 45.2578 209.645 46.3731 209.645 47.9492L209.652 48.1591C209.722 49.1931 210.309 49.9648 211.172 50.374L209.766 54.5439C209.681 54.7771 209.782 54.9739 210.019 55.0195L210.129 55.0293H212.288L212.375 55.0234C212.571 54.9974 212.709 54.8834 212.773 54.7138L213.815 52.4345C214.792 50.2749 215.194 49.3303 215.241 48.1816L215.246 47.9492ZM217.239 48.2763C217.168 49.8893 216.576 51.1851 215.637 53.2597L215.634 53.2666L214.591 55.5459L214.59 55.5449C214.175 56.4928 213.261 57.0293 212.288 57.0293H210.129C209.523 57.0292 208.713 56.8051 208.173 56.0595C207.643 55.3269 207.669 54.498 207.872 53.9052L208.823 51.0781C208.09 50.2696 207.645 49.1967 207.645 47.9492C207.645 45.154 209.895 43.2578 212.458 43.2578C215.079 43.2579 217.246 45.1873 217.246 47.9492L217.239 48.2763Z" fill="#EE7F16"/>
<path d="M208.923 32.3584V31.0732C208.923 30.84 208.793 30.6808 208.583 30.6445L208.487 30.6367V28.6367C209.051 28.6367 209.703 28.825 210.219 29.3408C210.671 29.7922 210.871 30.3483 210.914 30.8584L210.923 31.0732V32.3584L210.913 32.6464C210.892 32.9238 210.844 33.1714 210.774 33.4169L210.746 33.5127L210.709 33.6054L203.896 50.7724L203.894 50.7714C203.535 51.6846 202.636 52.3739 201.552 52.374H196.994C196.383 52.374 195.531 52.1422 194.997 51.3271C194.487 50.5497 194.587 49.7215 194.775 49.205L194.788 49.1679L194.803 49.1318L199.616 37.3652H194.835C194.353 37.3652 193.728 37.232 193.196 36.7636C192.632 36.2677 192.399 35.593 192.399 34.9765V31.0732C192.399 30.5089 192.587 29.8565 193.103 29.3408C193.619 28.825 194.271 28.6367 194.835 28.6367V30.6367C194.569 30.6368 194.399 30.8065 194.399 31.0732V34.9765C194.399 35.1888 194.529 35.3273 194.741 35.3584L194.835 35.3652H202.594L196.654 49.8886C196.569 50.1219 196.651 50.3187 196.884 50.3642L196.994 50.374H201.552L201.632 50.3671C201.817 50.3367 201.973 50.2039 202.037 50.0341L208.85 32.8671C208.886 32.74 208.909 32.6266 208.918 32.496L208.923 32.3584ZM208.487 28.6367V30.6367H194.835V28.6367H208.487Z" fill="#EE7F16"/>
<path d="M191.335 29.5704C191.335 29.3037 191.214 29.1339 190.948 29.1338C184.765 29.4248 182.049 34.1289 182.049 41.7667L182.057 42.4756C182.217 49.4827 184.785 53.8297 190.4 54.3585L190.972 54.3985C191.214 54.3984 191.335 54.253 191.335 53.9864V50.0586C191.335 49.7921 191.214 49.6221 190.972 49.5977C188.313 49.3477 187.251 47.2225 187.128 42.7022L187.117 41.7667C187.117 36.7633 188.072 34.354 190.711 33.9659L190.972 33.9346C191.184 33.9133 191.303 33.7989 191.33 33.5919L191.335 33.4981V29.5704ZM193.335 33.4981L193.331 33.6622C193.307 34.0654 193.185 34.6029 192.781 35.0879C192.296 35.6693 191.657 35.8762 191.17 35.9249L191.159 35.9258C190.723 35.9669 190.473 36.0767 190.313 36.1876C190.155 36.2977 189.969 36.4895 189.786 36.8741C189.38 37.7271 189.117 39.2364 189.117 41.7667L189.128 42.668C189.184 44.664 189.43 45.9129 189.786 46.6592C189.969 47.0436 190.155 47.2347 190.313 47.3448C190.473 47.4556 190.723 47.5655 191.159 47.6065L191.17 47.6075C191.749 47.6653 192.381 47.9344 192.83 48.5176C193.243 49.0556 193.335 49.6459 193.335 50.0586V53.9864C193.335 54.3849 193.249 55.036 192.753 55.6055C192.215 56.2243 191.504 56.3984 190.972 56.3985H190.925L190.878 56.3965C187.217 56.2249 184.37 54.7107 182.523 51.9629C180.752 49.3281 180.049 45.7819 180.049 41.7667C180.049 37.7621 180.752 34.2182 182.518 31.5821C184.359 28.8335 187.198 27.3078 190.854 27.1358L190.901 27.1338H190.948C191.529 27.1339 192.246 27.3381 192.773 27.9649C193.249 28.5319 193.335 29.1718 193.335 29.5704V33.4981Z" fill="#EE7F16"/>
<path d="M170.944 39.6085C172.083 42.2755 173.999 44.5303 175.939 46.0821C176.036 46.1548 176.109 46.1788 176.206 46.1788C176.302 46.1787 176.4 46.1309 176.497 46.0098L178.994 42.7364C179.048 42.6638 179.075 42.6045 179.085 42.5489L179.091 42.4932C179.091 42.3722 179.018 42.2749 178.873 42.2022C174.363 39.632 173.15 34.9284 173.199 29.6426C173.199 29.4092 173.087 29.2688 172.897 29.2374L172.811 29.2305V27.2305C173.335 27.2306 174.009 27.3974 174.542 27.9542C175.063 28.4991 175.199 29.1572 175.199 29.6426V29.6612C175.152 34.7135 176.318 38.4445 179.863 40.4649L179.861 40.4669C180.367 40.7491 181.001 41.3331 181.083 42.2852L181.091 42.4932L181.08 42.7208C181.029 43.2362 180.813 43.6432 180.594 43.9356L180.589 43.9424L180.583 43.9493L179.927 44.8077C180.245 44.9215 180.574 45.1176 180.86 45.4444C181.556 46.2404 181.458 47.1743 181.276 47.712L181.278 47.7129L180.115 51.1749L180.116 51.1758C180.004 51.5113 179.784 51.9649 179.333 52.334C178.877 52.7063 178.385 52.8313 178.027 52.8711L177.992 52.8751L177.956 52.877C175.647 53.0508 172.881 53.1495 170.483 53.1495C169.133 53.1495 167.82 53.126 166.748 53.0206C165.001 52.8704 163.031 52.5648 161.311 51.4922C160.804 51.9487 160.277 52.3762 159.775 52.7667C159.262 53.2011 158.675 53.3194 158.262 53.3194C157.303 53.3192 156.61 52.7285 156.269 52.1739L154.281 48.9503L154.282 48.9483C154.149 48.7348 154.066 48.5308 154.017 48.3711C153.981 48.2549 153.939 48.0884 153.92 47.8907L153.911 47.6827L153.917 47.5167C153.944 47.1232 154.073 46.6833 154.379 46.2823C154.68 45.8892 155.047 45.674 155.312 45.5538C155.848 45.3056 156.385 44.9787 156.869 44.6299V43.3047C156.348 43.3022 155.701 43.1366 155.181 42.6163C154.657 42.0922 154.493 41.4401 154.493 40.918V37.5958C154.493 37.0735 154.657 36.4208 155.181 35.8965C155.705 35.3723 156.358 35.2081 156.88 35.2081V37.2081L156.794 37.2149C156.604 37.246 156.493 37.3836 156.493 37.5958V40.918C156.493 41.13 156.604 41.2678 156.794 41.2989L156.88 41.3057H158.869V45.5977C158.117 46.2523 157.147 46.9066 156.153 47.3672C155.983 47.44 155.911 47.5373 155.911 47.6827C155.911 47.7312 155.935 47.8278 155.984 47.9004L157.972 51.126C158.045 51.2467 158.165 51.3192 158.262 51.3194C158.335 51.3194 158.433 51.2955 158.505 51.2227C159.475 50.4711 160.445 49.6465 161.172 48.7979C162.627 50.3981 164.664 50.8344 166.918 51.0284C167.888 51.1254 169.125 51.1495 170.483 51.1495C172.541 51.1495 174.877 51.0757 176.94 50.9434L177.806 50.8829C178.024 50.8586 178.146 50.7619 178.218 50.544L179.381 47.0762C179.478 46.8095 179.333 46.6399 179.018 46.6641C175.89 46.9551 173.078 47.1006 170.726 47.1006V45.1006C171.152 45.1006 171.594 45.0939 172.051 45.084C171.674 44.6435 171.311 44.1789 170.965 43.6924C170.632 44.1782 170.278 44.6466 169.905 45.0899C170.171 45.0954 170.445 45.1006 170.726 45.1006V47.1006L169.685 47.0879C168.677 47.0629 167.767 47.0035 166.967 46.9307C164.931 46.7367 163.791 46.1062 163.04 44.6514V43.2452L165.27 46.0333C165.367 46.1545 165.464 46.2032 165.561 46.2032C165.634 46.2032 165.706 46.1793 165.803 46.1309C167.888 44.7731 169.78 42.324 170.944 39.6085ZM159.887 26.9639C160.45 26.9639 160.888 27.168 161.162 27.337L161.378 27.4854L161.407 27.5059L161.434 27.5284C161.845 27.8602 162.247 28.2283 162.631 28.6211C162.739 28.3778 162.892 28.1367 163.11 27.919C163.634 27.3948 164.287 27.2306 164.809 27.2305V29.2305L164.723 29.2374C164.533 29.2685 164.421 29.4062 164.421 29.6182V32.8672C164.421 33.1096 164.567 33.2558 164.809 33.2559H168.689V33.4493C168.665 33.4978 168.64 33.5465 168.64 33.6192C168.131 37.0623 166.361 40.3603 163.04 42.3243V37.5958C163.04 37.3837 162.928 37.2461 162.738 37.2149L162.652 37.2081H156.88V35.2081H157.277C156.733 34.4113 156.102 33.6634 155.468 33.0919L155.43 33.0577L155.394 33.0206C155.099 32.7253 154.714 32.2013 154.667 31.4659L154.663 31.3155L154.668 31.1534C154.721 30.3952 155.14 29.7728 155.707 29.3956L158.491 27.4278L158.512 27.4122L158.536 27.3965C158.648 27.3213 158.799 27.2331 158.978 27.1563C159.125 27.0932 159.458 26.9639 159.887 26.9639ZM159.887 28.9639C159.815 28.9639 159.718 29.0122 159.645 29.0606L156.833 31.0489L156.754 31.1075C156.69 31.1699 156.663 31.2428 156.663 31.3155C156.663 31.4125 156.711 31.5095 156.808 31.6065C158.045 32.7217 159.208 34.3221 159.959 35.8253C160.032 35.9706 160.129 36.0438 160.25 36.044C160.323 36.044 160.421 36.0193 160.494 35.9708L163.476 33.8858C163.67 33.7404 163.718 33.5706 163.622 33.3526C162.846 31.825 161.56 30.2004 160.178 29.085C160.081 29.0123 159.984 28.9639 159.887 28.9639ZM172.811 27.2305V29.2305H164.809V27.2305H172.811ZM165.04 37.7159C165.538 36.9563 165.923 36.1274 166.208 35.2559H164.943C164.852 35.3453 164.76 35.4225 164.675 35.4864L164.649 35.5059L164.622 35.5254L164.239 35.792C164.276 35.8252 164.314 35.86 164.35 35.8965C164.874 36.4208 165.04 37.0735 165.04 37.5958V37.7159Z" fill="#EE7F16"/>
<path d="M139.738 51.1739C139.738 51.4162 139.883 51.5614 140.125 51.5616H143.933L144.019 51.5557C144.182 51.529 144.287 51.4236 144.314 51.2608L144.321 51.1739V46.8585H152.055L152.142 46.8516C152.305 46.8248 152.41 46.7196 152.437 46.5567L152.444 46.4698V31.7276C152.444 31.4853 152.298 31.3399 152.055 31.3399V29.3399C152.577 29.3399 153.23 29.5043 153.754 30.0284C154.213 30.4871 154.396 31.0445 154.435 31.5264L154.444 31.7276V46.4698L154.435 46.6719C154.396 47.1538 154.213 47.7104 153.754 48.169C153.23 48.6933 152.577 48.8585 152.055 48.8585H146.321V51.1739L146.313 51.3751C146.274 51.8571 146.09 52.4142 145.631 52.8731C145.107 53.3971 144.455 53.5615 143.933 53.5616H140.125C139.603 53.5615 138.951 53.3971 138.427 52.8731C137.903 52.3488 137.738 51.6961 137.738 51.1739V48.8585H132.173C131.651 48.8585 130.998 48.6933 130.474 48.169C129.95 47.6447 129.785 46.992 129.785 46.4698V31.7276C129.785 31.2054 129.95 30.5526 130.474 30.0284C130.998 29.5044 131.651 29.3399 132.173 29.3399V31.3399L132.086 31.3467C131.896 31.3779 131.785 31.5157 131.785 31.7276V46.4698C131.785 46.6819 131.896 46.8204 132.086 46.8516L132.173 46.8585H139.738V51.1739ZM139.762 40.7481V42.9297H136.028V40.7237L139.762 40.7481ZM148.176 40.796V42.9297H144.272V40.7725L148.176 40.796ZM148.176 35.292V37.2803L144.272 37.2559V35.292H148.176ZM139.762 35.292V37.2325L136.028 37.2081V35.292H139.762ZM144.321 29.1094C144.321 28.8973 144.209 28.7588 144.019 28.7276L143.933 28.7217V26.7217C144.455 26.7218 145.107 26.8862 145.631 27.4102C146.09 27.8691 146.274 28.4262 146.313 28.9083L146.321 29.1094V29.3399H152.055V31.3399H144.321V29.1094ZM137.713 29.1094C137.713 28.5872 137.879 27.9345 138.403 27.4102C138.927 26.886 139.58 26.7217 140.102 26.7217V28.7217L140.015 28.7276C139.825 28.7588 139.713 28.8973 139.713 29.1094V31.3399H132.173V29.3399H137.713V29.1094ZM143.933 26.7217V28.7217H140.102V26.7217H143.933Z" fill="#EE7F16"/>
<path d="M126.33 31.6064C126.33 31.3156 126.16 31.1699 125.869 31.1699C120.51 31.2911 111.829 31.291 106.713 31.291C106.423 31.291 106.277 31.4611 106.277 31.7519L106.35 35.2675C106.35 35.5435 106.48 35.6896 106.708 35.7216L106.811 35.7285C109.648 35.68 113.091 35.51 115.831 35.413C113.018 36.8679 111.126 39.9238 111.126 42.9062L111.136 43.2666C111.323 46.872 114.339 50.2944 121.985 50.5966L122.765 50.6162C123.056 50.6162 123.225 50.495 123.274 50.2041L123.954 46.4218V46.3007C123.954 46.0826 123.808 45.9366 123.517 45.9365C118.183 46.0335 115.927 44.3362 115.927 42.2509C115.927 39.002 120.849 36.1893 123.832 35.7285C124.486 35.6072 125.166 35.5351 125.893 35.5351C126.184 35.5351 126.33 35.365 126.33 35.0742V31.6064ZM122.62 37.9834C122.45 37.7653 122.256 37.7409 122.013 37.8378L120.583 38.3955C120.413 38.4682 120.316 38.5897 120.316 38.7109C120.316 38.8079 120.364 38.9051 120.437 39.0263C121.189 40.0204 121.843 41.281 122.28 42.5175C122.377 42.7842 122.571 42.9053 122.862 42.7841L124.462 42.1298C124.729 42.0328 124.826 41.8145 124.729 41.5478C124.244 40.3597 123.371 38.8562 122.62 37.9834ZM125.893 36.747C125.723 36.5531 125.505 36.5289 125.262 36.6259L123.905 37.1835C123.711 37.2562 123.614 37.3771 123.614 37.5224C123.614 37.6193 123.662 37.7166 123.735 37.8134C124.414 38.6863 125.19 40.0692 125.626 41.1845C125.723 41.451 125.918 41.5723 126.208 41.4511L127.736 40.8447C128.002 40.7477 128.099 40.5293 128.002 40.2627C127.59 39.1473 126.669 37.6199 125.893 36.747ZM117.927 42.2509C117.927 42.4316 117.969 42.7676 118.681 43.1572C119.122 43.398 119.774 43.6229 120.688 43.7695C120.595 43.6296 120.522 43.4915 120.466 43.3642L120.401 43.2011L120.397 43.1923L120.394 43.1835C120.041 42.1843 119.523 41.1814 118.957 40.3925C118.221 41.132 117.927 41.7902 117.927 42.2509ZM128.33 35.0742L128.324 35.2539C128.304 35.5475 128.231 35.9004 128.049 36.2519C128.724 37.1814 129.38 38.3265 129.779 39.3115L129.878 39.5693L129.882 39.5791L129.944 39.7734C130.075 40.2455 130.101 40.8425 129.827 41.4453C129.521 42.1171 128.974 42.5068 128.472 42.7021L128.473 42.7041L126.946 43.3095L126.945 43.3085C126.679 43.4151 126.352 43.4946 125.994 43.4951C125.75 43.7176 125.48 43.8754 125.218 43.9794L125.219 43.9814L124.672 44.2041C124.838 44.2875 125.003 44.3936 125.161 44.5312C125.672 44.9784 125.895 45.5577 125.943 46.08L125.954 46.3007V46.5996L125.921 46.7753L125.243 50.5576L125.241 50.5566C125.158 51.0277 124.926 51.6358 124.346 52.0918C123.781 52.5356 123.164 52.6162 122.765 52.6162H122.743C118.236 52.5647 114.846 51.5411 112.538 49.7509C110.177 47.9208 109.127 45.4222 109.126 42.9062C109.126 41.0563 109.692 39.2174 110.674 37.6142C109.356 37.6633 108.044 37.708 106.845 37.7285H106.811C106.358 37.7285 105.663 37.6151 105.084 37.0585C104.507 36.5034 104.359 35.8107 104.351 35.3085L104.35 35.3095L104.278 31.7939L104.277 31.7724V31.7519C104.277 31.2985 104.39 30.6256 104.917 30.0556C105.468 29.4587 106.176 29.291 106.713 29.291C111.839 29.291 120.493 29.2915 125.824 29.1709L125.846 29.1699H125.869C126.322 29.1699 126.995 29.2833 127.565 29.8095C128.162 30.3607 128.33 31.0693 128.33 31.6064V35.0742Z" fill="#EE7F16"/>
</g>
</g>
<path d="M346.581 12.1235C346.581 6.30127 341.861 1.58154 336.039 1.58154H12.124C6.30176 1.58154 1.58203 6.30127 1.58203 12.1235V71.0386C1.58203 76.8608 6.30176 81.5815 12.124 81.5815H336.039C341.861 81.5815 346.581 76.8608 346.581 71.0386V12.1235ZM348.163 71.0386C348.163 77.7342 342.735 83.1626 336.039 83.1626H12.124C5.42842 83.1626 0 77.7342 0 71.0386V12.1235C0 5.42793 5.42842 -0.000488281 12.124 -0.000488281H336.039C342.735 -0.000488281 348.163 5.42793 348.163 12.1235V71.0386Z" fill="#8B4569"/>
</g>
<defs>
<filter id="filter0_d_477_710" x="1.58105" y="1.58105" width="345.001" height="82.1089" filterUnits="userSpaceOnUse" color-interpolation-filters="sRGB">
<feFlood flood-opacity="0" result="BackgroundImageFix"/>
<feColorMatrix in="SourceAlpha" type="matrix" values="0 0 0 0 0 0 0 0 0 0 0 0 0 0 0 0 0 0 127 0" result="hardAlpha"/>
<feOffset dy="2.10843"/>
<feComposite in2="hardAlpha" operator="out"/>
<feColorMatrix type="matrix" values="0 0 0 0 0.921569 0 0 0 0 0.458824 0 0 0 0 0.219608 0 0 0 1 0"/>
<feBlend mode="normal" in2="BackgroundImageFix" result="effect1_dropShadow_477_710"/>
<feBlend mode="normal" in="SourceGraphic" in2="effect1_dropShadow_477_710" result="shape"/>
</filter>
<linearGradient id="paint0_linear_477_710" x1="209.636" y1="77.5815" x2="209.902" y2="1.58157" gradientUnits="userSpaceOnUse">
<stop offset="0.4999" stop-color="#FFBD26"/>
<stop offset="0.5" stop-color="#FFC849"/>
</linearGradient>
<clipPath id="clip0_477_710">
<rect width="348" height="83" fill="white"/>
</clipPath>
</defs>
</svg>
