<svg width="231" height="40" viewBox="0 0 231 40" fill="none" xmlns="http://www.w3.org/2000/svg">
<path d="M217.471 26.4067C216.976 26.4067 216.757 26.1448 216.836 25.6957L220.235 3.6163C220.314 3.16723 220.588 2.90527 221.082 2.90527H227.01C227.504 2.90527 227.686 3.16723 227.607 3.6163L223.22 25.6957C223.141 26.1448 222.829 26.4067 222.335 26.4067H217.471ZM218.035 36.9973C215.565 36.9973 214.012 35.463 214.434 33.068C214.869 30.5981 216.964 29.0637 219.434 29.0637C221.904 29.0637 223.419 30.5981 222.984 33.068C222.562 35.463 220.505 36.9973 218.035 36.9973Z" fill="white"/>
<path d="M193.709 24.5356C193.795 24.0491 194.1 23.8246 194.485 24.0117L198.892 25.9577C199.176 26.0699 199.282 26.3319 199.223 26.6687C197.394 35.3133 195.665 36.2863 190.92 36.4735C189.121 36.5483 187.873 36.5109 186.968 36.4735C184.176 36.3612 181.907 34.7894 182.808 31.833L184.493 26.3693H181.073C178.1 33.1054 172.923 36.1741 164.214 37.0722C163.828 37.1096 163.626 36.9599 163.527 36.6606L161.772 31.3091C161.648 30.9349 161.898 30.5981 162.354 30.5981C168.366 30.3361 171.972 29.0638 173.815 26.3693H165.645C165.265 26.3693 165.077 26.1448 165.143 25.7706L166.007 20.8682C166.073 20.494 166.341 20.2694 166.721 20.2694H175.765L176.199 18.0241C176.265 17.6498 176.532 17.4253 176.912 17.4253H182.916C183.296 17.4253 183.485 17.6498 183.419 18.0241L182.985 20.2694H192.333C192.751 20.2694 192.901 20.494 192.791 20.9056C192.005 23.6375 190.739 28.0159 190.381 29.4006C190.237 29.9993 190.28 30.1864 190.692 30.2239C191.065 30.2613 191.255 30.2613 191.604 30.2239C192.339 30.149 192.737 29.4006 193.709 24.5356ZM176.678 10.3524C176.882 10.053 177.168 9.94076 177.497 10.0156L181.953 11.2506C182.313 11.3628 182.419 11.6248 182.201 11.999C179.901 15.7787 174.977 18.9222 169.482 19.4835C169.133 19.521 168.931 19.3713 168.832 19.0719L167.26 14.8431C167.104 14.4315 167.613 14.1321 168.538 14.0573C172.981 13.6456 175.275 12.4855 176.678 10.3524ZM180.9 2.56849C180.966 2.19426 181.234 1.96973 181.614 1.96973H188.34C188.72 1.96973 188.908 2.19426 188.842 2.56849L188.539 4.28993H201.117C201.497 4.28993 201.685 4.51447 201.619 4.88869L200.497 11.2506C200.431 11.6248 200.164 11.8493 199.784 11.8493H194.996L198.497 12.8972C198.819 13.0094 198.97 13.234 198.828 13.6082C197.56 17.3505 195.83 18.3234 191.15 18.3609H187.73C183.411 18.286 182.48 16.4523 182.869 14.2444L183.628 9.94076H173.14L172.698 12.4481C172.632 12.8223 172.365 13.0468 171.985 13.0468H166.627C166.247 13.0468 166.058 12.8223 166.124 12.4481L167.457 4.88869C167.523 4.51447 167.791 4.28993 168.171 4.28993H180.597L180.9 2.56849ZM192.823 11.8867C192.972 11.4751 193.264 11.3254 193.624 11.4377L193.915 11.5125C193.89 11.4377 193.903 11.3628 193.923 11.2506L194.154 9.94076H190.088L189.705 12.1113C189.613 12.6352 189.763 12.8597 190.403 12.8972H191.657C192.348 12.8597 192.59 12.5603 192.823 11.8867Z" fill="white"/>
<path d="M127.431 8.40643C127.497 8.0322 127.764 7.80767 128.144 7.80767H130.728L131.652 2.56849C131.718 2.19426 131.986 1.96973 132.366 1.96973H137.572C137.952 1.96973 138.14 2.19426 138.074 2.56849L137.15 7.80767H138.632C139.012 7.80767 139.201 8.0322 139.135 8.40643L138.257 13.3836C138.191 13.7579 137.924 13.9824 137.544 13.9824H136.062L135.507 17.1259C135.983 17.0136 136.466 16.864 136.948 16.7143C137.392 16.5646 137.625 16.7517 137.546 17.2008L137.018 20.1946C137.145 20.1197 137.266 20.0823 137.418 20.0823H145.056L145.333 18.5106C145.399 18.1363 145.667 17.9118 146.047 17.9118H150.075C149.262 17.3505 148.863 16.3775 149.121 14.918L149.464 12.972C147.383 16.1529 144.256 18.5854 140.537 19.6332C140.175 19.7455 139.967 19.6332 139.792 19.3339L137.744 15.2174C137.694 15.0677 137.638 14.9554 137.658 14.8431C137.697 14.6186 137.914 14.4689 138.224 14.4315C142.003 13.9076 144.18 12.3358 145.8 9.82849C146.018 9.45426 146.304 9.342 146.657 9.49169L149.84 10.8389L150.011 9.86591C150.077 9.49169 150.307 9.26715 150.725 9.26715H154.943C155.323 9.26715 155.511 9.49169 155.445 9.86591L154.911 12.8972C154.819 13.4211 154.982 13.5708 155.311 13.6456C155.646 13.683 155.95 13.683 156.261 13.6456C156.92 13.5708 157.214 13.1965 157.5 12.2235C157.655 11.7745 157.916 11.5874 158.308 11.737L161.642 13.0843C161.964 13.1965 162.07 13.4585 161.921 13.8701C160.649 17.4253 159.705 18.2486 155.967 18.548C154.775 18.6228 152.989 18.6228 152.091 18.548H152.015L151.793 18.5106H151.717L151.44 20.0823H159.496C159.876 20.0823 160.064 20.3068 159.998 20.6811L159.207 25.1718C159.141 25.546 158.873 25.7706 158.493 25.7706H152.641C154.578 27.7165 156.929 29.2509 159.134 30.1116C159.525 30.2613 159.586 30.5607 159.337 30.8975L155.869 35.9121C155.657 36.2489 155.34 36.3238 155.031 36.1366C152.944 34.8269 150.963 32.9183 149.447 30.5232L148.505 36.5109C148.439 36.8851 148.21 37.1096 147.792 37.1096H142.662C142.282 37.1096 142.093 36.8851 142.159 36.5109L143.322 30.5607C141.045 32.9183 138.339 34.9017 135.631 36.2489C135.256 36.436 134.972 36.3238 134.835 36.0244L132.911 31.4214C131.77 35.9495 129.958 36.9599 124.27 37.1096C123.928 37.1096 123.726 36.9599 123.671 36.6231L122.817 31.122C122.738 30.7104 123.012 30.4484 123.468 30.4484C125.71 30.4484 126.769 30.2613 127.033 28.7644L127.627 25.3963L124.893 26.0325C124.5 26.1074 124.267 25.9203 124.301 25.5086L124.529 20.1197C124.564 19.7081 124.756 19.4835 125.149 19.4087C126.36 19.2216 127.584 18.9596 128.808 18.6977L129.64 13.9824H127.056C126.676 13.9824 126.487 13.7579 126.553 13.3836L127.431 8.40643ZM144.672 10.8389C144.606 11.2131 144.338 11.4377 143.958 11.4377H139.816C139.436 11.4377 139.248 11.2131 139.314 10.8389L140.62 3.42921C140.686 3.05498 140.954 2.83045 141.334 2.83045H162.652C163.032 2.83045 163.22 3.05498 163.154 3.42921L161.868 10.7266C161.802 11.1009 161.534 11.3254 161.154 11.3254H156.632C156.214 11.3254 156.064 11.1009 156.13 10.7266L156.532 8.44385H145.094L144.672 10.8389ZM136.295 23.0013C136.117 23.151 134.619 23.6749 134.333 23.7872L133.165 30.411L133.209 30.3736C136.142 29.4754 139.307 27.9037 142.039 25.7706H136.415C136.035 25.7706 135.847 25.546 135.913 25.1718L136.295 23.0013Z" fill="white"/>
<path d="M95.1159 35.7998C90.0619 35.7998 86.8842 33.779 86.1001 30.0367C86.0753 29.9619 86.0951 29.8496 86.1083 29.7748C86.1478 29.5502 86.3708 29.3631 86.688 29.2883L91.9268 28.2405C92.0028 28.2405 92.0854 28.203 92.1614 28.203C92.4274 28.203 92.591 28.3527 92.7348 28.6147C93.2457 29.8122 94.4007 30.3735 95.8067 30.3735C97.1367 30.3735 98.0387 29.9993 98.1772 29.2134C98.2894 28.5773 97.8746 28.1282 96.0984 27.6417L95.302 27.4172C89.7519 25.9202 88.1948 23.1135 88.7887 19.7455C89.4947 15.7413 93.7516 12.9346 99.1856 12.9346C103.936 12.9346 106.704 14.6934 107.443 18.4731C107.461 18.5854 107.486 18.6602 107.473 18.7351C107.427 18.997 107.204 19.1842 106.848 19.259L101.749 20.3817H101.597C101.293 20.3817 101.129 20.232 101.03 19.9326C100.562 18.9222 99.8628 18.3609 98.5328 18.3609C97.5068 18.3609 96.6874 18.6977 96.5489 19.4835C96.4169 20.232 97.1225 20.7559 98.7599 21.1676L99.5249 21.3547C105.158 22.8142 106.662 25.0595 105.995 28.8392C105.25 33.068 100.74 35.7998 95.1159 35.7998Z" fill="white"/>
<path d="M78.0072 17.3877C77.5512 17.3877 77.3826 17.0509 77.6138 16.6018L80.4442 11.3252C79.1818 10.7264 78.5569 9.5289 78.8341 7.95715C79.2102 5.82406 81.1081 4.32715 83.4261 4.32715C85.7061 4.32715 87.1142 5.82406 86.7381 7.95715C86.5137 9.22952 85.8648 10.5393 83.4701 14.2067L81.7096 16.8638C81.4982 17.2006 81.1992 17.3877 80.8572 17.3877H78.0072Z" fill="white"/>
<path d="M64.7257 35.7997C59.0637 35.7997 57.2008 32.3568 58.316 26.0324L59.4245 19.7454H56.7645C56.3465 19.7454 56.1267 19.4834 56.1993 19.0718L57.0769 14.0946C57.1429 13.7203 57.4617 13.4209 57.8797 13.4209H60.5397L61.4503 8.25662C61.5229 7.84497 61.8351 7.58301 62.2531 7.58301H68.4851C68.9031 7.58301 69.1229 7.84497 69.0503 8.25662L68.1397 13.4209H72.5857C73.0037 13.4209 73.2169 13.7203 73.1509 14.0946L72.2733 19.0718C72.2007 19.4834 71.8885 19.7454 71.4705 19.7454H67.0245L65.7906 26.7434C65.4607 28.6146 65.7963 29.5127 66.9743 29.5127C67.4683 29.5127 67.8499 29.2882 68.3355 28.6894C68.5139 28.5397 68.6477 28.4274 68.8377 28.4274C68.9517 28.4274 69.0591 28.4649 69.1979 28.5397L73.1371 30.336C73.3833 30.4483 73.5023 30.6354 73.4562 30.8973C73.4364 31.0096 73.3274 31.1967 73.225 31.3464C71.0681 34.5273 67.6897 35.7997 64.7257 35.7997Z" fill="white"/>
<path d="M39.7205 35.7998C32.5765 35.7998 28.8033 31.122 29.9977 24.3485C31.1854 17.6124 36.6083 12.9346 43.7523 12.9346C51.2003 12.9346 54.311 18.1363 52.5733 25.6209C52.4627 26.0325 52.1951 26.2571 51.7391 26.2571H37.3371C37.5244 28.4276 38.7193 29.6251 40.8473 29.6251C42.4813 29.6251 43.821 29.1386 44.8104 28.0533C45.1292 27.754 45.4464 27.6791 45.7752 27.754L50.8545 29.5502C51.1007 29.6625 51.2263 29.8122 51.1867 30.0367C51.1669 30.149 51.1091 30.2613 51.0067 30.411C48.2882 34.1907 43.9765 35.7998 39.7205 35.7998ZM45.7324 22.178C45.6971 20.0075 44.6229 18.7725 42.6089 18.7725C40.5189 18.7725 38.9083 19.9326 38.0564 22.178H45.7324Z" fill="white"/>
<path d="M2.99346 35.3883C2.57546 35.3883 2.39365 35.1264 2.46624 34.7147L7.59997 5.59988C7.67256 5.18823 7.94675 4.92627 8.36475 4.92627H14.9008C15.3188 4.92627 15.5386 5.18823 15.466 5.59988L11.5068 28.0535H25.0728C25.4528 28.0535 25.6792 28.278 25.6132 28.6523L24.5442 34.7147C24.4717 35.1264 24.1595 35.3883 23.7795 35.3883H2.99346Z" fill="white"/>
<path d="M222.984 33.0683C223.406 30.6756 221.997 29.1608 219.663 29.0685L219.434 29.0636C216.964 29.0636 214.869 30.5984 214.434 33.0683L214.4 33.2904C214.119 35.4846 215.545 36.9039 217.806 36.9931L218.035 36.9979C220.428 36.9978 222.433 35.5576 222.94 33.2904L222.984 33.0683ZM227.357 0.936035L227.01 2.90565H221.082L221.43 0.936035H227.357ZM224.92 33.3856C224.566 34.9631 223.677 36.3656 222.374 37.3816C221.005 38.4497 219.34 38.9675 217.688 38.9675C216.036 38.9675 214.55 38.4511 213.549 37.3903C212.532 36.3121 212.131 34.7881 212.434 33.0683C212.741 31.3286 213.67 29.7851 215.073 28.6895C215.346 28.4761 215.631 28.2851 215.925 28.1154C215.7 28.0032 215.485 27.8489 215.3 27.6384C214.797 27.0647 214.732 26.3368 214.829 25.738L214.829 25.739L218.228 3.65964C218.23 3.64522 218.232 3.63079 218.234 3.61637C218.327 3.08871 218.594 2.34156 219.302 1.72754C220.026 1.0994 220.835 0.936035 221.43 0.936035L221.082 2.90565L220.908 2.91719C220.523 2.97338 220.304 3.22333 220.234 3.61637L216.835 25.6957C216.766 26.0887 216.926 26.3386 217.298 26.3949L217.471 26.4064H222.334C222.828 26.4064 223.14 26.1448 223.219 25.6957L227.606 3.61637C227.676 3.22341 227.546 2.97345 227.181 2.91719L227.01 2.90565L227.357 0.936035C227.952 0.936035 228.704 1.0994 229.206 1.72754C229.697 2.34154 229.7 3.08875 229.606 3.61637C229.604 3.63079 229.602 3.64523 229.599 3.65964L225.212 25.739L225.21 25.738C225.096 26.3368 224.776 27.0647 224.07 27.6384C223.808 27.8514 223.536 28.0068 223.267 28.1192C223.501 28.2904 223.718 28.4827 223.915 28.6982C224.922 29.7991 225.288 31.3417 224.984 33.0683L224.92 33.3856Z" fill="#262626"/>
<path d="M183.628 9.9404L182.87 14.2441C182.48 16.4521 183.411 18.2855 187.73 18.3603H191.15C195.83 18.3229 197.559 17.3503 198.827 13.6084C198.969 13.2342 198.819 13.009 198.497 12.8967L194.996 11.8494H199.783C200.163 11.8494 200.431 11.6245 200.497 11.2503L201.619 4.88845C201.685 4.51424 201.496 4.2893 201.116 4.2893L201.463 2.31968C202.054 2.31968 202.73 2.50279 203.195 3.05637C203.659 3.60989 203.721 4.30651 203.619 4.88845L202.497 11.2503C202.394 11.8322 202.086 12.5288 201.427 13.0824C201.245 13.2349 201.056 13.3573 200.867 13.4574C200.838 13.616 200.797 13.7702 200.745 13.9181L200.747 13.9191C200.052 15.9705 199.055 17.8163 197.121 18.9931C196.409 19.4262 195.639 19.721 194.82 19.9231C194.898 20.3574 194.833 20.777 194.75 21.0839C194.747 21.0958 194.745 21.1077 194.741 21.1195C194.663 21.3915 194.58 21.6792 194.494 21.9774C194.924 21.9673 195.297 22.0706 195.572 22.1947L195.573 22.1928L199.98 24.1393L199.979 24.1403C201.091 24.614 201.392 25.7086 201.223 26.6687C201.219 26.6913 201.213 26.7143 201.209 26.737C200.743 28.9382 200.266 30.7409 199.716 32.2024C199.168 33.6569 198.496 34.915 197.563 35.9176C195.548 38.0811 193.001 38.3476 190.657 38.4402C188.783 38.5181 187.476 38.48 186.537 38.4412L186.538 38.4402C184.831 38.3712 183.118 37.8565 181.952 36.7293C180.716 35.5351 180.208 33.7471 180.868 31.585L180.87 31.5783L181.468 29.6366C179.973 32.055 178.072 34.0141 175.673 35.5137C172.477 37.5109 168.61 38.5636 164.081 39.0307L163.873 39.0451C163.415 39.0623 162.91 38.9822 162.462 38.6989C161.958 38.3805 161.708 37.9216 161.582 37.541L161.581 37.5362L159.826 32.1851L159.826 32.1842C159.624 31.5666 159.636 30.6472 160.316 29.7904C160.981 28.9516 161.902 28.6556 162.611 28.6325L162.611 28.6306C163.867 28.5759 164.968 28.4762 165.934 28.3392H165.298C164.707 28.3392 164.031 28.1561 163.567 27.6025C163.102 27.049 163.04 26.3524 163.143 25.7704L164.007 20.8675C164.11 20.2856 164.418 19.5889 165.077 19.0354C165.475 18.7015 165.903 18.504 166.309 18.3988L165.334 15.7781L165.335 15.7771C165.234 15.5065 165.174 15.1681 165.216 14.7885C164.972 14.6731 164.74 14.5104 164.548 14.2807C164.083 13.7271 164.021 13.0297 164.124 12.4476L165.457 4.88845C165.559 4.30654 165.867 3.60989 166.527 3.05637C167.187 2.50279 167.927 2.31968 168.518 2.31968L168.171 4.2893L168.033 4.29988C167.727 4.34803 167.514 4.56109 167.457 4.88845L166.124 12.4476C166.058 12.8218 166.247 13.0468 166.627 13.0468H171.984C172.364 13.0468 172.632 12.8218 172.698 12.4476L173.14 9.9404H183.628ZM177.497 10.0154C177.168 9.9406 176.883 10.0529 176.678 10.352C175.276 12.4851 172.981 13.6449 168.538 14.0566C167.613 14.1314 167.105 14.4316 167.26 14.8433L168.832 19.072C168.931 19.3711 169.133 19.5208 169.481 19.4836C174.976 18.9223 179.901 15.7782 182.201 11.9985C182.419 11.6244 182.313 11.3625 181.953 11.2503L177.497 10.0154ZM194.154 9.9404L193.923 11.2503C193.903 11.3623 193.89 11.4371 193.915 11.5119L193.624 11.4378C193.264 11.3255 192.972 11.4753 192.823 11.8869C192.591 12.5602 192.347 12.8593 191.657 12.8967H190.403L190.185 12.8737C189.795 12.8092 189.661 12.6319 189.682 12.2937L189.706 12.111L190.088 9.9404H194.154ZM188.687 0C189.278 1.03221e-05 189.953 0.182316 190.417 0.735721C190.817 1.21235 190.918 1.79536 190.873 2.31968H201.463L201.116 4.2893H188.539L188.842 2.56781C188.9 2.24049 188.762 2.02816 188.472 1.98019L188.339 1.96962L188.687 0ZM181.614 1.96962L181.476 1.98019C181.17 2.0283 180.958 2.24066 180.9 2.56781L180.596 4.2893H168.171L168.518 2.31968H178.956C179.095 1.79536 179.402 1.21236 179.97 0.735721C180.63 0.182141 181.37 0 181.961 0L181.614 1.96962ZM188.687 0L188.339 1.96962H181.614L181.961 0H188.687ZM165.143 25.7704C165.085 26.0978 165.222 26.3109 165.512 26.359L165.646 26.3696H173.815C171.972 29.0638 168.365 30.3363 162.353 30.5983L162.27 30.6021C161.868 30.6406 161.655 30.9582 161.772 31.309L163.526 36.66C163.626 36.9593 163.827 37.1089 164.214 37.0717C172.922 36.1735 178.099 33.1054 181.073 26.3696H184.493L182.808 31.8331C181.907 34.7894 184.175 36.3612 186.967 36.4735C187.873 36.5109 189.12 36.5483 190.92 36.4735C195.664 36.2863 197.394 35.3131 199.223 26.6687C199.275 26.3738 199.2 26.136 198.99 26.006L198.892 25.957L194.485 24.0114C194.1 23.8243 193.794 24.0491 193.708 24.5356C192.736 29.3999 192.339 30.1483 191.604 30.2232C191.255 30.2606 191.065 30.2606 190.692 30.2232C190.28 30.1858 190.237 29.9987 190.381 29.4C190.739 28.0149 192.005 23.6367 192.791 20.905C192.901 20.4936 192.75 20.2693 192.332 20.2693H182.985L183.419 18.0237C183.485 17.6496 183.296 17.4255 182.916 17.4255H176.912C176.532 17.4256 176.265 17.6496 176.199 18.0237L175.765 20.2693H166.721L166.584 20.2799C166.277 20.328 166.065 20.5404 166.007 20.8675L165.143 25.7704Z" fill="#262626"/>
<path d="M142.146 36.6437C142.143 36.9373 142.329 37.109 142.661 37.1092H147.792L147.939 37.0986C148.218 37.0574 148.392 36.8955 148.472 36.6437L148.505 36.511L149.446 30.5233C150.962 32.9183 152.943 34.8271 155.031 36.1369C155.339 36.3239 155.657 36.2486 155.868 35.9118L159.336 30.8974C159.554 30.6027 159.535 30.3363 159.265 30.1742L159.133 30.1117C156.929 29.2509 154.577 27.7164 152.641 25.7704H158.492L158.63 25.7598C158.892 25.7186 159.086 25.5565 159.172 25.3049L159.206 25.1713L159.998 20.681C160.064 20.3067 159.875 20.0818 159.495 20.0818H151.44L151.717 18.5103H151.793L152.014 18.5479H152.09C152.989 18.6227 154.775 18.6227 155.966 18.5479C159.705 18.2485 160.648 17.4251 161.921 13.87C162.069 13.4584 161.963 13.1966 161.641 13.0843L158.307 11.7369C157.916 11.5872 157.654 11.7745 157.499 12.2235C157.213 13.1964 156.919 13.5701 156.26 13.645C155.95 13.6823 155.646 13.6823 155.311 13.645C154.982 13.5701 154.818 13.4207 154.911 12.8967L155.445 9.86539C155.511 9.49135 155.322 9.26719 154.942 9.26719H150.724C150.307 9.26722 150.077 9.49137 150.011 9.86539L149.839 10.8387L146.657 9.49128C146.303 9.34186 146.017 9.45399 145.799 9.82788C144.179 12.3352 142.002 13.9077 138.224 14.4317C137.913 14.4691 137.697 14.6187 137.657 14.8433C137.638 14.9554 137.694 15.0679 137.744 15.2174L139.791 19.3336C139.966 19.6329 140.175 19.7448 140.536 19.6327C144.255 18.5849 147.382 16.1526 149.463 12.9718L149.12 14.9173C148.862 16.3767 149.261 17.3498 150.074 17.9112H146.046C145.666 17.9113 145.399 18.1362 145.333 18.5103L145.056 20.0818H137.417C137.265 20.0819 137.144 20.1196 137.017 20.1943L137.545 17.2005C137.624 16.7515 137.392 16.5642 136.948 16.7138C136.465 16.8635 135.983 17.0132 135.507 17.1255L136.061 13.9825H137.543C137.923 13.9824 138.19 13.7575 138.256 13.3834L139.134 8.40645C139.2 8.03233 139.012 7.80742 138.632 7.80729H137.15L138.074 2.56781C138.131 2.24064 137.994 2.02828 137.705 1.98019L137.572 1.96962L137.919 0C138.51 9.71485e-05 139.185 0.182287 139.65 0.735721C139.814 0.931596 139.926 1.1463 140 1.36661C140.574 0.991439 141.18 0.860822 141.68 0.860745L141.333 2.83036L141.196 2.84094C140.89 2.88902 140.678 3.10137 140.62 3.42855L139.314 10.8387C139.248 11.2127 139.436 11.4376 139.815 11.4378H143.958C144.338 11.4378 144.605 11.2128 144.671 10.8387L145.093 8.44396H156.532L156.129 10.7261C156.063 11.1004 156.214 11.3253 156.632 11.3253H161.154C161.486 11.3253 161.733 11.1534 161.833 10.8598L161.868 10.7261L163.154 3.42855C163.212 3.10153 163.075 2.88916 162.785 2.84094L162.651 2.83036L162.999 0.860745C163.59 0.860745 164.265 1.04309 164.729 1.59647C165.136 2.08071 165.234 2.67468 165.184 3.20543L165.154 3.42855L163.868 10.7261L163.818 10.9493C163.75 11.214 163.637 11.4929 163.471 11.7677C163.64 11.9471 163.786 12.1659 163.885 12.4342C164.12 13.0734 164.003 13.7265 163.827 14.2162L163.828 14.2172C163.248 15.8381 162.575 17.4234 161.307 18.5863C161.401 18.6625 161.491 18.7501 161.574 18.8489C161.98 19.3332 162.079 19.9271 162.029 20.4578L161.998 20.681L161.206 25.1713L161.158 25.3944C161.021 25.9253 160.713 26.5198 160.136 27.0043C159.711 27.3612 159.252 27.5613 158.821 27.6602C159.267 27.8885 159.709 28.0906 160.142 28.2603H160.143L160.333 28.3421C160.785 28.5589 161.281 28.9646 161.456 29.6808C161.654 30.4941 161.33 31.2627 160.961 31.787L160.963 31.7889L157.495 36.8033L157.492 36.8014C157.123 37.3491 156.518 37.9024 155.683 38.119C154.953 38.3082 154.349 38.1626 153.926 37.9516L153.756 37.8584L153.734 37.8449C152.671 37.1776 151.639 36.3711 150.673 35.4396L150.511 36.4735C150.509 36.4858 150.507 36.4987 150.505 36.511L150.464 36.7043C150.348 37.1777 150.082 37.7907 149.487 38.3104C148.788 38.9208 148.008 39.0787 147.444 39.0788H142.314C141.723 39.0787 141.047 38.8965 140.583 38.3431C140.118 37.7896 140.056 37.0929 140.159 36.511C140.161 36.4986 140.163 36.4859 140.165 36.4735L140.353 35.5108C139.036 36.4566 137.671 37.2865 136.298 37.9699C135.689 38.2739 134.944 38.4263 134.236 38.2055C133.555 37.9933 133.159 37.5153 132.954 37.0678C132.947 37.0518 132.939 37.0351 132.933 37.0188L132.626 36.2869C132.22 36.735 131.75 37.1422 131.198 37.4958C129.255 38.741 126.773 39.0052 123.976 39.0788H123.922C123.455 39.0788 122.893 38.9745 122.422 38.5998C122.007 38.2696 121.795 37.8353 121.698 37.4217L121.664 37.2457L121.662 37.2342L120.808 31.7331L120.809 31.7322C120.708 31.116 120.809 30.1968 121.596 29.4C122.35 28.6376 123.257 28.4786 123.815 28.4786L124.534 28.469C124.742 28.4622 124.921 28.4516 125.078 28.4363C125.082 28.4359 125.087 28.4348 125.091 28.4344L125.183 27.9093L125.034 27.9449C125.004 27.9518 124.974 27.9584 124.944 27.9641C124.339 28.0793 123.553 28.0413 122.949 27.5208C122.376 27.0261 122.242 26.3314 122.273 25.7646L122.272 25.7656L122.501 20.3771L122.506 20.2982C122.543 19.8607 122.687 19.1752 123.245 18.5305C123.836 17.8495 124.569 17.578 125.097 17.4775L125.173 17.464C125.801 17.3669 126.436 17.2456 127.087 17.1139L127.292 15.9522H126.708C126.117 15.9522 125.442 15.7691 124.977 15.2155C124.513 14.6619 124.45 13.9654 124.552 13.3834L125.43 8.40645C125.533 7.82441 125.841 7.12698 126.501 6.5734C127.161 6.02011 127.9 5.83768 128.491 5.83768L128.144 7.80729L128.006 7.81787C127.7 7.86612 127.488 8.07918 127.43 8.40645L126.552 13.3834C126.495 13.7107 126.632 13.9237 126.921 13.972L127.055 13.9825H129.639L128.808 18.6979C127.583 18.9598 126.359 19.2215 125.148 19.4086C124.755 19.4835 124.563 19.7079 124.529 20.1193L124.301 25.5088C124.267 25.9201 124.499 26.1068 124.892 26.032L127.627 25.3963L127.033 28.7643L126.974 29.0297C126.632 30.2837 125.57 30.4482 123.468 30.4483C123.012 30.4483 122.738 30.7099 122.817 31.1215L123.671 36.6225C123.719 36.9172 123.879 37.0692 124.147 37.1024L124.269 37.1092C129.957 36.9595 131.769 35.9493 132.91 31.4215L134.835 36.0243C134.972 36.3236 135.256 36.4355 135.631 36.2484C138.338 34.9012 141.045 32.9184 143.322 30.5608L142.159 36.511L142.146 36.6437ZM135.912 25.1713C135.855 25.4987 135.991 25.7117 136.281 25.7598L136.414 25.7704H142.038C139.306 27.9034 136.141 29.4751 133.209 30.3732L133.164 30.4107L134.332 23.7873C134.618 23.6751 136.117 23.1503 136.295 23.0006L135.912 25.1713ZM129.652 2.56781C129.754 1.98588 130.062 1.28915 130.722 0.735721C131.382 0.18214 132.122 0 132.713 0L132.366 1.96962L132.228 1.98019C131.922 2.02831 131.71 2.24068 131.652 2.56781L130.728 7.80729H128.144L128.491 5.83768H129.075L129.652 2.56781ZM162.999 0.860745L162.651 2.83036H141.333L141.68 0.860745H162.999ZM137.919 0L137.572 1.96962H132.366L132.713 0H137.919Z" fill="#262626"/>
<path d="M107.473 18.7346C107.486 18.6599 107.461 18.5851 107.443 18.473C106.704 14.6934 103.935 12.9345 99.1854 12.9345C93.7516 12.9346 89.4952 15.7413 88.7892 19.7454L88.7396 20.0599C88.2964 23.2878 89.9255 25.967 95.3017 27.4171L96.0979 27.6421L96.416 27.7325C97.9245 28.185 98.2824 28.6172 98.1773 29.2136L98.1424 29.3559C97.9243 30.0446 97.0536 30.3734 95.8067 30.3734L95.5462 30.3667C94.2589 30.3007 93.214 29.7371 92.7351 28.6144C92.5913 28.3525 92.4271 28.2028 92.1612 28.2028C92.0853 28.2029 92.0029 28.2403 91.927 28.2403L86.6885 29.2886C86.3713 29.3635 86.1481 29.5507 86.1085 29.7752C86.0953 29.8501 86.0757 29.9622 86.1005 30.0368C86.8847 33.7789 90.0619 35.7994 95.1156 35.7995C100.564 35.7995 104.967 33.2359 105.914 29.2309L105.995 28.8395C106.662 25.0598 105.158 22.8139 99.525 21.3544L98.76 21.1678C97.1228 20.7562 96.4174 20.2321 96.5491 19.4838C96.6877 18.6979 97.5073 18.3605 98.5333 18.3605L98.7753 18.3673C99.9495 18.4327 100.591 18.9858 101.03 19.9329C101.129 20.2322 101.293 20.3821 101.597 20.3821H101.748L106.849 19.2588C107.159 19.1933 107.369 19.0421 107.448 18.8298L107.473 18.7346ZM109.473 18.7346C109.36 19.379 108.999 19.9954 108.445 20.46C107.942 20.8828 107.396 21.0827 106.963 21.1765L105.351 21.5313C105.911 21.9233 106.393 22.3597 106.793 22.8479C108.174 24.5329 108.391 26.5942 107.995 28.8395L107.945 29.1011C107.389 31.7908 105.648 34.0072 103.271 35.5043C100.871 37.0157 97.8841 37.7691 94.7683 37.7691C89.1737 37.769 85.1402 35.4811 84.1245 30.8091C84.0428 30.4989 84.0565 30.2245 84.0657 30.1013C84.0716 30.022 84.0808 29.9472 84.0895 29.8887L84.1085 29.7752L84.1703 29.5021C84.5424 28.185 85.7949 27.5535 86.5401 27.3777L86.6162 27.3613L89.2219 26.8391C88.7714 26.4648 88.3767 26.0619 88.0412 25.6264C86.7154 23.9049 86.4164 21.8597 86.7892 19.7454C87.2605 17.0723 88.9396 14.8067 91.2882 13.2653C93.5964 11.7505 96.4853 10.9649 99.5327 10.9648C102.144 10.9648 104.407 11.447 106.147 12.5988C107.806 13.6972 108.861 15.3185 109.35 17.3776L109.441 17.796L109.451 17.8498C109.451 17.8499 109.451 17.8544 109.455 17.8739C109.458 17.8872 109.468 17.9407 109.477 17.9951C109.493 18.0985 109.536 18.3767 109.473 18.7346Z" fill="#262626"/>
<path d="M86.7376 7.95755C87.1138 5.82446 85.7057 4.32704 83.4257 4.32704C81.1078 4.3272 79.2104 5.82458 78.8343 7.95755L78.7919 8.248C78.637 9.67656 79.2603 10.7642 80.4436 11.3255L77.6139 16.6016C77.3971 17.0226 77.5315 17.3458 77.925 17.3844L78.0074 17.3882H80.857L80.9835 17.3796C81.2725 17.3391 81.5243 17.1586 81.7092 16.8641L83.4697 14.2069C85.7147 10.7687 86.4256 9.40274 86.6905 8.19702L86.7376 7.95755ZM88.6721 8.29031C88.3028 9.95453 87.3442 11.6567 85.1327 15.0436C85.1297 15.0482 85.1264 15.0534 85.1233 15.058L83.3954 17.6633C82.8058 18.6027 81.7561 19.3579 80.5097 19.3579H77.6601C76.9245 19.3579 76.1009 19.064 75.6962 18.2557C75.3051 17.4745 75.5033 16.6065 75.8261 15.9793L75.8451 15.9437L77.9041 12.1036C76.9508 11.0823 76.5378 9.63964 76.8343 7.95755C77.1138 6.37231 77.9863 4.93387 79.2926 3.90195C80.587 2.87943 82.1742 2.3575 83.7729 2.35742C87.0093 2.35742 89.3303 4.5962 88.7376 7.95755L88.6721 8.29031Z" fill="#262626"/>
<path d="M57.0774 21.715H56.4173C55.7774 21.715 55.0997 21.5063 54.638 20.9562C54.1763 20.406 54.0877 19.7023 54.1987 19.0722L55.0764 14.0943C55.3214 12.7059 56.6314 11.4514 58.227 11.4514L57.8797 13.4211L57.7279 13.4345C57.386 13.4969 57.1343 13.7669 57.0764 14.0943L56.1987 19.0722C56.1353 19.4323 56.296 19.6782 56.6172 19.7338L56.7646 19.7454H59.4247L58.3162 26.0322L58.2199 26.6169C57.3497 32.3768 59.1196 35.5887 64.206 35.7899L64.7258 35.7995C67.6897 35.7994 71.068 34.5274 73.2248 31.3467C73.3016 31.2344 73.3819 31.1008 73.4257 30.9937L73.4563 30.8976C73.4967 30.6684 73.4101 30.4967 73.223 30.3821L73.1374 30.3359L69.1973 28.5394C69.0587 28.4647 68.951 28.4278 68.8371 28.4278C68.6473 28.4279 68.5133 28.5398 68.3349 28.6894C67.8494 29.2881 67.4679 29.5127 66.974 29.5127C65.8698 29.5126 65.5058 28.7234 65.7363 27.0833L65.7903 26.7439L67.0243 19.7454H71.4706L71.6221 19.7338C71.914 19.686 72.1374 19.4985 72.2353 19.2193L72.2729 19.0722L73.1507 14.0943C73.2082 13.7671 73.0525 13.497 72.7328 13.4345L72.5858 13.4211L72.9331 11.4514C74.5285 11.4516 75.3953 12.706 75.1507 14.0943L74.2729 19.0722L74.2209 19.3116C74.0731 19.8759 73.7439 20.4748 73.1702 20.9562C72.5145 21.5064 71.7632 21.7149 71.1233 21.715H68.677L67.7903 26.7439L67.7724 26.8564C68.127 26.6536 68.6165 26.4583 69.1844 26.4582C69.6897 26.4582 70.0681 26.6111 70.3046 26.7294L74.2437 28.5259C74.5855 28.6818 74.96 28.9443 75.2143 29.379C75.4473 29.7771 75.5295 30.2347 75.4836 30.6985L75.4563 30.8976L75.4244 31.0457C75.3422 31.3819 75.2009 31.6522 75.1416 31.7631C75.0473 31.9395 74.9439 32.1006 74.8577 32.2267C72.1299 36.2432 67.8875 37.769 64.3785 37.7691C61.1122 37.7691 58.6006 36.7541 57.1946 34.5088C55.8463 32.3555 55.7242 29.3896 56.3162 26.0322L57.0774 21.715ZM69.0501 8.25659C69.1136 7.89658 68.9535 7.6508 68.6326 7.59493L68.4852 7.58338L68.8325 5.61377C69.4722 5.61385 70.1492 5.82266 70.6108 6.37257C71.0725 6.92282 71.1612 7.62641 71.0501 8.25659L70.4868 11.4514H72.9331L72.5858 13.4211H68.1395L69.0501 8.25659ZM59.4505 8.25659C59.5616 7.62641 59.8975 6.92282 60.5532 6.37257C61.209 5.82233 61.9602 5.61378 62.6001 5.61377L62.2528 7.58338L62.1014 7.59493C61.7606 7.65069 61.514 7.89646 61.4505 8.25659L60.5399 13.4211H57.8797L58.227 11.4514H58.8872L59.4505 8.25659ZM68.8325 5.61377L68.4852 7.58338H62.2528L62.6001 5.61377H68.8325Z" fill="#262626"/>
<path d="M27.9971 24.3482C28.6704 20.53 30.5782 17.1511 33.4727 14.7223C36.3692 12.292 40.0729 10.9649 44.0991 10.9648C48.3255 10.9648 51.5319 12.4606 53.3677 15.2128C55.1788 17.9282 55.5014 21.6333 54.5504 25.7293C54.545 25.7526 54.5394 25.7762 54.5332 25.7995C54.3951 26.3132 54.0789 27.0002 53.3839 27.5431C53.0801 27.7804 52.7665 27.9369 52.4649 28.0422C52.6015 28.1494 52.7379 28.2823 52.8572 28.4481C53.1284 28.825 53.2581 29.2966 53.2152 29.8128L53.1864 30.0368L53.1408 30.2455C53.017 30.7169 52.7833 31.0822 52.6399 31.2919C52.629 31.3079 52.6174 31.3242 52.606 31.34C49.281 35.9627 44.0998 37.7691 39.3728 37.7691C35.3463 37.7691 32.1096 36.4416 30.0707 34.0049C28.0336 31.5702 27.321 28.1823 27.9971 24.3482ZM42.6082 18.7721C44.6221 18.7721 45.697 20.0073 45.7324 22.1776H38.0566C38.9085 19.9327 40.5186 18.7723 42.6082 18.7721ZM29.9971 24.3482C28.8027 31.1217 32.5762 35.7994 39.7201 35.7995C43.9761 35.7995 48.2877 34.1906 51.0062 30.4109C51.083 30.2986 51.1352 30.2075 51.1647 30.1215L51.1864 30.0368C51.226 29.8123 51.1004 29.6625 50.8542 29.5502L45.7745 27.7537C45.4459 27.679 45.1291 27.7545 44.8105 28.0538C43.8211 29.139 42.4808 29.6252 40.8469 29.6252L40.4588 29.6108C38.5737 29.4712 37.5129 28.2919 37.3372 26.2573H51.7386L51.9006 26.2467C52.2078 26.2051 52.4115 26.0399 52.5243 25.7668L52.5735 25.6206C54.3111 18.1362 51.1997 12.9345 43.7518 12.9345C36.608 12.9345 31.1849 17.6123 29.9971 24.3482Z" fill="#262626"/>
<path d="M2.4509 34.8618C2.44399 35.141 2.57864 35.3285 2.84748 35.3763L2.99388 35.3879H23.779C24.1115 35.3879 24.392 35.1876 24.5056 34.8618L24.5442 34.7147L25.6132 28.6519C25.6709 28.3247 25.505 28.1116 25.2082 28.0634L25.0722 28.0538L25.4195 26.0841C26.0032 26.0841 26.6514 26.2596 27.1177 26.7602C27.541 27.2147 27.6939 27.8081 27.6461 28.399L27.6132 28.6519L26.5442 34.7147L26.4926 34.9522C26.3465 35.5121 26.024 36.0962 25.4788 36.5698C24.8502 37.1158 24.1036 37.3575 23.4317 37.3575H2.64659C1.99814 37.3575 1.29481 37.1408 0.838749 36.5391C0.401026 35.9614 0.369241 35.2641 0.466103 34.7147L5.59992 5.59937C5.69686 5.04992 5.97448 4.35261 6.61594 3.77497C7.28422 3.1732 8.06396 2.95654 8.7124 2.95654L8.36511 4.92616L8.21463 4.9377C7.88132 4.9935 7.6635 5.23941 7.59992 5.59937L2.4661 34.7147L2.4509 34.8618ZM15.4661 5.59937C15.5295 5.23919 15.3689 4.9933 15.0476 4.9377L14.9003 4.92616L15.2476 2.95654C15.8873 2.95654 16.5651 3.16534 17.0268 3.71535C17.431 4.19696 17.5488 4.79638 17.4974 5.36086L17.4661 5.59937L13.8541 26.0841H25.4195L25.0722 28.0538H11.5068L15.4661 5.59937ZM15.2476 2.95654L14.9003 4.92616H8.36511L8.7124 2.95654H15.2476Z" fill="#262626"/>
<path d="M223.043 33.4164C223.465 31.0237 222.056 29.509 219.722 29.4166L219.493 29.4118C217.023 29.4118 214.929 30.9465 214.493 33.4164L214.459 33.6386C214.178 35.8328 215.605 37.252 217.866 37.3412L218.094 37.346C220.487 37.346 222.492 35.9058 222.999 33.6386L223.043 33.4164ZM227.417 1.28418L227.07 3.2538H221.142L221.489 1.28418H227.417ZM224.979 33.7338C224.625 35.3113 223.737 36.7137 222.434 37.7298C221.065 38.7979 219.4 39.3156 217.747 39.3156C216.096 39.3156 214.609 38.7993 213.608 37.7384C212.591 36.6603 212.19 35.1362 212.493 33.4164C212.8 31.6767 213.729 30.1333 215.133 29.0377C215.406 28.8243 215.691 28.6333 215.985 28.4635C215.759 28.3514 215.545 28.1971 215.36 27.9865C214.856 27.4129 214.791 26.685 214.888 26.0861L214.888 26.0871L218.287 4.00779C218.29 3.99337 218.291 3.97893 218.294 3.96451C218.387 3.43686 218.654 2.68971 219.361 2.07568C220.085 1.44754 220.895 1.28418 221.489 1.28418L221.142 3.2538L220.967 3.26534C220.582 3.32153 220.363 3.57148 220.294 3.96451L216.895 26.0438C216.826 26.4368 216.986 26.6868 217.358 26.743L217.53 26.7545H222.394C222.888 26.7545 223.2 26.4929 223.279 26.0438L227.666 3.96451C227.735 3.57156 227.605 3.3216 227.241 3.26534L227.07 3.2538L227.417 1.28418C228.011 1.28418 228.763 1.44754 229.266 2.07568C229.757 2.68968 229.759 3.43689 229.666 3.96451C229.664 3.97893 229.661 3.99337 229.658 4.00779L225.271 26.0871L225.269 26.0861C225.155 26.6849 224.835 27.4129 224.13 27.9865C223.867 28.1995 223.595 28.3549 223.327 28.4674C223.56 28.6385 223.778 28.8309 223.975 29.0463C224.982 30.1472 225.348 31.6899 225.043 33.4164L224.979 33.7338Z" fill="#262626"/>
<path d="M183.688 10.2885L182.929 14.5923C182.54 16.8002 183.47 18.6336 187.789 18.7085H191.209C195.889 18.671 197.619 17.6984 198.887 13.9566C199.029 13.5823 198.879 13.3572 198.556 13.2449L195.055 12.1976H199.843C200.223 12.1976 200.491 11.9726 200.557 11.5984L201.678 5.2366C201.744 4.86239 201.556 4.63744 201.176 4.63744L201.523 2.66783C202.114 2.66783 202.79 2.85093 203.254 3.40451C203.719 3.95804 203.781 4.65466 203.678 5.2366L202.557 11.5984C202.454 12.1804 202.146 12.877 201.486 13.4305C201.305 13.5831 201.115 13.7054 200.926 13.8056C200.898 13.9642 200.857 14.1184 200.805 14.2662L200.807 14.2672C200.112 16.3186 199.114 18.1645 197.181 19.3413C196.469 19.7743 195.698 20.0692 194.88 20.2713C194.957 20.7056 194.892 21.1252 194.81 21.4321C194.807 21.4439 194.804 21.4558 194.801 21.4677C194.723 21.7396 194.64 22.0273 194.554 22.3255C194.983 22.3155 195.357 22.4188 195.632 22.5429L195.633 22.5409L200.04 24.4875L200.039 24.4884C201.151 24.9621 201.452 26.0567 201.282 27.0168C201.278 27.0395 201.273 27.0624 201.268 27.0851C200.803 29.2863 200.326 31.0891 199.775 32.5506C199.227 34.005 198.555 35.2631 197.622 36.2657C195.608 38.4292 193.061 38.6957 190.716 38.7883C188.842 38.8663 187.536 38.8281 186.597 38.7893L186.597 38.7883C184.891 38.7194 183.178 38.2046 182.011 37.0774C180.775 35.8832 180.268 34.0953 180.927 31.9332L180.929 31.9264L181.527 29.9847C180.033 32.4032 178.132 34.3623 175.732 35.8618C172.537 37.859 168.669 38.9117 164.141 39.3788L163.933 39.3933C163.474 39.4105 162.97 39.3304 162.521 39.047C162.017 38.7287 161.768 38.2697 161.642 37.8891L161.64 37.8843L159.886 32.5333L159.886 32.5323C159.683 31.9147 159.696 30.9954 160.375 30.1386C161.04 29.2998 161.961 29.0037 162.67 28.9807L162.671 28.9787C163.926 28.924 165.027 28.8243 165.994 28.6873H165.358C164.767 28.6873 164.091 28.5042 163.626 27.9507C163.162 27.3971 163.1 26.7005 163.202 26.1186L164.067 21.2157C164.17 20.6337 164.477 19.937 165.137 19.3836C165.535 19.0496 165.962 18.8522 166.368 18.7469L165.394 16.1262L165.394 16.1253C165.293 15.8546 165.234 15.5162 165.275 15.1366C165.031 15.0212 164.8 14.8585 164.607 14.6288C164.143 14.0752 164.081 13.3778 164.183 12.7958L165.516 5.2366C165.619 4.65468 165.927 3.95803 166.586 3.40451C167.246 2.85093 167.987 2.66783 168.578 2.66783L168.23 4.63744L168.093 4.64802C167.786 4.69618 167.574 4.90923 167.516 5.2366L166.183 12.7958C166.117 13.17 166.306 13.3949 166.686 13.3949H172.044C172.424 13.3949 172.692 13.17 172.758 12.7958L173.2 10.2885H183.688ZM177.557 10.3636C177.228 10.2887 176.942 10.401 176.737 10.7002C175.335 12.8332 173.04 13.9931 168.598 14.4047C167.673 14.4796 167.164 14.7798 167.32 15.1914L168.891 19.4201C168.99 19.7192 169.192 19.869 169.54 19.8318C175.035 19.2704 179.96 16.1263 182.261 12.3466C182.478 11.9725 182.373 11.7107 182.013 11.5984L177.557 10.3636ZM194.213 10.2885L193.982 11.5984C193.963 11.7105 193.95 11.7853 193.974 11.86L193.684 11.786C193.323 11.6737 193.031 11.8234 192.883 12.2351C192.65 12.9084 192.407 13.2074 191.716 13.2449H190.463L190.245 13.2218C189.854 13.1573 189.721 12.98 189.742 12.6419L189.765 12.4592L190.148 10.2885H194.213ZM188.746 0.348145C189.337 0.348155 190.012 0.530461 190.477 1.08387C190.877 1.5605 190.978 2.14351 190.933 2.66783H201.523L201.176 4.63744H188.598L188.902 2.91595C188.96 2.58864 188.822 2.3763 188.532 2.32834L188.399 2.31776L188.746 0.348145ZM181.673 2.31776L181.536 2.32834C181.229 2.37644 181.017 2.5888 180.96 2.91595L180.656 4.63744H168.23L168.578 2.66783H179.015C179.155 2.14351 179.462 1.56051 180.03 1.08387C180.689 0.530285 181.43 0.348145 182.021 0.348145L181.673 2.31776ZM188.746 0.348145L188.399 2.31776H181.673L182.021 0.348145H188.746ZM165.202 26.1186C165.145 26.446 165.282 26.659 165.571 26.7071L165.705 26.7177H173.875C172.032 29.412 168.425 30.6845 162.413 30.9464L162.33 30.9503C161.927 30.9887 161.715 31.3064 161.831 31.6571L163.586 37.0082C163.685 37.3075 163.887 37.4571 164.273 37.4198C172.981 36.5217 178.159 33.4535 181.133 26.7177H184.553L182.868 32.1813C181.967 35.1375 184.235 36.7093 187.027 36.8216C187.932 36.859 189.18 36.8965 190.979 36.8216C195.724 36.6345 197.454 35.6612 199.282 27.0168C199.334 26.722 199.259 26.4841 199.049 26.3542L198.952 26.3051L194.545 24.3596C194.16 24.1725 193.854 24.3972 193.768 24.8837C192.796 29.7481 192.398 30.4964 191.663 30.5714C191.315 30.6088 191.125 30.6088 190.751 30.5714C190.34 30.5339 190.297 30.3469 190.44 29.7481C190.799 28.3631 192.065 23.9848 192.85 21.2532C192.961 20.8418 192.81 20.6175 192.392 20.6175H183.044L183.478 18.3719C183.544 17.9977 183.355 17.7737 182.976 17.7737H176.972C176.592 17.7737 176.325 17.9977 176.259 18.3719L175.825 20.6175H166.781L166.643 20.6281C166.337 20.6762 166.125 20.8885 166.067 21.2157L165.202 26.1186Z" fill="#262626"/>
<path d="M142.206 36.9918C142.203 37.2854 142.388 37.4572 142.72 37.4573H147.851L147.999 37.4467C148.277 37.4055 148.452 37.2437 148.532 36.9918L148.564 36.8591L149.506 30.8714C151.021 33.2665 153.003 35.1752 155.09 36.485C155.399 36.6721 155.716 36.5967 155.928 36.26L159.396 31.2455C159.614 30.9508 159.595 30.6845 159.324 30.5223L159.193 30.4598C156.988 29.5991 154.637 28.0645 152.7 26.1186H158.552L158.689 26.108C158.952 26.0667 159.145 25.9046 159.231 25.6531L159.266 25.5194L160.058 21.0291C160.124 20.6549 159.935 20.43 159.555 20.43H151.499L151.776 18.8585H151.852L152.073 18.896H152.15C153.048 18.9708 154.834 18.9708 156.025 18.896C159.764 18.5966 160.707 17.7732 161.98 14.2182C162.129 13.8065 162.023 13.5447 161.701 13.4324L158.367 12.0851C157.975 11.9354 157.714 12.1226 157.559 12.5717C157.273 13.5445 156.979 13.9183 156.32 13.9931C156.009 14.0305 155.706 14.0305 155.37 13.9931C155.042 13.9183 154.878 13.7688 154.97 13.2449L155.505 10.2135C155.571 9.83949 155.382 9.61534 155.002 9.61534H150.784C150.366 9.61537 150.136 9.83951 150.07 10.2135L149.898 11.1868L146.716 9.83942C146.363 9.69001 146.077 9.80213 145.859 10.176C144.239 12.6833 142.062 14.2559 138.284 14.7798C137.973 14.8172 137.756 14.9669 137.717 15.1914C137.697 15.3036 137.754 15.416 137.803 15.5655L139.851 19.6817C140.026 19.981 140.234 20.0929 140.596 19.9808C144.315 18.933 147.441 16.5008 149.522 13.3199L149.179 15.2655C148.922 16.7249 149.321 17.698 150.134 18.2593H146.106C145.726 18.2595 145.458 18.4844 145.392 18.8585L145.115 20.43H137.477C137.325 20.43 137.204 20.4677 137.077 20.5425L137.605 17.5486C137.684 17.0996 137.451 16.9124 137.007 17.062C136.525 17.2117 136.042 17.3613 135.566 17.4736L136.121 14.3307H137.603C137.983 14.3306 138.25 14.1057 138.316 13.7315L139.194 8.75459C139.26 8.38047 139.072 8.15556 138.692 8.15544H137.209L138.133 2.91595C138.191 2.58879 138.054 2.37643 137.764 2.32834L137.631 2.31776L137.979 0.348145C138.569 0.348242 139.245 0.530431 139.709 1.08387C139.874 1.27974 139.986 1.49444 140.06 1.71476C140.634 1.33958 141.24 1.20897 141.74 1.20889L141.393 3.17851L141.256 3.18908C140.949 3.23717 140.738 3.44951 140.68 3.7767L139.373 11.1868C139.307 11.5609 139.495 11.7858 139.875 11.786H144.017C144.397 11.7859 144.665 11.561 144.731 11.1868L145.153 8.7921H156.591L156.189 11.0743C156.123 11.4485 156.274 11.6734 156.692 11.6734H161.213C161.546 11.6734 161.792 11.5015 161.893 11.208L161.927 11.0743L163.214 3.7767C163.271 3.44967 163.134 3.23731 162.845 3.18908L162.711 3.17851L163.058 1.20889C163.649 1.20889 164.324 1.39123 164.789 1.94461C165.195 2.42886 165.294 3.02283 165.243 3.55358L165.214 3.7767L163.927 11.0743L163.878 11.2974C163.81 11.5621 163.696 11.8411 163.531 12.1158C163.7 12.2952 163.846 12.514 163.944 12.7823C164.179 13.4215 164.063 14.0746 163.887 14.5644L163.888 14.5653C163.307 16.1863 162.634 17.7716 161.366 18.9345C161.461 19.0107 161.551 19.0982 161.634 19.197C162.04 19.6814 162.139 20.2752 162.088 20.806L162.058 21.0291L161.266 25.5194L161.218 25.7425C161.081 26.2735 160.773 26.868 160.196 27.3525C159.77 27.7094 159.311 27.9094 158.881 28.0084C159.327 28.2367 159.768 28.4388 160.202 28.6085H160.203L160.392 28.6902C160.845 28.907 161.341 29.3128 161.516 30.0289C161.714 30.8422 161.389 31.6109 161.02 32.1351L161.023 32.137L157.555 37.1515L157.552 37.1496C157.183 37.6973 156.578 38.2505 155.743 38.4671C155.013 38.6563 154.409 38.5107 153.986 38.2998L153.816 38.2065L153.794 38.193C152.731 37.5258 151.698 36.7192 150.733 35.7878L150.571 36.8216C150.569 36.8339 150.566 36.8468 150.564 36.8591L150.523 37.0524C150.408 37.5258 150.142 38.1388 149.547 38.6585C148.847 39.269 148.067 39.4268 147.504 39.4269H142.373C141.782 39.4269 141.107 39.2447 140.642 38.6912C140.178 38.1377 140.116 37.4411 140.218 36.8591C140.221 36.8467 140.223 36.834 140.225 36.8216L140.412 35.8589C139.096 36.8047 137.731 37.6346 136.358 38.3181C135.748 38.6221 135.004 38.7744 134.296 38.5537C133.615 38.3415 133.219 37.8634 133.014 37.416C133.006 37.3999 132.999 37.3833 132.992 37.3669L132.686 36.635C132.279 37.0831 131.809 37.4904 131.258 37.8439C129.314 39.0892 126.833 39.3533 124.035 39.4269H123.981C123.515 39.4269 122.953 39.3227 122.482 38.948C122.067 38.6178 121.855 38.1835 121.758 37.7699L121.724 37.5939L121.722 37.5823L120.868 32.0813L120.869 32.0803C120.767 31.4641 120.868 30.5449 121.656 29.7481C122.41 28.9858 123.317 28.8268 123.875 28.8268L124.593 28.8172C124.802 28.8103 124.981 28.7998 125.137 28.7845C125.142 28.784 125.146 28.783 125.15 28.7825L125.243 28.2574L125.093 28.293C125.063 28.2999 125.034 28.3066 125.004 28.3123C124.398 28.4275 123.612 28.3895 123.009 27.8689C122.435 27.3743 122.301 26.6795 122.333 26.1128L122.332 26.1138L122.56 20.7252L122.565 20.6463C122.602 20.2089 122.746 19.5233 123.305 18.8787C123.895 18.1976 124.628 17.9262 125.157 17.8256L125.232 17.8121C125.86 17.7151 126.495 17.5937 127.146 17.4621L127.351 16.3003H126.767C126.176 16.3003 125.501 16.1172 125.037 15.5636C124.572 15.01 124.509 14.3136 124.612 13.7315L125.489 8.75459C125.592 8.17256 125.901 7.47512 126.561 6.92154C127.22 6.36826 127.96 6.18582 128.551 6.18582L128.204 8.15544L128.066 8.16602C127.759 8.21426 127.547 8.42732 127.489 8.75459L126.612 13.7315C126.554 14.0588 126.691 14.2719 126.981 14.3201L127.115 14.3307H129.699L128.867 19.046C127.643 19.308 126.419 19.5696 125.208 19.7567C124.815 19.8316 124.623 20.056 124.588 20.4675L124.361 25.857C124.326 26.2683 124.559 26.455 124.952 26.3802L127.686 25.7445L127.092 29.1124L127.034 29.3779C126.692 30.6318 125.629 30.7964 123.528 30.7964C123.072 30.7964 122.797 31.0581 122.877 31.4696L123.731 36.9707C123.779 37.2653 123.939 37.4173 124.207 37.4506L124.329 37.4573C130.017 37.3076 131.829 36.2975 132.969 31.7697L134.894 36.3725C135.031 36.6718 135.316 36.7837 135.691 36.5966C138.398 35.2494 141.104 33.2665 143.382 30.9089L142.218 36.8591L142.206 36.9918ZM135.972 25.5194C135.914 25.8468 136.051 26.0599 136.341 26.108L136.474 26.1186H142.098C139.366 28.2515 136.201 29.8233 133.268 30.7214L133.224 30.7589L134.392 24.1355C134.677 24.0232 136.176 23.4985 136.355 23.3488L135.972 25.5194ZM129.711 2.91595C129.814 2.33403 130.122 1.63729 130.781 1.08387C131.441 0.530285 132.182 0.348145 132.773 0.348145L132.425 2.31776L132.288 2.32834C131.981 2.37646 131.769 2.58882 131.711 2.91595L130.787 8.15544H128.204L128.551 6.18582H129.135L129.711 2.91595ZM163.058 1.20889L162.711 3.17851H141.393L141.74 1.20889H163.058ZM137.979 0.348145L137.631 2.31776H132.425L132.773 0.348145H137.979Z" fill="#262626"/>
<path d="M107.533 19.0828C107.546 19.0081 107.521 18.9332 107.503 18.8212C106.763 15.0415 103.995 13.2826 99.245 13.2826C93.8112 13.2827 89.5548 16.0894 88.8487 20.0935L88.7991 20.408C88.356 23.6359 89.985 26.3151 95.3612 27.7652L96.1575 27.9903L96.4755 28.0807C97.984 28.5332 98.342 28.9654 98.2368 29.5617L98.202 29.7041C97.9839 30.3928 97.1132 30.7216 95.8663 30.7216L95.6058 30.7149C94.3185 30.6488 93.2736 30.0853 92.7946 28.9626C92.6508 28.7007 92.4867 28.551 92.2207 28.551C92.1449 28.5511 92.0624 28.5884 91.9866 28.5885L86.748 29.6368C86.4308 29.7116 86.2077 29.8989 86.1681 30.1234C86.1549 30.1982 86.1353 30.3103 86.16 30.385C86.9442 34.127 90.1215 36.1476 95.1752 36.1476C100.624 36.1476 105.026 33.5841 105.974 29.5791L106.055 29.1876C106.721 25.4079 105.217 23.162 99.5845 21.7025L98.8196 21.5159C97.1824 21.1043 96.477 20.5803 96.6087 19.832C96.7473 19.0461 97.5669 18.7087 98.5929 18.7087L98.8349 18.7154C100.009 18.7809 100.651 19.3339 101.089 20.2811C101.188 20.5803 101.352 20.7302 101.656 20.7302H101.808L106.908 19.6069C107.219 19.5414 107.429 19.3903 107.507 19.178L107.533 19.0828ZM109.533 19.0828C109.419 19.7271 109.059 20.3436 108.505 20.8081C108.001 21.2309 107.456 21.4308 107.022 21.5246L105.411 21.8795C105.971 22.2715 106.452 22.7079 106.852 23.1961C108.233 24.881 108.451 26.9423 108.055 29.1876L108.005 29.4492C107.448 32.139 105.708 34.3554 103.331 35.8524C100.931 37.3638 97.9437 38.1173 94.8279 38.1173C89.2333 38.1172 85.1997 35.8292 84.184 31.1572C84.1023 30.8471 84.116 30.5727 84.1252 30.4494C84.1312 30.3702 84.1404 30.2953 84.149 30.2369L84.1681 30.1234L84.2299 29.8503C84.602 28.5332 85.8544 27.9016 86.5996 27.7258L86.6758 27.7095L89.2815 27.1872C88.831 26.813 88.4363 26.4101 88.1008 25.9745C86.775 24.2531 86.4759 22.2078 86.8487 20.0935C87.3201 17.4205 88.9992 15.1549 91.3478 13.6134C93.6559 12.0987 96.5448 11.313 99.5923 11.313C102.204 11.313 104.466 11.7951 106.207 12.947C107.866 14.0453 108.92 15.6667 109.41 17.7258L109.5 18.1441L109.51 18.198C109.51 18.198 109.511 18.2025 109.515 18.222C109.517 18.2353 109.527 18.2889 109.536 18.3432C109.553 18.4466 109.596 18.7248 109.533 19.0828Z" fill="#262626"/>
<path d="M86.7972 8.3057C87.1733 6.17261 85.7652 4.67518 83.4852 4.67518C81.1674 4.67534 79.27 6.17272 78.8939 8.3057L78.8515 8.59614C78.6965 10.0247 79.3199 11.1123 80.5032 11.6737L77.6734 16.9497C77.4567 17.3708 77.591 17.694 77.9846 17.7325L78.0669 17.7364H80.9166L81.0431 17.7277C81.3321 17.6872 81.5839 17.5067 81.7687 17.2122L83.5293 14.555C85.7742 11.1169 86.4852 9.75088 86.7501 8.54517L86.7972 8.3057ZM88.7317 8.63846C88.3623 10.3027 87.4038 12.0048 85.1923 15.3917C85.1893 15.3963 85.186 15.4015 85.1829 15.4061L83.455 18.0114C82.8654 18.9509 81.8157 19.706 80.5693 19.706H77.7196C76.984 19.706 76.1604 19.4122 75.7558 18.6039C75.3647 17.8227 75.5629 16.9546 75.8857 16.3275L75.9047 16.2919L77.9636 12.4517C77.0104 11.4305 76.5973 9.98779 76.8939 8.3057C77.1734 6.72045 78.0459 5.28202 79.3522 4.2501C80.6466 3.22757 82.2338 2.70565 83.8325 2.70557C87.0688 2.70557 89.3899 4.94434 88.7972 8.3057L88.7317 8.63846Z" fill="#262626"/>
<path d="M57.137 22.0631H56.4768C55.837 22.0631 55.1593 21.8544 54.6975 21.3043C54.2359 20.7542 54.1472 20.0504 54.2583 19.4203L55.136 14.4424C55.381 13.0541 56.6909 11.7996 58.2866 11.7996L57.9393 13.7692L57.7875 13.7827C57.4456 13.845 57.1939 14.1151 57.136 14.4424L56.2583 19.4203C56.1949 19.7804 56.3556 20.0263 56.6768 20.082L56.8241 20.0935H59.4843L58.3758 26.3803L58.2795 26.9651C57.4092 32.7249 59.1791 35.9369 64.2656 36.138L64.7854 36.1476C67.7493 36.1476 71.1275 34.8756 73.2844 31.6948C73.3612 31.5825 73.4415 31.4489 73.4853 31.3419L73.5159 31.2457C73.5563 31.0165 73.4696 30.8448 73.2826 30.7302L73.197 30.6841L69.2569 28.8875C69.1183 28.8129 69.0106 28.776 68.8967 28.776C68.7068 28.7761 68.5728 28.888 68.3945 29.0376C67.909 29.6363 67.5275 29.8608 67.0335 29.8608C65.9294 29.8607 65.5653 29.0716 65.7959 27.4315L65.8499 27.092L67.0839 20.0935H71.5302L71.6816 20.082C71.9735 20.0341 72.197 19.8466 72.2948 19.5675L72.3325 19.4203L73.2102 14.4424C73.2678 14.1152 73.112 13.8452 72.7924 13.7827L72.6453 13.7692L72.9926 11.7996C74.5881 11.7997 75.4548 13.0541 75.2102 14.4424L74.3325 19.4203L74.2805 19.6598C74.1327 20.224 73.8034 20.823 73.2298 21.3043C72.5741 21.8545 71.8228 22.0631 71.1829 22.0631H68.7366L67.8499 27.092L67.832 27.2045C68.1866 27.0017 68.6761 26.8064 69.244 26.8064C69.7493 26.8064 70.1276 26.9593 70.3641 27.0776L74.3032 28.8741C74.6451 29.03 75.0195 29.2925 75.2739 29.7271C75.5069 30.1253 75.5891 30.5829 75.5432 31.0466L75.5159 31.2457L75.4839 31.3938C75.4018 31.7301 75.2605 32.0003 75.2012 32.1113C75.1069 32.2877 75.0035 32.4487 74.9173 32.5748C72.1895 36.5914 67.947 38.1172 64.4381 38.1172C61.1718 38.1172 58.6602 37.1022 57.2541 34.857C55.9058 32.7037 55.7838 29.7377 56.3758 26.3803L57.137 22.0631ZM69.1097 8.60474C69.1731 8.24472 69.013 7.99895 68.6922 7.94307L68.5448 7.93153L68.8921 5.96191C69.5318 5.962 70.2088 6.17081 70.6704 6.72072C71.1321 7.27096 71.2208 7.97455 71.1097 8.60474L70.5463 11.7996H72.9926L72.6453 13.7692H68.199L69.1097 8.60474ZM59.5101 8.60474C59.6212 7.97455 59.957 7.27096 60.6128 6.72072C61.2686 6.17048 62.0198 5.96192 62.6597 5.96191L62.3124 7.93153L62.1609 7.94307C61.8202 7.99884 61.5736 8.2446 61.5101 8.60474L60.5994 13.7692H57.9393L58.2866 11.7996H58.9467L59.5101 8.60474ZM68.8921 5.96191L68.5448 7.93153H62.3124L62.6597 5.96191H68.8921Z" fill="#262626"/>
<path d="M28.0567 24.6964C28.73 20.8781 30.6377 17.4993 33.5323 15.0705C36.4288 12.6401 40.1324 11.313 44.1587 11.313C48.385 11.313 51.5915 12.8088 53.4272 15.5609C55.2384 18.2763 55.561 21.9814 54.61 26.0774C54.6046 26.1007 54.599 26.1244 54.5928 26.1476C54.4547 26.6614 54.1384 27.3483 53.4435 27.8912C53.1397 28.1286 52.8261 28.285 52.5244 28.3904C52.6611 28.4976 52.7975 28.6305 52.9167 28.7962C53.188 29.1732 53.3177 29.6448 53.2747 30.1609L53.246 30.385L53.2004 30.5937C53.0766 31.0651 52.8429 31.4304 52.6995 31.64C52.6885 31.6561 52.677 31.6723 52.6656 31.6881C49.3406 36.3109 44.1593 38.1173 39.4324 38.1173C35.4058 38.1172 32.1692 36.7897 30.1303 34.3531C28.0932 31.9183 27.3806 28.5304 28.0567 24.6964ZM42.6678 19.1203C44.6817 19.1203 45.7566 20.3554 45.7919 22.5258H38.1161C38.968 20.2808 40.5781 19.1204 42.6678 19.1203ZM30.0567 24.6964C28.8623 31.4698 32.6358 36.1476 39.7797 36.1476C44.0356 36.1476 48.3473 34.5387 51.0658 30.7591C51.1426 30.6468 51.1948 30.5556 51.2242 30.4696L51.246 30.385C51.2856 30.1605 51.16 30.0106 50.9138 29.8983L45.8341 28.1018C45.5055 28.0272 45.1887 28.1027 44.8701 28.4019C43.8807 29.4871 42.5404 29.9734 40.9064 29.9734L40.5184 29.9589C38.6332 29.8194 37.5724 28.64 37.3968 26.6054H51.7982L51.9602 26.5948C52.2674 26.5533 52.471 26.3881 52.5839 26.1149L52.6331 25.9687C54.3707 18.4843 51.2593 13.2826 43.8114 13.2826C36.6676 13.2827 31.2445 17.9605 30.0567 24.6964Z" fill="#262626"/>
<path d="M2.51047 35.21C2.50356 35.4892 2.63821 35.6766 2.90705 35.7245L3.05345 35.736H23.8386C24.171 35.736 24.4515 35.5358 24.5652 35.21L24.6038 35.0628L25.6728 29.0001C25.7305 28.6729 25.5646 28.4597 25.2678 28.4115L25.1318 28.4019L25.4791 26.4323C26.0628 26.4323 26.711 26.6078 27.1773 27.1084C27.6005 27.5628 27.7534 28.1562 27.7057 28.7472L27.6728 29.0001L26.6038 35.0628L26.5521 35.3004C26.406 35.8602 26.0836 36.4444 25.5384 36.918C24.9097 37.464 24.1631 37.7056 23.4913 37.7056H2.70616C2.05771 37.7056 1.35438 37.489 0.898319 36.8872C0.460596 36.3095 0.428811 35.6123 0.525673 35.0628L5.65949 5.94751C5.75643 5.39806 6.03405 4.70076 6.67551 4.12312C7.34379 3.52134 8.12353 3.30469 8.77197 3.30469L8.42468 5.2743L8.2742 5.28584C7.94089 5.34164 7.72307 5.58755 7.65949 5.94751L2.52567 35.0628L2.51047 35.21ZM15.5257 5.94751C15.5891 5.58733 15.4285 5.34144 15.1072 5.28584L14.9598 5.2743L15.3071 3.30469C15.9469 3.30469 16.6247 3.51349 17.0864 4.06349C17.4905 4.54511 17.6084 5.14452 17.557 5.709L17.5257 5.94751L13.9137 26.4323H25.4791L25.1318 28.4019H11.5664L15.5257 5.94751ZM15.3071 3.30469L14.9598 5.2743H8.42468L8.77197 3.30469H15.3071Z" fill="#262626"/>
</svg>
