<svg width="348" height="36" viewBox="0 0 348 36" fill="none" xmlns="http://www.w3.org/2000/svg">
<rect width="347.653" height="36" fill="#262626"/>
<path d="M327.414 30.4496C327.235 30.4496 327.144 30.3546 327.184 30.1806L327.782 27.6178C327.823 27.4438 327.946 27.3331 328.128 27.3172C330.037 27.1432 331.084 25.5771 331.87 22.2075C332.656 18.8379 332.339 17.2717 330.512 17.0977C330.337 17.0819 330.262 16.987 330.302 16.8129L330.9 14.2501C330.94 14.0761 331.08 13.9654 331.242 13.9654C335.341 14.1552 336.448 17.2084 335.282 22.2075C334.119 27.1907 331.584 30.2597 327.414 30.4496Z" fill="white"/>
<path d="M312.637 18.2367C312.674 18.0785 312.794 17.9836 312.956 17.9836H317.618L318.552 13.9812C318.589 13.823 318.708 13.7281 318.871 13.7281H321.583C321.746 13.7281 321.821 13.823 321.784 13.9812L320.851 17.9836H325.643C325.805 17.9836 325.881 18.0785 325.844 18.2367L325.301 20.5622C325.264 20.7204 325.145 20.8153 324.982 20.8153H320.19L319.15 25.2765H324.949C325.111 25.2765 325.187 25.3714 325.15 25.5296L324.604 27.8709C324.567 28.0291 324.447 28.124 324.285 28.124H309.535C309.372 28.124 309.297 28.0291 309.334 27.8709L309.88 25.5296C309.917 25.3714 310.037 25.2765 310.199 25.2765H315.917L316.958 20.8153H312.296C312.133 20.8153 312.058 20.7204 312.095 20.5622L312.637 18.2367Z" fill="white"/>
<path d="M305.368 30.4496C301.254 30.2597 300.146 27.2065 301.312 22.2075C302.475 17.2243 305.01 14.1552 309.197 13.9654C309.375 13.9654 309.431 14.0761 309.39 14.2501L308.792 16.8129C308.752 16.987 308.648 17.0819 308.482 17.0977C306.541 17.2717 305.493 18.8379 304.708 22.2075C303.922 25.5771 304.239 27.1432 306.099 27.3172C306.257 27.3331 306.313 27.4438 306.272 27.6178L305.674 30.1806C305.634 30.3546 305.53 30.4496 305.368 30.4496Z" fill="white"/>
<path d="M282.753 28.0924C282.591 28.0924 282.515 27.9975 282.552 27.8393L285.674 14.4558C285.711 14.2976 285.83 14.2027 285.993 14.2027H298.03C298.192 14.2027 298.268 14.2976 298.231 14.4558L295.109 27.8393C295.072 27.9975 294.953 28.0924 294.79 28.0924H282.753ZM287.472 19.6289H294.019L294.646 16.9395H288.1L287.472 19.6289ZM293.381 22.3657H286.834L286.148 25.3082H292.694L293.381 22.3657Z" fill="white"/>
<path d="M268.049 28.5688C263.332 28.5688 260.712 26.2112 261.54 22.6625C262.033 20.5479 263.756 18.7249 266.124 17.777C264.456 16.902 263.712 15.4923 264.159 13.5721C264.913 10.3394 268.428 8.00604 272.845 8.00604C277.313 8.00604 279.739 10.3394 278.985 13.5721C278.537 15.4923 277.085 16.902 275.059 17.777C276.934 18.7249 277.807 20.5479 277.314 22.6625C276.486 26.2112 272.816 28.5688 268.049 28.5688ZM266.56 22.0062C266.225 23.4403 267.21 24.4611 269.007 24.4611C270.804 24.4611 272.265 23.4403 272.6 22.0062C272.929 20.5965 271.938 19.6 270.141 19.6C268.344 19.6 266.889 20.5965 266.56 22.0062ZM268.871 14.1311C268.582 15.3707 269.401 16.2457 270.923 16.2457C272.446 16.2457 273.673 15.3707 273.962 14.1311C274.24 12.9401 273.421 12.0651 271.899 12.0651C270.376 12.0651 269.149 12.9401 268.871 14.1311Z" fill="white"/>
<path d="M240.228 28.1799C239.953 28.1799 239.843 28.0098 239.905 27.7424L240.195 26.5028C240.246 26.2841 240.354 26.1382 240.513 25.9924L247.02 20.3534C250.463 17.3638 251.573 16.027 251.908 14.5929C252.18 13.4263 251.49 12.7457 250.192 12.7457C248.994 12.7457 247.912 13.4263 247.028 14.8603C246.866 15.1277 246.669 15.2249 246.436 15.152L242.95 14.1554C242.687 14.1068 242.632 13.9124 242.769 13.645C244.603 10.1693 247.903 8.00604 251.647 8.00604C255.815 8.00604 258.093 10.4366 257.254 14.0339C256.602 16.8291 254.93 18.968 249.822 22.784L248.915 23.4646H255.154C255.429 23.4646 255.539 23.6347 255.482 23.8778L254.581 27.7424C254.519 28.0098 254.329 28.1799 254.055 28.1799H240.228Z" fill="white"/>
<path d="M232.006 23.4731C229.245 23.4731 228.457 21.7645 226.914 21.7645C226.134 21.7645 225.388 22.3182 224.629 23.2041C224.522 23.3149 224.426 23.3782 224.328 23.3782C224.28 23.3782 224.235 23.3623 224.177 23.3307L222.269 22.3182C222.109 22.2391 222.093 22.0968 222.219 21.9069C223.618 19.9453 225.631 18.8379 227.256 18.8379C230.033 18.8379 230.804 20.5464 232.348 20.5464C233.127 20.5464 233.874 19.9927 234.633 19.1068C234.74 18.9961 234.836 18.9328 234.933 18.9328C234.982 18.9328 235.027 18.9486 235.085 18.9803L236.993 19.9927C237.095 20.0402 237.122 20.1351 237.1 20.23C237.081 20.3091 237.047 20.3882 236.976 20.4831C235.587 22.3973 233.614 23.4731 232.006 23.4731Z" fill="white"/>
<path d="M210.363 30.4496C210.184 30.4496 210.093 30.3546 210.133 30.1806L210.731 27.6178C210.772 27.4438 210.895 27.3331 211.077 27.3172C212.986 27.1432 214.034 25.5771 214.82 22.2075C215.606 18.8379 215.289 17.2717 213.461 17.0977C213.286 17.0819 213.211 16.987 213.251 16.8129L213.849 14.2501C213.89 14.0761 214.029 13.9654 214.192 13.9654C218.29 14.1552 219.397 17.2084 218.231 22.2075C217.069 27.1907 214.533 30.2597 210.363 30.4496Z" fill="white"/>
<path d="M208.077 25.6245C208.18 25.672 208.214 25.7353 208.196 25.8144C208.188 25.846 208.157 25.9093 208.114 25.9567L206.01 28.3613C205.899 28.4879 205.761 28.5195 205.63 28.4563C203.372 27.4122 201.78 24.9759 201.282 22.3024C199.742 25.0076 197.153 27.1907 193.979 28.4721C193.834 28.5354 193.712 28.5037 193.66 28.3772L192.582 26.0358C192.56 25.9884 192.555 25.9409 192.566 25.8935C192.585 25.8144 192.664 25.7511 192.789 25.7036C197.292 24.2957 199.887 20.8312 200.936 16.892C201.157 16.0852 201.353 15.1044 201.615 13.9812C201.652 13.823 201.772 13.7281 201.934 13.7281H204.501C204.663 13.7281 204.738 13.823 204.702 13.9812L204.185 16.196C203.168 20.9735 204.716 24.2957 208.077 25.6245ZM207.13 15.6897C207.203 15.5157 207.331 15.4524 207.482 15.4999L209.766 16.2276C209.917 16.2751 209.96 16.37 209.89 16.5282C209.106 18.2209 207.937 20.1667 206.938 21.3848C206.824 21.5272 206.687 21.5589 206.555 21.4956L204.432 20.4989C204.284 20.4357 204.262 20.3249 204.372 20.1984C205.425 19.0277 206.459 17.2401 207.13 15.6897ZM198.91 20.3566C198.905 20.5148 198.815 20.6255 198.657 20.673L196.001 21.543C195.824 21.6063 195.729 21.5272 195.737 21.3532C195.785 19.7554 195.626 17.9994 195.254 16.6706C195.209 16.5124 195.287 16.3858 195.477 16.3383L198.071 15.5948C198.228 15.5474 198.331 15.5948 198.366 15.7214C198.726 17.0344 198.91 18.822 198.91 20.3566Z" fill="white"/>
<path d="M188.317 30.4496C184.203 30.2597 183.096 27.2065 184.262 22.2075C185.424 17.2243 187.959 14.1552 192.146 13.9654C192.324 13.9654 192.38 14.0761 192.339 14.2501L191.741 16.8129C191.701 16.987 191.598 17.0819 191.431 17.0977C189.49 17.2717 188.443 18.8379 187.657 22.2075C186.871 25.5771 187.188 27.1432 189.048 27.3172C189.206 27.3331 189.262 27.4438 189.221 27.6178L188.624 30.1806C188.583 30.3546 188.48 30.4496 188.317 30.4496Z" fill="white"/>
<path d="M165.703 28.0924C165.54 28.0924 165.465 27.9975 165.502 27.8393L168.624 14.4558C168.66 14.2976 168.78 14.2027 168.943 14.2027H180.98C181.142 14.2027 181.217 14.2976 181.18 14.4558L178.059 27.8393C178.022 27.9975 177.902 28.0924 177.74 28.0924H165.703ZM170.422 19.6289H176.969L177.596 16.9395H171.049L170.422 19.6289ZM176.33 22.3657H169.784L169.098 25.3082H175.644L176.33 22.3657Z" fill="white"/>
<path d="M152.251 28.1799C151.976 28.1799 151.841 28.0097 151.904 27.7424L152.59 24.8014H143.305C143.031 24.8014 142.89 24.6555 142.952 24.3882L143.247 23.1243C143.292 22.9298 143.382 22.7597 143.546 22.5895L157.253 8.66226C157.398 8.46781 157.614 8.3949 157.839 8.3949H160.859C161.133 8.3949 161.268 8.56504 161.206 8.8324L158.428 20.7423H160.774C161.049 20.7423 161.184 20.9124 161.121 21.1798L160.373 24.3882C160.311 24.6555 160.102 24.8014 159.828 24.8014H157.481L156.795 27.7424C156.733 28.0097 156.519 28.1799 156.244 28.1799H152.251ZM153.536 20.7423L154.761 15.4922L149.668 20.7423H153.536Z" fill="white"/>
<path d="M123.226 28.1799C122.951 28.1799 122.841 28.0098 122.904 27.7424L123.193 26.5028C123.244 26.2841 123.353 26.1382 123.511 25.9924L130.018 20.3534C133.461 17.3638 134.571 16.027 134.906 14.5929C135.178 13.4263 134.488 12.7457 133.19 12.7457C131.992 12.7457 130.91 13.4263 130.026 14.8603C129.864 15.1277 129.667 15.2249 129.434 15.152L125.948 14.1554C125.685 14.1068 125.63 13.9124 125.767 13.645C127.601 10.1693 130.901 8.00604 134.645 8.00604C138.813 8.00604 141.091 10.4366 140.252 14.0339C139.6 16.8291 137.928 18.968 132.82 22.784L131.913 23.4646H138.152C138.427 23.4646 138.537 23.6347 138.48 23.8778L137.579 27.7424C137.517 28.0098 137.327 28.1799 137.053 28.1799H123.226Z" fill="white"/>
<path d="M106.273 28.3139C106.162 28.4404 106.029 28.4563 105.913 28.393L103.768 27.1432C103.682 27.0958 103.652 27.0167 103.67 26.9376C103.681 26.8901 103.708 26.8426 103.752 26.7952C105.503 24.9284 106.41 22.7137 107.129 19.6288L108.365 14.3292C108.402 14.171 108.522 14.0761 108.684 14.0761H120.445C120.608 14.0761 120.683 14.171 120.646 14.3292L118.144 25.055C117.384 28.3139 116.229 28.5986 112.461 28.4562C112.299 28.4562 112.22 28.3772 112.204 28.2348L111.921 26.0358C111.912 26.0042 111.92 25.9726 111.927 25.9409C111.964 25.7827 112.101 25.7511 112.231 25.7511C112.825 25.7827 113.305 25.8144 113.679 25.8144C114.799 25.8144 115.071 25.6245 115.193 25.1025L115.444 24.0267H108.784C108.125 25.7353 107.326 27.1432 106.273 28.3139ZM117.13 16.7971H110.73L110.468 17.9203H116.868L117.13 16.7971ZM109.896 20.3724L109.583 21.5747H116.016L116.296 20.3724H109.896Z" fill="white"/>
<path d="M90.2623 28.5688C86.5435 28.5688 84.1495 26.5271 83.9698 23.1243L84.0038 22.9785C84.0492 22.784 84.1774 22.6625 84.419 22.5896L88.2976 21.6903C88.3532 21.666 88.4031 21.666 88.453 21.666C88.6278 21.666 88.7242 21.7875 88.7787 21.9819C89.0023 23.2701 89.767 23.9507 91.2396 23.9507C92.9118 23.9507 94.0223 23.1486 94.3115 21.909C94.6119 20.6208 93.7224 19.9402 92.0502 19.9402H91.1018C90.8273 19.9402 90.6922 19.7701 90.7546 19.5027L91.4463 16.5374C91.503 16.2944 91.7173 16.1242 91.9919 16.1242H92.9902C94.313 16.1242 95.4315 15.395 95.6696 14.3742C95.9247 13.2804 95.177 12.5269 93.8293 12.5269C92.5814 12.5269 91.5797 13.1832 90.7438 14.52C90.5623 14.7631 90.3592 14.8846 90.1017 14.8117L86.612 13.9367C86.3488 13.8881 86.2444 13.6936 86.3566 13.4263C88.16 9.97482 91.4894 8.00604 95.1333 8.00604C99.3263 8.00604 101.777 10.3394 101.04 13.4992C100.621 15.2978 99.1595 16.8534 96.8805 17.8499C99.0259 18.6034 99.9575 20.2805 99.4189 22.5896C98.5799 26.1868 94.9295 28.5688 90.2623 28.5688Z" fill="white"/>
<path d="M80.0009 23.0143C80.1633 23.0143 80.2386 23.1092 80.2017 23.2674L79.711 25.3714C79.6741 25.5296 79.5545 25.6245 79.392 25.6245H74.2588L73.6315 28.3139C73.5946 28.4721 73.475 28.567 73.3126 28.567H70.8759C70.7135 28.567 70.6382 28.4721 70.6751 28.3139L71.3023 25.6245H64.8371C64.6746 25.6245 64.5993 25.5296 64.6362 25.3714L65.127 23.2674C65.1639 23.1092 65.2835 23.0143 65.4459 23.0143H67.1028L67.708 20.4199C67.643 20.4199 67.598 20.404 67.5441 20.3566L65.9527 18.8221C65.8987 18.7746 65.881 18.7113 65.8958 18.648C65.9105 18.5848 65.9578 18.5215 66.0375 18.4582C67.6574 17.2243 69.1177 15.4208 69.9629 13.8863C70.0449 13.7439 70.1571 13.6806 70.3158 13.6965L72.675 14.0287C72.8463 14.0603 72.9054 14.1552 72.8161 14.3293C72.6921 14.5824 72.5319 14.8513 72.3916 15.1044H81.2935C81.456 15.1044 81.5313 15.1993 81.4944 15.3575L81.0147 17.4141C80.9778 17.5723 80.8582 17.6672 80.6957 17.6672H76.1148L75.827 18.9012H79.8231C79.9856 18.9012 80.0609 18.9961 80.024 19.1543L79.5517 21.1792C79.5148 21.3374 79.3952 21.4323 79.2328 21.4323H75.2366L74.8676 23.0143H80.0009ZM70.6567 17.6672C70.3134 18.0944 69.9251 18.5057 69.5405 18.9012H72.8705L73.1584 17.6672H70.6567ZM72.2802 21.4323H70.2334L69.8644 23.0143H71.9112L72.2802 21.4323Z" fill="white"/>
<path d="M55.4082 28.0766C52.3705 28.0766 50.7761 26.0675 51.3923 23.4256C51.7576 21.8595 52.7432 20.4199 55.1736 17.7305L57.5531 15.1202C57.68 14.9937 57.8048 14.9462 57.9348 14.9462H61.0375C61.1999 14.9462 61.2664 15.0095 61.2405 15.1202C61.2295 15.1677 61.2021 15.2152 61.1387 15.2784L57.3786 19.2808C57.6983 19.2334 58.018 19.1859 58.3267 19.1859C60.7958 19.1859 62.1259 21.0052 61.5355 23.5363C60.9082 26.2257 58.4459 28.0766 55.4082 28.0766ZM54.6885 23.3623C54.4412 24.4222 55.0224 25.1341 56.0621 25.1341C57.1342 25.1341 58.0312 24.4222 58.2785 23.3623C58.522 22.3182 57.9607 21.5905 56.8886 21.5905C55.849 21.5905 54.932 22.3182 54.6885 23.3623Z" fill="white"/>
<path d="M37.414 27.8235C37.2354 27.8235 37.1637 27.7128 37.2043 27.5387L37.3925 26.7319C37.4257 26.5896 37.4966 26.4946 37.5999 26.3997L41.8348 22.7295C44.0756 20.7837 44.7983 19.9136 45.016 18.9803C45.1931 18.2209 44.7442 17.778 43.8994 17.778C43.1197 17.778 42.4154 18.2209 41.8403 19.1543C41.7347 19.3283 41.6062 19.3916 41.4549 19.3441L39.1857 18.6955C39.0144 18.6639 38.979 18.5373 39.0683 18.3633C40.262 16.1011 42.4097 14.6931 44.8464 14.6931C47.5592 14.6931 49.0421 16.2751 48.496 18.6164C48.0716 20.4357 46.9834 21.8278 43.6588 24.3115L43.0682 24.7545H47.1293C47.308 24.7545 47.3796 24.8652 47.3427 25.0234L46.756 27.5387C46.7154 27.7128 46.5921 27.8235 46.4134 27.8235H37.414Z" fill="white"/>
<path d="M27.7247 28.0766C24.3784 28.0766 22.9633 25.5771 23.9411 21.3849C24.9189 17.1926 27.5 14.6931 30.8463 14.6931C34.2252 14.6931 35.624 17.1926 34.6462 21.3849C33.6683 25.5771 31.1035 28.0766 27.7247 28.0766ZM27.3037 21.3849C26.7096 23.9318 27.2931 24.9127 28.4627 24.9127C29.6485 24.9127 30.6895 23.9318 31.2836 21.3849C31.8777 18.8379 31.2942 17.8571 30.1084 17.8571C28.9388 17.8571 27.8978 18.8379 27.3037 21.3849Z" fill="white"/>
<path d="M9.30809 27.8235C9.1294 27.8235 9.05776 27.7128 9.09835 27.5387L9.28654 26.7319C9.31975 26.5896 9.39062 26.4946 9.49398 26.3997L13.7289 22.7295C15.9696 20.7837 16.6924 19.9136 16.9101 18.9803C17.0872 18.2209 16.6382 17.778 15.7935 17.778C15.0138 17.778 14.3094 18.2209 13.7343 19.1543C13.6288 19.3283 13.5003 19.3916 13.3489 19.3441L11.0798 18.6955C10.9085 18.6639 10.873 18.5373 10.9623 18.3633C12.156 16.1011 14.3038 14.6931 16.7404 14.6931C19.4533 14.6931 20.9361 16.2751 20.39 18.6164C19.9657 20.4357 18.8775 21.8278 15.5529 24.3115L14.9622 24.7545H19.0233C19.202 24.7545 19.2736 24.8652 19.2367 25.0234L18.65 27.5387C18.6095 27.7128 18.4862 27.8235 18.3075 27.8235H9.30809Z" fill="white"/>
</svg>
