<svg width="375" height="240" viewBox="0 0 375 240" fill="none" xmlns="http://www.w3.org/2000/svg">
<g clip-path="url(#clip0_452_1948)">
<rect width="375" height="240" fill="#DAFF3F"/>
<g clip-path="url(#clip1_452_1948)">
<path d="M265.658 116.495C273.31 113.712 279.822 120.289 278.721 120.367C276.306 120.527 276.195 122.292 271.466 125.514C268.594 127.466 266.723 127.182 263.943 128.19C262.469 128.724 263.29 125.509 264.32 124.76C263.714 124.424 258.748 124.792 259.079 123.38C259.669 120.954 262.249 117.738 265.648 116.498L265.658 116.495Z" fill="#FFEDF6"/>
<path d="M202.6 93.7367C210.252 90.9544 216.763 97.5305 215.662 97.6088C213.247 97.7688 213.136 99.5344 208.408 102.756C205.535 104.708 203.664 104.424 200.885 105.432C199.411 105.966 200.232 102.751 201.262 102.002C200.655 101.666 195.689 102.034 196.021 100.622C196.611 98.1955 199.19 94.9802 202.589 93.7404L202.6 93.7367Z" fill="#FFEDF6"/>
<path d="M124.421 79.8407C116.561 81.9671 115.019 91.092 115.964 90.5227C118.031 89.2644 119.138 90.6445 124.859 90.5591C128.332 90.5034 129.698 89.1945 132.552 88.4204C134.065 88.0092 131.543 85.8514 130.27 85.8318C130.572 85.2076 134.847 82.6519 133.763 81.6877C131.885 80.0423 127.925 78.8965 124.432 79.8376L124.421 79.8407Z" fill="#FFEDF6"/>
<path d="M114.28 2.31184C106.421 4.43829 104.878 13.5632 105.823 12.9939C107.891 11.7356 108.997 13.1157 114.718 13.0302C118.191 12.9746 119.558 11.6657 122.411 10.8916C123.924 10.4804 121.403 8.32258 120.13 8.30296C120.432 7.67878 124.706 5.1231 123.623 4.15886C121.744 2.51345 117.784 1.3677 114.291 2.30883L114.28 2.31184Z" fill="#FFEDF6"/>
<path d="M73.7023 173.706C81.4951 176.065 87.6372 169.143 86.5336 169.125C84.1139 169.097 83.9062 167.341 79.0088 164.383C76.0336 162.59 74.181 162.977 71.3505 162.122C69.8494 161.669 70.8453 164.835 71.9147 165.526C71.3276 165.895 66.3485 165.799 66.7567 167.19C67.4785 169.581 70.2304 172.651 73.6916 173.703L73.7023 173.706Z" fill="#FFEDF6"/>
<path d="M302.573 142.541C306.648 142.294 316.031 143.017 312.411 149.325C311.018 150.083 306.507 152.482 305.703 153.332C304.642 153.735 300.643 153.599 299.3 153.591C298.53 153.092 297.591 152.664 297.277 151.862C297.471 151.096 297.906 149.667 297.597 148.972C296.627 148.506 295.301 147.603 296.04 146.301C297.375 143.952 300.301 143.39 302.573 142.541Z" fill="#F4EBEF"/>
<path d="M235.689 190.415C237.609 190.315 240.128 190.378 242.095 190.37C242.369 193.009 242.051 194.281 241.645 196.897C240.327 198.339 239.384 200.057 237.839 201.504C236.229 203.011 235.616 202.303 234.457 203.913C233.136 204.218 231.902 204.178 230.545 204.206C229.827 203.482 229.078 202.872 228.301 202.217C228.298 201.441 228.196 198.891 228.662 198.414C229.697 197.358 229.567 196.686 229.874 195.186C231.977 193.2 233.388 192.175 235.689 190.415Z" fill="#F4EBEF"/>
<path d="M146.944 161.679C141.514 178.105 121.975 180.311 123.293 178.371C126.204 174.133 123.406 171.624 124.256 159.497C124.78 152.135 127.717 149.389 129.693 143.425C130.742 140.263 135.025 145.866 134.918 148.569C136.278 148.001 142.2 139.231 144.119 141.643C147.39 145.821 149.357 154.356 146.952 161.657L146.944 161.679Z" fill="#FFCAE3"/>
<path d="M230.223 5.82006C243.882 -4.79711 261.339 4.25416 259.163 5.13058C254.385 7.02898 255.311 10.6718 247.851 20.2695C243.315 26.0915 239.346 26.737 234.383 30.589C231.751 32.6306 231.314 25.592 232.909 23.4068C231.463 23.1216 221.66 27.1062 221.41 24.0346C221.02 18.7427 224.14 10.558 230.204 5.83451L230.223 5.82006Z" fill="#FAD4E6"/>
<path d="M92.3849 114.62C104.546 108.364 116.788 117.943 114.97 118.306C110.981 119.084 111.169 122.05 103.973 128.418C99.5992 132.28 96.4214 132.202 92.0037 134.471C89.6605 135.673 90.3482 130.141 91.9059 128.676C90.8243 128.243 82.627 129.909 82.8804 127.486C83.3498 123.318 86.9678 117.414 92.3681 114.629L92.3849 114.62Z" fill="#FAD4E6"/>
<path d="M184.454 226.911C171.085 236.727 154.593 227.594 156.701 226.811C161.33 225.117 160.538 221.602 167.94 212.6C172.44 207.14 176.261 206.626 181.118 203.064C183.695 201.177 183.928 207.934 182.342 209.986C183.72 210.297 193.219 206.736 193.379 209.687C193.613 214.768 190.408 222.53 184.473 226.898L184.454 226.911Z" fill="#FF9BCA"/>
<path d="M77.0042 72.4363C90.6635 61.8191 108.12 70.8704 105.945 71.7468C101.166 73.6452 102.093 77.2881 94.6319 86.8857C90.0961 92.7078 86.1273 93.3532 81.1645 97.2052C78.5318 99.2468 78.0953 92.2082 79.69 90.0231C78.2442 89.7378 68.4416 93.7224 68.191 90.6508C67.8014 85.3589 70.9214 77.1742 76.9853 72.4507L77.0042 72.4363Z" fill="#FAD4E6"/>
<path d="M76.5664 194.137C92.5139 191.679 102.636 206.973 100.466 206.7C95.7104 206.081 94.8134 209.47 84.3802 213.908C78.0431 216.596 74.5157 215.322 68.724 216.211C65.6525 216.681 68.4889 210.747 70.7795 209.689C69.7306 208.801 59.9343 207.603 61.1231 204.985C63.2055 200.496 69.4602 195.24 76.5445 194.141L76.5664 194.137Z" fill="#FAD4E6"/>
<path d="M-5.51984 181.923C11.2284 177.588 23.6692 192.816 21.3247 192.758C16.1852 192.608 15.5923 196.32 4.93918 202.175C-1.53232 205.723 -5.43207 204.743 -11.515 206.313C-14.7412 207.145 -12.3528 200.509 -10.0228 199.135C-11.2372 198.3 -21.8163 198.074 -20.8292 195.155C-19.0899 190.141 -12.9821 183.863 -5.54292 181.929L-5.51984 181.923Z" fill="#FAD4E6"/>
<path d="M350.078 43.5884C364.153 33.5288 381.232 43.2743 379.023 44.0626C374.172 45.7674 374.952 49.4446 367.111 58.7346C362.345 64.3696 358.353 64.855 353.24 68.5045C350.527 70.4387 350.374 63.3882 352.055 61.2689C350.622 60.9257 340.667 64.5132 340.54 61.4339C340.364 56.1307 343.81 48.078 350.059 43.602L350.078 43.5884Z" fill="#FAD4E6"/>
<path d="M319.801 184.988C335.587 177.909 350.402 190.839 348.081 191.175C342.989 191.887 343.026 195.646 333.504 203.203C327.718 207.784 323.709 207.471 317.975 210.038C314.933 211.397 316.177 204.456 318.244 202.711C316.907 202.091 306.439 203.64 306.923 200.596C307.799 195.363 312.769 188.15 319.779 184.998L319.801 184.988Z" fill="#FAD4E6"/>
<path d="M209.251 153.43C223.005 142.936 240.38 152.143 238.197 153C233.402 154.855 234.295 158.506 226.749 168.037C222.161 173.818 218.187 174.428 213.19 178.235C210.539 180.253 210.166 173.211 211.78 171.04C210.337 170.742 200.499 174.639 200.276 171.565C199.933 166.27 203.127 158.113 209.232 153.444L209.251 153.43Z" fill="#FAD4E6"/>
<path d="M159.07 22.0326C177.442 19.5195 188.774 37.2901 186.286 36.9349C180.834 36.1297 179.737 40.0064 167.662 44.9027C160.328 47.8674 156.3 46.3347 149.628 47.2427C146.089 47.7227 149.464 40.9592 152.117 39.7886C150.929 38.7476 139.696 37.1795 141.113 34.1956C143.594 29.0776 150.883 23.1609 159.045 22.0358L159.07 22.0326Z" fill="#FAD4E6"/>
</g>
</g>
<defs>
<clipPath id="clip0_452_1948">
<rect width="375" height="240" fill="white"/>
</clipPath>
<clipPath id="clip1_452_1948">
<rect width="580.392" height="482.351" fill="white" transform="translate(-182.195 -197.732)"/>
</clipPath>
</defs>
</svg>
