<svg width="345" height="121" viewBox="0 0 345 121" fill="none" xmlns="http://www.w3.org/2000/svg">
<mask id="path-1-inside-1_452_2923" fill="white">
<path d="M0 28H345V121H0V28Z"/>
</mask>
<path d="M0 28H345V121H0V28Z" fill="white"/>
<path d="M0 28V26H-2V28H0ZM345 28H347V26H345V28ZM345 121V125H347V121H345ZM0 121H-2V125H0V121ZM0 28V30H345V28V26H0V28ZM345 28H343V121H345H347V28H345ZM345 121V117H0V121V125H345V121ZM0 121H2V28H0H-2V121H0Z" fill="#262626" mask="url(#path-1-inside-1_452_2923)"/>
<rect x="0.727308" y="29.7273" width="67.5454" height="87.5454" fill="#262626" stroke="#262626" stroke-width="1.45462"/>
<line x1="68.9141" y1="72.3689" x2="1.12896" y2="72.3689" stroke="white" stroke-width="0.87277" stroke-dasharray="1.45 1.45"/>
<path d="M31.2392 57.8665C31.0792 57.8665 30.9992 57.7865 30.9512 57.6425L30.4552 56.1865C29.8472 56.8905 29.1272 57.4825 28.3752 57.8665C28.2472 57.9305 28.1352 57.9145 28.0232 57.8185L26.7912 56.6505C26.7272 56.6025 26.6952 56.5385 26.6952 56.4905C26.6952 56.4265 26.7592 56.3625 26.8712 56.3145C28.3272 55.7385 29.3992 54.7465 29.9752 53.5625H29.4312C28.6792 54.7625 27.4792 55.7705 26.0872 56.3145C25.9592 56.3625 25.8472 56.3305 25.7512 56.2185L24.8072 55.0505C24.7592 54.9865 24.7432 54.9385 24.7432 54.8905C24.7432 54.8105 24.8072 54.7465 24.9352 54.7145C25.9752 54.4745 26.7752 54.0265 27.2712 53.5625H26.6792C26.4232 53.7545 26.1352 53.9145 25.8472 54.0425C25.7032 54.1065 25.5912 54.0585 25.5112 53.9145L25.0632 53.0665V54.2025C25.0632 54.3465 25.0152 54.4265 24.9352 54.4745C23.8952 55.0825 22.2152 55.7705 20.6952 56.1865C20.5192 56.2345 20.4232 56.1705 20.3752 55.9945L19.7832 53.6585C19.7352 53.4985 19.7992 53.3865 19.9752 53.3545C20.4392 53.2745 20.9032 53.1785 21.3832 53.0345V49.1305H20.4072C20.2472 49.1305 20.1512 49.0345 20.1512 48.8745V46.6985C20.1512 46.5385 20.2472 46.4425 20.4072 46.4425H21.3832V43.3545C21.3832 43.1945 21.4792 43.0985 21.6392 43.0985H23.9432C24.1032 43.0985 24.1992 43.1945 24.1992 43.3545V46.4425H24.9512C25.1112 46.4425 25.2072 46.5385 25.2072 46.6985V48.8745C25.2072 49.0345 25.1112 49.1305 24.9512 49.1305H24.1992V51.9465L24.7592 51.6585C24.9352 51.5625 25.0632 51.6425 25.0632 51.8345V51.9945C25.7512 51.8025 26.2952 51.4825 26.6792 51.1145H25.5592C25.3992 51.1145 25.3032 51.0185 25.3032 50.8585V49.3865C25.3032 49.2265 25.3992 49.1305 25.5592 49.1305H34.7912C34.9512 49.1305 35.0472 49.2265 35.0472 49.3865V50.8585C35.0472 51.0185 34.9512 51.1145 34.7912 51.1145H29.1912L28.8392 51.5945H34.4712C34.6312 51.5945 34.7272 51.6905 34.7272 51.8505C34.7272 52.8585 34.7272 53.7865 34.6792 54.8105C34.5672 57.4505 33.7512 57.9625 31.2392 57.8665ZM25.9912 48.6505C25.8312 48.6505 25.7352 48.5545 25.7352 48.3945V43.4505C25.7352 43.2905 25.8312 43.1945 25.9912 43.1945H34.0392C34.1992 43.1945 34.2952 43.2905 34.2952 43.4505V48.3945C34.2952 48.5545 34.1992 48.6505 34.0392 48.6505H25.9912ZM31.9752 53.5625C31.7512 54.2185 31.4312 54.8585 31.0152 55.4505C31.9592 55.4665 32.1032 55.2905 32.1512 54.6825C32.1832 54.3305 32.1992 53.9145 32.1992 53.5625H31.9752ZM31.5912 46.5065H28.4552V47.1145H31.5912V46.5065ZM28.4552 45.4185H31.5912V44.8265H28.4552V45.4185ZM47.1272 57.6265C47.0632 57.7545 46.9352 57.7865 46.7912 57.7385L44.3432 56.8905C44.2312 56.8585 44.1832 56.7785 44.1832 56.6985C44.1832 56.6505 44.1992 56.6025 44.2312 56.5545C45.7032 54.4265 45.8792 51.7865 45.8472 48.0425L45.8152 43.9465C45.8152 43.7865 45.9112 43.6905 46.0712 43.6905C47.9432 43.6425 50.3752 43.4185 52.1352 42.9705C52.2952 42.9225 52.3912 42.9865 52.4392 43.1465L53.0632 45.4505C53.1112 45.6105 53.0312 45.7385 52.8712 45.7705C51.3832 46.1065 49.6712 46.2505 48.5992 46.3305V47.5785H52.9672C53.1272 47.5785 53.2232 47.6745 53.2232 47.8345V49.9945C53.2232 50.1545 53.1272 50.2505 52.9672 50.2505H52.1992V57.6265C52.1992 57.7865 52.1032 57.8825 51.9432 57.8825H49.7352C49.5592 57.8825 49.4792 57.7865 49.4792 57.6265V50.2505H48.6152C48.5832 52.4745 48.2792 55.5945 47.1272 57.6265ZM38.5832 45.8505C38.4232 45.8505 38.3272 45.7545 38.3272 45.5945V43.5145C38.3272 43.3545 38.4232 43.2585 38.5832 43.2585H45.1592C45.3192 43.2585 45.4152 43.3545 45.4152 43.5145V45.5945C45.4152 45.7545 45.3192 45.8505 45.1592 45.8505H38.5832ZM40.7912 57.6265C40.7432 57.7865 40.6312 57.8345 40.4712 57.7705L38.1512 56.9225C37.9912 56.8585 37.9432 56.7465 38.0072 56.5865C38.7592 54.4425 38.8232 51.9305 38.8232 48.4905V46.7305C38.8232 46.5705 38.9192 46.4745 39.0792 46.4745H44.9032C45.0632 46.4745 45.1592 46.5705 45.1592 46.7305V52.7305C45.1592 52.8905 45.0632 52.9865 44.9032 52.9865H41.5592C41.4632 54.3625 41.2232 56.3145 40.7912 57.6265ZM41.5112 50.4585H42.5032V48.9385H41.5112V50.4585Z" fill="white"/>
<path d="M86.9549 58.1415C86.8909 58.1895 86.8269 58.2055 86.7629 58.2055C86.6829 58.2055 86.6029 58.1575 86.5229 58.0775L84.7469 56.1575C84.6829 56.0775 84.6509 56.0135 84.6509 55.9495C84.6509 55.8535 84.6989 55.7895 84.8109 55.7255C87.3389 54.3815 89.2429 52.5735 90.4109 50.8775H85.4669C85.2589 50.8775 85.1629 50.7655 85.1629 50.5735V48.3815C85.1629 48.1895 85.2589 48.0775 85.4669 48.0775H92.8749V45.9175C92.8749 45.7255 92.9709 45.6135 93.1789 45.6135H95.5149C95.7069 45.6135 95.8189 45.7255 95.8189 45.9175L95.8349 48.0775H98.0589C98.2509 48.0775 98.3629 48.1895 98.3629 48.3815V50.5735C98.3629 50.7655 98.2509 50.8775 98.0589 50.8775H95.8669L95.8989 54.2695C95.8989 54.8775 95.9469 55.8055 95.9149 56.4775C95.8029 58.5735 94.4589 59.6455 91.8029 59.6455C91.4989 59.6455 91.1789 59.6295 90.8429 59.5975C90.6669 59.5815 90.5709 59.5015 90.5069 59.3255L89.7549 57.1015C89.6909 56.8935 89.7869 56.7655 90.0269 56.7815C90.3789 56.8135 90.6989 56.8295 90.9869 56.8295C92.4269 56.8295 93.0029 56.4775 93.0349 55.6455C93.0669 54.7335 93.0829 53.3895 93.0829 51.9975C91.8349 54.0455 89.8509 56.4135 86.9549 58.1415ZM105.179 51.5495C104.027 50.5095 102.507 49.5495 101.355 49.0375C101.243 48.9895 101.179 48.9095 101.179 48.8135C101.179 48.7655 101.211 48.7015 101.259 48.6215L102.603 46.8615C102.715 46.7175 102.827 46.6695 103.003 46.7335C104.235 47.1335 106.011 48.0935 107.275 49.2295C107.355 49.3095 107.403 49.3735 107.403 49.4535C107.403 49.5175 107.371 49.5815 107.307 49.6455L105.611 51.5335C105.547 51.6135 105.467 51.6455 105.387 51.6455C105.323 51.6455 105.259 51.6135 105.179 51.5495ZM102.795 59.1975C102.619 59.2295 102.475 59.1335 102.427 58.9575L101.675 56.4935C101.611 56.3015 101.691 56.1735 101.915 56.1415C107.387 55.4855 110.059 52.6215 111.675 48.0935C111.723 47.9655 111.803 47.8855 111.899 47.8855C111.963 47.8855 112.011 47.9175 112.075 47.9495L114.187 49.3255C114.331 49.4215 114.395 49.5495 114.331 49.7255C112.619 54.6055 109.115 58.3015 102.795 59.1975ZM118.699 49.0055C118.507 49.0055 118.395 48.8935 118.395 48.7015V46.5735C118.395 46.3655 118.507 46.2535 118.699 46.2535L128.283 46.2375C128.475 46.2375 128.587 46.3335 128.587 46.5415V48.7015C128.587 48.8935 128.475 49.0055 128.283 49.0055H118.699ZM120.427 59.7575C120.251 59.7735 120.139 59.7095 120.059 59.5655L118.715 57.2135C118.683 57.1495 118.667 57.1015 118.667 57.0535C118.667 56.9255 118.763 56.8455 118.939 56.8455C122.971 56.7335 125.771 55.1175 126.267 52.8455C123.723 52.8615 120.395 52.9095 117.563 52.9575C117.371 52.9575 117.259 52.8455 117.259 52.6535V50.4295C117.259 50.2215 117.371 50.1255 117.563 50.1255H129.451C129.643 50.1255 129.755 50.2215 129.755 50.4295C129.675 55.9175 126.395 59.3255 120.427 59.7575ZM134.731 55.7415C134.555 55.7895 134.427 55.7575 134.331 55.5975L132.875 53.2775C132.827 53.2135 132.811 53.1495 132.811 53.1015C132.811 53.0055 132.891 52.9255 133.035 52.8935C137.083 51.9655 141.051 48.9895 143.067 45.9815C143.179 45.8215 143.307 45.7895 143.483 45.8695L145.835 47.0375C145.947 47.0855 146.011 47.1655 146.011 47.2615C146.011 47.3255 145.979 47.3895 145.931 47.4535C144.939 48.8295 143.803 50.0615 142.587 51.1495L142.635 59.2455C142.635 59.4535 142.539 59.5495 142.331 59.5495H139.691C139.499 59.5495 139.387 59.4535 139.387 59.2455L139.403 53.5335C137.835 54.5255 136.219 55.2775 134.731 55.7415ZM152.866 51.5495C151.714 50.5095 150.194 49.5495 149.042 49.0375C148.93 48.9895 148.866 48.9095 148.866 48.8135C148.866 48.7655 148.898 48.7015 148.946 48.6215L150.29 46.8615C150.402 46.7175 150.514 46.6695 150.69 46.7335C151.922 47.1335 153.698 48.0935 154.962 49.2295C155.042 49.3095 155.09 49.3735 155.09 49.4535C155.09 49.5175 155.058 49.5815 154.994 49.6455L153.298 51.5335C153.234 51.6135 153.154 51.6455 153.074 51.6455C153.01 51.6455 152.946 51.6135 152.866 51.5495ZM150.482 59.1975C150.306 59.2295 150.162 59.1335 150.114 58.9575L149.362 56.4935C149.298 56.3015 149.378 56.1735 149.602 56.1415C155.074 55.4855 157.746 52.6215 159.362 48.0935C159.41 47.9655 159.49 47.8855 159.586 47.8855C159.65 47.8855 159.698 47.9175 159.762 47.9495L161.874 49.3255C162.018 49.4215 162.082 49.5495 162.018 49.7255C160.306 54.6055 156.802 58.3015 150.482 59.1975Z" fill="#262626"/>
<path d="M89.2269 88.3875C89.3869 88.3875 89.4829 88.4835 89.4829 88.6435V89.4595H91.4349C91.5949 89.4595 91.6909 89.5555 91.6909 89.7155V91.5395C91.6909 91.6995 91.5949 91.7955 91.4349 91.7955H91.1629C91.0989 92.2435 91.0189 92.6755 90.9069 93.1075H91.5309C91.6909 93.1075 91.7869 93.2035 91.7869 93.3635V95.0595C91.7869 95.2195 91.6909 95.3155 91.5309 95.3155H89.3709V95.9715H91.3869C91.5469 95.9715 91.6429 96.0675 91.6429 96.2275V97.9715C91.6429 98.1315 91.5469 98.2275 91.3869 98.2275H89.8829C90.4109 98.7555 91.0189 99.1555 91.6109 99.4595C91.7069 99.5075 91.7549 99.5715 91.7549 99.6515C91.7549 99.6995 91.7229 99.7635 91.6909 99.8115L90.4909 101.54C90.4429 101.62 90.3629 101.668 90.2989 101.668C90.2349 101.668 90.1709 101.636 90.1229 101.588C89.8509 101.348 89.5789 101.044 89.3229 100.708L89.3709 103.156C89.3709 103.316 89.2749 103.412 89.1149 103.412H86.8909C86.7309 103.412 86.6349 103.316 86.6349 103.156L86.6829 100.9C86.2349 101.54 85.7229 102.116 85.1949 102.596C85.1309 102.644 85.0829 102.676 85.0349 102.676C84.9549 102.676 84.8909 102.628 84.8429 102.532L83.7709 100.452C83.6909 100.308 83.7389 100.18 83.8669 100.1C84.6509 99.6195 85.4029 98.9955 86.0589 98.2275H84.5869C84.4269 98.2275 84.3309 98.1315 84.3309 97.9715V96.2275C84.3309 96.0675 84.4269 95.9715 84.5869 95.9715H86.6349V95.3155H84.4109C84.2509 95.3155 84.1549 95.2195 84.1549 95.0595V93.3635C84.1549 93.2035 84.2509 93.1075 84.4109 93.1075H85.1309C85.0509 92.6915 84.9869 92.2595 84.8749 91.7955H84.5709C84.4109 91.7955 84.3149 91.6995 84.3149 91.5395V89.7155C84.3149 89.5555 84.4109 89.4595 84.5709 89.4595H86.5229V88.6435C86.5229 88.4835 86.6189 88.3875 86.7789 88.3875H89.2269ZM98.1069 88.4515C98.2669 88.4035 98.3629 88.4675 98.4109 88.6275L99.0349 90.9475C99.0829 91.1075 99.0189 91.2035 98.8589 91.2515C97.5629 91.6035 95.9949 91.7315 94.9229 91.8115V93.1075H98.8589C99.0189 93.1075 99.1149 93.2035 99.1149 93.3635V95.5235C99.1149 95.6835 99.0189 95.7795 98.8589 95.7795H98.2189V103.156C98.2189 103.316 98.1229 103.412 97.9629 103.412H95.8189C95.6589 103.412 95.5629 103.316 95.5629 103.156V95.7795H94.9389C94.9229 98.0035 94.6829 101.14 93.5469 103.156C93.4829 103.284 93.3709 103.332 93.2109 103.284L90.8749 102.58C90.7469 102.548 90.6989 102.468 90.6989 102.388C90.6989 102.34 90.7149 102.292 90.7469 102.244C92.2029 100.164 92.2669 97.3155 92.2349 93.5715L92.2029 89.4275C92.2029 89.2675 92.2669 89.1715 92.4109 89.1715C93.9149 89.1715 96.3469 88.8995 98.1069 88.4515ZM88.4109 93.1075C88.5229 92.6755 88.6189 92.2435 88.6829 91.7955H87.3549L87.5789 93.1075H88.4109ZM104.267 103.396C104.107 103.396 104.011 103.332 103.963 103.188L102.955 100.612C102.939 100.58 102.939 100.548 102.939 100.516C102.939 100.356 103.067 100.324 103.195 100.324C103.707 100.356 104.139 100.388 104.491 100.388C106.155 100.388 106.059 99.9715 106.059 99.5075V88.6275C106.059 88.4675 106.155 88.3715 106.315 88.3715H108.907C109.067 88.3715 109.163 88.4675 109.163 88.6275V100.228C109.163 103.044 107.339 103.444 104.267 103.396ZM112.667 100.148C112.507 100.212 112.379 100.18 112.315 100.02C111.067 97.1875 110.475 94.3235 110.027 91.5235C109.995 91.3635 110.059 91.2675 110.219 91.2355L112.571 90.7395C112.731 90.7075 112.843 90.7875 112.875 90.9475C113.371 93.7475 114.075 96.2275 115.195 98.5635C115.259 98.7075 115.227 98.8195 115.083 98.8995L112.667 100.148ZM102.779 99.7955C102.699 99.9395 102.587 99.9875 102.443 99.9235L100.043 98.8195C99.8989 98.7555 99.8509 98.6275 99.9309 98.4835C101.131 96.3395 101.947 93.3635 102.155 91.0435C102.171 90.8675 102.267 90.7875 102.443 90.8195L104.795 91.2355C104.955 91.2675 105.019 91.3635 105.003 91.5395C104.699 94.2115 103.963 97.4915 102.779 99.7955ZM119.275 93.0755V93.7955H127.867V93.0755H119.275ZM116.043 97.5715C116.043 97.4115 116.139 97.3155 116.299 97.3155H122.491V97.0435C122.491 96.8995 122.571 96.8035 122.715 96.7715C123.371 96.5955 124.171 96.2595 124.507 96.0355H118.683C118.523 96.0355 118.427 95.9395 118.427 95.7795V94.9635H116.699C116.539 94.9635 116.443 94.8675 116.443 94.7075V90.9475C116.443 90.7875 116.539 90.6915 116.699 90.6915H117.995C117.803 90.3075 117.531 89.8915 117.211 89.4915C117.163 89.4275 117.147 89.3635 117.147 89.3155C117.147 89.2355 117.195 89.1715 117.323 89.1395L119.611 88.4835C119.659 88.4675 119.691 88.4675 119.723 88.4675C119.819 88.4675 119.883 88.4995 119.947 88.5795C120.379 89.1555 120.859 89.9235 121.131 90.6915H122.283C122.075 90.2275 121.755 89.6995 121.419 89.2515C121.371 89.1875 121.355 89.1395 121.355 89.0915C121.355 89.0115 121.419 88.9475 121.531 88.9155L123.835 88.3395C123.867 88.3395 123.899 88.3235 123.931 88.3235C124.347 88.3235 125.147 90.3235 125.275 90.6915H125.883C126.347 90.0035 126.747 89.2035 127.003 88.5635C127.051 88.4195 127.163 88.3555 127.323 88.3875L129.803 88.9795C129.915 89.0115 129.979 89.0755 129.979 89.1555C129.979 89.2035 129.979 89.2515 129.947 89.2995C129.675 89.7635 129.323 90.2595 129.003 90.6915H130.427C130.587 90.6915 130.683 90.7875 130.683 90.9475V94.6915C130.683 94.8515 130.587 94.9475 130.427 94.9475H128.811V95.5715C128.811 95.7155 128.763 95.7955 128.667 95.8915C128.091 96.3555 127.211 96.8835 126.315 97.3155H130.795C130.955 97.3155 131.051 97.4115 131.051 97.5715V99.5875C131.051 99.7475 130.955 99.8435 130.795 99.8435H125.451V100.34C125.451 102.484 124.811 103.428 121.595 103.428L120.603 103.412C120.443 103.396 120.363 103.332 120.299 103.204L119.467 101.06C119.451 101.028 119.451 100.98 119.451 100.948C119.451 100.836 119.547 100.772 119.707 100.772L120.747 100.804C122.251 100.804 122.491 100.548 122.491 100.068V99.8435H116.299C116.139 99.8435 116.043 99.7475 116.043 99.5875V97.5715ZM137.019 102.916C134.635 102.916 132.795 101.572 132.171 99.3315V99.2355C132.171 99.1075 132.235 99.0275 132.379 98.9795L134.731 98.3875C134.763 98.3715 134.795 98.3715 134.827 98.3715C134.939 98.3715 135.019 98.4515 135.083 98.5795C135.419 99.4275 136.011 99.8755 136.955 99.8755C138.027 99.8755 138.619 99.3475 138.619 98.5315C138.619 97.6835 137.947 97.2355 136.875 97.2355H136.267C136.091 97.2355 135.979 97.1235 135.979 96.9475V94.9955C135.979 94.8355 136.091 94.7235 136.267 94.7235H136.907C137.755 94.7235 138.363 94.2435 138.363 93.5715C138.363 92.8515 137.771 92.3555 136.907 92.3555C136.107 92.3555 135.563 92.7875 135.227 93.6675C135.147 93.8275 135.035 93.9075 134.859 93.8595L132.491 93.2835C132.315 93.2515 132.219 93.1235 132.251 92.9475C132.891 90.6755 134.731 89.3795 137.067 89.3795C139.755 89.3795 141.675 90.9155 141.675 92.9955C141.675 94.1795 140.971 95.2035 139.659 95.8595C141.147 96.3555 141.995 97.4595 141.995 98.9795C141.995 101.348 140.011 102.916 137.019 102.916ZM158.061 97.7955C158.221 97.7955 158.317 97.8915 158.317 98.0515V100.18C158.317 100.34 158.221 100.436 158.061 100.436H153.005V103.156C153.005 103.316 152.909 103.412 152.749 103.412H150.349C150.189 103.412 150.093 103.316 150.093 103.156V100.436H143.725C143.565 100.436 143.469 100.34 143.469 100.18V98.0515C143.469 97.8915 143.565 97.7955 143.725 97.7955H145.357V95.1715C145.293 95.1715 145.245 95.1555 145.181 95.1075L143.261 93.5555C143.197 93.5075 143.165 93.4435 143.165 93.3795C143.165 93.3155 143.197 93.2515 143.261 93.1875C144.573 91.9395 145.597 90.1155 146.077 88.5635C146.125 88.4195 146.221 88.3555 146.381 88.3715L148.781 88.7075C148.957 88.7395 149.037 88.8355 148.989 89.0115C148.925 89.2675 148.829 89.5395 148.749 89.7955H157.517C157.677 89.7955 157.773 89.8915 157.773 90.0515V92.1315C157.773 92.2915 157.677 92.3875 157.517 92.3875H153.005V93.6355H156.941C157.101 93.6355 157.197 93.7315 157.197 93.8915V95.9395C157.197 96.0995 157.101 96.1955 156.941 96.1955H153.005V97.7955H158.061ZM147.629 92.3875C147.389 92.8195 147.101 93.2355 146.813 93.6355H150.093V92.3875H147.629ZM150.093 96.1955H148.077V97.7955H150.093V96.1955ZM174.269 102.772C174.269 102.932 174.173 103.028 174.013 103.028H159.805C159.645 103.028 159.549 102.932 159.549 102.772V100.42C159.549 100.26 159.645 100.164 159.805 100.164H165.533V98.1635H161.485C161.325 98.1635 161.229 98.0675 161.229 97.9075V95.8595L159.325 94.3715C159.245 94.3075 159.213 94.2435 159.213 94.1955C159.213 94.1315 159.245 94.0835 159.293 94.0195C160.621 92.6115 161.517 90.4515 161.869 88.8355C161.901 88.6755 161.997 88.5955 162.157 88.6275L164.445 88.9795C164.605 89.0115 164.685 89.1235 164.653 89.2835C164.557 89.7635 164.429 90.2755 164.285 90.7715H165.533V88.6435C165.533 88.4835 165.629 88.3875 165.789 88.3875H168.333C168.493 88.3875 168.589 88.4835 168.589 88.6435V90.7715H173.229C173.389 90.7715 173.485 90.8675 173.485 91.0275V93.3315C173.485 93.4915 173.389 93.5875 173.229 93.5875H168.589V95.3635H172.557C172.717 95.3635 172.813 95.4595 172.813 95.6195V97.9075C172.813 98.0675 172.717 98.1635 172.557 98.1635H168.589V100.164H174.013C174.173 100.164 174.269 100.26 174.269 100.42V102.772ZM163.197 93.5875C162.861 94.2435 162.493 94.8515 162.077 95.3635H165.533V93.5875H163.197ZM188.877 103.108C188.813 103.188 188.765 103.22 188.701 103.22C188.637 103.22 188.589 103.204 188.525 103.14C187.741 102.356 187.021 101.396 186.477 100.452C185.741 101.556 184.749 102.58 183.709 103.236C183.661 103.268 183.597 103.284 183.549 103.284C183.485 103.284 183.405 103.252 183.341 103.188L181.341 101.236C181.277 101.172 181.245 101.124 181.245 101.06C181.245 100.996 181.293 100.932 181.389 100.884C184.173 99.4275 185.501 97.1395 185.837 94.1155C186.013 92.5635 186.061 90.7715 185.997 88.7075C185.997 88.5475 186.077 88.4515 186.237 88.4515H188.637C188.813 88.4515 188.893 88.5475 188.893 88.7075C188.941 90.4675 188.925 91.9395 188.845 93.2195C188.733 95.0115 188.493 96.3875 188.093 97.6035C188.685 98.7395 189.517 99.6835 190.477 100.5C190.557 100.564 190.589 100.628 190.589 100.692C190.589 100.756 190.573 100.804 190.525 100.868L188.877 103.108ZM175.165 100.276C175.117 100.116 175.181 100.004 175.341 99.9555L176.253 99.6835V88.7395C176.253 88.5795 176.349 88.4835 176.509 88.4835H178.925C179.085 88.4835 179.181 88.5795 179.181 88.7395V98.4675C180.237 97.9395 181.261 97.3315 182.189 96.6915C182.253 96.6595 182.301 96.6275 182.349 96.6275C182.445 96.6275 182.509 96.7075 182.525 96.8355L182.813 99.3955C182.845 99.5395 182.797 99.6355 182.669 99.7155C181.037 100.82 178.541 102.036 176.205 102.836C176.045 102.884 175.933 102.82 175.885 102.66L175.165 100.276ZM182.781 94.9955C182.621 95.0755 182.509 95.0435 182.445 94.8835C181.853 93.4595 181.069 92.0675 180.077 90.8995C180.029 90.8355 179.997 90.7875 179.997 90.7395C179.997 90.6595 180.045 90.5955 180.141 90.5475L182.157 89.4755C182.301 89.3955 182.413 89.4275 182.525 89.5395C183.549 90.6595 184.461 92.0355 185.053 93.4435C185.117 93.5875 185.085 93.6995 184.941 93.7795L182.781 94.9955ZM191.613 102.996C191.453 102.996 191.357 102.9 191.357 102.74V100.356C191.357 100.196 191.453 100.1 191.613 100.1H196.925V88.6595C196.925 88.4995 197.021 88.4035 197.181 88.4035H199.821C199.981 88.4035 200.077 88.4995 200.077 88.6595V92.8995H204.813C204.973 92.8995 205.069 92.9955 205.069 93.1555V95.5075C205.069 95.6675 204.973 95.7635 204.813 95.7635H200.077V100.1H206.013C206.173 100.1 206.269 100.196 206.269 100.356V102.74C206.269 102.9 206.173 102.996 206.013 102.996H191.613Z" fill="#262626"/>
<line x1="68.9141" y1="72.5636" x2="344.418" y2="72.5636" stroke="#262626" stroke-width="0.87277" stroke-dasharray="1.45 1.45"/>
<path d="M24.2411 88.8378C24.4011 88.8378 24.4971 88.9338 24.4971 89.0938V91.1418H26.2891C26.4491 91.1418 26.5451 91.2378 26.5451 91.3978V93.6378C26.5451 93.7978 26.4491 93.8938 26.2891 93.8938H25.8251C25.7451 95.3018 25.5051 96.5978 25.1371 97.7818C25.9051 98.7098 26.6091 99.6378 27.1371 100.47C27.1691 100.534 27.1851 100.582 27.1851 100.63C27.1851 100.71 27.1531 100.774 27.0731 100.838L25.0091 102.518C24.9611 102.566 24.8971 102.582 24.8491 102.582C24.7691 102.582 24.7051 102.534 24.6571 102.438C24.4011 101.926 24.0971 101.414 23.7451 100.87C23.0891 101.926 22.2891 102.838 21.3931 103.606C21.3291 103.654 21.2651 103.686 21.2171 103.686C21.1531 103.686 21.0891 103.654 21.0251 103.59L19.2491 101.702C19.1851 101.638 19.1691 101.59 19.1691 101.526C19.1691 101.462 19.2011 101.398 19.2811 101.334C20.4971 100.374 21.3451 99.4298 21.9211 98.4058C21.1691 97.4938 20.3851 96.6618 19.6651 96.0218C19.6011 95.9738 19.5691 95.9098 19.5691 95.8458C19.5691 95.7978 19.6011 95.7338 19.6811 95.6698L21.4091 94.2778C21.4731 94.2298 21.5371 94.1978 21.5851 94.1978C21.6491 94.1978 21.6971 94.2298 21.7611 94.2778C22.1291 94.5818 22.4971 94.9498 22.8971 95.3338C22.9611 94.8858 23.0091 94.4058 23.0251 93.8938H19.6651C19.5051 93.8938 19.4091 93.7978 19.4091 93.6378V91.3978C19.4091 91.2378 19.5051 91.1418 19.6651 91.1418H21.6011V89.0938C21.6011 88.9338 21.6971 88.8378 21.8571 88.8378H24.2411ZM30.1291 89.0298C30.1291 88.8698 30.2251 88.7738 30.3851 88.7738H32.7371C32.9131 88.7738 32.9931 88.8698 32.9931 89.0298V91.1258H34.1931C34.3531 91.1258 34.4491 91.2218 34.4491 91.3818V93.7178C34.4491 93.8778 34.3531 93.9738 34.1931 93.9738H32.9931V101.03C32.9931 103.318 31.7291 103.814 28.6731 103.83C28.5291 103.83 28.4331 103.766 28.3691 103.622L27.4411 101.238C27.4251 101.206 27.4251 101.174 27.4251 101.142C27.4251 101.03 27.5051 100.966 27.6651 100.966H27.6971C28.1771 100.998 28.5611 101.014 28.8811 101.014C30.2091 101.014 30.1291 100.742 30.1291 100.262V98.7738L28.2411 99.7338C28.0811 99.8138 27.9531 99.7658 27.9051 99.5898C27.5211 98.3258 26.8171 96.9338 26.0811 95.8938C26.0491 95.8458 26.0171 95.7978 26.0171 95.7498C26.0171 95.6698 26.0811 95.6058 26.1771 95.5578L28.0651 94.6778C28.2091 94.6138 28.3211 94.6298 28.3851 94.7258C28.9451 95.3978 29.6651 96.5658 30.1291 97.6218V93.9738H27.1531C26.9931 93.9738 26.8971 93.8778 26.8971 93.7178V91.3818C26.8971 91.2218 26.9931 91.1258 27.1531 91.1258H30.1291V89.0298ZM50.9611 96.3258C51.0251 96.2778 51.0731 96.2458 51.1371 96.2458C51.2011 96.2458 51.2491 96.2778 51.3131 96.3258L52.6251 97.6218C52.6891 97.6858 52.7211 97.7498 52.7211 97.8138C52.7211 97.8778 52.6891 97.9418 52.6251 97.9898C52.0011 98.5178 51.1851 99.0778 50.4811 99.5098C51.0571 100.278 51.7931 100.95 52.7211 101.51C52.8171 101.558 52.8491 101.638 52.8491 101.702C52.8491 101.766 52.8331 101.814 52.7691 101.878L51.1371 103.526C51.0731 103.59 51.0091 103.622 50.9451 103.622C50.8971 103.622 50.8491 103.606 50.7851 103.558C48.5611 101.926 47.3131 99.3018 46.5611 96.1978H45.3131L45.2971 96.2138H45.2811L45.2331 96.2618C46.5291 97.1898 47.4411 98.7898 47.4411 100.582C47.4411 102.678 46.2411 103.942 43.1051 103.91C42.9451 103.91 42.8651 103.846 42.8011 103.702L42.2411 102.326C41.1051 102.854 39.8091 103.318 38.6731 103.638C38.5291 103.686 38.4171 103.622 38.3371 103.494L37.5051 101.974C37.4251 101.814 37.4731 101.686 37.6491 101.654C39.9371 101.174 42.3051 100.374 44.4331 99.1578C44.3851 99.0298 44.3371 98.9018 44.2731 98.7738C42.5611 99.7018 40.5931 100.502 38.6571 101.014C38.5131 101.046 38.4011 100.998 38.3371 100.854L37.6971 99.5738C37.6171 99.4138 37.7131 99.2858 37.9531 99.2378C39.9371 98.9018 41.8571 98.2778 43.3611 97.5898C43.2491 97.4938 43.1371 97.4298 43.0411 97.3498C41.7131 97.9098 40.1611 98.4378 38.9131 98.6618C38.7691 98.6938 38.6571 98.6298 38.5931 98.4858L37.9531 97.1098C37.8731 96.9338 37.9531 96.8218 38.1931 96.8058C39.5051 96.7098 40.8651 96.5338 42.0171 96.1978H38.8171C38.6571 96.1978 38.5611 96.1018 38.5611 95.9418V93.8618C38.5451 93.8618 38.5451 93.8778 38.5291 93.8778L38.4491 93.9098C38.4491 93.9098 38.4331 93.9258 38.4171 93.9258C38.2571 93.9898 38.1451 93.9418 38.0811 93.7818L37.2331 91.5098C37.1691 91.3498 37.2491 91.2378 37.4411 91.1738C38.9931 90.6618 40.4971 89.7498 41.4731 88.8538C41.5691 88.7578 41.6491 88.7258 41.7931 88.7418L44.7371 88.9178C44.8811 88.9338 44.9611 88.9978 44.9611 89.0778C44.9611 89.1258 44.9451 89.1898 44.8971 89.2378L44.6731 89.5098H49.5051C49.6651 89.5098 49.7611 89.6058 49.7611 89.7658V90.9338C49.7611 91.0778 49.7291 91.1578 49.6331 91.2538L49.1211 91.7338H51.8891C52.0491 91.7338 52.1451 91.8298 52.1451 91.9898V95.9418C52.1451 96.1018 52.0491 96.1978 51.8891 96.1978H49.0891C49.1691 96.6458 49.2811 97.0778 49.4251 97.4778C50.0011 97.1578 50.5611 96.7098 50.9611 96.3258ZM42.6731 101.83C44.0651 101.862 44.5931 101.574 44.6571 100.774C43.9371 101.238 43.1851 101.606 42.6731 101.83ZM43.9371 93.6218H41.3611V94.3258H43.9371V93.6218ZM45.5691 91.7338L46.3051 91.2218H42.8811C42.6731 91.3978 42.4491 91.5738 42.2251 91.7338H45.5691ZM46.6891 94.3258H49.3611V93.6218H46.6891V94.3258Z" fill="white"/>
<path d="M334.449 11.7886C334.311 11.7886 334.2 11.6917 334.2 11.5394L334.02 4.563C334.02 4.42458 334.117 4.31384 334.269 4.31384H336.539C336.691 4.31384 336.775 4.42458 336.775 4.563L336.595 11.5394C336.595 11.6917 336.498 11.7886 336.345 11.7886H334.449ZM333.826 14.2248C333.826 13.3389 334.518 12.7299 335.404 12.7299C336.276 12.7299 336.968 13.3389 336.968 14.2248C336.968 15.1245 336.276 15.7336 335.404 15.7336C334.518 15.7336 333.826 15.1245 333.826 14.2248Z" fill="white"/>
<path d="M327.279 6.70852C325.106 6.141 322.877 5.96105 320.939 5.878C320.759 5.86415 320.676 5.76726 320.718 5.58731L321.119 3.77399C321.147 3.62173 321.258 3.53868 321.41 3.55252C323.389 3.71862 325.839 3.96778 327.777 4.35536C327.943 4.38305 328.026 4.49378 327.985 4.65989L327.597 6.51473C327.556 6.69468 327.459 6.75005 327.279 6.70852ZM321.617 15.8859C321.465 15.8997 321.368 15.8443 321.299 15.7059L320.427 13.7542C320.344 13.5742 320.427 13.4496 320.621 13.4358C322.24 13.3666 323.846 13.242 325.133 12.5637C325.922 12.1485 326.407 11.3733 326.407 10.6812C326.407 9.54616 325.272 9.297 324.358 9.297C323.223 9.297 321.659 9.56 319.749 10.1829C319.583 10.2383 319.458 10.1691 319.417 10.0029L318.891 8.03737C318.849 7.87126 318.904 7.76053 319.084 7.719C321.188 7.193 323.071 6.91616 324.497 6.91616L324.884 6.93C327.805 7.02689 329.12 8.70179 329.12 10.5428C329.12 12.1208 328.151 13.8372 326.379 14.7785C325.258 15.3737 323.583 15.7751 321.617 15.8859Z" fill="white"/>
<path d="M314.61 5.31049C314.458 5.36586 314.333 5.29665 314.278 5.14438C314.07 4.54917 313.793 4.02317 313.447 3.55254C313.406 3.49717 313.378 3.42796 313.378 3.38643C313.378 3.28954 313.447 3.22033 313.558 3.19264L314.139 3.02654C314.278 2.98501 314.388 2.99885 314.485 3.12343C314.845 3.5387 315.205 4.17543 315.426 4.77065C315.482 4.93675 315.427 5.04749 315.26 5.10286L314.61 5.31049ZM312.298 13.8649C311.841 15.1522 310.665 15.6644 309.378 15.6644C307.841 15.6644 306.374 14.7508 306.374 13.0898C306.374 11.318 307.979 10.4459 309.557 10.4459C309.765 10.4459 309.973 10.4598 310.18 10.4874L310.167 9.71228H306.761C306.595 9.71228 306.498 9.61539 306.498 9.44928V7.76054C306.498 7.5806 306.595 7.49754 306.761 7.49754L310.125 7.4837L310.097 6.61165L306.927 6.62549C306.761 6.62549 306.664 6.52859 306.664 6.36249V4.5907C306.664 4.42459 306.761 4.3277 306.927 4.3277H312.063L311.855 4.02317C311.814 3.9678 311.786 3.89859 311.786 3.85706C311.786 3.76017 311.855 3.69096 311.966 3.66327L312.589 3.48333C312.741 3.4418 312.852 3.46948 312.949 3.58022C313.378 4.10622 313.669 4.67375 313.876 5.2828C313.932 5.43507 313.876 5.5458 313.71 5.60117L313.364 5.71191V6.34865C313.364 6.51475 313.267 6.61165 313.101 6.61165H312.45L312.464 7.49754H314.291C314.458 7.49754 314.554 7.5806 314.554 7.76054V9.43544C314.554 9.60155 314.458 9.69844 314.291 9.69844H312.464L312.492 11.2488C312.852 11.4426 314.928 12.6191 314.928 12.9929C314.928 13.0482 314.914 13.1036 314.873 13.159L313.71 14.8339C313.655 14.9169 313.585 14.9585 313.53 14.9585C313.461 14.9585 313.406 14.9308 313.35 14.8616C313.004 14.4878 312.658 14.1556 312.298 13.8649ZM303.55 15.4014C303.398 15.4152 303.287 15.3322 303.259 15.1661C303.065 14.031 302.982 12.5638 302.982 10.9858C302.982 8.77102 303.149 6.33481 303.412 4.3277C303.439 4.16159 303.522 4.07854 303.688 4.09238L305.779 4.18928C305.958 4.20312 306.042 4.31385 306.014 4.47996C305.682 6.32096 305.488 8.71565 305.488 10.9027C305.488 12.453 305.585 13.9064 305.792 14.9723C305.82 15.1384 305.751 15.2491 305.571 15.263L303.55 15.4014ZM310.236 12.5638C309.931 12.4392 309.64 12.3838 309.391 12.3838C308.976 12.3838 308.436 12.5776 308.436 13.0759C308.436 13.242 308.505 13.3804 308.602 13.4912C308.782 13.6711 309.004 13.7542 309.225 13.7542C309.917 13.7542 310.222 13.2005 310.236 12.5638Z" fill="white"/>
<path d="M289.182 7.28994V7.91284H296.615V7.28994H289.182ZM286.386 11.1796C286.386 11.0412 286.469 10.9581 286.607 10.9581H291.964V10.7228C291.964 10.5982 292.033 10.5152 292.158 10.4875C292.725 10.3352 293.418 10.0445 293.708 9.85074H288.67C288.531 9.85074 288.448 9.76769 288.448 9.62926V8.92332H286.953C286.815 8.92332 286.732 8.84026 286.732 8.70184V5.44894C286.732 5.31052 286.815 5.22747 286.953 5.22747H288.074C287.908 4.89526 287.673 4.53536 287.396 4.18931C287.355 4.13394 287.341 4.07857 287.341 4.03704C287.341 3.96783 287.382 3.91247 287.493 3.88478L289.473 3.31725C289.514 3.30341 289.542 3.30341 289.569 3.30341C289.652 3.30341 289.708 3.3311 289.763 3.40031C290.137 3.89862 290.552 4.56305 290.788 5.22747H291.784C291.604 4.82605 291.327 4.36926 291.037 3.98168C290.995 3.92631 290.981 3.88478 290.981 3.84325C290.981 3.77404 291.037 3.71868 291.134 3.69099L293.127 3.19267C293.155 3.19267 293.182 3.17883 293.21 3.17883C293.57 3.17883 294.262 4.9091 294.373 5.22747H294.899C295.3 4.63226 295.646 3.94015 295.868 3.38646C295.909 3.26189 296.006 3.20652 296.144 3.2342L298.29 3.74636C298.387 3.77404 298.442 3.82941 298.442 3.89862C298.442 3.94015 298.442 3.98168 298.415 4.0232C298.179 4.42462 297.875 4.85373 297.598 5.22747H298.83C298.968 5.22747 299.051 5.31052 299.051 5.44894V8.688C299.051 8.82642 298.968 8.90947 298.83 8.90947H297.432V9.44932C297.432 9.5739 297.39 9.64311 297.307 9.72616C296.809 10.1276 296.048 10.5844 295.272 10.9581H299.148C299.287 10.9581 299.37 11.0412 299.37 11.1796V12.9237C299.37 13.0621 299.287 13.1452 299.148 13.1452H294.525V13.5743C294.525 15.4291 293.971 16.2458 291.189 16.2458L290.331 16.232C290.192 16.2181 290.123 16.1627 290.068 16.052L289.348 14.1972C289.334 14.1695 289.334 14.128 289.334 14.1003C289.334 14.0034 289.417 13.948 289.556 13.948L290.455 13.9757C291.756 13.9757 291.964 13.7542 291.964 13.339V13.1452H286.607C286.469 13.1452 286.386 13.0621 286.386 12.9237V11.1796Z" fill="white"/>
<path d="M279.714 15.8859C279.658 15.9413 279.589 15.969 279.534 15.969C279.465 15.969 279.409 15.9413 279.34 15.8721C277.374 13.9342 274.841 12.5777 273.346 11.4149C272.668 10.8889 272.336 10.266 272.336 9.64315C272.336 9.03409 272.654 8.43888 273.277 7.92672C274.218 7.16541 277.015 5.46283 279.022 3.63566C279.077 3.5803 279.146 3.55261 279.202 3.55261C279.271 3.55261 279.326 3.5803 279.395 3.63566L281.14 5.14446C281.209 5.19983 281.236 5.26904 281.236 5.3244C281.236 5.39362 281.209 5.46283 281.126 5.51819C279.188 6.91625 276.433 8.54962 275.533 9.22788C275.367 9.35246 275.284 9.50473 275.284 9.62931C275.284 9.76773 275.367 9.89231 275.506 9.97536C276.627 10.6675 279.451 12.2316 281.527 13.9065C281.596 13.9619 281.638 14.0311 281.638 14.0865C281.638 14.1557 281.596 14.2249 281.527 14.2803L279.714 15.8859Z" fill="white"/>
<path d="M265.668 14.0311C264.796 15.2353 263.01 15.9828 261.294 15.9828C259.162 15.9828 257.141 14.8478 257.017 12.0378C256.934 10.1276 257.141 6.73627 257.224 4.17548C257.224 3.99553 257.321 3.91248 257.501 3.91248L259.688 3.96784C259.868 3.96784 259.951 4.06474 259.937 4.24469C259.771 6.81932 259.591 9.58775 259.647 11.4564C259.688 12.8545 260.533 13.4082 261.488 13.4082C262.235 13.4082 263.066 13.0483 263.578 12.4808C264.118 11.8855 264.408 11.0965 264.658 9.75385C264.685 9.61543 264.755 9.54622 264.851 9.54622C264.893 9.54622 264.948 9.56006 265.004 9.60159L266.859 10.8059C266.983 10.8889 267.025 11.0135 266.983 11.1658C266.679 12.3008 266.333 13.1175 265.668 14.0311Z" fill="white"/>
<path d="M251.895 10.5706C252.033 10.5706 252.117 10.6536 252.117 10.792V12.4393C252.117 12.5777 252.033 12.6607 251.895 12.6607L248.753 12.6054C249.805 13.0898 250.981 13.4497 252.324 13.7543C252.476 13.7819 252.532 13.8927 252.463 14.0311L251.577 15.9275C251.521 16.0521 251.424 16.0936 251.3 16.0521C249.86 15.5676 248.352 14.8339 247.161 13.9896L247.216 16.0244C247.216 16.1628 247.133 16.2458 246.995 16.2458H244.891C244.753 16.2458 244.669 16.1628 244.669 16.0244L244.725 14.0588C243.673 14.8616 242.178 15.5814 240.572 16.0797C240.448 16.1213 240.351 16.0659 240.295 15.9413L239.437 14.0449C239.368 13.8927 239.423 13.7958 239.576 13.7681C240.946 13.5051 242.233 13.0898 243.271 12.6054L240.019 12.6607C239.88 12.6607 239.797 12.5777 239.797 12.4393V10.792C239.797 10.6536 239.88 10.5706 240.019 10.5706H244.656V10.0999H243.147C243.008 10.0999 242.925 10.0169 242.925 9.87846V8.85415C242.233 9.44936 241.278 10.003 240.531 10.3353C240.392 10.3906 240.295 10.3491 240.24 10.2107L239.437 8.38351C239.382 8.24509 239.423 8.1482 239.562 8.09283C240.282 7.82983 241.043 7.44225 241.721 6.97162C241.181 6.37641 240.378 5.79504 239.659 5.43514C239.576 5.39362 239.52 5.33825 239.52 5.26904C239.52 5.22751 239.548 5.18598 239.589 5.13061L240.849 3.67719C240.946 3.56645 241.029 3.55261 241.154 3.60798C241.763 3.88482 242.413 4.31393 242.925 4.7984V4.31393C242.925 4.17551 243.008 4.09245 243.147 4.09245H244.296C244.296 4.09245 244.296 4.07861 244.31 4.07861V4.05093C244.476 3.81561 244.642 3.56645 244.739 3.35882C244.808 3.24808 244.877 3.19272 245.016 3.20656L247.258 3.35882C247.438 3.37266 247.493 3.46956 247.41 3.62182C247.327 3.77409 247.23 3.95403 247.12 4.09245H248.753C248.891 4.09245 248.974 4.17551 248.974 4.31393V5.04756C249.597 4.65998 250.234 4.09245 250.622 3.62182C250.677 3.56645 250.732 3.52493 250.788 3.52493C250.829 3.52493 250.871 3.55261 250.926 3.59414L252.324 4.88146C252.38 4.93682 252.407 4.99219 252.407 5.04756C252.407 5.08909 252.393 5.13061 252.366 5.17214C251.895 5.76735 251.065 6.51483 250.372 6.98546C250.954 7.44225 251.66 7.84367 252.324 8.18972C252.407 8.21741 252.449 8.27278 252.449 8.34199C252.449 8.38351 252.435 8.42504 252.407 8.48041L251.369 10.2245C251.3 10.3353 251.189 10.3629 251.065 10.2937C250.372 9.89231 249.597 9.36631 248.974 8.78494V9.87846C248.974 10.0169 248.891 10.0999 248.753 10.0999H247.216V10.5706H251.895ZM242.925 8.21741V5.98883L242.233 6.8332L242.925 8.21741ZM245.195 6.52867H246.704V5.83656H245.195V6.52867ZM246.704 7.7883H245.195V8.46657H246.704V7.7883ZM248.974 6.01651V7.98209L249.708 6.86088L248.974 6.01651Z" fill="white"/>
<path d="M233.665 15.7198C228.82 15.6644 227.021 13.5189 227.021 11.318C227.021 9.61542 228.101 7.87131 229.706 7.04078C228.142 7.09615 226.177 7.19304 224.557 7.22073C224.391 7.22073 224.294 7.13768 224.294 6.95773L224.252 4.95062C224.252 4.78451 224.335 4.68762 224.502 4.68762C227.422 4.68762 232.378 4.68762 235.437 4.61841C235.603 4.61841 235.7 4.70146 235.7 4.86757V6.84699C235.7 7.0131 235.617 7.10999 235.451 7.10999C235.035 7.10999 234.648 7.15152 234.274 7.22073C232.572 7.48373 229.762 9.08942 229.762 10.9443C229.762 12.1347 231.049 13.1036 234.094 13.0483C234.26 13.0483 234.343 13.1313 234.343 13.2559V13.3251L233.956 15.4845C233.928 15.6506 233.831 15.7198 233.665 15.7198ZM233.72 11.2488C233.554 11.318 233.444 11.2488 233.388 11.0965C233.139 10.3906 232.765 9.67078 232.336 9.10326C232.295 9.03405 232.267 8.97868 232.267 8.92331C232.267 8.8541 232.322 8.78489 232.419 8.74336L233.236 8.42499C233.374 8.36962 233.485 8.38347 233.582 8.50805C234.011 9.00636 234.509 9.86457 234.786 10.5428C234.842 10.6951 234.786 10.8197 234.634 10.875L233.72 11.2488ZM235.631 10.4875C235.465 10.5567 235.354 10.4875 235.298 10.3352C235.049 9.69847 234.606 8.90947 234.219 8.41115C234.177 8.35578 234.15 8.30041 234.15 8.24505C234.15 8.16199 234.205 8.09278 234.316 8.05126L235.091 7.73289C235.229 7.67752 235.354 7.69136 235.451 7.8021C235.894 8.30041 236.42 9.17247 236.655 9.80921C236.71 9.96147 236.655 10.086 236.503 10.1414L235.631 10.4875Z" fill="white"/>
<path d="M209.068 15.3184C208.901 15.3322 208.805 15.263 208.763 15.1107L208.279 13.0483C208.237 12.8683 208.32 12.7576 208.5 12.7437L209.635 12.6468C210.936 9.43546 211.808 6.36251 212.237 4.21698C212.265 4.05088 212.376 3.98167 212.542 4.00935L214.964 4.34156C215.144 4.36925 215.213 4.47998 215.172 4.64609C214.591 6.75009 213.525 9.98915 212.528 12.37C213.995 12.2177 215.393 12.0378 216.528 11.8855C216.058 10.9719 215.518 10.1276 214.895 9.31089C214.854 9.25552 214.826 9.20015 214.826 9.14478C214.826 9.06173 214.881 8.99252 214.978 8.95099L216.875 8.14815C217.013 8.09278 217.138 8.10662 217.234 8.24504C218.632 10.0307 220.003 12.4254 220.598 14.5017C220.64 14.6539 220.598 14.7647 220.446 14.8339L218.259 15.7613C218.217 15.7752 218.176 15.789 218.134 15.789C218.023 15.789 217.954 15.7198 217.927 15.5952C217.788 15.0692 217.636 14.5571 217.456 14.0587C214.355 14.6263 211.324 15.0415 209.068 15.3184Z" fill="white"/>
<path d="M194.841 6.5701C194.675 6.5701 194.578 6.47321 194.578 6.3071V4.4661C194.578 4.28615 194.675 4.18926 194.841 4.18926L203.133 4.17542C203.299 4.17542 203.396 4.25847 203.396 4.43842V6.3071C203.396 6.47321 203.299 6.5701 203.133 6.5701H194.841ZM196.336 15.872C196.184 15.8859 196.087 15.8305 196.018 15.7059L194.855 13.6711C194.828 13.6157 194.814 13.5742 194.814 13.5327C194.814 13.422 194.897 13.3527 195.049 13.3527C198.537 13.2559 200.96 11.8578 201.389 9.89221C199.188 9.90606 196.309 9.94758 193.859 9.98911C193.693 9.98911 193.596 9.89221 193.596 9.72611V7.80205C193.596 7.6221 193.693 7.53905 193.859 7.53905H204.143C204.31 7.53905 204.406 7.6221 204.406 7.80205C204.337 12.5499 201.5 15.4983 196.336 15.872Z" fill="white"/>
<path d="M189.191 5.85032C189.149 5.86416 189.108 5.87801 189.066 5.87801C188.969 5.87801 188.9 5.82264 188.845 5.69806C188.596 5.0198 188.153 4.21695 187.71 3.63558C187.668 3.58021 187.641 3.52485 187.641 3.46948C187.641 3.38642 187.696 3.31721 187.807 3.27569L188.513 2.985C188.651 2.92963 188.762 2.94348 188.859 3.05421C189.315 3.58021 189.869 4.49379 190.146 5.15822C190.201 5.31048 190.146 5.43506 189.994 5.50427L189.191 5.85032ZM180.498 15.9274C180.346 15.9689 180.249 15.9274 180.152 15.8028L178.643 13.8095C178.602 13.7542 178.574 13.6988 178.574 13.6434C178.574 13.5604 178.643 13.505 178.782 13.4773C182.574 12.8683 185.37 10.5013 186.09 6.73622H182.824C182.214 8.24501 180.872 9.8507 179.584 10.6812C179.529 10.7228 179.474 10.7366 179.418 10.7366C179.349 10.7366 179.28 10.7089 179.211 10.6535L177.633 9.33854C177.563 9.28317 177.522 9.21396 177.522 9.15859C177.522 9.08938 177.577 9.02017 177.66 8.9648C179.515 7.88512 180.664 5.89185 181.093 4.68758C181.149 4.54916 181.232 4.47995 181.384 4.47995L185.398 4.45227C185.523 4.45227 185.62 4.47995 185.73 4.54916L186.45 4.95058C186.229 4.60453 185.993 4.27232 185.758 3.98164C185.703 3.92627 185.689 3.85706 185.689 3.81553C185.689 3.73248 185.744 3.66327 185.841 3.62174L186.561 3.31721C186.699 3.26184 186.81 3.27569 186.921 3.40027C187.433 3.96779 187.973 4.85369 188.277 5.58732C188.347 5.73959 188.291 5.85032 188.139 5.91953L188.693 6.2379C188.831 6.32096 188.873 6.43169 188.845 6.5978C187.945 11.664 185.011 14.557 180.498 15.9274Z" fill="white"/>
<path d="M162.555 15.18C162.389 15.18 162.292 15.097 162.292 14.917V4.95067C162.292 4.77072 162.389 4.68767 162.555 4.68767L172.84 4.67383C173.006 4.67383 173.103 4.75688 173.103 4.93683V14.917C173.103 15.097 173.006 15.18 172.84 15.18H162.555ZM170.418 12.7853V7.02699H164.978V12.7853H170.418Z" fill="white"/>
<path d="M148.699 15.6783C148.533 15.706 148.422 15.6644 148.353 15.526L147.287 13.4912C147.19 13.3113 147.273 13.1867 147.467 13.159C153.032 12.1901 154.042 9.18631 154.416 7.48373L146.706 7.59447C146.54 7.59447 146.443 7.49757 146.443 7.33146V5.31051C146.443 5.13057 146.54 5.04751 146.706 5.04751L154.568 5.03367V4.99214C154.568 3.91246 155.44 3.04041 156.534 3.04041C157.613 3.04041 158.486 3.9263 158.486 4.99214C158.486 5.85036 157.946 6.58399 157.184 6.84699C156.575 11.3457 153.918 14.6263 148.699 15.6783ZM156.534 5.82267C156.977 5.82267 157.35 5.44893 157.35 4.99214C157.35 4.5492 156.991 4.17546 156.534 4.17546C156.077 4.17546 155.703 4.5492 155.703 4.99214C155.703 5.44893 156.091 5.82267 156.534 5.82267Z" fill="white"/>
<path d="M134.137 8.77099C133.141 7.87125 131.826 7.04072 130.829 6.59777C130.732 6.55625 130.677 6.48704 130.677 6.40398C130.677 6.36246 130.704 6.30709 130.746 6.23788L131.909 4.71524C132.006 4.59066 132.102 4.54914 132.255 4.60451C133.321 4.95056 134.857 5.78109 135.951 6.76388C136.02 6.83309 136.061 6.88846 136.061 6.95767C136.061 7.01304 136.034 7.06841 135.978 7.12377L134.511 8.75714C134.456 8.82636 134.386 8.85404 134.317 8.85404C134.262 8.85404 134.207 8.82636 134.137 8.77099ZM132.075 15.3875C131.923 15.4152 131.798 15.3322 131.756 15.1799L131.106 13.0482C131.05 12.8821 131.12 12.7714 131.313 12.7437C136.048 12.1762 138.359 9.69841 139.757 5.78109C139.799 5.67035 139.868 5.60114 139.951 5.60114C140.006 5.60114 140.048 5.62882 140.103 5.65651L141.93 6.84693C142.055 6.92998 142.11 7.04072 142.055 7.19299C140.574 11.4148 137.542 14.6124 132.075 15.3875Z" fill="white"/>
<path d="M116.51 12.3976C116.357 12.4391 116.247 12.4115 116.164 12.273L114.904 10.2659C114.862 10.2106 114.849 10.1552 114.849 10.1137C114.849 10.0306 114.918 9.9614 115.042 9.93372C118.544 9.13088 121.977 6.55624 123.721 3.95392C123.818 3.8155 123.929 3.78782 124.081 3.85703L126.116 4.8675C126.213 4.90903 126.268 4.97824 126.268 5.06129C126.268 5.11666 126.241 5.17203 126.199 5.2274C125.341 6.41782 124.358 7.48366 123.306 8.42493L123.348 15.429C123.348 15.609 123.265 15.692 123.085 15.692H120.801C120.635 15.692 120.538 15.609 120.538 15.429L120.552 10.4874C119.195 11.3456 117.797 11.9962 116.51 12.3976Z" fill="white"/>
<path d="M100.702 6.5701C100.536 6.5701 100.439 6.47321 100.439 6.3071V4.4661C100.439 4.28615 100.536 4.18926 100.702 4.18926L108.994 4.17542C109.16 4.17542 109.257 4.25847 109.257 4.43842V6.3071C109.257 6.47321 109.16 6.5701 108.994 6.5701H100.702ZM102.197 15.872C102.045 15.8859 101.948 15.8305 101.879 15.7059L100.716 13.6711C100.688 13.6157 100.675 13.5742 100.675 13.5327C100.675 13.422 100.758 13.3527 100.91 13.3527C104.398 13.2559 106.821 11.8578 107.25 9.89221C105.049 9.90606 102.17 9.94758 99.7195 9.98911C99.5534 9.98911 99.4565 9.89221 99.4565 9.72611V7.80205C99.4565 7.6221 99.5534 7.53905 99.7195 7.53905H110.004C110.17 7.53905 110.267 7.6221 110.267 7.80205C110.198 12.5499 107.36 15.4983 102.197 15.872Z" fill="white"/>
<path d="M87.0675 8.77099C86.0708 7.87125 84.7558 7.04072 83.7592 6.59777C83.6623 6.55625 83.6069 6.48704 83.6069 6.40398C83.6069 6.36246 83.6346 6.30709 83.6761 6.23788L84.8389 4.71524C84.9358 4.59066 85.0327 4.54914 85.1849 4.60451C86.2508 4.95056 87.7873 5.78109 88.8808 6.76388C88.95 6.83309 88.9915 6.88846 88.9915 6.95767C88.9915 7.01304 88.9638 7.06841 88.9085 7.12377L87.4412 8.75714C87.3858 8.82636 87.3166 8.85404 87.2474 8.85404C87.192 8.85404 87.1367 8.82636 87.0675 8.77099ZM85.005 15.3875C84.8527 15.4152 84.7281 15.3322 84.6866 15.1799L84.036 13.0482C83.9807 12.8821 84.0499 12.7714 84.2437 12.7437C88.9777 12.1762 91.2893 9.69841 92.6874 5.78109C92.7289 5.67035 92.7981 5.60114 92.8812 5.60114C92.9365 5.60114 92.9781 5.62882 93.0334 5.65651L94.8606 6.84693C94.9852 6.92998 95.0405 7.04072 94.9852 7.19299C93.5041 11.4148 90.4726 14.6124 85.005 15.3875Z" fill="white"/>
<path d="M69.3634 14.474C69.308 14.5155 69.2526 14.5294 69.1973 14.5294C69.1281 14.5294 69.0589 14.4878 68.9896 14.4186L67.4532 12.7576C67.3978 12.6884 67.3701 12.633 67.3701 12.5776C67.3701 12.4946 67.4116 12.4392 67.5085 12.3838C69.6956 11.2211 71.3428 9.65695 72.3533 8.18968H68.0761C67.8961 8.18968 67.8131 8.09278 67.8131 7.92668V6.03031C67.8131 5.8642 67.8961 5.76731 68.0761 5.76731H74.485V3.89862C74.485 3.73252 74.568 3.63562 74.748 3.63562H76.7689C76.935 3.63562 77.0319 3.73252 77.0319 3.89862L77.0458 5.76731H78.9698C79.1359 5.76731 79.2328 5.8642 79.2328 6.03031V7.92668C79.2328 8.09278 79.1359 8.18968 78.9698 8.18968H77.0734L77.1011 11.1242C77.1011 11.6502 77.1427 12.4531 77.115 13.0344C77.0181 14.8477 75.8553 15.7752 73.5575 15.7752C73.2945 15.7752 73.0177 15.7613 72.727 15.7336C72.5748 15.7198 72.4917 15.6506 72.4363 15.4983L71.7858 13.5743C71.7304 13.3943 71.8134 13.2836 72.0211 13.2974C72.3256 13.3251 72.6024 13.339 72.8516 13.339C74.0974 13.339 74.5957 13.0344 74.6234 12.3146C74.6511 11.5256 74.6649 10.3629 74.6649 9.15863C73.5852 10.9304 71.8688 12.9791 69.3634 14.474Z" fill="white"/>
<path d="M58.3177 15.4153C58.1655 15.4291 58.0686 15.3599 58.0132 15.2077L57.2657 13.2559C57.1965 13.076 57.2796 12.9652 57.4872 12.9514C60.2833 12.813 61.2246 11.2488 61.2246 9.78156C61.2246 8.36966 60.4356 7.19308 59.0791 6.72245C58.9545 8.72956 57.9717 11.7056 56.6982 13.5605C56.2414 14.2387 55.4524 14.5848 54.6496 14.5848C52.4764 14.5848 51.3413 12.3285 51.3413 10.4045C51.3413 8.77108 52.0749 6.9716 53.8467 5.60123C54.9264 4.75686 56.3522 4.32776 57.7641 4.32776C61.1139 4.32776 63.7854 6.62555 63.7854 10.003C63.7854 12.8822 61.5291 15.2215 58.3177 15.4153ZM56.5598 6.68092C55.0095 7.13771 53.736 8.67419 53.736 10.3214C53.736 10.8751 53.8883 11.4011 54.2343 11.8163C54.3174 11.9132 54.4281 11.9686 54.5388 11.9686C54.6634 11.9686 54.8018 11.8994 54.8987 11.7471C55.7431 10.4875 56.4906 8.07898 56.5598 6.68092Z" fill="white"/>
<path d="M41.3054 3.5249C41.4438 3.5249 41.5269 3.60796 41.5269 3.74638V8.92333C41.5269 9.06175 41.4438 9.14481 41.3054 9.14481H38.2324V15.9967C38.2324 16.1351 38.1494 16.2181 38.011 16.2181H36.0315C35.8931 16.2181 35.8101 16.1351 35.8101 15.9967V3.74638C35.8101 3.60796 35.8931 3.5249 36.0315 3.5249H41.3054ZM47.5482 3.5249C47.6866 3.5249 47.7697 3.60796 47.7697 3.74638V13.7127C47.7697 15.4707 47.2852 16.2181 44.8074 16.1904C44.6829 16.1904 44.5998 16.1351 44.5583 16.0105L44.3507 15.3599H39.0768C38.9384 15.3599 38.8553 15.2769 38.8553 15.1384V9.83691C38.8553 9.69849 38.9384 9.61544 39.0768 9.61544H44.3922C44.5306 9.61544 44.6137 9.69849 44.6137 9.83691V13.865C45.3334 13.8373 45.3473 13.6712 45.3473 13.4082V9.14481H42.219C42.0805 9.14481 41.9975 9.06175 41.9975 8.92333V3.74638C41.9975 3.60796 42.0805 3.5249 42.219 3.5249H47.5482ZM42.5096 13.0344H40.9593V13.685H42.5096V13.0344ZM40.9593 11.8855H42.5096V11.2627H40.9593V11.8855ZM39.3813 6.94391H38.1771V7.60833H39.3813V6.94391ZM38.1771 5.86422H39.3813V5.24133H38.1771V5.86422ZM45.3888 6.94391H44.1569V7.60833H45.3888V6.94391ZM44.1569 5.86422H45.3888V5.24133H44.1569V5.86422Z" fill="white"/>
<path d="M20.8606 15.8167C20.7222 15.8167 20.6392 15.7337 20.6392 15.5952V3.8848C20.6392 3.74638 20.7222 3.66333 20.8606 3.66333H31.1177C31.2561 3.66333 31.3391 3.74638 31.3391 3.8848V15.5952C31.3391 15.7337 31.2561 15.8167 31.1177 15.8167H20.8606ZM23.2 8.41118H28.7783V6.05802H23.2V8.41118ZM28.7783 10.8059H23.2V13.3805H28.7783V10.8059Z" fill="white"/>
<path d="M12.3192 15.8028C10.2291 15.8028 8.66491 14.6954 8.02817 12.7852C8.01433 12.7437 8.00049 12.7022 8.00049 12.6745C8.00049 12.5638 8.08354 12.5084 8.19428 12.4807L10.1737 11.9685C10.2014 11.9547 10.2291 11.9547 10.2568 11.9547C10.3536 11.9547 10.4229 12.0101 10.4782 12.107C10.7828 12.7991 11.3641 13.1728 12.1531 13.1728C13.0805 13.1728 13.6481 12.6606 13.6481 11.8578C13.6481 11.0273 13.0529 10.4874 12.1116 10.4874C11.4887 10.4874 11.0042 10.6674 10.1875 11.1795C10.1322 11.2072 10.0768 11.2211 10.0214 11.2211C9.96607 11.2211 9.9107 11.2072 9.85533 11.1795L8.63723 10.5566C8.52649 10.5013 8.47112 10.4044 8.48496 10.266L8.96944 4.54916C8.99712 4.36921 9.08017 4.31384 9.2186 4.31384H15.6829C15.8213 4.31384 15.9182 4.41074 15.9182 4.563V6.69469C15.9182 6.84695 15.8213 6.94385 15.6829 6.94385H11.1427L10.9212 8.93711C11.5302 8.50801 12.1808 8.24501 13.039 8.24501C15.1015 8.24501 16.5549 9.69843 16.5549 11.8716C16.5549 14.1833 14.8108 15.8028 12.3192 15.8028Z" fill="white"/>
<path d="M336.969 14.2246C336.969 13.3389 336.276 12.7296 335.404 12.7295C334.518 12.7295 333.826 13.3388 333.826 14.2246C333.826 15.0681 334.434 15.6563 335.24 15.7266L335.404 15.7334C336.222 15.7333 336.881 15.1981 336.96 14.3896L336.969 14.2246ZM336.539 1.98633V4.31348H334.27V1.98633H336.539ZM339.296 14.2246C339.296 16.5463 337.421 18.0605 335.404 18.0605C333.451 18.0605 331.617 16.652 331.504 14.4414L331.499 14.2246L331.504 14.0088C331.536 13.3752 331.711 12.8084 331.99 12.3223C331.92 12.0966 331.88 11.8546 331.875 11.5986L331.873 11.5996L331.693 4.62305C331.693 4.60319 331.692 4.58334 331.692 4.56348C331.692 3.22655 332.747 1.98633 334.27 1.98633V4.31348L334.215 4.31934C334.094 4.34238 334.02 4.44231 334.02 4.56348L334.2 11.5391C334.2 11.6913 334.311 11.7891 334.449 11.7891H336.346C336.498 11.7889 336.595 11.6912 336.595 11.5391L336.774 4.56348C336.774 4.42505 336.691 4.31348 336.539 4.31348V1.98633C337.221 1.98633 337.937 2.25664 338.457 2.84473C338.944 3.39559 339.102 4.04359 339.102 4.56348C339.102 4.58333 339.102 4.6032 339.102 4.62305L338.921 11.5996L338.919 11.5986C338.914 11.8274 338.877 12.0718 338.801 12.3184C339.113 12.8609 339.296 13.503 339.296 14.2246Z" fill="#262626"/>
<path d="M321.41 3.55276C321.258 3.53892 321.147 3.62218 321.119 3.77444L320.718 5.58694C320.676 5.76689 320.76 5.86412 320.94 5.87796C322.877 5.96101 325.106 6.14159 327.279 6.70901C327.458 6.75054 327.555 6.69462 327.597 6.51468L327.985 4.66018C328.021 4.51463 327.962 4.41107 327.835 4.36917L327.778 4.3555C326.324 4.06479 324.582 3.85171 322.967 3.69339L321.41 3.55276ZM324.708 9.3096C325.538 9.37273 326.406 9.68832 326.406 10.6817L326.402 10.8116C326.346 11.4686 325.873 12.1741 325.133 12.5635C323.846 13.2416 322.241 13.3664 320.621 13.4356C320.428 13.4494 320.344 13.5742 320.427 13.7539L321.299 15.7061C321.368 15.8444 321.465 15.8996 321.617 15.8858C323.583 15.775 325.258 15.3736 326.379 14.7783C328.04 13.8959 328.996 12.3322 329.109 10.8399L329.12 10.543C329.12 8.70199 327.805 7.02661 324.884 6.92972L324.496 6.91604C323.071 6.9161 321.188 7.19283 319.084 7.71878C318.904 7.76032 318.849 7.87122 318.891 8.03714L319.416 10.003C319.458 10.1691 319.583 10.238 319.749 10.1826C321.659 9.55985 323.224 9.2969 324.359 9.2969L324.708 9.3096ZM331.443 10.7764C331.356 13.1149 329.967 15.405 327.7 16.7071L327.471 16.834C325.946 17.6433 323.904 18.0885 321.748 18.21L321.747 18.209C321.353 18.2333 320.819 18.1835 320.28 17.878C319.78 17.5946 319.473 17.2036 319.289 16.8809L319.218 16.7471C319.203 16.7169 319.188 16.6861 319.174 16.6553L318.302 14.7041L318.303 14.7032C318.074 14.192 317.858 13.241 318.447 12.2989C318.457 12.2816 318.469 12.2649 318.48 12.2481C318.461 12.2383 318.44 12.2292 318.421 12.2188C317.667 11.807 317.31 11.1331 317.169 10.6035L317.168 10.6045L316.643 8.6387L316.633 8.60159C316.535 8.20737 316.439 7.44368 316.892 6.66311C317.304 5.95338 317.931 5.63465 318.386 5.4971C318.396 5.34045 318.421 5.20065 318.447 5.08401H318.446L318.847 3.27054H318.848C318.962 2.74421 319.253 2.1702 319.811 1.7471C320.393 1.30573 321.054 1.18801 321.604 1.2344L321.605 1.23343C321.606 1.23354 321.607 1.23429 321.609 1.2344C321.612 1.23474 321.616 1.23405 321.62 1.2344L321.619 1.23538C323.604 1.40214 326.161 1.6587 328.234 2.07327L328.233 2.07425C328.724 2.17047 329.392 2.4443 329.865 3.12112C330.355 3.82085 330.379 4.58055 330.261 5.13479L330.263 5.13577L329.946 6.64651C330.979 7.75815 331.447 9.16082 331.447 10.543L331.443 10.7764Z" fill="#262626"/>
<path d="M314.555 7.76073C314.555 7.58092 314.458 7.49816 314.292 7.49804H312.465L312.45 6.61132H313.102C313.267 6.61118 313.364 6.51461 313.364 6.34863V5.71191L313.71 5.60155C313.876 5.54621 313.931 5.43535 313.876 5.2832C313.668 4.67416 313.378 4.10606 312.949 3.58007C312.852 3.46933 312.741 3.44186 312.589 3.48339L311.966 3.66308C311.855 3.69081 311.786 3.7606 311.786 3.85741C311.786 3.89898 311.814 3.96821 311.855 4.02343L312.063 4.32812H306.928C306.762 4.32812 306.665 4.42471 306.665 4.59081V6.3623C306.665 6.5284 306.762 6.62597 306.928 6.62597L310.098 6.61132L310.125 7.48339L306.762 7.49804C306.596 7.49804 306.498 7.58079 306.498 7.76073V9.44921C306.498 9.61532 306.596 9.71191 306.762 9.71191H310.167L310.181 10.4873C309.973 10.4596 309.765 10.4463 309.558 10.4463C307.98 10.4463 306.374 11.318 306.374 13.0898C306.374 14.7509 307.841 15.6641 309.378 15.6641C310.665 15.664 311.842 15.1524 312.299 13.8652C312.659 14.1558 313.005 14.4877 313.351 14.8613C313.406 14.9305 313.461 14.958 313.53 14.958C313.586 14.958 313.655 14.9169 313.71 14.834L314.873 13.1592C314.894 13.1316 314.907 13.1038 314.916 13.0762L314.929 12.9932C314.929 12.6195 312.852 11.443 312.492 11.249L312.465 9.69823H314.292C314.437 9.69811 314.529 9.62401 314.55 9.49413L314.555 9.43554V7.76073ZM309.392 12.3838C309.641 12.3838 309.932 12.4389 310.236 12.5635L310.217 12.7978C310.216 12.8025 310.215 12.8069 310.214 12.8115C310.187 12.8119 310.16 12.814 310.133 12.8135L309.958 13.2412C309.977 13.2331 309.993 13.2277 310.006 13.2207C310.039 13.2018 310.051 13.1877 310.057 13.1816C310.061 13.1763 310.081 13.1522 310.104 13.0869L310.108 13.0762C310.138 12.9948 310.171 12.9156 310.209 12.8389C310.122 13.3518 309.815 13.7538 309.226 13.7539C309.004 13.7539 308.782 13.6711 308.603 13.4912C308.506 13.3805 308.437 13.2422 308.437 13.0762C308.437 12.5778 308.976 12.3838 309.392 12.3838ZM314.14 3.02636L313.558 3.19237C313.447 3.22011 313.378 3.2899 313.378 3.38671C313.378 3.42827 313.406 3.49747 313.447 3.55273C313.793 4.02332 314.07 4.54937 314.277 5.14452C314.333 5.29679 314.458 5.36591 314.61 5.31054L315.261 5.10253C315.427 5.04713 315.482 4.93652 315.427 4.7705C315.205 4.17532 314.845 3.53828 314.485 3.12304C314.389 2.99882 314.278 2.98498 314.14 3.02636ZM315.529 3.26855C315.587 3.37577 315.642 3.48369 315.694 3.59179C315.701 3.52387 315.705 3.45551 315.705 3.38671C315.705 3.3832 315.704 3.37945 315.704 3.37597C315.649 3.33826 315.591 3.30266 315.529 3.26855ZM302.982 10.9853C302.982 12.5633 303.066 14.031 303.26 15.166C303.287 15.332 303.398 15.4151 303.55 15.4014L305.571 15.2627C305.751 15.2488 305.82 15.1385 305.793 14.9726C305.585 13.9068 305.488 12.4527 305.488 10.9023C305.488 8.7156 305.682 6.32128 306.014 4.48046C306.041 4.31436 305.958 4.20329 305.778 4.18945L303.688 4.09277C303.522 4.07894 303.44 4.16203 303.412 4.32812C303.149 6.33503 302.982 8.77085 302.982 10.9853ZM316.874 9.64355C316.841 10.0689 316.698 10.5736 316.345 11.0303C316.434 11.1159 316.529 11.2129 316.619 11.3203C316.713 11.4321 316.847 11.6061 316.967 11.834C317.063 12.0181 317.212 12.354 317.248 12.7969L317.256 12.9932L317.249 13.1816C317.218 13.6046 317.08 14.0606 316.783 14.4844L316.785 14.4863L315.622 16.1611L315.62 16.1601C315.324 16.5873 314.64 17.2861 313.53 17.2861C313.235 17.2861 312.909 17.2332 312.581 17.1006C311.581 17.748 310.406 17.9921 309.378 17.9922C308.471 17.9922 307.52 17.7902 306.664 17.3447C306.334 17.4968 306.009 17.564 305.75 17.584C305.744 17.5845 305.737 17.5845 305.73 17.585L303.709 17.7236L303.708 17.7217C303.164 17.7601 302.497 17.6383 301.912 17.1748C301.317 16.7029 301.053 16.0736 300.965 15.5566V15.5576C300.739 14.2369 300.655 12.6214 300.655 10.9853C300.655 8.66895 300.828 6.13197 301.104 4.02538L301.116 3.9453C301.174 3.59871 301.349 2.93635 301.956 2.39941C302.58 1.84788 303.295 1.74446 303.795 1.76952L303.796 1.76757L305.887 1.86425C305.91 1.86534 305.934 1.86733 305.957 1.86913C306.16 1.88477 306.4 1.92834 306.65 2.01659C306.747 2.00652 306.84 1.99999 306.928 1.99999H310.287C310.62 1.70697 311 1.52182 311.32 1.4287V1.42773L311.943 1.24706L311.977 1.23827C312.105 1.20338 312.258 1.17142 312.431 1.15331C312.6 1.06531 312.766 1.00001 312.919 0.956047V0.95507L313.471 0.797844V0.796867C313.476 0.795349 313.481 0.794497 313.486 0.792961L313.5 0.789055V0.790031C313.782 0.708542 314.282 0.607125 314.876 0.750969C315.49 0.899862 315.94 1.24507 316.243 1.60058L316.244 1.5996C316.259 1.61687 316.272 1.63575 316.287 1.65331C316.299 1.66741 316.311 1.68023 316.322 1.69433L316.321 1.6953C316.792 2.26314 317.202 2.97487 317.487 3.65429L317.608 3.95898C317.618 3.984 317.626 4.00982 317.635 4.03515C317.776 4.45864 317.91 5.21763 317.509 6.01952C317.305 6.42695 317.026 6.71628 316.747 6.92187C316.848 7.23276 316.882 7.5267 316.882 7.76073V9.43554L316.874 9.64355Z" fill="#262626"/>
<path d="M286.39 12.9727C286.405 13.0661 286.465 13.1265 286.559 13.1416L286.607 13.1455H291.964V13.3389C291.964 13.7541 291.756 13.9756 290.455 13.9756L289.556 13.9482C289.417 13.9483 289.334 14.0037 289.334 14.1006C289.334 14.1282 289.334 14.1697 289.348 14.1973L290.068 16.0518C290.124 16.1625 290.193 16.2186 290.331 16.2324L291.189 16.2461C293.797 16.246 294.447 15.528 294.519 13.9102L294.525 13.5742V13.1455H299.148L299.197 13.1416C299.291 13.1264 299.351 13.0661 299.366 12.9727L299.37 12.9238V11.1797C299.37 11.0413 299.287 10.958 299.148 10.958H295.272C296.048 10.5843 296.809 10.128 297.308 9.72656C297.391 9.64351 297.432 9.5738 297.432 9.44922V8.90918H298.83C298.968 8.90913 299.052 8.82657 299.052 8.68848V5.44922C299.052 5.31084 298.968 5.22758 298.83 5.22754H297.598C297.874 4.85381 298.18 4.42485 298.415 4.02344C298.443 3.98191 298.442 3.93996 298.442 3.89844C298.442 3.82931 298.387 3.77375 298.29 3.74609L296.145 3.23438C296.006 3.2067 295.91 3.26215 295.868 3.38672C295.647 3.94039 295.3 4.63236 294.898 5.22754H294.373C294.262 4.90917 293.57 3.17871 293.21 3.17871C293.182 3.17874 293.155 3.19238 293.127 3.19238L291.134 3.69141C291.037 3.71903 290.982 3.7738 290.981 3.84277C290.981 3.8843 290.996 3.92609 291.037 3.98145C291.328 4.36903 291.604 4.82612 291.784 5.22754H290.788C290.553 4.56321 290.137 3.89868 289.764 3.40039C289.708 3.33118 289.652 3.30371 289.569 3.30371C289.542 3.30371 289.514 3.30358 289.473 3.31738L287.493 3.88477C287.382 3.91246 287.341 3.96792 287.341 4.03711C287.341 4.07863 287.355 4.13412 287.396 4.18945C287.673 4.53542 287.908 4.8954 288.074 5.22754H286.953C286.815 5.22766 286.732 5.3109 286.732 5.44922V8.70215C286.733 8.84028 286.815 8.92273 286.953 8.92285H288.448V9.62891C288.448 9.76733 288.532 9.85059 288.67 9.85059H293.708C293.417 10.0444 292.726 10.3351 292.158 10.4873C292.034 10.515 291.964 10.5981 291.964 10.7227V10.958H286.607C286.469 10.958 286.386 11.0413 286.386 11.1797V12.9238L286.39 12.9727ZM296.615 7.29004V7.91309H289.182V7.29004H296.615ZM292.627 0.921875C292.617 0.924197 292.608 0.926787 292.604 0.927734C292.607 0.927162 292.618 0.92431 292.632 0.920898C292.63 0.921295 292.628 0.921522 292.627 0.921875ZM292.885 0.878906L292.882 0.879883C292.884 0.87964 292.886 0.879142 292.889 0.878906C292.887 0.879045 292.886 0.878766 292.885 0.878906ZM301.697 12.9238L301.688 13.1318C301.648 13.633 301.456 14.2332 300.957 14.7324C300.386 15.303 299.684 15.4726 299.148 15.4727H296.614C296.421 16.1212 296.075 16.7812 295.454 17.3379C294.272 18.3979 292.642 18.5732 291.189 18.5732H291.151L290.293 18.5586L290.1 18.5479C289.762 18.5141 289.287 18.406 288.823 18.0771C288.479 17.8331 288.253 17.5476 288.107 17.3105L287.986 17.0928L287.898 16.8936L287.347 15.4727H286.607C286.072 15.4727 285.369 15.3029 284.799 14.7324C284.228 14.1619 284.059 13.4597 284.059 12.9238V11.1797L284.067 10.9717C284.101 10.5538 284.24 10.0676 284.575 9.62793C284.452 9.30219 284.404 8.98008 284.404 8.70215V5.44922L284.413 5.24121C284.45 4.78028 284.615 4.23564 285.03 3.7627C285.083 3.29315 285.273 2.78677 285.674 2.35742C286.074 1.92919 286.534 1.73985 286.852 1.65039V1.64746L288.831 1.08008V1.08105C289.193 0.975661 289.481 0.975583 289.569 0.975586C289.88 0.975586 290.29 1.03018 290.718 1.24414C290.784 1.27713 290.845 1.31353 290.904 1.34961L292.562 0.93457L292.702 0.904297C292.711 0.902744 292.719 0.902828 292.728 0.901367C292.738 0.899255 292.749 0.895728 292.761 0.893555C292.809 0.884443 292.872 0.874302 292.946 0.866211C293.021 0.858065 293.11 0.851567 293.21 0.851562C293.878 0.851562 294.375 1.11948 294.666 1.32617C294.722 1.28918 294.779 1.25246 294.84 1.21875C295.489 0.858141 296.142 0.860455 296.601 0.952148C296.629 0.957745 296.657 0.964081 296.685 0.970703L298.83 1.48242C298.863 1.49034 298.897 1.49942 298.93 1.50879C299.446 1.65645 300.702 2.26915 300.766 3.7793C301.234 4.32212 301.379 4.95581 301.379 5.44922V8.68848L301.37 8.89648C301.351 9.13201 301.296 9.38808 301.193 9.64648C301.575 10.1568 301.697 10.7271 301.697 11.1797V12.9238Z" fill="#262626"/>
<path d="M281.236 5.32422C281.236 5.26888 281.209 5.19985 281.14 5.14453L279.396 3.63574C279.326 3.58046 279.271 3.55282 279.202 3.55273C279.147 3.55273 279.077 3.58037 279.021 3.63574L278.637 3.97656C276.672 5.67189 274.16 7.21304 273.277 7.92676C272.654 8.4389 272.336 9.03452 272.336 9.64355C272.336 10.2663 272.669 10.8892 273.347 11.415C274.842 12.5777 277.374 13.9343 279.34 15.8721C279.392 15.924 279.436 15.9529 279.484 15.9639L279.534 15.9688C279.59 15.9687 279.659 15.9411 279.714 15.8857L281.527 14.2803C281.597 14.2249 281.638 14.1551 281.638 14.0859C281.638 14.0446 281.615 13.9954 281.574 13.9502L281.527 13.9062C279.451 12.2314 276.627 10.6677 275.506 9.97559C275.367 9.89253 275.284 9.76733 275.284 9.62891C275.284 9.50443 275.367 9.35198 275.533 9.22754C276.433 8.54929 279.188 6.91659 281.126 5.51855C281.209 5.46319 281.236 5.39343 281.236 5.32422ZM283.564 5.32422C283.564 6.12088 283.191 6.90117 282.486 7.4043L282.487 7.40527C282.478 7.41224 282.468 7.41881 282.458 7.42578C282.444 7.43531 282.43 7.44478 282.416 7.4541C281.435 8.15801 280.287 8.90312 279.294 9.53906C280.478 10.2738 281.838 11.1686 282.98 12.0889C283.284 12.3313 283.884 12.9331 283.958 13.8906L283.966 14.0859L283.959 14.2734C283.898 15.1178 283.433 15.7003 283.068 16.0205L283.07 16.0225L281.257 17.6279L281.255 17.626C280.829 18.0078 280.232 18.2959 279.534 18.2959C278.64 18.2959 278.032 17.8505 277.706 17.5283V17.5293C276.874 16.7092 275.887 15.9786 274.855 15.2754C273.911 14.6318 272.742 13.8918 271.92 13.2529V13.2539C270.901 12.4638 270.113 11.3201 270.019 9.92578L270.009 9.64355L270.018 9.36719C270.108 8.00383 270.863 6.89873 271.799 6.12891C271.804 6.125 271.809 6.12105 271.813 6.11719C272.365 5.67092 273.463 4.94247 274.413 4.27539C275.464 3.53822 276.565 2.72522 277.455 1.91504L277.456 1.91699C277.883 1.52414 278.491 1.22559 279.202 1.22559C279.931 1.22568 280.454 1.52593 280.741 1.73535L280.85 1.81836L280.918 1.875L282.662 3.38379L282.659 3.38574C283.2 3.84954 283.564 4.54123 283.564 5.32422Z" fill="#262626"/>
<path d="M257.501 1.58496C257.521 1.58496 257.54 1.58545 257.56 1.58594L259.747 1.6416L259.746 1.64355C260.231 1.65434 261.012 1.80257 261.625 2.49219C262.232 3.1748 262.288 3.95532 262.259 4.39355L262.26 4.39453C262.11 6.71618 261.961 9.04905 261.964 10.7559C262.066 10.5677 262.211 10.1841 262.369 9.3291C262.371 9.31868 262.373 9.30824 262.375 9.29785C262.442 8.96562 262.607 8.45273 263.041 7.99512C263.53 7.48101 264.189 7.21875 264.852 7.21875C265.346 7.2188 265.84 7.3658 266.27 7.64941H266.271L268.126 8.85352C268.134 8.85863 268.142 8.86393 268.15 8.86914C268.574 9.15216 268.975 9.59462 269.185 10.2051C269.389 10.7996 269.342 11.357 269.228 11.7773C268.869 13.1127 268.418 14.2032 267.552 15.3955L267.553 15.3965C266.13 17.3618 263.539 18.3105 261.294 18.3105C259.845 18.3105 258.245 17.927 256.942 16.876C255.579 15.7771 254.78 14.1381 254.692 12.1406V12.1387C254.603 10.1116 254.82 6.51411 254.899 4.09961H254.9C254.914 3.60288 255.072 2.86308 255.714 2.26855C256.356 1.67447 257.097 1.58499 257.501 1.58496ZM257.501 3.91211C257.321 3.91216 257.225 3.99589 257.225 4.17578C257.142 6.73654 256.934 10.128 257.017 12.0381C257.134 14.672 258.917 15.8346 260.896 15.9697L261.294 15.9824C263.01 15.9824 264.796 15.2354 265.668 14.0312C266.333 13.1177 266.679 12.301 266.984 11.166C267.025 11.0138 266.983 10.8887 266.859 10.8057L265.004 9.60156C264.949 9.56012 264.893 9.54595 264.852 9.5459C264.755 9.5459 264.685 9.61548 264.657 9.75391C264.408 11.0963 264.118 11.8853 263.578 12.4805C263.066 13.048 262.235 13.4082 261.487 13.4082L261.311 13.4014C260.431 13.3356 259.686 12.767 259.647 11.4561C259.591 9.58748 259.772 6.81946 259.938 4.24512C259.95 4.08762 259.888 3.99363 259.751 3.97266L259.689 3.96777L257.501 3.91211Z" fill="#262626"/>
<path d="M252.407 5.04785C252.407 4.99256 252.379 4.93713 252.324 4.88184L250.926 3.59375C250.871 3.55251 250.829 3.52458 250.788 3.52442C250.733 3.52442 250.677 3.56674 250.622 3.62207C250.235 4.0927 249.598 4.66027 248.975 5.04785V4.31348C248.975 4.1753 248.891 4.09278 248.753 4.09278H247.119C247.23 3.95443 247.327 3.77428 247.41 3.62207C247.493 3.46981 247.438 3.37224 247.258 3.3584L245.016 3.20606C244.877 3.19222 244.808 3.24771 244.738 3.3584C244.641 3.56602 244.476 3.81548 244.31 4.05078V4.07813C244.296 4.07815 244.296 4.09278 244.296 4.09278H243.147C243.008 4.09293 242.926 4.17542 242.926 4.31348V4.79883C242.414 4.31436 241.762 3.88524 241.153 3.6084C241.029 3.55306 240.946 3.56604 240.849 3.67676L239.59 5.13086C239.549 5.18604 239.521 5.22717 239.521 5.26856C239.521 5.33772 239.575 5.39403 239.658 5.43555C240.378 5.79541 241.181 6.37652 241.721 6.97168C241.043 7.44221 240.281 7.82982 239.562 8.09278C239.423 8.14816 239.382 8.24543 239.438 8.38379L240.24 10.2109C240.296 10.349 240.392 10.3901 240.53 10.335C241.278 10.0028 242.234 9.44971 242.926 8.85449V9.87793C242.926 10.0162 243.008 10.0995 243.147 10.0996H244.655V10.5703H240.019C239.88 10.5703 239.797 10.6536 239.797 10.792V12.4395C239.797 12.5606 239.861 12.6396 239.97 12.6572L240.019 12.6611L243.272 12.6055C242.233 13.0899 240.946 13.5046 239.575 13.7676C239.423 13.7953 239.368 13.8928 239.438 14.0449L240.295 15.9414C240.35 16.066 240.448 16.1216 240.572 16.0801C242.178 15.5818 243.673 14.8614 244.725 14.0586L244.67 16.0244C244.67 16.1627 244.753 16.246 244.891 16.2461H246.995C247.133 16.246 247.217 16.1627 247.217 16.0244L247.161 13.9893C248.352 14.8336 249.86 15.5673 251.3 16.0518C251.424 16.0933 251.522 16.0522 251.577 15.9277L252.463 14.0313C252.532 13.8928 252.477 13.7816 252.324 13.7539C250.982 13.4494 249.805 13.0899 248.753 12.6055L251.896 12.6611C252.034 12.661 252.116 12.5776 252.116 12.4395V10.792C252.116 10.6537 252.034 10.5705 251.896 10.5703H247.217V10.0996H248.753C248.891 10.0996 248.975 10.0164 248.975 9.87793V8.78516C249.598 9.36644 250.373 9.89258 251.065 10.2939C251.189 10.3631 251.3 10.3353 251.369 10.2246L252.407 8.48047C252.435 8.4251 252.449 8.38333 252.449 8.3418C252.449 8.27265 252.407 8.21712 252.324 8.18946C251.66 7.84341 250.953 7.44213 250.372 6.98535C251.064 6.51475 251.895 5.76707 252.365 5.17188C252.379 5.15102 252.39 5.13023 252.397 5.10938L252.407 5.04785ZM246.704 7.78809V8.4668H245.195V7.78809H246.704ZM242.926 8.21778L242.233 6.83301L242.926 5.98926V8.21778ZM249.708 6.86035L248.975 7.98242V6.0166L249.708 6.86035ZM246.704 5.83692V6.52832H245.195V5.83692H246.704ZM254.734 5.04785C254.734 5.63454 254.532 6.11741 254.302 6.46289C254.267 6.51509 254.23 6.56602 254.191 6.61524C254.174 6.63778 254.153 6.65896 254.135 6.68164C254.168 6.71866 254.203 6.75561 254.235 6.7959C254.609 7.26329 254.776 7.81685 254.776 8.3418C254.776 8.92706 254.57 9.35978 254.489 9.52149C254.464 9.5723 254.436 9.62209 254.407 9.6709L254.28 9.88281C254.399 10.2028 254.444 10.5189 254.444 10.792V12.4395L254.438 12.5977C254.48 12.665 254.521 12.7356 254.559 12.8105C254.996 13.6854 254.802 14.5187 254.569 15.0147L254.571 15.0156L253.686 16.9121L253.684 16.9111C253.487 17.3354 253.101 17.8714 252.409 18.1787C251.694 18.4963 251.015 18.4102 250.564 18.2598L250.558 18.2578C250.035 18.0819 249.503 17.8736 248.974 17.6426C248.921 17.7069 248.865 17.7713 248.804 17.833C248.233 18.4036 247.531 18.5732 246.995 18.5732H244.891C244.355 18.5732 243.653 18.4032 243.083 17.833C243.036 17.7856 242.991 17.7365 242.949 17.6875C242.413 17.9108 241.862 18.1135 241.308 18.2871C241.302 18.2891 241.296 18.2911 241.29 18.293C241.281 18.2959 241.271 18.2998 241.262 18.3027L241.261 18.3008C240.711 18.4722 240.012 18.4888 239.337 18.1387C238.695 17.806 238.349 17.2851 238.175 16.8994V16.9004L237.316 15.0049V15.0039C237.136 14.6052 236.869 13.7295 237.357 12.7881C237.395 12.7165 237.434 12.6491 237.476 12.585C237.473 12.5353 237.47 12.4868 237.47 12.4395V10.792L237.479 10.584C237.494 10.3948 237.532 10.192 237.599 9.98535L237.307 9.31934L237.276 9.24805C237.116 8.84575 236.938 8.10592 237.287 7.29004C237.387 7.05828 237.511 6.86188 237.648 6.69531C237.394 6.34689 237.192 5.87902 237.192 5.26856C237.193 4.71853 237.379 4.30801 237.49 4.10156C237.594 3.90938 237.708 3.76105 237.728 3.73438L237.831 3.60645L239.09 2.15332L239.098 2.14453L239.19 2.04492C239.43 1.79504 239.858 1.4429 240.503 1.30469C241.237 1.14741 241.825 1.35976 242.099 1.48145C242.105 1.48404 242.11 1.48662 242.116 1.48926C242.319 1.5816 242.524 1.68615 242.729 1.79981C242.831 1.78318 242.932 1.77497 243.027 1.77051C243.175 1.59993 243.379 1.40484 243.653 1.24024C244.195 0.915195 244.746 0.855089 245.172 0.885744L245.173 0.884768L247.416 1.03711C247.423 1.03758 247.43 1.03756 247.437 1.03809C247.715 1.05952 248.479 1.16645 249.082 1.78906C249.111 1.79271 249.14 1.79512 249.169 1.79981C249.251 1.73101 249.352 1.65333 249.471 1.5791C249.714 1.4272 250.172 1.19727 250.788 1.19727C251.338 1.19735 251.749 1.38395 251.955 1.49512C252.148 1.59871 252.296 1.7126 252.322 1.73242C252.385 1.7793 252.446 1.82891 252.503 1.88184L253.9 3.16895C253.924 3.19052 253.947 3.21283 253.97 3.23535C254.279 3.54442 254.734 4.15753 254.734 5.04785Z" fill="#262626"/>
<path d="M235.7 4.86719C235.7 4.70133 235.603 4.61816 235.437 4.61816C232.378 4.68737 227.423 4.6875 224.502 4.6875C224.336 4.6875 224.252 4.78435 224.252 4.9502L224.294 6.95801C224.294 7.13767 224.391 7.22062 224.557 7.2207C226.176 7.19302 228.142 7.09638 229.706 7.04102C228.1 7.87158 227.021 9.61584 227.021 11.3184L227.026 11.5244C227.133 13.5825 228.855 15.5365 233.22 15.709L233.665 15.7197C233.831 15.7197 233.928 15.6505 233.956 15.4844L234.344 13.3252V13.2559C234.344 13.1313 234.26 13.0479 234.094 13.0479C231.049 13.1031 229.762 12.1347 229.762 10.9443C229.762 9.08949 232.572 7.4837 234.274 7.2207C234.648 7.15156 235.035 7.11038 235.45 7.11035C235.616 7.11035 235.7 7.01279 235.7 6.84668V4.86719ZM234.094 15.376V15.374C234.083 15.3742 234.072 15.3739 234.061 15.374C234.072 15.3742 234.083 15.376 234.094 15.376ZM233.582 8.50781C233.485 8.38346 233.375 8.36966 233.236 8.4248L232.419 8.74316C232.322 8.78461 232.267 8.85383 232.267 8.92285C232.267 8.97822 232.294 9.03431 232.336 9.10352C232.765 9.67103 233.139 10.3908 233.388 11.0967C233.443 11.2489 233.555 11.3182 233.721 11.249L234.634 10.875C234.786 10.8196 234.841 10.6952 234.786 10.543C234.689 10.304 234.563 10.0432 234.423 9.7832C234.455 9.70753 234.486 9.62835 234.51 9.54395C234.468 9.55303 234.424 9.56384 234.378 9.57617C234.372 9.60973 234.368 9.64292 234.364 9.67578C234.12 9.23493 233.839 8.80638 233.582 8.50781ZM232.732 10.3789C232.657 10.4345 232.589 10.4895 232.526 10.542C232.636 10.5903 232.756 10.629 232.886 10.6602C232.836 10.5651 232.785 10.4701 232.732 10.3789ZM235.45 7.80176C235.353 7.69146 235.229 7.67723 235.091 7.73242L234.315 8.05078C234.205 8.09231 234.149 8.16206 234.149 8.24512C234.149 8.30046 234.177 8.35579 234.219 8.41113C234.606 8.90944 235.05 9.69824 235.299 10.335C235.354 10.4872 235.465 10.5565 235.631 10.4873L236.503 10.1416C236.655 10.0863 236.71 9.96157 236.655 9.80957C236.42 9.17283 235.893 8.30007 235.45 7.80176ZM238.027 6.84668L238.021 7.02441C238.015 7.11815 238 7.21914 237.981 7.32617C238.331 7.87553 238.643 8.47363 238.838 9.00195L238.842 9.01367C239.023 9.51175 239.113 10.2324 238.775 10.9746C238.448 11.6951 237.868 12.1032 237.36 12.3027L237.361 12.3047L236.585 12.6113C236.643 12.8339 236.671 13.0523 236.671 13.2559V13.3252L236.661 13.5312C236.655 13.5999 236.646 13.6684 236.634 13.7363L236.246 15.8955L236.245 15.8945C236.163 16.3585 235.924 17.0039 235.3 17.4941C234.693 17.9711 234.042 18.0469 233.665 18.0469H233.639C230.91 18.0157 228.69 17.3964 227.1 16.1631C225.449 14.8832 224.693 13.1036 224.693 11.3184C224.693 10.7148 224.779 10.1163 224.939 9.53809C224.824 9.54064 224.709 9.54593 224.597 9.54785C224.583 9.54808 224.57 9.54785 224.557 9.54785C224.115 9.54781 223.377 9.43664 222.75 8.83398C222.127 8.23462 221.977 7.49952 221.968 7.00488L221.967 7.00586L221.926 4.99902C221.925 4.98298 221.925 4.96624 221.925 4.9502C221.925 4.50873 222.035 3.79418 222.604 3.17773C223.203 2.52978 223.963 2.36035 224.502 2.36035L229.907 2.35156C231.883 2.34297 233.871 2.32622 235.384 2.29199L235.437 2.29102C235.878 2.29102 236.592 2.40152 237.209 2.9707C237.857 3.56888 238.027 4.32839 238.027 4.86719V6.84668Z" fill="#262626"/>
<path d="M211.047 2.10353C211.713 1.65987 212.403 1.64116 212.858 1.70509L212.859 1.70313L215.28 2.03614L215.319 2.04103L215.51 2.07813C215.985 2.18697 216.633 2.46847 217.088 3.15138C217.608 3.932 217.547 4.74255 217.43 5.21095C217.425 5.22926 217.42 5.24744 217.415 5.26564C217.368 5.43819 217.315 5.61763 217.261 5.80372C217.367 5.81391 217.477 5.82978 217.589 5.85548C218.263 6.00971 218.75 6.40198 219.066 6.81056H219.068C220.494 8.63313 221.942 11.0849 222.695 13.3994L222.835 13.8604L222.844 13.8897L222.881 14.0449C222.964 14.4358 222.998 15.0126 222.727 15.6318C222.407 16.363 221.837 16.7588 221.409 16.9531C221.391 16.9613 221.373 16.9688 221.355 16.9766L219.167 17.9043C219.111 17.9282 219.053 17.9503 218.995 17.9697C218.99 17.9715 218.883 18.0075 218.761 18.0381C218.629 18.071 218.408 18.1162 218.134 18.1162C217.554 18.1161 216.914 17.9168 216.397 17.4258C216.15 17.1913 215.981 16.9364 215.863 16.6963C213.431 17.0989 211.144 17.4089 209.351 17.6289C209.321 17.6326 209.291 17.6352 209.261 17.6377C208.833 17.6734 208.176 17.6261 207.547 17.1924C206.913 16.7547 206.634 16.1495 206.518 15.7227C206.511 15.6962 206.504 15.6693 206.497 15.6426L206.013 13.5801L206.011 13.5713C205.897 13.0764 205.859 12.2356 206.43 11.457C206.886 10.8357 207.496 10.5744 207.982 10.4736C208.951 7.87748 209.613 5.47426 209.955 3.76075C210.057 3.24032 210.353 2.56646 211.047 2.10353ZM212.542 4.00978C212.376 3.9821 212.265 4.05082 212.238 4.21681C211.808 6.36229 210.936 9.43519 209.635 12.6465L208.5 12.7442L208.438 12.7529C208.302 12.7857 208.242 12.8905 208.279 13.0479L208.763 15.1104C208.804 15.2626 208.902 15.3322 209.068 15.3184C211.324 15.0415 214.356 14.6261 217.456 14.0586C217.636 14.5568 217.789 15.0689 217.927 15.5947C217.948 15.6881 217.991 15.751 218.059 15.7764L218.134 15.7891C218.155 15.7891 218.176 15.7855 218.196 15.7803L218.259 15.7617L220.446 14.834C220.598 14.7648 220.639 14.6541 220.598 14.502C220.04 12.5555 218.801 10.3289 217.496 8.58692L217.235 8.24513C217.138 8.10681 217.013 8.09323 216.875 8.14845L214.979 8.95118C214.882 8.99267 214.826 9.0616 214.826 9.14454C214.826 9.1999 214.854 9.25519 214.896 9.31056C215.519 10.1272 216.058 10.9722 216.529 11.8858C215.394 12.038 213.996 12.2179 212.529 12.3701C213.525 9.98942 214.591 6.75051 215.172 4.64649C215.214 4.48039 215.144 4.36949 214.964 4.34181L212.542 4.00978Z" fill="#262626"/>
<path d="M203.396 4.43848C203.396 4.25853 203.299 4.17578 203.133 4.17578L194.842 4.18945L194.782 4.19336C194.653 4.21446 194.579 4.30869 194.579 4.46582V6.30762C194.579 6.47343 194.676 6.57031 194.842 6.57031H203.133C203.299 6.57031 203.396 6.47343 203.396 6.30762V4.43848ZM193.601 9.78516C193.618 9.89637 193.689 9.96651 193.8 9.98438L193.858 9.98926C196.308 9.94773 199.188 9.90642 201.389 9.89258C200.959 11.858 198.537 13.2557 195.049 13.3525C194.897 13.3527 194.813 13.4226 194.813 13.5332C194.814 13.5745 194.828 13.6158 194.855 13.6709L196.019 15.7061C196.088 15.8305 196.185 15.8859 196.337 15.8721C201.5 15.4982 204.337 12.5495 204.406 7.80176C204.406 7.62205 204.31 7.53907 204.144 7.53906H193.858C193.693 7.53921 193.596 7.6222 193.596 7.80176V9.72656L193.601 9.78516ZM205.724 5.73145C205.8 5.78967 205.876 5.85439 205.95 5.92578C206.594 6.54439 206.734 7.30756 206.734 7.80176C206.734 7.81304 206.734 7.82466 206.733 7.83594C206.692 10.6763 205.808 13.2224 203.936 15.1143C202.076 16.9929 199.488 17.9774 196.505 18.1934L196.504 18.1914C196.106 18.2213 195.582 18.1778 195.051 17.8945C194.514 17.6082 194.187 17.1943 193.997 16.8594V16.8604L192.835 14.8262C192.814 14.7888 192.793 14.7504 192.773 14.7119C192.703 14.5703 192.536 14.2218 192.495 13.7451L192.486 13.5332L192.5 13.2695C192.541 12.883 192.673 12.4904 192.908 12.1396C192.605 12.0239 192.297 11.843 192.02 11.5654C191.433 10.9786 191.269 10.2595 191.269 9.72656V7.80176L191.275 7.60449C191.311 7.1189 191.489 6.46699 192.052 5.92578C192.117 5.86318 192.184 5.80632 192.251 5.75391V4.46582C192.251 3.97357 192.389 3.25102 192.972 2.64551C193.565 2.02918 194.304 1.86405 194.838 1.86328V1.8623L203.129 1.84766H203.133C203.574 1.84766 204.314 1.95876 204.94 2.56152C205.584 3.18026 205.724 3.9443 205.724 4.43848V5.73145Z" fill="#262626"/>
<path d="M187.648 0.824264C187.96 0.699589 188.484 0.552961 189.117 0.668014C189.709 0.775627 190.163 1.06808 190.481 1.38481L190.61 1.52153L190.616 1.52837C191.25 2.25882 191.93 3.38977 192.294 4.26274C192.308 4.2957 192.321 4.32977 192.333 4.36333C192.518 4.87261 192.596 5.57861 192.277 6.3018C191.979 6.978 191.461 7.37644 191.021 7.59087C190.464 10.2323 189.374 12.4536 187.736 14.2276C185.986 16.1236 183.733 17.377 181.174 18.1543C181.153 18.1607 181.132 18.1671 181.11 18.1729C180.719 18.2798 180.131 18.348 179.487 18.1065C178.874 17.8766 178.503 17.4735 178.314 17.2315C178.308 17.2236 178.302 17.2151 178.296 17.2071L176.787 15.2139L176.781 15.2061C176.648 15.0288 176.295 14.5266 176.251 13.793L176.246 13.6436L176.251 13.4942C176.29 12.8336 176.591 12.2628 177.02 11.8575L176.143 11.127V11.125C175.809 10.8471 175.194 10.1907 175.194 9.15825C175.195 7.87524 176.114 7.19846 176.369 7.02837C176.408 7.00218 176.448 6.97692 176.489 6.95317C177.707 6.24424 178.581 4.80172 178.9 3.9063C178.91 3.87838 178.922 3.8508 178.933 3.82329C179.053 3.52257 179.301 3.0438 179.816 2.66215C180.353 2.26474 180.929 2.15491 181.368 2.15239L184.011 2.13383C184.3 1.81892 184.639 1.60446 184.924 1.48247L184.935 1.47856L185.654 1.17387L185.696 1.1563C186.008 1.03151 186.548 0.879783 187.2 1.00883L187.626 0.833053C187.633 0.83007 187.641 0.827174 187.648 0.824264ZM186.921 3.40044C186.81 3.27586 186.699 3.26206 186.561 3.31743L185.841 3.62212C185.744 3.66363 185.689 3.73255 185.688 3.81547C185.688 3.85696 185.703 3.92615 185.758 3.98149C185.993 4.27211 186.229 4.60427 186.45 4.95024L185.73 4.54887C185.62 4.47974 185.523 4.45225 185.398 4.45219L181.384 4.48051L181.282 4.49321C181.192 4.51913 181.134 4.58366 181.093 4.68754C180.664 5.89181 179.515 7.88521 177.66 8.96489C177.577 9.02013 177.522 9.08921 177.521 9.15825C177.521 9.21362 177.564 9.28354 177.633 9.33891L179.211 10.6534L179.263 10.6895C179.315 10.7206 179.366 10.7363 179.418 10.7364C179.473 10.7364 179.529 10.723 179.584 10.6817C180.871 9.85118 182.214 8.24513 182.823 6.73637H186.09C185.37 10.5014 182.574 12.8685 178.781 13.4776C178.643 13.5053 178.574 13.5606 178.574 13.6436C178.574 13.6989 178.602 13.7543 178.644 13.8096L180.152 15.8028C180.225 15.8962 180.297 15.9435 180.394 15.9434L180.498 15.9278C185.011 14.5574 187.945 11.6639 188.845 6.5977C188.872 6.43172 188.831 6.32135 188.692 6.23833L188.139 5.91997C188.291 5.85076 188.347 5.73922 188.277 5.58696C187.973 4.85346 187.433 3.96788 186.921 3.40044ZM188.858 3.05473C188.762 2.944 188.651 2.93004 188.513 2.9854L187.807 3.27544C187.696 3.31696 187.641 3.38672 187.641 3.46977C187.641 3.52507 187.668 3.58049 187.71 3.63579C188.153 4.21714 188.596 5.02011 188.845 5.69829C188.9 5.82278 188.97 5.87797 189.066 5.87797C189.108 5.87793 189.149 5.86441 189.19 5.85063L189.993 5.50395C190.145 5.43474 190.201 5.31051 190.146 5.15825C189.869 4.49391 189.315 3.58071 188.858 3.05473Z" fill="#262626"/>
<path d="M162.297 14.9795C162.315 15.0966 162.385 15.16 162.496 15.1758L162.556 15.1797H172.84C172.985 15.1797 173.078 15.1162 173.099 14.9795L173.103 14.917V4.93652C173.102 4.75675 173.006 4.67383 172.84 4.67383L162.556 4.6875L162.496 4.69141C162.367 4.7098 162.292 4.79309 162.292 4.9502V14.917L162.297 14.9795ZM170.418 7.02734V12.7852H164.978V7.02734H170.418ZM167.305 10.458H168.09V9.35449H167.305V10.458ZM175.431 14.917L175.423 15.1143C175.387 15.5999 175.209 16.2526 174.646 16.7939C174.02 17.3964 173.281 17.5078 172.84 17.5078H162.556C162.114 17.5078 161.375 17.3967 160.748 16.7939C160.105 16.1752 159.965 15.4112 159.965 14.917V4.9502C159.965 4.45606 160.105 3.69275 160.748 3.07422C161.373 2.47306 162.11 2.36094 162.552 2.36035L172.837 2.34668H172.84C173.281 2.34668 174.02 2.4578 174.646 3.06055C175.29 3.6792 175.431 4.44232 175.431 4.93652V14.917Z" fill="#262626"/>
<path d="M158.485 4.99219C158.485 3.92641 157.614 3.04015 156.534 3.04004C155.441 3.04004 154.568 3.9125 154.568 4.99219V5.0332L146.706 5.04785L146.647 5.05176C146.517 5.07002 146.443 5.15296 146.443 5.31055V7.33105C146.443 7.47653 146.517 7.56914 146.647 7.58984L146.706 7.59473L154.416 7.4834C154.042 9.18595 153.032 12.1902 147.468 13.1592L147.4 13.1738C147.256 13.2186 147.202 13.3337 147.287 13.4912L148.354 15.5264C148.405 15.6299 148.481 15.6791 148.585 15.6855L148.699 15.6787C153.918 14.6267 156.576 11.3454 157.185 6.84668C157.898 6.60007 158.417 5.9401 158.479 5.15137L158.485 4.99219ZM157.347 5.07715C157.304 5.49435 156.949 5.82216 156.534 5.82227C156.105 5.82227 155.727 5.4711 155.705 5.0332L155.703 4.99219C155.703 4.54924 156.077 4.17578 156.534 4.17578C156.991 4.17589 157.351 4.5493 157.351 4.99219L157.347 5.07715ZM160.813 4.99219C160.813 6.29238 160.234 7.47727 159.298 8.27148C158.838 10.465 157.904 12.4769 156.383 14.1309C154.603 16.0659 152.164 17.3542 149.159 17.96C149.134 17.9651 149.108 17.9693 149.082 17.9736C148.758 18.0276 148.196 18.0675 147.581 17.8066C146.929 17.5301 146.522 17.047 146.292 16.6045V16.6055L145.226 14.5713L145.227 14.5703C144.962 14.0648 144.68 13.0985 145.251 12.1064C145.76 11.2223 146.596 10.948 147.068 10.8672V10.8662C148.443 10.6268 149.403 10.2598 150.08 9.87305L146.739 9.92188H146.706C146.173 9.92187 145.453 9.75791 144.866 9.1709C144.279 8.58392 144.115 7.86401 144.115 7.33105V5.31055C144.115 4.81635 144.256 4.05235 144.899 3.43359C145.524 2.83284 146.26 2.72038 146.702 2.71973L152.9 2.70801C153.661 1.5064 155.005 0.712891 156.534 0.712891C158.91 0.713 160.813 2.65177 160.813 4.99219Z" fill="#262626"/>
<path d="M131.305 2.39159C131.97 2.16304 132.567 2.25766 132.973 2.39159L132.974 2.39061C134.252 2.8057 135.936 3.70232 137.249 4.80858L137.507 5.03319C137.518 5.04335 137.529 5.05406 137.54 5.06444C137.548 5.04252 137.558 5.02111 137.565 4.99901L137.578 4.96386C137.737 4.54031 138.388 3.27343 139.951 3.27343L140.112 3.27928C140.478 3.30296 140.765 3.40245 140.944 3.47948C141.036 3.51877 141.108 3.55659 141.133 3.56932L141.145 3.57518C141.184 3.59487 141.223 3.61581 141.261 3.63768L141.374 3.70604L143.201 4.89647L143.222 4.91014L143.344 4.99608C143.64 5.21698 144.005 5.58162 144.226 6.14061C144.49 6.81186 144.426 7.46308 144.25 7.96288L144.251 7.96386C143.407 10.3688 142.082 12.5926 140.093 14.334C138.092 16.0857 135.535 17.2482 132.401 17.6924L132.4 17.6894C131.816 17.7748 131.168 17.6713 130.598 17.2969C130.03 16.9241 129.69 16.3856 129.531 15.8584L129.53 15.8594L128.88 13.7275L128.882 13.7266C128.733 13.2426 128.625 12.3854 129.18 11.5527C129.731 10.7254 130.558 10.5004 130.984 10.4394C131.002 10.437 131.019 10.4347 131.036 10.4326C131.475 10.38 131.88 10.3075 132.254 10.2207C131.487 9.5925 130.558 9.02419 129.884 8.7246V8.72362C129.284 8.45658 128.462 7.78762 128.36 6.64354L128.35 6.40428L128.356 6.2246C128.387 5.82033 128.51 5.52033 128.563 5.39843C128.636 5.23163 128.715 5.09815 128.75 5.04003C128.795 4.96573 128.844 4.89405 128.896 4.82518L130.06 3.30272L130.071 3.28612C130.252 3.05353 130.643 2.61912 131.305 2.39159ZM139.951 5.60155C139.868 5.60155 139.798 5.6705 139.757 5.78124C138.359 9.69842 136.047 12.1766 131.313 12.7441C131.12 12.7718 131.051 12.8819 131.106 13.0478L131.757 15.1797C131.798 15.3319 131.923 15.4154 132.075 15.3877C137.543 14.6125 140.574 11.4149 142.055 7.19335C142.11 7.04108 142.055 6.92972 141.931 6.84667L140.104 5.65624C140.048 5.62857 140.007 5.60157 139.951 5.60155ZM132.255 4.60448C132.103 4.54919 132.006 4.59061 131.909 4.71483L130.746 6.23827C130.705 6.30736 130.677 6.36281 130.677 6.40428C130.677 6.4872 130.732 6.55616 130.829 6.59764C131.826 7.04059 133.141 7.87173 134.138 8.77147L134.232 8.833C134.247 8.83993 134.261 8.84514 134.275 8.84862L134.317 8.85448C134.387 8.85447 134.455 8.82603 134.511 8.75682L135.979 7.12401C136.02 7.08239 136.046 7.04064 136.057 6.99901L136.062 6.958C136.062 6.88882 136.02 6.83283 135.951 6.76366C134.858 5.78087 133.321 4.95053 132.255 4.60448Z" fill="#262626"/>
<path d="M120.542 15.4922C120.56 15.6092 120.631 15.6728 120.742 15.6885L120.801 15.6924H123.085L123.147 15.6885C123.284 15.6703 123.348 15.5864 123.348 15.4287L123.307 8.42484C124.359 7.48366 125.341 6.41786 126.199 5.22758C126.23 5.18594 126.254 5.14421 126.264 5.10258L126.269 5.06156C126.269 4.97851 126.213 4.90875 126.116 4.86722L124.081 3.85746C123.929 3.78841 123.819 3.8158 123.722 3.95414C121.978 6.55635 118.545 9.1307 115.043 9.93363L114.96 9.96195C114.888 9.9969 114.849 10.0512 114.849 10.1133C114.849 10.1548 114.863 10.2104 114.904 10.2657L116.164 12.2735C116.247 12.4116 116.358 12.439 116.51 12.3975C117.797 11.9961 119.195 11.3456 120.552 10.4873L120.538 15.4287L120.542 15.4922ZM128.596 5.06156C128.596 5.83083 128.244 6.37082 128.086 6.58793L128.087 6.5889C128.082 6.59514 128.078 6.60123 128.073 6.60746C128.069 6.6131 128.064 6.61798 128.061 6.62308C127.321 7.64441 126.504 8.57811 125.64 9.42582L125.675 15.4151V15.4287C125.675 15.8305 125.586 16.6171 124.93 17.2735C124.273 17.9299 123.487 18.0196 123.085 18.0196H120.801C120.359 18.0195 119.621 17.9084 118.994 17.3057C118.351 16.6869 118.211 15.9229 118.211 15.4287V15.4229L118.214 14.2647C117.874 14.3952 117.537 14.5151 117.203 14.6192C117.176 14.6275 117.149 14.6353 117.122 14.6426C116.81 14.7276 116.235 14.8304 115.575 14.6104C114.885 14.3805 114.447 13.9161 114.193 13.5098L114.192 13.5108L112.933 11.503H112.932C112.699 11.14 112.563 10.7323 112.529 10.3184L112.521 10.1133L112.525 9.96C112.608 8.41823 113.918 7.8047 114.522 7.66508C117.408 7.00357 120.351 4.80214 121.788 2.65824C121.797 2.64517 121.806 2.63206 121.815 2.61918C122.051 2.2826 122.513 1.78253 123.285 1.57816C123.954 1.40116 124.528 1.53295 124.898 1.67679L125.045 1.73832L125.117 1.7725L127.143 2.77836C127.775 3.08818 128.596 3.82388 128.596 5.06156Z" fill="#262626"/>
<path d="M109.257 4.43848C109.257 4.25853 109.159 4.17578 108.993 4.17578L100.702 4.18945L100.644 4.19336C100.514 4.21422 100.44 4.30839 100.439 4.46582V6.30762C100.44 6.47342 100.536 6.5703 100.702 6.57031H108.993C109.159 6.57031 109.257 6.47343 109.257 6.30762V4.43848ZM99.4609 9.78516C99.4788 9.89632 99.5491 9.96646 99.6602 9.98438L99.7197 9.98926C102.17 9.94773 105.049 9.90642 107.25 9.89258C106.821 11.858 104.398 13.2556 100.91 13.3525L100.809 13.3652C100.721 13.3899 100.675 13.4502 100.675 13.5332C100.675 13.5745 100.688 13.6159 100.716 13.6709L101.879 15.7061C101.948 15.8305 102.045 15.8859 102.197 15.8721C107.36 15.4983 110.198 12.5496 110.268 7.80176C110.267 7.62204 110.17 7.53906 110.004 7.53906H99.7197C99.5537 7.53906 99.4562 7.62204 99.4561 7.80176V9.72656L99.4609 9.78516ZM111.584 5.73145C111.661 5.78967 111.736 5.85438 111.811 5.92578C112.454 6.54439 112.595 7.30755 112.595 7.80176C112.595 7.81304 112.594 7.82465 112.594 7.83594C112.552 10.6764 111.669 13.2224 109.796 15.1143C107.936 16.993 105.348 17.9774 102.365 18.1934L102.364 18.1924C101.967 18.2223 101.442 18.1777 100.911 17.8945C100.375 17.6082 100.049 17.1942 99.8584 16.8594V16.8604L98.6953 14.8262L98.6348 14.7119C98.564 14.5705 98.3971 14.222 98.3564 13.7451L98.3467 13.5332L98.3613 13.2695C98.4022 12.8829 98.5343 12.4904 98.7695 12.1396C98.4662 12.0239 98.1577 11.8432 97.8799 11.5654C97.2931 10.9786 97.129 10.2595 97.1289 9.72656V7.80176C97.129 7.30764 97.2691 6.54433 97.9121 5.92578C97.9772 5.86322 98.0443 5.8063 98.1113 5.75391V4.46582C98.1114 3.97357 98.2489 3.25102 98.832 2.64551C99.4257 2.02917 100.164 1.8641 100.698 1.86328V1.8623L108.989 1.84766H108.993C109.434 1.84766 110.174 1.95878 110.801 2.56152C111.444 3.18028 111.584 3.94428 111.584 4.43848V5.73145Z" fill="#262626"/>
<path d="M84.2344 2.39166C84.8996 2.16299 85.498 2.25766 85.9033 2.39166L85.9043 2.39069C87.1826 2.80577 88.8654 3.70261 90.1787 4.80865L90.4365 5.03326C90.4482 5.04373 90.4593 5.05479 90.4707 5.06549C90.4787 5.04328 90.4881 5.02147 90.4961 4.99908L90.5088 4.96393C90.6677 4.54026 91.3189 3.2735 92.8818 3.2735L93.043 3.27936C93.4081 3.30307 93.6943 3.40256 93.874 3.47955C93.9661 3.51902 94.039 3.55675 94.0635 3.5694L94.0742 3.57526C94.153 3.61465 94.2299 3.65804 94.3037 3.70612L96.1309 4.89654C96.1376 4.90092 96.1447 4.90577 96.1514 4.91022C96.4617 5.1171 96.9045 5.50177 97.1562 6.14069C97.4207 6.81188 97.3568 7.46317 97.1807 7.96295C96.3369 10.3681 95.0125 12.5925 93.0234 14.334C91.0225 16.0859 88.4654 17.2482 85.332 17.6924L85.3311 17.6895C84.7461 17.775 84.0982 17.6715 83.5273 17.2969C82.9595 16.9242 82.6205 16.3855 82.4619 15.8585L82.4609 15.8594L81.8105 13.7276L81.8115 13.7266C81.6629 13.2426 81.5553 12.3854 82.1104 11.5528C82.662 10.7256 83.4885 10.5004 83.915 10.4395L83.9668 10.4327C84.4057 10.3801 84.8101 10.3076 85.1846 10.2208C84.4179 9.59257 83.4886 9.02432 82.8145 8.72467V8.72369C82.2142 8.45675 81.392 7.78793 81.29 6.64362L81.2793 6.40436L81.2861 6.22467C81.3163 5.82037 81.4408 5.5204 81.4941 5.3985C81.5671 5.23176 81.6458 5.0982 81.6807 5.0401L81.8262 4.82526L82.9893 3.30279C82.9934 3.29732 82.9977 3.29163 83.002 3.28619C83.1829 3.05361 83.5729 2.61917 84.2344 2.39166ZM92.8818 5.60162C92.7988 5.60162 92.729 5.67057 92.6875 5.78131C91.2895 9.69851 88.978 12.1766 84.2441 12.7442C84.0505 12.7719 83.981 12.882 84.0361 13.0479L84.6865 15.1797C84.728 15.3319 84.8528 15.4153 85.0049 15.3878C90.4724 14.6126 93.5042 11.4151 94.9854 7.19342C95.0407 7.04116 94.9849 6.92979 94.8604 6.84674L93.0332 5.65631C92.9782 5.62878 92.9368 5.60177 92.8818 5.60162ZM83.6768 6.23834C83.6353 6.30751 83.6074 6.36285 83.6074 6.40436C83.6075 6.4873 83.663 6.55623 83.7598 6.59772C84.7564 7.04069 86.0708 7.87187 87.0674 8.77154L87.1631 8.83307C87.1778 8.83999 87.192 8.84524 87.2061 8.84869L87.248 8.85455C87.3171 8.85444 87.3861 8.82597 87.4414 8.7569L88.9082 7.12408C88.9498 7.0825 88.976 7.04066 88.9863 6.99908L88.9922 6.95807C88.9922 6.88886 88.9501 6.83294 88.8809 6.76373C87.9242 5.904 86.6284 5.16114 85.6055 4.7569L85.1855 4.60455C85.0334 4.54921 84.9357 4.59046 84.8389 4.7149L83.6768 6.23834Z" fill="#262626"/>
<path d="M67.8174 7.98535C67.8357 8.11532 67.9187 8.18942 68.0762 8.18945H72.3535C71.343 9.65671 69.6958 11.2211 67.5088 12.3838C67.4121 12.4391 67.3703 12.4944 67.3701 12.5771C67.3701 12.6325 67.3978 12.6886 67.4531 12.7578L68.9902 14.4189C69.0593 14.4879 69.1282 14.5292 69.1973 14.5293C69.2526 14.5293 69.3079 14.5151 69.3633 14.4736C71.8687 12.9787 73.5854 10.93 74.665 9.1582C74.665 10.3624 74.6517 11.5255 74.624 12.3145C74.5963 13.0342 74.0974 13.3389 72.8516 13.3389C72.6025 13.3389 72.3258 13.3255 72.0215 13.2979C71.8139 13.284 71.7308 13.3943 71.7861 13.5742L72.4365 15.498C72.4919 15.6503 72.5753 15.7196 72.7275 15.7334C72.8729 15.7472 73.0149 15.7577 73.1533 15.7646L73.5576 15.7754C75.8554 15.7754 77.0183 14.8475 77.1152 13.0342C77.1291 12.7436 77.1261 12.3976 77.1191 12.0586L77.1016 11.124L77.0732 8.18945H78.9697C79.1152 8.18945 79.2078 8.11536 79.2285 7.98535L79.2334 7.92676V6.03027C79.2334 5.88502 79.159 5.79236 79.0293 5.77148L78.9697 5.76758H77.0459L77.0322 3.89844C77.0322 3.75317 76.9579 3.66043 76.8281 3.63965L76.7695 3.63574V1.30859C77.3025 1.30867 78.0215 1.4727 78.6084 2.05957C79.0473 2.49851 79.2501 3.01113 79.3242 3.46484C79.7967 3.52777 80.3448 3.72577 80.8096 4.19043C81.3232 4.70404 81.5124 5.31946 81.5518 5.82227L81.5605 6.03027V7.92676L81.5518 8.13477C81.5123 8.63756 81.3232 9.25301 80.8096 9.7666C80.3768 10.1992 79.8718 10.4009 79.4229 10.4775L79.4287 11.1025C79.4288 11.1097 79.4287 11.1169 79.4287 11.124C79.4287 11.4224 79.4703 12.5175 79.4404 13.1455L79.4395 13.1582C79.3641 14.5682 78.8345 15.9556 77.5898 16.9229C76.4278 17.8258 74.9688 18.1025 73.5576 18.1025C73.2167 18.1025 72.8693 18.0841 72.5166 18.0508V18.0518C72.5147 18.0516 72.5127 18.051 72.5107 18.0508C72.5095 18.0507 72.5081 18.0509 72.5068 18.0508V18.0498C72.1145 18.0128 71.5752 17.8791 71.0752 17.4717C70.7224 17.1841 70.5054 16.8539 70.3701 16.5771C69.976 16.7765 69.5684 16.8564 69.1973 16.8564C68.3162 16.8564 67.7184 16.4102 67.4424 16.1582L67.3438 16.0645L67.2812 15.999L65.7451 14.3379L65.6357 14.2119C65.5001 14.0424 65.0976 13.5198 65.0479 12.7373L65.043 12.5771L65.0498 12.3975C65.08 11.9728 65.2189 11.5196 65.5166 11.1074C65.8134 10.6966 66.1666 10.4706 66.3545 10.3633L66.416 10.3291C66.5229 10.2723 66.6279 10.2132 66.7314 10.1543C66.5493 10.0463 66.3682 9.90917 66.1992 9.7334C65.5968 9.10663 65.4863 8.36798 65.4863 7.92676V6.03027C65.4863 5.58906 65.5968 4.85042 66.1992 4.22363C66.8179 3.58018 67.582 3.43948 68.0762 3.43945V5.76758L68.0137 5.77148C67.877 5.79219 67.8135 5.88481 67.8135 6.03027V7.92676L67.8174 7.98535ZM74.748 3.63574L74.6855 3.63965C74.5489 3.66035 74.4854 3.75306 74.4854 3.89844V5.76758H68.0762V3.43945H72.1992C72.269 3.03017 72.447 2.533 72.8711 2.0918C73.4898 1.44836 74.2538 1.30862 74.748 1.30859V3.63574ZM76.7695 1.30859V3.63574H74.748V1.30859H76.7695Z" fill="#262626"/>
<path d="M59.0791 6.72266C60.4354 7.19332 61.2245 8.36956 61.2246 9.78125L61.2129 10.0576C61.0991 11.4388 60.1083 12.8213 57.4873 12.9512C57.2797 12.965 57.1964 13.0759 57.2656 13.2559L58.0127 15.208C58.0681 15.3601 58.1653 15.4288 58.3174 15.415C61.5288 15.2212 63.7852 12.8821 63.7852 10.0029C63.7851 6.73112 61.2782 4.47206 58.0762 4.33398L57.7637 4.32812C56.3519 4.32817 54.9263 4.75724 53.8467 5.60156C52.075 6.97189 51.3409 8.77099 51.3408 10.4043C51.3408 12.2684 52.4066 14.4443 54.4492 14.5781L54.6494 14.585C55.4523 14.585 56.2415 14.2388 56.6982 13.5605C57.9717 11.7058 58.9545 8.72976 59.0791 6.72266ZM56.5596 6.68066C56.4904 8.07872 55.7428 10.4874 54.8984 11.7471C54.8016 11.8992 54.6635 11.9686 54.5391 11.9688L54.4561 11.958C54.3744 11.9379 54.2966 11.889 54.2344 11.8164C53.9315 11.453 53.777 11.0047 53.7432 10.5273L53.7363 10.3213C53.7364 8.67411 55.0093 7.13745 56.5596 6.68066ZM66.1123 10.0029C66.1123 14.2092 62.8112 17.4414 58.5273 17.7324C58.5173 17.7333 58.5072 17.7336 58.4971 17.7344C58.484 17.7352 58.4711 17.7375 58.458 17.7383L58.457 17.7363C57.9845 17.7666 57.3777 17.6832 56.8076 17.29C56.5375 17.1038 56.3341 16.8871 56.1797 16.6729C55.6734 16.8339 55.1526 16.9121 54.6494 16.9121C52.6406 16.9121 51.1568 15.8304 50.2646 14.5381C49.4074 13.2962 49.0137 11.7757 49.0137 10.4043C49.0137 8.05109 50.0808 5.5712 52.4229 3.75977C53.9686 2.55516 55.9155 2.00005 57.7637 2C62.2054 2 66.1123 5.15483 66.1123 10.0029Z" fill="#262626"/>
<path d="M41.3057 1.19727C41.448 1.19727 41.6016 1.21194 41.7617 1.24023C41.9222 1.2118 42.0762 1.19729 42.2188 1.19727H47.5488V3.52441H42.2188C42.0807 3.52459 41.9981 3.60798 41.998 3.74609V8.92285C41.998 9.06112 42.0806 9.14435 42.2188 9.14453H45.3477V13.4082C45.3477 13.6711 45.3337 13.8375 44.6143 13.8652V9.83691C44.6143 9.69855 44.5309 9.6153 44.3926 9.61523H39.0771C38.9387 9.61523 38.8555 9.69849 38.8555 9.83691V15.1387C38.8556 15.2769 38.9388 15.3604 39.0771 15.3604H44.3506L44.5586 16.0107C44.6001 16.1351 44.6832 16.1904 44.8076 16.1904C47.1306 16.2164 47.7014 15.561 47.7637 14.0303L47.7695 13.7129V3.74609C47.7694 3.62509 47.7063 3.54607 47.5977 3.52832L47.5488 3.52441V1.19727C48.0847 1.19735 48.786 1.36802 49.3564 1.93848C49.8556 2.4377 50.0485 3.037 50.0889 3.53809L50.0977 3.74609V13.7129L50.0918 14.0889C50.0594 15.0243 49.8634 16.333 48.8086 17.3203C47.671 18.3848 46.1059 18.529 44.8076 18.5166V18.5176C44.806 18.5176 44.8044 18.5166 44.8027 18.5166C44.7957 18.5165 44.7883 18.5177 44.7812 18.5176V18.5166C44.377 18.5126 43.829 18.4159 43.3066 18.0459C43.1508 17.9355 43.0177 17.8136 42.9023 17.6875H39.9297C39.8947 17.7272 39.8579 17.7661 39.8193 17.8047C39.2487 18.3753 38.5466 18.5459 38.0107 18.5459H36.0322C35.4964 18.5459 34.7942 18.3753 34.2236 17.8047C33.6532 17.2343 33.4825 16.5329 33.4824 15.9971V3.74609C33.4825 3.2103 33.6532 2.50896 34.2236 1.93848C34.7942 1.36788 35.4964 1.19727 36.0322 1.19727V3.52441L35.9824 3.52832C35.8739 3.5461 35.8106 3.62513 35.8105 3.74609V15.9971C35.8107 16.1179 35.874 16.1961 35.9824 16.2139L36.0322 16.2178H38.0107C38.149 16.2178 38.2322 16.1352 38.2324 15.9971V9.14453H41.3057C41.4441 9.14451 41.5273 9.06126 41.5273 8.92285V3.74609C41.5272 3.60784 41.444 3.52443 41.3057 3.52441H36.0322V1.19727H41.3057ZM42.5098 13.0342V13.6846H40.96V13.0342H42.5098ZM42.5098 11.2627V11.8857H40.96V11.2627H42.5098ZM39.3818 6.94434V7.6084H38.1777V6.94434H39.3818ZM45.3887 6.94434V7.6084H44.1572V6.94434H45.3887ZM39.3818 5.24121V5.86426H38.1777V5.24121H39.3818ZM45.3887 5.24121V5.86426H44.1572V5.24121H45.3887Z" fill="#262626"/>
<path d="M20.6436 15.6445C20.6614 15.753 20.7395 15.8162 20.8604 15.8164H31.1182L31.167 15.8125C31.2756 15.7947 31.3389 15.7159 31.3389 15.5947V3.88477C31.3389 3.76361 31.2757 3.68475 31.167 3.66699L31.1182 3.66309V1.33594C31.6539 1.33601 32.3554 1.50596 32.9258 2.07617C33.4251 2.57549 33.6179 3.17559 33.6582 3.67676L33.667 3.88477V15.5947L33.6582 15.8037C33.6178 16.3048 33.4249 16.9042 32.9258 17.4033C32.3553 17.9737 31.654 18.1445 31.1182 18.1445H20.8604C20.3245 18.1444 19.6232 17.9737 19.0527 17.4033C18.4821 16.8327 18.3115 16.1306 18.3115 15.5947V3.88477C18.3115 3.3489 18.4821 2.64677 19.0527 2.07617C19.6231 1.50595 20.3246 1.33603 20.8604 1.33594V3.66309C20.7222 3.66326 20.6397 3.7465 20.6396 3.88477V15.5947L20.6436 15.6445ZM28.7783 10.8057V13.3809H23.2002V10.8057H28.7783ZM28.7783 6.05762V8.41113H23.2002V6.05762H28.7783ZM31.1182 1.33594V3.66309H20.8604V1.33594H31.1182Z" fill="#262626"/>
<path d="M12.0078 13.1689C11.2929 13.1254 10.764 12.756 10.4785 12.1074C10.4231 12.0105 10.3537 11.9551 10.2568 11.9551C10.2292 11.9551 10.2015 11.9549 10.1738 11.9688L8.19434 12.4805C8.08364 12.5082 8.00098 12.5641 8.00098 12.6748C8.00107 12.7025 8.01454 12.7438 8.02832 12.7852C8.66505 14.6953 10.2292 15.8027 12.3193 15.8027C14.7332 15.8027 16.4453 14.2828 16.5498 12.0859L16.5547 11.8721C16.5547 9.69886 15.1015 8.24512 13.0391 8.24512C12.181 8.24515 11.5308 8.50849 10.9219 8.9375L11.1426 6.94434H15.6826C15.821 6.94434 15.918 6.8466 15.918 6.69434V4.56348C15.918 4.41121 15.821 4.31348 15.6826 4.31348V1.98633C16.3126 1.98633 17.0028 2.2192 17.5312 2.76953C17.9886 3.24592 18.1925 3.82079 18.2363 4.34277L18.2461 4.56348V6.69434L18.2363 6.91504C18.2002 7.34463 18.053 7.80778 17.748 8.22461C18.5038 9.26036 18.8828 10.5318 18.8828 11.8721L18.875 12.2012C18.7957 13.8406 18.1234 15.3257 16.9551 16.4102C15.7215 17.5551 14.0718 18.1299 12.3193 18.1299C9.36445 18.1298 6.94224 16.5261 5.91504 13.79L5.82031 13.5215C5.81837 13.5157 5.78911 13.4302 5.76367 13.3369C5.7509 13.2901 5.70704 13.1301 5.68555 12.9111L5.67285 12.6748L5.6875 12.4053C5.74142 11.9001 5.94782 11.4354 6.2666 11.0596C6.16105 10.7052 6.14137 10.3639 6.16699 10.0693L6.65039 4.35254L6.66895 4.19531C6.72389 3.83815 6.897 3.15788 7.52051 2.6123C8.16043 2.05257 8.87105 1.98634 9.21875 1.98633V4.31348C9.08046 4.31349 8.99746 4.3692 8.96973 4.54883L8.48535 10.2656C8.47151 10.404 8.52696 10.5013 8.6377 10.5566L9.85547 11.1797C9.91078 11.2073 9.96617 11.2207 10.0215 11.2207C10.0768 11.2207 10.1322 11.2073 10.1875 11.1797C11.0042 10.6675 11.4894 10.4873 12.1123 10.4873C13.0531 10.4875 13.6482 11.0273 13.6484 11.8574L13.6416 12.0049C13.5759 12.7227 13.0228 13.1729 12.1533 13.1729L12.0078 13.1689ZM15.6826 1.98633V4.31348H9.21875V1.98633H15.6826Z" fill="#262626"/>
</svg>
