<svg width="84" height="68" viewBox="0 0 84 68" fill="none" xmlns="http://www.w3.org/2000/svg">
<path d="M34.197 20.2279L31.6319 22.0875H26.5017L26.0741 20.6928L27.3567 15.5789L31.6319 10.9298L37.6172 10L43.6024 11.3947L46.1676 13.7192L47.7985 18.3683V23.9036L43.6024 22.0875L36.7621 17.9034L35.4796 18.3683L34.197 20.2279Z" fill="#52BB70"/>
<path d="M37.6545 25.8727C38.2513 25.8727 38.735 25.3927 38.735 24.8006C38.735 24.2085 38.2513 23.7285 37.6545 23.7285C37.0578 23.7285 36.574 24.2085 36.574 24.8006C36.574 25.3927 37.0578 25.8727 37.6545 25.8727Z" fill="#4D4D4D"/>
<path d="M43.1204 25.8727C43.7171 25.8727 44.2009 25.3927 44.2009 24.8006C44.2009 24.2085 43.7171 23.7285 43.1204 23.7285C42.5236 23.7285 42.0398 24.2085 42.0398 24.8006C42.0398 25.3927 42.5236 25.8727 43.1204 25.8727Z" fill="#4D4D4D"/>
<path d="M36.9373 16.2303C37.3953 16.0372 37.9229 16.2518 38.116 16.7098C38.1643 16.8242 38.2846 17.0063 38.5242 17.2499C38.7568 17.4863 39.0649 17.7436 39.4344 18.0135C40.1736 18.5534 41.0994 19.1007 42.0213 19.5956C42.9391 20.0882 43.8331 20.5177 44.4989 20.825C44.831 20.9784 45.1052 21.1008 45.2957 21.1844C45.3909 21.2262 45.4655 21.2586 45.5155 21.2801C45.5404 21.2909 45.5596 21.2992 45.5721 21.3045C45.5782 21.3071 45.5829 21.3092 45.5858 21.3104C45.587 21.3109 45.5881 21.3111 45.5887 21.3114C46.0467 21.5045 46.2623 22.0331 46.0692 22.4911C45.888 22.9204 45.4125 23.1358 44.9764 23.0018L44.8895 22.9706L44.8836 22.9676C44.8798 22.966 44.8741 22.9638 44.867 22.9608C44.8527 22.9547 44.8315 22.946 44.8045 22.9344C44.7505 22.9112 44.6718 22.8766 44.5721 22.8329C44.3727 22.7453 44.0877 22.6185 43.744 22.4598C43.0572 22.1427 42.1291 21.6964 41.1697 21.1815C40.2145 20.6687 39.2077 20.0764 38.3729 19.4667C37.9553 19.1616 37.5645 18.8413 37.241 18.5125C36.9248 18.1911 36.6311 17.8199 36.4578 17.409C36.2647 16.951 36.4793 16.4234 36.9373 16.2303Z" fill="#4D4D4D"/>
<path d="M28.8493 20.1601C30.193 20.2217 31.535 20.7508 32.1647 21.0517C32.6132 21.266 32.8028 21.8034 32.5886 22.2519C32.3742 22.7002 31.8368 22.8899 31.3884 22.6757C30.8511 22.4191 29.7625 22.0046 28.7673 21.9589C28.2755 21.9364 27.8829 22.0074 27.6012 22.1601C27.3497 22.2965 27.1176 22.5333 26.9802 23.0126C26.6468 24.1749 26.8825 24.9552 27.2546 25.4335C27.6454 25.936 28.2711 26.2167 28.903 26.2167C29.1457 26.2169 29.3782 26.3152 29.5475 26.4892C29.7169 26.6632 29.809 26.8987 29.8024 27.1415C29.795 27.4226 29.9474 27.8569 30.4167 28.4111C30.8716 28.9481 31.5461 29.5021 32.363 30.0019C34.0125 31.0112 36.0612 31.6896 37.694 31.6425C39.37 31.5941 41.0665 31.004 42.4587 30.1933C43.8764 29.3676 44.8442 28.3931 45.1872 27.6884C45.4046 27.2415 45.9434 27.055 46.3903 27.2724C46.8373 27.4899 47.0228 28.0286 46.8053 28.4755C46.2405 29.6362 44.929 30.838 43.3649 31.749C41.7749 32.6749 39.7867 33.3824 37.7458 33.4413C35.6617 33.5014 33.2695 32.6674 31.4235 31.538C30.4926 30.9684 29.6551 30.2961 29.0436 29.5742C28.6337 29.0902 28.2835 28.5344 28.113 27.9355C27.2442 27.7583 26.4179 27.2891 25.8337 26.538C25.0552 25.537 24.7837 24.1413 25.2497 22.5165C25.512 21.6022 26.0412 20.959 26.7438 20.5781C27.4164 20.2135 28.1714 20.129 28.8493 20.1601Z" fill="#4D4D4D"/>
<path d="M46.6311 24.0922C46.6311 23.7371 46.6774 23.2259 46.721 22.686C46.7664 22.1226 46.8155 21.4679 46.8343 20.7553C46.8719 19.323 46.7855 17.701 46.3274 16.1957C45.8731 14.7029 45.0626 13.3534 43.6595 12.395C42.2509 11.4328 40.1462 10.7966 36.9788 10.9252C33.8027 11.0542 31.6717 11.8116 30.2395 12.8022C28.814 13.7883 28.0168 15.0506 27.5794 16.3119C27.1379 17.5852 27.0629 18.8605 27.1048 19.8324C27.1255 20.3151 27.1749 20.7145 27.218 20.9897C27.2396 21.127 27.2588 21.2332 27.2727 21.3022C27.2797 21.3366 27.2859 21.3621 27.2893 21.3774C27.291 21.3849 27.2917 21.3904 27.2923 21.393L27.2932 21.394H27.2923C27.4088 21.8766 27.1128 22.3628 26.6302 22.4799C26.1472 22.597 25.6604 22.2998 25.5432 21.8168L26.4182 21.6049L25.5432 21.8158V21.8149C25.543 21.8139 25.5426 21.8123 25.5423 21.811C25.5416 21.8083 25.5402 21.8051 25.5393 21.8012C25.5375 21.7932 25.5354 21.7822 25.5325 21.769C25.5266 21.7425 25.5184 21.7059 25.5091 21.6596C25.4902 21.5666 25.4657 21.4345 25.4397 21.269C25.3879 20.9382 25.3301 20.4703 25.3059 19.9096C25.258 18.7944 25.3393 17.2762 25.8782 15.7221C26.4213 14.1559 27.4297 12.5568 29.2151 11.3217C30.9941 10.0911 33.4798 9.26649 36.9055 9.12737C40.3402 8.98794 42.8603 9.66899 44.6751 10.9086C46.495 12.1519 47.5066 13.8892 48.0491 15.6713C48.5877 17.4412 48.673 19.2823 48.6331 20.8022C48.613 21.5656 48.5609 22.2604 48.5149 22.8305C48.4671 23.4238 48.4319 23.831 48.4319 24.0922C48.4319 24.5893 48.0286 24.9926 47.5315 24.9926C47.0345 24.9926 46.6311 24.5893 46.6311 24.0922Z" fill="#4D4D4D"/>
<path d="M69.0454 37.1158C70.5255 37.0576 71.5143 37.4212 71.9985 38.193C72.2251 38.5543 72.2778 38.9174 72.2778 39.1754C72.2778 39.3053 72.2648 39.4163 72.2505 39.4987C72.2433 39.54 72.2359 39.5757 72.229 39.6041C72.2278 39.6092 72.2263 39.6141 72.2251 39.6188L72.2231 39.6276C72.2214 39.6351 72.2188 39.6462 72.2153 39.6608C72.2083 39.6905 72.1977 39.735 72.1841 39.7926C72.1567 39.9082 72.1163 40.0782 72.0649 40.2946C71.9622 40.7271 71.8146 41.3462 71.6362 42.0934C71.2795 43.5879 70.7987 45.5953 70.3013 47.6432C69.804 49.6904 69.2893 51.781 68.8667 53.443C68.6555 54.2736 68.4662 55.0009 68.313 55.5631C68.1661 56.1021 68.038 56.5451 67.9507 56.7653C67.637 57.5561 67.1483 58.1071 66.4585 58.2106C66.1693 58.2539 65.9234 58.1999 65.7495 58.1373C65.7476 58.1374 65.7456 58.1382 65.7437 58.1383C65.5915 58.147 65.3682 58.1602 65.0835 58.1764C64.514 58.2088 63.6988 58.2544 62.7163 58.3102C60.7515 58.4217 58.1172 58.5718 55.439 58.7233C50.0871 59.0258 44.5461 59.3373 43.8374 59.3697C42.8058 59.417 42.1353 58.9569 41.77 58.3961C41.6045 58.142 41.5163 57.8917 41.4692 57.7106C41.4453 57.6184 41.4305 57.5386 41.4214 57.4781C41.4168 57.4479 41.4139 57.4219 41.4116 57.401C41.4105 57.3907 41.4094 57.3815 41.4087 57.3737C41.4083 57.3697 41.408 57.3652 41.4077 57.3619V57.3541C41.412 57.3534 41.4719 57.3486 42.3052 57.2906L41.4077 57.3531C41.4009 57.2549 41.4099 57.1563 41.4351 57.0612V57.0602L41.436 57.0582C41.4365 57.0566 41.4372 57.0543 41.438 57.0514C41.4397 57.0449 41.4415 57.0347 41.4448 57.0221C41.4515 56.9968 41.4622 56.9596 41.4751 56.9108C41.5011 56.8127 41.5393 56.6683 41.5884 56.484C41.6866 56.1154 41.8279 55.5854 42.0015 54.941C42.3487 53.6524 42.8247 51.904 43.3374 50.0651C44.3538 46.4199 45.5422 42.3226 46.1626 40.8229C46.7544 39.3922 47.1616 38.6666 47.4858 38.3072C47.6217 38.1567 47.9483 37.8354 48.439 37.8756C48.4918 37.8799 48.5417 37.8895 48.5894 37.901L69.0454 37.1168V37.1158ZM69.1157 38.9137V38.9147L48.6909 39.6979C48.5336 39.9499 48.2547 40.4757 47.8267 41.5104C47.2584 42.884 46.102 46.85 45.0708 50.5485C44.5599 52.3809 44.0861 54.1243 43.7397 55.4098C43.5666 56.0525 43.4255 56.5806 43.3276 56.9479C43.2878 57.0973 43.2547 57.22 43.23 57.3131C43.2425 57.3472 43.2575 57.3824 43.2778 57.4137C43.3064 57.4576 43.3408 57.4905 43.3882 57.5153C43.4345 57.5394 43.5414 57.5807 43.7554 57.5709C44.4524 57.539 49.9756 57.2285 55.3364 56.9254C58.0147 56.774 60.6499 56.6249 62.6147 56.5133C63.5969 56.4575 64.4116 56.4109 64.981 56.3785C65.2655 56.3624 65.489 56.3501 65.6411 56.3414C65.7172 56.3371 65.7757 56.3339 65.8149 56.3317C65.8346 56.3305 65.8499 56.3293 65.8599 56.3287C65.8646 56.3285 65.8682 56.3289 65.8706 56.3287C65.8719 56.3287 65.8729 56.3278 65.8735 56.3278H65.8745L66.0347 56.3336C66.0755 56.3386 66.1152 56.3485 66.1548 56.359C66.1884 56.3016 66.2312 56.2188 66.2778 56.1012C66.3203 55.9939 66.4213 55.6595 66.5767 55.0895C66.7259 54.5418 66.9124 53.8263 67.1226 52.9996C67.5428 51.347 68.0555 49.2637 68.5522 47.2184C69.0489 45.1736 69.5288 43.1686 69.8853 41.6754C70.0634 40.9291 70.2104 40.3105 70.313 39.8785C70.3643 39.6625 70.4048 39.4929 70.4321 39.3776C70.4457 39.3202 70.4564 39.2764 70.4634 39.2467C70.4669 39.2318 70.4694 39.22 70.4712 39.2125C70.472 39.2091 70.4727 39.2065 70.4731 39.2047L70.4741 39.2018L70.4878 39.149V39.151L70.4868 39.1529C70.4863 39.1547 70.4853 39.1572 70.4849 39.1588C70.4841 39.1616 70.4836 39.1642 70.4829 39.1666C70.4815 39.1716 70.4808 39.1761 70.48 39.1793C70.4785 39.1854 70.4772 39.189 70.4771 39.1901C70.4772 39.1888 70.478 39.1831 70.478 39.1754C70.478 39.1579 70.475 39.1515 70.4741 39.15C70.4738 39.1495 70.467 39.1375 70.4429 39.1188C70.4177 39.0992 70.3657 39.0665 70.272 39.0319C70.0779 38.9603 69.7227 38.8898 69.1157 38.9137ZM66.4722 56.5123H66.4731L66.4712 56.5113L66.4692 56.5094C66.4679 56.5084 66.4666 56.5074 66.4653 56.5065C66.4625 56.5044 66.4592 56.5025 66.4565 56.5006C66.4513 56.4968 66.4466 56.4931 66.4419 56.4899C66.4325 56.4834 66.4235 56.478 66.4155 56.4733C66.4095 56.4697 66.4032 56.4667 66.397 56.4635C66.4224 56.4792 66.4483 56.4941 66.4722 56.5123ZM47.6753 39.3121C47.6489 39.2731 47.6253 39.2317 47.605 39.1881C47.6052 39.1886 47.6064 39.1909 47.6069 39.192C47.608 39.1942 47.6088 39.1967 47.6099 39.1988C47.6119 39.2031 47.6145 39.2072 47.6167 39.2115C47.6212 39.2205 47.6261 39.2304 47.6313 39.2399C47.6417 39.2587 47.6535 39.2793 47.6675 39.3004C47.67 39.3042 47.6726 39.3082 47.6753 39.3121ZM47.6753 39.3121C47.6894 39.3327 47.7066 39.3545 47.7261 39.3776C47.7086 39.3563 47.6908 39.3351 47.6753 39.3121Z" fill="#4D4D4D"/>
<path d="M58.3572 51.9728C60.2769 51.9728 61.8331 50.4166 61.8331 48.497C61.8331 46.5773 60.2769 45.0211 58.3572 45.0211C56.4375 45.0211 54.8813 46.5773 54.8813 48.497C54.8813 50.4166 56.4375 51.9728 58.3572 51.9728Z" fill="#52BB70"/>
<path d="M60.0327 48.4966C60.0325 47.5712 59.2823 46.8209 58.3569 46.8209C57.4315 46.821 56.6813 47.5713 56.6811 48.4966C56.6811 49.4221 57.4314 50.1723 58.3569 50.1724V51.9732L58.1782 51.9683C56.3417 51.8752 54.8813 50.3563 54.8813 48.4966C54.8815 46.5772 56.4374 45.0212 58.3569 45.0211C60.2765 45.0211 61.8333 46.5771 61.8334 48.4966L61.8286 48.6754C61.7357 50.5121 60.2167 51.9732 58.3569 51.9732V50.1724C59.2824 50.1724 60.0327 49.4222 60.0327 48.4966Z" fill="#4D4D4D"/>
<path d="M25.5233 41.5916C26.0191 41.6227 26.3959 42.0498 26.3651 42.5457V42.5496C26.365 42.5522 26.3645 42.5568 26.3642 42.5623C26.3635 42.5731 26.3625 42.5891 26.3612 42.6101C26.3587 42.6529 26.3551 42.7164 26.3505 42.7976C26.3413 42.9601 26.3286 43.1949 26.3144 43.4812C26.2859 44.0543 26.2511 44.8336 26.2284 45.6609C26.2056 46.4901 26.1951 47.3602 26.2118 48.115C26.2291 48.8948 26.2753 49.4749 26.3437 49.7703C26.4557 50.2545 26.154 50.7382 25.6698 50.8503C25.1857 50.9623 24.702 50.6606 24.5897 50.1765C24.4745 49.6786 24.4291 48.9258 24.412 48.1541C24.3943 47.3572 24.4064 46.4551 24.4296 45.6121C24.4528 44.7672 24.4876 43.9733 24.5165 43.3914C24.531 43.1002 24.5442 42.8612 24.5536 42.6951C24.5583 42.6122 24.5617 42.547 24.5644 42.5027C24.5657 42.4806 24.5666 42.4635 24.5673 42.4519C24.5676 42.4464 24.5681 42.4422 24.5683 42.4392V42.4343C24.5992 41.9382 25.0272 41.5606 25.5233 41.5916Z" fill="#4D4D4D"/>
<path d="M43.2796 46.5574C43.7683 46.4666 44.2377 46.7894 44.3285 47.2781C44.4191 47.7666 44.0972 48.236 43.6087 48.3269L18.7992 52.9373C18.3106 53.0278 17.8411 52.7051 17.7503 52.2166C17.6595 51.7279 17.9824 51.2586 18.471 51.1678L43.2796 46.5574Z" fill="#4D4D4D"/>
<path d="M42.959 51.0938C43.445 50.9898 43.9233 51.2992 44.0273 51.7852C44.1313 52.2711 43.8218 52.7494 43.3359 52.8535L32.0225 55.2735C32.0079 55.2969 31.9933 55.3187 31.9824 55.3408C31.9511 55.405 31.9453 55.4431 31.9443 55.4561C31.9471 55.4603 31.9525 55.4671 31.9609 55.4766C31.9994 55.5195 32.1119 55.6176 32.3848 55.7227C32.6514 55.8252 33.4305 55.9988 34.5664 56.2071C35.6617 56.4079 36.993 56.6247 38.2852 56.8252C39.5761 57.0256 40.8229 57.2088 41.7471 57.3418C42.209 57.4083 42.59 57.4627 42.8555 57.5C42.9882 57.5187 43.0925 57.5332 43.1631 57.543C43.1982 57.5479 43.2251 57.5512 43.2432 57.5537C43.2522 57.555 43.2591 57.556 43.2637 57.5567C43.2658 57.557 43.2675 57.5575 43.2686 57.5576H43.2705C43.7628 57.6257 44.107 58.08 44.0391 58.5723C43.971 59.0646 43.5158 59.4088 43.0234 59.3408L43.0225 59.3399C43.0213 59.3397 43.0197 59.3402 43.0176 59.3399C43.0129 59.3392 43.0053 59.3382 42.9961 59.3369C42.9777 59.3344 42.9505 59.3302 42.915 59.3252C42.8438 59.3153 42.7389 59.301 42.6055 59.2823C42.3382 59.2447 41.9545 59.1899 41.4902 59.1231C40.562 58.9894 39.3083 58.8052 38.0088 58.6035C36.7107 58.4021 35.3611 58.1827 34.2422 57.9776C33.1643 57.7799 32.195 57.5786 31.7373 57.4024C30.8273 57.0519 30.1953 56.4328 30.1465 55.5616C30.1046 54.8117 30.5282 54.192 30.874 53.835L30.9736 53.7461C31.0791 53.6654 31.2021 53.6091 31.333 53.5811L42.959 51.0938Z" fill="#4D4D4D"/>
<path d="M36.654 16.9137C37.1494 16.9536 37.5191 17.388 37.4792 17.8834C37.4264 18.5381 37.1113 19.076 36.7585 19.484C36.4056 19.892 35.9725 20.22 35.5798 20.4703C35.1825 20.7235 34.7955 20.9173 34.5104 21.0465C34.3668 21.1116 34.2461 21.1614 34.1599 21.1959C34.1169 21.2131 34.0823 21.2265 34.0573 21.236C34.0448 21.2407 34.0346 21.2449 34.027 21.2477C34.0233 21.2491 34.0197 21.2497 34.0173 21.2506C34.0162 21.251 34.0152 21.2513 34.0143 21.2516L34.0134 21.2526H34.0124C33.5446 21.4207 33.0291 21.1774 32.861 20.7096C32.6931 20.2419 32.9363 19.7263 33.404 19.5582L33.4196 19.5524C33.4348 19.5466 33.4598 19.5369 33.4919 19.5241C33.5562 19.4983 33.6517 19.4593 33.7673 19.4069C34.0009 19.3009 34.3081 19.1471 34.613 18.9528C34.9223 18.7556 35.1991 18.5352 35.3972 18.3063C35.5954 18.077 35.6732 17.8882 35.6852 17.7389C35.7252 17.2435 36.1587 16.8739 36.654 16.9137Z" fill="#4D4D4D"/>
<path d="M23.6861 26.0645C24.0331 25.8133 24.5158 25.8404 24.8326 26.1407C25.0992 26.3934 25.5813 26.7031 26.2242 27.0362C26.8501 27.3606 27.5661 27.6757 28.2506 27.9542C28.9329 28.2318 29.5727 28.4687 30.0426 28.6358C30.2772 28.7193 30.469 28.7853 30.6012 28.8302C30.6671 28.8525 30.7182 28.8696 30.7525 28.8809C30.7697 28.8867 30.7831 28.8909 30.7916 28.8936C30.7956 28.8949 30.7985 28.896 30.8004 28.8966L30.8023 28.8975C31.2749 29.0517 31.5337 29.5598 31.3795 30.0323C31.2253 30.5047 30.7172 30.7625 30.2447 30.6085H30.2428L30.2281 30.6036C30.2181 30.6003 30.2038 30.5952 30.1851 30.589C30.1476 30.5765 30.0927 30.5579 30.023 30.5343C29.8836 30.487 29.6838 30.4179 29.44 30.3311C28.9529 30.1579 28.286 29.9127 27.5719 29.6222C26.8599 29.3325 26.0889 28.9939 25.3961 28.6349C24.9968 28.428 24.6007 28.2012 24.2486 27.962L17.7701 33.6651C17.908 33.8415 18.069 34.0501 18.2535 34.2804C18.8722 35.0525 19.7291 36.087 20.6832 37.1417C21.64 38.1994 22.6805 39.2619 23.6685 40.0977C24.6895 40.9615 25.5374 41.4808 26.1178 41.6114C26.6027 41.7205 26.9074 42.2017 26.7984 42.6866C26.6894 43.1715 26.2082 43.4763 25.7232 43.3673C24.6828 43.1333 23.5478 42.3527 22.5064 41.4718C21.4321 40.5629 20.3309 39.435 19.3482 38.3487C18.3629 37.2595 17.4825 36.1957 16.8492 35.4054C16.5324 35.01 16.2763 34.6821 16.0992 34.4522C16.0107 34.3374 15.9412 34.2467 15.8941 34.1847C15.8708 34.1538 15.8527 34.1298 15.8404 34.1134C15.8342 34.1052 15.829 34.0982 15.8258 34.0938C15.8242 34.0918 15.8227 34.0901 15.8219 34.089L15.8209 34.088V34.087C15.5401 33.7113 15.595 33.1832 15.9469 32.8731L23.6187 26.1183L23.6861 26.0645Z" fill="#4D4D4D"/>
<path d="M48.9418 26.9317C49.2486 26.9712 49.5139 27.1656 49.6439 27.4463L52.5824 33.793C52.7481 34.151 52.6614 34.5747 52.3685 34.8389V34.8399L52.3646 34.8438C52.362 34.8462 52.3578 34.8492 52.3529 34.8535C52.3432 34.8623 52.329 34.8746 52.3109 34.8907C52.2746 34.9229 52.2218 34.9695 52.1557 35.0274C52.0234 35.143 51.8366 35.3054 51.6146 35.4912C51.1741 35.8601 50.5827 36.3348 50.0101 36.7325C49.6019 37.016 49.0408 36.9151 48.7572 36.5069C48.4739 36.0986 48.5756 35.5374 48.9838 35.2539C49.4916 34.9012 50.0356 34.4651 50.4594 34.1104C50.5326 34.0491 50.6 33.9885 50.6644 33.9336L48.5248 29.3145C48.1007 29.6316 47.657 29.9038 47.2787 30.1143C46.9122 30.3182 46.5791 30.4824 46.3373 30.5957C46.2161 30.6525 46.1172 30.6978 46.0473 30.7285C46.0123 30.7439 45.9839 30.7553 45.9642 30.7637C45.9545 30.7679 45.9464 30.7711 45.9408 30.7735C45.9381 30.7746 45.9356 30.7757 45.934 30.7764L45.932 30.7774H45.931V30.7784C45.4721 30.9692 44.9451 30.751 44.7543 30.292C44.5638 29.8332 44.781 29.3071 45.2396 29.1162L45.2426 29.1153C45.2455 29.114 45.2504 29.1114 45.2572 29.1084C45.2713 29.1024 45.2937 29.0928 45.3226 29.0801C45.3806 29.0547 45.4661 29.0158 45.5726 28.9659C45.7866 28.8655 46.0816 28.7203 46.4037 28.541C47.0761 28.1669 47.7594 27.7039 48.1322 27.252C48.329 27.0133 48.635 26.8922 48.9418 26.9317Z" fill="#4D4D4D"/>
<path d="M14.0625 17.3431C15.4562 17.3605 16.9667 18.2064 17.7187 19.5902C18.2732 20.6104 19.6956 22.5562 21.0283 24.3031C21.685 25.1639 22.3055 25.9581 22.7617 26.5365C22.9895 26.8253 23.176 27.0604 23.3057 27.223C23.3705 27.3043 23.4218 27.3677 23.4561 27.4105C23.473 27.4317 23.4864 27.4475 23.4951 27.4583C23.4995 27.4638 23.5027 27.4683 23.5049 27.471C23.5058 27.4722 23.5063 27.4733 23.5068 27.474C23.8183 27.8613 23.7575 28.4291 23.3701 28.7406C23.0069 29.0325 22.4862 28.9962 22.166 28.6712L22.1045 28.6029L22.1035 28.6019C22.1029 28.6011 22.1027 28.5994 22.1016 28.598C22.0992 28.5951 22.0954 28.591 22.0908 28.5853C22.0817 28.574 22.0683 28.5573 22.0508 28.5355C22.0158 28.4918 21.9641 28.4275 21.8984 28.3451C21.7671 28.1803 21.5787 27.9424 21.3486 27.6507C20.8885 27.0673 20.2618 26.2663 19.5977 25.3958C18.2887 23.6801 16.7719 21.6164 16.1377 20.4496C15.7012 19.6463 14.7912 19.1523 14.04 19.1429C13.6837 19.1385 13.425 19.2418 13.2568 19.3997C13.0952 19.5517 12.9168 19.8478 12.9004 20.431C12.8853 20.9671 13.1681 21.9131 13.7383 23.1605C14.2874 24.3616 15.0351 25.7025 15.7969 26.9662C16.5566 28.2265 17.3208 29.3944 17.8955 30.2484C18.1824 30.6748 18.4218 31.022 18.5889 31.2621C18.6723 31.382 18.7379 31.4756 18.7822 31.5384C18.8044 31.5699 18.8218 31.5939 18.833 31.6097C18.8386 31.6175 18.843 31.6235 18.8457 31.6273C18.847 31.6291 18.848 31.6303 18.8486 31.6312V31.6322C19.1375 32.0367 19.0441 32.5991 18.6396 32.888C18.2353 33.1768 17.6737 33.0832 17.3848 32.679H17.3838V32.6781L17.3828 32.6771C17.3819 32.6759 17.3805 32.6735 17.3789 32.6712C17.3757 32.6667 17.3712 32.6601 17.3652 32.6517C17.353 32.6345 17.3347 32.6094 17.3115 32.5765C17.2651 32.5107 17.1972 32.4138 17.1113 32.2904C16.9396 32.0436 16.6952 31.6885 16.4023 31.2533C15.8169 30.3833 15.0358 29.1886 14.2559 27.8949C13.4779 26.6044 12.691 25.1989 12.1016 23.9095C11.5333 22.6665 11.0735 21.3771 11.1016 20.3802C11.1284 19.4303 11.4388 18.6378 12.0234 18.0882C12.6015 17.5448 13.3466 17.3342 14.0625 17.3431Z" fill="#4D4D4D"/>
<path d="M58.5115 17.476C59.2279 17.4957 59.9651 17.7364 60.5222 18.3022C61.0863 18.875 61.3667 19.6797 61.3533 20.6313C61.3456 21.1775 61.1708 21.7836 60.9373 22.3744C60.6974 22.9812 60.3651 23.6467 59.9812 24.3325C59.213 25.7046 58.2014 27.2219 57.2049 28.6254C56.2059 30.0322 55.21 31.3401 54.4646 32.2953C54.0916 32.7733 53.7813 33.1645 53.5633 33.436C53.4544 33.5715 53.3681 33.6771 53.3094 33.7494C53.2801 33.7855 53.2574 33.8136 53.242 33.8325C53.2344 33.8417 53.2284 33.849 53.2244 33.8539C53.2224 33.8564 53.2206 33.8585 53.2195 33.8598L53.2185 33.8617H53.2176C52.9022 34.2458 52.3351 34.302 51.951 33.9867C51.5668 33.6713 51.5115 33.1033 51.8269 32.7192L51.8279 32.7182L51.8474 32.6938C51.8619 32.6761 51.8836 32.6495 51.9119 32.6147C51.9687 32.5448 52.0522 32.4409 52.159 32.308C52.3725 32.0422 52.6786 31.6584 53.0457 31.1879C53.7806 30.2462 54.7597 28.9612 55.7381 27.5834C56.7187 26.2024 57.6881 24.7437 58.4109 23.4526C58.7725 22.8067 59.0637 22.2177 59.2635 21.7123C59.4694 21.1913 59.5504 20.8261 59.5535 20.6059C59.5616 20.0248 59.3957 19.723 59.24 19.5649C59.0773 19.3996 58.8203 19.2847 58.4617 19.2748C57.7064 19.2542 56.7815 19.7132 56.325 20.4936C55.6539 21.6416 54.0556 23.6473 52.6804 25.309C51.9821 26.1529 51.3234 26.9288 50.8396 27.4936C50.5978 27.7759 50.3996 28.006 50.2615 28.1655C50.1924 28.2452 50.1382 28.3077 50.1013 28.35C50.083 28.3712 50.0689 28.3879 50.0594 28.3989C50.0548 28.4041 50.051 28.4078 50.0486 28.4106C50.0474 28.412 50.0463 28.4137 50.0457 28.4145L50.0447 28.4155C49.7178 28.7896 49.1495 28.828 48.7752 28.5014C48.4009 28.1743 48.3622 27.6052 48.6892 27.2309L48.6902 27.2299C48.6908 27.2293 48.6912 27.2281 48.6922 27.227C48.6944 27.2244 48.6983 27.2205 48.7029 27.2153C48.7121 27.2048 48.726 27.189 48.7439 27.1684C48.7799 27.1271 48.8332 27.0662 48.9012 26.9877C49.0374 26.8304 49.2329 26.6024 49.4724 26.3227C49.9517 25.7631 50.6037 24.9954 51.2937 24.1616C52.6955 22.4677 54.188 20.5815 54.7703 19.5854C55.5673 18.2221 57.1167 17.4378 58.5115 17.476Z" fill="#4D4D4D"/>
<path d="M72.7185 24.7349C71.5287 24.7349 70.4048 24.2712 69.5616 23.4273C68.7185 22.5828 68.2563 21.4577 68.2563 20.2651C68.2563 20.1164 68.1407 20 67.9916 20C67.8431 20 67.7269 20.1158 67.7269 20.2651C67.7269 21.4569 67.264 22.5827 66.4216 23.4273C65.5785 24.2719 64.4553 24.7349 63.2647 24.7349C63.1162 24.7349 63 24.8506 63 25C63 25.1487 63.1156 25.2651 63.2647 25.2651C64.4545 25.2651 65.5784 25.7288 66.4216 26.5727C67.2647 27.4172 67.7269 28.5423 67.7269 29.7349C67.7269 29.8836 67.8425 30 67.9916 30C68.1401 30 68.2563 29.8842 68.2563 29.7349C68.2563 27.2686 70.2563 25.2483 72.7353 25.2483C72.8838 25.2483 73 25.1326 73 24.9832C72.9832 24.8506 72.8676 24.7349 72.7185 24.7349ZM70.7851 25.1157C70.1899 25.3641 69.6611 25.7281 69.1983 26.1918C68.7354 26.6554 68.3719 27.185 68.124 27.7813C68.0743 27.897 68.0414 28.0128 67.9917 28.1292C67.9588 28.0134 67.9091 27.8977 67.8594 27.7813C67.6115 27.185 67.248 26.6554 66.7851 26.1918C66.3223 25.7281 65.7936 25.3641 65.1983 25.1157C65.0828 25.066 64.9672 25.033 64.851 24.9832C64.9666 24.9502 65.0821 24.9004 65.1983 24.8506C65.7936 24.6023 66.3223 24.2382 66.7851 23.7746C67.248 23.3109 67.6115 22.7813 67.8594 22.1851C67.9091 22.0694 67.942 21.9536 67.9917 21.8372C68.0246 21.953 68.0743 22.0687 68.124 22.1851C68.3719 22.7813 68.7354 23.3109 69.1983 23.7746C69.6611 24.2382 70.1899 24.6023 70.7851 24.8506C70.9006 24.9004 71.0162 24.9334 71.1324 24.9832C71.0001 25.033 70.9007 25.066 70.7851 25.1157Z" fill="#4D4D4D"/>
<path d="M67.7324 29.7891C67.7532 29.8935 67.8329 29.9743 67.9375 29.9951L67.9912 30C68.1212 30 68.2267 29.9113 68.251 29.7891L68.2559 29.7354C68.2559 27.3463 70.133 25.375 72.5039 25.2539L72.7354 25.248C72.8654 25.248 72.971 25.1595 72.9951 25.0371L73 24.9834C72.9853 24.8673 72.8948 24.7641 72.7725 24.7402L72.7188 24.7354C71.6033 24.7354 70.5453 24.3274 69.7227 23.5811L69.5615 23.4277C68.7184 22.5832 68.2559 21.4572 68.2559 20.2646C68.2556 20.1162 68.1402 20 67.9912 20C67.8431 20.0002 67.7268 20.1156 67.7266 20.2646C67.7266 21.4564 67.2643 22.5831 66.4219 23.4277L66.2607 23.5811C65.4382 24.328 64.381 24.7354 63.2646 24.7354C63.1162 24.7354 63 24.8506 63 25C63 25.1487 63.1155 25.2646 63.2646 25.2646C64.4544 25.2646 65.5787 25.7284 66.4219 26.5723C67.265 27.4168 67.7266 28.5428 67.7266 29.7354L67.7324 29.7891ZM67.9922 21.8369C68.0251 21.9527 68.0743 22.0691 68.124 22.1855C68.3719 22.7816 68.7355 23.3109 69.1982 23.7744C69.6611 24.2381 70.1899 24.6023 70.7852 24.8506C70.9007 24.9004 71.0166 24.9336 71.1328 24.9834C71.0005 25.0332 70.9007 25.0664 70.7852 25.1162C70.1901 25.3645 69.661 25.7279 69.1982 26.1914C68.7354 26.6551 68.3719 27.185 68.124 27.7812C68.0744 27.8969 68.0418 28.0126 67.9922 28.1289C67.9593 28.0132 67.9091 27.8976 67.8594 27.7812C67.6425 27.2597 67.337 26.7892 66.9541 26.3691L66.7852 26.1914C66.3223 25.7279 65.7933 25.3645 65.1982 25.1162C65.0827 25.0664 64.9668 25.0332 64.8506 24.9834C64.9661 24.9504 65.082 24.9004 65.1982 24.8506C65.7191 24.6333 66.1889 24.3271 66.6084 23.9434L66.7852 23.7744C67.2479 23.3109 67.6115 22.7816 67.8594 22.1855C67.9091 22.0698 67.9425 21.9533 67.9922 21.8369ZM67.9912 23.0322C67.7556 23.4303 67.47 23.7961 67.1387 24.1279C66.8069 24.4603 66.4411 24.7462 66.043 24.9824C66.4414 25.2187 66.8066 25.5063 67.1387 25.8389C67.4699 26.1706 67.7557 26.5357 67.9912 26.9336C68.2268 26.5356 68.5134 26.1707 68.8447 25.8389C69.1766 25.5065 69.5413 25.2186 69.9395 24.9824C69.5416 24.7463 69.1763 24.46 68.8447 24.1279C68.5133 23.7959 68.2268 23.4304 67.9912 23.0322ZM68.7559 20.2646C68.7559 21.3256 69.1662 22.3241 69.915 23.0742C70.6641 23.8239 71.6612 24.2354 72.7188 24.2354C73.1367 24.2355 73.4497 24.5553 73.4961 24.9199L73.5 24.9512V24.9834C73.4999 25.4088 73.1599 25.748 72.7354 25.748C70.5345 25.748 68.7559 27.5432 68.7559 29.7354C68.7556 30.1607 68.4157 30.5 67.9912 30.5C67.5647 30.4998 67.2268 30.1583 67.2266 29.7354C67.2266 28.6743 66.8163 27.6759 66.0674 26.9258C65.3183 26.1763 64.322 25.7646 63.2646 25.7646C62.8644 25.7646 62.5425 25.4645 62.5039 25.0781L62.5 25L62.5039 24.9209C62.543 24.5332 62.8667 24.2354 63.2646 24.2354L63.4619 24.2305C64.4463 24.1827 65.3652 23.7774 66.0674 23.0742L66.2041 22.9307C66.8659 22.1988 67.2266 21.2584 67.2266 20.2646C67.2268 19.8395 67.5669 19.5002 67.9912 19.5C68.4179 19.5 68.7556 19.8416 68.7559 20.2646Z" fill="#4D4D4D"/>
<path d="M77.803 18.3144C76.9701 18.3144 76.1834 17.9898 75.5931 17.3991C75.003 16.808 74.6794 16.0204 74.6794 15.1856C74.6794 15.0815 74.5985 15 74.4941 15C74.3902 15 74.3088 15.081 74.3088 15.1856C74.3088 16.0198 73.9848 16.8079 73.3951 17.3991C72.8049 17.9903 72.0187 18.3144 71.1853 18.3144C71.0813 18.3144 71 18.3954 71 18.5C71 18.6041 71.0809 18.6856 71.1853 18.6856C72.0181 18.6856 72.8049 19.0102 73.3951 19.6009C73.9853 20.192 74.3088 20.9796 74.3088 21.8144C74.3088 21.9185 74.3897 22 74.4941 22C74.5981 22 74.6794 21.919 74.6794 21.8144C74.6794 20.088 76.0794 18.6738 77.8147 18.6738C77.9187 18.6738 78 18.5928 78 18.4882C77.9883 18.3954 77.9074 18.3144 77.803 18.3144ZM76.4496 18.581C76.0329 18.7548 75.6628 19.0097 75.3388 19.3342C75.0148 19.6588 74.7604 20.0295 74.5868 20.4469C74.552 20.5279 74.529 20.6089 74.4942 20.6904C74.4711 20.6094 74.4364 20.5284 74.4016 20.4469C74.228 20.0295 73.9736 19.6588 73.6496 19.3342C73.3256 19.0097 72.9555 18.7548 72.5388 18.581C72.4579 18.5462 72.3771 18.5231 72.2957 18.4882C72.3766 18.4651 72.4575 18.4303 72.5388 18.3954C72.9555 18.2216 73.3256 17.9668 73.6496 17.6422C73.9736 17.3177 74.228 16.9469 74.4016 16.5296C74.4364 16.4486 74.4594 16.3675 74.4942 16.286C74.5172 16.3671 74.552 16.4481 74.5868 16.5296C74.7604 16.9469 75.0148 17.3177 75.3388 17.6422C75.6628 17.9668 76.0329 18.2216 76.4496 18.3954C76.5304 18.4303 76.6113 18.4534 76.6927 18.4882C76.6 18.5231 76.5305 18.5462 76.4496 18.581Z" fill="#4D4D4D"/>
<path d="M74.4941 16.2861C74.5172 16.3671 74.5522 16.4479 74.5869 16.5293C74.7604 16.9467 75.0149 17.318 75.3389 17.6426C75.6628 17.967 76.0328 18.2217 76.4492 18.3955C76.53 18.4303 76.6111 18.4535 76.6924 18.4883C76.5999 18.5231 76.53 18.5462 76.4492 18.5811C76.0328 18.7548 75.6628 19.0096 75.3389 19.334C75.0149 19.6585 74.7604 20.0299 74.5869 20.4473C74.5522 20.5282 74.5289 20.609 74.4941 20.6904C74.4711 20.6095 74.4361 20.5287 74.4014 20.4473C74.2278 20.0299 73.9734 19.6585 73.6494 19.334C73.3255 19.0096 72.9555 18.7548 72.5391 18.5811C72.4582 18.5462 72.3772 18.5231 72.2959 18.4883C72.3767 18.4652 72.4578 18.4303 72.5391 18.3955C72.9555 18.2217 73.3255 17.967 73.6494 17.6426C73.9734 17.318 74.2278 16.9467 74.4014 16.5293C74.4361 16.4484 74.4594 16.3675 74.4941 16.2861ZM74.4941 17.4033C74.3505 17.6147 74.1866 17.8121 74.0039 17.9951C73.8207 18.1787 73.622 18.3431 73.4102 18.4873C73.6223 18.6317 73.8204 18.7976 74.0039 18.9814C74.1864 19.1643 74.3506 19.3611 74.4941 19.5723C74.6378 19.3609 74.8027 19.1644 74.9854 18.9814C75.1686 18.7978 75.3653 18.6316 75.5771 18.4873C75.3656 18.3432 75.1684 18.1785 74.9854 17.9951C74.8025 17.812 74.6379 17.6149 74.4941 17.4033ZM75.1797 15.1855C75.1797 15.8888 75.4513 16.5491 75.9473 17.0459C76.4433 17.5422 77.1024 17.8144 77.8027 17.8145C78.1763 17.8145 78.4549 18.1006 78.4961 18.4258L78.5 18.457V18.4883C78.5 18.869 78.1945 19.1738 77.8145 19.1738C76.3574 19.174 75.1797 20.3623 75.1797 21.8145C75.1797 22.1951 74.8742 22.5 74.4941 22.5C74.112 22.5 73.8086 22.1931 73.8086 21.8145C73.8086 21.1112 73.537 20.4509 73.041 19.9541C72.545 19.4578 71.8859 19.1856 71.1855 19.1855C70.851 19.1855 70.5767 18.9504 70.5137 18.6377L70.5 18.5L70.5137 18.3613C70.5772 18.0479 70.8529 17.8145 71.1855 17.8145L71.4463 17.8018C72.0488 17.7429 72.6071 17.4804 73.041 17.0459L73.2168 16.8525C73.601 16.3835 73.8086 15.8003 73.8086 15.1855C73.8086 14.8048 74.1141 14.5 74.4941 14.5L74.6328 14.5137C74.9471 14.5774 75.1797 14.8541 75.1797 15.1855ZM74.3086 15.1855C74.3086 16.0198 73.9852 16.8082 73.3955 17.3994C72.8054 17.9905 72.0188 18.3144 71.1855 18.3145C71.0816 18.3145 71 18.3954 71 18.5C71 18.6041 71.0812 18.6855 71.1855 18.6855C72.0183 18.6856 72.8053 19.0099 73.3955 19.6006C73.9857 20.1918 74.3086 20.9797 74.3086 21.8145L74.3232 21.8877C74.3417 21.932 74.3766 21.9668 74.4209 21.9854L74.4941 22C74.572 22 74.6373 21.9545 74.665 21.8877L74.6797 21.8145C74.6797 20.092 76.073 18.6803 77.8027 18.6738H77.8145C77.8923 18.6738 77.9575 18.6283 77.9854 18.5615L78 18.4883C77.9887 18.3989 77.9132 18.3221 77.8145 18.3164L77.8027 18.3145C76.97 18.3144 76.1829 17.9901 75.5928 17.3994C75.0396 16.8453 74.7214 16.1182 74.6836 15.3418L74.6797 15.1855C74.6797 15.0815 74.5985 15 74.4941 15C74.3902 15 74.3086 15.081 74.3086 15.1855Z" fill="#4D4D4D"/>
</svg>
