<svg width="373" height="72" viewBox="0 0 373 72" fill="none" xmlns="http://www.w3.org/2000/svg">
<g clip-path="url(#clip0_473_2)">
<rect width="373" height="72" fill="#D8FF33"/>
<path d="M265.502 62.1358C257.858 62.0484 255.019 58.6632 255.019 55.1907C255.019 52.5044 256.722 49.7525 259.256 48.4421C256.788 48.5295 253.687 48.6824 251.131 48.726C250.869 48.726 250.716 48.595 250.716 48.3111L250.651 45.1443C250.651 44.8822 250.782 44.7293 251.044 44.7293C255.652 44.7293 263.471 44.7293 268.298 44.6201C268.56 44.6201 268.713 44.7512 268.713 45.0132V48.1364C268.713 48.3984 268.582 48.5513 268.319 48.5513C267.664 48.5513 267.053 48.6168 266.463 48.726C263.777 49.141 259.343 51.6744 259.343 54.601C259.343 56.4792 261.374 58.008 266.179 57.9207C266.441 57.9207 266.572 58.0517 266.572 58.2483V58.3575L265.961 61.7645C265.917 62.0266 265.764 62.1358 265.502 62.1358ZM265.589 55.0815C265.327 55.1907 265.153 55.0815 265.065 54.8412C264.672 53.7274 264.082 52.5917 263.405 51.6963C263.34 51.5871 263.296 51.4997 263.296 51.4124C263.296 51.3032 263.384 51.194 263.536 51.1284L264.825 50.6261C265.043 50.5388 265.218 50.5606 265.371 50.7572C266.048 51.5434 266.834 52.8975 267.271 53.9676C267.358 54.2079 267.271 54.4044 267.031 54.4918L265.589 55.0815ZM268.603 53.8803C268.341 53.9895 268.167 53.8803 268.079 53.64C267.686 52.6354 266.987 51.3905 266.376 50.6043C266.31 50.5169 266.266 50.4296 266.266 50.3422C266.266 50.2112 266.354 50.102 266.529 50.0364L267.752 49.5341C267.97 49.4468 268.167 49.4686 268.319 49.6433C269.018 50.4296 269.848 51.8055 270.22 52.8101C270.307 53.0504 270.22 53.2469 269.979 53.3343L268.603 53.8803Z" fill="white"/>
<path d="M243.27 61.7862C241.086 62.0919 239.011 62.2885 237.133 62.2885C235.167 62.2885 233.398 62.0919 231.869 61.6115C229.511 60.8689 228.025 58.947 228.025 56.763C228.025 54.71 229.336 52.4168 232.415 50.6915C231.869 48.6167 231.826 46.2579 231.804 43.9211C231.804 43.6371 231.935 43.5061 232.219 43.5061H235.8C236.063 43.5061 236.194 43.659 236.194 43.9211C236.128 45.9303 236.15 47.612 236.39 49.119C238.028 48.6385 239.95 48.2017 241.916 47.8304C242.178 47.7867 242.331 47.8741 242.418 48.1143L243.488 51.2811C243.575 51.5432 243.488 51.7398 243.182 51.7835C240.168 52.2639 237.373 52.8973 235.429 53.6617C233.158 54.5571 232.372 55.671 232.372 56.5664C232.372 57.1779 232.743 57.6803 233.245 57.9205C233.966 58.2481 235.167 58.3791 236.521 58.3791C238.705 58.3791 241.348 58.0515 243.292 57.7239H243.401C243.619 57.7239 243.728 57.8331 243.728 58.0734L243.663 61.3494C243.663 61.6115 243.532 61.7425 243.27 61.7862Z" fill="white"/>
<path d="M217.515 48.6168C215.746 48.857 213.671 48.988 211.575 48.988C209.303 48.988 206.967 48.8352 204.87 48.5731C204.608 48.5294 204.477 48.3765 204.499 48.1144L204.695 45.0568C204.717 44.7729 204.87 44.6419 205.154 44.6637C207.141 44.8821 209.413 45.035 211.706 45.035C213.54 45.035 215.419 44.9476 217.166 44.7292C217.428 44.7074 217.603 44.8166 217.624 45.1005L217.865 48.1581C217.887 48.4202 217.777 48.5731 217.515 48.6168ZM207.927 61.5679C204.979 60.9564 203.625 59.0126 203.625 56.9378C203.625 56.0642 203.865 55.1688 204.324 54.3388C204.433 54.1204 204.608 54.0549 204.848 54.0986L207.6 54.6664C207.906 54.732 207.971 54.9285 207.84 55.1906C207.665 55.54 207.578 55.8895 207.578 56.1952C207.578 58.0298 210.286 58.0298 211.575 58.0298C213.868 58.0298 216.62 57.593 218.826 57.0033C219.11 56.916 219.284 57.0688 219.284 57.3528L219.262 60.738C219.262 60.9782 219.153 61.1311 218.913 61.1966C216.991 61.6989 214.611 61.9828 212.339 61.9828C210.767 61.9828 209.216 61.8518 207.927 61.5679Z" fill="white"/>
<path d="M179.405 56.9378C179.317 57.0034 179.208 57.047 179.121 57.047C179.012 57.047 178.902 57.0034 178.815 56.8723L176.98 54.2734C176.915 54.186 176.893 54.0986 176.893 54.0331C176.893 53.9021 176.959 53.771 177.111 53.6837C181.217 51.0629 183.904 49.2065 186.306 47.5903L180.235 47.8306C179.973 47.8306 179.82 47.6995 179.82 47.4374L179.798 44.4672C179.798 44.1833 179.951 44.0522 180.213 44.0522H192.662C192.945 44.0522 193.098 44.1833 193.098 44.4672V47.0006C193.098 47.219 193.011 47.3719 192.836 47.4811L188.621 50.0582C188.883 50.0364 189.123 50.0364 189.386 50.0364C192.727 50.0364 195.697 52.2422 195.697 55.7803C195.697 58.008 194.431 60.3886 191.679 61.7426C190.434 62.3542 188.709 62.7036 187.027 62.7036C185.411 62.7036 183.838 62.3978 182.746 61.7208C181.436 60.9127 180.759 59.646 180.759 58.3793C180.759 55.9332 183.161 54.6665 185.345 54.6665C187.42 54.6665 189.517 55.7803 189.735 58.5758C190.761 57.9862 191.701 57.1781 191.701 55.8895C191.701 53.8584 189.145 52.9848 187.464 52.9848C185.891 52.9848 184.035 53.5526 182.113 54.863L179.405 56.9378ZM186.241 59.4058C186.35 58.2046 185.564 57.462 184.865 57.462C184.472 57.462 184.122 57.6804 184.122 58.1172C184.122 59.0563 185.52 59.3839 186.241 59.4058Z" fill="white"/>
<path d="M153.952 48.857C153.69 48.857 153.537 48.7042 153.537 48.4421V45.4937C153.537 45.2316 153.69 45.0787 153.952 45.0787H162.098L162.054 43.4626C162.054 43.1786 162.207 43.0476 162.469 43.0476H165.854C166.116 43.0476 166.269 43.1786 166.269 43.4407V45.0787H171.664C171.926 45.0787 172.079 45.2316 172.079 45.4937V48.4421C172.079 48.7042 171.926 48.857 171.664 48.857H166.248L166.226 52.3951C166.553 53.094 166.815 54.0986 166.815 55.3435C166.815 55.7585 166.794 56.1734 166.728 56.6321C166.313 59.8862 163.234 62.5944 158.625 62.9438C158.385 62.9657 158.232 62.8783 158.123 62.6599L156.572 59.5805C156.42 59.2966 156.551 59.0782 156.878 59.0782C160.045 59.0126 162.163 58.4885 162.84 57.593C162.382 57.8988 161.705 58.0735 161.006 58.0735C158.625 58.0735 157.14 56.3482 157.14 54.0331C157.14 51.4997 158.844 49.7525 161.355 49.7525C161.639 49.7525 161.923 49.7743 162.185 49.818L162.163 48.857H153.952ZM162.513 53.2032C162.491 53.1814 162.491 53.1595 162.469 53.1377C162.338 52.8101 162.032 52.6572 161.727 52.6572C161.421 52.6572 161.115 52.8101 160.94 53.1158C160.831 53.3342 160.766 53.5963 160.766 53.8366C160.766 54.4044 161.006 54.9722 161.661 54.9722C161.945 54.9722 162.229 54.863 162.36 54.6446C162.557 54.3607 162.6 54.055 162.6 53.7929C162.6 53.4871 162.535 53.2687 162.513 53.2032Z" fill="white"/>
<path d="M127.809 56.6758C127.809 56.4574 127.875 56.3264 128.115 56.3264H128.159L129.12 56.4137C129.338 56.4356 129.447 56.5448 129.469 56.7632C129.556 58.4885 129.556 60.4104 129.404 62.2013C129.382 62.4416 129.229 62.5508 128.989 62.4852L127.831 62.2013C127.613 62.1576 127.525 62.0048 127.569 61.7645C127.831 60.061 127.897 58.3138 127.809 56.6758ZM131.369 61.1093C131.369 61.3277 131.26 61.4588 131.063 61.4806L130.408 61.5898C130.168 61.6335 130.015 61.5024 130.037 61.2622C130.124 59.7989 130.124 58.2483 129.928 56.8724C129.906 56.654 130.015 56.5229 130.234 56.4792L130.648 56.4137C130.889 56.37 131.02 56.4792 131.063 56.6976C131.282 58.0736 131.391 59.6679 131.369 61.1093ZM148.273 45.6029C148.492 45.6903 148.557 45.8213 148.47 46.0397L147.334 49.141C147.247 49.3594 147.072 49.4249 146.876 49.3157L146.111 48.8789V49.556C146.111 49.7744 145.98 49.9054 145.762 49.9054H144.298V50.6698H147.334C147.553 50.6698 147.684 50.8008 147.684 51.0192V57.2436C147.684 57.462 147.553 57.5931 147.334 57.5931H144.735C145.653 58.4448 146.832 58.9472 148.099 59.1656C148.339 59.2092 148.426 59.3621 148.339 59.6024L147.094 62.6381C147.007 62.8347 146.854 62.922 146.635 62.8347C144.844 62.2232 143.447 61.2404 142.464 59.7116C141.416 61.4588 139.843 62.4416 137.987 62.8784C137.768 62.922 137.615 62.8347 137.55 62.6381L136.589 60.0173C136.349 62.1576 135.759 62.922 133.378 62.922C133.16 62.922 133.051 62.8347 132.985 62.6381L132.265 60.5415C132.024 60.6288 131.872 60.5196 131.872 60.2576C131.872 59.1 131.762 57.9207 131.522 56.8287C131.478 56.6103 131.566 56.4792 131.784 56.4137L132.024 56.37C132.243 56.3045 132.374 56.3919 132.439 56.6103C132.68 57.5494 132.898 58.7069 132.985 59.6679C133.968 59.646 134.056 59.4713 134.056 58.5322C134.012 58.5977 133.946 58.6632 133.859 58.7069L133.728 58.7724C133.488 58.9035 133.313 58.7943 133.291 58.5322C133.204 57.8988 133.073 57.3092 132.876 56.7632C132.789 56.5448 132.854 56.37 133.073 56.3045L133.204 56.2608C133.422 56.1953 133.575 56.2172 133.641 56.3919C133.837 56.8505 133.968 57.4402 134.056 58.008V55.8459H128.464C128.246 55.8459 128.115 55.7148 128.115 55.4964V43.2224C128.115 43.004 128.246 42.8729 128.464 42.8729H136.698C136.917 42.8729 137.048 43.004 137.048 43.2224V45.4064C138.489 44.7512 139.712 43.7465 140.498 42.8074C140.608 42.6764 140.739 42.6108 140.913 42.6108H143.381C143.578 42.6108 143.687 42.6545 143.774 42.7419C144.801 43.812 146.373 44.9259 148.273 45.6029ZM132.527 52.0894H131.369V53.1159H132.527V52.0894ZM139.144 49.9054C138.926 49.9054 138.795 49.7744 138.795 49.556V48.7697C138.424 49.01 138.074 49.2065 137.725 49.3812C137.528 49.4686 137.353 49.4031 137.288 49.1847L136.24 46.0834C136.218 45.996 136.218 45.9087 136.24 45.8432H135.148V46.8915H136.021C136.24 46.8915 136.371 47.0225 136.371 47.2409V48.595C136.371 48.8134 136.24 48.9444 136.021 48.9444H135.148V49.9491H136.218C136.436 49.9491 136.567 50.0801 136.567 50.2985V51.74C136.567 51.9584 136.436 52.0894 136.218 52.0894H135.148V53.1159H136.436C136.654 53.1159 136.786 53.2469 136.786 53.4653C136.764 55.2344 136.786 57.0689 136.676 58.8816L136.654 59.1219H136.698C138.161 58.969 139.341 58.5104 140.105 57.5931H137.681C137.463 57.5931 137.332 57.462 137.332 57.2436V51.0192C137.332 50.8008 137.463 50.6698 137.681 50.6698H140.608V49.9054H139.144ZM141.132 53.3124H140.105V54.9068H141.132V53.3124ZM143.796 54.9068H144.844V53.3124H143.796V54.9068ZM132.527 45.8432H131.369V46.8915H132.527V45.8432ZM132.527 48.9444H131.369V49.9491H132.527V48.9444ZM143.84 47.2846C143.272 46.826 142.704 46.3236 142.246 45.7995C141.852 46.3018 141.328 46.8041 140.782 47.2846H143.84Z" fill="white"/>
<path d="M118.876 49.3155C120.099 52.0455 121.606 54.295 123.485 56.1733C123.572 56.2606 123.616 56.348 123.616 56.4353C123.616 56.5009 123.594 56.5882 123.55 56.6537L121.716 59.755C121.65 59.8642 121.563 59.9297 121.475 59.9297C121.388 59.9297 121.322 59.8861 121.235 59.7987C120.755 59.209 120.252 58.4665 119.75 57.6584V59.6677C119.75 59.8861 119.619 60.0171 119.401 60.0171H117.522L117.588 62.5942C117.588 62.8126 117.457 62.9437 117.238 62.9437H113.941C113.722 62.9437 113.613 62.8126 113.613 62.5942L113.678 60.0171H111.757C111.516 60.0171 111.407 59.8861 111.407 59.6677V57.7894C110.927 58.5757 110.468 59.2745 110.031 59.8205C109.966 59.9079 109.878 59.9516 109.813 59.9516C109.704 59.9516 109.616 59.8861 109.551 59.755L108.044 57.0032V62.5942C108.044 62.8126 107.935 62.9437 107.694 62.9437H104.877C104.637 62.9437 104.528 62.8126 104.528 62.5942V52.9628C104.265 53.3122 104.003 53.618 103.785 53.8582C103.698 53.9456 103.632 53.9893 103.567 53.9893C103.457 53.9893 103.37 53.8801 103.326 53.7272L102.365 49.5994C102.322 49.4247 102.365 49.2718 102.475 49.1408C103.982 47.4809 105.03 45.1877 105.641 42.7853C105.707 42.5669 105.838 42.4796 106.056 42.5233L109.114 43.1348C109.354 43.1785 109.442 43.3313 109.376 43.5497C109.027 44.882 108.612 46.1705 108.044 47.4591V55.9549C109.682 54.1858 111.211 51.8489 112.237 49.3155H109.245C109.005 49.3155 108.896 49.1845 108.896 48.9661V45.974C108.896 45.7556 109.005 45.6245 109.245 45.6245H113.591V42.7635C113.591 42.5451 113.722 42.4141 113.941 42.4141H117.238C117.457 42.4141 117.588 42.5451 117.588 42.7635V45.6245H122.327C122.567 45.6245 122.677 45.7556 122.677 45.974V48.9661C122.677 49.1845 122.567 49.3155 122.327 49.3155H118.876ZM119.007 56.3917C118.396 55.3215 117.828 54.164 117.348 53.1157L117.435 56.3917H119.007ZM113.81 53.2467C113.329 54.2513 112.783 55.3433 112.215 56.3917H113.744L113.81 53.2467Z" fill="white"/>
<path d="M235.361 29.1357C232.413 28.8081 230.928 27.1046 230.928 25.2045C230.928 22.3653 233.701 20.8365 235.929 19.7663C235.623 19.5916 235.274 19.5042 234.902 19.5042C233.876 19.5042 232.675 20.1813 231.757 21.448C231.714 21.5135 231.692 21.5354 231.648 21.579L229.901 23.9814C229.814 24.0906 229.705 24.1562 229.595 24.1562C229.508 24.1562 229.399 24.1125 229.311 24.047L226.975 22.2124C226.865 22.125 226.8 22.0158 226.8 21.9066C226.8 21.8193 226.843 21.7101 226.931 21.6227C228.569 19.8974 230.119 17.8444 231.102 15.857H228.045C227.783 15.857 227.63 15.7041 227.63 15.442V12.7338C227.63 12.4718 227.783 12.3189 228.045 12.3189H232.456C232.718 11.5763 232.959 10.8774 233.133 10.2659C233.199 10.0257 233.374 9.89465 233.636 9.96017L236.846 10.7027C237.108 10.7682 237.217 10.943 237.108 11.2269L236.671 12.3189H242.634C242.896 12.3189 243.049 12.4718 243.049 12.7338V15.442C243.049 15.7041 242.896 15.857 242.634 15.857H235.099L234.531 17.0145C234.968 16.9053 235.448 16.8398 235.907 16.8398C237.174 16.8398 238.484 17.2984 239.401 18.3249L243.355 16.8834C243.617 16.7961 243.813 16.8834 243.901 17.1237L244.949 19.9192C245.036 20.1813 244.949 20.3778 244.687 20.4434L240.69 21.6009C240.712 21.8411 240.734 22.0814 240.734 22.3434C240.734 22.9331 240.668 23.5665 240.559 24.2435C240.515 24.5056 240.362 24.6366 240.122 24.6366L237.261 24.6585C236.977 24.6585 236.824 24.4838 236.89 24.178C236.999 23.6975 237.043 23.2389 237.065 22.8458C236.431 23.1078 234.75 23.8941 234.75 24.7677C234.75 25.139 235.077 25.4229 235.711 25.5758C236.235 25.7068 236.955 25.7505 237.807 25.7505C239.38 25.7505 241.367 25.5539 243.202 25.2482H243.311C243.529 25.2482 243.638 25.3792 243.638 25.5976L243.595 28.5679C243.595 28.8299 243.442 28.9828 243.18 29.0047C241.454 29.2012 239.926 29.3104 238.462 29.3104C237.392 29.3104 236.366 29.2449 235.361 29.1357Z" fill="white"/>
<path d="M221.09 28.3712C220.325 28.5896 219.583 28.6769 218.884 28.6769C216.175 28.6769 214.123 27.1263 214.079 24.2216C214.035 21.8629 214.406 19.4823 214.494 17.4512C214.516 16.927 214.297 16.6213 213.97 16.6213C213.096 16.6213 210.497 19.2421 209.929 19.8536C209.864 22.8675 209.842 26.0343 209.929 28.8517C209.929 29.1356 209.798 29.2885 209.514 29.2885H206.304C206.02 29.2885 205.889 29.1574 205.889 28.8953L205.933 25.1389C205.474 25.9688 204.993 26.7332 204.491 27.4102C204.404 27.5413 204.295 27.6068 204.185 27.6068C204.098 27.6068 203.989 27.5413 203.901 27.4539L201.63 25.0733C201.543 24.986 201.499 24.8768 201.499 24.7894C201.499 24.6802 201.543 24.5929 201.63 24.4837C203.224 22.6709 204.972 20.3777 206.042 18.434L206.064 17.5604L202.416 17.6259C202.154 17.6259 202.001 17.473 202.001 17.2109V14.4154C202.001 14.1533 202.132 14.0005 202.416 14.0005L206.107 13.9349L206.129 10.5716C206.129 10.3095 206.282 10.1785 206.544 10.1785H209.776C210.038 10.1785 210.17 10.3313 210.17 10.5934L210.038 14.8959C211.48 13.7602 212.921 12.6464 214.865 12.6464C216.853 12.6464 218.512 13.9349 218.556 16.3373C218.6 18.5432 218.097 21.2295 218.119 23.348C218.119 24.1124 218.578 24.5273 219.386 24.5273C219.823 24.5273 220.369 24.3963 221.002 24.1561C221.308 24.0469 221.504 24.1561 221.504 24.4618L221.461 27.9125C221.461 28.1528 221.33 28.3057 221.09 28.3712Z" fill="white"/>
<path d="M178.894 20.6618C178.938 20.4216 179.091 20.3124 179.331 20.4216L182.192 21.7101C182.389 21.7975 182.454 21.9504 182.411 22.1469C181.93 24.6148 181.078 27.2575 180.139 29.3104C180.052 29.5288 179.877 29.5725 179.681 29.4633L176.688 27.9127C176.492 27.8035 176.448 27.6288 176.557 27.4322C177.737 25.3574 178.458 23.0205 178.894 20.6618ZM186.342 20.2032C186.56 20.2032 186.691 20.3342 186.691 20.5526V21.6883C186.691 25.4229 186.189 27.6943 184.223 29.7036C184.136 29.7909 184.049 29.8346 183.961 29.8346C183.874 29.8346 183.786 29.7909 183.721 29.7472L181.297 28.0437C181.188 27.9564 181.122 27.8908 181.122 27.8035C181.122 27.7161 181.188 27.6288 181.297 27.5414C183.131 26.1 183.503 24.047 183.503 21.7101V20.5526C183.503 20.3342 183.634 20.2032 183.852 20.2032H186.342ZM190.055 20.2032C190.273 20.2032 190.404 20.3342 190.404 20.5526V29.376C190.404 29.5944 190.273 29.7254 190.055 29.7254H187.63C187.412 29.7254 187.281 29.5944 187.281 29.376V20.5526C187.281 20.3342 187.412 20.2032 187.63 20.2032H190.055ZM182.236 16.6432C182.345 16.7306 182.389 16.818 182.389 16.9053C182.389 16.9708 182.367 17.0582 182.301 17.1456L180.532 19.8319C180.445 19.9411 180.379 20.0066 180.27 20.0066C180.205 20.0066 180.139 19.9629 180.052 19.8974C179.113 19.0456 177.977 18.3031 176.667 17.8008C176.514 17.7352 176.448 17.6479 176.448 17.5387C176.448 17.4732 176.47 17.4076 176.514 17.3421L178.217 14.8742C178.326 14.6995 178.479 14.634 178.698 14.7213C179.986 15.18 181.144 15.7915 182.236 16.6432ZM191.037 9.43604C191.256 9.43604 191.387 9.56707 191.387 9.78547V10.9212H195.886C196.104 10.9212 196.235 11.0522 196.235 11.2706V14.0006C196.235 14.219 196.104 14.35 195.886 14.35H193.898C195.012 15.5731 196.061 17.1674 196.738 18.7617C196.825 18.9801 196.759 19.133 196.563 19.2204L194.16 20.2687C194.248 20.3342 194.292 20.4216 194.292 20.5526V26.0781C194.292 26.2528 194.335 26.2747 194.488 26.2965H194.685C194.881 26.2528 195.012 26.1 195.034 23.7631C195.034 23.4573 195.209 23.3481 195.449 23.4573L197 24.178C197.174 24.2654 197.262 24.3964 197.262 24.593C197.174 28.7863 196.869 29.5944 194.226 29.7254H193.396C191.714 29.6817 191.081 29.2012 191.081 27.6069V20.5526C191.081 20.3342 191.212 20.2032 191.43 20.2032H193.396C193.265 19.8537 193.09 19.5043 192.937 19.1548C190.12 19.5698 186.167 19.8319 183.175 19.8537C182.957 19.8537 182.826 19.7445 182.804 19.5261L182.454 16.7306C182.454 16.4248 182.694 16.3812 182.957 16.3812H183L183.939 16.403C184.507 15.726 184.966 15.0489 185.315 14.35H182.804C182.585 14.35 182.454 14.219 182.454 14.0006V12.45L180.794 14.634C180.707 14.7432 180.642 14.7868 180.554 14.7868C180.467 14.7868 180.401 14.7432 180.314 14.6776C179.397 13.8259 178.217 13.0833 177.06 12.581C176.929 12.5155 176.841 12.4281 176.841 12.3189C176.841 12.2534 176.863 12.166 176.929 12.1005L178.763 9.65443C178.872 9.50155 179.025 9.43604 179.222 9.50155C180.314 9.89467 181.515 10.5499 182.454 11.3143V11.2706C182.454 11.0522 182.585 10.9212 182.804 10.9212H187.084V9.78547C187.084 9.56707 187.215 9.43604 187.434 9.43604H191.037ZM189.443 14.35C189.094 15.0926 188.679 15.7915 188.22 16.3812C189.334 16.3375 190.382 16.272 191.256 16.1846L190.775 15.5512C190.71 15.4857 190.688 15.3984 190.688 15.3328C190.688 15.2236 190.753 15.1363 190.906 15.0926L192.981 14.35H189.443Z" fill="white"/>
<path d="M163.017 28.6552C162.777 28.6771 162.624 28.5679 162.537 28.3276L161.357 25.2482C161.248 24.9643 161.379 24.7895 161.707 24.7677C166.118 24.5493 167.604 22.0814 167.604 19.7663C167.604 17.5387 166.359 15.6823 164.218 14.9397C164.022 18.1065 162.471 22.8021 160.462 25.7287C159.741 26.7988 158.496 27.3448 157.23 27.3448C153.801 27.3448 152.01 23.7849 152.01 20.7491C152.01 18.172 153.167 15.3328 155.963 13.1707C157.666 11.8384 159.916 11.1614 162.144 11.1614C167.429 11.1614 171.644 14.7868 171.644 20.1158C171.644 24.6585 168.084 28.3495 163.017 28.6552ZM160.243 14.8742C157.797 15.5949 155.788 18.0191 155.788 20.6181C155.788 21.4917 156.028 22.3216 156.574 22.9768C156.705 23.1297 156.88 23.2171 157.055 23.2171C157.251 23.2171 157.47 23.1079 157.623 22.8676C158.955 20.8802 160.134 17.08 160.243 14.8742Z" fill="white"/>
<path d="M143.143 15.6168C141.374 15.857 139.299 15.988 137.202 15.988C134.931 15.988 132.594 15.8352 130.497 15.5731C130.235 15.5294 130.104 15.3765 130.126 15.1144L130.323 12.0568C130.344 11.7729 130.497 11.6419 130.781 11.6637C132.769 11.8821 135.04 12.035 137.333 12.035C139.168 12.035 141.046 11.9476 142.793 11.7292C143.055 11.7074 143.23 11.8166 143.252 12.1005L143.492 15.1581C143.514 15.4202 143.405 15.5731 143.143 15.6168ZM133.555 28.5679C130.607 27.9564 129.252 26.0126 129.252 23.9378C129.252 23.0642 129.493 22.1688 129.951 21.3388C130.061 21.1204 130.235 21.0549 130.475 21.0986L133.227 21.6664C133.533 21.732 133.599 21.9285 133.468 22.1906C133.293 22.54 133.205 22.8895 133.205 23.1952C133.205 25.0298 135.914 25.0298 137.202 25.0298C139.495 25.0298 142.247 24.593 144.453 24.0033C144.737 23.916 144.912 24.0688 144.912 24.3528L144.89 27.738C144.89 27.9782 144.781 28.1311 144.54 28.1966C142.619 28.6989 140.238 28.9828 137.967 28.9828C136.394 28.9828 134.843 28.8518 133.555 28.5679Z" fill="white"/>
<path d="M268.713 45.0126C268.713 44.7509 268.56 44.6201 268.298 44.62C263.471 44.7292 255.652 44.7294 251.044 44.7294C250.782 44.7295 250.651 44.8824 250.651 45.1445L250.717 48.3105C250.717 48.5588 250.833 48.6906 251.038 48.7197L251.132 48.7255C253.687 48.6818 256.788 48.5297 259.256 48.4423C256.723 49.7527 255.019 52.5041 255.019 55.1904C255.019 58.5545 257.684 61.8369 264.8 62.1181L265.502 62.1357C265.731 62.1357 265.877 62.052 265.939 61.8554L265.961 61.7646L266.572 58.3574V58.248C266.572 58.0515 266.441 57.9208 266.179 57.9208C261.374 58.0081 259.343 56.4787 259.343 54.6005C259.343 51.6741 263.777 49.1405 266.463 48.7255C267.053 48.6163 267.664 48.5507 268.319 48.5507C268.581 48.5507 268.713 48.3984 268.713 48.1367V45.0126ZM265.371 50.7568C265.218 50.5603 265.043 50.5386 264.825 50.6259L263.536 51.1279C263.383 51.1934 263.296 51.3029 263.296 51.412C263.296 51.4994 263.34 51.587 263.405 51.6962C264.082 52.5916 264.672 53.727 265.065 54.8408L265.103 54.9247C265.198 55.105 265.361 55.1765 265.59 55.081L267.031 54.4911C267.271 54.4037 267.359 54.2076 267.271 53.9677C266.835 52.8975 266.048 51.543 265.371 50.7568ZM268.319 49.6435C268.167 49.4688 267.97 49.4469 267.752 49.5341L266.528 50.0361C266.354 50.1015 266.267 50.2109 266.267 50.3417C266.267 50.4291 266.31 50.5171 266.376 50.6044C266.987 51.3906 267.686 52.6351 268.079 53.6396C268.166 53.8798 268.341 53.989 268.604 53.8798L269.979 53.3339C270.22 53.2465 270.307 53.0497 270.22 52.8095C269.848 51.8049 269.018 50.4297 268.319 49.6435ZM261.673 54.6318C261.675 54.6381 261.679 54.6426 261.684 54.6503C261.702 54.6782 261.792 54.8007 262.076 54.956C262.241 55.0462 262.454 55.1346 262.72 55.2187C262.52 54.7223 262.278 54.2361 262.016 53.7978C261.755 54.1622 261.671 54.4427 261.671 54.6005L261.673 54.6318ZM271.04 48.1367L271.033 48.331C271.018 48.5691 270.968 48.8466 270.861 49.1357C271.486 50.039 272.071 51.1055 272.402 52.0029L272.407 52.0146C272.604 52.5567 272.693 53.3176 272.341 54.0927C271.998 54.847 271.387 55.2801 270.837 55.495L270.838 55.497L269.462 56.0429L269.461 56.0419C269.221 56.1378 268.932 56.2138 268.612 56.2382C268.49 56.3345 268.365 56.4187 268.238 56.4892C268.722 57.032 268.899 57.69 268.899 58.248V58.3574L268.891 58.5634C268.885 58.6321 268.875 58.7005 268.863 58.7685L268.251 62.1747C268.161 62.6855 267.903 63.3651 267.251 63.8779C266.616 64.3768 265.927 64.4628 265.502 64.4628H265.476C261.347 64.4156 258.168 63.4776 255.968 61.7714C253.707 60.0186 252.691 57.6115 252.691 55.1904C252.691 53.7374 253.054 52.2964 253.702 50.9833C252.829 51.013 251.971 51.039 251.171 51.0527C251.158 51.0529 251.145 51.0536 251.132 51.0536C250.643 51.0536 249.866 50.9302 249.213 50.3027C248.563 49.6773 248.398 48.9028 248.39 48.3583V48.3593L248.324 45.1923C248.324 45.1764 248.323 45.1604 248.323 45.1445C248.323 44.655 248.446 43.9023 249.039 43.2597C249.661 42.5856 250.457 42.4013 251.044 42.4013C255.663 42.4013 263.451 42.4014 268.245 42.2929C268.263 42.2925 268.28 42.2929 268.298 42.2929C268.787 42.2929 269.539 42.4149 270.182 43.0077C270.856 43.6299 271.04 44.4259 271.04 45.0126V48.1367Z" fill="#262626"/>
<path d="M243.4 55.3965C243.869 55.3965 244.678 55.5162 245.332 56.2031C245.964 56.8668 246.056 57.6486 246.056 58.0732C246.056 58.0888 246.056 58.1046 246.056 58.1201L245.99 61.3955L245.988 61.3945C245.98 61.911 245.836 62.6203 245.274 63.2285C244.727 63.8218 244.061 64.0139 243.652 64.082C243.633 64.0853 243.613 64.088 243.593 64.0908C241.354 64.4042 239.161 64.6162 237.133 64.6162C235.16 64.6162 233.258 64.4329 231.518 63.9355L231.172 63.832L231.171 63.8311C227.97 62.8235 225.698 60.0904 225.698 56.7627C225.698 54.0908 227.154 51.536 229.817 49.5947C229.567 47.9928 229.508 46.3459 229.486 44.8174L229.477 43.9424C229.476 43.9353 229.477 43.928 229.477 43.9209C229.477 43.4671 229.578 42.6432 230.259 41.9619C230.94 41.2805 231.765 41.1787 232.219 41.1787V43.5059C231.935 43.5059 231.804 43.6371 231.804 43.9209C231.826 46.2577 231.869 48.6167 232.415 50.6914C229.336 52.4167 228.026 54.7099 228.025 56.7627C228.025 58.9466 229.511 60.8687 231.869 61.6113C233.207 62.0318 234.729 62.2351 236.405 62.2793L237.133 62.2881C239.011 62.2881 241.086 62.0919 243.27 61.7861C243.499 61.7479 243.629 61.6429 243.657 61.4414L243.663 61.3496L243.729 58.0732C243.728 57.8331 243.619 57.7236 243.4 57.7236V55.3965ZM235.801 41.1787C236.388 41.1788 237.183 41.363 237.806 42.0371C238.399 42.6796 238.521 43.4315 238.521 43.9209C238.521 43.9462 238.52 43.9718 238.52 43.9971C238.494 44.7918 238.483 45.51 238.493 46.168C239.465 45.9426 240.473 45.7348 241.483 45.5439L241.533 45.5352C241.959 45.4642 242.665 45.4355 243.38 45.8408C244.017 46.2021 244.358 46.734 244.538 47.1494L244.605 47.3193L244.623 47.3691L245.693 50.5361L245.696 50.5449L245.753 50.7363C245.879 51.2233 245.946 51.983 245.512 52.7549C244.997 53.6702 244.129 53.9892 243.548 54.0801L243.549 54.082C240.585 54.5545 237.988 55.157 236.281 55.8281C236.104 55.8979 235.946 55.9672 235.803 56.0342C236.02 56.0441 236.26 56.0518 236.521 56.0518V58.3789L236.021 58.373C234.956 58.3456 234.019 58.226 233.386 57.9795L233.245 57.9209C232.743 57.6807 232.372 57.1779 232.372 56.5664C232.372 55.671 233.158 54.5575 235.43 53.6621C237.373 52.8978 240.169 52.2637 243.183 51.7832C243.488 51.7395 243.576 51.5432 243.488 51.2812L242.418 48.1143C242.331 47.8742 242.178 47.7865 241.916 47.8301C239.951 48.2013 238.029 48.6387 236.391 49.1191C236.15 47.6122 236.128 45.9302 236.193 43.9209C236.193 43.6917 236.093 43.5465 235.893 43.5137L235.801 43.5059V41.1787ZM243.4 55.3965V57.7236H243.292C241.348 58.0512 238.705 58.3789 236.521 58.3789V56.0518C238.52 56.0517 241.019 55.7467 242.905 55.4287L243.098 55.4043C243.162 55.3989 243.227 55.3965 243.292 55.3965H243.4ZM235.801 41.1787V43.5059H232.219V41.1787H235.801Z" fill="#262626"/>
<path d="M218.225 54.7569C218.847 54.5867 219.782 54.5608 220.607 55.2149C221.43 55.8674 221.611 56.7792 221.611 57.3526C221.611 57.3576 221.611 57.3632 221.611 57.3682L221.59 60.753C221.588 61.2203 221.476 61.8475 221.04 62.4287C220.595 63.0219 220.005 63.3116 219.525 63.4424L219.096 63.5498C217.04 64.044 214.628 64.3106 212.339 64.3106C210.666 64.3105 208.95 64.172 207.455 63.8457V63.8467C207.446 63.8448 207.436 63.8428 207.427 63.8408V63.8399C205.548 63.4448 203.995 62.5851 202.906 61.3194C201.811 60.0466 201.298 58.4927 201.298 56.9375C201.298 55.6702 201.638 54.4218 202.242 53.2979C202.251 53.2808 202.261 53.2642 202.27 53.2471C202.276 53.2359 202.281 53.2241 202.287 53.2129H202.288C202.538 52.751 202.957 52.2714 203.604 51.9883C204.172 51.7399 204.71 51.7332 205.104 51.7842L205.265 51.8086L205.318 51.8194L208.07 52.3867L208.088 52.3906L208.305 52.4463C208.849 52.6079 209.629 53.0087 210.026 53.9463C210.3 54.5905 210.258 55.187 210.143 55.6367C210.269 55.6534 210.408 55.6687 210.56 55.6787C210.908 55.7017 211.248 55.7022 211.575 55.7022V58.0293L211.033 58.0264C209.652 58.0013 207.578 57.8005 207.578 56.1953C207.578 55.8896 207.665 55.5399 207.84 55.1905C207.971 54.9284 207.905 54.7316 207.6 54.666L204.849 54.0987C204.608 54.055 204.433 54.1205 204.324 54.3389C203.866 55.1687 203.625 56.064 203.625 56.9375C203.625 59.0123 204.979 60.9559 207.928 61.5674C209.216 61.8513 210.767 61.9824 212.339 61.9824C214.61 61.9824 216.991 61.6986 218.913 61.1963C219.123 61.139 219.234 61.0152 219.258 60.8242L219.263 60.7383L219.284 57.3526C219.284 57.0689 219.11 56.9159 218.826 57.003L217.975 57.2168C215.939 57.6954 213.582 58.0293 211.575 58.0293V55.7022C213.622 55.7021 216.168 55.3046 218.225 54.7549V54.7569ZM203.312 42.9785C204.022 42.3698 204.832 42.3044 205.332 42.3428L205.408 42.3506C207.326 42.5614 209.512 42.708 211.706 42.708V45.0352L210.848 45.0283C208.85 44.9961 206.893 44.8552 205.154 44.6641C204.87 44.6422 204.717 44.7729 204.695 45.0567L204.499 48.1143C204.477 48.3764 204.608 48.5296 204.87 48.5733C206.705 48.8026 208.723 48.9476 210.721 48.9805L211.575 48.9883C213.41 48.9883 215.227 48.8872 216.838 48.7012L217.516 48.6172C217.778 48.5735 217.887 48.4201 217.865 48.1582L217.625 45.1006C217.603 44.8167 217.428 44.7077 217.166 44.7295C215.419 44.9479 213.541 45.0352 211.706 45.0352V42.708C213.473 42.708 215.25 42.6232 216.877 42.4199L216.973 42.4102C217.425 42.3725 218.187 42.412 218.892 42.9463C219.647 43.5197 219.899 44.325 219.945 44.9219H219.944L220.184 47.9649H220.185C220.223 48.4253 220.178 49.173 219.658 49.8662C219.127 50.5746 218.398 50.8287 217.898 50.9121C217.875 50.916 217.851 50.9197 217.828 50.9229C215.941 51.1791 213.761 51.3154 211.575 51.3155C209.502 51.3155 207.38 51.1934 205.414 50.9795L204.581 50.8828L204.487 50.8692C204.004 50.7886 203.311 50.5511 202.779 49.9033C202.245 49.2526 202.139 48.514 202.177 47.9649H202.176L202.373 44.9072L202.375 44.878C202.414 44.3783 202.601 43.5873 203.312 42.9785Z" fill="#262626"/>
<path d="M180.213 44.0518L180.119 44.0586C179.915 44.0877 179.798 44.2188 179.798 44.4668L179.819 47.4375C179.819 47.6995 179.972 47.83 180.234 47.8301L186.306 47.5898C183.903 49.206 181.217 51.0628 177.111 53.6836C176.958 53.771 176.893 53.9022 176.893 54.0332C176.893 54.0987 176.915 54.1862 176.98 54.2734L178.814 56.8721C178.902 57.0031 179.012 57.0469 179.121 57.0469C179.208 57.0467 179.317 57.0029 179.404 56.9375L182.112 54.8633C184.034 53.5529 185.891 52.9844 187.464 52.9844C189.146 52.9845 191.7 53.8587 191.7 55.8896L191.689 56.125C191.583 57.2779 190.698 58.0233 189.735 58.5762C189.517 55.7807 187.42 54.666 185.345 54.666C183.161 54.6661 180.759 55.9331 180.759 58.3789C180.759 59.6456 181.436 60.9126 182.746 61.7207C183.838 62.3977 185.41 62.7031 187.026 62.7031C188.603 62.7031 190.218 62.3967 191.439 61.8545L191.679 61.7422C194.259 60.4727 195.533 58.3013 195.683 56.1992L195.697 55.7803C195.697 52.2423 192.727 50.0363 189.386 50.0361C189.124 50.0361 188.883 50.0368 188.621 50.0586L192.836 47.4814C192.989 47.3858 193.075 47.2563 193.094 47.0791L193.099 47.001V44.4668C193.099 44.1831 192.945 44.0518 192.661 44.0518V41.7246C193.118 41.7246 193.899 41.8263 194.567 42.4453C195.182 43.0146 195.379 43.717 195.418 44.25L195.426 44.4668V47.001L195.421 47.1641C195.4 47.5511 195.304 47.9828 195.07 48.4062C194.895 48.7232 194.675 48.9759 194.443 49.1768C196.534 50.5263 198.024 52.7725 198.024 55.7803L198.02 56.0752C197.911 59.1208 196.117 62.1525 192.706 63.8311H192.705C191.072 64.6335 188.978 65.0312 187.026 65.0312C185.194 65.0312 183.129 64.6968 181.52 63.6992V63.6982C179.857 62.6711 178.786 61.0708 178.507 59.3027C177.888 59.1577 177.317 58.7914 176.914 58.2139L176.913 58.2148L175.079 55.6152L175.08 55.6143C174.783 55.1982 174.613 54.7245 174.574 54.2471L174.565 54.0332L174.572 53.8477C174.632 52.967 175.115 52.1874 175.859 51.7217L177.323 50.7812C177.851 50.44 178.352 50.1109 178.832 49.7959C178.669 49.7025 178.506 49.5862 178.351 49.4424C177.682 48.8256 177.495 48.0384 177.492 47.4531V47.4541L177.471 44.4844C177.471 44.4787 177.471 44.4725 177.471 44.4668C177.471 43.9206 177.625 43.1192 178.294 42.4756C178.947 41.8479 179.724 41.7246 180.213 41.7246V44.0518ZM184.864 57.4619C185.563 57.4619 186.349 58.2043 186.24 59.4053C185.519 59.3834 184.122 59.0561 184.122 58.1172C184.122 57.6805 184.471 57.462 184.864 57.4619ZM192.661 41.7246V44.0518H180.213V41.7246H192.661Z" fill="#262626"/>
<path d="M154.812 54.0332C154.812 53.0283 155.005 52.0601 155.387 51.1846H153.951C153.37 51.1845 152.613 51.0064 152 50.3936C151.387 49.7807 151.209 49.0233 151.209 48.4424V45.4932C151.209 44.9122 151.387 44.1548 152 43.542C152.613 42.9291 153.37 42.7511 153.951 42.751V45.0791L153.858 45.0859C153.654 45.1188 153.536 45.2641 153.536 45.4932V48.4424C153.536 48.6714 153.654 48.8167 153.858 48.8496L153.951 48.8574H162.163L162.186 49.8184C161.924 49.7747 161.639 49.752 161.355 49.752C158.844 49.752 157.141 51.4998 157.141 54.0332L157.145 54.248C157.234 56.4541 158.7 58.0732 161.006 58.0732C161.705 58.0732 162.382 57.8985 162.841 57.5928C162.164 58.4882 160.045 59.0126 156.878 59.0781L156.765 59.0879C156.522 59.1336 156.439 59.3318 156.572 59.5801L158.123 62.6602C158.232 62.8783 158.385 62.9651 158.625 62.9434C163.233 62.5939 166.313 59.886 166.728 56.6318C166.777 56.2879 166.801 55.9685 166.811 55.6553L166.815 55.3438C166.815 54.0991 166.553 53.0944 166.226 52.3955L166.247 48.8574H171.664L171.757 48.8496C171.932 48.8215 172.043 48.7107 172.071 48.5352L172.079 48.4424V45.4932C172.079 45.2641 171.962 45.1188 171.757 45.0859L171.664 45.0791V42.751C172.245 42.751 173.002 42.9291 173.615 43.542C174.152 44.0785 174.355 44.7259 174.397 45.2686L174.406 45.4932V48.4424L174.397 48.668C174.355 49.2105 174.151 49.8573 173.615 50.3936C173.002 51.0064 172.245 51.1845 171.664 51.1846H168.561L168.556 51.9434C168.911 52.8864 169.143 54.0383 169.143 55.3438L169.138 55.7256C169.127 56.103 169.096 56.4984 169.036 56.9258C168.444 61.5718 164.19 64.8424 158.835 65.2607L158.836 65.2617C158.833 65.262 158.83 65.2615 158.827 65.2617C158.819 65.2624 158.809 65.263 158.801 65.2637C158.36 65.2987 157.769 65.2519 157.178 64.917C156.579 64.5776 156.236 64.0878 156.044 63.7061L154.494 60.627L154.495 60.626C154.208 60.0608 153.936 59.0377 154.555 58.0166C154.818 57.5822 155.157 57.2913 155.507 57.0986C155.04 56.1595 154.813 55.1068 154.812 54.0332ZM161.661 54.2246L161.727 54.2637V54.2051L161.661 54.1602V54.2246ZM161.554 54.1611L161.661 54.2246V54.1602L161.599 54.1162L161.554 54.1611ZM161.661 54.0547V54.1602L161.727 54.2051V53.9893L161.661 54.0547ZM161.599 54.1162L161.661 54.1602V54.0547L161.599 54.1162ZM161.661 53.46V53.4756L161.674 53.4824L161.727 53.4648V53.4346L161.661 53.46ZM161.727 53.4346V53.4648L162.348 53.2578L162.469 53.1377L161.727 53.4346ZM165.854 40.7197C166.344 40.7197 167.096 40.8426 167.738 41.4355C168.172 41.836 168.401 42.3088 168.511 42.751H171.664V45.0791H166.27V43.4404C166.269 43.2112 166.152 43.0823 165.947 43.0537L165.854 43.0479V40.7197ZM162.469 43.0479L162.376 43.0537C162.171 43.0827 162.055 43.2145 162.055 43.4629L162.098 45.0791H153.951V42.751H159.813C159.918 42.3293 160.135 41.8695 160.55 41.4707C161.202 40.8431 161.979 40.7198 162.469 40.7197V43.0479ZM165.854 40.7197V43.0479H162.469V40.7197H165.854ZM162.582 54.0537L161.996 53.7188L161.727 53.9893V54.2637L161.554 54.1611L161.023 54.6914C160.842 54.4732 160.766 54.1552 160.766 53.8369C160.766 53.8196 160.768 53.8017 160.769 53.7842L161.615 53.502L160.94 53.1162L161.661 53.4756V53.46L162.469 53.1377L162.348 53.2578L162.513 53.2031L162.047 53.668L162.592 53.9414C162.589 53.9783 162.587 54.0158 162.582 54.0537Z" fill="#262626"/>
<path d="M143.381 40.2832C143.949 40.2832 144.671 40.4249 145.296 40.9795L145.42 41.0957L145.454 41.1309C146.193 41.9013 147.355 42.7478 148.769 43.3037L149.055 43.4102L149.138 43.4414L149.283 43.5049C149.658 43.6779 150.254 44.047 150.6 44.7969C150.99 45.6434 150.811 46.419 150.654 46.8389L150.655 46.8398L149.634 49.6279C149.914 50.0986 150.011 50.6008 150.011 51.0195V57.2432C150.011 57.3706 150 57.5058 149.98 57.6455C150.124 57.7952 150.26 57.9707 150.376 58.1797C150.873 59.075 150.691 59.9455 150.526 60.3975C150.516 60.4269 150.504 60.4564 150.492 60.4854L149.247 63.5215C149.239 63.5421 149.23 63.5626 149.221 63.583C149.036 63.998 148.648 64.604 147.894 64.9541C147.147 65.3007 146.417 65.2229 145.883 65.0352V65.0371C144.636 64.6112 143.495 64.0159 142.5 63.2061C141.332 64.179 139.967 64.8029 138.52 65.1436C138.494 65.1495 138.469 65.1551 138.443 65.1602C137.945 65.2599 137.257 65.2586 136.58 64.8828C136.481 64.828 136.391 64.7661 136.305 64.7031C135.361 65.155 134.313 65.249 133.378 65.249C132.97 65.249 132.339 65.1674 131.741 64.7256C131.428 64.4938 131.209 64.2247 131.055 63.9717C130.928 64.1134 130.779 64.249 130.603 64.3711C129.81 64.9198 128.968 64.8765 128.434 64.7432V64.7451L127.276 64.4619V64.459C126.718 64.3257 126.038 63.9825 125.6 63.2432C125.188 62.549 125.199 61.8523 125.27 61.4102H125.269C125.475 60.0712 125.546 58.6896 125.508 57.3643L125.485 56.7998C125.483 56.7586 125.482 56.7171 125.482 56.6758C125.482 56.4815 125.49 55.9447 125.787 55.376V43.2227C125.787 42.6469 125.969 41.9128 126.562 41.3203C127.154 40.7279 127.888 40.546 128.464 40.5459V42.873L128.387 42.8789C128.215 42.9069 128.115 43.0315 128.115 43.2227V55.4961C128.115 55.7144 128.246 55.8455 128.464 55.8457H134.056V58.0078C133.968 57.44 133.837 56.8502 133.641 56.3916C133.575 56.2169 133.422 56.1952 133.203 56.2607L133.072 56.3047C132.854 56.3703 132.789 56.5445 132.876 56.7627C133.073 57.3087 133.204 57.8989 133.291 58.5322C133.313 58.7941 133.488 58.9033 133.728 58.7725L133.858 58.707C133.946 58.6634 134.012 58.5977 134.056 58.5322C134.056 59.4712 133.968 59.6461 132.985 59.668C132.898 58.7071 132.68 57.5494 132.44 56.6104C132.374 56.392 132.243 56.3047 132.025 56.3701L131.784 56.4141C131.566 56.4795 131.478 56.61 131.522 56.8281C131.762 57.9201 131.871 59.1003 131.871 60.2578C131.871 60.5196 132.025 60.6283 132.265 60.541L132.985 62.6377C133.051 62.8341 133.16 62.9218 133.378 62.9219C135.758 62.9219 136.349 62.1576 136.589 60.0176L137.55 62.6377C137.615 62.8342 137.768 62.9215 137.986 62.8779C139.843 62.4412 141.416 61.4589 142.464 59.7119C143.447 61.2404 144.844 62.2235 146.635 62.835C146.853 62.9223 147.006 62.8343 147.094 62.6377L148.339 59.6025C148.426 59.3623 148.339 59.2087 148.099 59.165C146.832 58.9466 145.653 58.4445 144.735 57.5928H147.334C147.552 57.5928 147.684 57.4616 147.684 57.2432V51.0195C147.684 50.8011 147.552 50.6699 147.334 50.6699H144.298V49.9053H145.762C145.98 49.9052 146.111 49.774 146.111 49.5557V48.8789L146.875 49.3154C147.072 49.4246 147.247 49.359 147.334 49.1406L148.47 46.04C148.557 45.8217 148.492 45.6899 148.274 45.6025C146.374 44.9256 144.801 43.8122 143.775 42.7422C143.687 42.6548 143.578 42.6104 143.381 42.6104V40.2832ZM128.115 56.3262C127.875 56.3262 127.81 56.4574 127.81 56.6758C127.897 58.3137 127.832 60.0612 127.569 61.7646C127.526 62.0048 127.613 62.1575 127.831 62.2012L128.988 62.4854C129.229 62.5509 129.382 62.4414 129.403 62.2012C129.556 60.4103 129.556 58.488 129.469 56.7627C129.447 56.5445 129.338 56.4359 129.119 56.4141L128.158 56.3262H128.115ZM130.649 56.4141L130.233 56.4795C130.015 56.5232 129.906 56.6538 129.928 56.8721C130.124 58.2479 130.125 59.7986 130.037 61.2617C130.015 61.502 130.168 61.6335 130.408 61.5898L131.064 61.4805C131.26 61.4586 131.369 61.3276 131.369 61.1094C131.391 59.6679 131.282 58.0732 131.064 56.6973C131.02 56.479 130.889 56.3704 130.649 56.4141ZM136.239 45.8428C136.218 45.9082 136.218 45.9957 136.239 46.083L137.288 49.1846C137.354 49.4029 137.528 49.4682 137.725 49.3809C138.074 49.2062 138.424 49.0097 138.795 48.7695V49.5557C138.795 49.7741 138.926 49.9053 139.145 49.9053H140.608V50.6699H137.681C137.462 50.67 137.331 50.8012 137.331 51.0195V57.2432C137.331 57.4615 137.462 57.5927 137.681 57.5928H140.106C139.341 58.51 138.162 58.9692 136.698 59.1221H136.654L136.676 58.8818C136.785 57.0691 136.763 55.2339 136.785 53.4648C136.785 53.2467 136.654 53.1162 136.436 53.1162H135.148V52.0889H136.218C136.436 52.0888 136.567 51.9583 136.567 51.7402V50.2988C136.567 50.0805 136.436 49.9493 136.218 49.9492H135.148V48.9443H136.021C136.239 48.9443 136.37 48.8131 136.37 48.5947V47.2412C136.37 47.0228 136.239 46.8916 136.021 46.8916H135.148V45.8428H136.239ZM141.132 53.3125V54.9062H140.106V53.3125H141.132ZM144.845 53.3125V54.9062H143.796V53.3125H144.845ZM132.526 52.0889V53.1162H131.369V52.0889H132.526ZM132.526 48.9443V49.9492H131.369V48.9443H132.526ZM142.245 45.7998C142.704 46.3239 143.272 46.8256 143.84 47.2842H140.782C141.328 46.8039 141.852 46.3019 142.245 45.7998ZM132.526 45.8428V46.8916H131.369V45.8428H132.526ZM140.913 40.2832V42.6104C140.738 42.6104 140.607 42.6766 140.498 42.8076L140.184 43.1621C139.403 43.9924 138.309 44.833 137.048 45.4062V43.2227C137.048 43.0314 136.947 42.9069 136.775 42.8789L136.698 42.873V40.5459C137.274 40.546 138.008 40.7278 138.601 41.3203C138.62 41.3392 138.637 41.3588 138.655 41.3779C138.675 41.3557 138.696 41.3355 138.714 41.3135C139.244 40.6794 140.017 40.2832 140.913 40.2832ZM136.698 40.5459V42.873H128.464V40.5459H136.698ZM143.381 40.2832V42.6104H140.913V40.2832H143.381Z" fill="#262626"/>
<path d="M113.618 62.6719C113.642 62.8433 113.75 62.9433 113.941 62.9434H117.238C117.43 62.9434 117.554 62.8434 117.582 62.6719L117.588 62.5947L117.523 60.0176H119.401C119.619 60.0176 119.75 59.8862 119.75 59.668V57.6582C120.252 58.4663 120.755 59.2091 121.235 59.7988C121.323 59.8861 121.388 59.9297 121.476 59.9297C121.563 59.9296 121.65 59.864 121.716 59.7549L123.551 56.6543C123.573 56.6216 123.589 56.5831 123.6 56.5449L123.616 56.4355C123.616 56.3701 123.591 56.3047 123.542 56.2393L123.484 56.1738C121.606 54.2956 120.1 52.0454 118.877 49.3154H122.327C122.537 49.3154 122.648 49.2153 122.672 49.0439L122.677 48.9658V45.9736C122.677 45.7828 122.593 45.6589 122.411 45.6309L122.327 45.625V43.2969C122.86 43.2969 123.646 43.4505 124.276 44.1104C124.887 44.7505 125.004 45.5064 125.004 45.9736V48.9658C125.004 49.433 124.887 50.1898 124.276 50.8301C123.802 51.3263 123.24 51.5349 122.764 51.6084C123.393 52.5642 124.076 53.4282 124.824 54.2139L125.131 54.5273C125.451 54.847 125.885 55.4337 125.938 56.2656L125.943 56.4355L125.937 56.6162C125.91 57.0093 125.791 57.4379 125.551 57.8369L125.554 57.8389L123.719 60.9404C123.717 60.9443 123.714 60.9483 123.712 60.9521C123.463 61.3664 122.755 62.2568 121.476 62.2568C121.125 62.2568 120.82 62.1869 120.562 62.0879C120.343 62.1901 120.122 62.2556 119.908 62.2949L119.915 62.5352C119.916 62.5549 119.915 62.575 119.915 62.5947L119.906 62.8174C119.863 63.3517 119.659 63.9787 119.141 64.4971C118.548 65.0894 117.814 65.2715 117.238 65.2715H113.941C113.357 65.2714 112.577 65.0814 111.973 64.417C111.402 63.7894 111.286 63.0621 111.286 62.5947C111.286 62.575 111.286 62.5549 111.286 62.5352L111.291 62.3047C111.095 62.2724 110.887 62.2149 110.676 62.126C110.578 62.1616 110.477 62.1918 110.371 62.2158V62.5947L110.365 62.7822C110.335 63.2487 110.178 63.8977 109.643 64.458C109.013 65.1179 108.227 65.2715 107.694 65.2715H104.877C104.344 65.2715 103.559 65.118 102.929 64.458C102.318 63.8179 102.2 63.062 102.2 62.5947V55.9072C101.985 55.7657 101.809 55.6052 101.677 55.4551C101.343 55.0766 101.175 54.6684 101.089 54.3662L101.06 54.2549L100.099 50.127L100.1 50.126C99.8759 49.1785 100.155 48.2897 100.687 47.6514L100.752 47.5762C101.925 46.2845 102.834 44.3773 103.386 42.2109C103.394 42.1793 103.403 42.1475 103.412 42.1162C103.534 41.7121 103.826 41.0506 104.537 40.5957C105.183 40.1823 105.845 40.148 106.321 40.21L106.513 40.2412L109.57 40.8525H109.569C110.082 40.9534 110.848 41.2537 111.342 42.0566C111.345 42.0616 111.348 42.0673 111.351 42.0723C111.455 41.6624 111.666 41.2339 112.038 40.8613C112.631 40.2688 113.365 40.087 113.941 40.0869V42.4141C113.722 42.4142 113.591 42.5454 113.591 42.7637V45.625H109.245C109.005 45.625 108.896 45.7555 108.896 45.9736V48.9658C108.896 49.1842 109.005 49.3154 109.245 49.3154H112.237C111.211 51.8489 109.682 54.186 108.044 55.9551V47.459C108.612 46.1705 109.027 44.882 109.376 43.5498C109.433 43.3588 109.374 43.2178 109.197 43.1562L109.114 43.1348L106.057 42.5234C105.838 42.4798 105.707 42.567 105.642 42.7852C105.03 45.1875 103.982 47.4808 102.475 49.1406C102.366 49.2717 102.322 49.4249 102.365 49.5996L103.326 53.7275C103.37 53.8802 103.457 53.9891 103.567 53.9893C103.632 53.9893 103.698 53.9458 103.785 53.8584C104.004 53.6182 104.265 53.3123 104.527 52.9629V62.5947C104.528 62.8128 104.637 62.9433 104.877 62.9434H107.694C107.905 62.9434 108.015 62.8434 108.039 62.6719L108.044 62.5947V57.0029L109.551 59.7549C109.616 59.8857 109.704 59.952 109.813 59.9521C109.878 59.9521 109.966 59.9077 110.031 59.8203C110.468 59.2743 110.927 58.5752 111.407 57.7891V59.668C111.407 59.8862 111.517 60.0176 111.757 60.0176H113.679L113.613 62.5947L113.618 62.6719ZM113.744 56.3916H112.216C112.784 55.3435 113.329 54.2515 113.81 53.2471L113.744 56.3916ZM117.348 53.1162C117.828 54.1644 118.396 55.3216 119.008 56.3916H117.436L117.348 53.1162ZM117.588 42.7637C117.588 42.5453 117.457 42.4141 117.238 42.4141V40.0869C117.814 40.0869 118.548 40.2688 119.141 40.8613C119.659 41.3799 119.863 42.0066 119.906 42.541L119.915 42.7637V43.2969H122.327V45.625H117.588V42.7637ZM117.238 40.0869V42.4141H113.941V40.0869H117.238Z" fill="#262626"/>
<path d="M243.049 12.7335C243.049 12.5043 242.932 12.359 242.727 12.3263L242.634 12.3194V9.99132C243.215 9.99132 243.972 10.1696 244.585 10.7823C245.198 11.3952 245.376 12.1526 245.376 12.7335V15.2423C245.721 15.5658 245.946 15.9508 246.079 16.3067H246.08L247.128 19.1017L247.157 19.1837L247.215 19.379C247.341 19.8654 247.389 20.5563 247.043 21.2706C246.641 22.0986 245.928 22.5086 245.333 22.6769L245.334 22.6788L244.097 23.0362C244.501 23.156 244.92 23.3818 245.278 23.7755C245.849 24.4033 245.966 25.1304 245.966 25.5978C245.966 25.6092 245.966 25.6206 245.966 25.6319L245.922 28.6026L245.92 28.6017C245.913 29.1887 245.727 29.9031 245.162 30.4903C244.623 31.0497 243.965 31.2595 243.442 31.3155L243.443 31.3175C241.663 31.5203 240.041 31.6378 238.463 31.6378C237.297 31.6378 236.185 31.5662 235.109 31.4493H235.104C233.24 31.2421 231.618 30.573 230.434 29.4454C229.521 28.5764 228.937 27.4952 228.709 26.3292C228.455 26.2406 228.235 26.1265 228.058 26.0099L227.915 25.9093L227.874 25.878L225.537 24.0431C225.532 24.0387 225.526 24.0338 225.521 24.0294C225.109 23.7004 224.548 23.0535 224.479 22.1017L224.473 21.9064L224.477 21.7599C224.516 21.0584 224.832 20.4519 225.244 20.0216L225.243 20.0206C225.857 19.3736 226.447 18.6836 226.991 17.9806C226.683 17.8576 226.373 17.6725 226.094 17.3937C225.481 16.7808 225.303 16.0234 225.303 15.4425V12.7335C225.303 12.1526 225.481 11.3952 226.094 10.7823C226.707 10.1696 227.464 9.99132 228.045 9.99132V12.3194L227.952 12.3263C227.747 12.359 227.63 12.5043 227.63 12.7335V15.4425C227.63 15.6717 227.747 15.817 227.952 15.8497L228.045 15.8575H231.103C230.12 17.8449 228.569 19.8979 226.931 21.6232L226.874 21.6915C226.825 21.7631 226.8 21.8408 226.8 21.9064C226.8 22.0155 226.866 22.1247 226.975 22.212L229.312 24.047C229.399 24.1125 229.508 24.1564 229.596 24.1564C229.705 24.1562 229.814 24.0907 229.901 23.9816L231.648 21.5792C231.692 21.5355 231.714 21.5138 231.758 21.4483C232.675 20.1817 233.876 19.5041 234.902 19.504C235.274 19.504 235.623 19.592 235.929 19.7667C233.701 20.8368 230.928 22.3654 230.928 25.2042C230.928 27.1043 232.413 28.8082 235.361 29.1358C236.115 29.2178 236.881 29.2754 237.668 29.2989L238.463 29.3107C239.926 29.3106 241.455 29.2015 243.18 29.005C243.442 28.9831 243.595 28.8296 243.595 28.5675L243.639 25.5978C243.639 25.3794 243.529 25.2482 243.311 25.2482H243.202C241.368 25.5539 239.38 25.7501 237.808 25.7501C236.956 25.7501 236.235 25.7072 235.711 25.5763C235.078 25.4234 234.75 25.139 234.75 24.7677C234.75 23.8942 236.431 23.108 237.064 22.8458C237.043 23.2389 236.999 23.6974 236.89 24.1778C236.824 24.4836 236.978 24.6583 237.262 24.6583L240.122 24.6368C240.362 24.6368 240.516 24.5054 240.56 24.2433C240.641 23.7357 240.698 23.2525 240.722 22.7941L240.733 22.3439C240.733 22.0818 240.712 21.8409 240.69 21.6007L244.687 20.4435C244.949 20.3779 245.037 20.1811 244.949 19.9191L243.9 17.1241C243.813 16.8839 243.617 16.7965 243.354 16.8839L239.401 18.3253L239.226 18.1388C238.321 17.2426 237.095 16.84 235.907 16.84C235.449 16.84 234.968 16.9056 234.531 17.0148L235.099 15.8575H242.634C242.896 15.8575 243.049 15.7043 243.049 15.4425V12.7335ZM232.049 8.04308C232.764 7.58181 233.543 7.5491 234.159 7.69347L234.16 7.69249L237.371 8.43565C237.384 8.43872 237.398 8.44115 237.411 8.44444C237.898 8.56619 238.701 8.9054 239.172 9.79112C239.207 9.85788 239.238 9.92498 239.267 9.99132H242.634V12.3194H236.672L237.108 11.2267C237.217 10.9431 237.108 10.7688 236.847 10.7032L233.636 9.96007C233.374 9.89465 233.199 10.0258 233.134 10.2657L232.991 10.7403C232.94 10.9034 232.885 11.0713 232.828 11.2433L232.456 12.3194H228.045V9.99132H230.785C230.824 9.86487 230.862 9.74373 230.896 9.62706C231.038 9.12522 231.366 8.48407 232.049 8.04308Z" fill="#262626"/>
<path d="M202.001 17.2109C202.001 17.4729 202.154 17.6259 202.416 17.626L206.063 17.5605L206.042 18.4336C204.972 20.3773 203.224 22.6707 201.63 24.4834C201.543 24.5924 201.499 24.6801 201.499 24.7891C201.499 24.8764 201.543 24.9859 201.63 25.0732L203.901 27.4541C203.989 27.5414 204.098 27.6064 204.186 27.6064C204.295 27.6063 204.404 27.5411 204.491 27.4102C204.993 26.7332 205.474 25.9685 205.933 25.1387L205.889 28.8955C205.889 29.1575 206.02 29.2881 206.304 29.2881H209.515L209.613 29.2812C209.798 29.2529 209.898 29.1403 209.923 28.9521L209.93 28.8516C209.864 26.7385 209.86 24.429 209.89 22.1348L209.93 19.8535C210.498 19.2414 213.096 16.6211 213.97 16.6211C214.297 16.6212 214.516 16.9271 214.494 17.4512C214.407 19.4823 214.035 21.863 214.079 24.2217C214.121 27.0357 216.049 28.5792 218.632 28.6729L218.884 28.6768C219.583 28.6767 220.326 28.5895 221.09 28.3711C221.3 28.3137 221.427 28.1898 221.455 27.999L221.461 27.9131L221.505 24.4619C221.505 24.1562 221.308 24.0471 221.002 24.1562C220.369 24.3965 219.823 24.5273 219.386 24.5273C218.578 24.5273 218.119 24.112 218.119 23.3477C218.097 21.2294 218.599 18.5435 218.556 16.3379C218.513 14.0107 216.955 12.7284 215.051 12.6504L214.865 12.6465C212.921 12.6465 211.48 13.7608 210.038 14.8965L210.17 10.5938C210.17 10.3643 210.069 10.2183 209.868 10.1855L209.776 10.1787V7.85156C210.363 7.85157 211.159 8.03493 211.781 8.70898C212.374 9.35162 212.497 10.1043 212.497 10.5938C212.497 10.6172 212.497 10.6406 212.496 10.6641L212.494 10.7158C213.213 10.4731 214.002 10.3193 214.865 10.3193C216.357 10.3194 217.864 10.8069 219.025 11.8877C220.208 12.9883 220.85 14.5356 220.883 16.291C220.908 17.553 220.777 18.9132 220.662 20.0996C220.6 20.7411 220.543 21.3332 220.503 21.8799C221 21.7548 221.776 21.6893 222.556 22.1523C223.615 22.7811 223.832 23.852 223.832 24.4619C223.832 24.4717 223.832 24.4814 223.832 24.4912L223.788 27.9424L223.786 27.9414C223.781 28.4964 223.618 29.1321 223.164 29.6846C222.727 30.2171 222.176 30.4809 221.728 30.6074L221.729 30.6094C220.737 30.8926 219.778 31.0049 218.884 31.0049C217.101 31.0049 215.322 30.4918 213.948 29.2891C213.162 28.6003 212.579 27.7459 212.212 26.7725C212.216 27.0944 212.222 27.4133 212.229 27.7285L212.256 28.7793C212.257 28.8033 212.257 28.8276 212.257 28.8516L212.251 29.0371C212.223 29.5015 212.078 30.1726 211.536 30.7578C210.886 31.4603 210.061 31.6161 209.515 31.6162H206.304C205.849 31.6162 205.05 31.5146 204.378 30.8691C204.057 30.561 203.858 30.2193 203.737 29.8926C203.37 29.8264 203.086 29.6938 202.913 29.5977C202.713 29.4866 202.54 29.3589 202.394 29.2295L202.256 29.0996L202.218 29.0605L199.946 26.6797L199.947 26.6777C199.534 26.247 199.215 25.6393 199.176 24.9355L199.172 24.7891L199.176 24.6289C199.222 23.8437 199.595 23.3027 199.812 23.0303L199.883 22.9463C200.697 22.0201 201.535 20.9787 202.287 19.9473C201.726 19.922 201.033 19.7306 200.465 19.1621C199.852 18.5491 199.674 17.7919 199.674 17.2109V14.415C199.674 13.9258 199.797 13.1497 200.425 12.4971C201.063 11.8332 201.857 11.6755 202.402 11.6729L203.794 11.6484L203.802 10.5566C203.805 9.97137 203.991 9.1834 204.659 8.56641C205.302 7.97323 206.055 7.85157 206.544 7.85156V10.1787L206.451 10.1846C206.246 10.2131 206.129 10.3421 206.129 10.5713L206.107 13.9346L202.416 14.001C202.132 14.0011 202.001 14.1533 202.001 14.415V17.2109ZM209.776 7.85156V10.1787H206.544V7.85156H209.776Z" fill="#262626"/>
<path d="M187.434 9.43555C187.216 9.43571 187.085 9.56706 187.085 9.78516V10.9209H182.804C182.585 10.921 182.454 11.0522 182.454 11.2705V11.3145C181.515 10.5501 180.314 9.89506 179.222 9.50195C179.025 9.43662 178.873 9.50159 178.764 9.6543L176.929 12.1006C176.863 12.1661 176.842 12.2539 176.842 12.3193C176.842 12.4282 176.929 12.5156 177.06 12.5811L177.494 12.7803C178.508 13.2706 179.512 13.9324 180.314 14.6777C180.402 14.7431 180.467 14.7871 180.555 14.7871C180.642 14.787 180.708 14.7429 180.795 14.6338L182.454 12.4502V14.001C182.454 14.2191 182.586 14.3495 182.804 14.3496H185.315C184.966 15.0485 184.507 15.7263 183.939 16.4033L183 16.3809H182.957C182.695 16.3809 182.454 16.4248 182.454 16.7305L182.804 19.5264C182.826 19.7445 182.957 19.8534 183.175 19.8535C186.167 19.8317 190.12 19.5702 192.938 19.1553C193.09 19.5046 193.265 19.8538 193.396 20.2031H191.431C191.212 20.2031 191.081 20.3344 191.081 20.5527V27.6064C191.081 29.101 191.638 29.6172 193.093 29.7119L193.396 29.7256H194.227L194.695 29.6924C196.906 29.4802 197.18 28.5237 197.262 24.5928C197.262 24.3963 197.175 24.2651 197 24.1777L195.449 23.457C195.209 23.348 195.034 23.4573 195.034 23.7627C195.012 26.0996 194.881 26.2532 194.685 26.2969H194.488L194.394 26.2773C194.342 26.2616 194.314 26.2368 194.301 26.1826L194.292 26.0781V20.5527C194.292 20.4218 194.248 20.3341 194.161 20.2686L196.563 19.2207C196.76 19.1334 196.826 18.98 196.738 18.7617C196.061 17.1674 195.012 15.5726 193.898 14.3496H195.886C196.104 14.3496 196.235 14.2191 196.235 14.001V11.2705C196.235 11.0521 196.104 10.9209 195.886 10.9209V8.59375C196.462 8.59375 197.196 8.77573 197.788 9.36816C198.381 9.96074 198.562 10.6947 198.562 11.2705V14.001L198.554 14.2236C198.513 14.734 198.323 15.327 197.854 15.8311C198.241 16.4874 198.589 17.167 198.88 17.8516L198.898 17.8975L198.965 18.0791C199.112 18.5319 199.201 19.1848 198.923 19.8916C198.601 20.7105 197.968 21.1425 197.509 21.3467C197.504 21.3488 197.499 21.3514 197.494 21.3535L196.952 21.5889L197.98 22.0674C198.001 22.0767 198.021 22.0868 198.041 22.0967C198.407 22.2798 198.836 22.5872 199.157 23.0898C199.484 23.6005 199.59 24.1381 199.59 24.5928C199.59 24.6089 199.589 24.6254 199.589 24.6416C199.567 25.6938 199.531 26.6342 199.433 27.4297C199.337 28.2057 199.16 29.0592 198.73 29.8232C197.666 31.7162 195.745 31.9802 194.342 32.0498C194.304 32.0517 194.265 32.0527 194.227 32.0527H193.396L193.336 32.0518C192.772 32.0371 192.055 31.9824 191.347 31.7314C190.905 31.9685 190.444 32.0527 190.055 32.0527H187.631C187.089 32.0527 186.408 31.8918 185.836 31.3799C185.487 31.7176 184.856 32.162 183.962 32.1621C183.372 32.1621 182.908 31.9611 182.636 31.8096L182.431 31.6836C182.415 31.673 182.398 31.6623 182.383 31.6514L181.651 31.1377C181.392 31.3856 181.061 31.6021 180.641 31.7324C179.791 31.9959 179.055 31.7615 178.61 31.5283V31.5293L175.618 29.9795L175.559 29.9473C175.063 29.6721 174.485 29.1492 174.26 28.3047C174.039 27.4774 174.27 26.7587 174.523 26.3018L174.534 26.2822C175.537 24.5186 176.185 22.4741 176.592 20.3105C176.466 20.2469 176.338 20.1865 176.208 20.1289L175.834 19.9736C175.806 19.9628 175.778 19.9513 175.75 19.9395C175.46 19.8152 175.045 19.5843 174.694 19.1533C174.356 18.7367 174.171 18.2463 174.13 17.751L174.121 17.5391L174.131 17.3145C174.174 16.8031 174.362 16.3741 174.577 16.0508C174.584 16.0404 174.592 16.0298 174.599 16.0195L175.676 14.458C175.247 14.1631 174.626 13.5773 174.527 12.5928L174.515 12.3193L174.522 12.1182C174.556 11.685 174.707 11.1372 175.111 10.6455L176.901 8.25781H176.902C177.164 7.90563 177.577 7.51937 178.178 7.30469C178.742 7.10326 179.294 7.11649 179.763 7.23633L179.958 7.29395L180.011 7.31152C180.875 7.62275 181.788 8.06672 182.642 8.59961C182.697 8.59637 182.751 8.59375 182.804 8.59375H185.026C185.145 8.34758 185.309 8.10503 185.531 7.88281C186.124 7.29036 186.858 7.10848 187.434 7.1084V9.43555ZM183.853 20.2031C183.634 20.2031 183.503 20.3343 183.503 20.5527V21.71C183.503 24.0468 183.131 26.0996 181.297 27.541C181.188 27.6284 181.122 27.7164 181.122 27.8037C181.122 27.8909 181.188 27.9567 181.297 28.0439L183.722 29.7471C183.771 29.7798 183.832 29.8129 183.896 29.8271L183.962 29.835C184.027 29.8348 184.093 29.8099 184.158 29.7607L184.224 29.7031C186.189 27.694 186.691 25.4228 186.691 21.6885V20.5527C186.691 20.3343 186.56 20.2031 186.342 20.2031H183.853ZM187.631 20.2031C187.412 20.2031 187.281 20.3343 187.281 20.5527V29.376C187.281 29.567 187.381 29.6916 187.553 29.7197L187.631 29.7256H190.055C190.273 29.7256 190.404 29.5943 190.404 29.376V20.5527C190.404 20.3343 190.273 20.2031 190.055 20.2031H187.631ZM179.331 20.4219C179.091 20.3128 178.938 20.4219 178.895 20.6621C178.458 23.0207 177.737 25.3579 176.558 27.4326C176.449 27.629 176.492 27.804 176.688 27.9131L179.681 29.4629C179.877 29.5721 180.052 29.5289 180.14 29.3105C181.079 27.2576 181.931 24.6144 182.411 22.1465C182.455 21.9501 182.389 21.7973 182.192 21.71L179.331 20.4219ZM178.698 14.7217C178.48 14.6344 178.327 14.6995 178.218 14.874L176.514 17.3418C176.47 17.4073 176.448 17.4735 176.448 17.5391C176.448 17.6481 176.514 17.7353 176.667 17.8008C177.977 18.3031 179.113 19.0458 180.052 19.8975C180.139 19.963 180.205 20.0068 180.271 20.0068C180.38 20.0068 180.445 19.9411 180.532 19.832L182.302 17.1455C182.367 17.0582 182.389 16.9708 182.389 16.9053C182.389 16.818 182.345 16.7308 182.236 16.6436C181.144 15.7919 179.987 15.1803 178.698 14.7217ZM192.981 14.3496L190.906 15.0928C190.754 15.1365 190.688 15.2239 190.688 15.333C190.689 15.3984 190.71 15.4854 190.775 15.5508L191.256 16.1846C190.382 16.2719 189.334 16.3372 188.221 16.3809C188.679 15.7913 189.094 15.092 189.443 14.3496H192.981ZM191.038 7.1084C191.614 7.1085 192.347 7.2907 192.939 7.88281C193.162 8.10506 193.327 8.34754 193.445 8.59375H195.886V10.9209H191.387V9.78516C191.387 9.5942 191.287 9.47043 191.115 9.44238L191.038 9.43555V7.1084ZM191.038 7.1084V9.43555H187.434V7.1084H191.038Z" fill="#262626"/>
<path d="M164.218 14.9395C166.358 15.682 167.604 17.5389 167.604 19.7666L167.599 19.9834C167.507 22.2332 165.98 24.556 161.706 24.7676C161.379 24.7895 161.248 24.9642 161.357 25.248L162.536 28.3271C162.623 28.5673 162.777 28.677 163.017 28.6553C167.925 28.3591 171.42 24.8859 171.634 20.5391L171.644 20.1162C171.644 14.9538 167.688 11.3896 162.636 11.1719L162.144 11.1611C159.916 11.1611 157.666 11.8387 155.963 13.1709L155.705 13.375C153.096 15.5097 152.01 18.2525 152.01 20.749L152.015 21.0352C152.119 23.9083 153.794 27.1304 156.913 27.335L157.229 27.3447C158.496 27.3447 159.741 26.7986 160.462 25.7285C162.471 22.8019 164.021 18.1062 164.218 14.9395ZM160.243 14.874C160.134 17.0798 158.954 20.8797 157.622 22.8672C157.469 23.1074 157.251 23.2168 157.055 23.2168L156.989 23.2129C156.837 23.1941 156.689 23.1104 156.574 22.9766C156.096 22.4033 155.852 21.6964 155.799 20.9434L155.788 20.6182C155.788 18.0192 157.797 15.5947 160.243 14.874ZM173.958 20.6641C173.68 26.2914 169.138 30.6176 163.157 30.9785L163.156 30.9766C162.642 31.0107 161.998 30.9195 161.398 30.5059C160.815 30.1032 160.516 29.5639 160.363 29.1592V29.1602L160.272 28.9238C159.317 29.4301 158.254 29.6718 157.229 29.6719C154.593 29.6719 152.631 28.265 151.418 26.5078C150.24 24.801 149.683 22.6764 149.683 20.749C149.683 17.4551 151.17 13.9394 154.529 11.3369L154.942 11.0293C157.046 9.54157 159.642 8.83398 162.144 8.83398C168.521 8.83411 173.971 13.3167 173.971 20.1162L173.958 20.6641Z" fill="#262626"/>
<path d="M143.852 21.7567C144.474 21.5865 145.41 21.5603 146.235 22.2148C147.058 22.8673 147.239 23.7791 147.239 24.3525C147.239 24.3575 147.239 24.3631 147.239 24.3681L147.217 27.7528C147.214 28.2202 147.103 28.8473 146.667 29.4286C146.222 30.0218 145.632 30.3115 145.152 30.4423L144.723 30.5497C142.667 31.0438 140.255 31.3104 137.967 31.3105C136.294 31.3105 134.577 31.172 133.082 30.8456V30.8466C133.073 30.8446 133.063 30.8427 133.054 30.8407V30.8398C131.175 30.4447 129.622 29.5849 128.533 28.3192C127.438 27.0465 126.925 25.4926 126.925 23.9374C126.925 22.6701 127.265 21.4216 127.869 20.2978C127.875 20.286 127.882 20.2744 127.888 20.2626C127.897 20.2462 127.905 20.2292 127.914 20.2128H127.915C128.165 19.7509 128.584 19.2713 129.231 18.9882C129.881 18.7042 130.491 18.7357 130.892 18.8085L130.945 18.8192L133.697 19.3866L133.715 19.3905C134.246 19.5043 135.199 19.8747 135.653 20.9462C135.927 21.5905 135.885 22.1869 135.77 22.6366C135.896 22.6533 136.035 22.6686 136.187 22.6786C136.535 22.7016 136.875 22.7021 137.202 22.7021V25.0292L136.66 25.0263C135.279 25.0012 133.205 24.8003 133.205 23.1952C133.205 22.966 133.254 22.712 133.353 22.4521L133.468 22.1903C133.599 21.9285 133.533 21.7315 133.228 21.6659L130.476 21.0985C130.235 21.0549 130.06 21.1204 129.951 21.3388C129.493 22.1686 129.252 23.0639 129.252 23.9374C129.252 26.0122 130.606 27.9557 133.555 28.5673C134.682 28.8157 136.01 28.9475 137.378 28.9765L137.967 28.9823C140.238 28.9823 142.618 28.6985 144.54 28.1962C144.75 28.1389 144.861 28.0151 144.885 27.8241L144.89 27.7382L144.911 24.3525C144.911 24.0688 144.737 23.9157 144.453 24.0028L143.603 24.2167C141.567 24.6954 139.209 25.0292 137.202 25.0292V22.7021C139.249 22.702 141.795 22.3045 143.852 21.7548V21.7567ZM130.759 9.3339L130.96 9.34269L131.035 9.3505C132.953 9.56125 135.138 9.70792 137.333 9.70792V12.0351L136.475 12.0282C134.477 11.996 132.52 11.8551 130.781 11.664C130.497 11.6421 130.344 11.7727 130.322 12.0566L130.126 15.1142C130.104 15.3762 130.235 15.5295 130.497 15.5732C132.332 15.8025 134.35 15.9475 136.348 15.9804L137.202 15.9882C139.037 15.9882 140.854 15.8871 142.465 15.7011L143.143 15.6171C143.405 15.5734 143.514 15.4201 143.492 15.1581L143.252 12.1005C143.23 11.8166 143.055 11.7076 142.793 11.7294C141.046 11.9478 139.168 12.0351 137.333 12.0351V9.70792C139.1 9.70792 140.877 9.62312 142.504 9.41983L142.6 9.41007C143.052 9.3724 143.815 9.41187 144.52 9.9462C145.273 10.5183 145.526 11.3215 145.572 11.9179L145.812 14.9648L145.821 15.1503C145.831 15.6112 145.74 16.2596 145.285 16.8661C144.754 17.5745 144.025 17.8287 143.525 17.912C143.502 17.9158 143.479 17.9196 143.456 17.9228C141.569 18.1791 139.388 18.3153 137.202 18.3153C135.129 18.3153 133.007 18.1933 131.041 17.9794L130.208 17.8827L130.114 17.8691C129.631 17.7885 128.938 17.551 128.406 16.9032C127.872 16.2525 127.766 15.5139 127.804 14.9648L128 11.9071L128.002 11.8778C128.04 11.3782 128.228 10.5872 128.938 9.97843C129.56 9.44549 130.259 9.32883 130.759 9.3339Z" fill="#262626"/>
</g>
<defs>
<clipPath id="clip0_473_2">
<rect width="373" height="72" fill="white"/>
</clipPath>
</defs>
</svg>
