<svg width="373" height="152" viewBox="0 0 373 152" fill="none" xmlns="http://www.w3.org/2000/svg">
<g clip-path="url(#clip0_474_364)">
<rect width="373" height="152" fill="#D8FF33"/>
<rect y="-43" width="375" height="450" fill="#EEFFA8"/>
<path d="M6.01457 28.8988H53.0727C53.6715 28.8988 54.1281 28.411 53.9854 27.9068C53.6241 26.642 52.5112 24.658 49.0877 25.0052C48.688 25.0465 48.3172 24.8399 48.1555 24.5175C47.4139 23.0295 45.0075 19.3261 39.9291 21.0373C39.4346 21.2026 38.8831 20.9794 38.7214 20.5413C37.9035 18.3672 34.9361 12.9691 26.1388 14.7381C25.5684 14.8538 25.0164 14.4653 25.0164 13.9528C24.9975 11.1587 24.0753 3.61951 14.8598 1.51979C5.01596 -0.728727 -0.604331 4.95043 -1.94528 6.52111C-2.1449 6.76084 -2.46828 6.8848 -2.80115 6.84348C-5.21707 6.58721 -15.0035 6.05816 -16.4961 14.052C-16.582 14.5149 -17.0576 14.8373 -17.5901 14.7546C-20.0439 14.3661 -26.3968 14.0106 -27.5571 20.4421C-27.6235 20.8058 -27.9374 21.1034 -28.3656 21.1447C-30.4007 21.3431 -36.1543 22.4012 -36.9912 27.9481C-37.0675 28.4441 -36.6393 28.8906 -36.0595 28.8906H6.01457V28.8988Z" fill="white"/>
<path d="M15.2887 28.8904H38.5368C39.143 28.8904 39.5875 28.4031 39.4458 27.891C38.7643 25.4545 36.1514 19.5573 27.1871 21.5065C26.7047 21.6139 26.2028 21.3909 26.0511 20.9779C25.3037 18.9049 22.4448 13.2307 13.755 13.7097C5.01775 14.1888 3.15328 20.6063 2.76511 22.8611C2.68926 23.2823 2.27264 23.5879 1.7902 23.5631C-0.481939 23.431 -6.4451 23.5053 -7.8935 27.858C-8.06415 28.3783 -7.60963 28.8987 -6.98497 28.8987H15.2982L15.2887 28.8904Z" fill="white"/>
<path d="M25.0146 97.8988H72.0727C72.6715 97.8988 73.1281 97.411 72.9854 96.9068C72.6241 95.642 71.5112 93.658 68.0877 94.0052C67.688 94.0465 67.3172 93.8399 67.1555 93.5175C66.4139 92.0295 64.0075 88.3261 58.9291 90.0373C58.4346 90.2026 57.8831 89.9794 57.7214 89.5413C56.9035 87.3672 53.9361 81.9691 45.1388 83.7381C44.5684 83.8538 44.0164 83.4653 44.0164 82.9528C43.9975 80.1587 43.0753 72.6195 33.8598 70.5198C24.016 68.2713 18.3957 73.9504 17.0547 75.5211C16.8551 75.7608 16.5317 75.8848 16.1988 75.8435C13.7829 75.5872 3.99651 75.0582 2.50387 83.052C2.41802 83.5149 1.94243 83.8373 1.40994 83.7546C-1.0439 83.3661 -7.39683 83.0106 -8.55713 89.4421C-8.62349 89.8058 -8.93738 90.1034 -9.36558 90.1447C-11.4007 90.3431 -17.1543 91.4012 -17.9912 96.9481C-18.0675 97.4441 -17.6393 97.8906 -17.0595 97.8906H25.0146V97.8988Z" fill="white"/>
<path d="M34.2887 97.8904H57.5368C58.143 97.8904 58.5875 97.4031 58.4458 96.891C57.7643 94.4545 55.1514 88.5573 46.1871 90.5065C45.7047 90.6139 45.2028 90.3909 45.0511 89.9779C44.3037 87.9049 41.4448 82.2307 32.755 82.7097C24.0178 83.1888 22.1533 89.6063 21.7651 91.8611C21.6893 92.2823 21.2726 92.5879 20.7902 92.5631C18.5181 92.431 12.5549 92.5053 11.1065 96.858C10.9359 97.3783 11.3904 97.8987 12.015 97.8987H34.2982L34.2887 97.8904Z" fill="white"/>
<path d="M346.999 42.9445H394.057C394.656 42.9445 395.113 42.4567 394.97 41.9525C394.608 40.6877 393.496 38.7037 390.072 39.0509C389.672 39.0922 389.302 38.8856 389.14 38.5631C388.398 37.0751 385.992 33.3717 380.914 35.0829C380.419 35.2482 379.867 35.0251 379.706 34.5869C378.888 32.4128 375.92 27.0147 367.123 28.7838C366.553 28.8995 366.001 28.5109 366.001 27.9984C365.982 25.2043 365.06 17.6652 355.844 15.5654C346 13.3169 340.38 18.9961 339.039 20.5668C338.839 20.8065 338.516 20.9305 338.183 20.8891C335.767 20.6329 325.981 20.1038 324.488 28.0976C324.402 28.5606 323.927 28.8829 323.394 28.8003C320.94 28.4118 314.588 28.0563 313.427 34.4877C313.361 34.8514 313.047 35.1491 312.619 35.1904C310.584 35.3888 304.83 36.4469 303.993 41.9938C303.917 42.4898 304.345 42.9362 304.925 42.9362H346.999V42.9445Z" fill="white"/>
<path d="M356.273 42.9361H379.521C380.127 42.9361 380.572 42.4488 380.43 41.9367C379.749 39.5002 377.136 33.603 368.172 35.5522C367.689 35.6596 367.187 35.4366 367.035 35.0236C366.288 32.9505 363.429 27.2763 354.739 27.7554C346.002 28.2344 344.138 34.6519 343.749 36.9067C343.674 37.3279 343.257 37.6336 342.775 37.6088C340.502 37.4766 334.539 37.551 333.091 41.9037C332.92 42.424 333.375 42.9443 333.999 42.9443H356.283L356.273 42.9361Z" fill="white"/>
</g>
<defs>
<clipPath id="clip0_474_364">
<rect width="373" height="152" fill="white"/>
</clipPath>
</defs>
</svg>
