<svg width="306" height="61" viewBox="0 0 306 61" fill="none" xmlns="http://www.w3.org/2000/svg">
<mask id="path-1-inside-1_395_11546" fill="white">
<path d="M0 0L64 0V61H0L0 0Z"/>
</mask>
<path d="M0 0L64 0V61H0L0 0Z" fill="#FCAF17"/>
<path d="M0 0L0 -2.5H-2.5V0L0 0ZM64 0L66.5 0V-2.5H64V0ZM64 61V65.5H66.5V61H64ZM0 61H-2.5V65.5H0L0 61ZM0 0L0 2.5L64 2.5V0V-2.5L0 -2.5L0 0ZM64 0L61.5 0V61H64H66.5V0L64 0ZM64 61V56.5H0L0 61L0 65.5H64V61ZM0 61H2.5L2.5 0L0 0L-2.5 0L-2.5 61H0Z" fill="#262626" mask="url(#path-1-inside-1_395_11546)"/>
<path d="M38.6761 25.2408V26.3804H52.2752V25.2408H38.6761ZM33.5605 32.3569C33.5605 32.1037 33.7125 31.9517 33.9657 31.9517H43.7662V31.5212C43.7662 31.2933 43.8929 31.1414 44.1208 31.0907C45.1591 30.8121 46.4253 30.2803 46.9571 29.9258H37.7391C37.4858 29.9258 37.3339 29.7738 37.3339 29.5206V28.2291H34.5988C34.3456 28.2291 34.1937 28.0771 34.1937 27.8239V21.8727C34.1937 21.6194 34.3456 21.4675 34.5988 21.4675H36.6501C36.3462 20.8597 35.9157 20.2013 35.4092 19.5682C35.3332 19.4669 35.3079 19.3656 35.3079 19.2896C35.3079 19.163 35.3839 19.0617 35.5865 19.011L39.2079 17.9727C39.2838 17.9474 39.3345 17.9474 39.3851 17.9474C39.5371 17.9474 39.6384 17.998 39.7397 18.1247C40.4234 19.0363 41.1832 20.2519 41.6137 21.4675H43.437C43.1078 20.7331 42.6013 19.8974 42.0695 19.1883C41.9935 19.087 41.9682 19.011 41.9682 18.935C41.9682 18.8084 42.0695 18.7071 42.2468 18.6565L45.8935 17.7448C45.9441 17.7448 45.9948 17.7195 46.0454 17.7195C46.7039 17.7195 47.9701 20.885 48.1727 21.4675H49.135C49.8694 20.3785 50.5025 19.1123 50.9077 18.0993C50.9837 17.8714 51.1609 17.7701 51.4142 17.8208L55.3394 18.7578C55.5167 18.8084 55.618 18.9097 55.618 19.0363C55.618 19.1123 55.618 19.1883 55.5674 19.2643C55.1368 19.9987 54.5797 20.7837 54.0732 21.4675H56.3271C56.5803 21.4675 56.7323 21.6194 56.7323 21.8727V27.7986C56.7323 28.0518 56.5803 28.2037 56.3271 28.2037H53.7693V29.1914C53.7693 29.4193 53.6934 29.5459 53.5414 29.6979C52.6297 30.4323 51.2369 31.268 49.8187 31.9517H56.9096C57.1628 31.9517 57.3147 32.1037 57.3147 32.3569V35.5478C57.3147 35.801 57.1628 35.953 56.9096 35.953H48.4512V36.738C48.4512 40.1315 47.4383 41.6256 42.3481 41.6256L40.778 41.6003C40.5247 41.575 40.3981 41.4737 40.2968 41.2711L38.9799 37.8776C38.9546 37.827 38.9546 37.751 38.9546 37.7004C38.9546 37.5231 39.1066 37.4218 39.3598 37.4218L41.0059 37.4724C43.3864 37.4724 43.7662 37.0672 43.7662 36.3075V35.953H33.9657C33.7125 35.953 33.5605 35.801 33.5605 35.5478V32.3569Z" fill="white"/>
<path d="M28.9512 31.8251C29.2045 31.8251 29.3564 31.9771 29.3564 32.2303V40.7899C29.3564 41.0432 29.2045 41.1951 28.9512 41.1951H9.29958C9.04634 41.1951 8.89439 41.0432 8.89439 40.7899V32.2303C8.89439 31.9771 9.04634 31.8251 9.29958 31.8251H28.9512ZM11.1483 18.226C11.1483 17.9727 11.3002 17.8208 11.5534 17.8208H15.2001C15.4534 17.8208 15.6053 17.9727 15.6053 18.226V19.4416H17.53C17.7832 19.4416 17.9352 19.5935 17.9352 19.8467V22.5311C17.9352 22.7844 17.7832 22.9363 17.53 22.9363H15.6053V23.696L17.4793 23.5188C17.7579 23.4934 17.9098 23.6201 17.9098 23.8986V26.4057C17.9098 26.659 17.7832 26.8109 17.53 26.8363L15.6053 27.0895V27.52C15.6053 30.8375 14.4151 31.9011 9.95801 31.6985C9.70477 31.6985 9.57815 31.5719 9.47685 31.3693L8.51453 28.8115C8.4892 28.7609 8.4892 28.7102 8.4892 28.6596C8.4892 28.4823 8.61582 28.381 8.86907 28.381H8.91971C11.0723 28.5077 11.1483 28.1531 11.1483 27.4947L8.08401 27.672C7.83077 27.6973 7.67882 27.5707 7.6535 27.3174L7.24831 24.4811C7.19766 24.2025 7.32428 24.0506 7.57753 24.0506C8.74244 24.0506 9.93269 24.0253 11.1483 23.9746V22.9363H8.15999C7.90674 22.9363 7.7548 22.7844 7.7548 22.5311V19.8467C7.7548 19.5935 7.90674 19.4416 8.15999 19.4416H11.1483V18.226ZM28.7233 17.9981C28.9766 17.9474 29.1285 18.0234 29.2298 18.2513L30.6226 21.2143C30.7493 21.4928 30.648 21.6701 30.3694 21.7207C27.9889 22.1259 25.3805 22.2526 23.0253 22.2779L23 23.2149H30.4707C30.7239 23.2149 30.8759 23.3668 30.8759 23.6201V26.583C30.8759 26.8363 30.7239 26.9882 30.4707 26.9882H28.3181V30.8881C28.3181 31.1414 28.1662 31.2933 27.9129 31.2933H24.2916C24.0383 31.2933 23.8864 31.1414 23.8864 30.8881V26.9882H22.7468C22.4682 28.6849 21.8858 30.1031 20.7208 31.4453C20.5436 31.6225 20.3663 31.6479 20.1384 31.5466L16.6943 29.7992C16.5423 29.7232 16.4664 29.6219 16.4664 29.5206C16.4664 29.4447 16.517 29.3434 16.6183 29.2421C18.315 27.5707 18.6442 25.3421 18.6189 23.2402L18.5683 18.8338C18.5683 18.5805 18.7202 18.4286 18.9735 18.4286C22.0124 18.4539 25.8617 18.4792 28.7233 17.9981ZM13.63 37.1686H24.6208V35.8264H13.63V37.1686Z" fill="white"/>
<path d="M33.5674 35.6375C33.5952 35.8082 33.7052 35.9182 33.876 35.946L33.9658 35.9529H43.7666V36.3074C43.7666 37.0671 43.3863 37.4724 41.0059 37.4724L39.3594 37.4216C39.1065 37.4217 38.9543 37.523 38.9541 37.7C38.9541 37.7506 38.9542 37.827 38.9795 37.8777L40.2969 41.2712C40.3982 41.4737 40.5252 41.575 40.7783 41.6003L42.3477 41.6257C47.1196 41.6257 48.3085 40.3125 48.4385 37.3523L48.4512 36.738V35.9529H56.9092C57.1624 35.9529 57.3145 35.8009 57.3145 35.5476V32.3572C57.3145 32.1357 57.1985 31.9914 57 31.9587L56.9092 31.9519H49.8184C51.2364 31.2682 52.6293 30.4324 53.541 29.698C53.674 29.565 53.749 29.4513 53.7656 29.2722L53.7695 29.1912V28.2039H56.3271L56.417 28.197C56.5875 28.1692 56.6978 28.059 56.7256 27.8884L56.7324 27.7986V21.8728C56.7324 21.6196 56.5803 21.4676 56.3271 21.4675H54.0732C54.5797 20.7838 55.1369 19.9988 55.5674 19.2644C55.5927 19.2264 55.605 19.1882 55.6113 19.1501L55.6182 19.0359C55.6179 18.9096 55.5167 18.8082 55.3398 18.7576L51.4141 17.821C51.1608 17.7704 50.9832 17.8714 50.9072 18.0994C50.502 19.1123 49.8691 20.3786 49.1348 21.4675H48.1729L48.0498 21.1394C47.6627 20.1434 46.6211 17.7195 46.0449 17.7195C45.9945 17.7196 45.944 17.7448 45.8936 17.7449L42.2471 18.656C42.0698 18.7067 41.9678 18.8087 41.9678 18.9353C41.9678 19.0112 41.9935 19.0871 42.0693 19.1882C42.6011 19.8973 43.1073 20.7332 43.4365 21.4675H41.6133C41.1828 20.252 40.423 19.0364 39.7393 18.1248C39.638 17.9982 39.5367 17.947 39.3848 17.947C39.3343 17.947 39.2837 17.9472 39.208 17.9724L35.5859 19.0115L35.5166 19.032C35.366 19.087 35.3076 19.1789 35.3076 19.2898C35.3077 19.3657 35.3333 19.4669 35.4092 19.5681C35.9157 20.2012 36.3465 20.8597 36.6504 21.4675H34.5986C34.3455 21.4676 34.1934 21.6196 34.1934 21.8728V27.824C34.1934 28.0456 34.31 28.1899 34.5088 28.2224L34.5986 28.2292H37.334V29.5203C37.334 29.7735 37.486 29.9255 37.7393 29.9255H46.957C46.4253 30.28 45.1593 30.812 44.1211 31.0906C43.8932 31.1412 43.7666 31.2933 43.7666 31.5212V31.9519H33.9658L33.876 31.9587C33.677 31.9912 33.5605 32.1354 33.5605 32.3572V35.5476L33.5674 35.6375ZM52.2754 25.241V26.3806H38.6758V25.241H52.2754ZM45.6797 15.5583C45.6757 15.5588 45.6718 15.5589 45.668 15.5593C45.6719 15.5589 45.6758 15.5587 45.6797 15.5583ZM57.8164 19.0359C57.8164 19.0553 57.8289 19.3173 57.7441 19.6726C57.8944 19.7679 58.0406 19.8832 58.1787 20.0212C58.6798 20.5224 58.8799 21.1298 58.9219 21.6541L58.9307 21.8728V27.7986L58.9219 28.0173C58.8799 28.5416 58.6798 29.149 58.1787 29.6501C58.0748 29.754 57.9659 29.8443 57.8545 29.9236C58.1678 30.0404 58.4818 30.2247 58.7617 30.5046C59.2629 31.0058 59.4619 31.6141 59.5039 32.1384L59.5127 32.3572V35.5476C59.5127 36.115 59.3343 36.8275 58.7617 37.4001C58.1891 37.9727 57.4765 38.1511 56.9092 38.1511H50.584C50.4388 39.5525 49.999 40.9939 48.7764 42.0906C47.2296 43.4777 44.9513 43.824 42.3477 43.824H42.3125L40.7422 43.7986L40.5596 43.7878C40.1793 43.7498 39.6852 43.6323 39.21 43.2957C38.8568 43.0455 38.6214 42.7501 38.4639 42.4939L38.3311 42.2537C38.3005 42.1925 38.2718 42.13 38.2471 42.0662L36.9395 38.697C36.8517 38.4815 36.8094 38.2875 36.7881 38.1511H33.9658C33.3984 38.1511 32.6859 37.9728 32.1133 37.4001C31.5407 36.8275 31.3623 36.115 31.3623 35.5476V32.3572C31.3623 31.7898 31.5407 31.0772 32.1133 30.5046C32.3962 30.2217 32.7136 30.0353 33.0303 29.9187C32.9333 29.8467 32.8381 29.7666 32.7471 29.6755C32.1745 29.103 31.9951 28.3913 31.9951 27.824V21.8728C31.9951 21.3054 32.1745 20.5929 32.7471 20.0203C32.873 19.8944 33.0062 19.7881 33.1426 19.698C33.1318 19.631 33.1236 19.5639 33.1182 19.4968L33.1094 19.2898L33.1182 19.0837C33.159 18.5962 33.3489 18.0673 33.7646 17.6218C34.1665 17.1914 34.6367 16.9936 34.9805 16.8982L38.6016 15.8601V15.8611C38.9794 15.7494 39.2779 15.7488 39.3848 15.7488C39.7147 15.7488 40.1327 15.8064 40.5645 16.0222C40.9218 16.2009 41.1795 16.4363 41.3623 16.6433C41.4659 16.5999 41.5608 16.5661 41.6426 16.5427C41.6661 16.536 41.6902 16.5301 41.7139 16.5242L45.3604 15.6121L45.4922 15.5837C45.508 15.5808 45.5241 15.5795 45.54 15.5769C45.5586 15.5729 45.5796 15.5675 45.6025 15.5632C45.6975 15.5454 45.853 15.5213 46.0449 15.5212L46.2139 15.5271C47.0359 15.5838 47.5858 16.0419 47.7832 16.2185C48.0598 16.466 48.275 16.7452 48.4268 16.9617C48.5472 17.1334 48.6617 17.3194 48.7725 17.5085C48.8048 17.4318 48.8367 17.3568 48.8662 17.283H48.8672C49.0541 16.7996 49.412 16.2758 50.0264 15.9343C50.5995 15.6159 51.1839 15.5729 51.6523 15.6335L51.8447 15.6648L51.9248 15.6824L55.8496 16.6199L55.9434 16.6443C56.5295 16.8118 57.8162 17.4661 57.8164 19.0359Z" fill="#262626"/>
<path d="M8.8944 40.7898C8.8944 41.0115 9.01091 41.1558 9.20983 41.1882L9.29967 41.1951H28.951C29.2043 41.1951 29.3563 41.043 29.3563 40.7898V32.2302C29.3563 31.977 29.2043 31.825 28.951 31.825H9.29967C9.04646 31.825 8.89443 31.977 8.8944 32.2302V40.7898ZM24.621 35.8259V37.1687H13.6298V35.8259H24.621ZM11.5536 17.821L11.4637 17.8279C11.2648 17.8603 11.1483 18.0046 11.1483 18.2263V19.4412H8.16002V17.2429H9.13561C9.25311 16.9424 9.43352 16.6423 9.70202 16.3738C10.2746 15.8014 10.9863 15.6228 11.5536 15.6228V17.821ZM15.2001 15.6228V17.821H11.5536V15.6228H15.2001ZM30.8758 23.6199C30.8758 23.3667 30.7238 23.2146 30.4706 23.2146H22.9999L23.0253 22.2781C25.3803 22.2528 27.9886 22.1256 30.369 21.7205C30.6475 21.6698 30.7493 21.493 30.6229 21.2146L29.2303 18.2517C29.1291 18.0238 28.9767 17.9472 28.7235 17.9978L28.1756 18.0828C25.3837 18.4763 21.8224 18.4522 18.9735 18.4285C18.7203 18.4285 18.5682 18.5805 18.5682 18.8337L18.619 23.24C18.6443 25.3419 18.3148 27.5705 16.618 29.2419C16.517 29.343 16.4668 29.4444 16.4667 29.5203C16.4667 29.6216 16.5423 29.7236 16.6942 29.7996L20.1385 31.5466C20.3664 31.6479 20.5434 31.6222 20.7206 31.4451C21.8855 30.1029 22.4684 28.6848 22.7469 26.988H23.8866V30.8884C23.8867 31.1415 24.0387 31.2937 24.2919 31.2937H27.913C28.1661 31.2937 28.3181 31.1415 28.3182 30.8884V26.988H30.4706C30.7238 26.988 30.8758 26.836 30.8758 26.5828V23.6199ZM33.0741 26.5828C33.0741 27.1501 32.8957 27.8627 32.3231 28.4353C31.7658 28.9926 31.076 29.1749 30.5165 29.1843V30.1316C30.6148 30.2043 30.7113 30.2864 30.8036 30.3787C31.3759 30.9512 31.5545 31.663 31.5546 32.2302V40.7898C31.5546 41.357 31.3759 42.0688 30.8036 42.6414C30.231 43.214 29.5184 43.3933 28.951 43.3933H9.29967C8.7323 43.3933 8.02072 43.214 7.44811 42.6414C6.87555 42.0688 6.69616 41.3572 6.69616 40.7898V32.2302C6.69617 31.857 6.77517 31.4221 6.99108 31.0046L6.4569 29.5867C6.41436 29.4768 6.38452 29.3712 6.3612 29.2732C5.76751 28.771 5.54575 28.123 5.47936 27.6277L5.47741 27.6287L5.07213 24.7917L5.07409 24.7908C5.00042 24.3017 5.0121 23.517 5.56823 22.8064C5.56951 22.8048 5.57085 22.8032 5.57213 22.8015C5.56292 22.7086 5.55651 22.6181 5.55651 22.531V19.8464C5.55657 19.2791 5.73595 18.5674 6.30846 17.9949C6.88104 17.4224 7.5927 17.2429 8.16002 17.2429V19.4412C7.90691 19.4412 7.75487 19.5934 7.75475 19.8464V22.531C7.75475 22.7842 7.90681 22.9363 8.16002 22.9363H11.1483V23.9744C9.93288 24.025 8.74278 24.0505 7.57799 24.0505C7.32475 24.0505 7.19727 24.2026 7.24791 24.4812L7.65319 27.3171C7.67851 27.5703 7.83074 27.6969 8.08385 27.6716L11.1483 27.4949C11.1483 28.1532 11.0721 28.5072 8.91979 28.3806H8.86901C8.61586 28.3807 8.48913 28.4827 8.48913 28.6599C8.48913 28.7104 8.48937 28.7608 8.51452 28.8113L9.47741 31.3689C9.57867 31.5714 9.70478 31.6989 9.95788 31.699C14.4148 31.9016 15.6053 30.8375 15.6053 27.5203V27.0896L17.5301 26.8367C17.7833 26.8113 17.9099 26.6591 17.91 26.406V23.8982C17.9099 23.6199 17.7578 23.493 17.4794 23.5183L15.6053 23.696V22.9363H17.5301C17.7833 22.9362 17.9354 22.7842 17.9354 22.531V19.8464C17.9353 19.5934 17.7832 19.4412 17.5301 19.4412H15.6053V18.2263C15.6053 18.0046 15.4889 17.8603 15.2899 17.8279L15.2001 17.821V15.6228C15.7674 15.6228 16.48 15.8012 17.0526 16.3738C17.1766 16.4978 17.2808 16.6293 17.37 16.7634C17.8911 16.3625 18.4857 16.2302 18.9735 16.2302C18.9796 16.2302 18.986 16.2302 18.9921 16.2302C22.0886 16.256 25.7269 16.2724 28.3592 15.8298V15.8318C28.7571 15.7614 29.3733 15.7329 30.0165 16.0544C30.6849 16.3887 31.037 16.9267 31.2176 17.3162H31.2196L32.6122 20.2791C32.6161 20.2875 32.62 20.296 32.6239 20.3044C32.805 20.7029 33.0305 21.4598 32.7196 22.2888C32.9801 22.7379 33.0741 23.2149 33.0741 23.6199V26.5828Z" fill="#262626"/>
<path d="M70.3259 28.0455C70.1629 28.0455 70 27.9176 70 27.7642V26.2557C70 26.1278 70.1629 26 70.3259 26H85.6415C85.8371 26 86 26.1278 86 26.2557V27.7642C86 27.9176 85.8371 28.0455 85.6415 28.0455H70.3259ZM70.3259 35C70.1629 35 70 34.8466 70 34.7187V33.2102C70 33.0824 70.1629 32.929 70.3259 32.929H85.6415C85.8371 32.929 86 33.0824 86 33.2102V34.7187C86 34.8466 85.8371 35 85.6415 35H70.3259Z" fill="white"/>
<path d="M71.0959 35.624C71.117 35.7195 71.1973 35.8169 71.2862 35.8428L71.3307 35.8495H82.6458L82.6978 35.8428C82.8007 35.8171 82.8834 35.7197 82.9048 35.624L82.9104 35.5772V34.1155C82.9104 34.0069 82.8178 33.8788 82.6978 33.8489L82.6458 33.8422V31.6926C83.4267 31.6928 84.0122 32.0852 84.3539 32.4589C84.6587 32.7922 84.9599 33.3162 84.9963 33.9808L85 34.1155V35.5772L84.9963 35.7119C84.9598 36.3764 84.6587 36.9005 84.3539 37.2338C84.0122 37.6074 83.4267 37.9999 82.6458 38H71.3307C70.4578 37.9998 69.8729 37.5022 69.5985 37.1822C69.3136 36.8498 69.0008 36.2962 69.0007 35.5772V34.1155C69.0007 33.3962 69.3135 32.8419 69.5985 32.5095C69.8729 32.1894 70.4578 31.6928 71.3307 31.6926H82.6458V33.8422H71.3307C71.2105 33.8426 71.0903 33.9917 71.0903 34.1155V35.5772L71.0959 35.624ZM71.0896 27.8597C71.0896 28.0082 71.2098 28.1317 71.33 28.132H82.6451L82.6971 28.1272C82.8001 28.1053 82.8827 28.0201 82.9041 27.9142L82.9097 27.8597V26.398C82.9096 26.2896 82.817 26.1815 82.6971 26.1563L82.6451 26.1505V24C83.7414 24.0002 84.8511 24.8423 84.9854 26.1343L84.9993 26.398V27.8597L84.9872 28.1071C84.8666 29.3276 83.8623 30.2823 82.6451 30.2825H71.33C69.9309 30.2823 69 29.0631 69 27.8597V26.398C69.0001 25.6368 69.3486 25.0552 69.6869 24.707C70.0253 24.3588 70.5905 24.0001 71.33 24H82.6451V26.1505H71.33L71.2855 26.1563C71.1819 26.1817 71.0897 26.2897 71.0896 26.398V27.8597Z" fill="#262626"/>
<mask id="path-9-inside-2_395_11546" fill="white">
<path d="M90 0H306V61H90V0Z"/>
</mask>
<path d="M90 0H306V61H90V0Z" fill="white"/>
<path d="M90 0V-2.5H87.5V0H90ZM306 0H308.5V-2.5H306V0ZM306 61V65.5H308.5V61H306ZM90 61H87.5V65.5H90V61ZM90 0V2.5H306V0V-2.5H90V0ZM306 0H303.5V61H306H308.5V0H306ZM306 61V56.5H90V61V65.5H306V61ZM90 61H92.5V0H90H87.5V61H90Z" fill="#262626" mask="url(#path-9-inside-2_395_11546)"/>
<rect x="98" y="22" width="97" height="14" rx="7" fill="#FFE733"/>
<path d="M166.773 22.6977C166.803 22.5307 166.913 22.4379 167.102 22.4379L168.813 22.4565L170.215 14.4776C170.248 14.2921 170.362 14.1807 170.569 14.1807L174.224 14.1807C174.553 13.8096 174.825 13.4385 175.016 13.1045C175.102 12.9375 175.225 12.8818 175.394 12.8818L178.85 13.0488C179.073 13.0674 179.144 13.1973 179.014 13.4014C178.837 13.6612 178.618 13.9395 178.406 14.1807L183.625 14.1807C183.813 14.1807 183.907 14.2921 183.874 14.4776L183.118 18.7825L184.965 20.0628C185.049 20.1185 185.093 20.1927 185.077 20.2855C185.067 20.3412 185.019 20.3968 184.972 20.4525C184.301 21.1576 183.309 22.1967 182.387 22.9389L181.663 27.0583C181.19 29.7488 180.143 30.4539 175.842 30.3797C175.653 30.3797 175.553 30.3055 175.526 30.1385L175.124 27.7077C175.112 27.6706 175.119 27.6335 175.125 27.5964C175.158 27.4108 175.334 27.3737 175.485 27.3737C178.31 27.4851 178.409 27.1325 178.517 26.5202L178.713 25.4068C175.371 27.3737 170.779 29.0623 166.618 30.1199C166.442 30.1571 166.32 30.1014 166.274 29.9344L165.643 27.5222C165.6 27.3366 165.698 27.2067 165.912 27.1696C168.351 26.7985 171.701 25.9635 174.694 24.7945C172.064 25.0728 169.438 25.2213 166.872 25.3512C166.662 25.3697 166.568 25.2584 166.582 25.0728L166.767 22.7348L166.773 22.6977ZM179.802 19.2093L172.624 19.2093L172.49 19.9701L179.668 19.9701L179.802 19.2093ZM172.057 22.4379C174.512 22.4008 176.993 22.3266 179.287 22.1411L179.378 21.6215L172.2 21.6215L172.057 22.4379ZM180.226 16.7971L173.048 16.7971L172.918 17.5393L180.096 17.5393L180.226 16.7971Z" fill="white"/>
<path d="M152.975 14.8116C153.506 14.2549 153.946 13.6797 154.33 13.1045C154.431 12.9561 154.557 12.8818 154.743 12.9004L158.073 13.1416C158.295 13.1602 158.367 13.2901 158.218 13.4942C157.873 13.9581 157.508 14.4219 157.138 14.8116L163.582 14.8116C163.77 14.8116 163.864 14.9229 163.831 15.1085L161.271 29.6746C161.238 29.8602 161.106 29.9715 160.917 29.9715L146.278 29.9715C146.09 29.9715 145.997 29.8602 146.029 29.6746L148.589 15.1085C148.622 14.9229 148.755 14.8116 148.943 14.8116L152.975 14.8116ZM151.352 19.1165L159.66 19.1165L159.878 17.8733L151.57 17.8733L151.352 19.1165ZM159.2 21.7328L150.892 21.7328L150.673 22.9761L158.982 22.9761L159.2 21.7328ZM158.522 25.5924L150.213 25.5924L149.991 26.8542L158.3 26.8542L158.522 25.5924Z" fill="white"/>
<path d="M143.682 18.9124C143.835 19.0052 143.865 19.1536 143.742 19.3206L141.659 22.3823C141.583 22.4936 141.497 22.5493 141.403 22.5493C141.215 22.5493 140.453 21.8442 140.31 21.6957C140.046 23.0874 139.783 24.479 139.485 25.8522C138.657 29.6004 137.007 30.3055 132.972 30.2127C132.784 30.2127 132.703 30.1385 132.676 29.9715L132.157 27.1325C132.148 27.0768 132.155 27.0397 132.161 27.0026C132.184 26.8727 132.273 26.7985 132.461 26.7985L132.48 26.7985C135.211 26.9098 135.743 26.6686 136.12 25.2769C136.396 24.2378 136.595 23.1059 136.743 22.1596L134.614 22.1596C133.449 26.4274 130.636 29.2478 126.082 30.3983C125.906 30.4354 125.803 30.3797 125.735 30.2313L124.477 27.6335C124.377 27.4479 124.498 27.2995 124.771 27.2438C128.239 26.5944 130.193 25.0172 131.072 22.1596L129.263 22.1596C129.075 22.1596 128.982 22.0483 129.014 21.8627L129.128 21.2133C128.557 21.6772 127.954 22.1039 127.358 22.4936C127.295 22.5307 127.213 22.5678 127.157 22.5678C127.082 22.5678 126.997 22.5122 126.96 22.4008L125.736 19.5062C125.671 19.3392 125.735 19.1907 125.939 19.0979C128.356 17.8918 130.346 15.5724 131.645 13.3272C131.753 13.1416 131.898 13.0674 132.073 13.1416L134.704 14.1436C134.879 14.2178 134.916 14.3292 134.808 14.5147C133.913 16.0734 132.76 17.5949 131.501 18.968L138.133 18.968C137.235 17.5393 136.586 15.9806 136.19 14.4776C136.148 14.292 136.249 14.1436 136.428 14.0879L139.408 13.1045C139.588 13.0488 139.729 13.1045 139.775 13.2715C140.482 15.5724 141.752 17.6692 143.682 18.9124Z" fill="white"/>
<path d="M111.527 14.8116C112.058 14.2549 112.498 13.6797 112.882 13.1045C112.983 12.9561 113.109 12.8818 113.294 12.9004L116.624 13.1416C116.847 13.1602 116.918 13.2901 116.77 13.4942C116.424 13.9581 116.06 14.4219 115.69 14.8116L122.133 14.8116C122.322 14.8116 122.415 14.9229 122.383 15.1085L119.823 29.6746C119.79 29.8602 119.657 29.9715 119.469 29.9715L104.83 29.9715C104.642 29.9715 104.548 29.8602 104.581 29.6746L107.141 15.1085C107.174 14.9229 107.306 14.8116 107.495 14.8116L111.527 14.8116ZM109.903 19.1165L118.212 19.1165L118.43 17.8733L110.122 17.8733L109.903 19.1165ZM117.752 21.7328L109.443 21.7328L109.225 22.9761L117.533 22.9761L117.752 21.7328ZM117.073 25.5924L108.765 25.5924L108.543 26.8542L116.852 26.8542L117.073 25.5924Z" fill="white"/>
<path d="M164.446 22.6977C164.534 22.1979 164.815 21.4471 165.567 20.8433C166.02 20.479 166.484 20.2981 166.879 20.2133L167.888 14.478C167.966 14.0326 168.208 13.299 168.921 12.6765C169.656 12.0347 170.455 11.8888 170.972 11.8888L170.569 14.1808L170.496 14.1856C170.334 14.2094 170.243 14.3156 170.215 14.478L168.812 22.4563L167.102 22.438C166.913 22.438 166.802 22.5307 166.773 22.6977L166.766 22.7352L166.582 25.0724C166.568 25.2579 166.662 25.3698 166.872 25.3513C169.438 25.2215 172.064 25.0728 174.694 24.7945C171.701 25.9635 168.351 26.7981 165.912 27.1692C165.698 27.2063 165.6 27.3367 165.643 27.5222L166.273 29.9344C166.319 30.1013 166.442 30.157 166.618 30.12C170.779 29.0624 175.371 27.374 178.713 25.4071L178.517 26.52C178.409 27.1323 178.309 27.4854 175.484 27.374C175.334 27.3741 175.157 27.4109 175.125 27.5962C175.118 27.6333 175.112 27.6707 175.125 27.7078L175.526 30.1383C175.553 30.3053 175.653 30.3797 175.842 30.3797C179.874 30.4493 181.047 29.8339 181.567 27.5395L181.663 27.0586L182.387 22.9391C183.078 22.3823 183.81 21.6583 184.415 21.0337L184.972 20.4528C185.008 20.4109 185.043 20.3687 185.063 20.3268L185.077 20.2854C185.093 20.1927 185.049 20.1189 184.964 20.0633L183.117 18.7821L183.874 14.478C183.902 14.3155 183.835 14.2094 183.691 14.1856L183.625 14.1808L184.028 11.8888C184.589 11.8889 185.279 12.0637 185.763 12.639C186.185 13.1425 186.279 13.7495 186.231 14.2635L186.202 14.478L185.668 17.5144L186.543 18.1214L186.542 18.1223C186.966 18.4155 187.528 19.0473 187.433 20.07L187.404 20.2854L187.362 20.4778C187.251 20.9102 187.05 21.2333 186.939 21.3944C186.817 21.5732 186.686 21.7229 186.685 21.7243C186.651 21.7649 186.614 21.8048 186.577 21.8436C186.1 22.3462 185.355 23.128 184.553 23.8615L183.991 27.0586L183.877 27.628C183.569 28.9993 182.918 30.6229 181.139 31.6657C180.26 32.1811 179.316 32.4181 178.43 32.54C177.534 32.6631 176.519 32.6911 175.398 32.6717L175.398 32.6698C175.008 32.6645 174.462 32.5815 173.982 32.2168C173.469 31.8275 173.262 31.2967 173.191 30.8674L173.191 30.8683L173.108 30.3643C171.017 31.1487 168.865 31.8174 166.836 32.3332C166.801 32.3422 166.765 32.3497 166.729 32.3572C166.268 32.4544 165.626 32.4803 165.024 32.1687C164.486 31.8903 164.189 31.4516 164.039 31.0395L163.984 30.8654L163.977 30.8414L163.346 28.4292C163.341 28.4107 163.336 28.392 163.332 28.3734C163.222 27.8969 163.195 27.0265 163.866 26.1448C163.982 25.9925 164.106 25.8582 164.232 25.7399C164.224 25.6534 164.218 25.57 164.219 25.4898L164.226 25.3013L164.226 25.2898L164.412 22.9526C164.417 22.8804 164.426 22.8076 164.439 22.7352L164.446 22.6977ZM179.378 21.6214L179.287 22.1408C176.993 22.3263 174.512 22.4009 172.057 22.438L172.2 21.6214L179.378 21.6214ZM179.802 19.2092L179.668 19.97L172.491 19.97L172.624 19.2092L179.802 19.2092ZM180.226 16.7969L180.096 17.5395L172.918 17.5395L173.048 16.7969L180.226 16.7969ZM175.797 10.5894L175.909 10.5922L179.365 10.7596C179.392 10.7609 179.418 10.7622 179.445 10.7644C179.88 10.8007 180.78 10.9902 181.226 11.8888L184.028 11.8888L183.625 14.1808L178.407 14.1808C178.618 13.9397 178.837 13.6614 179.014 13.4017C179.144 13.1976 179.073 13.0673 178.85 13.0487L175.394 12.8814C175.224 12.8815 175.101 12.9376 175.016 13.1045C174.873 13.355 174.684 13.6263 174.459 13.9028L174.224 14.1808L170.569 14.1808L170.972 11.8888L173.247 11.8888C173.494 11.5632 173.83 11.2374 174.281 10.9866C174.912 10.6365 175.482 10.5894 175.797 10.5894Z" fill="#262626"/>
<path d="M146.023 29.741C146.022 29.8656 146.089 29.9457 146.213 29.9661L146.278 29.9718L160.917 29.9718L160.985 29.9661C161.115 29.9457 161.211 29.8656 161.254 29.741L161.271 29.6746L163.831 15.1089C163.859 14.9464 163.792 14.8403 163.648 14.8165L163.581 14.8117L163.984 12.5196C164.545 12.5196 165.236 12.6944 165.719 13.2699C166.142 13.7734 166.235 14.3804 166.187 14.8944L166.158 15.1089L163.598 29.6746L163.551 29.8882C163.419 30.4023 163.113 31.0099 162.513 31.5136C161.827 32.0889 161.074 32.2639 160.514 32.2639L145.875 32.2639C145.314 32.2638 144.624 32.0888 144.141 31.5136C143.658 30.9382 143.605 30.227 143.702 29.6746L146.262 15.1089C146.359 14.5565 146.662 13.8454 147.347 13.2699C148.033 12.6945 148.785 12.5197 149.345 12.5196L148.943 14.8117L148.875 14.8165C148.723 14.8403 148.618 14.9464 148.59 15.1089L146.029 29.6746L146.023 29.741ZM158.521 25.5927L158.3 26.8536L149.992 26.8536L150.214 25.5927L158.521 25.5927ZM159.2 21.7329L158.981 22.9756L150.674 22.9756L150.892 21.7329L159.2 21.7329ZM159.878 17.8731L159.659 19.1168L151.352 19.1168L151.57 17.8731L159.878 17.8731ZM153.691 10.9538C154.3 10.6391 154.874 10.5813 155.312 10.6152L155.313 10.6143L158.643 10.8557C158.651 10.8563 158.659 10.857 158.667 10.8576C159.081 10.8921 160.042 11.0759 160.478 12.0464C160.55 12.2049 160.595 12.3642 160.624 12.5196L163.984 12.5196L163.581 14.8117L157.139 14.8117C157.509 14.422 157.873 13.9578 158.218 13.494C158.367 13.29 158.295 13.1605 158.072 13.1419L154.742 12.9005C154.557 12.882 154.431 12.956 154.33 13.1044C153.994 13.6077 153.615 14.1111 153.17 14.602L152.975 14.8117L148.943 14.8117L149.345 12.5196L152.12 12.5196C152.219 12.3843 152.316 12.2469 152.41 12.1061L152.429 12.0791L152.524 11.9454C152.767 11.6236 153.143 11.2369 153.691 10.9538Z" fill="#262626"/>
<path d="M139.054 10.9298C139.583 10.7657 140.264 10.7059 140.904 10.9865C141.536 11.2643 141.892 11.7741 142.047 12.2869L142.049 12.2869C142.675 14.3224 143.75 15.9967 145.208 16.9363L145.207 16.9373C145.589 17.181 146.031 17.6281 146.151 18.3637C146.274 19.1196 145.997 19.8248 145.643 20.3393L145.646 20.3412L143.563 23.4026L143.56 23.4075C143.287 23.8075 142.779 24.3394 142.068 24.6299C141.979 25.0685 141.889 25.5073 141.794 25.9447L141.792 25.9544C141.336 28.0195 140.49 30.0758 138.445 31.3444C136.656 32.4548 134.524 32.5468 132.57 32.5043L132.569 32.5053C132.552 32.5053 132.534 32.5047 132.515 32.5043L132.515 32.5034C132.122 32.4962 131.547 32.4081 131.056 31.9984C130.676 31.6809 130.493 31.2933 130.403 30.9799C129.153 31.6967 127.776 32.2381 126.296 32.6121C126.262 32.6207 126.227 32.6289 126.193 32.6361C125.734 32.7327 125.115 32.7563 124.527 32.4659C123.985 32.1982 123.707 31.7787 123.564 31.48L123.563 31.481L122.306 28.8831L122.308 28.8812C122.042 28.3328 121.857 27.2984 122.68 26.2304C123.369 25.3375 124.292 25.0806 124.677 25.0021C124.691 24.9994 124.704 24.997 124.718 24.9945C125.166 24.9106 125.556 24.8091 125.899 24.7021C125.302 24.4655 124.922 23.9969 124.739 23.5373L123.527 20.6701C123.52 20.6532 123.512 20.6363 123.505 20.6191C123.338 20.1885 123.217 19.4603 123.623 18.6157C124.009 17.8131 124.66 17.3419 125.162 17.095L125.161 17.0941C126.867 16.2425 128.485 14.4612 129.63 12.4822L129.633 12.4754C129.857 12.09 130.326 11.4618 131.154 11.0866C132.005 10.7006 132.754 10.7996 133.243 10.9885L133.244 10.9865L135.869 11.9859C135.922 11.9651 135.975 11.9463 136.028 11.9291L136.028 11.9282L139.007 10.9452C139.023 10.9401 139.039 10.9346 139.054 10.9298ZM139.774 13.2718C139.728 13.1048 139.588 13.0488 139.408 13.1045L136.428 14.0874C136.249 14.1432 136.148 14.2925 136.19 14.4779C136.585 15.9807 137.235 17.5391 138.133 18.9677L131.501 18.9677C132.759 17.5946 133.912 16.0731 134.808 14.5145C134.916 14.3289 134.879 14.2174 134.704 14.1432L132.073 13.142C131.897 13.0678 131.752 13.1421 131.644 13.3276C130.345 15.5727 128.355 17.8915 125.939 19.0975C125.734 19.1903 125.67 19.3394 125.735 19.5063L126.96 22.4004C126.997 22.5118 127.082 22.5678 127.157 22.5678C127.214 22.5677 127.296 22.5308 127.358 22.4937C127.954 22.1041 128.557 21.6774 129.128 21.2135L129.014 21.8628C128.982 22.0482 129.075 22.1599 129.263 22.16L131.071 22.16C130.192 25.0171 128.239 26.5947 124.772 27.2441L124.675 27.2692C124.471 27.3375 124.39 27.4715 124.477 27.6337L125.735 30.2316C125.803 30.3796 125.906 30.4349 126.081 30.398C130.636 29.2475 133.449 26.4275 134.613 22.16L136.742 22.16C136.595 23.1062 136.396 24.2383 136.119 25.2772C135.743 26.6686 135.21 26.9101 132.48 26.7988L132.461 26.7988C132.273 26.7988 132.184 26.8728 132.161 27.0027C132.154 27.0398 132.148 27.077 132.157 27.1326L132.676 29.9719C132.703 30.1385 132.784 30.2123 132.973 30.2123C136.881 30.3022 138.552 29.6436 139.405 26.1948L139.485 25.8524C139.783 24.4793 140.046 23.0871 140.309 21.6954C140.453 21.8439 141.215 22.5495 141.403 22.5495C141.497 22.5494 141.582 22.4934 141.658 22.3822L143.741 19.3207C143.865 19.1537 143.835 19.0047 143.681 18.9119C141.752 17.6687 140.481 15.5725 139.774 13.2718Z" fill="#262626"/>
<path d="M104.574 29.741C104.573 29.8656 104.641 29.9456 104.764 29.9661L104.83 29.9718L119.469 29.9718L119.536 29.9661C119.667 29.9457 119.762 29.8657 119.805 29.741L119.822 29.6746L122.382 15.1089C122.411 14.9463 122.343 14.8402 122.199 14.8165L122.133 14.8117L122.536 12.5196C123.097 12.5197 123.789 12.6944 124.272 13.2699C124.694 13.7734 124.787 14.3805 124.739 14.8944L124.71 15.1089L122.15 29.6746L122.104 29.8882C121.971 30.4022 121.665 31.0099 121.065 31.5136C120.38 32.0891 119.627 32.2638 119.066 32.2638L104.427 32.2638C103.866 32.2638 103.175 32.089 102.692 31.5136C102.209 30.9381 102.156 30.227 102.253 29.6746L104.814 15.1089C104.911 14.5565 105.213 13.8454 105.899 13.2699C106.584 12.6943 107.337 12.5196 107.898 12.5196L107.495 14.8117L107.427 14.8165C107.275 14.8403 107.169 14.9465 107.141 15.1089L104.581 29.6746L104.574 29.741ZM117.073 25.5927L116.852 26.8536L108.543 26.8536L108.765 25.5927L117.073 25.5927ZM117.752 21.7329L117.533 22.9756L109.225 22.9756L109.443 21.7329L117.752 21.7329ZM118.43 17.8731L118.212 19.1168L109.903 19.1168L110.122 17.8731L118.43 17.8731ZM112.242 10.9538C112.852 10.639 113.425 10.5814 113.863 10.6152L113.864 10.6143L117.194 10.8557C117.202 10.8563 117.211 10.8569 117.219 10.8576C117.633 10.8921 118.594 11.0763 119.03 12.0464C119.101 12.205 119.147 12.3641 119.176 12.5196L122.536 12.5196L122.133 14.8117L115.69 14.8117C116.06 14.422 116.424 13.9578 116.769 13.494C116.918 13.29 116.847 13.1606 116.624 13.1419L113.294 12.9005C113.109 12.8821 112.983 12.9562 112.882 13.1044C112.546 13.6078 112.166 14.1111 111.721 14.602L111.526 14.8117L107.495 14.8117L107.898 12.5196L110.671 12.5196C110.77 12.3843 110.868 12.2469 110.962 12.1061L110.98 12.0791L111.076 11.9454C111.318 11.6235 111.694 11.2369 112.242 10.9538Z" fill="#262626"/>
<path d="M191.185 46.4666C191.127 46.5045 191.059 46.5298 191.007 46.5298C190.943 46.5298 190.883 46.5045 190.845 46.4287L190.031 44.9238C190.001 44.8732 189.998 44.8226 190.004 44.7847C190.018 44.7088 190.069 44.6329 190.168 44.5823C192.849 43.0648 194.617 41.9899 196.194 41.054L192.6 41.1932C192.446 41.1932 192.369 41.1173 192.396 40.9655L192.686 39.2456C192.714 39.0812 192.818 39.0054 192.972 39.0054L200.29 39.0054C200.457 39.0054 200.534 39.0812 200.505 39.2456L200.247 40.7126C200.225 40.8391 200.158 40.9276 200.044 40.9908L197.304 42.4831C197.46 42.4704 197.601 42.4704 197.755 42.4704C199.72 42.4704 201.242 43.7477 200.882 45.7963C200.655 47.0863 199.668 48.4647 197.912 49.2487C197.118 49.6028 196.068 49.8052 195.08 49.8052C194.129 49.8052 193.236 49.6281 192.663 49.2361C191.975 48.7682 191.706 48.0347 191.835 47.3012C192.084 45.8849 193.625 45.1514 194.909 45.1514C196.129 45.1514 197.248 45.7963 197.092 47.4151C197.755 47.0736 198.39 46.6057 198.521 45.8596C198.728 44.6835 197.314 44.1776 196.325 44.1776C195.401 44.1776 194.252 44.5064 192.989 45.2652L191.185 46.4666ZM194.953 47.8956C195.139 47.2001 194.753 46.7701 194.342 46.7701C194.111 46.7701 193.883 46.8966 193.839 47.1495C193.743 47.6933 194.531 47.883 194.953 47.8956Z" fill="#262626"/>
<path d="M175.679 48.313C175.623 48.2624 175.609 48.1992 175.62 48.136C175.629 48.0854 175.666 48.0222 175.739 47.9716C177.992 46.3276 180.652 44.418 181.607 43.5834L177.528 43.7098C177.374 43.7098 177.297 43.634 177.326 43.4696L177.605 41.737C177.634 41.5726 177.737 41.4968 177.891 41.4968L185.469 41.4841C185.636 41.4841 185.699 41.56 185.671 41.7244L185.458 43.0775C185.436 43.204 185.382 43.2925 185.266 43.3684C184.497 43.8742 183.456 44.6077 182.534 45.2527C183.276 45.2653 183.86 45.67 183.837 46.6058C183.825 47.4025 184.07 47.6175 184.853 47.6175C185.341 47.6175 185.913 47.5037 186.653 47.314C186.693 47.3013 186.719 47.3013 186.745 47.3013C186.86 47.3013 186.913 47.3646 186.893 47.4784L186.885 47.529L186.297 49.4132C186.261 49.5397 186.156 49.6282 186.023 49.6535C185.479 49.7547 184.931 49.8053 184.443 49.8053C182.889 49.8053 181.4 49.5144 181.516 47.6807C181.548 47.0611 181.272 46.8081 180.925 46.8081C180.694 46.8081 180.432 46.9093 180.196 47.0864C179.208 47.8831 178.362 48.6798 177.296 49.6282C177.234 49.6915 177.165 49.7167 177.101 49.7167C177.05 49.7167 177.003 49.6915 176.947 49.6409L175.679 48.313ZM185.253 41.1047C183.554 41.13 180.989 40.8897 179.594 40.6495C179.444 40.6242 179.398 40.523 179.45 40.3712L179.967 38.8158C180.02 38.664 180.123 38.5881 180.247 38.6134C181.609 38.8284 184.299 39.0813 185.921 39.0561C186.063 39.0561 186.126 39.1319 186.104 39.2584L186.093 39.3216L185.548 40.8897C185.498 41.0288 185.394 41.1047 185.253 41.1047Z" fill="#262626"/>
<path d="M168.709 38.0696C168.838 38.0696 168.904 38.1328 168.879 38.2719L168.759 38.9548L171.083 38.9548C171.212 38.9548 171.277 39.018 171.253 39.1571L171.144 39.7768L171.869 38.9422C171.966 38.8283 172.06 38.8031 172.164 38.8663L173.578 39.663C173.648 39.7009 173.678 39.7515 173.667 39.8147C173.66 39.8527 173.626 39.9033 173.593 39.9412C173.201 40.3459 172.719 40.8264 172.166 41.2691L173.475 41.2691C173.604 41.2691 173.67 41.3323 173.645 41.4714L173.405 42.8372C173.383 42.9636 173.293 43.0395 173.164 43.0395L169.775 43.0395C169.27 43.2798 168.686 43.5327 168.062 43.7983C169.376 43.6971 170.788 43.558 172.03 43.3557C172.148 43.343 172.231 43.381 172.25 43.4948L172.539 44.772C172.566 44.9111 172.499 44.9997 172.353 45.025C170.524 45.2779 167.767 45.4043 165.712 45.4043L165.551 45.809L171.715 45.809C171.843 45.809 171.907 45.8849 171.884 46.0114C171.798 46.5046 171.647 47.2886 171.454 47.9462C170.923 49.7293 169.556 49.9822 165.165 49.9064C165.037 49.9064 164.968 49.8558 164.948 49.7546L164.622 48.2497C164.613 48.2244 164.618 48.1991 164.622 48.1738C164.638 48.0853 164.713 48.0221 164.841 48.0221L164.854 48.0221C165.761 48.0474 166.465 48.06 167.017 48.06C168.738 48.06 169.03 47.9336 169.112 47.7565C169.149 47.6933 169.18 47.5921 169.193 47.5162L162.735 47.5162C162.581 47.5162 162.532 47.4277 162.608 47.2886C162.924 46.7322 163.219 46.0746 163.48 45.4676C162.856 45.6573 162.249 45.8217 161.701 45.9481C161.578 45.9861 161.497 45.9355 161.466 45.8217L161.085 44.1903C161.058 44.0512 161.125 43.9627 161.281 43.95C162.941 43.7856 164.779 43.4821 166.346 43.0395L161.788 43.0395C161.66 43.0395 161.596 42.9636 161.618 42.8372L161.858 41.4714C161.883 41.3323 161.971 41.2691 162.099 41.2691L166.041 41.2691L166.148 40.662L163.169 40.662C163.041 40.662 162.975 40.5988 162.999 40.4597L163.228 39.1571C163.252 39.018 163.341 38.9548 163.469 38.9548L166.448 38.9548L166.568 38.2719C166.592 38.1328 166.681 38.0696 166.809 38.0696L168.709 38.0696ZM169.444 41.2691C169.749 41.0667 170.018 40.8517 170.291 40.6115L168.468 40.6115L168.352 41.2691L169.444 41.2691Z" fill="#262626"/>
<path d="M154.673 49.4764C152.157 49.4764 148.85 48.49 149.384 45.455C149.657 43.8995 150.939 42.3061 152.562 41.5473C151.102 41.5979 149.263 41.6864 147.756 41.7117C147.602 41.7117 147.526 41.6358 147.554 41.4714L147.838 39.6377C147.865 39.486 147.958 39.3975 148.124 39.3975C150.821 39.3975 155.43 39.3975 158.266 39.3342C158.433 39.3342 158.497 39.4101 158.47 39.5619L158.152 41.3703C158.128 41.5094 158.048 41.5979 157.892 41.6105C157.494 41.6105 157.125 41.6611 156.783 41.7117C155.142 41.9899 152.303 43.381 151.999 45.1135C151.808 46.2011 152.846 47.0863 155.68 47.0357C155.821 47.0357 155.885 47.1116 155.863 47.2381L155.854 47.2887L155.16 49.2615C155.11 49.4006 154.943 49.4764 154.673 49.4764Z" fill="#262626"/>
<path d="M133.231 47.4277C132.773 46.239 132.854 44.6076 133.245 42.3819C133.399 41.5093 133.593 40.5482 133.831 39.4859C133.873 39.3215 133.976 39.2457 134.141 39.2583L136.232 39.4859C136.384 39.4986 136.441 39.6124 136.389 39.7642C135.985 41.0414 135.695 42.1796 135.521 43.166C135.252 44.6962 135.277 45.7964 135.608 46.3275C135.688 46.454 135.793 46.5172 135.921 46.5172C136.255 46.5172 136.754 46.0872 137.29 45.2273C137.36 45.1261 137.435 45.0629 137.499 45.0629C137.55 45.0629 137.595 45.1008 137.638 45.1514L138.763 46.5678C138.816 46.631 138.83 46.6942 138.819 46.7575C138.81 46.8081 138.786 46.8713 138.737 46.9345C137.715 48.4394 136.511 49.1476 135.459 49.1476C134.496 49.1476 133.663 48.5532 133.231 47.4277ZM141.418 47.5289C141.245 47.5668 141.155 47.491 141.184 47.3266C141.494 45.1261 141.265 42.4831 139.762 40.9529C139.709 40.8897 139.68 40.8391 139.691 40.7758C139.702 40.7126 139.749 40.662 139.835 40.6115L141.575 39.6251C141.633 39.5871 141.687 39.5745 141.738 39.5745C141.802 39.5745 141.862 39.5998 141.904 39.6503C143.428 41.2817 144.2 44.0512 143.723 46.8334C143.697 46.9851 143.604 47.0736 143.458 47.0989L141.418 47.5289Z" fill="#262626"/>
<path d="M120.874 48.8441C120.733 48.8441 120.652 48.7935 120.625 48.6544L120.261 46.7828C120.225 46.6184 120.323 46.5046 120.513 46.5172C122.173 46.5678 123.719 46.4666 124.801 45.9355C125.756 45.4676 126.414 44.6456 126.55 43.8742C126.71 42.9636 126.112 42.129 124.379 42.129C122.786 42.129 120.726 42.6728 119.133 43.1154C118.973 43.1533 118.879 43.1027 118.854 42.951L118.581 41.1426C118.557 40.9908 118.639 40.8897 118.799 40.8517C120.441 40.4976 122.38 40.1309 124.448 39.9791L125.159 39.9539C128.485 39.9539 129.568 41.8255 129.219 43.8109C128.941 45.3917 127.751 47.0483 126.04 47.8703C124.456 48.6291 122.484 48.8188 120.874 48.8441Z" fill="#262626"/>
<path d="M103.58 49.2741C103.426 49.2741 103.348 49.2109 103.349 49.0591C103.392 48.0095 103.541 46.7955 103.763 45.5308C104.141 43.381 104.728 41.0668 105.39 38.9801C105.442 38.8284 105.545 38.7525 105.697 38.7652L107.646 38.8537C107.811 38.8663 107.872 38.9548 107.818 39.1192C107.192 40.9276 106.671 43.0143 106.326 44.9744C106.073 46.4161 105.91 47.7819 105.875 48.9327C105.871 49.0971 105.776 49.1982 105.61 49.1982L103.58 49.2741ZM113.991 42.2049C113.196 42.0532 112.195 41.9773 111.154 41.9773C110.256 41.9773 109.335 42.0279 108.476 42.167C108.318 42.1923 108.226 42.129 108.242 41.9646L108.358 40.2068C108.372 40.0551 108.454 39.9539 108.623 39.9412C109.671 39.8274 110.76 39.7642 111.8 39.7642C112.802 39.7642 113.767 39.8274 114.643 39.9539C114.78 39.9792 114.841 40.0677 114.802 40.2195L114.296 42.0026C114.254 42.167 114.14 42.2302 113.991 42.2049ZM113.404 48.7556C112.597 48.8947 111.629 48.9959 110.704 48.9959C109.048 48.9959 106.529 48.6418 106.9 46.5299C106.976 46.0999 107.161 45.632 107.434 45.1009C107.51 44.9618 107.611 44.8985 107.75 44.9112L109.294 45.0376C109.472 45.0503 109.503 45.1641 109.423 45.3285C109.323 45.5308 109.253 45.7079 109.227 45.8596C109.08 46.6943 110.289 46.7575 110.905 46.7575C111.688 46.7575 112.65 46.6184 113.688 46.3402C113.876 46.2896 113.966 46.3655 113.934 46.5425L113.656 48.49C113.63 48.6418 113.55 48.7303 113.404 48.7556Z" fill="#262626"/>
</svg>
