<svg width="373" height="56" viewBox="0 0 373 56" fill="none" xmlns="http://www.w3.org/2000/svg">
<g clip-path="url(#clip0_452_2)">
<rect width="373" height="56" fill="#D8FF33"/>
<path d="M279.634 43.8567C278.447 43.8567 277.562 43.0089 277.562 41.8408C277.562 40.6539 278.447 39.825 279.634 39.825C280.802 39.825 281.706 40.6539 281.706 41.8408C281.706 43.0089 280.802 43.8567 279.634 43.8567ZM285.908 43.8567C284.74 43.8567 283.835 43.0089 283.835 41.8408C283.835 40.6539 284.74 39.825 285.908 39.825C287.076 39.825 287.98 40.6539 287.98 41.8408C287.98 43.0089 287.076 43.8567 285.908 43.8567ZM292.181 43.8567C291.013 43.8567 290.109 43.0089 290.109 41.8408C290.109 40.6539 291.013 39.825 292.181 39.825C293.368 39.825 294.254 40.6539 294.254 41.8408C294.254 43.0089 293.368 43.8567 292.181 43.8567Z" fill="white"/>
<path d="M270.723 49.6783C268.839 49.942 267.049 50.1116 265.429 50.1116C263.733 50.1116 262.207 49.942 260.888 49.5275C258.853 48.887 257.572 47.2291 257.572 45.3451C257.572 43.5741 258.703 41.5959 261.359 40.1075C260.888 38.3177 260.85 36.283 260.832 34.2671C260.832 34.0222 260.945 33.9092 261.19 33.9092H264.279C264.505 33.9092 264.618 34.0411 264.618 34.2671C264.562 36.0004 264.581 37.4511 264.788 38.7511C266.201 38.3366 267.859 37.9598 269.555 37.6395C269.781 37.6018 269.912 37.6772 269.988 37.8844L270.911 40.6162C270.986 40.8423 270.911 41.0119 270.647 41.0495C268.047 41.464 265.636 42.0104 263.959 42.6698C262 43.4422 261.321 44.4031 261.321 45.1755C261.321 45.703 261.642 46.1363 262.075 46.3436C262.697 46.6262 263.733 46.7392 264.901 46.7392C266.785 46.7392 269.065 46.4566 270.741 46.174H270.836C271.024 46.174 271.118 46.2682 271.118 46.4755L271.062 49.3015C271.062 49.5275 270.949 49.6406 270.723 49.6783Z" fill="white"/>
<path d="M236.923 45.4957C236.848 45.5522 236.754 45.5899 236.679 45.5899C236.584 45.5899 236.49 45.5522 236.415 45.4392L234.832 43.1972C234.776 43.1219 234.757 43.0465 234.757 42.99C234.757 42.877 234.813 42.7639 234.945 42.6886C238.487 40.4278 240.804 38.8264 242.877 37.4322L237.639 37.6394C237.413 37.6394 237.281 37.5264 237.281 37.3003L237.263 34.7381C237.263 34.4932 237.394 34.3801 237.621 34.3801H248.359C248.604 34.3801 248.736 34.4932 248.736 34.7381V36.9235C248.736 37.1119 248.661 37.2438 248.51 37.338L244.874 39.5611C245.1 39.5423 245.307 39.5423 245.533 39.5423C248.416 39.5423 250.978 41.4451 250.978 44.4972C250.978 46.4189 249.885 48.4724 247.512 49.6405C246.438 50.168 244.949 50.4695 243.499 50.4695C242.104 50.4695 240.748 50.2057 239.806 49.6217C238.676 48.9246 238.092 47.8319 238.092 46.7392C238.092 44.6291 240.164 43.5364 242.048 43.5364C243.838 43.5364 245.646 44.4972 245.835 46.9087C246.72 46.4 247.53 45.703 247.53 44.5914C247.53 42.8393 245.326 42.0857 243.875 42.0857C242.519 42.0857 240.918 42.5755 239.26 43.7059L236.923 45.4957ZM242.82 47.6246C242.915 46.5884 242.236 45.9479 241.633 45.9479C241.294 45.9479 240.993 46.1363 240.993 46.5131C240.993 47.3232 242.199 47.6058 242.82 47.6246Z" fill="white"/>
<path d="M218.799 49.7536C218.592 49.7348 218.479 49.6217 218.422 49.4145L217.744 46.6262C217.669 46.3436 217.82 46.2117 218.102 46.2682C218.667 46.4001 219.138 46.4566 219.553 46.4566C220.533 46.4566 221.117 46.0798 221.38 45.3074C221.701 44.4031 221.757 42.7451 221.682 41.8408C221.588 40.6539 221.418 40.4467 220.664 40.4278H219.459C218.649 43.5176 217.537 46.7581 216.199 49.5841C216.105 49.7913 215.954 49.8667 215.728 49.7913L213.147 48.9812C212.902 48.9058 212.827 48.7551 212.94 48.529C214.372 45.5523 215.295 42.9712 215.973 40.5597L213.43 40.7481C213.185 40.7669 213.053 40.6539 213.034 40.409L212.902 37.8091C212.884 37.5641 213.015 37.4323 213.241 37.4323L216.727 37.3757C216.953 36.2453 217.141 35.1526 217.311 34.0599C217.349 33.8338 217.48 33.7208 217.707 33.7396L220.42 34.0222C220.664 34.0411 220.777 34.1541 220.74 34.3425C220.608 35.2845 220.42 36.3019 220.193 37.3569C223.114 37.3569 224.677 37.5076 224.979 41.0307C225.111 42.5379 224.979 45.3074 224.659 46.4189C223.961 48.8681 222.548 49.829 220.062 49.829C219.666 49.829 219.251 49.7913 218.799 49.7536ZM227.014 43.8944C226.769 43.9886 226.618 43.8944 226.599 43.6306C226.354 41.3698 225.657 39.2974 224.451 37.3569C224.414 37.2815 224.395 37.225 224.395 37.1497C224.395 37.0366 224.47 36.9424 224.621 36.8859L225.921 36.4337C225.601 35.7555 225.205 35.0773 224.847 34.5686C224.79 34.4932 224.772 34.4179 224.772 34.3425C224.772 34.2295 224.847 34.1541 225.016 34.0976L226.147 33.7396C226.335 33.6831 226.486 33.7208 226.618 33.8715C227.296 34.6251 227.88 35.7367 228.182 36.6033C228.257 36.8294 228.182 36.9801 227.956 37.0555L227.937 37.0743C228.898 38.8641 229.613 40.6351 229.858 42.5191C229.877 42.7263 229.802 42.877 229.595 42.9524L227.014 43.8944ZM229.293 36.641C229.067 36.7163 228.916 36.6221 228.841 36.4149C228.577 35.6425 228.106 34.6251 227.466 33.7773C227.409 33.7019 227.372 33.6266 227.372 33.5512C227.372 33.4382 227.447 33.3628 227.598 33.3063L228.596 32.9672C228.803 32.8918 228.954 32.9295 229.086 33.0991C229.726 33.8527 230.329 34.9642 230.65 35.812C230.744 36.0381 230.65 36.1888 230.424 36.2642L229.293 36.641Z" fill="white"/>
<path d="M191.764 46.7015C191.613 46.645 191.519 46.5697 191.519 46.4566C191.519 46.3813 191.538 46.3059 191.594 46.2305C192.97 44.0263 194.138 41.7089 194.986 39.1467H192.612C192.386 39.1467 192.254 39.0148 192.254 38.7887V36.3961C192.254 36.17 192.386 36.0381 192.612 36.0381H195.702C195.852 35.3599 196.003 34.6439 196.097 33.928C196.135 33.7019 196.267 33.5889 196.493 33.6077L199.225 33.7961C199.451 33.815 199.564 33.9469 199.526 34.1918C199.413 34.8135 199.281 35.4352 199.13 36.0381H201.033C201.259 36.0381 201.391 36.17 201.391 36.3961V38.7887C201.391 39.0148 201.259 39.1467 201.033 39.1467H198.377C197.416 42.0857 196.154 44.7422 194.778 47.2667C194.684 47.4551 194.533 47.5117 194.326 47.4551L191.764 46.7015ZM206.591 40.2771C205.404 39.4481 203.916 39.0337 202.069 38.7699C201.825 38.7322 201.73 38.5815 201.787 38.3366L202.333 36.1511C202.39 35.9439 202.522 35.8497 202.767 35.8685C204.669 36.0569 206.949 36.4714 208.419 37.3569C208.532 37.4323 208.588 37.5265 208.588 37.6395C208.588 37.7149 208.569 37.7714 208.532 37.8467L207.1 40.1829C207.024 40.3148 206.93 40.3713 206.836 40.3713C206.761 40.3713 206.685 40.3336 206.591 40.2771ZM206.064 49.2261C205.988 49.3203 205.894 49.358 205.819 49.358C205.724 49.358 205.63 49.3015 205.555 49.2073C205.14 48.6986 204.707 48.2276 204.236 47.7943C203.595 49.471 201.768 50.1493 200.091 50.1493C198.075 50.1493 196.022 49.0942 196.022 46.8711C196.022 45.7972 196.53 44.7233 197.472 44.0074C198.245 43.4234 199.187 43.1785 200.242 43.1785C200.6 43.1785 200.958 43.2161 201.335 43.2727C201.316 42.3118 201.278 41.2756 201.316 40.2394C201.316 40.0133 201.467 39.9003 201.693 39.9003H204.161C204.406 39.9003 204.537 40.0133 204.519 40.2583C204.462 41.5205 204.481 42.9335 204.481 44.2712C205.781 44.8929 207.006 45.7219 207.985 46.645C208.079 46.7204 208.117 46.8146 208.117 46.8899C208.117 46.9841 208.061 47.0595 207.985 47.1537L206.064 49.2261ZM201.41 45.9668C200.996 45.7972 200.562 45.703 200.185 45.703C199.658 45.703 198.867 45.9103 198.867 46.5697C198.867 46.7581 198.923 46.9465 199.074 47.0783C199.3 47.3044 199.696 47.4175 200.091 47.4175C201.071 47.4175 201.372 46.8711 201.41 45.9668Z" fill="white"/>
<path d="M175.448 49.0377C175.241 49.0377 175.109 48.9624 175.034 48.7551L174.017 45.9668C173.922 45.7219 174.035 45.5523 174.318 45.5712C176.767 45.6465 179.009 45.4958 180.46 44.7045C181.741 44.0075 182.495 42.7829 182.495 41.6336C182.495 40.2771 181.402 39.0337 178.858 39.0337C176.522 39.0337 173.64 39.8438 171.417 40.5032C171.191 40.5597 171.04 40.4844 170.964 40.2583L170.098 37.5642C170.022 37.3381 170.117 37.1874 170.343 37.1309C172.66 36.6033 175.411 36.057 178.406 35.8309L179.442 35.7932C184.322 35.7932 186.394 38.5815 186.394 41.5394C186.394 43.8944 185.076 46.3625 182.777 47.5871C180.648 48.7175 177.803 49.0001 175.448 49.0377Z" fill="white"/>
<path d="M154.551 49.7536C154.344 49.7348 154.23 49.6217 154.174 49.4145L153.496 46.6262C153.42 46.3436 153.571 46.2117 153.854 46.2682C154.419 46.4001 154.89 46.4566 155.304 46.4566C156.284 46.4566 156.868 46.0798 157.132 45.3074C157.452 44.4031 157.509 42.7451 157.433 41.8408C157.339 40.6539 157.17 40.4467 156.416 40.4278H155.21C154.4 43.5176 153.288 46.7581 151.951 49.5841C151.857 49.7913 151.706 49.8667 151.48 49.7913L148.899 48.9812C148.654 48.9058 148.578 48.7551 148.692 48.529C150.123 45.5523 151.047 42.9712 151.725 40.5597L149.181 40.7481C148.936 40.7669 148.805 40.6539 148.786 40.409L148.654 37.8091C148.635 37.5641 148.767 37.4323 148.993 37.4323L152.478 37.3757C152.704 36.2453 152.893 35.1526 153.062 34.0599C153.1 33.8338 153.232 33.7208 153.458 33.7396L156.171 34.0222C156.416 34.0411 156.529 34.1541 156.491 34.3425C156.359 35.2845 156.171 36.3019 155.945 37.3569C158.865 37.3569 160.429 37.5076 160.73 41.0307C160.862 42.5379 160.73 45.3074 160.41 46.4189C159.713 48.8681 158.3 49.829 155.813 49.829C155.417 49.829 155.003 49.7913 154.551 49.7536ZM162.765 43.8944C162.52 43.9886 162.369 43.8944 162.351 43.6306C162.106 41.3698 161.409 39.2974 160.203 37.3569C160.165 37.2815 160.146 37.225 160.146 37.1497C160.146 37.0366 160.222 36.9424 160.372 36.8859L161.672 36.4337C161.352 35.7555 160.956 35.0773 160.598 34.5686C160.542 34.4932 160.523 34.4179 160.523 34.3425C160.523 34.2295 160.598 34.1541 160.768 34.0976L161.898 33.7396C162.087 33.6831 162.237 33.7208 162.369 33.8715C163.048 34.6251 163.632 35.7367 163.933 36.6033C164.008 36.8294 163.933 36.9801 163.707 37.0555L163.688 37.0743C164.649 38.8641 165.365 40.6351 165.61 42.5191C165.629 42.7263 165.553 42.877 165.346 42.9524L162.765 43.8944ZM165.045 36.641C164.819 36.7163 164.668 36.6221 164.592 36.4149C164.329 35.6425 163.858 34.6251 163.217 33.7773C163.161 33.7019 163.123 33.6266 163.123 33.5512C163.123 33.4382 163.198 33.3628 163.349 33.3063L164.348 32.9672C164.555 32.8918 164.706 32.9295 164.837 33.0991C165.478 33.8527 166.081 34.9642 166.401 35.812C166.495 36.0381 166.401 36.1888 166.175 36.2642L165.045 36.641Z" fill="white"/>
<path d="M132.861 49.0377C132.654 49.0377 132.522 48.9624 132.447 48.7551L131.43 45.9668C131.335 45.7219 131.448 45.5523 131.731 45.5712C134.18 45.6465 136.422 45.4958 137.873 44.7045C139.154 44.0075 139.908 42.7829 139.908 41.6336C139.908 40.2771 138.815 39.0337 136.271 39.0337C133.935 39.0337 131.053 39.8438 128.83 40.5032C128.604 40.5597 128.453 40.4844 128.378 40.2583L127.511 37.5642C127.436 37.3381 127.53 37.1874 127.756 37.1309C130.073 36.6033 132.824 36.057 135.819 35.8309L136.856 35.7932C141.735 35.7932 143.808 38.5815 143.808 41.5394C143.808 43.8944 142.489 46.3625 140.19 47.5871C138.061 48.7175 135.216 49.0001 132.861 49.0377Z" fill="white"/>
<path d="M117.071 50.0927C114.264 50.0927 112.097 48.5101 111.362 45.8725V45.7595C111.362 45.6088 111.438 45.5146 111.607 45.4581L114.377 44.761C114.414 44.7421 114.452 44.7421 114.49 44.7421C114.622 44.7421 114.716 44.8363 114.791 44.9871C115.187 45.9856 115.884 46.5131 116.995 46.5131C118.258 46.5131 118.955 45.8914 118.955 44.9305C118.955 43.932 118.164 43.4045 116.901 43.4045H116.185C115.978 43.4045 115.846 43.2726 115.846 43.0654V40.7669C115.846 40.5785 115.978 40.4466 116.185 40.4466H116.939C117.937 40.4466 118.653 39.8814 118.653 39.0901C118.653 38.2423 117.956 37.6583 116.939 37.6583C115.997 37.6583 115.356 38.167 114.961 39.2032C114.867 39.3916 114.735 39.4858 114.527 39.4293L111.739 38.751C111.532 38.7133 111.419 38.5626 111.457 38.3554C112.21 35.6801 114.377 34.1541 117.127 34.1541C120.292 34.1541 122.553 35.9627 122.553 38.4119C122.553 39.8061 121.724 41.0118 120.179 41.7843C121.932 42.3683 122.93 43.6683 122.93 45.4581C122.93 48.2464 120.594 50.0927 117.071 50.0927Z" fill="white"/>
<path d="M99.6062 49.5652C99.399 49.584 99.2671 49.4898 99.1917 49.2826L98.1744 46.6262C98.0802 46.3812 98.1932 46.2305 98.4758 46.2117C102.281 46.0233 103.563 43.8944 103.563 41.8973C103.563 39.9756 102.489 38.3742 100.642 37.7337C100.473 40.4655 99.1352 44.5161 97.4019 47.0406C96.7802 47.9638 95.7063 48.4348 94.6136 48.4348C91.6557 48.4348 90.1108 45.3639 90.1108 42.7451C90.1108 40.522 91.1094 38.0728 93.5209 36.2076C94.9904 35.0584 96.9309 34.4744 98.8526 34.4744C103.412 34.4744 107.048 37.6018 107.048 42.1988C107.048 46.1175 103.977 49.3014 99.6062 49.5652ZM97.2135 37.6772C95.1034 38.2989 93.3702 40.3901 93.3702 42.6321C93.3702 43.3857 93.5774 44.1016 94.0484 44.6668C94.1614 44.7987 94.3122 44.874 94.4629 44.874C94.6324 44.874 94.8208 44.7798 94.9527 44.5726C96.102 42.8582 97.1193 39.58 97.2135 37.6772Z" fill="white"/>
<path d="M82.4617 38.3177C80.9357 38.5249 79.1459 38.638 77.3373 38.638C75.3779 38.638 73.362 38.5061 71.5534 38.28C71.3273 38.2423 71.2143 38.1105 71.2331 37.8844L71.4027 35.2468C71.4215 35.0019 71.5534 34.8888 71.7983 34.9077C73.5127 35.0961 75.4721 35.2279 77.4503 35.2279C79.0329 35.2279 80.6531 35.1526 82.1603 34.9642C82.3864 34.9453 82.5371 35.0395 82.5559 35.2845L82.7632 37.9221C82.782 38.1481 82.6878 38.28 82.4617 38.3177ZM74.191 49.4898C71.6476 48.9623 70.4795 47.2855 70.4795 45.4957C70.4795 44.7421 70.6867 43.9697 71.0824 43.2538C71.1766 43.0654 71.3273 43.0089 71.5345 43.0465L73.9084 43.5364C74.1721 43.5929 74.2287 43.7625 74.1156 43.9885C73.9649 44.29 73.8895 44.5914 73.8895 44.8552C73.8895 46.4377 76.2257 46.4377 77.3373 46.4377C79.3155 46.4377 81.6893 46.0609 83.5921 45.5523C83.8371 45.4769 83.9878 45.6088 83.9878 45.8537L83.9689 48.7739C83.9689 48.9811 83.8747 49.113 83.6675 49.1695C82.0096 49.6029 79.956 49.8478 77.9967 49.8478C76.6402 49.8478 75.3025 49.7347 74.191 49.4898Z" fill="white"/>
<path d="M291.964 21.9797C288.272 21.9797 283.166 20.5102 283.166 15.9886C283.166 13.6712 284.635 11.2974 286.821 10.167C284.692 10.2424 282.017 10.3742 279.812 10.4119C279.586 10.4119 279.454 10.2989 279.454 10.054L279.398 7.32216C279.398 7.09608 279.511 6.96419 279.756 6.96419C283.712 6.96419 290.476 6.9642 294.621 6.87C294.866 6.87 294.979 6.98304 294.979 7.20912V9.90324C294.979 10.1105 294.884 10.2424 294.658 10.2612C294.074 10.2612 293.547 10.3366 293.057 10.4119C290.721 10.8264 286.915 12.8988 286.915 15.4799C286.915 17.1001 288.667 18.4189 292.812 18.3436C293.019 18.3436 293.132 18.4566 293.132 18.645V18.7204L292.624 21.6594C292.586 21.8666 292.36 21.9797 291.964 21.9797Z" fill="white"/>
<path d="M273.8 19.6812C272.613 21.3203 270.183 22.3377 267.847 22.3377C264.945 22.3377 262.195 20.7928 262.025 16.9683C261.912 14.3683 262.195 9.75254 262.308 6.26714C262.308 6.02222 262.44 5.90918 262.685 5.90918L265.661 5.98454C265.906 5.98454 266.019 6.11642 266 6.36134C265.774 9.86558 265.529 13.6336 265.605 16.177C265.661 18.0798 266.811 18.8334 268.111 18.8334C269.128 18.8334 270.258 18.3436 270.955 17.5711C271.69 16.761 272.086 15.6871 272.425 13.8597C272.463 13.6713 272.557 13.5771 272.689 13.5771C272.745 13.5771 272.821 13.5959 272.896 13.6524L275.42 15.2915C275.59 15.4045 275.647 15.5741 275.59 15.7813C275.176 17.3262 274.705 18.4378 273.8 19.6812Z" fill="white"/>
<path d="M249.365 16.7045C249.177 16.7798 249.007 16.761 248.875 16.5914L248.028 15.5929C247.274 18.3247 245.465 20.6232 241.867 21.9232C241.678 21.9985 241.528 21.9608 241.396 21.7913L239.436 19.3044C239.38 19.229 239.342 19.1537 239.342 19.0972C239.342 18.9653 239.436 18.8711 239.625 18.8334C244.844 17.4958 245.088 13.6901 244.938 11.1467C244.919 10.9206 245.051 10.7887 245.277 10.7887L248.084 10.8076C248.31 10.8076 248.461 10.9206 248.461 11.1467C248.499 11.9191 248.48 12.6916 248.404 13.4263C249.949 12.7104 250.967 11.467 251.193 9.95976L239.794 10.0728C239.568 10.0728 239.436 9.94092 239.436 9.71484V7.13376C239.436 6.90768 239.568 6.7758 239.794 6.7758L254.64 6.75696C254.885 6.75696 254.998 6.88884 254.998 7.11492C254.979 11.9003 253.133 15.0466 249.365 16.7045Z" fill="white"/>
<path d="M222.763 22.0362C222.556 22.0551 222.424 21.9797 222.311 21.8101L220.521 18.8334C220.483 18.7581 220.465 18.6827 220.465 18.6262C220.465 18.4943 220.578 18.4001 220.785 18.4001C226.173 18.3813 227.888 16.3277 227.888 12.1452L227.869 6.66277C227.869 6.43669 228.001 6.30481 228.227 6.30481H231.185C231.429 6.30481 231.542 6.43669 231.542 6.66277L231.58 12.0698C231.637 18.0798 228.961 21.2261 222.763 22.0362ZM219.937 15.6118C219.711 15.6118 219.579 15.4799 219.579 15.2538V6.71929C219.579 6.47437 219.711 6.36133 219.937 6.36133H222.857C223.102 6.36133 223.215 6.47437 223.215 6.71929V15.2538C223.215 15.4799 223.102 15.6118 222.857 15.6118H219.937Z" fill="white"/>
<path d="M200.061 22.2623C199.872 22.3188 199.722 22.2623 199.59 22.0927L197.536 19.3798C197.48 19.3044 197.442 19.229 197.442 19.1725C197.442 19.0406 197.536 18.9653 197.725 18.9276C202.906 18.0798 206.711 14.877 207.672 9.75252H203.245C202.397 11.8061 200.57 13.9915 198.817 15.1219C198.742 15.1784 198.667 15.1973 198.591 15.1973C198.497 15.1973 198.422 15.1596 198.328 15.0842L196.161 13.2944C196.067 13.2191 196.01 13.1249 196.01 13.0495C196.01 12.9553 196.086 12.8611 196.217 12.7858C198.723 11.3162 200.287 8.62212 200.871 6.9642C200.946 6.7758 201.059 6.6816 201.285 6.6816L211.403 6.64392C211.647 6.64392 211.76 6.7758 211.742 7.02072C211.12 15.4987 206.919 20.1899 200.061 22.2623Z" fill="white"/>
<path d="M181.918 21.9797C179.375 21.6971 178.093 20.2276 178.093 18.5885C178.093 16.1393 180.486 14.8205 182.408 13.8974C182.144 13.7466 181.843 13.6713 181.522 13.6713C180.637 13.6713 179.601 14.2553 178.809 15.348C178.772 15.4046 178.753 15.4234 178.715 15.4611L177.208 17.5335C177.133 17.6277 177.038 17.6842 176.944 17.6842C176.869 17.6842 176.775 17.6465 176.699 17.59L174.683 16.0074C174.589 15.9321 174.533 15.8379 174.533 15.7437C174.533 15.6683 174.57 15.5741 174.646 15.4988C176.059 14.0104 177.396 12.2394 178.244 10.525H175.607C175.381 10.525 175.249 10.3931 175.249 10.167V7.83089C175.249 7.60481 175.381 7.47293 175.607 7.47293H179.412C179.638 6.83237 179.846 6.22949 179.996 5.70197C180.053 5.49473 180.204 5.38169 180.43 5.43821L183.199 6.07877C183.425 6.13529 183.519 6.28601 183.425 6.53093L183.048 7.47293H188.192C188.418 7.47293 188.55 7.60481 188.55 7.83089V10.167C188.55 10.3931 188.418 10.525 188.192 10.525H181.692L181.202 11.5235C181.579 11.4293 181.993 11.3728 182.389 11.3728C183.482 11.3728 184.612 11.7684 185.403 12.6539L188.813 11.4105C189.04 11.3351 189.209 11.4105 189.284 11.6177L190.189 14.0292C190.264 14.2553 190.189 14.4249 189.963 14.4814L186.515 15.4799C186.534 15.6872 186.553 15.8944 186.553 16.1205C186.553 16.6292 186.496 17.1755 186.402 17.7596C186.364 17.9856 186.232 18.0987 186.025 18.0987L183.557 18.1175C183.312 18.1175 183.18 17.9668 183.237 17.703C183.331 17.2886 183.369 16.8929 183.388 16.5538C182.841 16.7799 181.39 17.4581 181.39 18.2117C181.39 18.532 181.673 18.7769 182.219 18.9088C182.672 19.0218 183.293 19.0595 184.028 19.0595C185.385 19.0595 187.099 18.89 188.682 18.6262H188.776C188.964 18.6262 189.058 18.7392 189.058 18.9276L189.021 21.4899C189.021 21.716 188.889 21.8478 188.663 21.8667C187.174 22.0362 185.856 22.1304 184.593 22.1304C183.67 22.1304 182.785 22.0739 181.918 21.9797Z" fill="white"/>
<path d="M158.273 12.522C156.917 11.2973 155.127 10.167 153.771 9.56407C153.639 9.50755 153.563 9.41335 153.563 9.30031C153.563 9.24379 153.601 9.16843 153.658 9.07423L155.24 7.00183C155.372 6.83227 155.504 6.77575 155.711 6.85111C157.162 7.32211 159.253 8.45251 160.742 9.79015C160.836 9.88435 160.892 9.95971 160.892 10.0539C160.892 10.1293 160.855 10.2046 160.779 10.28L158.782 12.5031C158.707 12.5973 158.613 12.635 158.518 12.635C158.443 12.635 158.368 12.5973 158.273 12.522ZM155.466 21.5275C155.259 21.5652 155.09 21.4521 155.033 21.2449L154.148 18.3435C154.072 18.1174 154.166 17.9667 154.43 17.929C160.873 17.1566 164.02 13.7842 165.923 8.45251C165.979 8.30179 166.073 8.20759 166.186 8.20759C166.262 8.20759 166.318 8.24527 166.394 8.28295L168.88 9.90319C169.05 10.0162 169.125 10.167 169.05 10.3742C167.034 16.1204 162.908 20.4724 155.466 21.5275Z" fill="white"/>
<path d="M134.29 21.358C134.064 21.358 133.932 21.2261 133.932 21V18.6827C133.932 18.4566 134.064 18.3247 134.29 18.3247H142.071V16.7799H134.836C134.61 16.7799 134.478 16.648 134.478 16.4219V14.1799C134.478 13.9538 134.61 13.822 134.836 13.822H142.071V12.4655H134.422C134.196 12.4655 134.064 12.3336 134.064 12.1075V9.84673C134.064 9.60181 134.196 9.48877 134.422 9.48877H145.067C145.293 9.48877 145.425 9.60181 145.425 9.84673V21.0189C145.425 21.2449 145.293 21.3768 145.067 21.3768L134.29 21.358Z" fill="white"/>
<path d="M116.581 11.1467C115.45 10.2989 113.679 9.43229 112.191 8.86709C112.04 8.81057 111.946 8.71637 111.946 8.60333C111.946 8.52797 111.984 8.47145 112.022 8.39609L113.359 6.32369C113.472 6.13529 113.623 6.07877 113.811 6.13529C115.695 6.66281 117.316 7.47293 118.597 8.49029C118.691 8.56565 118.747 8.65985 118.747 8.75405C118.747 8.82941 118.71 8.92361 118.653 8.99897L117.09 11.0714C117.014 11.1844 116.92 11.2409 116.807 11.2409C116.732 11.2409 116.656 11.2032 116.581 11.1467ZM112.737 21.8667C112.511 21.9044 112.361 21.8102 112.285 21.6218L111.211 18.7769C111.117 18.5509 111.23 18.4001 111.475 18.3625C118.672 17.4958 121.159 13.9539 123.137 8.65985C123.194 8.50913 123.288 8.43377 123.401 8.43377C123.476 8.43377 123.552 8.45261 123.627 8.50913L126.114 10.0917C126.302 10.2047 126.359 10.3366 126.302 10.5062C124.155 16.2524 120.537 20.6233 112.737 21.8667ZM114.207 15.4234C113.152 14.5568 111.494 13.6336 110.006 13.1061C109.836 13.0496 109.761 12.9554 109.761 12.8235C109.761 12.767 109.78 12.7105 109.817 12.6351L111.136 10.4497C111.249 10.2612 111.4 10.2047 111.607 10.2612C113.19 10.6946 114.961 11.5801 116.148 12.5597C116.242 12.6351 116.279 12.7293 116.279 12.8235C116.279 12.8989 116.261 12.9742 116.204 13.0496L114.716 15.3481C114.64 15.4611 114.546 15.5176 114.452 15.5176C114.377 15.5176 114.282 15.4988 114.207 15.4234Z" fill="white"/>
<path d="M95.7623 14.9146C95.5174 14.9711 95.3666 14.8769 95.3478 14.6132C95.2724 13.106 94.8203 11.335 94.142 9.90319C94.029 9.67711 94.1044 9.50755 94.3493 9.45103L96.6289 8.92351C96.8362 8.86699 96.9869 8.94235 97.0811 9.13075C97.7593 10.5437 98.2868 12.2959 98.3622 13.9161C98.381 14.1233 98.268 14.2552 98.0608 14.3117L95.7623 14.9146ZM93.8218 22.055C93.6334 22.0927 93.4826 22.0361 93.3508 21.9043L91.316 19.6058C91.2407 19.5116 91.203 19.4362 91.203 19.3609C91.203 19.2478 91.316 19.1725 91.4856 19.1348C97.4202 18.1928 99.7187 15.3479 99.9071 9.28147C99.9071 9.03655 100.058 8.92351 100.303 8.96119L102.959 9.33799C103.185 9.37567 103.279 9.50755 103.261 9.73363C102.695 15.9131 100.736 20.4913 93.8218 22.055ZM91.6552 15.6494C91.4102 15.7247 91.2595 15.6117 91.2407 15.3668C91.0523 13.6523 90.619 12.1075 89.8654 10.6379C89.7523 10.4119 89.8277 10.2423 90.0726 10.1858L92.258 9.67711C92.4653 9.62059 92.616 9.67711 92.7102 9.84667C93.5015 11.2031 94.0478 12.8799 94.2551 14.5943C94.2739 14.8204 94.1797 14.9523 93.9725 15.0088L91.6552 15.6494Z" fill="white"/>
<path d="M81.3031 10.6569C77.7612 9.65838 73.541 9.31926 69.6977 9.31926C69.5093 9.31926 69.3962 9.22506 69.3962 9.03666C69.3962 8.99898 69.3962 8.9613 69.4151 8.92362L69.9426 6.68166C69.9991 6.47442 70.1122 6.36138 70.3006 6.36138C73.541 6.2295 78.9858 6.62514 82.1698 7.43526C82.3958 7.49178 82.4712 7.6425 82.4147 7.86858L81.7364 10.412C81.6799 10.6381 81.5292 10.7134 81.3031 10.6569ZM79.8524 15.8756C77.2714 14.8959 72.9758 14.2742 69.9991 14.3119C69.7354 14.3119 69.6223 14.1611 69.6977 13.8974L70.4324 11.5047C70.489 11.2975 70.6208 11.2033 70.8092 11.2033C73.5787 11.2033 78.0438 11.6554 80.851 12.5597C81.077 12.6351 81.1524 12.7858 81.077 13.0119L80.3046 15.6495C80.2481 15.8191 80.1539 15.9133 80.022 15.9133C79.9655 15.9133 79.909 15.8944 79.8524 15.8756ZM80.9263 22.1116C78.0438 20.6421 72.8063 19.6059 68.605 19.4552C68.3412 19.4363 68.2282 19.2856 68.3224 19.0407L69.2078 16.6857C69.2832 16.4973 69.4151 16.4031 69.6035 16.4031C73.3715 16.4408 78.7597 17.1944 82.3582 18.7393C82.5654 18.8335 82.6408 19.003 82.5466 19.2103L81.3973 21.9421C81.3408 22.0928 81.2466 22.1681 81.1147 22.1681C81.0582 22.1681 81.0017 22.1493 80.9263 22.1116Z" fill="white"/>
<path d="M294.254 41.8408C294.254 40.7282 293.475 39.9305 292.4 39.835L292.182 39.8252C291.014 39.8252 290.108 40.6539 290.108 41.8408C290.108 42.936 290.904 43.7494 291.966 43.8467L292.182 43.8564C293.294 43.8562 294.142 43.1113 294.243 42.0557L294.254 41.8408ZM279.634 39.8252C278.447 39.8252 277.562 40.6539 277.562 41.8408C277.562 42.9359 278.34 43.7493 279.415 43.8467L279.634 43.8564C280.802 43.8564 281.706 43.0089 281.706 41.8408C281.706 40.7281 280.911 39.9304 279.85 39.835L279.634 39.8252ZM285.907 39.8252C284.739 39.8253 283.835 40.654 283.835 41.8408C283.835 43.0088 284.739 43.8563 285.907 43.8564C287.075 43.8564 287.979 43.0089 287.979 41.8408C287.979 40.6539 287.075 39.8252 285.907 39.8252ZM296.581 41.8408C296.581 44.3645 294.582 46.1834 292.182 46.1836C290.973 46.1836 289.852 45.7125 289.044 44.9141C288.236 45.7122 287.116 46.1836 285.907 46.1836C284.699 46.1835 283.579 45.7123 282.771 44.9141C281.962 45.7123 280.842 46.1836 279.634 46.1836C277.308 46.1836 275.36 44.4766 275.24 42.0752L275.234 41.8408L275.24 41.6035C275.361 39.174 277.322 37.4971 279.634 37.4971C280.837 37.4971 281.96 37.9624 282.771 38.7598C283.581 37.9624 284.704 37.4971 285.907 37.4971C287.111 37.4971 288.234 37.9618 289.044 38.7588C289.854 37.9616 290.978 37.4971 292.182 37.4971C294.567 37.4973 296.581 39.284 296.581 41.8408Z" fill="#262626"/>
<path d="M270.836 43.8467C271.289 43.8468 272.086 43.963 272.732 44.6416C273.357 45.2975 273.445 46.0675 273.445 46.4756C273.445 46.4911 273.446 46.507 273.445 46.5225L273.389 49.3477L273.387 49.3467C273.379 49.8458 273.239 50.5406 272.687 51.1387C272.148 51.7222 271.496 51.9084 271.105 51.9736C271.086 51.977 271.065 51.9806 271.045 51.9834C269.107 52.2547 267.199 52.4385 265.429 52.4385C263.709 52.4385 262.035 52.2799 260.496 51.8398L260.19 51.748L260.189 51.7471C257.313 50.8415 255.245 48.3724 255.245 45.3447C255.245 42.9684 256.51 40.7269 258.772 39.0195C258.617 37.9468 258.556 36.859 258.528 35.8232L258.504 34.2891C258.504 34.282 258.504 34.2747 258.504 34.2676C258.504 33.8333 258.601 33.0226 259.272 32.3506C259.945 31.6785 260.755 31.582 261.189 31.582V33.9092L261.104 33.9141C260.918 33.9391 260.831 34.0533 260.831 34.2676C260.85 36.2833 260.888 38.3178 261.359 40.1074C258.703 41.5957 257.572 43.5738 257.572 45.3447L257.587 45.6953C257.735 47.4321 258.98 48.9267 260.888 49.5273C262.042 49.89 263.355 50.0654 264.801 50.1035L265.429 50.1113C266.846 50.1113 268.394 49.9816 270.021 49.7725L270.723 49.6787C270.92 49.6457 271.032 49.5545 271.057 49.3809L271.062 49.3018L271.118 46.4756C271.118 46.2941 271.046 46.1995 270.901 46.1787L270.836 46.1738V43.8467ZM264.279 31.582C264.848 31.5821 265.63 31.7606 266.243 32.4248C266.827 33.0577 266.945 33.7962 266.945 34.2676C266.945 34.2926 266.945 34.3177 266.944 34.3428C266.927 34.8703 266.919 35.3567 266.919 35.8086C267.641 35.6465 268.381 35.4926 269.122 35.3525L269.172 35.3438C269.58 35.2758 270.271 35.2466 270.975 35.6455C271.691 36.0517 272.024 36.6753 272.175 37.0889L272.192 37.1396L273.115 39.8711L273.119 39.8799L273.174 40.0645C273.296 40.5363 273.363 41.2833 272.935 42.0449C272.427 42.9475 271.574 43.2587 271.013 43.3467L271.014 43.3477C269.19 43.6384 267.538 43.9873 266.219 44.3682C267.618 44.283 269.133 44.0848 270.354 43.8789L270.547 43.8545C270.611 43.8491 270.676 43.8467 270.741 43.8467H270.836V46.1738H270.741C269.064 46.4564 266.784 46.7393 264.9 46.7393L264.47 46.7334C263.622 46.7116 262.868 46.6222 262.327 46.4414L262.075 46.3438C261.642 46.1365 261.321 45.7032 261.321 45.1758C261.321 44.4033 262 43.4424 263.959 42.6699C265.636 42.0105 268.048 41.4643 270.647 41.0498C270.911 41.012 270.986 40.8421 270.911 40.6162L269.987 37.8848C269.912 37.6776 269.781 37.6021 269.555 37.6396C267.859 37.9599 266.201 38.3365 264.788 38.751C264.581 37.4511 264.562 36.0006 264.618 34.2676C264.618 34.0697 264.532 33.9433 264.358 33.915L264.279 33.9092V31.582ZM264.279 31.582V33.9092H261.189V31.582H264.279Z" fill="#262626"/>
<path d="M237.62 34.3799C237.394 34.38 237.263 34.4935 237.263 34.7383L237.281 37.3008C237.281 37.4985 237.383 37.6092 237.56 37.6338L237.64 37.6396L242.877 37.4326C240.805 38.8267 238.487 40.4278 234.945 42.6885L234.86 42.752C234.789 42.8208 234.757 42.9055 234.757 42.9902C234.757 43.0467 234.776 43.122 234.832 43.1973L236.415 45.4395C236.49 45.5523 236.585 45.5898 236.679 45.5898C236.754 45.5898 236.849 45.5526 236.924 45.4961L239.26 43.7061C240.917 42.5758 242.519 42.086 243.875 42.0859C245.326 42.0859 247.53 42.8397 247.53 44.5918C247.53 45.7031 246.72 46.4006 245.835 46.9092C245.647 44.4977 243.838 43.5361 242.048 43.5361C240.164 43.5362 238.092 44.6292 238.092 46.7393C238.092 47.8319 238.675 48.925 239.806 49.6221C240.63 50.1331 241.772 50.3986 242.979 50.457L243.499 50.4697C244.859 50.4697 246.252 50.2042 247.306 49.7363L247.512 49.6406C249.737 48.5455 250.836 46.6718 250.965 44.8584L250.979 44.4971C250.978 41.4451 248.416 39.542 245.533 39.542C245.307 39.542 245.1 39.5427 244.874 39.5615L248.51 37.3379C248.642 37.2554 248.716 37.1441 248.732 36.9912L248.736 36.9238V34.7383C248.736 34.5242 248.635 34.4109 248.446 34.3857L248.359 34.3799V32.0527C248.796 32.0527 249.562 32.15 250.221 32.7598C250.827 33.321 251.018 34.0112 251.056 34.5283L251.063 34.7383V36.9238L251.06 37.0811C251.04 37.4555 250.946 37.8761 250.718 38.29C250.622 38.4636 250.512 38.6176 250.395 38.7539C252.107 39.9863 253.306 41.9319 253.306 44.4971L253.301 44.7637C253.202 47.5116 251.584 50.2302 248.539 51.7285L248.538 51.7295C247.076 52.4478 245.219 52.7968 243.499 52.7969C241.889 52.7969 240.038 52.5043 238.579 51.5996V51.5986C237.133 50.705 236.17 49.3277 235.867 47.7881C235.341 47.6177 234.862 47.2794 234.514 46.7803V46.7812L232.931 44.5391L232.932 44.5371C232.643 44.1315 232.477 43.6687 232.438 43.2002L232.43 42.9902L232.436 42.8086C232.494 41.9447 232.968 41.1813 233.693 40.7266L234.954 39.917C235.268 39.714 235.57 39.5153 235.864 39.3232C235.842 39.304 235.819 39.285 235.797 39.2646C235.139 38.6571 234.957 37.8838 234.954 37.3164V37.3174L234.936 34.7549C234.936 34.7493 234.936 34.7438 234.936 34.7383C234.936 34.2117 235.084 33.4243 235.743 32.79C236.386 32.1718 237.149 32.0528 237.62 32.0527V34.3799ZM241.634 45.9482C242.188 45.9485 242.805 46.4903 242.827 47.3838L242.82 47.625L242.523 47.5977C241.879 47.5123 240.993 47.207 240.993 46.5127C240.993 46.1362 241.295 45.9482 241.634 45.9482ZM248.359 32.0527V34.3799H237.62V32.0527H248.359Z" fill="#262626"/>
<path d="M227.848 30.7636C228.227 30.6326 228.803 30.5163 229.465 30.6914C230.122 30.8653 230.573 31.2498 230.859 31.5918H230.86C230.868 31.6022 230.876 31.6135 230.885 31.624C230.898 31.6397 230.911 31.6544 230.923 31.6699H230.922C231.742 32.6587 232.443 33.9721 232.827 34.9892H232.824C233.031 35.5267 233.157 36.3494 232.712 37.1865C232.284 37.9917 231.577 38.3313 231.163 38.4697C231.635 39.6562 231.995 40.9002 232.166 42.2187L232.177 42.3086L232.187 42.4746C232.201 42.8813 232.136 43.4177 231.824 43.9541C231.453 44.5933 230.893 44.9549 230.392 45.1377L230.393 45.1386L227.812 46.081L227.811 46.0791C227.632 46.1447 227.377 46.2179 227.075 46.2451C227.025 46.5375 226.966 46.8119 226.897 47.0547L226.898 47.0556C226.46 48.5945 225.706 49.9751 224.401 50.9248C223.108 51.8645 221.584 52.1562 220.062 52.1562C219.804 52.1562 219.543 52.1445 219.295 52.1279L218.607 52.0732L218.589 52.0713C218.217 52.0374 217.792 51.9248 217.389 51.6767C217.265 51.7628 217.129 51.843 216.977 51.9121C216.22 52.2559 215.504 52.1598 215.031 52.0097V52.0117L212.45 51.2021V51.2011C212.046 51.0746 211.236 50.7254 210.802 49.7998C210.352 48.841 210.627 47.9665 210.843 47.5205L211.334 46.4697C211.889 45.2493 212.349 44.0996 212.745 43.0029C212.387 42.9204 211.997 42.7563 211.633 42.4443C211.021 41.9193 210.805 41.2588 210.736 40.7802L210.714 40.5879L210.71 40.5273L210.578 37.9267L210.579 37.9257C210.549 37.3735 210.669 36.599 211.273 35.9472C211.891 35.2794 212.676 35.1077 213.226 35.1045L214.785 35.0791C214.864 34.6197 214.94 34.1622 215.011 33.7031L215.016 33.6777C215.093 33.2123 215.324 32.5333 215.961 32.0097C216.536 31.5372 217.179 31.4056 217.69 31.4101L217.901 31.4199L217.948 31.4248L220.661 31.707L220.66 31.708C221.052 31.746 221.747 31.8882 222.331 32.4726C222.523 32.6647 222.671 32.871 222.782 33.082C222.891 32.8929 223.024 32.7136 223.185 32.5527C223.592 32.1458 224.043 31.9688 224.28 31.8896L224.314 31.8789L225.445 31.5205C225.456 31.5169 225.467 31.5141 225.479 31.5107C225.696 31.4455 225.958 31.3944 226.25 31.3886C226.458 31.2576 226.648 31.1765 226.78 31.1269C226.803 31.1184 226.827 31.1103 226.85 31.1025L227.848 30.7636ZM217.707 33.7392C217.481 33.7204 217.348 33.8336 217.311 34.0595C217.141 35.1523 216.953 36.2455 216.727 37.3759L213.241 37.4326L213.161 37.4384C212.985 37.4671 212.886 37.5946 212.903 37.8086L213.034 40.4091C213.053 40.6538 213.185 40.7667 213.43 40.748L215.974 40.5595C215.296 42.9711 214.372 45.5525 212.941 48.5293C212.828 48.7553 212.903 48.9061 213.148 48.9814L215.729 49.791C215.955 49.8663 216.105 49.7912 216.199 49.5839C217.537 46.7579 218.649 43.5175 219.459 40.4277H220.664C221.418 40.4465 221.588 40.6539 221.682 41.8408C221.757 42.7451 221.701 44.4033 221.381 45.3076C221.117 46.0799 220.533 46.457 219.553 46.457C219.139 46.457 218.668 46.4003 218.103 46.2685C217.82 46.212 217.669 46.3435 217.744 46.6259L218.423 49.414C218.48 49.6213 218.593 49.735 218.8 49.7539C219.139 49.7821 219.456 49.8099 219.761 49.8222L220.062 49.8291C222.549 49.8291 223.961 48.868 224.658 46.4189C224.979 45.3073 225.111 42.5374 224.979 41.0302C224.677 37.5076 223.114 37.3564 220.194 37.3564C220.42 36.3016 220.609 35.2846 220.74 34.3427C220.773 34.1778 220.691 34.0699 220.505 34.0332L220.42 34.0224L217.707 33.7392ZM226.618 33.8711C226.487 33.7206 226.336 33.6829 226.148 33.7392L225.017 34.0976C224.847 34.1541 224.772 34.2297 224.772 34.3427C224.772 34.4179 224.791 34.4932 224.847 34.5683C225.205 35.077 225.601 35.7554 225.921 36.4336L224.621 36.8857C224.471 36.9422 224.395 37.0364 224.395 37.1494C224.395 37.2246 224.414 37.2813 224.451 37.3564C225.657 39.2969 226.355 41.37 226.6 43.6308C226.619 43.8944 226.769 43.9887 227.014 43.8945L229.595 42.9521C229.802 42.8767 229.877 42.7257 229.859 42.5185C229.614 40.6347 228.897 38.8638 227.937 37.0742L227.956 37.0556C228.182 36.9803 228.257 36.8293 228.182 36.6035C227.88 35.7368 227.297 34.6247 226.618 33.8711ZM229.086 33.0986C228.954 32.9293 228.803 32.8914 228.596 32.9668L227.598 33.3066C227.447 33.363 227.371 33.438 227.371 33.5507C227.371 33.6261 227.409 33.7019 227.466 33.7773C228.107 34.6251 228.577 35.6426 228.841 36.415C228.916 36.6222 229.067 36.7158 229.293 36.6406L230.424 36.2636C230.65 36.1882 230.744 36.0375 230.65 35.8115C230.329 34.9638 229.727 33.852 229.086 33.0986Z" fill="#262626"/>
<path d="M208.117 46.8896C208.117 46.8143 208.079 46.7198 207.985 46.6445C207.006 45.7215 205.781 44.8931 204.481 44.2714C204.481 42.9338 204.462 41.52 204.519 40.2578C204.537 40.0133 204.406 39.9005 204.161 39.9003H201.692C201.466 39.9004 201.315 40.0133 201.315 40.2392C201.278 41.2754 201.316 42.3116 201.335 43.2724C200.958 43.2159 200.6 43.1787 200.242 43.1787C199.187 43.1787 198.245 43.4237 197.473 44.0078C196.531 44.7237 196.021 45.7972 196.021 46.871C196.021 48.955 197.826 50.0125 199.713 50.1367L200.091 50.1494C201.768 50.1494 203.596 49.4707 204.236 47.7939C204.707 48.2272 205.14 48.6984 205.555 49.207C205.63 49.3011 205.724 49.3583 205.818 49.3584C205.894 49.3584 205.988 49.3205 206.063 49.2265L207.985 47.1533C208.042 47.0828 208.088 47.0231 208.107 46.958L208.117 46.8896ZM201.19 46.5019L200.899 47.2148C200.704 47.3458 200.441 47.4169 200.091 47.4169C199.695 47.4169 199.3 47.304 199.074 47.0781C198.923 46.9462 198.866 46.7577 198.866 46.5693C198.866 46.2329 199.073 46.0143 199.345 45.8808L200.094 45.9111L200.186 45.8076V45.915L201.06 45.9521C201.042 45.9119 201.025 45.8702 201.004 45.8291C201.139 45.8675 201.276 45.9119 201.41 45.9668C201.392 46.3928 201.314 46.7379 201.136 46.9853C201.173 46.8483 201.194 46.7081 201.194 46.5693C201.194 46.5488 201.192 46.5263 201.19 46.5019ZM200.094 45.9111L200.186 45.915V45.8076L200.094 45.9111ZM208.588 37.6396C208.588 37.5266 208.532 37.4318 208.419 37.3564C206.949 36.4709 204.669 36.0565 202.767 35.8681C202.522 35.8493 202.39 35.9441 202.333 36.1513L201.787 38.3369C201.731 38.5816 201.825 38.7318 202.069 38.7695C203.916 39.0332 205.404 39.4484 206.591 40.2773C206.685 40.3338 206.761 40.371 206.836 40.371C206.93 40.371 207.024 40.3145 207.1 40.1826L208.531 37.8466C208.55 37.809 208.565 37.7761 208.574 37.7431L208.588 37.6396ZM210.915 37.6396C210.915 38.2097 210.74 38.6347 210.613 38.8877C210.583 38.9474 210.551 39.0055 210.516 39.0625L209.084 41.3994L209.081 41.3974C208.717 41.9962 207.975 42.6982 206.836 42.6982C206.826 42.6982 206.816 42.6973 206.806 42.6972C206.806 42.7582 206.806 42.8194 206.806 42.8808C207.788 43.4633 208.71 44.1432 209.513 44.8896C210.075 45.3729 210.444 46.0891 210.444 46.8896C210.444 47.438 210.271 47.8702 210.114 48.1523C209.982 48.3902 209.827 48.5767 209.803 48.6074C209.767 48.6516 209.73 48.6948 209.691 48.7363L207.79 50.7871C207.307 51.3305 206.603 51.6855 205.818 51.6855C205.214 51.6854 204.726 51.483 204.356 51.2314C203.009 52.1581 201.367 52.4765 200.091 52.4765C198.719 52.4764 197.2 52.1238 195.956 51.2431C195.409 50.8561 194.929 50.3716 194.552 49.7998C194.301 49.8071 194.073 49.781 193.88 49.7402L193.714 49.7002L193.67 49.6875L191.107 48.9345L190.946 48.8808C190.732 48.8006 189.287 48.2377 189.196 46.6171L189.191 46.457L189.198 46.2607C189.228 45.8512 189.354 45.4123 189.62 44.998C190.371 43.7952 191.044 42.5688 191.632 41.2959C191.314 41.1762 190.991 40.9874 190.702 40.6982C190.099 40.0951 189.927 39.352 189.927 38.789V36.3964C189.927 35.8334 190.099 35.0895 190.702 34.4863C191.305 33.8832 192.048 33.711 192.611 33.7109V36.038L192.531 36.0439C192.355 36.0723 192.254 36.1987 192.254 36.3964V38.789C192.254 39.0147 192.386 39.1463 192.611 39.1464H194.985C194.138 41.7086 192.97 44.0262 191.595 46.2304C191.538 46.3058 191.52 46.3816 191.52 46.457C191.52 46.5697 191.613 46.6447 191.764 46.7011L194.326 47.455C194.533 47.5116 194.684 47.455 194.778 47.2666C196.154 44.742 197.416 42.0855 198.377 39.1464H201.033C201.259 39.1464 201.391 39.0149 201.392 38.789V36.3964C201.392 36.1704 201.259 36.038 201.033 36.038H199.131C199.282 35.4352 199.413 34.813 199.526 34.1914C199.564 33.9467 199.451 33.8147 199.225 33.7959L196.493 33.6074C196.267 33.5885 196.135 33.7018 196.098 33.9277C196.051 34.2856 195.989 34.6438 195.921 34.997L195.701 36.038H192.611V33.7109H193.777C193.781 33.682 193.786 33.6528 193.79 33.624L193.802 33.5449L193.838 33.3613C193.943 32.9125 194.19 32.3359 194.747 31.8779C195.391 31.3489 196.12 31.2482 196.652 31.2861H196.653L196.687 31.288H196.686L199.385 31.4746C199.396 31.4753 199.407 31.4756 199.418 31.4765C199.918 31.5182 200.718 31.7249 201.305 32.4716C201.619 32.8722 201.765 33.2965 201.824 33.6806C202.177 33.5641 202.508 33.5344 202.774 33.54L202.945 33.5478C202.962 33.5491 202.979 33.551 202.996 33.5527C204.803 33.7316 207.326 34.1323 209.244 35.1513L209.62 35.3632L209.71 35.4199C210.32 35.8269 210.915 36.5839 210.915 37.6396Z" fill="#262626"/>
<path d="M186.394 41.5391C186.394 38.5813 184.322 35.793 179.442 35.793L178.406 35.8311C175.411 36.0571 172.66 36.6033 170.343 37.1309C170.117 37.1874 170.022 37.3384 170.098 37.5645L170.965 40.2578C171.031 40.4558 171.154 40.5391 171.336 40.5186L171.417 40.5029C173.64 39.8436 176.522 39.0332 178.858 39.0332C181.402 39.0332 182.495 40.2773 182.495 41.6338L182.486 41.8496C182.399 42.9337 181.661 44.0505 180.46 44.7041C179.158 45.4145 177.218 45.6062 175.062 45.584L174.318 45.5713C174.036 45.5524 173.922 45.7219 174.016 45.9668L175.034 48.7549C175.1 48.9361 175.209 49.0169 175.374 49.0342L175.448 49.0381C177.656 49.0028 180.295 48.7517 182.37 47.7891L182.777 47.5869C185.076 46.3623 186.394 43.894 186.394 41.5391ZM188.722 41.5391C188.722 44.6977 186.977 47.9859 183.872 49.6406L183.869 49.6426C181.221 51.0485 177.897 51.3267 175.485 51.3652H175.448C175.079 51.3652 174.494 51.2998 173.916 50.9209C173.317 50.5282 173.004 49.9844 172.847 49.5508V49.5498L171.83 46.7646L171.831 46.7637C171.639 46.2398 171.461 45.2329 172.149 44.2939C172.827 43.3704 173.818 43.2263 174.389 43.2461L174.39 43.2451L175.279 43.2607C177.122 43.266 178.419 43.0885 179.18 42.7441L179.348 42.6602C180.009 42.3003 180.167 41.7929 180.167 41.6338C180.167 41.6186 180.181 41.6461 180.162 41.6309C180.104 41.5841 179.771 41.3613 178.858 41.3613C176.918 41.3614 174.361 42.0571 172.078 42.7344C172.046 42.7439 172.014 42.7526 171.981 42.7607C171.539 42.8713 170.801 42.9453 170.042 42.542C169.366 42.1829 169.008 41.6244 168.825 41.1777L168.757 40.9941C168.754 40.9864 168.751 40.9785 168.749 40.9707L167.89 38.2988V38.2998C167.715 37.7761 167.615 36.9416 168.095 36.1152C168.56 35.314 169.299 34.9929 169.778 34.873L169.826 34.8613C172.189 34.3235 175.068 33.7485 178.231 33.5098L178.322 33.5049L179.358 33.4678L179.442 33.4658C182.327 33.4658 184.689 34.2981 186.348 35.8662C188.004 37.4325 188.722 39.5133 188.722 41.5391Z" fill="#262626"/>
<path d="M163.599 30.7636C163.978 30.6326 164.554 30.5163 165.216 30.6914C165.924 30.8788 166.395 31.3099 166.675 31.6699H166.673C167.492 32.6587 168.194 33.9721 168.578 34.9892H168.575C168.782 35.5267 168.908 36.3493 168.463 37.1865C168.035 37.9918 167.327 38.3313 166.914 38.4697C167.335 39.5283 167.667 40.6326 167.855 41.7949L167.918 42.2187L167.928 42.3085L167.938 42.4746C167.952 42.8813 167.887 43.4177 167.575 43.954C167.204 44.594 166.643 44.9561 166.141 45.1386L163.563 46.081L163.562 46.079C163.383 46.1447 163.128 46.2179 162.826 46.2451C162.775 46.5409 162.717 46.8186 162.646 47.0634C162.208 48.5993 161.455 49.9766 160.151 50.9248C158.859 51.8644 157.335 52.1562 155.813 52.1562C155.555 52.1562 155.294 52.1444 155.046 52.1279L154.357 52.0732C154.352 52.0727 154.346 52.0718 154.34 52.0712C153.968 52.0374 153.544 51.9246 153.141 51.6767C153.017 51.763 152.88 51.8429 152.728 51.9121C151.971 52.2559 151.254 52.1598 150.782 52.0097V52.0117L148.201 51.2021V51.2011C147.797 51.0746 146.988 50.725 146.554 49.7998C146.104 48.841 146.378 47.9665 146.594 47.5205L147.085 46.4697C147.639 45.2493 148.1 44.0996 148.496 43.0029C148.138 42.9203 147.748 42.7562 147.384 42.4443C146.771 41.9193 146.555 41.2588 146.486 40.7802L146.465 40.5878L146.461 40.5273L146.329 37.9267L146.33 37.9257C146.3 37.3735 146.42 36.599 147.023 35.9472C147.642 35.279 148.427 35.1075 148.978 35.1044L150.536 35.079C150.615 34.6196 150.691 34.1622 150.763 33.7031L150.767 33.6777C150.844 33.2123 151.075 32.5332 151.712 32.0097C152.288 31.5369 152.931 31.4055 153.441 31.4101L153.651 31.4199L153.699 31.4248L156.412 31.707L156.411 31.708C156.803 31.746 157.498 31.8878 158.083 32.4726C158.275 32.6646 158.422 32.871 158.533 33.082C158.642 32.8928 158.775 32.7136 158.936 32.5527C159.343 32.1455 159.795 31.9687 160.032 31.8896L160.065 31.8789L161.195 31.5205C161.207 31.5169 161.218 31.5141 161.23 31.5107C161.447 31.4454 161.709 31.3943 162.002 31.3886C162.21 31.2578 162.399 31.1764 162.531 31.1269C162.554 31.1184 162.578 31.1103 162.601 31.1025L163.599 30.7636ZM153.458 33.7392C153.232 33.7204 153.1 33.8337 153.063 34.0595C152.893 35.1522 152.705 36.2455 152.479 37.3759L148.993 37.4326L148.912 37.4384C148.736 37.4671 148.637 37.5947 148.653 37.8085L148.785 40.4091C148.804 40.6539 148.937 40.7668 149.182 40.748L151.725 40.5595C151.046 42.971 150.123 45.5525 148.691 48.5292C148.579 48.7552 148.654 48.9061 148.898 48.9814L151.48 49.791C151.706 49.8663 151.856 49.7911 151.95 49.5839C153.288 46.7579 154.4 43.5174 155.21 40.4277H156.416C157.169 40.4466 157.338 40.654 157.433 41.8408C157.508 42.7451 157.452 44.4032 157.132 45.3076C156.868 46.0799 156.283 46.457 155.304 46.457C154.889 46.4569 154.418 46.4003 153.854 46.2685C153.571 46.212 153.42 46.3435 153.495 46.6259L154.174 49.414C154.23 49.6212 154.344 49.735 154.551 49.7539C154.89 49.7821 155.208 49.8099 155.513 49.8222L155.813 49.829C158.299 49.829 159.713 48.8681 160.41 46.4189C160.73 45.3073 160.862 42.5374 160.73 41.0302C160.429 37.5075 158.864 37.3564 155.944 37.3564C156.17 36.3016 156.359 35.2845 156.491 34.3427C156.524 34.178 156.442 34.07 156.257 34.0331L156.171 34.0224L153.458 33.7392ZM162.369 33.871C162.237 33.7206 162.087 33.6829 161.898 33.7392L160.768 34.0976C160.598 34.1541 160.522 34.2297 160.522 34.3427C160.523 34.418 160.542 34.493 160.599 34.5683C160.957 35.0769 161.352 35.7554 161.672 36.4335L160.372 36.8857C160.221 36.9422 160.147 37.0364 160.146 37.1494C160.146 37.2246 160.165 37.2813 160.202 37.3564C161.408 39.2969 162.106 41.37 162.351 43.6308C162.37 43.8943 162.52 43.9885 162.765 43.8945L165.346 42.9521C165.553 42.8767 165.628 42.7257 165.609 42.5185C165.364 40.6347 164.648 38.8638 163.688 37.0742L163.707 37.0556C163.933 36.9802 164.008 36.8294 163.933 36.6035C163.631 35.7368 163.047 34.6246 162.369 33.871ZM164.837 33.0986C164.705 32.9295 164.555 32.8916 164.348 32.9667L163.349 33.3066C163.198 33.363 163.123 33.438 163.123 33.5507C163.123 33.6261 163.16 33.7019 163.217 33.7773C163.857 34.6251 164.328 35.6425 164.592 36.415C164.667 36.6222 164.819 36.7159 165.045 36.6406L166.175 36.2636C166.401 36.1882 166.496 36.0375 166.401 35.8115C166.081 34.9637 165.477 33.8521 164.837 33.0986Z" fill="#262626"/>
<path d="M143.807 41.5391C143.807 38.5813 141.735 35.793 136.855 35.793L135.819 35.8311C132.824 36.0571 130.073 36.6034 127.756 37.1309C127.53 37.1874 127.435 37.3384 127.511 37.5645L128.377 40.2578C128.452 40.4838 128.603 40.5593 128.829 40.5029C131.052 39.8435 133.935 39.0332 136.271 39.0332L136.731 39.0479C138.947 39.1895 139.907 40.3621 139.907 41.6338L139.898 41.8496C139.811 42.9336 139.074 44.0505 137.873 44.7041C136.571 45.4144 134.63 45.6062 132.475 45.584L131.73 45.5713C131.448 45.5526 131.335 45.722 131.43 45.9668L132.447 48.7549C132.513 48.9362 132.622 49.0169 132.787 49.0342L132.861 49.0381C135.069 49.0028 137.708 48.7518 139.783 47.7891L140.19 47.5869C142.417 46.4006 143.724 44.0475 143.804 41.7607L143.807 41.5391ZM146.13 41.8359C146.024 44.9021 144.293 48.0377 141.284 49.6406L141.281 49.6426C138.633 51.0484 135.31 51.3267 132.898 51.3652H132.861C132.492 51.3652 131.907 51.2999 131.329 50.9209C130.73 50.5282 130.417 49.9844 130.26 49.5508V49.5498L129.243 46.7646L129.244 46.7637C129.052 46.2398 128.874 45.233 129.562 44.2939C130.24 43.3702 131.231 43.2263 131.802 43.2461L131.803 43.2451L132.692 43.2607C134.677 43.2664 136.027 43.0594 136.758 42.6611L136.761 42.6602C137.422 42.3003 137.58 41.7928 137.58 41.6338C137.58 41.6186 137.594 41.6461 137.575 41.6309C137.518 41.5845 137.185 41.3614 136.271 41.3613C134.331 41.3613 131.774 42.0571 129.491 42.7344C129.459 42.7439 129.426 42.7526 129.393 42.7607C128.951 42.8712 128.214 42.9452 127.455 42.542C126.682 42.1316 126.324 41.461 126.169 40.9941L126.162 40.9707L125.295 38.2764V38.2754C125.125 37.7504 125.035 36.9289 125.508 36.1152C125.973 35.314 126.712 34.9929 127.191 34.873L127.239 34.8613C129.602 34.3235 132.481 33.7485 135.643 33.5098C135.673 33.5075 135.704 33.506 135.734 33.5049L136.77 33.4678L136.855 33.4658C139.74 33.4658 142.103 34.2982 143.761 35.8662C145.417 37.4325 146.135 39.5134 146.135 41.5391L146.13 41.8359Z" fill="#262626"/>
<path d="M118.653 39.0898C118.653 39.8316 118.024 40.3754 117.123 40.4404L116.939 40.4463H116.186C115.978 40.4463 115.847 40.5784 115.847 40.7666V43.0654C115.847 43.2727 115.978 43.4043 116.186 43.4043H116.901C118.164 43.4043 118.955 43.9321 118.955 44.9307L118.947 45.1064C118.866 45.9665 118.179 46.5126 116.996 46.5127L116.792 46.5068C115.798 46.4452 115.162 45.9233 114.791 44.9873C114.716 44.8367 114.622 44.7423 114.49 44.7422C114.453 44.7422 114.415 44.742 114.377 44.7607L111.607 45.458C111.438 45.5145 111.362 45.609 111.362 45.7598V45.873C112.074 48.4279 114.13 49.9925 116.81 50.0879L117.071 50.0928C120.484 50.0927 122.783 48.36 122.924 45.7168L122.931 45.458C122.931 43.6683 121.932 42.3682 120.18 41.7842C121.628 41.06 122.447 39.955 122.544 38.6709L122.554 38.4121C122.554 36.0395 120.432 34.2677 117.422 34.1592L117.128 34.1543C114.377 34.1543 112.211 35.6802 111.457 38.3555C111.419 38.5627 111.532 38.7133 111.739 38.751L114.527 39.4297C114.735 39.4862 114.867 39.3915 114.961 39.2031C115.357 38.167 115.997 37.6582 116.939 37.6582L117.126 37.665C118.041 37.7323 118.653 38.2952 118.653 39.0898ZM124.876 38.6426C124.833 39.7443 124.485 40.7286 123.916 41.5713C123.969 41.6354 124.02 41.7017 124.07 41.7686C124.875 42.8366 125.258 44.1139 125.258 45.458L125.247 45.8496C125.141 47.7923 124.248 49.4744 122.766 50.6465C121.233 51.8586 119.217 52.4199 117.071 52.4199C113.276 52.4199 110.15 50.1952 109.12 46.4971C109.064 46.2939 109.035 46.0839 109.035 45.873V45.7598C109.035 45.275 109.167 44.66 109.612 44.1094C110.027 43.5966 110.538 43.3612 110.871 43.25C110.926 43.2316 110.983 43.2154 111.039 43.2012L113.519 42.5762V41.5781L111.189 41.0127V41.0107C110.655 40.8859 110.055 40.5811 109.621 39.9814C109.14 39.3174 109.054 38.5597 109.167 37.9395L109.217 37.7246C110.271 33.9829 113.402 31.8271 117.128 31.8271C121.035 31.8273 124.881 34.1944 124.881 38.4121L124.876 38.6426Z" fill="#262626"/>
<path d="M100.643 37.7334C102.489 38.374 103.562 39.9758 103.562 41.8975L103.559 42.085C103.48 44.0256 102.162 46.0294 98.4756 46.2119C98.1933 46.2309 98.0807 46.3812 98.1748 46.626L99.1914 49.2822C99.2668 49.4895 99.3992 49.5843 99.6064 49.5654C103.841 49.3099 106.855 46.3134 107.039 42.5635L107.048 42.1992C107.048 37.7459 103.636 34.6712 99.2773 34.4834L98.8525 34.4746C96.931 34.4747 94.9909 35.0589 93.5215 36.208L93.2988 36.3838C91.0478 38.2253 90.1113 40.5915 90.1113 42.7451L90.1152 42.9922C90.2088 45.5529 91.7483 48.4343 94.6133 48.4346C95.7059 48.4346 96.7806 47.9641 97.4023 47.041C99.1356 44.5165 100.473 40.4652 100.643 37.7334ZM97.2139 37.6768C97.1197 39.5795 96.1023 42.8577 94.9531 44.5723C94.8212 44.7795 94.6325 44.874 94.4629 44.874C94.3499 44.874 94.2368 44.8317 94.1396 44.7549L94.0488 44.667C93.5778 44.1018 93.3701 43.3854 93.3701 42.6318C93.3702 40.39 95.1039 38.2985 97.2139 37.6768ZM109.363 42.6895C109.114 47.7195 105.052 51.5685 99.7461 51.8887L99.7451 51.8867C99.2463 51.9193 98.617 51.8307 98.0283 51.4248C97.5137 51.0699 97.2269 50.6084 97.0674 50.2363C96.2797 50.5914 95.431 50.7617 94.6133 50.7617C92.2125 50.7616 90.4305 49.4771 89.3379 47.8945C88.28 46.362 87.7832 44.464 87.7832 42.7451C87.7832 39.8021 89.1149 36.6725 92.0967 34.3662C94.0324 32.8565 96.4945 32.1475 98.8525 32.1475C104.504 32.1475 109.376 36.1316 109.376 42.1992L109.363 42.6895Z" fill="#262626"/>
<path d="M82.9912 43.3056C83.5951 43.1411 84.5145 43.1145 85.3281 43.7597C86.14 44.4037 86.3154 45.2997 86.3154 45.8535C86.3154 45.8585 86.3155 45.8641 86.3154 45.8691L86.2959 48.7881C86.2937 49.2393 86.1862 49.8536 85.7578 50.4248C85.3209 51.0072 84.7433 51.2887 84.2803 51.415C84.2723 51.4172 84.2638 51.4188 84.2559 51.4209C82.38 51.9111 80.1262 52.1748 77.9971 52.1748C76.5402 52.1748 75.0362 52.0548 73.7188 51.7675V51.7685C73.7162 51.768 73.7135 51.7671 73.7109 51.7666C73.7041 51.7651 73.6972 51.7642 73.6904 51.7627V51.7617C72.0139 51.4086 70.609 50.637 69.6172 49.4843C68.6192 48.3245 68.1524 46.9087 68.1523 45.4961C68.1523 44.3169 68.4758 43.1595 69.0459 42.1279H69.0469C69.29 41.6804 69.6987 41.2112 70.333 40.9336C70.8908 40.6895 71.4176 40.6831 71.7979 40.7324L71.9512 40.7568L72.0049 40.7675L74.3789 41.2568L74.3965 41.2607L74.6055 41.3144C75.1332 41.4711 75.9027 41.8631 76.2959 42.79C76.497 43.264 76.5255 43.711 76.4805 44.0898L76.4824 44.0908C76.7714 44.1098 77.055 44.1103 77.3379 44.1103V46.4375L76.8701 46.4345C75.6784 46.4129 73.8899 46.2399 73.8896 44.8554C73.8896 44.5917 73.9655 44.2897 74.1162 43.9882C74.229 43.7624 74.1718 43.5926 73.9082 43.5361L71.5352 43.0468C71.3279 43.0092 71.1772 43.0655 71.083 43.2539C70.6874 43.9698 70.4795 44.7425 70.4795 45.4961L70.4932 45.83C70.6309 47.4908 71.8071 48.9957 74.1914 49.4902C75.1639 49.7045 76.3095 49.8177 77.4893 49.8427L77.9971 49.8476C79.7114 49.8476 81.4979 49.6604 83.0283 49.3232L83.668 49.1699C83.8751 49.1133 83.9688 48.9806 83.9688 48.7734L83.9883 45.8535C83.9882 45.6088 83.8375 45.4775 83.5928 45.5527L82.8584 45.7363C81.1024 46.1492 79.0687 46.4374 77.3379 46.4375V44.1103C79.0698 44.1103 81.2378 43.7724 82.9912 43.3037V43.3056ZM70.001 33.2109C70.7006 32.6112 71.4964 32.55 71.9766 32.5869L72.0527 32.5937C73.6975 32.7745 75.5708 32.9003 77.4502 32.9004V35.2275C75.4722 35.2275 73.5131 35.0956 71.7988 34.9072C71.5539 34.8884 71.4222 35.0021 71.4033 35.247L71.2334 37.8847C71.2147 38.1106 71.3277 38.2426 71.5537 38.2802C73.1362 38.478 74.8774 38.6035 76.6006 38.6318L77.3379 38.6377C79.1464 38.6376 80.936 38.5246 82.4619 38.3173C82.688 38.2797 82.7825 38.1479 82.7637 37.9218L82.5557 35.2841C82.5367 35.0395 82.3861 34.945 82.1602 34.9638C80.653 35.1522 79.0326 35.2275 77.4502 35.2275V32.9004C78.965 32.9004 80.4855 32.8286 81.8721 32.6552L81.9668 32.6445C82.4008 32.6083 83.1493 32.6449 83.8428 33.1709C84.5878 33.736 84.8325 34.529 84.877 35.1064H84.876L85.083 37.7353C85.1189 38.1784 85.0759 38.9075 84.5664 39.5869C84.0427 40.2852 83.3267 40.5329 82.8447 40.6132C82.8217 40.6171 82.7985 40.6208 82.7754 40.624C81.1311 40.8473 79.2354 40.9658 77.3379 40.9658C75.5374 40.9658 73.6945 40.8596 71.9873 40.6738L71.2646 40.5898L71.1709 40.5761C70.7055 40.4986 70.0265 40.2672 69.5029 39.6298C68.9776 38.9901 68.8753 38.2669 68.9111 37.7353L69.0801 35.0976L69.082 35.0683C69.119 34.5882 69.3011 33.8108 70.001 33.2109Z" fill="#262626"/>
<path d="M294.979 7.20904C294.978 6.98311 294.866 6.87024 294.621 6.87017C290.476 6.96437 283.712 6.96392 279.756 6.96392C279.511 6.96401 279.398 7.09632 279.398 7.32232L279.455 10.0538C279.455 10.2681 279.556 10.3813 279.732 10.4063L279.812 10.4122C282.017 10.3745 284.692 10.2424 286.821 10.167C284.636 11.2974 283.166 13.6711 283.166 15.9883C283.166 20.3686 287.958 21.8852 291.614 21.9756L291.965 21.9795C292.36 21.9795 292.586 21.8664 292.624 21.6592L293.133 18.7208V18.6446C293.133 18.4565 293.019 18.3439 292.812 18.3438C288.668 18.4192 286.915 17.0998 286.915 15.4795C286.915 12.8986 290.722 10.8266 293.058 10.4122C293.547 10.3368 294.074 10.2608 294.658 10.2608C294.856 10.2443 294.953 10.1418 294.975 9.97759L294.979 9.90337V7.20904ZM297.307 9.90337L297.301 10.0752C297.275 10.503 297.144 11.107 296.68 11.6563C296.12 12.317 295.389 12.5354 294.852 12.5801C294.787 12.5855 294.723 12.5889 294.658 12.5889C294.277 12.5889 293.911 12.6352 293.447 12.7061C292.637 12.8534 291.434 13.3307 290.468 14.0245C289.554 14.6803 289.307 15.1832 289.255 15.3975C289.289 15.4237 289.343 15.4605 289.426 15.5059C289.882 15.7551 290.896 16.0507 292.77 16.0167C292.784 16.0164 292.798 16.0167 292.812 16.0167C293.326 16.0167 294.052 16.1615 294.659 16.7422C295.202 17.2619 295.408 17.8979 295.451 18.4258L295.46 18.6446V18.7208L295.451 18.92C295.445 18.986 295.437 19.0519 295.426 19.1172L294.917 22.0567C294.916 22.0631 294.915 22.0699 294.914 22.0762C294.739 23.0398 294.095 23.6723 293.451 23.9874C292.893 24.2605 292.338 24.3067 291.965 24.3067C289.874 24.3067 287.261 23.9008 285.08 22.7305C282.812 21.5135 280.839 19.3353 280.839 15.9883C280.839 14.8587 281.083 13.7392 281.524 12.6963C280.949 12.7143 280.386 12.7302 279.853 12.7393C279.839 12.7395 279.826 12.7393 279.812 12.7393C279.341 12.7393 278.579 12.6212 277.936 12.003C277.295 11.3875 277.137 10.6273 277.128 10.1016V10.1026L277.071 7.37017C277.071 7.35422 277.07 7.33827 277.07 7.32232C277.07 6.85105 277.189 6.08848 277.808 5.44537C278.442 4.78573 279.229 4.63682 279.756 4.63677C283.723 4.63677 290.456 4.63648 294.568 4.54302C294.586 4.54263 294.604 4.54302 294.621 4.54302C295.057 4.54305 295.841 4.63903 296.504 5.27544C297.186 5.93025 297.307 6.73691 297.307 7.20904V9.90337Z" fill="#262626"/>
<path d="M262.744 3.58201L265.721 3.65818L265.72 3.65916C266.235 3.66994 267.041 3.82753 267.67 4.53513C268.292 5.23501 268.353 6.0404 268.322 6.50974L268.323 6.51072C268.094 10.063 267.86 13.7001 267.932 16.1074C267.938 16.3142 267.968 16.4366 267.988 16.497C268.016 16.5015 268.056 16.5058 268.11 16.5058V18.833C266.81 18.8328 265.662 18.0794 265.605 16.1767C265.549 14.2692 265.672 11.6729 265.833 9.0156L266.001 6.3613C266.02 6.11639 265.906 5.98435 265.661 5.98435L262.684 5.90916C262.44 5.90925 262.307 6.02273 262.307 6.26755C262.194 9.75269 261.912 14.3679 262.025 16.9678C262.19 20.6726 264.776 22.2386 267.575 22.333L267.847 22.3379C270.183 22.3379 272.614 21.3206 273.801 19.6816C274.705 18.4382 275.175 17.3261 275.59 15.7812C275.646 15.574 275.59 15.404 275.421 15.291L272.896 13.6523C272.821 13.5958 272.745 13.5771 272.688 13.5771C272.557 13.5773 272.462 13.6713 272.425 13.8594C272.086 15.6867 271.691 16.7612 270.956 17.5713C270.259 18.3437 269.128 18.833 268.11 18.833V16.5058C268.48 16.5058 268.979 16.2871 269.227 16.0117L269.231 16.0078C269.514 15.6957 269.816 15.1611 270.137 13.4345C270.139 13.4241 270.14 13.4137 270.142 13.4033C270.214 13.0461 270.387 12.5149 270.834 12.0449C271.334 11.5184 272.008 11.2501 272.688 11.25C273.199 11.25 273.713 11.4021 274.162 11.7002H274.163L276.688 13.3398L276.712 13.3545L276.878 13.4746C277.26 13.7711 277.602 14.193 277.792 14.7461C278.003 15.3627 277.958 15.9456 277.836 16.3935L277.835 16.3926C277.366 18.1375 276.791 19.5228 275.684 21.0449L275.685 21.0459C273.947 23.4463 270.712 24.665 267.847 24.665C266.012 24.665 264.037 24.1787 262.45 22.8984C260.804 21.5703 259.811 19.5759 259.7 17.0713V17.0693C259.582 14.3525 259.873 9.53057 259.981 6.19138H259.982C259.996 5.66444 260.163 4.89934 260.823 4.28806C261.482 3.67853 262.247 3.58205 262.684 3.58201C262.704 3.58201 262.724 3.58151 262.744 3.58201Z" fill="#262626"/>
<path d="M254.641 4.42969C255.167 4.42977 255.955 4.57872 256.589 5.23828C257.207 5.88135 257.325 6.64401 257.325 7.11523V7.12402C257.315 9.80571 256.792 12.222 255.595 14.2607C254.383 16.3248 252.578 17.834 250.303 18.835C250.279 18.8456 250.254 18.8555 250.229 18.8652C249.947 18.9781 249.544 19.0876 249.066 19.0693C247.781 21.2372 245.712 23.0086 242.657 24.1123L242.656 24.1113C242.244 24.2634 241.658 24.3743 240.998 24.1943C240.306 24.0056 239.844 23.5832 239.567 23.2305V23.2314L237.608 20.7451L237.574 20.7012C237.478 20.573 237.361 20.3961 237.259 20.1777C237.17 19.9871 237.015 19.6007 237.015 19.0967C237.015 18.4168 237.283 17.7423 237.81 17.2422C238.235 16.8382 238.71 16.6578 239.062 16.5742C241.086 16.052 241.842 15.1675 242.199 14.4287C242.49 13.8283 242.607 13.131 242.632 12.3721L239.817 12.4004H239.794C239.231 12.4003 238.488 12.2272 237.885 11.624C237.282 11.0208 237.109 10.2778 237.109 9.71484V7.13379C237.109 6.57084 237.282 5.82783 237.885 5.22461C238.487 4.62251 239.228 4.44891 239.791 4.44824L254.638 4.42969H254.641ZM239.437 9.71484C239.437 9.91261 239.537 10.038 239.714 10.0664L239.794 10.0732L251.192 9.95996C250.966 11.4671 249.949 12.7109 248.404 13.4268C248.48 12.692 248.499 11.9189 248.461 11.1465C248.461 10.9206 248.31 10.8077 248.084 10.8076L245.276 10.7891C245.051 10.7892 244.919 10.9206 244.938 11.1465C245.088 13.6898 244.843 17.4953 239.625 18.833L239.501 18.8721C239.395 18.9206 239.342 18.998 239.342 19.0967C239.342 19.1532 239.38 19.2293 239.437 19.3047L241.396 21.791C241.527 21.9605 241.678 21.9981 241.866 21.9229C245.465 20.6229 247.274 18.3246 248.027 15.5928L248.875 16.5918C249.007 16.7612 249.177 16.7794 249.365 16.7041C253.133 15.0462 254.979 11.9003 254.998 7.11523C254.998 6.88929 254.885 6.75699 254.641 6.75684L239.794 6.77539C239.568 6.77552 239.437 6.90782 239.437 7.13379V9.71484Z" fill="#262626"/>
<path d="M231.185 3.97754C231.711 3.97757 232.499 4.12646 233.133 4.78613C233.744 5.42188 233.866 6.17409 233.869 6.64648L233.907 12.0479C233.939 15.3768 233.218 18.3122 231.268 20.5371C229.321 22.758 226.477 23.8978 223.064 24.3438C223.034 24.3477 223.004 24.3517 222.974 24.3545C222.534 24.3944 221.985 24.3459 221.434 24.0615C221.035 23.8554 220.748 23.5838 220.548 23.3369L220.374 23.1016L220.316 23.0098L218.526 20.0322L218.439 19.874C218.284 19.5626 218.137 19.1299 218.137 18.626C218.137 18.2202 218.233 17.829 218.411 17.4795C218.279 17.3902 218.15 17.2859 218.027 17.1631C217.424 16.5599 217.252 15.8169 217.252 15.2539V6.71973C217.252 6.19307 217.4 5.40487 218.06 4.77051C218.703 4.15229 219.465 4.03424 219.937 4.03418V6.36133L219.856 6.36621C219.68 6.39123 219.579 6.50546 219.579 6.71973V15.2539C219.579 15.4798 219.711 15.6112 219.937 15.6113H222.857L222.942 15.6055C223.102 15.5813 223.189 15.4856 223.21 15.334L223.215 15.2539V6.71973C223.215 6.50524 223.128 6.39107 222.942 6.36621L222.857 6.36133V4.03418C223.292 4.03423 224.102 4.13094 224.773 4.80273C225.42 5.44915 225.533 6.22336 225.541 6.66797V6.66309C225.541 6.10009 225.714 5.35619 226.317 4.75293C226.921 4.14996 227.664 3.97754 228.227 3.97754V6.30469L228.146 6.31055C227.97 6.33878 227.868 6.46515 227.868 6.66309L227.888 12.1455L227.882 12.5312C227.776 16.454 226.005 18.382 220.785 18.4004L220.712 18.4043C220.551 18.424 220.465 18.5106 220.465 18.626C220.465 18.6824 220.483 18.7578 220.521 18.833L222.311 21.8105C222.424 21.9799 222.556 22.0549 222.763 22.0361C228.961 21.226 231.636 18.08 231.58 12.0703L231.542 6.66309C231.542 6.46539 231.456 6.33899 231.271 6.31055L231.185 6.30469V3.97754ZM225.542 12.7949C225.554 12.597 225.559 12.3836 225.56 12.1533L225.542 6.81934V12.7949ZM222.857 4.03418V6.36133H219.937V4.03418H222.857ZM231.185 3.97754V6.30469H228.227V3.97754H231.185Z" fill="#262626"/>
<path d="M211.402 4.31641C211.914 4.31641 212.757 4.45956 213.41 5.19434C214.046 5.90941 214.098 6.7347 214.062 7.19922L214.062 7.19824C213.724 11.7882 212.399 15.5579 210.06 18.4941C207.717 21.4336 204.509 23.3496 200.734 24.4902L200.729 24.4912C200.249 24.6353 199.642 24.6793 199.009 24.4492C198.478 24.2564 198.103 23.9339 197.853 23.6436L197.753 23.5215L197.734 23.4971L195.681 20.7842L195.674 20.7764C195.578 20.6482 195.46 20.4713 195.358 20.2529C195.281 20.086 195.152 19.7696 195.121 19.3555L195.114 19.1729L195.129 18.9062C195.194 18.286 195.484 17.6838 196.005 17.2412C196.256 17.0274 196.518 16.8889 196.747 16.7979L194.679 15.0889V15.0879C194.346 14.814 193.764 14.1984 193.69 13.25L193.683 13.0498L193.694 12.7998C193.805 11.6138 194.686 10.9857 195.04 10.7783L195.385 10.5596C197.074 9.41155 198.234 7.44424 198.676 6.19043L198.71 6.09961C198.841 5.77182 199.11 5.25753 199.669 4.8584C200.239 4.4511 200.84 4.35577 201.276 4.35449L211.394 4.31641H211.402ZM201.206 6.68555C201.032 6.70604 200.937 6.79912 200.871 6.96387C200.287 8.62175 198.723 11.3166 196.218 12.7861L196.129 12.8457C196.052 12.9083 196.01 12.9793 196.01 13.0498C196.01 13.1251 196.067 13.2197 196.161 13.2949L198.327 15.084C198.421 15.1592 198.497 15.1972 198.591 15.1973C198.666 15.1973 198.742 15.1786 198.817 15.1221C200.569 13.9917 202.397 11.8064 203.245 9.75293H207.672C206.711 14.8771 202.905 18.0799 197.725 18.9277C197.536 18.9654 197.442 19.041 197.442 19.1729C197.443 19.2293 197.48 19.3047 197.536 19.3799L199.59 22.0928C199.705 22.2412 199.835 22.3032 199.992 22.2783L200.061 22.2627C206.918 20.1903 211.119 15.4985 211.741 7.02051C211.76 6.77571 211.647 6.64355 211.402 6.64355L201.285 6.68164L201.206 6.68555Z" fill="#262626"/>
<path d="M188.55 7.83103C188.55 7.60495 188.417 7.47263 188.191 7.47263V5.14548C188.754 5.14548 189.497 5.31797 190.101 5.92087C190.629 6.44886 190.827 7.08453 190.868 7.61228L190.877 7.83103V9.86619C191.157 10.1602 191.348 10.4918 191.463 10.8008H191.464L192.368 13.2119C192.378 13.2387 192.387 13.2658 192.396 13.2929C192.552 13.7598 192.673 14.53 192.283 15.334C191.888 16.1487 191.187 16.5497 190.609 16.7138L190.61 16.7168L190.328 16.7978C190.46 16.8946 190.589 17.0075 190.71 17.1406C191.273 17.7601 191.386 18.4754 191.386 18.9277C191.386 18.9391 191.386 18.9505 191.386 18.9619L191.348 21.5244L191.346 21.5234C191.339 22.0928 191.158 22.793 190.603 23.3701C190.074 23.919 189.43 24.1221 188.925 24.1767L188.926 24.1787C187.382 24.3545 185.97 24.458 184.593 24.458C183.574 24.458 182.603 24.3948 181.666 24.2929H181.661C179.999 24.1083 178.53 23.5092 177.447 22.4785C176.657 21.7264 176.136 20.7983 175.904 19.7949C175.728 19.7202 175.572 19.6351 175.441 19.5488L175.303 19.4521L175.262 19.4209L173.246 17.8379L173.229 17.8252C172.806 17.4863 172.205 16.7873 172.205 15.7431C172.205 14.9918 172.53 14.3447 172.959 13.8965H172.958C173.391 13.4403 173.808 12.9592 174.201 12.4697C174.027 12.3655 173.857 12.2362 173.697 12.0761C173.094 11.4729 172.921 10.73 172.921 10.167V7.83103C172.921 7.26803 173.094 6.52413 173.697 5.92087C174.3 5.31795 175.044 5.14548 175.606 5.14548V7.47263L175.526 7.47849C175.349 7.50672 175.248 7.63309 175.248 7.83103V10.167C175.248 10.393 175.38 10.5254 175.606 10.5254H178.244C177.396 12.2397 176.058 14.0107 174.646 15.499C174.57 15.5742 174.532 15.6679 174.532 15.7431C174.532 15.8373 174.589 15.9324 174.684 16.0078L176.699 17.5898C176.775 17.6463 176.869 17.6845 176.944 17.6845C177.038 17.6844 177.133 17.6273 177.208 17.5332L178.715 15.4609C178.753 15.4232 178.772 15.4042 178.81 15.3476C179.601 14.2552 180.637 13.6709 181.522 13.6709C181.843 13.6709 182.144 13.7469 182.407 13.8974C180.486 14.8206 178.094 16.1398 178.094 18.5888C178.094 20.2278 179.375 21.6969 181.918 21.9795C182.568 22.0501 183.228 22.0998 183.907 22.1201L184.593 22.1308C185.855 22.1308 187.174 22.0357 188.662 21.8662C188.86 21.8497 188.986 21.7472 189.015 21.5703L189.021 21.4902L189.059 18.9277C189.059 18.7393 188.964 18.626 188.775 18.626H188.682C187.099 18.8897 185.385 19.0595 184.028 19.0595C183.294 19.0595 182.671 19.0222 182.219 18.9092C181.673 18.7773 181.391 18.532 181.391 18.2119C181.391 17.4583 182.841 16.7798 183.388 16.5537C183.369 16.8928 183.331 17.2886 183.236 17.7031C183.18 17.9667 183.312 18.1171 183.557 18.1172L186.025 18.0986C186.232 18.0984 186.364 17.9855 186.401 17.7597C186.472 17.3216 186.522 16.9045 186.542 16.5088L186.553 16.1201C186.553 15.8941 186.533 15.6866 186.515 15.4795L189.963 14.4814C190.189 14.4248 190.264 14.2552 190.188 14.0293L189.284 11.6181C189.209 11.411 189.039 11.3349 188.813 11.4101L185.403 12.6543C184.612 11.7688 183.481 11.373 182.389 11.373C181.993 11.373 181.579 11.4293 181.202 11.5234L181.691 10.5254H188.191C188.417 10.5254 188.55 10.393 188.55 10.167V7.83103ZM178.888 3.5156C179.591 3.06191 180.355 3.0318 180.953 3.17185L180.954 3.17087L183.724 3.8115C183.737 3.81457 183.75 3.81796 183.764 3.82126C184.233 3.93855 185.023 4.26893 185.487 5.14255C185.488 5.14345 185.488 5.14459 185.488 5.14548H188.191V7.47263H183.048L183.425 6.53123C183.519 6.28644 183.425 6.13567 183.199 6.07908L180.43 5.43845C180.204 5.38193 180.053 5.49488 179.996 5.70212C179.921 5.96579 179.831 6.24828 179.732 6.5449L179.412 7.47263H175.606V5.14548H177.733C177.742 5.11745 177.75 5.08984 177.758 5.06248H177.759C177.897 4.57682 178.216 3.9488 178.888 3.5156Z" fill="#262626"/>
<path d="M154.691 4.63375C155.377 4.39801 155.998 4.49453 156.429 4.63765C158.068 5.16988 160.263 6.33739 161.964 7.76949L162.297 8.05953L162.388 8.14449C162.457 8.21324 162.874 8.60249 163.09 9.25582C163.315 8.76094 163.529 8.23326 163.73 7.66988C163.735 7.65843 163.739 7.64708 163.743 7.6357C163.917 7.17224 164.593 5.87984 166.187 5.87984C166.639 5.87986 166.993 5.99999 167.207 6.09175C167.303 6.13307 167.38 6.17345 167.409 6.18843L167.435 6.20113C167.474 6.22081 167.513 6.24176 167.551 6.26363L167.664 6.33296L170.151 7.95308L170.172 7.96675L170.302 8.05855C170.616 8.29315 170.995 8.67298 171.223 9.24996C171.495 9.94185 171.431 10.6167 171.245 11.1435L171.246 11.1445C170.135 14.3117 168.402 17.2053 165.826 19.4609C163.238 21.7269 159.913 23.2478 155.793 23.832L155.792 23.8291C155.18 23.9194 154.507 23.8117 153.916 23.4238C153.328 23.0376 152.975 22.477 152.809 21.9228L152.807 21.9238L151.922 19.0224L151.923 19.0214C151.765 18.5094 151.657 17.6267 152.226 16.7744C152.79 15.9284 153.64 15.6909 154.102 15.625L154.153 15.6181C155.494 15.4574 156.63 15.1736 157.604 14.7919C157.376 14.7051 157.188 14.5996 157.047 14.5058L156.819 14.3398L156.714 14.25C155.54 13.1903 153.957 12.1936 152.825 11.6904C152.193 11.4095 151.351 10.7171 151.247 9.54488L151.236 9.30074L151.243 9.11812C151.274 8.70701 151.4 8.3992 151.457 8.26851C151.534 8.09177 151.62 7.94755 151.662 7.87691L151.808 7.66207L153.403 5.5732C153.602 5.31812 154.01 4.86815 154.691 4.63375ZM166.187 8.20796C166.074 8.20796 165.979 8.30164 165.923 8.4521C164.02 13.7837 160.874 17.1561 154.431 17.9287C154.167 17.9663 154.072 18.1176 154.147 18.3437L155.033 21.2451C155.09 21.4522 155.26 21.565 155.467 21.5273C162.908 20.4722 167.034 16.1201 169.05 10.374C169.125 10.1669 169.05 10.0163 168.881 9.90328L166.394 8.28316C166.318 8.2455 166.262 8.20801 166.187 8.20796ZM155.711 6.85152C155.504 6.77629 155.372 6.83241 155.24 7.00191L153.658 9.07417C153.602 9.16837 153.563 9.24422 153.563 9.30074C153.564 9.41355 153.639 9.50795 153.771 9.56441C155.127 10.1673 156.917 11.2978 158.273 12.5224C158.344 12.5789 158.404 12.6138 158.462 12.6279L158.519 12.6347C158.613 12.6347 158.707 12.5971 158.782 12.5029L160.779 10.2802C160.836 10.2236 160.872 10.1669 160.886 10.1103L160.893 10.0537C160.892 9.95958 160.835 9.88411 160.741 9.79C159.346 8.53601 157.421 7.46433 155.99 6.94722L155.711 6.85152Z" fill="#262626"/>
<path d="M133.938 21.0801C133.967 21.2568 134.092 21.3583 134.29 21.3584L145.066 21.377C145.264 21.377 145.39 21.2761 145.419 21.0996L145.425 21.0186V9.84668C145.425 9.60179 145.292 9.48828 145.066 9.48828V7.16113C145.538 7.16113 146.3 7.28009 146.943 7.89844C147.603 8.53279 147.752 9.31999 147.752 9.84668V21.0186C147.752 21.5816 147.58 22.3255 146.977 22.9287C146.373 23.5319 145.629 23.7041 145.066 23.7041H145.062L134.286 23.6855V23.6846C133.724 23.6837 132.983 23.511 132.381 22.9092C131.778 22.3059 131.604 21.563 131.604 21V18.6826C131.605 18.1782 131.743 17.5292 132.206 16.9658C132.168 16.774 132.151 16.5901 132.151 16.4219V14.1797L132.16 13.9609C132.168 13.8592 132.183 13.7537 132.204 13.6455C131.848 13.127 131.736 12.5593 131.736 12.1074V9.84668C131.736 9.32007 131.885 8.53275 132.545 7.89844C133.188 7.28018 133.951 7.16118 134.422 7.16113V9.48828C134.196 9.48837 134.064 9.60189 134.064 9.84668V12.1074C134.064 12.3334 134.196 12.4657 134.422 12.4658H142.071V13.8223H134.837C134.611 13.8223 134.479 13.9537 134.479 14.1797V16.4219C134.479 16.648 134.611 16.7803 134.837 16.7803H142.071V18.3252H134.29C134.064 18.3253 133.933 18.4567 133.933 18.6826V21L133.938 21.0801ZM145.066 7.16113V9.48828H134.422V7.16113H145.066Z" fill="#262626"/>
<path d="M112.681 3.98147C113.343 3.7124 113.973 3.76302 114.438 3.89455H114.438C114.449 3.89754 114.46 3.90033 114.471 3.90334C114.474 3.90422 114.477 3.90538 114.479 3.90627H114.479C116.47 4.46848 118.259 5.32393 119.748 6.43947L120.044 6.66799L120.051 6.67287C120.347 6.90987 120.729 7.32265 120.933 7.90627C120.94 7.88581 120.949 7.86531 120.957 7.84475L120.958 7.84279C121.222 7.13761 121.987 6.10664 123.4 6.10647C123.868 6.10647 124.389 6.22859 124.875 6.54592H124.876L127.363 8.12795H127.362C127.683 8.32867 128.142 8.69731 128.424 9.32521C128.747 10.0467 128.676 10.7442 128.51 11.2422C128.501 11.2686 128.492 11.2952 128.482 11.3213C127.329 14.4059 125.718 17.2964 123.211 19.5918C120.682 21.9071 117.389 23.4819 113.104 24.1651L113.103 24.1641C112.595 24.2456 111.945 24.2125 111.313 23.8574C110.756 23.5437 110.407 23.0887 110.203 22.6651L110.124 22.4863C110.118 22.4723 110.113 22.4576 110.107 22.4434L109.034 19.5987L109.035 19.5977C108.81 19.0078 108.696 18.0834 109.279 17.208C109.778 16.4604 110.502 16.1863 110.98 16.0879C110.411 15.7824 109.803 15.504 109.228 15.2998V15.2979C108.896 15.1818 108.434 14.956 108.046 14.5C107.66 14.0455 107.48 13.5211 107.441 13.0313L107.434 12.8233L107.442 12.6055C107.484 12.1154 107.656 11.7527 107.735 11.5938C107.763 11.5389 107.793 11.4852 107.824 11.4326L109.144 9.24709C109.258 9.05751 109.414 8.84741 109.62 8.65041L109.618 8.60354L109.624 8.4385C109.648 8.06466 109.75 7.77044 109.83 7.58303C109.871 7.48658 109.912 7.40887 109.927 7.3799C109.931 7.37163 109.935 7.36422 109.938 7.35939C109.941 7.35334 109.942 7.35143 109.943 7.34865C109.98 7.275 110.022 7.20311 110.066 7.13381L111.403 5.06154H111.404C111.645 4.68277 112.048 4.2387 112.681 3.98147ZM123.4 8.43361C123.288 8.43377 123.193 8.50962 123.137 8.66018C121.159 13.954 118.671 17.4957 111.475 18.3623C111.23 18.4001 111.117 18.5514 111.211 18.7774L112.285 21.6221C112.361 21.8103 112.511 21.9039 112.737 21.8662C120.537 20.6228 124.154 16.2521 126.302 10.5059C126.358 10.3364 126.302 10.2048 126.113 10.0918L123.627 8.50881C123.552 8.45233 123.476 8.43361 123.4 8.43361ZM111.606 10.2608C111.4 10.2045 111.249 10.2612 111.136 10.4492L109.817 12.6348C109.78 12.7101 109.761 12.7668 109.761 12.8233C109.761 12.9551 109.836 13.0499 110.006 13.1065C111.494 13.634 113.152 14.5573 114.207 15.4238C114.282 15.4989 114.377 15.5176 114.452 15.5176C114.546 15.5174 114.641 15.4606 114.716 15.3477L115.512 14.1172L115.853 13.7774C115.828 13.7527 115.802 13.7297 115.777 13.7071L116.204 13.0498C116.261 12.9745 116.279 12.8986 116.279 12.8233C116.279 12.7291 116.242 12.6349 116.147 12.5596C114.961 11.5799 113.189 10.6941 111.606 10.2608ZM115.853 13.7774L115.512 14.1172L115.776 13.708C115.802 13.7312 115.828 13.7531 115.853 13.7774ZM113.812 6.13479C113.623 6.07831 113.472 6.13522 113.359 6.32326L112.021 8.3965C111.984 8.4717 111.946 8.52828 111.946 8.60354C111.946 8.71647 112.041 8.81073 112.191 8.86721C113.68 9.43241 115.451 10.2988 116.581 11.1465C116.656 11.2029 116.731 11.2412 116.807 11.2412C116.92 11.2412 117.014 11.1842 117.089 11.0713L118.653 8.99904C118.71 8.92369 118.747 8.82927 118.747 8.75393C118.747 8.65978 118.691 8.56558 118.597 8.49025C117.396 7.53644 115.896 6.76472 114.161 6.23732L113.812 6.13479Z" fill="#262626"/>
<path d="M96.1047 6.65628C96.5964 6.53884 97.2365 6.52373 97.8859 6.82815C98.1303 6.94273 98.337 7.08505 98.5119 7.23929C98.5303 7.22381 98.5484 7.2076 98.5676 7.19241C99.3073 6.60572 100.129 6.58544 100.629 6.65725H100.63L103.286 7.03421C103.305 7.03684 103.323 7.03894 103.342 7.04202C103.824 7.12233 104.54 7.37029 105.064 8.06839C105.576 8.75105 105.617 9.48435 105.58 9.92678C105.58 9.93292 105.579 9.93921 105.578 9.94534C105.283 13.1769 104.602 16.3318 102.852 18.9268C101.041 21.6117 98.2672 23.4359 94.3351 24.3252C94.3163 24.3295 94.2974 24.3332 94.2785 24.3369C93.2338 24.5459 92.3165 24.1611 91.7052 23.5498L91.6086 23.4473L89.5734 21.1485L89.4992 21.0596C89.3448 20.8666 88.9319 20.3256 88.881 19.5244L88.8761 19.3614L88.882 19.1856C88.9395 18.341 89.4056 17.7341 89.8429 17.3907C89.1855 16.8373 88.9798 16.1058 88.9289 15.6201L88.9279 15.6211C88.7868 14.3366 88.4913 13.2071 88.0119 12.1494L87.7951 11.7002L87.7843 11.6787C87.5544 11.2189 87.2814 10.3425 87.716 9.38577C88.1577 8.41402 89.0165 8.04193 89.5451 7.91897L91.7306 7.41018C92.1021 7.32053 92.6026 7.27745 93.1486 7.43557C93.3943 7.30685 93.632 7.22832 93.8254 7.18362L96.1047 6.65628ZM100.303 8.96096C100.058 8.9234 99.9075 9.03662 99.9074 9.28128C99.719 15.3478 97.4201 18.1928 91.4855 19.1348C91.3162 19.1725 91.2033 19.2484 91.2033 19.3614C91.2034 19.4365 91.2414 19.5115 91.3166 19.6055L93.3508 21.9043C93.4661 22.0197 93.5963 22.0771 93.7531 22.0645L93.8224 22.0547C100.736 20.4909 102.696 15.9128 103.261 9.73343C103.28 9.50751 103.185 9.37558 102.959 9.33792L100.303 8.96096ZM92.7101 9.84671C92.6159 9.67731 92.4651 9.62029 92.258 9.67678L90.0734 10.1856L89.9894 10.2119C89.8123 10.2852 89.7667 10.4399 89.8654 10.6377C90.619 12.1072 91.053 13.6528 91.2414 15.3672C91.2603 15.6119 91.4107 15.7247 91.6554 15.6494L93.9728 15.0088C94.18 14.9523 94.2738 14.8207 94.2551 14.5948C94.0478 12.8803 93.5014 11.2032 92.7101 9.84671ZM97.0812 9.13089C96.987 8.94251 96.8363 8.86734 96.6291 8.92386L95.8097 9.11233L94.3498 9.4512C94.1049 9.50772 94.0297 9.67727 94.1427 9.90335C94.8209 11.3352 95.2725 13.1062 95.3478 14.6133C95.3667 14.8771 95.5179 14.9716 95.7629 14.9151L98.0607 14.3116C98.268 14.255 98.3813 14.1233 98.3625 13.916C98.2871 12.2958 97.7594 10.5438 97.0812 9.13089ZM90.6008 12.4522L90.5959 12.4541C90.6012 12.4529 90.6069 12.4506 90.6125 12.4492L90.6008 12.4522Z" fill="#262626"/>
<path d="M70.2061 4.0361C73.6062 3.89772 79.2864 4.29988 82.7441 5.17966H82.7432C83.2604 5.31078 83.9939 5.65637 84.4395 6.46872C84.8655 7.24567 84.7799 8.00407 84.6729 8.43259C84.67 8.44419 84.6671 8.45619 84.6641 8.46774L83.9854 11.0117L83.9834 11.0107C83.8914 11.3591 83.7039 11.7987 83.3447 12.1826C83.5011 12.7698 83.4175 13.3024 83.3086 13.665L83.3105 13.666L82.5381 16.3017C82.6595 16.3482 82.7797 16.3953 82.8984 16.4433L83.2764 16.6006C83.2913 16.607 83.3065 16.6134 83.3213 16.6201C83.7914 16.8338 84.3966 17.2661 84.7178 18.0459C85.0384 18.8245 84.9198 19.5724 84.6904 20.1113L84.6924 20.1123L83.542 22.8437C83.4066 23.1728 83.1669 23.5858 82.7383 23.9287C82.2394 24.3278 81.6571 24.495 81.1152 24.4951C80.6651 24.4951 80.3009 24.3761 80.0703 24.2783L79.8857 24.1933C79.8803 24.1906 79.8745 24.1873 79.8691 24.1845C77.5601 23.0076 73.1444 22.0522 69.2852 21.8183L68.5215 21.7812L68.4395 21.7763C67.9712 21.7429 67.0447 21.5552 66.4229 20.667C65.7675 19.7305 65.9482 18.7435 66.1455 18.2207L67.0293 15.8662C67.035 15.8511 67.0409 15.8362 67.0469 15.8213C67.149 15.5659 67.3035 15.2824 67.5322 15.0166C67.2476 14.307 67.3537 13.6298 67.46 13.2578C67.4641 13.2432 67.4682 13.2284 67.4727 13.2138L68.1113 11.1338C68.044 11.0838 67.9767 11.0303 67.9111 10.9707C67.3369 10.4486 67.1226 9.7952 67.0781 9.25876L67.0693 9.0361L67.0703 8.93552C67.0721 8.8794 67.077 8.79395 67.0898 8.69137C67.1039 8.57885 67.1281 8.44698 67.1699 8.3027L67.6777 6.14841L67.6973 6.0693C67.7937 5.71585 68.0056 5.18258 68.4971 4.73044C69.0106 4.25822 69.6313 4.05701 70.2061 4.03708V4.0361ZM69.6035 16.4033C69.4152 16.4034 69.2833 16.4972 69.208 16.6855L68.3223 19.041C68.2284 19.2856 68.3419 19.4362 68.6055 19.455C72.8067 19.6058 78.0443 20.6418 80.9268 22.1113C80.9643 22.1301 80.9968 22.1449 81.0273 22.1543L81.1152 22.1679C81.2139 22.1679 81.2912 22.1255 81.3477 22.041L81.3975 21.9424L82.5469 19.2099C82.6409 19.0028 82.5655 18.8334 82.3584 18.7392C78.76 17.1943 73.3715 16.441 69.6035 16.4033ZM70.8096 11.2031C70.6212 11.2031 70.4891 11.2976 70.4326 11.5049L69.6982 13.8974C69.6229 14.161 69.7355 14.3114 69.999 14.3115C72.9757 14.2738 77.2715 14.8963 79.8525 15.8759C79.9091 15.8948 79.9659 15.9131 80.0225 15.9131C80.1542 15.9129 80.2482 15.8188 80.3047 15.6494L81.0771 13.0117C81.1524 12.7857 81.0774 12.6349 80.8516 12.5595C78.0444 11.6552 73.5791 11.2031 70.8096 11.2031ZM82.1699 7.43552C78.986 6.6254 73.5413 6.22942 70.3008 6.3613L70.2334 6.36618C70.0849 6.39071 69.9918 6.50035 69.9424 6.68161L69.415 8.9238C69.3964 8.96121 69.3965 8.99869 69.3965 9.0361C69.3965 9.2245 69.5098 9.3193 69.6982 9.3193C73.5415 9.31932 77.7619 9.6587 81.3037 10.6572C81.5295 10.7135 81.6798 10.6378 81.7363 10.4121L82.415 7.86813C82.4643 7.67063 82.4128 7.53071 82.248 7.46091L82.1699 7.43552Z" fill="#262626"/>
</g>
<defs>
<clipPath id="clip0_452_2">
<rect width="373" height="56" fill="white"/>
</clipPath>
</defs>
</svg>
