<svg width="306" height="61" viewBox="0 0 306 61" fill="none" xmlns="http://www.w3.org/2000/svg">
<mask id="path-1-inside-1_395_11443" fill="white">
<path d="M0 0L64 0V61H0L0 0Z"/>
</mask>
<path d="M0 0L64 0V61H0L0 0Z" fill="#28AFE7"/>
<path d="M0 0L0 -2.5H-2.5V0L0 0ZM64 0L66.5 0V-2.5H64V0ZM64 61V65.5H66.5V61H64ZM0 61H-2.5V65.5H0L0 61ZM0 0L0 2.5L64 2.5V0V-2.5L0 -2.5L0 0ZM64 0L61.5 0V61H64H66.5V0L64 0ZM64 61V56.5H0L0 61L0 65.5H64V61ZM0 61H2.5L2.5 0L0 0L-2.5 0L-2.5 61H0Z" fill="#262626" mask="url(#path-1-inside-1_395_11443)"/>
<path d="M50.4262 17.8461C50.6795 17.8461 50.8314 17.998 50.8314 18.2513V19.3149H56.5547C56.8079 19.3149 56.9599 19.4668 56.9599 19.7201V22.6577C56.9599 22.9109 56.8079 23.0629 56.5547 23.0629H55.0859C54.5794 23.8733 53.8957 24.633 53.1359 25.3167C54.6807 25.646 56.1495 25.8485 57.3904 25.8992C57.669 25.9245 57.7956 26.1018 57.7196 26.3804L56.6813 29.9004C56.6054 30.1284 56.4534 30.255 56.2002 30.2297C56.1495 30.2297 56.0989 30.2297 56.0735 30.2043H55.7696C55.7443 30.179 55.6937 30.179 55.643 30.179V41.1191C55.643 41.3723 55.4911 41.5243 55.2378 41.5243H51.6671C51.4139 41.5243 51.2619 41.3723 51.2619 41.1191V37.8523H45.3107C44.9815 39.1945 44.4497 40.4353 43.614 41.5749C43.462 41.7775 43.2848 41.8282 43.0569 41.7016L39.4355 39.7516C39.2835 39.6756 39.2076 39.5743 39.2076 39.4477C39.2076 39.3717 39.2329 39.2958 39.3089 39.1945C40.9549 37.1179 41.4361 34.7627 41.4361 32.053V30.3309C41.3854 30.3309 41.3348 30.3309 41.2588 30.3563H40.9549C40.879 30.3816 40.8283 30.3816 40.7777 30.3816C40.5497 30.4069 40.3725 30.2803 40.3218 30.0524L39.8153 28.1531L38.2452 30.3563C38.1439 30.4829 38.0426 30.5589 37.9413 30.5589C37.8654 30.5589 37.7641 30.5082 37.6628 30.4322C36.4725 29.4699 35.029 28.6342 33.5096 27.9758C33.3576 27.8998 33.2563 27.7985 33.2563 27.6719C33.2563 27.5959 33.2817 27.52 33.3576 27.4187L35.3329 24.557C35.4596 24.3544 35.6622 24.3038 35.9154 24.4051C37.1816 24.9115 38.3972 25.5193 39.4355 26.2031C39.4861 26.1271 39.5874 26.0765 39.714 26.0765C41.0056 26.0258 42.4237 25.9498 43.9939 25.57C43.1581 24.8356 42.3984 23.9999 41.74 23.0629H40.5751C40.3218 23.0629 40.1699 22.9109 40.1699 22.6577V22.1259L38.3465 24.4304C38.2706 24.5317 38.1693 24.5823 38.068 24.5823C37.992 24.5823 37.8907 24.557 37.7894 24.4557C36.7005 23.4681 35.0797 22.4804 33.8388 21.898C33.6615 21.8473 33.5856 21.746 33.5856 21.6194C33.5856 21.5434 33.6109 21.4421 33.6869 21.3661L35.966 18.5045C36.0927 18.3019 36.2699 18.2513 36.4725 18.3272C37.6881 18.7577 39.0809 19.5175 40.1699 20.3785V19.7201C40.1699 19.4668 40.3218 19.3149 40.5751 19.3149H45.7919V18.2513C45.7919 17.998 45.9438 17.8461 46.1971 17.8461H50.4262ZM46.8302 23.0629C47.2607 23.5947 47.7925 24.1265 48.5269 24.5317C49.2107 24.1518 49.7425 23.6707 50.1983 23.0629H46.8302ZM51.2619 29.3433C50.3756 29.0901 49.4892 28.7862 48.6788 28.457C47.7672 28.8621 46.7795 29.2167 45.7919 29.4952V30.0271H51.2619V29.3433ZM36.118 31.2679C36.1686 30.9894 36.3459 30.8628 36.6245 30.9894L39.942 32.4835C40.1699 32.5848 40.2459 32.7621 40.2205 32.99C39.6887 36.1049 39.005 39.0932 38.0173 41.3723C37.916 41.6256 37.7134 41.6762 37.4602 41.5749L33.8641 39.7263C33.6362 39.5996 33.5602 39.4477 33.6362 39.2704C34.6239 37.1179 35.5102 34.3575 36.118 31.2679ZM45.7919 33.3445L45.7666 34.5095H51.2619V33.3445H45.7919Z" fill="white"/>
<path d="M9.65453 40.2074C9.62921 40.4607 9.45194 40.5873 9.17337 40.5113L7.52729 40.1314C7.27405 40.0808 7.14743 39.9035 7.19808 39.6503C7.55262 37.5484 7.80586 35.1932 7.78053 33.3952C7.78053 33.0913 7.93248 33.0153 8.21105 33.0153L9.75583 33.1673C10.0091 33.1926 10.1357 33.2939 10.1357 33.4965C10.1357 35.3451 9.98375 38.0549 9.65453 40.2074ZM17.4291 41.0684C17.1758 41.0684 17.0239 40.9165 17.0239 40.6633V39.1944L15.5804 39.4477C15.3019 39.4983 15.1499 39.3464 15.1499 39.0678C15.1752 37.4471 15.0739 35.4971 14.846 33.851C14.8207 33.5978 14.922 33.4458 15.1752 33.3952L16.3908 33.1673C16.644 33.1166 16.8213 33.2432 16.872 33.4965C17.0492 34.5601 17.2012 35.877 17.3278 37.1179L17.4038 37.0925H21.7089V35.5477H18.2648C18.0116 35.5477 17.8596 35.3958 17.8596 35.1426V32.1036C17.8596 31.8504 18.0116 31.6985 18.2648 31.6985H21.7089V30.5842C21.7089 30.3309 21.8608 30.179 22.1141 30.179H25.5582C25.8368 30.179 25.9634 30.3309 25.9634 30.5842V31.6985H29.7114C29.9899 31.6985 30.1166 31.8504 30.1166 32.1036V35.1426C30.1166 35.3958 29.9899 35.5477 29.7114 35.5477H25.9634V37.0925H30.5977C30.851 37.0925 31.0029 37.2445 31.0029 37.4977V40.6633C31.0029 40.9165 30.851 41.0684 30.5977 41.0684H17.4291ZM18.7713 30.964C18.5434 31.0147 18.3661 30.9134 18.2648 30.6855L16.9479 27.292C16.8213 27.0388 16.9479 26.8362 17.2265 26.8109C18.1128 26.6842 19.1258 26.4816 20.1388 26.1271C19.7589 25.7726 17.9103 23.8986 17.9103 23.4427C17.9103 23.3161 17.9862 23.1895 18.1888 23.1388L20.5187 22.4551H17.3531C17.2771 22.4551 17.2265 22.4551 17.1758 22.4298C16.1122 24.481 14.4408 26.8362 13.0986 28.5329L14.6687 28.4569C14.5928 28.153 14.4915 27.8745 14.4155 27.6212C14.3142 27.368 14.3902 27.1907 14.6434 27.1148L15.859 26.6842C16.0869 26.6083 16.2895 26.6842 16.3655 26.9375C16.796 28.229 17.3278 30.4576 17.5557 31.901C17.581 32.1543 17.4797 32.3062 17.2265 32.3822L15.8843 32.7621C15.6057 32.838 15.4285 32.7367 15.4031 32.4582L15.3272 31.7491L14.3902 31.901V41.2204C14.3902 41.4736 14.2382 41.6256 13.985 41.6256H11.0474C10.7688 41.6256 10.6422 41.4736 10.6422 41.2204V32.2809L7.90716 32.4075C7.62859 32.4075 7.50197 32.2809 7.47664 32.0023L7.27405 28.9381C7.27405 28.6342 7.37535 28.5329 7.67924 28.5329L8.92013 28.5836C9.1987 28.2543 9.45194 27.8998 9.70518 27.5453C8.9961 26.5323 8.0591 25.3167 7.1221 24.3291C6.97016 24.1518 6.94483 23.9745 7.04613 23.7719L8.38832 20.7584C8.46429 20.6064 8.56559 20.5304 8.66689 20.5304C8.79351 20.5304 8.9961 20.6824 9.04675 20.809C9.47726 19.872 9.9331 18.7324 10.1863 17.7701C10.2623 17.5168 10.4396 17.4155 10.6928 17.5168L13.3772 18.4792C13.6304 18.5805 13.7317 18.7577 13.6304 18.9857C13.0733 20.4291 12.2883 22.0752 11.4272 23.5694L11.9337 24.2531C12.6934 23.0122 13.3519 21.7967 13.8837 20.6571C13.9597 20.4798 14.061 20.4038 14.1876 20.4038C14.2636 20.4038 14.3395 20.4291 14.4408 20.4798L16.9479 21.8979V18.7831C16.9479 18.5298 17.0999 18.3779 17.3531 18.3779H29.7114C29.9899 18.3779 30.1166 18.5298 30.1166 18.7831V21.746C30.1166 21.9233 30.1166 22.0752 30.0406 22.2525C29.4835 23.7719 28.5971 25.0888 27.5082 26.2284C28.6478 26.5323 29.838 26.7096 30.9776 26.7855C31.2815 26.8109 31.3828 26.9881 31.2815 27.2667L29.9393 30.6855C29.838 30.9134 29.6607 30.9894 29.4328 30.9387C27.5841 30.4576 25.7608 29.7738 24.0641 28.8621C22.3673 29.8498 20.5187 30.5589 18.7713 30.964ZM21.9368 22.4551C22.3927 23.1895 22.9498 23.7973 23.5829 24.3038C24.2667 23.7719 24.8491 23.1642 25.2037 22.4551H21.9368Z" fill="white"/>
<path d="M51.2617 41.1189C51.2617 41.372 51.414 41.524 51.667 41.5242H55.2383L55.3281 41.5173C55.4984 41.4895 55.6087 41.3799 55.6367 41.2097L55.6436 41.1189V30.1794C55.6941 30.1794 55.7443 30.1796 55.7695 30.2048H56.0742C56.0997 30.2297 56.1499 30.2292 56.2002 30.2292C56.4534 30.2546 56.6057 30.1281 56.6816 29.9001L57.7197 26.3806C57.7957 26.102 57.6692 25.9245 57.3906 25.8992C56.1497 25.8485 54.6805 25.6464 53.1357 25.3171C53.8954 24.6335 54.5795 23.8735 55.0859 23.0632H56.5547L56.6455 23.0554C56.8156 23.0274 56.9253 22.918 56.9531 22.7478L56.96 22.658V19.7205C56.96 19.499 56.844 19.3547 56.6455 19.322L56.5547 19.3152V17.1169C57.1221 17.1169 57.8346 17.2953 58.4072 17.8679C58.9081 18.3688 59.1073 18.9766 59.1494 19.5007L59.1582 19.7205V22.658L59.1494 22.8767C59.1186 23.2604 59.0022 23.688 58.7461 24.0867C59.0154 24.2503 59.2766 24.4781 59.4951 24.7937C60.0427 25.5847 59.9843 26.4327 59.8408 26.9587C59.8369 26.9733 59.8324 26.9882 59.8281 27.0027L58.79 30.5222C58.7828 30.5468 58.7747 30.5712 58.7666 30.5955C58.6373 30.9833 58.3729 31.5016 57.8418 31.9041V41.1189L57.833 41.3376C57.791 41.862 57.591 42.4702 57.0898 42.9714C56.5173 43.5438 55.8055 43.7224 55.2383 43.7224H51.667C51.0997 43.7223 50.3879 43.5438 49.8154 42.9714C49.2428 42.3988 49.0645 41.6863 49.0645 41.1189V40.0505H46.9229C46.5468 41.0285 46.0472 41.9741 45.3867 42.8748C45.3821 42.8811 45.3778 42.888 45.373 42.8943C45.1183 43.2339 44.6421 43.7142 43.8799 43.8982C43.1071 44.0847 42.4456 43.8694 42.0146 43.6355V43.6375L39.9062 42.5017C39.6404 42.9793 39.1903 43.4591 38.4912 43.6921C37.8148 43.9176 37.207 43.8098 36.8037 43.6746L36.6436 43.616L36.4551 43.53L32.8594 41.6814L32.7969 41.6482C32.4888 41.477 31.986 41.1328 31.6699 40.5007C31.3017 39.7644 31.3622 38.9979 31.6162 38.405L31.6387 38.3542C32.5436 36.382 33.3813 33.79 33.9609 30.8435C33.9722 30.7854 33.987 30.7222 34.0049 30.655C33.7253 30.5053 33.4388 30.3599 33.1455 30.2224L32.6357 29.9929L32.5264 29.9421C32.2151 29.7865 31.1377 29.1652 31.0654 27.8152L31.2812 27.2664C31.3515 27.0729 31.3225 26.931 31.1973 26.8523C31.2893 26.5859 31.4161 26.3577 31.5488 26.1697L33.0684 23.9675C33.0375 23.9525 33.007 23.9372 32.9766 23.9226C32.6578 23.7964 32.2946 23.5852 31.9844 23.2273C31.6129 22.7986 31.4343 22.2968 31.3955 21.821L31.3877 21.6199L31.3955 21.4246C31.4295 20.9901 31.5838 20.4375 32.0049 19.95L34.2002 17.1931C34.4734 16.8117 34.8941 16.427 35.4961 16.2263C36.1524 16.0076 36.7602 16.0978 37.2061 16.2576L37.207 16.2556C37.216 16.2588 37.2245 16.2632 37.2334 16.2664C37.2369 16.2676 37.2407 16.268 37.2441 16.2693L37.2432 16.2703C37.9871 16.5365 38.773 16.8985 39.5342 17.3259C39.8935 17.1752 40.2567 17.117 40.5752 17.1169H43.8438C43.96 16.868 44.1223 16.6225 44.3457 16.3992C44.9183 15.8268 45.63 15.6482 46.1973 15.6482V17.8464L46.1074 17.8533C45.9086 17.8857 45.792 18.03 45.792 18.2517V19.3152H40.5752C40.322 19.3152 40.1699 19.4673 40.1699 19.7205V20.3787C39.081 19.5177 37.6882 18.7574 36.4727 18.3269C36.2702 18.251 36.0924 18.3021 35.9658 18.5046L33.6875 21.366C33.6115 21.4419 33.5859 21.5439 33.5859 21.6199C33.5861 21.7463 33.6619 21.8476 33.8389 21.8982C35.0798 22.4807 36.7011 23.4682 37.79 24.4558C37.8913 24.5569 37.9924 24.5828 38.0684 24.5828C38.1696 24.5827 38.2707 24.5316 38.3467 24.4304L40.1699 22.1257V22.658C40.17 22.911 40.3221 23.0632 40.5752 23.0632H41.7402C42.3986 24.0001 43.1585 24.8357 43.9941 25.5701C42.424 25.9499 41.0054 26.0263 39.7139 26.0769C39.5875 26.077 39.4862 26.127 39.4355 26.2029C38.3974 25.5192 37.182 24.9115 35.916 24.405C35.6628 24.3037 35.4596 24.3548 35.333 24.5574L33.3574 27.4187C33.2817 27.5198 33.2569 27.5958 33.2568 27.6716C33.2568 27.7982 33.358 27.8994 33.5098 27.9753C35.0292 28.6338 36.4728 29.47 37.6631 30.4324C37.7643 30.5083 37.8655 30.5592 37.9414 30.5593C38.0427 30.5593 38.1438 30.4828 38.2451 30.3562L39.8154 28.1531L40.3223 30.0525C40.3729 30.2803 40.5504 30.4069 40.7783 30.3816C40.8288 30.3816 40.8793 30.3814 40.9551 30.3562H41.2588C41.3348 30.3309 41.3859 30.3308 41.4365 30.3308V32.0535C41.4365 34.7628 40.9553 37.1177 39.3096 39.1941C39.2336 39.2954 39.208 39.372 39.208 39.448C39.2081 39.5745 39.2838 39.6758 39.4355 39.7517L43.0566 41.7019C43.2561 41.8127 43.4168 41.7871 43.5557 41.6433L43.6143 41.575C44.4499 40.4354 44.9813 39.1944 45.3105 37.8523H51.2617V41.1189ZM36.625 30.989C36.3464 30.8624 36.1688 30.9897 36.1182 31.2683C35.5104 34.3576 34.6243 37.1178 33.6367 39.2703C33.5608 39.4475 33.6364 39.5997 33.8643 39.7263L37.46 41.575C37.7131 41.6762 37.9162 41.6257 38.0176 41.3728C39.0052 39.0936 39.6889 36.1049 40.2207 32.99C40.246 32.7621 40.1703 32.5844 39.9424 32.4832L36.625 30.989ZM51.2617 33.3445V34.5095H45.7666L45.792 33.3445H51.2617ZM48.6787 28.4568C49.489 28.786 50.3755 29.0903 51.2617 29.3435V30.0271H45.792V29.4949C46.7796 29.2163 47.7671 28.8619 48.6787 28.4568ZM57.4434 28.4861C57.4293 28.475 57.4144 28.4654 57.4004 28.4548C57.4145 28.4655 57.4295 28.475 57.4434 28.4861ZM57.2656 28.3591C57.249 28.3486 57.2323 28.3387 57.2158 28.3289C57.2324 28.339 57.2493 28.3486 57.2656 28.3591ZM50.1982 23.0632C49.7425 23.6708 49.2109 24.1522 48.5273 24.532C47.793 24.1268 47.2606 23.595 46.8301 23.0632H50.1982ZM50.4268 15.6482C50.994 15.6483 51.7058 15.8268 52.2783 16.3992C52.5017 16.6226 52.664 16.868 52.7803 17.1169H56.5547V19.3152H50.832V18.2517C50.832 18.0301 50.7153 17.8858 50.5166 17.8533L50.4268 17.8464V15.6482ZM50.4268 15.6482V17.8464H46.1973V15.6482H50.4268Z" fill="#262626"/>
<path d="M31.0029 37.4978C31.0029 37.2446 30.8508 37.0925 30.5976 37.0925H25.9629V35.5476H29.7109C29.9895 35.5476 30.1162 35.3955 30.1162 35.1423V32.1032C30.1161 31.8502 29.9893 31.6989 29.7109 31.6989H25.9629V30.5837C25.9627 30.3307 25.836 30.1794 25.5576 30.1794H22.1142C21.8612 30.1794 21.7092 30.3307 21.709 30.5837V31.6989H18.2646C18.0115 31.6989 17.8595 31.8502 17.8594 32.1032V35.1423C17.8594 35.3955 18.0114 35.5476 18.2646 35.5476H21.709V37.0925H17.4033L17.3271 37.1179C17.2005 35.8771 17.0493 34.5603 16.8721 33.4968C16.8214 33.2435 16.6439 33.117 16.3906 33.1677L15.1748 33.3952C14.9217 33.4459 14.8204 33.5981 14.8457 33.8513C15.0736 35.4973 15.1747 37.4474 15.1494 39.0681C15.1495 39.3464 15.3017 39.4985 15.5801 39.448L17.0234 39.1941V40.6628C17.0234 40.916 17.1756 41.068 17.4287 41.0681H30.5976L30.6875 41.0612C30.8578 41.0334 30.9681 40.9239 30.9961 40.7536L31.0029 40.6628V37.4978ZM8.21092 33.0153C7.93236 33.0153 7.78026 33.0913 7.78026 33.3952C7.80558 35.1932 7.55274 37.5483 7.19823 39.6501C7.14758 39.9033 7.27409 40.0809 7.52733 40.1316L9.17284 40.5114C9.45129 40.5874 9.62885 40.4608 9.65428 40.2077C9.98348 38.0553 10.1357 35.3455 10.1357 33.4968C10.1357 33.2943 10.0089 33.1931 9.75584 33.1677L8.21092 33.0153ZM25.2031 22.4548C24.8486 23.1638 24.2666 23.7717 23.583 24.3034C22.9499 23.7969 22.3923 23.1892 21.9365 22.4548H25.2031ZM29.7109 16.1794V18.3776H17.3525V16.1794H29.7109ZM33.2012 40.6628L33.1924 40.8825C33.1503 41.4067 32.9502 42.0144 32.4492 42.5153C31.8767 43.0878 31.1649 43.2663 30.5976 43.2663H17.4287C17.0001 43.2663 16.4897 43.1636 16.0185 42.8669C15.9625 42.9364 15.9031 43.0057 15.8369 43.072C15.2643 43.6446 14.5517 43.8239 13.9844 43.8239H11.0469C10.518 43.8239 9.7576 43.6718 9.15038 43.0358C9.04372 42.9241 8.9528 42.8081 8.87499 42.6911C8.80643 42.6798 8.74099 42.666 8.6787 42.6511V42.653L7.03319 42.2732V42.2712C6.51034 42.1538 5.88253 41.8554 5.44139 41.2185C4.99117 40.5681 4.93328 39.8514 5.03221 39.2849H5.03026C5.33078 37.5032 5.54532 35.5883 5.57909 34.0573L5.58202 33.4265C5.58187 33.4162 5.58202 33.4055 5.58202 33.3952C5.58202 33.3479 5.58491 33.2966 5.58788 33.2419C5.41956 32.9188 5.34173 32.6056 5.30663 32.363L5.28709 32.2009C5.28548 32.1831 5.28437 32.165 5.28319 32.1472L5.08006 29.0827C5.07689 29.0346 5.07518 28.9864 5.07518 28.9382C5.07518 28.6645 5.09337 27.7823 5.80858 27.0671C5.96278 26.9129 6.12517 26.7921 6.28709 26.696C6.13931 26.5207 5.99066 26.3489 5.84178 26.1833L5.52733 25.8425C5.50188 25.8157 5.47717 25.7876 5.45311 25.7595C5.18146 25.4426 4.89635 24.9752 4.81151 24.3601C4.73153 23.7798 4.85878 23.271 5.03905 22.8776H5.03807L6.37987 19.864C6.39318 19.8341 6.40723 19.8044 6.42186 19.7751C6.58859 19.4417 6.96477 18.8898 7.60448 18.5739C7.79042 18.0918 7.95245 17.6214 8.06053 17.2107L8.08104 17.1384C8.22167 16.6697 8.5686 15.9703 9.36131 15.5593C10.1452 15.1529 10.916 15.2604 11.4336 15.4499L11.4346 15.448L14.1191 16.4099C14.1441 16.4188 14.1688 16.4284 14.1933 16.4382C14.4959 16.5592 14.9179 16.7873 15.2685 17.1989C15.3377 17.1073 15.4147 17.0176 15.501 16.9314C16.0734 16.3589 16.7852 16.1795 17.3525 16.1794V18.3776C17.0996 18.3778 16.9473 18.5299 16.9473 18.7829V21.8982L14.4404 20.4802C14.3392 20.4296 14.2634 20.404 14.1875 20.404C14.0609 20.404 13.9597 20.4798 13.8838 20.6569C13.352 21.7964 12.6932 23.0119 11.9336 24.2526L11.4267 23.5691C12.2877 22.0751 13.0728 20.4294 13.6299 18.986C13.7312 18.7581 13.6302 18.5805 13.3769 18.4792L10.6924 17.5173C10.4392 17.416 10.2625 17.517 10.1865 17.7702C9.93326 18.7325 9.47737 19.8723 9.04686 20.8093C8.99625 20.6828 8.79362 20.5302 8.66698 20.53C8.56568 20.53 8.46365 20.6066 8.38768 20.7585L7.04588 23.7722C6.94471 23.9747 6.97022 24.1516 7.12206 24.3288C8.05905 25.3165 8.99598 26.5326 9.70506 27.5456C9.45186 27.9001 9.19843 28.2545 8.91991 28.5837L7.6787 28.5329C7.37506 28.533 7.27342 28.6344 7.27342 28.9382L7.47655 32.0026C7.50194 32.281 7.62875 32.4079 7.90721 32.4079L10.6416 32.281V41.2204C10.6416 41.4736 10.7685 41.6256 11.0469 41.6257H13.9844L14.0752 41.6189C14.2738 41.5862 14.3896 41.4419 14.3896 41.2204V31.9011L15.3271 31.7487L15.4033 32.4577C15.4286 32.7362 15.6054 32.8382 15.8838 32.7624L17.2265 32.3825C17.4797 32.3065 17.581 32.1542 17.5556 31.9011C17.3277 30.4576 16.7957 28.2288 16.3652 26.9372C16.2892 26.6842 16.0862 26.6083 15.8584 26.6843L14.6435 27.1149C14.3905 27.1909 14.314 27.3678 14.415 27.6208C14.491 27.874 14.593 28.1529 14.6689 28.4567L13.0986 28.5329C14.4408 26.8362 16.1122 24.4806 17.1758 22.4294C17.2263 22.4547 17.2768 22.4548 17.3525 22.4548H20.5185L18.1885 23.1384C17.9859 23.189 17.9101 23.3165 17.9101 23.4431C17.9111 23.8994 19.7585 25.7718 20.1387 26.1267C19.1258 26.4812 18.1129 26.6846 17.2265 26.8112C16.9481 26.8365 16.821 27.0387 16.9473 27.2917L18.2646 30.6853C18.3659 30.9132 18.5436 31.0142 18.7715 30.9636C20.5186 30.5584 22.367 29.8495 24.0635 28.862C25.7602 29.7737 27.5839 30.458 29.4326 30.9392C29.6605 30.9898 29.8382 30.9131 29.9394 30.6853L31.2812 27.2663C31.3823 26.988 31.2812 26.8112 30.9775 26.7858C29.8379 26.7099 28.6474 26.5321 27.5078 26.2282C28.5967 25.0887 29.4829 23.772 30.04 22.2526C30.116 22.0754 30.1162 21.9231 30.1162 21.7458V18.7829C30.1161 18.5298 29.9894 18.3776 29.7109 18.3776V16.1794C30.2398 16.1794 31.001 16.3312 31.6084 16.9675C32.1979 17.5851 32.3144 18.3182 32.3144 18.7829V21.7458C32.3144 21.8943 32.3295 22.4129 32.1015 23.0085L32.1045 23.0095C31.8978 23.5731 31.6535 24.1101 31.3799 24.6228C31.8937 24.707 32.6587 24.9753 33.1533 25.779C33.4593 26.2762 33.5338 26.7738 33.5137 27.1921L33.3574 27.4187C33.2817 27.5197 33.2569 27.5958 33.2568 27.6716C33.2568 27.7587 33.3063 27.8321 33.3857 27.8952C33.372 27.9393 33.3602 27.9811 33.3467 28.0183C33.3404 28.0356 33.3339 28.0529 33.3271 28.07L32.1308 31.1169C32.2734 31.4859 32.3144 31.8377 32.3144 32.1032V35.1423C32.3144 35.2491 32.3067 35.3702 32.29 35.5007C32.3439 35.5462 32.3974 35.5944 32.4492 35.6462C33.0218 36.2188 33.2012 36.9304 33.2012 37.4978V40.6628Z" fill="#262626"/>
<path d="M70.3259 28.0455C70.1629 28.0455 70 27.9176 70 27.7642V26.2557C70 26.1278 70.1629 26 70.3259 26H85.6415C85.8371 26 86 26.1278 86 26.2557V27.7642C86 27.9176 85.8371 28.0455 85.6415 28.0455H70.3259ZM70.3259 35C70.1629 35 70 34.8466 70 34.7187V33.2102C70 33.0824 70.1629 32.929 70.3259 32.929H85.6415C85.8371 32.929 86 33.0824 86 33.2102V34.7187C86 34.8466 85.8371 35 85.6415 35H70.3259Z" fill="white"/>
<path d="M71.0959 35.624C71.117 35.7195 71.1973 35.8169 71.2862 35.8428L71.3307 35.8495H82.6458L82.6978 35.8428C82.8007 35.8171 82.8834 35.7197 82.9048 35.624L82.9104 35.5772V34.1155C82.9104 34.0069 82.8178 33.8788 82.6978 33.8489L82.6458 33.8422V31.6926C83.4267 31.6928 84.0122 32.0852 84.3539 32.4589C84.6587 32.7922 84.9599 33.3162 84.9963 33.9808L85 34.1155V35.5772L84.9963 35.7119C84.9598 36.3764 84.6587 36.9005 84.3539 37.2338C84.0122 37.6074 83.4267 37.9999 82.6458 38H71.3307C70.4578 37.9998 69.8729 37.5022 69.5985 37.1822C69.3136 36.8498 69.0008 36.2962 69.0007 35.5772V34.1155C69.0007 33.3962 69.3135 32.8419 69.5985 32.5095C69.8729 32.1894 70.4578 31.6928 71.3307 31.6926H82.6458V33.8422H71.3307C71.2105 33.8426 71.0903 33.9917 71.0903 34.1155V35.5772L71.0959 35.624ZM71.0896 27.8597C71.0896 28.0082 71.2098 28.1317 71.33 28.132H82.6451L82.6971 28.1272C82.8001 28.1053 82.8827 28.0201 82.9041 27.9142L82.9097 27.8597V26.398C82.9096 26.2896 82.817 26.1815 82.6971 26.1563L82.6451 26.1505V24C83.7414 24.0002 84.8511 24.8423 84.9854 26.1343L84.9993 26.398V27.8597L84.9872 28.1071C84.8666 29.3276 83.8623 30.2823 82.6451 30.2825H71.33C69.9309 30.2823 69 29.0631 69 27.8597V26.398C69.0001 25.6368 69.3486 25.0552 69.6869 24.707C70.0253 24.3588 70.5905 24.0001 71.33 24H82.6451V26.1505H71.33L71.2855 26.1563C71.1819 26.1817 71.0897 26.2897 71.0896 26.398V27.8597Z" fill="#262626"/>
<mask id="path-9-inside-2_395_11443" fill="white">
<path d="M90 0H306V61H90V0Z"/>
</mask>
<path d="M90 0H306V61H90V0Z" fill="white"/>
<path d="M90 0V-2.5H87.5V0H90ZM306 0H308.5V-2.5H306V0ZM306 61V65.5H308.5V61H306ZM90 61H87.5V65.5H90V61ZM90 0V2.5H306V0V-2.5H90V0ZM306 0H303.5V61H306H308.5V0H306ZM306 61V56.5H90V61V65.5H306V61ZM90 61H92.5V0H90H87.5V61H90Z" fill="#262626" mask="url(#path-9-inside-2_395_11443)"/>
<rect x="98" y="22" width="136" height="14" rx="7" fill="#FFE733"/>
<path d="M214.028 27.819C213.003 28.6169 211.905 28.9694 210.925 28.9694C208.758 28.9694 207.535 27.3551 207.897 25.2954C208.158 23.811 209.198 22.1781 210.819 21.2132C211.931 20.5638 213.323 20.0442 214.978 19.9514C215.33 18.9123 215.597 17.9289 215.79 17.2609L211.639 17.298C211.394 17.298 211.285 17.1681 211.324 16.9454L211.754 14.4961C211.793 14.2734 211.929 14.1436 212.174 14.1436L219.673 14.1436C219.899 14.1436 220.011 14.2549 219.972 14.4776L219.706 16.2032C219.68 16.3517 219.661 16.463 219.594 16.63C219.098 17.9474 218.682 19.135 218.308 20.1927C219.208 20.3226 220.121 20.4896 221.02 20.7308C221.278 19.803 221.469 18.8196 221.643 17.7248C221.685 17.4836 221.84 17.3537 222.082 17.3722L224.761 17.6691C224.984 17.6877 225.071 17.8361 225.032 18.0588C224.776 19.302 224.463 20.5452 224.082 21.7513C224.608 21.974 225.112 22.2152 225.59 22.4936C225.762 22.5863 225.808 22.7533 225.716 22.9574L224.477 25.6109C224.413 25.7593 224.303 25.8521 224.171 25.8521C224.114 25.8521 224.046 25.815 223.977 25.7779C223.589 25.5181 223.164 25.2583 222.735 25.0171C221.536 27.3366 219.941 29.2292 217.797 30.1756C217.592 30.2683 217.448 30.2312 217.323 30.0828L215.578 28.1159C215.515 28.0417 215.491 27.9674 215.504 27.8932C215.523 27.7819 215.615 27.6891 215.757 27.6334C217.586 26.8727 218.926 25.5738 219.896 23.6997C219.028 23.3842 218.154 23.1059 217.301 22.9203C216.433 25.0728 215.553 26.65 214.028 27.819ZM213.993 22.6606C212.808 22.8647 211.12 23.5698 210.882 24.9243C210.859 25.0542 210.855 25.1841 210.87 25.314C210.931 25.6109 211.121 25.815 211.423 25.815C212.572 25.815 213.646 23.4584 213.993 22.6606Z" fill="white"/>
<path d="M187.622 24.3492C187.661 24.1265 187.799 24.0894 187.988 24.0894L189.193 24.2007C189.378 24.2193 189.456 24.3121 189.423 24.4976C189.185 25.8522 188.745 27.8191 188.192 29.3592C188.122 29.5447 187.977 29.6189 187.795 29.5818L186.544 29.3035C186.362 29.2664 186.332 29.1179 186.408 28.8953C186.996 27.3737 187.428 25.6666 187.619 24.3677L187.622 24.3492ZM191.515 12.9189C191.604 12.7334 191.752 12.6406 191.928 12.7148L193.888 13.4571C194.064 13.5313 194.12 13.6426 194.012 13.8282C193.377 14.8673 192.559 16.0919 191.729 17.1682C191.831 17.3352 191.953 17.5022 192.036 17.6692C192.831 16.6857 193.547 15.7208 194.058 14.9601C194.162 14.7931 194.323 14.7374 194.476 14.8302L196.378 15.9064C196.531 15.9992 196.546 16.1291 196.423 16.2961C195.219 17.8918 193.818 19.4319 192.443 20.8236L193.662 20.7494C193.648 20.5082 193.615 20.2669 193.578 20.0443C193.554 19.8587 193.634 19.7288 193.832 19.6732L195.028 19.3021C195.226 19.2464 195.345 19.3206 195.381 19.5433C195.544 20.5453 195.636 21.8442 195.661 22.7719L197.233 13.8282C197.266 13.6426 197.398 13.5313 197.587 13.5313L205.745 13.5313C205.933 13.5313 206.026 13.6426 205.994 13.8282L203.701 26.8727L204.247 26.8727C204.436 26.8727 204.529 26.9841 204.497 27.1696L204.053 29.6932C204.02 29.8787 203.888 29.9901 203.699 29.9901L193.545 29.9901C193.356 29.9901 193.263 29.8787 193.295 29.6932L193.452 28.8025L192.987 28.8767C192.773 28.9138 192.661 28.8025 192.697 28.5984C192.918 27.4479 193.108 25.7223 193.143 24.6646C193.157 24.4791 193.252 24.3677 193.447 24.3306L194.339 24.1822C194.534 24.1451 194.631 24.2378 194.648 24.4605C194.678 25.2584 194.663 26.0934 194.601 26.8727L194.94 26.8727L195.547 23.4214C195.503 23.4585 195.44 23.4956 195.38 23.5142L193.986 23.9409C193.766 24.0152 193.654 23.9038 193.671 23.6997L193.692 23.2544L193.039 23.3286L191.855 30.0643C191.822 30.2498 191.69 30.3612 191.501 30.3612L189.09 30.3612C188.901 30.3612 188.808 30.2498 188.84 30.0643L189.982 23.5698C189.2 23.6255 188.44 23.6626 187.815 23.6812C187.626 23.6812 187.548 23.5884 187.562 23.4028L187.79 21.1391C187.826 20.9349 187.918 20.8422 188.125 20.8422L188.144 20.8422L189.193 20.8793L189.907 20.1371C189.494 19.3763 188.901 18.4671 188.296 17.7248C188.187 17.5949 188.191 17.4651 188.293 17.3166L189.736 15.1085C189.812 14.9972 189.897 14.9415 189.972 14.9415C190.029 14.9415 190.098 14.9786 190.16 15.0528L190.238 15.1456C190.698 14.4591 191.165 13.6241 191.515 12.9189ZM200.978 25.1099L198.302 25.1099L197.992 26.8727L200.668 26.8727L200.978 25.1099ZM201.744 20.7494L199.069 20.7494L198.782 22.3823L201.457 22.3823L201.744 20.7494ZM202.478 16.5744L199.803 16.5744L199.545 18.0403L202.22 18.0403L202.478 16.5744Z" fill="white"/>
<path d="M182.748 29.6746C182.716 29.8602 182.583 29.9715 182.395 29.9715L172.014 29.9715C171.825 29.9715 171.732 29.8602 171.764 29.6746L172.224 27.0583C172.257 26.8727 172.39 26.7614 172.578 26.7614L175.969 26.7614L176.912 21.3988L173.068 21.3988C172.88 21.3988 172.787 21.2875 172.819 21.1019L173.299 18.3743C173.331 18.1887 173.464 18.0774 173.652 18.0774L177.496 18.0774L178.347 13.2344C178.379 13.0488 178.512 12.9375 178.7 12.9375L181.583 12.9375C181.771 12.9375 181.865 13.0488 181.832 13.2344L180.981 18.0774L184.956 18.0774C185.145 18.0774 185.238 18.1887 185.205 18.3743L184.726 21.1019C184.693 21.2875 184.561 21.3988 184.372 21.3988L180.397 21.3988L179.455 26.7614L182.959 26.7614C183.147 26.7614 183.241 26.8727 183.208 27.0583L182.748 29.6746ZM174.878 13.5684C175.079 13.6055 175.131 13.7354 175.042 13.9209C174.542 14.9415 173.825 16.1291 172.935 17.3352L170.694 30.0828C170.662 30.2684 170.529 30.3797 170.341 30.3797L167.628 30.3797C167.439 30.3797 167.346 30.2684 167.378 30.0828L168.81 21.9369C168.481 22.3081 168.137 22.6606 167.799 22.9761C167.71 23.0503 167.647 23.0874 167.572 23.0874C167.496 23.0874 167.415 23.0132 167.4 22.8833L166.824 19.7288C166.797 19.5618 166.858 19.4319 167.009 19.3206C169.007 17.7063 170.595 15.4239 171.696 13.2344C171.801 13.0674 171.927 12.9932 172.109 13.0303L174.878 13.5684Z" fill="white"/>
<path d="M154.745 29.2849C154.535 29.3034 154.419 29.2107 154.38 29.0065L153.822 26.3902C153.77 26.149 153.91 26.0005 154.195 25.982C158.034 25.7964 159.683 23.6997 160.029 21.7328C160.362 19.8401 159.565 18.2629 157.83 17.632C157.187 20.3225 155.148 24.312 152.978 26.7984C152.196 27.7077 151.041 28.1715 149.948 28.1715C146.99 28.1715 145.977 25.147 146.431 22.5678C146.815 20.3782 148.238 17.966 150.972 16.129C152.641 14.9971 154.682 14.4219 156.604 14.4219C161.163 14.4219 164.258 17.5021 163.462 22.0297C162.784 25.8892 159.162 29.0251 154.745 29.2849ZM154.411 17.5763C152.193 18.1887 150.098 20.2483 149.709 22.4564C149.579 23.1987 149.662 23.9038 150.035 24.4604C150.126 24.5903 150.263 24.6645 150.414 24.6645C150.584 24.6645 150.788 24.5718 150.956 24.3677C152.402 22.6791 153.987 19.4504 154.411 17.5763Z" fill="white"/>
<path d="M141.612 29.0808C141.658 29.2478 141.556 29.3963 141.358 29.4519L138.228 30.3241C138.03 30.3797 137.927 30.3241 137.903 30.1385C137.852 29.7859 137.785 29.4148 137.7 29.0437C134.419 29.4891 129.349 29.8231 125.369 29.9529C125.181 29.9529 125.084 29.8602 125.098 29.6746L125.169 27.0212C125.167 26.8171 125.281 26.7057 125.45 26.7057L127.466 26.7057C128.064 26.0934 128.595 25.4254 129.115 24.7203L125.554 24.7203C125.366 24.7203 125.272 24.6089 125.305 24.4234L125.729 22.0112C125.762 21.8256 125.894 21.7143 126.083 21.7143L142.568 21.7143C142.756 21.7143 142.849 21.8256 142.817 22.0112L142.393 24.4234C142.36 24.6089 142.228 24.7203 142.039 24.7203L139.402 24.7203C140.433 25.9264 141.254 27.5778 141.612 29.0808ZM144.063 16.7414C144.261 16.7971 144.291 16.9455 144.164 17.1311L142.297 19.9329C142.192 20.0999 142.031 20.1556 141.872 20.0999C141.274 19.8587 140.666 19.5618 140.062 19.2464L139.837 20.5267C139.805 20.7123 139.672 20.8236 139.484 20.8236L129.48 20.8236C129.291 20.8236 129.198 20.7123 129.23 20.5267L129.433 19.3763C128.699 19.6917 127.968 19.9886 127.248 20.2298C127.068 20.2855 126.928 20.2298 126.882 20.0628L126.033 17.2795C125.972 17.0939 126.073 16.9455 126.29 16.8898C129.109 16.0734 131.96 14.6446 134.033 13.1416C134.184 13.0303 134.282 13.0117 134.432 13.0117L137.239 13.0117C137.39 13.0117 137.478 13.0488 137.578 13.1231C139.257 14.6075 141.491 15.9435 144.063 16.7414ZM133.071 24.7203C132.653 25.3883 132.187 26.0006 131.646 26.6129C133.408 26.5573 135.176 26.4645 136.578 26.3161L136.173 25.7223C136.13 25.6481 136.102 25.5924 136.115 25.5182C136.128 25.4439 136.201 25.3512 136.339 25.3141L138.083 24.7203L133.071 24.7203ZM137.898 17.9475C137.023 17.3537 136.182 16.6672 135.39 15.9249C134.43 16.6672 133.371 17.3352 132.302 17.9475L137.898 17.9475Z" fill="white"/>
<path d="M121.377 26.7243C121.566 26.7243 121.659 26.8356 121.626 27.0212L121.157 29.6932C121.124 29.8787 120.992 29.9901 120.803 29.9901L110.46 29.9901C110.272 29.9901 110.178 29.8787 110.211 29.6932L110.68 27.0212C110.713 26.8356 110.846 26.7243 111.034 26.7243L114.557 26.7243L115.529 21.1947L112.967 21.1947C112.778 21.1947 112.685 21.0834 112.718 20.8978L113.102 18.7083C112.63 19.3577 112.114 20.0443 111.51 20.6937C112.144 21.2689 112.979 21.7699 113.746 22.1225C113.918 22.2153 113.933 22.3452 113.806 22.5307L112.12 24.9429C111.993 25.1285 111.836 25.1656 111.682 25.0728C111.095 24.6646 110.602 24.1451 110.182 23.5327L109.147 30.0643C109.114 30.2498 108.982 30.3612 108.793 30.3612L106.08 30.3612C105.892 30.3612 105.799 30.2498 105.831 30.0643L106.93 24.3492C106.349 24.7574 105.779 25.1099 105.278 25.3883C105.089 25.4996 104.948 25.4439 104.908 25.2398L104.411 22.4936C104.384 22.3266 104.467 22.1782 104.63 22.1039C106.568 21.1576 108.376 19.7659 109.626 18.3372L106.159 18.3372C105.971 18.3372 105.877 18.2258 105.91 18.0403L106.357 15.4982C106.389 15.3126 106.522 15.2013 106.71 15.2013L108.462 15.2013L108.808 13.2344C108.841 13.0488 108.973 12.9375 109.162 12.9375L111.875 12.9375C112.063 12.9375 112.157 13.0488 112.124 13.2344L111.778 15.2013L113.719 15.2013C113.907 15.2013 114.001 15.3126 113.968 15.4982L113.541 17.9289L116.103 17.9289L116.928 13.2344C116.961 13.0488 117.093 12.9375 117.282 12.9375L120.315 12.9375C120.503 12.9375 120.597 13.0488 120.564 13.2344L119.739 17.9289L122.396 17.9289C122.584 17.9289 122.677 18.0403 122.645 18.2258L122.175 20.8978C122.143 21.0834 122.01 21.1947 121.822 21.1947L119.165 21.1947L118.193 26.7243L121.377 26.7243Z" fill="white"/>
<path d="M220.075 11.8512C220.547 11.8512 221.265 11.9674 221.796 12.5427C222.338 13.1291 222.392 13.8724 222.305 14.4279L222.308 14.4279L222.206 15.0877C222.288 15.081 222.368 15.0792 222.443 15.0791L222.662 15.0868C222.687 15.0887 222.713 15.0907 222.738 15.0935L225.417 15.3907L225.416 15.3916C226.007 15.4542 226.642 15.7197 227.045 16.3256C227.438 16.918 227.444 17.5837 227.36 18.0588C227.356 18.0815 227.351 18.1043 227.346 18.1271C227.194 18.8654 227.019 19.6091 226.823 20.3508C226.879 20.3816 226.936 20.4113 226.991 20.4431C226.997 20.4467 227.005 20.451 227.011 20.4547C227.022 20.4609 227.033 20.4666 227.044 20.4729L227.043 20.4729C227.473 20.7191 227.875 21.1352 228.045 21.7589C228.22 22.4049 228.087 23.05 227.856 23.5604C227.852 23.5699 227.847 23.5797 227.842 23.5892L226.603 26.2429L226.601 26.2419C226.234 27.0284 225.271 28.1444 223.768 28.1444C223.62 28.1444 223.486 28.1288 223.367 28.1088C222.13 29.8141 220.529 31.321 218.451 32.2379L218.45 32.236C217.976 32.4464 217.338 32.6063 216.666 32.4649C216.014 32.3278 215.614 31.9682 215.392 31.7041L215.393 31.7031L214.131 30.2835C212.938 30.943 211.691 31.2617 210.522 31.2617C206.992 31.2615 204.999 28.5432 205.57 25.2955C205.954 23.1093 207.46 20.7375 209.85 19.3139L209.872 19.3005C209.898 19.2854 209.924 19.2703 209.951 19.2553C209.781 19.153 209.616 19.0229 209.47 18.8561C208.941 18.254 208.899 17.5009 208.996 16.945L209.427 14.4962C209.508 14.032 209.759 13.281 210.489 12.6476C211.237 11.9979 212.05 11.8512 212.577 11.8512L212.174 14.1432C211.929 14.1433 211.794 14.2736 211.755 14.4962L211.324 16.945C211.29 17.1399 211.369 17.2643 211.553 17.2922L211.639 17.298L215.79 17.2605C215.598 17.9285 215.331 18.9125 214.979 19.9516C213.323 20.0444 211.931 20.5641 210.818 21.2135C209.198 22.1785 208.158 23.8112 207.897 25.2955L207.868 25.4869C207.621 27.3907 208.749 28.8712 210.724 28.9648L210.925 28.9696C211.904 28.9696 213.003 28.617 214.028 27.8193C215.552 26.6504 216.433 25.073 217.301 22.9208C218.154 23.1063 219.028 23.3844 219.896 23.6998C218.926 25.5738 217.586 26.8729 215.757 27.6337C215.616 27.6893 215.523 27.782 215.504 27.8934C215.491 27.9675 215.516 28.0414 215.578 28.1155L217.324 30.0825C217.433 30.2121 217.556 30.2573 217.722 30.2046L217.797 30.1758C219.941 29.2295 221.537 27.3369 222.736 25.0175C223.164 25.2587 223.589 25.5186 223.977 25.7783C224.046 25.8154 224.114 25.8523 224.171 25.8524C224.27 25.8524 224.357 25.7999 224.421 25.711L224.477 25.611L225.716 22.9573C225.808 22.7532 225.762 22.5865 225.59 22.4937C225.112 22.2154 224.608 21.9738 224.082 21.7512C224.464 20.5451 224.776 19.3019 225.032 18.0588C225.066 17.8638 225.004 17.7255 224.838 17.6817L224.762 17.6692L222.082 17.372C221.841 17.3535 221.686 17.4838 221.643 17.725C221.47 18.8197 221.278 19.803 221.02 20.7307C220.121 20.4895 219.208 20.3229 218.308 20.193C218.682 19.1355 219.098 17.9477 219.594 16.6305C219.627 16.5468 219.649 16.4766 219.666 16.4093L219.707 16.2034L219.972 14.4779C220.011 14.2553 219.898 14.1432 219.672 14.1432L220.075 11.8512ZM213.994 22.6601C213.646 23.458 212.572 25.8149 211.423 25.8149C211.121 25.8147 210.931 25.6105 210.87 25.3138C210.855 25.184 210.86 25.054 210.883 24.9242C211.121 23.5697 212.809 22.8642 213.994 22.6601ZM220.075 11.8512L219.672 14.1432L212.174 14.1432L212.577 11.8512L220.075 11.8512Z" fill="#262626"/>
<path d="M190.85 10.747C191.717 10.288 192.532 10.3458 193.094 10.5614L193.096 10.5585L195.057 11.3C195.081 11.309 195.104 11.3191 195.127 11.3289C195.328 11.4138 195.699 11.6021 195.998 11.9829C196.681 11.4121 197.431 11.2386 197.99 11.2385L197.587 13.5315L197.519 13.5363C197.367 13.56 197.262 13.6654 197.234 13.8277L195.662 22.7717C195.636 21.8439 195.545 20.5448 195.382 19.5428C195.345 19.3203 195.226 19.2467 195.027 19.3024L193.832 19.6727C193.634 19.7283 193.555 19.8585 193.579 20.0439C193.615 20.2665 193.648 20.5079 193.662 20.749L192.443 20.824C193.818 19.4323 195.219 17.8915 196.423 16.2957C196.546 16.1289 196.531 15.9989 196.378 15.9062L194.477 14.8299C194.323 14.7371 194.162 14.7928 194.057 14.9598C193.547 15.7205 192.832 16.6858 192.037 17.6692C191.953 17.5022 191.831 17.3351 191.729 17.1681C192.558 16.0919 193.377 14.8668 194.012 13.8277C194.12 13.6425 194.064 13.5316 193.889 13.4574L191.927 12.7149C191.752 12.6409 191.605 12.7334 191.516 12.9188C191.166 13.6238 190.698 14.4589 190.239 15.1454L190.16 15.0531C190.098 14.9788 190.029 14.9415 189.973 14.9415C189.897 14.9415 189.812 14.9976 189.736 15.1088L188.294 17.3162C188.192 17.4647 188.188 17.5951 188.297 17.725C188.901 18.4672 189.494 19.3765 189.907 20.1372L189.193 20.8788L188.144 20.8422L188.126 20.8422C187.919 20.8422 187.826 20.9353 187.79 21.1394L187.563 23.4026C187.549 23.588 187.626 23.6814 187.814 23.6815C188.439 23.663 189.2 23.6256 189.982 23.57L188.841 30.0642C188.808 30.2496 188.901 30.3612 189.089 30.3614L191.502 30.3614C191.69 30.3613 191.823 30.2497 191.856 30.0642L193.039 23.3285L193.692 23.2545L193.671 23.6998C193.654 23.9038 193.766 24.0154 193.986 23.9412L195.38 23.5142C195.44 23.4956 195.503 23.458 195.548 23.4209L194.941 26.8728L194.601 26.8728C194.663 26.0936 194.678 25.2584 194.649 24.4606C194.632 24.238 194.535 24.1446 194.34 24.1817L193.447 24.3308C193.252 24.3679 193.157 24.479 193.144 24.6645C193.108 25.7222 192.918 27.4479 192.697 28.5983C192.661 28.8024 192.773 28.9134 192.987 28.8763L193.452 28.8023L193.296 29.6929C193.263 29.8785 193.357 29.9901 193.545 29.9901L203.7 29.9901L203.768 29.9853C203.898 29.9648 203.993 29.8839 204.036 29.7593L204.054 29.6929L204.497 27.1691C204.526 27.0071 204.457 26.9016 204.314 26.8777L204.248 26.8728L203.702 26.8728L205.995 13.8277C206.023 13.6654 205.954 13.56 205.81 13.5363L205.745 13.5315L206.148 11.2385C206.709 11.2385 207.4 11.4142 207.883 11.9897C208.306 12.4932 208.399 13.1003 208.35 13.6142L208.322 13.8277L206.314 25.2503C206.338 25.2762 206.362 25.3033 206.386 25.3311C206.808 25.8346 206.902 26.4416 206.853 26.9556L206.824 27.1691L206.381 29.6929L206.334 29.9074C206.202 30.4213 205.895 31.0284 205.296 31.5319C204.61 32.1074 203.858 32.2821 203.297 32.2821L193.142 32.2821C192.98 32.2821 192.807 32.2642 192.63 32.2292C192.085 32.546 191.534 32.6533 191.099 32.6534L188.687 32.6534C188.126 32.6533 187.435 32.4783 186.952 31.9032C186.928 31.8745 186.906 31.8449 186.884 31.8156L185.656 31.5434L185.656 31.5415C184.984 31.3933 184.341 30.9482 184.099 30.1382C183.898 29.4634 184.071 28.8314 184.179 28.5185L184.211 28.43C184.727 27.0936 185.112 25.5713 185.279 24.4462C185.196 24.1353 185.19 23.8441 185.206 23.6306L185.212 23.5709L185.44 21.3078C185.445 21.2518 185.453 21.1956 185.463 21.1394C185.514 20.8536 185.683 20.0822 186.41 19.4024C186.39 19.3765 186.369 19.3499 186.349 19.3245L186.349 19.3235C186.108 19.029 185.853 18.5642 185.854 17.9174C185.854 17.2737 186.106 16.7243 186.358 16.3409L187.801 14.1326L187.834 14.0835C188.025 13.8044 188.42 13.3388 189.002 13.014C189.15 12.7474 189.292 12.48 189.417 12.2282C189.625 11.8072 190.055 11.1673 190.85 10.747ZM187.988 24.0893C187.8 24.0894 187.661 24.1265 187.622 24.349L187.619 24.3673C187.428 25.6662 186.996 27.374 186.409 28.8956C186.332 29.118 186.362 29.2662 186.544 29.3034L187.795 29.5813C187.977 29.6184 188.122 29.5447 188.192 29.3591C188.746 27.819 189.186 25.8517 189.424 24.4972C189.456 24.3118 189.378 24.2195 189.193 24.2009L187.988 24.0893ZM200.977 25.1098L200.667 26.8728L197.993 26.8728L198.303 25.1098L200.977 25.1098ZM201.744 20.749L201.457 22.3821L198.782 22.3821L199.069 20.749L201.744 20.749ZM202.478 16.5747L202.22 18.0405L199.545 18.0405L199.803 16.5747L202.478 16.5747ZM206.148 11.2385L205.745 13.5315L197.587 13.5315L197.99 11.2385L206.148 11.2385Z" fill="#262626"/>
<path d="M178.701 12.9372L178.632 12.9429C178.48 12.9668 178.375 13.0721 178.347 13.2344L177.495 18.0771L173.653 18.0771C173.464 18.0771 173.331 18.1888 173.299 18.3743L172.819 21.102C172.787 21.2875 172.88 21.3992 173.069 21.3992L176.911 21.3992L175.969 26.7614L172.578 26.7614C172.39 26.7614 172.257 26.873 172.224 27.0586L171.765 29.6747C171.732 29.8602 171.826 29.9719 172.014 29.9719L182.395 29.9719L182.462 29.9661C182.593 29.9458 182.689 29.8657 182.731 29.7411L182.748 29.6747L183.208 27.0586C183.236 26.8961 183.169 26.7899 183.025 26.7662L182.959 26.7614L183.362 24.4694C183.923 24.4694 184.613 24.6443 185.096 25.2196C185.519 25.7231 185.612 26.3301 185.564 26.8441L185.535 27.0586L185.075 29.6747L185.029 29.8882C184.897 30.4023 184.59 31.01 183.99 31.5137C183.305 32.0888 182.553 32.2638 181.992 32.2639L171.611 32.2639C171.56 32.2639 171.508 32.2603 171.455 32.2572C170.914 32.5673 170.37 32.6717 169.938 32.6717L167.225 32.6717C166.664 32.6717 165.973 32.497 165.49 31.9215C165.007 31.346 164.954 30.6349 165.051 30.0825L165.94 25.0253C165.409 24.6615 165.153 24.0886 165.071 23.646L164.496 20.4913L164.489 20.4538C164.424 20.0532 164.436 19.5035 164.713 18.8947C164.965 18.3429 165.345 17.939 165.692 17.6635C167.253 16.4022 168.612 14.5062 169.605 12.5322L169.733 12.3033C169.941 11.9709 170.353 11.4354 171.06 11.0703C171.797 10.6895 172.475 10.6888 172.94 10.7798L172.941 10.7788L175.71 11.3165L175.709 11.3175C176.003 11.3742 176.386 11.5028 176.72 11.7762C176.832 11.6453 176.96 11.517 177.104 11.3954C177.79 10.8199 178.543 10.6451 179.103 10.6451L178.701 12.9372ZM184.726 21.102L185.206 18.3743C185.234 18.2121 185.166 18.1069 185.023 18.0829L184.956 18.0771L185.359 15.7851C185.92 15.7851 186.611 15.9598 187.095 16.5353C187.517 17.0387 187.61 17.6459 187.562 18.1598L187.533 18.3743L187.054 21.102L187.007 21.3156C186.875 21.8296 186.569 22.4373 185.969 22.941C185.283 23.5165 184.53 23.6912 183.97 23.6912L182.321 23.6912L182.184 24.4694L183.362 24.4694L182.959 26.7614L179.454 26.7614L180.397 21.3992L184.372 21.3992L184.441 21.3935C184.571 21.3729 184.666 21.2928 184.709 21.1684L184.726 21.102ZM174.009 24.4694L174.045 24.4694L174.181 23.6912L174.145 23.6912L174.009 24.4694ZM181.832 13.2344C181.86 13.072 181.793 12.9667 181.649 12.9429L181.583 12.9372L181.986 10.6451C182.547 10.6452 183.238 10.8202 183.721 11.3954C184.204 11.9709 184.256 12.682 184.159 13.2344L183.711 15.7851L185.359 15.7851L184.956 18.0771L180.981 18.0771L181.832 13.2344ZM181.986 10.6451L181.583 12.9372L178.701 12.9372L179.103 10.6451L181.986 10.6451ZM167.372 30.1489C167.37 30.2737 167.438 30.3545 167.561 30.3749L167.628 30.3797L170.341 30.3797C170.529 30.3796 170.661 30.268 170.694 30.0825L172.934 17.3356C173.713 16.2803 174.361 15.239 174.845 14.3116L175.042 13.9211C175.131 13.7355 175.078 13.6052 174.878 13.5681L172.109 13.0305C171.927 12.9933 171.801 13.0674 171.696 13.2344C170.595 15.4239 169.007 17.7064 167.009 19.3207L166.957 19.3631C166.844 19.4648 166.801 19.5825 166.824 19.7286L167.401 22.8833C167.415 23.0131 167.496 23.0872 167.572 23.0872C167.647 23.0872 167.71 23.0498 167.798 22.9757C168.136 22.6603 168.481 22.3079 168.81 21.9369L167.378 30.0825L167.372 30.1489Z" fill="#262626"/>
<path d="M157.83 17.6317C159.565 18.2626 160.362 19.8403 160.029 21.7329L159.993 21.9176C159.578 23.8289 157.913 25.8025 154.195 25.9822C153.91 26.0009 153.771 26.149 153.823 26.39L154.379 29.0062C154.419 29.2103 154.535 29.3037 154.745 29.2851C159.024 29.0334 162.557 26.0822 163.39 22.3889L163.462 22.0301C164.233 17.644 161.353 14.6157 157.027 14.4308L156.604 14.4221C154.682 14.4222 152.641 14.9976 150.973 16.1294L150.72 16.3025C148.15 18.1162 146.804 20.4466 146.431 22.5678L146.392 22.8111C146.042 25.3332 147.083 28.171 149.948 28.1713C151.041 28.1713 152.197 27.708 152.978 26.7988C155.149 24.3124 157.187 20.3223 157.83 17.6317ZM154.411 17.5759C153.987 19.4499 152.402 22.6787 150.957 24.3673C150.789 24.5715 150.584 24.6645 150.414 24.6645C150.301 24.6645 150.195 24.6229 150.111 24.5472L150.036 24.4606C149.663 23.904 149.579 23.1984 149.709 22.4562C150.098 20.2482 152.193 18.1883 154.411 17.5759ZM165.693 22.513C164.573 27.4671 159.844 31.2579 154.483 31.5733L154.482 31.5714C153.978 31.6035 153.364 31.5162 152.845 31.1164C152.392 30.7669 152.185 30.3123 152.09 29.9459C151.241 30.2956 150.363 30.4633 149.545 30.4633C147.144 30.4632 145.585 29.1982 144.766 27.6394C143.974 26.1301 143.805 24.2607 144.103 22.5678C144.612 19.6692 146.486 16.5868 149.867 14.3154C152.064 12.8284 154.649 12.1302 157.007 12.1301C162.658 12.1301 166.841 16.0541 165.79 22.0301L165.693 22.513Z" fill="#262626"/>
<path d="M125.305 24.4231C125.272 24.6087 125.366 24.7203 125.554 24.7203L129.115 24.7203C128.595 25.4253 128.063 26.0932 127.466 26.7055L125.45 26.7055C125.281 26.7055 125.167 26.8169 125.168 27.021L125.098 29.6746C125.084 29.8601 125.181 29.9525 125.369 29.9526C129.348 29.8227 134.419 29.489 137.7 29.0437C137.785 29.4147 137.852 29.7857 137.903 30.1382C137.927 30.3238 138.03 30.3795 138.229 30.3239L141.358 29.4515C141.532 29.4028 141.63 29.2836 141.622 29.1427L141.612 29.0812C141.255 27.5783 140.433 25.9264 139.402 24.7203L142.039 24.7203C142.227 24.7203 142.36 24.6087 142.393 24.4231L142.817 22.0109C142.849 21.8254 142.755 21.7146 142.567 21.7146L126.083 21.7146C125.894 21.7146 125.761 21.8254 125.729 22.0109L125.305 24.4231ZM138.083 24.7203L136.34 25.3137C136.202 25.3508 136.129 25.4435 136.115 25.5177C136.102 25.5919 136.13 25.6483 136.173 25.7225L136.578 26.316C135.176 26.4644 133.407 26.5575 131.645 26.6132C132.186 26.0009 132.652 25.3882 133.071 24.7203L138.083 24.7203ZM135.389 15.9245C136.182 16.6667 137.023 17.3534 137.898 17.9472L132.302 17.9472C133.371 17.3349 134.43 16.6667 135.389 15.9245ZM137.642 10.7191L137.239 13.0121L134.433 13.0121L134.836 10.7191L137.642 10.7191ZM144.72 24.4231C144.623 24.9755 144.32 25.6866 143.635 26.2621C143.542 26.3398 143.448 26.4091 143.354 26.4727C143.591 27.0528 143.783 27.6402 143.919 28.2156L143.917 28.2156C144.058 28.7972 143.996 29.5746 143.478 30.3335C142.957 31.096 142.218 31.4854 141.641 31.6473L141.635 31.6492L138.51 32.5187L138.511 32.5197C138.123 32.6286 137.319 32.7776 136.569 32.3552C136.172 32.1321 135.93 31.8277 135.781 31.5319C132.525 31.8797 128.387 32.1345 125.044 32.2436C125.018 32.2445 124.992 32.2456 124.966 32.2456C124.498 32.2455 123.836 32.1267 123.326 31.6127C122.839 31.1217 122.721 30.5008 122.737 30.0065L122.736 30.0074L122.807 27.3538L122.808 27.3528C122.816 27.0016 122.898 26.4916 123.21 25.963C122.921 25.4527 122.897 24.8832 122.978 24.4231L123.402 22.0109L123.448 21.7973C123.571 21.3174 123.847 20.7561 124.371 20.2738L123.757 18.2598L123.757 18.2588C123.596 17.7344 123.56 16.9035 124.136 16.0389C124.679 15.2232 125.453 14.8529 125.985 14.701L125.985 14.7001C128.501 13.9714 131.049 12.6878 132.84 11.3895C133.106 11.1961 133.462 10.9848 133.907 10.8518C134.333 10.7246 134.682 10.7191 134.836 10.7191L134.433 13.0121L134.327 13.0159C134.229 13.0264 134.146 13.0585 134.033 13.1419C131.96 14.6449 129.109 16.0737 126.29 16.8901L126.214 16.9152C126.05 16.9834 125.979 17.1173 126.033 17.2797L126.882 20.0632C126.928 20.2298 127.069 20.2852 127.248 20.2296C127.968 19.9884 128.699 19.6918 129.432 19.3764L129.23 20.5268C129.197 20.7122 129.291 20.824 129.479 20.824L139.483 20.824C139.672 20.824 139.805 20.7123 139.837 20.5268L140.062 19.2466C140.666 19.562 141.273 19.8586 141.871 20.0997C142.031 20.1553 142.191 20.0999 142.296 19.9333L144.165 17.1306C144.291 16.9452 144.261 16.7967 144.063 16.7411C141.491 15.9432 139.258 14.6071 137.578 13.1227C137.503 13.067 137.435 13.0327 137.341 13.0188L137.239 13.0121L137.642 10.7191C138.251 10.7191 138.708 10.8893 139.06 11.1154L139.204 11.2154L139.324 11.3126C140.824 12.6382 142.826 13.8354 145.115 14.5452L145.114 14.5462C145.622 14.7021 146.319 15.1059 146.54 16.011C146.756 16.8931 146.377 17.687 146.082 18.128L146.084 18.129L144.714 20.1834C145.189 20.7569 145.24 21.4619 145.144 22.0109L144.72 24.4231Z" fill="#262626"/>
<path d="M112.717 20.8981C112.685 21.0835 112.779 21.1944 112.967 21.1944L115.529 21.1944L114.558 26.7239L111.034 26.7239C110.846 26.7239 110.713 26.8356 110.68 27.0211L110.21 29.693C110.178 29.8785 110.272 29.9902 110.46 29.9902L120.803 29.9902L120.871 29.9854C121.023 29.9616 121.128 29.8554 121.157 29.693L121.626 27.0211C121.659 26.8356 121.565 26.7239 121.377 26.7239L121.78 24.4318C122.341 24.4318 123.032 24.6068 123.515 25.1821C123.998 25.7575 124.051 26.4687 123.954 27.0211L123.484 29.693C123.387 30.2454 123.084 30.9565 122.399 31.532C121.714 32.1074 120.961 32.2822 120.4 32.2822L110.057 32.2822C109.988 32.2822 109.917 32.2793 109.845 32.2736C109.325 32.5564 108.805 32.6535 108.39 32.6535L105.677 32.6535C105.117 32.6534 104.425 32.4787 103.942 31.9033C103.459 31.3278 103.407 30.6166 103.504 30.0643C103.506 30.0519 103.509 30.0391 103.511 30.0267L103.973 27.6241C103.927 27.6092 103.88 27.5943 103.835 27.576C103.068 27.2696 102.752 26.6548 102.626 26.2045L102.583 26.0237C102.581 26.0159 102.581 26.0074 102.579 25.9996L102.082 23.2536C102.079 23.242 102.078 23.2297 102.076 23.218C101.996 22.723 102.056 22.0933 102.416 21.4512C102.769 20.8217 103.31 20.3639 103.876 20.0902L103.875 20.0892C103.952 20.0515 104.029 20.0122 104.105 19.9729C104.077 19.9429 104.049 19.912 104.021 19.8796C103.538 19.3041 103.486 18.5929 103.583 18.0406L104.03 15.4985C104.127 14.9461 104.429 14.235 105.115 13.6595C105.587 13.2629 106.091 13.0588 106.543 12.9689C106.682 12.4662 106.986 11.8822 107.566 11.3954C108.251 10.8202 109.004 10.6452 109.564 10.6451L109.161 12.9372C108.973 12.9373 108.841 13.049 108.808 13.2344L108.463 15.2013L106.711 15.2013L106.643 15.2061C106.49 15.2299 106.385 15.3361 106.357 15.4985L105.91 18.0406C105.882 18.2028 105.95 18.3082 106.093 18.332L106.16 18.3368L109.625 18.3368C108.376 19.7656 106.568 21.1579 104.63 22.1042L104.573 22.135C104.448 22.2154 104.388 22.3476 104.411 22.4938L104.908 25.2398C104.948 25.4439 105.089 25.4992 105.278 25.3879C105.779 25.1096 106.35 24.7573 106.93 24.3491L105.831 30.0643C105.802 30.2268 105.871 30.332 106.015 30.3557L106.08 30.3615L108.793 30.3615C108.982 30.3615 109.115 30.2498 109.147 30.0643L110.182 23.5325C110.602 24.1449 111.095 24.6642 111.683 25.0724C111.836 25.1651 111.993 25.1281 112.12 24.9426L113.806 22.5303C113.933 22.3451 113.918 22.2152 113.746 22.1225C112.979 21.77 112.144 21.2685 111.51 20.6933C112.114 20.0439 112.63 19.3574 113.102 18.7081L112.717 20.8981ZM122.175 20.8981L122.645 18.2262C122.673 18.0638 122.606 17.9576 122.462 17.9338L122.395 17.929L122.798 15.637C123.359 15.637 124.05 15.8117 124.534 16.3872C124.956 16.8907 125.049 17.4977 125.001 18.0117L124.972 18.2262L124.502 20.8981L124.456 21.1116C124.324 21.6257 124.017 22.2335 123.417 22.7371C122.732 23.3124 121.979 23.4873 121.418 23.4873L121.089 23.4873L120.923 24.4318L121.78 24.4318L121.377 26.7239L118.193 26.7239L119.165 21.1944L121.821 21.1944C121.986 21.1944 122.109 21.1094 122.159 20.9635L122.175 20.8981ZM120.564 13.2344C120.597 13.0488 120.503 12.9372 120.315 12.9372L120.718 10.6451C121.278 10.6451 121.97 10.82 122.453 11.3954C122.936 11.9709 122.989 12.682 122.891 13.2344L122.469 15.637L122.798 15.637L122.395 17.929L119.739 17.929L120.564 13.2344ZM117.282 12.9372C117.093 12.9373 116.961 13.049 116.929 13.2344L116.103 17.929L113.541 17.929L113.968 15.4985C114.001 15.3129 113.907 15.2013 113.719 15.2013L111.778 15.2013L112.124 13.2344C112.152 13.072 112.084 12.9667 111.941 12.9429L111.875 12.9372L112.278 10.6451C112.839 10.6452 113.529 10.8202 114.013 11.3954C114.412 11.8716 114.515 12.4411 114.484 12.9362C114.543 12.9443 114.602 12.9544 114.662 12.967C114.802 12.4647 115.106 11.8815 115.685 11.3954C116.371 10.82 117.124 10.6452 117.684 10.6451L117.282 12.9372ZM120.718 10.6451L120.315 12.9372L117.282 12.9372L117.684 10.6451L120.718 10.6451ZM112.278 10.6451L111.875 12.9372L109.161 12.9372L109.564 10.6451L112.278 10.6451Z" fill="#262626"/>
<path d="M191.186 46.4666C191.128 46.5045 191.059 46.5298 191.008 46.5298C190.943 46.5298 190.884 46.5045 190.846 46.4287L190.032 44.9238C190.002 44.8732 189.998 44.8226 190.005 44.7847C190.018 44.7088 190.07 44.6329 190.169 44.5823C192.849 43.0648 194.618 41.9899 196.194 41.054L192.6 41.1932C192.446 41.1932 192.37 41.1173 192.397 40.9655L192.686 39.2456C192.715 39.0812 192.818 39.0054 192.972 39.0054L200.291 39.0054C200.458 39.0054 200.534 39.0812 200.506 39.2456L200.248 40.7126C200.225 40.8391 200.159 40.9276 200.045 40.9908L197.304 42.4831C197.461 42.4704 197.602 42.4704 197.756 42.4704C199.72 42.4704 201.242 43.7477 200.882 45.7963C200.655 47.0863 199.668 48.4647 197.913 49.2487C197.119 49.6028 196.069 49.8052 195.08 49.8052C194.13 49.8052 193.236 49.6281 192.663 49.2361C191.975 48.7682 191.706 48.0347 191.835 47.3012C192.084 45.8849 193.625 45.1514 194.909 45.1514C196.129 45.1514 197.248 45.7963 197.092 47.4151C197.756 47.0736 198.39 46.6057 198.521 45.8596C198.728 44.6835 197.315 44.1776 196.326 44.1776C195.401 44.1776 194.252 44.5064 192.989 45.2652L191.186 46.4666ZM194.953 47.8956C195.14 47.2001 194.753 46.7701 194.342 46.7701C194.111 46.7701 193.884 46.8966 193.839 47.1495C193.744 47.6933 194.532 47.883 194.953 47.8956Z" fill="#262626"/>
<path d="M175.679 48.313C175.623 48.2624 175.609 48.1992 175.62 48.136C175.629 48.0854 175.666 48.0222 175.739 47.9716C177.992 46.3276 180.652 44.418 181.607 43.5834L177.528 43.7098C177.374 43.7098 177.297 43.634 177.326 43.4696L177.605 41.737C177.634 41.5726 177.737 41.4968 177.891 41.4968L185.469 41.4841C185.636 41.4841 185.699 41.56 185.671 41.7244L185.458 43.0775C185.436 43.204 185.382 43.2925 185.266 43.3684C184.497 43.8742 183.456 44.6077 182.534 45.2527C183.276 45.2653 183.86 45.67 183.837 46.6058C183.825 47.4025 184.07 47.6175 184.853 47.6175C185.341 47.6175 185.913 47.5037 186.653 47.314C186.693 47.3013 186.719 47.3013 186.745 47.3013C186.86 47.3013 186.913 47.3646 186.893 47.4784L186.885 47.529L186.297 49.4132C186.261 49.5397 186.156 49.6282 186.023 49.6535C185.479 49.7547 184.931 49.8053 184.443 49.8053C182.889 49.8053 181.4 49.5144 181.516 47.6807C181.548 47.0611 181.272 46.8081 180.925 46.8081C180.694 46.8081 180.432 46.9093 180.196 47.0864C179.208 47.8831 178.362 48.6798 177.296 49.6282C177.234 49.6915 177.165 49.7167 177.101 49.7167C177.05 49.7167 177.003 49.6915 176.947 49.6409L175.679 48.313ZM185.253 41.1047C183.554 41.13 180.989 40.8897 179.594 40.6495C179.444 40.6242 179.398 40.523 179.45 40.3712L179.967 38.8158C180.02 38.664 180.123 38.5881 180.247 38.6134C181.609 38.8284 184.299 39.0813 185.921 39.0561C186.063 39.0561 186.126 39.1319 186.104 39.2584L186.093 39.3216L185.548 40.8897C185.498 41.0288 185.394 41.1047 185.253 41.1047Z" fill="#262626"/>
<path d="M168.709 38.0696C168.838 38.0696 168.904 38.1328 168.879 38.2719L168.759 38.9548L171.083 38.9548C171.212 38.9548 171.277 39.018 171.253 39.1571L171.144 39.7768L171.869 38.9422C171.966 38.8283 172.06 38.8031 172.164 38.8663L173.578 39.663C173.648 39.7009 173.678 39.7515 173.667 39.8147C173.66 39.8527 173.626 39.9033 173.593 39.9412C173.201 40.3459 172.719 40.8264 172.166 41.2691L173.475 41.2691C173.604 41.2691 173.67 41.3323 173.645 41.4714L173.405 42.8372C173.383 42.9636 173.293 43.0395 173.164 43.0395L169.775 43.0395C169.27 43.2798 168.686 43.5327 168.062 43.7983C169.376 43.6971 170.788 43.558 172.03 43.3557C172.148 43.343 172.231 43.381 172.25 43.4948L172.539 44.772C172.566 44.9111 172.499 44.9997 172.353 45.025C170.524 45.2779 167.767 45.4043 165.712 45.4043L165.551 45.809L171.715 45.809C171.843 45.809 171.907 45.8849 171.884 46.0114C171.798 46.5046 171.647 47.2886 171.454 47.9462C170.923 49.7293 169.556 49.9822 165.165 49.9064C165.037 49.9064 164.968 49.8558 164.948 49.7546L164.622 48.2497C164.613 48.2244 164.618 48.1991 164.622 48.1738C164.638 48.0853 164.713 48.0221 164.841 48.0221L164.854 48.0221C165.761 48.0474 166.465 48.06 167.017 48.06C168.738 48.06 169.03 47.9336 169.112 47.7565C169.149 47.6933 169.18 47.5921 169.193 47.5162L162.735 47.5162C162.581 47.5162 162.532 47.4277 162.608 47.2886C162.924 46.7322 163.219 46.0746 163.48 45.4676C162.856 45.6573 162.249 45.8217 161.701 45.9481C161.578 45.9861 161.497 45.9355 161.466 45.8217L161.085 44.1903C161.058 44.0512 161.125 43.9627 161.281 43.95C162.941 43.7856 164.779 43.4821 166.346 43.0395L161.788 43.0395C161.66 43.0395 161.596 42.9636 161.618 42.8372L161.858 41.4714C161.883 41.3323 161.971 41.2691 162.099 41.2691L166.041 41.2691L166.148 40.662L163.169 40.662C163.041 40.662 162.975 40.5988 162.999 40.4597L163.228 39.1571C163.252 39.018 163.341 38.9548 163.469 38.9548L166.448 38.9548L166.568 38.2719C166.592 38.1328 166.681 38.0696 166.809 38.0696L168.709 38.0696ZM169.444 41.2691C169.749 41.0667 170.018 40.8517 170.291 40.6115L168.468 40.6115L168.352 41.2691L169.444 41.2691Z" fill="#262626"/>
<path d="M154.673 49.4764C152.157 49.4764 148.85 48.49 149.384 45.455C149.657 43.8995 150.939 42.3061 152.562 41.5473C151.102 41.5979 149.263 41.6864 147.756 41.7117C147.602 41.7117 147.526 41.6358 147.554 41.4714L147.838 39.6377C147.865 39.486 147.958 39.3975 148.124 39.3975C150.821 39.3975 155.43 39.3975 158.266 39.3342C158.433 39.3342 158.497 39.4101 158.47 39.5619L158.152 41.3703C158.128 41.5094 158.048 41.5979 157.892 41.6105C157.494 41.6105 157.125 41.6611 156.783 41.7117C155.142 41.9899 152.303 43.381 151.999 45.1135C151.808 46.2011 152.846 47.0863 155.68 47.0357C155.821 47.0357 155.885 47.1116 155.863 47.2381L155.854 47.2887L155.16 49.2615C155.11 49.4006 154.943 49.4764 154.673 49.4764Z" fill="#262626"/>
<path d="M133.232 47.4277C132.773 46.239 132.854 44.6076 133.246 42.3819C133.399 41.5093 133.594 40.5482 133.832 39.4859C133.873 39.3215 133.977 39.2457 134.141 39.2583L136.233 39.4859C136.385 39.4986 136.442 39.6124 136.389 39.7642C135.985 41.0414 135.695 42.1796 135.522 43.166C135.253 44.6962 135.278 45.7964 135.608 46.3275C135.689 46.454 135.793 46.5172 135.921 46.5172C136.255 46.5172 136.755 46.0872 137.291 45.2273C137.36 45.1261 137.435 45.0629 137.5 45.0629C137.551 45.0629 137.596 45.1008 137.638 45.1514L138.763 46.5678C138.816 46.631 138.831 46.6942 138.82 46.7575C138.811 46.8081 138.787 46.8713 138.737 46.9345C137.715 48.4394 136.512 49.1476 135.459 49.1476C134.496 49.1476 133.663 48.5532 133.232 47.4277ZM141.419 47.5289C141.245 47.5668 141.156 47.491 141.185 47.3266C141.495 45.1261 141.266 42.4831 139.763 40.9529C139.71 40.8897 139.68 40.8391 139.691 40.7758C139.702 40.7126 139.75 40.662 139.836 40.6115L141.575 39.6251C141.633 39.5871 141.687 39.5745 141.738 39.5745C141.803 39.5745 141.862 39.5998 141.905 39.6503C143.429 41.2817 144.2 44.0512 143.724 46.8334C143.697 46.9851 143.605 47.0736 143.459 47.0989L141.419 47.5289Z" fill="#262626"/>
<path d="M120.875 48.8441C120.734 48.8441 120.653 48.7935 120.626 48.6544L120.261 46.7828C120.226 46.6184 120.323 46.5046 120.513 46.5172C122.174 46.5678 123.719 46.4666 124.801 45.9355C125.757 45.4676 126.415 44.6456 126.551 43.8742C126.711 42.9636 126.113 42.129 124.379 42.129C122.787 42.129 120.727 42.6728 119.134 43.1154C118.973 43.1533 118.879 43.1027 118.855 42.951L118.582 41.1426C118.557 40.9908 118.639 40.8897 118.8 40.8517C120.442 40.4976 122.381 40.1309 124.449 39.9791L125.159 39.9539C128.485 39.9539 129.568 41.8255 129.22 43.8109C128.942 45.3917 127.752 47.0483 126.041 47.8703C124.456 48.6291 122.484 48.8188 120.875 48.8441Z" fill="#262626"/>
<path d="M103.581 49.2741C103.427 49.2741 103.348 49.2109 103.349 49.0591C103.392 48.0095 103.541 46.7955 103.764 45.5308C104.142 43.381 104.728 41.0668 105.39 38.9801C105.443 38.8284 105.546 38.7525 105.698 38.7652L107.647 38.8537C107.811 38.8663 107.873 38.9548 107.818 39.1192C107.192 40.9276 106.671 43.0143 106.327 44.9744C106.073 46.4161 105.91 47.7819 105.875 48.9327C105.872 49.0971 105.777 49.1982 105.61 49.1982L103.581 49.2741ZM113.991 42.2049C113.196 42.0532 112.195 41.9773 111.155 41.9773C110.256 41.9773 109.336 42.0279 108.477 42.167C108.318 42.1923 108.226 42.129 108.243 41.9646L108.359 40.2068C108.373 40.0551 108.455 39.9539 108.624 39.9412C109.671 39.8274 110.761 39.7642 111.801 39.7642C112.802 39.7642 113.767 39.8274 114.644 39.9539C114.78 39.9792 114.842 40.0677 114.802 40.2195L114.296 42.0026C114.255 42.167 114.141 42.2302 113.991 42.2049ZM113.405 48.7556C112.597 48.8947 111.629 48.9959 110.705 48.9959C109.048 48.9959 106.53 48.6418 106.901 46.5299C106.976 46.0999 107.161 45.632 107.434 45.1009C107.51 44.9618 107.611 44.8985 107.75 44.9112L109.295 45.0376C109.472 45.0503 109.503 45.1641 109.423 45.3285C109.323 45.5308 109.254 45.7079 109.227 45.8596C109.08 46.6943 110.289 46.7575 110.905 46.7575C111.689 46.7575 112.65 46.6184 113.688 46.3402C113.877 46.2896 113.966 46.3655 113.935 46.5425L113.657 48.49C113.63 48.6418 113.55 48.7303 113.405 48.7556Z" fill="#262626"/>
</svg>
