<svg width="306" height="63" viewBox="0 0 306 63" fill="none" xmlns="http://www.w3.org/2000/svg">
<g filter="url(#filter0_d_395_11351)">
<rect width="64" height="61" fill="#B6D43E"/>
<rect x="1.20461" y="1.20461" width="61.5908" height="58.5908" stroke="#262626" stroke-width="2.40921"/>
</g>
<path d="M38.6761 25.2408V26.3804H52.2752V25.2408H38.6761ZM33.5605 32.3569C33.5605 32.1037 33.7125 31.9517 33.9657 31.9517H43.7662V31.5212C43.7662 31.2933 43.8929 31.1414 44.1208 31.0907C45.1591 30.8121 46.4253 30.2803 46.9571 29.9258H37.7391C37.4858 29.9258 37.3339 29.7738 37.3339 29.5206V28.2291H34.5988C34.3456 28.2291 34.1937 28.0771 34.1937 27.8239V21.8727C34.1937 21.6194 34.3456 21.4675 34.5988 21.4675H36.6501C36.3462 20.8597 35.9157 20.2013 35.4092 19.5682C35.3332 19.4669 35.3079 19.3656 35.3079 19.2896C35.3079 19.163 35.3839 19.0617 35.5865 19.011L39.2079 17.9727C39.2838 17.9474 39.3345 17.9474 39.3851 17.9474C39.5371 17.9474 39.6384 17.998 39.7397 18.1247C40.4234 19.0363 41.1832 20.2519 41.6137 21.4675H43.437C43.1078 20.7331 42.6013 19.8974 42.0695 19.1883C41.9935 19.087 41.9682 19.011 41.9682 18.935C41.9682 18.8084 42.0695 18.7071 42.2468 18.6565L45.8935 17.7448C45.9441 17.7448 45.9948 17.7195 46.0454 17.7195C46.7039 17.7195 47.9701 20.885 48.1727 21.4675H49.135C49.8694 20.3785 50.5025 19.1123 50.9077 18.0993C50.9837 17.8714 51.1609 17.7701 51.4142 17.8208L55.3394 18.7578C55.5167 18.8084 55.618 18.9097 55.618 19.0363C55.618 19.1123 55.618 19.1883 55.5674 19.2643C55.1368 19.9987 54.5797 20.7837 54.0732 21.4675H56.3271C56.5803 21.4675 56.7323 21.6194 56.7323 21.8727V27.7986C56.7323 28.0518 56.5803 28.2037 56.3271 28.2037H53.7693V29.1914C53.7693 29.4193 53.6934 29.5459 53.5414 29.6979C52.6297 30.4323 51.2369 31.268 49.8187 31.9517H56.9096C57.1628 31.9517 57.3147 32.1037 57.3147 32.3569V35.5478C57.3147 35.801 57.1628 35.953 56.9096 35.953H48.4512V36.738C48.4512 40.1315 47.4383 41.6256 42.3481 41.6256L40.778 41.6003C40.5247 41.575 40.3981 41.4737 40.2968 41.2711L38.9799 37.8776C38.9546 37.827 38.9546 37.751 38.9546 37.7004C38.9546 37.5231 39.1066 37.4218 39.3598 37.4218L41.0059 37.4724C43.3864 37.4724 43.7662 37.0672 43.7662 36.3075V35.953H33.9657C33.7125 35.953 33.5605 35.801 33.5605 35.5478V32.3569Z" fill="white"/>
<path d="M17.7582 31.6225C17.9355 31.7744 17.9862 31.9517 17.9102 32.1796L17.8342 32.3822L24.4945 31.192V22.5057L22.5952 24.8609C22.4939 24.9622 22.3926 25.0128 22.2913 25.0128C22.19 25.0128 22.0887 24.9622 22.0127 24.8609C21.0251 23.7213 19.3537 22.4298 18.0368 21.6447C17.8849 21.5687 17.8089 21.4674 17.8089 21.3408C17.8089 21.2648 17.8595 21.1889 17.9355 21.0876L20.1134 18.5805C20.2653 18.4032 20.4426 18.3272 20.6705 18.4538C21.9621 19.1123 23.4309 20.1506 24.4945 21.2395V18.2006C24.4945 17.9474 24.6464 17.7954 24.8997 17.7954H28.5464C28.7996 17.7954 28.9516 17.9474 28.9516 18.2006V30.4069L30.5217 30.1283C30.7749 30.0777 30.9269 30.2043 30.9522 30.4829L31.1295 33.8763C31.1548 34.1296 31.0282 34.2815 30.7749 34.3322L28.9516 34.6614V41.2457C28.9516 41.499 28.7996 41.6509 28.5464 41.6509H24.8997C24.6464 41.6509 24.4945 41.499 24.4945 41.2457V35.4718L17.8849 36.662C17.6063 36.7127 17.4543 36.586 17.429 36.3075L17.3024 33.775L16.6186 35.5224C16.5427 35.6997 16.4414 35.7757 16.3401 35.7757C15.9602 35.7757 14.9219 33.6991 14.7446 33.3192L14.8459 41.1951C14.8459 41.4483 14.7193 41.6003 14.4408 41.6003H11.2246C10.946 41.6003 10.8194 41.4483 10.8194 41.1951L10.9207 34.3322C10.4395 35.8263 9.78108 37.0925 9.04668 38.3081C8.97071 38.46 8.86941 38.536 8.76811 38.536C8.66682 38.536 8.56552 38.4347 8.48954 38.2828L6.91944 34.9906C6.81814 34.788 6.84347 34.6107 6.97009 34.4335C8.26163 32.838 9.45187 30.6348 10.2369 28.5582H7.98306C7.72982 28.5582 7.57787 28.4063 7.57787 28.153V24.9115C7.57787 24.6583 7.72982 24.5063 7.98306 24.5063H10.7434L10.7687 22.7843C10.0597 22.8349 9.3759 22.8603 8.74279 22.8603C8.48954 22.8603 8.36292 22.7336 8.31227 22.5057L7.62852 19.2389C7.57787 18.9857 7.70449 18.8084 7.98306 18.8084C10.5408 18.7831 13.7823 18.5298 15.6563 17.9474C15.9096 17.8714 16.0868 17.9474 16.1881 18.1753L17.5556 21.2902C17.6569 21.5434 17.581 21.7207 17.3277 21.7966C16.6186 22.0246 15.7576 22.2018 14.8459 22.3538V24.5063H17.0492C17.3024 24.5063 17.4543 24.6583 17.4543 24.9115V26.4563L19.0245 24.5823C19.2017 24.3797 19.379 24.3544 19.5816 24.4557C20.2653 24.8102 23.8107 27.1148 23.8107 27.7985C23.8107 27.8998 23.7854 27.9758 23.7094 28.0771L21.5569 30.8121C21.4556 30.9134 21.3796 30.9894 21.2783 30.9894C21.177 30.9894 21.0757 30.9387 20.9744 30.8121C20.0881 29.7738 18.7206 28.7355 17.4543 28.0011V28.153C17.4543 28.4063 17.3024 28.5582 17.0492 28.5582H15.1245C15.9096 29.9511 17.0492 31.04 17.7582 31.6225Z" fill="white"/>
<path d="M33.5674 35.6375C33.5952 35.8082 33.7052 35.9182 33.876 35.946L33.9658 35.9529H43.7666V36.3074C43.7666 37.0671 43.3863 37.4724 41.0059 37.4724L39.3594 37.4216C39.1065 37.4217 38.9543 37.523 38.9541 37.7C38.9541 37.7506 38.9542 37.827 38.9795 37.8777L40.2969 41.2712C40.3982 41.4737 40.5252 41.575 40.7783 41.6003L42.3477 41.6257C47.1196 41.6257 48.3085 40.3125 48.4385 37.3523L48.4512 36.738V35.9529H56.9092C57.1624 35.9529 57.3145 35.8009 57.3145 35.5476V32.3572C57.3145 32.1357 57.1985 31.9914 57 31.9587L56.9092 31.9519H49.8184C51.2364 31.2682 52.6293 30.4324 53.541 29.698C53.674 29.565 53.749 29.4513 53.7656 29.2722L53.7695 29.1912V28.2039H56.3271L56.417 28.197C56.5875 28.1692 56.6978 28.059 56.7256 27.8884L56.7324 27.7986V21.8728C56.7324 21.6196 56.5803 21.4676 56.3271 21.4675H54.0732C54.5797 20.7838 55.1369 19.9988 55.5674 19.2644C55.5927 19.2264 55.605 19.1882 55.6113 19.1501L55.6182 19.0359C55.6179 18.9096 55.5167 18.8082 55.3398 18.7576L51.4141 17.821C51.1608 17.7704 50.9832 17.8714 50.9072 18.0994C50.502 19.1123 49.8691 20.3786 49.1348 21.4675H48.1729L48.0498 21.1394C47.6627 20.1434 46.6211 17.7195 46.0449 17.7195C45.9945 17.7196 45.944 17.7448 45.8936 17.7449L42.2471 18.656C42.0698 18.7067 41.9678 18.8087 41.9678 18.9353C41.9678 19.0112 41.9935 19.0871 42.0693 19.1882C42.6011 19.8973 43.1073 20.7332 43.4365 21.4675H41.6133C41.1828 20.252 40.423 19.0364 39.7393 18.1248C39.638 17.9982 39.5367 17.947 39.3848 17.947C39.3343 17.947 39.2837 17.9472 39.208 17.9724L35.5859 19.0115L35.5166 19.032C35.366 19.087 35.3076 19.1789 35.3076 19.2898C35.3077 19.3657 35.3333 19.4669 35.4092 19.5681C35.9157 20.2012 36.3465 20.8597 36.6504 21.4675H34.5986C34.3455 21.4676 34.1934 21.6196 34.1934 21.8728V27.824C34.1934 28.0456 34.31 28.1899 34.5088 28.2224L34.5986 28.2292H37.334V29.5203C37.334 29.7735 37.486 29.9255 37.7393 29.9255H46.957C46.4253 30.28 45.1593 30.812 44.1211 31.0906C43.8932 31.1412 43.7666 31.2933 43.7666 31.5212V31.9519H33.9658L33.876 31.9587C33.677 31.9912 33.5605 32.1354 33.5605 32.3572V35.5476L33.5674 35.6375ZM52.2754 25.241V26.3806H38.6758V25.241H52.2754ZM45.6797 15.5583C45.6757 15.5588 45.6718 15.5589 45.668 15.5593C45.6719 15.5589 45.6758 15.5587 45.6797 15.5583ZM57.8164 19.0359C57.8164 19.0553 57.8289 19.3173 57.7441 19.6726C57.8944 19.7679 58.0406 19.8832 58.1787 20.0212C58.6798 20.5224 58.8799 21.1298 58.9219 21.6541L58.9307 21.8728V27.7986L58.9219 28.0173C58.8799 28.5416 58.6798 29.149 58.1787 29.6501C58.0748 29.754 57.9659 29.8443 57.8545 29.9236C58.1678 30.0404 58.4818 30.2247 58.7617 30.5046C59.2629 31.0058 59.4619 31.6141 59.5039 32.1384L59.5127 32.3572V35.5476C59.5127 36.115 59.3343 36.8275 58.7617 37.4001C58.1891 37.9727 57.4765 38.1511 56.9092 38.1511H50.584C50.4388 39.5525 49.999 40.9939 48.7764 42.0906C47.2296 43.4777 44.9513 43.824 42.3477 43.824H42.3125L40.7422 43.7986L40.5596 43.7878C40.1793 43.7498 39.6852 43.6323 39.21 43.2957C38.8568 43.0455 38.6214 42.7501 38.4639 42.4939L38.3311 42.2537C38.3005 42.1925 38.2718 42.13 38.2471 42.0662L36.9395 38.697C36.8517 38.4815 36.8094 38.2875 36.7881 38.1511H33.9658C33.3984 38.1511 32.6859 37.9728 32.1133 37.4001C31.5407 36.8275 31.3623 36.115 31.3623 35.5476V32.3572C31.3623 31.7898 31.5407 31.0772 32.1133 30.5046C32.3962 30.2217 32.7136 30.0353 33.0303 29.9187C32.9333 29.8467 32.8381 29.7666 32.7471 29.6755C32.1745 29.103 31.9951 28.3913 31.9951 27.824V21.8728C31.9951 21.3054 32.1745 20.5929 32.7471 20.0203C32.873 19.8944 33.0062 19.7881 33.1426 19.698C33.1318 19.631 33.1236 19.5639 33.1182 19.4968L33.1094 19.2898L33.1182 19.0837C33.159 18.5962 33.3489 18.0673 33.7646 17.6218C34.1665 17.1914 34.6367 16.9936 34.9805 16.8982L38.6016 15.8601V15.8611C38.9794 15.7494 39.2779 15.7488 39.3848 15.7488C39.7147 15.7488 40.1327 15.8064 40.5645 16.0222C40.9218 16.2009 41.1795 16.4363 41.3623 16.6433C41.4659 16.5999 41.5608 16.5661 41.6426 16.5427C41.6661 16.536 41.6902 16.5301 41.7139 16.5242L45.3604 15.6121L45.4922 15.5837C45.508 15.5808 45.5241 15.5795 45.54 15.5769C45.5586 15.5729 45.5796 15.5675 45.6025 15.5632C45.6975 15.5454 45.853 15.5213 46.0449 15.5212C46.9604 15.5212 47.5726 16.0301 47.7832 16.2185C48.0598 16.466 48.275 16.7452 48.4268 16.9617C48.5472 17.1334 48.6617 17.3194 48.7725 17.5085C48.8048 17.4318 48.8367 17.3568 48.8662 17.283H48.8672C49.0541 16.7996 49.412 16.2758 50.0264 15.9343C50.5995 15.6159 51.1839 15.5729 51.6523 15.6335L51.8447 15.6648L51.9248 15.6824L55.8496 16.6199L55.9434 16.6443C56.5295 16.8118 57.8162 17.4661 57.8164 19.0359Z" fill="#262626"/>
<path d="M10.8251 41.2849C10.849 41.4554 10.946 41.5656 11.1268 41.5935L11.2245 41.6003H14.4403L14.538 41.5935C14.7488 41.561 14.8456 41.4166 14.8456 41.1951L14.744 33.3191C14.9213 33.6989 15.9598 35.7757 16.3397 35.7761C16.441 35.7761 16.5421 35.6995 16.618 35.5222L17.3026 33.7751L17.4286 36.3074C17.4539 36.5859 17.6061 36.7125 17.8846 36.6619L24.494 35.4714V41.2458C24.494 41.4675 24.6106 41.6118 24.8094 41.6443L24.8993 41.6511H28.5458L28.6366 41.6443C28.8068 41.6163 28.9164 41.506 28.9442 41.3357L28.951 41.2458V34.6619L30.7743 34.3318C31.0274 34.2812 31.154 34.1298 31.1288 33.8767L30.952 30.4832C30.9267 30.2046 30.7746 30.078 30.5214 30.1287L28.951 30.407V18.2009C28.951 17.9795 28.8351 17.8351 28.6366 17.8025L28.5458 17.7957V15.5974C29.1131 15.5974 29.8257 15.7758 30.3983 16.3484C30.8992 16.8493 31.0983 17.4571 31.1405 17.9812L31.1493 18.2009V27.9734C31.5023 28.0456 31.8746 28.1996 32.2225 28.4871C32.8308 28.9895 33.0457 29.6375 33.118 30.0984L33.1415 30.2839L33.1473 30.3679L33.3241 33.7615H33.3221C33.3546 34.2846 33.2503 34.9507 32.7801 35.5447C32.2967 36.1554 31.6596 36.3973 31.2059 36.488C31.1924 36.4907 31.1784 36.4934 31.1649 36.4958L31.1493 36.4978V41.2458L31.1405 41.4646C31.0985 41.9887 30.8992 42.5964 30.3983 43.0974C29.8257 43.67 29.1131 43.8494 28.5458 43.8494H24.8993C24.3319 43.8493 23.6203 43.67 23.0477 43.0974C22.4752 42.5248 22.2958 41.8132 22.2958 41.2458V38.1013L18.2733 38.825C17.9545 38.8824 17.4974 38.9057 17.0126 38.7585L17.0438 41.1667C17.0439 41.1762 17.0438 41.1857 17.0438 41.1951C17.0438 41.6598 16.9273 42.3928 16.3378 43.0105C15.7304 43.6468 14.9692 43.7986 14.4403 43.7986H11.2245C10.6956 43.7986 9.93439 43.6468 9.32702 43.0105C8.73745 42.3928 8.62096 41.6598 8.62096 41.1951C8.62096 41.1843 8.6208 41.1736 8.62096 41.1628L8.62682 40.7292C7.89666 40.6865 7.3842 40.3205 7.11901 40.073C6.89853 39.8672 6.73873 39.646 6.62389 39.4509L6.5233 39.2664L6.50475 39.2292L4.93541 35.9373L4.93639 35.9363C4.74224 35.5339 4.61491 35.0352 4.67272 34.4763C4.73096 33.9136 4.95749 33.4696 5.18151 33.156L5.26159 33.0505C5.83512 32.342 6.39794 31.4705 6.91002 30.533C6.64012 30.4154 6.37235 30.2463 6.13073 30.0046C5.55833 29.4321 5.37975 28.7204 5.37975 28.1531V24.9119C5.37975 24.3445 5.55811 23.6319 6.13073 23.0593C6.1453 23.0448 6.1609 23.0314 6.17565 23.0173L6.16588 22.9822L6.16002 22.9558L5.47643 19.6892L5.47252 19.6697C5.36373 19.1253 5.37955 18.296 5.95885 17.5642C6.54575 16.823 7.36599 16.6161 7.9608 16.6111V16.6101C10.4935 16.585 13.4584 16.3287 15.0038 15.8484L15.0243 15.8416C15.462 15.7102 16.1326 15.6215 16.8446 15.9265C17.4868 16.2018 17.8816 16.6761 18.1092 17.1033L18.1962 17.283L18.201 17.2917L18.2411 17.3835L18.454 17.1394C18.6838 16.8738 19.112 16.4678 19.7782 16.2839C20.4942 16.0864 21.159 16.2328 21.6678 16.4968L21.6688 16.4958C21.692 16.5076 21.7149 16.52 21.7381 16.532H21.7372C22.0126 16.6742 22.2933 16.832 22.577 17.0007C22.6907 16.7744 22.8439 16.5522 23.0477 16.3484C23.6202 15.776 24.332 15.5974 24.8993 15.5974V17.7957L24.8094 17.8025C24.6106 17.835 24.494 17.9793 24.494 18.2009V21.24C23.4304 20.151 21.9613 19.1123 20.6698 18.4539C20.4421 18.3275 20.265 18.4036 20.1131 18.5808L17.9354 21.0876C17.8595 21.1888 17.8086 21.2647 17.8085 21.3406C17.8085 21.4672 17.885 21.5683 18.037 21.6443C19.3538 22.4293 21.0249 23.7215 22.0126 24.8611C22.0885 24.9622 22.1897 25.0124 22.2909 25.0125C22.3921 25.0125 22.4934 24.9622 22.5946 24.8611L24.494 22.5056V31.1921L17.8339 32.3826L17.91 32.1794C17.9859 31.9516 17.9349 31.7747 17.7577 31.6228C17.0486 31.0403 15.9089 29.9512 15.1239 28.5583H17.0487C17.3019 28.5583 17.454 28.4063 17.454 28.1531V28.0007C18.7202 28.7351 20.0881 29.774 20.9745 30.8123C21.0757 30.9387 21.1769 30.989 21.2782 30.989C21.3794 30.9889 21.4553 30.9135 21.5565 30.8123L23.7089 28.0769C23.7848 27.9756 23.8104 27.8999 23.8104 27.7986C23.8104 27.1148 20.2647 24.8104 19.5809 24.4558C19.3785 24.3547 19.2015 24.3803 19.0243 24.5828L17.454 26.4568V24.9119C17.454 24.6586 17.3019 24.5066 17.0487 24.5066H14.8456V22.3542C15.7571 22.2023 16.618 22.0245 17.327 21.7966C17.5803 21.7207 17.6568 21.543 17.5555 21.2898L16.1883 18.1755C16.0871 17.9477 15.9093 17.8711 15.6561 17.947C13.7822 18.5294 10.5409 18.783 7.98327 18.8083L7.88561 18.8162C7.67534 18.8535 7.58348 19.0174 7.6278 19.239L8.31237 22.5056C8.36298 22.7334 8.48913 22.8599 8.74205 22.8601C9.37515 22.8601 10.0594 22.8346 10.7684 22.7839L10.743 24.5066H7.98327C7.73002 24.5066 7.57799 24.6586 7.57799 24.9119V28.1531C7.57799 28.4063 7.73002 28.5583 7.98327 28.5583H10.2362C9.45114 30.6349 8.26109 32.838 6.96959 34.4333C6.84297 34.6106 6.81751 34.7884 6.91881 34.991L8.48912 38.283C8.56499 38.4347 8.6663 38.5356 8.76745 38.5359C8.86873 38.5359 8.97077 38.4603 9.04674 38.3083C9.78115 37.0928 10.4396 35.8259 10.9208 34.3318L10.8192 41.1951L10.8251 41.2849ZM28.5458 15.5974V17.7957H24.8993V15.5974H28.5458Z" fill="#262626"/>
<path d="M71.3259 28.0455C71.1629 28.0455 71 27.9176 71 27.7642V26.2557C71 26.1278 71.1629 26 71.3259 26H86.6415C86.8371 26 87 26.1278 87 26.2557V27.7642C87 27.9176 86.8371 28.0455 86.6415 28.0455H71.3259ZM71.3259 35C71.1629 35 71 34.8466 71 34.7187V33.2102C71 33.0824 71.1629 32.929 71.3259 32.929H86.6415C86.8371 32.929 87 33.0824 87 33.2102V34.7187C87 34.8466 86.8371 35 86.6415 35H71.3259Z" fill="white"/>
<path d="M72.0959 35.624C72.117 35.7195 72.1973 35.8169 72.2862 35.8428L72.3307 35.8495H83.6458L83.6978 35.8428C83.8007 35.8171 83.8834 35.7197 83.9048 35.624L83.9104 35.5772V34.1155C83.9104 34.0069 83.8178 33.8788 83.6978 33.8489L83.6458 33.8422V31.6926C84.4267 31.6928 85.0122 32.0852 85.3539 32.4589C85.6587 32.7922 85.9599 33.3162 85.9963 33.9808L86 34.1155V35.5772L85.9963 35.7119C85.9598 36.3764 85.6587 36.9005 85.3539 37.2338C85.0122 37.6074 84.4267 37.9999 83.6458 38H72.3307C71.4578 37.9998 70.8729 37.5022 70.5985 37.1822C70.3136 36.8498 70.0008 36.2962 70.0007 35.5772V34.1155C70.0007 33.3962 70.3135 32.8419 70.5985 32.5095C70.8729 32.1894 71.4578 31.6928 72.3307 31.6926H83.6458V33.8422H72.3307C72.2105 33.8426 72.0903 33.9917 72.0903 34.1155V35.5772L72.0959 35.624ZM72.0896 27.8597C72.0896 28.0082 72.2098 28.1317 72.33 28.132H83.6451L83.6971 28.1272C83.8001 28.1053 83.8827 28.0201 83.9041 27.9142L83.9097 27.8597V26.398C83.9096 26.2896 83.817 26.1815 83.6971 26.1563L83.6451 26.1505V24C84.7414 24.0002 85.8511 24.8423 85.9854 26.1343L85.9993 26.398V27.8597L85.9872 28.1071C85.8666 29.3276 84.8623 30.2823 83.6451 30.2825H72.33C70.9309 30.2823 70 29.0631 70 27.8597V26.398C70.0001 25.6368 70.3486 25.0552 70.6869 24.707C71.0253 24.3588 71.5905 24.0001 72.33 24H83.6451V26.1505H72.33L72.2855 26.1563C72.1819 26.1817 72.0897 26.2897 72.0896 26.398V27.8597Z" fill="#262626"/>
<g filter="url(#filter1_d_395_11351)">
<rect x="90" width="216" height="61" fill="white"/>
<rect x="91.2046" y="1.20461" width="213.591" height="58.5908" stroke="#262626" stroke-width="2.40921"/>
</g>
<path d="M95 30.5C95 28.0147 97.0147 26 99.5 26H292.5C294.985 26 297 28.0147 297 30.5V30.5C297 32.9853 294.985 35 292.5 35H99.5C97.0147 35 95 32.9853 95 30.5V30.5Z" fill="#FFE733"/>
<path d="M269.727 30.0271C269.538 30.0271 269.445 29.9157 269.477 29.7302L270.384 24.5717C270.417 24.3862 270.549 24.2748 270.738 24.2748L275.881 24.2748C276.069 24.2748 276.163 24.3862 276.13 24.5717L275.224 29.7302C275.191 29.9157 275.058 30.0271 274.87 30.0271L269.727 30.0271ZM271.465 21.1018C271.277 21.1018 271.183 20.9905 271.216 20.805L271.473 19.3391C271.506 19.1535 271.639 19.0422 271.827 19.0422L276.65 19.0422C276.838 19.0422 276.932 19.1535 276.899 19.3391L276.642 20.805C276.609 20.9905 276.476 21.1018 276.288 21.1018L271.465 21.1018ZM271.005 23.7182C270.817 23.7182 270.723 23.6068 270.756 23.4213L271.01 21.974C271.043 21.7884 271.175 21.6771 271.364 21.6771L276.187 21.6771C276.375 21.6771 276.469 21.7884 276.436 21.974L276.182 23.4213C276.149 23.6068 276.017 23.7182 275.828 23.7182L271.005 23.7182ZM285 30.3796C284.134 30.3796 283.453 29.8601 282.97 29.2848C282.358 29.656 281.656 30.0085 280.901 30.2312C280.721 30.2868 280.599 30.2312 280.531 30.0827L279.984 28.8024C279.53 29.99 278.673 30.3611 276.683 30.324C276.495 30.324 276.395 30.2497 276.367 30.0827L276.051 28.4498C276.039 28.4127 276.046 28.3756 276.052 28.3385C276.085 28.153 276.239 28.1344 276.39 28.1344C277.306 28.1715 277.505 28.0045 277.592 27.6148L276.339 27.6705C276.151 27.6705 276.054 27.5777 276.068 27.3922L276.139 26.1304C276.172 25.9448 276.232 25.815 276.458 25.815L276.477 25.815L277.906 25.8335L278.016 25.2026L276.603 25.2026C276.396 25.2026 276.322 25.0913 276.354 24.9057L276.599 23.5141C276.631 23.3285 276.745 23.2172 276.952 23.2172L278.365 23.2172L278.437 22.809L277.831 22.8275C277.643 22.8275 277.546 22.7347 277.538 22.5677L277.429 21.473C277.408 21.2688 277.525 21.139 277.751 21.139C279.107 21.139 280.602 21.1018 281.58 20.8977C281.76 20.8421 281.882 20.8977 281.928 21.0647L282.228 22.141C282.29 22.3265 282.229 22.4564 282.091 22.4935C281.836 22.5492 281.51 22.5863 281.164 22.6234L281.059 23.2172L282.303 23.2172L282.629 20.8235L282.639 20.7678L277.345 20.7678C277.157 20.7678 277.063 20.6565 277.096 20.471L277.328 19.1535C277.36 18.968 277.493 18.8566 277.681 18.8566L281.374 18.8566L281.468 18.3185L278.51 18.3185C278.303 18.3185 278.229 18.2072 278.261 18.0216L278.441 17.0011C278.473 16.8155 278.587 16.7042 278.794 16.7042L281.752 16.7042L281.84 16.2032L278.411 16.2032C278.223 16.2032 278.129 16.0918 278.162 15.9063L278.407 14.5146C278.439 14.3291 278.572 14.2177 278.76 14.2177L280.117 14.2177C280.046 13.9765 279.935 13.7538 279.826 13.5126C279.802 13.4384 279.774 13.3827 279.783 13.3271C279.8 13.2343 279.907 13.1601 280.061 13.1415L282.58 12.956C282.753 12.9374 282.857 12.9931 282.925 13.1415C283.058 13.457 283.196 13.8466 283.288 14.1806L283.304 14.1992L283.301 14.2177L284.412 14.2177C284.697 13.8837 284.966 13.5312 285.157 13.1972C285.243 13.0302 285.369 12.956 285.535 12.9745L288.087 13.1415C288.291 13.1601 288.362 13.29 288.232 13.4941C288.058 13.7353 287.861 13.9951 287.672 14.2177L289.028 14.2177C289.216 14.2177 289.31 14.3291 289.277 14.5146L289.033 15.9063C289 16.0918 288.867 16.2032 288.679 16.2032L285.043 16.2032L284.955 16.7042L288.139 16.7042C288.327 16.7042 288.421 16.8155 288.388 17.0011L288.209 18.0216C288.176 18.2072 288.044 18.3185 287.855 18.3185L284.671 18.3185L284.577 18.8566L288.401 18.8566C288.589 18.8566 288.683 18.968 288.65 19.1535L288.419 20.471C288.386 20.6565 288.254 20.7678 288.065 20.7678L285.39 20.7678C285.246 21.5843 285.141 22.4007 285.035 23.2172L287.672 23.2172C287.861 23.2172 287.954 23.3285 287.922 23.5141L287.677 24.9057C287.644 25.0913 287.512 25.2026 287.323 25.2026L284.836 25.2026C284.828 25.5737 284.829 25.8892 284.855 26.1675C285.139 25.9448 285.411 25.6851 285.671 25.3882C285.765 25.2768 285.847 25.2397 285.942 25.2397C285.998 25.2397 286.07 25.2583 286.12 25.2954L286.836 25.8335C286.936 25.9077 286.96 25.982 286.944 26.0747C286.885 26.4087 285.569 27.4664 285.278 27.7262L285.313 27.7447C285.46 27.8746 285.578 27.9488 285.71 27.9488C285.917 27.9488 286.126 27.7262 286.422 27.1138C286.486 26.9654 286.597 26.8726 286.672 26.8726C286.728 26.8726 286.797 26.9097 286.841 26.984L287.503 27.9303C287.578 28.0416 287.571 28.1901 287.478 28.3942C286.841 29.7673 285.905 30.3796 285 30.3796ZM286.292 23.0316C286.091 23.1058 285.968 23.0502 285.926 22.8646C285.862 22.475 285.708 22.0667 285.509 21.6956C285.463 21.64 285.457 21.5657 285.467 21.5101C285.483 21.4173 285.571 21.3431 285.691 21.306L286.893 20.8977C287.072 20.8421 287.201 20.8606 287.269 21.0091C287.509 21.3616 287.701 21.7698 287.814 22.1966C287.857 22.3822 287.777 22.5121 287.576 22.5863L286.292 23.0316ZM271.394 18.5041C271.206 18.5041 271.112 18.3927 271.145 18.2072L271.464 16.3887C271.497 16.2032 271.63 16.0918 271.818 16.0918L277.621 16.0918C277.809 16.0918 277.903 16.2032 277.87 16.3887L277.55 18.2072C277.518 18.3927 277.385 18.5041 277.197 18.5041L271.394 18.5041ZM272.443 15.5352C272.255 15.5352 272.162 15.4238 272.194 15.2383L272.475 13.6425C272.507 13.457 272.64 13.3456 272.828 13.3456L277.595 13.3456C277.783 13.3456 277.877 13.457 277.844 13.6425L277.564 15.2383C277.531 15.4238 277.398 15.5352 277.21 15.5352L272.443 15.5352ZM272.241 27.7262L273.315 27.7262L273.54 26.4458L272.466 26.4458L272.241 27.7262ZM280.228 27.9488C280.872 27.819 281.527 27.6334 282.197 27.3551C282.101 26.7242 282.096 26.0005 282.124 25.2026L280.711 25.2026L280.613 25.7593L281.646 25.6665C281.857 25.648 281.954 25.7407 281.918 25.9448L281.732 27.0025C281.699 27.1881 281.604 27.2994 281.45 27.318L280.319 27.4293L280.228 27.9488Z" fill="white"/>
<path d="M251.337 29.3963C251.229 29.5818 251.087 29.6375 250.912 29.5633L248.632 28.5984C248.457 28.5241 248.445 28.3757 248.55 28.2087C249.375 26.9469 250.098 25.2955 250.561 23.6255C250.619 23.4028 250.768 23.31 250.965 23.3657L253.14 23.9595C253.319 24.0151 253.371 24.145 253.317 24.3491C252.882 26.0748 252.093 28.0974 251.337 29.3963ZM263.727 29.0066C263.525 29.0808 263.407 29.0066 263.386 28.8025C263.378 27.1325 263.06 25.4068 262.411 24.1636C262.384 24.1079 262.374 24.0523 262.384 23.9966C262.401 23.9038 262.47 23.8296 262.631 23.7739L265 23.0503C265.179 22.9946 265.304 23.0317 265.391 23.1801C266.117 24.5161 266.546 26.2604 266.621 27.7634C266.629 27.9304 266.531 28.0603 266.351 28.1159L263.727 29.0066ZM259.805 22.6977C260.096 22.8647 261.622 23.8296 261.56 24.1821C261.547 24.2564 261.478 24.3306 261.389 24.4048L259.227 26.0934C259.142 26.149 259.079 26.1861 259.004 26.1861C258.928 26.1861 258.878 26.149 258.816 26.0748C258.381 25.4439 257.657 24.7388 256.847 24.2007L256.456 26.4274C256.377 26.8727 256.455 26.9655 256.958 27.0026C257.388 27.0211 258.326 27.0397 258.879 27.0026C259.677 26.9655 259.899 26.6686 260.139 25.5181C260.178 25.2955 260.348 25.1841 260.539 25.2769L263.01 26.3346C263.166 26.4088 263.203 26.5201 263.174 26.6871C262.605 29.1736 261.963 29.823 258.37 30.0086C257.704 30.0457 256.046 30.0457 255.393 30.0086C253.397 29.8973 252.598 29.5076 252.899 27.8005L253.593 23.8481C253.626 23.6626 253.74 23.5513 253.947 23.5513L256.716 23.5513L257.997 22.6977L251.12 22.6977C250.932 22.6977 250.838 22.5864 250.871 22.4008L252.414 13.624C252.446 13.4385 252.579 13.3271 252.767 13.3271L267.557 13.3271C267.745 13.3271 267.838 13.4385 267.806 13.624L266.263 22.4008C266.231 22.5864 266.098 22.6977 265.91 22.6977L259.805 22.6977ZM257.581 19.0608L254.736 19.0608L254.55 20.1185L257.395 20.1185L257.581 19.0608ZM258.132 15.9249L255.287 15.9249L255.114 16.9084L257.959 16.9084L258.132 15.9249ZM263.572 19.0608L260.633 19.0608L260.447 20.1185L263.386 20.1185L263.572 19.0608ZM261.011 16.9084L263.95 16.9084L264.123 15.9249L261.184 15.9249L261.011 16.9084Z" fill="white"/>
<path d="M234.739 30.3611C234.55 30.3611 234.457 30.2498 234.49 30.0643L235.807 22.5678C234.087 23.9966 232.141 25.2027 230.092 26.0377C229.909 26.1119 229.765 26.0748 229.7 25.9078L228.585 23.143C228.52 22.976 228.583 22.8276 228.804 22.7534C232.59 21.473 235.702 18.9866 237.33 16.797L230.604 16.797C230.416 16.797 230.322 16.6857 230.355 16.5001L230.825 13.8281C230.857 13.6426 230.99 13.5313 231.178 13.5313L247.588 13.5313C247.776 13.5313 247.87 13.6426 247.837 13.8281L247.368 16.5001C247.335 16.6857 247.202 16.797 247.014 16.797L241.23 16.797C240.894 17.3166 240.517 17.8547 240.105 18.3743L239.75 20.3968L241.439 18.9309C241.527 18.8567 241.59 18.8196 241.666 18.8196C241.741 18.8196 241.791 18.8567 241.853 18.9309C243.127 20.5824 244.904 22.0483 246.631 23.0503C246.734 23.1059 246.774 23.1987 246.758 23.2915C246.751 23.3286 246.719 23.4028 246.672 23.4585L244.507 26.0191C244.413 26.1305 244.331 26.1676 244.255 26.1676C244.199 26.1676 244.146 26.149 244.096 26.1119C242.325 25.0357 240.7 23.4585 239.515 21.7328L238.05 30.0643C238.018 30.2498 237.885 30.3611 237.697 30.3611L234.739 30.3611Z" fill="white"/>
<path d="M216.917 29.2849C216.706 29.3034 216.591 29.2107 216.551 29.0065L215.994 26.3902C215.942 26.149 216.081 26.0005 216.367 25.982C220.205 25.7964 221.855 23.6997 222.2 21.7328C222.533 19.8401 221.736 18.2629 220.001 17.632C219.359 20.3225 217.32 24.312 215.149 26.7984C214.368 27.7077 213.212 28.1715 212.12 28.1715C209.162 28.1715 208.149 25.147 208.602 22.5678C208.987 20.3782 210.409 17.966 213.144 16.129C214.812 14.9971 216.854 14.4219 218.775 14.4219C223.335 14.4219 226.429 17.5021 225.634 22.0297C224.955 25.8892 221.333 29.0251 216.917 29.2849ZM216.582 17.5763C214.364 18.1887 212.269 20.2483 211.881 22.4564C211.75 23.1987 211.834 23.9038 212.207 24.4604C212.297 24.5903 212.435 24.6645 212.585 24.6645C212.755 24.6645 212.96 24.5718 213.127 24.3677C214.573 22.6791 216.158 19.4504 216.582 17.5763Z" fill="white"/>
<path d="M191.939 30.1199C191.728 30.1385 191.594 30.0457 191.551 29.8601L190.849 27.2067C190.779 26.9655 190.921 26.7985 191.204 26.7985C195.172 26.8356 198.151 25.648 199.407 22.2523C199.624 21.6586 199.775 21.1205 199.86 20.638C200.219 18.5969 199.52 17.4279 198.333 17.4279C197.843 17.4279 197.264 17.6135 196.643 18.0402C194.952 19.1907 193.594 21.4545 192.981 24.4048C192.939 24.646 192.787 24.7573 192.542 24.7573L189.855 24.7202C189.628 24.7202 189.516 24.6089 189.536 24.3862C189.618 23.3842 189.745 22.3451 189.93 21.2875C190.361 18.8381 191.034 16.296 191.682 14.1065C191.74 13.8838 191.907 13.791 192.134 13.791L195.056 13.8838C195.32 13.8838 195.407 14.0322 195.308 14.2735C194.861 15.4239 194.36 16.6671 194.077 17.632C195.286 15.795 197.326 14.3662 199.474 14.3662C202.036 14.3662 204.073 16.5001 203.31 20.8421C202.269 26.7613 198.023 29.8045 191.939 30.1199Z" fill="white"/>
<path d="M174.662 29.6931C174.433 29.7117 174.317 29.6189 174.275 29.4334L173.714 26.8356C173.662 26.5944 173.801 26.4459 174.068 26.4274C176.453 26.2604 180.216 25.5367 180.741 22.5492C181.012 21.0091 180.044 20.0814 178.556 20.0814C177.237 20.0814 175.622 20.805 174.147 22.0111C173.673 24.4976 173.191 27.1325 172.858 29.4519C172.816 29.6931 172.68 29.823 172.435 29.823L169.666 29.823C169.421 29.823 169.327 29.7117 169.366 29.489L169.936 26.4645C169.426 27.1139 168.904 27.7262 168.395 28.2644C168.303 28.3571 168.218 28.4128 168.124 28.4128C168.03 28.4128 167.964 28.3571 167.886 28.2644L166.33 26.1861C166.267 26.1119 166.246 26.0191 166.262 25.9264C166.275 25.8521 166.329 25.7594 166.418 25.6851C167.984 24.2749 169.745 22.5121 170.999 20.9535L171.126 20.2298L168.083 20.2855C167.857 20.2855 167.748 20.1556 167.787 19.9329L168.204 17.5578C168.243 17.3351 168.379 17.2052 168.624 17.2052L171.724 17.1496L172.31 13.9209C172.349 13.6982 172.501 13.5869 172.727 13.5869L175.515 13.5869C175.741 13.5869 175.831 13.7168 175.792 13.9395L174.904 18.2444C176.306 17.4465 177.86 16.964 179.33 16.964C182.683 16.964 184.608 19.4134 184.021 22.7534C183.665 24.7759 182.38 26.8356 180.281 28.0602C178.957 28.8396 177.135 29.4519 174.662 29.6931Z" fill="white"/>
<path d="M156.147 27.0954C155.068 29.2664 153.229 30.0828 151.062 30.0828C148.689 30.0828 146.424 28.821 146.877 26.2418C147.347 23.5698 150.351 22.6606 152.612 22.6606C152.951 22.6606 153.287 22.6791 153.657 22.7163C153.681 22.475 153.73 22.1967 153.782 21.8998L148.149 21.8998C147.904 21.8998 147.81 21.7885 147.853 21.5473L148.234 19.3763C148.277 19.135 148.409 19.0237 148.654 19.0237L154.215 19.0051L154.373 18.0031L148.476 18.0031C148.231 18.0031 148.141 17.8733 148.18 17.6506L148.571 15.4239C148.61 15.2013 148.746 15.0714 148.991 15.0714L154.797 15.0528L154.991 13.7354C155.03 13.5127 155.166 13.3828 155.411 13.3828L158.391 13.3643C158.617 13.3643 158.729 13.4756 158.69 13.6983L158.452 15.0528L163.294 15.0528C163.52 15.0528 163.629 15.1827 163.59 15.4054L163.195 17.6506C163.156 17.8733 163.001 18.0031 162.775 18.0031L157.933 18.0031L157.757 19.0051L162.207 18.9866C162.452 18.9866 162.545 19.0979 162.503 19.3391L162.115 21.5473C162.072 21.7885 161.94 21.8998 161.695 21.8998L157.248 21.8998L156.971 23.5884C158.464 24.2007 159.99 25.1656 161.448 26.5201C161.545 26.6129 161.569 26.6871 161.553 26.7799C161.54 26.8541 161.505 26.9469 161.416 27.0211L159.053 29.322C158.961 29.4148 158.86 29.4519 158.766 29.4519C158.691 29.4519 158.603 29.4148 158.541 29.3406C157.833 28.5427 157.009 27.7634 156.147 27.0954ZM153.262 25.6109C152.735 25.3883 152.209 25.2769 151.7 25.2769C151.059 25.2769 150.213 25.481 150.08 26.2418C149.949 26.984 150.805 27.2624 151.426 27.2624C152.463 27.2624 152.979 26.5758 153.262 25.6109Z" fill="white"/>
<path d="M134.021 29.2849C133.81 29.3034 133.695 29.2107 133.655 29.0065L133.098 26.3902C133.046 26.149 133.185 26.0005 133.471 25.982C137.309 25.7964 138.959 23.6997 139.304 21.7328C139.637 19.8401 138.84 18.2629 137.105 17.632C136.463 20.3225 134.424 24.312 132.253 26.7984C131.472 27.7077 130.316 28.1715 129.224 28.1715C126.266 28.1715 125.253 25.147 125.706 22.5678C126.091 20.3782 127.513 17.966 130.248 16.129C131.916 14.9971 133.958 14.4219 135.879 14.4219C140.439 14.4219 143.533 17.5021 142.738 22.0297C142.059 25.8892 138.437 29.0251 134.021 29.2849ZM133.686 17.5763C131.468 18.1887 129.373 20.2483 128.985 22.4564C128.854 23.1987 128.938 23.9038 129.311 24.4604C129.401 24.5903 129.539 24.6645 129.689 24.6645C129.859 24.6645 130.064 24.5718 130.231 24.3677C131.677 22.6791 133.262 19.4504 133.686 17.5763Z" fill="white"/>
<path d="M104.601 22.6977C104.631 22.5307 104.741 22.4379 104.93 22.4379L106.641 22.4565L108.043 14.4776C108.076 14.2921 108.19 14.1807 108.397 14.1807L112.052 14.1807C112.381 13.8096 112.653 13.4385 112.844 13.1045C112.93 12.9375 113.053 12.8818 113.222 12.8818L116.678 13.0488C116.901 13.0674 116.972 13.1973 116.842 13.4014C116.665 13.6612 116.446 13.9395 116.234 14.1807L121.453 14.1807C121.641 14.1807 121.735 14.2921 121.702 14.4776L120.946 18.7825L122.793 20.0628C122.877 20.1185 122.921 20.1927 122.905 20.2855C122.895 20.3412 122.847 20.3968 122.8 20.4525C122.13 21.1576 121.137 22.1967 120.215 22.9389L119.491 27.0583C119.018 29.7488 117.971 30.4539 113.67 30.3797C113.481 30.3797 113.381 30.3055 113.354 30.1385L112.952 27.7077C112.94 27.6706 112.947 27.6335 112.953 27.5964C112.986 27.4108 113.162 27.3737 113.313 27.3737C116.138 27.4851 116.238 27.1325 116.345 26.5202L116.541 25.4068C113.2 27.3737 108.607 29.0623 104.446 30.1199C104.27 30.1571 104.148 30.1014 104.102 29.9344L103.471 27.5222C103.428 27.3366 103.526 27.2067 103.74 27.1696C106.179 26.7985 109.529 25.9635 112.523 24.7945C109.893 25.0728 107.267 25.2213 104.7 25.3512C104.49 25.3697 104.396 25.2584 104.41 25.0728L104.595 22.7348L104.601 22.6977ZM117.63 19.2093L110.452 19.2093L110.318 19.9701L117.496 19.9701L117.63 19.2093ZM109.885 22.4379C112.34 22.4008 114.821 22.3266 117.115 22.1411L117.206 21.6215L110.028 21.6215L109.885 22.4379ZM118.054 16.7971L110.876 16.7971L110.746 17.5393L117.924 17.5393L118.054 16.7971Z" fill="white"/>
<path d="M282.807 10.672C283.204 10.6402 283.711 10.6757 284.193 10.9356C284.274 10.9793 284.349 11.0283 284.418 11.0779C285.04 10.7282 285.636 10.6567 286.089 10.6893L286.09 10.6874L288.642 10.8538C288.661 10.855 288.68 10.8569 288.699 10.8586C289.182 10.9025 290.067 11.1301 290.478 12.0465C290.497 12.0887 290.513 12.1321 290.529 12.1744C290.76 12.2902 290.979 12.4522 291.167 12.6755C291.65 13.2509 291.702 13.9621 291.605 14.5145L291.361 15.9062C291.283 16.3453 291.076 16.8841 290.65 17.3759L290.638 17.4432C291.029 17.9935 291.068 18.6413 290.978 19.1533L290.747 20.471L290.7 20.6845C290.614 21.0203 290.45 21.3936 290.181 21.7541C290.19 21.9123 290.185 22.0896 290.156 22.2812C290.309 22.7049 290.315 23.1444 290.25 23.5142L290.005 24.906L289.959 25.1195C289.868 25.4728 289.692 25.8683 289.398 26.2458L289.529 26.4333C289.536 26.4432 289.543 26.4531 289.55 26.4631C290.161 27.3749 289.884 28.4099 289.618 28.9975C289.615 29.0049 289.612 29.0123 289.608 29.0197C288.66 31.0642 286.841 32.6716 284.598 32.6717C283.668 32.6717 282.911 32.3912 282.312 32.0215C281.976 32.164 281.622 32.2949 281.253 32.4053L281.254 32.4062C281.248 32.4083 281.241 32.409 281.234 32.411C281.229 32.4126 281.224 32.4152 281.218 32.4168L281.217 32.4158C280.705 32.5683 280.062 32.6212 279.449 32.3668C279.354 32.3276 279.268 32.2817 279.187 32.2341C278.194 32.588 277.152 32.633 276.237 32.6159L276.237 32.614C275.89 32.6089 275.421 32.5417 274.983 32.2696C274.8 32.3027 274.626 32.3196 274.468 32.3197L269.324 32.3197C268.763 32.3197 268.072 32.1449 267.589 31.5694C267.106 30.994 267.053 30.2828 267.15 29.7304L268.057 24.5722L268.104 24.3577C268.163 24.1256 268.26 23.8749 268.402 23.6229C268.408 23.5538 268.418 23.4861 268.429 23.4209L268.684 21.9743L268.73 21.7599C268.761 21.6405 268.803 21.5165 268.854 21.3896C268.843 21.1844 268.857 20.9861 268.889 20.8048L269.069 19.7804C268.762 19.2618 268.736 18.677 268.818 18.2069L269.138 16.3891L269.184 16.1746C269.294 15.7479 269.524 15.2571 269.942 14.8146L270.148 13.6421C270.245 13.0898 270.548 12.3794 271.233 11.8041C271.918 11.2286 272.671 11.0539 273.232 11.0539L277.999 11.0539C278.309 11.0539 278.658 11.1095 278.991 11.2549C279.43 11.0081 279.852 10.9059 280.173 10.8673L280.287 10.8557L282.807 10.6701L282.807 10.672ZM280.061 13.142C279.907 13.1606 279.8 13.2349 279.783 13.3276C279.774 13.3831 279.803 13.4383 279.827 13.5123C279.936 13.7535 280.047 13.977 280.117 14.2182L278.761 14.2182C278.572 14.2182 278.44 14.329 278.407 14.5145L278.162 15.9062C278.13 16.0918 278.223 16.2034 278.412 16.2034L281.84 16.2034L281.752 16.7045L278.794 16.7045C278.587 16.7046 278.474 16.8155 278.442 17.0008L278.262 18.0213C278.23 18.2067 278.304 18.3184 278.511 18.3185L281.469 18.3185L281.374 18.8571L277.682 18.8571C277.493 18.8571 277.361 18.9679 277.328 19.1533L277.096 20.471C277.064 20.6566 277.157 20.7682 277.346 20.7682L282.64 20.7682L282.63 20.824L282.303 23.217L281.06 23.217L281.164 22.6236C281.51 22.5865 281.837 22.5494 282.091 22.4937C282.23 22.4566 282.29 22.3263 282.229 22.1407L281.928 21.0645C281.882 20.8976 281.76 20.8424 281.581 20.8981C280.603 21.1022 279.108 21.1395 277.751 21.1395C277.525 21.1396 277.408 21.2692 277.429 21.4732L277.538 22.5678C277.547 22.7347 277.643 22.8275 277.831 22.8275L278.437 22.8092L278.366 23.217L276.952 23.217C276.746 23.2172 276.632 23.3288 276.599 23.5142L276.355 24.906C276.322 25.0913 276.397 25.202 276.604 25.2022L278.017 25.2022L277.906 25.8332L276.477 25.8149L276.459 25.8149C276.233 25.8149 276.172 25.9449 276.14 26.1304L276.068 27.3923C276.054 27.5778 276.151 27.6702 276.34 27.6702L277.593 27.6144C277.505 28.0041 277.306 28.1719 276.39 28.1348C276.239 28.1348 276.085 28.1532 276.052 28.3387C276.046 28.3758 276.04 28.4132 276.052 28.4503L276.368 30.0825C276.395 30.2495 276.495 30.3239 276.684 30.3239C278.674 30.361 279.531 29.9898 279.984 28.8023L280.532 30.0825C280.6 30.2309 280.722 30.2872 280.901 30.2316C281.656 30.0089 282.358 29.6561 282.97 29.2851C283.423 29.8245 284.05 30.3149 284.841 30.3739L285.001 30.3797C285.905 30.3796 286.842 29.7674 287.479 28.3945C287.571 28.1904 287.579 28.0413 287.504 27.9299L286.841 26.9845C286.798 26.9102 286.729 26.8729 286.672 26.8729C286.597 26.873 286.486 26.966 286.423 27.1143C286.127 27.7264 285.918 27.9492 285.711 27.9492C285.579 27.9491 285.459 27.8751 285.313 27.7453L285.279 27.726C285.57 27.466 286.886 26.4085 286.944 26.0746C286.961 25.9819 286.936 25.9073 286.836 25.8332L286.12 25.2955C286.07 25.2585 285.998 25.2397 285.942 25.2397C285.848 25.2398 285.766 25.277 285.671 25.3878C285.412 25.6847 285.14 25.9452 284.856 26.1679C284.829 25.8895 284.828 25.5733 284.837 25.2022L287.324 25.2022C287.512 25.2021 287.644 25.0913 287.677 24.906L287.922 23.5142C287.954 23.3287 287.861 23.2171 287.673 23.217L285.035 23.217C285.141 22.4007 285.247 21.5845 285.391 20.7682L288.066 20.7682C288.254 20.7682 288.387 20.6566 288.419 20.471L288.651 19.1533C288.684 18.9679 288.59 18.8571 288.401 18.8571L284.577 18.8571L284.672 18.3185L287.855 18.3185C288.044 18.3185 288.177 18.2068 288.209 18.0213L288.389 17.0008C288.421 16.8154 288.327 16.7045 288.139 16.7045L284.956 16.7045L285.044 16.2034L288.679 16.2034C288.868 16.2034 289.001 16.0918 289.033 15.9062L289.278 14.5145C289.31 14.329 289.217 14.2182 289.028 14.2182L287.672 14.2182C287.862 13.9956 288.058 13.7352 288.233 13.494C288.363 13.2901 288.291 13.1606 288.088 13.142L285.536 12.9746C285.37 12.9561 285.243 13.03 285.157 13.1968C284.966 13.5308 284.698 13.8842 284.413 14.2182L283.301 14.2182L283.304 14.199L283.289 14.1807C283.197 13.8469 283.058 13.4573 282.925 13.142C282.857 12.9936 282.754 12.9378 282.581 12.9563L280.061 13.142ZM282.124 25.2022C282.097 25.9999 282.102 26.7239 282.198 27.3548C281.527 27.6331 280.873 27.8193 280.228 27.9492L280.319 27.4298L281.45 27.3182C281.604 27.2997 281.7 27.1882 281.732 27.0027L281.918 25.9447C281.954 25.7407 281.857 25.6482 281.647 25.6668L280.613 25.7591L280.711 25.2022L282.124 25.2022ZM273.54 26.4458L273.315 27.726L272.242 27.726L272.467 26.4458L273.54 26.4458ZM271.296 21.6819C271.144 21.7058 271.039 21.812 271.011 21.9743L270.756 23.4209C270.724 23.6065 270.818 23.7181 271.006 23.7181L275.828 23.7181C276.017 23.7181 276.15 23.6065 276.182 23.4209L276.437 21.9743C276.469 21.7888 276.375 21.6771 276.187 21.6771L271.365 21.6771L271.296 21.6819ZM287.269 21.0087C287.201 20.8607 287.072 20.8425 286.893 20.8981L285.692 21.3059C285.572 21.3429 285.484 21.4172 285.467 21.5098C285.458 21.5654 285.463 21.6398 285.51 21.6954C285.708 22.0665 285.863 22.4753 285.926 22.865C285.969 23.0502 286.091 23.1056 286.293 23.0314L287.577 22.5861C287.778 22.5118 287.857 22.3819 287.814 22.1965C287.701 21.7698 287.509 21.3612 287.269 21.0087ZM271.828 19.0418C271.64 19.0418 271.507 19.1535 271.474 19.339L271.216 20.8048C271.188 20.9672 271.256 21.0733 271.399 21.0972L271.466 21.102L276.288 21.102C276.476 21.102 276.609 20.9903 276.642 20.8048L276.9 19.339C276.932 19.1535 276.839 19.0418 276.65 19.0418L271.828 19.0418ZM271.818 16.0919C271.63 16.092 271.498 16.2037 271.465 16.3891L271.146 18.2069C271.113 18.3923 271.206 18.5039 271.394 18.5041L277.197 18.5041C277.385 18.5041 277.518 18.3925 277.551 18.2069L277.87 16.3891C277.903 16.2035 277.809 16.0919 277.621 16.0919L271.818 16.0919ZM269.472 29.7958C269.47 29.9417 269.562 30.0267 269.727 30.0267L274.871 30.0267C275.059 30.0266 275.191 29.9158 275.224 29.7304L276.13 24.5722C276.163 24.3867 276.07 24.2751 275.882 24.275L270.738 24.275C270.55 24.275 270.417 24.3867 270.384 24.5722L269.478 29.7304L269.472 29.7958ZM272.195 15.2387C272.162 15.4241 272.256 15.535 272.444 15.535L277.211 15.535C277.399 15.5348 277.531 15.4239 277.564 15.2387L277.844 13.6421C277.877 13.457 277.784 13.346 277.596 13.3459L272.829 13.3459L272.761 13.3507C272.609 13.3745 272.504 13.48 272.475 13.6421L272.195 15.2387Z" fill="#262626"/>
<path d="M250.086 13.6239C250.184 13.0715 250.486 12.3603 251.171 11.7849C251.857 11.2098 252.609 11.0348 253.169 11.0347L252.766 13.3276L252.699 13.3325C252.547 13.3562 252.442 13.4616 252.414 13.6239L250.871 22.4005C250.838 22.5859 250.931 22.6975 251.12 22.6977L257.996 22.6977L256.717 23.5508L253.947 23.5508C253.74 23.5508 253.626 23.6626 253.593 23.848L252.898 27.8001C252.598 29.5072 253.397 29.8971 255.393 30.0085C256.046 30.0456 257.704 30.0456 258.37 30.0085C261.963 29.8229 262.604 29.1736 263.173 26.6873C263.203 26.5203 263.166 26.4085 263.01 26.3343L260.539 25.2773C260.348 25.1846 260.178 25.2954 260.139 25.5177C259.899 26.668 259.677 26.9656 258.879 27.0028C258.327 27.0399 257.388 27.0213 256.958 27.0028C256.455 26.9657 256.377 26.8728 256.455 26.4276L256.847 24.201C257.656 24.7391 258.381 25.4438 258.816 26.0746C258.878 26.1488 258.928 26.1861 259.003 26.1862C259.079 26.1862 259.142 26.1493 259.227 26.0939L261.389 24.4049C261.477 24.3307 261.547 24.256 261.56 24.1818C261.621 23.8289 260.096 22.8646 259.805 22.6977L265.91 22.6977C266.098 22.6976 266.231 22.586 266.264 22.4005L267.806 13.6239C267.835 13.4615 267.766 13.3562 267.622 13.3325L267.557 13.3276L267.96 11.0347C268.52 11.0347 269.212 11.2094 269.695 11.7849C270.118 12.2886 270.211 12.8963 270.162 13.4104L270.133 13.6239L268.591 22.4005L268.544 22.615C268.48 22.8654 268.37 23.1365 268.209 23.4085C268.618 24.5549 268.87 25.7879 268.958 26.9316L268.98 27.2663C269.006 27.7967 268.864 28.4776 268.37 29.1265C267.9 29.7436 267.292 30.0922 266.773 30.2662L266.773 30.2682L264.149 31.1588L264.148 31.1569C263.753 31.2923 263.196 31.3969 262.629 31.2646C261.985 31.6384 261.316 31.8569 260.688 31.9946C259.91 32.1648 259.04 32.2478 258.099 32.2966C257.344 32.3387 255.598 32.3396 254.858 32.2976L254.858 32.2966C253.985 32.2479 252.826 32.143 251.918 31.5858C251.846 31.6202 251.773 31.6538 251.696 31.6839C250.913 31.9918 250.256 31.8959 249.837 31.7542L249.673 31.6916L247.394 30.7269C246.878 30.5088 246.302 30.0333 246.154 29.1851C246.016 28.393 246.328 27.6914 246.587 27.2779L246.615 27.2327C247.257 26.2505 247.88 24.8614 248.286 23.3979C248.329 23.2381 248.399 23.0439 248.503 22.8343C248.504 22.6831 248.52 22.5368 248.544 22.4005L250.086 13.6239ZM250.965 23.3661C250.767 23.3105 250.619 23.4032 250.561 23.6258C250.098 25.2957 249.375 26.9472 248.55 28.2089C248.446 28.3759 248.457 28.5242 248.632 28.5984L250.912 29.5631C251.087 29.6373 251.229 29.582 251.337 29.3967C252.092 28.0979 252.881 26.0748 253.317 24.3491C253.371 24.145 253.319 24.0152 253.14 23.9596L250.965 23.3661ZM265.391 23.1805C265.304 23.0321 265.179 22.9951 265 23.0507L262.631 23.774C262.47 23.8295 262.401 23.9036 262.384 23.9961C262.375 24.0518 262.384 24.1078 262.412 24.1635C263.06 25.4067 263.377 27.1325 263.385 28.8023C263.406 29.0064 263.525 29.0805 263.727 29.0062L266.351 28.1156C266.508 28.0669 266.603 27.9617 266.619 27.8242L266.621 27.7636C266.546 26.2606 266.117 24.5165 265.391 23.1805ZM257.581 19.061L257.395 20.1181L254.55 20.1181L254.736 19.061L257.581 19.061ZM263.572 19.061L263.386 20.1181L260.447 20.1181L260.633 19.061L263.572 19.061ZM258.132 15.9246L257.959 16.9085L255.115 16.9085L255.288 15.9246L258.132 15.9246ZM264.123 15.9246L263.951 16.9085L261.011 16.9085L261.184 15.9246L264.123 15.9246ZM267.96 11.0347L267.557 13.3276L252.766 13.3276L253.169 11.0347L267.96 11.0347Z" fill="#262626"/>
<path d="M234.483 30.1306C234.482 30.2553 234.55 30.3353 234.673 30.3556L234.738 30.3614L237.696 30.3614L237.765 30.3556C237.895 30.3351 237.991 30.2552 238.034 30.1306L238.05 30.0642L239.515 21.7329C240.7 23.4585 242.325 25.0359 244.096 26.1121C244.121 26.1306 244.147 26.1442 244.173 26.1534L244.255 26.1679C244.311 26.1679 244.372 26.1465 244.439 26.089L244.508 26.0188L246.672 23.4584C246.72 23.4028 246.751 23.3281 246.757 23.2911C246.774 23.1985 246.734 23.1062 246.631 23.0506C244.904 22.0487 243.127 20.5824 241.854 18.9311C241.792 18.8569 241.741 18.8196 241.665 18.8196C241.59 18.8197 241.527 18.857 241.439 18.9311L239.75 20.397L240.105 18.3743C240.517 17.8547 240.894 17.3164 241.23 16.7969L247.014 16.7969L247.081 16.7921C247.234 16.7683 247.339 16.6622 247.367 16.4997L247.837 13.8277C247.865 13.6655 247.797 13.56 247.654 13.5363L247.588 13.5315L247.991 11.2385C248.552 11.2386 249.243 11.4143 249.726 11.9897C250.149 12.4932 250.242 13.1003 250.194 13.6142L250.165 13.8277L249.695 16.4997L249.649 16.7142C249.517 17.228 249.21 17.8352 248.61 18.3387C247.925 18.9141 247.172 19.0888 246.611 19.0889L245.438 19.0889C246.266 19.8387 247.182 20.5054 248.084 21.0289L248.083 21.0298C248.73 21.4025 249.207 22.1344 249.113 23.092L249.086 23.2911L249.033 23.5219C248.974 23.7401 248.896 23.9202 248.836 24.0423C248.746 24.2276 248.603 24.4744 248.385 24.73L248.385 24.729L246.229 27.2807L246.221 27.2903C245.757 27.8335 244.927 28.4599 243.852 28.4599C243.312 28.4598 242.885 28.2951 242.573 28.0905C242.006 27.7436 241.456 27.3528 240.929 26.9287L240.378 30.0642C240.28 30.6166 239.978 31.3277 239.293 31.9032C238.607 32.4786 237.854 32.6534 237.294 32.6534L234.336 32.6534C233.775 32.6533 233.083 32.4786 232.6 31.9032C232.117 31.3277 232.065 30.6165 232.162 30.0642L232.665 27.2028C232.014 27.5436 231.348 27.8557 230.67 28.1319L230.668 28.1319C230.196 28.3237 229.504 28.4791 228.797 28.2589C228.076 28.0339 227.672 27.5219 227.48 27.0431L227.479 27.0441L226.363 24.2789L226.355 24.2558C226.195 23.8458 226.044 23.0688 226.519 22.1657C227.011 21.2297 227.844 20.7823 228.384 20.5999C229.547 20.2067 230.627 19.6796 231.593 19.0889L230.201 19.0889C229.64 19.0888 228.949 18.9141 228.466 18.3387C227.983 17.7632 227.93 17.052 228.027 16.4997L228.497 13.8277C228.594 13.2755 228.897 12.565 229.582 11.9897C230.267 11.4143 231.02 11.2386 231.581 11.2385L231.178 13.5315L231.111 13.5363C230.959 13.56 230.854 13.6655 230.825 13.8277L230.355 16.4997C230.323 16.6851 230.416 16.7968 230.604 16.7969L237.331 16.7969C235.702 18.9864 232.59 21.473 228.804 22.7534L228.728 22.7842C228.569 22.8646 228.528 22.9968 228.584 23.143L229.7 25.9082C229.757 26.054 229.874 26.1003 230.025 26.0601L230.091 26.038C232.141 25.203 234.087 23.9966 235.807 22.5678L234.49 30.0642L234.483 30.1306ZM247.991 11.2385L247.588 13.5315L231.178 13.5315L231.581 11.2385L247.991 11.2385Z" fill="#262626"/>
<path d="M220.001 17.6317C221.737 18.2626 222.533 19.8403 222.2 21.7329L222.165 21.9176C221.75 23.8288 220.085 25.8023 216.368 25.9822C216.082 26.0008 215.942 26.1489 215.994 26.39L216.552 29.0062C216.591 29.2103 216.706 29.3037 216.917 29.2851C221.196 29.0335 224.728 26.0822 225.562 22.3889L225.633 22.0301C226.404 17.644 223.525 14.6157 219.199 14.4308L218.775 14.4221C216.854 14.4222 214.813 14.9976 213.144 16.1294L212.891 16.3025C210.321 18.1162 208.975 20.4467 208.602 22.5678L208.564 22.8111C208.225 25.252 209.189 27.9887 211.849 28.1627L212.12 28.1713C213.213 28.1712 214.368 27.7078 215.15 26.7988C217.32 24.3124 219.359 20.3223 220.001 17.6317ZM216.582 17.5759C216.159 19.4499 214.574 22.6787 213.128 24.3673C212.96 24.5715 212.755 24.6645 212.585 24.6645C212.472 24.6645 212.367 24.6229 212.283 24.5472L212.207 24.4606C211.834 23.904 211.75 23.1984 211.881 22.4562C212.269 20.2482 214.365 18.1883 216.582 17.5759ZM227.864 22.513C226.744 27.467 222.016 31.2578 216.655 31.5733L216.655 31.5714C216.15 31.6036 215.536 31.5165 215.017 31.1164C214.564 30.7669 214.357 30.3123 214.262 29.9459C213.413 30.2955 212.535 30.4633 211.718 30.4633C209.317 30.4633 207.756 29.1983 206.938 27.6394C206.145 26.1301 205.978 24.2607 206.275 22.5678C206.785 19.6692 208.658 16.5868 212.039 14.3154C214.236 12.8287 216.82 12.1302 219.178 12.1301C224.829 12.1301 229.012 16.0541 227.962 22.0301L227.864 22.513Z" fill="#262626"/>
<path d="M197.57 20.3873C197.589 20.2214 197.595 20.0832 197.592 19.9699C196.858 20.5556 195.972 21.8073 195.44 23.8595C195.466 23.8469 195.492 23.8357 195.517 23.8229C196.223 23.4605 196.796 22.9068 197.197 21.8214C197.374 21.3379 197.479 20.947 197.533 20.6383L197.57 20.3873ZM205.512 21.4828C204.825 24.6555 203.256 27.3278 200.806 29.261C198.243 31.2831 195.047 32.2334 191.66 32.4091L191.659 32.4072C191.162 32.4361 190.605 32.3465 190.123 32.0205C189.633 31.6897 189.372 31.2202 189.256 30.7711L189.256 30.7721L188.554 28.1184L188.555 28.1174C188.475 27.8201 188.423 27.3683 188.546 26.8555C188.272 26.7551 187.996 26.5977 187.756 26.3496C187.23 25.8051 187.139 25.1133 187.182 24.5962L187.182 24.5972C187.269 23.5349 187.404 22.4249 187.604 21.2876C188.056 18.7117 188.757 16.0704 189.419 13.8364L189.42 13.8364C189.597 13.2301 190.007 12.5359 190.76 12.0387C191.463 11.5743 192.141 11.4992 192.536 11.4991L192.611 11.5001L195.533 11.5924L195.532 11.5944C196.052 11.6081 196.854 11.7732 197.351 12.5033C198.154 12.2294 199.002 12.0743 199.877 12.0743C201.842 12.0743 203.591 12.9037 204.677 14.4962C205.755 16.0757 206.091 18.2599 205.637 20.8422L205.512 21.4828ZM199.784 21.0106C199.696 21.3932 199.57 21.8071 199.407 22.2523C198.151 25.6478 195.173 26.8358 191.204 26.7988C190.922 26.7988 190.779 26.9654 190.85 27.2066L191.551 29.8603C191.588 30.0225 191.696 30.114 191.863 30.1219L191.939 30.1199C197.833 29.8144 202.002 26.9488 203.203 21.3886L203.31 20.8422C204.049 16.6357 202.161 14.5012 199.713 14.3721L199.475 14.3663C197.327 14.3663 195.286 15.7948 194.077 17.6317C194.36 16.6668 194.861 15.4234 195.308 14.273C195.407 14.032 195.32 13.8835 195.056 13.8835L192.133 13.7912C191.907 13.7913 191.74 13.8841 191.682 14.1066C191.034 16.2961 190.361 18.8383 189.931 21.2876L189.802 22.0772C189.684 22.8625 189.598 23.6352 189.537 24.3866C189.516 24.609 189.629 24.7203 189.855 24.7203L192.543 24.7569C192.757 24.7568 192.899 24.6721 192.96 24.4895L192.982 24.4048C193.556 21.6386 194.786 19.4758 196.331 18.2684L196.643 18.0405C197.265 17.6137 197.844 17.4278 198.334 17.4278C199.521 17.4281 200.219 18.5975 199.86 20.6383L199.784 21.0106Z" fill="#262626"/>
<path d="M178.425 22.4351C178.425 22.4286 178.423 22.4233 178.423 22.4187C178.39 22.4022 178.311 22.3735 178.153 22.3735C177.763 22.3735 177.09 22.5643 176.273 23.0804C176.222 23.3503 176.171 23.6208 176.121 23.8912C176.602 23.7881 177.057 23.656 177.448 23.4834C178.224 23.1413 178.358 22.8665 178.413 22.5495L178.425 22.4351ZM175.918 11.2943L175.515 13.5873L172.727 13.5873L173.13 11.2943L175.918 11.2943ZM180.683 22.8227C179.982 25.5813 176.378 26.2658 174.069 26.4276C173.802 26.4461 173.662 26.5943 173.714 26.8354L174.275 29.4332C174.317 29.6188 174.433 29.7115 174.663 29.6929C177.135 29.4517 178.958 28.8391 180.282 28.0598C182.25 26.9115 183.502 25.0296 183.944 23.1324L184.021 22.7534C184.59 19.5176 182.801 17.1176 179.64 16.971L179.331 16.9642C177.861 16.9642 176.306 17.4465 174.903 18.2444L175.792 13.9393C175.826 13.7447 175.762 13.6211 175.594 13.5931L175.515 13.5873L175.918 11.2943C176.487 11.2943 177.238 11.4709 177.737 12.1253C178.211 12.7485 178.202 13.4751 178.12 13.9393C178.116 13.9623 178.112 13.9855 178.107 14.0086L177.934 14.8415C178.532 14.7313 179.134 14.6722 179.733 14.6722C184.452 14.6724 187.144 18.2276 186.348 22.7534L186.246 23.2574C185.657 25.7846 183.969 28.3738 181.227 29.9738L181.226 29.9728C179.464 31.0076 177.239 31.7057 174.495 31.9734C174.482 31.9747 174.468 31.9762 174.454 31.9773C174.119 32.0044 173.715 31.9797 173.317 31.8339C172.829 32.0538 172.369 32.1148 172.033 32.1148L169.263 32.1148C168.828 32.1148 168.06 32.0202 167.507 31.3934C167.291 31.1485 167.16 30.8819 167.085 30.6201C166.6 30.4876 166.278 30.2271 166.104 30.0517L165.956 29.8853L165.894 29.8074L164.338 27.7299L164.34 27.727C164.021 27.3083 163.859 26.7745 163.902 26.1938L163.935 25.9265L163.964 25.7841C164.118 25.1184 164.519 24.545 164.981 24.1336L164.979 24.1317C165.573 23.5974 166.186 23.0156 166.782 22.4226C166.467 22.3063 166.158 22.115 165.905 21.8137C165.406 21.2197 165.362 20.4878 165.459 19.9334L165.877 17.5577C165.958 17.0935 166.209 16.3424 166.939 15.7091C167.682 15.0642 168.488 14.9149 169.015 14.9127L169.805 14.8982L169.985 13.9076C170.086 13.3485 170.401 12.5851 171.166 11.9859C171.9 11.4105 172.658 11.2943 173.13 11.2943L172.727 13.5873L172.646 13.5921C172.465 13.6164 172.344 13.7261 172.31 13.921L171.724 17.1499L168.624 17.2056L168.537 17.2114C168.347 17.2395 168.239 17.3631 168.205 17.5577L167.787 19.9334C167.748 20.1557 167.857 20.2853 168.083 20.2854L171.126 20.2296L170.998 20.9539C169.745 22.5124 167.984 24.2749 166.418 25.685C166.329 25.7593 166.275 25.8522 166.262 25.9265C166.246 26.0192 166.268 26.112 166.33 26.1861L167.886 28.2646C167.964 28.3573 168.03 28.4128 168.124 28.4128C168.218 28.4128 168.303 28.3574 168.395 28.2646C168.904 27.7265 169.426 27.1136 169.936 26.4641L169.366 29.489C169.327 29.7117 169.421 29.8228 169.666 29.8228L172.436 29.8228C172.68 29.8227 172.816 29.6926 172.858 29.4515C173.108 27.7122 173.441 25.7955 173.793 23.897L174.148 22.0109C175.622 20.8049 177.237 20.0815 178.556 20.0815L178.829 20.0921C180.16 20.1995 180.995 21.1055 180.741 22.5495L180.683 22.8227Z" fill="#262626"/>
<path d="M144.549 26.242C144.751 25.0967 145.24 24.1316 145.891 23.3421C145.412 22.6997 145.454 21.9555 145.526 21.5473L145.908 19.3765L145.944 19.1995C145.956 19.1482 145.971 19.0939 145.988 19.037C145.768 18.5277 145.79 18.0058 145.852 17.651L146.244 15.4244C146.325 14.9602 146.576 14.2092 147.306 13.5758C148.051 12.9292 148.86 12.7808 149.386 12.7794L153.012 12.7669C153.174 12.4743 153.401 12.1685 153.726 11.8868C154.468 11.2431 155.273 11.0931 155.8 11.0904L158.779 11.0722C158.784 11.0721 158.789 11.0722 158.794 11.0722C159.265 11.0722 159.983 11.1883 160.515 11.7637C160.798 12.0694 160.947 12.4181 161.014 12.7601L163.697 12.7601L163.294 15.0531L158.453 15.0531L158.691 13.6979C158.73 13.4755 158.617 13.3642 158.391 13.3642L155.411 13.3824L155.324 13.3892C155.134 13.4171 155.025 13.5407 154.991 13.7354L154.797 15.0531L148.991 15.0714L148.904 15.0772C148.714 15.1051 148.605 15.2296 148.571 15.4244L148.18 17.651C148.141 17.8734 148.231 18.003 148.476 18.003L154.373 18.003L154.216 19.0052L148.654 19.0235C148.41 19.0237 148.277 19.1354 148.235 19.3765L147.853 21.5473C147.811 21.7883 147.904 21.8992 148.149 21.8993L153.782 21.8993C153.73 22.1961 153.681 22.4748 153.658 22.7159C153.287 22.6788 152.952 22.6602 152.613 22.6601C150.352 22.6601 147.347 23.57 146.878 26.242L146.843 26.4795C146.574 28.8206 148.624 30.0047 150.841 30.0786L151.063 30.0825C153.23 30.0825 155.069 29.2661 156.148 27.0951C157.01 27.7631 157.833 28.5431 158.541 29.3409C158.588 29.3965 158.649 29.4309 158.708 29.4448L158.767 29.4515C158.861 29.4515 158.962 29.4144 159.053 29.3217L161.416 27.021C161.483 26.9653 161.519 26.8992 161.538 26.8383L161.554 26.7796C161.57 26.687 161.545 26.6126 161.448 26.5199C159.99 25.1655 158.465 24.2006 156.971 23.5883L157.249 21.8993L161.696 21.8993L161.781 21.8945C161.944 21.8735 162.046 21.7887 162.095 21.632L162.115 21.5473L162.503 19.339C162.545 19.098 162.452 18.9871 162.207 18.987L157.758 19.0052L157.934 18.003L162.776 18.003C163.002 18.0029 163.156 17.8733 163.195 17.651L163.59 15.4051C163.624 15.2105 163.545 15.0868 163.373 15.0589L163.294 15.0531L163.697 12.7601C164.26 12.7602 164.973 12.9308 165.472 13.5248C165.971 14.1189 166.015 14.8507 165.917 15.4051L165.522 17.651L165.477 17.8664C165.381 18.2419 165.193 18.6722 164.862 19.0783C164.854 19.1751 164.844 19.2628 164.83 19.339L164.442 21.5473L164.406 21.7243C164.299 22.1726 164.031 22.8554 163.342 23.4344C163.017 23.7074 162.684 23.8809 162.376 23.9942C162.561 24.1463 162.744 24.3033 162.926 24.4655L163.228 24.7396C163.234 24.7459 163.241 24.7524 163.248 24.7588C163.401 24.9059 163.626 25.1581 163.773 25.5369C163.916 25.9064 163.944 26.2842 163.903 26.6325L163.881 26.7796L163.844 26.9556C163.743 27.3693 163.498 27.9766 162.913 28.5215L160.576 30.7942C159.939 31.4188 159.129 31.7444 158.364 31.7445C157.609 31.7445 157.016 31.4211 156.643 30.9962L156.641 30.9981C156.487 30.8243 156.327 30.6512 156.162 30.4807C155.771 30.8116 155.348 31.1043 154.893 31.354C153.496 32.1214 152.02 32.3755 150.66 32.3755C149.096 32.3755 147.457 31.9668 146.239 31.003C144.96 29.9908 144.176 28.3674 144.549 26.242ZM151.07 25.3571L152.333 25.5033C152.316 25.4621 152.298 25.4215 152.277 25.3831C152.263 25.3588 152.246 25.3382 152.233 25.3167C152.572 25.367 152.917 25.4652 153.262 25.611L153.206 25.7889C152.913 26.6592 152.398 27.2624 151.427 27.2624L151.352 27.2576C150.739 27.2362 149.955 26.9546 150.08 26.242C150.173 25.713 150.61 25.4529 151.083 25.3436C151.082 25.3449 151.081 25.3462 151.08 25.3475C151.077 25.3507 151.073 25.3539 151.07 25.3571Z" fill="#262626"/>
<path d="M137.106 17.6317C138.841 18.2627 139.637 19.8403 139.305 21.7329L139.268 21.9176C138.854 23.8289 137.189 25.8025 133.471 25.9822C133.185 26.0008 133.046 26.149 133.098 26.39L133.655 29.0062C133.695 29.2103 133.811 29.3037 134.021 29.2851C138.3 29.0333 141.833 26.0821 142.666 22.3889L142.738 22.0301C143.509 17.6442 140.629 14.6159 136.303 14.4308L135.88 14.4221C133.958 14.4221 131.916 14.9975 130.248 16.1294L129.996 16.3025C127.426 18.1162 126.079 20.4466 125.706 22.5678C125.253 25.147 126.266 28.1713 129.224 28.1713C130.317 28.1713 131.472 27.7078 132.253 26.7988C134.424 24.3124 136.463 20.3223 137.106 17.6317ZM133.686 17.5759C133.262 19.45 131.677 22.6788 130.231 24.3673C130.064 24.5714 129.859 24.6645 129.69 24.6645L129.58 24.6511C129.509 24.6331 129.443 24.5977 129.387 24.5472L129.311 24.4606C128.984 23.9737 128.88 23.3728 128.946 22.7332L128.985 22.4562C129.374 20.2483 131.468 18.1884 133.686 17.5759ZM144.969 22.513C143.849 27.4671 139.12 31.2579 133.759 31.5733L133.758 31.5714C133.254 31.6035 132.64 31.5162 132.121 31.1164C131.668 30.7668 131.46 30.3124 131.365 29.9459C130.516 30.2955 129.639 30.4633 128.821 30.4633C126.42 30.4633 124.861 29.1982 124.042 27.6394C123.249 26.1301 123.081 24.2607 123.379 22.5678C123.888 19.6692 125.762 16.5868 129.143 14.3154C131.34 12.8285 133.925 12.1301 136.283 12.1301C141.934 12.1302 146.115 16.0542 145.065 22.0301L144.969 22.513Z" fill="#262626"/>
<path d="M102.274 22.6977C102.362 22.1979 102.643 21.4472 103.395 20.8433C103.848 20.4789 104.312 20.2981 104.708 20.2133L105.716 14.478C105.794 14.0326 106.036 13.299 106.749 12.6765C107.484 12.0347 108.284 11.8888 108.8 11.8888L108.397 14.1808L108.324 14.1856C108.163 14.2094 108.071 14.3155 108.043 14.478L106.641 22.4563L104.93 22.438C104.741 22.438 104.63 22.5307 104.601 22.6977L104.594 22.7352L104.41 25.0724C104.396 25.2579 104.49 25.3698 104.7 25.3513C107.266 25.2215 109.893 25.0728 112.523 24.7945C109.529 25.9635 106.179 26.7981 103.74 27.1692C103.526 27.2063 103.428 27.3366 103.471 27.5222L104.102 29.9344C104.142 30.0806 104.241 30.1416 104.383 30.1297L104.446 30.12C108.607 29.0624 113.2 27.374 116.541 25.4071L116.345 26.52C116.238 27.1323 116.138 27.4854 113.312 27.374C113.162 27.3741 112.986 27.4109 112.953 27.5962C112.946 27.6333 112.941 27.6707 112.953 27.7078L113.354 30.1383C113.381 30.3053 113.481 30.3797 113.67 30.3797C117.702 30.4493 118.874 29.8338 119.395 27.5395L119.491 27.0586L120.215 22.9391C120.906 22.3823 121.638 21.6583 122.243 21.0337L122.799 20.4528C122.835 20.4109 122.871 20.3687 122.891 20.3268L122.905 20.2854C122.921 20.1927 122.877 20.1189 122.793 20.0633L120.945 18.7821L121.702 14.478C121.731 14.3156 121.663 14.2094 121.519 14.1856L121.452 14.1808L121.855 11.8888C122.416 11.8888 123.107 12.0635 123.591 12.639C124.013 13.1425 124.106 13.7495 124.058 14.2635L124.029 14.478L123.496 17.5135L124.371 18.1214L124.369 18.1223C124.793 18.4153 125.357 19.0469 125.261 20.07L125.232 20.2854L125.19 20.4778C125.079 20.9102 124.878 21.2333 124.768 21.3944C124.645 21.5733 124.514 21.7229 124.512 21.7243C124.478 21.7648 124.442 21.8049 124.405 21.8436C123.927 22.3465 123.182 23.1295 122.38 23.8634L121.818 27.0586L121.705 27.628C121.397 28.9993 120.746 30.6229 118.967 31.6657C118.088 32.1812 117.144 32.4181 116.258 32.54C115.362 32.6631 114.347 32.6911 113.226 32.6717L113.226 32.6698C112.836 32.6645 112.29 32.5816 111.81 32.2168C111.295 31.8263 111.088 31.2936 111.018 30.8635L111.018 30.8626L110.936 30.3643C108.845 31.1487 106.693 31.8174 104.664 32.3332C104.629 32.3422 104.593 32.3497 104.557 32.3572C104.096 32.4544 103.455 32.4803 102.852 32.1687C102.314 31.8903 102.018 31.4516 101.867 31.0395L101.811 30.8654L101.805 30.8414L101.174 28.4292L101.16 28.3734C101.05 27.8969 101.023 27.0265 101.694 26.1448C101.81 25.9924 101.934 25.8583 102.06 25.7399C102.052 25.6534 102.047 25.57 102.047 25.4898L102.054 25.3013L102.055 25.2898L102.24 22.9526C102.246 22.8804 102.255 22.8076 102.267 22.7352L102.274 22.6977ZM117.206 21.6214L117.115 22.1408C114.822 22.3263 112.341 22.4009 109.885 22.438L110.028 21.6214L117.206 21.6214ZM117.63 19.2092L117.496 19.97L110.319 19.97L110.452 19.2092L117.63 19.2092ZM118.054 16.7969L117.924 17.5395L110.746 17.5395L110.876 16.7969L118.054 16.7969ZM113.625 10.5894L113.738 10.5922L117.193 10.7596C117.22 10.7609 117.246 10.7622 117.273 10.7644C117.708 10.8007 118.609 10.9901 119.055 11.8888L121.855 11.8888L121.452 14.1808L116.235 14.1808C116.447 13.9397 116.665 13.6614 116.842 13.4017C116.972 13.1976 116.901 13.0673 116.678 13.0487L113.222 12.8814C113.052 12.8814 112.93 12.9376 112.844 13.1045C112.701 13.355 112.512 13.6263 112.287 13.9028L112.052 14.1808L108.397 14.1808L108.8 11.8888L111.074 11.8888C111.321 11.5631 111.658 11.2375 112.11 10.9866C112.74 10.6364 113.31 10.5894 113.625 10.5894Z" fill="#262626"/>
<path d="M103.58 49.2741C103.426 49.2741 103.348 49.2109 103.349 49.0591C103.392 48.0095 103.541 46.7954 103.763 45.5308C104.141 43.381 104.728 41.0667 105.39 38.9801C105.442 38.8284 105.545 38.7525 105.697 38.7651L107.646 38.8537C107.811 38.8663 107.872 38.9548 107.818 39.1192C107.192 40.9276 106.671 43.0142 106.326 44.9744C106.073 46.4161 105.91 47.7818 105.875 48.9326C105.871 49.097 105.777 49.1982 105.61 49.1982L103.58 49.2741ZM113.991 42.2049C113.196 42.0531 112.195 41.9773 111.155 41.9773C110.256 41.9773 109.335 42.0278 108.476 42.167C108.318 42.1922 108.226 42.129 108.242 41.9646L108.358 40.2068C108.372 40.055 108.454 39.9539 108.623 39.9412C109.671 39.8274 110.76 39.7642 111.8 39.7642C112.802 39.7642 113.767 39.8274 114.643 39.9539C114.78 39.9792 114.841 40.0677 114.802 40.2194L114.296 42.0026C114.254 42.167 114.14 42.2302 113.991 42.2049ZM113.404 48.7556C112.597 48.8947 111.629 48.9959 110.704 48.9959C109.048 48.9959 106.529 48.6418 106.9 46.5299C106.976 46.0999 107.161 45.632 107.434 45.1009C107.51 44.9618 107.611 44.8985 107.75 44.9112L109.294 45.0376C109.472 45.0503 109.503 45.1641 109.423 45.3285C109.323 45.5308 109.253 45.7079 109.227 45.8596C109.08 46.6943 110.289 46.7575 110.905 46.7575C111.688 46.7575 112.65 46.6184 113.688 46.3402C113.876 46.2896 113.966 46.3655 113.934 46.5425L113.656 48.49C113.63 48.6418 113.55 48.7303 113.404 48.7556ZM120.874 48.8441C120.733 48.8441 120.652 48.7935 120.625 48.6544L120.261 46.7828C120.226 46.6184 120.323 46.5046 120.513 46.5172C122.173 46.5678 123.719 46.4666 124.801 45.9355C125.756 45.4676 126.415 44.6456 126.55 43.8742C126.71 42.9637 126.112 42.129 124.379 42.129C122.787 42.129 120.726 42.6728 119.134 43.1154C118.973 43.1534 118.879 43.1028 118.854 42.951L118.582 41.1426C118.557 40.9909 118.639 40.8897 118.8 40.8518C120.441 40.4977 122.38 40.1309 124.448 39.9792L125.159 39.9539C128.485 39.9539 129.568 41.8255 129.219 43.811C128.941 45.3917 127.751 47.0484 126.04 47.8704C124.456 48.6291 122.484 48.8188 120.874 48.8441ZM133.231 47.4277C132.773 46.239 132.854 44.6077 133.245 42.3819C133.399 41.5094 133.593 40.5482 133.831 39.486C133.873 39.3216 133.976 39.2457 134.141 39.2583L136.232 39.486C136.384 39.4986 136.441 39.6124 136.389 39.7642C135.985 41.0414 135.695 42.1796 135.521 43.166C135.252 44.6962 135.277 45.7964 135.608 46.3275C135.688 46.454 135.793 46.5172 135.921 46.5172C136.255 46.5172 136.754 46.0873 137.29 45.2273C137.36 45.1262 137.435 45.0629 137.499 45.0629C137.551 45.0629 137.595 45.1009 137.638 45.1514L138.763 46.5678C138.816 46.631 138.83 46.6943 138.819 46.7575C138.81 46.8081 138.786 46.8713 138.737 46.9345C137.715 48.4394 136.512 49.1476 135.459 49.1476C134.496 49.1476 133.663 48.5533 133.231 47.4277ZM141.418 47.5289C141.245 47.5669 141.156 47.491 141.184 47.3266C141.494 45.1262 141.265 42.4831 139.762 40.9529C139.709 40.8897 139.68 40.8391 139.691 40.7759C139.702 40.7126 139.749 40.6621 139.835 40.6115L141.575 39.6251C141.633 39.5871 141.687 39.5745 141.738 39.5745C141.802 39.5745 141.862 39.5998 141.904 39.6504C143.428 41.2817 144.2 44.0512 143.724 46.8334C143.697 46.9851 143.604 47.0737 143.459 47.0989L141.418 47.5289ZM154.673 49.4764C152.157 49.4764 148.85 48.49 149.384 45.455C149.657 43.8995 150.939 42.3061 152.562 41.5473C151.102 41.5979 149.263 41.6864 147.756 41.7117C147.602 41.7117 147.526 41.6358 147.554 41.4714L147.838 39.6377C147.865 39.486 147.958 39.3974 148.124 39.3974C150.821 39.3974 155.43 39.3974 158.266 39.3342C158.433 39.3342 158.497 39.4101 158.47 39.5618L158.152 41.3702C158.128 41.5094 158.048 41.5979 157.892 41.6105C157.494 41.6105 157.125 41.6611 156.783 41.7117C155.142 41.9899 152.303 43.381 151.999 45.1135C151.808 46.2011 152.846 47.0863 155.68 47.0357C155.821 47.0357 155.885 47.1116 155.863 47.2381L155.854 47.2886L155.16 49.2614C155.11 49.4005 154.943 49.4764 154.673 49.4764ZM168.709 38.0696C168.838 38.0696 168.904 38.1328 168.879 38.2719L168.759 38.9548L171.083 38.9548C171.212 38.9548 171.277 39.0181 171.253 39.1572L171.144 39.7768L171.869 38.9422C171.966 38.8284 172.06 38.8031 172.164 38.8663L173.578 39.663C173.648 39.701 173.678 39.7515 173.667 39.8148C173.66 39.8527 173.626 39.9033 173.593 39.9412C173.201 40.3459 172.719 40.8265 172.166 41.2691L173.475 41.2691C173.604 41.2691 173.67 41.3323 173.645 41.4714L173.405 42.8372C173.383 42.9637 173.293 43.0395 173.164 43.0395L169.775 43.0395C169.27 43.2798 168.686 43.5327 168.062 43.7983C169.376 43.6971 170.788 43.558 172.03 43.3557C172.148 43.343 172.231 43.381 172.25 43.4948L172.539 44.7721C172.566 44.9112 172.499 44.9997 172.353 45.025C170.524 45.2779 167.767 45.4044 165.712 45.4044L165.551 45.809L171.715 45.809C171.843 45.809 171.907 45.8849 171.884 46.0114C171.798 46.5046 171.647 47.2886 171.454 47.9462C170.923 49.7293 169.556 49.9823 165.165 49.9064C165.037 49.9064 164.968 49.8558 164.948 49.7546L164.622 48.2497C164.613 48.2245 164.618 48.1992 164.622 48.1739C164.638 48.0853 164.713 48.0221 164.841 48.0221L164.854 48.0221C165.761 48.0474 166.465 48.0601 167.017 48.0601C168.738 48.0601 169.03 47.9336 169.112 47.7565C169.149 47.6933 169.18 47.5921 169.193 47.5163L162.735 47.5163C162.581 47.5163 162.532 47.4277 162.608 47.2886C162.924 46.7322 163.219 46.0746 163.48 45.4676C162.856 45.6573 162.249 45.8217 161.701 45.9481C161.578 45.9861 161.497 45.9355 161.466 45.8217L161.085 44.1903C161.058 44.0512 161.125 43.9627 161.281 43.9501C162.941 43.7857 164.779 43.4822 166.346 43.0395L161.788 43.0395C161.66 43.0395 161.596 42.9637 161.618 42.8372L161.858 41.4714C161.883 41.3323 161.971 41.2691 162.099 41.2691L166.041 41.2691L166.148 40.6621L163.169 40.6621C163.041 40.6621 162.975 40.5988 162.999 40.4597L163.228 39.1572C163.252 39.0181 163.341 38.9548 163.469 38.9548L166.448 38.9548L166.568 38.2719C166.592 38.1328 166.681 38.0696 166.809 38.0696L168.709 38.0696ZM169.444 41.2691C169.749 41.0667 170.018 40.8518 170.291 40.6115L168.468 40.6115L168.352 41.2691L169.444 41.2691ZM175.679 48.313C175.623 48.2624 175.609 48.1992 175.62 48.1359C175.629 48.0853 175.665 48.0221 175.739 47.9715C177.992 46.3275 180.652 44.418 181.607 43.5833L177.528 43.7098C177.374 43.7098 177.297 43.6339 177.326 43.4695L177.605 41.737C177.634 41.5726 177.737 41.4967 177.891 41.4967L185.469 41.4841C185.636 41.4841 185.699 41.5599 185.671 41.7243L185.458 43.0775C185.436 43.2039 185.382 43.2925 185.266 43.3683C184.497 43.8742 183.456 44.6077 182.534 45.2526C183.276 45.2653 183.86 45.6699 183.837 46.6057C183.825 47.4025 184.07 47.6174 184.853 47.6174C185.341 47.6174 185.913 47.5036 186.653 47.3139C186.693 47.3013 186.719 47.3013 186.745 47.3013C186.86 47.3013 186.913 47.3645 186.893 47.4783L186.884 47.5289L186.296 49.4132C186.261 49.5397 186.156 49.6282 186.023 49.6535C185.479 49.7546 184.931 49.8052 184.443 49.8052C182.889 49.8052 181.399 49.5144 181.516 47.6807C181.548 47.061 181.272 46.8081 180.925 46.8081C180.694 46.8081 180.432 46.9093 180.196 47.0863C179.208 47.883 178.362 48.6797 177.296 49.6282C177.234 49.6914 177.165 49.7167 177.101 49.7167C177.05 49.7167 177.003 49.6914 176.947 49.6408L175.679 48.313ZM185.253 41.1047C183.554 41.13 180.989 40.8897 179.594 40.6494C179.444 40.6241 179.397 40.523 179.45 40.3712L179.967 38.8157C180.02 38.664 180.123 38.5881 180.247 38.6134C181.608 38.8284 184.299 39.0813 185.921 39.056C186.062 39.056 186.126 39.1319 186.104 39.2583L186.093 39.3216L185.548 40.8897C185.497 41.0288 185.394 41.1047 185.253 41.1047ZM191.185 46.4666C191.127 46.5046 191.059 46.5299 191.007 46.5299C190.943 46.5299 190.883 46.5046 190.845 46.4287L190.031 44.9238C190.002 44.8732 189.998 44.8226 190.004 44.7847C190.018 44.7088 190.07 44.633 190.168 44.5824C192.849 43.0648 194.617 41.9899 196.194 41.0541L192.6 41.1932C192.446 41.1932 192.37 41.1173 192.396 40.9656L192.686 39.2457C192.715 39.0813 192.818 39.0054 192.972 39.0054L200.291 39.0054C200.458 39.0054 200.534 39.0813 200.505 39.2457L200.247 40.7126C200.225 40.8391 200.158 40.9276 200.045 40.9909L197.304 42.4831C197.46 42.4705 197.602 42.4705 197.756 42.4705C199.72 42.4705 201.242 43.7477 200.882 45.7964C200.655 47.0863 199.668 48.4647 197.913 49.2488C197.118 49.6029 196.068 49.8052 195.08 49.8052C194.13 49.8052 193.236 49.6282 192.663 49.2361C191.975 48.7682 191.706 48.0348 191.835 47.3013C192.084 45.8849 193.625 45.1514 194.909 45.1514C196.129 45.1514 197.248 45.7964 197.092 47.4151C197.756 47.0737 198.39 46.6057 198.521 45.8596C198.728 44.6835 197.314 44.1777 196.326 44.1777C195.401 44.1777 194.252 44.5065 192.989 45.2653L191.185 46.4666ZM194.953 47.8957C195.14 47.2001 194.753 46.7701 194.342 46.7701C194.111 46.7701 193.883 46.8966 193.839 47.1495C193.743 47.6933 194.532 47.883 194.953 47.8957Z" fill="#262626"/>
<defs>
<filter id="filter0_d_395_11351" x="0" y="0" width="64" height="62.3767" filterUnits="userSpaceOnUse" color-interpolation-filters="sRGB">
<feFlood flood-opacity="0" result="BackgroundImageFix"/>
<feColorMatrix in="SourceAlpha" type="matrix" values="0 0 0 0 0 0 0 0 0 0 0 0 0 0 0 0 0 0 127 0" result="hardAlpha"/>
<feOffset dy="1.37669"/>
<feComposite in2="hardAlpha" operator="out"/>
<feColorMatrix type="matrix" values="0 0 0 0 0 0 0 0 0 0 0 0 0 0 0 0 0 0 1 0"/>
<feBlend mode="normal" in2="BackgroundImageFix" result="effect1_dropShadow_395_11351"/>
<feBlend mode="normal" in="SourceGraphic" in2="effect1_dropShadow_395_11351" result="shape"/>
</filter>
<filter id="filter1_d_395_11351" x="90" y="0" width="216" height="62.3767" filterUnits="userSpaceOnUse" color-interpolation-filters="sRGB">
<feFlood flood-opacity="0" result="BackgroundImageFix"/>
<feColorMatrix in="SourceAlpha" type="matrix" values="0 0 0 0 0 0 0 0 0 0 0 0 0 0 0 0 0 0 127 0" result="hardAlpha"/>
<feOffset dy="1.37669"/>
<feComposite in2="hardAlpha" operator="out"/>
<feColorMatrix type="matrix" values="0 0 0 0 0 0 0 0 0 0 0 0 0 0 0 0 0 0 1 0"/>
<feBlend mode="normal" in2="BackgroundImageFix" result="effect1_dropShadow_395_11351"/>
<feBlend mode="normal" in="SourceGraphic" in2="effect1_dropShadow_395_11351" result="shape"/>
</filter>
</defs>
</svg>
