<svg width="373" height="152" viewBox="0 0 373 152" fill="none" xmlns="http://www.w3.org/2000/svg">
<path d="M258.186 133.65C258.011 133.65 257.886 133.575 257.811 133.425L256.486 130.85C256.461 130.8 256.436 130.725 256.436 130.675C256.436 130.55 256.561 130.45 256.761 130.425C260.761 130.175 263.236 128.9 263.886 127.225C263.361 127.85 262.311 128.175 261.236 128.175C258.536 128.175 256.811 126.425 256.811 123.725C256.811 120.875 258.786 118.95 261.611 118.95C262.236 118.95 262.811 119.05 263.261 119.2L263.236 117.6H253.086C252.861 117.6 252.736 117.475 252.736 117.25V114.75C252.736 114.525 252.861 114.4 253.086 114.4H263.161L263.111 112.025V112C263.111 111.8 263.236 111.675 263.461 111.675H266.261C266.486 111.675 266.611 111.8 266.611 112.025L266.586 114.4H273.461C273.686 114.4 273.811 114.525 273.811 114.75V117.25C273.811 117.475 273.686 117.6 273.461 117.6H266.561V118.875L266.586 121.925C266.986 122.7 267.311 123.8 267.311 125.15C267.311 130.275 262.961 133.15 258.236 133.65H258.186ZM260.086 123.575C260.086 124.625 260.736 125.4 261.811 125.4C263.036 125.4 263.561 124.5 263.561 123.375C263.561 123.125 263.536 122.925 263.511 122.75C263.411 122.4 263.111 122.1 262.886 121.925C262.611 121.75 262.261 121.625 261.886 121.625C260.811 121.625 260.086 122.55 260.086 123.575Z" fill="#262626"/>
<path d="M246.261 122C246.261 122.225 246.136 122.35 245.911 122.35H239.586L239.636 125.625C241.836 126.525 244.136 127.9 246.361 129.775C246.461 129.85 246.511 129.95 246.511 130.05C246.511 130.125 246.486 130.2 246.411 130.275L244.511 132.525C244.436 132.625 244.361 132.675 244.261 132.675C244.186 132.675 244.111 132.625 244.011 132.55C242.636 131.225 241.136 130.025 239.536 129.075C238.936 132.175 236.611 133.5 233.661 133.5C230.886 133.5 227.761 131.95 227.761 128.85C227.761 125.6 231.186 124.375 233.911 124.375C234.636 124.375 235.411 124.45 236.236 124.6L236.186 122.35H228.186C227.961 122.35 227.836 122.225 227.836 122V119.725C227.836 119.5 227.961 119.375 228.186 119.375H236.136L236.086 116.95H227.711C227.486 116.95 227.361 116.825 227.361 116.6V114.325C227.361 114.1 227.486 113.975 227.711 113.975H236.036L235.986 111.85C235.986 111.6 236.086 111.475 236.336 111.475L239.236 111.45C239.461 111.45 239.586 111.575 239.586 111.8V113.975L246.411 113.95C246.636 113.95 246.761 114.075 246.761 114.3V116.6C246.761 116.825 246.636 116.95 246.411 116.95H239.586V119.35H245.911C246.136 119.35 246.261 119.475 246.261 119.7V122ZM230.961 128.825C230.961 130.075 232.486 130.65 233.536 130.65C235.236 130.65 236.161 129.7 236.336 128L236.361 127.675C236.311 127.65 236.286 127.625 236.236 127.625C235.261 127.225 234.386 127.05 233.586 127.05C232.511 127.05 230.961 127.5 230.961 128.825Z" fill="#262626"/>
<path d="M217.674 132.875C217.649 133.075 217.549 133.2 217.324 133.225C215.724 133.45 214.224 133.55 212.899 133.55C208.849 133.55 202.749 132.575 202.749 127.4C202.749 126.925 202.799 126.425 202.899 125.9C202.949 125.7 203.074 125.6 203.274 125.575L206.074 125.2H206.149C206.349 125.2 206.449 125.35 206.399 125.575C206.324 125.975 206.274 126.35 206.274 126.7C206.274 129.9 209.874 130.3 212.324 130.3C213.799 130.3 215.524 130.125 217.474 129.775H217.574C217.774 129.775 217.874 129.875 217.849 130.1L217.674 132.875ZM201.799 120.675C201.799 120.475 201.924 120.35 202.149 120.35C205.274 120.35 208.349 120.25 211.299 120.05C210.974 119.2 210.674 118.35 210.399 117.5C207.924 117.65 205.374 117.775 202.674 117.85C202.449 117.85 202.324 117.725 202.299 117.525L201.974 115.2V115.125C201.974 114.925 202.099 114.825 202.299 114.825C204.824 114.775 207.299 114.7 209.624 114.575L209.049 112.2V112.075C209.049 111.925 209.149 111.825 209.349 111.8L211.999 111.55C212.024 111.525 212.049 111.525 212.049 111.525C212.249 111.525 212.349 111.65 212.399 111.825C212.549 112.625 212.724 113.475 212.949 114.35C214.999 114.175 216.874 113.975 218.549 113.725H218.624C218.824 113.725 218.924 113.825 218.949 114.05L219.199 116.425V116.5C219.199 116.675 219.099 116.8 218.924 116.8C217.224 116.975 215.524 117.15 213.799 117.275L214.749 119.775C216.849 119.6 218.849 119.375 220.749 119.1H220.824C221.024 119.1 221.124 119.2 221.149 119.4L221.474 121.75V121.825C221.474 122 221.374 122.125 221.199 122.125C219.499 122.35 217.774 122.55 216.024 122.7C216.599 123.775 217.224 124.8 217.874 125.675C217.924 125.775 217.949 125.85 217.949 125.9C217.949 126.025 217.874 126.1 217.724 126.15L215.124 127.075C215.074 127.1 215.024 127.1 214.974 127.1C214.849 127.1 214.749 127.05 214.674 126.925C213.824 125.65 213.099 124.325 212.449 123C209.174 123.225 205.824 123.375 202.399 123.4C202.174 123.4 202.049 123.3 202.024 123.075L201.799 120.725V120.675Z" fill="#262626"/>
<path d="M176.749 129.6C175.199 127.275 174.799 123.525 174.799 119.175C174.799 117.45 174.849 115.625 174.924 113.775C174.949 113.525 175.074 113.425 175.299 113.45L178.249 113.75C178.474 113.775 178.574 113.925 178.549 114.15C178.299 116.3 178.149 118.45 178.149 120.45C178.149 123.825 178.599 126.7 179.749 128.05C180.024 128.375 180.349 128.55 180.724 128.55C181.574 128.55 182.599 127.6 183.449 125.325C183.499 125.15 183.599 125.075 183.699 125.075C183.774 125.075 183.849 125.1 183.924 125.175L185.799 127.15C185.874 127.225 185.924 127.325 185.924 127.425C185.924 127.525 185.899 127.625 185.849 127.725C184.524 130.8 182.599 132.175 180.749 132.175C179.224 132.175 177.774 131.275 176.749 129.6ZM187.299 116.075C187.199 116 187.149 115.925 187.149 115.85C187.149 115.75 187.199 115.675 187.324 115.6L189.549 114.15C189.624 114.1 189.699 114.075 189.774 114.075C189.874 114.075 189.949 114.1 190.024 114.175C193.699 117.475 195.849 122.675 195.874 128C195.874 128.225 195.774 128.35 195.574 128.4L192.824 129H192.724C192.549 129 192.449 128.9 192.449 128.675C192.324 124.175 190.899 119.175 187.299 116.075Z" fill="#262626"/>
<path d="M165.374 132.525C165.324 132.75 165.199 132.85 164.974 132.85C156.824 132.675 153.524 128.975 153.524 125.05C153.524 121.55 156.074 118.25 159.174 116.8C155.824 116.9 151.674 117.025 148.649 117.075C148.424 117.075 148.299 116.975 148.299 116.725L148.249 114.05V114C148.249 113.8 148.374 113.7 148.574 113.7C153.774 113.7 162.749 113.675 168.149 113.575C168.374 113.575 168.499 113.675 168.499 113.925V116.55C168.499 116.775 168.374 116.9 168.149 116.9C166.324 116.875 164.699 117.125 163.149 117.85C159.349 119.55 157.149 122.275 157.149 124.65C157.149 127.175 159.699 129.3 165.549 129.3C165.799 129.3 165.924 129.425 165.874 129.675L165.374 132.525Z" fill="#262626"/>
<path d="M127.414 133.275C127.339 133.35 127.264 133.4 127.164 133.4C127.089 133.4 127.014 133.375 126.939 133.3L124.764 131.35C124.689 131.275 124.639 131.175 124.639 131.1C124.639 131.025 124.664 130.925 124.764 130.85C126.964 128.9 133.689 123.1 136.014 120.85L126.564 121.125C126.339 121.125 126.214 121 126.214 120.775L126.189 118.25C126.189 118.025 126.314 117.9 126.539 117.9L140.989 117.8C141.214 117.8 141.339 117.925 141.339 118.15L141.389 120.125C141.389 120.325 141.339 120.45 141.189 120.575C139.614 121.825 137.539 123.55 135.714 125.075C135.889 125.05 136.039 125.05 136.189 125.05C137.589 125.05 138.889 125.85 139.164 127.9C139.414 129.875 140.139 130.375 141.989 130.375C142.989 130.375 144.139 130.175 145.439 129.8L145.564 129.775C145.739 129.775 145.839 129.9 145.814 130.125L145.439 132.85C145.414 133.05 145.264 133.175 145.014 133.225C143.989 133.45 142.914 133.55 141.914 133.55C138.964 133.55 136.464 132.875 136.089 129.425C135.914 127.85 135.139 127.325 134.289 127.325C133.739 127.325 133.164 127.55 132.739 127.875C130.939 129.6 128.639 131.975 127.414 133.275ZM129.539 112.425C129.564 112.2 129.714 112.1 129.939 112.15C132.814 112.65 137.789 113.15 140.989 113.2C141.214 113.2 141.339 113.35 141.289 113.575L140.889 115.95C140.864 116.175 140.739 116.275 140.514 116.275C137.164 116.25 132.364 115.75 129.439 115.2C129.239 115.15 129.139 115 129.164 114.775L129.539 112.425Z" fill="#262626"/>
<path d="M98.0644 120.4C97.8394 120.4 97.7144 120.275 97.7144 120.05V117.825C97.7144 117.6 97.8394 117.475 98.0644 117.475H99.9144V112.15C99.9144 111.925 100.039 111.8 100.264 111.8H102.564C102.814 111.8 102.914 111.925 102.914 112.15V117.475H104.414C104.639 117.475 104.764 117.6 104.764 117.825V120.05C104.764 120.275 104.639 120.4 104.414 120.4H102.914V126.575C103.614 126.325 104.264 126.05 104.889 125.75C104.939 125.725 105.014 125.7 105.064 125.7C105.214 125.7 105.289 125.8 105.289 126V128.375C105.289 128.575 105.214 128.675 105.064 128.75C103.114 129.55 100.389 130.475 98.0394 131.125C97.9894 131.15 97.9644 131.15 97.9144 131.15C97.7644 131.15 97.6644 131.05 97.6144 130.85L97.2144 128.5V128.425C97.2144 128.25 97.3144 128.15 97.4894 128.1L99.9144 127.525V120.4H98.0644ZM105.239 114.125C105.239 113.9 105.364 113.775 105.589 113.775H108.214C107.964 113.25 107.564 112.6 107.089 112C107.014 111.925 106.989 111.85 106.989 111.775C106.989 111.675 107.064 111.575 107.239 111.55L109.539 111.1H109.664C110.189 111.1 111.239 113.325 111.439 113.775H113.389C114.014 113.05 114.564 112.125 114.889 111.325C114.964 111.125 115.089 111.05 115.314 111.075L117.639 111.5C117.889 111.55 117.989 111.725 117.864 111.95C117.539 112.6 117.089 113.25 116.664 113.775H119.314C119.539 113.775 119.664 113.9 119.664 114.125V122.625C119.664 122.85 119.539 122.975 119.314 122.975H105.589C105.364 122.975 105.239 122.85 105.239 122.625V114.125ZM106.039 124.375C106.039 124.15 106.164 124.025 106.389 124.025H118.489C118.714 124.025 118.839 124.15 118.839 124.375V133.05C118.839 133.275 118.714 133.4 118.489 133.4H106.389C106.164 133.4 106.039 133.275 106.039 133.05V124.375ZM111.089 120.825V119.25H107.989V120.825H111.089ZM111.089 117.375V115.9H107.989V117.375H111.089ZM115.889 131.175V129.675H108.989V131.175H115.889ZM115.889 127.625V126.225H108.989V127.625H115.889ZM116.839 120.825V119.25H113.689V120.825H116.839ZM116.839 117.375V115.9H113.689V117.375H116.839Z" fill="#262626"/>
<rect x="134" y="29" width="186" height="30" fill="#262626"/>
<path d="M129.05 43.975C129 44 128.95 44.025 128.9 44.025C128.775 44.025 128.675 43.95 128.6 43.775C128.15 42.6 127.325 41.15 126.575 40.2C126.5 40.125 126.475 40.05 126.475 39.975C126.475 39.875 126.55 39.775 126.675 39.725L127.8 39.275C127.85 39.25 127.925 39.225 127.975 39.225C128.625 39.225 130.25 42.425 130.5 43.05C130.525 43.1 130.525 43.15 130.525 43.2C130.525 43.325 130.45 43.425 130.3 43.5L129.05 43.975ZM108.75 35C108.75 34.8 108.875 34.7 109.075 34.7C114.275 34.7 123.25 34.675 128.65 34.575C128.875 34.575 129 34.675 129 34.925V37.55C129 37.775 128.875 37.9 128.65 37.9C126.825 37.875 125.2 38.125 123.65 38.85C119.85 40.55 117.65 43.275 117.65 45.65C117.65 48.175 120.2 50.3 126.05 50.3C126.3 50.3 126.425 50.425 126.375 50.675L125.875 53.525C125.825 53.75 125.7 53.85 125.475 53.85C117.325 53.675 114.025 49.975 114.025 46.05C114.025 42.55 116.575 39.25 119.675 37.8C116.325 37.9 112.175 38.025 109.15 38.075C108.925 38.075 108.8 37.975 108.8 37.725L108.75 35.05V35ZM123.4 41.1C123.4 41 123.475 40.9 123.625 40.85L124.75 40.375C124.825 40.35 124.875 40.35 124.95 40.35C125.05 40.35 125.15 40.4 125.225 40.5C126.025 41.45 126.925 43.05 127.4 44.25C127.425 44.3 127.425 44.35 127.425 44.4C127.425 44.55 127.35 44.65 127.2 44.7L125.925 45.225C125.85 45.25 125.8 45.275 125.75 45.275C125.625 45.275 125.525 45.175 125.475 45.025C125.025 43.775 124.3 42.4 123.5 41.325C123.425 41.25 123.4 41.175 123.4 41.1Z" fill="#262626"/>
<path d="M102.95 43.85C102.9 43.975 102.8 44.05 102.675 44.05C102.375 44.05 100.725 42.6 100.45 42.325C100.425 44.65 100.4 47.05 100.275 49.175C100.075 53.375 98.4248 54.575 94.0998 54.575H93.2748C93.0748 54.55 92.9498 54.475 92.8748 54.275L91.9498 51.675L91.9248 51.525C91.9248 51.375 92.0498 51.275 92.2748 51.275L93.3748 51.325C96.1248 51.325 96.8248 50.65 96.9998 48.675C97.1248 47.45 97.1498 46.025 97.1498 44.75V43.65H93.1248C92.6498 49.1 89.9498 53.225 84.0748 54.85C84.0248 54.875 83.9998 54.875 83.9498 54.875C83.8248 54.875 83.6998 54.8 83.6248 54.675L82.0748 52.3C82.0248 52.225 81.9998 52.15 81.9998 52.1C81.9998 51.975 82.0998 51.9 82.2748 51.85C87.0748 50.75 89.3748 47.975 89.7998 43.65H86.3998C86.1748 43.65 86.0498 43.525 86.0498 43.3V42C85.6998 42.35 83.8748 44.075 83.4748 44.075C83.3748 44.075 83.2748 44 83.1998 43.9L81.5998 41.3C81.5748 41.225 81.5498 41.15 81.5498 41.1C81.5498 40.975 81.5998 40.9 81.7248 40.825C84.7498 39.1 87.0998 35.675 88.2498 32.525C88.3248 32.3 88.4748 32.225 88.6998 32.3L91.2248 33.2C91.4248 33.3 91.4998 33.45 91.4248 33.675C90.4998 36.1 89.0748 38.525 87.3498 40.575H98.7748C96.9498 38.45 95.4498 35.975 94.4498 33.625C94.4248 33.55 94.3998 33.5 94.3998 33.45C94.3998 33.325 94.4748 33.225 94.6498 33.175L97.1498 32.275C97.1998 32.25 97.2498 32.25 97.2998 32.25C97.4248 32.25 97.5248 32.325 97.5998 32.475C99.0998 35.85 101.45 38.875 104.3 40.6C104.475 40.7 104.525 40.875 104.425 41.075L102.95 43.85Z" fill="#262626"/>
<path d="M57.6249 54.2499C57.3999 54.2499 57.2749 54.1249 57.2749 53.8999V35.2999C57.2749 35.0749 57.3999 34.9499 57.6249 34.9499H63.0499C63.7249 34.0999 64.2499 33.1749 64.6499 32.2749C64.7249 32.0999 64.8499 32.0249 65.0749 32.0249L68.0749 32.2749C68.3249 32.2999 68.4249 32.4749 68.3249 32.6999C67.9249 33.4999 67.4499 34.2999 66.9749 34.9499H75.9249C76.1499 34.9499 76.2749 35.0749 76.2749 35.2999V53.8999C76.2749 54.1249 76.1499 54.2499 75.9249 54.2499H57.6249ZM72.9999 51.2499V48.4749H60.5499V51.2499H72.9999ZM72.9999 45.8749V43.2249H60.5499V45.8749H72.9999ZM72.9999 40.6249V37.8999H60.5499V40.6249H72.9999Z" fill="#262626"/>
<path d="M313.675 53.4249C313.675 53.6499 313.575 53.7749 313.35 53.7999C311.5 54.0249 309.75 54.15 308.1 54.15C306.675 54.15 305.325 54.05 304.05 53.875C301.175 53.425 299.7 51.75 299.7 49.85C299.7 46.6 303.5 44.7 306.075 43.575C305.55 42.95 304.85 42.65 304.05 42.65C302.725 42.65 301.225 43.425 299.975 44.875L297.6 48C297.525 48.1 297.425 48.15 297.325 48.15C297.25 48.15 297.175 48.1249 297.1 48.0499L295.025 46.4249C294.925 46.3499 294.875 46.2749 294.875 46.1749C294.875 46.0999 294.925 46 295 45.9249C297.15 43.7249 299.15 41.0499 300.35 38.3999H296.075C295.85 38.3999 295.725 38.2749 295.725 38.0499V35.8499C295.725 35.6249 295.85 35.4999 296.075 35.4999H301.475C301.825 34.5249 302.125 33.6249 302.375 32.7749C302.425 32.5749 302.575 32.4749 302.775 32.5249L305.525 33.1499C305.775 33.1999 305.85 33.35 305.775 33.575C305.525 34.2999 305.25 34.9249 305.025 35.4999H312.7C312.925 35.4999 313.05 35.6249 313.05 35.8499V38.0499C313.05 38.2749 312.925 38.3999 312.7 38.3999H303.8L302.525 40.75C303.25 40.425 304.075 40.2499 304.875 40.2499C306.45 40.2499 308.025 40.9 309.025 42.375L313.8 40.65C313.85 40.6249 313.9 40.6249 313.975 40.6249C314.1 40.6249 314.2 40.7 314.25 40.8499L315.175 43.1999C315.2 43.2499 315.2 43.3 315.2 43.35C315.2 43.5 315.125 43.5999 314.95 43.65C313.275 44.15 311.575 44.625 310.025 45.125C310.075 45.525 310.1 45.9499 310.1 46.4249C310.1 47.1499 310.025 47.9499 309.875 48.8249C309.85 49.0499 309.725 49.15 309.5 49.15L306.975 49.1749C306.725 49.1749 306.6 49.025 306.675 48.775C306.875 47.8 306.95 46.9499 306.925 46.2249C305.8 46.6999 302.925 47.975 302.925 49.5C302.925 51.15 306.4 51.1749 307.5 51.1749C309.275 51.1749 311.35 50.95 313.35 50.6H313.45C313.625 50.6 313.725 50.6999 313.725 50.9249L313.675 53.4249Z" fill="white"/>
<path d="M269.325 51.225C269.1 51.225 268.975 51.1 268.975 50.875V49.35C268.975 49.125 269.1 49 269.325 49H277.475V47.9H267.925C267.7 47.9 267.575 47.775 267.575 47.55V46.05C267.575 45.825 267.7 45.7 267.925 45.7H277.475V44.65H269.35C269.125 44.65 269 44.525 269 44.3V42.95C269 42.725 269.125 42.6 269.35 42.6H277.475V41.625H269.875C269.65 41.625 269.525 41.5 269.525 41.275V37.1C269.525 36.875 269.65 36.75 269.875 36.75H277.475V35.8H268.325C268.1 35.8 267.975 35.675 267.975 35.45V33.875C267.975 33.65 268.1 33.525 268.325 33.525H277.475V32.425C277.475 32.2 277.6 32.075 277.825 32.075H280.3C280.525 32.075 280.65 32.2 280.65 32.425V33.525H289.7C289.925 33.525 290.05 33.65 290.05 33.875V35.45C290.05 35.675 289.925 35.8 289.7 35.8H280.65V36.75H288.225C288.45 36.75 288.575 36.875 288.575 37.1V41.275C288.575 41.5 288.45 41.625 288.225 41.625H280.65V42.6H288.45C288.675 42.6 288.8 42.725 288.8 42.95V45.575H290.075C290.3 45.575 290.425 45.7 290.425 45.925V47.65C290.425 47.875 290.3 48 290.075 48H288.8V50.875C288.8 51.1 288.675 51.225 288.45 51.225H280.65C280.625 54.175 279.85 54.875 276.125 54.875L274.775 54.85C274.575 54.85 274.425 54.75 274.35 54.575L273.625 52.7999C273.6 52.7249 273.6 52.675 273.6 52.625C273.6 52.475 273.7 52.375 273.925 52.4L275.25 52.45C277.075 52.45 277.425 52.125 277.475 51.225H269.325ZM285.675 47.825H280.65V49H285.675V47.825ZM285.675 44.65H280.65V45.75H285.675V44.65ZM277.475 38.65H272.7V39.8H277.475V38.65ZM285.425 38.65H280.65V39.8H285.425V38.65Z" fill="white"/>
<path d="M242.075 45.45C241.85 45.45 241.725 45.325 241.725 45.1V42.875C241.725 42.65 241.85 42.525 242.075 42.525H246.275C245.775 41.425 244.95 40.1 244.15 39.0999C244.1 39.025 244.075 38.95 244.075 38.875C244.075 38.775 244.15 38.675 244.3 38.625L246.6 37.85C246.65 37.8249 246.7 37.825 246.75 37.825C246.875 37.825 246.95 37.9 247.05 38C248 39.1999 249.225 41.225 249.75 42.525H251.125V37.4H242.7C242.475 37.4 242.35 37.275 242.35 37.05V34.775C242.35 34.55 242.475 34.425 242.7 34.425H251.125V32.425C251.125 32.2 251.25 32.075 251.475 32.075H253.95C254.175 32.075 254.3 32.2 254.3 32.425V34.425H262.8C263.025 34.425 263.15 34.55 263.15 34.775V37.05C263.15 37.275 263.025 37.4 262.8 37.4H254.3V42.525H255.675C256.725 41.25 257.65 39.4249 258.075 38.025C258.15 37.7999 258.275 37.725 258.5 37.775L261.05 38.45C261.275 38.5 261.35 38.7 261.25 38.925C260.775 40.075 259.95 41.525 259.175 42.525H263.425C263.65 42.525 263.775 42.65 263.775 42.875V45.1C263.775 45.325 263.65 45.45 263.425 45.45H255.9C257.9 47.825 260.725 49.75 263.925 50.95C264.15 51.025 264.225 51.2 264.1 51.4L262.775 53.85C262.675 54.05 262.525 54.1 262.325 54C259.45 52.65 256.35 50.35 254.225 47.45L254.325 54.525C254.325 54.75 254.2 54.875 253.975 54.875H251.475C251.25 54.875 251.125 54.75 251.125 54.525L251.225 47.5C249.375 50.25 246.3 52.7 243.225 54.1C243.15 54.125 243.1 54.15 243.05 54.15C242.925 54.15 242.85 54.075 242.775 53.95L241.4 51.5C241.35 51.425 241.35 51.3499 241.35 51.2999C241.35 51.1749 241.425 51.0999 241.575 51.0499C244.575 49.9999 247.6 47.85 249.525 45.45H242.075Z" fill="white"/>
<path d="M217.2 43.2249C216.975 43.2249 216.85 43.1 216.85 42.875V34.2249C216.85 33.9999 216.975 33.875 217.2 33.875H219.775C220 33.875 220.125 33.9999 220.125 34.2249V40.175H224.75V32.425C224.75 32.1749 224.875 32.075 225.1 32.075H227.825C228.05 32.075 228.175 32.1749 228.175 32.425V40.175H232.8V34.2249C232.8 33.9999 232.925 33.875 233.15 33.875H235.75C235.975 33.875 236.1 33.9999 236.1 34.2249V42.875C236.1 43.1 235.975 43.2249 235.75 43.2249H228.175V50.95H233.625V45.025C233.625 44.8 233.75 44.675 233.975 44.675H236.55C236.775 44.675 236.9 44.8 236.9 45.025V53.7C236.9 53.925 236.775 54.0499 236.55 54.0499H216.45C216.225 54.0499 216.1 53.925 216.1 53.7V45.025C216.1 44.8 216.225 44.675 216.45 44.675H219.05C219.275 44.675 219.4 44.8 219.4 45.025V50.95H224.75V43.2249H217.2Z" fill="white"/>
<path d="M201.2 53.6751C201.025 53.6751 200.9 53.5751 200.825 53.4001L199.8 50.8001C199.775 50.7501 199.775 50.7001 199.775 50.6501C199.775 50.5001 199.875 50.4001 200.1 50.4001C205.575 50.1501 207.775 47.1001 207.775 43.9251C207.775 40.6751 205.625 38.1001 202.425 37.4001C202.4 41.2001 200.7 46.8751 198.35 50.3751C197.55 51.5501 196.275 52.1501 194.95 52.1501C191.275 52.1501 189.325 48.2501 189.325 45.0001C189.325 42.0751 190.675 38.9001 193.675 36.5251C195.625 34.9751 198.15 34.2251 200.625 34.2251C206.475 34.2251 211.2 38.2251 211.2 44.1501C211.2 49.2001 207.2 53.3251 201.25 53.6751H201.2ZM192.5 44.8751C192.5 46.1001 192.9 47.2751 193.725 48.1751C194.05 48.5001 194.425 48.6751 194.8 48.6751C195.2 48.6751 195.6 48.4501 195.925 48.0001C197.675 45.4001 199.125 40.2501 199.05 37.3501C195.55 38.0251 192.5 41.2251 192.5 44.8751Z" fill="white"/>
<path d="M163.45 41.4499C163.225 41.4499 163.1 41.3249 163.1 41.0999V35.5749C163.1 35.3499 163.225 35.2249 163.45 35.2249H166.825C166.475 34.6499 166.025 34.0249 165.55 33.4749C165.5 33.3999 165.45 33.3249 165.45 33.2499C165.45 33.1499 165.55 33.0499 165.7 32.9999L168.075 32.4249H168.2C168.675 32.4249 170.075 34.7749 170.35 35.2249H172.35V32.3749C172.35 32.1499 172.475 32.0249 172.7 32.0249H175.275C175.5 32.0249 175.625 32.1499 175.625 32.3749V35.2249H177.55C178.4 34.3499 179.025 33.4749 179.475 32.6249C179.575 32.4499 179.725 32.3749 179.925 32.4249L182.375 32.8999C182.55 32.9499 182.65 33.0249 182.65 33.1499C182.65 33.2249 182.625 33.2749 182.575 33.3499C182.175 34.0499 181.725 34.6749 181.25 35.2249H184.525C184.75 35.2249 184.875 35.3499 184.875 35.5749V41.0999C184.875 41.3249 184.75 41.4499 184.525 41.4499H182.125C181.9 41.4499 181.775 41.3249 181.775 41.0999V37.7749H166.225V41.0999C166.225 41.3249 166.1 41.4499 165.875 41.4499H163.45ZM164.35 46.7749C164.35 46.5499 164.475 46.4249 164.7 46.4249H172.4V45.1249H167.325C167.1 45.1249 166.975 44.9999 166.975 44.7749V39.2749C166.975 39.0499 167.1 38.9249 167.325 38.9249H180.65C180.875 38.9249 181 39.0499 181 39.2749V44.7749C181 44.9999 180.875 45.1249 180.65 45.1249H175.55V46.4249H183.4C183.625 46.4249 183.75 46.5499 183.75 46.7749V50.2749C183.75 53.1249 182.975 54.1249 178.65 54.0499C178.45 54.0499 178.3 53.9499 178.25 53.7749L177.5 51.8249C177.475 51.7749 177.475 51.7249 177.475 51.6999C177.475 51.5249 177.6 51.4249 177.825 51.4499C180.15 51.5499 180.55 51.1249 180.55 50.2499V49.0999H175.55V54.5499C175.55 54.7749 175.425 54.8999 175.2 54.8999H172.75C172.5 54.8999 172.4 54.7749 172.4 54.5499V49.0999H167.6V53.5749C167.6 53.7999 167.475 53.9249 167.25 53.9249H164.7C164.475 53.9249 164.35 53.7999 164.35 53.5749V46.7749ZM177.95 42.8749V41.2249H170V42.8749H177.95Z" fill="white"/>
<path d="M139.075 54.55C138.85 54.55 138.725 54.4251 138.725 54.2001V33.025C138.725 32.775 138.85 32.675 139.075 32.675H156.425C156.65 32.675 156.775 32.775 156.775 33.025V54.2001C156.775 54.4251 156.65 54.55 156.425 54.55H139.075ZM153.5 51.4501V44.8H142V51.4501H153.5ZM153.5 41.725V35.7H142V41.725H153.5Z" fill="white"/>
<path d="M271.4 79.375C271.4 79.175 271.525 79.05 271.725 79.05C273.275 78.975 275.075 78.925 276.85 78.9C277.2 77.275 277.5 75.7 277.725 74.15C277.775 73.925 277.9 73.825 278.125 73.85L280.775 74.1C281.025 74.125 281.125 74.25 281.1 74.425C280.875 75.825 280.6 77.3 280.25 78.85L282.625 78.875C286.75 79.05 286.875 82.125 286.875 85.35C286.875 89.75 286.5 94.9 280.75 94.9C280.075 94.9 279.35 94.825 278.575 94.7C278.375 94.675 278.25 94.575 278.2 94.375L277.5 91.525V91.4C277.5 91.225 277.625 91.125 277.875 91.2C278.775 91.425 279.575 91.55 280.25 91.55C281.7 91.55 282.6 90.975 283.075 89.65C283.425 88.65 283.55 87.025 283.55 85.6L283.5 84.025C283.35 82.4 283 82 281.7 81.95H279.5C278.375 86.175 276.825 90.65 274.825 94.7C274.725 94.9 274.575 94.95 274.375 94.9L271.725 94.075C271.55 94.025 271.475 93.925 271.475 93.8C271.475 93.725 271.5 93.675 271.525 93.6C273.625 89.4 275.05 85.6 276.025 82.075C274.725 82.15 273.3 82.25 271.925 82.375H271.875C271.675 82.375 271.55 82.275 271.55 82.05L271.4 79.375ZM286.525 78.125C286.525 78.025 286.6 77.925 286.75 77.875L289 77.075C288.65 76.325 288.2 75.525 287.7 74.85C287.65 74.775 287.625 74.7 287.625 74.625C287.625 74.525 287.7 74.45 287.85 74.4L289.175 73.925C289.225 73.9 289.275 73.9 289.35 73.9C289.45 73.9 289.55 73.95 289.65 74.05C290.525 75.1 291.3 76.425 291.75 77.625L291.775 77.75C291.775 77.9 291.675 78 291.525 78.05L290.475 78.45C292.025 80.825 292.975 83.2 293.375 85.65C293.4 85.675 293.4 85.7 293.4 85.725C293.4 85.9 293.3 86 293.15 86.075L290.55 87.05C290.5 87.075 290.45 87.1 290.4 87.1C290.25 87.1 290.15 87 290.125 86.8C289.7 83.8 288.575 80.95 286.625 78.35C286.575 78.275 286.525 78.2 286.525 78.125ZM293.175 77.45C293.125 77.475 293.075 77.475 293.025 77.475C292.9 77.475 292.8 77.4 292.725 77.25C292.3 76.15 291.575 74.825 290.775 73.825C290.7 73.75 290.675 73.675 290.675 73.6C290.675 73.5 290.75 73.425 290.9 73.375L292.2 72.9C292.25 72.875 292.325 72.875 292.375 72.875C292.475 72.875 292.575 72.925 292.675 73.025C293.425 73.925 294.3 75.275 294.8 76.475C294.825 76.55 294.85 76.6 294.85 76.65C294.85 76.775 294.775 76.875 294.6 76.925L293.175 77.45Z" fill="#262626"/>
<rect x="79" y="70" width="186" height="30" fill="#262626"/>
<path d="M245.154 92.25C244.929 92.25 244.804 92.125 244.804 91.9V82.825C244.804 82.6 244.929 82.4749 245.154 82.4749H258.154C258.379 82.4749 258.504 82.6 258.504 82.825V91.9C258.504 92.125 258.379 92.25 258.154 92.25H254.029C255.504 92.9 257.454 93.3999 259.254 93.5499C259.504 93.5749 259.629 93.75 259.504 93.975L258.654 95.7C258.554 95.875 258.429 95.9499 258.229 95.9249C256.404 95.6499 254.279 95.025 252.629 94.125C252.504 94.05 252.429 93.975 252.429 93.85C252.429 93.8 252.454 93.725 252.504 93.65L253.354 92.2999C253.354 92.2749 253.379 92.275 253.379 92.25H249.679L250.604 93.65C250.654 93.725 250.679 93.8 250.679 93.875C250.679 93.975 250.629 94.05 250.529 94.1C248.904 94.975 246.804 95.6249 244.729 95.9249H244.654C244.504 95.9249 244.379 95.85 244.279 95.7L243.279 94C243.229 93.925 243.229 93.8749 243.229 93.7999C243.229 93.6749 243.304 93.6 243.504 93.575C245.554 93.375 247.604 92.9 249.004 92.25H245.154ZM236.479 85.7C236.279 85.625 236.229 85.475 236.254 85.275C236.704 82.7 236.829 80.075 236.829 77.475C236.829 77.25 236.979 77.125 237.204 77.15L238.529 77.275C238.754 77.3 238.854 77.4 238.854 77.625C238.854 80.425 238.679 83.25 238.279 86.025C238.254 86.275 238.079 86.35 237.854 86.25L236.479 85.7ZM242.154 95.525C242.154 95.75 242.029 95.875 241.804 95.875H239.804C239.579 95.875 239.454 95.75 239.454 95.525V73.425C239.454 73.2 239.579 73.075 239.804 73.075H241.804C242.029 73.075 242.154 73.2 242.154 73.425V78.075C242.179 78.05 242.229 78.025 242.279 78L243.204 77.625C243.254 77.6 243.329 77.575 243.354 77.575C243.504 77.575 243.604 77.675 243.654 77.85C244.079 79.2 244.529 81.05 244.779 82.325C244.779 82.375 244.804 82.4 244.804 82.45C244.804 82.575 244.729 82.7 244.579 82.775L243.554 83.45C243.479 83.5 243.429 83.525 243.354 83.525C243.229 83.525 243.154 83.425 243.129 83.2249C242.979 81.9749 242.529 80.175 242.154 78.8V95.525ZM244.429 78.625C244.204 78.625 244.079 78.5 244.079 78.275V76.8749C244.079 76.65 244.204 76.525 244.429 76.525H245.329L245.579 74.05C245.604 73.825 245.704 73.725 245.929 73.725H258.379C258.604 73.725 258.729 73.8749 258.704 74.0999L258.479 76.525H259.254C259.479 76.525 259.604 76.65 259.604 76.8749V78.55C259.604 78.775 259.479 78.9 259.254 78.9H258.279L258.054 81.225C258.029 81.45 257.929 81.55 257.704 81.55H245.204C244.979 81.55 244.854 81.425 244.879 81.2L245.129 78.625H244.429ZM255.654 89.475L247.629 89.5V90.5H255.654V89.475ZM255.654 86.85H247.629V87.85H255.654V86.85ZM255.654 84.2249H247.629V85.2H255.654V84.2249ZM250.254 79.925L250.454 78.575H247.854L247.679 79.925H250.254ZM248.154 75.55L248.004 76.8749H250.679L250.829 75.55H248.154ZM252.929 78.575C252.879 79.05 252.779 79.5 252.729 79.925H255.479L255.629 78.575H252.929ZM255.804 76.8749L255.929 75.55H253.304L253.129 76.8749H255.804Z" fill="white"/>
<path d="M222.879 83.9999C223.129 84.0249 223.229 84.1999 223.129 84.4249C222.979 84.7499 222.779 85.1249 222.579 85.4249H230.604C230.829 85.4249 230.954 85.5499 230.954 85.7749V95.0999C230.954 95.3249 230.829 95.4499 230.604 95.4499H213.029C212.804 95.4499 212.679 95.3249 212.679 95.0999V85.7749C212.679 85.5499 212.804 85.4249 213.029 85.4249H218.879C219.104 85.0499 219.304 84.6749 219.454 84.2999C218.804 84.5749 217.904 84.6999 216.704 84.6749C216.504 84.6749 216.354 84.5749 216.279 84.3749L215.654 82.6999C215.629 82.6499 215.629 82.5999 215.629 82.5499C215.629 82.3999 215.754 82.2999 215.954 82.2999C217.729 82.3249 218.029 82.0499 218.029 80.9499V76.4499H211.179C210.954 76.4499 210.829 76.3249 210.829 76.0999V73.9999C210.829 73.7749 210.954 73.6499 211.179 73.6499H220.729C220.954 73.6499 221.079 73.7749 221.079 73.9999V81.1499C221.079 82.3249 220.879 83.1999 220.279 83.7749L222.879 83.9999ZM211.454 78.5499C211.304 78.4749 211.229 78.3999 211.229 78.2749C211.229 78.2249 211.254 78.1499 211.304 78.0749L212.329 76.7499C212.454 76.5999 212.604 76.5249 212.804 76.5749C213.279 76.6999 215.804 77.7999 215.804 78.2999C215.804 78.3749 215.779 78.4499 215.704 78.5249L214.529 79.9749C214.454 80.0749 214.379 80.0999 214.304 80.0999C214.204 80.0999 214.129 80.0749 214.054 79.9999C213.354 79.3999 212.379 78.8999 211.454 78.5499ZM210.504 81.8999C210.479 81.8499 210.479 81.7999 210.479 81.7499C210.479 81.6249 210.579 81.5249 210.754 81.4749C212.829 81.0249 215.129 80.0499 216.854 78.9249C216.929 78.8749 217.004 78.8499 217.079 78.8499C217.204 78.8499 217.279 78.9499 217.304 79.1249L217.479 80.7999V80.9249C217.479 81.0499 217.454 81.1499 217.354 81.2249C215.954 82.2249 213.579 83.3749 211.579 84.0249C211.529 84.0499 211.479 84.0499 211.429 84.0499C211.279 84.0499 211.179 83.9749 211.129 83.7999L210.504 81.8999ZM222.779 78.5499C222.629 78.4999 222.579 78.3999 222.579 78.2999C222.579 78.2249 222.604 78.1499 222.654 78.0749L223.629 76.7249C223.754 76.5499 223.879 76.4999 224.079 76.5499C224.579 76.6999 227.104 77.6749 227.104 78.2249C227.104 78.2999 227.079 78.3999 227.004 78.4749L225.879 79.8249C225.804 79.9249 225.704 79.9749 225.629 79.9749C225.529 79.9749 225.454 79.9249 225.379 79.8749C224.704 79.3999 223.704 78.9249 222.779 78.5499ZM221.879 81.5499C221.854 81.4999 221.854 81.4499 221.854 81.3999C221.854 81.2749 221.954 81.1749 222.129 81.1249C224.129 80.7749 226.504 79.8749 228.254 78.8249C228.329 78.7749 228.379 78.7499 228.454 78.7499C228.579 78.7499 228.654 78.8499 228.679 79.0499L228.879 80.6499V80.7499C228.879 80.8999 228.829 80.9999 228.729 81.0499C227.279 81.9499 224.854 82.9749 222.954 83.5499C222.904 83.5499 222.879 83.5749 222.829 83.5749C222.679 83.5749 222.554 83.4749 222.504 83.3249L221.879 81.5499ZM222.404 76.4499C222.179 76.4499 222.054 76.3249 222.054 76.0999V73.9999C222.054 73.7749 222.179 73.6499 222.404 73.6499H232.054C232.279 73.6499 232.404 73.7749 232.404 73.9999V81.2999C232.404 83.8999 231.429 84.8749 227.729 84.7999C227.529 84.7999 227.379 84.7249 227.304 84.5249L226.654 82.7749C226.629 82.7249 226.629 82.6749 226.629 82.6249C226.629 82.4749 226.754 82.3749 226.979 82.3749C229.004 82.4499 229.329 82.0999 229.329 81.0249V76.4499H222.404ZM227.729 91.3499H215.904V93.0249H227.729V91.3499ZM227.729 87.6999H215.904V89.2499H227.729V87.6999Z" fill="white"/>
<path d="M187.18 88.9249C187.08 88.9999 187.005 89.0249 186.93 89.0249C186.83 89.0249 186.73 88.9749 186.655 88.8749L185.055 86.6499C185.005 86.5749 184.955 86.4999 184.955 86.4249C184.955 86.3249 185.03 86.2249 185.13 86.1499C189.955 82.9499 193.63 80.4249 197.08 78.0499C194.305 78.1249 191.405 78.2249 188.78 78.2749C188.555 78.2749 188.43 78.1499 188.43 77.9249L188.405 75.3749C188.405 75.1499 188.53 75.0249 188.755 75.0249H202.48C202.705 75.0249 202.83 75.1499 202.83 75.3749L202.855 77.5249C202.855 77.7249 202.78 77.8499 202.63 77.9499L196.18 82.1499C196.955 81.9999 197.73 81.9249 198.48 81.9249C202.205 81.9249 205.805 83.9999 205.805 88.0999C205.805 90.3999 204.505 92.8249 201.73 94.2999C200.18 95.0749 198.055 95.5249 196.005 95.5249C194.18 95.5249 192.405 95.1749 191.18 94.3749C189.83 93.4999 189.155 92.1749 189.155 90.8999C189.155 88.4249 191.405 87.1249 193.655 87.1249C196.13 87.1249 198.68 88.6999 198.405 92.2999C200.28 91.7249 202.43 90.4749 202.43 88.2499C202.43 85.4749 199.13 84.4499 196.855 84.4499C194.83 84.4499 192.48 85.0749 190.13 86.6499L187.18 88.9249ZM192.03 90.6999C192.03 91.0999 192.23 91.5249 192.605 91.8249C193.23 92.4249 194.255 92.6999 195.38 92.7249C195.455 92.4499 195.48 92.1999 195.48 91.9499C195.48 90.4499 194.38 89.5249 193.38 89.5249C192.68 89.5249 192.03 89.9499 192.03 90.6999Z" fill="white"/>
<path d="M171.379 95.5C171.304 95.525 171.254 95.55 171.179 95.55C171.079 95.55 170.979 95.5 170.904 95.425L168.854 93.4501C168.754 93.3501 168.729 93.2751 168.729 93.2001C168.729 93.1001 168.804 93.0251 168.929 92.9501C171.479 91.8251 173.054 89.8001 173.904 86.9001C172.279 86.35 170.654 85.9251 169.079 85.6501C168.304 89.0501 166.679 93.8501 162.429 93.8501C159.779 93.8501 158.054 91.7501 158.054 89.2501C158.054 87.5001 158.879 85.525 160.729 84.175C162.079 83.2 163.954 82.5 166.379 82.475C166.679 80.7 166.879 79.025 167.029 77.8001L160.904 77.85C160.679 77.85 160.554 77.725 160.554 77.5V75.05C160.554 74.825 160.654 74.7001 160.904 74.7001L170.304 74.675C170.529 74.675 170.654 74.8001 170.654 75.025L170.679 76.75V76.8C170.679 76.925 170.679 77.0251 170.654 77.175C170.279 79.1251 169.979 80.975 169.654 82.725C171.279 82.925 172.904 83.2751 174.504 83.7501C174.604 82.6751 174.679 81.5001 174.679 80.2501L174.654 79.175C174.654 78.925 174.779 78.8 175.029 78.825L177.729 79.125C177.929 79.15 178.054 79.3001 178.054 79.6C178.029 81.4251 177.904 83.2001 177.654 84.8751C178.604 85.2751 179.554 85.7251 180.454 86.2251C180.654 86.3251 180.704 86.475 180.654 86.675L179.879 89.3501C179.829 89.5251 179.729 89.6001 179.629 89.6001C179.554 89.6001 179.479 89.5751 179.429 89.5251C178.629 89.025 177.779 88.575 176.929 88.175C175.929 91.5001 174.204 94.125 171.379 95.5ZM160.954 89.05C160.954 89.875 161.429 90.7001 162.354 90.7001C164.379 90.7001 165.404 86.875 165.779 85.4001C163.829 85.5251 160.954 86.7 160.954 89.05Z" fill="white"/>
<path d="M150.63 94.525C150.58 94.75 150.455 94.85 150.23 94.85C142.08 94.675 138.78 90.975 138.78 87.05C138.78 83.55 141.33 80.25 144.43 78.8C141.08 78.9 136.93 79.025 133.905 79.075C133.68 79.075 133.555 78.975 133.555 78.725L133.505 76.05V76C133.505 75.8 133.63 75.7 133.83 75.7C139.03 75.7 148.005 75.675 153.405 75.575C153.63 75.575 153.755 75.675 153.755 75.925V78.55C153.755 78.775 153.63 78.9 153.405 78.9C151.58 78.875 149.955 79.125 148.405 79.85C144.605 81.55 142.405 84.275 142.405 86.65C142.405 89.175 144.955 91.3 150.805 91.3C151.055 91.3 151.18 91.425 151.13 91.675L150.63 94.525Z" fill="white"/>
<path d="M112.671 95.2751C112.596 95.3501 112.521 95.4001 112.421 95.4001C112.346 95.4001 112.271 95.3751 112.196 95.3001L110.021 93.3501C109.946 93.2751 109.896 93.1751 109.896 93.1001C109.896 93.0251 109.921 92.9251 110.021 92.8501C112.221 90.9001 118.946 85.1001 121.271 82.8501L111.821 83.1251C111.596 83.1251 111.471 83.0001 111.471 82.7751L111.446 80.2501C111.446 80.0251 111.571 79.9001 111.796 79.9001L126.246 79.8001C126.471 79.8001 126.596 79.9251 126.596 80.1501L126.646 82.1251C126.646 82.3251 126.596 82.4501 126.446 82.5751C124.871 83.8251 122.796 85.5501 120.971 87.0751C121.146 87.0501 121.296 87.0501 121.446 87.0501C122.846 87.0501 124.146 87.8501 124.421 89.9001C124.671 91.8751 125.396 92.3751 127.246 92.3751C128.246 92.3751 129.396 92.1751 130.696 91.8001L130.821 91.7751C130.996 91.7751 131.096 91.9001 131.071 92.1251L130.696 94.8501C130.671 95.0501 130.521 95.1751 130.271 95.2251C129.246 95.4501 128.171 95.5501 127.171 95.5501C124.221 95.5501 121.721 94.8751 121.346 91.4251C121.171 89.8501 120.396 89.3251 119.546 89.3251C118.996 89.3251 118.421 89.5501 117.996 89.8751C116.196 91.6001 113.896 93.9751 112.671 95.2751ZM114.796 74.4251C114.821 74.2001 114.971 74.1001 115.196 74.1501C118.071 74.6501 123.046 75.1501 126.246 75.2001C126.471 75.2001 126.596 75.3501 126.546 75.5751L126.146 77.9501C126.121 78.1751 125.996 78.2751 125.771 78.2751C122.421 78.2501 117.621 77.7501 114.696 77.2001C114.496 77.1501 114.396 77.0001 114.421 76.7751L114.796 74.4251Z" fill="white"/>
<path d="M85.5708 77.6999C85.3458 77.6999 85.2208 77.5749 85.2208 77.3499V75.4999C85.2208 75.2749 85.3458 75.1499 85.5708 75.1499H91.5708V73.3749C91.5708 73.1499 91.6958 73.0249 91.9208 73.0249H94.3958C94.6208 73.0249 94.7458 73.1499 94.7458 73.3749V75.1499H99.7208C99.9458 75.1499 100.071 75.2749 100.071 75.4999V76.7999C100.696 76.0999 101.246 75.3749 101.796 74.5999C101.871 74.4749 101.971 74.4249 102.071 74.4249C102.121 74.4249 102.196 74.4499 102.271 74.4749L104.721 75.7749C104.846 75.8499 104.921 75.9499 104.921 76.0499C104.921 76.1249 104.896 76.1999 104.821 76.2749C103.971 77.3749 102.821 78.5749 101.546 79.6499H104.871C105.096 79.6499 105.221 79.7749 105.221 79.9999V81.9499C105.221 82.1749 105.096 82.2999 104.871 82.2999H98.3958C97.1708 83.0249 95.6708 83.7749 94.0708 84.4999C96.9208 84.3249 100.121 84.0249 102.721 83.5249H102.821C102.971 83.5249 103.096 83.5999 103.146 83.7749L103.921 85.7749C103.946 85.8249 103.946 85.8749 103.946 85.9249C103.946 86.0749 103.871 86.1749 103.696 86.1999C100.321 86.7249 95.0958 86.9999 91.1958 87.0499C91.0958 87.5249 90.9708 87.9249 90.8958 88.2499H102.546C102.771 88.2499 102.896 88.3499 102.896 88.5749C102.896 89.5249 102.871 90.9499 102.721 92.1249C102.296 95.1749 100.121 95.8499 93.4708 95.8499L92.3708 95.8249C92.1708 95.8249 92.0458 95.7499 91.9708 95.5499L91.1208 93.4249C91.0958 93.3499 91.0708 93.2999 91.0708 93.2749C91.0708 93.0999 91.1958 92.9999 91.4208 93.0249L93.6708 93.0499C98.0208 93.0499 99.1208 92.6249 99.2958 91.8249C99.3958 91.4499 99.3958 91.0499 99.3958 90.7499H87.0958C86.8208 90.7499 86.7208 90.5749 86.7958 90.3499C87.1958 89.2999 87.5458 88.0999 87.8208 86.9749C86.5208 87.3999 85.2458 87.7999 84.0708 88.0749C84.0208 88.0999 83.9708 88.0999 83.9458 88.0999C83.7958 88.0999 83.6958 88.0249 83.6208 87.8749L82.4958 85.3999C82.4708 85.3249 82.4458 85.2749 82.4458 85.2249C82.4458 85.0749 82.5458 84.9749 82.7458 84.9499C86.2208 84.4499 90.0708 83.5249 93.1458 82.2999H83.4458C83.1958 82.2999 83.0958 82.1749 83.0958 81.9499V79.9999C83.0958 79.7749 83.1958 79.6499 83.4458 79.6499H91.5708V77.6999H85.5708ZM96.9208 79.6499C97.7958 79.0249 98.5708 78.3749 99.2958 77.6499H94.7458V79.6499H96.9208Z" fill="white"/>
</svg>
