<svg width="31" height="34" viewBox="0 0 31 34" fill="none" xmlns="http://www.w3.org/2000/svg">
<path d="M27.6992 0C28.5808 0.000238083 29.2958 0.714953 29.2958 1.59668C29.2958 2.47841 28.5808 3.19312 27.6992 3.19336H2.15033C1.26846 3.19336 0.55365 2.47855 0.55365 1.59668C0.55365 0.714806 1.26846 0 2.15033 0H27.6992Z" fill="#262626"/>
<path d="M27.6992 9.0484C28.5808 9.04864 29.2958 9.76335 29.2958 10.6451C29.2958 11.5268 28.5808 12.2415 27.6992 12.2418H2.15033C1.26846 12.2418 0.55365 11.527 0.55365 10.6451C0.55365 9.76321 1.26846 9.0484 2.15033 9.0484H27.6992Z" fill="#262626"/>
<path d="M27.6992 17.5645C28.5808 17.5648 29.2958 18.2795 29.2958 19.1612C29.2958 20.0429 28.5808 20.7576 27.6992 20.7579H2.15033C1.26846 20.7579 0.55365 20.0431 0.55365 19.1612C0.55365 18.2793 1.26846 17.5645 2.15033 17.5645H27.6992Z" fill="#262626"/>
<path d="M24.3907 29.6509C24.4919 29.6562 24.6223 29.6642 24.782 29.6748C24.9416 29.6855 25.104 29.6935 25.269 29.6988C25.4393 29.7041 25.591 29.7068 25.7241 29.7068C25.8731 29.7068 26.0461 29.7068 26.243 29.7068C26.4453 29.7068 26.6608 29.7068 26.8897 29.7068C27.1239 29.7068 27.3607 29.7068 27.6003 29.7068C27.8451 29.7068 28.0846 29.7068 28.3188 29.7068C28.5583 29.7068 28.7845 29.7068 28.9974 29.7068C29.2103 29.7068 29.402 29.7068 29.5723 29.7068C29.7426 29.7068 29.881 29.7068 29.9874 29.7068C30.1737 29.7068 30.352 29.6988 30.5224 29.6828C30.6927 29.6668 30.8337 29.6562 30.9455 29.6509V31.0481C30.8497 31.0427 30.706 31.0348 30.5144 31.0241C30.3281 31.0081 30.1524 31.0002 29.9874 31.0002C29.881 31.0002 29.7399 31.0002 29.5643 31.0002C29.394 31.0002 29.2024 31.0002 28.9895 31.0002C28.7766 31.0002 28.5503 31.0002 28.3108 31.0002C28.0766 31.0002 27.8371 31.0002 27.5923 31.0002C27.3528 31.0002 27.1186 31.0002 26.8897 31.0002C26.6608 31.0002 26.4453 31.0002 26.243 31.0002C26.0407 31.0002 25.8678 31.0002 25.7241 31.0002C25.4952 31.0002 25.2557 31.0055 25.0055 31.0161C24.7553 31.0268 24.5504 31.0374 24.3907 31.0481V29.6509Z" fill="#262626"/>
<path d="M21.6443 29.611C21.623 29.6642 21.6043 29.7281 21.5884 29.8026C21.5777 29.8718 21.5697 29.9277 21.5644 29.9702C21.5485 30.082 21.5245 30.2337 21.4926 30.4253C21.466 30.6169 21.434 30.8298 21.3968 31.064C21.3648 31.2982 21.3302 31.5324 21.293 31.7666C21.2557 32.0008 21.2211 32.2164 21.1892 32.4133C21.1626 32.6102 21.1386 32.7673 21.1173 32.8843H19.8958C19.9171 32.7726 19.941 32.6315 19.9677 32.4612C19.9996 32.2909 20.0315 32.1073 20.0635 31.9103C20.0954 31.7134 20.1247 31.5191 20.1513 31.3275C20.1779 31.1306 20.2018 30.9469 20.2231 30.7766C20.2497 30.6063 20.2657 30.4679 20.271 30.3614C20.1965 30.3614 20.0874 30.3614 19.9437 30.3614C19.8053 30.3614 19.6456 30.3614 19.4647 30.3614C19.2837 30.3614 19.1054 30.3614 18.9297 30.3614C18.7594 30.3614 18.6077 30.3614 18.4747 30.3614C18.3469 30.3614 18.2591 30.3614 18.2112 30.3614C18.0835 30.3614 17.9397 30.3668 17.7801 30.3774C17.6257 30.3827 17.49 30.3907 17.3729 30.4014V29.2357C17.4474 29.2464 17.5352 29.257 17.6364 29.2677C17.7375 29.273 17.8386 29.2783 17.9397 29.2836C18.0462 29.2889 18.134 29.2916 18.2032 29.2916C18.2884 29.2916 18.3975 29.2916 18.5306 29.2916C18.6689 29.2916 18.8153 29.2916 18.9697 29.2916C19.124 29.2916 19.2757 29.2916 19.4247 29.2916C19.5791 29.2916 19.7202 29.2916 19.8479 29.2916C19.9756 29.2916 20.0768 29.2916 20.1513 29.2916C20.2098 29.2916 20.2817 29.2889 20.3668 29.2836C20.452 29.273 20.5345 29.2623 20.6143 29.2517C20.6995 29.2357 20.7607 29.2171 20.798 29.1958L21.6443 29.611ZM16.6464 32.4532C16.7581 32.4639 16.8859 32.4745 17.0296 32.4852C17.1786 32.4958 17.325 32.5011 17.4687 32.5011C17.5485 32.5011 17.6976 32.5011 17.9158 32.5011C18.134 32.5011 18.3868 32.5011 18.6743 32.5011C18.967 32.5011 19.2677 32.5011 19.5764 32.5011C19.8905 32.5011 20.1912 32.5011 20.4786 32.5011C20.766 32.5011 21.0109 32.5011 21.2131 32.5011C21.4154 32.5011 21.5485 32.5011 21.6123 32.5011C21.7135 32.5011 21.8465 32.4985 22.0115 32.4931C22.1818 32.4825 22.3229 32.4718 22.4347 32.4612V33.6029C22.3814 33.5976 22.3043 33.5923 22.2031 33.5869C22.102 33.5869 21.9982 33.5843 21.8918 33.5789C21.7906 33.5789 21.7028 33.5789 21.6283 33.5789C21.5591 33.5789 21.4181 33.5789 21.2052 33.5789C20.9976 33.5789 20.7501 33.5789 20.4627 33.5789C20.1752 33.5789 19.8718 33.5789 19.5525 33.5789C19.2331 33.5789 18.9271 33.5789 18.6343 33.5789C18.3416 33.5789 18.0914 33.5789 17.8839 33.5789C17.6763 33.5789 17.5379 33.5789 17.4687 33.5789C17.325 33.5789 17.1919 33.5789 17.0695 33.5789C16.9471 33.5843 16.806 33.5923 16.6464 33.6029V32.4532Z" fill="#262626"/>
<path d="M8.72638 27.9343C8.87541 27.9556 9.04041 27.9689 9.22138 27.9742C9.40767 27.9796 9.57001 27.9822 9.7084 27.9822C9.83082 27.9822 9.98517 27.9822 10.1715 27.9822C10.3578 27.9822 10.56 27.9822 10.7782 27.9822C10.9965 27.9822 11.22 27.9822 11.4489 27.9822C11.6778 27.9822 11.8933 27.9822 12.0956 27.9822C12.3032 27.9822 12.4841 27.9822 12.6385 27.9822C12.7928 27.9822 12.9073 27.9822 12.9818 27.9822C13.1468 27.9822 13.3118 27.9796 13.4768 27.9742C13.6418 27.9636 13.7828 27.9503 13.8999 27.9343V29.2117C13.7828 29.2064 13.6365 29.2011 13.4608 29.1958C13.2852 29.1905 13.1255 29.1878 12.9818 29.1878C12.9073 29.1878 12.7875 29.1878 12.6225 29.1878C12.4628 29.1878 12.2712 29.1878 12.0477 29.1878C11.8241 29.1878 11.5926 29.1878 11.3531 29.1878C11.1189 29.1878 10.89 29.1878 10.6665 29.1878C10.4482 29.1878 10.254 29.1878 10.0836 29.1878C9.91332 29.1878 9.7909 29.1878 9.71638 29.1878C9.56203 29.1878 9.39437 29.1905 9.2134 29.1958C9.03243 29.2011 8.87009 29.2064 8.72638 29.2117V27.9343ZM8.06372 31.8305C8.22872 31.8358 8.40437 31.8464 8.59066 31.8624C8.77695 31.873 8.94993 31.8784 9.10961 31.8784C9.18412 31.8784 9.31187 31.8784 9.49283 31.8784C9.6738 31.8784 9.88937 31.8784 10.1395 31.8784C10.395 31.8784 10.6638 31.8784 10.9459 31.8784C11.2333 31.8784 11.5181 31.8784 11.8002 31.8784C12.0876 31.8784 12.3564 31.8784 12.6065 31.8784C12.862 31.8784 13.0776 31.8784 13.2532 31.8784C13.4342 31.8784 13.5619 31.8784 13.6365 31.8784C13.7749 31.8784 13.9265 31.873 14.0915 31.8624C14.2619 31.8517 14.4189 31.8411 14.5626 31.8305V33.1797C14.4136 33.1638 14.2512 33.1505 14.0756 33.1398C13.9053 33.1292 13.7589 33.1238 13.6365 33.1238C13.5619 33.1238 13.4342 33.1238 13.2532 33.1238C13.0776 33.1238 12.862 33.1238 12.6065 33.1238C12.3564 33.1238 12.0876 33.1238 11.8002 33.1238C11.5181 33.1238 11.2333 33.1238 10.9459 33.1238C10.6638 33.1238 10.395 33.1238 10.1395 33.1238C9.88937 33.1238 9.6738 33.1238 9.49283 33.1238C9.31187 33.1238 9.18412 33.1238 9.10961 33.1238C8.94993 33.1238 8.77429 33.1292 8.58267 33.1398C8.39106 33.1505 8.21808 33.1638 8.06372 33.1797V31.8305Z" fill="#262626"/>
<path d="M6.05976 27.5352C6.00121 27.631 5.93734 27.7587 5.86814 27.9184C5.79895 28.0727 5.74306 28.1978 5.70048 28.2936C5.59935 28.5544 5.47694 28.8419 5.33323 29.1559C5.19484 29.4699 5.03516 29.7866 4.85419 30.106C4.67323 30.42 4.47097 30.7234 4.24742 31.0161C4.00258 31.3355 3.72581 31.6575 3.4171 31.9822C3.11371 32.3069 2.76242 32.6289 2.36323 32.9482C1.96935 33.2676 1.50895 33.5736 0.982016 33.8664L0 32.9642C0.718548 32.6182 1.33863 32.2244 1.86024 31.7826C2.38718 31.3408 2.86355 30.8431 3.28935 30.2896C3.60339 29.8744 3.85621 29.4646 4.04782 29.0601C4.23944 28.6556 4.40444 28.2537 4.54282 27.8545C4.58008 27.7427 4.61734 27.6123 4.6546 27.4633C4.69185 27.3143 4.72113 27.1865 4.74242 27.0801L6.05976 27.5352ZM1.62073 28.2617C1.81766 28.3841 2.03056 28.5198 2.25944 28.6689C2.48831 28.8179 2.71718 28.9723 2.94605 29.1319C3.17492 29.2916 3.39581 29.4486 3.60871 29.603C3.82694 29.7573 4.02121 29.901 4.19153 30.0341C4.62798 30.3694 5.05113 30.7207 5.46097 31.088C5.87081 31.4552 6.23806 31.8119 6.56274 32.1578L5.65258 33.1718C5.30129 32.7566 4.94202 32.376 4.57476 32.0301C4.2075 31.6841 3.81097 31.3328 3.38516 30.9762C3.24145 30.8538 3.07645 30.7234 2.89016 30.585C2.70919 30.4413 2.51226 30.2896 2.29936 30.1299C2.08645 29.9702 1.85758 29.8106 1.61274 29.6509C1.37323 29.4859 1.12306 29.3235 0.862258 29.1639L1.62073 28.2617Z" fill="#262626"/>
</svg>
