<svg width="31" height="34" viewBox="0 0 31 34" fill="none" xmlns="http://www.w3.org/2000/svg">
<g clip-path="url(#clip0_476_415)">
<path d="M29.278 0C30.2288 0.000238083 31 0.714953 31 1.59668C31 2.47841 30.2288 3.19312 29.278 3.19336H1.72211C0.770962 3.19336 0 2.47855 0 1.59668C0 0.714806 0.770962 0 1.72211 0H29.278Z" fill="#262626"/>
<path d="M29.278 9.04834C30.2288 9.04858 31 9.76329 31 10.645C31 11.5267 30.2288 12.2414 29.278 12.2417H1.72211C0.770962 12.2417 0 11.5269 0 10.645C0 9.76315 0.770962 9.04834 1.72211 9.04834H29.278Z" fill="#262626"/>
<path d="M29.278 17.5645C30.2288 17.5648 31 18.2795 31 19.1612C31 20.0429 30.2288 20.7576 29.278 20.7579H1.72211C0.770962 20.7579 0 20.0431 0 19.1612C0 18.2793 0.770962 17.5645 1.72211 17.5645H29.278Z" fill="#262626"/>
<path d="M24.3906 29.6509C24.4918 29.6562 24.6222 29.6642 24.7819 29.6748C24.9415 29.6855 25.1039 29.6935 25.2689 29.6988C25.4392 29.7041 25.5909 29.7068 25.724 29.7068C25.873 29.7068 26.046 29.7068 26.2429 29.7068C26.4452 29.7068 26.6607 29.7068 26.8896 29.7068C27.1238 29.7068 27.3606 29.7068 27.6002 29.7068C27.845 29.7068 28.0845 29.7068 28.3187 29.7068C28.5582 29.7068 28.7844 29.7068 28.9973 29.7068C29.2102 29.7068 29.4019 29.7068 29.5722 29.7068C29.7425 29.7068 29.8809 29.7068 29.9873 29.7068C30.1736 29.7068 30.3519 29.6988 30.5223 29.6828C30.6926 29.6668 30.8336 29.6562 30.9454 29.6509V31.0481C30.8496 31.0427 30.7059 31.0348 30.5143 31.0241C30.328 31.0081 30.1523 31.0002 29.9873 31.0002C29.8809 31.0002 29.7398 31.0002 29.5642 31.0002C29.3939 31.0002 29.2023 31.0002 28.9894 31.0002C28.7765 31.0002 28.5502 31.0002 28.3107 31.0002C28.0765 31.0002 27.837 31.0002 27.5922 31.0002C27.3527 31.0002 27.1185 31.0002 26.8896 31.0002C26.6607 31.0002 26.4452 31.0002 26.2429 31.0002C26.0406 31.0002 25.8677 31.0002 25.724 31.0002C25.4951 31.0002 25.2556 31.0055 25.0054 31.0161C24.7552 31.0268 24.5503 31.0374 24.3906 31.0481V29.6509Z" fill="#262626"/>
<path d="M21.6444 29.611C21.6231 29.6642 21.6044 29.7281 21.5885 29.8026C21.5778 29.8718 21.5698 29.9277 21.5645 29.9702C21.5486 30.082 21.5246 30.2337 21.4927 30.4253C21.4661 30.6169 21.4341 30.8298 21.3969 31.064C21.3649 31.2982 21.3303 31.5324 21.2931 31.7666C21.2558 32.0008 21.2212 32.2164 21.1893 32.4133C21.1627 32.6102 21.1387 32.7673 21.1174 32.8843H19.8959C19.9172 32.7726 19.9411 32.6315 19.9678 32.4612C19.9997 32.2909 20.0316 32.1073 20.0636 31.9103C20.0955 31.7134 20.1248 31.5191 20.1514 31.3275C20.178 31.1306 20.2019 30.9469 20.2232 30.7766C20.2498 30.6063 20.2658 30.4679 20.2711 30.3614C20.1966 30.3614 20.0875 30.3614 19.9438 30.3614C19.8054 30.3614 19.6457 30.3614 19.4648 30.3614C19.2838 30.3614 19.1055 30.3614 18.9298 30.3614C18.7595 30.3614 18.6078 30.3614 18.4748 30.3614C18.347 30.3614 18.2592 30.3614 18.2113 30.3614C18.0836 30.3614 17.9398 30.3668 17.7802 30.3774C17.6258 30.3827 17.4901 30.3907 17.373 30.4014V29.2357C17.4475 29.2464 17.5353 29.257 17.6365 29.2677C17.7376 29.273 17.8387 29.2783 17.9398 29.2836C18.0463 29.2889 18.1341 29.2916 18.2033 29.2916C18.2885 29.2916 18.3976 29.2916 18.5307 29.2916C18.669 29.2916 18.8154 29.2916 18.9698 29.2916C19.1241 29.2916 19.2758 29.2916 19.4248 29.2916C19.5792 29.2916 19.7203 29.2916 19.848 29.2916C19.9757 29.2916 20.0769 29.2916 20.1514 29.2916C20.2099 29.2916 20.2818 29.2889 20.3669 29.2836C20.4521 29.273 20.5346 29.2623 20.6144 29.2517C20.6996 29.2357 20.7608 29.2171 20.7981 29.1958L21.6444 29.611ZM16.6465 32.4532C16.7582 32.4639 16.886 32.4745 17.0297 32.4852C17.1787 32.4958 17.3251 32.5011 17.4688 32.5011C17.5486 32.5011 17.6977 32.5011 17.9159 32.5011C18.1341 32.5011 18.3869 32.5011 18.6744 32.5011C18.9671 32.5011 19.2678 32.5011 19.5765 32.5011C19.8906 32.5011 20.1913 32.5011 20.4787 32.5011C20.7661 32.5011 21.011 32.5011 21.2132 32.5011C21.4155 32.5011 21.5486 32.5011 21.6124 32.5011C21.7136 32.5011 21.8466 32.4985 22.0116 32.4931C22.1819 32.4825 22.323 32.4718 22.4348 32.4612V33.6029C22.3815 33.5976 22.3044 33.5923 22.2032 33.5869C22.1021 33.5869 21.9983 33.5843 21.8919 33.5789C21.7907 33.5789 21.7029 33.5789 21.6284 33.5789C21.5592 33.5789 21.4182 33.5789 21.2053 33.5789C20.9977 33.5789 20.7502 33.5789 20.4628 33.5789C20.1753 33.5789 19.8719 33.5789 19.5526 33.5789C19.2332 33.5789 18.9272 33.5789 18.6344 33.5789C18.3417 33.5789 18.0915 33.5789 17.884 33.5789C17.6764 33.5789 17.538 33.5789 17.4688 33.5789C17.3251 33.5789 17.192 33.5789 17.0696 33.5789C16.9472 33.5843 16.8061 33.5923 16.6465 33.6029V32.4532Z" fill="#262626"/>
<path d="M8.72614 27.9341C8.87517 27.9554 9.04017 27.9687 9.22114 27.974C9.40743 27.9794 9.56977 27.982 9.70816 27.982C9.83058 27.982 9.98493 27.982 10.1713 27.982C10.3576 27.982 10.5598 27.982 10.778 27.982C10.9963 27.982 11.2198 27.982 11.4487 27.982C11.6776 27.982 11.8931 27.982 12.0954 27.982C12.303 27.982 12.4839 27.982 12.6383 27.982C12.7926 27.982 12.9071 27.982 12.9816 27.982C13.1466 27.982 13.3116 27.9794 13.4766 27.974C13.6416 27.9634 13.7826 27.9501 13.8997 27.9341V29.2115C13.7826 29.2062 13.6363 29.2009 13.4606 29.1956C13.285 29.1903 13.1253 29.1876 12.9816 29.1876C12.9071 29.1876 12.7873 29.1876 12.6223 29.1876C12.4626 29.1876 12.271 29.1876 12.0475 29.1876C11.8239 29.1876 11.5924 29.1876 11.3529 29.1876C11.1187 29.1876 10.8898 29.1876 10.6663 29.1876C10.448 29.1876 10.2538 29.1876 10.0834 29.1876C9.91308 29.1876 9.79066 29.1876 9.71614 29.1876C9.56179 29.1876 9.39413 29.1903 9.21316 29.1956C9.03219 29.2009 8.86985 29.2062 8.72614 29.2115V27.9341ZM8.06348 31.8303C8.22848 31.8356 8.40413 31.8462 8.59042 31.8622C8.77671 31.8728 8.94969 31.8782 9.10937 31.8782C9.18388 31.8782 9.31163 31.8782 9.49259 31.8782C9.67356 31.8782 9.88913 31.8782 10.1393 31.8782C10.3948 31.8782 10.6636 31.8782 10.9457 31.8782C11.2331 31.8782 11.5179 31.8782 11.8 31.8782C12.0874 31.8782 12.3562 31.8782 12.6063 31.8782C12.8618 31.8782 13.0774 31.8782 13.253 31.8782C13.434 31.8782 13.5617 31.8782 13.6363 31.8782C13.7747 31.8782 13.9263 31.8728 14.0913 31.8622C14.2617 31.8515 14.4187 31.8409 14.5624 31.8303V33.1795C14.4134 33.1636 14.251 33.1503 14.0754 33.1396C13.9051 33.129 13.7587 33.1236 13.6363 33.1236C13.5617 33.1236 13.434 33.1236 13.253 33.1236C13.0774 33.1236 12.8618 33.1236 12.6063 33.1236C12.3562 33.1236 12.0874 33.1236 11.8 33.1236C11.5179 33.1236 11.2331 33.1236 10.9457 33.1236C10.6636 33.1236 10.3948 33.1236 10.1393 33.1236C9.88913 33.1236 9.67356 33.1236 9.49259 33.1236C9.31163 33.1236 9.18388 33.1236 9.10937 33.1236C8.94969 33.1236 8.77405 33.129 8.58243 33.1396C8.39082 33.1503 8.21784 33.1636 8.06348 33.1795V31.8303Z" fill="#262626"/>
<path d="M6.05976 27.5352C6.00121 27.631 5.93734 27.7587 5.86814 27.9184C5.79895 28.0727 5.74306 28.1978 5.70048 28.2936C5.59935 28.5544 5.47694 28.8419 5.33323 29.1559C5.19484 29.4699 5.03516 29.7866 4.85419 30.106C4.67323 30.42 4.47097 30.7234 4.24742 31.0161C4.00258 31.3355 3.72581 31.6575 3.4171 31.9822C3.11371 32.3069 2.76242 32.6289 2.36323 32.9482C1.96935 33.2676 1.50895 33.5736 0.982016 33.8664L0 32.9642C0.718548 32.6182 1.33863 32.2244 1.86024 31.7826C2.38718 31.3408 2.86355 30.8431 3.28935 30.2896C3.60339 29.8744 3.85621 29.4646 4.04782 29.0601C4.23944 28.6556 4.40444 28.2537 4.54282 27.8545C4.58008 27.7427 4.61734 27.6123 4.6546 27.4633C4.69185 27.3143 4.72113 27.1865 4.74242 27.0801L6.05976 27.5352ZM1.62073 28.2617C1.81766 28.3841 2.03056 28.5198 2.25944 28.6689C2.48831 28.8179 2.71718 28.9723 2.94605 29.1319C3.17492 29.2916 3.39581 29.4486 3.60871 29.603C3.82694 29.7573 4.02121 29.901 4.19153 30.0341C4.62798 30.3694 5.05113 30.7207 5.46097 31.088C5.87081 31.4552 6.23806 31.8119 6.56274 32.1578L5.65258 33.1718C5.30129 32.7566 4.94202 32.376 4.57476 32.0301C4.2075 31.6841 3.81097 31.3328 3.38516 30.9762C3.24145 30.8538 3.07645 30.7234 2.89016 30.585C2.70919 30.4413 2.51226 30.2896 2.29936 30.1299C2.08645 29.9702 1.85758 29.8106 1.61274 29.6509C1.37323 29.4859 1.12306 29.3235 0.862258 29.1639L1.62073 28.2617Z" fill="#262626"/>
</g>
<defs>
<clipPath id="clip0_476_415">
<rect width="31" height="34" fill="white"/>
</clipPath>
</defs>
</svg>
