<svg width="268" height="45" viewBox="0 0 268 45" fill="none" xmlns="http://www.w3.org/2000/svg">
<path d="M249.571 3C258.092 3 265 9.90775 265 18.4287C265 26.9496 258.092 33.8574 249.571 33.8574H135.964L132.5 39L129.036 33.8574H18.4287C9.9078 33.8574 3.0001 26.9496 3 18.4287C3 9.90775 9.9078 3 18.4287 3H249.571Z" fill="white"/>
<path d="M0 18.4287C0 8.2509 8.2509 0 18.4287 0V3C9.9078 3 3 9.90775 3 18.4287C3.0001 26.9496 9.9078 33.8574 18.4287 33.8574H129.036L132.5 39L135.964 33.8574H249.571C258.092 33.8574 265 26.9496 265 18.4287C265 9.90775 258.092 3 249.571 3V0C259.749 0 268 8.2509 268 18.4287C268 28.6064 259.749 36.8574 249.571 36.8574H137.561L132.5 44.3701L127.439 36.8574H18.4287C8.2509 36.8574 0.0001 28.6064 0 18.4287ZM249.571 0V3H18.4287V0H249.571Z" fill="#EB7538"/>
<path d="M227.572 23.8401C227.572 23.9661 227.502 24.0361 227.376 24.0361H226.004C225.878 24.0361 225.808 23.9661 225.808 23.8401V11.9821C225.808 11.8561 225.878 11.7861 226.004 11.7861H237.022C237.148 11.7861 237.218 11.8561 237.218 11.9821V21.9081C237.218 23.5741 236.238 24.1061 233.788 24.0361C233.676 24.0361 233.606 23.9941 233.564 23.8821L233.074 22.5241C233.06 22.4961 233.06 22.4681 233.06 22.4401C233.06 22.3561 233.13 22.3001 233.256 22.3001L233.816 22.3141C235.202 22.3141 235.44 22.0061 235.44 21.4741V18.8141H227.572V23.8401ZM230.596 13.4661H227.572V17.0641H230.596V13.4661ZM235.44 13.4661H232.36V17.0641H235.44V13.4661Z" fill="#EB7538"/>
<path d="M219.429 23.7282C216.727 23.7282 215.117 21.5722 215.117 17.9602C215.117 14.3342 216.727 12.1782 219.429 12.1782C222.145 12.1782 223.741 14.3342 223.741 17.9602C223.741 21.5722 222.145 23.7282 219.429 23.7282ZM217.245 17.9602C217.245 20.5362 218.071 21.7262 219.429 21.7262C220.787 21.7262 221.627 20.5362 221.627 17.9602C221.627 15.3702 220.787 14.1802 219.429 14.1802C218.071 14.1802 217.245 15.3702 217.245 17.9602Z" fill="#EB7538"/>
<path d="M209.285 23.7282C206.583 23.7282 204.973 21.5722 204.973 17.9602C204.973 14.3342 206.583 12.1782 209.285 12.1782C212.001 12.1782 213.597 14.3342 213.597 17.9602C213.597 21.5722 212.001 23.7282 209.285 23.7282ZM207.101 17.9602C207.101 20.5362 207.927 21.7262 209.285 21.7262C210.643 21.7262 211.483 20.5362 211.483 17.9602C211.483 15.3702 210.643 14.1802 209.285 14.1802C207.927 14.1802 207.101 15.3702 207.101 17.9602Z" fill="#EB7538"/>
<path d="M197.41 23.5182C197.27 23.5182 197.2 23.4342 197.256 23.2942L201.19 14.3202H196.22C196.094 14.3202 196.01 14.2362 196.01 14.1242V12.5842C196.01 12.4582 196.094 12.3882 196.22 12.3882H203.654C203.78 12.3882 203.85 12.4582 203.85 12.5842V13.1022C203.85 13.1862 203.836 13.2702 203.808 13.3402L199.538 23.3642C199.482 23.4622 199.412 23.5182 199.314 23.5182H197.41Z" fill="#EB7538"/>
<path d="M192.766 25.9678C192.626 25.9678 192.542 25.8838 192.598 25.7438L193.34 23.5178C192.976 23.3078 192.738 22.9438 192.738 22.4678C192.738 21.7678 193.27 21.2778 193.97 21.2778C194.67 21.2778 195.202 21.7678 195.202 22.4678C195.202 22.9158 195.048 23.3218 194.53 24.4698L193.928 25.8278C193.886 25.9118 193.802 25.9678 193.704 25.9678H192.766Z" fill="#EB7538"/>
<path d="M186.322 23.5182C186.182 23.5182 186.112 23.4342 186.168 23.2942L190.102 14.3202H185.132C185.006 14.3202 184.922 14.2362 184.922 14.1242V12.5842C184.922 12.4582 185.006 12.3882 185.132 12.3882H192.566C192.692 12.3882 192.762 12.4582 192.762 12.5842V13.1022C192.762 13.1862 192.748 13.2702 192.72 13.3402L188.45 23.3642C188.394 23.4622 188.324 23.5182 188.226 23.5182H186.322Z" fill="#EB7538"/>
<path d="M166.392 23.2662C166.308 23.2662 166.238 23.2102 166.21 23.1122L165.692 21.4462C165.692 21.3622 165.748 21.3062 165.86 21.2922C170.704 20.6762 173.238 18.1002 174.652 13.8722C174.68 13.7882 174.736 13.7462 174.792 13.7462C174.834 13.7462 174.876 13.7602 174.904 13.7742L176.318 14.6282C176.416 14.6982 176.458 14.7682 176.416 14.8662C174.932 19.3182 171.81 22.4822 166.448 23.2662H166.392ZM165.258 14.1382C165.258 14.0962 165.272 14.0542 165.3 14.0122L166.266 12.7382C166.336 12.6542 166.42 12.6262 166.518 12.6682C167.708 13.1162 169.164 13.9562 170.214 14.9082C170.27 14.9502 170.298 15.0062 170.298 15.0482C170.298 15.0902 170.27 15.1462 170.228 15.1882L169.108 16.5042C169.052 16.5602 169.01 16.5882 168.954 16.5882C168.912 16.5882 168.87 16.5602 168.828 16.5182C167.848 15.6222 166.504 14.7262 165.384 14.2782C165.3 14.2502 165.258 14.1942 165.258 14.1382Z" fill="#EB7538"/>
<path d="M154.204 23.1681C154.078 23.1681 154.008 23.0981 154.008 22.9721V21.7261C154.008 21.5861 154.078 21.5301 154.204 21.5301H160.378V19.6401H154.624C154.498 19.6401 154.428 19.5701 154.428 19.4441V18.2121C154.428 18.0861 154.498 18.0161 154.624 18.0161H160.378V16.3361H154.316C154.19 16.3361 154.12 16.2661 154.12 16.1401V14.8801C154.12 14.7541 154.19 14.6841 154.316 14.6841H162.016C162.142 14.6841 162.212 14.7541 162.212 14.8801V22.9861C162.212 23.1121 162.142 23.1821 162.016 23.1821L154.204 23.1681Z" fill="#EB7538"/>
<path d="M143.136 18.422C143.094 18.478 143.052 18.52 142.996 18.52C142.954 18.52 142.912 18.492 142.87 18.464C142.044 17.806 140.812 17.176 139.734 16.812C139.65 16.784 139.608 16.728 139.608 16.672C139.608 16.63 139.622 16.602 139.636 16.56L140.378 15.328C140.434 15.23 140.518 15.188 140.63 15.216C141.764 15.524 143.066 16.168 143.948 16.854C144.004 16.896 144.032 16.952 144.032 17.008C144.032 17.036 144.018 17.078 143.99 17.12L143.136 18.422ZM140.616 21.6C140.616 21.53 140.672 21.474 140.77 21.46C146.048 20.83 148.232 18.072 149.576 14.04C149.604 13.956 149.66 13.9 149.716 13.9C149.758 13.9 149.786 13.914 149.828 13.942L151.2 14.796C151.298 14.852 151.34 14.922 151.298 15.02C149.898 19.318 147.056 22.552 141.442 23.378H141.4C141.302 23.378 141.246 23.336 141.204 23.238L140.63 21.698C140.616 21.656 140.616 21.628 140.616 21.6ZM141.26 13.578C141.26 13.536 141.26 13.508 141.288 13.466L142.044 12.29C142.1 12.192 142.184 12.15 142.296 12.192C143.598 12.556 144.774 13.144 145.74 13.886C145.796 13.928 145.824 13.984 145.824 14.026C145.824 14.068 145.81 14.11 145.768 14.152L144.886 15.356C144.844 15.412 144.802 15.454 144.746 15.454C144.704 15.454 144.662 15.426 144.62 15.398C143.766 14.74 142.492 14.082 141.386 13.718C141.302 13.69 141.26 13.634 141.26 13.578Z" fill="#EB7538"/>
<path d="M129.948 18.38C129.948 18.478 129.892 18.548 129.794 18.576L128.478 18.94H128.408C128.324 18.94 128.268 18.884 128.254 18.786C128.114 17.61 127.75 16.28 127.246 15.23C127.232 15.202 127.218 15.16 127.218 15.132C127.218 15.062 127.26 15.006 127.358 14.992L128.604 14.698C128.632 14.684 128.646 14.684 128.674 14.684C128.744 14.684 128.8 14.726 128.842 14.796C129.388 15.804 129.794 17.134 129.948 18.338V18.38ZM128.254 22.16C128.254 22.104 128.31 22.048 128.408 22.034C132.93 21.25 134.806 18.912 134.932 14.334C134.932 14.208 135.016 14.138 135.142 14.152L136.626 14.334C136.752 14.348 136.808 14.432 136.808 14.558C136.402 19.71 134.33 22.608 129.682 23.63C129.654 23.644 129.64 23.644 129.612 23.644C129.542 23.644 129.486 23.616 129.43 23.546L128.324 22.286C128.282 22.244 128.254 22.202 128.254 22.16ZM130.354 14.586C130.354 14.502 130.41 14.46 130.508 14.432L131.796 14.138C131.81 14.124 131.838 14.124 131.866 14.124C131.936 14.124 131.992 14.166 132.034 14.236C132.482 15.23 132.888 16.63 132.972 17.82V17.848C132.972 17.946 132.93 18.016 132.818 18.044L131.502 18.38C131.474 18.394 131.446 18.394 131.432 18.394C131.334 18.394 131.278 18.338 131.278 18.226C131.18 17.064 130.858 15.706 130.382 14.684C130.368 14.642 130.354 14.614 130.354 14.586Z" fill="#EB7538"/>
<path d="M123.68 21.5859C123.792 21.6279 123.82 21.7259 123.778 21.8379L123.092 23.4199C123.036 23.5459 122.952 23.5739 122.84 23.5179C120.684 22.4959 116.96 21.7399 113.74 21.5859C113.6 21.5859 113.544 21.4879 113.586 21.3619L114.132 19.9199C114.174 19.8219 114.244 19.7659 114.356 19.7659C117.268 19.8639 121.104 20.4799 123.68 21.5859ZM114.706 12.4999C114.734 12.3879 114.804 12.3319 114.916 12.3319L115.546 12.3179C118.024 12.3179 121.44 12.6399 123.568 13.1859C123.694 13.2139 123.736 13.2979 123.708 13.4239L123.288 14.9639C123.26 15.0899 123.176 15.1459 123.05 15.1039C120.866 14.5019 117.562 14.1239 114.986 14.1239H114.552C114.412 14.1239 114.356 14.0399 114.384 13.9139L114.706 12.4999ZM115.056 16.0699C115.098 15.9579 115.168 15.9019 115.28 15.9019C117.422 15.9299 120.572 16.3079 122.588 16.9519C122.7 16.9939 122.742 17.0779 122.714 17.1899L122.224 18.7999C122.196 18.9259 122.098 18.9679 121.986 18.9119C120.096 18.2259 116.932 17.7639 114.776 17.7779C114.622 17.7779 114.566 17.6939 114.608 17.5679L115.056 16.0699Z" fill="#EB7538"/>
<path d="M100.44 15.0759C100.44 15.2019 100.37 15.2719 100.244 15.2719H98.9138C98.7878 15.2719 98.7178 15.2019 98.7178 15.0759V12.5419C98.7178 12.4159 98.7878 12.3459 98.9138 12.3459H103.702V11.4499C103.702 11.3239 103.772 11.2539 103.898 11.2539H105.55C105.676 11.2539 105.746 11.3239 105.746 11.4499V12.3459H110.576C110.702 12.3459 110.772 12.4159 110.772 12.5419V14.5719C110.772 14.6979 110.702 14.7679 110.576 14.7679H109.246C109.12 14.7679 109.05 14.6979 109.05 14.5719V13.8299H106.656L106.67 13.8859V15.0899C106.67 15.4959 106.824 15.6079 107.412 15.6079C107.622 15.6079 107.874 15.6079 108.028 15.5939C108.434 15.5659 108.546 15.3559 108.616 14.9359C108.644 14.7959 108.728 14.7399 108.854 14.7819L110.058 15.1599C110.17 15.2019 110.212 15.2719 110.198 15.3979C110.002 16.5459 109.512 16.9519 108.14 16.9799H106.754C105.452 16.9519 105.046 16.3919 105.046 15.6219V13.8859L105.06 13.8299H100.44V15.0759ZM99.2918 16.1819C99.2778 16.1399 99.2638 16.1119 99.2638 16.0839C99.2638 15.9999 99.3198 15.9579 99.4318 15.9439C101.266 15.7339 102.176 15.1039 102.568 14.1379C102.61 14.0259 102.694 13.9839 102.806 14.0119L103.968 14.3199C104.094 14.3479 104.164 14.4179 104.122 14.5159C103.576 15.9439 102.162 17.0779 100.132 17.3859H100.09C100.006 17.3859 99.9358 17.3439 99.8798 17.2599L99.2918 16.1819ZM99.5158 19.6539C99.3898 19.6539 99.3198 19.5839 99.3198 19.4579V18.2539C99.3198 18.1279 99.3898 18.0579 99.5158 18.0579H102.904C102.932 17.6799 102.946 17.2739 102.946 16.9099C102.946 16.7839 103.016 16.7139 103.142 16.7139H104.57C104.696 16.7139 104.766 16.7839 104.766 16.9099C104.766 17.2459 104.752 17.6799 104.724 18.0579H108.266C108.406 18.0579 108.462 18.1419 108.448 18.2679C108.308 19.3599 108.14 20.8439 108.056 21.6139C108.014 21.9639 108.126 22.0759 108.406 22.1039C108.574 22.1179 108.784 22.1179 108.938 22.1039C109.498 22.0619 109.61 21.6699 109.68 19.8359C109.68 19.6819 109.778 19.6119 109.918 19.6679L111.094 20.1859C111.192 20.2279 111.234 20.2979 111.234 20.4239C111.122 23.3359 110.548 23.6859 109.078 23.7559L108.434 23.7699C108.168 23.7699 107.916 23.7699 107.734 23.7559C106.866 23.7139 106.18 23.2659 106.18 22.4119C106.18 22.3419 106.18 22.2719 106.194 22.2019L106.53 19.6539H104.5C103.884 22.2719 102.12 23.5459 99.3198 24.0079H99.2778C99.1938 24.0079 99.1238 23.9659 99.0678 23.8819L98.3678 22.5379C98.3538 22.4959 98.3398 22.4679 98.3398 22.4399C98.3398 22.3559 98.3959 22.3139 98.5079 22.2999C100.972 22.0199 102.288 21.2499 102.722 19.6539H99.5158Z" fill="#EB7538"/>
<path d="M87.6582 21.4322C87.6582 23.5182 87.2942 23.9942 85.1382 24.0362C85.0262 24.0362 84.9562 23.9942 84.9142 23.8822L84.4522 22.4962C84.4382 22.4682 84.4382 22.4402 84.4382 22.4262C84.4382 22.3282 84.5082 22.2722 84.6342 22.2722C85.6422 22.2722 85.9642 22.1322 85.9642 21.4322V19.4582L84.7182 19.7662C84.6902 19.7662 84.6762 19.7802 84.6622 19.7802C84.5642 19.7802 84.5082 19.7102 84.4942 19.6122L84.2842 18.2402V18.1982C84.2842 18.1002 84.3402 18.0442 84.4522 18.0162C84.9562 17.9182 85.4602 17.8062 85.9642 17.6662V15.2722H84.7462C84.6202 15.2722 84.5502 15.2022 84.5502 15.0762V13.8162C84.5502 13.6902 84.6202 13.6202 84.7462 13.6202H85.9642V11.4782C85.9642 11.3522 86.0342 11.2822 86.1602 11.2822H87.4622C87.5882 11.2822 87.6582 11.3522 87.6582 11.4782V13.6202H88.4842C88.6102 13.6202 88.6802 13.6902 88.6802 13.8162V15.0762C88.6802 15.2022 88.6102 15.2722 88.4842 15.2722H87.6582V17.2182C87.9242 17.1482 88.1762 17.0642 88.4422 16.9662C88.4702 16.9522 88.4982 16.9522 88.5262 16.9522C88.6102 16.9522 88.6662 17.0222 88.6662 17.1342V18.4362C88.6662 18.5482 88.6242 18.6322 88.5262 18.6742C88.2742 18.7862 87.9802 18.8982 87.6582 19.0102V21.4322ZM90.5142 14.3482C90.5142 14.4742 90.4442 14.5442 90.3182 14.5442H89.1282C89.0022 14.5442 88.9322 14.4742 88.9322 14.3482V11.8702C88.9322 11.7442 89.0022 11.6742 89.1282 11.6742H96.8002C96.9262 11.6742 96.9962 11.7442 96.9962 11.8702V14.3062C96.9962 14.4322 96.9262 14.5022 96.8002 14.5022H95.5262C95.4002 14.5022 95.3302 14.4322 95.3302 14.3062V13.1162H90.5142V14.3482ZM94.8262 17.0362C93.9022 17.0362 92.9782 16.9802 92.9782 15.7622V13.8442C92.9782 13.7182 93.0482 13.6482 93.1742 13.6482H94.2242C94.3502 13.6482 94.4202 13.7182 94.4202 13.8442V15.1602C94.4202 15.4962 94.5322 15.5942 94.7982 15.6222L95.0362 15.6362C95.5682 15.6362 95.7642 15.5802 95.8342 14.8802C95.8482 14.7262 95.9462 14.6562 96.0722 14.7122L97.0242 15.0762C97.1362 15.1182 97.1782 15.1882 97.1642 15.3142C96.9262 17.0082 96.2822 17.0362 94.8262 17.0362ZM88.6802 16.3082C88.6522 16.2662 88.6382 16.2242 88.6382 16.1962C88.6382 16.1122 88.6942 16.0562 88.7922 16.0422C90.2622 15.7202 90.9762 15.0202 91.3262 13.8302C91.3682 13.7042 91.4382 13.6622 91.5642 13.7042L92.5442 14.0542C92.6562 14.0962 92.6982 14.1802 92.6702 14.2922C92.2502 15.8322 91.2422 16.9102 89.6602 17.4422C89.6322 17.4562 89.5902 17.4562 89.5622 17.4562C89.4922 17.4562 89.4362 17.4282 89.3942 17.3582L88.6802 16.3082ZM88.9742 19.5422C88.8482 19.5422 88.7782 19.4722 88.7782 19.3462V18.1422C88.7782 18.0162 88.8482 17.9462 88.9742 17.9462H91.8582L91.8442 17.0782C91.8442 16.9522 91.9142 16.8822 92.0402 16.8822H93.3702C93.4962 16.8822 93.5662 16.9522 93.5662 17.0782V17.9462H96.7162C96.8422 17.9462 96.9122 18.0162 96.9122 18.1422V19.3462C96.9122 19.4722 96.8422 19.5422 96.7162 19.5422H94.1402C95.0082 20.5362 96.1142 21.3762 97.2202 21.8802C97.3042 21.9222 97.3462 21.9642 97.3462 22.0342C97.3462 22.0622 97.3322 22.1042 97.3042 22.1462L96.5902 23.4482C96.5342 23.5602 96.4362 23.6022 96.3242 23.5322C95.3022 22.9442 94.2802 21.9362 93.5242 20.8582L93.5662 23.8542C93.5662 23.9802 93.4962 24.0502 93.3702 24.0502H92.0402C91.9142 24.0502 91.8442 23.9802 91.8442 23.8542L91.9002 20.9142C91.1582 21.9642 90.1082 22.9302 89.0162 23.5462C88.9742 23.5602 88.9462 23.5742 88.9042 23.5742C88.8482 23.5742 88.7922 23.5462 88.7502 23.4762L87.9382 22.2022C87.9102 22.1602 87.8962 22.1322 87.8962 22.0902C87.8962 22.0342 87.9382 21.9922 88.0222 21.9502C89.2682 21.4322 90.4442 20.6062 91.3262 19.5422H88.9742Z" fill="#EB7538"/>
<path d="M70.9698 16.1542C70.8438 16.1542 70.7738 16.0842 70.7738 15.9582V14.5162C70.7738 14.3902 70.8438 14.3202 70.9698 14.3202H75.7438V11.4782C75.7438 11.3522 75.8138 11.2822 75.9398 11.2822H77.5218C77.6478 11.2822 77.7178 11.3522 77.7178 11.4782V14.3202H82.5338C82.66 14.3202 82.73 14.3902 82.73 14.5162V15.9582C82.73 16.0842 82.66 16.1542 82.5338 16.1542H77.8298C78.5438 18.8702 80.5458 21.0262 83.038 22.1462C83.122 22.1882 83.164 22.2302 83.164 22.2862C83.164 22.3282 83.15 22.3562 83.122 22.3982L82.1558 23.8682C82.0858 23.9662 82.0018 23.9942 81.8898 23.9382C79.6918 22.8462 77.8578 20.9842 76.7938 18.6602C75.7998 20.9142 73.9658 22.9302 71.6698 23.9802C71.6278 23.9942 71.5998 24.0082 71.5578 24.0082C71.5018 24.0082 71.4458 23.9802 71.4038 23.9102L70.3818 22.4542C70.3538 22.4122 70.3398 22.3702 70.3398 22.3422C70.3398 22.2722 70.3818 22.2302 70.4658 22.1882C73.2658 21.1102 75.0858 18.8142 75.5898 16.1542H70.9698Z" fill="#EB7538"/>
<path d="M65.65 17.2738C66.91 17.6938 67.68 18.6458 67.68 19.9898C67.68 21.9778 66.042 23.3078 63.648 23.3078C61.66 23.3078 60.218 22.1878 59.686 20.3678V20.3118C59.686 20.2138 59.742 20.1578 59.84 20.1298L61.436 19.6958C61.52 19.6958 61.59 19.7518 61.618 19.8498C61.94 20.7178 62.57 21.3058 63.648 21.3058C64.81 21.3058 65.566 20.6758 65.566 19.6958C65.566 18.7298 64.754 18.1978 63.522 18.1978H63.06C62.934 18.1978 62.864 18.1278 62.864 18.0018V16.6578C62.864 16.5318 62.934 16.4618 63.06 16.4618H63.522C64.558 16.4618 65.272 15.9298 65.272 15.1598C65.272 14.3478 64.572 13.7598 63.606 13.7598C62.654 13.7598 62.024 14.3478 61.702 15.2158C61.66 15.3418 61.59 15.3838 61.464 15.3558L59.938 14.9358C59.812 14.9078 59.756 14.8378 59.784 14.6978C60.316 12.8778 61.744 11.7578 63.648 11.7578C65.804 11.7578 67.4 13.0318 67.4 14.7678C67.4 15.8598 66.742 16.7698 65.65 17.2738Z" fill="#EB7538"/>
<path d="M52.0841 23.3778C51.9861 23.3778 51.9161 23.3218 51.8741 23.2238L51.3001 21.7678C51.2861 21.7398 51.2861 21.7118 51.2861 21.6838C51.2861 21.5998 51.3421 21.5438 51.4681 21.5438C54.5341 21.4038 55.7661 19.6958 55.7661 17.9178C55.7661 16.0978 54.5621 14.6558 52.7701 14.2638C52.7561 16.3918 51.8041 19.5698 50.4881 21.5298C50.0401 22.1878 49.3261 22.5238 48.5841 22.5238C46.5261 22.5238 45.4341 20.3398 45.4341 18.5198C45.4341 16.8818 46.1901 15.1038 47.8701 13.7738C48.9621 12.9058 50.3761 12.4858 51.7621 12.4858C55.0381 12.4858 57.6841 14.7258 57.6841 18.0438C57.6841 20.8718 55.4441 23.1818 52.1121 23.3778H52.0841ZM47.2121 18.4498C47.2121 19.1358 47.4361 19.7938 47.8981 20.2978C48.0801 20.4798 48.2901 20.5778 48.5001 20.5778C48.7241 20.5778 48.9481 20.4518 49.1301 20.1998C50.1101 18.7438 50.9221 15.8598 50.8801 14.2358C48.9201 14.6138 47.2121 16.4058 47.2121 18.4498Z" fill="#EB7538"/>
<path d="M33.436 23.7979C33.31 23.7979 33.24 23.7279 33.24 23.6019V19.9059C32.862 20.1159 32.456 20.3259 32.022 20.5079C31.994 20.5219 31.966 20.5219 31.938 20.5219C31.868 20.5219 31.812 20.4799 31.77 20.4099L31.028 19.1499C31 19.1079 31 19.0659 31 19.0379C31 18.9679 31.042 18.9259 31.126 18.8979C32.12 18.5759 32.932 18.1139 33.618 17.5539H31.392C31.266 17.5539 31.196 17.4839 31.196 17.3579V16.2659C31.196 16.1399 31.266 16.0699 31.392 16.0699H34.948L35.298 15.4819H32.428C32.302 15.4819 32.232 15.4119 32.232 15.2859V14.3199C32.232 14.1939 32.302 14.1239 32.428 14.1239H35.872C35.942 13.9279 35.984 13.7319 36.04 13.5219H31.952C31.826 13.5219 31.756 13.4519 31.756 13.3259V12.2759C31.756 12.1499 31.826 12.0799 31.952 12.0799H36.292C36.32 11.8699 36.32 11.6459 36.334 11.4359C36.334 11.3099 36.418 11.2539 36.544 11.2539L38.028 11.2679C38.14 11.2679 38.21 11.3239 38.21 11.4359C38.21 11.6599 38.182 11.8559 38.154 12.0799H43.152C43.278 12.0799 43.348 12.1499 43.348 12.2759V13.3259C43.348 13.4519 43.278 13.5219 43.152 13.5219H37.888L37.72 14.1239H42.704C42.83 14.1239 42.9 14.1939 42.9 14.3199V15.2859C42.9 15.4119 42.83 15.4819 42.704 15.4819H39.932C40.03 15.6919 40.128 15.8879 40.24 16.0699H43.698C43.824 16.0699 43.894 16.1399 43.894 16.2659V17.3579C43.894 17.4839 43.824 17.5539 43.698 17.5539H41.486C42.186 18.1419 43.04 18.5899 43.992 18.8839C44.118 18.9259 44.174 19.0099 44.104 19.1359L43.432 20.3959C43.376 20.5079 43.292 20.5219 43.18 20.4799C42.718 20.2839 42.284 20.0739 41.892 19.8359V23.6019C41.892 23.7279 41.822 23.7979 41.696 23.7979H33.436ZM40.142 21.6839H34.99V22.3979H40.142V21.6839ZM40.142 19.8079H34.99V20.4939H40.142V19.8079ZM40.114 18.4359C39.82 18.1419 39.568 17.8479 39.344 17.5539H36.012C35.774 17.8619 35.494 18.1559 35.214 18.4359H40.114ZM38.406 16.0699C38.294 15.8599 38.21 15.6639 38.126 15.4819H37.23C37.146 15.6779 37.034 15.8739 36.936 16.0699H38.406Z" fill="#EB7538"/>
</svg>
