<svg width="268" height="45" viewBox="0 0 268 45" fill="none" xmlns="http://www.w3.org/2000/svg">
<path d="M249.571 3C258.092 3 265 9.90775 265 18.4287C265 26.9496 258.092 33.8574 249.571 33.8574H135.964L132.5 39L129.036 33.8574H18.4287C9.9078 33.8574 3.00008 26.9496 3 18.4287C3 9.90775 9.90775 3 18.4287 3H249.571Z" fill="white"/>
<path d="M0 18.4287C0 8.2509 8.2509 0 18.4287 0V3C9.90775 3 3 9.90775 3 18.4287C3.00008 26.9496 9.9078 33.8574 18.4287 33.8574H129.036L132.5 39L135.964 33.8574H249.571C258.092 33.8574 265 26.9496 265 18.4287C265 9.90775 258.092 3 249.571 3V0C259.749 0 268 8.2509 268 18.4287C268 28.6064 259.749 36.8574 249.571 36.8574H137.561L132.5 44.3701L127.439 36.8574H18.4287C8.25092 36.8574 8.98838e-05 28.6064 0 18.4287ZM249.571 0V3H18.4287V0H249.571Z" fill="#EB7538"/>
<path d="M230.006 23.8305C230.006 23.9551 229.937 24.0243 229.812 24.0243H228.456C228.331 24.0243 228.262 23.9551 228.262 23.8305V12.1062C228.262 11.9817 228.331 11.9124 228.456 11.9124H239.349C239.474 11.9124 239.543 11.9817 239.543 12.1062V21.9203C239.543 23.5675 238.574 24.0935 236.152 24.0243C236.041 24.0243 235.972 23.9828 235.93 23.872L235.446 22.5294C235.432 22.5017 235.432 22.474 235.432 22.4463C235.432 22.3633 235.501 22.3079 235.626 22.3079L236.179 22.3217C237.55 22.3217 237.785 22.0172 237.785 21.4912V18.8612H230.006V23.8305ZM232.996 13.5735H230.006V17.1309H232.996V13.5735ZM237.785 13.5735H234.74V17.1309H237.785V13.5735Z" fill="#EB7538"/>
<path d="M221.955 23.7198C219.284 23.7198 217.692 21.5881 217.692 18.0168C217.692 14.4317 219.284 12.3 221.955 12.3C224.641 12.3 226.219 14.4317 226.219 18.0168C226.219 21.5881 224.641 23.7198 221.955 23.7198ZM219.796 18.0168C219.796 20.5638 220.613 21.7404 221.955 21.7404C223.298 21.7404 224.128 20.5638 224.128 18.0168C224.128 15.4561 223.298 14.2795 221.955 14.2795C220.613 14.2795 219.796 15.4561 219.796 18.0168Z" fill="#EB7538"/>
<path d="M211.925 23.7198C209.253 23.7198 207.662 21.5881 207.662 18.0168C207.662 14.4317 209.253 12.3 211.925 12.3C214.61 12.3 216.188 14.4317 216.188 18.0168C216.188 21.5881 214.61 23.7198 211.925 23.7198ZM209.766 18.0168C209.766 20.5638 210.582 21.7404 211.925 21.7404C213.268 21.7404 214.098 20.5638 214.098 18.0168C214.098 15.4561 213.268 14.2795 211.925 14.2795C210.582 14.2795 209.766 15.4561 209.766 18.0168Z" fill="#EB7538"/>
<path d="M202.403 23.7198C200.423 23.7198 198.942 22.6124 198.388 20.7714C198.375 20.7437 198.375 20.716 198.375 20.6884C198.375 20.6053 198.43 20.5499 198.527 20.5223L200.049 20.1485C200.146 20.1485 200.202 20.2039 200.229 20.3008C200.575 21.2282 201.309 21.7404 202.306 21.7404C203.482 21.7404 204.23 21.0483 204.23 19.9547C204.23 18.8197 203.482 18.0999 202.292 18.0999C201.531 18.0999 200.894 18.3214 200.077 18.9442C200.036 18.9719 199.98 18.9858 199.939 18.9858C199.897 18.9858 199.856 18.9719 199.814 18.9581L198.942 18.5567C198.859 18.5013 198.79 18.4182 198.804 18.3075L199.316 12.6876C199.33 12.5492 199.399 12.5077 199.51 12.5077H205.545C205.655 12.5077 205.739 12.5769 205.739 12.7014V14.2241C205.739 14.3348 205.655 14.4179 205.545 14.4179H200.852L200.589 17.1309C201.226 16.6188 202.001 16.3419 202.887 16.3419C204.922 16.3419 206.32 17.7954 206.32 19.9686C206.32 22.1971 204.714 23.7198 202.403 23.7198Z" fill="#EB7538"/>
<path d="M194.443 25.9345C194.305 25.9345 194.222 25.8515 194.277 25.7131L195.011 23.5122C194.651 23.3045 194.416 22.9446 194.416 22.474C194.416 21.7819 194.942 21.2974 195.634 21.2974C196.326 21.2974 196.852 21.7819 196.852 22.474C196.852 22.917 196.699 23.3184 196.187 24.4534L195.592 25.7961C195.551 25.8792 195.468 25.9345 195.371 25.9345H194.443Z" fill="#EB7538"/>
<path d="M189.547 23.7198C187.568 23.7198 186.087 22.6124 185.533 20.7714C185.519 20.7437 185.519 20.716 185.519 20.6884C185.519 20.6053 185.574 20.5499 185.671 20.5223L187.194 20.1485C187.291 20.1485 187.346 20.2039 187.374 20.3008C187.72 21.2282 188.454 21.7404 189.45 21.7404C190.627 21.7404 191.374 21.0483 191.374 19.9547C191.374 18.8197 190.627 18.0999 189.436 18.0999C188.675 18.0999 188.038 18.3214 187.222 18.9442C187.18 18.9719 187.125 18.9858 187.083 18.9858C187.042 18.9858 187 18.9719 186.959 18.9581L186.087 18.5567C186.004 18.5013 185.934 18.4182 185.948 18.3075L186.46 12.6876C186.474 12.5492 186.543 12.5077 186.654 12.5077H192.689C192.8 12.5077 192.883 12.5769 192.883 12.7014V14.2241C192.883 14.3348 192.8 14.4179 192.689 14.4179H187.997L187.734 17.1309C188.371 16.6188 189.146 16.3419 190.032 16.3419C192.066 16.3419 193.464 17.7954 193.464 19.9686C193.464 22.1971 191.859 23.7198 189.547 23.7198Z" fill="#EB7538"/>
<path d="M168.899 23.263C168.816 23.263 168.746 23.2076 168.719 23.1107L168.206 21.4635C168.206 21.3805 168.262 21.3251 168.373 21.3113C173.162 20.7022 175.667 18.1553 177.065 13.9749C177.093 13.8919 177.148 13.8504 177.204 13.8504C177.245 13.8504 177.287 13.8642 177.315 13.878L178.713 14.7224C178.81 14.7916 178.851 14.8608 178.81 14.9577C177.342 19.3595 174.255 22.4879 168.954 23.263H168.899ZM167.777 14.2379C167.777 14.1964 167.791 14.1549 167.819 14.1134L168.774 12.8537C168.843 12.7707 168.926 12.743 169.023 12.7845C170.2 13.2275 171.639 14.058 172.677 14.9993C172.733 15.0408 172.761 15.0962 172.761 15.1377C172.761 15.1792 172.733 15.2346 172.691 15.2761L171.584 16.5773C171.529 16.6326 171.487 16.6603 171.432 16.6603C171.39 16.6603 171.349 16.6326 171.307 16.5911C170.338 15.7052 169.009 14.8193 167.902 14.3764C167.819 14.3487 167.777 14.2933 167.777 14.2379Z" fill="#EB7538"/>
<path d="M155.444 23.1661C155.319 23.1661 155.25 23.0969 155.25 22.9723V21.7404C155.25 21.6019 155.319 21.5466 155.444 21.5466H161.548V19.6779H155.859C155.734 19.6779 155.665 19.6087 155.665 19.4841V18.266C155.665 18.1414 155.734 18.0722 155.859 18.0722H161.548V16.4111H155.555C155.43 16.4111 155.361 16.3419 155.361 16.2174V14.9716C155.361 14.847 155.43 14.7778 155.555 14.7778H163.168C163.292 14.7778 163.361 14.847 163.361 14.9716V22.9862C163.361 23.1107 163.292 23.1799 163.168 23.1799L155.444 23.1661Z" fill="#EB7538"/>
<path d="M143.097 18.4736C143.055 18.529 143.014 18.5705 142.958 18.5705C142.917 18.5705 142.875 18.5428 142.834 18.5152C142.017 17.8646 140.799 17.2417 139.733 16.8818C139.65 16.8541 139.608 16.7987 139.608 16.7434C139.608 16.7018 139.622 16.6742 139.636 16.6326L140.37 15.4145C140.425 15.3176 140.508 15.2761 140.619 15.3038C141.74 15.6083 143.027 16.2451 143.899 16.9233C143.955 16.9648 143.983 17.0202 143.983 17.0756C143.983 17.1033 143.969 17.1448 143.941 17.1863L143.097 18.4736ZM140.605 21.6158C140.605 21.5466 140.66 21.4912 140.757 21.4774C145.976 20.8545 148.135 18.1276 149.464 14.141C149.492 14.058 149.547 14.0026 149.602 14.0026C149.644 14.0026 149.672 14.0165 149.713 14.0442L151.07 14.8885C151.167 14.9439 151.208 15.0131 151.167 15.11C149.782 19.3595 146.972 22.5571 141.422 23.3737H141.38C141.283 23.3737 141.228 23.3322 141.186 23.2353L140.619 21.7127C140.605 21.6712 140.605 21.6435 140.605 21.6158ZM141.242 13.6843C141.242 13.6427 141.242 13.615 141.269 13.5735L142.017 12.4108C142.072 12.3139 142.155 12.2724 142.266 12.3139C143.553 12.6738 144.716 13.2552 145.671 13.9888C145.727 14.0303 145.754 14.0857 145.754 14.1272C145.754 14.1687 145.74 14.2103 145.699 14.2518L144.827 15.4422C144.785 15.4976 144.744 15.5391 144.688 15.5391C144.647 15.5391 144.605 15.5114 144.564 15.4837C143.72 14.8332 142.46 14.1826 141.366 13.8227C141.283 13.795 141.242 13.7396 141.242 13.6843Z" fill="#EB7538"/>
<path d="M129.642 18.4321C129.642 18.529 129.587 18.5982 129.49 18.6259L128.189 18.9858H128.119C128.036 18.9858 127.981 18.9304 127.967 18.8335C127.829 17.6708 127.469 16.3558 126.971 15.3176C126.957 15.2899 126.943 15.2484 126.943 15.2207C126.943 15.1515 126.984 15.0961 127.081 15.0823L128.313 14.7916C128.341 14.7778 128.355 14.7778 128.382 14.7778C128.452 14.7778 128.507 14.8193 128.549 14.8885C129.088 15.8851 129.49 17.2001 129.642 18.3906V18.4321ZM127.967 22.1695C127.967 22.1141 128.023 22.0587 128.119 22.0449C132.59 21.2697 134.445 18.9581 134.57 14.4317C134.57 14.3071 134.653 14.2379 134.778 14.2518L136.245 14.4317C136.369 14.4456 136.425 14.5286 136.425 14.6532C136.023 19.7471 133.975 22.6124 129.379 23.6229C129.351 23.6367 129.338 23.6367 129.31 23.6367C129.241 23.6367 129.185 23.6091 129.13 23.5398L128.036 22.2941C127.995 22.2525 127.967 22.211 127.967 22.1695ZM130.044 14.6809C130.044 14.5978 130.099 14.5563 130.196 14.5286L131.469 14.2379C131.483 14.2241 131.511 14.2241 131.538 14.2241C131.608 14.2241 131.663 14.2656 131.705 14.3348C132.148 15.3176 132.549 16.7018 132.632 17.8784V17.9061C132.632 18.003 132.59 18.0722 132.48 18.0999L131.179 18.4321C131.151 18.4459 131.123 18.4459 131.109 18.4459C131.012 18.4459 130.957 18.3906 130.957 18.2798C130.86 17.1309 130.542 15.7883 130.071 14.7778C130.057 14.7362 130.044 14.7086 130.044 14.6809Z" fill="#EB7538"/>
<path d="M123.029 21.6019C123.14 21.6435 123.168 21.7404 123.126 21.8511L122.448 23.4153C122.393 23.5398 122.31 23.5675 122.199 23.5121C120.067 22.5017 116.385 21.7542 113.201 21.6019C113.063 21.6019 113.008 21.505 113.049 21.3805L113.589 19.9547C113.631 19.8578 113.7 19.8025 113.81 19.8025C116.69 19.8994 120.482 20.5084 123.029 21.6019ZM114.157 12.6184C114.184 12.5077 114.253 12.4523 114.364 12.4523L114.987 12.4384C117.437 12.4384 120.815 12.7568 122.919 13.2967C123.043 13.3243 123.085 13.4074 123.057 13.532L122.642 15.0546C122.614 15.1792 122.531 15.2346 122.406 15.193C120.247 14.5978 116.98 14.2241 114.433 14.2241H114.004C113.866 14.2241 113.81 14.141 113.838 14.0164L114.157 12.6184ZM114.503 16.1481C114.544 16.0374 114.613 15.982 114.724 15.982C116.842 16.0097 119.956 16.3835 121.95 17.0202C122.06 17.0617 122.102 17.1448 122.074 17.2555L121.59 18.8474C121.562 18.9719 121.465 19.0135 121.354 18.9581C119.486 18.2798 116.357 17.823 114.226 17.8369C114.073 17.8369 114.018 17.7538 114.06 17.6292L114.503 16.1481Z" fill="#EB7538"/>
<path d="M100.051 15.1653C100.051 15.2899 99.9822 15.3591 99.8576 15.3591H98.5426C98.418 15.3591 98.3488 15.2899 98.3488 15.1653V12.6599C98.3488 12.5353 98.418 12.4661 98.5426 12.4661H103.277V11.5802C103.277 11.4557 103.346 11.3864 103.47 11.3864H105.104C105.228 11.3864 105.298 11.4557 105.298 11.5802V12.4661H110.073C110.198 12.4661 110.267 12.5353 110.267 12.6599V14.667C110.267 14.7916 110.198 14.8608 110.073 14.8608H108.758C108.634 14.8608 108.564 14.7916 108.564 14.667V13.9334H106.197L106.211 13.9888V15.1792C106.211 15.5806 106.363 15.6913 106.945 15.6913C107.152 15.6913 107.402 15.6913 107.554 15.6775C107.955 15.6498 108.066 15.4422 108.135 15.0269C108.163 14.8885 108.246 14.8331 108.371 14.8747L109.561 15.2484C109.672 15.2899 109.713 15.3591 109.699 15.4837C109.506 16.6188 109.021 17.0202 107.665 17.0479H106.294C105.007 17.0202 104.605 16.4665 104.605 15.7052V13.9888L104.619 13.9334H100.051V15.1653ZM98.9164 16.2589C98.9025 16.2173 98.8887 16.1897 98.8887 16.162C98.8887 16.0789 98.944 16.0374 99.0548 16.0236C100.868 15.8159 101.768 15.193 102.155 14.2379C102.197 14.1272 102.28 14.0857 102.391 14.1133L103.54 14.4179C103.664 14.4456 103.733 14.5148 103.692 14.6117C103.152 16.0236 101.754 17.1448 99.7469 17.4493H99.7054C99.6223 17.4493 99.5531 17.4078 99.4977 17.3247L98.9164 16.2589ZM99.1378 19.6917C99.0133 19.6917 98.944 19.6225 98.944 19.4979V18.3075C98.944 18.1829 99.0133 18.1137 99.1378 18.1137H102.488C102.515 17.74 102.529 17.3386 102.529 16.9787C102.529 16.8541 102.598 16.7849 102.723 16.7849H104.135C104.259 16.7849 104.329 16.8541 104.329 16.9787C104.329 17.3109 104.315 17.74 104.287 18.1137H107.789C107.928 18.1137 107.983 18.1968 107.969 18.3213C107.831 19.401 107.665 20.8683 107.582 21.6296C107.54 21.9757 107.651 22.0864 107.928 22.1141C108.094 22.1279 108.301 22.1279 108.454 22.1141C109.007 22.0726 109.118 21.685 109.187 19.8717C109.187 19.7194 109.284 19.6502 109.423 19.7056L110.585 20.2177C110.682 20.2592 110.724 20.3285 110.724 20.453C110.613 23.3322 110.045 23.6783 108.592 23.7475L107.955 23.7613C107.692 23.7613 107.443 23.7613 107.263 23.7475C106.405 23.7059 105.727 23.263 105.727 22.4186C105.727 22.3494 105.727 22.2802 105.741 22.211L106.073 19.6917H104.066C103.457 22.2802 101.712 23.5398 98.944 23.9966H98.9025C98.8195 23.9966 98.7503 23.9551 98.6949 23.872L98.0028 22.5432C97.9889 22.5017 97.9751 22.474 97.9751 22.4463C97.9751 22.3633 98.0305 22.3217 98.1412 22.3079C100.577 22.031 101.879 21.2697 102.308 19.6917H99.1378Z" fill="#EB7538"/>
<path d="M87.4136 21.4497C87.4136 23.5122 87.0537 23.9828 84.922 24.0243C84.8113 24.0243 84.7421 23.9828 84.7005 23.8721L84.2437 22.5017C84.2299 22.474 84.2299 22.4463 84.2299 22.4325C84.2299 22.3356 84.2991 22.2802 84.4237 22.2802C85.4203 22.2802 85.7387 22.1418 85.7387 21.4497V19.498L84.5067 19.8025C84.4791 19.8025 84.4652 19.8163 84.4514 19.8163C84.3545 19.8163 84.2991 19.7471 84.2853 19.6502L84.0776 18.2937V18.2522C84.0776 18.1553 84.133 18.0999 84.2437 18.0722C84.7421 17.9753 85.2404 17.8646 85.7387 17.7262V15.3592H84.5344C84.4098 15.3592 84.3406 15.2899 84.3406 15.1654V13.9196C84.3406 13.795 84.4098 13.7258 84.5344 13.7258H85.7387V11.6079C85.7387 11.4834 85.8079 11.4142 85.9325 11.4142H87.2198C87.3444 11.4142 87.4136 11.4834 87.4136 11.6079V13.7258H88.2303C88.3549 13.7258 88.4241 13.795 88.4241 13.9196V15.1654C88.4241 15.2899 88.3549 15.3592 88.2303 15.3592H87.4136V17.2832C87.6766 17.214 87.9257 17.131 88.1887 17.0341C88.2164 17.0202 88.2441 17.0202 88.2718 17.0202C88.3549 17.0202 88.4102 17.0894 88.4102 17.2002V18.4875C88.4102 18.5982 88.3687 18.6813 88.2718 18.7228C88.0226 18.8335 87.732 18.9443 87.4136 19.055V21.4497ZM90.2374 14.4456C90.2374 14.5702 90.1682 14.6394 90.0436 14.6394H88.867C88.7424 14.6394 88.6732 14.5702 88.6732 14.4456V11.9955C88.6732 11.8709 88.7424 11.8017 88.867 11.8017H96.4525C96.5771 11.8017 96.6463 11.8709 96.6463 11.9955V14.4041C96.6463 14.5286 96.5771 14.5978 96.4525 14.5978H95.1929C95.0683 14.5978 94.9991 14.5286 94.9991 14.4041V13.2275H90.2374V14.4456ZM94.5008 17.1033C93.5872 17.1033 92.6736 17.0479 92.6736 15.8436V13.9473C92.6736 13.8227 92.7428 13.7535 92.8674 13.7535H93.9055C94.0301 13.7535 94.0993 13.8227 94.0993 13.9473V15.2484C94.0993 15.5806 94.2101 15.6775 94.4731 15.7052L94.7084 15.7191C95.2344 15.7191 95.4282 15.6637 95.4974 14.9716C95.5112 14.8193 95.6081 14.7501 95.7327 14.8055L96.674 15.1654C96.7847 15.2069 96.8262 15.2761 96.8124 15.4007C96.5771 17.0756 95.9403 17.1033 94.5008 17.1033ZM88.4241 16.3835C88.3964 16.342 88.3825 16.3004 88.3825 16.2727C88.3825 16.1897 88.4379 16.1343 88.5348 16.1205C89.9882 15.8021 90.6942 15.11 91.0402 13.9334C91.0818 13.8088 91.151 13.7673 91.2755 13.8088L92.2445 14.1549C92.3552 14.1964 92.3968 14.2795 92.3691 14.3902C91.9538 15.9128 90.9572 16.9787 89.393 17.5047C89.3653 17.5185 89.3238 17.5185 89.2961 17.5185C89.2269 17.5185 89.1715 17.4908 89.13 17.4216L88.4241 16.3835ZM88.7147 19.581C88.5902 19.581 88.521 19.5118 88.521 19.3872V18.1968C88.521 18.0722 88.5902 18.003 88.7147 18.003H91.5662L91.5524 17.1448C91.5524 17.0202 91.6216 16.951 91.7462 16.951H93.0612C93.1858 16.951 93.255 17.0202 93.255 17.1448V18.003H96.3694C96.494 18.003 96.5632 18.0722 96.5632 18.1968V19.3872C96.5632 19.5118 96.494 19.581 96.3694 19.581H93.8225C94.6807 20.5638 95.7742 21.3943 96.8678 21.8926C96.9508 21.9342 96.9923 21.9757 96.9923 22.0449C96.9923 22.0726 96.9785 22.1141 96.9508 22.1556L96.2449 23.443C96.1895 23.5537 96.0926 23.5952 95.9819 23.526C94.9714 22.9446 93.9609 21.948 93.2134 20.8822L93.255 23.8444C93.255 23.969 93.1858 24.0382 93.0612 24.0382H91.7462C91.6216 24.0382 91.5524 23.969 91.5524 23.8444L91.6078 20.9375C90.8741 21.9757 89.836 22.9308 88.7563 23.5399C88.7147 23.5537 88.6871 23.5675 88.6455 23.5675C88.5902 23.5675 88.5348 23.5399 88.4933 23.4706L87.6904 22.211C87.6627 22.1695 87.6489 22.1418 87.6489 22.1003C87.6489 22.0449 87.6904 22.0034 87.7735 21.9619C89.0054 21.4497 90.1682 20.633 91.0402 19.581H88.7147Z" fill="#EB7538"/>
<path d="M73.7515 23.8167C73.7515 23.9413 73.6823 24.0105 73.5577 24.0105H72.2011C72.0766 24.0105 72.0074 23.9413 72.0074 23.8167V17.1448C71.6751 17.56 71.3153 17.9476 70.9277 18.2937C70.8861 18.3352 70.8446 18.349 70.8031 18.349C70.7477 18.349 70.6924 18.2937 70.6647 18.2106L70.1525 16.6326C70.1387 16.6049 70.1387 16.5634 70.1387 16.5357C70.1387 16.4665 70.1664 16.4111 70.2217 16.3696C71.5506 15.2069 72.6441 13.4074 73.1563 11.6633C73.1978 11.5387 73.267 11.4834 73.3916 11.511L74.8035 11.8017C74.928 11.8294 74.9834 11.9125 74.9419 12.037C74.665 12.9921 74.2636 13.9611 73.7515 14.847V23.8167ZM74.4989 17.3939C74.402 17.3939 74.3467 17.3386 74.3328 17.2278L74.2498 15.9405V15.9128C74.2498 15.8021 74.319 15.7329 74.4297 15.719L76.5753 15.4699C76.423 14.0857 76.3399 12.743 76.2846 11.6079C76.2846 11.4834 76.3538 11.4141 76.4784 11.4141L77.8626 11.4003C77.9872 11.4003 78.0564 11.4695 78.0564 11.5941C78.1117 12.6461 78.1671 13.9473 78.3194 15.2761L82.4858 14.8055H82.5135C82.6243 14.8055 82.6796 14.8747 82.6935 14.9854L82.7627 16.3004V16.3281C82.7627 16.4388 82.6935 16.4942 82.5827 16.508L78.5547 16.951C78.8454 18.6397 79.2883 20.2316 80.0358 21.2974C80.3126 21.6988 80.5618 21.8511 80.7556 21.8511C81.3231 21.8511 81.5861 20.633 81.683 19.7748C81.6968 19.6779 81.7384 19.6225 81.8076 19.6225C81.8491 19.6225 81.8906 19.6364 81.9322 19.6917L83.0118 20.8545C83.0811 20.9237 83.1087 20.9929 83.0949 21.0759C82.7765 22.7508 81.8353 24.0382 80.7141 24.0382C80.0496 24.0382 79.316 23.5952 78.5962 22.5294C77.6688 21.159 77.1289 19.1796 76.7967 17.1448L74.5405 17.3939H74.4989ZM80.6864 14.4871C80.2296 13.7811 79.5375 13.0752 78.9007 12.6184C78.8454 12.5769 78.8038 12.5215 78.8038 12.4661C78.8038 12.4246 78.8315 12.3831 78.8869 12.3416L79.8697 11.5664C79.9112 11.5249 79.9666 11.511 80.0081 11.511C80.0496 11.511 80.0912 11.5249 80.1327 11.5526C80.7971 11.9955 81.5169 12.6599 82.0429 13.3797C82.0706 13.4212 82.0844 13.4628 82.0844 13.5043C82.0844 13.5597 82.0567 13.615 82.0014 13.6566L80.9494 14.5286C80.9078 14.5701 80.8663 14.584 80.8248 14.584C80.7694 14.584 80.7279 14.5563 80.6864 14.4871Z" fill="#EB7538"/>
<path d="M64.6848 17.3386C65.9306 17.7538 66.6919 18.6951 66.6919 20.0239C66.6919 21.9895 65.0724 23.3045 62.7054 23.3045C60.7398 23.3045 59.3141 22.1972 58.7881 20.3977V20.3423C58.7881 20.2454 58.8435 20.19 58.9403 20.1624L60.5184 19.7333C60.6014 19.7333 60.6706 19.7886 60.6983 19.8855C61.0167 20.7437 61.6396 21.3251 62.7054 21.3251C63.8543 21.3251 64.6018 20.7022 64.6018 19.7333C64.6018 18.7781 63.7989 18.2521 62.5808 18.2521H62.124C61.9995 18.2521 61.9302 18.1829 61.9302 18.0584V16.7295C61.9302 16.6049 61.9995 16.5357 62.124 16.5357H62.5808C63.6051 16.5357 64.3111 16.0097 64.3111 15.2484C64.3111 14.4456 63.619 13.8642 62.6639 13.8642C61.7226 13.8642 61.0997 14.4456 60.7814 15.3038C60.7398 15.4283 60.6706 15.4699 60.546 15.4422L59.0372 15.0269C58.9127 14.9992 58.8573 14.93 58.885 14.7916C59.411 12.9921 60.8229 11.8848 62.7054 11.8848C64.8371 11.8848 66.4151 13.1444 66.4151 14.8608C66.4151 15.9405 65.7645 16.8402 64.6848 17.3386Z" fill="#EB7538"/>
<path d="M49.4725 23.3737C49.3756 23.3737 49.3064 23.3184 49.2648 23.2215L48.6973 21.7819C48.6835 21.7542 48.6835 21.7265 48.6835 21.6988C48.6835 21.6158 48.7388 21.5604 48.8634 21.5604C51.8948 21.422 53.113 19.7332 53.113 17.9753C53.113 16.1758 51.9225 14.7501 50.1507 14.3625C50.1369 16.4665 49.1956 19.6087 47.8945 21.5466C47.4515 22.1971 46.7456 22.5294 46.0119 22.5294C43.9771 22.5294 42.8975 20.37 42.8975 18.5705C42.8975 16.951 43.6449 15.193 45.306 13.878C46.3857 13.0198 47.7837 12.6046 49.1541 12.6046C52.3932 12.6046 55.0093 14.8193 55.0093 18.0999C55.0093 20.896 52.7946 23.1799 49.5002 23.3737H49.4725ZM44.6554 18.5013C44.6554 19.1796 44.8769 19.8301 45.3337 20.3285C45.5136 20.5084 45.7213 20.6053 45.9289 20.6053C46.1504 20.6053 46.3718 20.4807 46.5518 20.2316C47.5207 18.792 48.3236 15.9405 48.282 14.3348C46.3442 14.7086 44.6554 16.4803 44.6554 18.5013Z" fill="#EB7538"/>
<path d="M31.0345 23.789C30.9099 23.789 30.8407 23.7198 30.8407 23.5952V19.9409C30.467 20.1485 30.0656 20.3561 29.6365 20.5361C29.6088 20.5499 29.5811 20.5499 29.5534 20.5499C29.4842 20.5499 29.4288 20.5084 29.3873 20.4392L28.6537 19.1934C28.626 19.1519 28.626 19.1104 28.626 19.0827C28.626 19.0135 28.6675 18.9719 28.7506 18.9442C29.7333 18.6259 30.5362 18.1691 31.2145 17.6154H29.0136C28.889 17.6154 28.8198 17.5462 28.8198 17.4216V16.3419C28.8198 16.2173 28.889 16.1481 29.0136 16.1481H32.5295L32.8755 15.5668H30.0379C29.9133 15.5668 29.8441 15.4976 29.8441 15.373V14.4179C29.8441 14.2933 29.9133 14.2241 30.0379 14.2241H33.443C33.5122 14.0303 33.5538 13.8365 33.6091 13.6289H29.5672C29.4427 13.6289 29.3735 13.5597 29.3735 13.4351V12.3969C29.3735 12.2723 29.4427 12.2031 29.5672 12.2031H33.8583C33.886 11.9955 33.886 11.774 33.8998 11.5664C33.8998 11.4418 33.9829 11.3864 34.1075 11.3864L35.5747 11.4003C35.6855 11.4003 35.7547 11.4557 35.7547 11.5664C35.7547 11.7879 35.727 11.9817 35.6993 12.2031H40.6409C40.7655 12.2031 40.8347 12.2723 40.8347 12.3969V13.4351C40.8347 13.5597 40.7655 13.6289 40.6409 13.6289H35.4363L35.2702 14.2241H40.198C40.3226 14.2241 40.3918 14.2933 40.3918 14.4179V15.373C40.3918 15.4976 40.3226 15.5668 40.198 15.5668H37.4573C37.5541 15.7744 37.651 15.9682 37.7618 16.1481H41.1808C41.3054 16.1481 41.3746 16.2173 41.3746 16.3419V17.4216C41.3746 17.5462 41.3054 17.6154 41.1808 17.6154H38.9937C39.6858 18.1968 40.5302 18.6397 41.4715 18.9304C41.5961 18.9719 41.6514 19.055 41.5822 19.1796L40.9178 20.4254C40.8624 20.5361 40.7794 20.5499 40.6686 20.5084C40.2118 20.3146 39.7827 20.107 39.3952 19.8717V23.5952C39.3952 23.7198 39.3259 23.789 39.2014 23.789H31.0345ZM37.6649 21.6988H32.571V22.4048H37.6649V21.6988ZM37.6649 19.844H32.571V20.5222H37.6649V19.844ZM37.6372 18.4875C37.3465 18.1968 37.0974 17.9061 36.8759 17.6154H33.5815C33.3461 17.9199 33.0693 18.2106 32.7925 18.4875H37.6372ZM35.9485 16.1481C35.8377 15.9405 35.7547 15.7467 35.6716 15.5668H34.7857C34.7027 15.7606 34.5919 15.9543 34.495 16.1481H35.9485Z" fill="#EB7538"/>
</svg>
