<svg width="274" height="33" viewBox="0 0 274 33" fill="none" xmlns="http://www.w3.org/2000/svg">
<g clip-path="url(#clip0_443_4)">
<path d="M263.398 29.8173C263.132 29.8173 262.962 29.6718 262.962 29.4051V25.4771C262.962 25.2104 263.107 25.0406 263.374 25.0164C266.162 24.7497 267.181 22.3492 267.181 17.1846C267.181 12.02 266.162 9.61956 263.374 9.35285C263.107 9.3286 262.962 9.18312 262.962 8.9164V4.98839C262.962 4.72167 263.132 4.55194 263.374 4.55194C269.557 4.84291 272.273 9.52257 272.273 17.1846C272.273 24.8224 269.557 29.5263 263.398 29.8173Z" fill="#BF8E1D"/>
<path d="M260.962 4.98846C260.962 4.42591 261.148 3.79184 261.634 3.28534C262.125 2.77366 262.771 2.55196 263.374 2.55194H263.421L263.468 2.55389C267.12 2.72575 269.96 4.24247 271.803 6.98944C273.57 9.62361 274.272 13.1691 274.272 17.1848C274.272 21.1895 273.569 24.732 271.808 27.3674C269.971 30.115 267.139 31.6423 263.493 31.8146L263.445 31.8176H263.398C262.916 31.8176 262.269 31.683 261.726 31.1828C261.158 30.6603 260.962 29.978 260.962 29.4055V25.4767C260.962 24.9833 261.102 24.3612 261.57 23.8312C262.044 23.2957 262.658 23.0753 263.184 23.0256L263.332 23.007C263.66 22.9583 263.86 22.865 263.994 22.7707C264.147 22.6627 264.332 22.4717 264.515 22.0842C264.919 21.2274 265.181 19.7139 265.181 17.1848C265.181 14.6558 264.919 13.1421 264.515 12.2853C264.332 11.8975 264.147 11.7058 263.994 11.5978C263.841 11.4901 263.602 11.384 263.184 11.3439V11.343C262.739 11.301 262.125 11.1323 261.624 10.6096C261.105 10.0684 260.962 9.41477 260.962 8.9162V4.98846ZM262.962 8.9162C262.962 9.18289 263.107 9.32846 263.374 9.35272C266.162 9.61944 267.181 12.0201 267.181 17.1848L267.169 18.1203C267.047 22.6408 265.988 24.7667 263.374 25.0168L263.28 25.0324C263.074 25.0847 262.962 25.2434 262.962 25.4767V29.4055C262.962 29.6385 263.092 29.7792 263.303 29.8107L263.398 29.8176C269.365 29.5357 272.1 25.112 272.265 17.8918L272.272 17.1848C272.272 9.52271 269.557 4.84291 263.374 4.55194C263.132 4.55197 262.962 4.72177 262.962 4.98846V8.9162Z" fill="#BF8E1D"/>
<path d="M238.739 5.23085C238.739 4.98838 238.885 4.8429 239.127 4.8429H259.082C259.325 4.8429 259.47 4.98838 259.47 5.23085V22.7614C259.47 26.0348 257.555 27.1501 252.73 26.9319C252.487 26.9319 252.366 26.8107 252.293 26.5924L251.057 23.1251C251.032 23.0766 251.032 23.0281 251.032 22.9796C251.032 22.7372 251.226 22.6887 251.42 22.6887C254.645 22.8584 255.13 22.519 255.13 21.6703V18.3242H243.055V26.5197C243.055 26.7864 242.91 26.9077 242.667 26.9077H239.127C238.885 26.9077 238.739 26.7864 238.739 26.5197V5.23085ZM246.862 8.91639H243.055V14.0568H246.862V8.91639ZM255.13 8.91639H251.202V14.0568H255.13V8.91639Z" fill="#BF8E1D"/>
<path d="M238.739 26.5197C238.739 26.7863 238.885 26.9073 239.127 26.9073H242.667C242.879 26.9073 243.018 26.815 243.049 26.6134L243.056 26.5197V18.3243H255.13V21.67C255.13 22.5186 254.645 22.8583 251.421 22.6886C251.227 22.6886 251.032 22.7372 251.032 22.9796C251.032 23.0281 251.032 23.0766 251.057 23.1251L252.293 26.5929C252.366 26.8108 252.487 26.9317 252.729 26.9318C257.404 27.1432 259.348 26.1031 259.465 23.0616L259.471 22.7618V5.23059C259.471 4.98827 259.324 4.8429 259.082 4.8429V2.8429C259.604 2.8429 260.257 3.00736 260.781 3.53137C261.305 4.05556 261.471 4.70831 261.471 5.23059V22.7618C261.471 24.816 260.834 26.7145 258.952 27.8634C257.321 28.8597 255.101 29.0411 252.64 28.9298V28.9288C252.185 28.9133 251.649 28.7785 251.174 28.3859C250.724 28.0142 250.514 27.562 250.41 27.2638L250.409 27.2648L249.186 23.8331C249.108 23.6326 249.069 23.4489 249.051 23.3009C249.03 23.1327 249.032 22.9836 249.032 22.9796C249.032 22.2074 249.408 21.446 250.146 21.0157C250.691 20.6975 251.233 20.6886 251.421 20.6886H251.473L251.525 20.6915C252.214 20.7278 252.736 20.736 253.13 20.7257V20.3243H245.056V26.5197C245.056 27.0075 244.915 27.7051 244.333 28.2609C243.768 28.8002 243.096 28.9073 242.667 28.9073H239.127C238.698 28.9073 238.026 28.8004 237.461 28.2609C236.879 27.7051 236.739 27.0075 236.739 26.5197V5.23059C236.739 4.70837 236.904 4.05558 237.428 3.53137C237.952 3.00717 238.605 2.84295 239.127 2.8429V4.8429C238.885 4.843 238.739 4.98836 238.739 5.23059V26.5197ZM246.862 8.91614V14.0568H243.056V8.91614H246.862ZM255.13 8.91614V14.0568H251.202V8.91614H255.13ZM259.082 2.8429V4.8429H239.127V2.8429H259.082Z" fill="#BF8E1D"/>
<path d="M226.571 26.1803C221.576 26.1803 218.594 22.3492 218.594 15.9238C218.594 9.49832 221.576 5.6673 226.571 5.6673C231.614 5.6673 234.573 9.49832 234.573 15.9238C234.573 22.3492 231.614 26.1803 226.571 26.1803ZM223.613 15.9238C223.613 19.8275 224.825 21.3309 226.571 21.3309C228.341 21.3309 229.553 19.8275 229.553 15.9238C229.553 12.02 228.341 10.5167 226.571 10.5167C224.825 10.5167 223.613 12.02 223.613 15.9238Z" fill="#BF8E1D"/>
<path d="M234.572 15.9241C234.572 9.69964 231.797 5.909 227.038 5.67804L226.571 5.6673C221.576 5.6673 218.594 9.49868 218.594 15.9241L218.603 16.5189C218.776 22.3893 221.545 25.9458 226.108 26.1693L226.571 26.18C231.457 26.1799 234.385 22.5849 234.563 16.5189L234.572 15.9241ZM227.554 15.9241C227.554 14.1181 227.262 13.1992 227.017 12.7943C226.862 12.5396 226.771 12.5169 226.571 12.5169C226.394 12.5169 226.306 12.5301 226.149 12.7894C225.904 13.1964 225.613 14.1186 225.613 15.9241C225.613 17.7294 225.904 18.6509 226.149 19.0579C226.306 19.3173 226.394 19.3304 226.571 19.3304V21.3304L226.409 21.3265C224.858 21.2407 223.762 19.8971 223.627 16.6282L223.613 15.9241C223.613 12.0204 224.826 10.5169 226.571 10.5169L226.735 10.5208C228.416 10.6127 229.554 12.1424 229.554 15.9241L229.539 16.6282C229.399 20.0095 228.23 21.3302 226.571 21.3304V19.3304C226.771 19.3304 226.862 19.3077 227.017 19.053C227.262 18.6481 227.554 17.7297 227.554 15.9241ZM236.572 15.9241C236.572 19.4118 235.774 22.464 234.042 24.6898C232.259 26.9811 229.653 28.1799 226.571 28.18C223.508 28.18 220.91 26.9771 219.131 24.6898C217.401 22.4661 216.594 19.4155 216.594 15.9241C216.594 12.4326 217.401 9.38131 219.131 7.15753C220.91 4.87033 223.509 3.6673 226.571 3.6673C229.653 3.66737 232.259 4.86625 234.042 7.15753C235.774 9.38338 236.572 12.4362 236.572 15.9241Z" fill="#BF8E1D"/>
<path d="M207.008 26.1803C202.013 26.1803 199.031 22.3492 199.031 15.9238C199.031 9.49832 202.013 5.6673 207.008 5.6673C212.051 5.6673 215.01 9.49832 215.01 15.9238C215.01 22.3492 212.051 26.1803 207.008 26.1803ZM204.05 15.9238C204.05 19.8275 205.262 21.3309 207.008 21.3309C208.778 21.3309 209.99 19.8275 209.99 15.9238C209.99 12.02 208.778 10.5167 207.008 10.5167C205.262 10.5167 204.05 12.02 204.05 15.9238Z" fill="#BF8E1D"/>
<path d="M215.009 15.9241C215.009 9.69964 212.234 5.909 207.475 5.67804L207.008 5.6673C202.013 5.6673 199.031 9.49868 199.031 15.9241L199.04 16.5189C199.214 22.3893 201.982 25.9458 206.545 26.1693L207.008 26.18C211.894 26.1799 214.822 22.5849 215 16.5189L215.009 15.9241ZM207.991 15.9241C207.991 14.1181 207.699 13.1992 207.454 12.7943C207.299 12.5396 207.208 12.5169 207.008 12.5169C206.831 12.5169 206.743 12.5301 206.586 12.7894C206.341 13.1964 206.05 14.1186 206.05 15.9241C206.05 17.7294 206.341 18.6509 206.586 19.0579C206.743 19.3173 206.831 19.3304 207.008 19.3304V21.3304L206.846 21.3265C205.295 21.2407 204.199 19.8971 204.064 16.6282L204.05 15.9241C204.05 12.0204 205.263 10.5169 207.008 10.5169L207.172 10.5208C208.853 10.6127 209.991 12.1424 209.991 15.9241L209.976 16.6282C209.836 20.0095 208.667 21.3302 207.008 21.3304V19.3304C207.208 19.3304 207.299 19.3077 207.454 19.053C207.699 18.6481 207.991 17.7297 207.991 15.9241ZM217.009 15.9241C217.009 19.4118 216.211 22.464 214.479 24.6898C212.696 26.9811 210.09 28.1799 207.008 28.18C203.946 28.18 201.347 26.9771 199.568 24.6898C197.838 22.4661 197.031 19.4155 197.031 15.9241C197.031 12.4326 197.838 9.38131 199.568 7.15753C201.347 4.87033 203.946 3.6673 207.008 3.6673C210.09 3.66737 212.696 4.86625 214.479 7.15753C216.211 9.38338 217.009 12.4362 217.009 15.9241Z" fill="#BF8E1D"/>
<path d="M184.366 25.7923C184.051 25.7923 183.93 25.5741 184.027 25.3073L189.967 10.7834H182.208C181.942 10.7834 181.772 10.6379 181.772 10.3954V6.49168C181.772 6.22496 181.942 6.05524 182.208 6.05524H195.859C196.126 6.05524 196.296 6.22496 196.296 6.49168V7.77677C196.296 7.97075 196.272 8.11623 196.223 8.28596L189.41 25.4528C189.337 25.6468 189.143 25.7923 188.925 25.7923H184.366Z" fill="#BF8E1D"/>
<path d="M196.296 7.77692V6.49176C196.296 6.2583 196.166 6.09911 195.955 6.06305L195.86 6.05524V4.05524C196.424 4.05532 197.077 4.24364 197.592 4.75934C198.108 5.27511 198.296 5.92759 198.296 6.49176V7.77692C198.296 8.17739 198.24 8.50824 198.146 8.83551L198.119 8.93121L198.083 9.02399L191.269 26.191L191.267 26.19C190.908 27.1031 190.009 27.7923 188.925 27.7925H184.367C183.756 27.7925 182.904 27.5607 182.37 26.7457C181.86 25.9683 181.959 25.1401 182.147 24.6236L182.161 24.5865L182.176 24.5504L186.989 12.7838H182.208C181.726 12.7838 181.101 12.6505 180.569 12.1822C180.005 11.6863 179.772 11.0116 179.772 10.3951V6.49176C179.772 5.92747 179.96 5.27512 180.476 4.75934C180.992 4.24355 181.644 4.05524 182.208 4.05524V6.05524L182.113 6.06305C181.902 6.09928 181.772 6.25849 181.772 6.49176V10.3951C181.772 10.6072 181.902 10.7457 182.113 10.7769L182.208 10.7838H189.967L184.027 25.3072C183.942 25.5406 184.024 25.7374 184.257 25.7828L184.367 25.7925H188.925L189.005 25.7857C189.19 25.7552 189.346 25.6224 189.41 25.4527L196.223 8.28571C196.259 8.1586 196.282 8.04511 196.292 7.91461L196.296 7.77692ZM195.86 4.05524V6.05524H182.208V4.05524H195.86Z" fill="#BF8E1D"/>
<path d="M174.548 30.4477C174.233 30.4477 174.087 30.2295 174.184 29.9628L175.591 25.7923C174.669 25.3559 174.063 24.5072 174.063 23.3676C174.063 21.7916 175.3 20.6762 176.876 20.6762C178.476 20.6762 179.664 21.7916 179.664 23.3676C179.664 24.6285 179.276 25.5499 178.233 27.8533L177.191 30.1325C177.118 30.3265 176.948 30.4477 176.706 30.4477H174.548Z" fill="#BF8E1D"/>
<path d="M179.664 23.3676C179.664 21.7916 178.476 20.6762 176.875 20.6762C175.3 20.6763 174.063 21.7916 174.063 23.3676C174.063 24.5072 174.669 25.356 175.59 25.7924L174.184 29.9623C174.099 30.1958 174.2 30.3926 174.438 30.4379L174.548 30.4477H176.706C176.948 30.4477 177.118 30.3262 177.191 30.1323L178.234 27.853C179.276 25.5498 179.664 24.6284 179.664 23.3676ZM181.664 23.3676C181.664 25.1385 181.057 26.4652 180.055 28.6782L180.052 28.685L179.009 30.9643C178.594 31.9119 177.679 32.4477 176.706 32.4477H174.548C173.942 32.4477 173.131 32.2236 172.591 31.478C172.061 30.7451 172.089 29.9164 172.292 29.3237H172.29L173.243 26.4975C172.509 25.6888 172.063 24.6159 172.063 23.3676C172.063 20.5725 174.313 18.6763 176.875 18.6762C179.497 18.6762 181.664 20.6057 181.664 23.3676Z" fill="#BF8E1D"/>
<path d="M161.412 25.7923C161.097 25.7923 160.976 25.5741 161.073 25.3073L167.013 10.7834H159.254C158.988 10.7834 158.818 10.6379 158.818 10.3954V6.49168C158.818 6.22496 158.988 6.05524 159.254 6.05524H172.905C173.172 6.05524 173.342 6.22496 173.342 6.49168V7.77677C173.342 7.97075 173.318 8.11623 173.269 8.28596L166.456 25.4528C166.383 25.6468 166.189 25.7923 165.971 25.7923H161.412Z" fill="#BF8E1D"/>
<path d="M173.342 7.77692V6.49176C173.342 6.2583 173.212 6.09911 173 6.06305L172.906 6.05524V4.05524C173.47 4.05532 174.123 4.24364 174.638 4.75934C175.154 5.27511 175.342 5.92759 175.342 6.49176V7.77692C175.342 8.17739 175.285 8.50824 175.192 8.83551L175.165 8.93121L175.128 9.02399L168.315 26.191L168.313 26.19C167.954 27.1031 167.055 27.7923 165.971 27.7925H161.413C160.802 27.7925 159.95 27.5607 159.416 26.7457C158.906 25.9683 159.005 25.1401 159.193 24.6236L159.207 24.5865L159.222 24.5504L164.035 12.7838H159.254C158.772 12.7838 158.147 12.6505 157.615 12.1822C157.051 11.6863 156.818 11.0116 156.818 10.3951V6.49176C156.818 5.92747 157.006 5.27512 157.522 4.75934C158.038 4.24355 158.69 4.05524 159.254 4.05524V6.05524L159.159 6.06305C158.948 6.09928 158.818 6.25849 158.818 6.49176V10.3951C158.818 10.6072 158.948 10.7457 159.159 10.7769L159.254 10.7838H167.013L161.073 25.3072C160.988 25.5406 161.07 25.7374 161.303 25.7828L161.413 25.7925H165.971L166.051 25.7857C166.236 25.7552 166.392 25.6224 166.456 25.4527L173.269 8.28571C173.305 8.1586 173.328 8.04511 173.337 7.91461L173.342 7.77692ZM172.906 4.05524V6.05524H159.254V4.05524H172.906Z" fill="#BF8E1D"/>
<path d="M155.39 29.8173C149.183 29.5263 146.467 24.8467 146.467 17.1846C146.467 9.54682 149.183 4.84291 155.366 4.55194C155.633 4.55194 155.754 4.72167 155.754 4.98839V8.9164C155.754 9.18312 155.633 9.3286 155.39 9.35285C152.553 9.61956 151.535 12.02 151.535 17.1846C151.535 22.3492 152.553 24.7497 155.39 25.0164C155.633 25.0406 155.754 25.2104 155.754 25.4771V29.4051C155.754 29.6718 155.633 29.8173 155.39 29.8173Z" fill="#BF8E1D"/>
<path d="M155.753 4.98846C155.753 4.72175 155.632 4.55194 155.366 4.55194C149.183 4.843 146.467 9.54704 146.467 17.1848L146.475 17.8937C146.635 24.9013 149.203 29.249 154.819 29.7775L155.39 29.8176C155.602 29.8176 155.722 29.7059 155.749 29.4992L155.753 29.4055V25.4767C155.753 25.2102 155.633 25.041 155.39 25.0168C152.73 24.7667 151.67 22.6408 151.547 18.1203L151.535 17.1848C151.535 12.0202 152.553 9.61946 155.39 9.35272C155.633 9.32848 155.753 9.18292 155.753 8.9162V4.98846ZM157.753 8.9162C157.753 9.32891 157.662 9.95169 157.2 10.506C156.715 11.0877 156.076 11.2942 155.589 11.343L155.578 11.3439C155.142 11.3849 154.892 11.4948 154.732 11.6057C154.573 11.7157 154.388 11.9074 154.205 12.2922C153.798 13.1451 153.535 14.654 153.535 17.1848C153.535 19.7155 153.798 21.2244 154.205 22.0773C154.388 22.462 154.573 22.6538 154.732 22.7639C154.872 22.8608 155.08 22.9571 155.422 23.007L155.578 23.0256L155.589 23.0266C156.168 23.0844 156.8 23.3533 157.249 23.9367C157.662 24.4744 157.753 25.0641 157.753 25.4767V29.4055C157.753 29.804 157.667 30.4543 157.172 31.0236C156.634 31.6429 155.922 31.8176 155.39 31.8176H155.343L155.296 31.8146C151.635 31.643 148.788 30.129 146.941 27.381C145.17 24.7462 144.467 21.2001 144.467 17.1848C144.467 13.1802 145.17 9.63629 146.936 7.00018C148.777 4.25163 151.616 2.72593 155.272 2.55389L155.319 2.55194H155.366C155.947 2.55194 156.664 2.75692 157.191 3.38397C157.667 3.95102 157.753 4.58985 157.753 4.98846V8.9162Z" fill="#BF8E1D"/>
<path d="M128.04 8.77091C128.137 8.98913 128.088 9.15886 127.894 9.30434L124.912 11.3896C124.839 11.4381 124.742 11.4623 124.669 11.4623C124.548 11.4623 124.451 11.3896 124.378 11.2441C123.627 9.74079 122.463 8.14048 121.226 7.02512C121.129 6.92813 121.081 6.83115 121.081 6.73416C121.081 6.63717 121.129 6.54018 121.25 6.46744L124.063 4.47919C124.136 4.4307 124.233 4.3822 124.306 4.3822C124.403 4.3822 124.5 4.4307 124.597 4.50344C125.979 5.6188 127.264 7.24335 128.04 8.77091ZM127.458 17.7423C130.78 15.7783 132.55 12.4807 133.059 9.03762C133.059 8.96488 133.083 8.91639 133.107 8.8679V8.67392H129.228C128.985 8.67392 128.84 8.52844 128.84 8.28597V5.03687C128.84 4.7944 128.985 4.64892 129.228 4.64892H137.229C137.472 4.64892 137.617 4.7944 137.617 5.06112C137.569 10.347 138.781 15.0509 143.291 17.6211C143.436 17.6938 143.509 17.7908 143.509 17.912C143.509 17.9848 143.485 18.0575 143.412 18.1545L140.915 21.4278C140.818 21.5491 140.721 21.5976 140.624 21.5976C140.527 21.5976 140.454 21.5733 140.357 21.5006C138.417 19.9488 136.502 17.6938 135.362 15.0266C134.198 17.7423 132.307 20.1912 130.222 21.5491C130.125 21.5976 130.052 21.6218 129.979 21.6218C129.882 21.6218 129.785 21.5733 129.688 21.4521L127.458 18.6637V20.07C128.209 21.5248 129.349 22.1552 131.386 22.3492C132.453 22.4462 133.713 22.5189 135.144 22.5189C137.496 22.5189 140.309 22.3735 143.436 22.0825C143.752 22.0583 143.897 22.228 143.8 22.4947L142.636 25.962C142.564 26.1802 142.442 26.2772 142.224 26.3015C139.969 26.4712 137.253 26.5682 134.902 26.5682C133.544 26.5682 132.307 26.544 131.337 26.447C129.082 26.253 127.046 25.8165 125.591 24.2162C124.863 25.0649 123.893 25.8893 122.924 26.6409C122.851 26.7137 122.754 26.7379 122.681 26.7379C122.584 26.7379 122.463 26.6652 122.39 26.544L120.402 23.3191C120.353 23.2464 120.329 23.1494 120.329 23.1009C120.329 22.9554 120.402 22.8584 120.572 22.7857C121.566 22.325 122.536 21.6703 123.287 21.0156V16.7239H121.299C121.057 16.7239 120.911 16.5784 120.911 16.336V13.0141C120.911 12.7717 121.057 12.6262 121.299 12.6262H127.07C127.312 12.6262 127.458 12.7717 127.458 13.0141V17.7423Z" fill="#BF8E1D"/>
<path d="M135.362 15.0267C136.502 17.6939 138.418 19.9486 140.357 21.5004C140.454 21.573 140.527 21.598 140.624 21.598C140.721 21.598 140.818 21.5492 140.915 21.4281L143.412 18.1547C143.467 18.082 143.494 18.0228 143.504 17.9672L143.509 17.9125C143.509 17.7913 143.436 17.6942 143.291 17.6215C138.781 15.0513 137.569 10.3468 137.617 5.06091C137.617 4.82761 137.506 4.68708 137.315 4.65564L137.229 4.6488V2.6488C137.753 2.64885 138.427 2.81596 138.959 3.37244C139.48 3.91733 139.617 4.57539 139.617 5.06091V5.07947C139.571 10.1319 140.736 13.8628 144.281 15.8832L144.279 15.8851C144.821 16.1874 145.509 16.8368 145.509 17.9125C145.509 18.5366 145.263 19.0208 145.013 19.3549L145.007 19.3607L145.002 19.3676L144.346 20.226C144.663 20.3398 144.992 20.5358 145.278 20.8627C145.975 21.6586 145.877 22.5926 145.694 23.1302L145.696 23.1312L144.533 26.5931L144.534 26.5941C144.422 26.9296 144.202 27.3832 143.751 27.7523C143.296 28.1246 142.804 28.2496 142.445 28.2894L142.41 28.2933L142.374 28.2963C140.066 28.47 137.3 28.5677 134.901 28.5677C133.551 28.5677 132.239 28.5443 131.166 28.4388V28.4398C129.419 28.2896 127.449 27.9838 125.729 26.9115C125.228 27.3628 124.707 27.7853 124.21 28.1722C123.693 28.6179 123.097 28.7377 122.681 28.7377C121.721 28.7375 121.028 28.1468 120.688 27.5922V27.5931L118.699 24.3685L118.701 24.3676C118.568 24.1537 118.485 23.9494 118.436 23.7894C118.4 23.6732 118.358 23.5067 118.339 23.309L118.329 23.101L118.335 22.9349C118.362 22.5417 118.491 22.1025 118.798 21.7015C119.099 21.3079 119.466 21.0922 119.731 20.972L119.73 20.9711C120.266 20.7228 120.803 20.397 121.287 20.0482V18.723C120.767 18.7205 120.12 18.5558 119.6 18.0355C119.075 17.5113 118.911 16.8585 118.911 16.3363V13.014C118.911 12.4918 119.075 11.8391 119.6 11.3148C120.124 10.7906 120.777 10.6264 121.299 10.6263V12.6263L121.213 12.6332C121.023 12.6643 120.911 12.8019 120.911 13.014V16.3363C120.911 16.5483 121.023 16.6861 121.213 16.7172L121.299 16.724H123.287V21.016C122.535 21.6706 121.565 22.3249 120.571 22.7855C120.402 22.8583 120.329 22.9555 120.329 23.101C120.329 23.1494 120.353 23.2461 120.401 23.3187L122.39 26.5443C122.462 26.6653 122.584 26.7375 122.681 26.7377C122.753 26.7377 122.851 26.7137 122.924 26.641C123.894 25.8894 124.863 25.0648 125.591 24.2162C127.046 25.8164 129.082 26.2527 131.337 26.4467C132.307 26.5436 133.544 26.5677 134.901 26.5677C136.959 26.5677 139.296 26.494 141.358 26.3617L142.225 26.3011C142.442 26.2768 142.564 26.1803 142.637 25.9623L143.8 22.4945C143.897 22.2278 143.752 22.0582 143.437 22.0824C140.309 22.3734 137.496 22.5189 135.144 22.5189V20.5189C135.569 20.5189 136.012 20.5122 136.47 20.5023C136.093 20.0618 135.729 19.5972 135.384 19.1107C135.05 19.5966 134.696 20.0648 134.322 20.5082C134.589 20.5137 134.863 20.5189 135.144 20.5189V22.5189C133.713 22.5189 132.452 22.446 131.386 22.349C129.349 22.155 128.21 21.5245 127.458 20.0697V18.6635L129.688 21.4525C129.785 21.5735 129.883 21.6215 129.979 21.6215C130.052 21.6214 130.125 21.5976 130.222 21.5492C132.307 20.1914 134.198 17.7424 135.362 15.0267ZM124.443 2.38611C124.94 2.41571 125.329 2.6003 125.58 2.75525L125.797 2.90369L125.825 2.92517L125.853 2.94666C126.264 3.27849 126.664 3.64752 127.049 4.04041C127.156 3.79664 127.31 3.55528 127.528 3.33728C128.053 2.81312 128.705 2.64885 129.228 2.6488V4.6488C128.985 4.64889 128.84 4.79432 128.84 5.0365V8.28552C128.84 8.52792 128.985 8.67411 129.228 8.67419H133.107V8.86755C133.083 8.91601 133.059 8.96482 133.059 9.03748C132.549 12.4805 130.78 15.7785 127.458 17.7426V13.014C127.458 12.802 127.346 12.6644 127.156 12.6332L127.069 12.6263H121.299V10.6263H121.695C121.151 9.82961 120.52 9.08165 119.887 8.51013L119.849 8.47595L119.812 8.43982C119.498 8.12488 119.081 7.5483 119.081 6.73376C119.081 5.90239 119.519 5.21756 120.125 4.81384L122.908 2.84607L122.931 2.83044L122.954 2.81482C123.067 2.73962 123.217 2.65137 123.396 2.57458C123.544 2.51147 123.876 2.3822 124.306 2.3822L124.443 2.38611ZM124.306 4.3822C124.233 4.3822 124.136 4.43047 124.063 4.47888L121.251 6.46716L121.173 6.52576C121.108 6.5882 121.081 6.66107 121.081 6.73376C121.081 6.83075 121.13 6.9278 121.227 7.02478C122.463 8.14014 123.626 9.7412 124.378 11.2445C124.451 11.3897 124.548 11.4621 124.669 11.4623C124.742 11.4623 124.839 11.4385 124.912 11.39L127.895 9.30408C128.088 9.15868 128.137 8.9889 128.04 8.77087C127.313 7.33874 126.137 5.82125 124.854 4.71814L124.597 4.5033C124.5 4.43057 124.403 4.38222 124.306 4.3822ZM137.229 2.6488V4.6488H129.228V2.6488H137.229ZM129.458 13.1351C129.956 12.3754 130.342 11.546 130.626 10.6742H129.361C129.27 10.7636 129.179 10.8407 129.094 10.9047L129.067 10.9242L129.04 10.9437L128.657 11.2103C128.695 11.2434 128.732 11.2783 128.769 11.3148C129.293 11.8391 129.458 12.4918 129.458 13.014V13.1351Z" fill="#BF8E1D"/>
<path d="M104.132 4.52766C104.132 4.28519 104.278 4.13971 104.52 4.13971H108.351C108.594 4.13971 108.739 4.28519 108.739 4.52766V6.75838H116.474C116.717 6.75838 116.862 6.90387 116.862 7.14633V21.8885C116.862 22.131 116.717 22.2765 116.474 22.2765H108.739V26.5924C108.739 26.8349 108.594 26.9804 108.351 26.9804H104.545C104.302 26.9804 104.157 26.8349 104.157 26.5924V22.2765H96.5916C96.3491 22.2765 96.2036 22.131 96.2036 21.8885V7.14633C96.2036 6.90387 96.3491 6.75838 96.5916 6.75838H104.132V4.52766ZM104.181 10.7106H100.447V12.6262L104.181 12.6504V10.7106ZM108.691 12.6746L112.595 12.6989V10.7106H108.691V12.6746ZM104.181 16.1662L100.447 16.142V18.3484H104.181V16.1662ZM112.595 16.2147L108.691 16.1905V18.3484H112.595V16.2147Z" fill="#BF8E1D"/>
<path d="M104.164 26.6788C104.19 26.8419 104.295 26.947 104.458 26.9737L104.544 26.9805H108.351L108.438 26.9737C108.601 26.9469 108.706 26.8418 108.733 26.6788L108.74 26.5928V22.2764H116.474L116.56 22.2696C116.723 22.243 116.828 22.1379 116.855 21.9747L116.862 21.8887V7.14655C116.862 6.93424 116.751 6.79575 116.56 6.76471L116.474 6.75885V4.75885C116.996 4.75885 117.649 4.92304 118.173 5.44733C118.698 5.9716 118.862 6.62432 118.862 7.14655V21.8887C118.862 22.411 118.698 23.0637 118.173 23.588C117.649 24.1122 116.996 24.2764 116.474 24.2764H110.74V26.5928C110.74 27.115 110.574 27.7669 110.05 28.2911C109.526 28.8154 108.873 28.9805 108.351 28.9805H104.544C104.022 28.9805 103.369 28.8153 102.845 28.2911C102.321 27.767 102.157 27.1149 102.157 26.5928V24.2764H96.5913C96.0691 24.2764 95.4163 24.1122 94.8921 23.588C94.3679 23.0637 94.2037 22.4109 94.2036 21.8887V7.14655C94.2036 6.62436 94.368 5.97158 94.8921 5.44733C95.4163 4.92312 96.0691 4.7589 96.5913 4.75885V6.75885L96.5054 6.76471C96.315 6.79582 96.2036 6.93433 96.2036 7.14655V21.8887C96.2037 22.131 96.3491 22.2763 96.5913 22.2764H104.157V26.5928L104.164 26.6788ZM104.181 16.1661V18.3487H100.447V16.1417L104.181 16.1661ZM112.594 16.2149V18.3487H108.691V16.1905L112.594 16.2149ZM112.594 10.711V12.6993L108.691 12.6749V10.711H112.594ZM104.181 10.711V12.6505L100.447 12.626V10.711H104.181ZM108.74 4.5274C108.74 4.28509 108.593 4.13971 108.351 4.13971V2.13971C108.873 2.13971 109.526 2.3041 110.05 2.82819C110.575 3.3524 110.74 4.00518 110.74 4.5274V4.75885H116.474V6.75885H108.74V4.5274ZM102.132 4.5274C102.132 4.00522 102.297 3.3524 102.821 2.82819C103.345 2.30398 103.998 2.13978 104.52 2.13971V4.13971C104.278 4.13983 104.132 4.28519 104.132 4.5274V6.75885H96.5913V4.75885H102.132V4.5274ZM108.351 2.13971V4.13971H104.52V2.13971H108.351Z" fill="#BF8E1D"/>
<path d="M87.1838 26.0348C78.6973 25.9378 75.5452 22.1795 75.5452 18.3242C75.5452 15.3418 77.4365 12.2867 80.2491 10.8319C77.5092 10.9289 74.0661 11.0986 71.2292 11.1471C70.9383 11.1471 70.7685 11.0016 70.7685 10.6864L70.6958 7.17061C70.6958 6.87965 70.8413 6.70992 71.1322 6.70992C76.2484 6.70992 84.9288 6.70992 90.2874 6.58868C90.5783 6.58868 90.7481 6.73417 90.7481 7.02513V10.4924C90.7481 10.7834 90.6026 10.9531 90.3116 10.9531C89.5842 10.9531 88.9053 11.0259 88.2506 11.1471C85.2682 11.6078 80.3461 14.4205 80.3461 17.6696C80.3461 19.7548 82.6011 21.4521 87.9354 21.3551C88.2264 21.3551 88.3719 21.5006 88.3719 21.7188V21.84L87.6929 25.6226C87.6444 25.9135 87.4747 26.0348 87.1838 26.0348ZM87.2807 18.203C86.9898 18.3242 86.7958 18.203 86.6988 17.9363C86.2624 16.6997 85.6077 15.4388 84.856 14.4447C84.7833 14.3235 84.7348 14.2265 84.7348 14.1295C84.7348 14.0083 84.8318 13.887 85.0015 13.8143L86.4321 13.2566C86.6746 13.1596 86.8685 13.1839 87.0383 13.4021C87.7899 14.275 88.6628 15.7783 89.1478 16.9664C89.2448 17.2331 89.1478 17.4513 88.881 17.5483L87.2807 18.203ZM90.6268 16.8694C90.3359 16.9906 90.1419 16.8694 90.0449 16.6027C89.6085 15.4873 88.8325 14.1053 88.1536 13.2324C88.0809 13.1354 88.0324 13.0384 88.0324 12.9414C88.0324 12.7959 88.1294 12.6747 88.3234 12.6019L89.6812 12.0443C89.9237 11.9473 90.1419 11.9715 90.3116 12.1655C91.0875 13.0384 92.0089 14.5659 92.4211 15.6813C92.5181 15.948 92.4211 16.1662 92.1544 16.2632L90.6268 16.8694Z" fill="#BF8E1D"/>
<path d="M90.7485 7.02521C90.7485 6.73432 90.5784 6.58876 90.2876 6.58868C84.929 6.70992 76.2484 6.70978 71.1323 6.70978C70.8414 6.70978 70.6958 6.87975 70.6958 7.17072L70.7681 10.6863C70.7681 10.962 70.8983 11.1082 71.1255 11.1404L71.229 11.1473C74.0659 11.0988 77.5096 10.9288 80.2495 10.8318C77.4369 12.2866 75.5455 15.3417 75.5454 18.324L75.5542 18.6854C75.7409 22.2907 78.7583 25.7133 86.4038 26.0154L87.1841 26.035C87.4747 26.0349 87.6443 25.9135 87.6929 25.6229L88.3716 21.8397V21.7186C88.3715 21.5005 88.2259 21.3553 87.9351 21.3553C82.7679 21.4492 80.4905 19.8592 80.353 17.8641L80.3462 17.6697C80.3462 14.4207 85.2681 11.608 88.2505 11.1473C88.9052 11.026 89.5846 10.9529 90.312 10.9529C90.6027 10.9528 90.7485 10.7828 90.7485 10.492V7.02521ZM87.0386 13.4022C86.8688 13.1839 86.6746 13.1597 86.4321 13.2567L85.0015 13.8143C84.8318 13.887 84.7349 14.0085 84.7349 14.1297C84.7349 14.2266 84.7833 14.324 84.856 14.4451C85.6075 15.4392 86.2623 16.6998 86.6987 17.9363C86.7957 18.203 86.9898 18.3242 87.2808 18.2029L88.8813 17.5486C89.1479 17.4517 89.2448 17.2332 89.1479 16.9666C88.663 15.7786 87.7902 14.2751 87.0386 13.4022ZM90.312 12.1658C90.1423 11.9719 89.9236 11.9478 89.6812 12.0447L88.3237 12.6024C88.1298 12.6751 88.0328 12.7958 88.0327 12.9412C88.0327 13.0382 88.0811 13.1353 88.1538 13.2322C88.8326 14.105 89.608 15.4871 90.0444 16.6024C90.1414 16.869 90.3356 16.9901 90.6265 16.869L92.1548 16.2635C92.4212 16.1665 92.5182 15.948 92.4214 15.6815C92.0607 14.7055 91.3097 13.4137 90.6079 12.5213L90.312 12.1658ZM82.3462 17.6697C82.3462 17.8505 82.3877 18.1865 83.1001 18.576C83.5405 18.8168 84.1932 19.0417 85.1069 19.1883C84.9722 18.9857 84.8795 18.7866 84.8188 18.6199L84.813 18.6024C84.4604 17.6033 83.9423 16.6001 83.3755 15.8113C82.64 16.5508 82.3462 17.209 82.3462 17.6697ZM92.7485 10.492C92.7485 10.8131 92.6883 11.2431 92.4683 11.6697C93.1429 12.5993 93.7975 13.7452 94.1968 14.7303L94.2974 14.9881L94.3003 14.9979C94.4806 15.4938 94.5576 16.1744 94.2446 16.8631C93.9393 17.5348 93.393 17.9246 92.8911 18.1199L92.8921 18.1219L91.3647 18.7283L91.3638 18.7274C91.0982 18.8339 90.7711 18.9134 90.4126 18.9139C90.1696 19.1362 89.8984 19.2932 89.6372 19.3973L89.6382 19.3992L89.0903 19.6229C89.2562 19.7064 89.422 19.8121 89.5796 19.95C90.1638 20.4612 90.3715 21.1445 90.3716 21.7186V22.0184L89.6616 25.9764L89.6597 25.9754C89.5768 26.4464 89.3453 27.0547 88.7651 27.5106C88.2004 27.9543 87.5826 28.0349 87.1841 28.035H87.1606C82.6546 27.9834 79.2651 26.9598 76.9565 25.1697C74.5962 23.3395 73.5454 20.8402 73.5454 18.324C73.5454 16.4742 74.1108 14.6362 75.0933 13.033C73.7749 13.0821 72.4625 13.1268 71.2632 13.1473H71.229C70.7757 13.1472 70.0822 13.0329 69.5034 12.4764C68.9259 11.921 68.7774 11.2285 68.77 10.7264L68.769 10.7274L68.6958 7.21173V7.17072C68.6958 6.71727 68.8093 6.04447 69.3354 5.47443C69.8866 4.87741 70.5952 4.70978 71.1323 4.70978L75.5308 4.70782C80.3766 4.70214 86.2437 4.6801 90.2417 4.58966L90.2651 4.58868H90.2876C90.741 4.58872 91.413 4.70238 91.9829 5.22833C92.5801 5.77954 92.7485 6.48807 92.7485 7.02521V10.492Z" fill="#BF8E1D"/>
<path d="M53.0167 25.7923C52.75 25.7923 52.6045 25.6226 52.6045 25.3558V6.49168C52.6045 6.22496 52.75 6.05524 53.0167 6.05524H66.0131C66.2556 6.05524 66.4495 6.22496 66.4495 6.49168V9.959C66.4495 10.2257 66.2556 10.3954 66.0131 10.3954H57.5751V13.6203H65.0189C65.2857 13.6203 65.4554 13.7658 65.4554 14.0325V17.3786C65.4554 17.6453 65.2857 17.815 65.0189 17.815H57.5751V21.4521H66.3283C66.5708 21.4521 66.7647 21.6218 66.7647 21.8885V25.3558C66.7647 25.6226 66.5708 25.7923 66.3283 25.7923H53.0167Z" fill="#BF8E1D"/>
<path d="M52.6113 25.4507C52.6382 25.6321 52.7454 25.7539 52.9229 25.7847L53.0166 25.7925H66.3281L66.417 25.7847C66.588 25.7537 66.7213 25.6319 66.7559 25.4507L66.7646 25.356V21.8882C66.7645 21.6217 66.5705 21.4517 66.3281 21.4517V19.4517C67.6004 19.4517 68.7645 20.4439 68.7646 21.8882V25.356C68.7646 26.8004 67.6004 27.7925 66.3281 27.7925H53.0166C52.4438 27.7925 51.7609 27.5959 51.2383 27.0279C50.7384 26.4843 50.6045 25.8382 50.6045 25.356V6.49176C50.6045 6.00942 50.7381 5.36261 51.2383 4.81891C51.7609 4.25087 52.4438 4.05526 53.0166 4.05524V6.05524C52.7499 6.05527 52.6045 6.22507 52.6045 6.49176V25.356L52.6113 25.4507ZM65.4551 17.3785V14.0328C65.4551 13.7994 65.3254 13.659 65.1143 13.6275L65.0186 13.6207H57.5752V10.3951H66.0127C66.2552 10.3951 66.4492 10.2253 66.4492 9.95856V6.49176C66.4492 6.22504 66.2552 6.05524 66.0127 6.05524V4.05524C67.2851 4.05524 68.4492 5.0473 68.4492 6.49176V9.95856C68.4492 11.1256 67.6895 11.9968 66.7266 12.2886C67.2671 12.8067 67.4551 13.4722 67.4551 14.0328V17.3785C67.4551 17.9428 67.2668 18.5951 66.751 19.1109C66.6155 19.2464 66.4706 19.3589 66.3203 19.4517H66.3281V21.4517H57.5752V17.815H65.0186C65.2853 17.815 65.4551 17.6452 65.4551 17.3785ZM66.0127 4.05524V6.05524H53.0166V4.05524H66.0127Z" fill="#BF8E1D"/>
<path d="M30.8248 25.7923C30.5581 25.7923 30.4126 25.6226 30.4126 25.3558V6.49168C30.4126 6.22496 30.5581 6.05524 30.8248 6.05524H35.1893C35.4317 6.05524 35.5772 6.15222 35.6984 6.3462L42.7543 18.0817V6.49168C42.7543 6.22496 42.8998 6.05524 43.1908 6.05524H47.143C47.4097 6.05524 47.5552 6.22496 47.5552 6.49168V25.3558C47.5552 25.6226 47.4097 25.7923 47.143 25.7923H42.8028C42.5603 25.7923 42.3906 25.6953 42.2936 25.5013L35.2135 13.7173V25.3558C35.2135 25.6226 35.068 25.7923 34.8013 25.7923H30.8248Z" fill="#BF8E1D"/>
<path d="M30.4194 25.4507C30.4464 25.6321 30.5535 25.7539 30.731 25.7847L30.8247 25.7925H34.8013L34.896 25.7847C35.0729 25.7536 35.1797 25.6318 35.2065 25.4507L35.2134 25.356V13.7173L42.2935 25.5015C42.3783 25.6712 42.5191 25.7665 42.7153 25.7877L42.8032 25.7925H47.1431L47.2378 25.7847C47.4147 25.7536 47.5215 25.6318 47.5483 25.4507L47.5552 25.356V6.49176C47.5552 6.25856 47.444 6.09934 47.2378 6.06305L47.1431 6.05524V4.05524C47.7158 4.05525 48.3988 4.25087 48.9214 4.81891C49.4216 5.36261 49.5552 6.00941 49.5552 6.49176V25.356C49.5551 25.8382 49.4213 26.4843 48.9214 27.0279C48.3988 27.596 47.7159 27.7925 47.1431 27.7925H42.8032C42.4167 27.7925 41.9531 27.7137 41.5015 27.4556C41.0802 27.2149 40.7725 26.8761 40.5659 26.5093L37.2134 20.9283V25.356C37.2133 25.8383 37.0795 26.4843 36.5796 27.0279C36.057 27.596 35.3741 27.7925 34.8013 27.7925H30.8247C30.2519 27.7925 29.569 27.5959 29.0464 27.0279C28.5465 26.4843 28.4126 25.8382 28.4126 25.356V6.49176C28.4126 6.00941 28.5462 5.36261 29.0464 4.81891C29.569 4.25087 30.2519 4.05526 30.8247 4.05524V6.05524C30.558 6.05527 30.4126 6.22507 30.4126 6.49176V25.356L30.4194 25.4507ZM35.189 4.05524C35.5879 4.05524 36.0558 4.13906 36.5093 4.40778C36.9497 4.66887 37.2246 5.01551 37.394 5.28668L37.4038 5.30133L40.7544 10.8736V6.49176C40.7544 6.00895 40.8894 5.34189 41.4204 4.78864C41.9652 4.2212 42.655 4.05524 43.1909 4.05524V6.05524L43.0884 6.06305C42.8657 6.09921 42.7544 6.25841 42.7544 6.49176V18.0816L35.6987 6.34625C35.5775 6.15228 35.4314 6.05524 35.189 6.05524V4.05524ZM47.1431 4.05524V6.05524H43.1909V4.05524H47.1431ZM35.189 4.05524V6.05524H30.8247V4.05524H35.189Z" fill="#BF8E1D"/>
<path d="M20.7564 25.7923C20.4897 25.7923 20.3442 25.6226 20.3442 25.3558V6.49168C20.3442 6.22496 20.4897 6.05524 20.7564 6.05524H24.9269C25.1936 6.05524 25.3634 6.22496 25.3634 6.49168V25.3558C25.3634 25.6226 25.1936 25.7923 24.9269 25.7923H20.7564Z" fill="#BF8E1D"/>
<path d="M20.3511 25.4507C20.378 25.6321 20.4852 25.7539 20.6626 25.7847L20.7563 25.7925H24.9272L25.022 25.7847C25.2033 25.7538 25.3251 25.6321 25.356 25.4507L25.3638 25.356V6.49176C25.3638 6.25828 25.2333 6.09909 25.022 6.06305L24.9272 6.05524V4.05524C25.4915 4.05531 26.144 4.24365 26.6597 4.75934C27.1753 5.27509 27.3638 5.92754 27.3638 6.49176V25.356C27.3637 25.9202 27.1753 26.5727 26.6597 27.0884C26.144 27.6041 25.4915 27.7925 24.9272 27.7925H20.7563C20.1836 27.7925 19.5006 27.5959 18.978 27.0279C18.4782 26.4843 18.3443 25.8382 18.3442 25.356V6.49176C18.3442 6.00941 18.4778 5.36261 18.978 4.81891C19.5006 4.25087 20.1836 4.05526 20.7563 4.05524V6.05524C20.4897 6.05527 20.3442 6.22507 20.3442 6.49176V25.356L20.3511 25.4507ZM24.9272 4.05524V6.05524H20.7563V4.05524H24.9272Z" fill="#BF8E1D"/>
<path d="M2.77987 25.7923C2.51316 25.7923 2.36768 25.6226 2.36768 25.3558V6.49168C2.36768 6.22496 2.51316 6.05524 2.77987 6.05524H6.95036C7.21707 6.05524 7.3868 6.22496 7.3868 6.49168V21.0399H16.043C16.2854 21.0399 16.4552 21.1854 16.4552 21.4278V25.3558C16.4552 25.6226 16.2854 25.7923 16.043 25.7923H2.77987Z" fill="#BF8E1D"/>
<path d="M2.37451 25.4507C2.40143 25.6321 2.50859 25.7539 2.68604 25.7847L2.77979 25.7925H16.0435L16.1304 25.7847C16.2976 25.7537 16.4172 25.632 16.4478 25.4507L16.4556 25.356V21.4283C16.4556 21.2161 16.3253 21.0776 16.1304 21.0464L16.0435 21.0396V19.0396C16.5583 19.0397 17.1787 19.1981 17.6919 19.6685C18.2259 20.1581 18.4556 20.8153 18.4556 21.4283V25.356C18.4555 25.9187 18.2689 26.5527 17.7827 27.0591C17.2917 27.5706 16.6465 27.7924 16.0435 27.7925H2.77979C2.207 27.7925 1.52407 27.5959 1.00146 27.0279C0.501606 26.4843 0.367709 25.8382 0.367676 25.356V6.49176C0.367676 6.00941 0.501258 5.36261 1.00146 4.81891C1.52407 4.25087 2.20701 4.05526 2.77979 4.05524V6.05524C2.51313 6.05527 2.36768 6.22507 2.36768 6.49176V25.356L2.37451 25.4507ZM7.38721 6.49176C7.38721 6.25828 7.25674 6.09909 7.04541 6.06305L6.95068 6.05524V4.05524C7.5149 4.05531 8.16742 4.24365 8.68311 4.75934C9.19874 5.27509 9.38721 5.92754 9.38721 6.49176V19.0396H16.0435V21.0396H7.38721V6.49176ZM6.95068 4.05524V6.05524H2.77979V4.05524H6.95068Z" fill="#BF8E1D"/>
<path d="M263.398 27.8173C263.132 27.8173 262.962 27.6718 262.962 27.4051V23.4771C262.962 23.2104 263.107 23.0406 263.374 23.0164C266.162 22.7497 267.181 20.3492 267.181 15.1846C267.181 10.02 266.162 7.61956 263.374 7.35285C263.107 7.3286 262.962 7.18312 262.962 6.9164V2.98839C262.962 2.72167 263.132 2.55194 263.374 2.55194C269.557 2.84291 272.273 7.52257 272.273 15.1846C272.273 22.8224 269.557 27.5263 263.398 27.8173Z" fill="white"/>
<path d="M238.739 3.23085C238.739 2.98838 238.885 2.8429 239.127 2.8429H259.082C259.325 2.8429 259.47 2.98838 259.47 3.23085V20.7614C259.47 24.0348 257.555 25.1501 252.73 24.9319C252.487 24.9319 252.366 24.8107 252.293 24.5924L251.057 21.1251C251.032 21.0766 251.032 21.0281 251.032 20.9796C251.032 20.7372 251.226 20.6887 251.42 20.6887C254.645 20.8584 255.13 20.519 255.13 19.6703V16.3242H243.055V24.5197C243.055 24.7864 242.91 24.9077 242.667 24.9077H239.127C238.885 24.9077 238.739 24.7864 238.739 24.5197V3.23085ZM246.862 6.91639H243.055V12.0568H246.862V6.91639ZM255.13 6.91639H251.202V12.0568H255.13V6.91639Z" fill="white"/>
<path d="M226.571 24.1803C221.576 24.1803 218.594 20.3492 218.594 13.9238C218.594 7.49832 221.576 3.6673 226.571 3.6673C231.614 3.6673 234.573 7.49832 234.573 13.9238C234.573 20.3492 231.614 24.1803 226.571 24.1803ZM223.613 13.9238C223.613 17.8275 224.825 19.3309 226.571 19.3309C228.341 19.3309 229.553 17.8275 229.553 13.9238C229.553 10.02 228.341 8.5167 226.571 8.5167C224.825 8.5167 223.613 10.02 223.613 13.9238Z" fill="white"/>
<path d="M207.008 24.1803C202.013 24.1803 199.031 20.3492 199.031 13.9238C199.031 7.49832 202.013 3.6673 207.008 3.6673C212.051 3.6673 215.01 7.49832 215.01 13.9238C215.01 20.3492 212.051 24.1803 207.008 24.1803ZM204.05 13.9238C204.05 17.8275 205.262 19.3309 207.008 19.3309C208.778 19.3309 209.99 17.8275 209.99 13.9238C209.99 10.02 208.778 8.5167 207.008 8.5167C205.262 8.5167 204.05 10.02 204.05 13.9238Z" fill="white"/>
<path d="M184.366 23.7923C184.051 23.7923 183.93 23.5741 184.027 23.3073L189.967 8.7834H182.208C181.942 8.7834 181.772 8.63792 181.772 8.39545V4.49168C181.772 4.22496 181.942 4.05524 182.208 4.05524H195.859C196.126 4.05524 196.296 4.22496 196.296 4.49168V5.77677C196.296 5.97075 196.272 6.11623 196.223 6.28596L189.41 23.4528C189.337 23.6468 189.143 23.7923 188.925 23.7923H184.366Z" fill="white"/>
<path d="M174.548 28.4477C174.233 28.4477 174.087 28.2295 174.184 27.9628L175.591 23.7923C174.669 23.3559 174.063 22.5072 174.063 21.3676C174.063 19.7916 175.3 18.6762 176.876 18.6762C178.476 18.6762 179.664 19.7916 179.664 21.3676C179.664 22.6285 179.276 23.5499 178.233 25.8533L177.191 28.1325C177.118 28.3265 176.948 28.4477 176.706 28.4477H174.548Z" fill="white"/>
<path d="M161.412 23.7923C161.097 23.7923 160.976 23.5741 161.073 23.3073L167.013 8.7834H159.254C158.988 8.7834 158.818 8.63792 158.818 8.39545V4.49168C158.818 4.22496 158.988 4.05524 159.254 4.05524H172.905C173.172 4.05524 173.342 4.22496 173.342 4.49168V5.77677C173.342 5.97075 173.318 6.11623 173.269 6.28596L166.456 23.4528C166.383 23.6468 166.189 23.7923 165.971 23.7923H161.412Z" fill="white"/>
<path d="M155.39 27.8173C149.183 27.5263 146.467 22.8467 146.467 15.1846C146.467 7.54682 149.183 2.84291 155.366 2.55194C155.633 2.55194 155.754 2.72167 155.754 2.98839V6.9164C155.754 7.18312 155.633 7.3286 155.39 7.35285C152.553 7.61956 151.535 10.02 151.535 15.1846C151.535 20.3492 152.553 22.7497 155.39 23.0164C155.633 23.0406 155.754 23.2104 155.754 23.4771V27.4051C155.754 27.6718 155.633 27.8173 155.39 27.8173Z" fill="white"/>
<path d="M128.04 6.77091C128.137 6.98913 128.088 7.15886 127.894 7.30434L124.912 9.38958C124.839 9.43808 124.742 9.46232 124.669 9.46232C124.548 9.46232 124.451 9.38958 124.378 9.2441C123.627 7.74079 122.463 6.14048 121.226 5.02512C121.129 4.92813 121.081 4.83115 121.081 4.73416C121.081 4.63717 121.129 4.54018 121.25 4.46744L124.063 2.47919C124.136 2.4307 124.233 2.3822 124.306 2.3822C124.403 2.3822 124.5 2.4307 124.597 2.50344C125.979 3.6188 127.264 5.24335 128.04 6.77091ZM127.458 15.7423C130.78 13.7783 132.55 10.4807 133.059 7.03762C133.059 6.96488 133.083 6.91639 133.107 6.8679V6.67392H129.228C128.985 6.67392 128.84 6.52844 128.84 6.28597V3.03687C128.84 2.7944 128.985 2.64892 129.228 2.64892H137.229C137.472 2.64892 137.617 2.7944 137.617 3.06112C137.569 8.34696 138.781 13.0509 143.291 15.6211C143.436 15.6938 143.509 15.7908 143.509 15.912C143.509 15.9848 143.485 16.0575 143.412 16.1545L140.915 19.4278C140.818 19.5491 140.721 19.5976 140.624 19.5976C140.527 19.5976 140.454 19.5733 140.357 19.5006C138.417 17.9488 136.502 15.6938 135.362 13.0266C134.198 15.7423 132.307 18.1912 130.222 19.5491C130.125 19.5976 130.052 19.6218 129.979 19.6218C129.882 19.6218 129.785 19.5733 129.688 19.4521L127.458 16.6637V18.07C128.209 19.5248 129.349 20.1552 131.386 20.3492C132.453 20.4462 133.713 20.5189 135.144 20.5189C137.496 20.5189 140.309 20.3735 143.436 20.0825C143.752 20.0583 143.897 20.228 143.8 20.4947L142.636 23.962C142.564 24.1802 142.442 24.2772 142.224 24.3015C139.969 24.4712 137.253 24.5682 134.902 24.5682C133.544 24.5682 132.307 24.544 131.337 24.447C129.082 24.253 127.046 23.8165 125.591 22.2162C124.863 23.0649 123.893 23.8893 122.924 24.6409C122.851 24.7137 122.754 24.7379 122.681 24.7379C122.584 24.7379 122.463 24.6652 122.39 24.544L120.402 21.3191C120.353 21.2464 120.329 21.1494 120.329 21.1009C120.329 20.9554 120.402 20.8584 120.572 20.7857C121.566 20.325 122.536 19.6703 123.287 19.0156V14.7239H121.299C121.057 14.7239 120.911 14.5784 120.911 14.336V11.0141C120.911 10.7717 121.057 10.6262 121.299 10.6262H127.07C127.312 10.6262 127.458 10.7717 127.458 11.0141V15.7423Z" fill="white"/>
<path d="M104.132 2.52766C104.132 2.28519 104.278 2.13971 104.52 2.13971H108.351C108.594 2.13971 108.739 2.28519 108.739 2.52766V4.75838H116.474C116.717 4.75838 116.862 4.90387 116.862 5.14633V19.8885C116.862 20.131 116.717 20.2765 116.474 20.2765H108.739V24.5924C108.739 24.8349 108.594 24.9804 108.351 24.9804H104.545C104.302 24.9804 104.157 24.8349 104.157 24.5924V20.2765H96.5916C96.3491 20.2765 96.2036 20.131 96.2036 19.8885V5.14633C96.2036 4.90387 96.3491 4.75838 96.5916 4.75838H104.132V2.52766ZM104.181 8.71064H100.447V10.6262L104.181 10.6504V8.71064ZM108.691 10.6746L112.595 10.6989V8.71064H108.691V10.6746ZM104.181 14.1662L100.447 14.142V16.3484H104.181V14.1662ZM112.595 14.2147L108.691 14.1905V16.3484H112.595V14.2147Z" fill="white"/>
<path d="M87.1838 24.0348C78.6973 23.9378 75.5452 20.1795 75.5452 16.3242C75.5452 13.3418 77.4365 10.2867 80.2491 8.83191C77.5092 8.9289 74.0661 9.09863 71.2292 9.14712C70.9383 9.14712 70.7685 9.00164 70.7685 8.68643L70.6958 5.17061C70.6958 4.87965 70.8413 4.70992 71.1322 4.70992C76.2484 4.70992 84.9288 4.70992 90.2874 4.58868C90.5783 4.58868 90.7481 4.73417 90.7481 5.02513V8.49245C90.7481 8.78341 90.6026 8.95314 90.3116 8.95314C89.5842 8.95314 88.9053 9.02588 88.2506 9.14712C85.2682 9.60781 80.3461 12.4205 80.3461 15.6696C80.3461 17.7548 82.6011 19.4521 87.9354 19.3551C88.2264 19.3551 88.3719 19.5006 88.3719 19.7188V19.84L87.6929 23.6226C87.6444 23.9135 87.4747 24.0348 87.1838 24.0348ZM87.2807 16.203C86.9898 16.3242 86.7958 16.203 86.6988 15.9363C86.2624 14.6997 85.6077 13.4388 84.856 12.4447C84.7833 12.3235 84.7348 12.2265 84.7348 12.1295C84.7348 12.0083 84.8318 11.887 85.0015 11.8143L86.4321 11.2566C86.6746 11.1596 86.8685 11.1839 87.0383 11.4021C87.7899 12.275 88.6628 13.7783 89.1478 14.9664C89.2448 15.2331 89.1478 15.4513 88.881 15.5483L87.2807 16.203ZM90.6268 14.8694C90.3359 14.9906 90.1419 14.8694 90.0449 14.6027C89.6085 13.4873 88.8325 12.1053 88.1536 11.2324C88.0809 11.1354 88.0324 11.0384 88.0324 10.9414C88.0324 10.7959 88.1294 10.6747 88.3234 10.6019L89.6812 10.0443C89.9237 9.94727 90.1419 9.97152 90.3116 10.1655C91.0875 11.0384 92.0089 12.5659 92.4211 13.6813C92.5181 13.948 92.4211 14.1662 92.1544 14.2632L90.6268 14.8694Z" fill="white"/>
<path d="M53.0167 23.7923C52.75 23.7923 52.6045 23.6226 52.6045 23.3558V4.49168C52.6045 4.22496 52.75 4.05524 53.0167 4.05524H66.0131C66.2556 4.05524 66.4495 4.22496 66.4495 4.49168V7.959C66.4495 8.22572 66.2556 8.39545 66.0131 8.39545H57.5751V11.6203H65.0189C65.2857 11.6203 65.4554 11.7658 65.4554 12.0325V15.3786C65.4554 15.6453 65.2857 15.815 65.0189 15.815H57.5751V19.4521H66.3283C66.5708 19.4521 66.7647 19.6218 66.7647 19.8885V23.3558C66.7647 23.6226 66.5708 23.7923 66.3283 23.7923H53.0167Z" fill="white"/>
<path d="M30.8248 23.7923C30.5581 23.7923 30.4126 23.6226 30.4126 23.3558V4.49168C30.4126 4.22496 30.5581 4.05524 30.8248 4.05524H35.1893C35.4317 4.05524 35.5772 4.15222 35.6984 4.3462L42.7543 16.0817V4.49168C42.7543 4.22496 42.8998 4.05524 43.1908 4.05524H47.143C47.4097 4.05524 47.5552 4.22496 47.5552 4.49168V23.3558C47.5552 23.6226 47.4097 23.7923 47.143 23.7923H42.8028C42.5603 23.7923 42.3906 23.6953 42.2936 23.5013L35.2135 11.7173V23.3558C35.2135 23.6226 35.068 23.7923 34.8013 23.7923H30.8248Z" fill="white"/>
<path d="M20.7564 23.7923C20.4897 23.7923 20.3442 23.6226 20.3442 23.3558V4.49168C20.3442 4.22496 20.4897 4.05524 20.7564 4.05524H24.9269C25.1936 4.05524 25.3634 4.22496 25.3634 4.49168V23.3558C25.3634 23.6226 25.1936 23.7923 24.9269 23.7923H20.7564Z" fill="white"/>
<path d="M2.77987 23.7923C2.51316 23.7923 2.36768 23.6226 2.36768 23.3558V4.49168C2.36768 4.22496 2.51316 4.05524 2.77987 4.05524H6.95036C7.21707 4.05524 7.3868 4.22496 7.3868 4.49168V19.0399H16.043C16.2854 19.0399 16.4552 19.1854 16.4552 19.4278V23.3558C16.4552 23.6226 16.2854 23.7923 16.043 23.7923H2.77987Z" fill="white"/>
<path d="M260.863 2.76514C260.907 2.23875 261.111 1.67391 261.556 1.21045C262.07 0.675201 262.745 0.443866 263.374 0.443848H263.424L263.474 0.445801C267.156 0.619188 270.028 2.1507 271.893 4.9292C273.677 7.58886 274.381 11.1594 274.381 15.1851L274.373 15.9321C274.289 19.642 273.565 22.9338 271.897 25.4282C270.039 28.2071 267.175 29.7496 263.498 29.9233L263.448 29.9253H263.398C262.897 29.9253 262.221 29.7867 261.652 29.2632C261.058 28.716 260.854 28.0014 260.854 27.4048V23.4771C260.854 22.9639 260.999 22.3138 261.489 21.7593C261.985 21.1992 262.626 20.9693 263.173 20.9175C263.576 20.8789 263.797 20.7771 263.932 20.6821C264.067 20.5869 264.24 20.4116 264.416 20.0376C264.809 19.2038 265.072 17.7111 265.072 15.1851C265.072 12.6587 264.809 11.1654 264.416 10.3315C264.24 9.95749 264.067 9.78222 263.932 9.68701C263.797 9.59202 263.576 9.49026 263.173 9.45166V9.45068C262.712 9.407 262.07 9.23114 261.546 8.68408C261.003 8.11765 260.854 7.43495 260.854 6.9165V2.98877L260.863 2.76514ZM262.962 6.9165C262.962 7.18313 263.107 7.32877 263.374 7.35303C266.162 7.61975 267.181 10.0205 267.181 15.1851L267.169 16.1206C267.047 20.6409 265.988 22.7661 263.374 23.0161C263.107 23.0404 262.962 23.2104 262.962 23.4771V27.4048C262.962 27.638 263.092 27.7785 263.303 27.8101L263.398 27.8169C269.365 27.535 272.1 23.1121 272.265 15.8921L272.272 15.1851C272.272 7.52301 269.557 2.84321 263.374 2.55225C263.132 2.55228 262.962 2.72208 262.962 2.98877V6.9165Z" fill="#EE7F16"/>
<path d="M238.746 24.6128C238.773 24.786 238.878 24.8789 239.041 24.9019L239.127 24.9077H242.667L242.754 24.9019C242.917 24.8787 243.022 24.7858 243.049 24.6128L243.055 24.52V16.3247H255.13V19.6704L255.124 19.8237C255.059 20.5595 254.443 20.8481 251.42 20.689C251.226 20.689 251.032 20.7377 251.032 20.98C251.032 21.0284 251.032 21.0771 251.057 21.1255L252.293 24.5923C252.366 24.8105 252.487 24.9321 252.729 24.9321C257.404 25.1435 259.348 24.1032 259.465 21.062L259.471 20.7612V3.23096C259.471 3.01893 259.359 2.88137 259.169 2.8501L259.082 2.84326V0.734863C259.626 0.734863 260.309 0.905571 260.858 1.45459C261.339 1.9351 261.53 2.51836 261.57 3.021L261.579 3.23096V20.7612L261.571 21.1489C261.493 23.078 260.813 24.8535 259.008 25.9556C257.347 26.9698 255.099 27.15 252.635 27.0386V27.0366C252.162 27.0202 251.602 26.8799 251.104 26.4692C250.634 26.0805 250.416 25.6081 250.309 25.2993L250.308 25.3003L249.082 21.8677C249.001 21.6591 248.963 21.4678 248.943 21.314C248.932 21.2258 248.928 21.1428 248.926 21.0815L248.924 20.98L248.929 20.8286C248.975 20.0738 249.366 19.3455 250.091 18.9224C250.662 18.5894 251.227 18.5806 251.42 18.5806H251.476L251.531 18.5835L252.073 18.6079C252.448 18.6216 252.761 18.6238 253.021 18.6196V18.4331H245.163V24.52L245.156 24.7192C245.12 25.2065 244.942 25.8287 244.408 26.3384C243.816 26.9038 243.113 27.0161 242.667 27.0161H239.127C238.681 27.0161 237.979 26.9037 237.387 26.3384C236.777 25.756 236.631 25.0271 236.631 24.52V3.23096C236.631 2.68696 236.802 2.0037 237.352 1.45459C237.901 0.905815 238.583 0.734894 239.127 0.734863V2.84326L239.041 2.8501C238.851 2.88122 238.739 3.01875 238.739 3.23096V24.52L238.746 24.6128ZM246.862 6.9165V12.0571H243.055V6.9165H246.862ZM255.13 6.9165V12.0571H251.202V6.9165H255.13ZM259.082 0.734863V2.84326H239.127V0.734863H259.082Z" fill="#EE7F16"/>
<path d="M234.572 13.9233C234.572 7.69905 231.797 3.90913 227.038 3.67822L226.571 3.66748C221.577 3.66748 218.594 7.49815 218.594 13.9233C218.594 20.1478 221.393 23.9385 226.108 24.1694L226.571 24.1802C231.615 24.1801 234.572 20.3487 234.572 13.9233ZM227.445 13.9233C227.445 12.1251 227.154 11.23 226.924 10.8501C226.826 10.689 226.761 10.6566 226.758 10.6548C226.753 10.652 226.708 10.6255 226.571 10.6255C226.445 10.6255 226.406 10.6502 226.405 10.6509C226.399 10.6544 226.336 10.6915 226.242 10.8462C226.012 11.2287 225.722 12.1268 225.722 13.9233L225.734 14.5562C225.793 15.9372 226.04 16.6667 226.242 17.0015C226.336 17.1566 226.399 17.1934 226.405 17.1968C226.406 17.1974 226.445 17.2222 226.571 17.2222V19.3306L226.409 19.3267C224.858 19.2408 223.762 17.8969 223.627 14.6274L223.613 13.9233C223.613 10.0199 224.826 8.51709 226.571 8.51709L226.735 8.521C228.416 8.61282 229.554 10.1418 229.554 13.9233L229.539 14.6274C229.399 18.0094 228.231 19.3305 226.571 19.3306V17.2222C226.708 17.2221 226.753 17.1958 226.758 17.1929C226.761 17.1911 226.826 17.1586 226.924 16.9976C227.154 16.6177 227.445 15.7218 227.445 13.9233ZM236.681 13.9233C236.681 17.4261 235.878 20.5053 234.127 22.7563C232.322 25.0763 229.683 26.2885 226.571 26.2886C223.478 26.2886 220.847 25.0723 219.045 22.7563C217.295 20.5075 216.485 17.4299 216.485 13.9233C216.485 10.417 217.296 7.34007 219.045 5.09131C220.847 2.77537 223.478 1.55908 226.571 1.55908C229.683 1.55912 232.322 2.77132 234.127 5.09131C235.878 7.34227 236.681 10.4207 236.681 13.9233Z" fill="#EE7F16"/>
<path d="M215.01 13.9233C215.01 7.69899 212.233 3.90906 207.475 3.67822L207.008 3.66748C202.013 3.66748 199.03 7.49815 199.03 13.9233C199.03 20.1482 201.83 23.9389 206.546 24.1694L207.008 24.1802C211.894 24.1802 214.823 20.5847 215.001 14.5181L215.01 13.9233ZM207.882 13.9233C207.882 12.1251 207.591 11.23 207.36 10.8501C207.263 10.6891 207.198 10.6566 207.194 10.6548C207.189 10.6517 207.144 10.6255 207.008 10.6255C206.883 10.6255 206.845 10.6495 206.843 10.6509C206.842 10.6511 206.778 10.6832 206.68 10.8462C206.449 11.2285 206.158 12.1262 206.158 13.9233L206.171 14.5562C206.23 15.9377 206.478 16.6669 206.68 17.0015C206.778 17.1644 206.842 17.1966 206.843 17.1968C206.845 17.1984 206.884 17.2222 207.008 17.2222V19.3306L206.846 19.3267C205.294 19.2407 204.198 17.8968 204.063 14.6274L204.05 13.9233C204.05 10.0199 205.262 8.51709 207.008 8.51709L207.172 8.521C208.852 8.61274 209.99 10.1417 209.99 13.9233L209.977 14.6274C209.837 18.0095 208.667 19.3306 207.008 19.3306V17.2222C207.144 17.2222 207.189 17.1961 207.194 17.1929C207.198 17.1911 207.263 17.1585 207.36 16.9976C207.591 16.6177 207.882 15.7218 207.882 13.9233ZM217.108 14.5757C217.014 17.8083 216.205 20.646 214.563 22.7563C212.758 25.0763 210.12 26.2886 207.008 26.2886C203.914 26.2886 201.284 25.0721 199.482 22.7563C197.733 20.5075 196.922 17.43 196.922 13.9233C196.922 10.4169 197.733 7.34008 199.482 5.09131C201.284 2.77554 203.914 1.55908 207.008 1.55908C210.12 1.55909 212.758 2.77133 214.563 5.09131C216.315 7.34227 217.118 10.4207 217.118 13.9233L217.108 14.5757Z" fill="#EE7F16"/>
<path d="M196.296 5.77686V4.4917C196.296 4.25848 196.166 4.09926 195.955 4.06299L195.859 4.05518V1.94678C196.447 1.9468 197.128 2.14285 197.668 2.68213C198.14 3.15423 198.35 3.7356 198.395 4.26709L198.404 4.4917V5.77686L198.394 6.07373C198.373 6.35875 198.322 6.61309 198.25 6.86475L198.222 6.96631L198.183 7.06396L191.369 24.231L191.367 24.23C190.993 25.1821 190.055 25.9008 188.925 25.9009H184.366C183.731 25.9009 182.838 25.6597 182.278 24.8052C181.745 23.9904 181.85 23.1237 182.045 22.5864L182.06 22.5474L182.075 22.5093L186.826 10.8921H182.208C181.707 10.892 181.054 10.7533 180.497 10.2632C179.907 9.74398 179.663 9.03833 179.663 8.39502V4.4917C179.663 3.90404 179.86 3.22177 180.399 2.68213C180.939 2.14284 181.621 1.94683 182.208 1.94678V4.05518C181.941 4.05527 181.771 4.22506 181.771 4.4917V8.39502C181.771 8.60731 181.902 8.74581 182.113 8.77686L182.208 8.78369H189.967L184.026 23.3071C183.942 23.5404 184.024 23.7372 184.257 23.7827L184.366 23.7925H188.925L189.005 23.7856C189.189 23.7552 189.345 23.6224 189.409 23.4526L196.223 6.28564C196.259 6.15851 196.282 6.04508 196.291 5.91455L196.296 5.77686ZM195.859 1.94678V4.05518H182.208V1.94678H195.859Z" fill="#EE7F16"/>
<path d="M179.664 21.3677C179.664 19.8901 178.62 18.8173 177.171 18.689L176.876 18.6763C175.3 18.6763 174.063 19.7916 174.063 21.3677L174.07 21.5776C174.14 22.6116 174.727 23.3833 175.591 23.7925L174.185 27.9624C174.1 28.1956 174.2 28.3924 174.438 28.438L174.548 28.4478H176.706L176.794 28.4419C176.99 28.4159 177.128 28.3019 177.191 28.1323L178.233 25.853C179.211 23.6934 179.613 22.7488 179.659 21.6001L179.664 21.3677ZM181.766 21.6997C181.694 23.338 181.091 24.653 180.154 26.7231L180.151 26.73L179.108 29.0093L179.107 29.0083C178.674 29.9971 177.719 30.5562 176.706 30.5562H174.548C173.917 30.5561 173.07 30.3227 172.504 29.5415C171.948 28.7741 171.978 27.9074 172.188 27.2896H172.187L173.118 24.5239C172.393 23.7019 171.955 22.6199 171.955 21.3677C171.955 18.5064 174.26 16.5679 176.876 16.5679C179.553 16.568 181.772 18.5415 181.772 21.3677L181.766 21.6997Z" fill="#EE7F16"/>
<path d="M173.342 5.77686V4.4917C173.342 4.25849 173.212 4.09927 173.001 4.06299L172.905 4.05518V1.94678C173.493 1.9468 174.174 2.14285 174.714 2.68213C175.186 3.15423 175.395 3.7356 175.44 4.26709L175.45 4.4917V5.77686L175.439 6.07373C175.419 6.35874 175.368 6.61309 175.296 6.86475L175.268 6.96631L175.229 7.06396L168.415 24.231L168.413 24.23C168.039 25.1821 167.101 25.9008 165.971 25.9009H161.412C160.777 25.9009 159.884 25.6597 159.324 24.8052C158.79 23.9904 158.895 23.1237 159.091 22.5864L159.105 22.5474L159.121 22.5093L163.872 10.8921H159.254C158.753 10.8921 158.1 10.7533 157.543 10.2632C156.953 9.74398 156.709 9.03834 156.709 8.39502V4.4917C156.709 3.90404 156.906 3.22177 157.445 2.68213C157.985 2.14284 158.666 1.94682 159.254 1.94678V4.05518C158.987 4.05526 158.817 4.22505 158.817 4.4917V8.39502C158.817 8.60732 158.948 8.74582 159.159 8.77686L159.254 8.78369H167.013L161.072 23.3071C160.987 23.5404 161.07 23.7372 161.303 23.7827L161.412 23.7925H165.971L166.051 23.7856C166.235 23.7552 166.391 23.6224 166.455 23.4526L173.269 6.28564C173.305 6.15852 173.328 6.04508 173.337 5.91455L173.342 5.77686ZM172.905 1.94678V4.05518H159.254V1.94678H172.905Z" fill="#EE7F16"/>
<path d="M155.754 2.98877C155.754 2.7221 155.633 2.5523 155.366 2.55225C149.183 2.84321 146.468 7.54726 146.468 15.1851L146.476 15.894C146.635 22.9011 149.203 27.2481 154.818 27.7769L155.391 27.8169C155.633 27.8168 155.754 27.6714 155.754 27.4048V23.4771C155.754 23.2105 155.633 23.0405 155.391 23.0161C152.731 22.7661 151.669 20.6409 151.547 16.1206L151.535 15.1851C151.535 10.1817 152.491 7.77236 155.13 7.38428L155.391 7.35303C155.603 7.33172 155.722 7.21729 155.748 7.01025L155.754 6.9165V2.98877ZM157.862 6.9165L157.857 7.08643C157.832 7.50555 157.707 8.06764 157.283 8.57568C156.776 9.18475 156.107 9.39993 155.601 9.45068L155.588 9.45166C155.167 9.49124 154.936 9.59659 154.794 9.69482C154.654 9.79221 154.479 9.96764 154.303 10.3384C153.907 11.1682 153.644 12.6571 153.644 15.1851L153.655 16.0845C153.711 18.0743 153.957 19.3047 154.303 20.0308C154.479 20.4016 154.654 20.5769 154.794 20.6743C154.918 20.7603 155.11 20.852 155.438 20.8999L155.588 20.9175L155.601 20.9185C156.204 20.9789 156.864 21.2599 157.334 21.8706C157.767 22.4335 157.862 23.0492 157.862 23.4771V27.4048C157.862 27.8177 157.773 28.4986 157.254 29.0952C156.69 29.7438 155.945 29.9252 155.391 29.9253H155.341L155.292 29.9233C151.6 29.7503 148.72 28.2213 146.852 25.4419C145.063 22.7816 144.359 19.2103 144.359 15.1851C144.359 11.1703 145.064 7.6015 146.847 4.93994C148.709 2.15995 151.58 0.619357 155.267 0.445801L155.316 0.443848H155.366C155.972 0.44388 156.723 0.657056 157.274 1.31396C157.773 1.90765 157.862 2.57578 157.862 2.98877V6.9165Z" fill="#EE7F16"/>
<path d="M135.362 13.0269C136.502 15.6939 138.418 17.9487 140.357 19.5005C140.454 19.5732 140.527 19.5972 140.624 19.5972C140.721 19.5971 140.818 19.5493 140.915 19.4282L143.412 16.1548C143.467 16.0822 143.494 16.0229 143.504 15.9673L143.51 15.9116C143.51 15.7906 143.436 15.6933 143.291 15.6206C138.781 13.0504 137.569 8.34679 137.617 3.06104C137.617 2.82764 137.506 2.6872 137.315 2.65576L137.229 2.64893V0.540527C137.775 0.540564 138.48 0.714239 139.038 1.29736C139.584 1.86807 139.726 2.55642 139.726 3.06104V3.08057C139.679 8.12034 140.842 11.799 144.335 13.7896L144.334 13.7905C144.861 14.0849 145.523 14.6968 145.608 15.6938L145.618 15.9116L145.606 16.1509C145.553 16.6907 145.326 17.1159 145.099 17.4194L145.089 17.4331L144.52 18.1782C144.808 18.3021 145.1 18.4955 145.359 18.7915C146.09 19.6264 145.986 20.6045 145.797 21.1646L145.799 21.1655L144.636 24.6274L144.637 24.6284C144.521 24.9761 144.292 25.4503 143.82 25.8364C143.344 26.2262 142.829 26.3557 142.457 26.397L142.42 26.4009L142.383 26.4038C140.071 26.5778 137.302 26.6763 134.901 26.6763C133.54 26.6763 132.211 26.6537 131.128 26.5454V26.5444C129.409 26.3951 127.459 26.0916 125.742 25.0454C125.267 25.4697 124.777 25.8672 124.308 26.2329C123.761 26.7181 123.123 26.8462 122.681 26.8462C121.675 26.846 120.952 26.2277 120.597 25.6499L120.596 25.6509L118.607 22.4253L118.608 22.4243C118.469 22.2009 118.383 21.9873 118.332 21.8208C118.295 21.6998 118.251 21.5261 118.231 21.3188L118.221 21.1011L118.227 20.9282C118.255 20.5166 118.39 20.0558 118.712 19.6353C119.027 19.2236 119.41 18.9994 119.686 18.8745V18.8726C120.198 18.6352 120.712 18.3261 121.179 17.9937V16.8267C120.657 16.8026 120.033 16.621 119.523 16.1118C118.974 15.5629 118.803 14.8803 118.803 14.3364V11.0142C118.803 10.4702 118.974 9.78786 119.523 9.23877C120.072 8.68973 120.755 8.51811 121.299 8.51807V10.6265L121.213 10.6333C121.023 10.6644 120.911 10.802 120.911 11.0142V14.3364C120.911 14.5484 121.023 14.6862 121.213 14.7173L121.299 14.7241H123.287V19.0161C122.536 19.6707 121.565 20.325 120.571 20.7856C120.402 20.8584 120.329 20.9557 120.329 21.1011C120.329 21.1496 120.354 21.2462 120.402 21.3188L122.391 24.5444C122.463 24.6651 122.584 24.7376 122.681 24.7378C122.753 24.7378 122.851 24.7139 122.924 24.6411C123.894 23.8895 124.863 23.0649 125.591 22.2163C127.046 23.8165 129.082 24.2528 131.337 24.4468C132.307 24.5438 133.544 24.5679 134.901 24.5679C136.959 24.5679 139.296 24.4941 141.358 24.3618L142.225 24.3013C142.442 24.277 142.564 24.1803 142.637 23.9624L143.8 20.4946C143.897 20.2279 143.752 20.0583 143.437 20.0825C140.309 20.3735 137.496 20.519 135.145 20.519V18.4106C135.498 18.4106 135.863 18.4058 136.239 18.3989C135.945 18.0464 135.66 17.6783 135.385 17.2974C135.119 17.6782 134.84 18.0479 134.549 18.4028C134.744 18.4057 134.942 18.4106 135.145 18.4106V20.519L134.104 20.5063C133.095 20.4813 132.186 20.4219 131.386 20.3491C129.349 20.1551 128.21 19.5246 127.458 18.0698V16.6636L129.688 19.4517C129.785 19.5729 129.883 19.6216 129.979 19.6216C130.052 19.6216 130.125 19.5977 130.222 19.5493C132.307 18.1915 134.198 15.7424 135.362 13.0269ZM124.306 0.273926C124.894 0.273926 125.352 0.486926 125.637 0.662598L125.861 0.816895L125.892 0.839355L125.921 0.862793C126.297 1.16617 126.664 1.49937 127.019 1.854C127.126 1.64843 127.267 1.4468 127.452 1.26123C128.001 0.712211 128.684 0.540585 129.228 0.540527V2.64893L129.142 2.65576C128.951 2.68689 128.84 2.82458 128.84 3.03662V6.28564C128.84 6.52802 128.985 6.67421 129.228 6.67432H133.107V6.86768C133.083 6.91616 133.059 6.96488 133.059 7.0376C132.549 10.4807 130.78 13.7787 127.458 15.7427V11.0142C127.458 10.8021 127.346 10.6645 127.156 10.6333L127.07 10.6265H121.299V8.51807H121.484C121.029 7.87184 120.522 7.2634 120.005 6.76807L119.814 6.59033L119.773 6.5542L119.735 6.51611C119.429 6.20973 119.027 5.66165 118.978 4.89111L118.973 4.73389L118.979 4.56396C119.033 3.77596 119.466 3.12791 120.05 2.73291L122.846 0.757324L122.87 0.740723L122.894 0.725098C123.011 0.647078 123.167 0.554179 123.354 0.474121C123.506 0.408569 123.855 0.273928 124.306 0.273926ZM129.405 8.78271C129.321 8.86262 129.238 8.93185 129.159 8.99072L129.131 9.01221L129.103 9.03271L128.829 9.22314C128.834 9.22837 128.84 9.23347 128.846 9.23877C129.317 9.71046 129.509 10.2807 129.554 10.7769C129.932 10.1509 130.238 9.4817 130.477 8.78271H129.405ZM124.306 2.38232C124.233 2.38233 124.136 2.43057 124.063 2.479L121.251 4.46729L121.173 4.52588C121.108 4.58834 121.081 4.66119 121.081 4.73389C121.081 4.83087 121.13 4.92791 121.227 5.0249C122.463 6.14012 123.626 7.74051 124.378 9.24365C124.451 9.38896 124.548 9.46223 124.669 9.4624C124.742 9.4624 124.839 9.43765 124.912 9.38916L127.895 7.3042C128.088 7.1588 128.137 6.98903 128.04 6.771C127.264 5.24344 125.979 3.61878 124.597 2.50342C124.5 2.43068 124.403 2.38232 124.306 2.38232ZM137.229 0.540527V2.64893H129.228V0.540527H137.229Z" fill="#EE7F16"/>
<path d="M104.156 24.5923C104.156 24.8346 104.302 24.9798 104.544 24.98H108.352L108.438 24.9741C108.6 24.9474 108.706 24.842 108.732 24.6792L108.739 24.5923V20.2769H116.474L116.561 20.27C116.723 20.2432 116.829 20.138 116.855 19.9751L116.862 19.8882V5.146C116.862 4.90375 116.716 4.7583 116.474 4.7583V2.6499C117.018 2.6499 117.701 2.8215 118.25 3.37061C118.73 3.85093 118.922 4.43356 118.962 4.93604L118.971 5.146V19.8882L118.962 20.0981C118.922 20.6008 118.731 21.184 118.25 21.6646C117.701 22.2137 117.018 22.3853 116.474 22.3853H110.848V24.5923L110.839 24.8022C110.799 25.3049 110.607 25.8881 110.127 26.3687C109.578 26.9175 108.895 27.0883 108.352 27.0884H104.544C104 27.0883 103.317 26.9175 102.769 26.3687C102.219 25.8195 102.048 25.1363 102.048 24.5923V22.3853H96.5918C96.0478 22.3853 95.3645 22.2136 94.8154 21.6646C94.2663 21.1154 94.0947 20.4322 94.0947 19.8882V5.146C94.0948 4.60209 94.2665 3.91958 94.8154 3.37061C95.3645 2.8215 96.0478 2.6499 96.5918 2.6499V4.7583L96.5049 4.76514C96.3148 4.79634 96.2033 4.93411 96.2031 5.146V19.8882C96.2031 20.1003 96.3147 20.2388 96.5049 20.27L96.5918 20.2769H104.156V24.5923ZM104.181 14.1665V16.3481H100.446V14.1421L104.181 14.1665ZM112.595 14.2144V16.3481H108.69V14.1909L112.595 14.2144ZM112.595 8.71045V10.6987L108.69 10.6743V8.71045H112.595ZM104.181 8.71045V10.6509L100.446 10.6265V8.71045H104.181ZM108.739 2.52783C108.739 2.31567 108.628 2.17715 108.438 2.146L108.352 2.14014V0.0317383C108.895 0.0318243 109.578 0.202659 110.127 0.751465C110.607 1.23198 110.799 1.81523 110.839 2.31787L110.848 2.52783V2.6499H116.474V4.7583H108.739V2.52783ZM102.023 2.52783C102.023 1.98384 102.195 1.30058 102.744 0.751465C103.293 0.202447 103.977 0.0317383 104.521 0.0317383V2.14014L104.434 2.146C104.243 2.17721 104.132 2.31573 104.132 2.52783V4.7583H96.5918V2.6499H102.023V2.52783ZM108.352 0.0317383V2.14014H104.521V0.0317383H108.352Z" fill="#EE7F16"/>
<path d="M90.748 5.0249C90.748 4.73409 90.578 4.58838 90.2871 4.58838C84.9285 4.70961 76.2479 4.70947 71.1318 4.70947C70.8411 4.70955 70.6954 4.87963 70.6953 5.17041L70.7686 8.68604C70.7686 8.96196 70.8984 9.10806 71.126 9.14014L71.2295 9.14697C74.0663 9.09847 77.5093 8.92853 80.249 8.83154C77.4364 10.2864 75.5449 13.3423 75.5449 16.3247L75.5547 16.6851C75.7413 20.2905 78.7578 23.7129 86.4033 24.0151L87.1836 24.0347C87.4745 24.0347 87.6439 23.9135 87.6924 23.6226L88.3721 19.8403V19.7192C88.3721 19.5011 88.2263 19.3551 87.9355 19.355C82.6012 19.452 80.3457 17.7547 80.3457 15.6694C80.3458 12.4205 85.2676 9.60784 88.25 9.14697C88.9047 9.02574 89.5841 8.95361 90.3115 8.95361C90.6023 8.95356 90.748 8.78346 90.748 8.49268V5.0249ZM87.0381 11.4019C86.8684 11.1838 86.6741 11.1594 86.4316 11.2563L85.001 11.814C84.8314 11.8867 84.7344 12.0082 84.7344 12.1294C84.7344 12.2264 84.7828 12.3236 84.8555 12.4448C85.6071 13.4389 86.2618 14.6995 86.6982 15.936C86.7952 16.2027 86.9894 16.3238 87.2803 16.2026L88.8809 15.5483C89.1476 15.4513 89.2444 15.233 89.1475 14.9663C88.6625 13.7782 87.7897 12.2747 87.0381 11.4019ZM90.3115 10.1655C90.1418 9.97155 89.9231 9.94745 89.6807 10.0444L88.3232 10.6021C88.1295 10.6747 88.0324 10.7956 88.0322 10.9409C88.0322 11.0378 88.0807 11.1351 88.1533 11.2319C88.8322 12.1048 89.6085 13.4877 90.0449 14.603C90.142 14.8695 90.3361 14.9908 90.627 14.8696L92.1543 14.2632C92.4209 14.1662 92.5179 13.9478 92.4209 13.6812C92.0087 12.5658 91.0874 11.0384 90.3115 10.1655ZM82.4541 15.6694C82.4541 15.8034 82.467 16.1067 83.1514 16.481C83.5414 16.6942 84.1089 16.8973 84.8916 17.0415C84.8166 16.9037 84.7589 16.7725 84.7168 16.6567L84.7139 16.647L84.71 16.6382C84.3759 15.6917 83.8941 14.7417 83.3633 13.979C82.7063 14.6679 82.4542 15.2656 82.4541 15.6694ZM92.8564 8.49268L92.8506 8.6792C92.8317 8.9671 92.7614 9.31102 92.5947 9.65771C93.2612 10.585 93.9027 11.7148 94.2979 12.6899L94.3984 12.9507L94.4023 12.9604C94.5898 13.4761 94.6713 14.188 94.3438 14.9087C94.0243 15.6113 93.4529 16.0179 92.9307 16.2212L92.9316 16.2231L91.4043 16.8296L91.4033 16.8276C91.1375 16.9343 90.8115 17.0176 90.4531 17.0239C90.2081 17.2403 89.9376 17.3939 89.6777 17.4976L89.6787 17.4995L89.3369 17.6392C89.4428 17.7055 89.5497 17.7797 89.6514 17.8687C90.1865 18.3371 90.4197 18.9432 90.4697 19.4888L90.4805 19.7192V20.0278L89.7715 23.9683L89.7725 23.9692C89.6904 24.4613 89.4493 25.11 88.832 25.5952C88.2411 26.0595 87.5958 26.1431 87.1836 26.1431H87.1592C82.6388 26.0914 79.2232 25.0648 76.8896 23.2554C74.5017 21.4037 73.4367 18.8727 73.4365 16.3247C73.4365 14.5201 73.968 12.7272 74.8965 11.1489C73.6451 11.1948 72.4036 11.2359 71.2646 11.2554H71.2295C70.7595 11.2554 70.0337 11.1378 69.4277 10.5552C68.8234 9.97406 68.669 9.25016 68.6611 8.729L68.6602 8.72998L68.5879 5.21436L68.5869 5.19287V5.17041C68.5869 4.70027 68.7052 3.99747 69.2559 3.40088C69.8329 2.77596 70.5736 2.60111 71.1318 2.60107C76.2576 2.60107 84.9101 2.60152 90.2393 2.48096L90.2637 2.47998H90.2871C90.7573 2.47998 91.46 2.59815 92.0566 3.14893C92.6817 3.72598 92.8564 4.46661 92.8564 5.0249V8.49268Z" fill="#EE7F16"/>
<path d="M52.6113 23.4517C52.6384 23.6323 52.7452 23.7536 52.9219 23.7847L53.0166 23.7925H66.3281L66.416 23.7847C66.5872 23.7539 66.721 23.6326 66.7559 23.4517L66.7646 23.356V19.8882C66.7645 19.6548 66.6157 19.4954 66.416 19.4595L66.3281 19.4517H57.5752V15.8149H65.0186C65.2853 15.8149 65.4551 15.6451 65.4551 15.3784V12.0327C65.4551 11.7994 65.3253 11.659 65.1143 11.6274L65.0186 11.6206H57.5752V8.39502H66.0127C66.2249 8.39502 66.4 8.26544 66.4404 8.0542L66.4492 7.95947V4.4917C66.4492 4.22498 66.2552 4.05518 66.0127 4.05518V1.94678C67.2578 1.94678 68.4053 2.85773 68.5439 4.21436L68.5576 4.4917V7.95947L68.5439 8.23584C68.4405 9.2501 67.7723 10.0127 66.9219 10.3345C67.3301 10.7843 67.5116 11.3189 67.5537 11.8042L67.5635 12.0327V15.3784C67.5635 15.9661 67.3678 16.6483 66.8281 17.188C66.7645 17.2516 66.698 17.3095 66.6309 17.3638C67.7541 17.4977 68.7324 18.3658 68.8594 19.6118L68.873 19.8882V23.356L68.8594 23.6333C68.7207 24.9899 67.5732 25.9009 66.3281 25.9009H53.0166C52.4201 25.9009 51.7063 25.6965 51.1592 25.1021C50.6357 24.533 50.4961 23.8572 50.4961 23.356V4.4917C50.4961 3.99043 50.6356 3.31468 51.1592 2.74561C51.7063 2.15115 52.4201 1.94678 53.0166 1.94678V4.05518L52.9219 4.06299C52.7155 4.09923 52.6045 4.25844 52.6045 4.4917V23.356L52.6113 23.4517ZM66.0127 1.94678V4.05518H53.0166V1.94678H66.0127Z" fill="#EE7F16"/>
<path d="M30.4189 23.4517C30.446 23.6324 30.5536 23.7537 30.7305 23.7847L30.8252 23.7925H34.8018L34.8955 23.7847C35.0725 23.7538 35.1799 23.6325 35.207 23.4517L35.2139 23.356V11.7173L42.2939 23.5015C42.3788 23.6709 42.5189 23.7663 42.7148 23.7876L42.8027 23.7925H47.1426L47.2373 23.7847C47.4142 23.7537 47.5217 23.6325 47.5488 23.4517L47.5557 23.356V4.4917C47.5557 4.22498 47.4093 4.05518 47.1426 4.05518V1.94678C47.7392 1.94678 48.4538 2.15091 49.001 2.74561C49.4592 3.24363 49.6225 3.82347 49.6562 4.29639L49.6641 4.4917V23.356L49.6562 23.5513C49.6225 24.0242 49.4591 24.6041 49.001 25.1021C48.4538 25.6967 47.7392 25.9009 47.1426 25.9009H42.8027C42.4019 25.9009 41.9187 25.8197 41.4473 25.5503C41.0128 25.3019 40.6947 24.9533 40.4795 24.5767L37.3223 19.3208V23.356L37.3154 23.5513C37.2816 24.0242 37.1173 24.604 36.6592 25.1021C36.1121 25.6965 35.3982 25.9008 34.8018 25.9009H30.8252C30.2286 25.9009 29.514 25.6967 28.9668 25.1021C28.4433 24.533 28.3037 23.8572 28.3037 23.356V4.4917C28.3037 3.99043 28.4433 3.31468 28.9668 2.74561C29.514 2.15088 30.2286 1.94678 30.8252 1.94678V4.05518L30.7305 4.06299C30.524 4.09914 30.4131 4.25834 30.4131 4.4917V23.356L30.4189 23.4517ZM35.1895 1.94678C35.6034 1.9468 36.0909 2.03335 36.5645 2.31396C36.9094 2.51837 37.1568 2.77265 37.333 3.00537L37.4863 3.229L37.5059 3.26025L40.6455 8.48193V4.4917C40.6455 3.98986 40.7867 3.29258 41.3428 2.71338C41.913 2.1195 42.6334 1.94685 43.1904 1.94678V4.05518C42.8997 4.05531 42.7539 4.22509 42.7539 4.4917V16.0815L35.6982 4.34619C35.5921 4.17642 35.4675 4.08119 35.2754 4.06006L35.1895 4.05518V1.94678ZM47.1426 1.94678V4.05518H43.1904V1.94678H47.1426ZM35.1895 1.94678V4.05518H30.8252V1.94678H35.1895Z" fill="#EE7F16"/>
<path d="M20.3516 23.4517C20.3787 23.6323 20.4854 23.7537 20.6621 23.7847L20.7568 23.7925H24.9268L25.0225 23.7847C25.2033 23.7537 25.3244 23.6324 25.3555 23.4517L25.3633 23.356V4.4917C25.3633 4.22498 25.1935 4.05518 24.9268 4.05518V1.94678C25.5143 1.94678 26.1967 2.14262 26.7363 2.68213C27.2084 3.15424 27.4179 3.73559 27.4629 4.26709L27.4717 4.4917V23.356L27.4629 23.5806C27.4179 24.1119 27.2082 24.6925 26.7363 25.1646C26.1967 25.7042 25.5144 25.9009 24.9268 25.9009H20.7568C20.1602 25.9009 19.4456 25.6968 18.8984 25.1021C18.3749 24.533 18.2363 23.8572 18.2363 23.356V4.4917C18.2363 3.99044 18.3749 3.31467 18.8984 2.74561C19.4456 2.15084 20.1602 1.94678 20.7568 1.94678V4.05518L20.6621 4.06299C20.4557 4.0992 20.3447 4.2584 20.3447 4.4917V23.356L20.3516 23.4517ZM24.9268 1.94678V4.05518H20.7568V1.94678H24.9268Z" fill="#EE7F16"/>
<path d="M2.37402 23.4517C2.40112 23.6325 2.5086 23.7537 2.68555 23.7847L2.7793 23.7925H16.043L16.1299 23.7847C16.297 23.7538 16.4164 23.6325 16.4473 23.4517L16.4551 23.356V19.4282C16.4551 19.2159 16.325 19.0774 16.1299 19.0464L16.043 19.0396V16.9312C16.5792 16.9312 17.2275 17.0961 17.7646 17.5884C18.2539 18.0368 18.4982 18.6191 18.5518 19.186L18.5635 19.4282V23.356L18.5537 23.5786C18.5097 24.1052 18.3063 24.6706 17.8613 25.1343C17.3475 25.6695 16.6723 25.9009 16.043 25.9009H2.7793C2.18282 25.9008 1.4689 25.6965 0.921875 25.1021C0.398366 24.533 0.258808 23.8572 0.258789 23.356V4.4917C0.258789 3.99043 0.398329 3.31468 0.921875 2.74561C1.4689 2.15108 2.1828 1.94688 2.7793 1.94678V4.05518C2.51288 4.05538 2.36719 4.22514 2.36719 4.4917V23.356L2.37402 23.4517ZM7.38672 4.4917C7.38672 4.22498 7.21691 4.05518 6.9502 4.05518V1.94678C7.53784 1.94678 8.22013 2.1425 8.75977 2.68213C9.23186 3.15423 9.44038 3.7356 9.48535 4.26709L9.49512 4.4917V16.9312H16.043V19.0396H7.38672V4.4917ZM6.9502 1.94678V4.05518H2.7793V1.94678H6.9502Z" fill="#EE7F16"/>
</g>
<defs>
<clipPath id="clip0_443_4">
<rect width="274" height="33" fill="white"/>
</clipPath>
</defs>
</svg>
