<svg width="274" height="32" viewBox="0 0 274 32" fill="none" xmlns="http://www.w3.org/2000/svg">
<path d="M263.139 29.7856C262.873 29.7856 262.703 29.6401 262.703 29.3734V25.4454C262.703 25.1787 262.848 25.0089 263.115 24.9847C265.903 24.718 266.922 22.3175 266.922 17.1529C266.922 11.9883 265.903 9.58782 263.115 9.32111C262.848 9.29686 262.703 9.15138 262.703 8.88466V4.95665C262.703 4.68993 262.873 4.5202 263.115 4.5202C269.298 4.81117 272.014 9.49083 272.014 17.1529C272.014 24.7907 269.298 29.4946 263.139 29.7856Z" fill="#BF8E1D"/>
<path d="M260.703 4.95672C260.703 4.39417 260.889 3.7601 261.375 3.2536C261.866 2.74192 262.512 2.52022 263.115 2.5202H263.162L263.209 2.52215C266.861 2.69401 269.701 4.21073 271.544 6.9577C273.311 9.59187 274.013 13.1374 274.013 17.1531C274.013 21.1578 273.31 24.7003 271.549 27.3357C269.712 30.0833 266.88 31.6106 263.234 31.7829L263.186 31.7859H263.139C262.657 31.7859 262.01 31.6513 261.467 31.1511C260.899 30.6286 260.703 29.9463 260.703 29.3738V25.445C260.703 24.9516 260.843 24.3295 261.311 23.7995C261.785 23.264 262.399 23.0436 262.925 22.9939L263.073 22.9753C263.401 22.9266 263.601 22.8333 263.735 22.739C263.888 22.631 264.073 22.44 264.256 22.0525C264.66 21.1957 264.922 19.6822 264.922 17.1531C264.922 14.6241 264.66 13.1104 264.256 12.2536C264.073 11.8658 263.888 11.6741 263.735 11.5661C263.582 11.4584 263.343 11.3523 262.925 11.3122C262.48 11.2702 261.866 11.1006 261.365 10.5779C260.846 10.0367 260.703 9.38303 260.703 8.88446V4.95672ZM262.703 8.88446C262.703 9.15115 262.848 9.29672 263.115 9.32098C265.903 9.5877 266.922 11.9884 266.922 17.1531L266.91 18.0886C266.788 22.6091 265.729 24.735 263.115 24.9851L263.021 25.0007C262.815 25.053 262.703 25.2117 262.703 25.445V29.3738C262.703 29.6068 262.833 29.7475 263.044 29.779L263.139 29.7859C269.106 29.504 271.841 25.0803 272.006 17.8601L272.013 17.1531C272.013 9.49097 269.298 4.81117 263.115 4.5202C262.873 4.52023 262.703 4.69003 262.703 4.95672V8.88446Z" fill="#BF8E1D"/>
<path d="M238.48 5.19911C238.48 4.95664 238.626 4.81116 238.868 4.81116H258.823C259.066 4.81116 259.211 4.95664 259.211 5.19911V22.7297C259.211 26.0031 257.296 27.1184 252.471 26.9002C252.228 26.9002 252.107 26.779 252.034 26.5607L250.798 23.0934C250.773 23.0449 250.773 22.9964 250.773 22.9479C250.773 22.7055 250.967 22.657 251.161 22.657C254.386 22.8267 254.871 22.4873 254.871 21.6386V18.2925H242.796V26.488C242.796 26.7547 242.651 26.876 242.408 26.876H238.868C238.626 26.876 238.48 26.7547 238.48 26.488V5.19911ZM246.603 8.88465H242.796V14.0251H246.603V8.88465ZM254.871 8.88465H250.943V14.0251H254.871V8.88465Z" fill="#BF8E1D"/>
<path d="M238.48 26.488C238.48 26.7546 238.626 26.8756 238.868 26.8756H242.408C242.62 26.8756 242.759 26.7833 242.79 26.5817L242.797 26.488V18.2926H254.871V21.6383C254.871 22.4869 254.386 22.8266 251.162 22.6569C250.968 22.6569 250.773 22.7055 250.773 22.9479C250.773 22.9964 250.773 23.0449 250.798 23.0934L252.034 26.5612C252.107 26.7791 252.228 26.9 252.47 26.9001C257.145 27.1115 259.089 26.0714 259.206 23.0299L259.212 22.7301V5.19885C259.212 4.95653 259.065 4.81116 258.823 4.81116V2.81116C259.345 2.81116 259.998 2.97562 260.522 3.49963C261.046 4.02382 261.212 4.67657 261.212 5.19885V22.7301C261.212 24.7843 260.575 26.6828 258.693 27.8317C257.062 28.828 254.842 29.0094 252.381 28.8981C251.926 28.8826 251.39 28.7468 250.915 28.3542C250.465 27.9825 250.255 27.5303 250.151 27.2321L250.15 27.2331L248.927 23.8014C248.849 23.6009 248.81 23.4172 248.792 23.2692C248.771 23.101 248.773 22.9519 248.773 22.9479C248.773 22.1757 249.149 21.4143 249.887 20.984C250.432 20.6658 250.974 20.6569 251.162 20.6569H251.214L251.266 20.6598C251.955 20.6961 252.477 20.7043 252.871 20.694V20.2926H244.797V26.488C244.797 26.9758 244.656 27.6734 244.074 28.2292C243.509 28.7685 242.837 28.8756 242.408 28.8756H238.868C238.439 28.8756 237.767 28.7687 237.202 28.2292C236.62 27.6734 236.48 26.9758 236.48 26.488V5.19885C236.48 4.67663 236.645 4.02384 237.169 3.49963C237.693 2.97543 238.346 2.81121 238.868 2.81116V4.81116C238.626 4.81126 238.48 4.95662 238.48 5.19885V26.488ZM246.603 8.8844V14.0251H242.797V8.8844H246.603ZM254.871 8.8844V14.0251H250.943V8.8844H254.871ZM258.823 2.81116V4.81116H238.868V2.81116H258.823Z" fill="#BF8E1D"/>
<path d="M226.312 26.1486C221.317 26.1486 218.335 22.3175 218.335 15.8921C218.335 9.46658 221.317 5.63556 226.312 5.63556C231.355 5.63556 234.314 9.46658 234.314 15.8921C234.314 22.3175 231.355 26.1486 226.312 26.1486ZM223.354 15.8921C223.354 19.7958 224.566 21.2992 226.312 21.2992C228.082 21.2992 229.294 19.7958 229.294 15.8921C229.294 11.9883 228.082 10.485 226.312 10.485C224.566 10.485 223.354 11.9883 223.354 15.8921Z" fill="#BF8E1D"/>
<path d="M234.313 15.8924C234.313 9.6679 231.538 5.87726 226.779 5.6463L226.312 5.63556C221.317 5.63556 218.335 9.46694 218.335 15.8924L218.344 16.4872C218.517 22.3576 221.286 25.9141 225.849 26.1376L226.312 26.1483C231.198 26.1482 234.126 22.5532 234.304 16.4872L234.313 15.8924ZM227.295 15.8924C227.295 14.0864 227.003 13.1675 226.758 12.7626C226.603 12.5079 226.512 12.4852 226.312 12.4852C226.135 12.4852 226.047 12.4984 225.89 12.7577C225.645 13.1647 225.354 14.0869 225.354 15.8924C225.354 17.6977 225.645 18.6192 225.89 19.0262C226.047 19.2856 226.135 19.2987 226.312 19.2987V21.2987L226.15 21.2948C224.599 21.209 223.503 19.8654 223.368 16.5965L223.354 15.8924C223.354 11.9887 224.567 10.4852 226.312 10.4852L226.476 10.4891C228.157 10.581 229.295 12.1107 229.295 15.8924L229.28 16.5965C229.14 19.9778 227.971 21.2985 226.312 21.2987V19.2987C226.512 19.2987 226.603 19.276 226.758 19.0213C227.003 18.6164 227.295 17.698 227.295 15.8924ZM236.313 15.8924C236.313 19.3801 235.515 22.4323 233.783 24.6581C232 26.9494 229.394 28.1482 226.312 28.1483C223.249 28.1483 220.651 26.9454 218.872 24.6581C217.142 22.4344 216.335 19.3838 216.335 15.8924C216.335 12.4009 217.142 9.34957 218.872 7.12579C220.651 4.83859 223.25 3.63556 226.312 3.63556C229.394 3.63563 232 4.83451 233.783 7.12579C235.515 9.35164 236.313 12.4045 236.313 15.8924Z" fill="#BF8E1D"/>
<path d="M206.749 26.1486C201.754 26.1486 198.772 22.3175 198.772 15.8921C198.772 9.46658 201.754 5.63556 206.749 5.63556C211.792 5.63556 214.751 9.46658 214.751 15.8921C214.751 22.3175 211.792 26.1486 206.749 26.1486ZM203.791 15.8921C203.791 19.7958 205.003 21.2992 206.749 21.2992C208.519 21.2992 209.731 19.7958 209.731 15.8921C209.731 11.9883 208.519 10.485 206.749 10.485C205.003 10.485 203.791 11.9883 203.791 15.8921Z" fill="#BF8E1D"/>
<path d="M214.75 15.8924C214.75 9.6679 211.975 5.87726 207.216 5.6463L206.749 5.63556C201.754 5.63556 198.772 9.46694 198.772 15.8924L198.781 16.4872C198.955 22.3576 201.723 25.9141 206.286 26.1376L206.749 26.1483C211.635 26.1482 214.563 22.5532 214.741 16.4872L214.75 15.8924ZM207.732 15.8924C207.732 14.0864 207.44 13.1675 207.195 12.7626C207.04 12.5079 206.949 12.4852 206.749 12.4852C206.572 12.4852 206.484 12.4984 206.327 12.7577C206.082 13.1647 205.791 14.0869 205.791 15.8924C205.791 17.6977 206.082 18.6192 206.327 19.0262C206.484 19.2856 206.572 19.2987 206.749 19.2987V21.2987L206.587 21.2948C205.036 21.209 203.94 19.8654 203.805 16.5965L203.791 15.8924C203.791 11.9887 205.004 10.4852 206.749 10.4852L206.913 10.4891C208.594 10.581 209.732 12.1107 209.732 15.8924L209.717 16.5965C209.577 19.9778 208.408 21.2985 206.749 21.2987V19.2987C206.949 19.2987 207.04 19.276 207.195 19.0213C207.44 18.6164 207.732 17.698 207.732 15.8924ZM216.75 15.8924C216.75 19.3801 215.952 22.4323 214.22 24.6581C212.437 26.9494 209.831 28.1482 206.749 28.1483C203.687 28.1483 201.088 26.9454 199.309 24.6581C197.579 22.4344 196.772 19.3838 196.772 15.8924C196.772 12.4009 197.579 9.34957 199.309 7.12579C201.088 4.83859 203.687 3.63556 206.749 3.63556C209.831 3.63563 212.437 4.83451 214.22 7.12579C215.952 9.35164 216.75 12.4045 216.75 15.8924Z" fill="#BF8E1D"/>
<path d="M127.781 8.73917C127.878 8.95739 127.829 9.12712 127.635 9.2726L124.653 11.3579C124.58 11.4064 124.483 11.4306 124.41 11.4306C124.289 11.4306 124.192 11.3579 124.119 11.2124C123.368 9.70905 122.204 8.10874 120.967 6.99338C120.87 6.89639 120.822 6.79941 120.822 6.70242C120.822 6.60543 120.87 6.50844 120.991 6.4357L123.804 4.44745C123.877 4.39896 123.974 4.35046 124.047 4.35046C124.144 4.35046 124.241 4.39896 124.338 4.4717C125.72 5.58706 127.005 7.21161 127.781 8.73917ZM127.199 17.7106C130.521 15.7466 132.291 12.449 132.8 9.00588C132.8 8.93314 132.824 8.88465 132.848 8.83616V8.64218H128.969C128.726 8.64218 128.581 8.4967 128.581 8.25423V5.00513C128.581 4.76266 128.726 4.61718 128.969 4.61718H136.97C137.213 4.61718 137.358 4.76266 137.358 5.02938C137.31 10.3153 138.522 15.0192 143.032 17.5894C143.177 17.6621 143.25 17.7591 143.25 17.8803C143.25 17.9531 143.226 18.0258 143.153 18.1228L140.656 21.3961C140.559 21.5174 140.462 21.5659 140.365 21.5659C140.268 21.5659 140.195 21.5416 140.098 21.4689C138.158 19.9171 136.243 17.6621 135.103 14.9949C133.939 17.7106 132.048 20.1595 129.963 21.5174C129.866 21.5659 129.793 21.5901 129.72 21.5901C129.623 21.5901 129.526 21.5416 129.429 21.4204L127.199 18.632V20.0383C127.95 21.4931 129.09 22.1235 131.127 22.3175C132.194 22.4145 133.454 22.4872 134.885 22.4872C137.237 22.4872 140.05 22.3418 143.177 22.0508C143.493 22.0266 143.638 22.1963 143.541 22.463L142.377 25.9303C142.305 26.1485 142.183 26.2455 141.965 26.2698C139.71 26.4395 136.994 26.5365 134.643 26.5365C133.285 26.5365 132.048 26.5123 131.078 26.4153C128.823 26.2213 126.787 25.7848 125.332 24.1845C124.604 25.0332 123.634 25.8576 122.665 26.6092C122.592 26.682 122.495 26.7062 122.422 26.7062C122.325 26.7062 122.204 26.6335 122.131 26.5123L120.143 23.2874C120.094 23.2147 120.07 23.1177 120.07 23.0692C120.07 22.9237 120.143 22.8267 120.313 22.754C121.307 22.2933 122.277 21.6386 123.028 20.9839V16.6922H121.04C120.798 16.6922 120.652 16.5467 120.652 16.3043V12.9824C120.652 12.74 120.798 12.5945 121.04 12.5945H126.811C127.053 12.5945 127.199 12.74 127.199 12.9824V17.7106Z" fill="#BF8E1D"/>
<path d="M135.103 14.995C136.243 17.6622 138.159 19.9169 140.098 21.4687C140.195 21.5413 140.268 21.5663 140.365 21.5663C140.462 21.5663 140.559 21.5175 140.656 21.3964L143.153 18.123C143.208 18.0503 143.235 17.9911 143.245 17.9355L143.25 17.8808C143.25 17.7596 143.177 17.6625 143.032 17.5898C138.522 15.0196 137.31 10.3151 137.358 5.02917C137.358 4.79587 137.247 4.65534 137.056 4.6239L136.97 4.61706V2.61706C137.494 2.61711 138.168 2.78422 138.7 3.3407C139.221 3.88559 139.358 4.54365 139.358 5.02917V5.04773C139.312 10.1002 140.477 13.8311 144.022 15.8515L144.02 15.8534C144.562 16.1557 145.25 16.8051 145.25 17.8808C145.25 18.5049 145.004 18.9891 144.754 19.3232L144.748 19.329L144.743 19.3359L144.087 20.1943C144.404 20.3081 144.733 20.5041 145.019 20.831C145.716 21.6269 145.618 22.5609 145.435 23.0985L145.437 23.0995L144.274 26.5614L144.275 26.5624C144.163 26.8979 143.943 27.3515 143.492 27.7206C143.037 28.0929 142.545 28.2179 142.186 28.2577L142.151 28.2616L142.115 28.2646C139.807 28.4383 137.041 28.536 134.642 28.536C133.292 28.536 131.98 28.5126 130.907 28.4071C129.16 28.2569 127.19 27.9521 125.47 26.8798C124.969 27.3311 124.448 27.7536 123.951 28.1405C123.434 28.5862 122.838 28.706 122.422 28.706C121.462 28.7058 120.769 28.1151 120.429 27.5605L118.44 24.3368L118.442 24.3359C118.309 24.122 118.226 23.9177 118.177 23.7577C118.141 23.6415 118.099 23.475 118.08 23.2773L118.07 23.0693L118.076 22.9032C118.103 22.51 118.232 22.0708 118.539 21.6698C118.84 21.2762 119.207 21.0605 119.472 20.9403L119.471 20.9394C120.007 20.6911 120.544 20.3653 121.028 20.0165V18.6913C120.508 18.6888 119.861 18.5241 119.341 18.0038C118.816 17.4796 118.652 16.8268 118.652 16.3046V12.9823C118.652 12.4601 118.816 11.8074 119.341 11.2831C119.865 10.7589 120.518 10.5947 121.04 10.5946V12.5946L120.954 12.6015C120.764 12.6326 120.652 12.7702 120.652 12.9823V16.3046C120.652 16.5166 120.764 16.6544 120.954 16.6855L121.04 16.6923H123.028V20.9843C122.276 21.6389 121.306 22.2932 120.312 22.7538C120.143 22.8266 120.07 22.9238 120.07 23.0693C120.07 23.1177 120.094 23.2144 120.142 23.287L122.131 26.5126C122.203 26.6336 122.325 26.7058 122.422 26.706C122.494 26.706 122.592 26.682 122.665 26.6093C123.635 25.8577 124.604 25.0331 125.332 24.1845C126.787 25.7847 128.823 26.221 131.078 26.415C132.048 26.5119 133.285 26.536 134.642 26.536C136.7 26.536 139.037 26.4623 141.099 26.33L141.966 26.2694C142.183 26.2451 142.305 26.1486 142.378 25.9306L143.541 22.4628C143.638 22.1961 143.493 22.0265 143.178 22.0507C140.05 22.3417 137.237 22.4872 134.885 22.4872V20.4872C135.31 20.4872 135.753 20.4805 136.211 20.4706C135.834 20.0301 135.47 19.5655 135.125 19.079C134.791 19.5649 134.437 20.0331 134.063 20.4765C134.33 20.482 134.604 20.4872 134.885 20.4872V22.4872C133.454 22.4872 132.193 22.4143 131.127 22.3173C129.09 22.1233 127.951 21.4928 127.199 20.038V18.6318L129.429 21.4208C129.526 21.5418 129.624 21.5898 129.72 21.5898C129.793 21.5897 129.866 21.5659 129.963 21.5175C132.048 20.1597 133.939 17.7107 135.103 14.995ZM124.184 2.35437C124.681 2.38397 125.07 2.56856 125.321 2.72351L125.538 2.87195L125.566 2.89343L125.594 2.91492C126.005 3.24675 126.405 3.61578 126.79 4.00867C126.897 3.7649 127.051 3.52354 127.269 3.30554C127.794 2.78138 128.446 2.61711 128.969 2.61706V4.61706C128.726 4.61715 128.581 4.76258 128.581 5.00476V8.25378C128.581 8.49618 128.726 8.64237 128.969 8.64245H132.848V8.83581C132.824 8.88427 132.8 8.93308 132.8 9.00574C132.29 12.4488 130.521 15.7468 127.199 17.7109V12.9823C127.199 12.7703 127.087 12.6327 126.897 12.6015L126.81 12.5946H121.04V10.5946H121.436C120.892 9.79787 120.261 9.04991 119.628 8.47839L119.59 8.44421L119.553 8.40808C119.239 8.09314 118.822 7.51656 118.822 6.70202C118.822 5.87065 119.26 5.18582 119.866 4.7821L122.649 2.81433L122.672 2.7987L122.695 2.78308C122.808 2.70788 122.958 2.61963 123.137 2.54284C123.285 2.47973 123.617 2.35046 124.047 2.35046L124.184 2.35437ZM124.047 4.35046C123.974 4.35046 123.877 4.39873 123.804 4.44714L120.992 6.43542L120.914 6.49402C120.849 6.55646 120.822 6.62933 120.822 6.70202C120.822 6.79901 120.871 6.89606 120.968 6.99304C122.204 8.1084 123.367 9.70946 124.119 11.2128C124.192 11.358 124.289 11.4304 124.41 11.4306C124.483 11.4306 124.58 11.4068 124.653 11.3583L127.636 9.27234C127.829 9.12694 127.878 8.95716 127.781 8.73913C127.054 7.307 125.878 5.78951 124.595 4.6864L124.338 4.47156C124.241 4.39883 124.144 4.35048 124.047 4.35046ZM136.97 2.61706V4.61706H128.969V2.61706H136.97ZM129.199 13.1034C129.697 12.3437 130.083 11.5143 130.367 10.6425H129.102C129.011 10.7319 128.92 10.809 128.835 10.873L128.808 10.8925L128.781 10.912L128.398 11.1786C128.436 11.2117 128.473 11.2466 128.51 11.2831C129.034 11.8074 129.199 12.4601 129.199 12.9823V13.1034Z" fill="#BF8E1D"/>
<path d="M103.873 4.49592C103.873 4.25345 104.019 4.10797 104.261 4.10797H108.092C108.335 4.10797 108.48 4.25345 108.48 4.49592V6.72664H116.215C116.458 6.72664 116.603 6.87213 116.603 7.11459V21.8568C116.603 22.0993 116.458 22.2448 116.215 22.2448H108.48V26.5607C108.48 26.8032 108.335 26.9487 108.092 26.9487H104.286C104.043 26.9487 103.898 26.8032 103.898 26.5607V22.2448H96.3328C96.0903 22.2448 95.9448 22.0993 95.9448 21.8568V7.11459C95.9448 6.87213 96.0903 6.72664 96.3328 6.72664H103.873V4.49592ZM103.922 10.6789H100.188V12.5945L103.922 12.6187V10.6789ZM108.432 12.6429L112.336 12.6672V10.6789H108.432V12.6429ZM103.922 16.1345L100.188 16.1103V18.3167H103.922V16.1345ZM112.336 16.183L108.432 16.1588V18.3167H112.336V16.183Z" fill="#BF8E1D"/>
<path d="M103.905 26.6471C103.931 26.8102 104.036 26.9153 104.199 26.942L104.285 26.9488H108.092L108.179 26.942C108.342 26.9152 108.447 26.8101 108.474 26.6471L108.481 26.5611V22.2447H116.215L116.301 22.2379C116.464 22.2113 116.569 22.1062 116.596 21.943L116.603 21.857V7.11481C116.603 6.9025 116.492 6.76401 116.301 6.73297L116.215 6.72711V4.72711C116.737 4.72711 117.39 4.8913 117.914 5.41559C118.439 5.93986 118.603 6.59258 118.603 7.11481V21.857C118.603 22.3793 118.439 23.032 117.914 23.5563C117.39 24.0805 116.737 24.2447 116.215 24.2447H110.481V26.5611C110.481 27.0833 110.315 27.7352 109.791 28.2594C109.267 28.7837 108.614 28.9488 108.092 28.9488H104.285C103.763 28.9488 103.11 28.7836 102.586 28.2594C102.062 27.7353 101.898 27.0832 101.898 26.5611V24.2447H96.3325C95.8103 24.2447 95.1575 24.0805 94.6333 23.5563C94.1091 23.032 93.9449 22.3792 93.9448 21.857V7.11481C93.9448 6.59262 94.1092 5.93984 94.6333 5.41559C95.1575 4.89138 95.8103 4.72716 96.3325 4.72711V6.72711L96.2466 6.73297C96.0562 6.76408 95.9448 6.90259 95.9448 7.11481V21.857C95.9449 22.0993 96.0903 22.2446 96.3325 22.2447H103.898V26.5611L103.905 26.6471ZM103.922 16.1344V18.317H100.188V16.11L103.922 16.1344ZM112.335 16.1832V18.317H108.432V16.1588L112.335 16.1832ZM112.335 10.6793V12.6676L108.432 12.6432V10.6793H112.335ZM103.922 10.6793V12.6188L100.188 12.5943V10.6793H103.922ZM108.481 4.49566C108.481 4.25335 108.334 4.10797 108.092 4.10797V2.10797C108.614 2.10797 109.267 2.27236 109.791 2.79645C110.316 3.32066 110.481 3.97344 110.481 4.49566V4.72711H116.215V6.72711H108.481V4.49566ZM101.873 4.49566C101.873 3.97348 102.038 3.32066 102.562 2.79645C103.086 2.27224 103.739 2.10804 104.261 2.10797V4.10797C104.019 4.10809 103.873 4.25345 103.873 4.49566V6.72711H96.3325V4.72711H101.873V4.49566ZM108.092 2.10797V4.10797H104.261V2.10797H108.092Z" fill="#BF8E1D"/>
<path d="M86.925 26.0031C78.4385 25.9061 75.2864 22.1478 75.2864 18.2925C75.2864 15.3101 77.1777 12.255 79.9903 10.8002C77.2504 10.8972 73.8073 11.0669 70.9704 11.1154C70.6795 11.1154 70.5097 10.9699 70.5097 10.6547L70.437 7.13888C70.437 6.84792 70.5825 6.67819 70.8734 6.67819C75.9896 6.67819 84.67 6.67819 90.0286 6.55695C90.3195 6.55695 90.4893 6.70244 90.4893 6.9934V10.4607C90.4893 10.7517 90.3438 10.9214 90.0528 10.9214C89.3254 10.9214 88.6465 10.9942 87.9918 11.1154C85.0094 11.5761 80.0873 14.3888 80.0873 17.6379C80.0873 19.7231 82.3423 21.4204 87.6766 21.3234C87.9676 21.3234 88.1131 21.4689 88.1131 21.6871V21.8083L87.4341 25.5909C87.3856 25.8818 87.2159 26.0031 86.925 26.0031ZM87.0219 18.1713C86.731 18.2925 86.537 18.1713 86.44 17.9046C86.0036 16.668 85.3489 15.4071 84.5972 14.413C84.5245 14.2918 84.476 14.1948 84.476 14.0978C84.476 13.9766 84.573 13.8553 84.7427 13.7826L86.1733 13.2249C86.4158 13.1279 86.6097 13.1522 86.7795 13.3704C87.5311 14.2433 88.404 15.7466 88.889 16.9347C88.986 17.2014 88.889 17.4196 88.6222 17.5166L87.0219 18.1713ZM90.368 16.8377C90.0771 16.9589 89.8831 16.8377 89.7861 16.571C89.3497 15.4556 88.5737 14.0736 87.8948 13.2007C87.8221 13.1037 87.7736 13.0067 87.7736 12.9097C87.7736 12.7642 87.8706 12.643 88.0646 12.5702L89.4224 12.0126C89.6649 11.9156 89.8831 11.9398 90.0528 12.1338C90.8287 13.0067 91.7501 14.5342 92.1623 15.6496C92.2593 15.9163 92.1623 16.1345 91.8956 16.2315L90.368 16.8377Z" fill="#BF8E1D"/>
<path d="M90.4897 6.99348C90.4897 6.70259 90.3196 6.55703 90.0288 6.55695C84.6702 6.67819 75.9896 6.67805 70.8735 6.67805C70.5826 6.67805 70.437 6.84802 70.437 7.13899L70.5093 10.6546C70.5093 10.9303 70.6395 11.0765 70.8667 11.1087L70.9702 11.1156C73.8071 11.0671 77.2508 10.8971 79.9907 10.8001C77.1781 12.2549 75.2867 15.31 75.2866 18.2923L75.2954 18.6537C75.4821 22.259 78.4995 25.6816 86.145 25.9837L86.9253 26.0033C87.2159 26.0032 87.3855 25.8818 87.4341 25.5912L88.1128 21.808V21.6869C88.1127 21.4688 87.9671 21.3236 87.6763 21.3236C82.5091 21.4175 80.2317 19.8275 80.0942 17.8324L80.0874 17.638C80.0874 14.389 85.0093 11.5763 87.9917 11.1156C88.6464 10.9943 89.3258 10.9212 90.0532 10.9212C90.3439 10.9211 90.4897 10.7511 90.4897 10.4603V6.99348ZM86.7798 13.3705C86.61 13.1522 86.4158 13.128 86.1733 13.225L84.7427 13.7826C84.573 13.8553 84.4761 13.9768 84.4761 14.098C84.4761 14.1949 84.5245 14.2923 84.5972 14.4134C85.3487 15.4075 86.0035 16.6681 86.4399 17.9046C86.5369 18.1713 86.731 18.2925 87.022 18.1712L88.6225 17.5169C88.8891 17.42 88.986 17.2015 88.8891 16.9349C88.4042 15.7469 87.5314 14.2434 86.7798 13.3705ZM90.0532 12.1341C89.8835 11.9402 89.6648 11.9161 89.4224 12.013L88.0649 12.5707C87.871 12.6434 87.774 12.7641 87.7739 12.9095C87.7739 13.0065 87.8223 13.1036 87.895 13.2005C88.5738 14.0733 89.3492 15.4554 89.7856 16.5707C89.8826 16.8373 90.0768 16.9584 90.3677 16.8373L91.896 16.2318C92.1624 16.1348 92.2594 15.9163 92.1626 15.6498C91.8019 14.6738 91.0509 13.382 90.3491 12.4896L90.0532 12.1341ZM82.0874 17.638C82.0874 17.8188 82.1289 18.1548 82.8413 18.5443C83.2817 18.7851 83.9344 19.01 84.8481 19.1566C84.7134 18.954 84.6207 18.7549 84.56 18.5882L84.5542 18.5707C84.2016 17.5716 83.6835 16.5684 83.1167 15.7796C82.3812 16.5191 82.0874 17.1773 82.0874 17.638ZM92.4897 10.4603C92.4897 10.7814 92.4295 11.2114 92.2095 11.638C92.8841 12.5676 93.5387 13.7135 93.938 14.6986L94.0386 14.9564L94.0415 14.9662C94.2218 15.4621 94.2988 16.1427 93.9858 16.8314C93.6805 17.5031 93.1342 17.8929 92.6323 18.0882L92.6333 18.0902L91.1059 18.6966L91.105 18.6957C90.8394 18.8022 90.5123 18.8817 90.1538 18.8822C89.9108 19.1045 89.6396 19.2615 89.3784 19.3656L89.3794 19.3675L88.8315 19.5912C88.9974 19.6747 89.1632 19.7804 89.3208 19.9183C89.905 20.4295 90.1127 21.1128 90.1128 21.6869V21.9867L89.4028 25.9447L89.4009 25.9437C89.318 26.4147 89.0865 27.023 88.5063 27.4789C87.9416 27.9226 87.3238 28.0032 86.9253 28.0033H86.9018C82.3958 27.9517 79.0063 26.9281 76.6977 25.138C74.3374 23.3078 73.2866 20.8085 73.2866 18.2923C73.2866 16.4425 73.852 14.6045 74.8345 13.0013C73.5161 13.0504 72.2037 13.0951 71.0044 13.1156H70.9702C70.5169 13.1155 69.8234 13.0012 69.2446 12.4447C68.6671 11.8893 68.5186 11.1968 68.5112 10.6947L68.5102 10.6957L68.437 7.18V7.13899C68.437 6.68554 68.5505 6.01274 69.0766 5.4427C69.6278 4.84568 70.3364 4.67805 70.8735 4.67805L75.272 4.67609C80.1178 4.67041 85.9849 4.64837 89.9829 4.55793L90.0063 4.55695H90.0288C90.4822 4.55699 91.1542 4.67065 91.7241 5.1966C92.3213 5.74781 92.4897 6.45634 92.4897 6.99348V10.4603Z" fill="#BF8E1D"/>
<path d="M52.7579 25.7606C52.4912 25.7606 52.3457 25.5909 52.3457 25.3241V6.45994C52.3457 6.19322 52.4912 6.0235 52.7579 6.0235H65.7543C65.9968 6.0235 66.1907 6.19322 66.1907 6.45994V9.92726C66.1907 10.194 65.9968 10.3637 65.7543 10.3637H57.3163V13.5886H64.7601C65.0269 13.5886 65.1966 13.7341 65.1966 14.0008V17.3469C65.1966 17.6136 65.0269 17.7833 64.7601 17.7833H57.3163V21.4204H66.0695C66.312 21.4204 66.5059 21.5901 66.5059 21.8568V25.3241C66.5059 25.5909 66.312 25.7606 66.0695 25.7606H52.7579Z" fill="#BF8E1D"/>
<path d="M52.3525 25.419C52.3794 25.6004 52.4866 25.7222 52.6641 25.753L52.7578 25.7608H66.0693L66.1582 25.753C66.3292 25.722 66.4625 25.6002 66.4971 25.419L66.5058 25.3243V21.8565C66.5057 21.59 66.3117 21.42 66.0693 21.42V19.42C67.3416 19.42 68.5057 20.4122 68.5058 21.8565V25.3243C68.5058 26.7687 67.3416 27.7608 66.0693 27.7608H52.7578C52.185 27.7608 51.5021 27.5642 50.9795 26.9962C50.4796 26.4526 50.3457 25.8065 50.3457 25.3243V6.46002C50.3457 5.97768 50.4793 5.33087 50.9795 4.78717C51.5021 4.21913 52.185 4.02352 52.7578 4.0235V6.0235C52.4911 6.02353 52.3457 6.19333 52.3457 6.46002V25.3243L52.3525 25.419ZM65.1963 17.3468V14.0011C65.1963 13.7677 65.0666 13.6273 64.8555 13.5958L64.7598 13.589H57.3164V10.3634H65.7539C65.9964 10.3634 66.1904 10.1936 66.1904 9.92682V6.46002C66.1904 6.1933 65.9964 6.0235 65.7539 6.0235V4.0235C67.0263 4.0235 68.1904 5.01556 68.1904 6.46002V9.92682C68.1904 11.0939 67.4307 11.9651 66.4678 12.2569C67.0083 12.775 67.1963 13.4405 67.1963 14.0011V17.3468C67.1963 17.9111 67.008 18.5634 66.4922 19.0792C66.3567 19.2147 66.2118 19.3272 66.0615 19.42H66.0693V21.42H57.3164V17.7833H64.7598C65.0265 17.7833 65.1963 17.6135 65.1963 17.3468ZM65.7539 4.0235V6.0235H52.7578V4.0235H65.7539Z" fill="#BF8E1D"/>
<path d="M30.566 25.7606C30.2993 25.7606 30.1538 25.5909 30.1538 25.3241V6.45994C30.1538 6.19322 30.2993 6.0235 30.566 6.0235H34.9305C35.1729 6.0235 35.3184 6.12048 35.4396 6.31446L42.4955 18.05V6.45994C42.4955 6.19322 42.641 6.0235 42.932 6.0235H46.8842C47.1509 6.0235 47.2964 6.19322 47.2964 6.45994V25.3241C47.2964 25.5909 47.1509 25.7606 46.8842 25.7606H42.544C42.3015 25.7606 42.1318 25.6636 42.0348 25.4696L34.9547 13.6856V25.3241C34.9547 25.5909 34.8092 25.7606 34.5425 25.7606H30.566Z" fill="#BF8E1D"/>
<path d="M30.1606 25.419C30.1876 25.6004 30.2947 25.7222 30.4722 25.753L30.5659 25.7608H34.5425L34.6372 25.753C34.8141 25.7219 34.9209 25.6001 34.9477 25.419L34.9546 25.3243V13.6856L42.0347 25.4698C42.1195 25.6395 42.2603 25.7348 42.4565 25.756L42.5444 25.7608H46.8843L46.979 25.753C47.1559 25.7219 47.2627 25.6001 47.2895 25.419L47.2964 25.3243V6.46002C47.2964 6.22682 47.1852 6.0676 46.979 6.03131L46.8843 6.0235V4.0235C47.457 4.02351 48.14 4.21913 48.6626 4.78717C49.1628 5.33087 49.2964 5.97767 49.2964 6.46002V25.3243C49.2963 25.8065 49.1625 26.4526 48.6626 26.9962C48.14 27.5643 47.4571 27.7608 46.8843 27.7608H42.5444C42.1579 27.7608 41.6943 27.682 41.2427 27.4239C40.8214 27.1832 40.5137 26.8444 40.3071 26.4776L36.9546 20.8966V25.3243C36.9545 25.8066 36.8207 26.4526 36.3208 26.9962C35.7982 27.5643 35.1153 27.7608 34.5425 27.7608H30.5659C29.9931 27.7608 29.3102 27.5642 28.7876 26.9962C28.2877 26.4526 28.1538 25.8065 28.1538 25.3243V6.46002C28.1538 5.97767 28.2874 5.33087 28.7876 4.78717C29.3102 4.21913 29.9931 4.02352 30.5659 4.0235V6.0235C30.2992 6.02353 30.1538 6.19333 30.1538 6.46002V25.3243L30.1606 25.419ZM34.9302 4.0235C35.3291 4.0235 35.797 4.10732 36.2505 4.37604C36.6909 4.63713 36.9658 4.98377 37.1352 5.25494L37.145 5.26959L40.4956 10.8419V6.46002C40.4956 5.97721 40.6306 5.31015 41.1616 4.7569C41.7064 4.18946 42.3962 4.0235 42.9321 4.0235V6.0235L42.8296 6.03131C42.6069 6.06747 42.4956 6.22667 42.4956 6.46002V18.0499L35.4399 6.31451C35.3187 6.12054 35.1726 6.0235 34.9302 6.0235V4.0235ZM46.8843 4.0235V6.0235H42.9321V4.0235H46.8843ZM34.9302 4.0235V6.0235H30.5659V4.0235H34.9302Z" fill="#BF8E1D"/>
<path d="M20.4976 25.7606C20.2309 25.7606 20.0854 25.5909 20.0854 25.3241V6.45994C20.0854 6.19322 20.2309 6.0235 20.4976 6.0235H24.6681C24.9348 6.0235 25.1046 6.19322 25.1046 6.45994V25.3241C25.1046 25.5909 24.9348 25.7606 24.6681 25.7606H20.4976Z" fill="#BF8E1D"/>
<path d="M20.0924 25.419C20.1193 25.6004 20.2264 25.7222 20.4038 25.753L20.4975 25.7608H24.6684L24.7632 25.753C24.9445 25.7221 25.0663 25.6004 25.0972 25.419L25.105 25.3243V6.46002C25.105 6.22654 24.9745 6.06735 24.7632 6.03131L24.6684 6.0235V4.0235C25.2327 4.02357 25.8852 4.21191 26.4009 4.7276C26.9165 5.24335 27.105 5.8958 27.105 6.46002V25.3243C27.1049 25.8885 26.9165 26.541 26.4009 27.0567C25.8852 27.5724 25.2327 27.7608 24.6684 27.7608H20.4975C19.9248 27.7608 19.2418 27.5642 18.7192 26.9962C18.2194 26.4526 18.0855 25.8065 18.0854 25.3243V6.46002C18.0854 5.97767 18.219 5.33087 18.7192 4.78717C19.2418 4.21913 19.9248 4.02352 20.4975 4.0235V6.0235C20.2309 6.02353 20.0854 6.19333 20.0854 6.46002V25.3243L20.0924 25.419ZM24.6684 4.0235V6.0235H20.4975V4.0235H24.6684Z" fill="#BF8E1D"/>
<path d="M2.52108 25.7606C2.25437 25.7606 2.10889 25.5909 2.10889 25.3241V6.45994C2.10889 6.19322 2.25437 6.0235 2.52108 6.0235H6.69157C6.95828 6.0235 7.12801 6.19322 7.12801 6.45994V21.0082H15.7842C16.0266 21.0082 16.1964 21.1537 16.1964 21.3961V25.3241C16.1964 25.5909 16.0266 25.7606 15.7842 25.7606H2.52108Z" fill="#BF8E1D"/>
<path d="M2.11572 25.419C2.14264 25.6004 2.2498 25.7222 2.42725 25.753L2.521 25.7608H15.7847L15.8716 25.753C16.0388 25.722 16.1584 25.6003 16.189 25.419L16.1968 25.3243V21.3966C16.1968 21.1844 16.0665 21.0459 15.8716 21.0147L15.7847 21.0079V19.0079C16.2995 19.008 16.9199 19.1664 17.4331 19.6368C17.9671 20.1264 18.1968 20.7836 18.1968 21.3966V25.3243C18.1967 25.887 18.0101 26.521 17.5239 27.0274C17.0329 27.5389 16.3877 27.7607 15.7847 27.7608H2.521C1.94821 27.7608 1.26528 27.5642 0.742671 26.9962C0.242817 26.4526 0.10892 25.8065 0.108887 25.3243V6.46002C0.108887 5.97767 0.242469 5.33087 0.742671 4.78717C1.26528 4.21913 1.94822 4.02352 2.521 4.0235V6.0235C2.25434 6.02353 2.10889 6.19333 2.10889 6.46002V25.3243L2.11572 25.419ZM7.12842 6.46002C7.12842 6.22654 6.99795 6.06735 6.78662 6.03131L6.69189 6.0235V4.0235C7.25611 4.02357 7.90863 4.21191 8.42432 4.7276C8.93995 5.24335 9.12842 5.8958 9.12842 6.46002V19.0079H15.7847V21.0079H7.12842V6.46002ZM6.69189 4.0235V6.0235H2.521V4.0235H6.69189Z" fill="#BF8E1D"/>
<path d="M263.139 27.7856C262.873 27.7856 262.703 27.6401 262.703 27.3734V23.4454C262.703 23.1787 262.848 23.0089 263.115 22.9847C265.903 22.718 266.922 20.3175 266.922 15.1529C266.922 9.98826 265.903 7.58782 263.115 7.32111C262.848 7.29686 262.703 7.15138 262.703 6.88466V2.95665C262.703 2.68993 262.873 2.5202 263.115 2.5202C269.298 2.81117 272.014 7.49083 272.014 15.1529C272.014 22.7907 269.298 27.4946 263.139 27.7856Z" fill="white"/>
<path d="M238.48 3.19911C238.48 2.95664 238.626 2.81116 238.868 2.81116H258.823C259.066 2.81116 259.211 2.95664 259.211 3.19911V20.7297C259.211 24.0031 257.296 25.1184 252.471 24.9002C252.228 24.9002 252.107 24.779 252.034 24.5607L250.798 21.0934C250.773 21.0449 250.773 20.9964 250.773 20.9479C250.773 20.7055 250.967 20.657 251.161 20.657C254.386 20.8267 254.871 20.4873 254.871 19.6386V16.2925H242.796V24.488C242.796 24.7547 242.651 24.876 242.408 24.876H238.868C238.626 24.876 238.48 24.7547 238.48 24.488V3.19911ZM246.603 6.88465H242.796V12.0251H246.603V6.88465ZM254.871 6.88465H250.943V12.0251H254.871V6.88465Z" fill="white"/>
<path d="M226.312 24.1486C221.317 24.1486 218.335 20.3175 218.335 13.8921C218.335 7.46658 221.317 3.63556 226.312 3.63556C231.355 3.63556 234.314 7.46658 234.314 13.8921C234.314 20.3175 231.355 24.1486 226.312 24.1486ZM223.354 13.8921C223.354 17.7958 224.566 19.2992 226.312 19.2992C228.082 19.2992 229.294 17.7958 229.294 13.8921C229.294 9.98826 228.082 8.48496 226.312 8.48496C224.566 8.48496 223.354 9.98826 223.354 13.8921Z" fill="white"/>
<path d="M206.749 24.1486C201.754 24.1486 198.772 20.3175 198.772 13.8921C198.772 7.46658 201.754 3.63556 206.749 3.63556C211.792 3.63556 214.751 7.46658 214.751 13.8921C214.751 20.3175 211.792 24.1486 206.749 24.1486ZM203.791 13.8921C203.791 17.7958 205.003 19.2992 206.749 19.2992C208.519 19.2992 209.731 17.7958 209.731 13.8921C209.731 9.98826 208.519 8.48496 206.749 8.48496C205.003 8.48496 203.791 9.98826 203.791 13.8921Z" fill="white"/>
<path d="M127.781 6.73917C127.878 6.95739 127.829 7.12712 127.635 7.2726L124.653 9.35784C124.58 9.40634 124.483 9.43058 124.41 9.43058C124.289 9.43058 124.192 9.35784 124.119 9.21236C123.368 7.70905 122.204 6.10874 120.967 4.99338C120.87 4.89639 120.822 4.79941 120.822 4.70242C120.822 4.60543 120.87 4.50844 120.991 4.4357L123.804 2.44745C123.877 2.39896 123.974 2.35046 124.047 2.35046C124.144 2.35046 124.241 2.39896 124.338 2.4717C125.72 3.58706 127.005 5.21161 127.781 6.73917ZM127.199 15.7106C130.521 13.7466 132.291 10.449 132.8 7.00588C132.8 6.93314 132.824 6.88465 132.848 6.83616V6.64218H128.969C128.726 6.64218 128.581 6.4967 128.581 6.25423V3.00513C128.581 2.76266 128.726 2.61718 128.969 2.61718H136.97C137.213 2.61718 137.358 2.76266 137.358 3.02938C137.31 8.31522 138.522 13.0192 143.032 15.5894C143.177 15.6621 143.25 15.7591 143.25 15.8803C143.25 15.9531 143.226 16.0258 143.153 16.1228L140.656 19.3961C140.559 19.5174 140.462 19.5659 140.365 19.5659C140.268 19.5659 140.195 19.5416 140.098 19.4689C138.158 17.9171 136.243 15.6621 135.103 12.9949C133.939 15.7106 132.048 18.1595 129.963 19.5174C129.866 19.5659 129.793 19.5901 129.72 19.5901C129.623 19.5901 129.526 19.5416 129.429 19.4204L127.199 16.632V18.0383C127.95 19.4931 129.09 20.1235 131.127 20.3175C132.194 20.4145 133.454 20.4872 134.885 20.4872C137.237 20.4872 140.05 20.3418 143.177 20.0508C143.493 20.0266 143.638 20.1963 143.541 20.463L142.377 23.9303C142.305 24.1485 142.183 24.2455 141.965 24.2698C139.71 24.4395 136.994 24.5365 134.643 24.5365C133.285 24.5365 132.048 24.5123 131.078 24.4153C128.823 24.2213 126.787 23.7848 125.332 22.1845C124.604 23.0332 123.634 23.8576 122.665 24.6092C122.592 24.682 122.495 24.7062 122.422 24.7062C122.325 24.7062 122.204 24.6335 122.131 24.5123L120.143 21.2874C120.094 21.2147 120.07 21.1177 120.07 21.0692C120.07 20.9237 120.143 20.8267 120.313 20.754C121.307 20.2933 122.277 19.6386 123.028 18.9839V14.6922H121.04C120.798 14.6922 120.652 14.5467 120.652 14.3043V10.9824C120.652 10.74 120.798 10.5945 121.04 10.5945H126.811C127.053 10.5945 127.199 10.74 127.199 10.9824V15.7106Z" fill="white"/>
<path d="M103.873 2.49592C103.873 2.25345 104.019 2.10797 104.261 2.10797H108.092C108.335 2.10797 108.48 2.25345 108.48 2.49592V4.72664H116.215C116.458 4.72664 116.603 4.87213 116.603 5.11459V19.8568C116.603 20.0993 116.458 20.2448 116.215 20.2448H108.48V24.5607C108.48 24.8032 108.335 24.9487 108.092 24.9487H104.286C104.043 24.9487 103.898 24.8032 103.898 24.5607V20.2448H96.3328C96.0903 20.2448 95.9448 20.0993 95.9448 19.8568V5.11459C95.9448 4.87213 96.0903 4.72664 96.3328 4.72664H103.873V2.49592ZM103.922 8.6789H100.188V10.5945L103.922 10.6187V8.6789ZM108.432 10.6429L112.336 10.6672V8.6789H108.432V10.6429ZM103.922 14.1345L100.188 14.1103V16.3167H103.922V14.1345ZM112.336 14.183L108.432 14.1588V16.3167H112.336V14.183Z" fill="white"/>
<path d="M86.925 24.0031C78.4385 23.9061 75.2864 20.1478 75.2864 16.2925C75.2864 13.3101 77.1777 10.255 79.9903 8.80018C77.2504 8.89717 73.8073 9.0669 70.9704 9.11539C70.6795 9.11539 70.5097 8.96991 70.5097 8.6547L70.437 5.13888C70.437 4.84792 70.5825 4.67819 70.8734 4.67819C75.9896 4.67819 84.67 4.67819 90.0286 4.55695C90.3195 4.55695 90.4893 4.70244 90.4893 4.9934V8.46072C90.4893 8.75168 90.3438 8.92141 90.0528 8.92141C89.3254 8.92141 88.6465 8.99415 87.9918 9.11539C85.0094 9.57608 80.0873 12.3888 80.0873 15.6379C80.0873 17.7231 82.3423 19.4204 87.6766 19.3234C87.9676 19.3234 88.1131 19.4689 88.1131 19.6871V19.8083L87.4341 23.5909C87.3856 23.8818 87.2159 24.0031 86.925 24.0031ZM87.0219 16.1713C86.731 16.2925 86.537 16.1713 86.44 15.9046C86.0036 14.668 85.3489 13.4071 84.5972 12.413C84.5245 12.2918 84.476 12.1948 84.476 12.0978C84.476 11.9766 84.573 11.8553 84.7427 11.7826L86.1733 11.2249C86.4158 11.1279 86.6097 11.1522 86.7795 11.3704C87.5311 12.2433 88.404 13.7466 88.889 14.9347C88.986 15.2014 88.889 15.4196 88.6222 15.5166L87.0219 16.1713ZM90.368 14.8377C90.0771 14.9589 89.8831 14.8377 89.7861 14.571C89.3497 13.4556 88.5737 12.0736 87.8948 11.2007C87.8221 11.1037 87.7736 11.0067 87.7736 10.9097C87.7736 10.7642 87.8706 10.643 88.0646 10.5702L89.4224 10.0126C89.6649 9.91554 89.8831 9.93979 90.0528 10.1338C90.8287 11.0067 91.7501 12.5342 92.1623 13.6496C92.2593 13.9163 92.1623 14.1345 91.8956 14.2315L90.368 14.8377Z" fill="white"/>
<path d="M52.7579 23.7606C52.4912 23.7606 52.3457 23.5909 52.3457 23.3241V4.45994C52.3457 4.19322 52.4912 4.0235 52.7579 4.0235H65.7543C65.9968 4.0235 66.1907 4.19322 66.1907 4.45994V7.92726C66.1907 8.19398 65.9968 8.36371 65.7543 8.36371H57.3163V11.5886H64.7601C65.0269 11.5886 65.1966 11.7341 65.1966 12.0008V15.3469C65.1966 15.6136 65.0269 15.7833 64.7601 15.7833H57.3163V19.4204H66.0695C66.312 19.4204 66.5059 19.5901 66.5059 19.8568V23.3241C66.5059 23.5909 66.312 23.7606 66.0695 23.7606H52.7579Z" fill="white"/>
<path d="M30.566 23.7606C30.2993 23.7606 30.1538 23.5909 30.1538 23.3241V4.45994C30.1538 4.19322 30.2993 4.0235 30.566 4.0235H34.9305C35.1729 4.0235 35.3184 4.12048 35.4396 4.31446L42.4955 16.05V4.45994C42.4955 4.19322 42.641 4.0235 42.932 4.0235H46.8842C47.1509 4.0235 47.2964 4.19322 47.2964 4.45994V23.3241C47.2964 23.5909 47.1509 23.7606 46.8842 23.7606H42.544C42.3015 23.7606 42.1318 23.6636 42.0348 23.4696L34.9547 11.6856V23.3241C34.9547 23.5909 34.8092 23.7606 34.5425 23.7606H30.566Z" fill="white"/>
<path d="M20.4976 23.7606C20.2309 23.7606 20.0854 23.5909 20.0854 23.3241V4.45994C20.0854 4.19322 20.2309 4.0235 20.4976 4.0235H24.6681C24.9348 4.0235 25.1046 4.19322 25.1046 4.45994V23.3241C25.1046 23.5909 24.9348 23.7606 24.6681 23.7606H20.4976Z" fill="white"/>
<path d="M2.52108 23.7606C2.25437 23.7606 2.10889 23.5909 2.10889 23.3241V4.45994C2.10889 4.19322 2.25437 4.0235 2.52108 4.0235H6.69157C6.95828 4.0235 7.12801 4.19322 7.12801 4.45994V19.0082H15.7842C16.0266 19.0082 16.1964 19.1537 16.1964 19.3961V23.3241C16.1964 23.5909 16.0266 23.7606 15.7842 23.7606H2.52108Z" fill="white"/>
<path d="M260.604 2.7334C260.648 2.20701 260.852 1.64217 261.297 1.17871C261.811 0.643462 262.486 0.412127 263.115 0.412109H263.165L263.215 0.414062C266.897 0.587449 269.769 2.11896 271.634 4.89746C273.418 7.55712 274.122 11.1277 274.122 15.1534L274.114 15.9004C274.03 19.6103 273.306 22.9021 271.638 25.3965C269.78 28.1754 266.916 29.7179 263.239 29.8916L263.189 29.8936H263.139C262.638 29.8936 261.962 29.755 261.393 29.2315C260.799 28.6843 260.595 27.9697 260.595 27.3731V23.4454C260.595 22.9322 260.74 22.2821 261.23 21.7276C261.726 21.1675 262.367 20.9376 262.914 20.8858C263.317 20.8472 263.538 20.7454 263.673 20.6504C263.808 20.5552 263.981 20.3799 264.157 20.0059C264.55 19.1721 264.813 17.6794 264.813 15.1534C264.813 12.627 264.55 11.1337 264.157 10.2998C263.981 9.92575 263.808 9.75048 263.673 9.65527C263.538 9.56028 263.317 9.45852 262.914 9.41992C262.453 9.37624 261.811 9.1994 261.287 8.65234C260.744 8.08591 260.595 7.40321 260.595 6.88476V2.95703L260.604 2.7334ZM262.703 6.88476C262.703 7.15139 262.848 7.29703 263.115 7.32129C265.903 7.58801 266.922 9.98876 266.922 15.1534L266.91 16.0889C266.788 20.6092 265.729 22.7344 263.115 22.9844C262.848 23.0087 262.703 23.1787 262.703 23.4454V27.3731C262.703 27.6063 262.833 27.7468 263.044 27.7784L263.139 27.7852C269.106 27.5033 271.841 23.0804 272.006 15.8604L272.013 15.1534C272.013 7.49127 269.298 2.81147 263.115 2.52051C262.873 2.52054 262.703 2.69034 262.703 2.95703V6.88476Z" fill="#EE7F16"/>
<path d="M238.487 24.5811C238.514 24.7543 238.619 24.8472 238.782 24.8702L238.868 24.876H242.408L242.495 24.8702C242.658 24.847 242.763 24.7541 242.79 24.5811L242.796 24.4883V16.293H254.871V19.6387L254.865 19.792C254.8 20.5278 254.184 20.8164 251.161 20.6573C250.967 20.6573 250.773 20.706 250.773 20.9483C250.773 20.9967 250.773 21.0454 250.798 21.0938L252.034 24.5606C252.107 24.7788 252.228 24.9004 252.47 24.9004C257.145 25.1118 259.089 24.0715 259.206 21.0303L259.212 20.7295V3.19922C259.212 2.98719 259.1 2.84963 258.91 2.81836L258.823 2.81152V0.703125C259.367 0.703125 260.05 0.873833 260.599 1.42285C261.08 1.90336 261.271 2.48662 261.311 2.98926L261.32 3.19922V20.7295L261.312 21.1172C261.234 23.0463 260.554 24.8218 258.749 25.9239C257.088 26.9381 254.84 27.1183 252.376 27.0069V27.0049C251.903 26.9885 251.343 26.8482 250.845 26.4375C250.375 26.0488 250.157 25.5764 250.05 25.2676L250.049 25.2686L248.823 21.836C248.742 21.6274 248.704 21.4361 248.684 21.2823C248.673 21.1941 248.669 21.1111 248.667 21.0498L248.665 20.9483L248.67 20.7969C248.716 20.0421 249.107 19.3138 249.832 18.8907C250.403 18.5577 250.968 18.5489 251.161 18.5489H251.217L251.272 18.5518L251.814 18.5762C252.189 18.5899 252.502 18.5921 252.762 18.5879V18.4014H244.904V24.4883L244.897 24.6875C244.861 25.1748 244.683 25.797 244.149 26.3067C243.557 26.8721 242.854 26.9844 242.408 26.9844H238.868C238.422 26.9844 237.72 26.872 237.128 26.3067C236.518 25.7243 236.372 24.9954 236.372 24.4883V3.19922C236.372 2.65522 236.543 1.97196 237.093 1.42285C237.642 0.874077 238.324 0.703156 238.868 0.703125V2.81152L238.782 2.81836C238.592 2.84948 238.48 2.98701 238.48 3.19922V24.4883L238.487 24.5811ZM246.603 6.88476V12.0254H242.796V6.88476H246.603ZM254.871 6.88476V12.0254H250.943V6.88476H254.871ZM258.823 0.703125V2.81152H238.868V0.703125H258.823Z" fill="#EE7F16"/>
<path d="M234.313 13.8916C234.313 7.66731 231.538 3.87739 226.779 3.64648L226.312 3.63574C221.318 3.63574 218.335 7.46641 218.335 13.8916C218.335 20.1161 221.134 23.9068 225.849 24.1377L226.312 24.1485C231.356 24.1484 234.313 20.317 234.313 13.8916ZM227.186 13.8916C227.186 12.0934 226.895 11.1983 226.665 10.8184C226.567 10.6573 226.502 10.6249 226.499 10.6231C226.494 10.6203 226.449 10.5938 226.312 10.5938C226.186 10.5938 226.147 10.6185 226.146 10.6192C226.14 10.6227 226.077 10.6598 225.983 10.8145C225.753 11.197 225.463 12.0951 225.463 13.8916L225.475 14.5245C225.534 15.9055 225.781 16.635 225.983 16.9698C226.077 17.1249 226.14 17.1617 226.146 17.1651C226.147 17.1657 226.186 17.1905 226.312 17.1905V19.2989L226.15 19.295C224.599 19.2091 223.503 17.8652 223.368 14.5957L223.354 13.8916C223.354 9.98816 224.567 8.48535 226.312 8.48535L226.476 8.48926C228.157 8.58108 229.295 10.1101 229.295 13.8916L229.28 14.5957C229.14 17.9777 227.972 19.2988 226.312 19.2989V17.1905C226.449 17.1904 226.494 17.1641 226.499 17.1612C226.502 17.1594 226.567 17.1269 226.665 16.9659C226.895 16.586 227.186 15.6901 227.186 13.8916ZM236.422 13.8916C236.422 17.3944 235.619 20.4736 233.868 22.7246C232.063 25.0446 229.424 26.2568 226.312 26.2569C223.219 26.2569 220.588 25.0406 218.786 22.7246C217.036 20.4758 216.226 17.3982 216.226 13.8916C216.226 10.3853 217.037 7.30833 218.786 5.05957C220.588 2.74363 223.219 1.52734 226.312 1.52734C229.424 1.52738 232.063 2.73958 233.868 5.05957C235.619 7.31053 236.422 10.389 236.422 13.8916Z" fill="#EE7F16"/>
<path d="M214.751 13.8916C214.751 7.66725 211.974 3.87732 207.216 3.64648L206.749 3.63574C201.754 3.63574 198.771 7.46641 198.771 13.8916C198.771 20.1165 201.571 23.9072 206.287 24.1377L206.749 24.1485C211.635 24.1485 214.564 20.553 214.742 14.4864L214.751 13.8916ZM207.623 13.8916C207.623 12.0934 207.332 11.1983 207.101 10.8184C207.004 10.6574 206.939 10.6249 206.935 10.6231C206.93 10.62 206.885 10.5938 206.749 10.5938C206.624 10.5938 206.586 10.6178 206.584 10.6192C206.583 10.6194 206.519 10.6515 206.421 10.8145C206.19 11.1968 205.899 12.0945 205.899 13.8916L205.912 14.5245C205.971 15.906 206.219 16.6352 206.421 16.9698C206.519 17.1327 206.583 17.1649 206.584 17.1651C206.586 17.1667 206.625 17.1905 206.749 17.1905V19.2989L206.587 19.295C205.035 19.209 203.939 17.8651 203.804 14.5957L203.791 13.8916C203.791 9.98816 205.003 8.48535 206.749 8.48535L206.913 8.48926C208.593 8.581 209.731 10.11 209.731 13.8916L209.718 14.5957C209.578 17.9778 208.408 19.2989 206.749 19.2989V17.1905C206.885 17.1905 206.93 17.1644 206.935 17.1612C206.939 17.1594 207.004 17.1268 207.101 16.9659C207.332 16.586 207.623 15.6901 207.623 13.8916ZM216.849 14.544C216.755 17.7766 215.946 20.6143 214.304 22.7246C212.499 25.0446 209.861 26.2569 206.749 26.2569C203.655 26.2569 201.025 25.0404 199.223 22.7246C197.474 20.4758 196.663 17.3983 196.663 13.8916C196.663 10.3852 197.474 7.30834 199.223 5.05957C201.025 2.7438 203.655 1.52734 206.749 1.52734C209.861 1.52735 212.499 2.73959 214.304 5.05957C216.056 7.31053 216.859 10.389 216.859 13.8916L216.849 14.544Z" fill="#EE7F16"/>
<path d="M135.103 12.9952C136.243 15.6622 138.159 17.917 140.098 19.4688C140.195 19.5415 140.268 19.5655 140.365 19.5655C140.462 19.5654 140.559 19.5176 140.656 19.3965L143.153 16.1231C143.208 16.0505 143.235 15.9912 143.245 15.9356L143.251 15.8799C143.251 15.7589 143.177 15.6616 143.032 15.5889C138.522 13.0187 137.31 8.31505 137.358 3.0293C137.358 2.7959 137.247 2.65546 137.056 2.62402L136.97 2.61719V0.508788C137.516 0.508825 138.221 0.6825 138.779 1.26562C139.325 1.83633 139.467 2.52468 139.467 3.0293V3.04883C139.42 8.0886 140.583 11.7673 144.076 13.7579L144.075 13.7588C144.602 14.0532 145.264 14.6651 145.349 15.6621L145.359 15.8799L145.347 16.1192C145.294 16.659 145.067 17.0842 144.84 17.3877L144.83 17.4014L144.261 18.1465C144.549 18.2704 144.841 18.4638 145.1 18.7598C145.831 19.5947 145.727 20.5728 145.538 21.1329L145.54 21.1338L144.377 24.5957L144.378 24.5967C144.262 24.9444 144.033 25.4186 143.561 25.8047C143.085 26.1945 142.57 26.324 142.198 26.3653L142.161 26.3692L142.124 26.3721C139.812 26.5461 137.043 26.6446 134.642 26.6446C133.281 26.6446 131.952 26.622 130.869 26.5137V26.5127C129.15 26.3634 127.2 26.0599 125.483 25.0137C125.008 25.438 124.518 25.8355 124.049 26.2012C123.502 26.6864 122.864 26.8145 122.422 26.8145C121.416 26.8143 120.693 26.196 120.338 25.6182L120.337 25.6192L118.348 22.3936L118.349 22.3926C118.21 22.1692 118.124 21.9556 118.073 21.7891C118.036 21.6681 117.992 21.4944 117.972 21.2871L117.962 21.0694L117.968 20.8965C117.996 20.4849 118.131 20.0241 118.453 19.6036C118.768 19.1919 119.151 18.9677 119.427 18.8428V18.8409C119.939 18.6035 120.453 18.2944 120.92 17.962V16.795C120.398 16.7709 119.774 16.5893 119.264 16.0801C118.715 15.5312 118.544 14.8486 118.544 14.3047V10.9825C118.544 10.4385 118.715 9.75612 119.264 9.20703C119.813 8.65799 120.496 8.48637 121.04 8.48633V10.5948L120.954 10.6016C120.764 10.6327 120.652 10.7703 120.652 10.9825V14.3047C120.652 14.5167 120.764 14.6545 120.954 14.6856L121.04 14.6924H123.028V18.9844C122.277 19.639 121.306 20.2933 120.312 20.7539C120.143 20.8267 120.07 20.924 120.07 21.0694C120.07 21.1179 120.095 21.2145 120.143 21.2871L122.132 24.5127C122.204 24.6334 122.325 24.7059 122.422 24.7061C122.494 24.7061 122.592 24.6822 122.665 24.6094C123.635 23.8578 124.604 23.0332 125.332 22.1846C126.787 23.7848 128.823 24.2211 131.078 24.4151C132.048 24.5121 133.285 24.5362 134.642 24.5362C136.7 24.5362 139.037 24.4624 141.099 24.3301L141.966 24.2696C142.183 24.2453 142.305 24.1486 142.378 23.9307L143.541 20.4629C143.638 20.1962 143.493 20.0266 143.178 20.0508C140.05 20.3418 137.237 20.4873 134.886 20.4873V18.3789C135.239 18.3789 135.604 18.3741 135.98 18.3672C135.686 18.0147 135.401 17.6466 135.126 17.2657C134.86 17.6465 134.581 18.0162 134.29 18.3711C134.485 18.374 134.683 18.3789 134.886 18.3789V20.4873L133.845 20.4746C132.836 20.4496 131.927 20.3902 131.127 20.3174C129.09 20.1234 127.951 19.4929 127.199 18.0381V16.6319L129.429 19.42C129.526 19.5412 129.624 19.5899 129.72 19.5899C129.793 19.5899 129.866 19.566 129.963 19.5176C132.048 18.1598 133.939 15.7107 135.103 12.9952ZM124.047 0.242188C124.635 0.242188 125.093 0.455188 125.378 0.63086L125.602 0.785156L125.633 0.807616L125.662 0.831055C126.038 1.13443 126.405 1.46763 126.76 1.82226C126.867 1.61669 127.008 1.41506 127.193 1.22949C127.742 0.680472 128.425 0.508846 128.969 0.508788V2.61719L128.883 2.62402C128.692 2.65515 128.581 2.79284 128.581 3.00488V6.2539C128.581 6.49628 128.726 6.64247 128.969 6.64258H132.848V6.83594C132.824 6.88442 132.8 6.93314 132.8 7.00586C132.29 10.449 130.521 13.747 127.199 15.711V10.9825C127.199 10.7704 127.087 10.6328 126.897 10.6016L126.811 10.5948H121.04V8.48633H121.225C120.77 7.8401 120.263 7.23166 119.746 6.73633L119.555 6.55859L119.514 6.52246L119.476 6.48437C119.17 6.17799 118.768 5.62991 118.719 4.85937L118.714 4.70215L118.72 4.53222C118.774 3.74422 119.207 3.09617 119.791 2.70117L122.587 0.725585L122.611 0.708985L122.635 0.69336C122.752 0.61534 122.908 0.522441 123.095 0.442383C123.247 0.376831 123.596 0.242189 124.047 0.242188ZM129.146 8.75097C129.062 8.83088 128.979 8.90011 128.9 8.95898L128.872 8.98047L128.844 9.00097L128.57 9.1914C128.575 9.19663 128.581 9.20173 128.587 9.20703C129.058 9.67872 129.25 10.249 129.295 10.7452C129.673 10.1192 129.979 9.44996 130.218 8.75097H129.146ZM124.047 2.35058C123.974 2.35059 123.877 2.39883 123.804 2.44726L120.992 4.43555L120.914 4.49414C120.849 4.5566 120.822 4.62945 120.822 4.70215C120.822 4.79913 120.871 4.89617 120.968 4.99316C122.204 6.10838 123.367 7.70877 124.119 9.21191C124.192 9.35722 124.289 9.43049 124.41 9.43066C124.483 9.43066 124.58 9.40591 124.653 9.35742L127.636 7.27246C127.829 7.12706 127.878 6.95729 127.781 6.73926C127.005 5.2117 125.72 3.58704 124.338 2.47168C124.241 2.39894 124.144 2.35058 124.047 2.35058ZM136.97 0.508788V2.61719H128.969V0.508788H136.97Z" fill="#EE7F16"/>
<path d="M103.897 24.5606C103.897 24.8029 104.043 24.9481 104.285 24.9483H108.093L108.179 24.9424C108.341 24.9157 108.447 24.8103 108.473 24.6475L108.48 24.5606V20.2452H116.215L116.302 20.2383C116.464 20.2115 116.57 20.1063 116.596 19.9434L116.603 19.8565V5.11426C116.603 4.87201 116.457 4.72656 116.215 4.72656V2.61816C116.759 2.61816 117.442 2.78976 117.991 3.33887C118.471 3.81919 118.663 4.40182 118.703 4.9043L118.712 5.11426V19.8565L118.703 20.0664C118.663 20.5691 118.472 21.1523 117.991 21.6329C117.442 22.182 116.759 22.3536 116.215 22.3536H110.589V24.5606L110.58 24.7705C110.54 25.2732 110.348 25.8564 109.868 26.337C109.319 26.8858 108.636 27.0566 108.093 27.0567H104.285C103.741 27.0566 103.058 26.8858 102.51 26.337C101.96 25.7878 101.789 25.1046 101.789 24.5606V22.3536H96.333C95.789 22.3536 95.1057 22.1819 94.5566 21.6329C94.0075 21.0837 93.8359 20.4005 93.8359 19.8565V5.11426C93.836 4.57035 94.0077 3.88784 94.5566 3.33887C95.1057 2.78976 95.789 2.61816 96.333 2.61816V4.72656L96.2461 4.7334C96.056 4.7646 95.9445 4.90237 95.9443 5.11426V19.8565C95.9443 20.0686 96.0559 20.2071 96.2461 20.2383L96.333 20.2452H103.897V24.5606ZM103.922 14.1348V16.3164H100.187V14.1104L103.922 14.1348ZM112.336 14.1827V16.3164H108.431V14.1592L112.336 14.1827ZM112.336 8.67871V10.667L108.431 10.6426V8.67871H112.336ZM103.922 8.67871V10.6192L100.187 10.5948V8.67871H103.922ZM108.48 2.49609C108.48 2.28393 108.369 2.14541 108.179 2.11426L108.093 2.1084V0C108.636 8.6e-05 109.319 0.170921 109.868 0.719727C110.348 1.20024 110.54 1.78349 110.58 2.28613L110.589 2.49609V2.61816H116.215V4.72656H108.48V2.49609ZM101.764 2.49609C101.764 1.9521 101.936 1.26884 102.485 0.719727C103.034 0.170709 103.718 0 104.262 0V2.1084L104.175 2.11426C103.984 2.14547 103.873 2.28399 103.873 2.49609V4.72656H96.333V2.61816H101.764V2.49609ZM108.093 0V2.1084H104.262V0H108.093Z" fill="#EE7F16"/>
<path d="M90.4892 4.99316C90.4892 4.70235 90.3192 4.55664 90.0283 4.55664C84.6697 4.67787 75.9891 4.67773 70.873 4.67773C70.5823 4.67781 70.4366 4.84789 70.4365 5.13867L70.5098 8.6543C70.5098 8.93022 70.6396 9.07632 70.8672 9.1084L70.9707 9.11523C73.8075 9.06673 77.2505 8.89679 79.9902 8.7998C77.1776 10.2547 75.2861 13.3106 75.2861 16.293L75.2959 16.6534C75.4825 20.2588 78.499 23.6812 86.1445 23.9834L86.9248 24.003C87.2157 24.003 87.3851 23.8818 87.4336 23.5909L88.1133 19.8086V19.6875C88.1133 19.4694 87.9675 19.3234 87.6767 19.3233C82.3424 19.4203 80.0869 17.723 80.0869 15.6377C80.087 12.3888 85.0088 9.5761 87.9912 9.11523C88.6459 8.994 89.3253 8.92187 90.0527 8.92187C90.3435 8.92182 90.4892 8.75172 90.4892 8.46094V4.99316ZM86.7793 11.3702C86.6096 11.1521 86.4153 11.1277 86.1728 11.2246L84.7422 11.7823C84.5726 11.855 84.4756 11.9765 84.4756 12.0977C84.4756 12.1947 84.524 12.2919 84.5967 12.4131C85.3483 13.4072 86.003 14.6678 86.4394 15.9043C86.5364 16.171 86.7306 16.2921 87.0215 16.1709L88.6221 15.5166C88.8888 15.4196 88.9856 15.2013 88.8887 14.9346C88.4037 13.7465 87.5309 12.243 86.7793 11.3702ZM90.0527 10.1338C89.883 9.93981 89.6643 9.91571 89.4219 10.0127L88.0644 10.5704C87.8707 10.643 87.7736 10.7639 87.7734 10.9092C87.7734 11.0061 87.8219 11.1034 87.8945 11.2002C88.5734 12.0731 89.3497 13.456 89.7861 14.5713C89.8832 14.8378 90.0773 14.9591 90.3682 14.8379L91.8955 14.2315C92.1621 14.1345 92.2591 13.9161 92.1621 13.6495C91.7499 12.5341 90.8286 11.0067 90.0527 10.1338ZM82.1953 15.6377C82.1953 15.7717 82.2082 16.075 82.8926 16.4493C83.2826 16.6625 83.8501 16.8656 84.6328 17.0098C84.5578 16.872 84.5001 16.7408 84.458 16.625L84.4551 16.6153L84.4512 16.6065C84.1171 15.66 83.6353 14.71 83.1045 13.9473C82.4475 14.6362 82.1954 15.2339 82.1953 15.6377ZM92.5976 8.46094L92.5918 8.64746C92.5729 8.93536 92.5026 9.27928 92.3359 9.62597C93.0024 10.5533 93.6439 11.6831 94.0391 12.6582L94.1396 12.919L94.1435 12.9287C94.331 13.4444 94.4125 14.1563 94.085 14.877C93.7655 15.5796 93.1941 15.9862 92.6719 16.1895L92.6728 16.1914L91.1455 16.7979L91.1445 16.7959C90.8787 16.9026 90.5527 16.9859 90.1943 16.9922C89.9493 17.2086 89.6788 17.3622 89.4189 17.4659L89.4199 17.4678L89.0781 17.6075C89.184 17.6738 89.2909 17.748 89.3926 17.837C89.9277 18.3054 90.1609 18.9115 90.2109 19.4571L90.2217 19.6875V19.9961L89.5127 23.9366L89.5137 23.9375C89.4316 24.4296 89.1905 25.0783 88.5732 25.5635C87.9823 26.0278 87.337 26.1114 86.9248 26.1114H86.9004C82.38 26.0597 78.9644 25.0331 76.6308 23.2237C74.2429 21.372 73.1779 18.841 73.1777 16.293C73.1777 14.4884 73.7092 12.6955 74.6377 11.1172C73.3863 11.1631 72.1448 11.2042 71.0058 11.2237H70.9707C70.5007 11.2237 69.7749 11.1061 69.1689 10.5235C68.5646 9.94232 68.4102 9.21842 68.4023 8.69726L68.4014 8.69824L68.3291 5.18262L68.3281 5.16113V5.13867C68.3281 4.66853 68.4464 3.96573 68.9971 3.36914C69.5741 2.74422 70.3148 2.56937 70.873 2.56933C75.9988 2.56933 84.6513 2.56978 89.9805 2.44922L90.0049 2.44824H90.0283C90.4985 2.44824 91.2012 2.56641 91.7978 3.11719C92.4229 3.69424 92.5976 4.43487 92.5976 4.99316V8.46094Z" fill="#EE7F16"/>
<path d="M52.3525 23.42C52.3796 23.6006 52.4864 23.7219 52.6631 23.753L52.7578 23.7608H66.0693L66.1572 23.753C66.3284 23.7222 66.4622 23.6009 66.4971 23.42L66.5058 23.3243V19.8565C66.5057 19.6231 66.3569 19.4637 66.1572 19.4278L66.0693 19.42H57.3164V15.7832H64.7598C65.0265 15.7832 65.1963 15.6134 65.1963 15.3467V12.001C65.1963 11.7677 65.0665 11.6273 64.8555 11.5957L64.7598 11.5889H57.3164V8.36328H65.7539C65.9661 8.36328 66.1412 8.2337 66.1816 8.02246L66.1904 7.92773V4.45996C66.1904 4.19324 65.9964 4.02344 65.7539 4.02344V1.91504C66.999 1.91504 68.1465 2.82599 68.2851 4.18262L68.2988 4.45996V7.92773L68.2851 8.2041C68.1817 9.21836 67.5135 9.98096 66.6631 10.3028C67.0713 10.7526 67.2528 11.2872 67.2949 11.7725L67.3047 12.001V15.3467C67.3047 15.9344 67.109 16.6166 66.5693 17.1563C66.5057 17.2199 66.4392 17.2778 66.3721 17.3321C67.4953 17.466 68.4736 18.3341 68.6006 19.5801L68.6142 19.8565V23.3243L68.6006 23.6016C68.4619 24.9582 67.3144 25.8692 66.0693 25.8692H52.7578C52.1613 25.8692 51.4475 25.6648 50.9004 25.0704C50.3769 24.5013 50.2373 23.8255 50.2373 23.3243V4.45996C50.2373 3.95869 50.3768 3.28294 50.9004 2.71387C51.4475 2.11941 52.1613 1.91504 52.7578 1.91504V4.02344L52.6631 4.03125C52.4567 4.06749 52.3457 4.2267 52.3457 4.45996V23.3243L52.3525 23.42ZM65.7539 1.91504V4.02344H52.7578V1.91504H65.7539Z" fill="#EE7F16"/>
<path d="M30.1601 23.42C30.1872 23.6007 30.2948 23.722 30.4717 23.753L30.5664 23.7608H34.543L34.6367 23.753C34.8137 23.7221 34.9211 23.6008 34.9482 23.42L34.9551 23.3243V11.6856L42.0351 23.4698C42.12 23.6392 42.2601 23.7346 42.456 23.7559L42.5439 23.7608H46.8838L46.9785 23.753C47.1554 23.722 47.2629 23.6008 47.29 23.42L47.2969 23.3243V4.45996C47.2969 4.19324 47.1505 4.02344 46.8838 4.02344V1.91504C47.4804 1.91504 48.195 2.11917 48.7422 2.71387C49.2004 3.21189 49.3637 3.79173 49.3974 4.26465L49.4053 4.45996V23.3243L49.3974 23.5196C49.3637 23.9925 49.2003 24.5724 48.7422 25.0704C48.195 25.665 47.4804 25.8692 46.8838 25.8692H42.5439C42.1431 25.8692 41.6599 25.788 41.1885 25.5186C40.754 25.2702 40.4359 24.9216 40.2207 24.545L37.0635 19.2891V23.3243L37.0566 23.5196C37.0228 23.9925 36.8585 24.5723 36.4004 25.0704C35.8533 25.6648 35.1394 25.8691 34.543 25.8692H30.5664C29.9698 25.8692 29.2552 25.665 28.708 25.0704C28.1845 24.5013 28.0449 23.8255 28.0449 23.3243V4.45996C28.0449 3.95869 28.1845 3.28294 28.708 2.71387C29.2552 2.11914 29.9698 1.91504 30.5664 1.91504V4.02344L30.4717 4.03125C30.2652 4.0674 30.1543 4.2266 30.1543 4.45996V23.3243L30.1601 23.42ZM34.9307 1.91504C35.3446 1.91506 35.8321 2.00161 36.3057 2.28222C36.6506 2.48663 36.898 2.74091 37.0742 2.97363L37.2275 3.19726L37.2471 3.22851L40.3867 8.45019V4.45996C40.3867 3.95812 40.5279 3.26084 41.084 2.68164C41.6542 2.08776 42.3746 1.91511 42.9316 1.91504V4.02344C42.6409 4.02357 42.4951 4.19335 42.4951 4.45996V16.0498L35.4394 4.31445C35.3333 4.14468 35.2087 4.04945 35.0166 4.02832L34.9307 4.02344V1.91504ZM46.8838 1.91504V4.02344H42.9316V1.91504H46.8838ZM34.9307 1.91504V4.02344H30.5664V1.91504H34.9307Z" fill="#EE7F16"/>
<path d="M20.0928 23.42C20.1199 23.6006 20.2266 23.722 20.4033 23.753L20.498 23.7608H24.668L24.7637 23.753C24.9445 23.722 25.0656 23.6007 25.0967 23.42L25.1045 23.3243V4.45996C25.1045 4.19324 24.9347 4.02344 24.668 4.02344V1.91504C25.2555 1.91504 25.9379 2.11088 26.4775 2.65039C26.9496 3.1225 27.1591 3.70385 27.2041 4.23535L27.2129 4.45996V23.3243L27.2041 23.5489C27.1591 24.0802 26.9494 24.6608 26.4775 25.1329C25.9379 25.6725 25.2556 25.8692 24.668 25.8692H20.498C19.9014 25.8692 19.1868 25.6651 18.6396 25.0704C18.1161 24.5013 17.9775 23.8255 17.9775 23.3243V4.45996C17.9775 3.9587 18.1161 3.28293 18.6396 2.71387C19.1868 2.1191 19.9014 1.91504 20.498 1.91504V4.02344L20.4033 4.03125C20.1969 4.06746 20.0859 4.22666 20.0859 4.45996V23.3243L20.0928 23.42ZM24.668 1.91504V4.02344H20.498V1.91504H24.668Z" fill="#EE7F16"/>
<path d="M2.11523 23.42C2.14233 23.6008 2.24981 23.722 2.42676 23.753L2.52051 23.7608H15.7842L15.8711 23.753C16.0382 23.7221 16.1576 23.6008 16.1885 23.42L16.1963 23.3243V19.3965C16.1963 19.1842 16.0662 19.0457 15.8711 19.0147L15.7842 19.0079V16.8995C16.3204 16.8995 16.9687 17.0644 17.5058 17.5567C17.9951 18.0051 18.2394 18.5874 18.293 19.1543L18.3047 19.3965V23.3243L18.2949 23.5469C18.2509 24.0735 18.0475 24.6389 17.6025 25.1026C17.0887 25.6378 16.4135 25.8692 15.7842 25.8692H2.52051C1.92403 25.8691 1.21011 25.6648 0.663086 25.0704C0.139577 24.5013 1.9e-05 23.8255 0 23.3243V4.45996C0 3.95869 0.13954 3.28294 0.663086 2.71387C1.21011 2.11934 1.92401 1.91514 2.52051 1.91504V4.02344C2.25409 4.02364 2.1084 4.1934 2.1084 4.45996V23.3243L2.11523 23.42ZM7.12793 4.45996C7.12793 4.19324 6.95812 4.02344 6.69141 4.02344V1.91504C7.27905 1.91504 7.96134 2.11076 8.50098 2.65039C8.97307 3.12249 9.18159 3.70386 9.22656 4.23535L9.23633 4.45996V16.8995H15.7842V19.0079H7.12793V4.45996ZM6.69141 1.91504V4.02344H2.52051V1.91504H6.69141Z" fill="#EE7F16"/>
<path d="M188.201 27.3746C184.54 27.3746 181.8 25.4348 180.685 22.0887C180.66 22.016 180.636 21.9433 180.636 21.8948C180.636 21.7008 180.782 21.6038 180.976 21.5553L184.443 20.6582C184.492 20.6339 184.54 20.6339 184.588 20.6339C184.758 20.6339 184.879 20.7309 184.976 20.9006C185.51 22.113 186.528 22.7677 187.91 22.7677C189.535 22.7677 190.529 21.8705 190.529 20.4642C190.529 19.0094 189.486 18.0637 187.838 18.0637C186.746 18.0637 185.898 18.379 184.467 19.2761C184.37 19.3246 184.273 19.3488 184.176 19.3488C184.079 19.3488 183.982 19.3246 183.885 19.2761L181.752 18.185C181.558 18.088 181.461 17.9183 181.485 17.6758L182.334 7.66179C182.382 7.34658 182.527 7.24959 182.77 7.24959H194.093C194.336 7.24959 194.506 7.41932 194.506 7.68603V11.4201C194.506 11.6868 194.336 11.8565 194.093 11.8565H186.14L185.752 15.3481C186.819 14.5964 187.959 14.1357 189.462 14.1357C193.075 14.1357 195.621 16.6817 195.621 20.4884C195.621 24.5377 192.566 27.3746 188.201 27.3746Z" fill="#BF8E1D"/>
<path d="M189.529 20.4644C189.529 19.9893 189.367 19.6716 189.134 19.4635C188.891 19.2452 188.475 19.064 187.837 19.064C187.099 19.0641 186.492 19.232 185.386 19.8873C185.543 20 185.667 20.1369 185.761 20.272L185.844 20.4049L185.871 20.4498L185.892 20.4976C186.259 21.3322 186.909 21.7681 187.911 21.7681V22.7681L187.656 22.7603C186.487 22.6891 185.602 22.121 185.083 21.1217L184.976 20.901C184.879 20.7312 184.758 20.6344 184.588 20.6344C184.54 20.6344 184.491 20.6336 184.443 20.6578L180.976 21.5553L180.84 21.6012C180.718 21.658 180.636 21.7497 180.636 21.8951C180.636 21.9436 180.661 22.0159 180.685 22.0885C181.766 25.33 184.37 27.2518 187.861 27.3687L188.202 27.3746C192.429 27.3744 195.428 24.7123 195.612 20.8648L195.621 20.4888C195.621 16.8009 193.231 14.2959 189.797 14.1431L189.462 14.1353C187.959 14.1353 186.819 14.5966 185.752 15.3482L186.14 11.856H194.093C194.305 11.856 194.462 11.7265 194.498 11.5152L194.505 11.4205V7.68611C194.505 7.41939 194.336 7.24959 194.093 7.24959V6.24959C194.455 6.24959 194.83 6.38166 195.112 6.67537C195.391 6.9665 195.505 7.33809 195.505 7.68611V11.4205C195.505 11.7684 195.391 12.1402 195.112 12.4312C194.83 12.7248 194.455 12.856 194.093 12.856H187.036L186.956 13.5738C187.702 13.2949 188.523 13.1353 189.462 13.1353C191.511 13.1354 193.317 13.8622 194.611 15.1851C195.904 16.5072 196.621 18.358 196.621 20.4888C196.621 22.7769 195.752 24.769 194.228 26.1832C192.71 27.5923 190.601 28.3745 188.202 28.3746C184.128 28.3746 180.993 26.176 179.736 22.4049C179.726 22.3748 179.705 22.3108 179.687 22.2457C179.676 22.2068 179.653 22.1207 179.642 22.0113L179.636 21.8951L179.644 21.7525C179.678 21.4262 179.83 21.1384 180.064 20.9273C180.293 20.7215 180.551 20.6316 180.725 20.5875L183.067 19.981L181.296 19.0758C181.049 18.9503 180.811 18.75 180.655 18.4576C180.498 18.1644 180.462 17.854 180.49 17.5767L181.34 7.54353L181.345 7.50935C181.387 7.23698 181.498 6.86687 181.821 6.58455C182.151 6.29616 182.529 6.24959 182.77 6.24959V7.24959L182.683 7.25447C182.492 7.27747 182.376 7.38618 182.333 7.6617L181.485 17.6754C181.461 17.9178 181.558 18.0881 181.751 18.1851L183.885 19.276C183.958 19.3124 184.031 19.3353 184.104 19.3443L184.176 19.3492C184.249 19.3492 184.321 19.3353 184.394 19.3082L184.467 19.276C185.898 18.3789 186.746 18.0641 187.837 18.064L188.139 18.0748C189.612 18.1839 190.529 19.1004 190.529 20.4644L190.517 20.7222C190.402 21.9792 189.433 22.768 187.911 22.7681V21.7681C188.544 21.7681 188.941 21.5939 189.166 21.3951C189.377 21.2081 189.529 20.9183 189.529 20.4644ZM194.093 6.24959V7.24959H182.77V6.24959H194.093Z" fill="#BF8E1D"/>
<path d="M174.513 29.4728C174.263 29.4728 174.148 29.2995 174.225 29.0878L175.341 25.7768C174.61 25.4303 174.128 24.7565 174.128 23.8518C174.128 22.6005 175.11 21.715 176.361 21.715C177.632 21.715 178.575 22.6005 178.575 23.8518C178.575 24.8528 178.267 25.5843 177.439 27.413L176.612 29.2225C176.554 29.3765 176.419 29.4728 176.227 29.4728H174.513Z" fill="#BF8E1D"/>
<path d="M178.575 23.8517C178.575 22.6785 177.746 21.8264 176.595 21.7248L176.362 21.715C175.111 21.715 174.128 22.6005 174.128 23.8517C174.128 24.7565 174.61 25.43 175.341 25.7765L174.225 29.0881C174.158 29.2734 174.237 29.4291 174.426 29.465L174.513 29.4728H176.227L176.296 29.4679C176.452 29.4473 176.561 29.3574 176.612 29.2228L177.439 27.4133C178.267 25.5845 178.575 24.8527 178.575 23.8517ZM180.575 23.8517C180.575 25.3627 180.048 26.4993 179.261 28.2375L179.258 28.2453L178.43 30.0549L178.429 30.0539C178.029 30.9612 177.151 31.4727 176.227 31.4728H174.513C173.939 31.4728 173.153 31.2598 172.626 30.5324C172.109 29.818 172.139 29.0145 172.332 28.4484H172.33L173.012 26.425C172.46 25.7355 172.128 24.8569 172.128 23.8517C172.128 21.3814 174.124 19.715 176.362 19.715C178.654 19.7152 180.575 21.4147 180.575 23.8517Z" fill="#BF8E1D"/>
<path d="M164.523 27.3746C160.861 27.3746 158.121 25.4348 157.006 22.0887C156.982 22.016 156.958 21.9433 156.958 21.8948C156.958 21.7008 157.103 21.6038 157.297 21.5553L160.764 20.6582C160.813 20.6339 160.861 20.6339 160.91 20.6339C161.08 20.6339 161.201 20.7309 161.298 20.9006C161.831 22.113 162.85 22.7677 164.232 22.7677C165.856 22.7677 166.85 21.8705 166.85 20.4642C166.85 19.0094 165.808 18.0637 164.159 18.0637C163.068 18.0637 162.219 18.379 160.789 19.2761C160.692 19.3246 160.595 19.3488 160.498 19.3488C160.401 19.3488 160.304 19.3246 160.207 19.2761L158.073 18.185C157.879 18.088 157.782 17.9183 157.806 17.6758L158.655 7.66179C158.703 7.34658 158.849 7.24959 159.091 7.24959H170.415C170.657 7.24959 170.827 7.41932 170.827 7.68603V11.4201C170.827 11.6868 170.657 11.8565 170.415 11.8565H162.462L162.074 15.3481C163.141 14.5964 164.28 14.1357 165.783 14.1357C169.396 14.1357 171.942 16.6817 171.942 20.4884C171.942 24.5377 168.887 27.3746 164.523 27.3746Z" fill="#BF8E1D"/>
<path d="M165.85 20.4644C165.85 19.9893 165.688 19.6716 165.456 19.4635C165.212 19.2452 164.796 19.064 164.159 19.064C163.42 19.0641 162.813 19.232 161.708 19.8873C161.864 20 161.989 20.1369 162.083 20.272L162.166 20.4049L162.192 20.4498L162.213 20.4976C162.581 21.3322 163.23 21.7681 164.232 21.7681V22.7681L163.977 22.7603C162.808 22.6891 161.923 22.121 161.404 21.1217L161.297 20.901C161.2 20.7312 161.079 20.6344 160.91 20.6344C160.861 20.6344 160.813 20.6336 160.764 20.6578L157.297 21.5553L157.162 21.6012C157.039 21.658 156.958 21.7497 156.958 21.8951C156.958 21.9436 156.982 22.0159 157.006 22.0885C158.087 25.33 160.692 27.2518 164.182 27.3687L164.523 27.3746C168.751 27.3744 171.75 24.7123 171.933 20.8648L171.942 20.4888C171.942 16.8009 169.553 14.2959 166.119 14.1431L165.784 14.1353C164.28 14.1353 163.141 14.5966 162.074 15.3482L162.461 11.856H170.415C170.627 11.856 170.783 11.7265 170.819 11.5152L170.827 11.4205V7.68611C170.827 7.41939 170.657 7.24959 170.415 7.24959V6.24959C170.777 6.24959 171.151 6.38166 171.433 6.67537C171.713 6.9665 171.827 7.33809 171.827 7.68611V11.4205C171.827 11.7684 171.712 12.1402 171.433 12.4312C171.151 12.7248 170.777 12.856 170.415 12.856H163.357L163.277 13.5738C164.023 13.2949 164.844 13.1353 165.784 13.1353C167.832 13.1354 169.638 13.8622 170.932 15.1851C172.225 16.5072 172.942 18.358 172.942 20.4888C172.942 22.7769 172.073 24.769 170.549 26.1832C169.031 27.5923 166.923 28.3745 164.523 28.3746C160.449 28.3746 157.314 26.176 156.057 22.4049C156.047 22.3748 156.026 22.3108 156.008 22.2457C155.998 22.2068 155.974 22.1207 155.963 22.0113L155.958 21.8951L155.965 21.7525C156 21.4262 156.151 21.1384 156.385 20.9273C156.614 20.7215 156.873 20.6316 157.046 20.5875L159.388 19.981L157.618 19.0758C157.37 18.9503 157.133 18.75 156.976 18.4576C156.819 18.1644 156.783 17.8541 156.811 17.5767L157.662 7.54353L157.667 7.50935C157.708 7.23698 157.819 6.86687 158.142 6.58455C158.472 6.29616 158.85 6.24959 159.091 6.24959V7.24959L159.004 7.25447C158.814 7.27747 158.697 7.38618 158.655 7.6617L157.806 17.6754C157.782 17.9178 157.879 18.0881 158.073 18.1851L160.207 19.276C160.279 19.3124 160.352 19.3353 160.425 19.3443L160.498 19.3492C160.57 19.3492 160.643 19.3353 160.715 19.3082L160.789 19.276C162.219 18.3789 163.068 18.0641 164.159 18.064L164.46 18.0748C165.934 18.1839 166.85 19.1004 166.85 20.4644L166.838 20.7222C166.723 21.9792 165.755 22.768 164.232 22.7681V21.7681C164.866 21.7681 165.262 21.5939 165.487 21.3951C165.698 21.2081 165.85 20.9183 165.85 20.4644ZM170.415 6.24959V7.24959H159.091V6.24959H170.415Z" fill="#BF8E1D"/>
<path d="M188.201 24.3746C184.54 24.3746 181.8 22.4348 180.685 19.0887C180.66 19.016 180.636 18.9433 180.636 18.8948C180.636 18.7008 180.782 18.6038 180.976 18.5553L184.443 17.6582C184.492 17.6339 184.54 17.6339 184.588 17.6339C184.758 17.6339 184.879 17.7309 184.976 17.9006C185.51 19.113 186.528 19.7677 187.91 19.7677C189.535 19.7677 190.529 18.8705 190.529 17.4642C190.529 16.0094 189.486 15.0637 187.838 15.0637C186.746 15.0637 185.898 15.379 184.467 16.2761C184.37 16.3246 184.273 16.3488 184.176 16.3488C184.079 16.3488 183.982 16.3246 183.885 16.2761L181.752 15.185C181.558 15.088 181.461 14.9183 181.485 14.6758L182.334 4.66179C182.382 4.34658 182.527 4.24959 182.77 4.24959H194.093C194.336 4.24959 194.506 4.41932 194.506 4.68603V8.42007C194.506 8.68679 194.336 8.85652 194.093 8.85652H186.14L185.752 12.3481C186.819 11.5964 187.959 11.1357 189.462 11.1357C193.075 11.1357 195.621 13.6817 195.621 17.4884C195.621 21.5377 192.566 24.3746 188.201 24.3746Z" fill="white"/>
<path d="M174.513 27.4728C174.263 27.4728 174.148 27.2995 174.225 27.0878L175.341 23.7768C174.61 23.4303 174.128 22.7565 174.128 21.8518C174.128 20.6005 175.11 19.715 176.361 19.715C177.632 19.715 178.575 20.6005 178.575 21.8518C178.575 22.8528 178.267 23.5843 177.439 25.413L176.612 27.2225C176.554 27.3765 176.419 27.4728 176.227 27.4728H174.513Z" fill="white"/>
<path d="M164.523 24.3746C160.861 24.3746 158.121 22.4348 157.006 19.0887C156.982 19.016 156.958 18.9433 156.958 18.8948C156.958 18.7008 157.103 18.6038 157.297 18.5553L160.764 17.6582C160.813 17.6339 160.861 17.6339 160.91 17.6339C161.08 17.6339 161.201 17.7309 161.298 17.9006C161.831 19.113 162.85 19.7677 164.232 19.7677C165.856 19.7677 166.85 18.8705 166.85 17.4642C166.85 16.0094 165.808 15.0637 164.159 15.0637C163.068 15.0637 162.219 15.379 160.789 16.2761C160.692 16.3246 160.595 16.3488 160.498 16.3488C160.401 16.3488 160.304 16.3246 160.207 16.2761L158.073 15.185C157.879 15.088 157.782 14.9183 157.806 14.6758L158.655 4.66179C158.703 4.34658 158.849 4.24959 159.091 4.24959H170.415C170.657 4.24959 170.827 4.41932 170.827 4.68603V8.42007C170.827 8.68679 170.657 8.85652 170.415 8.85652H162.462L162.074 12.3481C163.141 11.5964 164.28 11.1357 165.783 11.1357C169.396 11.1357 171.942 13.6817 171.942 17.4884C171.942 21.5377 168.887 24.3746 164.523 24.3746Z" fill="white"/>
<path d="M188.42 17.4644C188.42 17.3541 188.402 17.3033 188.397 17.2935C188.395 17.2887 188.395 17.2885 188.395 17.2886C188.392 17.2864 188.362 17.2602 188.278 17.2319C188.193 17.203 188.049 17.1724 187.837 17.1724C187.589 17.1724 187.358 17.1929 187.045 17.3003C187.218 17.5439 187.462 17.6597 187.91 17.6597V19.7681L187.655 19.7603C186.403 19.6839 185.477 19.0373 184.977 17.9009C184.88 17.7312 184.758 17.6343 184.588 17.6343C184.54 17.6343 184.491 17.6335 184.442 17.6577L180.976 18.5552L180.841 18.6011C180.718 18.6579 180.636 18.7494 180.636 18.895C180.636 18.9434 180.66 19.0159 180.685 19.0884C181.765 22.3298 184.37 24.2516 187.86 24.3687L188.201 24.3745C192.429 24.3745 195.428 21.7123 195.611 17.8647L195.621 17.4888C195.621 13.682 193.075 11.1353 189.462 11.1353C187.959 11.1353 186.819 11.5965 185.752 12.3481L186.14 8.85693H194.093L194.181 8.84912C194.348 8.81809 194.466 8.69618 194.497 8.51514L194.505 8.42041V4.68604C194.505 4.41932 194.335 4.24951 194.093 4.24951V2.14111C194.722 2.14111 195.397 2.37244 195.911 2.90771C196.356 3.37144 196.56 3.93666 196.604 4.46338L196.613 4.68604V8.42041L196.604 8.64307C196.56 9.16971 196.356 9.7351 195.911 10.1987C195.59 10.5334 195.205 10.7491 194.809 10.8638C195.015 11.0346 195.214 11.217 195.403 11.4106C196.924 12.9653 197.729 15.1058 197.729 17.4888L197.718 17.9692C197.603 20.353 196.633 22.4632 194.982 23.9956C193.233 25.6197 190.842 26.4829 188.201 26.4829C183.812 26.4829 180.323 24.1506 178.823 20.1479L178.685 19.7554C178.677 19.7325 178.645 19.6381 178.617 19.5376C178.602 19.4834 178.56 19.327 178.539 19.1187L178.527 18.895L178.541 18.6343C178.605 18.0341 178.886 17.4952 179.322 17.103C179.606 16.8477 179.907 16.6971 180.152 16.606C179.974 16.4333 179.81 16.2271 179.678 15.981C179.403 15.4687 179.344 14.9416 179.384 14.4976L180.232 4.48389L180.238 4.4126L180.249 4.34131C180.311 3.94165 180.491 3.27547 181.091 2.75049C181.706 2.21281 182.396 2.14114 182.77 2.14111V4.24951C182.527 4.24957 182.382 4.3466 182.333 4.66162L181.484 14.6763C181.46 14.9184 181.557 15.0881 181.751 15.1851L183.885 16.2759C183.982 16.3243 184.079 16.3491 184.176 16.3491C184.273 16.3491 184.37 16.3243 184.467 16.2759C185.897 15.3789 186.746 15.0641 187.837 15.064L188.14 15.0747C189.613 15.184 190.528 16.1006 190.528 17.4644L190.518 17.7222C190.402 18.9793 189.433 19.768 187.91 19.7681V17.6597C188.214 17.6597 188.36 17.6004 188.411 17.5737C188.415 17.5522 188.42 17.5168 188.42 17.4644ZM194.093 2.14111V4.24951H182.77V2.14111H194.093Z" fill="#EE7F16"/>
<path d="M178.575 21.8521C178.575 20.6791 177.746 19.827 176.596 19.7251L176.361 19.7153C175.11 19.7153 174.128 20.6008 174.128 21.8521L174.134 22.019C174.189 22.8396 174.655 23.452 175.341 23.7769L174.225 27.0874C174.157 27.2727 174.237 27.4293 174.426 27.4653L174.514 27.4731H176.227L176.296 27.4683C176.451 27.4477 176.561 27.3569 176.611 27.2222L177.439 25.4126C178.215 23.6984 178.534 22.9484 178.571 22.0366L178.575 21.8521ZM180.677 22.1362C180.615 23.5376 180.096 24.6578 179.36 26.2827L179.356 26.2905L178.529 28.0991C178.111 29.0477 177.19 29.5815 176.227 29.5815H174.514C173.915 29.5815 173.091 29.3594 172.538 28.5962C171.996 27.8469 172.027 27.0047 172.229 26.4136H172.227L172.889 24.4468C172.344 23.7462 172.02 22.8603 172.02 21.8521C172.02 19.3156 174.07 17.6069 176.361 17.6069C178.709 17.607 180.684 19.3506 180.684 21.8521L180.677 22.1362Z" fill="#EE7F16"/>
<path d="M164.742 17.4644C164.742 17.3541 164.723 17.3033 164.719 17.2935C164.716 17.2881 164.716 17.2884 164.716 17.2886C164.713 17.2864 164.683 17.2602 164.6 17.2319C164.514 17.203 164.371 17.1724 164.159 17.1724C163.911 17.1724 163.679 17.1928 163.366 17.3003C163.539 17.5439 163.783 17.6597 164.231 17.6597V19.7681L163.977 19.7603C162.724 19.6839 161.798 19.0373 161.298 17.9009C161.201 17.7313 161.08 17.6345 160.91 17.6343C160.862 17.6343 160.813 17.6337 160.765 17.6577L157.297 18.5552C157.103 18.6037 156.957 18.701 156.957 18.895C156.957 18.9434 156.982 19.0159 157.006 19.0884C158.121 22.4345 160.861 24.3745 164.522 24.3745C168.75 24.3745 171.75 21.7124 171.934 17.8647L171.942 17.4888C171.942 13.682 169.396 11.1353 165.783 11.1353C164.28 11.1353 163.14 11.5965 162.073 12.3481L162.462 8.85693H170.414L170.502 8.84912C170.669 8.81812 170.789 8.6963 170.819 8.51514L170.827 8.42041V4.68604C170.827 4.41932 170.657 4.24951 170.414 4.24951V2.14111C171.043 2.14111 171.719 2.37245 172.232 2.90771C172.678 3.37144 172.882 3.93664 172.926 4.46338L172.936 4.68604V8.42041L172.926 8.64307C172.882 9.1697 172.678 9.7351 172.232 10.1987C171.911 10.5334 171.527 10.7491 171.13 10.8638C171.337 11.0346 171.535 11.217 171.725 11.4106C173.245 12.9653 174.051 15.1058 174.051 17.4888L174.039 17.9692C173.924 20.353 172.955 22.4632 171.304 23.9956C169.554 25.6197 167.164 26.4829 164.522 26.4829C159.991 26.4829 156.42 23.9976 155.006 19.7554C154.998 19.7324 154.966 19.638 154.938 19.5376C154.924 19.4834 154.881 19.327 154.86 19.1187L154.849 18.895L154.862 18.6343C154.926 18.0341 155.208 17.4952 155.644 17.103C155.927 16.8477 156.228 16.6971 156.474 16.606C156.295 16.4333 156.131 16.2271 155.999 15.981C155.725 15.4687 155.667 14.9417 155.706 14.4976L156.554 4.48389L156.56 4.4126L156.571 4.34131C156.633 3.94165 156.812 3.27547 157.412 2.75049C158.027 2.21281 158.717 2.14116 159.091 2.14111V4.24951C158.849 4.2496 158.703 4.34664 158.654 4.66162L157.806 14.6763C157.782 14.9185 157.879 15.0881 158.073 15.1851L160.206 16.2759C160.303 16.3243 160.4 16.3491 160.497 16.3491C160.594 16.3491 160.691 16.3243 160.788 16.2759C162.219 15.3787 163.068 15.064 164.159 15.064L164.461 15.0747C165.934 15.184 166.851 16.1005 166.851 17.4644L166.839 17.7222C166.724 18.9793 165.754 19.7681 164.231 19.7681V17.6597C164.536 17.6597 164.681 17.6004 164.732 17.5737C164.737 17.5522 164.742 17.5168 164.742 17.4644ZM170.414 2.14111V4.24951H159.091V2.14111H170.414Z" fill="#EE7F16"/>
<path d="M155.131 29.7856C148.924 29.4946 146.208 24.815 146.208 17.1529C146.208 9.51508 148.924 4.81117 155.107 4.5202C155.374 4.5202 155.495 4.68993 155.495 4.95665V8.88466C155.495 9.15138 155.374 9.29686 155.131 9.32111C152.294 9.58782 151.276 11.9883 151.276 17.1529C151.276 22.3175 152.294 24.718 155.131 24.9847C155.374 25.0089 155.495 25.1787 155.495 25.4454V29.3734C155.495 29.6401 155.374 29.7856 155.131 29.7856Z" fill="#BF8E1D"/>
<path d="M155.494 4.95672C155.494 4.69001 155.373 4.5202 155.107 4.5202C148.924 4.81126 146.208 9.5153 146.208 17.1531L146.216 17.862C146.376 24.8696 148.944 29.2173 154.56 29.7458L155.131 29.7859C155.343 29.7859 155.463 29.6742 155.49 29.4675L155.494 29.3738V25.445C155.494 25.1785 155.374 25.0093 155.131 24.9851C152.471 24.735 151.411 22.6091 151.288 18.0886L151.276 17.1531C151.276 11.9885 152.294 9.58772 155.131 9.32098C155.374 9.29674 155.494 9.15118 155.494 8.88446V4.95672ZM157.494 8.88446C157.494 9.29717 157.403 9.91995 156.941 10.4743C156.456 11.056 155.817 11.2625 155.33 11.3113L155.319 11.3122C154.883 11.3532 154.633 11.4631 154.473 11.574C154.314 11.684 154.129 11.8757 153.946 12.2605C153.539 13.1134 153.276 14.6223 153.276 17.1531C153.276 19.6838 153.539 21.1927 153.946 22.0456C154.129 22.4303 154.314 22.6221 154.473 22.7322C154.613 22.8291 154.821 22.9254 155.163 22.9753L155.319 22.9939L155.33 22.9949C155.909 23.0527 156.541 23.3216 156.99 23.905C157.403 24.4427 157.494 25.0324 157.494 25.445V29.3738C157.494 29.7723 157.408 30.4226 156.913 30.9919C156.375 31.6112 155.663 31.7859 155.131 31.7859H155.084L155.037 31.7829C151.376 31.6113 148.529 30.0973 146.682 27.3493C144.911 24.7145 144.208 21.1684 144.208 17.1531C144.208 13.1485 144.911 9.60455 146.677 6.96844C148.518 4.21989 151.357 2.69419 155.013 2.52215L155.06 2.5202H155.107C155.688 2.5202 156.405 2.72518 156.932 3.35223C157.408 3.91928 157.494 4.55811 157.494 4.95672V8.88446Z" fill="#BF8E1D"/>
<path d="M155.131 27.7856C148.924 27.4946 146.208 22.815 146.208 15.1529C146.208 7.51508 148.924 2.81117 155.107 2.5202C155.374 2.5202 155.495 2.68993 155.495 2.95665V6.88466C155.495 7.15138 155.374 7.29686 155.131 7.32111C152.294 7.58782 151.276 9.98826 151.276 15.1529C151.276 20.3175 152.294 22.718 155.131 22.9847C155.374 23.0089 155.495 23.1787 155.495 23.4454V27.3734C155.495 27.6401 155.374 27.7856 155.131 27.7856Z" fill="white"/>
<path d="M155.495 2.95703C155.495 2.69036 155.374 2.52056 155.107 2.52051C148.924 2.81147 146.209 7.51552 146.209 15.1534L146.217 15.8623C146.376 22.8694 148.944 27.2164 154.559 27.7452L155.132 27.7852C155.374 27.7851 155.495 27.6397 155.495 27.3731V23.4454C155.495 23.1788 155.374 23.0088 155.132 22.9844C152.472 22.7344 151.41 20.6092 151.288 16.0889L151.276 15.1534C151.276 10.15 152.232 7.74062 154.871 7.35254L155.132 7.32129C155.344 7.29998 155.463 7.18555 155.489 6.97851L155.495 6.88476V2.95703ZM157.603 6.88476L157.598 7.05469C157.573 7.47381 157.448 8.0359 157.024 8.54394C156.517 9.15301 155.848 9.36819 155.342 9.41894L155.329 9.41992C154.908 9.4595 154.677 9.56485 154.535 9.66308C154.395 9.76047 154.22 9.9359 154.044 10.3067C153.648 11.1365 153.385 12.6254 153.385 15.1534L153.396 16.0528C153.452 18.0426 153.698 19.273 154.044 19.9991C154.22 20.3699 154.395 20.5452 154.535 20.6426C154.659 20.7286 154.851 20.8203 155.179 20.8682L155.329 20.8858L155.342 20.8868C155.945 20.9472 156.605 21.2282 157.075 21.8389C157.508 22.4018 157.603 23.0175 157.603 23.4454V27.3731C157.603 27.786 157.514 28.4669 156.995 29.0635C156.431 29.7121 155.686 29.8935 155.132 29.8936H155.082L155.033 29.8916C151.341 29.7186 148.461 28.1896 146.593 25.4102C144.804 22.7499 144.1 19.1786 144.1 15.1534C144.1 11.1386 144.805 7.56976 146.588 4.9082C148.45 2.12821 151.321 0.587618 155.008 0.414062L155.057 0.412109H155.107C155.713 0.412141 156.464 0.625317 157.015 1.28222C157.514 1.87591 157.603 2.54404 157.603 2.95703V6.88476Z" fill="#EE7F16"/>
</svg>
