<svg width="274" height="33" viewBox="0 0 274 33" fill="none" xmlns="http://www.w3.org/2000/svg">
<mask id="mask0_478_858" style="mask-type:luminance" maskUnits="userSpaceOnUse" x="0" y="0" width="274" height="33">
<path d="M274 0H0V33H274V0Z" fill="white"/>
</mask>
<g mask="url(#mask0_478_858)">
<path d="M178.28 3.98131C178.836 3.71389 179.383 3.73128 179.783 3.82018L183.773 4.70689L183.772 4.70787C184.262 4.8124 184.959 5.12494 185.322 5.90709C185.69 6.69834 185.47 7.44095 185.22 7.89244L185.222 7.89342C185.152 8.0219 185.078 8.14972 185.003 8.27721C185.066 8.3273 185.128 8.38164 185.188 8.44127C185.679 8.93245 185.835 9.54587 185.835 10.0438V21.4471C186.134 21.5453 186.435 21.7114 186.7 21.9764C187.191 22.4675 187.348 23.081 187.348 23.579V26.5526L187.34 26.744C187.303 27.2018 187.13 27.7253 186.7 28.1551C186.209 28.6462 185.596 28.8035 185.098 28.8036H177.411V29.7342L177.403 29.9256C177.367 30.3834 177.193 30.907 176.764 31.3368C176.273 31.8278 175.659 31.9851 175.161 31.9852H171.301C170.803 31.9852 170.189 31.8279 169.698 31.3368C169.207 30.8456 169.05 30.2322 169.05 29.7342V28.8036H161.442C160.944 28.8035 160.331 28.6462 159.84 28.1551C159.349 27.664 159.192 27.0505 159.192 26.5526V23.579C159.192 23.081 159.349 22.4675 159.84 21.9764C160.105 21.7114 160.406 21.5453 160.705 21.4471V10.0438C160.705 9.54587 160.861 8.93246 161.353 8.44127C161.44 8.35382 161.533 8.27902 161.627 8.21178C161.379 7.91086 161.187 7.5323 161.136 7.07799L161.122 6.8358L161.135 6.59459C161.257 5.4326 162.247 4.92633 162.738 4.786L162.798 4.76939L162.859 4.75572L166.633 3.94908C167.051 3.85745 167.567 3.85638 168.09 4.09068C168.503 4.27605 168.796 4.55469 169.001 4.81725C169.22 4.69867 169.427 4.62543 169.578 4.58775L169.623 4.57701L169.668 4.56822L173.502 3.81139C173.878 3.73689 174.424 3.71243 174.989 3.98521C175.539 4.2505 175.863 4.67968 176.05 5.03795C176.264 5.44098 176.464 5.84486 176.65 6.24791C176.84 5.87792 177.02 5.50182 177.191 5.11998C177.377 4.7051 177.717 4.25265 178.28 3.98131ZM202.597 3.75084C203.095 3.75084 203.709 3.90707 204.2 4.3983C204.63 4.82802 204.803 5.35175 204.84 5.80943L204.848 6.00182V6.56725H211.334C211.832 6.56729 212.445 6.72377 212.937 7.21471C213.366 7.64438 213.54 8.16817 213.577 8.62584L213.584 8.81822V24.6747L213.577 24.8661C213.54 25.3239 213.366 25.8473 212.937 26.2772C212.445 26.7683 211.832 26.9256 211.334 26.9256H204.848V29.7342L204.84 29.9256C204.803 30.3834 204.63 30.907 204.2 31.3368C203.709 31.8279 203.095 31.9852 202.597 31.9852H198.502C198.004 31.9851 197.39 31.8278 196.899 31.3368C196.408 30.8456 196.252 30.2322 196.252 29.7342V26.9256H189.948C189.45 26.9256 188.837 26.7683 188.346 26.2772C187.855 25.786 187.697 25.1727 187.697 24.6747V8.81822C187.697 8.32023 187.855 7.70592 188.346 7.21471C188.837 6.72382 189.45 6.56725 189.948 6.56725H196.226V6.00182C196.226 5.50386 196.382 4.8895 196.873 4.3983C197.364 3.90707 197.979 3.75084 198.477 3.75084H202.597ZM148.059 3.72936H148.06L151.841 3.9901L151.861 3.99107L151.881 3.99303C152.301 4.03127 153.008 4.21362 153.485 4.87193H157.661C158.159 4.87194 158.772 5.02916 159.264 5.52037C159.694 5.9503 159.868 6.47366 159.904 6.9315L159.912 7.12291V9.67857L159.904 9.86998C159.868 10.3278 159.694 10.8512 159.264 11.2811C159.141 11.4041 159.01 11.5059 158.875 11.5897C158.886 11.6857 158.895 11.7791 158.895 11.869V25.4051L158.89 26.0809C158.877 26.752 158.839 27.4053 158.733 27.9989C158.588 28.8138 158.287 29.6857 157.596 30.4032C156.903 31.1219 156.011 31.4871 155.076 31.6737C154.159 31.8568 153.067 31.8941 151.812 31.8534V31.8524C151.453 31.8446 151.001 31.7653 150.566 31.4872C150.229 31.2713 149.991 30.9924 149.827 30.7069H140.858C140.761 30.8986 140.632 31.0867 140.46 31.2587C139.969 31.7498 139.355 31.9071 138.857 31.9071H135.206C134.708 31.9071 134.095 31.7498 133.604 31.2587C133.112 30.7675 132.955 30.1541 132.955 29.6561V11.9266L132.443 11.5604L132.444 11.5585C131.983 11.2382 131.556 10.6941 131.501 9.96959L131.495 9.80943L131.502 9.63268C131.567 8.83435 132.069 8.29341 132.458 8.00768V8.0067C133.538 7.19131 134.562 5.94634 134.993 5.06529L135.035 4.98033L135.086 4.89928C135.207 4.70543 135.459 4.33743 135.909 4.06725C136.381 3.78418 136.868 3.72533 137.273 3.75475L137.274 3.75377L141.108 3.98912L141.128 3.9901L141.148 3.99205C141.535 4.02428 142.282 4.18371 142.776 4.87193H145.56C145.662 4.87193 145.769 4.88064 145.879 4.89537C146.036 4.61803 146.277 4.30979 146.648 4.07213C147.124 3.76776 147.63 3.69542 148.059 3.72936ZM219.758 4.01158C220.284 4.01163 220.698 4.20227 220.96 4.36412L221.171 4.50865L221.196 4.52818L221.222 4.54869C221.786 5.00437 222.333 5.52556 222.848 6.0858C222.924 5.70086 223.103 5.29284 223.449 4.94615C223.94 4.45507 224.554 4.29871 225.052 4.29869H233.658C234.158 4.29869 234.791 4.45689 235.29 4.97838C235.778 5.48897 235.909 6.10885 235.909 6.57506V6.59166C235.859 12.0631 237.119 16.2316 241.086 18.4921L241.084 18.494C241.602 18.7816 242.246 19.3909 242.246 20.3973C242.246 20.9812 242.017 21.437 241.775 21.7587L241.771 21.7645L241.767 21.7704L240.768 23.078C241.184 23.141 241.676 23.3231 242.076 23.7801C242.725 24.5219 242.636 25.396 242.462 25.909L242.464 25.91L241.213 29.6346L241.214 29.6356C241.106 29.9605 240.896 30.3892 240.472 30.7362C240.044 31.086 239.579 31.2046 239.233 31.243L239.201 31.2469L239.168 31.2499C236.694 31.4361 233.726 31.5419 231.154 31.5419C229.69 31.5419 228.281 31.5164 227.139 31.4022V31.4012C225.204 31.2335 223.075 30.8879 221.255 29.6766C220.667 30.2179 220.046 30.7266 219.451 31.1893C218.966 31.61 218.403 31.7245 218.01 31.7245C217.115 31.7243 216.462 31.1706 216.138 30.6434L216.137 30.6444L213.998 27.1756L213.999 27.1747C213.873 26.9728 213.795 26.7785 213.748 26.6258C213.714 26.5146 213.674 26.3574 213.656 26.1727L213.647 25.9784L213.652 25.8231C213.678 25.4526 213.799 25.0409 214.086 24.6659C214.368 24.2964 214.715 24.0929 214.971 23.9774V23.9764C215.616 23.6775 216.26 23.2791 216.829 22.8563V20.953H216.523C216.026 20.9529 215.412 20.7965 214.921 20.3055C214.43 19.8143 214.273 19.2 214.273 18.702V15.1297C214.273 14.6318 214.43 14.0174 214.921 13.5262C215.412 13.0352 216.026 12.8788 216.523 12.8788H217.535C216.928 11.9117 216.19 10.9744 215.431 10.2469L215.218 10.0487L215.183 10.0174L215.149 9.98424C214.864 9.69905 214.504 9.2034 214.46 8.51451L214.455 8.37486L214.461 8.2235C214.51 7.51527 214.901 6.93163 215.436 6.57506L218.438 4.45201L218.459 4.43736L218.479 4.42369C218.589 4.35084 218.734 4.26562 218.905 4.19225C219.047 4.13146 219.359 4.01158 219.758 4.01158ZM128.399 6.38463C128.838 6.38464 129.473 6.49442 130.008 6.98814C130.568 7.50491 130.728 8.17191 130.729 8.68736V12.4169L130.723 12.5907C130.701 12.9207 130.609 13.3229 130.365 13.7069C131.18 14.7954 131.991 16.2166 132.414 17.3622L132.417 17.3719L132.477 17.5575C132.602 18.0083 132.625 18.5721 132.367 19.1385C132.08 19.7705 131.564 20.1405 131.083 20.327L131.084 20.328L129.44 20.9803L129.439 20.9794C129.153 21.0943 128.798 21.1741 128.411 21.1532C128.159 21.4113 127.864 21.5881 127.58 21.701L127.581 21.703L126.157 22.284C126.553 22.3274 127.018 22.47 127.429 22.829C127.907 23.2479 128.118 23.7907 128.163 24.284L128.173 24.4921V24.786L128.144 24.9462L127.413 29.0145L127.412 29.0135C127.332 29.4682 127.111 30.0426 126.565 30.4715C126.034 30.8888 125.45 30.9676 125.062 30.9676H125.04C120.235 30.9127 116.666 29.8208 114.256 27.952C111.798 26.0465 110.709 23.4535 110.709 20.8407C110.709 18.7156 111.427 16.6001 112.655 14.8104C111.036 14.8728 109.405 14.9288 107.932 14.954L107.916 14.9549H107.9C107.462 14.9549 106.808 14.8443 106.265 14.3221C105.778 13.854 105.612 13.2795 105.578 12.8163L105.571 12.6258L105.494 8.8817L105.493 8.86314V8.84459C105.493 8.40582 105.603 7.77028 106.097 7.23521C106.613 6.67539 107.28 6.51554 107.796 6.51549L112.527 6.51353C117.74 6.50742 124.054 6.48296 128.357 6.38561L128.379 6.38463H128.399ZM38.7627 5.81139C39.3011 5.81146 39.9166 5.99068 40.4014 6.47545C40.8255 6.89974 41.0158 7.42393 41.0566 7.90904L41.0654 8.11412V21.9286H48.542C49.0333 21.9286 49.6185 22.0794 50.1006 22.5213C50.5391 22.9233 50.7602 23.4461 50.8086 23.9598L50.8193 24.1796V28.4042L50.8105 28.6083C50.7703 29.089 50.5846 29.5997 50.1846 30.0165C49.7228 30.4974 49.1141 30.7069 48.542 30.7069H34.2764C33.7302 30.7068 33.0877 30.5208 32.5977 29.9881C32.1281 29.4778 32 28.8675 32 28.4042V8.11412C32 7.65083 32.1282 7.04054 32.5977 6.53014C33.0878 5.99742 33.7301 5.81144 34.2764 5.81139H38.7627ZM58.0986 5.81139C58.637 5.81147 59.2526 5.99069 59.7373 6.47545C60.1614 6.89973 60.3517 7.42394 60.3926 7.90904L60.4014 8.11412V28.4042L60.3926 28.6092C60.3516 29.0943 60.1614 29.6186 59.7373 30.0428C59.2526 30.5275 58.637 30.7068 58.0986 30.7069H53.6123C53.0661 30.7069 52.4237 30.5208 51.9336 29.9881C51.464 29.4778 51.336 28.8675 51.3359 28.4042V8.11412C51.3359 7.65082 51.4641 7.04055 51.9336 6.53014C52.4237 5.9974 53.0661 5.81143 53.6123 5.81139H58.0986ZM69.1357 5.81139C69.5207 5.81139 69.9649 5.89136 70.3936 6.14537C70.8102 6.39229 71.0732 6.72123 71.2383 6.98521L71.2471 6.99889L71.2549 7.01256L75.4395 13.9715V8.11412C75.4395 7.65029 75.5699 7.02106 76.0684 6.50182C76.5791 5.96993 77.2279 5.81147 77.7422 5.81139H81.9932C82.5394 5.81139 83.1817 5.99749 83.6719 6.53014C84.0827 6.97667 84.2326 7.49942 84.2637 7.93346L84.2705 8.11412V28.4042L84.2637 28.5838C84.2327 29.018 84.0829 29.5414 83.6719 29.9881C83.1818 30.5206 82.5393 30.7069 81.9932 30.7069H77.3252C76.9517 30.7069 76.5104 30.6318 76.083 30.3876C75.6832 30.1591 75.3913 29.8361 75.1943 29.4852L70.9961 22.4969V28.4042L70.9893 28.5838C70.9583 29.018 70.8085 29.5414 70.3975 29.9881C69.9073 30.5207 69.2649 30.7069 68.7188 30.7069H64.4414C63.8954 30.7068 63.2537 30.5204 62.7637 29.9881C62.2941 29.4778 62.1651 28.8675 62.165 28.4042V8.11412C62.165 7.65078 62.2941 7.04058 62.7637 6.53014C63.2537 5.99766 63.8953 5.81148 64.4414 5.81139H69.1357ZM102.29 5.81139C103.42 5.8114 104.455 6.6341 104.58 7.86314L104.593 8.11412V11.8436L104.58 12.0946C104.455 13.3233 103.42 14.1463 102.29 14.1463H102.191C102.401 14.238 102.61 14.3669 102.805 14.5458C103.337 15.0359 103.523 15.6783 103.523 16.2245V19.8241L103.515 20.0292C103.474 20.5142 103.284 21.0386 102.859 21.4628C102.375 21.9474 101.759 22.1268 101.221 22.1268H95.0479V22.3719H102.629C103.759 22.3719 104.794 23.1948 104.919 24.4237L104.932 24.6747V28.4042L104.919 28.6551C104.794 29.8839 103.758 30.7069 102.629 30.7069H88.3115C87.7654 30.7069 87.1229 30.5206 86.6328 29.9881C86.1633 29.4778 86.0342 28.8675 86.0342 28.4042V8.11412C86.0342 7.65078 86.1632 7.04058 86.6328 6.53014C87.123 5.99746 87.7653 5.81139 88.3115 5.81139H102.29ZM171.219 30.1454L171.301 30.1512C171.271 30.1512 171.243 30.1483 171.217 30.1444L171.219 30.1454ZM198.42 30.1454L198.502 30.1512C198.473 30.1512 198.445 30.1483 198.418 30.1444L198.42 30.1454ZM175.254 30.1444L175.316 30.1297C175.321 30.1284 175.325 30.1254 175.329 30.1239C175.305 30.1321 175.281 30.14 175.254 30.1444ZM171.14 30.1258C171.148 30.1286 171.157 30.1304 171.166 30.1327C171.157 30.1304 171.148 30.1286 171.14 30.1258ZM198.341 30.1258C198.349 30.1286 198.358 30.1304 198.367 30.1327C198.358 30.1304 198.349 30.1286 198.341 30.1258ZM202.734 30.1317C202.742 30.1298 202.749 30.129 202.756 30.1268C202.749 30.129 202.742 30.1298 202.734 30.1317ZM175.345 30.118C175.364 30.1105 175.381 30.1017 175.398 30.0917C175.382 30.1017 175.364 30.1105 175.345 30.118ZM171.065 30.0926C171.078 30.0997 171.09 30.1054 171.104 30.1112C171.09 30.1054 171.078 30.0997 171.065 30.0926ZM198.268 30.0936C198.279 30.1004 198.292 30.1056 198.305 30.1112C198.292 30.1056 198.279 30.1004 198.268 30.0936ZM202.796 30.1112C202.808 30.1058 202.82 30.1001 202.831 30.0936C202.82 30.1001 202.808 30.1058 202.796 30.1112ZM175.467 30.0409C175.45 30.0574 175.431 30.0709 175.411 30.0838C175.431 30.0709 175.45 30.0574 175.467 30.0409ZM171.009 30.0516C171.018 30.06 171.028 30.0677 171.038 30.0751C171.028 30.0677 171.018 30.06 171.009 30.0516ZM198.212 30.0526C198.221 30.0606 198.23 30.068 198.24 30.0751C198.23 30.068 198.221 30.0606 198.212 30.0526ZM202.858 30.0751C202.868 30.068 202.878 30.0606 202.887 30.0526C202.878 30.0606 202.868 30.068 202.858 30.0751ZM138.95 30.0663C138.978 30.0617 139.004 30.0536 139.029 30.0448C139.004 30.0536 138.978 30.0617 138.95 30.0663ZM139.04 30.0399C139.06 30.0321 139.079 30.0232 139.097 30.0126C139.079 30.0232 139.06 30.0321 139.04 30.0399ZM151.871 30.0213C152.165 30.0309 152.442 30.0345 152.704 30.034C152.442 30.0345 152.165 30.0309 151.871 30.0213ZM152.845 30.0331C152.931 30.0323 153.015 30.0311 153.098 30.0292C153.015 30.0311 152.931 30.0323 152.845 30.0331ZM170.952 29.9872C170.962 30.0024 170.973 30.0169 170.985 30.0301C170.973 30.0169 170.962 30.0025 170.952 29.9872ZM198.159 29.994C198.168 30.0063 198.177 30.0182 198.187 30.0292C198.176 30.0182 198.168 30.0063 198.159 29.994ZM202.912 30.0292C202.922 30.0181 202.932 30.0065 202.94 29.994C202.932 30.0065 202.922 30.0181 202.912 30.0292ZM153.179 30.0262C153.265 30.0238 153.35 30.0213 153.433 30.0174C153.35 30.0213 153.265 30.0238 153.179 30.0262ZM151.694 30.0018H151.695H151.694ZM153.555 30.0106C153.642 30.0057 153.727 30.0005 153.81 29.994C153.727 30.0005 153.642 30.0058 153.555 30.0106ZM139.124 29.994C139.134 29.9864 139.144 29.9783 139.153 29.9696C139.144 29.9783 139.134 29.9864 139.124 29.994ZM153.85 29.9911C153.936 29.984 154.02 29.9755 154.102 29.9667C154.02 29.9755 153.936 29.984 153.85 29.9911ZM175.516 29.9774C175.527 29.9589 175.537 29.939 175.545 29.9178C175.537 29.939 175.527 29.9589 175.516 29.9774ZM170.915 29.9149C170.923 29.9369 170.934 29.9573 170.945 29.9764C170.934 29.9573 170.923 29.9369 170.915 29.9149ZM202.954 29.9725C202.965 29.9548 202.974 29.936 202.981 29.9159C202.974 29.936 202.965 29.9548 202.954 29.9725ZM198.125 29.9335C198.131 29.9466 198.136 29.9595 198.144 29.9715C198.136 29.9595 198.131 29.9466 198.125 29.9335ZM154.185 29.9579C154.265 29.9483 154.343 29.9371 154.419 29.9256C154.343 29.937 154.265 29.9483 154.185 29.9579ZM139.172 29.951C139.182 29.9396 139.192 29.9278 139.201 29.9149C139.192 29.9278 139.182 29.9396 139.172 29.951ZM154.469 29.9178C154.531 29.908 154.593 29.8978 154.652 29.8866C154.593 29.8978 154.531 29.908 154.469 29.9178ZM170.891 29.827C170.895 29.855 170.902 29.8814 170.911 29.9061C170.902 29.8814 170.895 29.855 170.891 29.827ZM202.985 29.9051C202.994 29.8805 203.002 29.8548 203.007 29.827C203.002 29.8548 202.994 29.8805 202.985 29.9051ZM139.219 29.8866C139.226 29.8731 139.233 29.8593 139.239 29.8446C139.233 29.8593 139.226 29.8731 139.219 29.8866ZM218.1 29.8778C218.106 29.8763 218.113 29.8748 218.119 29.8729C218.113 29.8748 218.106 29.8762 218.1 29.8778ZM154.771 29.8631C154.826 29.8515 154.88 29.8389 154.933 29.826C154.88 29.8389 154.826 29.8515 154.771 29.8631ZM218.149 29.8631C218.169 29.8556 218.189 29.8473 218.208 29.8358C218.189 29.8473 218.169 29.8556 218.149 29.8631ZM139.25 29.8172C139.255 29.8019 139.258 29.7859 139.262 29.7694C139.258 29.7859 139.255 29.8019 139.25 29.8172ZM154.996 29.8104C155.051 29.7962 155.104 29.7811 155.156 29.7655C155.104 29.7811 155.051 29.7962 154.996 29.8104ZM217.697 29.6825V29.6815V29.6825ZM155.258 29.7342C155.285 29.7252 155.311 29.7144 155.338 29.7049C155.311 29.7144 155.285 29.7252 155.258 29.7342ZM227.321 29.578H227.32C227.842 29.6301 228.435 29.6621 229.081 29.6815C228.436 29.6619 227.843 29.6301 227.321 29.578ZM155.466 29.6571C155.493 29.6461 155.52 29.6345 155.546 29.6229C155.52 29.6345 155.493 29.6461 155.466 29.6571ZM155.654 29.5731C155.685 29.5582 155.714 29.542 155.743 29.5262C155.714 29.542 155.685 29.5582 155.654 29.5731ZM155.828 29.4803C155.877 29.4513 155.924 29.4211 155.97 29.3895C155.924 29.421 155.877 29.4513 155.828 29.4803ZM225.127 29.2753C225.407 29.3339 225.693 29.3839 225.983 29.4266C225.693 29.3839 225.407 29.3338 225.127 29.2753ZM239.163 29.3924C239.167 29.3913 239.17 29.3907 239.174 29.3895C239.17 29.3907 239.167 29.3913 239.163 29.3924ZM155.994 29.3729C156.027 29.3496 156.057 29.3243 156.088 29.2997C156.057 29.3243 156.027 29.3496 155.994 29.3729ZM239.215 29.3729C239.222 29.3699 239.229 29.3674 239.235 29.3641C239.229 29.3674 239.222 29.3699 239.215 29.3729ZM239.271 29.3436C239.279 29.3387 239.287 29.3334 239.294 29.328C239.287 29.3334 239.279 29.3387 239.271 29.3436ZM239.321 29.3065C239.332 29.2967 239.343 29.2864 239.354 29.2753C239.343 29.2865 239.332 29.2967 239.321 29.3065ZM239.364 29.2626C239.373 29.2519 239.381 29.2403 239.39 29.2284C239.381 29.2403 239.373 29.2518 239.364 29.2626ZM156.189 29.2108C156.218 29.1843 156.247 29.1587 156.274 29.1307C156.247 29.1587 156.218 29.1843 156.189 29.2108ZM239.474 29.0555C239.46 29.0961 239.445 29.1328 239.428 29.1659C239.432 29.1568 239.438 29.1481 239.442 29.1385L239.474 29.0565V29.0555ZM125.358 29.076C125.304 29.1025 125.242 29.1194 125.172 29.1278C125.242 29.1194 125.304 29.1025 125.358 29.076ZM123.419 29.0692C123.681 29.0873 123.949 29.1023 124.222 29.1131C123.949 29.1023 123.681 29.0873 123.419 29.0692ZM156.307 29.0936C156.336 29.0616 156.365 29.0298 156.393 28.996C156.365 29.0298 156.336 29.0616 156.307 29.0936ZM122.67 29.0057C122.903 29.0288 123.141 29.0492 123.383 29.0663C123.141 29.0492 122.903 29.0288 122.67 29.0057ZM121.974 28.9256C122.135 28.9466 122.299 28.9644 122.465 28.9823C122.299 28.9644 122.135 28.9466 121.974 28.9256ZM156.432 28.9452C156.456 28.9132 156.48 28.8811 156.502 28.8475C156.48 28.8811 156.456 28.9132 156.432 28.9452ZM222.778 28.4559C223.138 28.65 223.515 28.8107 223.907 28.9452L223.521 28.8016C223.266 28.6997 223.018 28.5854 222.778 28.4559ZM121.281 28.8241C121.404 28.8442 121.529 28.8625 121.655 28.8807C121.529 28.8625 121.404 28.8442 121.281 28.8241ZM77.1484 28.8534C77.1733 28.8591 77.1988 28.8649 77.2256 28.868C77.1988 28.8649 77.1733 28.8591 77.1484 28.8534ZM48.6367 28.8651L48.7012 28.8475C48.7032 28.8468 48.705 28.8453 48.707 28.8446C48.6845 28.8527 48.6613 28.8605 48.6367 28.8651ZM53.4365 28.8446C53.4599 28.8528 53.4844 28.8605 53.5107 28.8651C53.4844 28.8605 53.4599 28.8528 53.4365 28.8446ZM58.2012 28.8651L58.2715 28.8475C58.2742 28.8466 58.2766 28.8445 58.2793 28.8436C58.2544 28.8521 58.2287 28.8604 58.2012 28.8651ZM64.2588 28.8417C64.2845 28.8512 64.3115 28.86 64.3408 28.8651C64.3115 28.86 64.2845 28.8512 64.2588 28.8417ZM68.8203 28.8651C68.8474 28.8604 68.8725 28.8522 68.8965 28.8436C68.8725 28.8522 68.8474 28.8604 68.8203 28.8651ZM82.0947 28.8651C82.1237 28.86 82.1503 28.8511 82.1758 28.8417C82.1503 28.8511 82.1237 28.86 82.0947 28.8651ZM88.1328 28.8436C88.1571 28.8523 88.1826 28.8603 88.21 28.8651C88.1825 28.8603 88.1571 28.8523 88.1328 28.8436ZM102.724 28.8651C102.751 28.8601 102.778 28.852 102.804 28.8426C102.778 28.852 102.751 28.8601 102.724 28.8651ZM140.664 28.8456V28.8446V28.8456ZM34.1006 28.8446C34.124 28.8528 34.1485 28.8605 34.1748 28.8651C34.1485 28.8605 34.124 28.8528 34.1006 28.8446ZM77.0674 28.829C77.0917 28.8383 77.117 28.8461 77.1436 28.8524C77.117 28.8461 77.0917 28.8383 77.0674 28.829ZM64.1914 28.8085C64.2066 28.8178 64.2223 28.8265 64.2393 28.8338C64.2223 28.8265 64.2066 28.8178 64.1914 28.8085ZM82.1953 28.8338C82.2123 28.8265 82.2279 28.8177 82.2432 28.8085C82.2279 28.8177 82.2123 28.8265 82.1953 28.8338ZM58.3105 28.8319C58.3273 28.8247 58.3431 28.8164 58.3584 28.8075C58.3431 28.8164 58.3273 28.8247 58.3105 28.8319ZM68.9248 28.8319C68.9403 28.825 68.9547 28.817 68.9688 28.8085C68.9547 28.817 68.9403 28.825 68.9248 28.8319ZM88.0605 28.8085C88.0746 28.817 88.089 28.825 88.1045 28.8319C88.089 28.825 88.0746 28.817 88.0605 28.8085ZM102.828 28.8319C102.843 28.8254 102.858 28.8184 102.872 28.8104C102.858 28.8184 102.843 28.8254 102.828 28.8319ZM48.7393 28.8309C48.7543 28.824 48.7683 28.816 48.7822 28.8075C48.7683 28.816 48.7543 28.824 48.7393 28.8309ZM53.3643 28.8104C53.376 28.8175 53.3886 28.8231 53.4014 28.829C53.3886 28.8231 53.376 28.8175 53.3643 28.8104ZM34.0244 28.8075C34.0369 28.8152 34.0498 28.8225 34.0635 28.829C34.0498 28.8226 34.037 28.8152 34.0244 28.8075ZM76.9961 28.7958C77.0161 28.807 77.0368 28.8172 77.0586 28.826C77.0367 28.8173 77.0161 28.807 76.9961 28.7958ZM58.4883 28.6854C58.4592 28.7289 58.4234 28.7657 58.3799 28.7948C58.4234 28.7657 58.4591 28.7288 58.4883 28.6854ZM33.9053 28.6893C33.9313 28.7313 33.9643 28.7664 34.0039 28.7948C33.9642 28.7665 33.9313 28.7313 33.9053 28.6893ZM53.2412 28.6893C53.2664 28.7301 53.2978 28.7649 53.3359 28.7928C53.2978 28.7649 53.2665 28.7301 53.2412 28.6893ZM69.0938 28.6825C69.0675 28.7267 69.034 28.7633 68.9932 28.7928C69.0341 28.7633 69.0675 28.7266 69.0938 28.6825ZM87.9355 28.6825C87.9616 28.7264 87.9947 28.7633 88.0352 28.7928C87.9947 28.7633 87.9615 28.7264 87.9355 28.6825ZM48.9072 28.6854C48.8797 28.7278 48.8467 28.7641 48.8066 28.7928C48.8467 28.7641 48.8796 28.7278 48.9072 28.6854ZM64.0664 28.6825C64.0919 28.7256 64.1246 28.7616 64.1641 28.7909C64.1246 28.7616 64.0919 28.7256 64.0664 28.6825ZM76.9365 28.7567C76.9527 28.7691 76.9696 28.7804 76.9873 28.7909C76.9696 28.7804 76.9527 28.7691 76.9365 28.7567ZM82.3682 28.6825C82.3427 28.7254 82.3108 28.7617 82.2715 28.7909C82.3108 28.7617 82.3427 28.7254 82.3682 28.6825ZM102.903 28.7909C102.916 28.7821 102.929 28.7727 102.94 28.7626C102.929 28.7727 102.916 28.7821 102.903 28.7909ZM156.549 28.7713C156.566 28.7431 156.583 28.7147 156.599 28.6854C156.583 28.7147 156.566 28.7431 156.549 28.7713ZM120.631 28.7059C120.738 28.7272 120.847 28.7476 120.957 28.7674C120.847 28.7476 120.738 28.7272 120.631 28.7059ZM76.8799 28.7059C76.8929 28.7195 76.9066 28.7321 76.9209 28.744C76.9066 28.7321 76.8929 28.7195 76.8799 28.7059ZM102.979 28.7264C102.991 28.7125 103.004 28.6982 103.015 28.6825C103.004 28.6982 102.991 28.7125 102.979 28.7264ZM140.429 28.5487C140.433 28.5778 140.441 28.6051 140.45 28.6307C140.432 28.5796 140.422 28.5208 140.422 28.4559L140.429 28.5487ZM76.834 28.6512C76.8435 28.6641 76.853 28.6766 76.8633 28.6883C76.853 28.6766 76.8434 28.6641 76.834 28.6512ZM64.0312 28.6073C64.0389 28.6287 64.0483 28.6487 64.0586 28.6678C64.0483 28.6487 64.0389 28.6287 64.0312 28.6073ZM69.1016 28.6678C69.1109 28.6505 69.1188 28.6324 69.126 28.6131C69.1188 28.6324 69.1109 28.6505 69.1016 28.6678ZM82.376 28.6678C82.3853 28.6505 82.3932 28.6324 82.4004 28.6131C82.3932 28.6324 82.3853 28.6505 82.376 28.6678ZM87.9033 28.6131C87.9105 28.6323 87.9184 28.6505 87.9277 28.6678C87.9184 28.6505 87.9105 28.6323 87.9033 28.6131ZM103.027 28.6629C103.038 28.6453 103.048 28.6268 103.057 28.6073C103.048 28.6268 103.038 28.6453 103.027 28.6629ZM48.9219 28.6629C48.9311 28.6465 48.939 28.6293 48.9463 28.6112C48.939 28.6293 48.9311 28.6465 48.9219 28.6629ZM58.5039 28.66C58.5119 28.6459 58.5189 28.6314 58.5254 28.6161C58.5189 28.6313 58.5119 28.646 58.5039 28.66ZM53.207 28.619C53.2117 28.6312 53.2171 28.6428 53.2227 28.6542C53.2171 28.6428 53.2117 28.6312 53.207 28.619ZM33.8711 28.619C33.8758 28.6312 33.8811 28.6428 33.8867 28.6542C33.8811 28.6428 33.8758 28.6312 33.8711 28.619ZM120.006 28.5712C120.101 28.5936 120.198 28.6144 120.295 28.6356C120.198 28.6144 120.101 28.5936 120.006 28.5712ZM156.627 28.6307C156.644 28.5969 156.661 28.5624 156.677 28.5272C156.661 28.5624 156.644 28.5969 156.627 28.6307ZM103.062 28.5926C103.073 28.5655 103.083 28.5371 103.089 28.5067C103.083 28.5371 103.073 28.5655 103.062 28.5926ZM53.1914 28.576C53.1922 28.5787 53.1935 28.5812 53.1943 28.5838C53.187 28.5594 53.1808 28.5337 53.1768 28.5067L53.1914 28.576ZM64.0205 28.577C64.0212 28.5794 64.0227 28.5815 64.0234 28.5838C64.0161 28.5594 64.0099 28.5337 64.0059 28.5067L64.0205 28.577ZM82.4121 28.5838C82.4194 28.5594 82.4256 28.5337 82.4297 28.5067C82.4256 28.5337 82.4194 28.5594 82.4121 28.5838ZM87.875 28.5067C87.879 28.5337 87.8852 28.5594 87.8926 28.5838C87.8852 28.5594 87.879 28.5337 87.875 28.5067ZM33.8555 28.576C33.8562 28.5787 33.8576 28.5812 33.8584 28.5838C33.8511 28.5594 33.8449 28.5337 33.8408 28.5067L33.8555 28.576ZM119.396 28.4149C119.492 28.4413 119.589 28.467 119.687 28.4921C119.589 28.467 119.492 28.4413 119.396 28.4149ZM156.729 28.4042C156.735 28.3903 156.74 28.3762 156.745 28.3622C156.74 28.3762 156.735 28.3903 156.729 28.4042ZM118.837 28.2489C118.918 28.2747 119 28.2993 119.083 28.3241C119 28.2993 118.918 28.2747 118.837 28.2489ZM156.783 28.2557C156.795 28.2202 156.806 28.1841 156.817 28.1473C156.806 28.1841 156.795 28.2202 156.783 28.2557ZM118.273 28.0565C118.358 28.0874 118.444 28.1176 118.53 28.1473C118.444 28.1176 118.358 28.0874 118.273 28.0565ZM156.842 28.0633C156.851 28.0296 156.86 27.9955 156.868 27.9608C156.86 27.9955 156.851 28.0296 156.842 28.0633ZM221.288 27.3358C221.439 27.49 221.594 27.6339 221.755 27.7674C221.594 27.6339 221.438 27.49 221.288 27.3358ZM117.7 27.8319C117.806 27.8762 117.912 27.9204 118.021 27.9628C117.912 27.9204 117.806 27.8762 117.7 27.8319ZM156.896 27.8417C156.902 27.8105 156.908 27.7789 156.914 27.7469C156.908 27.7789 156.902 27.8105 156.896 27.8417ZM117.219 27.6171C117.321 27.6655 117.425 27.7141 117.531 27.7606C117.425 27.7141 117.321 27.6655 117.219 27.6171ZM156.937 27.6249C156.944 27.5797 156.951 27.5338 156.958 27.4872C156.951 27.5338 156.944 27.5797 156.937 27.6249ZM116.754 27.3837C116.846 27.4324 116.938 27.4811 117.033 27.5282C116.938 27.4811 116.846 27.4324 116.754 27.3837ZM116.296 27.1258C116.391 27.1826 116.487 27.239 116.586 27.2938C116.487 27.239 116.391 27.1826 116.296 27.1258ZM156.999 27.1493C157.011 27.0256 157.019 26.8974 157.027 26.7645C157.019 26.8974 157.011 27.0256 156.999 27.1493ZM115.03 26.2176C115.368 26.5097 115.743 26.7854 116.157 27.0428C115.743 26.7854 115.368 26.5097 115.03 26.2176ZM185.19 26.9628L185.253 26.9481C185.257 26.9467 185.261 26.9438 185.266 26.9422C185.242 26.9505 185.217 26.9584 185.19 26.9628ZM185.281 26.9364C185.3 26.9289 185.318 26.9201 185.335 26.91C185.318 26.92 185.3 26.9289 185.281 26.9364ZM185.446 26.8036C185.42 26.8434 185.388 26.8763 185.348 26.9022C185.387 26.8762 185.42 26.8435 185.446 26.8036ZM185.458 26.784C185.465 26.7719 185.471 26.7592 185.477 26.746C185.471 26.7592 185.465 26.7719 185.458 26.784ZM185.489 26.7137C185.496 26.692 185.503 26.6695 185.507 26.6454C185.503 26.6695 185.496 26.692 185.489 26.7137ZM114.694 25.909C114.757 25.9697 114.822 26.0283 114.888 26.0878C114.822 26.0283 114.757 25.9697 114.694 25.909ZM215.484 25.9217V25.9227V25.9217ZM215.542 25.7792V25.7801V25.7792ZM114.401 25.6092C114.455 25.6672 114.511 25.7231 114.567 25.7801C114.511 25.7231 114.455 25.6672 114.401 25.6092ZM114.136 25.3046C114.18 25.3583 114.227 25.4107 114.273 25.4637C114.227 25.4107 114.18 25.3583 114.136 25.3046ZM234.462 25.286C233.742 25.3153 233.05 25.3348 232.387 25.3446L231.415 25.3524C232.364 25.3524 233.382 25.33 234.462 25.286ZM228.272 25.243V25.2421V25.243ZM226.239 25.0008C226.47 25.0507 226.715 25.0913 226.974 25.1249C226.715 25.0913 226.47 25.0507 226.239 25.0008ZM113.886 24.9842C113.917 25.0273 113.95 25.0695 113.983 25.1122C113.95 25.0695 113.917 25.0273 113.886 24.9842ZM189.776 25.0643C189.801 25.0731 189.827 25.0802 189.855 25.0848C189.827 25.0802 189.801 25.0731 189.776 25.0643ZM211.427 25.0848L211.489 25.0702C211.494 25.0688 211.498 25.0658 211.502 25.0643C211.478 25.0725 211.453 25.0804 211.427 25.0848ZM211.518 25.0585C211.537 25.051 211.554 25.0421 211.571 25.0321C211.554 25.0421 211.537 25.051 211.518 25.0585ZM189.707 25.0311C189.723 25.0406 189.739 25.0482 189.757 25.0555C189.739 25.0483 189.723 25.0405 189.707 25.0311ZM211.641 24.9813C211.624 24.998 211.604 25.0112 211.584 25.0243C211.604 25.0112 211.624 24.998 211.641 24.9813ZM189.651 24.9891C189.663 24.9997 189.676 25.0084 189.688 25.0174C189.676 25.0084 189.663 24.9997 189.651 24.9891ZM189.604 24.9344C189.613 24.9464 189.621 24.958 189.631 24.9686C189.621 24.958 189.613 24.9464 189.604 24.9344ZM211.688 24.9178C211.7 24.8993 211.709 24.8795 211.718 24.8583C211.709 24.8795 211.7 24.8993 211.688 24.9178ZM189.567 24.8661C189.573 24.8796 189.579 24.8927 189.586 24.9051C189.579 24.8927 189.573 24.8796 189.567 24.8661ZM189.544 24.7879C189.548 24.8062 189.551 24.8239 189.557 24.8407C189.551 24.8239 189.548 24.8062 189.544 24.7879ZM225.286 24.7157L225.287 24.7147L225.286 24.7157ZM113.65 24.6444C113.682 24.6926 113.714 24.7402 113.747 24.7879C113.714 24.7402 113.682 24.6926 113.65 24.6444ZM113.442 24.3016C113.471 24.3523 113.501 24.4027 113.531 24.453C113.501 24.4027 113.471 24.3523 113.442 24.3016ZM224.494 24.2977H224.495H224.494ZM237.31 24.3612L237.235 24.3563C237.259 24.36 237.283 24.3622 237.31 24.3622C237.336 24.3622 237.362 24.3584 237.388 24.3514L237.31 24.3612ZM237.622 24.1786V24.1796V24.1786ZM102.724 24.2137V24.2128V24.2137ZM126.155 24.1629V24.162V24.1629ZM113.25 23.9383C113.284 24.0067 113.318 24.0748 113.354 24.1424C113.318 24.0748 113.284 24.0067 113.25 23.9383ZM125.869 24.1004C125.94 24.1004 126.002 24.1099 126.057 24.1249C126.032 24.1182 126.007 24.1111 125.979 24.1073L125.869 24.1004ZM123.621 24.0301C124.305 24.089 125.054 24.1153 125.869 24.1004C125.054 24.1153 124.305 24.0889 123.621 24.0301ZM123.183 23.9872C123.283 23.9984 123.384 24.0097 123.487 24.0194C123.384 24.0097 123.283 23.9984 123.183 23.9872ZM223.472 23.2645C223.644 23.5176 223.834 23.7412 224.045 23.9383L223.842 23.7323C223.645 23.5171 223.466 23.2748 223.305 23.0018L223.472 23.2645ZM113.089 23.5858C113.118 23.6541 113.147 23.7222 113.179 23.7899C113.147 23.7222 113.118 23.6541 113.089 23.5858ZM48.6367 23.7694L48.6357 23.7684L48.6367 23.7694ZM185.486 23.4042C185.505 23.4554 185.515 23.514 185.515 23.579L185.508 23.4862C185.503 23.4571 185.496 23.4297 185.486 23.4042ZM231.669 21.121C231.117 21.9658 230.507 22.7634 229.848 23.4872C230.345 23.5052 230.868 23.5194 231.415 23.5194C232.084 23.5194 232.791 23.5069 233.532 23.4842C232.872 22.7613 232.243 21.9707 231.669 21.121ZM112.942 23.2069C112.969 23.2817 112.996 23.3563 113.025 23.4305C112.996 23.3563 112.969 23.2817 112.942 23.2069ZM112.829 22.8563C112.851 22.9304 112.873 23.0044 112.897 23.078C112.873 23.0044 112.851 22.9304 112.829 22.8563ZM112.737 22.5096C112.753 22.5745 112.768 22.6394 112.785 22.704C112.768 22.6394 112.753 22.5745 112.737 22.5096ZM112.665 22.1659C112.676 22.2229 112.685 22.28 112.697 22.3368C112.685 22.28 112.676 22.2229 112.665 22.1659ZM121.011 17.6532C119.993 18.5807 119.54 19.463 119.54 20.1366L119.547 20.2665C119.583 20.5824 119.773 20.9844 120.516 21.3905C121.167 21.7469 122.188 22.0574 123.675 22.1952C123.261 21.9056 123.018 21.5235 122.879 21.2069L122.816 21.0506L122.813 21.0419L122.811 21.034C122.448 20.0059 121.928 18.97 121.348 18.1239L121.095 17.7743L121.036 17.6952L121.011 17.6532ZM112.595 21.703C112.605 21.7897 112.616 21.8764 112.629 21.9628C112.616 21.8764 112.605 21.7897 112.595 21.703ZM229.942 20.412C229.723 20.7347 229.494 21.0479 229.258 21.3495C229.494 21.0479 229.723 20.7347 229.942 20.412ZM112.58 21.5917C112.581 21.5959 112.582 21.6001 112.582 21.6044C112.569 21.4796 112.559 21.3546 112.553 21.2294L112.58 21.5917ZM117.968 21.3446C117.982 21.3748 117.999 21.4036 118.014 21.4335C117.994 21.3938 117.973 21.3545 117.955 21.3143L117.968 21.3446ZM140.43 21.0868C140.434 21.0578 140.441 21.0303 140.45 21.0047C140.431 21.0559 140.422 21.1146 140.422 21.1796L140.43 21.0868ZM126.985 19.9618C126.955 19.9786 126.922 19.9928 126.887 20.0057L125.165 20.7108C125.087 20.7433 125.015 20.759 124.95 20.7606C125.015 20.759 125.087 20.7433 125.165 20.7108L126.887 20.0067C126.922 19.9937 126.955 19.9787 126.985 19.9618ZM240.369 20.5594C240.373 20.5525 240.376 20.5457 240.379 20.5389C240.376 20.5457 240.373 20.5525 240.369 20.5594ZM112.596 19.9374C112.572 20.138 112.557 20.339 112.549 20.5399L112.566 20.2391C112.574 20.1388 112.584 20.0385 112.596 19.9383V19.9374ZM101.357 20.2753C101.374 20.2713 101.39 20.267 101.405 20.2616C101.39 20.267 101.374 20.2713 101.357 20.2753ZM101.437 20.2479C101.451 20.2417 101.464 20.2359 101.478 20.2284C101.464 20.2359 101.451 20.2417 101.437 20.2479ZM101.512 20.2059C101.524 20.1972 101.536 20.1885 101.547 20.1786C101.536 20.1885 101.524 20.1972 101.512 20.2059ZM101.572 20.1532C101.583 20.1412 101.593 20.1284 101.603 20.1151C101.593 20.1284 101.583 20.1412 101.572 20.1532ZM101.621 20.0887C101.631 20.0719 101.64 20.0546 101.648 20.036C101.641 20.0546 101.631 20.0719 101.621 20.0887ZM117.84 19.1678C117.767 19.4323 117.724 19.7009 117.711 19.9725C117.719 19.8095 117.738 19.6477 117.768 19.4872C117.787 19.3801 117.812 19.2737 117.841 19.1678H117.84ZM101.658 20.0126C101.668 19.9855 101.676 19.957 101.682 19.9266C101.676 19.957 101.668 19.9855 101.658 20.0126ZM223.799 19.8026C224.009 19.6596 224.213 19.5105 224.41 19.3573C224.114 19.5871 223.804 19.8062 223.479 20.0126L223.799 19.8026ZM238.905 19.2479C239.037 19.3475 239.172 19.4446 239.311 19.5399C239.034 19.3495 238.772 19.1504 238.521 18.9432L238.905 19.2479ZM128.652 19.3124C128.616 19.3208 128.582 19.3252 128.549 19.326L128.55 19.327C128.582 19.3262 128.617 19.3217 128.652 19.3133V19.3124ZM216.351 19.0907C216.376 19.0997 216.402 19.1075 216.431 19.1122L216.523 19.12H218.662V19.119H216.523C216.459 19.119 216.401 19.109 216.351 19.0907ZM216.285 19.0604C216.302 19.0703 216.32 19.0783 216.339 19.0858C216.32 19.0783 216.302 19.0704 216.285 19.0604ZM216.23 19.0194C216.238 19.0266 216.247 19.0325 216.256 19.0389C216.247 19.0325 216.238 19.0266 216.23 19.0194ZM216.179 18.9608C216.187 18.9726 216.196 18.9835 216.205 18.994C216.196 18.9835 216.187 18.9726 216.179 18.9608ZM216.143 18.8934C216.149 18.9077 216.155 18.9214 216.162 18.9344C216.155 18.9214 216.149 18.9077 216.143 18.8934ZM216.12 18.8231C216.123 18.8379 216.127 18.8522 216.132 18.8661C216.127 18.8522 216.123 18.8379 216.12 18.8231ZM118.216 18.2342C118.162 18.3356 118.112 18.438 118.066 18.5409L118.217 18.2342C118.271 18.1328 118.328 18.0322 118.39 17.9325L118.216 18.2342ZM119.551 16.5116C119.459 16.6007 119.371 16.6916 119.284 16.7831C119.457 16.6001 119.64 16.4212 119.833 16.2479L119.551 16.5116ZM225.062 12.2948C224.946 12.42 224.828 12.5238 224.718 12.6063L224.693 12.6239L224.668 12.6415L223.889 13.1854C224.043 13.2751 224.194 13.3863 224.334 13.5262C224.825 14.0174 224.981 14.6318 224.981 15.1297V16.2362C225.912 15.0741 226.574 13.73 226.987 12.2948H225.062ZM101.323 15.7889C101.356 15.7938 101.386 15.8008 101.415 15.8104C101.358 15.7912 101.292 15.7811 101.221 15.7811L101.323 15.7889ZM128.744 14.5995H128.745H128.744ZM121.418 15.0516H121.419H121.418ZM223.119 14.954H223.12H223.119ZM222.823 14.7196V14.7186V14.7196ZM124.232 13.6532C123.776 13.8212 123.308 14.0214 122.844 14.2499C123.071 14.1378 123.3 14.0324 123.527 13.9344C123.764 13.8325 124 13.7389 124.233 13.6532H124.232ZM127.844 14.0526C127.812 14.0615 127.78 14.0727 127.747 14.0858C127.812 14.0597 127.876 14.042 127.938 14.0331L127.844 14.0526ZM117.264 12.9676C117.099 13.0623 116.937 13.1617 116.778 13.2665C116.937 13.1617 117.099 13.0623 117.264 12.9676ZM223.617 11.1385V11.1395V11.1385ZM128.712 12.8387C128.639 12.8873 128.543 12.9119 128.426 12.912C128.23 12.912 128.037 12.9172 127.848 12.9266C128.037 12.9173 128.23 12.9129 128.426 12.9129C128.543 12.9129 128.639 12.8875 128.712 12.8387ZM194.095 12.6522H198.111V12.6512L194.095 12.6522ZM202.962 12.6522H207.161V12.6512H202.962V12.6522ZM102.385 12.3046C102.415 12.2991 102.443 12.2896 102.471 12.2792C102.443 12.2896 102.415 12.2991 102.385 12.3046ZM102.477 12.2772C102.499 12.2686 102.519 12.2577 102.539 12.246C102.519 12.2577 102.499 12.2686 102.477 12.2772ZM102.676 12.1219C102.645 12.1666 102.605 12.2035 102.561 12.2333C102.605 12.2035 102.645 12.1666 102.676 12.1219ZM102.684 12.1092C102.696 12.0902 102.706 12.07 102.716 12.0487C102.706 12.07 102.696 12.0902 102.684 12.1092ZM157.033 11.6942C157.052 11.7454 157.061 11.804 157.062 11.869L157.055 11.7762C157.05 11.7471 157.043 11.7198 157.033 11.6942ZM140.553 11.3212C140.39 11.3374 140.268 11.3031 140.18 11.2176C140.215 11.2518 140.255 11.2778 140.302 11.2958C140.348 11.3138 140.401 11.3244 140.46 11.326C140.489 11.3269 140.52 11.3254 140.553 11.3221L143.865 10.9042L140.553 11.3212ZM151.976 11.3212V11.3221V11.3212ZM155.836 10.7958C155.813 10.8243 155.784 10.8487 155.748 10.869C155.784 10.8487 155.813 10.8243 155.836 10.7958ZM144.057 10.2518H144.058L143.943 10.0956L144.057 10.2518ZM133.428 10.0077V10.0067V10.0077ZM133.376 9.66002C133.366 9.67613 133.358 9.692 133.352 9.70787C133.358 9.69197 133.366 9.67617 133.376 9.66002ZM133.403 9.61803C133.401 9.62065 133.399 9.62322 133.397 9.62584C133.415 9.60118 133.436 9.57659 133.461 9.5526L133.403 9.61803ZM134.039 9.0858C134.196 8.95118 134.351 8.81043 134.503 8.6649C134.351 8.81042 134.196 8.95118 134.039 9.0858ZM175.759 8.94908C175.735 8.87841 175.712 8.80718 175.688 8.73619C175.712 8.80718 175.735 8.87841 175.759 8.94908ZM211.751 8.81822C211.751 8.78888 211.748 8.76087 211.744 8.73424C211.748 8.76081 211.751 8.78895 211.751 8.81822ZM189.557 8.65025C189.553 8.66208 189.551 8.6748 189.548 8.68736C189.551 8.67479 189.553 8.66208 189.557 8.65025ZM211.734 8.68736C211.731 8.67532 211.728 8.66357 211.725 8.65221C211.728 8.66358 211.731 8.67531 211.734 8.68736ZM211.713 8.62193C211.707 8.60762 211.7 8.59396 211.692 8.58092C211.7 8.59396 211.707 8.60761 211.713 8.62193ZM189.586 8.58678C189.58 8.59746 189.574 8.60847 189.569 8.61998C189.574 8.60846 189.58 8.59746 189.586 8.58678ZM211.679 8.56041C211.67 8.54724 211.66 8.53493 211.649 8.5233C211.66 8.53494 211.67 8.54724 211.679 8.56041ZM189.631 8.52428C189.622 8.53422 189.613 8.54447 189.605 8.55553C189.613 8.54447 189.622 8.53422 189.631 8.52428ZM175.62 8.54967C175.589 8.46472 175.559 8.37918 175.526 8.29381C175.559 8.37918 175.589 8.46471 175.62 8.54967ZM211.63 8.50279C211.619 8.49272 211.607 8.48409 211.595 8.47545C211.607 8.48409 211.619 8.49272 211.63 8.50279ZM189.682 8.47838C189.671 8.48582 189.662 8.49337 189.652 8.50182C189.662 8.49337 189.671 8.48582 189.682 8.47838ZM211.572 8.45982C211.555 8.44967 211.537 8.44104 211.518 8.43346C211.537 8.44104 211.555 8.44967 211.572 8.45982ZM107.686 8.35728H107.687H107.686ZM64.0625 7.83971C64.0341 7.8891 64.0145 7.94678 64.0049 8.01158C64.0145 7.94678 64.0342 7.88909 64.0625 7.83971ZM102.76 8.11412L102.753 8.0233C102.752 8.01932 102.751 8.01551 102.75 8.01158C102.756 8.04392 102.76 8.0784 102.76 8.11412ZM175.447 8.09166C175.421 8.02572 175.395 7.95959 175.368 7.89342C175.395 7.95959 175.421 8.02572 175.447 8.09166ZM102.75 8.01158L102.731 7.94127C102.73 7.93618 102.727 7.9316 102.725 7.92662C102.735 7.95346 102.744 7.98158 102.75 8.01158ZM135.752 7.27037C135.63 7.43037 135.501 7.59062 135.366 7.74889C135.501 7.59061 135.63 7.43038 135.752 7.27037ZM58.5469 7.96373C58.544 7.95313 58.5416 7.94263 58.5381 7.93248C58.5416 7.94263 58.544 7.95312 58.5469 7.96373ZM39.2109 7.96373C39.2081 7.95313 39.2056 7.94263 39.2021 7.93248C39.2056 7.94263 39.2081 7.95312 39.2109 7.96373ZM87.8936 7.93346C87.8913 7.94111 87.8897 7.94899 87.8877 7.95689C87.8897 7.94898 87.8912 7.94111 87.8936 7.93346ZM102.709 7.89342C102.703 7.8803 102.696 7.86752 102.688 7.85533C102.696 7.86753 102.703 7.88029 102.709 7.89342ZM58.5215 7.89244C58.5156 7.8794 58.51 7.86648 58.5029 7.85436C58.51 7.86649 58.5156 7.87939 58.5215 7.89244ZM39.1855 7.89244C39.1796 7.87925 39.1731 7.86661 39.166 7.85436C39.1731 7.86662 39.1796 7.87924 39.1855 7.89244ZM87.9238 7.85631C87.9193 7.86505 87.9161 7.87443 87.9121 7.88365C87.9161 7.87443 87.9193 7.86506 87.9238 7.85631ZM102.664 7.82018C102.655 7.80819 102.645 7.79685 102.635 7.786C102.645 7.79687 102.655 7.80817 102.664 7.82018ZM39.1445 7.82018C39.1355 7.80771 39.1255 7.79627 39.1152 7.78502C39.1256 7.79628 39.1355 7.8077 39.1445 7.82018ZM58.4785 7.81822C58.4702 7.80694 58.4615 7.79627 58.4521 7.786C58.4615 7.79628 58.4702 7.80693 58.4785 7.81822ZM87.9668 7.79088C87.9597 7.79973 87.9526 7.80865 87.9463 7.81822C87.9526 7.80864 87.9597 7.79974 87.9668 7.79088ZM64.1758 7.71764H64.1748H64.1758ZM39.0928 7.76256C39.0795 7.75027 39.0657 7.73884 39.0508 7.72838C39.0657 7.73885 39.0795 7.75027 39.0928 7.76256ZM58.4277 7.76158C58.4148 7.74966 58.4013 7.73858 58.3867 7.72838C58.4013 7.73858 58.4148 7.74965 58.4277 7.76158ZM102.609 7.76158C102.593 7.74736 102.577 7.73427 102.559 7.72252C102.577 7.7343 102.593 7.74733 102.609 7.76158ZM88.0312 7.72936C88.0184 7.73904 88.0055 7.74839 87.9941 7.75963C88.0055 7.74838 88.0184 7.73905 88.0312 7.72936ZM58.3662 7.71373C58.3482 7.7027 58.3287 7.69389 58.3086 7.68541C58.3287 7.6939 58.3482 7.70269 58.3662 7.71373ZM88.1025 7.68639C88.0844 7.69459 88.0669 7.70322 88.0508 7.71373C88.0669 7.70321 88.0844 7.6946 88.1025 7.68639ZM102.546 7.71373C102.528 7.70307 102.509 7.69465 102.49 7.68639C102.509 7.69467 102.528 7.70305 102.546 7.71373ZM39.0303 7.71373C39.0122 7.7027 38.9928 7.69389 38.9727 7.68541C38.9928 7.69389 39.0122 7.70269 39.0303 7.71373ZM58.2871 7.67564C58.2727 7.67043 58.2575 7.66688 58.2422 7.66295C58.2575 7.66688 58.2727 7.67043 58.2871 7.67564ZM102.468 7.67564C102.455 7.67075 102.441 7.66769 102.427 7.66393C102.441 7.66769 102.455 7.67074 102.468 7.67564ZM38.9512 7.67564C38.9368 7.67043 38.9216 7.66688 38.9062 7.66295C38.9216 7.66688 38.9367 7.67043 38.9512 7.67564ZM175.265 7.64439C175.231 7.56447 175.196 7.48439 175.161 7.40416C175.196 7.48439 175.231 7.56447 175.265 7.64439ZM175.088 7.24107C175.045 7.14658 175.002 7.05178 174.958 6.95689C175.002 7.05178 175.045 7.14657 175.088 7.24107ZM158.063 7.00279C158.06 6.98633 158.057 6.97017 158.052 6.95494C158.057 6.97018 158.06 6.98633 158.063 7.00279ZM178.347 6.95689C178.368 6.9137 178.392 6.87123 178.413 6.82799L178.441 6.76842C178.41 6.83139 178.378 6.89402 178.347 6.95689ZM158.041 6.92857C158.034 6.91283 158.027 6.89786 158.019 6.88365C158.027 6.89786 158.034 6.91283 158.041 6.92857ZM158.006 6.8651C157.997 6.85193 157.987 6.83963 157.977 6.82799C157.987 6.83962 157.997 6.85193 158.006 6.8651ZM157.956 6.8065C157.947 6.79806 157.937 6.7905 157.927 6.78307C157.937 6.79049 157.947 6.79807 157.956 6.8065ZM174.867 6.76353C174.835 6.69577 174.801 6.62835 174.768 6.56041C174.801 6.62835 174.835 6.69577 174.867 6.76353ZM157.897 6.76256C157.882 6.75332 157.864 6.74618 157.847 6.73912C157.864 6.74617 157.882 6.75333 157.897 6.76256ZM157.833 6.73326C157.808 6.72444 157.782 6.71735 157.754 6.71275C157.782 6.71735 157.808 6.72445 157.833 6.73326ZM169.833 6.44518C169.8 6.46716 169.774 6.49152 169.754 6.51842C169.774 6.49153 169.8 6.46713 169.833 6.44518ZM198.066 5.90904C198.062 5.93625 198.059 5.96486 198.059 5.99498C198.059 5.96488 198.062 5.93623 198.066 5.90904ZM202.985 5.82603C202.995 5.85195 203.003 5.8795 203.008 5.90904C202.998 5.8504 202.979 5.79871 202.951 5.75475L202.985 5.82603ZM198.086 5.83287C198.081 5.84694 198.078 5.86169 198.074 5.87682C198.078 5.86169 198.081 5.84695 198.086 5.83287ZM198.118 5.76353C198.11 5.77741 198.103 5.79215 198.097 5.80748C198.103 5.79214 198.11 5.77742 198.118 5.76353ZM167.256 5.73619C167.184 5.72027 167.107 5.72149 167.023 5.7401C167.107 5.72152 167.184 5.7205 167.256 5.73619ZM198.16 5.70592C198.15 5.7165 198.142 5.72824 198.134 5.7401C198.142 5.72821 198.15 5.71652 198.16 5.70592ZM198.216 5.65807C198.202 5.66759 198.189 5.67707 198.177 5.68834C198.189 5.67704 198.202 5.66761 198.216 5.65807ZM202.689 5.59166V5.59068V5.59166Z" fill="#BF8E1D"/>
<path d="M223.774 8.56618C223.878 8.8009 223.826 8.98346 223.617 9.13994L220.41 11.3828C220.331 11.435 220.227 11.4611 220.149 11.4611C220.018 11.4611 219.914 11.3828 219.836 11.2263C219.027 9.60938 217.776 7.8881 216.445 6.68842C216.341 6.5841 216.289 6.47978 216.289 6.37546C216.289 6.27114 216.341 6.16682 216.472 6.08858L219.497 3.95002C219.575 3.89786 219.679 3.8457 219.758 3.8457C219.862 3.8457 219.966 3.89786 220.071 3.9761C221.557 5.17578 222.939 6.92314 223.774 8.56618ZM223.148 18.2158C226.721 16.1033 228.625 12.5564 229.172 8.85306C229.172 8.77482 229.199 8.72266 229.225 8.6705V8.46186H225.052C224.791 8.46186 224.635 8.30538 224.635 8.04458V4.54986C224.635 4.28906 224.791 4.13258 225.052 4.13258H233.658C233.919 4.13258 234.076 4.28906 234.076 4.57594C234.023 10.2614 235.327 15.3209 240.178 18.0854C240.335 18.1636 240.413 18.2679 240.413 18.3983C240.413 18.4766 240.387 18.5548 240.309 18.6591L237.622 22.1799C237.518 22.3103 237.414 22.3625 237.309 22.3625C237.205 22.3625 237.127 22.3364 237.023 22.2582C234.936 20.5891 232.876 18.1636 231.65 15.2948C230.398 18.2158 228.364 20.8499 226.121 22.3103C226.017 22.3625 225.939 22.3886 225.86 22.3886C225.756 22.3886 225.652 22.3364 225.547 22.206L223.148 19.2068V20.7195C223.956 22.2843 225.182 22.9623 227.373 23.171C228.52 23.2753 229.877 23.3535 231.415 23.3535C233.945 23.3535 236.97 23.1971 240.335 22.8841C240.674 22.858 240.83 23.0406 240.726 23.3275L239.474 27.0569C239.396 27.2916 239.265 27.3959 239.031 27.422C236.605 27.6046 233.684 27.7089 231.155 27.7089C229.694 27.7089 228.364 27.6828 227.321 27.5785C224.895 27.3699 222.705 26.9004 221.14 25.1791C220.357 26.0919 219.314 26.9787 218.271 27.7871C218.193 27.8654 218.088 27.8915 218.01 27.8915C217.906 27.8915 217.776 27.8132 217.697 27.6828L215.559 24.2142C215.507 24.1359 215.48 24.0316 215.48 23.9795C215.48 23.823 215.559 23.7187 215.741 23.6404C216.811 23.1449 217.854 22.4407 218.662 21.7366V17.1204H216.524C216.263 17.1204 216.106 16.9639 216.106 16.7031V13.1302C216.106 12.8694 216.263 12.7129 216.524 12.7129H222.731C222.992 12.7129 223.148 12.8694 223.148 13.1302V18.2158Z" fill="white"/>
<path d="M198.059 4.00224C198.059 3.74144 198.215 3.58496 198.476 3.58496H202.597C202.858 3.58496 203.014 3.74144 203.014 4.00224V6.4016H211.334C211.594 6.4016 211.751 6.55808 211.751 6.81888V22.6755C211.751 22.9363 211.594 23.0928 211.334 23.0928H203.014V27.735C203.014 27.9958 202.858 28.1523 202.597 28.1523H198.502C198.241 28.1523 198.085 27.9958 198.085 27.735V23.0928H189.948C189.687 23.0928 189.531 22.9363 189.531 22.6755V6.81888C189.531 6.55808 189.687 6.4016 189.948 6.4016H198.059V4.00224ZM198.111 10.6526H194.095V12.713L198.111 12.739V10.6526ZM202.962 12.7651L207.161 12.7912V10.6526H202.962V12.7651ZM198.111 16.5206L194.095 16.4946V18.8678H198.111V16.5206ZM207.161 16.5728L202.962 16.5467V18.8678H207.161V16.5728Z" fill="white"/>
<path d="M178.864 3.87195C178.968 3.63723 179.151 3.55899 179.386 3.61115L183.376 4.49787C183.663 4.55003 183.767 4.75867 183.611 5.01947C183.115 5.93227 182.411 6.87115 181.785 7.62747H183.585C183.845 7.62747 184.002 7.78395 184.002 8.04475V19.6764C184.002 19.9372 183.845 20.0937 183.585 20.0937H175.578V21.163H185.097C185.358 21.163 185.515 21.3195 185.515 21.5803V24.5534C185.515 24.8142 185.358 24.9707 185.097 24.9707H175.578V27.7351C175.578 27.9959 175.422 28.1524 175.161 28.1524H171.301C171.04 28.1524 170.884 27.9959 170.884 27.7351V24.9707H161.443C161.182 24.9707 161.025 24.8142 161.025 24.5534V21.5803C161.025 21.3195 161.182 21.163 161.443 21.163H170.884V20.0937H162.955C162.695 20.0937 162.538 19.9372 162.538 19.6764V8.04475C162.538 7.78395 162.695 7.62747 162.955 7.62747H164.859C164.364 6.76683 163.738 5.88011 163.086 5.09771C162.981 4.99339 162.955 4.91515 162.955 4.83691C162.955 4.70651 163.06 4.60219 163.242 4.55003L167.024 3.74155C167.259 3.68939 167.441 3.76763 167.598 4.00235C168.432 5.20203 169.162 6.45387 169.684 7.62747H171.327C170.936 6.74075 170.44 5.77579 169.814 4.91515C169.736 4.83691 169.71 4.73259 169.71 4.65435C169.71 4.52395 169.814 4.41963 170.023 4.36747L173.857 3.61115C174.118 3.55899 174.3 3.63723 174.431 3.89803C175.109 5.17595 175.63 6.42779 175.969 7.62747H176.726C177.612 6.42779 178.29 5.14987 178.864 3.87195ZM170.988 15.2167H166.972V16.4425H170.988V15.2167ZM170.988 11.2526H166.972V12.4262H170.988V11.2526ZM179.568 15.2167H175.448V16.4425H179.568V15.2167ZM175.448 12.4262H179.568V11.2526H175.448V12.4262Z" fill="white"/>
<path d="M155.783 8.40948C155.836 8.48772 155.888 8.56596 155.888 8.6442C155.888 8.80068 155.757 8.905 155.549 8.93108L151.976 9.32228C151.715 9.34836 151.559 9.24404 151.48 9.00932C151.376 8.72244 151.246 8.40948 151.089 8.09652H149.968C149.655 8.59204 149.316 9.06148 148.977 9.45268H156.644C156.905 9.45268 157.061 9.60916 157.061 9.86996V23.4055C157.061 27.0306 156.696 28.1781 151.871 28.0216C151.611 28.0216 151.454 27.9173 151.376 27.7087L151.037 26.848C150.985 26.8741 150.933 26.8741 150.854 26.8741H140.84C140.579 26.8741 140.422 26.7176 140.422 26.4568V19.1805C140.422 18.9197 140.579 18.7632 140.84 18.7632H150.854C151.115 18.7632 151.272 18.9197 151.272 19.1805V24.0053C152.367 23.9532 152.576 23.6663 152.576 22.9621V18.0591H146.655C146.395 18.0591 146.238 17.9026 146.238 17.6418V9.86996C146.238 9.60916 146.395 9.45268 146.655 9.45268H147.777L145.143 8.09652H143.943C144.021 8.20084 144.1 8.30516 144.152 8.40948C144.308 8.67028 144.178 8.85284 143.865 8.905L140.553 9.32228C140.292 9.34836 140.135 9.24404 140.057 9.00932L139.718 8.09652H138.884C138.519 8.59204 138.127 9.0354 137.736 9.45268H144.986C145.247 9.45268 145.404 9.60916 145.404 9.86996V17.6418C145.404 17.9026 145.247 18.0591 144.986 18.0591H139.275V27.6565C139.275 27.9173 139.118 28.0738 138.858 28.0738H135.206C134.946 28.0738 134.789 27.9173 134.789 27.6565V9.86996C134.789 9.60916 134.946 9.45268 135.206 9.45268H135.441L133.511 8.07044C133.381 7.9922 133.329 7.88788 133.329 7.80964C133.329 7.70532 133.407 7.57492 133.563 7.4706C134.841 6.50564 136.067 5.04516 136.641 3.87156C136.771 3.66292 136.902 3.5586 137.162 3.58468L140.996 3.8194C141.309 3.84548 141.413 4.02804 141.283 4.31492C141.257 4.341 141.257 4.36708 141.231 4.41924L141.127 4.6018C141.1 4.62788 141.1 4.68004 141.074 4.70612H145.56C145.821 4.70612 145.977 4.8626 145.977 5.1234V6.1666C146.603 5.41028 147.125 4.6018 147.438 3.87156C147.542 3.63684 147.699 3.53252 147.933 3.5586L151.715 3.8194C152.002 3.84548 152.132 4.02804 152.002 4.31492C152.002 4.341 151.976 4.36708 151.95 4.41924L151.871 4.6018C151.845 4.62788 151.845 4.68004 151.819 4.70612H157.661C157.922 4.70612 158.079 4.8626 158.079 5.1234V7.67924C158.079 7.94004 157.922 8.09652 157.661 8.09652H155.549L155.783 8.40948ZM147.203 23.4576H144.491V24.4226H147.203V23.4576ZM144.491 21.8928H147.203V20.98H144.491V21.8928ZM139.118 13.0256H141.413V12.0607H139.118V13.0256ZM141.413 14.5644H139.118V15.5293H141.413V14.5644ZM150.255 13.0256H152.732V12.0607H150.255V13.0256ZM152.732 14.5644H150.255V15.5293H152.732V14.5644Z" fill="white"/>
<path d="M125.061 27.1349C115.933 27.0306 112.543 22.9882 112.543 18.8415C112.543 15.6336 114.577 12.3476 117.602 10.7828C114.655 10.8871 110.952 11.0696 107.9 11.1218C107.587 11.1218 107.405 10.9653 107.405 10.6263L107.327 6.84467C107.327 6.53171 107.483 6.34915 107.796 6.34915C113.299 6.34915 122.636 6.34915 128.399 6.21875C128.712 6.21875 128.895 6.37523 128.895 6.68819V10.4176C128.895 10.7306 128.738 10.9131 128.425 10.9131C127.643 10.9131 126.913 10.9914 126.209 11.1218C123.001 11.6173 117.706 14.6426 117.706 18.1373C117.706 20.3802 120.132 22.2058 125.87 22.1015C126.182 22.1015 126.339 22.258 126.339 22.4927V22.6231L125.609 26.6916C125.557 27.0045 125.374 27.1349 125.061 27.1349ZM125.165 18.7111C124.852 18.8415 124.644 18.7111 124.539 18.4242C124.07 17.0941 123.366 15.738 122.557 14.6687C122.479 14.5383 122.427 14.434 122.427 14.3296C122.427 14.1992 122.531 14.0688 122.714 13.9906L124.253 13.3908C124.513 13.2864 124.722 13.3125 124.905 13.5472C125.713 14.4861 126.652 16.1031 127.174 17.381C127.278 17.6679 127.174 17.9026 126.887 18.0069L125.165 18.7111ZM128.764 17.2767C128.451 17.4071 128.243 17.2767 128.138 16.9898C127.669 15.7901 126.835 14.3036 126.104 13.3647C126.026 13.2604 125.974 13.156 125.974 13.0517C125.974 12.8952 126.078 12.7648 126.287 12.6866L127.747 12.0868C128.008 11.9824 128.243 12.0085 128.425 12.2172C129.26 13.156 130.251 14.7991 130.694 15.9988C130.799 16.2856 130.694 16.5204 130.407 16.6247L128.764 17.2767Z" fill="white"/>
<path d="M88.311 26.8746C88.0242 26.8746 87.8677 26.6921 87.8677 26.4052V6.11495C87.8677 5.82807 88.0242 5.64551 88.311 5.64551H102.29C102.551 5.64551 102.759 5.82807 102.759 6.11495V9.84439C102.759 10.1313 102.551 10.3138 102.29 10.3138H93.2141V13.7825H101.221C101.508 13.7825 101.69 13.9389 101.69 14.2258V17.8249C101.69 18.1117 101.508 18.2943 101.221 18.2943H93.2141V22.2063H102.629C102.89 22.2063 103.098 22.3889 103.098 22.6757V26.4052C103.098 26.6921 102.89 26.8746 102.629 26.8746H88.311Z" fill="white"/>
<path d="M64.4419 26.8746C64.155 26.8746 63.9985 26.6921 63.9985 26.4052V6.11495C63.9985 5.82807 64.155 5.64551 64.4419 5.64551H69.1363C69.3971 5.64551 69.5536 5.74983 69.684 5.95847L77.2733 18.5812V6.11495C77.2733 5.82807 77.4297 5.64551 77.7427 5.64551H81.9937C82.2806 5.64551 82.4371 5.82807 82.4371 6.11495V26.4052C82.4371 26.6921 82.2806 26.8746 81.9937 26.8746H77.3254C77.0646 26.8746 76.8821 26.7703 76.7777 26.5617L69.1624 13.8868V26.4052C69.1624 26.6921 69.0059 26.8746 68.719 26.8746H64.4419Z" fill="white"/>
<path d="M53.6123 26.8746C53.3254 26.8746 53.1689 26.6921 53.1689 26.4052V6.11495C53.1689 5.82807 53.3254 5.64551 53.6123 5.64551H58.0981C58.3849 5.64551 58.5675 5.82807 58.5675 6.11495V26.4052C58.5675 26.6921 58.3849 26.8746 58.0981 26.8746H53.6123Z" fill="white"/>
<path d="M34.2769 26.8746C33.99 26.8746 33.8335 26.6921 33.8335 26.4052V6.11495C33.8335 5.82807 33.99 5.64551 34.2769 5.64551H38.7626C39.0495 5.64551 39.2321 5.82807 39.2321 6.11495V21.7629H48.5426C48.8034 21.7629 48.986 21.9194 48.986 22.1802V26.4052C48.986 26.6921 48.8034 26.8746 48.5426 26.8746H34.2769Z" fill="white"/>
<path d="M231.65 15.2939C232.876 18.1627 234.936 20.5887 237.022 22.2578C237.127 22.336 237.205 22.3623 237.31 22.3623C237.414 22.3623 237.518 22.3097 237.622 22.1797L240.309 18.6582C240.367 18.5802 240.396 18.5168 240.407 18.457L240.413 18.3975C240.413 18.2673 240.335 18.1631 240.179 18.085C235.328 15.3205 234.023 10.2606 234.075 4.5752C234.075 4.28837 233.919 4.13184 233.658 4.13184V2.29883C234.158 2.29883 234.791 2.45703 235.29 2.97852C235.778 3.48912 235.909 4.10896 235.909 4.5752V4.5918C235.859 10.0633 237.119 14.2317 241.086 16.4922L241.084 16.4941C241.602 16.7817 242.246 17.391 242.246 18.3975C242.246 18.9814 242.017 19.4371 241.775 19.7588L241.771 19.7646L241.767 19.7705L240.768 21.0781C241.184 21.1411 241.676 21.3232 242.076 21.7803C242.725 22.522 242.636 23.3961 242.462 23.9092L242.464 23.9102L241.213 27.6348L241.214 27.6357C241.106 27.9606 240.896 28.3893 240.472 28.7363C240.044 29.0861 239.579 29.2047 239.233 29.2432L239.201 29.2471L239.168 29.25C236.694 29.4362 233.726 29.542 231.154 29.542C229.69 29.542 228.281 29.5165 227.139 29.4023V29.4014C225.204 29.2336 223.075 28.8881 221.255 27.6768C220.667 28.2181 220.046 28.7267 219.451 29.1895C218.966 29.6102 218.403 29.7246 218.01 29.7246C217.115 29.7244 216.461 29.1708 216.138 28.6436L216.137 28.6445L213.998 25.1758L213.999 25.1748C213.873 24.9729 213.795 24.7786 213.748 24.626C213.714 24.5147 213.674 24.3576 213.656 24.1729L213.647 23.9785L213.652 23.8232C213.678 23.4527 213.799 23.0411 214.086 22.666C214.369 22.2966 214.715 22.093 214.971 21.9775V21.9766C215.616 21.6776 216.26 21.2792 216.829 20.8564V18.9531H216.523C216.026 18.9531 215.412 18.7967 214.921 18.3057C214.43 17.8144 214.273 17.2002 214.273 16.7021V13.1299C214.273 12.6319 214.43 12.0176 214.921 11.5264C215.412 11.0354 216.026 10.879 216.523 10.8789V12.7119C216.263 12.712 216.106 12.8692 216.106 13.1299V16.7021C216.106 16.9303 216.226 17.0787 216.431 17.1123L216.523 17.1201H218.662V21.7363C217.854 22.4404 216.81 23.1442 215.741 23.6396C215.559 23.7178 215.481 23.8222 215.48 23.9785C215.48 24.0307 215.506 24.1356 215.559 24.2139L217.697 27.6826C217.775 27.8126 217.906 27.8904 218.01 27.8906C218.068 27.8906 218.142 27.8762 218.208 27.8359L218.271 27.7861C219.314 26.9778 220.357 26.0913 221.14 25.1787C222.704 26.8999 224.895 27.3695 227.32 27.5781C228.363 27.6824 229.694 27.708 231.154 27.708C233.684 27.708 236.605 27.6034 239.03 27.4209C239.236 27.3981 239.362 27.316 239.442 27.1387L239.474 27.0566L240.726 23.3271C240.83 23.0403 240.674 22.8578 240.335 22.8838C236.971 23.1967 233.945 23.3525 231.415 23.3525V21.5195C232.084 21.5195 232.791 21.507 233.532 21.4844C232.872 20.7614 232.243 19.9709 231.669 19.1211C231.117 19.9659 230.507 20.7635 229.848 21.4873C230.345 21.5054 230.868 21.5195 231.415 21.5195V23.3525C229.876 23.3525 228.52 23.2742 227.373 23.1699C225.182 22.9613 223.957 22.2835 223.148 20.7188V19.2061L225.547 22.2051C225.651 22.3355 225.756 22.3877 225.86 22.3877C225.939 22.3877 226.017 22.3617 226.121 22.3096C228.364 20.8491 230.399 18.2149 231.65 15.2939ZM219.758 2.01172C220.284 2.01177 220.698 2.20241 220.96 2.36426L221.171 2.50879L221.196 2.52832L221.222 2.54883C221.786 3.00452 222.333 3.52567 222.848 4.08594C222.924 3.70097 223.103 3.29299 223.449 2.94629C223.94 2.4552 224.554 2.29884 225.052 2.29883V4.13184C224.791 4.13187 224.635 4.28828 224.635 4.54883V8.04395C224.635 8.3047 224.791 8.46091 225.052 8.46094H229.225V8.66992C229.199 8.72206 229.173 8.77434 229.173 8.85254C228.625 12.5557 226.721 16.1023 223.148 18.2148V13.1299C223.148 12.8691 222.991 12.7119 222.73 12.7119H216.523V10.8789H217.535C216.928 9.91181 216.19 8.97458 215.431 8.24707L215.218 8.04883L215.183 8.01758L215.149 7.98438C214.864 7.69917 214.504 7.20361 214.46 6.51465L214.455 6.375L214.461 6.22363C214.51 5.51538 214.901 4.93176 215.436 4.5752L218.438 2.45215L218.459 2.4375L218.479 2.42383C218.589 2.35097 218.734 2.26576 218.905 2.19238C219.047 2.1316 219.359 2.01172 219.758 2.01172ZM219.758 3.84473C219.68 3.84473 219.575 3.89711 219.497 3.94922L216.472 6.08789C216.341 6.16613 216.289 6.27068 216.289 6.375C216.289 6.47919 216.341 6.58331 216.445 6.6875C217.775 7.88717 219.027 9.60864 219.836 11.2256C219.914 11.3819 220.018 11.4598 220.148 11.46C220.227 11.46 220.331 11.4339 220.409 11.3818L223.617 9.13965C223.826 8.98317 223.878 8.80015 223.773 8.56543C222.939 6.92247 221.557 5.1752 220.07 3.97559C219.966 3.89744 219.862 3.8448 219.758 3.84473ZM233.658 2.29883V4.13184H225.052V2.29883H233.658ZM224.981 14.2363C225.912 13.0742 226.574 11.7302 226.987 10.2949H225.062C224.946 10.4202 224.828 10.5239 224.718 10.6064L224.693 10.624L224.668 10.6416L223.889 11.1855C224.043 11.2753 224.194 11.3864 224.334 11.5264C224.825 12.0176 224.981 12.6319 224.981 13.1299V14.2363Z" fill="#EE7F16"/>
<path d="M198.093 27.8271C198.126 28.0316 198.274 28.1512 198.502 28.1514H202.597C202.825 28.1514 202.973 28.0318 203.007 27.8271L203.015 27.7344V23.0918H211.334L211.427 23.085C211.602 23.0562 211.715 22.943 211.744 22.7676L211.751 22.6748V6.81836C211.751 6.59024 211.631 6.44179 211.427 6.4082L211.334 6.40137V4.56738C211.832 4.56743 212.445 4.72391 212.937 5.21484C213.366 5.64453 213.54 6.16828 213.577 6.62598L213.584 6.81836V22.6748L213.577 22.8662C213.541 23.324 213.366 23.8474 212.937 24.2773C212.445 24.7685 211.832 24.9257 211.334 24.9258H204.848V27.7344L204.84 27.9258C204.803 28.3835 204.63 28.9071 204.2 29.3369C203.709 29.8281 203.095 29.9854 202.597 29.9854H198.502C198.004 29.9853 197.39 29.828 196.899 29.3369C196.408 28.8457 196.252 28.2323 196.252 27.7344V24.9258H189.948C189.45 24.9258 188.837 24.7685 188.346 24.2773C187.854 23.7861 187.697 23.1728 187.697 22.6748V6.81836C187.697 6.32034 187.854 5.70607 188.346 5.21484C188.837 4.72396 189.45 4.56738 189.948 4.56738V6.40137L189.855 6.4082C189.651 6.44169 189.531 6.59012 189.531 6.81836V22.6748C189.531 22.9031 189.651 23.0515 189.855 23.085L189.948 23.0918H198.085V27.7344L198.093 27.8271ZM198.111 16.5195V18.8672H194.095V16.4941L198.111 16.5195ZM207.161 16.5723V18.8672H202.962V16.5459L207.161 16.5723ZM207.161 10.6523V12.79L202.962 12.7646V10.6523H207.161ZM198.111 10.6523V12.7383L194.095 12.7119V10.6523H198.111ZM203.015 4.00195C203.015 3.74115 202.857 3.58398 202.597 3.58398V1.75098C203.095 1.75098 203.709 1.90721 204.2 2.39844C204.63 2.82817 204.803 3.35186 204.84 3.80957L204.848 4.00195V4.56738H211.334V6.40137H203.015V4.00195ZM196.226 4.00195C196.226 3.50397 196.382 2.88965 196.873 2.39844C197.364 1.90721 197.979 1.75098 198.477 1.75098V3.58398L198.384 3.5918C198.179 3.62524 198.059 3.77367 198.059 4.00195V6.40137H189.948V4.56738H196.226V4.00195ZM202.597 1.75098V3.58398H198.477V1.75098H202.597Z" fill="#EE7F16"/>
<path d="M170.891 27.8273C170.924 28.0319 171.073 28.1514 171.301 28.1515H175.161L175.254 28.1447C175.429 28.1159 175.543 28.0027 175.571 27.8273L175.578 27.7345V24.9699H185.098L185.19 24.963C185.366 24.9342 185.478 24.8209 185.507 24.6456L185.515 24.5529V21.5792C185.515 21.3188 185.358 21.1624 185.098 21.1622H175.578V20.0929H183.585C183.846 20.0928 184.002 19.9365 184.002 19.6759V8.04408C184.002 7.78339 183.846 7.62722 183.585 7.62709H181.785C182.411 6.8708 183.115 5.93147 183.61 5.01869C183.767 4.75789 183.663 4.54937 183.376 4.49721L179.386 3.61049C179.151 3.55833 178.969 3.63656 178.864 3.87123L178.644 4.35072C178.117 5.46768 177.501 6.57751 176.726 7.62709H175.97L175.834 7.17494C175.498 6.11409 175.024 5.01587 174.431 3.8976C174.3 3.6368 174.117 3.55833 173.856 3.61049L170.023 4.36635C169.815 4.41848 169.71 4.52315 169.71 4.65346C169.71 4.73167 169.736 4.83597 169.814 4.9142C170.44 5.77484 170.936 6.74037 171.327 7.62709H169.684C169.162 6.4536 168.432 5.20167 167.598 4.00209C167.441 3.76737 167.258 3.68821 167.023 3.74037L163.242 4.54897C163.06 4.60111 162.955 4.70574 162.955 4.83608C162.955 4.91431 162.982 4.9925 163.086 5.09682C163.738 5.87922 164.364 6.76645 164.859 7.62709H162.955C162.694 7.6272 162.538 7.78337 162.538 8.04408V19.6759C162.538 19.9365 162.695 20.0928 162.955 20.0929H170.884V21.1622H161.442C161.182 21.1624 161.026 21.3188 161.025 21.5792V24.5529C161.025 24.8135 161.182 24.9697 161.442 24.9699H170.884V27.7345L170.891 27.8273ZM170.988 15.216V16.4415H166.972V15.216H170.988ZM179.568 15.216V16.4415H175.447V15.216H179.568ZM170.988 11.2521V12.4259H166.972V11.2521H170.988ZM179.568 11.2521V12.4259H175.447V11.2521H179.568ZM185.835 19.4474C186.134 19.5456 186.435 19.7116 186.7 19.9767C187.191 20.4678 187.348 21.0813 187.348 21.5792V24.5529L187.34 24.7443C187.303 25.2021 187.13 25.7256 186.7 26.1554C186.209 26.6465 185.596 26.8038 185.098 26.8038H177.411V27.7345L177.403 27.9259C177.367 28.3837 177.193 28.9072 176.764 29.3371C176.273 29.8282 175.659 29.9854 175.161 29.9855H171.301C170.803 29.9855 170.189 29.8282 169.698 29.3371C169.207 28.8459 169.05 28.2325 169.05 27.7345V26.8038H161.442C160.944 26.8038 160.331 26.6465 159.84 26.1554C159.349 25.6643 159.192 25.0508 159.192 24.5529V21.5792C159.192 21.0813 159.349 20.4678 159.84 19.9767C160.105 19.7116 160.406 19.5456 160.705 19.4474V8.04408C160.705 7.54612 160.861 6.93275 161.353 6.44154C161.44 6.35407 161.533 6.27931 161.627 6.21205C161.379 5.9111 161.187 5.53264 161.136 5.07826L161.122 4.83608L161.135 4.59486C161.257 3.43285 162.247 2.92659 162.738 2.78627L162.798 2.76967L162.859 2.756L166.633 1.94936C167.051 1.85772 167.567 1.85665 168.09 2.09096C168.503 2.27633 168.796 2.55495 169.001 2.81752C169.22 2.69893 169.427 2.6257 169.578 2.58803L169.623 2.57729L169.668 2.5685L173.502 1.81166C173.878 1.73717 174.424 1.7127 174.989 1.98549C175.539 2.25078 175.863 2.67994 176.05 3.03822C176.264 3.44129 176.464 3.8451 176.65 4.24818C176.84 3.87816 177.02 3.50213 177.191 3.12026C177.377 2.70536 177.717 2.25292 178.28 1.98158C178.836 1.71416 179.383 1.73155 179.783 1.82045L183.773 2.70717L183.772 2.70815C184.262 2.81267 184.959 3.1252 185.322 3.90736C185.69 4.69866 185.47 5.4412 185.22 5.89272L185.222 5.89369C185.152 6.02221 185.078 6.14997 185.003 6.27748C185.066 6.32759 185.128 6.38189 185.188 6.44154C185.679 6.93274 185.835 7.54613 185.835 8.04408V19.4474Z" fill="#EE7F16"/>
<path d="M139.718 8.09557L140.057 9.00865C140.135 9.24337 140.292 9.34821 140.553 9.32213L143.865 8.90416C144.178 8.85189 144.308 8.66971 144.151 8.40904C144.099 8.30472 144.022 8.19988 143.943 8.09557H145.143L147.776 9.45201H146.655C146.395 9.45204 146.238 9.60845 146.238 9.869V17.6415C146.238 17.9021 146.395 18.0584 146.655 18.0585H152.575V22.9618C152.575 23.6658 152.367 23.9526 151.271 24.0047V19.1796C151.271 18.9191 151.115 18.7627 150.854 18.7626H140.84C140.579 18.7626 140.422 18.919 140.422 19.1796V26.4559C140.422 26.7167 140.579 26.8739 140.84 26.8739H150.854L150.955 26.87C150.984 26.8667 151.011 26.8606 151.037 26.8475L151.376 27.7079C151.454 27.9164 151.61 28.0213 151.871 28.0213C156.395 28.1681 156.998 27.1683 157.056 24.0555L157.062 23.4051V9.869C157.061 9.60843 156.904 9.45201 156.644 9.45201H148.977C149.316 9.06083 149.655 8.59104 149.968 8.09557H151.089C151.245 8.40853 151.376 8.72177 151.48 9.00865C151.559 9.24333 151.715 9.34817 151.976 9.32213L155.549 8.93053C155.757 8.90441 155.888 8.79985 155.888 8.64342C155.888 8.56526 155.835 8.4872 155.783 8.40904L155.549 8.09557H157.661C157.922 8.09555 158.078 7.93936 158.078 7.67857V5.12291C158.078 4.89471 157.959 4.74627 157.754 4.71275L157.661 4.70592V2.87193C158.159 2.87194 158.772 3.02916 159.264 3.52037C159.694 3.95031 159.868 4.47363 159.904 4.9315L159.912 5.12291V7.67857L159.904 7.86998C159.868 8.32785 159.694 8.85117 159.264 9.28111C159.141 9.40417 159.01 9.50585 158.875 9.58971C158.886 9.68577 158.895 9.77908 158.895 9.869V23.4051L158.89 24.0809C158.877 24.752 158.839 25.4053 158.733 25.9989C158.588 26.8138 158.287 27.6857 157.596 28.4032C156.903 29.1219 156.011 29.4871 155.076 29.6737C154.159 29.8568 153.067 29.8941 151.812 29.8534V29.8524C151.453 29.8446 151.001 29.7654 150.566 29.4872C150.229 29.2713 149.991 28.9925 149.827 28.7069H140.858C140.761 28.8987 140.632 29.0867 140.46 29.2587C139.969 29.7498 139.355 29.9071 138.857 29.9071H135.206C134.708 29.9071 134.095 29.7498 133.604 29.2587C133.112 28.7675 132.955 28.1541 132.955 27.6561V9.92662L132.443 9.56041L132.444 9.55846C131.983 9.23822 131.556 8.69416 131.501 7.96959L131.495 7.80943L131.502 7.63268C131.567 6.8343 132.069 6.2934 132.458 6.00768V6.0067C133.538 5.19128 134.562 3.94635 134.993 3.06529L135.035 2.98033L135.086 2.89928C135.207 2.70542 135.459 2.33744 135.909 2.06725C136.381 1.78418 136.868 1.72533 137.273 1.75475L137.274 1.75377L141.108 1.98912L141.128 1.9901L141.148 1.99205C141.535 2.02427 142.282 2.18371 142.776 2.87193H145.56C145.662 2.87193 145.769 2.88064 145.879 2.89537C146.036 2.61802 146.277 2.3098 146.648 2.07213C147.124 1.76776 147.63 1.69542 148.059 1.72936H148.06L151.841 1.9901L151.861 1.99107L151.881 1.99303C152.301 2.03126 153.008 2.21361 153.485 2.87193H157.661V4.70592H151.819C151.845 4.67991 151.845 4.62758 151.871 4.60143L151.949 4.41881C151.975 4.36665 152.002 4.3404 152.002 4.31432C152.132 4.0275 152.002 3.84528 151.715 3.8192L147.934 3.55846C147.699 3.53238 147.542 3.63624 147.438 3.87096C147.125 4.60111 146.603 5.40965 145.978 6.16588V5.12291C145.978 4.86211 145.82 4.70592 145.56 4.70592H141.074C141.1 4.67994 141.1 4.6276 141.126 4.60143L141.23 4.41881C141.257 4.36665 141.257 4.3404 141.283 4.31432C141.413 4.02757 141.309 3.84532 140.996 3.8192L137.162 3.58385C136.901 3.55782 136.771 3.66237 136.641 3.87096C136.067 5.04444 134.841 6.50463 133.563 7.46959L133.461 7.5526C133.373 7.6382 133.328 7.73116 133.328 7.80943C133.328 7.88762 133.381 7.99206 133.511 8.07018L135.441 9.45201H135.206C134.945 9.45208 134.789 9.60849 134.789 9.869V27.6561C134.789 27.9168 134.945 28.073 135.206 28.0731H138.857L138.95 28.0663C139.155 28.0328 139.274 27.8842 139.274 27.6561V18.0585H144.986C145.247 18.0584 145.403 17.9021 145.403 17.6415V9.869C145.403 9.60847 145.247 9.45205 144.986 9.45201H137.736C138.127 9.0348 138.519 8.591 138.884 8.09557H139.718ZM147.203 23.4569V24.4217H144.49V23.4569H147.203ZM147.203 20.9794V21.8924H144.49V20.9794H147.203ZM141.413 14.5633V15.5292H139.118V14.5633H141.413ZM152.732 14.5633V15.5292H150.254V14.5633H152.732ZM141.413 12.0604V13.0253H139.118V12.0604H141.413ZM152.732 12.0604V13.0253H150.254V12.0604H152.732Z" fill="#EE7F16"/>
<path d="M128.895 6.6875C128.894 6.37474 128.712 6.21877 128.399 6.21875C122.636 6.34915 113.299 6.34863 107.796 6.34863C107.483 6.34873 107.327 6.53185 107.327 6.84473L107.405 10.626C107.405 10.9649 107.588 11.1211 107.9 11.1211C110.952 11.0689 114.655 10.8865 117.603 10.7822C114.577 12.347 112.543 15.633 112.543 18.8408L112.553 19.2295C112.754 23.1073 115.999 26.7881 124.222 27.1133L125.062 27.1348C125.374 27.1346 125.556 27.004 125.608 26.6914L126.339 22.623V22.4922C126.339 22.2575 126.182 22.1006 125.869 22.1006C120.311 22.2016 117.861 20.4918 117.714 18.3457L117.707 18.1367C117.707 14.6421 123.001 11.6166 126.209 11.1211C126.913 10.9907 127.644 10.9131 128.426 10.9131C128.739 10.9129 128.895 10.7298 128.895 10.417V6.6875ZM124.904 13.5469C124.722 13.3123 124.514 13.2864 124.253 13.3906L122.714 13.9902C122.531 14.0685 122.427 14.1987 122.427 14.3291C122.427 14.4334 122.479 14.5376 122.558 14.668C123.366 15.7372 124.07 17.0938 124.539 18.4238C124.643 18.7106 124.852 18.841 125.165 18.7109L126.887 18.0068C127.173 17.9026 127.278 17.6676 127.174 17.3809C126.652 16.1029 125.713 14.4858 124.904 13.5469ZM128.426 12.2168C128.243 12.0082 128.008 11.9816 127.747 12.0859L126.287 12.6865C126.078 12.7648 125.974 12.8953 125.974 13.0518C125.974 13.1559 126.026 13.2601 126.104 13.3643C126.835 14.3031 127.669 15.7896 128.139 16.9893C128.243 17.2761 128.452 17.4068 128.765 17.2764L130.407 16.624C130.694 16.5197 130.799 16.2849 130.694 15.998C130.251 14.7985 129.26 13.1556 128.426 12.2168ZM119.547 18.2666C119.583 18.5826 119.773 18.9845 120.516 19.3906C121.167 19.747 122.188 20.0576 123.675 20.1953C123.261 19.9057 123.018 19.5237 122.879 19.207L122.816 19.0508L122.813 19.042L122.811 19.0342C122.448 18.006 121.928 16.9701 121.348 16.124L121.095 15.7744L121.036 15.6953L121.011 15.6533C119.993 16.5808 119.54 17.4631 119.54 18.1367L119.547 18.2666ZM130.729 10.417L130.723 10.5908C130.701 10.9208 130.609 11.3229 130.365 11.707C131.18 12.7956 131.991 14.2167 132.414 15.3623L132.417 15.3721L132.477 15.5576C132.602 16.0085 132.625 16.5722 132.367 17.1387C132.08 17.7707 131.564 18.1406 131.083 18.3271L131.084 18.3281L129.44 18.9805L129.439 18.9795C129.153 19.0945 128.798 19.1743 128.411 19.1533C128.159 19.4115 127.864 19.5883 127.58 19.7012L127.581 19.7031L126.157 20.2842C126.553 20.3276 127.018 20.4701 127.429 20.8291C127.907 21.248 128.118 21.7908 128.163 22.2842L128.173 22.4922V22.7861L128.144 22.9463L127.413 27.0146L127.412 27.0137C127.333 27.4683 127.111 28.0427 126.565 28.4717C126.034 28.889 125.45 28.9677 125.062 28.9678H125.04C120.235 28.9128 116.666 27.8209 114.256 25.9521C111.798 24.0466 110.709 21.4537 110.709 18.8408C110.709 16.7157 111.427 14.6003 112.655 12.8105C111.036 12.8729 109.405 12.9289 107.932 12.9541L107.916 12.9551H107.9C107.462 12.9551 106.808 12.8445 106.265 12.3223C105.778 11.8541 105.612 11.2796 105.578 10.8164L105.571 10.626L105.494 6.88184L105.493 6.86328V6.84473C105.493 6.40593 105.603 5.77044 106.097 5.23535C106.613 4.67552 107.28 4.51568 107.796 4.51562L112.527 4.51367C117.74 4.50756 124.054 4.4831 128.357 4.38574L128.379 4.38477H128.399C128.838 4.38478 129.473 4.49456 130.008 4.98828C130.568 5.50505 130.728 6.17202 130.729 6.6875V10.417Z" fill="#EE7F16"/>
<path d="M87.875 26.5068C87.9041 26.7016 88.0194 26.832 88.21 26.8652L88.3115 26.874H102.629L102.724 26.8652C102.908 26.8321 103.052 26.7016 103.089 26.5068L103.099 26.4043V22.6748C103.099 22.3879 102.89 22.2051 102.629 22.2051V20.3721C103.759 20.3721 104.794 21.1949 104.919 22.4238L104.932 22.6748V26.4043L104.919 26.6553C104.794 27.8841 103.759 28.707 102.629 28.707H88.3115C87.7654 28.707 87.1229 28.5208 86.6328 27.9883C86.1632 27.4778 86.0342 26.8677 86.0342 26.4043V6.11426C86.0342 5.65089 86.1632 5.04073 86.6328 4.53027C87.123 3.9976 87.7653 3.81152 88.3115 3.81152V5.64453L88.21 5.65332C87.9877 5.69212 87.8682 5.86317 87.8682 6.11426V26.4043L87.875 26.5068ZM101.69 17.8242V14.2246C101.69 13.9379 101.507 13.7812 101.221 13.7812H93.2139V10.3125H102.29L102.385 10.3047C102.569 10.2715 102.713 10.1409 102.75 9.94629L102.76 9.84375V6.11426C102.76 5.86315 102.6 5.69211 102.385 5.65332L102.29 5.64453V3.81152C103.42 3.81154 104.455 4.63424 104.58 5.86328L104.593 6.11426V9.84375L104.58 10.0947C104.455 11.3235 103.42 12.1465 102.29 12.1465H102.191C102.401 12.2381 102.61 12.3671 102.805 12.5459C103.337 13.036 103.523 13.6784 103.523 14.2246V17.8242L103.515 18.0293C103.474 18.5144 103.284 19.0387 102.859 19.4629C102.375 19.9476 101.759 20.127 101.221 20.127H95.0479V20.3721H102.629V22.2051H93.2139V18.293H101.221C101.472 18.293 101.643 18.1537 101.682 17.9268L101.69 17.8242ZM102.29 3.81152V5.64453H88.3115V3.81152H102.29Z" fill="#EE7F16"/>
<path d="M64.0059 26.5068C64.0349 26.7016 64.1502 26.832 64.3408 26.8652L64.4414 26.874H68.7188L68.8203 26.8652C69.0107 26.8319 69.1262 26.7015 69.1553 26.5068L69.1621 26.4043V13.8857L76.7773 26.5605C76.8687 26.7432 77.0202 26.8464 77.2314 26.8691L77.3252 26.874H81.9932L82.0947 26.8652C82.2853 26.832 82.4006 26.7016 82.4297 26.5068L82.4365 26.4043V6.11426C82.4365 5.82738 82.28 5.64453 81.9932 5.64453V3.81152C82.5394 3.81152 83.1817 3.99763 83.6719 4.53027C84.0827 4.97683 84.2326 5.49953 84.2637 5.93359L84.2705 6.11426V26.4043L84.2637 26.584C84.2327 27.0182 84.0829 27.5415 83.6719 27.9883C83.1817 28.5208 82.5393 28.707 81.9932 28.707H77.3252C76.9517 28.707 76.5104 28.6319 76.083 28.3877C75.6832 28.1592 75.3913 27.8363 75.1943 27.4854L70.9961 20.4971V26.4043L70.9893 26.584C70.9583 27.0182 70.8085 27.5415 70.3975 27.9883C69.9073 28.5209 69.265 28.707 68.7188 28.707H64.4414C63.8954 28.7069 63.2537 28.5206 62.7637 27.9883C62.2941 27.4778 62.165 26.8677 62.165 26.4043V6.11426C62.165 5.65089 62.2941 5.04073 62.7637 4.53027C63.2537 3.99779 63.8953 3.81162 64.4414 3.81152V5.64453C64.1548 5.6447 63.998 5.82751 63.998 6.11426V26.4043L64.0059 26.5068ZM69.1357 3.81152C69.5207 3.81152 69.9649 3.8915 70.3936 4.14551C70.8102 4.39243 71.0732 4.72135 71.2383 4.98535L71.2471 4.99902L71.2549 5.0127L75.4395 11.9717V6.11426C75.4395 5.6504 75.5699 5.02121 76.0684 4.50195C76.5791 3.97007 77.2279 3.81161 77.7422 3.81152V5.64453C77.4295 5.6447 77.2734 5.82751 77.2734 6.11426V18.5801L69.6836 5.95703C69.5533 5.74871 69.3963 5.64453 69.1357 5.64453V3.81152ZM81.9932 3.81152V5.64453H77.7422V3.81152H81.9932ZM69.1357 3.81152V5.64453H64.4414V3.81152H69.1357Z" fill="#EE7F16"/>
<path d="M53.1768 26.5068C53.2058 26.7013 53.3206 26.8318 53.5107 26.8652L53.6123 26.874H58.0986L58.2012 26.8652C58.3956 26.8318 58.5263 26.7014 58.5596 26.5068L58.5674 26.4043V6.11426C58.5674 5.86339 58.4281 5.69233 58.2012 5.65332L58.0986 5.64453V3.81152C58.637 3.81161 59.2526 3.99083 59.7373 4.47559C60.1614 4.89988 60.3517 5.42406 60.3926 5.90918L60.4014 6.11426V26.4043L60.3926 26.6094C60.3516 27.0945 60.1615 27.6187 59.7373 28.043C59.2526 28.5277 58.637 28.7069 58.0986 28.707H53.6123C53.0661 28.707 52.4237 28.521 51.9336 27.9883C51.464 27.4778 51.3359 26.8677 51.3359 26.4043V6.11426C51.3359 5.65093 51.4641 5.0407 51.9336 4.53027C52.4237 3.99754 53.0661 3.81157 53.6123 3.81152V5.64453C53.3255 5.64461 53.1689 5.82744 53.1689 6.11426V26.4043L53.1768 26.5068ZM58.0986 3.81152V5.64453H53.6123V3.81152H58.0986Z" fill="#EE7F16"/>
<path d="M33.8408 26.5068C33.8699 26.7013 33.9847 26.8318 34.1748 26.8652L34.2764 26.874H48.542L48.6367 26.8652C48.8162 26.8318 48.9445 26.7014 48.9775 26.5068L48.9854 26.4043V22.1797C48.9854 21.9189 48.8028 21.7617 48.542 21.7617V19.9287C49.0333 19.9287 49.6185 20.0795 50.1006 20.5215C50.5391 20.9235 50.7602 21.4462 50.8086 21.96L50.8193 22.1797V26.4043L50.8105 26.6084C50.7703 27.0892 50.5847 27.5998 50.1846 28.0166C49.7228 28.4976 49.1141 28.707 48.542 28.707H34.2764C33.7301 28.707 33.0878 28.521 32.5977 27.9883C32.1281 27.4778 32 26.8677 32 26.4043V6.11426C32 5.65094 32.1282 5.0407 32.5977 4.53027C33.0878 3.99756 33.7301 3.81158 34.2764 3.81152V5.64453C33.9896 5.64464 33.833 5.82746 33.833 6.11426V26.4043L33.8408 26.5068ZM39.2314 6.11426C39.2314 5.86337 39.0921 5.69231 38.8652 5.65332L38.7627 5.64453V3.81152C39.3011 3.81159 39.9166 3.99081 40.4014 4.47559C40.8255 4.89988 41.0158 5.42405 41.0566 5.90918L41.0654 6.11426V19.9287H48.542V21.7617H39.2314V6.11426ZM38.7627 3.81152V5.64453H34.2764V3.81152H38.7627Z" fill="#EE7F16"/>
</g>
</svg>
