<svg width="375" height="55" viewBox="0 0 375 55" fill="none" xmlns="http://www.w3.org/2000/svg">
<g clip-path="url(#clip0_452_5551)">
<path d="M60 0H328L316.357 54.7763H48.3569L60 0Z" fill="white"/>
<path d="M268.004 10.8742C268.354 10.8742 268.517 11.0788 268.438 11.4199L265.305 24.9928C265.226 25.3339 264.969 25.5385 264.619 25.5385H256.744L253.051 41.5328C252.973 41.8738 252.715 42.0784 252.365 42.0784H247.465C247.115 42.0784 246.953 41.8738 247.031 41.5328L253.983 11.4199C254.062 11.0788 254.319 10.8742 254.669 10.8742H268.004ZM283.824 10.8742C284.174 10.8742 284.337 11.0788 284.258 11.4199L278.527 36.2468C277.417 41.0553 274.633 42.0443 269.547 41.942C269.232 41.942 269.053 41.8056 269.019 41.4987L268.839 39.2479H255.924C255.574 39.2479 255.411 39.0432 255.49 38.7022L258.056 27.5847C258.135 27.2436 258.392 27.039 258.742 27.039H272.287C272.637 27.039 272.8 27.2436 272.721 27.5847L270.769 36.0422C272.325 35.974 272.664 35.5647 272.845 34.7804L274.979 25.5385H266.964C266.614 25.5385 266.451 25.3339 266.53 24.9928L269.663 11.4199C269.742 11.0788 269.999 10.8742 270.349 10.8742H283.824ZM261.91 34.5417H265.655L266.317 31.677H262.572L261.91 34.5417ZM261.022 19.741H258.047L257.669 21.3779H260.644L261.022 19.741ZM258.724 16.8081H261.699L262.062 15.2394H259.087L258.724 16.8081ZM276.387 19.741H273.272L272.894 21.3779H276.009L276.387 19.741ZM273.949 16.8081H277.064L277.427 15.2394H274.312L273.949 16.8081Z" fill="#3C1A8C"/>
<path d="M244.515 37.2698C244.935 37.2698 245.055 37.5086 244.786 37.9178L242.146 41.7714C241.978 42.0442 241.737 42.1807 241.422 42.1807C237.537 42.1807 232.935 41.1917 229.99 39.9981C229.769 39.8958 229.696 39.7594 229.735 39.5888C229.759 39.4865 229.817 39.3842 229.954 39.2478L232.707 36.4173H223.957L225.439 39.2478C225.52 39.3501 225.524 39.4865 225.5 39.5888C225.461 39.7594 225.281 39.9299 225.055 39.9981C221.081 41.294 216.692 42.1125 212.512 42.1807C212.197 42.1807 212.018 42.0442 211.976 41.7714L211.205 37.986C211.124 37.5768 211.425 37.338 211.915 37.338C215.352 37.3039 218.717 37.1334 221.787 36.4173H215.067C214.717 36.4173 214.554 36.2126 214.633 35.8716L217.727 22.4692C217.751 22.3668 217.817 22.2304 217.868 22.1622L215.394 20.9004C215.084 20.7299 215.069 20.4912 215.315 20.1843C216.981 18.2745 218.126 16.1942 218.795 13.2955L219.228 11.4198C219.307 11.0788 219.809 10.8742 220.614 10.8742C226.467 10.84 229.159 10.7036 231.797 10.1921C232.162 10.1239 232.314 10.2262 232.418 10.5331L233.385 13.7729C233.481 14.1139 233.313 14.3868 232.878 14.455C229.932 14.9324 227.241 15.0688 224.266 15.0688C224.219 15.2734 224.14 15.6145 224.034 15.9214H231.734C232.084 15.9214 232.247 16.126 232.168 16.467L231.522 19.2635C231.444 19.6045 231.186 19.8091 230.836 19.8091H229.506L229.018 21.9235H233.708L231.394 20.7299C231.207 20.6276 231.134 20.4912 231.173 20.3207C231.197 20.2184 231.256 20.1161 231.349 20.0137C232.688 18.3086 233.572 16.2965 234.163 13.7388L234.698 11.4198C234.777 11.0788 235.279 10.8742 236.154 10.8742C242.4 10.8059 244.951 10.6695 247.687 10.1921C248.017 10.1239 248.204 10.2262 248.316 10.499L249.407 13.807C249.503 14.148 249.3 14.4209 248.9 14.4891C245.943 14.8642 242.754 15.0347 239.771 15.0688C239.759 15.2734 239.645 15.6145 239.598 15.8191L239.574 15.9214H248.499C248.849 15.9214 249.012 16.126 248.933 16.467L248.287 19.2635C248.209 19.6045 247.951 19.8091 247.601 19.8091H245.431L244.943 21.9235C245.293 21.9235 245.456 22.1281 245.377 22.4692L242.283 35.8716C242.204 36.2126 241.947 36.4173 241.597 36.4173H235.297C238.228 37.0652 240.926 37.2016 244.515 37.2698ZM237.013 32.018H221.648L221.396 33.1093H236.761L237.013 32.018ZM237.784 28.6759H222.419L222.175 29.7331H237.54L237.784 28.6759ZM222.296 19.8091C221.886 20.5253 221.406 21.2415 220.863 21.9235H223.523L224.011 19.8091H222.296ZM222.955 26.3569H238.32L238.556 25.3338H223.191L222.955 26.3569ZM237.871 19.8091C237.461 20.5253 237.008 21.2756 236.473 21.9235H239.343L239.831 19.8091H237.871Z" fill="#3C1A8C"/>
<path d="M182.982 32.7341C182.819 32.8365 182.628 32.9047 182.488 32.9047C182.313 32.9047 182.154 32.8365 182.061 32.6318L180.058 28.5736C179.984 28.4372 179.981 28.3008 180.004 28.1985C180.052 27.9938 180.204 27.7892 180.48 27.6528C188.005 23.5605 192.979 20.6617 197.412 18.1381L187.595 18.5132C187.175 18.5132 186.978 18.3086 187.072 17.8994L188.108 13.2614C188.21 12.818 188.503 12.6134 188.923 12.6134H208.873C209.328 12.6134 209.525 12.818 209.423 13.2614L208.51 17.2173C208.431 17.5583 208.236 17.7971 207.916 17.9676L200.232 21.9917C200.66 21.9576 201.045 21.9576 201.465 21.9576C206.82 21.9576 210.785 25.402 209.51 30.9267C208.707 34.4052 205.818 38.1224 200.92 40.2368C198.705 41.1917 195.814 41.7373 193.119 41.7373C190.529 41.7373 188.119 41.2599 186.613 40.2027C184.804 38.9409 184.176 36.9629 184.633 34.9849C185.514 31.1654 189.821 29.1874 193.321 29.1874C196.646 29.1874 199.605 30.9267 198.947 35.2919C200.804 34.3711 202.601 33.1093 203.065 31.0972C203.797 27.9256 200.017 26.5615 197.322 26.5615C194.802 26.5615 191.623 27.4482 188.07 29.4944L182.982 32.7341ZM193.048 36.5878C193.656 34.7121 192.663 33.5526 191.543 33.5526C190.913 33.5526 190.275 33.8936 190.117 34.5757C189.779 36.0421 191.9 36.5537 193.048 36.5878Z" fill="#3C1A8C"/>
<path d="M160.942 41.6009C160.549 41.635 160.3 41.4986 160.247 41.1235L159.474 36.5878C159.401 36.1444 159.674 35.8716 160.18 35.8034C165.37 35.1555 167.787 32.8706 168.283 30.7221C168.582 29.4262 168.174 28.1643 167.262 27.4141C163.453 32.0862 155.905 40.3732 149.57 40.3732C145.335 40.3732 143.579 37.0652 144.468 33.2116C145.374 29.2897 148.952 25.1633 154.088 22.7761L154.47 20.9686C154.572 20.5253 154.667 20.116 154.804 19.6727H149.204C148.784 19.6727 148.594 19.434 148.689 19.0248L149.673 14.7619C149.775 14.3185 150.068 14.1139 150.488 14.1139H156.263L156.946 11.7608C157.075 11.3516 157.367 11.147 157.787 11.147L162.734 11.2493C163.189 11.2493 163.344 11.488 163.206 11.9313L162.528 14.1139H176.948C177.368 14.1139 177.565 14.3185 177.463 14.7619L176.479 19.0248C176.384 19.434 176.084 19.6727 175.664 19.6727H160.824L160.349 21.2756C161.318 21.1732 162.306 21.1391 163.286 21.1391C165.666 21.1391 167.948 21.412 169.599 21.9917C173.845 23.4581 175.495 27.38 174.582 31.3359C173.511 35.9739 168.959 40.6801 160.942 41.6009ZM158.726 29.9718C159.861 28.8464 160.985 27.6187 161.995 26.4251C161.688 26.391 161.373 26.391 161.058 26.391C160.358 26.391 159.685 26.4251 159.067 26.5274C158.795 27.8574 158.667 29.0169 158.726 29.9718ZM153.142 33.996C152.957 32.2226 153.005 30.3469 153.209 28.4031C151.77 29.6308 150.817 31.029 150.51 32.359C150.306 33.2457 150.325 34.678 151.48 34.678C151.76 34.678 152.134 34.5757 152.496 34.3711C152.702 34.2347 152.901 34.1324 153.142 33.996Z" fill="#3C1A8C"/>
<path d="M129.171 41.2599C129 41.3964 128.809 41.4646 128.669 41.4646C128.494 41.4646 128.37 41.3964 128.234 41.2258C124.366 36.4514 118.733 33.1093 115.614 30.2447C114.198 28.9488 113.713 27.4141 114.067 25.8795C114.413 24.379 115.557 22.9125 117.423 21.6507C120.236 19.7751 128.275 15.5804 134.389 11.0788C134.561 10.9424 134.751 10.8742 134.891 10.8742C135.066 10.8742 135.191 10.9424 135.334 11.0788L138.886 14.796C139.029 14.9325 139.06 15.103 139.028 15.2394C138.989 15.4099 138.88 15.5804 138.638 15.7168C132.943 19.1612 125.049 23.1854 122.388 24.8564C121.897 25.1633 121.601 25.5385 121.53 25.8454C121.451 26.1864 121.59 26.4934 121.893 26.698C124.334 28.4031 130.585 32.2568 134.882 36.3832C135.026 36.5196 135.091 36.6901 135.06 36.8266C135.02 36.9971 134.876 37.1676 134.669 37.304L129.171 41.2599Z" fill="#3C1A8C"/>
<path d="M98.447 40.4414C97.0128 38.7704 94.8952 36.7242 92.6482 35.0873C90.7382 39.4183 87.0231 41.2599 82.6831 41.2599C78.1681 41.2599 74.3171 38.8386 75.4194 34.0642C75.7579 32.5977 76.6293 31.0972 78.2043 29.7331C80.2937 27.9597 83.1312 27.039 86.2812 27.039C86.9462 27.039 87.6034 27.0731 88.2798 27.1754C89.1896 23.083 90.2121 17.5924 91.1403 12.5111C91.2076 12.0678 91.5077 11.829 91.9627 11.829L97.5041 11.9313C97.9241 11.9313 98.114 12.1701 98.0195 12.5793L96.905 17.5583L106.161 17.4901C106.616 17.4901 106.779 17.6947 106.676 18.1381L105.621 22.7079C105.527 23.1171 105.262 23.3558 104.807 23.3558L95.5429 23.4581L94.3226 28.7441C97.5234 30.04 100.831 32.0862 103.895 34.8826C104.074 35.019 104.14 35.1896 104.092 35.3942C104.061 35.5306 103.959 35.667 103.823 35.8034L99.3807 40.3391C99.1934 40.5437 98.9948 40.646 98.8198 40.646C98.6798 40.646 98.5556 40.5778 98.447 40.4414ZM87.2274 32.1885C86.6639 32.0521 86.0496 31.9839 85.3846 31.9839C84.1246 31.9839 81.7936 32.5295 81.4315 34.0983C81.1244 35.4283 82.5971 35.8716 83.7171 35.8716C84.4521 35.8716 85.1914 35.7011 85.698 35.326C86.6955 34.6439 87.0026 33.3139 87.2274 32.1885Z" fill="#3C1A8C"/>
</g>
<defs>
<clipPath id="clip0_452_5551">
<rect width="375" height="55" fill="white"/>
</clipPath>
</defs>
</svg>
