<svg width="375" height="54" viewBox="0 0 375 54" fill="none" xmlns="http://www.w3.org/2000/svg">
<g clip-path="url(#clip0_452_5461)">
<path d="M295.812 -4.0161L291.162 -5.23209L293.669 -9.23473C289.352 -10.5435 284.609 -10.4797 280.136 -8.73803C274.303 -6.47012 270.168 -1.81594 268.359 3.66161C273.55 6.41016 279.839 6.99213 285.672 4.72422C290.15 2.97505 293.626 -0.168817 295.817 -4.02362L295.812 -4.0161Z" fill="#F3DDC2"/>
<path d="M143.738 -0.497794L149.167 1.97251L145.256 6.33668C150.257 8.84977 156.07 9.77487 161.908 8.59121C169.521 7.05184 175.561 2.23539 178.93 -4.07985C173.165 -8.53831 165.598 -10.58 157.985 -9.0406C152.14 -7.84879 147.225 -4.73972 143.731 -0.489644L143.738 -0.497794Z" fill="#F3DDC2"/>
<path d="M131.606 39.069L134.14 40.9101L131.67 42.745C133.979 44.5631 136.873 45.6495 140.001 45.6533C144.08 45.6605 147.693 43.8164 150.09 40.9207C147.592 38.0213 143.913 36.1763 139.834 36.1691C136.701 36.1687 133.846 37.2524 131.601 39.0724L131.606 39.069Z" fill="#F3DDC2"/>
<path d="M106.71 12.1339L109.244 13.975L106.773 15.8099C109.083 17.6281 111.977 18.7144 115.105 18.7182C119.183 18.7254 122.797 16.8813 125.194 13.9856C122.695 11.0862 119.016 9.24124 114.937 9.23406C111.805 9.23361 108.949 10.3173 106.705 12.1373L106.71 12.1339Z" fill="#F3DDC2"/>
<path d="M49.938 41.5818L55.2964 42.8029L52.5771 47.4679C57.5572 48.8071 62.9753 48.5623 68.0239 46.4098C74.6084 43.6067 79.1651 38.138 81.0333 31.8127C75.0021 28.8598 67.7938 28.4227 61.2092 31.2258C56.1554 33.3871 52.297 37.1059 49.9327 41.5905L49.938 41.5818Z" fill="#FFEDD6"/>
<path d="M234.666 59.3876L231.884 59.3714L232.717 56.7682C230.109 56.6523 227.458 57.367 225.2 58.9839C222.253 61.0906 220.601 64.2922 220.371 67.6225C223.675 68.4207 227.285 67.8468 230.231 65.74C232.492 64.1182 233.991 61.8578 234.667 59.3827L234.666 59.3876Z" fill="#F3DDC2"/>
<path d="M59.6709 -0.128906H328.003L316.336 54.7623H48.0034L59.6709 -0.128906Z" fill="white"/>
<path d="M228.354 35.3576C228.119 34.4027 227.823 33.4137 227.495 32.5612C227.448 32.4588 227.445 32.3224 227.46 32.2542C227.508 32.0496 227.679 31.9132 227.94 31.845L233.314 30.5491C233.645 30.4809 233.874 30.5491 233.951 30.8219C234.239 32.1519 234.483 33.823 234.619 35.3576H236.019L237.216 30.174H226.926C226.576 30.174 226.413 29.9693 226.492 29.6283L227.492 25.2972C227.57 24.9562 227.828 24.7516 228.178 24.7516H238.468L238.838 23.1487H232.818C232.468 23.1487 232.305 22.9441 232.384 22.6031L232.643 21.4777C231.016 22.1598 229.361 22.8077 227.746 23.2852C227.373 23.3875 227.151 23.2852 227.125 22.9441L226.443 17.8628C226.382 17.5218 226.585 17.2489 226.958 17.1466C232.224 15.7143 238.015 12.9179 241.526 10.2919C241.783 10.0873 241.974 10.0191 242.254 10.0191H247.889C248.169 10.0191 248.328 10.0873 248.507 10.2237C251.372 13.1225 255.243 15.612 259.941 16.942C260.267 17.0443 260.352 17.283 260.168 17.6241L257.221 22.8077C257.038 23.1487 256.769 23.251 256.443 23.1487C255.091 22.6372 253.72 22.0574 252.407 21.3754L252.124 22.6031C252.045 22.9441 251.788 23.1487 251.438 23.1487H245.138L244.768 24.7516H255.163C255.513 24.7516 255.675 24.9562 255.597 25.2972L254.597 29.6283C254.518 29.9693 254.261 30.174 253.911 30.174H243.516L242.319 35.3576H243.719C244.688 33.8912 245.473 32.4588 246.189 31.0265C246.381 30.6514 246.622 30.515 246.983 30.6173L251.829 31.9132C252.156 32.0155 252.24 32.2542 252.022 32.5953C251.424 33.516 250.799 34.4027 250.054 35.3576H254.429C254.779 35.3576 254.942 35.5622 254.863 35.9032L253.816 40.4389C253.737 40.78 253.48 40.9846 253.13 40.9846H222.68C222.33 40.9846 222.167 40.78 222.246 40.4389L223.293 35.9032C223.372 35.5622 223.629 35.3576 223.979 35.3576H228.354ZM247.096 17.9992C245.874 17.0784 244.807 16.0894 243.908 15.1345C242.602 16.0894 241.114 17.0784 239.536 17.9992H247.096Z" fill="#3C1A8C"/>
<path d="M209.147 11.8266C209.473 11.9289 209.566 12.1335 209.452 12.4745L208.951 13.7364L211.992 10.8717C212.292 10.633 212.553 10.5648 212.794 10.7353C214.199 11.622 215.63 12.8497 216.68 14.2138L217.57 10.3602C217.649 10.0191 217.906 9.81451 218.256 9.81451H223.296C223.646 9.81451 223.809 10.0191 223.73 10.3602L219.97 26.7978L222.052 26.4227C222.453 26.3544 222.658 26.525 222.572 26.9001L221.727 31.4699C221.648 31.8109 221.461 32.0155 221.13 32.0837L218.605 32.5612L216.565 41.3938C216.487 41.7349 216.229 41.9395 215.879 41.9395H210.839C210.489 41.9395 210.327 41.7349 210.405 41.3938L212.185 33.6866L203.388 35.2553C202.987 35.3235 202.781 35.153 202.868 34.7779L203.444 31.6745L201.725 34.5733C201.6 34.812 201.401 34.9143 201.261 34.9143C200.631 34.9143 199.885 32.0837 199.731 31.5381L197.681 41.3256C197.602 41.6667 197.345 41.8713 196.995 41.8713H192.095C191.745 41.8713 191.582 41.6667 191.661 41.3256L193.702 33.2432C192.523 35.0166 191.286 36.5853 190.092 37.813C189.948 37.9836 189.792 38.0518 189.652 38.0518C189.512 38.0518 189.396 37.9495 189.346 37.7107L188.194 32.3907C188.125 32.0837 188.215 31.845 188.507 31.6404C190.756 29.9353 193.073 27.4798 194.728 25.1608H191.158C190.808 25.1608 190.645 24.9562 190.724 24.6152L191.724 20.2841C191.803 19.9431 192.06 19.7385 192.41 19.7385H196.68L197.05 18.1356C196.964 18.2038 196.844 18.272 196.731 18.3061L193.905 19.0223C193.532 19.1246 193.318 18.9882 193.335 18.6131C193.469 16.6692 193.393 14.4184 193.215 12.611C193.189 12.2699 193.384 12.0312 193.758 11.9289L196.715 11.2468C197.089 11.1445 197.31 11.2468 197.31 11.5538C197.48 13.0884 197.459 14.9982 197.365 16.7715L198.81 10.3602C198.889 10.0191 199.146 9.81451 199.496 9.81451H204.396C204.746 9.81451 204.909 10.0191 204.83 10.3602L203.268 16.9761C204.163 15.3733 205.133 13.293 205.737 11.5879C205.858 11.2127 206.143 11.0422 206.504 11.1445L209.147 11.8266ZM204.857 28.4347C205.09 28.6393 205.113 28.844 204.937 29.1509L204.718 29.4919L213.508 27.9573L216.169 16.4305L213.232 19.2951C213.096 19.4315 212.932 19.5339 212.792 19.5339C212.652 19.5339 212.571 19.4315 212.462 19.2951C211.487 17.7605 209.815 16.0554 208.344 14.9982C207.722 16.3282 207.038 17.6241 206.417 18.6472C206.241 18.9541 205.972 19.0564 205.638 18.9882L203.159 18.2038C203.097 18.1697 203.027 18.1697 203 18.1356L202.63 19.7385H206.235C206.585 19.7385 206.748 19.9431 206.669 20.2841L206.37 21.58L209.111 18.9541C209.376 18.7154 209.637 18.6472 209.913 18.8177C211.469 19.8067 213.246 21.5118 214.218 22.91C214.291 23.0465 214.338 23.1488 214.306 23.2852C214.275 23.4216 214.216 23.5239 214.08 23.6603L210.402 27.3093C210.223 27.4798 210.102 27.548 209.962 27.548C209.822 27.548 209.698 27.4798 209.624 27.3434C208.757 25.9452 207.33 24.547 205.921 23.5239L205.669 24.6152C205.59 24.9562 205.333 25.1608 204.983 25.1608H201.903C202.643 26.3544 203.829 27.5822 204.857 28.4347Z" fill="#3C1A8C"/>
<path d="M165.103 30.6855C165.453 30.6855 165.616 30.8901 165.537 31.2312L163.364 40.6436C163.285 40.9846 163.028 41.1892 162.678 41.1892H152.598C152.248 41.1892 152.085 40.9846 152.164 40.6436L154.337 31.2312C154.416 30.8901 154.673 30.6855 155.023 30.6855H165.103ZM167.14 21.1026C167.49 21.1026 167.653 21.3072 167.574 21.6482L166.944 24.3765C166.866 24.7175 166.608 24.9221 166.258 24.9221H156.668C156.318 24.9221 156.156 24.7175 156.234 24.3765L156.864 21.6482C156.943 21.3072 157.2 21.1026 157.55 21.1026H167.14ZM166.038 25.877C166.388 25.877 166.551 26.0816 166.472 26.4227L165.842 29.1509C165.763 29.4919 165.506 29.6965 165.156 29.6965H155.566C155.216 29.6965 155.053 29.4919 155.132 29.1509L155.762 26.4227C155.841 26.0816 156.098 25.877 156.448 25.877H166.038ZM188.016 9.81451C188.401 9.81451 188.529 10.0191 188.45 10.3602L188.222 11.3491H190.392C190.777 11.3491 190.905 11.5538 190.826 11.8948L190.251 14.3843C190.172 14.7253 189.95 14.93 189.565 14.93H187.395L187.128 16.0895H188.598C188.948 16.0895 189.11 16.2941 189.032 16.6351L188.63 18.3744C188.551 18.7154 188.294 18.92 187.944 18.92H186.474L186.191 20.1477H188.956C189.306 20.1477 189.468 20.3523 189.39 20.6934L188.846 23.0465C188.768 23.3875 188.51 23.5921 188.16 23.5921H181.02L180.776 24.6493H186.761C187.111 24.6493 187.274 24.8539 187.195 25.1949L185.44 32.7999H186.07C186.42 32.7999 186.582 33.0045 186.504 33.3456L185.834 36.2443C185.756 36.5853 185.498 36.79 185.148 36.79H184.518C183.562 40.78 182.19 41.8713 176.423 41.8372C176.108 41.8372 175.93 41.7008 175.853 41.428L175.348 38.461C175.328 38.3928 175.352 38.2905 175.368 38.2223C175.423 37.9836 175.629 37.8471 175.944 37.8471H175.979C178.554 37.9153 178.994 37.6766 179.198 36.79H171.078L170.031 41.3256C169.953 41.6667 169.695 41.8713 169.345 41.8713H165.215C164.865 41.8713 164.703 41.6667 164.781 41.3256L165.828 36.79H165.408C165.058 36.79 164.896 36.5853 164.974 36.2443L165.644 33.3456C165.722 33.0045 165.98 32.7999 166.33 32.7999H166.75L168.505 25.1949C168.584 24.8539 168.841 24.6493 169.191 24.6493H175.001L175.245 23.5921H168.595C168.245 23.5921 168.083 23.3875 168.161 23.0465L168.705 20.6934C168.783 20.3523 169.041 20.1477 169.391 20.1477H171.841L172.124 18.92H170.549C170.199 18.92 170.036 18.7154 170.115 18.3744L170.517 16.6351C170.595 16.2941 170.853 16.0895 171.203 16.0895H172.778L173.045 14.93H170.91C170.56 14.93 170.397 14.7253 170.476 14.3843L171.051 11.8948C171.13 11.5538 171.387 11.3491 171.737 11.3491H173.872L174.1 10.3602C174.179 10.0191 174.436 9.81451 174.786 9.81451H179.336C179.686 9.81451 179.849 10.0191 179.77 10.3602L179.542 11.3491H182.587L182.815 10.3602C182.894 10.0191 183.116 9.81451 183.501 9.81451H188.016ZM169.1 15.6461C169.45 15.6461 169.613 15.8507 169.534 16.1918L168.754 19.568C168.676 19.909 168.418 20.1136 168.068 20.1136H156.798C156.448 20.1136 156.286 19.909 156.364 19.568L157.144 16.1918C157.223 15.8507 157.48 15.6461 157.83 15.6461H169.1ZM169.495 10.5989C169.845 10.5989 170.008 10.8035 169.929 11.1445L169.244 14.1115C169.165 14.4525 168.908 14.6571 168.558 14.6571H159.038C158.688 14.6571 158.525 14.4525 158.604 14.1115L159.289 11.1445C159.368 10.8035 159.625 10.5989 159.975 10.5989H169.495ZM157.817 36.9264H159.707L160.195 34.812H158.305L157.817 36.9264ZM174.317 31.4017H172.322L172 32.7999H173.995L174.317 31.4017ZM175.144 27.8209H173.149L172.842 29.1509H174.837L175.144 27.8209ZM180.442 31.4017H178.342L178.02 32.7999H180.12L180.442 31.4017ZM181.269 27.8209H179.169L178.862 29.1509H180.962L181.269 27.8209ZM180.839 18.92H177.794L177.511 20.1477H180.556L180.839 18.92ZM181.76 14.93H178.715L178.448 16.0895H181.493L181.76 14.93Z" fill="#3C1A8C"/>
<path d="M146.708 41.8372C141.708 41.3597 137.492 40.3707 134.023 38.8702C129.27 40.5072 124.061 41.3938 119.008 41.5985H118.938C118.658 41.5985 118.472 41.4961 118.438 41.1892L117.526 36.3466C117.472 36.2784 117.495 36.1761 117.511 36.1079C117.566 35.8692 117.773 35.7327 118.088 35.7327C121.7 35.6986 125.073 35.494 128.08 35.0507C126.707 33.7207 125.548 32.2201 124.647 30.515H123.142C122.792 30.515 122.629 30.3104 122.708 29.9693L123.11 28.2301H120.695C120.345 28.2301 120.182 28.0255 120.261 27.6844L122.087 19.7726C122.166 19.4315 122.423 19.2269 122.773 19.2269H126.588C126.478 18.3402 126.235 17.4195 125.802 16.5669L124.305 16.5328C123.99 16.5328 123.812 16.3964 123.785 16.0553L123.662 11.5879C123.643 11.5196 123.658 11.4514 123.666 11.4173C123.729 11.1445 123.944 10.974 124.294 10.974L129.808 11.0422C138.488 11.0422 147.464 10.6671 152.643 9.91681H152.783C153.028 9.91681 153.214 10.0191 153.256 10.2919L154.38 14.5207C154.418 14.6571 154.43 14.7594 154.406 14.8617C154.367 15.0323 154.238 15.1346 154.055 15.1687L150.496 15.5779L152.081 15.9871C152.31 16.0553 152.446 16.2259 152.399 16.4305C152.383 16.4987 152.324 16.601 152.231 16.7033C151.622 17.5218 150.806 18.4767 150.073 19.2269H153.083C153.433 19.2269 153.596 19.4315 153.517 19.7726L151.699 27.6503C151.62 27.9914 151.363 28.196 151.013 28.196H148.213L147.921 29.4578C147.858 29.7306 147.784 29.9011 147.597 30.1058C145.88 32.0837 143.876 33.7889 141.621 35.2212C144.31 35.6986 147.273 35.9033 150.345 35.9374C150.765 35.9374 150.885 36.1761 150.616 36.5853L147.468 41.4279C147.292 41.7349 147.015 41.8713 146.708 41.8372ZM135.295 33.2091C137.071 32.493 138.605 31.6063 139.837 30.515H131.962C132.795 31.6063 133.921 32.493 135.295 33.2091ZM145.785 25.6724L146.147 24.1036H127.457L127.095 25.6724H145.785ZM136.003 19.2269C135.936 18.3061 135.763 17.3854 135.381 16.4646L132.145 16.5328C132.493 17.4536 132.7 18.3743 132.783 19.2269H136.003ZM143.668 19.2269C144.674 18.2038 145.451 17.1125 146.069 15.953L141.639 16.1918C141.971 17.1807 142.119 18.2038 142.128 19.2269H143.668Z" fill="#3C1A8C"/>
</g>
<defs>
<clipPath id="clip0_452_5461">
<rect width="375" height="54" fill="white"/>
</clipPath>
</defs>
</svg>
