<svg width="375" height="131" viewBox="0 0 375 131" fill="none" xmlns="http://www.w3.org/2000/svg">
<g clip-path="url(#clip0_452_5499)">
<path d="M22.8682 33.748H365.815L355.004 84.6117H12.0568L22.8682 33.748Z" fill="white"/>
<path d="M95.1016 80.2334H289.219L278.408 131.097H84.2902L95.1016 80.2334Z" fill="white"/>
<path d="M110.125 111.172C109.798 111.206 109.609 111.103 109.496 110.827L108.681 108.378C108.661 108.309 108.642 108.24 108.65 108.205C107.788 108.412 106.898 108.585 105.973 108.757C105.639 108.826 105.423 108.688 105.345 108.412L104.556 104.928C104.467 104.549 104.708 104.273 105.14 104.238C109.346 103.962 112.259 103.307 114.358 102.341H106.216C105.862 102.341 105.697 102.134 105.777 101.789L106.485 98.719C106.565 98.3741 106.825 98.1671 107.179 98.1671H118.72C118.942 97.8222 119.128 97.4772 119.286 97.0978C115.915 97.1323 112.63 97.0978 109.586 97.0978C109.232 97.0978 109.059 96.9253 109.06 96.6148L109.247 93.1998C109.326 92.8549 109.453 92.6134 109.878 92.6134H109.913L113.917 92.7514C115.584 91.5096 117.083 90.2332 118.278 88.8879C118.511 88.6465 118.747 88.543 119.058 88.5775L124.394 89.2329C124.634 89.2674 124.744 89.4054 124.696 89.6123C124.672 89.7158 124.597 89.8883 124.423 90.0263C123.299 91.0611 122.121 92.027 121.001 92.8894C123.727 92.8894 126.418 92.8894 129.175 92.7514C128.685 92.2684 128.187 91.82 127.673 91.4406C127.519 91.3371 127.445 91.1991 127.477 91.0611C127.509 90.9231 127.674 90.8197 127.911 90.7162L132.163 89.1639C132.47 89.0604 132.683 89.0604 132.891 89.2329C134.751 90.6817 136.995 92.9239 138.671 95.4765C138.754 95.58 138.757 95.718 138.733 95.8214C138.694 95.9939 138.555 96.1319 138.355 96.2354L134.545 98.1671H138.263C138.617 98.1671 138.781 98.3741 138.702 98.719L137.993 101.789C137.913 102.134 137.653 102.341 137.299 102.341H129.546C131.305 103.617 134.705 104.376 137.855 104.687C138.236 104.721 138.358 104.963 138.128 105.342L135.816 109.378C135.638 109.688 135.358 109.826 135.02 109.757C129.807 108.723 125.091 105.997 122.572 102.341H121.58C119.104 104.48 115.724 106.239 111.358 107.515C115.557 106.963 119.356 105.687 121.862 104.342C122.019 104.273 122.134 104.238 122.24 104.238C122.381 104.238 122.515 104.273 122.625 104.411L124.245 106.135C124.354 106.273 124.393 106.411 124.369 106.515C124.337 106.653 124.235 106.791 124.034 106.894C119.834 109.137 114.693 110.551 110.125 111.172ZM133.058 98.1671C132.824 97.6497 132.499 97.0633 132.166 96.5113C130.101 96.7183 127.952 96.8218 125.769 96.9253C125.603 97.3392 125.401 97.7532 125.199 98.1671H133.058ZM107.559 115.691C107.24 115.691 107.087 115.587 106.974 115.311L106.033 112.793C105.986 112.69 105.983 112.552 105.998 112.483C106.046 112.276 106.263 112.103 106.582 112.103C114.537 111.689 121.265 109.688 125.547 107.239C125.713 107.136 125.827 107.101 125.969 107.101C126.11 107.101 126.236 107.17 126.354 107.274L128.307 109.24C128.452 109.378 128.519 109.55 128.495 109.654C128.471 109.757 128.42 109.826 128.297 109.895C123.298 112.69 115.321 115.346 107.559 115.691ZM105.113 121.072C104.759 121.072 104.578 120.934 104.536 120.658L103.523 117.07C103.406 116.656 103.674 116.415 104.099 116.415C114.57 116.45 123.789 114.242 129.898 110.171C130.063 110.068 130.177 110.033 130.284 110.033C130.425 110.033 130.559 110.068 130.669 110.206L133.037 112.828C133.182 112.965 133.221 113.103 133.189 113.241C133.165 113.345 133.106 113.448 132.984 113.517C125.693 118.416 115.994 120.865 105.113 121.072ZM156.361 108.102C153.767 118.416 152.864 120.796 145.63 120.692C145.276 120.692 145.131 120.554 145.096 120.244L144.679 116.07C143.715 117.795 142.676 119.382 141.508 120.761C141.354 120.968 141.161 121.037 140.984 121.037C140.877 121.037 140.779 121.003 140.689 120.934L136.614 118.036C136.433 117.898 136.394 117.76 136.434 117.588C136.458 117.484 136.517 117.381 136.62 117.243C141.158 112 143.068 105.722 144.619 99.6159H141.539C141.185 99.6159 141.021 99.4089 141.1 99.064L142.239 94.1312C142.319 93.7862 142.579 93.5793 142.933 93.5793H146.084C146.482 91.8545 146.853 90.0953 147.016 89.2329C147.096 88.8879 147.356 88.681 147.71 88.681H153.162C153.552 88.681 153.721 88.7154 153.721 88.7154C153.649 89.0259 153.21 91.2336 152.669 93.5793H159.112C159.466 93.5793 159.63 93.7862 159.551 94.1312C158.596 97.9601 157.26 104.514 156.361 108.102ZM175.479 90.9231C175.833 90.9231 175.998 91.1301 175.918 91.4751L169.444 119.52C169.364 119.865 169.104 120.071 168.75 120.071H155.438C155.084 120.071 154.92 119.865 154.999 119.52L161.474 91.4751C161.554 91.1301 161.814 90.9231 162.168 90.9231H175.479ZM162.185 114.311H164.486L168.556 96.6838H166.254L162.185 114.311ZM150.708 99.6159C149.468 104.376 147.796 109.93 145.423 114.69C148.55 114.794 148.926 113.931 150.565 107.446C151.241 104.825 151.74 102.203 152.337 99.6159H150.708ZM210.89 95.0281C210.81 95.373 210.55 95.58 210.196 95.58H207.116L202.927 113.724C201.613 119.416 199.728 121.141 190.677 120.934C190.323 120.934 190.143 120.796 190.1 120.52L189.229 115.553C189.209 115.484 189.233 115.38 189.249 115.311C189.305 115.07 189.514 114.932 189.832 114.932H189.868C196.008 115.173 196.206 114.621 196.62 112.828L200.602 95.58H178.015C177.661 95.58 177.496 95.373 177.576 95.0281L178.731 90.0263C178.81 89.6813 179.071 89.4743 179.425 89.4743H211.605C211.959 89.4743 212.124 89.6813 212.044 90.0263L210.89 95.0281ZM194.051 113.069C193.971 113.414 193.711 113.621 193.357 113.621H176.753C176.399 113.621 176.234 113.414 176.314 113.069L179.707 98.3741C179.786 98.0291 180.046 97.8222 180.4 97.8222H197.004C197.358 97.8222 197.523 98.0291 197.443 98.3741L194.051 113.069ZM189.074 107.791L190.037 103.617H184.691L183.728 107.791H189.074ZM227.611 100.651C227.965 100.651 228.13 100.858 228.05 101.203L224.881 114.932C223.917 119.106 222.505 120.623 217.001 120.692C216.683 120.692 216.502 120.554 216.468 120.244L216.03 116.312C216.011 116.243 216.035 116.139 216.051 116.07C216.106 115.829 216.315 115.691 216.705 115.691C218.573 115.725 218.908 115.346 219.092 114.552L219.203 114.069H215.875L214.402 120.451C214.322 120.796 214.062 121.003 213.708 121.003H208.823C208.469 121.003 208.304 120.796 208.384 120.451L212.827 101.203C212.907 100.858 213.167 100.651 213.521 100.651H227.611ZM240.086 104.583C240.243 104.514 240.365 104.445 240.472 104.445C240.613 104.445 240.731 104.549 240.833 104.721L242.75 108.378C242.832 108.481 242.836 108.619 242.812 108.723C242.772 108.895 242.634 109.033 242.433 109.137C239.341 110.723 236.223 111.655 232.822 112.276L232.432 113.966C232.337 114.38 232.572 114.587 232.961 114.587C233.52 114.621 234.378 114.587 234.873 114.587C236.156 114.552 236.428 114.138 236.949 112.034C237.053 111.586 237.341 111.413 237.698 111.551L241.993 113.345C242.287 113.448 242.373 113.69 242.301 114C240.95 118.933 239.688 120.106 234.869 120.278C233.295 120.347 230.896 120.313 229.665 120.278C226.652 120.14 224.99 119.52 225.786 116.07L228.327 105.066C228.406 104.721 228.667 104.514 229.021 104.514H234.048C234.402 104.514 234.566 104.721 234.487 105.066L234.041 106.998C236.053 106.411 238.147 105.618 240.086 104.583ZM218.503 88.8879C218.689 88.543 218.96 88.4395 219.271 88.474L224.501 89.1294C224.918 89.1639 224.996 89.4398 224.774 89.7848C223.759 91.2681 222.5 92.8894 221.348 94.2002L224.259 93.8552C224.214 93.1308 224.106 92.3719 223.982 91.682C223.92 91.3371 224.082 91.0956 224.496 90.9921L228.384 90.0953C228.754 90.0263 228.943 90.1297 229.029 90.3712C229.664 92.3719 230.09 94.8211 230.17 97.2357L232.049 89.0949C232.129 88.7499 232.389 88.543 232.743 88.543H237.877C238.231 88.543 238.395 88.7499 238.316 89.0949L237.83 91.1991C239.932 90.6817 241.728 89.9573 243.555 89.0949C243.713 89.0259 243.827 88.9914 243.933 88.9914C244.11 88.9914 244.236 89.0604 244.302 89.2329L246.066 92.7859C246.141 92.9239 246.152 93.0273 246.128 93.1308C246.089 93.3033 245.95 93.4413 245.714 93.5448C242.969 94.8556 239.453 95.8214 236.643 96.3389L236.325 97.7187C236.229 98.1326 236.304 98.2706 236.862 98.3051C237.287 98.3051 237.845 98.3396 238.278 98.3051C239.498 98.2361 239.841 97.8222 240.286 96.2009C240.382 95.7869 240.669 95.6145 241.027 95.7524L245.263 97.3392C245.558 97.4427 245.644 97.6842 245.528 98.0291C244.079 102.927 242.106 103.652 238.64 103.79C237.464 103.824 234.88 103.824 233.613 103.79C229.715 103.652 228.896 102.755 229.74 99.0985L229.772 98.9605C229.728 98.995 229.65 99.0295 229.614 99.0295L224.902 100.271C224.524 100.375 224.308 100.237 224.317 99.8919L224.312 98.995C220.372 99.6504 216.147 99.8574 212.638 100.03C212.276 100.064 212.103 99.8919 212.148 99.5469L212.679 95.097C212.732 94.7176 212.992 94.5106 213.381 94.5106H214.762C216.219 92.6479 217.451 90.6817 218.503 88.8879ZM220.262 109.481H216.935L216.6 110.93H219.928L220.262 109.481ZM221.322 104.894H217.994L217.659 106.342H220.987L221.322 104.894ZM259.079 111.103C258.618 111.103 258.426 110.861 258.522 110.447L262.76 90.0953C262.856 89.6813 263.124 89.4398 263.584 89.4398H269.107C269.567 89.4398 269.724 89.6813 269.628 90.0953L264.469 110.447C264.374 110.861 264.07 111.103 263.61 111.103H259.079ZM259.091 120.865C256.789 120.865 255.417 119.451 255.926 117.243C256.452 114.966 258.478 113.552 260.779 113.552C263.08 113.552 264.417 114.966 263.892 117.243C263.382 119.451 261.392 120.865 259.091 120.865Z" fill="#3C1A8C"/>
<path d="M179.155 77.6633C165.836 77.6633 157.455 70.7875 156.136 58.9265C156.107 58.6687 156.079 58.4108 156.118 58.2389C156.277 57.5513 156.886 57.2076 157.631 57.0357L170.979 53.8556C171.176 53.7696 171.352 53.7696 171.528 53.7696C172.146 53.7696 172.508 54.1134 172.722 54.715C173.67 59.0125 176.839 61.3331 181.867 61.3331C187.777 61.3331 192.128 58.153 193.279 53.168C194.469 48.011 191.45 44.659 185.452 44.659C181.482 44.659 178.137 45.7764 172.199 48.9565C171.806 49.1284 171.433 49.2143 171.081 49.2143C170.728 49.2143 170.395 49.1284 170.082 48.9565L163.212 45.0888C162.586 44.745 162.372 44.1434 162.658 43.2839L173.941 7.78705C174.375 6.66972 174.984 6.32593 175.866 6.32593H217.06C217.942 6.32593 218.42 6.92757 218.202 7.873L215.146 21.1091C214.928 22.0545 214.172 22.6562 213.29 22.6562H184.357L180.088 35.0328C184.585 32.3684 189.107 30.7354 194.576 30.7354C207.72 30.7354 214.898 39.76 211.783 53.2539C208.469 67.6073 195.033 77.6633 179.155 77.6633Z" fill="#3C1A8C"/>
<path d="M180.017 67.8068C168.138 67.8068 160.663 61.6743 159.487 51.0958C159.461 50.8658 159.436 50.6359 159.471 50.4826C159.613 49.8693 160.155 49.5627 160.82 49.4094L172.725 46.5731C172.9 46.4965 173.057 46.4965 173.215 46.4965C173.765 46.4965 174.088 46.8031 174.279 47.3397C175.125 51.1725 177.951 53.2422 182.435 53.2422C187.707 53.2422 191.587 50.4059 192.613 45.9599C193.675 41.3605 190.982 38.371 185.633 38.371C182.093 38.371 179.109 39.3675 173.812 42.2037C173.462 42.3571 173.13 42.4337 172.815 42.4337C172.501 42.4337 172.204 42.3571 171.924 42.2037L165.798 38.7542C165.239 38.4476 165.048 37.911 165.304 37.1445L175.366 5.48564C175.754 4.48912 176.297 4.1825 177.083 4.1825H213.823C214.61 4.1825 215.037 4.71908 214.842 5.5623L212.117 17.3673C211.922 18.2105 211.247 18.7471 210.461 18.7471H184.656L180.849 29.7855C184.859 27.4092 188.893 25.9527 193.771 25.9527C205.493 25.9527 211.895 34.0016 209.117 46.0365C206.161 58.838 194.178 67.8068 180.017 67.8068Z" fill="url(#paint0_linear_452_5499)"/>
<path d="M180.017 67.8068C168.138 67.8068 160.663 61.6743 159.487 51.0958C159.461 50.8658 159.436 50.6359 159.471 50.4826C159.613 49.8693 160.155 49.5627 160.82 49.4094L172.725 46.5731C172.9 46.4965 173.057 46.4965 173.215 46.4965C173.765 46.4965 174.088 46.8031 174.279 47.3397C175.125 51.1725 177.951 53.2422 182.435 53.2422C187.707 53.2422 191.587 50.4059 192.613 45.9599C193.675 41.3605 190.982 38.371 185.633 38.371C182.093 38.371 179.109 39.3675 173.812 42.2037C173.462 42.3571 173.13 42.4337 172.815 42.4337C172.501 42.4337 172.204 42.3571 171.924 42.2037L165.798 38.7542C165.239 38.4476 165.048 37.911 165.304 37.1445L175.366 5.48564C175.754 4.48912 176.297 4.1825 177.083 4.1825H213.823C214.61 4.1825 215.037 4.71908 214.842 5.5623L212.117 17.3673C211.922 18.2105 211.247 18.7471 210.461 18.7471H184.656L180.849 29.7855C184.859 27.4092 188.893 25.9527 193.771 25.9527C205.493 25.9527 211.895 34.0016 209.117 46.0365C206.161 58.838 194.178 67.8068 180.017 67.8068Z" fill="white" fill-opacity="0.2"/>
<rect x="173" y="2" width="46" height="5" fill="white"/>
<rect x="155.602" y="48.1627" width="19.3327" height="5" transform="rotate(-14.5141 155.602 48.1627)" fill="white"/>
<path d="M187.977 45.96C188.245 44.8001 187.998 44.1789 187.657 43.8058C187.274 43.3871 186.397 42.8894 184.59 42.8894C182.865 42.8894 181.31 43.1776 178.538 44.4499C178.608 44.5832 178.671 44.7144 178.725 44.8439L178.823 45.0979L178.896 45.3035L178.944 45.5204C179.413 47.6463 180.758 48.7242 183.479 48.7242L182.436 53.2421L182.021 53.2364C177.777 53.1114 175.099 51.0528 174.279 47.3397C174.089 46.8032 173.766 46.4967 173.215 46.4967C173.058 46.4967 172.901 46.4963 172.726 46.5728L160.821 49.4093L160.578 49.474C160.026 49.6438 159.596 49.9461 159.472 50.4827C159.436 50.6359 159.462 50.8656 159.487 51.0954C160.646 61.5088 167.906 67.6144 179.464 67.8025L180.018 67.8063C194.179 67.8061 206.162 58.8375 209.117 46.0361C211.852 34.1895 205.691 26.2055 194.317 25.9588L193.772 25.9531C188.894 25.9531 184.86 27.4095 180.85 29.7859L184.657 18.7471H210.462L210.608 18.7405C211.282 18.6825 211.854 18.2251 212.076 17.5215L212.117 17.3674L214.842 5.56268C215.025 4.77222 214.661 4.25076 213.967 4.18866L213.824 4.182L214.867 -0.335876C216.378 -0.335808 217.845 0.203174 218.769 1.42731C219.626 2.56425 219.783 3.98069 219.535 5.30006L219.48 5.56268L216.755 17.3674L216.688 17.63C216.327 18.9493 215.516 20.366 214.134 21.5028C212.645 22.7268 210.929 23.2649 209.418 23.265H204.335C206.995 24.4271 209.229 26.1267 210.927 28.3224C214.378 32.7867 215.381 38.9912 213.754 46.0361C212.001 53.6279 207.496 60.2926 201.16 65.0335C194.854 69.7517 187.065 72.325 178.975 72.3251C165.398 72.3251 156.432 65.2501 154.829 53.107L154.758 52.5247C154.749 52.4387 154.721 52.1985 154.708 51.949C154.7 51.7835 154.679 51.3232 154.783 50.7396L154.834 50.4827L154.912 50.1829C155.335 48.6963 156.318 47.3673 157.624 46.4149C158.795 45.5605 159.957 45.2024 160.669 45.0351L164.955 44.0132L162.758 42.7771L162.759 42.7752C161.861 42.2735 161.051 41.4616 160.666 40.2556C160.288 39.0702 160.426 37.8359 160.773 36.7625H160.772L170.835 5.10404L170.883 4.95084L170.943 4.7986C171.338 3.78164 172.137 2.24983 173.808 1.06002C175.517 -0.157636 177.179 -0.335868 178.127 -0.335876L177.084 4.182C176.297 4.18202 175.754 4.48912 175.367 5.4856L165.304 37.1441C165.048 37.9106 165.24 38.4474 165.799 38.7541L171.925 42.2034L172.138 42.3042C172.354 42.3904 172.58 42.4336 172.816 42.4336C173.131 42.4336 173.463 42.3566 173.813 42.2034C179.109 39.3671 182.093 38.3706 185.633 38.3706C190.983 38.3706 193.675 41.3607 192.614 45.96L192.51 46.372C191.344 50.5804 187.542 53.2421 182.436 53.2421L183.479 48.7242C185.289 48.7242 186.328 48.2419 186.822 47.8859C187.242 47.5838 187.723 47.0573 187.977 45.96ZM214.867 -0.335876L213.824 4.182H177.084L178.127 -0.335876H214.867Z" fill="#3C1A8C"/>
<path d="M282.069 72.8963C281.711 72.8963 281.567 72.6548 281.648 72.2754L287.337 45.4382C287.418 45.0587 287.664 44.8173 288.021 44.8173H296.864C304.178 44.8173 307.236 48.3358 305.803 55.0968C304.377 61.8233 299.813 65.4108 292.498 65.4108H289.735L288.279 72.2754C288.199 72.6548 287.92 72.8963 287.563 72.8963H282.069ZM293.601 59.4432C296.331 59.4432 298.278 58.2359 298.958 55.0278C299.609 51.9577 298.167 50.7849 295.436 50.7849H292.835L291 59.4432H293.601Z" fill="#3C1A8C"/>
<path d="M260.834 72.8963C260.477 72.8963 260.333 72.6548 260.413 72.2754L266.103 45.4382C266.183 45.0587 266.429 44.8173 266.787 44.8173H284.212C284.537 44.8173 284.746 45.0587 284.665 45.4382L283.62 50.371C283.539 50.7504 283.228 50.9919 282.903 50.9919H271.59L270.617 55.5797H280.597C280.955 55.5797 281.139 55.7867 281.058 56.1661L280.049 60.9265C279.969 61.3059 279.69 61.5474 279.332 61.5474H269.352L268.255 66.7216H279.991C280.316 66.7216 280.525 66.9631 280.444 67.3426L279.399 72.2754C279.318 72.6548 279.007 72.8963 278.682 72.8963H260.834Z" fill="#3C1A8C"/>
<path d="M243.978 72.8963C243.621 72.8963 243.477 72.6548 243.557 72.2754L247.96 51.5093H240.353C239.995 51.5093 239.851 51.2678 239.924 50.9229L241.087 45.4382C241.168 45.0587 241.414 44.8173 241.771 44.8173H263.682C264.04 44.8173 264.216 45.0587 264.136 45.4382L262.973 50.9229C262.9 51.2678 262.621 51.5093 262.264 51.5093H254.689L250.287 72.2754C250.206 72.6548 249.928 72.8963 249.57 72.8963H243.978Z" fill="#3C1A8C"/>
<path d="M225.076 73.4483C220.069 73.4483 216.926 70.7922 216.487 65.9629C216.477 65.8594 216.491 65.7904 216.506 65.7214C216.557 65.48 216.764 65.273 217.038 65.204L222.323 63.8932C222.388 63.8932 222.46 63.8587 222.525 63.8587C222.753 63.8587 222.918 63.9967 222.957 64.2727C223.306 66.3079 224.456 67.1702 226.602 67.1702C228.325 67.1702 229.659 66.5493 229.937 65.2385C230.237 63.8242 229.213 63.1343 227.21 62.3064L224.666 61.2716C220.95 59.7883 218.974 56.9942 219.859 52.8203C220.926 47.784 225.899 44.2655 231.165 44.2655C235.586 44.2655 238.669 46.4387 239.155 51.199C239.173 51.268 239.151 51.3715 239.137 51.4405C239.078 51.7164 238.879 51.8889 238.604 51.9579L233.048 53.4757C232.944 53.5102 232.879 53.5102 232.814 53.5102C232.554 53.5102 232.453 53.3722 232.381 53.0962C232.025 51.0955 231.069 50.5436 229.736 50.5436C228.274 50.5436 227.055 51.2335 226.799 52.4408C226.55 53.6137 227.357 54.4071 229.851 55.3729L231.687 56.0628C236.01 57.7531 237.785 60.2712 236.805 64.8936C235.752 69.8609 230.927 73.4483 225.076 73.4483Z" fill="#3C1A8C"/>
<path d="M330.642 73.2412C318.283 73.1032 314.915 67.7565 316.181 62.2717C317.16 58.0288 320.925 53.6825 325.51 51.6128C321.477 51.7507 316.395 51.9922 312.237 52.0612C311.812 52.0612 311.612 51.8542 311.715 51.4058L312.764 46.404C312.859 45.9901 313.127 45.7486 313.552 45.7486C321.022 45.7486 333.696 45.7486 341.56 45.5761C341.985 45.5761 342.185 45.7831 342.089 46.197L340.951 51.1298C340.855 51.5438 340.587 51.7852 340.162 51.7852C339.1 51.7852 338.085 51.8887 337.089 52.0612C332.583 52.7166 324.473 56.718 323.406 61.3404C322.721 64.307 325.456 66.7216 333.276 66.5836C333.701 66.5836 333.865 66.7906 333.794 67.1011L333.754 67.2735L331.52 72.6548C331.354 73.0687 331.066 73.2412 330.642 73.2412ZM333.355 62.0993C332.891 62.2717 332.647 62.0993 332.593 61.7198C332.362 59.9606 331.821 58.1668 331.05 56.7525C330.983 56.5801 330.944 56.4421 330.976 56.3041C331.016 56.1316 331.197 55.9591 331.469 55.8557L333.741 55.0623C334.127 54.9243 334.402 54.9588 334.578 55.2692C335.389 56.5111 336.17 58.6498 336.488 60.34C336.542 60.7195 336.328 61.0299 335.907 61.1679L333.355 62.0993ZM338.679 60.202C338.214 60.3745 337.971 60.202 337.917 59.8226C337.646 58.2358 336.967 56.2696 336.263 55.0278C336.188 54.8898 336.149 54.7518 336.181 54.6138C336.229 54.4069 336.41 54.2344 336.717 54.1309L338.883 53.3375C339.269 53.1995 339.58 53.234 339.764 53.51C340.61 54.7518 341.454 56.925 341.689 58.5118C341.743 58.8912 341.53 59.2017 341.108 59.3397L338.679 60.202Z" fill="#3C1A8C"/>
<path d="M132.724 55.9243C130.822 53.6821 128.121 51.6124 125.973 50.5086C125.764 50.4051 125.668 50.2326 125.713 50.0256C125.736 49.9222 125.832 49.7842 125.968 49.6117L129.572 45.8172C129.871 45.5068 130.126 45.4033 130.46 45.5413C132.826 46.4037 136.057 48.4734 138.146 50.9225C138.275 51.095 138.344 51.233 138.307 51.4055C138.277 51.5434 138.181 51.6814 138.019 51.8194L133.626 55.8898C133.456 56.0623 133.276 56.1313 133.11 56.1313C132.977 56.1313 132.86 56.0623 132.724 55.9243ZM124.222 72.413C123.843 72.482 123.589 72.275 123.572 71.8955L123.162 66.5833C123.119 66.1694 123.344 65.8934 123.823 65.8244C135.463 64.4101 142.332 58.2355 147.789 48.4734C147.949 48.1974 148.152 48.0249 148.35 48.0249C148.483 48.0249 148.567 48.0939 148.685 48.1629L152.419 51.1295C152.672 51.3365 152.745 51.6124 152.531 51.9919C146.711 62.5129 137.73 70.4812 124.222 72.413Z" fill="#3C1A8C"/>
<path d="M96.4294 73.276C96.0756 73.3795 95.8329 73.276 95.668 72.9655L93.1291 67.9982C93.0595 67.8603 93.023 67.7223 93.0454 67.6188C93.0976 67.3773 93.2931 67.2394 93.6395 67.1704C98.2444 66.4115 102.469 64.6522 106.033 61.9616C104.078 60.5818 101.883 59.2365 99.8091 58.0982C98.8017 58.926 97.824 59.6159 96.8356 60.2024C96.6807 60.3058 96.5407 60.3403 96.4081 60.3403C96.2424 60.3403 96.0916 60.2713 95.9889 60.1334L93.0847 56.8563C92.9488 56.7184 92.9198 56.5459 92.9496 56.4079C92.9869 56.2354 93.1236 56.0629 93.3854 55.925C98.4153 53.1999 102.225 48.3016 103.908 45.266C104.115 44.921 104.351 44.7486 104.749 44.7486L122.561 44.6796C122.992 44.6796 123.138 44.921 123.008 45.3695C118.56 60.8923 109.313 69.4815 96.4294 73.276ZM104.262 53.7518C106.34 54.7176 108.697 55.925 110.825 57.2703C112.418 55.2696 113.746 52.9584 114.769 50.3713H106.749C106.072 51.5096 105.196 52.6479 104.262 53.7518Z" fill="#3C1A8C"/>
<path d="M73.0675 55.9243C71.1659 53.6821 68.4647 51.6124 66.3171 50.5086C66.1075 50.4051 66.0122 50.2326 66.0569 50.0256C66.0793 49.9222 66.1754 49.7842 66.3121 49.6117L69.9161 45.8172C70.2151 45.5068 70.4695 45.4033 70.8042 45.5413C73.1698 46.4037 76.4011 48.4734 78.49 50.9225C78.6184 51.095 78.688 51.233 78.6508 51.4055C78.6209 51.5434 78.5248 51.6814 78.3624 51.8194L73.9697 55.8898C73.7999 56.0623 73.6193 56.1313 73.4536 56.1313C73.321 56.1313 73.2033 56.0623 73.0675 55.9243ZM64.5658 72.413C64.1863 72.482 63.9328 72.275 63.9154 71.8955L63.5058 66.5833C63.4627 66.1694 63.6881 65.8934 64.1669 65.8244C75.807 64.4101 82.6761 58.2355 88.1332 48.4734C88.2923 48.1974 88.4953 48.0249 88.6941 48.0249C88.8267 48.0249 88.9112 48.0939 89.0289 48.1629L92.7624 51.1295C93.0159 51.3365 93.0889 51.6124 92.8743 51.9919C87.0543 62.5129 78.0742 70.4812 64.5658 72.413Z" fill="#3C1A8C"/>
<path d="M43.8068 72.4819C43.4496 72.4474 43.2624 72.2405 43.2781 71.861L43.4055 66.8247C43.403 66.3763 43.7277 66.1003 44.21 66.1693C45.3326 66.3418 46.2788 66.4108 47.0742 66.4108C49.9907 66.4108 51.2309 65.2725 52.4131 62.4094C53.1952 60.4776 53.9697 57.2006 54.378 54.5445H49.0091C46.301 62.1679 42.123 68.6185 34.2206 72.8269C34.0657 72.9304 33.9256 72.9649 33.7931 72.9649C33.6274 72.9649 33.5097 72.8959 33.3813 72.7234L30.3354 68.722C30.2326 68.584 30.1962 68.446 30.226 68.308C30.2707 68.1011 30.4406 67.9286 30.7281 67.8251C37.1201 65.238 40.6751 60.4431 42.9774 54.5445H35.8188C35.4211 54.5445 35.2338 54.3375 35.3308 53.8891L36.2999 49.4047C36.3894 48.9908 36.6736 48.7493 37.0713 48.7493H44.7601C45.1544 47.2315 45.4825 45.7137 45.7922 44.127C45.8892 43.6785 46.1327 43.4716 46.5304 43.4716L51.4279 43.5061C51.8588 43.5061 52.0129 43.713 51.916 44.1615C51.5805 45.7137 51.1787 47.266 50.7919 48.7493H61.2314C61.6291 48.7493 61.8089 48.9908 61.712 49.4392C60.7727 53.7856 59.5301 59.9947 58.1649 63.8582C56.0466 69.8258 52.3606 72.6199 46.3951 72.6199C45.5666 72.6199 44.7123 72.5854 43.8068 72.4819Z" fill="#3C1A8C"/>
</g>
<defs>
<linearGradient id="paint0_linear_452_5499" x1="198.875" y1="-14.5889" x2="198.875" y2="87.72" gradientUnits="userSpaceOnUse">
<stop stop-color="#FFC400"/>
<stop offset="1" stop-color="#FFF874"/>
</linearGradient>
<clipPath id="clip0_452_5499">
<rect width="375" height="131" fill="white"/>
</clipPath>
</defs>
</svg>
