<svg width="375" height="144" viewBox="0 0 375 144" fill="none" xmlns="http://www.w3.org/2000/svg">
<g clip-path="url(#clip0_452_5607)">
<path d="M349.17 -6.43257L355.042 -7.47953L354.298 -1.66656C359.842 -2.43543 365.154 -4.97269 369.289 -9.26015C374.683 -14.8479 376.923 -22.2415 376.114 -29.3535C368.837 -29.7527 361.447 -27.1395 356.053 -21.5518C351.916 -17.2533 349.634 -11.9041 349.169 -6.42155L349.17 -6.43257Z" fill="#F3DDC2"/>
<path d="M295.812 36.9838L291.162 35.7678L293.669 31.7652C289.352 30.4565 284.609 30.5203 280.136 32.2619C274.303 34.5298 270.168 39.184 268.359 44.6616C273.55 47.4101 279.839 47.9921 285.672 45.7242C290.15 43.975 293.626 40.8311 295.817 36.9763L295.812 36.9838Z" fill="#F3DDC2"/>
<path d="M143.738 40.5022L149.167 42.9725L145.256 47.3367C150.257 49.8498 156.07 50.7749 161.908 49.5912C169.521 48.0518 175.561 43.2354 178.93 36.9201C173.165 32.4617 165.598 30.42 157.985 31.9594C152.14 33.1512 147.225 36.2603 143.731 40.5104L143.738 40.5022Z" fill="#F3DDC2"/>
<path d="M133.738 124.502L139.167 126.973L135.256 131.337C140.257 133.85 146.07 134.775 151.908 133.591C159.521 132.052 165.561 127.235 168.93 120.92C163.165 116.462 155.598 114.42 147.985 115.959C142.14 117.151 137.225 120.26 133.731 124.51L133.738 124.502Z" fill="#F3DDC2"/>
<path d="M131.606 80.0689L134.14 81.91L131.67 83.7449C133.979 85.5631 136.873 86.6494 140.001 86.6532C144.08 86.6604 147.693 84.8163 150.09 81.9206C147.592 79.0212 143.913 77.1762 139.834 77.1691C136.701 77.1686 133.846 78.2523 131.601 80.0723L131.606 80.0689Z" fill="#F3DDC2"/>
<path d="M106.71 53.1339L109.244 54.9749L106.773 56.8099C109.083 58.628 111.977 59.7143 115.105 59.7182C119.183 59.7254 122.797 57.8812 125.194 54.9855C122.695 52.0862 119.016 50.2412 114.937 50.234C111.805 50.2336 108.949 51.3173 106.705 53.1373L106.71 53.1339Z" fill="#F3DDC2"/>
<path d="M49.938 82.5817L55.2964 83.8028L52.5771 88.4679C57.5572 89.807 62.9753 89.5623 68.0239 87.4098C74.6084 84.6066 79.1651 79.1379 81.0333 72.8127C75.0021 69.8597 67.7938 69.4226 61.2092 72.2258C56.1554 74.387 52.297 78.1058 49.9327 82.5905L49.938 82.5817Z" fill="#FFEDD6"/>
<path d="M67.1541 115.477L70.3434 116.204L68.7249 118.981C71.6891 119.778 74.9139 119.632 77.9188 118.351C81.8379 116.682 84.55 113.428 85.6619 109.663C82.0722 107.905 77.7818 107.645 73.8627 109.313C70.8547 110.6 68.5582 112.813 67.151 115.482L67.1541 115.477Z" fill="#F3DDC2"/>
<path d="M4.82086 123.696L9.85517 124.843L7.30035 129.226C11.9793 130.484 17.0697 130.254 21.8129 128.232C27.9992 125.598 32.2803 120.46 34.0355 114.517C28.3691 111.743 21.5967 111.332 15.4104 113.966C10.6622 115.997 7.03719 119.49 4.81584 123.704L4.82086 123.696Z" fill="#F3DDC2"/>
<path d="M15.9807 53.6104L18.6928 54.2284L17.3164 56.5896C19.8371 57.2674 22.5794 57.1435 25.1347 56.0541C28.4674 54.6353 30.7737 51.8674 31.7193 48.6659C28.6667 47.1713 25.0182 46.95 21.6855 48.3688C19.1275 49.4627 17.1747 51.3449 15.978 53.6148L15.9807 53.6104Z" fill="#F3DDC2"/>
<path d="M234.666 100.388L231.884 100.371L232.717 97.7682C230.109 97.6522 227.458 98.3669 225.2 99.9838C222.253 102.091 220.601 105.292 220.371 108.622C223.675 109.421 227.285 108.847 230.231 106.74C232.492 105.118 233.991 102.858 234.667 100.383L234.666 100.388Z" fill="#F3DDC2"/>
<path d="M349.552 90.6202L356.772 90.5791L354.689 97.3599C361.46 97.583 368.317 95.6489 374.131 91.3852C381.715 85.8296 385.908 77.4712 386.405 68.8214C377.807 66.8486 368.456 68.4459 360.872 74.0015C355.054 78.278 351.231 84.1892 349.548 90.633L349.552 90.6202Z" fill="#F3DDC2"/>
</g>
<defs>
<clipPath id="clip0_452_5607">
<rect width="375" height="144" fill="white"/>
</clipPath>
</defs>
</svg>
