<svg width="40" height="40" viewBox="0 0 40 40" fill="none" xmlns="http://www.w3.org/2000/svg">
<rect width="40" height="40" fill="#FBEBFF"/>
<g clip-path="url(#clip0_3491_11)">
<path d="M30.9004 11.0327C31.6773 11.0327 32.3075 11.662 32.3076 12.4389C32.3076 13.216 31.6774 13.8462 30.9004 13.8462H9.09961C8.32257 13.8462 7.69238 13.216 7.69238 12.4389C7.69253 11.662 8.32267 11.0327 9.09961 11.0327H30.9004Z" fill="#AA68AA"/>
<path d="M30.9004 18.725C31.6773 18.725 32.3075 19.3543 32.3076 20.1312C32.3076 20.9083 31.6774 21.5385 30.9004 21.5385H9.09961C8.32257 21.5385 7.69238 20.9083 7.69238 20.1312C7.69253 19.3543 8.32267 18.725 9.09961 18.725H30.9004Z" fill="#AA68AA"/>
<path d="M30.9004 26.4173C31.6773 26.4173 32.3075 27.0466 32.3076 27.8235C32.3076 28.6006 31.6774 29.2308 30.9004 29.2308H9.09961C8.32257 29.2308 7.69238 28.6006 7.69238 27.8235C7.69253 27.0466 8.32267 26.4173 9.09961 26.4173H30.9004Z" fill="#AA68AA"/>
</g>
<defs>
<clipPath id="clip0_3491_11">
<rect width="24.6154" height="18.4615" fill="white" transform="translate(7.69238 10.7692)"/>
</clipPath>
</defs>
</svg>
