<svg width="223" height="58" viewBox="0 0 223 58" fill="none" xmlns="http://www.w3.org/2000/svg">
<rect x="0.473145" y="20.9298" width="219.588" height="37" rx="4" transform="rotate(-5.25575 0.473145 20.9298)" fill="#FF5A88"/>
<path d="M193.973 13.6248L187.587 27.1295L184.714 25.7704L191.099 12.2657L193.973 13.6248ZM186.636 29.5505L184.964 32.9119L181.936 31.3869L183.611 28.0481L186.636 29.5505Z" fill="white"/>
<path d="M166.399 17.1372L164.802 20.1266L159.857 17.4607L161.454 14.4712L166.399 17.1372ZM169.428 25.1698C169.771 28.4332 168.436 31.7591 165.405 35.1723L162.871 32.9356C165.229 30.253 166.291 27.7977 166.052 25.5246C165.978 24.8269 165.586 24.3448 164.893 24.0308C164.345 23.7926 163.676 23.7036 162.933 23.7817C161.358 23.9473 159.736 24.7549 158.07 26.227L155.824 23.687C158.054 21.746 160.305 20.6447 162.601 20.4034C164.289 20.226 165.779 20.5473 167.071 21.3671C168.46 22.2451 169.255 23.5268 169.428 25.1698Z" fill="white"/>
<path d="M148.912 21.137L147.812 24.0969L144.191 22.7708L144.48 25.5166L132.957 26.7277L132.654 23.8469L129.154 26.0579L127.463 23.3913L137.618 16.9539L148.912 21.137ZM147.87 36.9926L131.666 38.6958L130.606 28.6131L146.81 26.9099L147.87 36.9926ZM143.361 22.4485L137.987 20.4648L133.165 23.5201L143.361 22.4485ZM144.4 34.2855L143.979 30.2794L134.076 31.3202L134.497 35.3263L144.4 34.2855Z" fill="white"/>
<path d="M120.652 24.8353L112.662 25.675L112.308 22.2991L120.297 21.4594L120.652 24.8353ZM122.731 37.9055C117.892 38.4141 114.301 37.5855 111.96 35.4424L114.262 32.8795C115.847 34.3284 118.566 34.8618 122.369 34.4621L122.731 37.9055ZM110.223 38.8334L106.847 39.1882L105.108 22.6462L108.484 22.2914L110.223 38.8334Z" fill="white"/>
<path d="M100.266 42.6103L97.228 42.9296L96.0074 31.3165L89.8858 31.9599L88.9396 22.9575L98.0995 21.9948L100.266 42.6103ZM94.9255 41.8064L85.4279 42.8046L84.4817 33.8022L93.9793 32.804L94.9255 41.8064ZM88.4679 32.109L82.3912 32.7476L83.6118 44.3608L80.5735 44.6801L78.4067 24.0646L87.5217 23.1066L88.4679 32.109ZM95.7401 28.7734L95.3474 25.0374L92.1516 25.3732L92.2296 26.1159L94.7728 25.8486L94.9904 27.9192L92.4473 28.1865L92.5442 29.1093L95.7401 28.7734ZM85.2748 29.8733L84.8821 26.1373L81.7313 26.4685L81.8093 27.2112L84.3525 26.9439L84.5701 29.0144L82.027 29.2817L82.1239 30.2045L85.2748 29.8733ZM92.0297 39.585L91.6086 35.5789L87.3775 36.0236L87.4674 36.8788L90.9333 36.5145L91.1628 38.6976L87.6968 39.0619L87.7986 40.0297L92.0297 39.585Z" fill="white"/>
<path d="M72.7384 26.2077L71.3535 27.9688L69.5698 26.5862L68.1647 28.3722L66.4036 26.9873L67.811 25.2238L69.5698 26.5862L70.9773 24.8227L72.7384 26.2077ZM71.9967 34.9552L65.7626 35.6104L65.4077 32.2345L71.6419 31.5793L71.9967 34.9552ZM66.6848 31.3949L62.8813 31.7946L60.0814 44.5585L56.772 43.8141L59.3253 32.1684L56.8721 32.4262L56.5173 29.0503L60.0958 28.6742L60.7252 25.7865L64.0322 26.5084L63.6517 28.3005L66.33 28.019L66.6848 31.3949ZM73.3764 44.1851C72.9512 44.2525 72.5484 44.3176 72.1433 44.3602C68.3398 44.7599 65.4557 43.9481 63.4707 41.9495L65.8816 39.5572C67.2282 40.8947 69.5272 41.3357 72.7989 40.8553L73.3764 44.1851Z" fill="white"/>
<path d="M45.3673 38.5732L44.3659 41.8186C43.8945 41.6633 43.4053 41.5555 42.8758 41.4973L43.0272 42.9377C43.1763 44.3556 42.8314 45.6206 42.0103 46.6853C41.1668 47.7525 40.0485 48.3706 38.6306 48.5196C37.3478 48.6544 36.2178 48.2954 35.2431 47.4649C34.266 46.6119 33.6976 45.5339 33.5628 44.251C33.3783 42.4956 33.8192 41.0612 34.8605 39.9278C35.9019 38.7944 37.3175 38.1905 39.1049 38.0936L38.9819 36.9233L34.6832 37.3751L34.3521 34.2243L38.6507 33.7725L38.523 32.5572L34.2243 33.009L33.8932 29.8581L38.1918 29.4063L38.0357 27.9209L41.4116 27.5661L41.5677 29.0515L42.8731 28.9143L43.2042 32.0651L41.8989 32.2023L42.0266 33.4177L43.332 33.2805L43.6631 36.4313L42.3578 36.5685L42.5116 38.0314C43.5231 38.1299 44.4742 38.303 45.3673 38.5732ZM39.6513 43.2925L39.4597 41.4696L39.3922 41.4766C37.6142 41.6635 36.7897 42.4783 36.9387 43.8962C36.9742 44.2338 37.1198 44.5371 37.3982 44.8036C37.654 45.0725 37.9382 45.1792 38.2758 45.1437C38.7259 45.0964 39.092 44.8986 39.3491 44.5303C39.6062 44.162 39.701 43.7652 39.6513 43.2925Z" fill="white"/>
</svg>
