<svg width="335" height="362" viewBox="0 0 335 362" fill="none" xmlns="http://www.w3.org/2000/svg">
<rect width="335" height="362" fill="#092622"/>
<path d="M269.18 249.731C269.146 249.827 269.113 249.923 269.072 250.028C267.637 253.567 263.878 249.692 262.526 252.533C262.443 252.708 262.365 252.916 262.302 253.152C262.037 254.128 261.615 254.981 261.076 255.695C259.417 257.891 256.619 258.762 253.538 257.698C253.148 257.567 252.786 257.465 252.436 257.398C249.556 256.837 248.006 258.483 246.289 261.116C246.038 261.503 245.778 261.91 245.518 262.334C243.39 265.771 238.66 265.428 232.974 264.244C232.58 264.165 232.185 264.081 231.788 263.991C226.312 262.784 225.741 266.775 222.073 265.846C221.578 265.719 221.024 265.505 220.39 265.174C215.11 262.397 221.107 258.114 218.197 245.902C215.291 233.688 213.364 220.733 225.328 215.258C238.534 209.213 245.677 217.662 250.646 227.092C250.932 227.631 251.204 228.175 251.475 228.714C254.088 233.967 258.139 238.648 260.142 241.027C265.563 247.458 270.328 246.333 269.18 249.731Z" fill="#1D3734"/>
<path d="M311.18 85.7309C311.146 85.827 311.113 85.9231 311.072 86.0278C309.637 89.5665 305.878 85.6923 304.526 88.5326C304.443 88.7085 304.365 88.916 304.302 89.1517C304.037 90.1284 303.615 90.9808 303.076 91.6948C301.417 93.8913 298.619 94.7618 295.538 93.6982C295.148 93.5668 294.786 93.465 294.436 93.3982C291.556 92.8365 290.006 94.4832 288.289 97.1163C288.038 97.5031 287.778 97.9102 287.518 98.334C285.39 101.771 280.66 101.428 274.974 100.244C274.58 100.165 274.185 100.081 273.788 99.9913C268.312 98.7837 267.741 102.775 264.073 101.846C263.578 101.719 263.024 101.505 262.39 101.174C257.11 98.3967 263.107 94.1137 260.197 81.9018C257.291 69.6881 255.364 56.7334 267.328 51.2583C280.534 45.2129 287.677 53.6621 292.646 63.0918C292.932 63.6306 293.204 64.1746 293.475 64.7137C296.088 69.967 300.139 74.6479 302.142 77.0273C307.563 83.4584 312.328 82.3334 311.18 85.7309Z" fill="#1D3734"/>
<path d="M30.2461 74.7309C30.2794 74.827 30.3127 74.9231 30.3542 75.0278C31.789 78.5665 35.548 74.6923 36.8993 77.5326C36.983 77.7085 37.061 77.916 37.1233 78.1517C37.389 79.1284 37.8111 79.9808 38.3499 80.6948C40.0086 82.8913 42.8071 83.7618 45.8881 82.6982C46.2775 82.5668 46.6396 82.465 46.9893 82.3982C49.8695 81.8365 51.4201 83.4832 53.1372 86.1163C53.3876 86.5031 53.6476 86.9102 53.9073 87.334C56.0359 90.7707 60.7659 90.4279 66.452 89.2444C66.8455 89.1651 67.2408 89.0807 67.6378 88.9913C73.1134 87.7837 73.6851 91.7745 77.353 90.8464C77.8479 90.7187 78.4014 90.5051 79.036 90.1742C84.3162 87.3967 78.3183 83.1137 81.2289 70.9018C84.1345 58.6881 86.0614 45.7334 74.0973 40.2583C60.8916 34.2129 53.7484 42.6621 48.7802 52.0918C48.4933 52.6306 48.2213 53.1746 47.9512 53.7137C45.3376 58.967 41.2864 63.6479 39.2835 66.0273C33.8632 72.4584 29.0983 71.3334 30.2461 74.7309Z" fill="#1D3734"/>
</svg>
