<svg width="375" height="2219" viewBox="0 0 375 2219" fill="none" xmlns="http://www.w3.org/2000/svg">
<g clip-path="url(#clip0_545_1989)">
<rect width="375" height="2219" fill="#FFF5D8"/>
<path d="M144.711 1791.2C103.129 1757.64 6.98008 1668.08 -18.289 1668.7L-35.3381 1674.08L-35.3382 1943.14L423.177 1943.14L457.219 1943.14L457.219 1792.67C424.668 1752.23 380.559 1810.68 306.712 1826.7C279.512 1836.6 186.293 1824.76 144.711 1791.2Z" fill="url(#paint0_linear_545_1989)"/>
<rect width="388" height="373" transform="matrix(-1 0 0 1 375.003 1901)" fill="#FFEAAD"/>
<path d="M373 1184L377.851 1323.21H-22.999V1234.16L145.191 1257.42L189.311 1236.56L306.501 1184H373Z" fill="url(#paint1_linear_545_1989)"/>
<path d="M219.754 1228.87C355.223 1162.52 466.904 1234.28 515.74 1068.57L-18.0088 1012.63L-45.6348 1337.97C-6.5726 1279.01 29.8655 1321.87 219.754 1228.87Z" fill="white"/>
<path d="M157.445 1228.94C282.586 1169.37 372.5 1205 435.664 1057.3L-52.2314 959.661L-87.4954 1326.47C-51.0041 1272.7 -17.9651 1312.45 157.445 1228.94Z" fill="#FFEAAD"/>
<path d="M217.002 597C258.584 563.441 354.733 473.872 380.002 474.5L397.051 479.873L397.051 748.935L-61.4643 748.935L-95.5057 748.935L-95.5063 598.466C-62.955 558.022 -18.8462 616.481 55.0011 632.5C82.2004 642.395 175.42 630.56 217.002 597Z" fill="white"/>
<rect y="660" width="375" height="397" fill="#FFEAAD"/>
<mask id="mask0_545_1989" style="mask-type:alpha" maskUnits="userSpaceOnUse" x="-107" y="499" width="494" height="270">
<path d="M218.609 618.466C260.191 584.906 345.619 499.095 370.888 499.723L386.052 499.873L386.052 768.934L-72.4635 768.934L-106.505 768.934L-106.505 618.466C-73.9542 578.022 -12.3528 622.418 61.4945 638.438C88.6938 648.333 177.027 652.026 218.609 618.466Z" fill="#FFEAAD"/>
</mask>
<g mask="url(#mask0_545_1989)">
<path d="M131.502 610.5C261.028 612.551 373.315 490.872 393.502 436L370.619 670.069L131.502 610.5Z" fill="url(#paint2_linear_545_1989)"/>
<path d="M388.849 481V695.21H-12.001V606.16L156.189 629.42L200.309 608.56L344.719 481H388.849Z" fill="url(#paint3_linear_545_1989)"/>
</g>
<g clip-path="url(#clip1_545_1989)">
<path d="M-6 607.42C-6 607.42 52.58 654.09 152.28 631.27C257.39 607.21 292.96 490.16 381.09 470V504.89C381.09 504.89 352.29 504.89 322.33 531.39C292.37 557.89 239.38 629.32 153.55 647.75C67.72 666.18 -6 633.92 -6 633.92V607.42Z" fill="white"/>
</g>
<path d="M-1.81831 2276.5C-19.7976 2279.3 -33.4282 2269 -37.9961 2263.5V2298H397.782L406.004 2210C401.071 2219.5 378.048 2231.5 353.93 2235.5C329.811 2239.5 314.463 2218.5 279.93 2218.5C245.397 2218.5 228.952 2249.5 208.671 2249.5C188.389 2249.5 159.337 2218.5 114.937 2218.5C70.5372 2218.5 20.6558 2273 -1.81831 2276.5Z" fill="white"/>
<path d="M-13 1682.85C28.9499 1688.09 139.957 1795.64 176.668 1814C213.378 1832.37 307.383 1862.09 388 1808.76V1770C388 1770 314.448 1850.63 184 1802.5C127.389 1774.23 70.5 1686 -13 1649V1682.85Z" fill="white"/>
</g>
<defs>
<linearGradient id="paint0_linear_545_1989" x1="240.502" y1="1664" x2="185.292" y2="1863.99" gradientUnits="userSpaceOnUse">
<stop stop-color="#FFCA32"/>
<stop offset="1" stop-color="#FFEAAD"/>
</linearGradient>
<linearGradient id="paint1_linear_545_1989" x1="186.5" y1="1168" x2="157.558" y2="1312.21" gradientUnits="userSpaceOnUse">
<stop stop-color="#FFEAAD"/>
<stop offset="1" stop-color="#FFF5D8"/>
</linearGradient>
<linearGradient id="paint2_linear_545_1989" x1="343.014" y1="415.785" x2="295.014" y2="679.285" gradientUnits="userSpaceOnUse">
<stop stop-color="#FFCA32"/>
<stop offset="1" stop-color="#FFF5D8"/>
</linearGradient>
<linearGradient id="paint3_linear_545_1989" x1="103.346" y1="470.702" x2="104.464" y2="715.335" gradientUnits="userSpaceOnUse">
<stop stop-color="#FFCA32"/>
<stop offset="1" stop-color="#FFEAAD"/>
</linearGradient>
<clipPath id="clip0_545_1989">
<rect width="375" height="2219" fill="white"/>
</clipPath>
<clipPath id="clip1_545_1989">
<rect width="387.09" height="183.43" fill="white" transform="translate(-6 470)"/>
</clipPath>
</defs>
</svg>
