<svg width="218" height="25" viewBox="0 0 218 25" fill="none" xmlns="http://www.w3.org/2000/svg">
<path d="M215.842 24.5385L212.621 23.8944C213.443 21.1848 213.865 19.0304 213.865 16.8761C213.865 14.7439 213.465 12.634 212.621 9.94656L215.953 9.23584C216.797 11.8344 217.241 14.2331 217.241 16.6762C217.241 19.1859 216.775 21.7401 215.842 24.5385Z" fill="white"/>
<path d="M210.258 15.6547L210.392 18.8085L208.881 18.8973V24.2721H206.038V19.0972L202.329 19.3415L202.018 16.321L206.038 15.9878V7.23706H208.881V15.7657L210.258 15.6547ZM200.886 14.9439V18.2088H200.153C200.819 18.9195 201.397 19.608 201.907 20.2743L199.931 21.7846C199.598 21.296 199.242 20.8074 198.865 20.341V23.8946H195.844V21.0073C195.444 21.6514 195.022 22.2954 194.556 22.9173L192.735 22.0733C193.445 20.7185 194.089 19.5414 194.645 18.2088H193.134V14.9439H195.844V8.34756H198.865V14.9439H200.886ZM202.885 9.16933L205.661 9.90226L205.017 12.2787L202.218 11.6569L202.885 9.16933ZM194.289 9.9911L195.4 13.4781L193.534 14.2332L192.113 10.7685L194.289 9.9911ZM201.086 13.7668L199.309 13.3004L199.975 10.1022L201.996 10.6796L201.086 13.7668ZM204.839 15.2327L202.396 14.6552L202.929 12.523L205.417 13.3226L204.839 15.2327Z" fill="white"/>
<path d="M188.368 12.101V13.367H190.345V16.1211H188.368V17.4759H189.723V19.8968H176.663V17.4759H178.351V16.1211H175.997V13.367H178.351V12.101H177.707C177.618 12.412 177.507 12.7007 177.396 12.9894L175.02 12.4786C175.353 11.035 175.708 9.41363 175.908 8.0144L178.684 8.4586L178.485 9.36921H189.701V12.101H188.368ZM182.105 12.101H180.817V13.367H182.105V12.101ZM184.57 13.367H185.903V12.101H184.57V13.367ZM182.105 16.1211H180.817V17.4759H182.105V16.1211ZM184.57 17.4759H185.903V16.1211H184.57V17.4759ZM178.485 24.0944L175.953 23.6502C176.219 22.5397 176.419 21.5181 176.597 20.4076L179.462 20.874C179.173 22.0067 178.84 23.0062 178.485 24.0944ZM187.324 20.7407L189.9 20.5186C190.078 21.6513 190.189 22.7841 190.234 23.9168L187.568 24.0944C187.524 22.9839 187.48 21.8512 187.324 20.7407ZM183.726 20.7407L186.369 20.6519C186.502 21.7846 186.613 22.8729 186.658 23.9612L183.993 24.1389C183.948 23.0062 183.859 21.8734 183.726 20.7407ZM180.261 20.8296L182.793 20.7185C182.904 21.8512 182.971 22.8729 182.993 24.0056L180.306 24.1833V22.8285C180.306 22.1844 180.306 21.5181 180.261 20.8296Z" fill="white"/>
<path d="M172.794 23.8944L169.574 24.5385C168.641 21.8289 168.175 19.3414 168.175 16.8317C168.175 14.3886 168.619 11.9232 169.463 9.23584L172.794 9.94656C171.95 12.634 171.55 14.7439 171.55 16.8761C171.55 19.0304 171.972 21.1848 172.794 23.8944Z" fill="white"/>
<path d="M158.684 20.1661C159.607 20.1661 160.394 19.14 160.599 17.4981L164.601 18.148C163.78 21.808 162.036 24.1681 158.786 24.1681C156.563 24.1681 155.195 23.142 154.237 21.7738C153.861 21.9448 153.45 22.0816 153.006 22.1158C152.732 22.15 152.458 22.15 152.185 22.15C149.038 22.15 147.499 19.9951 147.499 17.8402C147.499 15.48 149.277 13.0857 152.834 13.2909L152.595 11.1702H147.293L147.225 7.44186H152.15L151.911 5.42376L155.981 5.18433L156.187 7.40766H164.84L164.909 11.136H156.494L156.836 14.8302C156.836 15.1038 156.871 15.3432 156.871 15.6169C156.871 16.472 156.768 17.3613 156.597 18.148C157.247 19.5505 157.999 20.1661 158.684 20.1661ZM159.094 15.7879L159.47 12.128L165.285 12.8463L164.704 16.5062L159.094 15.7879ZM152.253 18.6269C152.732 18.6269 153.142 18.2165 153.142 17.7376C153.142 17.2587 152.732 16.8483 152.253 16.8483C151.774 16.8483 151.364 17.2587 151.364 17.7376C151.364 18.2165 151.774 18.6269 152.253 18.6269Z" fill="white"/>
<path d="M135.118 19.7174L131.584 18.1108C132.957 15.7156 134.563 12.298 135.732 9.34784C135.147 7.39077 134.622 5.40449 134.183 3.44742L138.068 2.5127C139.704 8.00418 141.807 13.5833 143.794 18.2569L139.354 19.6005C138.711 18.0524 138.068 16.4167 137.484 14.7517C136.725 16.5043 135.907 18.2569 135.118 19.7174ZM124.018 3.76873L129.919 4.29451L129.627 7.56603L123.726 7.04025L124.018 3.76873ZM130.445 8.55917L130.357 13.262C129.86 15.5696 129.305 17.6435 128.78 19.4545C133.862 20.3308 138.331 20.6813 143.735 21.1487L142.888 24.8291C137.397 24.2157 132.986 23.5731 127.816 22.4631C127.64 22.9305 127.465 23.3394 127.319 23.7484L123.639 22.9305C124.456 20.36 125.683 14.7225 126.121 12.0936H123.376V8.52996L130.445 8.55917Z" fill="white"/>
<path d="M113.408 24.2708C108.756 24.2708 105.643 20.6451 105.985 16.2669L106.772 6.03955L111.321 6.45001L110.466 17.0536C110.295 19.1401 111.595 20.2346 113.066 20.2346C114.571 20.2346 116.247 19.1743 116.931 17.0536L121.036 18.7296C119.462 21.9107 116.76 24.2708 113.408 24.2708Z" fill="white"/>
<path d="M95.0799 6.13488H102.528L102.207 19.2794H95.1967V24.2743H90.5231V19.2794H83.2791L82.9578 6.13488H90.4063V2.396H95.0799V6.13488ZM90.5816 9.6985H88.1279V11.4511H90.5816V9.6985ZM95.0507 11.4511H97.5336V9.6985H95.0507V11.4511ZM90.5816 14.2845H88.1279V16.0663H90.5816V14.2845ZM95.0507 16.0663H97.5336V14.2845H95.0507V16.0663Z" fill="white"/>
<path d="M82.1175 5.49212L79.5521 5.76576L79.0732 1.21649L81.8096 0.977051L82.1175 5.49212ZM78.6969 5.83417L76.0632 6.21043L75.2764 1.76377L78.2181 1.35331L78.6969 5.83417ZM76.9525 21.1922L73.2925 23.9971C70.9324 22.4236 69.2221 20.2003 69.2221 17.6349C69.2221 15.651 70.2825 13.4619 72.9505 11.307L63.9888 11.3754V7.3734L79.5863 7.4076V12.3673C75.5501 14.0092 74.0109 15.7878 74.0109 17.3955C74.0109 18.7979 75.208 20.1319 76.9525 21.1922Z" fill="white"/>
<path d="M60.2395 5.38965V9.56266L51.0726 9.46005L51.1068 13.4278H59.5554V16.8825H51.141L51.2094 20.3373L59.8291 20.2346V23.8946H47.2758L46.5575 5.38965H60.2395Z" fill="white"/>
<path d="M31.3317 23.8946H27.0561L26.6798 5.3897L33.6576 5.32129L37.8649 18.5244L37.9333 5.32129L42.4483 5.3897L42.1063 23.8946H35.5389L31.2633 11.9571L31.3317 23.8946Z" fill="white"/>
<path d="M22.5837 23.8946H18.0345L17.6582 5.38968L22.5837 5.35547V23.8946Z" fill="white"/>
<path d="M5.57154 5.38965L5.77677 20.3373L14.2254 20.2346V23.8946H1.67216L0.953857 5.38965H5.57154Z" fill="white"/>
</svg>
