<svg width="218" height="25" viewBox="0 0 218 25" fill="none" xmlns="http://www.w3.org/2000/svg">
<rect width="218" height="25" fill="#262626"/>
<path d="M204.538 18.8405L201.383 21.0896L194.869 12.7648L201.003 4.35229L204.859 6.89356L199.922 12.94L204.538 18.8405Z" fill="white"/>
<path d="M183.413 9.46404V0H192.526V21.0604L187.356 20.6807L187.619 17.4092L188.992 17.5552L188.904 9.46404H183.413ZM181.28 0.0292091L181.251 9.49325L176.168 9.52246L176.344 21.0896L172.43 21.2357L171.904 0.0292091H181.28ZM178.622 3.03784H175.146V3.91414H178.622V3.03784ZM189.839 3.03784H186.363V3.91414H189.839V3.03784ZM178.739 5.95884H175.205V6.74751H178.739V5.95884ZM186.421 6.74751H189.956V5.95884H186.421V6.74751ZM179.557 13.1153H177.921V10.7785H187.181V13.1153H186.158V14.3129H187.181V16.6497H186.158V20.6223H183.529V16.6497H181.894C181.718 18.0518 181.485 19.4247 181.222 20.7099L178.768 20.3886C178.973 19.191 179.148 17.9349 179.265 16.6497H177.921V14.3129H179.498C179.528 13.904 179.528 13.5242 179.557 13.1153ZM182.157 14.3129H183.529V13.1153H182.273C182.244 13.5242 182.215 13.904 182.157 14.3129Z" fill="white"/>
<path d="M168.98 6.51389L168.863 9.84383L161.21 9.87304L160.976 10.983C162.437 10.8662 163.488 11.2751 164.189 12.0346C165.241 11.7717 166.438 11.5672 167.782 11.4212L167.928 14.6927C166.935 14.7803 166.059 14.8679 165.299 15.014V15.4814C165.299 15.9487 165.27 16.4453 165.182 16.9419L162.086 16.8542C162.174 16.5037 162.232 16.1824 162.232 15.8611V15.8027C161.239 16.2408 160.801 16.679 160.801 17.0587C160.801 17.4384 161.268 17.7013 161.998 17.7889C162.32 17.8182 162.641 17.8474 162.962 17.8474C164.335 17.8474 165.767 17.5845 167.169 17.2924L167.578 20.301C165.854 20.7099 164.803 20.9144 163.167 20.9144C162.875 20.9144 162.553 20.8852 162.232 20.8852C159.34 20.7684 157.237 19.0742 157.237 17.1463C157.237 16.0363 157.909 14.8387 159.545 13.8164C159.282 13.7872 158.99 13.7872 158.698 13.7872C158.23 13.7872 157.705 13.8164 157.12 13.8748L157.938 9.87304H155.485V6.45547H158.639L159.048 4.41077L162.291 4.81971L161.94 6.48468L168.98 6.51389Z" fill="white"/>
<path d="M149.571 4.84895C148.198 4.84895 147.146 3.79739 147.146 2.42452C147.146 1.08086 148.198 0.0292969 149.571 0.0292969C150.914 0.0292969 151.966 1.08086 151.966 2.42452C151.966 3.79739 150.914 4.84895 149.571 4.84895ZM149.571 3.15477C149.921 3.15477 150.243 2.83346 150.243 2.45373C150.243 2.10321 149.921 1.7819 149.571 1.7819C149.162 1.7819 148.84 2.10321 148.84 2.45373C148.84 2.83346 149.162 3.15477 149.571 3.15477ZM141.45 21.0897L139.143 18.8405C141.947 15.7735 144.138 12.4435 145.657 9.20124L135.316 9.23045L135.258 5.75446L150.651 5.72525V9.72702C148.694 13.7872 145.598 17.5845 141.45 21.0897Z" fill="white"/>
<path d="M126.274 14.1669L123.236 14.313L122.798 7.56545L125.953 7.44861L126.274 14.1669ZM122.389 14.4298L119.381 14.6051L118.796 7.74071L121.98 7.62387L122.389 14.4298ZM128.29 21.002L125.485 20.301C126.712 16.2992 127.443 13.0861 128.114 8.38333L131.766 9.02595C130.802 13.6995 129.779 17.4384 128.29 21.002Z" fill="white"/>
<path d="M100.624 5.75443L115.287 5.72522V9.66857C113.564 12.4143 112.161 14.3422 110.292 16.3869L112.6 18.49L109.679 21.0605L103.194 14.3714L105.531 12.0346L107.663 13.9916C108.773 12.4727 109.737 10.9538 110.555 9.20121L100.682 9.23042L100.624 5.75443Z" fill="white"/>
<path d="M91.7039 20.856C88.8998 20.856 86.0664 18.9866 86.0664 15.5398C86.0664 12.1223 88.5201 9.84387 91.8792 9.84387C95.2384 9.84387 97.3999 12.8525 97.3999 15.8319C97.3999 16.0948 97.3707 16.3285 97.3415 16.5914H89.5424C89.9221 17.7014 90.8568 18.1687 91.8208 18.1687C92.5802 18.1687 93.3397 17.8474 93.7779 17.3216L96.3483 18.8113C95.2091 20.3303 93.7779 20.856 91.7039 20.856ZM89.484 14.1377H94.1576C94.0407 13.1154 92.96 12.5896 91.8792 12.5896C90.7984 12.5896 89.7177 13.0862 89.484 14.1377Z" fill="white"/>
<path d="M82.9874 17.0295L83.8345 20.4179C82.6953 20.7392 81.673 20.8852 80.7675 20.8852C77.9341 20.8852 76.3275 19.3079 76.1523 15.8611L75.8018 4.81974L80.008 4.79053V15.2185C80.008 16.5622 80.4462 17.2632 81.5853 17.2632C81.9651 17.2632 82.4324 17.2048 82.9874 17.0295Z" fill="white"/>
<path d="M68.489 10.4864V10.0775H72.2863L71.7021 19.6291C71.41 23.2512 68.3721 24.4488 65.568 24.4488C63.9906 24.4488 62.4717 24.0398 61.5662 23.5141L62.6178 20.5931C63.6401 21.1188 64.7793 21.3525 65.7724 21.3525C67.1745 21.3525 68.2553 20.856 68.2845 19.9797V19.746C67.5542 20.0965 66.6487 20.2718 65.568 20.2718C61.7415 20.2718 60.0181 18.1394 60.0181 15.2476C60.0181 12.1514 61.7707 9.81458 65.7432 9.81458C66.8532 9.81458 67.7587 10.0483 68.489 10.4864ZM66.0938 17.2339C67.3498 17.2339 68.6058 16.5621 68.6058 15.2184C68.6058 13.7287 67.3498 12.9693 66.0938 12.9693C64.8377 12.9693 63.5817 13.7287 63.5817 15.3061C63.5817 16.5621 64.8377 17.2339 66.0938 17.2339Z" fill="white"/>
<path d="M51.4281 20.856H51.0484C48.0398 20.856 45.4109 18.9573 45.4109 15.5398C45.4109 12.093 47.514 9.7854 51.1945 9.7854H51.2821C54.9626 9.7854 57.0949 12.093 57.0949 15.5398C57.0949 18.9573 54.466 20.856 51.4281 20.856ZM51.1068 17.4676H51.3697C52.3629 17.4676 53.356 16.5913 53.356 15.3061C53.356 14.0209 52.3629 13.3198 51.3405 13.3198H51.136C50.1429 13.3198 49.1206 14.0209 49.1206 15.3061C49.1206 16.5913 50.1137 17.4676 51.1068 17.4676Z" fill="white"/>
<path d="M36.821 20.856H36.4412C33.4326 20.856 30.8037 18.9573 30.8037 15.5398C30.8037 12.093 32.9068 9.7854 36.5873 9.7854H36.6749C40.3554 9.7854 42.4877 12.093 42.4877 15.5398C42.4877 18.9573 39.8588 20.856 36.821 20.856ZM36.4997 17.4676H36.7626C37.7557 17.4676 38.7488 16.5913 38.7488 15.3061C38.7488 14.0209 37.7557 13.3198 36.7333 13.3198H36.5289C35.5357 13.3198 34.5134 14.0209 34.5134 15.3061C34.5134 16.5913 35.5065 17.4676 36.4997 17.4676Z" fill="white"/>
<path d="M27.8747 12.1806C27.8747 18.1687 24.983 20.856 21.0104 20.856C17.2423 20.856 14 18.081 14 13.0277C14 7.97438 16.6289 4.61523 21.1857 4.61523C25.0122 4.61523 26.8524 6.39704 27.6119 9.58093L24.019 10.6033C23.6977 9.172 22.5585 8.41253 21.3317 8.41253C19.6375 8.41253 17.6805 9.93145 17.6805 13.2322C17.6805 15.715 19.3746 17.0879 21.0396 17.0879C22.1496 17.0879 23.2888 16.4745 23.9022 15.1893H19.7836V12.1806H27.8747Z" fill="white"/>
</svg>
