<svg width="375" height="97" viewBox="0 0 375 97" fill="none" xmlns="http://www.w3.org/2000/svg">
<g clip-path="url(#clip0_493_943)">
<path d="M-1.81831 66.5C-19.7976 69.3 -33.4282 59 -37.9961 53.5V88H397.782L406.004 0C401.071 9.5 378.048 21.5 353.93 25.5C329.811 29.5 314.463 8.5 279.93 8.5C245.397 8.5 228.952 39.5 208.671 39.5C188.389 39.5 159.337 8.5 114.937 8.5C70.5372 8.5 20.6558 63 -1.81831 66.5Z" fill="white"/>
<path d="M22.0039 75.5C5.60391 78.3 -6.82943 68 -10.9961 62.5V97H386.504L394.004 9C389.504 18.5 368.504 30.5 346.504 34.5C324.504 38.5 310.504 17.5 279.004 17.5C247.504 17.5 232.504 48.5 214.004 48.5C195.504 48.5 169.004 17.5 128.504 17.5C88.0039 17.5 42.5039 72 22.0039 75.5Z" fill="#F5F5F5"/>
</g>
<defs>
<clipPath id="clip0_493_943">
<rect width="375" height="97" fill="white"/>
</clipPath>
</defs>
</svg>
