<svg width="375" height="95" viewBox="0 0 375 95" fill="none" xmlns="http://www.w3.org/2000/svg">
<g clip-path="url(#clip0_489_35928)">
<rect width="375" height="95" fill="white"/>
<path d="M381.822 30.5C399.801 27.7 413.432 38 418 43.5V9H-17.7778L-26 97C-21.0667 87.5 1.95554 75.5 26.0741 71.5C50.1926 67.5 65.5407 88.5 100.074 88.5C134.607 88.5 151.052 57.5 171.333 57.5C191.615 57.5 220.667 88.5 265.067 88.5C309.467 88.5 359.348 34 381.822 30.5Z" fill="#E8E7E7"/>
<path d="M359 21.5C375.4 18.7 387.833 29 392 34.5V0H-5.5L-13 88C-8.5 78.5 12.5 66.5 34.5 62.5C56.5 58.5 70.5 79.5 102 79.5C133.5 79.5 148.5 48.5 167 48.5C185.5 48.5 212 79.5 252.5 79.5C293 79.5 338.5 25 359 21.5Z" fill="#F5F5F5"/>
</g>
<defs>
<clipPath id="clip0_489_35928">
<rect width="375" height="95" fill="white"/>
</clipPath>
</defs>
</svg>
