<svg width="375" height="82" viewBox="0 0 375 82" fill="none" xmlns="http://www.w3.org/2000/svg">
<g clip-path="url(#clip0_493_321)">
<path d="M379.822 66.5C397.801 69.3 411.432 59 416 53.5V88H-19.7778L-28 0C-23.0667 9.5 -0.0444641 21.5 24.0741 25.5C48.1926 29.5 63.5407 8.5 98.0741 8.5C132.607 8.5 149.052 39.5 169.333 39.5C189.615 39.5 218.667 8.5 263.067 8.5C307.467 8.5 357.348 63 379.822 66.5Z" fill="#FFF0BC"/>
<path d="M361 76.5C377.4 79.3 389.833 69 394 63.5V98H-3.5L-11 10C-6.5 19.5 14.5 31.5 36.5 35.5C58.5 39.5 72.5 18.5 104 18.5C135.5 18.5 150.5 49.5 169 49.5C187.5 49.5 214 18.5 254.5 18.5C295 18.5 340.5 73 361 76.5Z" fill="#FFF8E0"/>
</g>
<defs>
<clipPath id="clip0_493_321">
<rect width="375" height="82" fill="white" transform="matrix(-1 0 0 1 375 0)"/>
</clipPath>
</defs>
</svg>
