<svg width="375" height="181" viewBox="0 0 375 181" fill="none" xmlns="http://www.w3.org/2000/svg">
<g clip-path="url(#clip0_493_939)">
<path d="M398.911 -3.03256C418.83 -12.6128 438.324 8.02102 445.581 19.5354L433.382 -57.9385L-73.4041 21.8634L-51.8484 220.984C-49.4706 198.747 -26.9403 167.583 -0.306217 154.184C26.3279 140.785 51.6027 185.132 91.7631 178.809C131.924 172.485 140.086 99.859 163.672 96.145C187.258 92.4309 232.006 156.725 283.64 148.594C335.275 140.463 374.013 8.94267 398.911 -3.03256Z" fill="white"/>
<mask id="mask0_493_939" style="mask-type:alpha" maskUnits="userSpaceOnUse" x="-72" y="-61" width="517" height="236">
<path d="M398.511 -16.372C418.649 -24.5611 437.337 -9.04458 444.164 -0.262668L434.663 -60.5963L-71.7354 -8.93872L-57.4514 174.606C-54.3303 157.089 -30.8613 131.887 -3.91427 120.475C23.0327 109.063 46.6647 142.978 86.8251 136.654C126.986 130.33 137.573 73.1055 161.159 69.3914C184.745 65.6774 227.068 114.57 278.702 106.439C330.337 98.3086 373.339 -6.13564 398.511 -16.372Z" fill="#092622"/>
</mask>
<g mask="url(#mask0_493_939)">
<rect x="-15.9841" y="-62" width="782" height="1060" fill="#092622"/>
</g>
</g>
<defs>
<clipPath id="clip0_493_939">
<rect width="375" height="181" fill="white" transform="matrix(-1 0 0 1 375 0)"/>
</clipPath>
</defs>
</svg>
