<svg width="375" height="125" viewBox="0 0 375 125" fill="none" xmlns="http://www.w3.org/2000/svg">
<g clip-path="url(#clip0_489_35798)">
<path d="M211.452 57.1357C294.092 33.9918 372.566 72.6489 401.473 94.8704L411.675 137.007L368.315 176L52.6754 162.793V94.8704C76.2686 102.417 108.151 86.0656 211.452 57.1357Z" fill="#092622"/>
<g clip-path="url(#clip1_489_35798)">
<path d="M8.0377 72.7468C8.60988 72.5397 8.65928 71.9348 8.67162 71.3755C8.72514 69.1093 8.70867 66.839 8.86921 64.5811C8.96801 63.185 8.57283 62.2694 7.31322 61.6148C5.79015 60.8235 4.90101 59.7422 4.95864 57.7246C5.05743 54.3771 4.71577 51.0213 4.57993 47.6656C4.55112 46.9613 4.66226 46.315 3.57142 46.3647C2.17596 46.4268 1.94956 45.5983 2.45587 44.4672C4.34941 40.2415 6.24707 36.0198 8.17766 31.8148C8.41641 31.2927 8.63869 30.605 9.45374 30.6796C10.0959 30.7376 10.3676 31.2265 10.6022 31.7278C12.6192 35.9701 14.3852 40.3367 16.6657 44.4507C17.1555 45.3373 16.9909 45.9338 15.97 46.0416C14.6939 46.1741 14.484 46.8909 14.591 48.0053C14.7021 49.1612 14.7557 50.3378 14.6651 51.4936C14.5498 53.0265 15.5748 52.6537 16.4022 52.6992C17.2831 52.7489 17.95 52.7779 17.8635 51.4605C17.7195 49.3435 17.8388 47.2057 17.81 45.0804C17.7483 39.9432 17.6742 34.8101 17.5877 29.6729C17.5754 28.8443 17.5177 28.2228 16.2705 28.2353C14.4963 28.2477 14.1217 27.4564 14.9491 25.8324C17.9747 19.8749 20.7327 13.793 23.4536 7.69052C23.7788 6.97793 23.9805 5.98363 25.0137 6.0002C26.0387 6.01678 26.1869 7.02351 26.5121 7.73609C29.34 13.9422 32.0527 20.198 35.1647 26.2715C36.0621 28.024 35.6463 28.7656 33.7322 28.6123C32.4067 28.5046 32.1392 28.9106 32.1515 30.1452C32.2092 35.4357 32.2215 40.7303 32.1351 46.0208C32.1145 47.243 32.6084 47.3093 33.5511 47.3093C36.8442 47.3134 36.8401 47.3424 37.2064 50.5449C37.2229 50.7023 37.3011 50.9716 37.9474 50.6692C37.9474 47.9307 37.9392 45.0224 37.9515 42.1141C37.9515 41.3145 37.3835 41.5341 36.9512 41.4926C35.3829 41.3435 34.9877 40.7883 35.7945 39.2264C38.0791 34.8059 40.1908 30.3026 42.0185 25.6667C42.2778 25.0079 42.7306 24.3409 43.4634 24.3948C44.0973 24.4404 44.3319 25.1695 44.5789 25.7454C46.6165 30.4434 48.6706 35.1374 51.0993 39.649C51.7785 40.9085 51.2639 41.5838 50.029 41.4802C48.6294 41.3642 48.4854 42.0063 48.4812 43.1291C48.4689 46.5263 48.3372 49.9193 48.3372 53.3165C48.3372 54.9074 48.1025 56.2207 46.5836 57.1529C45.8303 57.6127 44.9576 58.288 44.9494 59.39C44.9123 63.1684 44.8918 66.9509 44.9123 70.7292C44.9206 71.9762 44.8588 71.6738 46.4519 72.0218C47.6744 72.287 47.8391 72.9871 48.6624 73.5174C49.144 73.8281 48.8517 73.7204 49.638 73.9773C50.3172 74.1181 50.0866 74.1181 51.371 74.3833C52.186 74.549 52.0131 74.5449 52.5606 75.1456C53.9478 76.6743 53.8367 76.9022 55.1169 77.9959C56.2571 78.9695 57.2656 80.0964 58.3112 81.1735C59.3732 82.2714 60.4105 83.3941 61.6331 84.6909C62.053 85.1383 66.2929 86.9032 68.4293 88.5645C69.7301 89.1487 70.9979 89.8115 72.2863 90.4288C73.3196 90.926 74.0523 92.5293 75.2913 91.9493C76.4439 91.4066 76.7897 89.8944 77.2466 88.6805C77.5059 87.9845 77.6294 87.2305 77.79 86.4972C78.5433 83.0089 78.4897 79.4294 78.9384 75.9079C79.1401 74.346 78.4609 73.2274 77.3207 72.3657C75.4354 70.9405 74.1305 69.0141 72.628 67.245C70.7221 64.9996 68.3058 63.4584 65.1938 63.8851C63.4855 64.1213 61.8184 64.0757 60.1718 63.7567C57.4632 63.2347 54.9646 62.1948 53.0381 60.1068C52.6018 59.6303 52.0996 59.0296 52.7211 58.317C53.2933 57.6625 53.8408 58.1347 54.3512 58.4248C54.8822 58.723 55.368 59.1 55.8908 59.4149C58.2824 60.8691 60.8675 61.0928 63.7366 60.8401C59.5338 56.4279 56.3436 51.7464 54.8534 46.0291C54.6476 45.2378 54.6394 44.401 55.3927 44.0198C56.3394 43.5392 56.6729 44.4507 57.0228 45.1011C57.3438 45.7018 57.6279 46.3274 57.8996 46.9571C59.011 49.5175 60.4764 51.8251 62.4934 53.9173C62.8186 52.7324 62.3864 51.8292 62.2176 50.8929C62.0859 50.1472 61.8925 49.2275 62.8722 49.0327C63.6584 48.8753 64.0124 49.6459 64.1688 50.3461C64.5228 51.9494 64.9674 53.5527 65.1321 55.1808C65.2844 56.6682 65.8401 57.8075 67.0956 58.5366C70.9691 60.7904 74.8138 63.0648 78.0411 66.2673C79.0619 67.2823 79.5682 66.6195 79.6176 65.447C79.6835 63.8023 79.6506 62.1492 79.7988 60.5128C79.9222 59.1705 79.4571 58.4703 78.2469 57.7992C75.5836 56.3201 73.266 54.4351 72.698 51.1001C72.521 50.0726 71.92 49.2813 70.9115 48.7469C64.9921 45.5983 61.7154 40.4238 60.0154 34.0892C59.7313 33.0328 58.8916 31.533 60.4147 31.1063C61.769 30.7293 61.7772 32.4445 62.1394 33.3766C63.292 36.343 64.7245 39.1229 67.1409 41.6003C68.0506 38.7044 68.1576 36.0903 67.5813 33.4264C67.4002 32.5853 67.359 31.5703 68.3264 31.3383C69.2443 31.1187 69.3966 32.1213 69.623 32.8173C70.5081 35.5351 70.7221 38.2984 70.1499 41.1115C69.5078 44.2642 69.4913 44.3098 72.5127 45.2544C74.6738 45.9297 76.2792 47.0483 76.7897 49.4263C76.9914 50.3668 77.473 51.1912 78.3498 51.7464C79.5435 52.5087 80.0993 52.4507 80.1939 50.8101C80.4121 47.0524 80.5356 43.2617 81.1736 39.5703C81.6388 36.8857 80.7332 35.1001 78.9755 33.3808C76.942 31.3922 75.4107 29.0431 74.6409 26.2757C74.4145 25.4595 74.0564 25.0991 73.266 24.7759C69.7877 23.3466 67.9477 20.4549 66.8115 17.0204C66.5975 16.3699 66.4164 15.5786 67.2932 15.2679C68.1288 14.9696 68.3058 15.8189 68.5404 16.3037C69.3802 18.0561 70.4299 19.647 71.9159 20.8982C72.4222 21.329 73.089 21.8883 73.7271 21.5693C74.3116 21.2793 73.9823 20.4549 73.9535 19.8914C73.8382 17.5175 73.3936 15.1561 73.9247 12.778C74.0564 12.1814 74.0029 11.3819 74.8344 11.4399C75.5589 11.4896 75.6535 12.198 75.7071 12.8526C75.9499 15.8521 76.0405 18.8806 76.5262 21.8427C77.1478 25.6211 78.7573 28.8857 82.4785 30.7956C83.2812 27.2368 84.0386 23.9059 83.874 20.4383C83.8369 19.6884 83.5159 18.545 84.6767 18.4373C85.7387 18.3337 85.8005 19.4523 85.9816 20.2187C86.5826 22.7873 86.2985 25.4139 86.2162 27.9991C86.1545 29.8966 86.8131 29.7474 88.0398 29.1301C90.8595 27.705 92.399 25.3394 93.1194 22.315C93.2799 21.6356 93.5187 20.6123 94.4819 20.8567C95.3546 21.0763 95.2599 22.054 95.1241 22.779C94.2555 27.4191 91.8845 30.9365 87.3071 32.4611C85.9116 32.9251 85.5617 33.6252 85.5288 34.8681C85.4382 38.1451 85.253 41.4222 85.2283 44.6992C85.2036 48.1752 86.0392 48.6102 89.0277 46.8329C89.3776 46.6257 89.6781 46.3357 90.0239 46.1161C90.983 45.5113 91.3123 44.8691 90.9048 43.6138C90.2667 41.6583 90.2215 39.5662 90.4314 37.503C90.5178 36.6703 90.7072 35.618 91.6293 35.6097C92.8724 35.6014 92.4525 36.7697 92.4608 37.5278C92.4772 39.3549 92.2467 41.2192 93.4117 42.8888C93.6381 42.6444 93.8645 42.4786 93.9962 42.2508C96.1861 38.5056 97.9191 34.5864 98.5119 30.2322C98.6354 29.3331 98.7918 28.2187 99.9444 28.3844C100.957 28.5294 100.706 29.59 100.726 30.4186C100.788 32.9292 100.253 35.3362 99.5451 37.706C99.1705 38.9654 99.6809 39.1767 100.71 38.9489C102.628 38.5263 104.275 37.619 105.497 36.0281C105.88 35.531 106.308 34.9219 106.992 35.3818C107.704 35.8624 107.486 36.6164 107.095 37.213C105.37 39.8562 103.04 41.6915 99.8332 41.8655C98.5407 41.9359 97.9479 42.3502 97.3799 43.4357C94.9841 48.0426 91.4523 51.4066 86.4961 53.1177C85.7593 53.3704 85.4259 53.7391 85.5741 54.6091C86.0227 57.2979 86.2615 60.0239 86.8378 62.6795C87.093 63.8561 86.2368 65.7577 87.3688 66.0353C88.7149 66.3667 89.6822 64.6391 90.666 63.6117C90.9007 63.3673 91.0489 63.0441 91.267 62.779C92.6172 61.1301 93.9509 59.535 96.3508 59.3652C97.5528 59.2823 98.6683 58.665 99.7674 58.1099C100.813 57.5796 101.019 56.9996 100.632 55.8644C99.6603 53.0058 100.442 50.3336 101.821 47.794C102.143 47.1974 102.488 46.4683 103.361 46.9489C104.11 47.3631 103.756 48.0219 103.534 48.5687C102.958 49.9815 102.641 51.4481 102.776 52.9644C102.855 53.8178 102.809 54.9861 103.604 55.3383C104.25 55.6241 104.728 54.5387 105.304 54.0954C105.835 53.6852 106.251 53.126 106.708 52.6205C109.214 49.8613 111.046 46.7044 112.294 43.1829C112.491 42.6195 112.849 41.7163 113.697 42.0353C114.471 42.3254 114.533 43.0214 114.319 43.9162C113.845 45.9048 113.055 47.7609 112.195 49.8116C115.381 49.6749 117.558 48.1213 119.353 45.8178C120.127 44.8235 120.971 43.8085 122 45.6065V46.0208C119.23 49.911 115.891 52.9395 110.878 53.416C110.532 53.4491 110.272 53.5444 110.05 53.8841C108.14 56.8339 105.662 59.2243 102.464 61.1798C106.255 62.5014 109.568 61.8634 112.775 60.3264C113.413 60.0198 113.854 59.8251 114.356 60.4755C114.932 61.2212 114.298 61.6314 113.907 62.0208C113.528 62.3978 113.018 62.6464 112.545 62.9115C108.729 65.0368 104.732 65.3144 100.595 64.0715C97.5898 63.1642 95.9432 63.794 94.4119 66.5034C93.1482 68.7448 91.6046 70.7499 89.3405 72.0135C88.2209 72.6391 87.8216 73.4138 87.9369 74.6567C88.3362 78.9446 88.9371 83.187 89.8798 87.4003C91.1065 92.8814 95.0171 96.7882 100.447 97.6168C101.113 97.7204 101.961 97.6458 101.92 98.6277C101.838 100.658 102.225 102.684 101.344 104.701C97.351 113.84 93.4199 123.009 89.567 132.21C88.9865 133.594 88.2868 133.967 86.8666 133.967C58.303 133.925 29.7393 133.905 1.17156 134C-0.841356 134.008 -0.944266 133.242 -0.915451 131.696C-0.829007 126.783 -0.804308 121.869 -0.816657 116.956C-0.841356 106.421 -0.812541 95.8809 -0.997779 85.3455C-1.07599 80.9747 0.916343 77.9213 4.15183 75.4729M65.1238 84.9436L35.317 108.612L35.527 108.082C34.8107 107.701 34.0615 107.369 33.3823 106.926C31.5999 105.758 29.6652 104.593 29.6529 102.137C29.6405 99.8084 31.707 99.042 33.2959 98.0974C36.2144 96.3573 39.3264 94.9322 42.1955 93.1176C44.8135 91.4646 44.8382 89.5132 42.5289 87.4583C41.825 86.8328 41.0388 86.3232 40.1456 85.9172C36.3996 84.2186 32.3573 83.5474 28.4715 82.3501C25.5571 81.4553 22.5727 80.7634 19.7612 79.5619C18.5674 79.0524 17.2255 78.4682 17.1061 76.985C16.9744 75.39 18.3204 74.6401 19.4772 73.9317C20.2222 73.476 21.0578 73.1611 21.8729 72.8421C23.3301 72.2745 24.8038 71.7525 26.2733 71.2222C26.5944 71.1062 26.9855 71.0234 26.862 70.5718C26.759 70.1948 26.4544 70.1326 26.0593 70.2072C22.0211 70.9571 18.0776 72.0135 14.7392 74.5449C12.5493 76.2062 12.7016 78.5179 14.9203 80.1709C16.4598 81.3185 18.127 82.2176 19.9588 82.7851C23.0625 83.7463 26.1951 84.6287 29.2783 85.6603C31.39 86.3688 33.6458 86.8328 35.35 88.4444C36.8277 89.8364 36.6549 91.2325 34.9013 92.2351C34.0739 92.7074 33.1889 93.0679 32.345 93.5112C29.4635 95.0233 26.2898 96.0218 23.9187 98.433C22.5192 99.854 22.1652 101.548 23.3671 103.069C26.4215 106.93 30.7437 108.119 35.3129 108.616L65.1238 84.9436ZM36.4408 61.5692C36.3749 60.5666 36.4285 59.7256 36.235 58.9426C36.0209 58.0602 35.4158 57.2772 34.4814 57.2026C33.4935 57.1239 33.2135 58.0436 32.9542 58.8225C32.559 60.0073 32.6661 61.2419 32.5837 62.4641C32.5138 63.5205 32.8719 63.823 33.9133 63.8685C36.4655 63.9804 36.4614 64.0426 36.4408 61.5692ZM23.1449 34.8267C23.4371 35.5931 22.2269 37.1301 24.3921 37.2006C26.8867 37.2793 26.9031 37.3746 26.7961 34.8598C26.759 33.9898 26.6026 33.1239 26.4668 32.2622C26.3474 31.5165 25.8823 30.9945 25.1578 30.8785C24.3757 30.75 23.9681 31.3342 23.5771 31.9266C23.0008 32.8008 23.2148 33.7702 23.149 34.8308L23.1449 34.8267ZM8.19412 51.6511C8.84863 52.3595 7.3585 53.9587 9.33025 54.3108C11.8371 54.7541 11.2979 53.0141 11.2732 51.6801C11.2444 50.2715 11.3884 48.2456 9.65956 48.2207C7.82365 48.1959 8.51932 50.3088 8.19412 51.6511ZM44.4678 46.7541C44.513 46.0043 44.4678 45.0721 44.1467 44.1524C43.9532 43.6014 43.7597 43.0959 43.097 43.1208C42.4713 43.1457 42.1832 43.6014 42.0267 44.169C41.6645 45.4823 41.648 46.8287 41.6439 48.1793C41.6439 48.6516 41.8086 48.8339 42.2984 48.9747C44.0685 49.476 44.4719 49.128 44.4636 46.7541H44.4678ZM26.5326 47.1933C26.7879 46.0208 26.5779 45.0141 26.2445 44.0695C26.0222 43.4398 25.5694 42.7811 24.7132 43.4149C24.0463 43.9038 23.4495 48.1006 23.964 48.7137C24.0752 48.8463 24.2933 48.9209 24.4786 48.954C26.0058 49.2482 27.1172 49.0659 26.5326 47.1933Z" fill="#0D2824"/>
</g>
<path d="M341.479 31.5238C335.546 30.1525 331.469 32.3971 330.651 32.5616C329.833 32.7262 326.143 32.0673 322.898 32.6969C322.898 32.6969 322.876 32.7013 322.862 32.704C322.849 32.7067 322.84 32.7085 322.827 32.7112C319.585 33.3819 316.434 35.4217 315.625 35.5845C314.815 35.7472 310.183 35.2546 305.238 38.8144C300.676 42.0969 296.668 49.6483 298.32 57.8624C299.972 66.0764 306.027 72.2598 310.272 73.682C314.518 75.1042 316.968 74.6114 318.057 74.3923C319.146 74.1732 324.054 75.1642 331.085 73.7637C331.085 73.7637 331.108 73.7592 331.121 73.7565C331.134 73.7539 331.143 73.7521 331.156 73.7494C338.187 72.3211 342.334 69.5084 343.415 69.2911C344.495 69.0738 346.949 68.5801 350.319 65.6259C353.684 62.6726 356.876 54.6245 355.224 46.4149C353.572 38.2053 346.956 32.7914 341.479 31.5238Z" fill="#092622"/>
<path d="M319.49 33.8123C317.936 34.4787 316.646 35.1944 315.957 35.4726C314.749 38.3411 311.695 44.7043 312.023 54.2461C312.28 61.7541 316.518 69.3689 320.126 74.4292C321.417 74.5 323.211 74.5861 325.403 74.4708C312.999 60.1991 316.484 38.5041 319.485 33.8087L319.49 33.8123Z" fill="#092622"/>
<path d="M315.331 74.6531C310.673 71.0888 306.769 65.7297 305.069 56.2218C303.491 47.3921 307.301 40.2344 310.523 36.2673C309.909 36.4372 309.427 36.7065 308.935 37.0429C307.523 38.0019 306.375 39.3082 305.579 40.8229C303.184 45.4057 301.338 50.7624 301.971 56.2769C302.745 63.0665 306.794 69.7418 310.54 73.7641C312.528 74.4023 314.113 74.6234 315.335 74.6522L315.331 74.6531Z" fill="#092622"/>
<path d="M340.501 70.6183C341.906 64.5448 342.942 55.7154 340.234 48.575C336.712 39.2986 331.16 34.6015 329.103 32.5388C328.063 32.4734 326.66 32.3784 325.189 32.4463C329.585 35.0532 341.828 54.1987 335.668 72.5541C337.637 71.9065 339.249 71.2052 340.501 70.6183Z" fill="#092622"/>
<path d="M348.839 66.8138C350.924 61.6834 352.315 53.467 350.299 46.5503C348.548 40.5346 343.946 35.8232 339.386 32.3788C338.557 31.7542 337.589 31.3345 336.566 31.1912C335.747 31.0721 335.443 31.2171 334.623 31.3727C339.13 33.7755 345.459 38.9076 347.426 47.6962C349.568 57.2641 347.958 63.7697 344.951 68.8947C345.948 68.5637 347.267 67.9679 348.847 66.8075L348.839 66.8138Z" fill="#092622"/>
<path d="M344.014 48.7829C343.493 49.8818 343.072 51.4558 342.599 52.7927C342.126 54.1296 340.608 53.9399 339.234 54.4639C337.859 54.988 338.339 57.3748 337.438 57.8037C336.536 58.2326 334.545 58.1381 334.073 58.2332C333.6 58.3283 332.798 60.474 331.612 60.7126C330.426 60.9511 328.944 60.1008 328.408 60.1234L328.407 60.1156C328.407 60.1156 328.387 60.1195 328.377 60.1257C328.369 60.1273 328.356 60.1257 328.345 60.128L328.346 60.1358C327.844 60.3222 326.763 61.6879 325.62 61.9179C324.477 62.1479 322.865 60.4879 322.392 60.583C321.919 60.6781 320.116 61.5359 319.122 61.4882C318.125 61.4413 317.645 59.0545 316.175 59.1027C314.705 59.1509 313.378 59.9129 312.425 58.8629C311.472 57.8129 310.475 56.5242 309.569 55.7122C308.664 54.9001 309.155 61.0099 311.013 64.1098C312.87 67.2097 314.056 66.9712 314.814 67.0703C315.575 67.1648 316.709 66.6891 317.566 67.2632C318.424 67.8374 319.421 69.1261 320.418 69.173C321.416 69.2199 322.218 68.3159 322.931 68.1725C323.644 68.029 325.686 69.6025 326.872 69.3639C328.058 69.1253 328.742 68.0139 329.909 67.7629C331.083 67.543 332.154 68.3013 333.329 68.065C334.503 67.8288 335.79 65.5857 336.503 65.4422C337.216 65.2988 338.306 65.8261 339.207 65.3933C340.108 64.9644 340.529 63.3904 341.098 62.5293C341.667 61.6683 342.898 61.6723 343.562 61.287C344.227 60.9057 345.409 60.6679 345.923 57.0869C346.437 53.5099 344.523 47.6862 344.007 48.7844L344.014 48.7829Z" fill="#FED79C"/>
<path d="M326.547 51.9957L325.728 54.5251C325.562 55.0333 326.004 55.5308 326.525 55.4262L329.059 54.9164C329.588 54.81 329.796 54.1676 329.433 53.7658L327.629 51.764C327.296 51.398 326.697 51.5233 326.542 51.9966L326.547 51.9957Z" fill="#FED79C"/>
<path d="M319.736 35.7501C320.676 35.207 320.949 36.5626 321.89 36.0196C322.831 35.4766 323.775 36.6971 324.31 35.8865C324.845 35.0759 325.517 34.9409 326.09 34.2949C326.659 33.6543 324.848 33.3392 324.366 30.9456C324.026 29.2545 319.656 30.1336 319.996 31.8248C320.211 32.894 319.998 33.5839 319.666 34.5305C319.334 35.4771 319.736 35.7501 319.736 35.7501Z" fill="#092622"/>
<path d="M320.67 31.694C319.985 31.7154 319.863 31.1535 320.804 30.6104C321.744 30.0674 323.337 29.868 323.852 30.4067C324.369 30.9499 322.756 31.6235 320.67 31.694Z" fill="#FED79C"/>
<path d="M321.416 35.4121C321.699 34.359 321.816 33.926 322.221 34.1935C322.626 34.4611 323.233 35.7496 323.435 35.0061C323.637 34.2626 323.094 33.315 323.501 33.587C323.907 33.8591 324.444 34.8031 324.24 33.792C324.037 32.7809 323.426 31.4933 323.696 31.0853C323.965 30.6773 324.621 33.3616 325.877 33.8118C325.834 34.1742 325.183 35.0081 324.85 35.0751C324.517 35.1422 324.315 35.8857 323.977 35.9537C323.639 36.0217 322.43 35.2082 322.16 35.6162C321.891 36.0242 321.22 36.1592 321.421 35.4112L321.416 35.4121Z" fill="#092622"/>
<path d="M318.061 49.9302C318.892 48.672 318.583 46.9941 317.37 46.1823C316.158 45.3705 314.502 45.7324 313.671 46.9905C312.84 48.2486 313.149 49.9266 314.361 50.7384C315.573 51.5501 317.23 51.1883 318.061 49.9302Z" fill="#FED79C"/>
<path d="M336.686 46.3823C337.517 45.1242 337.208 43.4462 335.996 42.6344C334.784 41.8227 333.127 42.1845 332.296 43.4427C331.465 44.7008 331.774 46.3788 332.987 47.1905C334.199 48.0023 335.855 47.6404 336.686 46.3823Z" fill="#FED79C"/>
<path d="M278.309 31.2509C274.046 28.7334 270.336 29.4735 269.662 29.4005C268.988 29.3274 266.29 27.9122 263.62 27.6044C263.62 27.6044 263.602 27.6024 263.591 27.6012C263.58 27.6001 263.572 27.5993 263.561 27.5981C260.885 27.3231 257.942 28.1314 257.275 28.0592C256.608 27.9869 253.139 26.4695 248.433 28.0159C244.093 29.4415 239.134 34.3113 238.401 41.0827C237.668 47.8541 240.844 54.1309 243.786 56.2741C246.728 58.4173 248.747 58.6359 249.645 58.7331C250.543 58.8304 254.104 60.8018 259.897 61.4402C259.897 61.4402 259.915 61.4422 259.926 61.4434C259.937 61.4446 259.945 61.4454 259.956 61.4466C265.755 62.0633 269.659 60.9002 270.549 60.9967C271.44 61.0931 273.463 61.3122 276.799 59.8488C280.131 58.3849 284.578 52.9299 285.311 46.1622C286.044 39.3945 282.243 33.5762 278.309 31.2509Z" fill="#092622"/>
<path d="M260.703 27.6325C259.335 27.7679 258.16 28.0064 257.558 28.0531C255.918 29.98 251.991 34.163 249.906 41.6388C248.264 47.5208 249.682 54.4616 251.238 59.2681C252.221 59.6395 253.59 60.146 255.317 60.5942C249.203 46.4917 257.223 30.5318 260.7 27.6284L260.703 27.6325Z" fill="#092622"/>
<path d="M247.468 58.2663C244.732 54.3618 243.02 49.2511 244.033 41.4653C244.975 34.2352 249.683 29.6218 253.153 27.337C252.636 27.3183 252.196 27.4088 251.732 27.5488C250.402 27.9459 249.192 28.6768 248.204 29.6556C245.225 32.6203 242.481 36.3195 241.619 40.7486C240.554 46.2005 242.056 52.3668 243.973 56.4028C245.357 57.3848 246.531 57.9448 247.472 58.2667L247.468 58.2663Z" fill="#092622"/>
<path d="M267.965 61.3106C270.543 56.9479 273.511 50.3588 273.162 44.1606C272.707 36.1075 269.556 31.1058 268.467 29.0029C267.677 28.6972 266.614 28.2798 265.457 27.9717C268.225 31.0699 273.019 48.91 263.745 61.626C265.43 61.607 266.851 61.4586 267.965 61.3106Z" fill="#092622"/>
<path d="M275.36 60.4067C278.235 56.9418 281.327 50.9147 281.46 45.0597C281.578 39.9679 279.166 35.1881 276.477 31.4006C275.988 30.7133 275.34 30.1507 274.582 29.7887C273.976 29.4955 273.705 29.5333 273.032 29.4529C275.936 32.4204 279.583 37.9496 278.953 45.2434C278.267 53.1841 275.424 57.8315 271.837 61.0662C272.691 61.0543 273.859 60.9158 275.368 60.4038L275.36 60.4067Z" fill="#092622"/>
<path d="M276.04 45.2485C275.367 45.9726 274.655 47.0892 273.96 48.0094C273.266 48.9295 272.136 48.4103 270.942 48.4795C269.749 48.5486 269.536 50.5163 268.732 50.6276C267.928 50.739 266.408 50.1776 266.018 50.1354C265.628 50.0932 264.481 51.5595 263.503 51.4537C262.525 51.3478 261.586 50.3255 261.165 50.2116L261.165 50.2052C261.165 50.2052 261.149 50.2035 261.14 50.2057C261.133 50.205 261.124 50.2007 261.114 50.1997L261.114 50.2061C260.678 50.2273 259.506 51.0209 258.564 50.9188C257.621 50.8168 256.779 49.135 256.389 49.0928C255.999 49.0505 254.391 49.2733 253.633 48.9928C252.872 48.7119 253.085 46.7442 251.933 46.4212C250.782 46.0981 249.567 46.3634 249.086 45.3159C248.605 44.2684 248.148 43.0252 247.645 42.1738C247.143 41.3225 246.025 46.1783 246.705 49.0362C247.385 51.8942 248.362 52.0001 248.925 52.2627C249.492 52.5225 250.487 52.4319 251.011 53.0871C251.535 53.7423 251.992 54.9856 252.753 55.2665C253.515 55.5473 254.358 55.0434 254.946 55.107C255.534 55.1707 256.731 56.8909 257.709 56.9968C258.686 57.1026 259.488 56.4088 260.455 56.5005C261.418 56.6178 262.063 57.4683 263.031 57.5731C263.999 57.6779 265.546 56.2548 266.134 56.3185C266.722 56.3821 267.437 57.0581 268.242 56.9435C269.046 56.8322 269.758 55.7155 270.41 55.1876C271.062 54.6597 272.015 54.9645 272.624 54.8289C273.233 54.6964 274.208 54.8019 275.483 52.1524C276.759 49.5062 276.704 44.5234 276.034 45.2478L276.04 45.2485Z" fill="#FED79C"/>
<path d="M261.717 43.4566L260.462 45.2162C260.209 45.5694 260.43 46.0635 260.858 46.1099L262.947 46.3361C263.383 46.3833 263.702 45.9365 263.52 45.5361L262.612 43.5423C262.444 43.1771 261.949 43.1272 261.713 43.4562L261.717 43.4566Z" fill="#FED79C"/>
<path d="M260.42 29.1953C261.282 29.0051 261.161 30.1226 262.023 29.9324C262.886 29.7422 263.318 30.9196 263.932 30.4226C264.545 29.9256 265.099 29.9855 265.701 29.6254C266.3 29.2686 264.973 28.5801 265.186 26.607C265.337 25.2129 261.735 24.8228 261.584 26.2169C261.489 27.0983 261.155 27.5808 260.665 28.233C260.175 28.8853 260.42 29.1953 260.42 29.1953Z" fill="#092622"/>
<path d="M262.137 26.2807C261.6 26.1294 261.643 25.6639 262.506 25.4737C263.368 25.2835 264.651 25.5194 264.919 26.0633C265.186 26.6109 263.77 26.7375 262.137 26.2807Z" fill="#FED79C"/>
<path d="M261.805 29.3452C262.283 28.5984 262.479 28.2913 262.728 28.5981C262.976 28.9049 263.13 30.0521 263.469 29.5254C263.808 28.9986 263.62 28.1313 263.868 28.4417C264.116 28.7522 264.301 29.6155 264.391 28.782C264.481 27.9484 264.324 26.8008 264.633 26.5506C264.942 26.3005 264.792 28.5417 265.655 29.1986C265.533 29.469 264.824 29.9557 264.549 29.9259C264.274 29.8962 263.935 30.4229 263.657 30.3927C263.378 30.3626 262.641 29.4357 262.332 29.6858C262.023 29.936 261.47 29.8761 261.809 29.3456L261.805 29.3452Z" fill="#092622"/>
<path d="M255.644 39.7744C256.596 39.003 256.768 37.6268 256.028 36.7004C255.287 35.774 253.915 35.6484 252.962 36.4197C252.01 37.1911 251.838 38.5674 252.578 39.4937C253.319 40.4201 254.691 40.5458 255.644 39.7744Z" fill="#FED79C"/>
<path d="M270.951 41.592C271.904 40.8207 272.076 39.4444 271.335 38.518C270.595 37.5917 269.222 37.466 268.27 38.2374C267.317 39.0087 267.145 40.385 267.886 41.3114C268.626 42.2377 269.999 42.3634 270.951 41.592Z" fill="#FED79C"/>
</g>
<defs>
<clipPath id="clip0_489_35798">
<rect width="375" height="125" fill="white"/>
</clipPath>
<clipPath id="clip1_489_35798">
<rect width="300" height="309" fill="white" transform="translate(0 -84)"/>
</clipPath>
</defs>
</svg>
