<svg width="375" height="181" viewBox="0 0 375 181" fill="none" xmlns="http://www.w3.org/2000/svg">
<g clip-path="url(#clip0_493_946)">
<path d="M81.5 122.5L-0.5 21L-7 34.5L-2 216.5H382V137.5L287.5 158.5L248 117.5L213 91.5L188.5 96.5L138 122.5H81.5Z" fill="#FFF5D8"/>
<path d="M-65.0098 -7.35742C-56.7262 -16.1652 -39.9466 -27.6625 -22.0186 -20.3721C3.15374 -10.1357 46.1553 94.3087 97.79 102.439C149.425 110.57 191.747 61.6781 215.333 65.3916C238.919 69.1056 249.507 126.329 289.667 132.653C329.827 138.977 353.459 105.064 380.406 116.476C406.267 127.428 428.922 151.081 433.465 168.453L428.344 219.983C425.966 197.747 403.435 166.584 376.801 153.185C350.167 139.786 324.892 184.133 284.731 177.809C244.571 171.484 236.409 98.8589 212.823 95.1445C189.237 91.4305 144.489 155.724 92.8545 147.594C41.2197 139.463 2.48149 7.94301 -22.417 -4.03223C-42.3355 -13.6121 -61.8287 7.02072 -69.0859 18.5352L-65.0098 -7.35742ZM451.5 -13L436.439 138.521L448.228 -12.9385L417.562 -16.0674L451.5 -13Z" fill="white"/>
</g>
<defs>
<clipPath id="clip0_493_946">
<rect width="375" height="181" fill="white"/>
</clipPath>
</defs>
</svg>
