<svg width="375" height="183" viewBox="0 0 375 183" fill="none" xmlns="http://www.w3.org/2000/svg">
<g clip-path="url(#clip0_568_28147)">
<g clip-path="url(#clip1_568_28147)">
<path d="M75.462 86.3972C74.7498 86.058 74.0419 85.7061 73.334 85.3584C73.4654 85.4305 74.3895 85.9181 75.8774 86.6559C75.7417 86.5541 75.6061 86.4651 75.462 86.393V86.3972Z" fill="#2D2D2D"/>
<path d="M-11 110.5C-5.05714 103.3 22.5411 97.1667 35.5974 95L41 157H-11V110.5Z" fill="#323232"/>
<rect x="26" y="98" width="60" height="39" fill="#323232"/>
<path d="M137 107.5C129.229 100.3 93.1385 94.1667 76.0649 92L69 154H137V107.5Z" fill="#323232"/>
<ellipse cx="58.5" cy="108.5" rx="51.5" ry="17.5" fill="#323232"/>
<path d="M58.4189 96.341C58.9952 96.2338 59.4289 96.3232 59.5774 96.8654C59.7557 97.5149 59.1912 97.6341 58.7278 97.8009C57.3732 98.2895 56.0245 98.7781 54.6698 99.2727L82.9153 98.3491C80.4556 97.9737 77.3363 97.2706 73.4031 96.0431C59.1199 91.592 32.4014 99.9997 32.4014 99.9997L47.3203 99.511C50.8198 97.9499 54.5866 97.0442 58.4129 96.3351L58.4189 96.341Z" fill="#323232"/>
<path d="M32.4072 99.9997C32.4072 99.9997 59.1258 91.598 73.409 96.0431C77.3422 97.2647 80.4555 97.9678 82.9212 98.3491L85.7137 98.2598C85.6364 98.0393 85.6424 97.6937 85.6364 97.0799C85.6364 96.2994 85.6364 95.5247 85.6364 94.7441H55.1153L33.2093 99.0582C33.0964 99.4753 32.8766 99.8269 32.4132 99.9937L32.4072 99.9997Z" fill="#323232"/>
<path d="M59.5832 96.8658C59.4347 96.3236 58.995 96.2342 58.4247 96.3415C54.5984 97.0506 50.8315 97.9503 47.332 99.5174L54.6816 99.2791C56.0303 98.7845 57.3849 98.2899 58.7396 97.8073C59.203 97.6405 59.7674 97.5213 59.5892 96.8718L59.5832 96.8658Z" fill="#323232"/>
<path d="M94.7111 96.7246C98.1809 96.8318 99.3039 96.0811 99.3039 96.0811L93.707 96.2658C93.814 96.5577 94.0695 96.6173 94.7111 96.7305V96.7246Z" fill="#323232"/>
<path d="M94.7116 96.7245C94.0759 96.6113 93.8145 96.5517 93.7075 96.2598L90.915 96.3491C92.4123 96.5815 93.6659 96.6888 94.7116 96.7186V96.7245Z" fill="#323232"/>
<path d="M124.466 69.7576L118.653 102.311L114.846 101.86L116.45 67.4963L124.466 69.7576Z" fill="#323232"/>
<path d="M130.816 78.0373L120.257 77.9522L106.655 74.6698L106.25 81.0988L119.234 81.0303L129.578 84.1422L130.816 78.0373Z" fill="#323232"/>
</g>
<path d="M208 92.5001C306.035 89.8504 368.899 98.6493 402.234 120.871L414 163.008L363.996 202L0 188.793V147.5C27.2078 155.047 78.5 96.0002 208 92.5001Z" fill="#092622"/>
<path d="M333.114 60.3096C326.086 58.1114 320.964 60.4435 319.963 60.5668C318.962 60.6901 314.574 59.5569 310.603 60.018C310.603 60.018 310.575 60.0214 310.559 60.0234C310.543 60.0254 310.532 60.0268 310.516 60.0288C306.545 60.5399 302.559 62.71 301.568 62.8319C300.577 62.9539 295.038 61.9347 288.748 65.7728C282.946 69.3117 277.42 78.0487 278.658 88.1043C279.896 98.16 286.629 106.171 291.617 108.276C296.605 110.38 299.604 110.011 300.938 109.847C302.271 109.683 308.098 111.328 316.704 110.285C316.704 110.285 316.731 110.282 316.748 110.28C316.764 110.278 316.775 110.276 316.791 110.274C325.399 109.198 330.658 106.187 331.981 106.024C333.303 105.861 336.307 105.492 340.642 102.239C344.97 98.9871 349.557 89.5763 348.32 79.5261C347.082 69.476 339.601 62.3407 333.114 60.3096Z" fill="#092622"/>
<path d="M306.391 61.0498C304.456 61.7107 302.835 62.4552 301.979 62.7274C300.259 66.075 295.992 73.467 295.512 85.0019C295.132 94.0781 299.543 103.649 303.429 110.081C304.979 110.285 307.133 110.553 309.787 110.616C296.142 92.2691 302.335 66.4309 306.385 61.045L306.391 61.0498Z" fill="#092622"/>
<path d="M297.627 109.912C292.338 105.186 288.123 98.3663 286.946 86.7463C285.855 75.9553 291.106 67.6748 295.354 63.1874C294.599 63.336 293.993 63.6164 293.369 63.9768C291.578 65.0035 290.074 66.4731 288.975 68.2264C285.667 73.5321 282.95 79.8214 283.206 86.5285C283.516 94.7858 287.785 103.206 291.933 108.4C294.271 109.352 296.162 109.764 297.633 109.911L297.627 109.912Z" fill="#092622"/>
<path d="M328.345 107.358C330.598 100.164 332.657 89.6129 330.047 80.7547C326.652 69.2466 320.389 63.0734 318.099 60.3976C316.851 60.2233 315.169 59.98 313.389 59.9268C318.45 63.4735 331.453 87.6818 322.341 109.248C324.775 108.648 326.783 107.95 328.345 107.358Z" fill="#092622"/>
<path d="M338.749 103.536C341.734 97.5419 344.165 87.7627 342.37 79.238C340.81 71.8239 335.694 65.7208 330.513 61.1492C329.571 60.3199 328.442 59.725 327.221 59.4583C326.244 59.2395 325.864 59.3863 324.862 59.4987C330.076 62.8097 337.236 69.5786 338.8 80.3558C340.505 92.0888 337.966 99.785 333.87 105.688C335.103 105.381 336.748 104.783 338.759 103.529L338.749 103.536Z" fill="#092622"/>
<path d="M334.587 81.3522C333.858 82.6294 333.206 84.4885 332.513 86.057C331.82 87.6255 330.007 87.2574 328.302 87.7631C326.596 88.2687 326.956 91.1907 325.83 91.6251C324.703 92.0595 322.311 91.7627 321.733 91.8339C321.154 91.9052 319.99 94.4187 318.538 94.5975C317.086 94.7762 315.378 93.6149 314.73 93.593L314.728 93.5834C314.728 93.5834 314.705 93.5863 314.691 93.5929C314.682 93.594 314.667 93.591 314.653 93.5928L314.654 93.6023C314.03 93.7809 312.603 95.3283 311.203 95.5007C309.804 95.673 308.012 93.5235 307.433 93.5948C306.854 93.666 304.601 94.5348 303.408 94.3861C302.21 94.238 301.85 91.316 300.073 91.2392C298.296 91.1623 296.626 91.9592 295.574 90.6057C294.521 89.2522 293.437 87.6069 292.42 86.5447C291.403 85.4824 291.434 92.8943 293.389 96.8025C295.344 100.711 296.796 100.532 297.701 100.721C298.609 100.905 300.021 100.435 301.002 101.206C301.983 101.977 303.067 103.623 304.265 103.771C305.463 103.919 306.513 102.903 307.386 102.795C308.259 102.688 310.577 104.772 312.029 104.594C313.481 104.415 314.407 103.137 315.838 102.942C317.273 102.785 318.495 103.797 319.933 103.62C321.371 103.443 323.128 100.857 324.001 100.749C324.874 100.642 326.14 101.378 327.265 100.938C328.392 100.504 329.044 98.645 329.809 97.659C330.574 96.673 332.057 96.7908 332.894 96.3873C333.731 95.9885 335.178 95.8103 336.126 91.5398C337.074 87.2741 335.302 80.0767 334.578 81.3533L334.587 81.3522Z" fill="#FED79C"/>
<path d="M313.231 83.6211L312.012 86.5958C311.765 87.1933 312.252 87.8338 312.889 87.7554L315.991 87.3734C316.639 87.2936 316.949 86.5382 316.548 86.0204L314.557 83.4412C314.189 82.9694 313.455 83.0653 313.225 83.6218L313.231 83.6211Z" fill="#FED79C"/>
<path d="M306.51 63.4086C307.694 62.8402 307.898 64.4997 309.083 63.9314C310.267 63.363 311.293 64.9213 312.013 63.9931C312.733 63.0649 313.555 62.9637 314.305 62.2374C315.05 61.5174 312.895 60.971 312.534 58.0409C312.279 55.9706 306.929 56.6294 307.184 58.6997C307.345 60.0087 307.025 60.8209 306.538 61.9317C306.05 63.0426 306.51 63.4086 306.51 63.4086Z" fill="#092622"/>
<path d="M308.009 58.6046C307.181 58.5675 307.085 57.8788 308.269 57.3104C309.453 56.742 311.392 56.6478 311.964 57.3447C312.537 58.047 310.53 58.7111 308.009 58.6046Z" fill="#FED79C"/>
<path d="M308.568 63.1561C309.006 61.9123 309.186 61.4009 309.65 61.7607C310.114 62.1205 310.727 63.7298 311.039 62.8518C311.351 61.9739 310.784 60.7816 311.249 61.1469C311.714 61.5122 312.274 62.6997 312.122 61.4619C311.969 60.2241 311.351 58.6156 311.714 58.1484C312.076 57.6812 312.62 60.978 314.093 61.6361C314.009 62.0691 313.147 63.0148 312.739 63.065C312.331 63.1153 312.019 63.9932 311.605 64.0442C311.192 64.0951 309.809 63.0033 309.446 63.4705C309.084 63.9377 308.262 64.0389 308.573 63.1554L308.568 63.1561Z" fill="#092622"/>
<path d="M303.189 80.3516C304.306 78.9109 304.088 76.8594 302.701 75.7693C301.313 74.6792 299.283 74.9635 298.166 76.4041C297.048 77.8448 297.267 79.8964 298.654 80.9864C300.041 82.0765 302.071 81.7922 303.189 80.3516Z" fill="#FED79C"/>
<path d="M325.972 77.7842C327.089 76.3435 326.871 74.292 325.484 73.2019C324.097 72.1119 322.066 72.3961 320.949 73.8368C319.831 75.2774 320.05 77.329 321.437 78.419C322.824 79.5091 324.855 79.2249 325.972 77.7842Z" fill="#FED79C"/>
<path d="M264.582 59.1513C259.428 56.1071 254.942 57.002 254.126 56.9137C253.311 56.8254 250.048 55.114 246.82 54.7419C246.82 54.7419 246.798 54.7395 246.785 54.7381C246.772 54.7366 246.763 54.7357 246.749 54.7342C243.512 54.4018 239.954 55.3791 239.148 55.2918C238.341 55.2045 234.146 53.3695 228.456 55.2395C223.207 56.9633 217.212 62.852 216.325 71.0401C215.438 79.2282 219.279 86.8182 222.837 89.4098C226.394 92.0014 228.836 92.2658 229.922 92.3833C231.007 92.5009 235.313 94.8848 242.318 95.6568C242.318 95.6568 242.34 95.6592 242.354 95.6606C242.367 95.6621 242.376 95.663 242.389 95.6645C249.401 96.4102 254.122 95.0038 255.199 95.1204C256.276 95.237 258.722 95.5019 262.756 93.7323C266.786 91.9623 272.163 85.3659 273.049 77.1823C273.935 68.9986 269.339 61.9631 264.582 59.1513Z" fill="#092622"/>
<path d="M243.294 54.7764C241.64 54.9402 240.219 55.2285 239.491 55.2851C237.508 57.6151 232.759 62.6733 230.238 71.7131C228.253 78.8257 229.967 87.2187 231.848 93.0308C233.037 93.4799 234.692 94.0923 236.781 94.6344C229.387 77.5814 239.085 58.2823 243.29 54.7715L243.294 54.7764Z" fill="#092622"/>
<path d="M227.289 91.819C223.98 87.0976 221.91 80.9176 223.136 71.5029C224.275 62.7601 229.968 57.1815 234.163 54.4187C233.538 54.3961 233.006 54.5055 232.445 54.6749C230.837 55.155 229.374 56.0389 228.179 57.2224C224.576 60.8074 221.258 65.2805 220.216 70.6363C218.929 77.2288 220.744 84.6852 223.063 89.5656C224.737 90.7531 226.156 91.4302 227.293 91.8195L227.289 91.819Z" fill="#092622"/>
<path d="M252.075 95.5005C255.192 90.2251 258.781 82.2575 258.36 74.7625C257.809 65.0245 253.998 58.9764 252.682 56.4335C251.727 56.0638 250.441 55.5591 249.042 55.1865C252.389 58.933 258.186 80.5055 246.971 95.8819C249.009 95.8589 250.728 95.6796 252.075 95.5005Z" fill="#092622"/>
<path d="M261.017 94.407C264.493 90.2172 268.232 82.9291 268.394 75.8491C268.536 69.6921 265.62 63.9122 262.367 59.3323C261.776 58.5012 260.993 57.8209 260.077 57.3832C259.344 57.0286 259.016 57.0744 258.202 56.9771C261.714 60.5655 266.123 67.2515 265.361 76.0712C264.532 85.6733 261.095 91.293 256.757 95.2045C257.79 95.19 259.202 95.0226 261.027 94.4035L261.017 94.407Z" fill="#092622"/>
<path d="M261.839 76.078C261.025 76.9536 260.164 78.3038 259.324 79.4165C258.484 80.5292 257.118 79.9014 255.674 79.985C254.231 80.0686 253.973 82.4479 253.001 82.5826C252.029 82.7173 250.191 82.0384 249.72 81.9874C249.249 81.9363 247.861 83.7094 246.678 83.5814C245.496 83.4534 244.36 82.2173 243.851 82.0796L243.852 82.0718C243.852 82.0718 243.833 82.0697 243.821 82.0723C243.813 82.0715 243.802 82.0663 243.79 82.0651L243.789 82.0729C243.263 82.0984 241.846 83.0581 240.706 82.9347C239.566 82.8113 238.548 80.7776 238.076 80.7266C237.605 80.6755 235.661 80.9449 234.744 80.6057C233.823 80.266 234.081 77.8867 232.688 77.496C231.296 77.1054 229.827 77.4262 229.245 76.1595C228.663 74.8929 228.111 73.3896 227.503 72.3601C226.895 71.3306 225.544 77.2023 226.366 80.6582C227.188 84.1142 228.37 84.2422 229.051 84.5598C229.736 84.8739 230.94 84.7643 231.573 85.5566C232.207 86.3489 232.759 87.8523 233.68 88.1919C234.601 88.5316 235.62 87.9222 236.331 87.9991C237.042 88.0761 238.49 90.1563 239.672 90.2843C240.854 90.4123 241.824 89.5733 242.993 89.6841C244.158 89.826 244.937 90.8544 246.108 90.9812C247.278 91.1079 249.149 89.3871 249.86 89.4641C250.571 89.541 251.436 90.3585 252.409 90.2199C253.381 90.0852 254.242 88.735 255.031 88.0966C255.819 87.4582 256.971 87.8269 257.708 87.6628C258.444 87.5026 259.623 87.6302 261.166 84.4264C262.708 81.2265 262.641 75.2013 261.831 76.0772L261.839 76.078Z" fill="#FED79C"/>
<path d="M244.519 73.9109L243.002 76.0388C242.695 76.4658 242.963 77.0632 243.481 77.1194L246.007 77.3929C246.534 77.45 246.92 76.9097 246.699 76.4256L245.602 74.0146C245.398 73.573 244.8 73.5127 244.514 73.9104L244.519 73.9109Z" fill="#FED79C"/>
<path d="M242.951 56.6655C243.994 56.4355 243.848 57.7868 244.89 57.5568C245.933 57.3268 246.456 58.7505 247.198 58.1496C247.94 57.5486 248.609 57.6211 249.338 57.1856C250.061 56.7541 248.457 55.9216 248.715 53.5356C248.898 51.8498 244.542 51.3781 244.359 53.0639C244.244 54.1298 243.84 54.7132 243.248 55.5019C242.656 56.2906 242.951 56.6655 242.951 56.6655Z" fill="#092622"/>
<path d="M245.027 53.1412C244.379 52.9582 244.431 52.3953 245.474 52.1653C246.516 51.9353 248.068 52.2206 248.391 52.8783C248.714 53.5405 247.003 53.6935 245.027 53.1412Z" fill="#FED79C"/>
<path d="M244.626 56.8464C245.204 55.9434 245.441 55.572 245.742 55.943C246.043 56.3139 246.229 57.7012 246.638 57.0643C247.048 56.4273 246.821 55.3785 247.121 55.7539C247.421 56.1293 247.644 57.1732 247.753 56.1653C247.863 55.1574 247.672 53.7696 248.046 53.4672C248.419 53.1647 248.238 55.8748 249.282 56.6692C249.134 56.9961 248.277 57.5846 247.944 57.5486C247.612 57.5126 247.202 58.1496 246.866 58.1131C246.529 58.0766 245.637 56.9558 245.263 57.2583C244.89 57.5608 244.221 57.4883 244.631 56.8469L244.626 56.8464Z" fill="#092622"/>
<path d="M237.176 69.4585C238.328 68.5257 238.535 66.8615 237.64 65.7413C236.745 64.6211 235.085 64.4692 233.933 65.4019C232.781 66.3347 232.574 67.9989 233.469 69.1191C234.364 70.2393 236.024 70.3912 237.176 69.4585Z" fill="#FED79C"/>
<path d="M255.686 71.6557C256.837 70.723 257.045 69.0588 256.15 67.9386C255.254 66.8184 253.595 66.6665 252.443 67.5992C251.291 68.5319 251.083 70.1962 251.979 71.3163C252.874 72.4365 254.534 72.5885 255.686 71.6557Z" fill="#FED79C"/>
<path d="M40.5118 132.214C36.213 131.213 33.2551 132.835 32.662 132.953C32.0688 133.072 29.3952 132.589 27.0421 133.042C27.0421 133.042 27.0259 133.045 27.0163 133.047C27.0066 133.049 27.0001 133.05 26.9905 133.052C24.6399 133.534 22.3532 135.009 21.7665 135.126C21.1798 135.243 17.8228 134.88 14.2337 137.455C10.9229 139.828 8.00823 145.297 9.19598 151.253C10.3837 157.209 14.7648 161.699 17.8405 162.735C20.9162 163.771 22.6923 163.417 23.4821 163.259C24.2718 163.102 27.8283 163.826 32.9267 162.819C32.9267 162.819 32.9428 162.816 32.9524 162.814C32.9621 162.812 32.9686 162.811 32.9782 162.809C38.0759 161.782 41.0857 159.748 41.869 159.592C42.6524 159.436 44.4317 159.081 46.8779 156.944C49.3209 154.807 51.6441 148.978 50.457 143.025C49.2699 137.072 44.4804 133.14 40.5118 132.214Z" fill="#092622"/>
<path d="M24.569 133.848C23.4416 134.33 22.5057 134.847 22.0061 135.048C21.1267 137.125 18.9052 141.734 19.1316 148.651C19.3086 154.093 22.3711 159.618 24.9804 163.29C25.916 163.343 27.216 163.408 28.8053 163.327C19.8314 152.967 22.3841 137.246 24.5651 133.846L24.569 133.848Z" fill="#092622"/>
<path d="M21.5054 163.447C18.1333 160.857 15.3098 156.968 14.0892 150.074C12.9566 143.672 15.7271 138.488 18.0671 135.617C17.6223 135.739 17.2723 135.934 16.9152 136.177C15.8904 136.87 15.0567 137.816 14.4778 138.913C12.7364 142.232 11.392 146.112 11.8441 150.11C12.3967 155.033 15.3234 159.876 18.034 162.796C19.4742 163.261 20.6226 163.424 21.5086 163.446L21.5054 163.447Z" fill="#092622"/>
<path d="M39.755 160.553C40.7812 156.152 41.543 149.754 39.5884 144.574C37.0467 137.846 33.0281 134.435 31.5396 132.937C30.7858 132.888 29.7696 132.818 28.7031 132.865C31.8864 134.76 40.7369 148.653 36.2495 161.95C37.6781 161.483 38.8474 160.977 39.755 160.553Z" fill="#092622"/>
<path d="M45.8042 157.806C47.3222 154.09 48.3403 148.136 46.8875 143.12C45.6253 138.757 42.2953 135.337 38.9943 132.834C38.3943 132.381 37.6932 132.075 36.9517 131.97C36.3578 131.883 36.1373 131.987 35.5429 132.099C38.8073 133.846 43.3884 137.574 44.8034 143.947C46.3445 150.885 45.1696 155.599 42.9836 159.31C43.7069 159.071 44.6635 158.641 45.81 157.802L45.8042 157.806Z" fill="#092622"/>
<path d="M42.3267 144.728C41.9478 145.524 41.6405 146.665 41.2961 147.633C40.9516 148.601 39.8515 148.462 38.8546 148.84C37.8577 149.218 38.2028 150.949 37.5487 151.259C36.8947 151.569 35.4517 151.498 35.1089 151.566C34.7661 151.635 34.182 153.189 33.3221 153.36C32.4622 153.532 31.3893 152.914 31.0009 152.929L30.9998 152.924C30.9998 152.924 30.9858 152.927 30.9779 152.931C30.9723 152.932 30.9633 152.931 30.9548 152.933L30.956 152.938C30.5913 153.073 29.8067 154.061 28.9777 154.227C28.1487 154.392 26.9822 153.187 26.6393 153.255C26.2965 153.324 24.9884 153.943 24.2683 153.907C23.5454 153.872 23.2003 152.141 22.1346 152.175C21.0689 152.208 20.1064 152.758 19.4168 151.996C18.7272 151.234 18.0059 150.299 17.3507 149.709C16.6955 149.119 17.0441 153.549 18.3867 155.798C19.7293 158.047 20.5892 157.876 21.1384 157.948C21.6899 158.018 22.5126 157.674 23.1334 158.092C23.7542 158.509 24.4754 159.444 25.1983 159.479C25.9212 159.514 26.5036 158.86 27.0207 158.757C27.5377 158.654 29.0162 159.797 29.8761 159.626C30.736 159.454 31.2329 158.649 32.0793 158.469C32.9302 158.311 33.7062 158.862 34.5577 158.692C35.4092 158.522 36.3445 156.898 36.8616 156.795C37.3786 156.692 38.1681 157.075 38.8216 156.762C39.4756 156.453 39.7829 155.312 40.1962 154.689C40.6095 154.065 41.5015 154.07 41.9836 153.791C42.4663 153.516 43.3233 153.345 43.6999 150.75C44.0771 148.158 42.6972 143.934 42.3211 144.729L42.3267 144.728Z" fill="#FED79C"/>
<path d="M29.6637 147.036L29.0672 148.869C28.9463 149.237 29.2663 149.598 29.6435 149.523L31.4809 149.156C31.8645 149.08 32.0163 148.614 31.7537 148.323L30.4483 146.87C30.2077 146.604 29.7731 146.694 29.6605 147.037L29.6637 147.036Z" fill="#FED79C"/>
<path d="M24.7456 135.252C25.4282 134.86 25.6242 135.843 26.3068 135.45C26.9893 135.058 27.6721 135.944 28.0612 135.357C28.4502 134.77 28.937 134.673 29.3532 134.205C29.7669 133.742 28.4539 133.511 28.1078 131.776C27.8633 130.549 24.6946 131.181 24.9391 132.407C25.0937 133.183 24.9386 133.683 24.6967 134.368C24.4547 135.054 24.7456 135.252 24.7456 135.252Z" fill="#092622"/>
<path d="M25.4265 132.315C24.93 132.33 24.842 131.922 25.5246 131.53C26.2072 131.137 27.3619 130.995 27.7348 131.386C28.1084 131.78 26.9385 132.267 25.4265 132.315Z" fill="#092622"/>
<path d="M25.9641 135.008C26.1706 134.245 26.2555 133.932 26.549 134.126C26.8425 134.32 27.2803 135.255 27.4276 134.716C27.5749 134.178 27.183 133.49 27.4772 133.688C27.7713 133.886 28.1593 134.571 28.0131 133.837C27.8669 133.104 27.4259 132.17 27.6217 131.875C27.8175 131.579 28.2895 133.526 29.1995 133.854C29.1681 134.116 28.6952 134.72 28.4535 134.768C28.2117 134.816 28.0644 135.355 27.8194 135.404C27.5744 135.453 26.6991 134.862 26.5032 135.157C26.3074 135.453 25.8207 135.55 25.9673 135.008L25.9641 135.008Z" fill="#092622"/>
<path d="M23.5131 145.529C24.117 144.618 23.895 143.401 23.0172 142.811C22.1395 142.221 20.9385 142.482 20.3346 143.393C19.7307 144.304 19.9527 145.52 20.8305 146.11C21.7082 146.7 22.9092 146.44 23.5131 145.529Z" fill="#FED79C"/>
<path d="M37.0199 142.978C37.6238 142.067 37.4018 140.85 36.5241 140.26C35.6464 139.671 34.4453 139.931 33.8414 140.842C33.2376 141.753 33.4596 142.969 34.3373 143.559C35.215 144.149 36.4161 143.889 37.0199 142.978Z" fill="#FED79C"/>
<path d="M171 52.802L181.811 97L187 96.0495L181.811 49L171 52.802Z" fill="#092622"/>
<path d="M163 64.7241L177.492 63.6897L195.885 58L197 66.7931L179.164 67.8276L165.23 73L163 64.7241Z" fill="#092622"/>
</g>
<path d="M76.561 92.0973C76.5502 87.8819 76.5717 83.6666 76.6092 79.4566C76.6252 78.0228 77.7553 77.1495 78.7354 76.5458C80.7117 75.3329 81.017 73.6241 81.017 71.5542C81.017 67.134 81.1937 62.7192 81.2045 58.299C81.2045 56.8328 81.3919 55.9972 83.2182 56.1536C84.8196 56.2883 85.4891 55.4097 84.6108 53.771C81.4508 47.9007 78.7783 41.7933 76.1271 35.6805C75.8004 34.9312 75.5005 33.9825 74.6757 33.9232C73.7224 33.8531 73.1332 34.7264 72.7958 35.5781C70.4178 41.61 67.6649 47.4749 64.6978 53.2211C63.6481 55.2587 64.1622 55.9811 66.2028 56.1697C66.7652 56.2236 67.5096 55.938 67.5043 56.9783C67.4882 60.7624 67.4989 64.5519 67.4989 68.1097C66.658 68.5032 66.5563 68.1528 66.5349 67.9479C66.0582 63.7811 66.0635 63.7434 61.7789 63.738C60.5524 63.738 59.9097 63.6517 59.9365 62.0615C60.049 55.1779 60.0329 48.2889 59.9579 41.4052C59.9418 39.7988 60.29 39.2706 62.0145 39.4107C64.505 39.6102 65.0459 38.6453 63.8784 36.3651C59.8347 28.4627 56.2999 20.323 52.6204 12.2481C52.192 11.3317 51.9992 10.0218 50.6656 10.0003C49.3212 9.9787 49.0588 11.2724 48.6411 12.205C45.1009 20.1452 41.5125 28.0584 37.5759 35.8099C36.4994 37.923 36.9868 38.9525 39.2951 38.9364C40.918 38.9256 40.9876 39.7342 41.009 40.8069C41.1215 47.4911 41.2179 54.1699 41.2982 60.8541C41.3304 63.6248 41.1804 66.4009 41.3678 69.1554C41.4857 70.8696 40.6127 70.8319 39.4665 70.7672C38.39 70.7079 37.0564 71.193 37.2064 69.1985C37.3188 67.6946 37.2492 66.1637 37.11 64.6597C36.9707 63.2097 37.2439 62.2772 38.9042 62.1047C40.2324 61.9645 40.452 61.1883 39.8093 60.0347C36.8422 54.6766 34.5445 49.0004 31.9202 43.4805C31.6149 42.8337 31.2614 42.1922 30.4259 42.1168C29.3655 42.0197 29.0762 42.9145 28.7656 43.5937C26.2537 49.0705 23.7847 54.5634 21.321 60.0563C20.6622 61.5279 20.9568 62.606 22.7724 62.5251C24.1917 62.4604 24.0471 63.3013 24.0846 64.2177C24.2614 68.584 24.7059 72.9503 24.5773 77.3058C24.497 79.931 25.6539 81.3325 27.6409 82.3675C29.2798 83.2192 29.7939 84.4105 29.6654 86.2271C29.4565 89.1649 29.4726 92.1189 29.4083 95.0674C29.4029 95.3855 29.3815 95.7089 29.3012 96L49.0481 92.0973H76.561ZM72.8012 59.6682C73.0047 58.9297 73.385 58.3367 74.1937 58.3044C75.0506 58.272 75.3077 58.9243 75.5594 59.6466C75.9772 60.8433 76.0361 62.0561 75.9772 63.0318C75.9879 66.1206 75.4577 66.5734 73.16 65.9211C72.5227 65.7378 72.3084 65.5007 72.3084 64.8861C72.3084 63.1289 72.3352 61.3823 72.8065 59.6682H72.8012ZM60.5149 83.4671C60.622 81.8823 60.4828 80.2706 60.9969 78.7289C61.3344 77.7155 61.6985 76.5188 62.9839 76.6212C64.2051 76.7183 64.987 77.7424 65.2655 78.8852C65.5119 79.904 65.4423 80.9983 65.5333 82.3028C65.5655 85.5209 65.5655 85.4454 62.2448 85.2945C60.8898 85.2352 60.4185 84.8417 60.5149 83.4671ZM30.2599 72.8587C27.6944 72.4005 29.6332 70.3198 28.7817 69.398C29.1994 67.6515 28.2996 64.9023 30.6883 64.9347C32.9378 64.9616 32.7557 67.603 32.7878 69.4357C32.82 71.1715 33.5216 73.4408 30.2599 72.8587ZM49.9639 65.8888C49.7283 65.8457 49.4391 65.7486 49.2945 65.5761C48.625 64.7729 49.4016 59.3178 50.2692 58.6817C51.3832 57.8623 51.9724 58.714 52.2616 59.5334C52.6954 60.7624 52.9739 62.0723 52.6365 63.5978C53.397 66.0397 51.9456 66.2715 49.9639 65.8888ZM48.234 47.5072C48.3197 46.1273 48.0412 44.8713 48.791 43.7285C49.2998 42.9577 49.8354 42.1976 50.8477 42.3647C51.7903 42.521 52.3955 43.1949 52.5508 44.1651C52.7329 45.2864 52.9311 46.413 52.9793 47.545C53.1185 50.817 53.0971 50.693 49.8515 50.5906C47.0343 50.499 48.6089 48.5045 48.2287 47.5018L48.234 47.5072Z" fill="#323232"/>
<defs>
<clipPath id="clip0_568_28147">
<rect width="375" height="183" fill="white"/>
</clipPath>
<clipPath id="clip1_568_28147">
<rect width="145" height="157" fill="white"/>
</clipPath>
</defs>
</svg>
