<svg width="56" height="56" viewBox="0 0 56 56" fill="none" xmlns="http://www.w3.org/2000/svg">
<g clip-path="url(#clip0_545_3491)">
<path d="M17.3611 35.1256C16.0635 34.8336 13.0293 35.6116 13.0293 35.6116L12.6735 33.4727C12.6735 33.4727 15.662 32.8079 16.9738 32.3126C21.3605 30.6587 40.7346 20.1051 40.7346 20.1051C41.9687 19.4725 42.818 20.1685 42.62 21.6527L42.5512 22.1766C42.354 23.6637 41.1832 25.3979 39.9491 26.0305L22.0016 35.2523C20.7705 35.8842 18.8474 35.462 17.3581 35.1264L17.3611 35.1256Z" fill="#E6E6E6"/>
<path d="M12.3496 4.16846L52.7302 4.16846L50.5356 7.94442L53.1691 10.9717L50.5356 14.2377L53.1691 17.7749L50.5356 20.531L52.7302 24.9363L12.3496 24.9363L12.3496 4.16846Z" fill="white"/>
<path d="M22.195 39.6353C22.9432 40.7342 23.3328 43.8405 23.3328 43.8405L25.4546 43.3849C25.4546 43.3849 24.9767 40.3623 24.9531 38.9594C24.8814 34.2738 27.5854 12.3764 27.5854 12.3764C27.7229 10.9969 26.7622 10.4633 25.4526 11.1919L24.9901 11.448C23.6805 12.1766 22.4977 13.9014 22.3611 15.2839L20.3726 35.3631C20.2351 36.7426 21.3338 38.3737 22.192 39.6361L22.195 39.6353Z" fill="#F5F5F5"/>
<path d="M21.7205 33.0259C22.0722 32.5086 22.7737 32.3783 23.2872 32.7279C23.8044 33.0796 23.9347 33.7811 23.5859 34.2975C23.2342 34.8148 22.5328 34.9451 22.0193 34.5955C21.502 34.2438 21.3717 33.5423 21.7205 33.0259Z" fill="#F69309"/>
<circle cx="24.5243" cy="47.1366" r="4.76785" stroke="#F69309" stroke-width="3.35467"/>
<circle cx="8.7694" cy="37.8265" r="4.76785" stroke="#F69309" stroke-width="3.35467"/>
<path d="M24.1653 42.1238L23.4492 37.1108" stroke="#F69309" stroke-width="3.35467"/>
<path d="M12.3435 35.0033L17.0049 33.5303" stroke="#F69309" stroke-width="3.35467"/>
</g>
<defs>
<clipPath id="clip0_545_3491">
<rect width="56" height="56" fill="white"/>
</clipPath>
</defs>
</svg>
