<svg width="56" height="56" viewBox="0 0 56 56" fill="none" xmlns="http://www.w3.org/2000/svg">
<g clip-path="url(#clip0_545_3845)">
<g clip-path="url(#clip1_545_3845)">
<path d="M25.1505 13.6036C25.1505 13.6036 23.83 12.6152 23.9773 12.0823C24.1246 11.5494 24.4179 11.018 25.2978 10.7129C26.1777 10.4092 25.4451 5.99854 29.4054 5.99854C33.3656 5.99854 36.5217 9.11566 36.6676 9.95223C36.8136 10.7888 35.6404 12.386 35.0538 11.8531C34.4672 11.3203 30.7259 7.97538 29.919 8.58279C29.1121 9.19158 29.7717 10.6356 29.7717 10.6356C29.7717 10.6356 30.7989 11.1684 31.0192 11.7758C31.2395 12.3846 30.5056 13.5249 30.5056 13.5249L25.1505 13.6008V13.6036Z" fill="#727F31"/>
<path d="M35.4982 30.7329C35.3631 18.7986 34.3007 11.9321 26.983 11.9321C20.3304 11.9321 18.999 22.3561 19.1329 30.6404C19.2896 40.4266 20.4628 50.0002 26.7168 50.0002C33.5695 50.0002 35.6104 40.5205 35.4982 30.7329Z" fill="#FF9B04"/>
<path d="M35.2559 12.4648C37.6077 12.4648 39.3124 13.165 40.5488 14.5049C41.3511 13.9343 42.2372 13.6249 43.2012 13.6055C48.002 13.5078 52.5982 21.9217 51.9346 31.2314C51.2722 40.5412 45.5676 49.8428 40.791 49.1748C40.1886 49.0905 39.6418 48.8556 39.1475 48.4912C38.0166 49.4535 36.6436 50 34.9893 50C29.0363 49.9997 27.6887 41.4446 27.4375 32.2998C27.1863 41.4448 25.8399 50 19.8867 50C18.4637 50 17.2486 49.5962 16.2168 48.8711C15.8995 49.0212 15.5643 49.1251 15.209 49.1748C10.4324 49.8429 4.72722 40.5413 4.06348 31.2314C3.40118 21.9229 7.99691 13.5075 12.7979 13.6055C13.4906 13.6195 14.143 13.783 14.7529 14.0859C15.9471 13.0197 17.5273 12.4649 19.6201 12.4648C25.4013 12.4648 27.1627 20.227 27.4375 27.6201C27.7123 20.227 29.4747 12.4649 35.2559 12.4648Z" fill="#FF9B04"/>
<path d="M6.28418 40.4053C12.5567 44.2214 28.8128 49.4539 48.5479 42.833C46.3493 46.8689 43.4304 49.5433 40.792 49.1748C40.1897 49.0906 39.6427 48.8554 39.1484 48.4912C38.0176 49.4536 36.6446 49.9999 34.9902 50C33.3764 50 32.1017 49.3702 31.0947 48.2715C29.9234 49.3705 28.48 49.9999 26.7168 50C25.3546 49.9999 24.2336 49.5452 23.3115 48.7334C22.3859 49.5444 21.2593 49.9999 19.8877 50C18.4649 50 17.2495 49.596 16.2178 48.8711C15.9004 49.0213 15.5645 49.1251 15.209 49.1748C12.0706 49.6135 8.53098 45.7486 6.28418 40.4053Z" fill="#DC8B11"/>
<path d="M38.9491 32.2344H35.5605V35.6055H38.9491V32.2344Z" fill="#F18B00"/>
<path d="M21.0496 32.2344H17.6611V35.6055H21.0496V32.2344Z" fill="#F18B00"/>
<path d="M25.3045 38.7739H21.916V42.1451H25.3045V38.7739Z" fill="#F18B00"/>
<path d="M35.1346 38.7739H31.7461V42.1451H35.1346V38.7739Z" fill="#F18B00"/>
<path d="M40.6298 15.734C40.6298 15.734 43.6372 19.6877 44.6644 25.8473C44.6644 25.8473 45.3983 21.2089 41.5097 15.734C40.4014 14.1726 40.6298 15.734 40.6298 15.734Z" fill="#F9C787"/>
<path d="M15.4065 47.5509C15.4065 47.5509 13.2669 46.2256 9.08496 35.5034C9.08496 35.5034 10.3325 42.4238 14.5306 47.6516C15.7268 49.1412 15.4051 47.5509 15.4051 47.5509H15.4065Z" fill="#F9C787"/>
<path d="M23.5382 46.6142C23.5382 46.6142 22.0348 44.5844 22.0713 33.0605C22.0713 33.0605 20.6989 39.9567 22.6874 46.3811C23.2541 48.2115 23.5369 46.6137 23.5369 46.6137L23.5382 46.6142Z" fill="#F9C787"/>
<path d="M32.0732 46.6142C32.0732 46.6142 33.5766 44.5844 33.54 33.0605C33.54 33.0605 34.9125 39.9567 32.9239 46.3811C32.3573 48.2115 32.0744 46.6137 32.0744 46.6137L32.0732 46.6142Z" fill="#F9C787"/>
<path d="M39.5911 47.0193C39.5911 47.0193 42.097 44.5538 43.6378 41.0557C43.6378 41.0557 43.7108 43.6413 40.4656 47.1201C39.1653 48.5144 39.5911 47.0193 39.5911 47.0193Z" fill="#F9C787"/>
<path d="M14.2444 15.6052C14.2444 15.6052 12.1413 18.4476 11.1478 22.1528C11.1478 22.1528 10.6842 19.6114 13.3645 15.648C14.4377 14.0604 14.2444 15.6052 14.2444 15.6052Z" fill="#F9C787"/>
<path d="M23.0548 16.4375C23.0548 16.4375 21.5525 21.4836 21.3291 27.8451C21.3291 27.8451 20.3459 23.6233 22.1904 16.6184C22.9288 13.8126 23.0548 16.4375 23.0548 16.4375Z" fill="#F9C787"/>
<path d="M31.6463 16.4628C31.6463 16.4628 33.2727 21.4695 33.6532 27.8234C33.6532 27.8234 34.5318 23.5781 32.5149 16.6219C31.7075 13.8355 31.6463 16.4628 31.6463 16.4628Z" fill="#F9C787"/>
<path d="M26.25 10.7462C26.25 10.7462 26.842 7.39027 28.022 6.85327C29.2019 6.31626 30.9415 6.77872 31.8619 7.37509C31.747 7.37509 29.1857 6.57027 28.2071 7.58354C27.2286 8.59681 27.3151 10.7462 27.3151 10.7462C27.3151 10.7462 27.0853 11.0748 26.25 10.7462Z" fill="#94A596"/>
<path d="M31.0205 21.7549L26.874 25.8965V23.7129L26.25 23.874C22.5679 24.8231 19.8182 28.1135 19.6943 32.0576H15.8438C15.9772 25.9188 20.5339 20.8484 26.4521 19.9102L26.874 19.8438V17.6123L31.0205 21.7549Z" fill="#515B21" stroke="#515B21"/>
<path d="M15.5 32.5L14.5 31.5L16 31L15.5 32.5Z" fill="#515B21"/>
<path d="M26.5 26.5L25.5 25.5L27.5 24.5L26.5 26.5Z" fill="#515B21"/>
<path d="M30.0205 20.7549L25.874 24.8965V22.7129L25.25 22.874C21.5679 23.8231 18.8182 27.1135 18.6943 31.0576H14.8438C14.9772 24.9188 19.5339 19.8484 25.4521 18.9102L25.874 18.8438V16.6123L30.0205 20.7549Z" fill="#727F31" stroke="#727F31"/>
<path d="M35.3438 39.8737L34.1532 34.1353L35.9794 35.3324L36.1867 34.7221C37.4115 31.1224 36.1671 27.0188 32.9363 24.7531L35.0472 21.5326C40.1082 25.0096 41.8509 31.6002 39.391 37.0642L39.2153 37.4535L41.0816 38.6768L35.3438 39.8737Z" fill="#515B21" stroke="#515B21"/>
<path d="M34.8662 21.0028L36.2508 20.7147L35.8466 22.2433L34.8662 21.0028Z" fill="#515B21"/>
<path d="M33.8533 33.4919L35.2379 33.2037L34.9778 35.4246L33.8533 33.4919Z" fill="#515B21"/>
<path d="M36.7286 39.5856L35.5379 33.8472L37.3641 35.0443L37.5715 34.4341C38.7963 30.8343 37.5518 26.7307 34.3211 24.465L36.432 21.2446C41.493 24.7215 43.2356 31.3121 40.7758 36.7762L40.6001 37.1654L42.4663 38.3887L36.7286 39.5856Z" fill="#727F31" stroke="#727F31"/>
<path d="M17.3904 34.7572L23.0276 36.3597L21.1208 37.4238L21.5656 37.8902C24.1888 40.643 28.4021 41.4406 31.9065 39.6266L33.783 42.989C28.3575 45.8641 21.7092 44.3561 18.0058 39.6454L17.7422 39.3094L15.7937 40.3968L17.3904 34.7572Z" fill="#515B21" stroke="#515B21"/>
<path d="M34.3371 43.0735L33.9513 44.4341L32.7837 43.3679L34.3371 43.0735Z" fill="#515B21"/>
<path d="M23.7366 36.3919L23.3508 37.7524L21.5029 36.4933L23.7366 36.3919Z" fill="#515B21"/>
<path d="M17.0046 36.1176L22.6418 37.72L20.7351 38.7842L21.1799 39.2506C23.803 42.0033 28.0163 42.8009 31.5207 40.987L33.3972 44.3494C27.9717 47.2244 21.3235 45.7165 17.6201 41.0057L17.3565 40.6697L15.4079 41.7572L17.0046 36.1176Z" fill="#727F31" stroke="#727F31"/>
</g>
</g>
<defs>
<clipPath id="clip0_545_3845">
<rect width="56" height="56" fill="white"/>
</clipPath>
<clipPath id="clip1_545_3845">
<rect width="48" height="44" fill="white" transform="translate(4 6)"/>
</clipPath>
</defs>
</svg>
