<svg width="56" height="56" viewBox="0 0 56 56" fill="none" xmlns="http://www.w3.org/2000/svg">
<path d="M9.54569 10.5638C9.54569 10.5638 10.8823 11.1862 10.8427 12.3572C10.803 13.5282 9.08815 15.2811 10.1942 18.5548C8.17305 18.5548 6.49417 18.982 5.92134 19.608C8.20908 21.0884 9.1638 22.2999 9.39078 24.4799C5.53945 23.8944 3.05716 24.3253 1 27.912C4.5487 28.4202 4.50907 29.5507 5.49982 30.4087C6.49057 31.2668 7.56058 32.7471 8.59097 32.9423C5.23322 33.8776 3.82455 35.2438 3.51831 37.8547C5.92134 36.529 9.39438 38.6354 9.39438 38.6354C9.39438 38.6354 3.51831 40.2152 5.50342 48.7328C7.40927 46.1771 9.12778 46.4128 10.6517 46.4128C12.1757 46.4128 13.4366 46.4128 15.3821 45.2823C13.4366 48.1289 14.1608 51.4799 14.1608 51.4799C14.1608 51.4799 16.5242 47.5434 20.761 47.5434C20.6854 48.9464 21.9823 52.1428 23.355 52.4153C23.355 49.5687 25.1095 48.2062 25.1095 48.2062C25.4518 49.8044 27.2459 51.9108 29.1914 52.2238C29.1914 50.1174 29.6093 48.4419 29.9156 48.1289C31.1369 52.4963 34.2641 54.6395 36.1339 54.68C35.752 51.7156 36.1735 51.9108 36.7428 50.3531C37.312 48.7954 37.2003 46.8842 37.2003 46.8842C37.2003 46.8842 41.6641 51.7966 49.0641 49.6129C45.0579 48.2872 48.149 42.3621 45.2128 39.2025C47.8068 39.9059 49.9504 37.3355 49.9504 37.3355C47.3744 35.7078 48.0914 32.9607 48.0914 32.9607C48.9416 33.3032 50.8042 32.0916 51.7229 30.6481C49.6622 30.5781 50.1774 28.4018 48.0229 27.5548C50.9159 27.1424 53.6432 24.0491 53.9999 18.286C50.8547 19.2582 46.5818 18.8936 43.3178 16.9529C43.6744 14.4047 42.6044 11.6133 42.6044 11.6133C42.6044 11.6133 41.1813 13.1894 36.3717 12.3425C38.0938 9.55114 37.4417 5.12479 34.5307 3C33.1652 6.45785 28.597 7.18699 28.0025 10.6448C28.4781 5.79132 25.704 4.50982 25.704 4.50982C25.5743 5.99754 23.5459 8.79255 23.6288 10.3208C22.7966 8.44271 21.1933 6.9108 18.1779 6.80401C19.1182 8.09288 19.2911 11.1309 19.0749 11.8527C17.1943 9.62479 11.9595 9.20499 9.54569 10.5712V10.5638Z" fill="url(#paint0_radial_545_3502)"/>
<path d="M28 46.2334C36.8366 46.2334 44 38.8461 44 29.7334C44 20.6207 36.8366 13.2334 28 13.2334C19.1634 13.2334 12 20.6207 12 29.7334C12 38.8461 19.1634 46.2334 28 46.2334Z" fill="#FFF896"/>
<defs>
<radialGradient id="paint0_radial_545_3502" cx="0" cy="0" r="1" gradientUnits="userSpaceOnUse" gradientTransform="translate(27.4999 28.84) rotate(90) scale(25.84 26.4999)">
<stop stop-color="#FF830E"/>
<stop offset="1" stop-color="#F49708"/>
</radialGradient>
</defs>
</svg>
