<svg width="56" height="56" viewBox="0 0 56 56" fill="none" xmlns="http://www.w3.org/2000/svg">
<g clip-path="url(#clip0_545_3845)">
<g clip-path="url(#clip1_545_3845)">
<path d="M25.1505 13.6036C25.1505 13.6036 23.83 12.6152 23.9773 12.0823C24.1246 11.5494 24.4179 11.018 25.2978 10.7129C26.1777 10.4092 25.4451 5.99854 29.4054 5.99854C33.3656 5.99854 36.5217 9.11566 36.6676 9.95223C36.8136 10.7888 35.6404 12.386 35.0538 11.8531C34.4672 11.3203 30.7259 7.97538 29.919 8.58279C29.1121 9.19158 29.7717 10.6356 29.7717 10.6356C29.7717 10.6356 30.7989 11.1684 31.0192 11.7758C31.2395 12.3846 30.5056 13.5249 30.5056 13.5249L25.1505 13.6008V13.6036Z" fill="#727F31"/>
<path d="M35.4982 30.7329C35.3631 18.7986 34.3007 11.9321 26.983 11.9321C20.3304 11.9321 18.999 22.3561 19.1329 30.6404C19.2896 40.4266 20.4628 50.0002 26.7168 50.0002C33.5695 50.0002 35.6104 40.5205 35.4982 30.7329Z" fill="#FF9B04"/>
<path d="M35.2559 12.4648C37.6077 12.4648 39.3124 13.165 40.5488 14.5049C41.3511 13.9343 42.2372 13.6249 43.2012 13.6055C48.002 13.5078 52.5982 21.9217 51.9346 31.2314C51.2722 40.5412 45.5676 49.8428 40.791 49.1748C40.1886 49.0905 39.6418 48.8556 39.1475 48.4912C38.0166 49.4535 36.6436 50 34.9893 50C29.0363 49.9997 27.6887 41.4446 27.4375 32.2998C27.1863 41.4448 25.8399 50 19.8867 50C18.4637 50 17.2486 49.5962 16.2168 48.8711C15.8995 49.0212 15.5643 49.1251 15.209 49.1748C10.4324 49.8429 4.72722 40.5413 4.06348 31.2314C3.40118 21.9229 7.99691 13.5075 12.7979 13.6055C13.4906 13.6195 14.143 13.783 14.7529 14.0859C15.9471 13.0197 17.5273 12.4649 19.6201 12.4648C25.4013 12.4648 27.1627 20.227 27.4375 27.6201C27.7123 20.227 29.4747 12.4649 35.2559 12.4648Z" fill="#FF9B04"/>
<path d="M6.28418 40.4053C12.5567 44.2214 28.8128 49.4539 48.5479 42.833C46.3493 46.8689 43.4304 49.5433 40.792 49.1748C40.1897 49.0906 39.6427 48.8554 39.1484 48.4912C38.0176 49.4536 36.6446 49.9999 34.9902 50C33.3764 50 32.1017 49.3702 31.0947 48.2715C29.9234 49.3705 28.48 49.9999 26.7168 50C25.3546 49.9999 24.2336 49.5452 23.3115 48.7334C22.3859 49.5444 21.2593 49.9999 19.8877 50C18.4649 50 17.2495 49.596 16.2178 48.8711C15.9004 49.0213 15.5645 49.1251 15.209 49.1748C12.0706 49.6135 8.53098 45.7486 6.28418 40.4053Z" fill="#DC8B11"/>
<path d="M38.9491 32.2344H35.5605V35.6055H38.9491V32.2344Z" fill="#F18B00"/>
<path d="M21.0496 32.2344H17.6611V35.6055H21.0496V32.2344Z" fill="#F18B00"/>
<path d="M25.3045 38.7739H21.916V42.1451H25.3045V38.7739Z" fill="#F18B00"/>
<path d="M35.1346 38.7739H31.7461V42.1451H35.1346V38.7739Z" fill="#F18B00"/>
<path d="M40.6298 15.734C40.6298 15.734 43.6372 19.6877 44.6644 25.8473C44.6644 25.8473 45.3983 21.2089 41.5097 15.734C40.4014 14.1726 40.6298 15.734 40.6298 15.734Z" fill="#F9C787"/>
<path d="M15.4065 47.5509C15.4065 47.5509 13.2669 46.2256 9.08496 35.5034C9.08496 35.5034 10.3325 42.4238 14.5306 47.6516C15.7268 49.1412 15.4051 47.5509 15.4051 47.5509H15.4065Z" fill="#F9C787"/>
<path d="M23.5382 46.6142C23.5382 46.6142 22.0348 44.5844 22.0713 33.0605C22.0713 33.0605 20.6989 39.9567 22.6874 46.3811C23.2541 48.2115 23.5369 46.6137 23.5369 46.6137L23.5382 46.6142Z" fill="#F9C787"/>
<path d="M32.0732 46.6142C32.0732 46.6142 33.5766 44.5844 33.54 33.0605C33.54 33.0605 34.9125 39.9567 32.9239 46.3811C32.3573 48.2115 32.0744 46.6137 32.0744 46.6137L32.0732 46.6142Z" fill="#F9C787"/>
<path d="M39.5911 47.0193C39.5911 47.0193 42.097 44.5538 43.6378 41.0557C43.6378 41.0557 43.7108 43.6413 40.4656 47.1201C39.1653 48.5144 39.5911 47.0193 39.5911 47.0193Z" fill="#F9C787"/>
<path d="M14.2444 15.6052C14.2444 15.6052 12.1413 18.4476 11.1478 22.1528C11.1478 22.1528 10.6842 19.6114 13.3645 15.648C14.4377 14.0604 14.2444 15.6052 14.2444 15.6052Z" fill="#F9C787"/>
<path d="M23.0548 16.4375C23.0548 16.4375 21.5525 21.4836 21.3291 27.8451C21.3291 27.8451 20.3459 23.6233 22.1904 16.6184C22.9288 13.8126 23.0548 16.4375 23.0548 16.4375Z" fill="#F9C787"/>
<path d="M31.6463 16.4628C31.6463 16.4628 33.2727 21.4695 33.6532 27.8234C33.6532 27.8234 34.5318 23.5781 32.5149 16.6219C31.7075 13.8355 31.6463 16.4628 31.6463 16.4628Z" fill="#F9C787"/>
<path d="M26.25 10.7462C26.25 10.7462 26.842 7.39027 28.022 6.85327C29.2019 6.31626 30.9415 6.77872 31.8619 7.37509C31.747 7.37509 29.1857 6.57027 28.2071 7.58354C27.2286 8.59681 27.3151 10.7462 27.3151 10.7462C27.3151 10.7462 27.0853 11.0748 26.25 10.7462Z" fill="#94A596"/>
<g filter="url(#filter0_d_545_3845)">
<path d="M30.4835 20.5108L25.9752 16.0072C25.8931 15.9251 25.7764 15.8811 25.6619 15.9014C25.4917 15.9315 25.3743 16.0775 25.3743 16.2426V18.4163C19.1702 19.3996 14.402 24.7493 14.3389 31.2049C14.3389 31.2062 14.3389 31.2075 14.3389 31.209C14.3376 31.401 14.4933 31.5575 14.6855 31.5575H18.8427C19.0332 31.5575 19.1877 31.4035 19.1889 31.2132C19.1889 31.2075 19.1889 31.2027 19.1889 31.1989C19.2505 27.4267 21.8631 24.2634 25.3743 23.3583V25.2549C25.3743 25.3708 25.4254 25.4842 25.5205 25.5504C25.582 25.5932 25.6518 25.6138 25.7206 25.6138C25.8107 25.6138 25.8994 25.5786 25.9657 25.5124L30.4835 21.0002C30.6189 20.865 30.6189 20.6458 30.4835 20.5108Z" fill="#727F31"/>
<path d="M30.0205 20.7549L25.874 24.8965V22.7129L25.25 22.874C21.5679 23.8231 18.8182 27.1135 18.6943 31.0576H14.8438C14.9772 24.9188 19.5339 19.8484 25.4521 18.9102L25.874 18.8438V16.6123L30.0205 20.7549Z" stroke="#727F31"/>
</g>
<g filter="url(#filter1_d_545_3845)">
<path d="M16.6779 34.048L15.09 40.1291C15.061 40.24 15.0806 40.3615 15.1526 40.4492C15.2597 40.5797 15.4379 40.6079 15.5755 40.5265L17.3889 39.4521C21.1939 44.2722 27.9511 45.7058 33.3666 42.5694C33.3675 42.5688 33.3687 42.5681 33.3699 42.5672C33.5304 42.4733 33.5866 42.2628 33.4941 42.0988L31.4937 38.5431C31.4021 38.3803 31.1992 38.3242 31.0396 38.4172C31.0347 38.42 31.0308 38.4222 31.0277 38.4241C27.8516 40.2359 23.9557 39.5652 21.5112 37.0097L23.0934 36.0721C23.1901 36.0148 23.26 35.9149 23.2697 35.801C23.2758 35.7274 23.2594 35.6575 23.2264 35.5984C23.1831 35.5213 23.1111 35.4628 23.0241 35.439L17.0862 33.8063C16.9083 33.7571 16.7255 33.8655 16.6779 34.048Z" fill="#727F31"/>
<path d="M22.5332 35.8228L21.2568 36.5796L20.7148 36.9009L21.1504 37.355C23.7131 40.0341 27.7816 40.7664 31.1387 38.9321L32.9824 42.2095C27.8112 45.1186 21.4061 43.734 17.7812 39.1421L17.5107 38.7993L17.1338 39.022L15.6689 39.8882L17.1201 34.3335L22.5332 35.8228Z" stroke="#727F31"/>
</g>
<g filter="url(#filter2_d_545_3845)">
<path d="M35.3554 39.7491L40.6896 38.0994C40.7868 38.0693 40.8703 37.9903 40.9046 37.8813C40.9557 37.7187 40.8969 37.5443 40.7731 37.4616L39.1407 36.3739C41.0895 30.5107 39.1371 23.7056 34.3172 20.4209C34.3163 20.4202 34.3152 20.4196 34.3141 20.4186C34.1705 20.3216 33.9856 20.3778 33.9024 20.5442L32.1016 24.1437C32.0192 24.3086 32.0679 24.5197 32.2101 24.6161C32.2145 24.6189 32.2181 24.6214 32.2206 24.6233C35.0266 26.564 36.2704 30.4086 35.4293 33.9013L34.0051 32.9522C33.9181 32.8942 33.8109 32.8819 33.7197 32.931C33.661 32.9627 33.6154 33.0128 33.5854 33.0727C33.5464 33.1507 33.5343 33.2451 33.5555 33.3355L34.9876 39.5043C35.0308 39.6888 35.1953 39.7985 35.3554 39.7491Z" fill="#727F31"/>
<path d="M34.2412 20.9824C38.701 24.178 40.5254 30.6212 38.666 36.2158L38.5459 36.5781L38.8633 36.79L40.248 37.7119L35.4307 39.2021L34.1396 33.6426L35.1523 34.3174L35.748 34.7148L35.915 34.0186C36.7883 30.392 35.53 26.3699 32.5938 24.2764L34.2412 20.9824Z" stroke="#727F31"/>
</g>
</g>
</g>
<defs>
<filter id="filter0_d_545_3845" x="14.3389" y="15.8965" width="17.7461" height="17.1611" filterUnits="userSpaceOnUse" color-interpolation-filters="sRGB">
<feFlood flood-opacity="0" result="BackgroundImageFix"/>
<feColorMatrix in="SourceAlpha" type="matrix" values="0 0 0 0 0 0 0 0 0 0 0 0 0 0 0 0 0 0 127 0" result="hardAlpha"/>
<feOffset dx="1.5" dy="1.5"/>
<feComposite in2="hardAlpha" operator="out"/>
<feColorMatrix type="matrix" values="0 0 0 0 0.385187 0 0 0 0 0.437594 0 0 0 0 0.144991 0 0 0 1 0"/>
<feBlend mode="normal" in2="BackgroundImageFix" result="effect1_dropShadow_545_3845"/>
<feBlend mode="normal" in="SourceGraphic" in2="effect1_dropShadow_545_3845" result="shape"/>
</filter>
<filter id="filter1_d_545_3845" x="15.0771" y="33.7944" width="19.9619" height="11.9409" filterUnits="userSpaceOnUse" color-interpolation-filters="sRGB">
<feFlood flood-opacity="0" result="BackgroundImageFix"/>
<feColorMatrix in="SourceAlpha" type="matrix" values="0 0 0 0 0 0 0 0 0 0 0 0 0 0 0 0 0 0 127 0" result="hardAlpha"/>
<feOffset dx="1.5" dy="1.5"/>
<feComposite in2="hardAlpha" operator="out"/>
<feColorMatrix type="matrix" values="0 0 0 0 0.385187 0 0 0 0 0.437594 0 0 0 0 0.144991 0 0 0 1 0"/>
<feBlend mode="normal" in2="BackgroundImageFix" result="effect1_dropShadow_545_3845"/>
<feBlend mode="normal" in="SourceGraphic" in2="effect1_dropShadow_545_3845" result="shape"/>
</filter>
<filter id="filter2_d_545_3845" x="32.0615" y="20.3711" width="10.3613" height="20.8896" filterUnits="userSpaceOnUse" color-interpolation-filters="sRGB">
<feFlood flood-opacity="0" result="BackgroundImageFix"/>
<feColorMatrix in="SourceAlpha" type="matrix" values="0 0 0 0 0 0 0 0 0 0 0 0 0 0 0 0 0 0 127 0" result="hardAlpha"/>
<feOffset dx="1.5" dy="1.5"/>
<feComposite in2="hardAlpha" operator="out"/>
<feColorMatrix type="matrix" values="0 0 0 0 0.385187 0 0 0 0 0.437594 0 0 0 0 0.144991 0 0 0 1 0"/>
<feBlend mode="normal" in2="BackgroundImageFix" result="effect1_dropShadow_545_3845"/>
<feBlend mode="normal" in="SourceGraphic" in2="effect1_dropShadow_545_3845" result="shape"/>
</filter>
<clipPath id="clip0_545_3845">
<rect width="56" height="56" fill="white"/>
</clipPath>
<clipPath id="clip1_545_3845">
<rect width="48" height="44" fill="white" transform="translate(4 6)"/>
</clipPath>
</defs>
</svg>
