<svg width="56" height="56" viewBox="0 0 56 56" fill="none" xmlns="http://www.w3.org/2000/svg">
<path d="M45.9414 16L41.8828 52.5293H13.4707L9.41211 16H45.9414Z" fill="#414A67"/>
<path d="M45.3008 22.4082H10.0527L9.41211 16H45.9414L45.3008 22.4082Z" fill="#323A5A"/>
<path d="M37.8232 3.82373L44.5879 4.18625L40.36 11.9414H37.8232V3.82373Z" fill="#414A67"/>
<path d="M27 2.4707L50 18.706H4L27 2.4707Z" fill="#FF6404"/>
<path d="M18.8828 34.2648C18.8828 29.408 22.8201 25.4707 27.6769 25.4707V25.4707C32.5338 25.4707 36.471 29.408 36.471 34.2648V43.0589H18.8828V34.2648Z" fill="#FFD112"/>
<path d="M27.6768 26.2207C32.1193 26.2207 35.7206 29.8221 35.7207 34.2646V42.3086H19.6328V34.2646C19.6329 29.8221 23.2343 26.2208 27.6768 26.2207Z" stroke="black" stroke-width="1.5"/>
<rect x="27" y="43.0586" width="16.6412" height="1.5" transform="rotate(-90 27 43.0586)" fill="black"/>
<rect x="20.2354" y="34.2646" width="14.8824" height="1.5" fill="black"/>
</svg>
