<svg width="547" height="160" viewBox="0 0 547 160" fill="none" xmlns="http://www.w3.org/2000/svg">
<g opacity="0.42">
<path d="M81.6705 52.8H171.017C172.154 52.8 173.021 51.8769 172.75 50.9226C172.064 48.5289 169.951 44.7741 163.451 45.4312C162.692 45.5094 161.988 45.1183 161.681 44.5081C160.273 41.692 155.704 34.6831 146.062 37.9216C145.123 38.2345 144.076 37.8121 143.769 36.9829C142.216 32.8683 136.582 22.6521 119.879 26.0001C118.796 26.2191 117.748 25.4838 117.748 24.5138C117.712 19.2258 115.961 4.95757 98.4635 0.983735C79.7745 -3.27171 69.1028 7.47641 66.5568 10.449C66.1776 10.9027 65.5636 11.1373 64.9316 11.0591C60.3451 10.5741 41.7645 9.57284 38.9295 24.7016C38.767 25.5777 37.8642 26.1878 36.853 26.0314C32.1943 25.2961 20.1322 24.6233 17.9292 36.7952C17.8028 37.4835 17.2069 38.0468 16.3944 38.125C12.5302 38.5005 1.60567 40.503 0.0166527 51.0008C-0.127803 51.9395 0.684762 52.7844 1.78624 52.7844H81.6705V52.8Z" fill="white"/>
<path d="M99.2837 52.7844H143.424C144.575 52.7844 145.419 51.8621 145.15 50.893C143.856 46.2818 138.895 35.121 121.875 38.81C120.959 39.0132 120.006 38.5912 119.718 37.8096C118.299 33.8862 112.871 23.1475 96.3721 24.0541C79.7834 24.9607 76.2428 37.1062 75.5059 41.3735C75.3621 42.1707 74.5713 42.7491 73.6547 42.7022C69.3413 42.4521 58.0185 42.5928 55.2687 50.8305C54.9452 51.8152 55.8079 52.8 56.9941 52.8H99.3016L99.2837 52.7844Z" fill="#E8F4F9"/>
</g>
<g opacity="0.42">
<path d="M455.67 52.8H545.017C546.154 52.8 547.021 51.8769 546.75 50.9226C546.064 48.5289 543.951 44.7741 537.451 45.4312C536.692 45.5094 535.988 45.1183 535.681 44.5081C534.273 41.692 529.704 34.6831 520.062 37.9216C519.123 38.2345 518.076 37.8121 517.769 36.9829C516.216 32.8683 510.582 22.6521 493.879 26.0001C492.796 26.2191 491.748 25.4838 491.748 24.5138C491.712 19.2258 489.961 4.95757 472.464 0.983735C453.774 -3.27171 443.103 7.47641 440.557 10.449C440.178 10.9027 439.564 11.1373 438.932 11.0591C434.345 10.5741 415.764 9.57284 412.93 24.7016C412.767 25.5777 411.864 26.1878 410.853 26.0314C406.194 25.2961 394.132 24.6233 391.929 36.7952C391.803 37.4835 391.207 38.0468 390.394 38.125C386.53 38.5005 375.606 40.503 374.017 51.0008C373.872 51.9395 374.685 52.7844 375.786 52.7844H455.67V52.8Z" fill="white"/>
<path d="M473.284 52.7844H517.424C518.575 52.7844 519.419 51.8621 519.15 50.893C517.856 46.2818 512.895 35.121 495.875 38.81C494.959 39.0132 494.006 38.5912 493.718 37.8096C492.299 33.8862 486.871 23.1475 470.372 24.0541C453.783 24.9607 450.243 37.1062 449.506 41.3735C449.362 42.1707 448.571 42.7491 447.655 42.7022C443.341 42.4521 432.019 42.5928 429.269 50.8305C428.945 51.8152 429.808 52.8 430.994 52.8H473.302L473.284 52.7844Z" fill="#E8F4F9"/>
</g>
<path opacity="0.2" d="M266.469 160H367.811C369.101 160 370.085 158.689 369.777 157.333C368.999 153.933 366.603 148.6 359.229 149.533C358.369 149.644 357.57 149.088 357.222 148.222C355.625 144.222 350.443 134.266 339.506 138.866C338.441 139.31 337.253 138.71 336.905 137.533C335.143 131.688 328.753 117.176 309.808 121.932C308.579 122.243 307.391 121.199 307.391 119.821C307.35 112.309 305.364 92.042 285.517 86.3974C264.319 80.3527 252.214 95.6199 249.327 99.8423C248.896 100.487 248.2 100.82 247.483 100.709C242.281 100.02 221.206 98.5978 217.99 120.087C217.806 121.332 216.782 122.199 215.635 121.976C210.351 120.932 196.669 119.976 194.17 137.266C194.027 138.244 193.351 139.044 192.429 139.155C188.046 139.688 175.655 142.533 173.853 157.444C173.689 158.778 174.611 159.978 175.86 159.978H266.469V160Z" fill="white"/>
</svg>
