<svg width="247" height="348" viewBox="0 0 247 348" fill="none" xmlns="http://www.w3.org/2000/svg">
<path d="M16.387 14.1195C16.387 14.1195 18.9501 15.2812 18.8741 17.4672C18.7981 19.6532 15.5097 22.9253 17.6306 29.0364C13.7549 29.0364 10.5355 29.8338 9.43705 31.0024C13.824 33.7658 15.6547 36.0274 16.09 40.0969C8.70475 39.0039 3.94477 39.8082 0 46.5036C6.8049 47.4522 6.72891 49.5626 8.62876 51.1643C10.5286 52.766 12.5804 55.5294 14.5563 55.8937C8.11752 57.6397 5.41629 60.19 4.82906 65.0638C9.43705 62.5891 16.0969 66.5211 16.0969 66.5211C16.0969 66.5211 4.82906 69.4701 8.63566 85.37C12.2903 80.5994 15.5856 81.0393 18.508 81.0393C21.4303 81.0393 23.8482 81.0393 27.5789 78.929C23.8482 84.2427 25.2369 90.4982 25.2369 90.4982C25.2369 90.4982 29.7689 83.1497 37.8933 83.1497C37.7482 85.7688 40.2353 91.7355 42.8674 92.2442C42.8674 86.9305 46.2319 84.387 46.2319 84.387C46.8882 87.3704 50.3287 91.3024 54.0593 91.8867C54.0593 87.9547 54.8606 84.827 55.4479 84.2427C57.7899 92.3954 63.7865 96.3962 67.372 96.4718C66.6397 90.9381 67.448 91.3024 68.5395 88.3947C69.6311 85.4869 69.4169 81.9192 69.4169 81.9192C69.4169 81.9192 77.9766 91.0893 92.1667 87.013C84.4844 84.5383 90.4119 73.4778 84.7815 67.5798C89.7556 68.8927 93.8662 64.0946 93.8662 64.0946C88.9266 61.0562 90.3014 55.9281 90.3014 55.9281C91.9318 56.5674 95.5035 54.3058 97.2652 51.6111C93.3135 51.4805 94.3015 47.4179 90.1702 45.8368C95.7177 45.0669 100.947 39.2926 101.631 28.5346C95.6003 30.3494 87.4067 29.6688 81.1476 26.0461C81.8316 21.2892 79.7797 16.0786 79.7797 16.0786C79.7797 16.0786 77.0508 19.0208 67.828 17.4397C71.1302 12.2291 69.8798 3.96638 64.2977 0C61.6794 6.45483 52.9193 7.81591 51.7794 14.2707C52.6914 5.2106 47.3718 2.8184 47.3718 2.8184C47.1231 5.59556 43.2336 10.813 43.3925 13.6658C41.7966 10.16 38.7223 7.30035 32.9399 7.101C34.743 9.50695 35.0746 15.1781 34.6601 16.5255C31.0538 12.3666 21.0158 11.5829 16.387 14.1332V14.1195Z" fill="url(#paint0_radial_489_53577)"/>
<path d="M51.5377 81.8536C69.5793 81.8536 84.205 67.4563 84.205 49.6963C84.205 31.9364 69.5793 17.5391 51.5377 17.5391C33.4961 17.5391 18.8705 31.9364 18.8705 49.6963C18.8705 67.4563 33.4961 81.8536 51.5377 81.8536Z" fill="url(#paint1_radial_489_53577)"/>
<path d="M51.1424 327.443L33.1421 65.9163L80.8071 49.2892L227.128 223.876L51.1424 327.443Z" fill="url(#paint2_linear_489_53577)"/>
<defs>
<radialGradient id="paint0_radial_489_53577" cx="0" cy="0" r="1" gradientUnits="userSpaceOnUse" gradientTransform="translate(50.8157 48.2359) rotate(90) scale(48.2359 50.8157)">
<stop stop-color="#FF830E"/>
<stop offset="1" stop-color="#F49708"/>
</radialGradient>
<radialGradient id="paint1_radial_489_53577" cx="0" cy="0" r="1" gradientUnits="userSpaceOnUse" gradientTransform="translate(51.5377 49.6963) rotate(90) scale(32.1573 32.6672)">
<stop stop-color="white"/>
<stop offset="1" stop-color="#F3D04E"/>
</radialGradient>
<linearGradient id="paint2_linear_489_53577" x1="66.1919" y1="28.7658" x2="192.136" y2="219.336" gradientUnits="userSpaceOnUse">
<stop offset="0.00961538" stop-color="#FFF204" stop-opacity="0"/>
<stop offset="0.216346" stop-color="#FFF204" stop-opacity="0.73"/>
<stop offset="1" stop-color="#FFF200" stop-opacity="0"/>
</linearGradient>
</defs>
</svg>
