<svg width="59" height="85" viewBox="0 0 59 85" fill="none" xmlns="http://www.w3.org/2000/svg">
<rect x="5" y="1" width="49" height="74" rx="6" fill="white" stroke="#656565" stroke-width="2"/>
<path d="M13.3333 19.2157V12.1882H18.644V13.4933H14.9596V19.2157H13.3333ZM14.8391 16.6557V15.3506H18.2123V16.6557H14.8391ZM23.5917 19.3362C23.0362 19.3362 22.5208 19.2458 22.0456 19.0651C21.5772 18.8844 21.1689 18.6301 20.8209 18.3021C20.4795 17.9742 20.2118 17.5893 20.0177 17.1476C19.8303 16.7059 19.7366 16.224 19.7366 15.702C19.7366 15.1799 19.8303 14.6981 20.0177 14.2563C20.2118 13.8146 20.4829 13.4298 20.8309 13.1018C21.1789 12.7739 21.5872 12.5195 22.0557 12.3388C22.5242 12.1581 23.0328 12.0678 23.5816 12.0678C24.1372 12.0678 24.6458 12.1581 25.1076 12.3388C25.5761 12.5195 25.981 12.7739 26.3224 13.1018C26.6704 13.4298 26.9414 13.8146 27.1355 14.2563C27.3296 14.6914 27.4267 15.1732 27.4267 15.702C27.4267 16.224 27.3296 16.7092 27.1355 17.1577C26.9414 17.5994 26.6704 17.9842 26.3224 18.3122C25.981 18.6334 25.5761 18.8844 25.1076 19.0651C24.6458 19.2458 24.1405 19.3362 23.5917 19.3362ZM23.5816 17.9508C23.8962 17.9508 24.184 17.8972 24.445 17.7901C24.7127 17.683 24.947 17.5291 25.1478 17.3283C25.3485 17.1275 25.5025 16.8899 25.6096 16.6155C25.7233 16.3411 25.7802 16.0366 25.7802 15.702C25.7802 15.3673 25.7233 15.0628 25.6096 14.7884C25.5025 14.514 25.3485 14.2764 25.1478 14.0756C24.9537 13.8748 24.7228 13.7209 24.4551 13.6138C24.1873 13.5067 23.8962 13.4532 23.5816 13.4532C23.2671 13.4532 22.9759 13.5067 22.7082 13.6138C22.4472 13.7209 22.2163 13.8748 22.0155 14.0756C21.8147 14.2764 21.6575 14.514 21.5437 14.7884C21.4366 15.0628 21.3831 15.3673 21.3831 15.702C21.3831 16.0299 21.4366 16.3344 21.5437 16.6155C21.6575 16.8899 21.8114 17.1275 22.0055 17.3283C22.2063 17.5291 22.4405 17.683 22.7082 17.7901C22.9759 17.8972 23.2671 17.9508 23.5816 17.9508ZM29.1509 19.2157V12.1882H32.1526C33.1298 12.1882 33.8894 12.4158 34.4315 12.8709C34.9736 13.3193 35.2447 13.9418 35.2447 14.7382C35.2447 15.2602 35.1209 15.712 34.8733 16.0935C34.6256 16.4683 34.2742 16.7561 33.8191 16.9569C33.364 17.1577 32.8219 17.2581 32.1928 17.2581H30.0544L30.7773 16.5453V19.2157H29.1509ZM33.6184 19.2157L31.8615 16.6657H33.5983L35.3752 19.2157H33.6184ZM30.7773 16.726L30.0544 15.963H32.1024C32.6044 15.963 32.9792 15.8559 33.2268 15.6417C33.4745 15.4209 33.5983 15.1197 33.5983 14.7382C33.5983 14.35 33.4745 14.0488 33.2268 13.8347C32.9792 13.6205 32.6044 13.5134 32.1024 13.5134H30.0544L30.7773 12.7404V16.726ZM37.0352 19.2157V12.1882H38.3805L41.3722 17.1476H40.6594L43.6009 12.1882H44.9361L44.9562 19.2157H43.4302L43.4202 14.5274H43.7013L41.3521 18.4728H40.6192L38.2198 14.5274H38.5612V19.2157H37.0352Z" fill="#656565"/>
<rect x="18" y="1" width="23" height="4" rx="2" fill="#656565"/>
<rect x="11" y="24" width="38" height="10" rx="2" fill="#DFDFDF"/>
<rect x="11" y="38" width="38" height="10" rx="2" fill="#DFDFDF"/>
<rect x="19" y="52" width="22" height="9" rx="2" fill="#ED6D46"/>
<rect x="18" y="67" width="27" height="18" fill="white"/>
<path d="M39.5554 68.4617C39.2745 68.1898 38.9179 68.1494 38.7305 68.1494C38.3049 68.1494 37.9786 68.3467 37.9428 68.49C37.9413 68.5172 37.9395 68.5433 37.9369 68.5683C37.9088 68.8458 37.6746 69.0472 37.3922 69.0388C37.1153 69.0248 36.8979 68.7947 36.8979 68.5154C36.8979 68.4787 36.8997 68.4419 36.903 68.4055C36.9063 68.1938 36.8581 67.5146 36.1365 67.2033C35.7817 67.0508 35.127 66.8869 34.7244 67.5113C34.6163 67.6793 34.4216 67.7697 34.2261 67.7465C34.0288 67.723 33.8622 67.5889 33.7961 67.4007C33.7939 67.3952 33.4921 66.5826 32.8907 66.5547C32.3376 66.5286 31.9237 66.6109 31.6979 67.092C31.5937 67.314 31.3504 67.433 31.1129 67.3794C30.8751 67.3257 30.7059 67.1133 30.7059 66.8682V59.5838C30.7059 58.8461 30.1093 58.2463 29.3764 58.2463C28.6435 58.2463 28.0469 58.8465 28.0469 59.5838V71.5934C28.0469 71.8121 27.9121 72.0076 27.7083 72.0841C27.504 72.1609 27.275 72.1017 27.1328 71.9367L24.9225 69.3751C24.7325 69.1549 24.4687 69.0237 24.1793 69.0061C23.8914 68.9895 23.612 69.0862 23.3971 69.2817C23.0077 69.6353 22.9295 70.2145 23.2115 70.6588C24.4877 72.6692 26.0719 75.2242 26.3729 75.9806C26.4686 76.2213 26.7178 76.5804 27.0068 76.9965C27.785 78.1167 28.9322 79.768 29.0951 81.9518H37.5935C37.6005 81.1113 37.7411 79.4754 38.5964 77.8616C39.7816 75.6263 39.9584 71.7636 39.9584 69.6603C39.9584 69.1237 39.8229 68.7201 39.5554 68.4614V68.4617Z" fill="white"/>
<path d="M29.3756 56.9481C30.8231 56.9481 31.9977 58.1318 31.9977 59.5839V65.3319C32.4045 65.2327 32.769 65.2489 32.9479 65.2577H32.9489C33.6406 65.2894 34.1311 65.6563 34.4547 66.0292C35.1741 65.635 36.0065 65.7352 36.6451 66.0106C37.2009 66.25 37.5711 66.6203 37.8102 67.0165C38.0882 66.9098 38.4003 66.8515 38.7301 66.8514C39.3852 66.8514 39.9979 67.089 40.4508 67.5272C40.826 67.8904 41.2496 68.5521 41.2496 69.661V69.7635L41.2477 69.7645C41.2447 70.865 41.195 72.3939 40.9899 73.953C40.7789 75.5566 40.4027 77.2148 39.736 78.4725V78.4735C39.2288 79.43 39.0172 80.409 38.9342 81.1552C38.8927 81.5283 38.8833 81.8411 38.8844 82.0594L38.8971 82.4003V82.4022C38.9181 82.6187 38.8468 82.8343 38.7008 82.996C38.5551 83.1572 38.3475 83.2499 38.1295 83.2499H28.5934C28.166 83.2499 27.822 82.9022 27.8219 82.4764C27.8219 80.4494 26.7605 78.9113 25.9469 77.7401C25.6138 77.2607 25.3258 76.8484 25.1725 76.4628C25.0773 76.2234 24.7573 75.6421 24.2301 74.7587C23.7078 73.8835 22.9931 72.73 22.1217 71.3573C21.4998 70.3775 21.6716 69.0993 22.5299 68.3192C23.0037 67.8885 23.6171 67.6692 24.2584 67.7108H24.2574C24.8957 67.7499 25.4794 68.0401 25.8981 68.5253L26.7545 69.5175V59.5839C26.7545 58.1316 27.9284 56.9484 29.3756 56.9481ZM29.3756 58.496C28.7824 58.4962 28.2965 58.9831 28.2965 59.5839V71.5936C28.2965 71.9154 28.0971 72.2039 27.7955 72.3173L27.7965 72.3182C27.4937 72.4323 27.1534 72.3442 26.943 72.1005L24.733 69.5389C24.5868 69.3695 24.3854 69.2693 24.1637 69.2557C23.9427 69.2433 23.7296 69.3174 23.5651 69.4667C23.303 69.7049 23.2246 70.0751 23.3541 70.3925L23.4225 70.5253L24.4137 72.1005C24.7468 72.6352 25.0744 73.1676 25.3717 73.661C25.961 74.6391 26.4455 75.487 26.6051 75.8885C26.6433 75.9849 26.7177 76.1182 26.8268 76.288C26.9343 76.4553 27.0663 76.6453 27.2115 76.8544C27.9611 77.9337 29.0922 79.5579 29.3209 81.702H37.3502C37.3831 80.7905 37.5725 79.2604 38.3756 77.745C38.9465 76.6681 39.282 75.1796 39.4733 73.6805C39.6638 72.187 39.7076 70.7068 39.7076 69.661C39.7076 69.162 39.582 68.8356 39.3815 68.6415C39.1687 68.4355 38.8905 68.3993 38.7301 68.3993C38.5546 68.3993 38.4035 68.4403 38.2985 68.4911C38.2459 68.5165 38.2097 68.5415 38.1891 68.5604L38.1871 68.5614L38.1852 68.5936C38.1434 69.0053 37.7937 69.3012 37.3844 69.2889H37.3795V69.288C36.9681 69.2672 36.6472 68.9264 36.6471 68.5155C36.6471 68.4748 36.6498 68.4352 36.653 68.3964C36.6553 68.208 36.6075 67.6787 36.0367 67.4325C35.8756 67.3633 35.6663 67.3013 35.4655 67.3153C35.279 67.3283 35.0892 67.4061 34.9342 67.6464C34.7742 67.8943 34.4861 68.0294 34.1959 67.995C33.9034 67.9601 33.6577 67.7607 33.5602 67.4833L33.5582 67.4794C33.5525 67.4658 33.4875 67.2998 33.3658 67.1327C33.2293 66.9451 33.0636 66.813 32.8785 66.8046C32.6114 66.792 32.4123 66.8079 32.2614 66.8661C32.1233 66.9193 32.0102 67.0133 31.9235 67.1981C31.7698 67.5252 31.41 67.7026 31.0573 67.6229C30.7047 67.5432 30.4557 67.2291 30.4557 66.868V59.5839C30.4557 58.9833 29.969 58.496 29.3756 58.496Z" fill="#656565" stroke="#656565" stroke-width="0.5"/>
</svg>
