<svg width="251" height="352" viewBox="0 0 251 352" fill="none" xmlns="http://www.w3.org/2000/svg">
<g filter="url(#filter0_d_489_53577)">
<path d="M20.387 18.1195C20.387 18.1195 22.9501 19.2812 22.8741 21.4672C22.7981 23.6532 19.5097 26.9253 21.6306 33.0364C17.7549 33.0364 14.5355 33.8338 13.4371 35.0024C17.824 37.7658 19.6547 40.0274 20.09 44.0969C12.7048 43.0039 7.94477 43.8082 4 50.5036C10.8049 51.4522 10.7289 53.5626 12.6288 55.1643C14.5286 56.766 16.5804 59.5294 18.5563 59.8937C12.1175 61.6397 9.41629 64.19 8.82906 69.0638C13.4371 66.5891 20.0969 70.5211 20.0969 70.5211C20.0969 70.5211 8.82906 73.4701 12.6357 89.37C16.2903 84.5994 19.5856 85.0393 22.508 85.0393C25.4303 85.0393 27.8482 85.0393 31.5789 82.929C27.8482 88.2427 29.2369 94.4982 29.2369 94.4982C29.2369 94.4982 33.7689 87.1497 41.8933 87.1497C41.7482 89.7688 44.2353 95.7355 46.8674 96.2442C46.8674 90.9305 50.2319 88.387 50.2319 88.387C50.8882 91.3704 54.3286 95.3024 58.0593 95.8867C58.0593 91.9547 58.8606 88.827 59.4479 88.2427C61.7899 96.3954 67.7865 100.396 71.372 100.472C70.6397 94.9381 71.448 95.3024 72.5395 92.3947C73.6311 89.4869 73.4169 85.9192 73.4169 85.9192C73.4169 85.9192 81.9766 95.0893 96.1667 91.013C88.4844 88.5383 94.4119 77.4778 88.7815 71.5798C93.7556 72.8927 97.8662 68.0946 97.8662 68.0946C92.9266 65.0562 94.3014 59.9281 94.3014 59.9281C95.9318 60.5674 99.5035 58.3058 101.265 55.6111C97.3135 55.4805 98.3015 51.4179 94.1702 49.8368C99.7177 49.0669 104.947 43.2926 105.631 32.5346C99.6003 34.3494 91.4067 33.6688 85.1476 30.0461C85.8316 25.2892 83.7797 20.0786 83.7797 20.0786C83.7797 20.0786 81.0508 23.0208 71.828 21.4397C75.1302 16.2291 73.8798 7.96638 68.2977 4C65.6794 10.4548 56.9193 11.8159 55.7794 18.2707C56.6914 9.2106 51.3718 6.8184 51.3718 6.8184C51.1231 9.59556 47.2336 14.813 47.3925 17.6658C45.7966 14.16 42.7223 11.3003 36.9399 11.101C38.743 13.5069 39.0746 19.1781 38.6601 20.5255C35.0538 16.3666 25.0158 15.5829 20.387 18.1332V18.1195Z" fill="url(#paint0_radial_489_53577)"/>
<path d="M55.5377 85.8536C73.5793 85.8536 88.205 71.4563 88.205 53.6963C88.205 35.9364 73.5793 21.5391 55.5377 21.5391C37.4961 21.5391 22.8705 35.9364 22.8705 53.6963C22.8705 71.4563 37.4961 85.8536 55.5377 85.8536Z" fill="url(#paint1_radial_489_53577)"/>
</g>
<g filter="url(#filter1_d_489_53577)">
<path d="M20.387 18.1195C20.387 18.1195 22.9501 19.2812 22.8741 21.4672C22.7981 23.6532 19.5097 26.9253 21.6306 33.0364C17.7549 33.0364 14.5355 33.8338 13.4371 35.0024C17.824 37.7658 19.6547 40.0274 20.09 44.0969C12.7048 43.0039 7.94477 43.8082 4 50.5036C10.8049 51.4522 10.7289 53.5626 12.6288 55.1643C14.5286 56.766 16.5804 59.5294 18.5563 59.8937C12.1175 61.6397 9.41629 64.19 8.82906 69.0638C13.4371 66.5891 20.0969 70.5211 20.0969 70.5211C20.0969 70.5211 8.82906 73.4701 12.6357 89.37C16.2903 84.5994 19.5856 85.0393 22.508 85.0393C25.4303 85.0393 27.8482 85.0393 31.5789 82.929C27.8482 88.2427 29.2369 94.4982 29.2369 94.4982C29.2369 94.4982 33.7689 87.1497 41.8933 87.1497C41.7482 89.7688 44.2353 95.7355 46.8674 96.2442C46.8674 90.9305 50.2319 88.387 50.2319 88.387C50.8882 91.3704 54.3286 95.3024 58.0593 95.8867C58.0593 91.9547 58.8606 88.827 59.4479 88.2427C61.7899 96.3954 67.7865 100.396 71.372 100.472C70.6397 94.9381 71.448 95.3024 72.5395 92.3947C73.6311 89.4869 73.4169 85.9192 73.4169 85.9192C73.4169 85.9192 81.9766 95.0893 96.1667 91.013C88.4844 88.5383 94.4119 77.4778 88.7815 71.5798C93.7556 72.8927 97.8662 68.0946 97.8662 68.0946C92.9266 65.0562 94.3014 59.9281 94.3014 59.9281C95.9318 60.5674 99.5035 58.3058 101.265 55.6111C97.3135 55.4805 98.3015 51.4179 94.1702 49.8368C99.7177 49.0669 104.947 43.2926 105.631 32.5346C99.6003 34.3494 91.4067 33.6688 85.1476 30.0461C85.8316 25.2892 83.7797 20.0786 83.7797 20.0786C83.7797 20.0786 81.0508 23.0208 71.828 21.4397C75.1302 16.2291 73.8798 7.96638 68.2977 4C65.6794 10.4548 56.9193 11.8159 55.7794 18.2707C56.6914 9.2106 51.3718 6.8184 51.3718 6.8184C51.1231 9.59556 47.2336 14.813 47.3925 17.6658C45.7966 14.16 42.7223 11.3003 36.9399 11.101C38.743 13.5069 39.0746 19.1781 38.6601 20.5255C35.0538 16.3666 25.0158 15.5829 20.387 18.1332V18.1195Z" fill="url(#paint2_radial_489_53577)"/>
<path d="M55.5377 85.8536C73.5793 85.8536 88.205 71.4563 88.205 53.6963C88.205 35.9364 73.5793 21.5391 55.5377 21.5391C37.4961 21.5391 22.8705 35.9364 22.8705 53.6963C22.8705 71.4563 37.4961 85.8536 55.5377 85.8536Z" fill="url(#paint3_radial_489_53577)"/>
</g>
<g filter="url(#filter2_d_489_53577)">
<path d="M20.387 18.1195C20.387 18.1195 22.9501 19.2812 22.8741 21.4672C22.7981 23.6532 19.5097 26.9253 21.6306 33.0364C17.7549 33.0364 14.5355 33.8338 13.4371 35.0024C17.824 37.7658 19.6547 40.0274 20.09 44.0969C12.7048 43.0039 7.94477 43.8082 4 50.5036C10.8049 51.4522 10.7289 53.5626 12.6288 55.1643C14.5286 56.766 16.5804 59.5294 18.5563 59.8937C12.1175 61.6397 9.41629 64.19 8.82906 69.0638C13.4371 66.5891 20.0969 70.5211 20.0969 70.5211C20.0969 70.5211 8.82906 73.4701 12.6357 89.37C16.2903 84.5994 19.5856 85.0393 22.508 85.0393C25.4303 85.0393 27.8482 85.0393 31.5789 82.929C27.8482 88.2427 29.2369 94.4982 29.2369 94.4982C29.2369 94.4982 33.7689 87.1497 41.8933 87.1497C41.7482 89.7688 44.2353 95.7355 46.8674 96.2442C46.8674 90.9305 50.2319 88.387 50.2319 88.387C50.8882 91.3704 54.3286 95.3024 58.0593 95.8867C58.0593 91.9547 58.8606 88.827 59.4479 88.2427C61.7899 96.3954 67.7865 100.396 71.372 100.472C70.6397 94.9381 71.448 95.3024 72.5395 92.3947C73.6311 89.4869 73.4169 85.9192 73.4169 85.9192C73.4169 85.9192 81.9766 95.0893 96.1667 91.013C88.4844 88.5383 94.4119 77.4778 88.7815 71.5798C93.7556 72.8927 97.8662 68.0946 97.8662 68.0946C92.9266 65.0562 94.3014 59.9281 94.3014 59.9281C95.9318 60.5674 99.5035 58.3058 101.265 55.6111C97.3135 55.4805 98.3015 51.4179 94.1702 49.8368C99.7177 49.0669 104.947 43.2926 105.631 32.5346C99.6003 34.3494 91.4067 33.6688 85.1476 30.0461C85.8316 25.2892 83.7797 20.0786 83.7797 20.0786C83.7797 20.0786 81.0508 23.0208 71.828 21.4397C75.1302 16.2291 73.8798 7.96638 68.2977 4C65.6794 10.4548 56.9193 11.8159 55.7794 18.2707C56.6914 9.2106 51.3718 6.8184 51.3718 6.8184C51.1231 9.59556 47.2336 14.813 47.3925 17.6658C45.7966 14.16 42.7223 11.3003 36.9399 11.101C38.743 13.5069 39.0746 19.1781 38.6601 20.5255C35.0538 16.3666 25.0158 15.5829 20.387 18.1332V18.1195Z" fill="url(#paint4_radial_489_53577)"/>
<path d="M55.5377 85.8536C73.5793 85.8536 88.205 71.4563 88.205 53.6963C88.205 35.9364 73.5793 21.5391 55.5377 21.5391C37.4961 21.5391 22.8705 35.9364 22.8705 53.6963C22.8705 71.4563 37.4961 85.8536 55.5377 85.8536Z" fill="url(#paint5_radial_489_53577)"/>
</g>
<path d="M55.1424 331.443L37.1421 69.9163L84.8071 53.2892L231.128 227.876L55.1424 331.443Z" fill="url(#paint6_linear_489_53577)"/>
<defs>
<filter id="filter0_d_489_53577" x="0" y="0" width="109.631" height="104.472" filterUnits="userSpaceOnUse" color-interpolation-filters="sRGB">
<feFlood flood-opacity="0" result="BackgroundImageFix"/>
<feColorMatrix in="SourceAlpha" type="matrix" values="0 0 0 0 0 0 0 0 0 0 0 0 0 0 0 0 0 0 127 0" result="hardAlpha"/>
<feOffset/>
<feGaussianBlur stdDeviation="2"/>
<feComposite in2="hardAlpha" operator="out"/>
<feColorMatrix type="matrix" values="0 0 0 0 1 0 0 0 0 1 0 0 0 0 1 0 0 0 1 0"/>
<feBlend mode="normal" in2="BackgroundImageFix" result="effect1_dropShadow_489_53577"/>
<feBlend mode="normal" in="SourceGraphic" in2="effect1_dropShadow_489_53577" result="shape"/>
</filter>
<filter id="filter1_d_489_53577" x="0" y="0" width="109.631" height="104.472" filterUnits="userSpaceOnUse" color-interpolation-filters="sRGB">
<feFlood flood-opacity="0" result="BackgroundImageFix"/>
<feColorMatrix in="SourceAlpha" type="matrix" values="0 0 0 0 0 0 0 0 0 0 0 0 0 0 0 0 0 0 127 0" result="hardAlpha"/>
<feOffset/>
<feGaussianBlur stdDeviation="2"/>
<feComposite in2="hardAlpha" operator="out"/>
<feColorMatrix type="matrix" values="0 0 0 0 1 0 0 0 0 1 0 0 0 0 1 0 0 0 1 0"/>
<feBlend mode="normal" in2="BackgroundImageFix" result="effect1_dropShadow_489_53577"/>
<feBlend mode="normal" in="SourceGraphic" in2="effect1_dropShadow_489_53577" result="shape"/>
</filter>
<filter id="filter2_d_489_53577" x="0" y="0" width="109.631" height="104.472" filterUnits="userSpaceOnUse" color-interpolation-filters="sRGB">
<feFlood flood-opacity="0" result="BackgroundImageFix"/>
<feColorMatrix in="SourceAlpha" type="matrix" values="0 0 0 0 0 0 0 0 0 0 0 0 0 0 0 0 0 0 127 0" result="hardAlpha"/>
<feOffset/>
<feGaussianBlur stdDeviation="2"/>
<feComposite in2="hardAlpha" operator="out"/>
<feColorMatrix type="matrix" values="0 0 0 0 1 0 0 0 0 1 0 0 0 0 1 0 0 0 1 0"/>
<feBlend mode="normal" in2="BackgroundImageFix" result="effect1_dropShadow_489_53577"/>
<feBlend mode="normal" in="SourceGraphic" in2="effect1_dropShadow_489_53577" result="shape"/>
</filter>
<radialGradient id="paint0_radial_489_53577" cx="0" cy="0" r="1" gradientUnits="userSpaceOnUse" gradientTransform="translate(54.8157 52.2359) rotate(90) scale(48.2359 50.8157)">
<stop stop-color="#FF830E"/>
<stop offset="1" stop-color="#F49708"/>
</radialGradient>
<radialGradient id="paint1_radial_489_53577" cx="0" cy="0" r="1" gradientUnits="userSpaceOnUse" gradientTransform="translate(55.5377 53.6963) rotate(90) scale(32.1573 32.6672)">
<stop stop-color="#FFEFB8"/>
<stop offset="1" stop-color="#FFDC5C"/>
</radialGradient>
<radialGradient id="paint2_radial_489_53577" cx="0" cy="0" r="1" gradientUnits="userSpaceOnUse" gradientTransform="translate(54.8157 52.2359) rotate(90) scale(48.2359 50.8157)">
<stop stop-color="#FF830E"/>
<stop offset="1" stop-color="#F49708"/>
</radialGradient>
<radialGradient id="paint3_radial_489_53577" cx="0" cy="0" r="1" gradientUnits="userSpaceOnUse" gradientTransform="translate(55.5377 53.6963) rotate(90) scale(32.1573 32.6672)">
<stop stop-color="#FFEFB8"/>
<stop offset="1" stop-color="#FFDC5C"/>
</radialGradient>
<radialGradient id="paint4_radial_489_53577" cx="0" cy="0" r="1" gradientUnits="userSpaceOnUse" gradientTransform="translate(54.8157 52.2359) rotate(90) scale(48.2359 50.8157)">
<stop stop-color="#FF830E"/>
<stop offset="1" stop-color="#F49708"/>
</radialGradient>
<radialGradient id="paint5_radial_489_53577" cx="0" cy="0" r="1" gradientUnits="userSpaceOnUse" gradientTransform="translate(55.5377 53.6963) rotate(90) scale(32.1573 32.6672)">
<stop stop-color="#FFEFB8"/>
<stop offset="1" stop-color="#FFDC5C"/>
</radialGradient>
<linearGradient id="paint6_linear_489_53577" x1="70.1919" y1="32.7658" x2="196.136" y2="223.336" gradientUnits="userSpaceOnUse">
<stop offset="0.00961538" stop-color="#FFF204" stop-opacity="0"/>
<stop offset="0.216346" stop-color="#FFF204" stop-opacity="0.73"/>
<stop offset="1" stop-color="#FFF200" stop-opacity="0"/>
</linearGradient>
</defs>
</svg>
