<svg width="258" height="178" viewBox="0 0 258 178" fill="none" xmlns="http://www.w3.org/2000/svg">
<g clip-path="url(#clip0_499_1053)">
<path d="M19.5992 35.3824C-4.94438 43.2698 -9.05936 76.4778 22.4339 106.498C34.6326 118.126 44.4354 130.639 54.8966 143.152C65.4492 155.794 78.7451 180.193 92.1508 177.834C124.613 172.121 122.346 129.386 146.487 127.782C162.252 126.732 155.064 108.248 176.938 107.216C197.238 106.24 211.357 103.328 224.543 92.1788C237.711 81.0296 238.882 75.6485 242.613 67.3741C248.282 54.8612 239.833 44.0806 252.196 32.6919C265.84 20.1421 251.099 -0.0185547 251.099 -0.0185547C251.099 -0.0185547 242.594 10.5778 237.803 10.5778C219.368 10.5778 218.307 5.32568 197.732 11.6098C177.157 17.8939 179.498 18.889 157.167 23.0354C134.819 27.1818 134.544 16.825 118.688 16.8987C102.831 16.9724 96.4853 26.1314 85.1828 29.5406C73.8986 32.9314 43.1369 27.7899 19.5809 35.364" fill="#FFE893"/>
<path d="M12.4783 56.8344L30.5842 85.7301L90.5714 66.2697L87.2977 43.1421L12.4783 56.8344Z" stroke="#009D8F" stroke-width="0.137143" stroke-miterlimit="10"/>
<path d="M162.478 44.0622L173.725 25.9839L134.898 33.6501L136.233 52.6682L162.478 44.0622Z" stroke="#009D8F" stroke-width="0.137143" stroke-miterlimit="10"/>
<path d="M131.859 34.186L91.8435 41.797L97.129 78.6907L114.576 72.1854L112.418 51.0665L118.362 49.5922L124.123 108.213L135.334 89.6556L131.859 34.186Z" stroke="#009D8F" stroke-width="0.137143" stroke-miterlimit="10"/>
<path d="M136.685 58.5092L137.672 73.8048L147.658 68.8475L158.613 50.7324L136.685 58.5092Z" stroke="#009D8F" stroke-width="0.137143" stroke-miterlimit="10"/>
<path d="M220.052 22.9067L220.308 17.4888L213.175 18.8525L212.682 25.1734L205.805 27.3111L205.329 34.4245L212.133 32.5448L210.962 53.8112L218.077 45.8869L219.32 29.1908L225.465 27.3111L224.313 47.2138L230.129 40.4137L232.196 19.4975L220.052 22.9067Z" stroke="#009D8F" stroke-width="0.137143" stroke-miterlimit="10"/>
<path d="M125.301 111.272L182.289 60.1881L183.131 15.7388L125.301 111.272Z" stroke="#009D8F" stroke-width="0.137143" stroke-miterlimit="10"/>
<path d="M88.2394 92.9702L94.2382 89.9479L91.7143 74.0073L34.9276 93.91L45.2974 110.588L72.2916 99.4017L82.0395 168.361L88.2394 92.9702Z" stroke="#009D8F" stroke-width="0.137143" stroke-miterlimit="10"/>
<path d="M96.4833 116.58L117.278 77.5854L119.18 93.3049L96.4833 116.58Z" stroke="#009D8F" stroke-width="0.137143" stroke-miterlimit="10"/>
<path d="M97.6072 81.9343L100.789 103.938L107.483 91.4618L105.801 79.041L97.6072 81.9343Z" stroke="#009D8F" stroke-width="0.137143" stroke-miterlimit="10"/>
<path d="M107.636 78.3006L116.689 74.8545L109.172 89.7078L107.636 78.3006Z" stroke="#009D8F" stroke-width="0.137143" stroke-miterlimit="10"/>
<path d="M185.371 37.2982L185.042 48.7606L203.038 36.9665L204.007 31.2168L185.371 37.2982Z" stroke="#009D8F" stroke-width="0.137143" stroke-miterlimit="10"/>
<path d="M233.777 21.7253L233.485 27.4934L248.628 19.2559L248.116 17.3394L233.777 21.7253Z" stroke="#009D8F" stroke-width="0.137143" stroke-miterlimit="10"/>
<path d="M184.54 81.0294L184.869 52.7234L204.914 45.7021L203.926 64.1858L189.277 91.3493L198.22 85.3417L197.616 96.3618L184.119 104.139L184.266 89.1932L195.861 68.6824L196.007 55.2296L191.801 56.8329L191.526 69.5669L184.54 81.0294Z" stroke="#009D8F" stroke-width="0.137143" stroke-miterlimit="10"/>
<path d="M210.068 71.4449L210.964 55.2279L223.309 50.7866L222.504 62.8757L216.56 78.2265L222.504 74.2276L222.084 81.6726L208.788 89.3389L209.409 81.2672L218.078 61.5304L218.316 58.3607L215.554 59.2637L215.262 62.7835L210.068 71.4449Z" stroke="#009D8F" stroke-width="0.137143" stroke-miterlimit="10"/>
<path d="M200.503 73.012L199.955 94.9233L207.38 90.1688L208.916 68.2021L200.503 73.012ZM205.094 85.3774L202.662 87.0913L203.155 75.8315L205.332 74.6705L205.094 85.3774Z" stroke="#009D8F" stroke-width="0.137143" stroke-miterlimit="10"/>
<path d="M10.2881 54.6215L28.394 83.5173L88.3812 64.0384L85.1075 40.9292L10.2881 54.6215Z" fill="#009D8F"/>
<path d="M160.269 41.8496L171.535 23.7529L132.708 31.4376L134.043 50.4557L160.269 41.8496Z" fill="#009D8F"/>
<path d="M129.669 31.9731L89.6533 39.5841L94.9205 76.4778L112.386 69.9725L110.228 48.8536L116.172 47.3793L121.933 106L133.144 87.4427L129.669 31.9731Z" fill="#009D8F"/>
<path d="M134.494 56.3006L135.464 71.5962L145.449 66.6389L156.423 48.5054L134.494 56.3006Z" fill="#009D8F"/>
<path d="M217.833 20.6749L218.107 15.2754L210.956 16.6207L210.481 22.96L203.604 25.0977L203.11 32.1927L209.914 30.313L208.762 51.5978L215.876 43.6551L217.12 26.959L223.246 25.0977L222.113 44.982L227.928 38.2003L229.995 17.2841L217.833 20.6749Z" fill="#009D8F"/>
<path d="M123.082 109.041L180.089 57.9573L180.93 13.5264L123.082 109.041Z" fill="#009D8F"/>
<path d="M86.0491 90.7431L92.0479 87.7393L89.5057 71.7803L32.7373 91.7014L43.0888 108.361L70.083 97.1931L79.8492 166.134L86.0491 90.7431Z" fill="#009D8F"/>
<path d="M94.2787 114.367L115.055 75.3721L116.975 91.0915L94.2787 114.367Z" fill="#009D8F"/>
<path d="M95.3882 79.703L98.5704 101.725L105.264 89.2304L103.6 76.8281L95.3882 79.703Z" fill="#009D8F"/>
<path d="M105.446 76.0916L114.517 72.6455L107 87.4988L105.446 76.0916Z" fill="#009D8F"/>
<path d="M183.17 35.0891L182.823 46.5515L200.819 34.7574L201.806 28.9893L183.17 35.0891Z" fill="#009D8F"/>
<path d="M231.558 19.5167L231.266 25.2848L246.427 17.0473L245.915 15.1123L231.558 19.5167Z" fill="#009D8F"/>
<path d="M182.35 78.8174L182.679 50.5113L202.705 43.4717L201.736 61.9738L187.087 89.1373L196.03 83.1296L195.408 94.1314L181.929 101.927L182.075 86.9812L193.67 66.4519L193.817 52.9992L189.61 54.6024L189.318 67.3549L182.35 78.8174Z" fill="#009D8F"/>
<path d="M207.859 69.2354L208.774 53.0184L221.119 48.5771L220.314 60.6662L214.37 75.9986L220.314 72.0181L219.893 79.4447L206.597 87.111L207.201 79.0577L215.888 59.3025L216.126 56.1328L213.346 57.0542L213.072 60.574L207.859 69.2354Z" fill="#009D8F"/>
<path d="M198.284 70.8021L197.736 92.7135L205.161 87.9774L206.697 66.0107L198.284 70.8206V70.8021ZM202.893 83.1492L200.461 84.863L200.955 73.6032L203.131 72.4423L202.893 83.1492Z" fill="#009D8F"/>
<path d="M158.198 20.8232C158.198 20.8232 154.119 23.8824 154.119 25.0249C154.119 26.1675 158.765 26.9968 158.765 26.9968L158.198 20.8232Z" fill="#F08300"/>
<path d="M160.865 16.4022C160.865 16.4022 163.37 17.1394 164.01 19.8299C164.632 22.5205 164.559 24.9899 164.303 26.4826C164.047 27.9753 163.041 28.7308 161.103 28.9888C159.146 29.2468 155.122 28.2886 155.122 28.2886C155.122 28.2886 154.281 31.6057 154.061 32.5271C153.842 33.4485 151.117 33.2274 151.227 32.2507C151.318 31.2924 151.044 27.1828 152.086 26.114C153.129 25.0636 155.89 24.8793 155.89 24.8793C155.89 24.8793 156.878 22.889 156.677 20.9356C156.347 17.8028 157.189 16.7155 158.14 16.3654C159.091 16.0152 159.767 16.0889 160.883 16.4022" fill="#231815"/>
<path d="M160.349 19.5169C160.806 21.1754 159.38 21.7283 157.35 22.5023C155.192 23.3316 153.729 23.608 152.613 22.6681C151.369 21.6177 150.181 19.867 150.345 19.2957C150.51 18.6876 151.717 17.9136 152.174 18.19C153.089 18.7245 154.186 20.4199 154.186 20.4199C154.186 20.4199 155.704 19.8117 157.35 18.8903C158.136 18.448 159.874 17.8215 160.349 19.5169Z" fill="#F08300"/>
<path d="M152.008 16.126L153.087 17.6371L152.795 17.803H152.301V18.1347L148.899 20.6041V21.0464L147.857 21.7835L146.339 19.9038L147.601 18.9824H148.039L151.167 16.9368L151.551 16.9737L151.77 16.4024L152.008 16.126Z" fill="#231815"/>
<path d="M157.586 24.7122C157.586 24.7122 153.362 24.1778 152.228 24.7859C151.094 25.3941 148.241 27.0342 148.241 27.7713C148.241 28.5085 149.338 29.8353 150.015 29.6879C150.673 29.522 153.435 27.3291 153.435 27.3291C153.435 27.3291 156.178 28.1952 158.172 28.3426C160.165 28.5085 161.39 25.1361 157.605 24.7122" fill="#231815"/>
<path d="M153.269 4.21875H164.352C165.102 4.21875 165.687 4.80846 165.687 5.56402V15.6259C165.687 16.3815 165.102 16.9712 164.352 16.9712H153.269C152.866 16.9712 152.592 16.6395 152.592 16.3078V14.8335C152.592 14.5202 152.866 14.1701 153.269 14.1701H159.414V11.5533H153.269C152.866 11.5533 152.592 11.2768 152.592 10.8714V4.9006C152.592 4.49518 152.866 4.21875 153.269 4.21875ZM159.414 6.96458H154.019V8.789H159.414V6.96458Z" fill="#F08300"/>
<path d="M154.826 6.56151C154.826 7.46451 155.557 8.20164 156.453 8.20164C157.349 8.20164 158.081 7.46451 158.081 6.56151C158.081 5.65852 157.349 4.92139 156.453 4.92139C155.557 4.92139 154.826 5.65852 154.826 6.56151Z" fill="#F08300"/>
<path d="M227.549 49.3512L239.857 45.0205V48.6509L232.268 51.5994L231.884 56.5935L241.028 53.3501L242.07 70.12L224.897 80.8085L225.391 72.1471L237.955 65.7893L238.376 58.6207L226.946 63.0066L227.549 49.3512Z" stroke="#009D8F" stroke-width="0.137143" stroke-miterlimit="10"/>
<path d="M225.272 48.2076L237.581 43.877V47.5074L229.991 50.4559L229.588 55.45L238.751 52.2066L239.794 68.9764L222.62 79.6649L223.096 71.0036L235.679 64.6458L236.099 57.4771L224.669 61.8631L225.272 48.2076Z" fill="#009D8F"/>
</g>
<defs>
<clipPath id="clip0_499_1053">
<rect width="258" height="178" fill="white"/>
</clipPath>
</defs>
</svg>
