<svg width="268" height="97" viewBox="0 0 268 97" fill="none" xmlns="http://www.w3.org/2000/svg">
<path d="M202.451 86.2599L195.183 87.4099C194.125 82.1659 193.297 76.6919 193.113 71.4019L198.679 70.9419C198.863 75.5419 199.323 79.1299 199.599 82.1659L201.853 81.7979L202.451 86.2599ZM210.547 95.5059L205.211 94.6319C206.775 87.4099 208.063 80.2339 208.247 72.1839L214.365 72.5059C213.583 81.6599 212.295 89.4799 210.547 95.5059Z" fill="black"/>
<path d="M183.88 92.1939L178.912 95.7359L168.654 82.6259L178.314 69.3779L184.386 73.3799L176.612 82.9019L183.88 92.1939Z" fill="black"/>
<path d="M162.937 72.4138L159.487 72.7818L158.843 66.6638L162.523 66.3418L162.937 72.4138ZM158.337 72.8738L154.795 73.3798L153.737 67.3998L157.693 66.8478L158.337 72.8738ZM145.319 93.5738L144.307 88.3758C150.977 87.6398 154.335 85.2478 154.335 83.2238C154.335 81.6138 152.173 80.2338 147.803 80.2338C145.365 80.2338 142.191 80.6938 138.327 81.7518L137.085 75.9098C141.409 74.7138 145.135 74.2078 148.263 74.2078C156.865 74.2078 160.775 78.1178 160.775 82.4418C160.775 87.5478 155.255 93.2058 145.319 93.5738Z" fill="black"/>
<path d="M113.784 78.7621L102.192 78.8081L102.146 73.3341L113.738 73.2881L113.784 78.7621ZM110.886 95.9661L106.746 90.5381C113.416 86.1221 117.786 82.1661 123.352 75.1281L128.366 78.9461C123.076 86.0301 117.878 91.0441 110.886 95.9661Z" fill="#822586"/>
<path d="M79.0786 71.5861L92.9246 71.5401C92.1426 82.1201 91.0846 89.5261 89.9346 95.6901L83.9546 94.8621C84.3226 92.7001 84.6446 90.2621 84.9206 87.7781L79.1706 87.1801L79.9066 81.7061L85.4266 82.2121C85.5646 80.4641 85.7026 78.7161 85.7946 77.0141L78.5266 77.0601C77.9746 81.1081 77.2386 85.2481 76.4106 88.9281L70.4766 88.1001C71.2586 82.4421 71.9026 75.6341 72.2246 69.5161L79.2166 69.9301L79.0786 71.5861Z" fill="#822586"/>
<path d="M46.7161 78.7621L35.1241 78.8081L35.0781 73.3341L46.6701 73.2881L46.7161 78.7621ZM43.8181 95.9661L39.6781 90.5381C46.3481 86.1221 50.7181 82.1661 56.2841 75.1281L61.2981 78.9461C56.0081 86.0301 50.8101 91.0441 43.8181 95.9661Z" fill="#822586"/>
<path d="M24.5416 76.0941L4.34761 76.1401L4.25561 70.6661L24.4496 70.6201L24.5416 76.0941ZM15.1116 95.7361L11.5236 92.1941C14.8816 89.2041 16.8136 86.9501 18.5616 83.9601L2.69161 84.0061L2.59961 78.6241L25.8756 78.5781V85.8461C21.2296 90.9981 18.4236 93.3901 15.1116 95.7361Z" fill="#822586"/>
<path d="M259.71 59.206L249.544 61.46C248.072 55.664 246.738 45.912 246.186 37.54L252.672 36.896C253.086 45.406 253.546 50.926 254.052 54.882L258.606 53.824L259.71 59.206ZM239.194 61.644L233.352 60.586C235.054 53.088 236.112 45.176 236.618 36.942L243.38 37.448C242.92 45.82 241.172 55.342 239.194 61.644Z" fill="#822586"/>
<path d="M224.08 39.5178L224.172 44.9918H215.524C214.788 50.9718 213.592 57.0898 212.442 61.6898L206.554 60.6778C207.52 56.3998 208.164 50.6038 208.532 45.0378H200.022L199.93 39.5638H208.808C208.9 38.1838 208.946 36.8958 208.946 35.6538L216.352 35.8378C216.306 37.0338 216.214 38.2758 216.122 39.5178H224.08Z" fill="#822586"/>
<path d="M190.72 38.322L187.27 38.69L186.626 32.572L190.306 32.25L190.72 38.322ZM186.12 38.782L182.578 39.288L181.52 33.308L185.476 32.756L186.12 38.782ZM174.62 43.244L163.948 43.29L163.902 37.816L174.574 37.77L174.62 43.244ZM172.642 61.966L168.778 56.952C175.494 52.49 179.772 48.764 185.108 41.726L189.662 45.084C184.556 52.352 179.726 56.998 172.642 61.966ZM173.7 50.466L163.948 50.512L163.902 45.038L173.654 44.992L173.7 50.466Z" fill="#822586"/>
<path d="M140.277 51.6622H134.389V37.2642H140.277V51.6622ZM147.959 61.7822L144.095 59.2062C147.177 54.7442 148.833 50.0522 148.833 44.5322V37.2642H154.721V46.3722C154.721 52.0302 152.559 56.9982 147.959 61.7822Z" fill="#822586"/>
<path d="M125.117 38.5978L125.209 44.0718H120.103V61.2298H114.215V50.7418C111.777 54.7438 109.201 57.6878 106.027 60.7238L101.519 57.5958C105.107 53.2718 107.499 49.8218 110.397 44.1178H101.059L100.967 38.6438L114.215 38.5978V35.8838H120.103V38.5978H125.117Z" fill="#822586"/>
<path d="M89.5092 38.8279L89.4172 44.0719L78.0092 44.1179L75.7552 58.0099L70.3272 56.9979L72.1212 44.1639H68.5332V38.7819H72.9032L73.3632 35.3779L79.2972 35.9759L78.8372 38.7819L89.5092 38.8279ZM92.6832 46.9699L91.9012 53.8699H87.1172L87.4392 51.6619L79.8492 51.7079L79.7572 47.0619L92.6832 46.9699ZM85.0932 56.2159C87.2552 56.2159 89.5092 56.0319 90.9812 55.6179L92.3152 60.1259C90.2912 60.9999 87.7612 61.4139 85.3232 61.4139C83.0232 61.4139 80.7692 61.0459 79.1592 60.3099L79.8952 55.7099C81.1372 56.0779 83.0692 56.2159 85.0932 56.2159Z" fill="black"/>
<path d="M46.8511 59.5742L46.0231 55.2502C51.5891 54.6522 54.3491 52.6282 54.3491 50.9722C54.3491 49.6382 52.5551 48.4882 48.9211 48.4882C46.8971 48.4882 44.2291 48.8562 41.0091 49.7302L39.9971 44.8542C43.5851 43.8882 46.7131 43.4282 49.2891 43.4282C56.4651 43.4282 59.7311 46.6942 59.7311 50.3282C59.7311 54.5602 55.1311 59.2982 46.8511 59.5742Z" fill="black"/>
<path d="M32.7491 34.6361V40.3691H28.6151C28.4981 41.2661 28.3421 42.1241 28.1861 43.0211H32.7101L32.3201 52.8491H26.2751C26.0021 54.0581 25.6901 55.2281 25.4171 56.3981C27.4841 56.8661 29.5511 57.2951 31.6571 57.6461L29.2391 62.4821C27.5621 62.0921 25.8461 61.6241 24.1691 61.0001L23.5841 62.8331L19.0601 62.1701C19.3331 61.1951 19.5671 60.1811 19.8011 59.1671C18.9041 58.7771 18.0461 58.3091 17.1491 57.8411L18.1241 54.3701C18.9821 54.6431 19.8011 54.9161 20.6591 55.1501C20.7761 54.3701 20.9321 53.6291 21.0491 52.8491H17.0321L16.6421 43.0211H22.4531L22.7651 40.3691H16.2131V34.6361H23.3501L23.5841 32.1011L29.8241 32.6471C29.7461 33.3101 29.6291 33.9731 29.5121 34.6361H32.7491ZM8.84212 34.7531L13.8341 38.1851C12.8201 39.9401 11.5331 41.9681 10.1291 43.9961L12.4301 43.9181V59.5181L7.16512 59.5961L6.93112 48.6761L5.72212 50.3531L1.12012 47.1551C2.91412 44.6981 7.16512 38.0291 8.84212 34.7531ZM20.1131 46.4921V49.3391H21.6341L22.0241 46.4921H20.1131ZM28.8101 49.3391V46.4921H27.5621C27.3671 47.4671 27.2111 48.4031 27.0161 49.3391H28.8101Z" fill="black"/>
<path d="M154.8 7.06106L154.668 10.8231L146.022 10.8561L145.758 12.1101C147.408 11.9781 148.596 12.4401 149.388 13.2981C150.576 13.0011 151.929 12.7701 153.447 12.6051L153.612 16.3011C152.49 16.4001 151.5 16.4991 150.642 16.6641V17.1921C150.642 17.7201 150.609 18.2811 150.51 18.8421L147.012 18.7431C147.111 18.3471 147.177 17.9841 147.177 17.6211V17.5551C146.055 18.0501 145.56 18.5451 145.56 18.9741C145.56 19.4031 146.088 19.7001 146.913 19.7991C147.276 19.8321 147.639 19.8651 148.002 19.8651C149.553 19.8651 151.17 19.5681 152.754 19.2381L153.216 22.6371C151.269 23.0991 150.081 23.3301 148.233 23.3301C147.903 23.3301 147.54 23.2971 147.177 23.2971C143.91 23.1651 141.534 21.2511 141.534 19.0731C141.534 17.8191 142.293 16.4661 144.141 15.3111C143.844 15.2781 143.514 15.2781 143.184 15.2781C142.656 15.2781 142.062 15.3111 141.402 15.3771L142.326 10.8561H139.554V6.99506H143.118L143.58 4.68506L147.243 5.14706L146.847 7.02806L154.8 7.06106Z" fill="black"/>
<path d="M132.939 21.713L125.646 23.33C124.59 19.172 123.633 12.176 123.237 6.17001L127.89 5.70801C128.187 11.813 128.517 15.773 128.88 18.611L132.147 17.852L132.939 21.713ZM118.221 23.462L114.03 22.703C115.251 17.324 116.01 11.648 116.373 5.74101L121.224 6.10401C120.894 12.11 119.64 18.941 118.221 23.462Z" fill="black"/>
<path d="M99.7562 4.98193V12.0109C102.495 12.3739 105.069 12.6379 107.445 12.8029L107.247 16.6639C106.554 16.6969 105.861 16.6969 105.168 16.6969C103.353 16.6969 101.571 16.6309 99.7562 16.4659V23.1649H95.5322V4.98193H99.7562Z" fill="black"/>
<path d="M88.6468 1.18701L88.9438 5.54301L86.4688 5.80701L86.0068 1.41801L88.6468 1.18701ZM85.1818 1.55001L85.6438 5.87301L83.1028 6.23601L82.3438 1.94601L85.1818 1.55001ZM87.8218 6.92901L87.8878 10.856H81.2878V23.165H77.0638V10.889H70.5628L70.4968 6.96201H77.0638V4.98201H81.2878V6.92901H87.8218ZM74.0938 22.472L70.2988 21.515C71.2888 18.314 71.7838 16.235 72.1468 13.166L76.4698 13.496C76.0408 16.928 75.4138 19.172 74.0938 22.472ZM82.1788 13.529L85.6768 13.166C86.4028 16.169 87.0298 18.347 88.1848 21.416L83.9608 22.472C82.8718 18.974 82.5088 16.928 82.1788 13.529Z" fill="black"/>
<path d="M56.0248 4.98193V12.0109C58.7638 12.3739 61.3378 12.6379 63.7138 12.8029L63.5158 16.6639C62.8228 16.6969 62.1298 16.6969 61.4368 16.6969C59.6218 16.6969 57.8398 16.6309 56.0248 16.4659V23.1649H51.8008V4.98193H56.0248Z" fill="black"/>
<path d="M39.0115 15.7072L35.5795 15.8722L35.0845 8.24919L38.6485 8.11719L39.0115 15.7072ZM34.6225 16.0042L31.2235 16.2022L30.5635 8.44719L34.1605 8.31519L34.6225 16.0042ZM41.2885 23.4292L38.1205 22.6372C39.5065 18.1162 40.3315 14.4862 41.0905 9.17319L45.2155 9.89919C44.1265 15.1792 42.9715 19.4032 41.2885 23.4292Z" fill="black"/>
<path d="M19.8328 11.714C18.2818 11.714 17.0938 10.526 17.0938 8.97504C17.0938 7.45704 18.2818 6.26904 19.8328 6.26904C21.3508 6.26904 22.5388 7.45704 22.5388 8.97504C22.5388 10.526 21.3508 11.714 19.8328 11.714ZM23.9578 17.027L20.3938 21.152C16.9288 18.842 14.1238 16.532 11.2858 13.661L6.5998 19.172L3.2998 16.301L10.7578 8.18304C15.0148 11.582 19.4368 14.519 23.9578 17.027ZM19.8328 9.80004C20.2288 9.80004 20.5918 9.43704 20.5918 9.00804C20.5918 8.61204 20.2288 8.24904 19.8328 8.24904C19.3708 8.24904 19.0078 8.61204 19.0078 9.00804C19.0078 9.43704 19.3708 9.80004 19.8328 9.80004Z" fill="black"/>
</svg>
