<svg width="268" height="71" viewBox="0 0 268 71" fill="none" xmlns="http://www.w3.org/2000/svg">
<path d="M217.852 68.5062C214.218 68.5062 211.412 66.7122 211.412 63.4922C211.412 60.5482 214.356 58.7542 217.208 58.7542C219.738 58.7542 222.222 60.1802 222.406 63.4922C223.832 63.2162 224.614 62.1582 224.614 61.0542C224.614 59.3982 222.958 57.5582 219.278 57.5582C216.932 57.5582 213.712 58.3402 209.526 60.4562L207.824 56.5462L219.738 49.6002L209.48 49.6922L209.388 44.7702L228.294 44.6782L228.156 50.5202L221.624 53.7862C221.946 53.7402 222.222 53.7402 222.498 53.7402C227.282 53.7402 230.088 56.9142 230.088 60.3642C230.088 64.2742 226.408 68.5062 217.852 68.5062ZM217.024 64.5502C217.53 64.5502 217.99 64.0902 217.99 63.5382C217.99 63.0322 217.53 62.5722 217.024 62.5722C216.472 62.5722 216.012 63.0322 216.012 63.5382C216.012 64.0902 216.472 64.5502 217.024 64.5502Z" fill="black"/>
<path d="M183 42.3779L194.27 43.8499L193.442 48.2659L182.54 47.3459L183 42.3779ZM194.546 61.3759L199.1 63.5839C196.984 66.8499 194.546 68.3679 191.878 68.3679C189.9 68.3679 187.83 67.5399 185.76 65.9299L182.632 68.6439L178.814 65.3779L190.314 54.8439L178.63 54.9819L178.4 50.0139H197.536L197.398 55.8099L189.67 62.5259C190.36 63.0779 190.958 63.3539 191.556 63.3539C192.476 63.3539 193.396 62.7099 194.546 61.3759Z" fill="black"/>
<path d="M170.134 36.9041V43.6661H165.258C165.12 44.7241 164.936 45.7361 164.752 46.7941H170.088L169.628 58.3861H162.498C162.176 59.8121 161.808 61.1921 161.486 62.5721C163.924 63.1241 166.362 63.6301 168.846 64.0441L165.994 69.7481C164.016 69.2881 161.992 68.7361 160.014 68.0001L159.324 70.1621L153.988 69.3801C154.31 68.2301 154.586 67.0341 154.862 65.8381C153.804 65.3781 152.792 64.8261 151.734 64.2741L152.884 60.1801C153.896 60.5021 154.862 60.8241 155.874 61.1001C156.012 60.1801 156.196 59.3061 156.334 58.3861H151.596L151.136 46.7941H157.99L158.358 43.6661H150.63V36.9041H159.048L159.324 33.9141L166.684 34.5581C166.592 35.3401 166.454 36.1221 166.316 36.9041H170.134ZM141.936 37.0421L147.824 41.0901C146.628 43.1601 145.11 45.5521 143.454 47.9441L146.168 47.8521V66.2521L139.958 66.3441L139.682 53.4641L138.256 55.4421L132.828 51.6701C134.944 48.7721 139.958 40.9061 141.936 37.0421ZM155.23 50.8881V54.2461H157.024L157.484 50.8881H155.23ZM165.488 54.2461V50.8881H164.016C163.786 52.0381 163.602 53.1421 163.372 54.2461H165.488Z" fill="black"/>
<path d="M122.625 51.5319L122.671 56.5459H116.185C116.185 57.0059 116.185 57.4659 116.231 57.8799C118.117 57.9719 120.325 58.1559 121.659 58.4319L120.923 63.1239C119.727 62.7559 117.427 62.5719 116.047 62.6179C115.587 66.0679 113.977 68.5059 110.251 68.5059C105.651 68.5059 103.443 65.8379 103.443 63.1699C103.443 60.5019 105.605 57.8799 109.883 57.8339C109.883 57.4199 109.929 57.0059 109.929 56.5919H102.707L102.661 51.5779H109.837C109.837 51.0719 109.791 50.5659 109.791 50.1059H100.867L100.775 45.0919H109.469C109.469 44.4479 109.423 43.8039 109.377 43.1139L115.403 42.6079C115.449 43.4819 115.495 44.2639 115.587 45.0459H124.465L124.557 50.0599H115.909C115.909 50.5659 115.955 51.0719 115.955 51.5319H122.625ZM109.883 64.3659C110.527 64.3659 111.079 63.8139 111.079 63.1699C111.079 62.5259 110.527 61.9739 109.883 61.9739C109.239 61.9739 108.687 62.5259 108.687 63.1699C108.687 63.8139 109.239 64.3659 109.883 64.3659Z" fill="#FF9500"/>
<path d="M89.6527 51.5319L89.6987 56.5459H83.2127C83.2127 57.0059 83.2127 57.4659 83.2587 57.8799C85.1447 57.9719 87.3527 58.1559 88.6867 58.4319L87.9507 63.1239C86.7547 62.7559 84.4547 62.5719 83.0747 62.6179C82.6147 66.0679 81.0047 68.5059 77.2787 68.5059C72.6787 68.5059 70.4707 65.8379 70.4707 63.1699C70.4707 60.5019 72.6327 57.8799 76.9107 57.8339C76.9107 57.4199 76.9567 57.0059 76.9567 56.5919H69.7347L69.6887 51.5779H76.8647C76.8647 51.0719 76.8187 50.5659 76.8187 50.1059H67.8947L67.8027 45.0919H76.4967C76.4967 44.4479 76.4507 43.8039 76.4047 43.1139L82.4307 42.6079C82.4767 43.4819 82.5227 44.2639 82.6147 45.0459H91.4927L91.5847 50.0599H82.9367C82.9367 50.5659 82.9827 51.0719 82.9827 51.5319H89.6527ZM76.9107 64.3659C77.5547 64.3659 78.1067 63.8139 78.1067 63.1699C78.1067 62.5259 77.5547 61.9739 76.9107 61.9739C76.2667 61.9739 75.7147 62.5259 75.7147 63.1699C75.7147 63.8139 76.2667 64.3659 76.9107 64.3659Z" fill="#FF9500"/>
<path d="M46.4052 45C54.5472 45 58.5952 49.554 58.5952 55.35C58.5952 59.49 56.5712 64.182 52.5692 68.322L48.1072 65.516C50.8672 62.204 52.5692 58.662 52.5692 55.856C52.5692 53.51 51.3732 51.67 48.6132 50.888C48.3832 58.524 46.9112 65.148 39.7352 64.596C35.5492 64.274 33.1572 60.456 33.1572 56.316C33.1572 50.98 37.1132 45 46.4052 45ZM40.3792 59.398C42.4952 59.398 42.8632 55.764 43.0472 50.796C39.6892 51.624 38.4012 54.246 38.4012 56.408C38.4012 58.064 39.1832 59.398 40.3792 59.398Z" fill="#FF9500"/>
<path d="M5.61361 42.4702L10.6276 48.1742L6.44161 51.6702L1.51961 45.5522L5.61361 42.4702ZM24.3816 58.4322H18.4936C17.3896 59.3522 16.8376 60.6862 16.8376 62.1122C16.8376 63.5382 17.4816 65.0562 18.8156 66.1142L14.3076 68.8282C12.0536 67.1722 10.8576 64.8722 10.8576 62.4342C10.8576 61.1462 11.1796 59.7662 11.9156 58.4782H0.69161L0.599609 53.4642H9.75361L16.6536 42.5622L21.7596 45.1842L16.3776 53.4182H24.4276L24.3816 58.4322Z" fill="#FF9500"/>
<path d="M138.08 26.5378C139.552 26.5378 141.208 25.2498 142.036 22.5358L147.004 24.4218C145.026 29.1598 142.772 31.3678 137.712 31.3678C131.87 31.3678 128.696 26.9058 129.064 21.0178L129.11 20.6038H125.752L125.706 15.5898H129.432L129.57 13.1058H123.912L123.82 8.09179H129.892L130.03 5.88379L136.148 6.20579L136.01 8.04579H147.51L147.602 13.0598L135.688 13.1058L135.55 15.5898L145.67 15.5438L145.716 20.5578L135.228 20.6038L135.136 21.8458C134.952 24.8818 136.424 26.5378 138.08 26.5378Z" fill="black"/>
<path d="M117.553 6.25217L114.103 6.62018L113.459 0.502174L117.139 0.180176L117.553 6.25217ZM112.953 6.71218L109.411 7.21817L108.353 1.23818L112.309 0.686174L112.953 6.71218ZM110.607 27.3662L105.685 31.1382C102.511 29.0222 100.211 26.0322 100.211 22.5822C100.211 19.9142 101.637 16.9702 105.225 14.0722L93.1729 14.1642V8.78218L114.149 8.82818V15.4982C108.721 17.7062 106.651 20.0982 106.651 22.2602C106.651 24.1462 108.261 25.9402 110.607 27.3662Z" fill="black"/>
<path d="M73.1722 13.8421L72.9422 17.1541C78.9222 17.9821 81.4522 20.9721 81.4522 24.0081C81.4522 27.7341 77.6802 31.5061 71.7002 31.5061C70.4582 31.5061 69.1702 31.3221 67.7902 31.0001L68.1122 26.9061C69.0322 27.0441 69.8602 27.1361 70.6422 27.1361C74.0922 27.1361 76.0702 25.8021 76.0702 24.4221C76.0702 22.8581 73.4942 21.2481 67.5602 21.4781L67.8362 13.8881H60.7522L60.6602 8.87411H68.0202L68.1582 5.51611L73.7702 5.83811L73.5402 8.82811H84.3502L84.4422 13.8421H73.1722Z" fill="#FF9500"/>
<path d="M50.1855 7.21793L49.1275 12.1399L37.0295 10.5759L37.7195 5.37793L50.1855 7.21793ZM45.0795 31.4139L40.2955 28.4239C43.2395 25.2499 44.9415 22.5819 44.9415 20.7879C44.9415 19.2239 43.6075 18.3039 40.6635 18.3039C39.3295 18.3039 37.6275 18.4879 35.5575 18.9019L34.7295 13.7499C37.1675 13.2899 39.3295 13.0599 41.2155 13.0599C48.2995 13.0599 51.4735 16.0499 51.4735 20.0979C51.4735 23.5019 49.1735 27.6879 45.0795 31.4139Z" fill="#FF9500"/>
<path d="M13.8941 14.1182L13.8481 15.3142C18.7241 16.0042 22.4501 18.8562 22.4501 23.5022C22.4501 25.8022 21.4841 28.5622 19.3221 31.6902L14.6301 29.4822C16.1021 27.3662 16.7921 25.5722 16.7921 24.0542C16.7921 22.2142 15.6881 20.9262 13.6181 20.4202L13.1581 30.2182C11.4101 30.6782 9.84612 30.9082 8.42012 30.9082C2.99212 30.9082 0.370117 27.6422 0.370117 24.0542C0.370117 20.4662 3.03812 16.5562 8.23612 15.4522V14.1642H0.876117V8.78218L8.28212 8.82818V5.93018L14.2621 6.11418L14.1241 8.82818L19.1381 8.87418L18.9541 14.1182H13.8941ZM20.7021 16.1882L21.6221 8.46018L26.9121 9.15018L25.6701 16.7862L20.7021 16.1882ZM5.38412 23.8702C5.38412 25.1122 6.35012 26.1702 8.14412 26.0782L8.19012 20.6502C6.25812 21.3402 5.38412 22.7202 5.38412 23.8702Z" fill="#FF9500"/>
</svg>
