<svg width="268" height="77" viewBox="0 0 268 77" fill="none" xmlns="http://www.w3.org/2000/svg">
<g clip-path="url(#clip0_545_3732)">
<path d="M170.639 76.5057C167.005 76.5057 164.199 74.7117 164.199 71.4917C164.199 68.5477 167.143 66.7537 169.995 66.7537C172.525 66.7537 175.009 68.1797 175.193 71.4917C176.619 71.2157 177.401 70.1577 177.401 69.0537C177.401 67.3977 175.745 65.5577 172.065 65.5577C169.719 65.5577 166.499 66.3397 162.313 68.4557L160.611 64.5457L172.525 57.5997L162.267 57.6917L162.175 52.7697L181.081 52.6777L180.943 58.5197L174.411 61.7857C174.733 61.7397 175.009 61.7397 175.285 61.7397C180.069 61.7397 182.875 64.9137 182.875 68.3637C182.875 72.2737 179.195 76.5057 170.639 76.5057ZM169.811 72.5497C170.317 72.5497 170.777 72.0897 170.777 71.5377C170.777 71.0317 170.317 70.5717 169.811 70.5717C169.259 70.5717 168.799 71.0317 168.799 71.5377C168.799 72.0897 169.259 72.5497 169.811 72.5497Z" fill="black"/>
<path d="M154.994 58.3357L151.544 58.7037L150.9 52.5857L154.58 52.2637L154.994 58.3357ZM150.394 58.7957L146.852 59.3017L145.794 53.3217L149.75 52.7697L150.394 58.7957ZM154.626 67.0757L150.716 72.1817L139.538 64.2697L133.19 71.0777L127.762 66.6617L137.882 55.6677L154.626 67.0757Z" fill="black"/>
<path d="M120.596 44.1679L119.354 47.8939H122.712V58.6119L115.26 58.5659V53.7359L96.2623 53.7819V59.1639H89.3623V47.8939H92.3983L91.2943 44.6739L98.0103 43.0639L99.3443 47.8939H103.392L102.702 43.7539L109.418 42.4199L110.154 47.8939H112.96L113.604 42.9259L120.596 44.1679ZM113.512 55.9439V60.5439L111.902 63.4879H119.63V68.6399H110.292V69.2379C110.292 72.0899 109.97 74.8499 109.326 77.5639L99.1603 76.7819L99.6203 72.0899L103.07 72.3199C103.254 71.2619 103.346 69.9739 103.346 68.6399H92.9503L92.9043 63.4879H103.852L105.232 60.4979H98.4243V55.9899L113.512 55.9439Z" fill="black"/>
<path d="M83.349 73.1939L78.3811 76.7359L68.123 63.6259L77.7831 50.3779L83.855 54.3799L76.081 63.9019L83.349 73.1939Z" fill="black"/>
<path d="M52.8007 76.5058C46.5447 76.5058 42.3587 71.6298 42.8187 65.7418L43.8767 51.9878L49.9947 52.5398L48.8447 66.7998C48.6147 69.6058 50.3627 71.0778 52.3407 71.0778C54.3647 71.0778 56.6187 69.6518 57.5387 66.7998L63.0587 69.0538C60.9427 73.3318 57.3087 76.5058 52.8007 76.5058Z" fill="black"/>
<path d="M20.6097 46.2375H25.3017V61.0035H11.1797V46.2375H14.2617L15.4117 42.3735L21.7597 43.5235L20.6097 46.2375ZM10.3977 47.4795L9.10969 52.5855C6.11969 51.7575 3.12969 51.1595 0.139688 50.6995L1.74969 45.1795C4.64769 45.7775 7.49969 46.5135 10.3977 47.4795ZM34.7317 45.1795L36.3417 50.6995C33.5357 51.4815 30.6377 52.1255 27.3717 52.5855L26.0837 47.4795C29.1657 46.8815 32.0177 46.1455 34.7317 45.1795ZM16.7457 52.0335H19.5977V50.6535H16.7457V52.0335ZM8.78769 54.7015L9.98369 59.8995C7.26969 60.8195 4.50969 61.6475 1.70369 62.3835L-0.320312 56.3575C2.76169 55.9435 5.79769 55.3915 8.78769 54.7015ZM26.4977 59.8995L27.6937 54.7015C30.9137 55.2075 33.9497 55.6675 36.8017 56.3575L34.7777 62.3835C32.0637 61.4635 29.3037 60.6815 26.4977 59.8995ZM16.7457 56.4035H19.5977V54.9315H16.7457V56.4035ZM14.9977 62.0615H21.1617V63.3035H34.1797V68.5015H28.1997C30.1317 69.6975 32.1557 70.7555 34.1797 71.7675L29.5337 76.2755C26.6817 74.6655 23.9217 72.6415 21.1617 70.2955V76.7815H14.9977V70.9855C11.6857 72.9175 8.14369 74.7115 4.37169 76.4135L1.93369 72.9635C4.41769 71.5835 6.62569 70.0655 8.74169 68.5015H2.48569V63.3035H14.9977V62.0615Z" fill="black"/>
<path d="M223.461 12.7817L223.277 18.0257L211.225 18.0717L210.857 19.8197C213.157 19.6357 214.813 20.2797 215.917 21.4757C217.573 21.0617 219.459 20.7397 221.575 20.5097L221.805 25.6617C220.241 25.7997 218.861 25.9377 217.665 26.1677V26.9037C217.665 27.6397 217.619 28.4217 217.481 29.2037L212.605 29.0657C212.743 28.5137 212.835 28.0077 212.835 27.5017V27.4097C211.271 28.0997 210.581 28.7897 210.581 29.3877C210.581 29.9857 211.317 30.3997 212.467 30.5377C212.973 30.5837 213.479 30.6297 213.985 30.6297C216.147 30.6297 218.401 30.2157 220.609 29.7557L221.253 34.4937C218.539 35.1377 216.883 35.4597 214.307 35.4597C213.847 35.4597 213.341 35.4137 212.835 35.4137C208.281 35.2297 204.969 32.5617 204.969 29.5257C204.969 27.7777 206.027 25.8917 208.603 24.2817C208.189 24.2357 207.729 24.2357 207.269 24.2357C206.533 24.2357 205.705 24.2817 204.785 24.3737L206.073 18.0717H202.209V12.6897H207.177L207.821 9.46973L212.927 10.1137L212.375 12.7357L223.461 12.7817Z" fill="black"/>
<path d="M196.213 0.959961V5.09996H183.195V6.70996H195.845L195.523 19.728L187.749 19.406L187.841 18.302C186.231 18.072 184.529 17.888 182.873 17.704L183.333 14.99C185.173 15.174 187.151 15.542 188.807 15.864L188.669 16.6L189.819 16.646L189.911 10.344L182.137 10.298V18.624H177.031V10.298L169.533 10.252L169.303 19.452L163.139 19.59L162.771 6.70996H175.697V5.09996H162.127V0.959961H196.213ZM170.223 13.518L170.683 10.85C172.523 11.034 174.501 11.356 176.157 11.724L175.605 14.162C173.903 13.932 172.017 13.702 170.223 13.518ZM188.623 11.724L188.071 14.162C186.415 13.886 184.529 13.656 182.689 13.518L183.149 10.85C184.989 11.034 186.967 11.356 188.623 11.724ZM170.407 17.704L170.867 14.99C172.707 15.174 174.685 15.542 176.341 15.864L175.789 18.348C174.087 18.118 172.201 17.888 170.407 17.704ZM176.249 30.584H166.267L165.715 20.418H193.085L192.533 30.584H182.229V33.206H185.035L185.081 31.504L190.095 31.734L189.911 36.38L181.309 37.024C180.987 37.07 180.711 37.07 180.435 37.07C176.709 37.07 176.479 34.218 176.387 33.114C176.295 32.148 176.295 31.412 176.249 30.584ZM176.203 23.592H172.569V24.558H176.203V23.592ZM186.139 23.592H182.505V24.558H186.139V23.592ZM176.203 26.628H172.569V27.594H176.203V26.628ZM186.139 26.628H182.505V27.594H186.139V26.628Z" fill="#ED6D46"/>
<path d="M153.212 8.41181L157.076 11.3558L152.43 16.1398C153.58 17.0598 154.776 17.9338 156.018 18.8538L151.602 23.2698C149.486 21.7058 147.462 20.0498 145.53 18.2558V21.7518H142.586L142.54 23.7758H146.726V28.6518H142.494V31.1818H143.782V29.5258H147.554V34.9078L142.402 35.4138C142.172 35.4598 141.942 35.4598 141.758 35.4598C138.262 35.4598 138.032 32.2858 138.032 28.8358V28.6518H135.364C134.858 31.1358 134.26 33.4818 133.57 35.6898L128.924 35.0458C129.43 33.0218 129.844 30.8598 130.166 28.6518H127.82V23.7758H130.718L130.856 21.7518H129.43V18.8538C127.636 20.4638 125.75 21.9818 123.726 23.4538L120.506 19.7738C121.978 18.5318 123.358 17.3358 124.646 16.1398L121.15 12.7358L124.186 9.42381L127.682 13.0578C128.97 11.6318 130.258 10.1138 131.5 8.3658H119.954V2.7998L138.768 2.89181V9.37781C136.468 11.9538 134.168 14.4378 131.684 16.7838H144.012C142.08 14.8518 140.24 12.7818 138.584 10.5738L141.85 6.70981L143.322 8.13581L147.186 3.4898L151.602 6.84781L147.094 11.6318C147.738 12.2298 148.428 12.8278 149.072 13.3798L153.212 8.41181ZM136.146 23.7758H138.032V21.7518H136.422L136.146 23.7758Z" fill="#ED6D46"/>
<path d="M94.3362 1.7876H102.018V15.6336H114.668V22.3036H106.158L106.112 29.5256H107.768L108.182 26.7196L113.426 27.1336L112.598 35.3676C110.712 35.7356 109.01 35.9196 107.538 35.9196C101.466 35.9196 98.7982 32.9296 98.5222 28.3756L98.3382 22.3036H95.9002C95.0262 26.8116 93.6922 31.5956 91.8062 35.9656L84.6302 34.4936C85.6882 30.6296 86.4702 26.4436 87.0682 22.3036H82.1462V15.6336H94.3362V1.7876ZM92.1282 12.4136L85.9642 14.2536C84.7222 11.1256 83.3882 7.9516 81.8242 4.7316L89.1382 2.2476C90.5182 5.5136 91.4382 8.8716 92.1282 12.4136ZM107.584 2.2476L114.898 4.7316C113.748 8.0436 112.368 11.1716 110.758 14.2536L104.594 12.4136C105.882 9.0556 106.802 5.6976 107.584 2.2476Z" fill="#ED6D46"/>
<path d="M54.5532 0.131836H74.1492V13.1958H54.5532V0.131836ZM59.2912 5.55983H68.7212V3.99584H59.2912V5.55983ZM52.5752 4.17984V9.19384L51.5172 13.9318C52.3452 15.4958 52.8052 17.4278 52.8052 19.2678C52.8052 23.4078 50.6432 27.4098 45.8592 27.0418L46.2272 21.7978C47.3312 22.0278 48.0212 20.9698 48.0212 19.5438C48.0212 18.3018 47.5152 16.7378 46.2732 15.4958L47.2392 10.0218L44.8012 9.97583V34.9998H39.9252L39.7412 4.17984H52.5752ZM59.3372 9.74584H68.7212V8.18184H59.3372V9.74584ZM76.7712 15.3118V20.8778H61.1772L60.7632 22.6258H75.6672C75.5752 27.1798 75.1612 32.6998 74.2872 36.4718L68.7672 35.6898L69.5492 31.5038L71.1592 31.6418L71.4812 26.8118H69.3652C68.8132 29.9858 67.9852 33.0678 67.0192 36.0578L64.0292 35.5978C64.8572 32.6078 65.5012 29.7098 65.9612 26.8118H64.5812C63.8912 29.8938 63.0632 32.9298 62.1432 35.9658L59.0152 35.5058C59.8432 32.5618 60.4872 29.6638 61.0392 26.8118H59.6132C59.0152 28.9278 58.3712 30.9518 57.6352 32.9298L53.4952 32.0098C54.3692 28.3758 55.1052 24.6958 55.7032 20.8778H53.6332V15.3118H76.7712Z" fill="#ED6D46"/>
<path d="M33.2137 17.7036H25.5777C28.3837 22.5796 31.5577 27.1336 34.6857 30.5376L26.9117 35.9196C22.9557 31.1356 19.7357 25.1096 16.7457 18.0256C14.2157 24.0976 11.3637 29.9396 8.18969 35.5056L1.93369 32.9296C4.00369 27.9616 5.84369 22.8556 7.40769 17.7036H-0.320312V10.2056H9.52369C10.0757 7.99764 10.5817 5.78964 11.0417 3.53564L21.2997 6.11164C20.8397 7.49164 20.3337 8.87164 19.8277 10.2056H33.2137V17.7036ZM12.3757 31.4116L14.1697 26.5356C16.6537 26.7196 18.9077 27.2256 21.0697 27.9156L19.7357 33.3436C17.3897 32.5616 14.9517 31.9176 12.3757 31.4116Z" fill="#ED6D46"/>
</g>
<defs>
<clipPath id="clip0_545_3732">
<rect width="268" height="77" fill="white"/>
</clipPath>
</defs>
</svg>
