<svg width="268" height="62" viewBox="0 0 268 62" fill="none" xmlns="http://www.w3.org/2000/svg">
<g clip-path="url(#clip0_545_3649)">
<path d="M221.128 44.2562H218.92L218.506 46.4182H224.67V54.5142H221.22C221.91 56.3082 222.692 58.0562 223.612 59.8962L218.644 61.6442C217.54 59.2522 216.758 56.9062 216.298 54.5142C215.424 56.9982 214.366 59.3902 213.17 61.7362L208.892 60.5402C209.628 58.5622 210.272 56.5382 210.824 54.5142H207.282V46.4182H212.664C212.802 45.6822 212.894 44.9922 212.986 44.2562H210.778V41.4502C210.364 41.8182 209.95 42.1862 209.49 42.5542L205.028 38.8282C208.524 35.3322 211.836 31.3762 214.964 26.8682C218.322 30.2722 223.382 33.9982 227.154 36.7122L222.232 42.7382C221.864 42.5082 221.496 42.2322 221.128 41.9562V44.2562ZM204.476 45.0382H201.44V46.9702H206.04C205.902 52.9962 205.58 55.9402 204.89 61.5982L199.462 61.0002L199.83 57.2282L198.312 57.3202C198.266 56.3082 198.174 54.3302 198.036 53.3642L200.29 53.2262C200.474 54.2382 200.658 55.9402 200.704 56.9982L201.21 57.0442C201.486 54.5602 201.486 54.4682 201.486 51.9842H189.342V28.8922H205.902L205.718 34.2282H201.44V36.2522H204.476V39.6562H201.44V41.5882H204.476V45.0382ZM197.116 36.2522V34.2282H194.08V36.2522H197.116ZM215.01 37.0802C214.274 38.0002 213.446 38.8742 212.618 39.7022H218.138C217.034 38.8282 215.93 37.9542 215.01 37.0802ZM194.08 41.5882H197.116V39.6562H194.08V41.5882ZM197.116 45.0382H194.08V46.9702H197.116V45.0382ZM211.928 51.0182H213.63V49.7302H211.928V51.0182ZM219.702 51.0182V49.7302H218V51.0182H219.702ZM190.078 59.8042L187.778 59.4362C188.008 58.0562 188.33 56.0322 188.606 53.3182L191.136 53.6862C190.906 56.4462 190.446 58.4242 190.078 59.8042ZM194.862 53.5022L197.254 53.3642C197.438 55.5722 197.53 57.4582 197.53 58.6542L195.138 58.8382C195.138 57.5962 195.046 55.6642 194.862 53.5022ZM191.78 53.5942L194.08 53.4562C194.218 55.2502 194.264 57.9642 194.264 59.2062L191.826 59.3902C191.826 58.7002 191.872 57.6422 191.872 56.4462C191.872 55.5262 191.826 54.5602 191.78 53.5942Z" fill="black"/>
<path d="M182.258 51.2481L177.382 55.2501C176.094 53.8701 174.852 52.3061 173.656 50.5581V55.2501H176.14V59.4821H173.656V61.6441H167.262V59.4821H164.502V55.2501H167.262V50.1901C165.882 52.3061 164.41 54.3301 162.846 56.1701L158.108 54.0541C160.362 50.4201 162.386 46.2341 164.318 41.8181H160.868V35.4701H167.262V27.3281H173.656V35.4701H179.912V41.8181H173.656C176.6 45.9581 179.59 48.9941 182.258 51.2481ZM152.772 30.5021L158.66 34.5501C157.464 36.6201 155.946 39.0121 154.29 41.4041L157.004 41.3121V59.7121L150.794 59.8041L150.518 46.9241L149.092 48.9021L143.664 45.1301C145.78 42.2321 150.794 34.3661 152.772 30.5021Z" fill="black"/>
<path d="M125.305 52.2599L118.037 53.4099C116.979 48.1659 116.151 42.6919 115.967 37.4019L121.533 36.9419C121.717 41.5419 122.177 45.1299 122.453 48.1659L124.707 47.7979L125.305 52.2599ZM133.401 61.5059L128.065 60.6319C129.629 53.4099 130.917 46.2339 131.101 38.1839L137.219 38.5059C136.437 47.6599 135.149 55.4799 133.401 61.5059Z" fill="#ED6D46"/>
<path d="M108.574 58.1939L103.606 61.7359L93.3477 48.6259L103.008 35.3779L109.08 39.3799L101.306 48.9019L108.574 58.1939Z" fill="#ED6D46"/>
<path d="M89.4702 38.4138L86.0202 38.7818L85.3762 32.6638L89.0562 32.3418L89.4702 38.4138ZM84.8702 38.8738L81.3282 39.3798L80.2702 33.3998L84.2262 32.8478L84.8702 38.8738ZM71.8522 59.5738L70.8402 54.3758C77.5102 53.6398 80.8682 51.2478 80.8682 49.2238C80.8682 47.6138 78.7062 46.2338 74.3362 46.2338C71.8982 46.2338 68.7242 46.6938 64.8602 47.7518L63.6182 41.9098C67.9422 40.7138 71.6682 40.2078 74.7962 40.2078C83.3982 40.2078 87.3082 44.1178 87.3082 48.4418C87.3082 53.5478 81.7882 59.2058 71.8522 59.5738Z" fill="#ED6D46"/>
<path d="M44.5205 38C52.6625 38 56.7105 42.554 56.7105 48.35C56.7105 52.49 54.6865 57.182 50.6845 61.322L46.2225 58.516C48.9825 55.204 50.6845 51.662 50.6845 48.856C50.6845 46.51 49.4885 44.67 46.7285 43.888C46.4985 51.524 45.0265 58.148 37.8505 57.596C33.6645 57.274 31.2725 53.456 31.2725 49.316C31.2725 43.98 35.2285 38 44.5205 38ZM38.4945 52.398C40.6105 52.398 40.9785 48.764 41.1625 43.796C37.8045 44.624 36.5165 47.246 36.5165 49.408C36.5165 51.064 37.2985 52.398 38.4945 52.398Z" fill="#ED6D46"/>
<path d="M14.8596 56.5378C16.3316 56.5378 17.9876 55.2498 18.8156 52.5358L23.7836 54.4218C21.8056 59.1598 19.5516 61.3678 14.4916 61.3678C8.64961 61.3678 5.47561 56.9058 5.84361 51.0178L5.88961 50.6038H2.53161L2.48561 45.5898H6.21161L6.34961 43.1058H0.69161L0.599609 38.0918H6.67161L6.80961 35.8838L12.9276 36.2058L12.7896 38.0458H24.2896L24.3816 43.0598L12.4676 43.1058L12.3296 45.5898L22.4496 45.5438L22.4956 50.5578L12.0076 50.6038L11.9156 51.8458C11.7316 54.8818 13.2036 56.5378 14.8596 56.5378Z" fill="#ED6D46"/>
<path d="M78.9911 3.55193L78.8991 8.79593L70.8491 8.84193L68.5951 22.9179L63.2591 22.2739L65.1451 8.88793H61.7871V3.50593H65.8811L66.3411 0.37793L72.1371 0.97593L71.7231 3.55193H78.9911ZM85.7071 4.10393L87.6391 11.2799L82.9011 12.7979L80.8311 5.48393L85.7071 4.10393ZM75.7711 10.4979L80.8311 10.1759L81.1071 16.5239C82.5331 16.6619 83.8671 16.8919 85.4311 17.2599L84.6031 21.3999C83.2691 21.0779 82.3031 20.8939 81.2451 20.8019C81.0151 23.5159 79.5891 26.4599 75.6331 26.4599C72.0911 26.4599 70.1131 23.7459 70.1131 21.0779C70.1131 18.4559 71.9991 15.8799 76.1851 15.8799L75.7711 10.4979ZM75.6791 22.1819C76.2311 22.1819 76.7371 21.6759 76.7371 21.1239C76.7371 20.5719 76.2311 20.0659 75.6791 20.0659C75.1271 20.0659 74.6211 20.5719 74.6211 21.1239C74.6211 21.6759 75.1271 22.1819 75.6791 22.1819Z" fill="black"/>
<path d="M53.9856 24.6201L33.1016 24.6661L33.0096 19.3761L47.8676 19.3301V9.53211L32.2276 9.57811L32.1816 4.10411L54.4456 4.05811L53.9856 24.6201Z" fill="#ED6D46"/>
<path d="M15.7336 18.8701H24.7496L24.8416 24.1601L0.69161 24.2061L0.599609 18.9161H9.70761V9.11814H2.07161L2.02561 3.64414L23.3696 3.59814L23.4156 9.07214H15.7336V18.8701Z" fill="#ED6D46"/>
</g>
<defs>
<clipPath id="clip0_545_3649">
<rect width="268" height="62" fill="white"/>
</clipPath>
</defs>
</svg>
