<svg width="369" height="105" viewBox="0 0 369 105" fill="none" xmlns="http://www.w3.org/2000/svg">
<path d="M62.656 66.3472C59.6954 77.0204 56.7347 87.6936 53.7741 98.3668C52.0443 100.681 48.0357 101.531 39.4698 98.8997C26.1635 94.7703 12.9903 90.0081 0 84.6132C7.56796 80.95 21.0406 65.6812 28.7582 59.154C25.9473 51.3947 19.3607 33.9279 18.8949 25.1196C30.8041 30.0649 48.0357 29.5654 60.2443 33.3618L50.6471 62.8172" fill="#AB695B"/>
<path d="M62.656 66.3472C59.6954 77.0204 56.7347 87.6936 53.7741 98.3668C52.0443 100.681 48.0357 101.53 39.4698 98.8996C26.1635 94.7702 12.9903 90.0081 0 84.6132C7.56796 80.95 14.9696 77.087 22.1716 73.0575" fill="#AB695B"/>
<path d="M31.3359 81.749C31.4191 84.7461 33.6812 87.7766 42.2804 90.474C51.6114 93.338 53.5741 96.1353 53.4244 99.4655C53.5741 99.3156 53.7238 99.1491 53.8568 98.966C55.1376 94.3537 56.4183 89.758 57.699 85.1457C49.183 82.7813 40.7002 80.1338 32.3006 77.2366C31.785 78.7352 31.3027 80.2337 31.3526 81.7157L31.3359 81.749Z" fill="#B55741"/>
<path d="M31.3359 81.749C31.4191 84.7461 33.6812 87.7766 42.2804 90.474C51.6114 93.338 53.5741 96.1353 53.4244 99.4655C53.5741 99.3156 53.7238 99.1491 53.8568 98.966C55.1376 94.3537 56.4183 89.758 57.699 85.1457C49.183 82.7813 40.7002 80.1338 32.3006 77.2366C31.785 78.7352 31.3027 80.2337 31.3526 81.7157L31.3359 81.749Z" fill="#B55741"/>
<path d="M47.3696 7.31975C49.1992 4.95532 52.4925 3.93962 60.1769 6.354C105.784 20.5239 153.321 26.3351 200.508 23.7875C201.19 36.3589 201.872 90.8905 202.538 103.445C150.809 106.243 98.682 99.8487 48.6836 84.2801C48.6836 84.2801 48.6836 84.2801 48.6669 84.2801C40.4836 81.7159 33.1984 79.518 31.3355 81.7825C31.2856 80.3006 31.7846 78.802 32.2836 77.3034C35.3606 68.3785 42.3464 20.4073 45.4235 11.4825C45.9391 9.98389 46.4714 8.51861 47.3696 7.35305V7.31975Z" fill="#ED6D46"/>
<path d="M305.565 66.3472C308.525 77.0204 311.486 87.6936 314.447 98.3668C316.176 100.681 320.185 101.531 328.751 98.8997C342.057 94.7703 355.23 90.0081 368.221 84.6132C360.653 80.95 347.18 65.6812 339.462 59.154C342.273 51.3947 348.86 33.9279 349.326 25.1196C337.417 30.0649 320.185 29.5654 307.976 33.3618L317.574 62.8172" fill="#AB695B"/>
<path d="M305.565 66.3472C308.525 77.0204 311.486 87.6936 314.447 98.3668C316.176 100.681 320.185 101.53 328.751 98.8996C342.057 94.7702 355.23 90.0081 368.221 84.6132C360.653 80.95 353.251 77.087 346.049 73.0575" fill="#AB695B"/>
<path d="M336.885 81.749C336.802 84.7461 334.54 87.7766 325.94 90.474C316.609 93.338 314.647 96.1353 314.796 99.4655C314.647 99.3156 314.497 99.1491 314.364 98.966C313.083 94.3537 311.802 89.758 310.522 85.1457C319.038 82.7813 327.52 80.1338 335.92 77.2366C336.436 78.7352 336.918 80.2337 336.868 81.7157L336.885 81.749Z" fill="#B55741"/>
<path d="M336.885 81.749C336.802 84.7461 334.54 87.7766 325.94 90.474C316.609 93.338 314.647 96.1353 314.796 99.4655C314.647 99.3156 314.497 99.1491 314.364 98.966C313.083 94.3537 311.802 89.758 310.522 85.1457C319.038 82.7813 327.52 80.1338 335.92 77.2366C336.436 78.7352 336.918 80.2337 336.868 81.7157L336.885 81.749Z" fill="#B55741"/>
<path d="M320.851 7.31975C319.022 4.95532 315.728 3.93962 308.044 6.354C262.436 20.5239 214.9 26.3351 167.712 23.7875C167.03 36.3589 166.348 90.8905 165.683 103.445C217.411 106.243 269.539 99.8487 319.537 84.2801C319.537 84.2801 319.537 84.2801 319.554 84.2801C327.737 81.7159 335.022 79.518 336.885 81.7825C336.935 80.3006 336.436 78.802 335.937 77.3034C332.86 68.3785 325.874 20.4073 322.797 11.4825C322.282 9.98389 321.749 8.51861 320.851 7.35305V7.31975Z" fill="#ED6D46"/>
<path d="M131.605 46.1239L124.945 44.3755C126.276 49.2708 128.001 53.9695 129.95 57.6546L121.937 60.5687C119.582 55.4904 118.154 49.4973 117.168 42.6342C113.571 47.3508 109.746 51.7931 105.703 55.9209L100.837 52.2418C103.78 48.3827 106.553 44.3506 109.097 40.2152L102.357 38.4458L104.074 31.9061L112.659 34.1601C113.647 32.3607 114.593 30.5507 115.511 28.6902L123.868 33.2856C123.151 34.3839 122.393 35.4717 121.647 36.5193L133.322 39.5843L131.605 46.1239ZM110.292 53.3087L112.973 49.4666C115.097 50.1959 116.947 51.1533 118.675 52.2501L116.268 56.6789C114.401 55.4597 112.422 54.3398 110.292 53.3087Z" fill="white"/>
<path d="M153.864 32.7665L170.087 35.1197L168.518 45.9348L152.295 43.5816L153.864 32.7665ZM157.135 37.829L164.941 38.9615L165.129 37.6667L157.322 36.5343L157.135 37.829ZM151.74 35.8801L151.138 40.031L149.693 43.8263C150.191 45.2205 150.34 46.8752 150.119 48.3984C149.622 51.8257 147.351 54.8792 143.435 54L144.369 49.703C145.256 50.0259 145.954 49.2329 146.125 48.0524C146.274 47.0242 146.043 45.6687 145.164 44.4913L146.621 40.0756L144.609 39.7448L141.604 60.4611L137.567 59.8755L141.116 34.3389L151.74 35.8801ZM156.67 41.3L164.439 42.4269L164.626 41.1321L156.858 40.0052L156.67 41.3ZM170.434 48.0015L169.766 52.6093L156.856 50.7367L156.304 52.134L168.642 53.9238C168.019 57.6828 167.013 62.2029 165.837 65.2206L161.361 63.9103L162.511 60.5388L163.827 60.8464L164.674 56.8865L162.922 56.6324C162.084 59.1938 161.029 61.6458 159.87 64.0051L157.45 63.2652C158.494 60.8893 159.375 58.5675 160.104 56.2237L158.962 56.0579C158.021 58.5265 156.97 60.9405 155.844 63.3434L153.31 62.5869C154.349 60.2491 155.23 57.9273 156.03 55.6326L154.849 55.4613C154.1 57.1413 153.324 58.7395 152.477 60.2886L149.16 59.0298C150.32 56.1264 151.371 53.1682 152.325 50.0793L150.611 49.8307L151.279 45.2229L170.434 48.0015Z" fill="white"/>
<path d="M188.044 46.9906C195.385 46.8941 199.089 50.9522 199.158 56.1783C199.207 59.9112 197.437 64.1657 193.878 67.946L189.822 65.4689C192.271 62.4498 193.764 59.236 193.73 56.7059C193.703 54.5906 192.602 52.9458 190.104 52.2734C189.988 59.1612 188.739 65.1512 182.262 64.7386C178.484 64.4978 176.282 61.0836 176.233 57.3508C176.169 52.5395 179.666 47.1007 188.044 46.9906ZM182.781 60.0441C184.689 60.019 184.978 56.738 185.085 52.2564C182.067 53.0427 180.936 55.4222 180.962 57.3716C180.982 58.8647 181.703 60.0583 182.781 60.0441Z" fill="white"/>
<path d="M211.296 33.4094L218.11 32.1603L220.361 44.4411L231.581 42.3842L232.666 48.3002L225.118 49.6839L226.252 56.097L227.72 55.8277L227.631 53.2716L232.35 52.7861L232.954 60.224C231.341 60.857 229.862 61.297 228.556 61.5363C223.17 62.5237 220.318 60.3055 219.333 56.3112L218.182 50.9555L216.02 51.3519C215.977 55.4924 215.572 59.9525 214.61 64.1352L208.006 63.9965C208.316 60.3972 208.329 56.5573 208.186 52.788L203.82 53.5883L202.736 47.6723L213.548 45.6902L211.296 33.4094ZM211.066 43.1932L205.898 45.8275C204.288 43.2551 202.588 40.6568 200.678 38.0551L206.761 34.6626C208.516 37.335 209.878 40.1638 211.066 43.1932ZM223.122 31.6632L230.013 32.6771C229.531 35.8017 228.816 38.8005 227.889 41.7959L222.123 41.1662C222.719 37.9784 222.989 34.8504 223.122 31.6632Z" fill="white"/>
<path d="M256.521 27.4761L253.755 28.9389L251.168 24.0317L254.142 22.5304L256.521 27.4761ZM252.823 29.4009L250.026 31.01L247.139 26.3569L250.267 24.5707L252.823 29.4009ZM257.771 47.4801L254.913 52.2859C251.547 51.5765 248.62 49.8427 247.465 46.9539C246.572 44.7199 246.781 41.7775 248.815 38.1501L238.755 42.2609L236.953 37.7544L254.533 30.7723L256.765 36.3573C252.959 40.0228 252.026 42.7185 252.75 44.5288C253.381 46.108 255.33 47.0713 257.771 47.4801Z" fill="white"/>
<path d="M85.8847 68.2268C84.0368 67.6055 83.0973 65.7141 83.7187 63.8662C84.3268 62.0577 86.2181 61.1182 88.066 61.7395C89.8746 62.3477 90.8141 64.239 90.2059 66.0476C89.5846 67.8955 87.6932 68.835 85.8847 68.2268ZM88.6708 76.2094L82.772 79.6962C79.5692 75.5559 77.1527 71.6799 74.9216 67.1224L67.1308 71.811L64.3493 67.0684L76.4871 60.3843C80.1973 66.1394 84.2891 71.4101 88.6708 76.2094ZM86.6514 65.9464C87.1232 66.1051 87.7012 65.818 87.873 65.3069C88.0317 64.8351 87.7446 64.2572 87.2728 64.0986C86.7224 63.9135 86.1445 64.2005 85.9858 64.6723C85.8139 65.1834 86.101 65.7614 86.6514 65.9464Z" fill="white"/>
<path d="M104.328 76.2328L100.125 75.2394L102.177 65.859L106.528 66.9382L104.328 76.2328ZM98.9233 75.0662L94.7487 74.1241L96.6467 64.5269L101.038 65.6176L98.9233 75.0662ZM104.395 86.3521L100.844 84.2944C104.089 79.3149 106.347 75.2167 109.111 69.0626L113.841 71.3732C110.691 77.3728 107.827 82.0738 104.395 86.3521Z" fill="white"/>
<path d="M126.688 66.9317L124.893 75.5826C128.171 76.729 131.272 77.7114 134.154 78.5214L132.924 83.2227C132.063 83.0863 131.21 82.9093 130.357 82.7323C128.123 82.2687 125.947 81.7322 123.755 81.0655L122.044 89.3103L116.845 88.2313L121.49 65.8527L126.688 66.9317Z" fill="white"/>
<path d="M165.41 68.28L165.021 73.7543L161.894 73.6523L162.083 68.1082L165.41 68.28ZM161.033 68.129L160.856 73.5909L157.63 73.6007L157.431 68.1281L161.033 68.129ZM163.384 75.2845L162.782 80.1846L154.566 79.0362L152.425 94.3593L147.166 93.6243L149.302 78.3423L141.209 77.2111L141.81 72.311L149.986 73.4537L150.33 70.9889L155.588 71.7238L155.25 74.1476L163.384 75.2845ZM143.59 92.2448L139.032 90.3932C140.821 86.5806 141.799 84.0786 142.785 80.3213L148.109 81.4843C146.978 85.6821 145.807 88.3664 143.59 92.2448ZM155.21 82.5187L159.628 82.6755C160.009 86.5402 160.411 89.3606 161.315 93.3821L155.873 93.9617C155.126 89.4176 155.03 86.8075 155.21 82.5187Z" fill="white"/>
<path d="M176.822 71.8692L176.387 80.6937C179.804 81.3187 183.019 81.8092 185.992 82.1632L185.504 86.9983C184.632 86.9969 183.762 86.9541 182.892 86.9112C180.614 86.7991 178.38 86.6061 176.112 86.2868L175.698 94.697L170.395 94.436L171.519 71.6082L176.822 71.8692Z" fill="white"/>
<path d="M214.37 92.3715L205.238 94.5558C203.824 89.352 202.476 80.5794 201.853 73.0394L207.691 72.3617C208.191 80.0283 208.689 84.9983 209.204 88.5575L213.294 87.5355L214.37 92.3715ZM195.909 94.8765L190.626 94.01C192.048 87.2242 192.884 80.0748 193.217 72.6433L199.321 72.9984C199.032 80.5536 197.598 89.1649 195.909 94.8765Z" fill="white"/>
<path d="M240.719 60.9718L241.69 66.4995L238.55 67.1713L237.414 61.6613L240.719 60.9718ZM236.36 61.9417L237.527 67.3647L234.318 68.169L232.784 62.8272L236.36 61.9417ZM227.188 68.9782L227.11 71.7401C233.977 71.5851 235.561 74.2932 235.912 77.5513C235.987 78.2524 236.022 78.9579 236.019 79.7092C236.037 82.5859 235.919 86.1447 235.401 90.2473L229.147 90.6701L228.834 85.8226L231.28 85.6845L231.465 81.2006C231.458 80.7425 231.45 80.2844 231.406 79.8719C231.188 77.8511 230.313 76.6937 226.9 76.769L226.41 91.215L221.601 91.1068L221.832 77.3563C220.768 77.5542 219.581 77.7654 218.279 78.0724L217.256 73.2179C218.966 72.8252 220.478 72.5373 221.872 72.3039L221.944 68.7082L227.188 68.9782ZM237.035 78.682L235.372 69.4324L240.157 68.5418L241.655 77.8092L237.035 78.682Z" fill="white"/>
<path d="M253.446 57.7441L260.244 56.4104L262.648 68.6623L273.841 66.466L274.999 72.3681L267.469 73.8456L268.682 80.2441L270.148 79.9566L270.027 77.4018L274.739 76.8577L275.436 84.2874C273.831 84.9405 272.357 85.3988 271.054 85.6543C265.681 86.7085 262.801 84.526 261.766 80.5442L260.549 75.2032L258.392 75.6265C258.401 79.7672 258.052 84.232 257.141 88.4263L250.536 88.3697C250.801 84.7669 250.767 80.927 250.577 77.1599L246.222 78.0144L245.064 72.1123L255.85 69.996L253.446 57.7441ZM253.337 67.53L248.203 70.2283C246.56 67.6761 244.829 65.0991 242.886 62.5214L248.927 59.0536C250.715 61.704 252.112 64.5156 253.337 67.53ZM265.249 55.8511L272.152 56.7793C271.71 59.9096 271.032 62.9171 270.142 65.9238L264.368 65.3658C264.925 62.1708 265.156 59.0396 265.249 55.8511Z" fill="white"/>
<path d="M291.494 78.0729C288.293 78.7737 285.476 77.7344 284.855 74.898C284.287 72.3047 286.534 70.1567 289.047 69.6068C291.275 69.1189 293.738 69.8961 294.539 72.7781C295.742 72.26 296.227 71.1772 296.014 70.2047C295.695 68.746 293.881 67.4445 290.64 68.1541C288.573 68.6065 285.887 69.9162 282.608 72.5873L280.355 69.4713L289.51 61.0553L280.492 63.1144L279.462 58.7964L296.098 55.0698L297.103 60.2425L291.979 64.379C292.254 64.2764 292.497 64.2232 292.74 64.17C296.954 63.2475 300.038 65.5023 300.703 68.5414C301.457 71.9856 299.031 76.4231 291.494 78.0729ZM290.002 74.7478C290.448 74.6503 290.765 74.1564 290.658 73.6701C290.561 73.2244 290.067 72.9079 289.621 73.0055C289.135 73.1119 288.818 73.6058 288.916 74.0515C289.022 74.5378 289.516 74.8543 290.002 74.7478Z" fill="white"/>
</svg>
