<svg width="375" height="120" viewBox="0 0 375 120" fill="none" xmlns="http://www.w3.org/2000/svg">
<g clip-path="url(#clip0_493_445)">
<path d="M293.862 90.2566L292.614 96.0643L278.338 94.2189L279.153 88.0854L293.862 90.2566ZM287.837 118.807L282.192 115.279C285.666 111.534 287.674 108.385 287.674 106.269C287.674 104.423 286.1 103.338 282.626 103.338C281.052 103.338 279.044 103.555 276.602 104.043L275.625 97.9641C278.501 97.4213 281.052 97.1499 283.278 97.1499C291.637 97.1499 295.382 100.678 295.382 105.454C295.382 109.471 292.668 114.41 287.837 118.807Z" fill="#ED6D46"/>
<path d="M269.022 81.0293L269.51 88.194L265.44 88.6282L264.68 81.4092L269.022 81.0293ZM263.323 81.6264L264.083 88.7368L259.903 89.3338L258.655 82.2777L263.323 81.6264ZM267.394 91.0165L267.502 96.5528H262.074L262.237 99.2667H266.796L266.905 104.586H262.508C262.508 105.454 262.563 106.377 262.563 107.463C264.3 107.571 265.548 107.68 267.122 108.006L266.254 113.542C264.842 113.108 263.431 112.999 262.183 112.999C261.477 116.527 259.577 118.915 255.561 118.915C250.893 118.915 248.722 115.984 248.722 112.999C248.722 109.797 251.273 106.486 256.104 106.757V104.64H248.016L247.962 99.321H255.887L255.724 96.6071H247.311L247.256 91.0707L267.394 91.0165ZM244 91.125L244.651 110.937L247.148 110.828L247.419 117.016L238.572 117.613L236.835 91.3964L244 91.125ZM255.615 114.247C256.375 114.247 257.026 113.596 257.026 112.836C257.026 112.076 256.375 111.425 255.615 111.425C254.855 111.425 254.204 112.076 254.204 112.836C254.204 113.596 254.855 114.247 255.615 114.247Z" fill="#FCB601"/>
<path d="M226.752 80.7579L225.286 85.1544H229.249V97.8012L220.456 97.7469V92.0477L198.039 92.102V98.4525H189.897V85.1544H193.479L192.177 81.3549L200.101 79.4552L201.675 85.1544H206.452L205.638 80.2694L213.562 78.6953L214.431 85.1544H217.742L218.502 79.2924L226.752 80.7579ZM218.393 94.6531V100.081L216.493 103.555H225.612V109.634H214.594V110.339C214.594 113.705 214.214 116.961 213.454 120.164L201.458 119.241L202.001 113.705L206.072 113.976C206.289 112.728 206.398 111.208 206.398 109.634H194.131L194.076 103.555H206.995L208.623 100.027H200.59V94.7074L218.393 94.6531Z" fill="#822586"/>
<path d="M182.259 115.007L176.397 119.187L164.293 103.718L175.691 88.0854L182.856 92.8076L173.683 104.043L182.259 115.007Z" fill="#ED6D46"/>
<path d="M145.671 118.916C138.289 118.916 133.349 113.162 133.892 106.215L135.141 89.9854L142.36 90.6367L141.003 107.463C140.731 110.774 142.794 112.511 145.128 112.511C147.516 112.511 150.176 110.828 151.261 107.463L157.775 110.123C155.278 115.17 150.99 118.916 145.671 118.916Z" fill="#FCB601"/>
<path d="M107.144 83.2005H112.681V100.624H96.0173V83.2005H99.6539L101.011 78.6411L108.501 79.9981L107.144 83.2005ZM95.0946 84.666L93.5748 90.6908C90.0467 89.7138 86.5186 89.0082 82.9905 88.4654L84.8903 81.9521C88.3098 82.6577 91.675 83.5261 95.0946 84.666ZM123.808 81.9521L125.707 88.4654C122.396 89.3882 118.977 90.1481 115.123 90.6908L113.603 84.666C117.24 83.9604 120.605 83.0919 123.808 81.9521ZM102.585 90.0395H105.95V88.4112H102.585V90.0395ZM93.1948 93.1876L94.606 99.3211C91.4036 100.407 88.147 101.384 84.836 102.252L82.4478 95.1417C86.0844 94.6532 89.6667 94.0018 93.1948 93.1876ZM114.092 99.3211L115.503 93.1876C119.303 93.7847 122.885 94.3275 126.25 95.1417L123.862 102.252C120.66 101.167 117.403 100.244 114.092 99.3211ZM102.585 95.1959H105.95V93.459H102.585V95.1959ZM100.522 101.872H107.796V103.338H123.156V109.471H116.1C118.38 110.882 120.768 112.131 123.156 113.325L117.674 118.644C114.309 116.744 111.052 114.356 107.796 111.588V119.241H100.522V112.402C96.6143 114.682 92.4349 116.799 87.9841 118.807L85.1074 114.736C88.0384 113.108 90.6437 111.317 93.1405 109.471H85.7587V103.338H100.522V101.872Z" fill="#822586"/>
<path d="M322.287 48.1019L322.07 54.2896L307.849 54.3439L307.415 56.4064C310.129 56.1893 312.083 56.9492 313.386 58.3604C315.34 57.8719 317.565 57.492 320.062 57.2206L320.333 63.2997C318.488 63.4626 316.859 63.6254 315.448 63.8968V64.7652C315.448 65.6337 315.394 66.5564 315.231 67.4792L309.478 67.3163C309.64 66.665 309.749 66.0679 309.749 65.4709V65.3623C307.904 66.1765 307.089 66.9906 307.089 67.6963C307.089 68.4019 307.958 68.8904 309.315 69.0532C309.912 69.1075 310.509 69.1618 311.106 69.1618C313.657 69.1618 316.317 68.6733 318.922 68.1305L319.682 73.7211C316.479 74.481 314.525 74.861 311.486 74.861C310.943 74.861 310.346 74.8067 309.749 74.8067C304.375 74.5896 300.467 71.4415 300.467 67.8591C300.467 65.7965 301.716 63.5711 304.755 61.6714C304.267 61.6171 303.724 61.6171 303.181 61.6171C302.313 61.6171 301.336 61.6714 300.25 61.78L301.77 54.3439H297.211V47.9933H303.073L303.833 44.1938L309.858 44.9537L309.206 48.0476L322.287 48.1019Z" fill="#ED6D46"/>
<path d="M289.592 34.1523V39.0374H274.231V40.9371H289.158L288.778 56.2978L279.605 55.9179L279.713 54.6152C277.814 54.3438 275.805 54.1267 273.851 53.9096L274.394 50.7072C276.565 50.9243 278.899 51.3585 280.853 51.7384L280.69 52.6069L282.047 52.6612L282.156 45.2251L272.983 45.1708V54.9951H266.958V45.1708L258.111 45.1165L257.839 55.9721L250.566 56.135L250.132 40.9371H265.384V39.0374H249.372V34.1523H289.592ZM258.925 48.9703L259.468 45.8221C261.639 46.0392 263.973 46.4192 265.927 46.8534L265.275 49.7302C263.267 49.4588 261.042 49.1874 258.925 48.9703ZM280.636 46.8534L279.985 49.7302C278.031 49.4045 275.805 49.1331 273.634 48.9703L274.177 45.8221C276.348 46.0392 278.682 46.4192 280.636 46.8534ZM259.142 53.9096L259.685 50.7072C261.856 50.9243 264.19 51.3585 266.144 51.7384L265.492 54.6695C263.484 54.3981 261.259 54.1267 259.142 53.9096ZM266.035 69.1074H254.257L253.606 57.112H285.901L285.25 69.1074H273.091V72.2013H276.402L276.457 70.193L282.373 70.4644L282.156 75.9465L272.006 76.7064C271.626 76.7606 271.3 76.7606 270.975 76.7606C266.578 76.7606 266.307 73.3954 266.198 72.0927C266.089 70.9529 266.089 70.0844 266.035 69.1074ZM265.981 60.8572H261.693V61.997H265.981V60.8572ZM277.705 60.8572H273.417V61.997H277.705V60.8572ZM265.981 64.4395H261.693V65.5794H265.981V64.4395ZM277.705 64.4395H273.417V65.5794H277.705V64.4395Z" fill="#ED6D46"/>
<path d="M238.31 42.9457L242.87 46.4195L237.387 52.0644C238.744 53.1499 240.156 54.1812 241.621 55.2668L236.41 60.4775C233.914 58.632 231.525 56.678 229.246 54.5612V58.6863H225.772L225.718 61.0745H230.657V66.828H225.663V69.8133H227.183V67.8593H231.634V74.2098L225.555 74.8069C225.283 74.8612 225.012 74.8612 224.795 74.8612C220.67 74.8612 220.398 71.116 220.398 67.0451V66.828H217.25C216.653 69.759 215.948 72.5272 215.133 75.1326L209.651 74.3727C210.248 71.9844 210.737 69.4334 211.117 66.828H208.349V61.0745H211.768L211.931 58.6863H210.248V55.2668C208.132 57.1665 205.906 58.9577 203.518 60.6946L199.718 56.3523C201.455 54.8868 203.084 53.4756 204.604 52.0644L200.478 48.0478L204.061 44.1398L208.186 48.4277C209.706 46.7451 211.225 44.954 212.691 42.8914H199.067V36.3237L221.267 36.4323V44.0855C218.553 47.1251 215.839 50.0561 212.908 52.8243H227.455C225.175 50.5446 223.004 48.1021 221.05 45.4967L224.904 40.9374L226.64 42.62L231.2 37.1379L236.41 41.1002L231.091 46.7451C231.851 47.4507 232.665 48.1564 233.425 48.8077L238.31 42.9457ZM218.173 61.0745H220.398V58.6863H218.499L218.173 61.0745Z" fill="#822586"/>
<path d="M168.297 35.1294H177.361V51.4671H192.288V59.3374H182.246L182.192 67.8591H184.146L184.634 64.5481L190.822 65.0366L189.845 74.7524C187.62 75.1866 185.611 75.4037 183.874 75.4037C176.71 75.4037 173.562 71.8757 173.236 66.5021L173.019 59.3374H170.142C169.111 64.6567 167.537 70.3016 165.311 75.458L156.844 73.7211C158.092 69.1618 159.015 64.2225 159.721 59.3374H153.913V51.4671H168.297V35.1294ZM165.691 47.6676L158.418 49.8388C156.952 46.1478 155.378 42.4027 153.533 38.6032L162.163 35.6722C163.792 39.5259 164.877 43.4882 165.691 47.6676ZM183.929 35.6722L192.559 38.6032C191.202 42.5112 189.574 46.2021 187.674 49.8388L180.401 47.6676C181.92 43.7053 183.006 39.743 183.929 35.6722Z" fill="#FCB601"/>
<path d="M120.812 33.1758H143.934V48.5908H120.812V33.1758ZM126.402 39.5806H137.529V37.7351H126.402V39.5806ZM118.478 37.9523V43.8686L117.229 49.4592C118.206 51.3047 118.749 53.5843 118.749 55.7555C118.749 60.6405 116.198 65.3627 110.553 64.9285L110.987 58.7408C112.29 59.0122 113.104 57.7638 113.104 56.0811C113.104 54.6156 112.507 52.7702 111.042 51.3047L112.182 44.8456L109.305 44.7913V74.3186H103.551L103.334 37.9523H118.478ZM126.457 44.5199H137.529V42.6744H126.457V44.5199ZM147.028 51.0875V57.6552H128.628L128.139 59.7178H145.725C145.617 65.0913 145.128 71.6047 144.097 76.0555L137.584 75.1327L138.506 70.1934L140.406 70.3563L140.786 64.6571H138.289C137.638 68.4023 136.661 72.0389 135.521 75.567L131.993 75.0242C132.97 71.4961 133.73 68.0766 134.273 64.6571H132.644C131.83 68.2937 130.853 71.8761 129.768 75.4584L126.077 74.9156C127.054 71.4418 127.814 68.0223 128.465 64.6571H126.782C126.077 67.1539 125.317 69.5421 124.448 71.8761L119.563 70.7905C120.595 66.5025 121.463 62.1603 122.169 57.6552H119.726V51.0875H147.028Z" fill="#ED6D46"/>
<path d="M95.0895 53.91H86.0793C89.3903 59.6635 93.1355 65.037 96.8264 69.0536L87.6534 75.4042C82.9855 69.7592 79.186 62.6488 75.6579 54.29C72.6726 61.4547 69.3074 68.348 65.5622 74.9157L58.1804 71.8761C60.6229 66.014 62.794 59.9892 64.6395 53.91H55.5208V45.0627H67.1363C67.7876 42.4574 68.3847 39.852 68.9274 37.1924L81.0315 40.232C80.4887 41.8603 79.8916 43.4886 79.2946 45.0627H95.0895V53.91ZM70.5015 70.0849L72.6184 64.3314C75.5494 64.5485 78.209 65.1456 80.7601 65.9598L79.186 72.3646C76.4178 71.4419 73.5411 70.682 70.5015 70.0849Z" fill="#822586"/>
<path d="M303.456 6.77596L302.924 9.65996L292.704 8.51196L293.124 5.45996L303.456 6.77596ZM293.964 21.056L294.328 18.284C294.86 18.34 295.336 18.368 295.784 18.368C298.08 18.368 299.368 17.668 299.368 16.94C299.368 16.268 298.108 15.568 295.42 15.568C294.804 15.568 294.132 15.596 293.376 15.68L293.516 10.276L296.736 10.416L296.624 12.656C300.46 12.656 302.476 14.784 302.476 16.912C302.476 19.068 300.404 21.196 296.064 21.196C295.42 21.196 294.72 21.168 293.964 21.056Z" fill="black"/>
<path d="M289.224 1.84814L289.476 5.62814L287.32 5.85214L286.956 2.07214L289.224 1.84814ZM286.228 2.18414L286.62 5.90814L284.408 6.21614L283.764 2.52014L286.228 2.18414ZM279.564 6.24414L279.312 8.09214C283.932 8.48414 284.8 10.4161 284.8 12.6281C284.8 13.1041 284.772 13.5801 284.716 14.0841C284.52 16.0161 284.184 18.3961 283.54 21.1121L279.312 20.9441L279.452 17.6681L281.104 17.7521L281.552 14.7561C281.58 14.4481 281.608 14.1401 281.608 13.8601C281.608 12.4881 281.104 11.6481 278.808 11.4521L277.436 21.1121L274.216 20.6921L275.364 11.4801C274.636 11.5361 273.824 11.5921 272.928 11.7041L272.592 8.37214C273.768 8.23214 274.804 8.14814 275.756 8.09214L276.064 5.68414L279.564 6.24414ZM285.472 13.4681L285.024 7.14014L288.3 6.88815L288.636 13.2161L285.472 13.4681Z" fill="black"/>
<path d="M263.403 7.33581L263.347 10.5278L258.447 10.5558L257.075 19.1238L253.827 18.7318L254.975 10.5838H252.931V7.30781H255.423L255.703 5.40381L259.231 5.76781L258.979 7.33581H263.403ZM267.491 7.67181L268.667 12.0398L265.783 12.9638L264.523 8.51181L267.491 7.67181ZM261.443 11.5638L264.523 11.3678L264.691 15.2318C265.559 15.3158 266.371 15.4558 267.323 15.6798L266.819 18.1998C266.007 18.0038 265.419 17.8918 264.775 17.8358C264.635 19.4878 263.767 21.2798 261.359 21.2798C259.203 21.2798 257.999 19.6278 257.999 18.0038C257.999 16.4078 259.147 14.8398 261.695 14.8398L261.443 11.5638ZM261.387 18.6758C261.723 18.6758 262.031 18.3678 262.031 18.0318C262.031 17.6958 261.723 17.3878 261.387 17.3878C261.051 17.3878 260.743 17.6958 260.743 18.0318C260.743 18.3678 261.051 18.6758 261.387 18.6758Z" fill="black"/>
<path d="M240.916 15.68L236.492 16.38C235.848 13.188 235.344 9.85596 235.232 6.63596L238.62 6.35596C238.732 9.15596 239.012 11.34 239.18 13.188L240.552 12.964L240.916 15.68ZM245.844 21.308L242.596 20.776C243.548 16.38 244.332 12.012 244.444 7.11196L248.168 7.30796C247.692 12.88 246.908 17.64 245.844 21.308Z" fill="black"/>
<path d="M226.508 16.044H230.204V18.732H226.452L226.396 21.448H222.308L222.56 8.70795H221.72C221.216 9.85595 220.656 10.976 220.096 12.068L215.952 10.892C217.436 7.50395 218.584 3.97595 219.396 0.251953L224.296 1.81995C224.016 2.74395 223.708 3.66795 223.4 4.56395H230.148V8.70795H226.648L226.592 11.144H230.176V14.112H226.536L226.508 16.044ZM212.872 2.15595L216.456 4.61995C215.728 5.87995 214.804 7.33595 213.796 8.79195L215.448 8.73595V19.936L211.668 19.992L211.5 12.152L210.632 13.356L207.328 11.06C208.616 9.29595 211.668 4.50795 212.872 2.15595Z" fill="black"/>
<path d="M203.965 7.47596L203.853 10.668L196.517 10.696L196.293 11.76C197.693 11.648 198.701 12.04 199.373 12.768C200.381 12.516 201.529 12.32 202.817 12.18L202.957 15.316C202.005 15.4 201.165 15.484 200.437 15.624V16.072C200.437 16.52 200.409 16.996 200.325 17.472L197.357 17.388C197.441 17.052 197.497 16.744 197.497 16.436V16.38C196.545 16.8 196.125 17.22 196.125 17.584C196.125 17.948 196.573 18.2 197.273 18.284C197.581 18.312 197.889 18.34 198.197 18.34C199.513 18.34 200.885 18.088 202.229 17.808L202.621 20.692C200.969 21.084 199.961 21.28 198.393 21.28C198.113 21.28 197.805 21.252 197.497 21.252C194.725 21.14 192.709 19.516 192.709 17.668C192.709 16.604 193.353 15.456 194.921 14.476C194.669 14.448 194.389 14.448 194.109 14.448C193.661 14.448 193.157 14.476 192.597 14.532L193.381 10.696H191.029V7.41996H194.053L194.445 5.45996L197.553 5.85196L197.217 7.44796L203.965 7.47596Z" fill="black"/>
<path d="M177.406 11.1162L170.35 11.1442L170.322 7.81218L177.378 7.78418L177.406 11.1162ZM175.642 21.5882L173.122 18.2842C177.182 15.5962 179.842 13.1882 183.23 8.90418L186.282 11.2282C183.062 15.5402 179.898 18.5922 175.642 21.5882Z" fill="black"/>
<path d="M157.121 6.74779L165.549 6.71979C165.073 13.1598 164.429 17.6678 163.729 21.4198L160.089 20.9158C160.313 19.5998 160.509 18.1158 160.677 16.6038L157.177 16.2398L157.625 12.9078L160.985 13.2158C161.069 12.1518 161.153 11.0878 161.209 10.0518L156.785 10.0798C156.449 12.5438 156.001 15.0638 155.497 17.3038L151.885 16.7998C152.361 13.3558 152.753 9.21179 152.949 5.48779L157.205 5.73979L157.121 6.74779Z" fill="black"/>
<path d="M138.262 11.1162L131.206 11.1442L131.178 7.81218L138.234 7.78418L138.262 11.1162ZM136.498 21.5882L133.978 18.2842C138.038 15.5962 140.698 13.1882 144.086 8.90418L147.138 11.2282C143.918 15.5402 140.754 18.5922 136.498 21.5882Z" fill="black"/>
<path d="M125.604 9.49216L113.312 9.52015L113.256 6.18816L125.548 6.16016L125.604 9.49216ZM119.864 21.4482L117.68 19.2922C119.724 17.4722 120.9 16.1002 121.964 14.2802L112.304 14.3082L112.248 11.0322L126.416 11.0042V15.4282C123.588 18.5642 121.88 20.0202 119.864 21.4482Z" fill="black"/>
<path d="M107.22 20.16L94.5078 20.188L94.4518 16.968L103.496 16.94V10.976L93.9758 11.004L93.9478 7.67204L107.5 7.64404L107.22 20.16Z" fill="black"/>
<path d="M83.6558 16.6598H89.1438L89.1998 19.8798L74.4998 19.9078L74.4438 16.6878H79.9878V10.7238H75.3398L75.3118 7.39177L88.3038 7.36377L88.3318 10.6958H83.6558V16.6598Z" fill="black"/>
<path d="M322.887 36.9646C326.896 37.3828 330.862 37.5472 334.78 37.5073C332.97 34.2521 331.322 30.9052 330.013 27.4257C327.352 30.3725 325.062 33.6201 322.887 36.9646Z" fill="#F7931E"/>
<path d="M329.946 49.3964C333.961 49.2318 337.918 48.8712 341.801 48.322C339.537 45.2889 337.445 42.1256 335.546 38.8597C333.526 42.2284 331.658 45.7478 329.946 49.3964Z" fill="#B75FBB"/>
<path d="M338.543 60.7373C342.505 60.0575 346.38 59.1953 350.166 58.1511C347.531 55.4349 345.057 52.5606 342.744 49.564C341.18 53.1715 339.778 56.8998 338.545 60.7378L338.543 60.7373Z" fill="#666666"/>
<path d="M348.52 70.8802C352.367 69.6936 356.1 68.3407 359.717 66.8214C356.769 64.4667 353.927 61.9349 351.261 59.2612C350.154 63.0894 349.247 66.9575 348.52 70.8802Z" fill="#F39800"/>
<path d="M359.716 79.6519C363.335 78.0049 366.872 76.1801 370.305 74.1856C367.079 72.2415 363.927 70.0787 360.945 67.7803C360.349 71.6633 359.929 75.6352 359.715 79.6514L359.716 79.6519Z" fill="#B75FBB"/>
<path d="M336.483 44.7518L333.572 42.2922C333.338 42.7145 333.105 43.1403 332.877 43.5676L335.569 45.8405L335.66 45.9165L338.943 48.691C339.586 48.6163 340.225 48.5356 340.864 48.4514L336.575 44.8283L336.484 44.7523L336.483 44.7518Z" fill="#BC84BF"/>
<path d="M337.491 43.7392L340.065 45.9131C339.093 44.5258 338.156 43.1129 337.256 41.678L335.007 39.7779C334.765 40.1925 334.523 40.609 334.284 41.028L337.402 43.6621L337.493 43.7381L337.491 43.7392Z" fill="#BC84BF"/>
<path d="M332.825 49.1068L330.879 47.4622C330.664 47.9001 330.451 48.342 330.24 48.7844L330.914 49.3542C331.603 49.3205 332.291 49.2812 332.977 49.2365L332.915 49.1844L332.824 49.1084L332.825 49.1068Z" fill="#BC84BF"/>
<path d="M334.657 46.9288L332.2 44.8537C331.976 45.2839 331.754 45.718 331.533 46.1525L333.741 48.0185L333.832 48.0945L335.004 49.084C335.669 49.0293 336.332 48.9676 336.993 48.9019L334.748 47.0048L334.657 46.9288Z" fill="#BC84BF"/>
<path d="M348.52 70.8809C348.828 70.7858 349.136 70.6888 349.444 70.5917L348.695 69.959C348.636 70.2667 348.577 70.5728 348.52 70.8809Z" fill="#F8C166"/>
<path d="M349.705 65.228L354.162 68.994C354.674 68.8081 355.186 68.6187 355.695 68.4269L350.078 63.6816C349.951 64.1962 349.826 64.7116 349.705 65.228Z" fill="#F8C166"/>
<path d="M349.014 68.3672L351.037 70.0771C351.564 69.9024 352.088 69.7248 352.61 69.5436L349.351 66.79C349.236 67.3148 349.123 67.8405 349.015 68.3676L349.014 68.3672Z" fill="#F8C166"/>
<path d="M350.467 62.1475L357.206 67.8423C357.707 67.6462 358.205 67.446 358.701 67.2435L350.875 60.6318C350.736 61.1361 350.6 61.6414 350.467 62.1475Z" fill="#F8C166"/>
<path d="M333.708 37.4255C333.688 37.4095 333.668 37.3934 333.648 37.3789C333.607 37.3498 333.563 37.3263 333.517 37.3074C333.246 37.1929 332.924 37.2476 332.707 37.4605C332.691 37.4755 332.676 37.4924 332.663 37.5084C333.041 37.5125 333.42 37.5136 333.797 37.5127C333.788 37.5014 333.778 37.4885 333.767 37.4768C333.75 37.4581 333.732 37.441 333.712 37.4249L333.708 37.4255Z" fill="#FFFF66"/>
<path d="M330.847 35.0083C330.531 34.7407 330.058 34.7823 329.792 35.1C329.524 35.4172 329.565 35.8916 329.881 36.1577C330.197 36.4238 330.67 36.3837 330.936 36.0661C331.203 35.7489 331.163 35.2745 330.847 35.0083Z" fill="#FFFF66"/>
<path d="M328.21 35.2359C327.894 34.9683 327.421 35.0099 327.155 35.3275C326.887 35.6447 326.928 36.1191 327.244 36.3852C327.56 36.6529 328.033 36.6112 328.299 36.2936C328.567 35.9764 328.526 35.502 328.21 35.2359Z" fill="#FFFF66"/>
<path d="M330.624 32.3619C330.308 32.0942 329.835 32.1358 329.569 32.4535C329.301 32.7707 329.342 33.2451 329.658 33.5112C329.974 33.7788 330.447 33.7372 330.713 33.4196C330.981 33.1024 330.94 32.628 330.624 32.3619Z" fill="#FFFF66"/>
<path d="M333.248 34.6439C332.963 34.5453 332.634 34.6244 332.428 34.869C332.161 35.1862 332.202 35.6607 332.518 35.9268C332.834 36.1944 333.307 36.1528 333.573 35.8351C333.643 35.7503 333.693 35.654 333.722 35.5532C333.563 35.2503 333.405 34.9479 333.248 34.6424L333.248 34.6439Z" fill="#FFFF66"/>
<path d="M332.296 33.2826C332.4 33.3709 332.521 33.4245 332.645 33.4458C332.468 33.0841 332.29 32.7208 332.118 32.3574C331.957 32.6638 332.022 33.0511 332.296 33.2826Z" fill="#FFFF66"/>
<path d="M327.091 36.9896C326.84 37.2671 326.594 37.5476 326.35 37.8304C326.664 38.0458 327.094 37.9913 327.344 37.6937C327.347 37.6896 327.351 37.6839 327.355 37.6803C327.266 37.4519 327.177 37.2221 327.09 36.9911L327.091 36.9896Z" fill="#FFFF66"/>
<path d="M328.094 32.7009C328.078 32.6812 328.062 32.6631 328.045 32.6444C328.027 32.6258 328.009 32.6087 327.989 32.5926C327.969 32.5765 327.949 32.5605 327.929 32.5459C327.698 32.3891 327.406 32.3762 327.168 32.4981C327.082 32.5431 327.001 32.605 326.936 32.6847C326.868 32.7639 326.821 32.8526 326.793 32.9468C326.714 33.2037 326.776 33.4901 326.968 33.6901C326.986 33.7088 327.004 33.7259 327.024 33.7419C327.044 33.758 327.063 33.7741 327.084 33.7886C327.104 33.8031 327.127 33.8166 327.148 33.8281C327.453 33.9945 327.845 33.9279 328.079 33.6503C328.312 33.3727 328.31 32.9747 328.095 32.7014L328.094 32.7009Z" fill="#FFFF66"/>
<path d="M325.535 33.0598C325.28 33.4174 325.028 33.7774 324.778 34.1398C325.02 34.1671 325.269 34.0771 325.436 33.8772C325.635 33.6403 325.663 33.3183 325.535 33.0598Z" fill="#FFFF66"/>
<path d="M327.826 30.009C327.518 30.3952 327.215 30.7846 326.916 31.1786C327.222 31.3484 327.614 31.2823 327.85 31.0036C328.097 30.7101 328.08 30.2828 327.826 30.009Z" fill="#FFFF66"/>
<path d="M330.508 29.8269C330.492 29.8072 330.476 29.789 330.459 29.7704C330.441 29.7517 330.423 29.7346 330.403 29.7186C330.383 29.7025 330.363 29.6864 330.343 29.6719C330.113 29.5151 329.82 29.5022 329.582 29.6241C329.539 29.6458 329.498 29.6731 329.458 29.7043C329.419 29.7354 329.383 29.7711 329.35 29.8107C329.283 29.8898 329.236 29.9785 329.207 30.0728C329.128 30.3297 329.19 30.6161 329.382 30.8161C329.4 30.8347 329.418 30.8519 329.438 30.8679C329.458 30.884 329.478 30.9 329.498 30.9146C329.518 30.9291 329.541 30.9426 329.562 30.9541C329.867 31.1205 330.258 31.0554 330.492 30.7778C330.526 30.7382 330.554 30.6953 330.578 30.6529C330.722 30.3892 330.693 30.0648 330.509 29.8289L330.508 29.8269Z" fill="#FFFF66"/>
<path d="M325.676 35.574C325.66 35.5543 325.644 35.5361 325.627 35.5175C325.609 35.4988 325.591 35.4817 325.571 35.4656C325.551 35.4496 325.531 35.4335 325.511 35.419C325.28 35.2622 324.988 35.2493 324.75 35.3712C324.707 35.3929 324.666 35.4201 324.626 35.4513C324.587 35.4825 324.551 35.5181 324.518 35.5577C324.45 35.6369 324.404 35.7256 324.375 35.8199C324.296 36.0768 324.358 36.3632 324.55 36.5632C324.568 36.5818 324.586 36.5989 324.606 36.615C324.626 36.631 324.645 36.6471 324.666 36.6617C324.686 36.6762 324.709 36.6897 324.73 36.7012C325.035 36.8676 325.426 36.8025 325.66 36.5249C325.694 36.4853 325.722 36.4423 325.746 36.4C325.89 36.1363 325.861 35.8119 325.677 35.576L325.676 35.574Z" fill="#FFFF66"/>
<path d="M348.682 57.4458C348.367 57.1782 347.893 57.2198 347.628 57.5375C347.36 57.8547 347.401 58.3291 347.717 58.5952C347.793 58.66 347.879 58.706 347.969 58.7353C348.228 58.6697 348.487 58.6026 348.744 58.535C348.754 58.5246 348.763 58.5159 348.773 58.504C349.041 58.1868 349 57.7124 348.684 57.4463L348.682 57.4458Z" fill="#CCCCCC"/>
<path d="M346.283 58.0431C346.263 57.9737 346.233 57.9066 346.194 57.8448C346.155 57.783 346.105 57.7261 346.046 57.6748C345.967 57.6076 345.879 57.5606 345.785 57.5319C345.645 57.4894 345.497 57.4872 345.358 57.5281C345.221 57.5674 345.09 57.6472 344.991 57.7665C344.891 57.8857 344.834 58.026 344.818 58.1706C344.802 58.3138 344.828 58.4614 344.895 58.5913C344.939 58.6781 345.001 58.7584 345.079 58.8237C345.138 58.8734 345.202 58.913 345.27 58.9419C345.337 58.9707 345.408 58.989 345.48 58.9961C345.719 59.021 345.967 58.9305 346.134 58.7321C346.3 58.5337 346.348 58.2741 346.281 58.0426L346.283 58.0431Z" fill="#CCCCCC"/>
<path d="M347.309 55.7149C347.353 55.8017 347.415 55.882 347.493 55.9473C347.552 55.997 347.616 56.0365 347.684 56.0654C347.751 56.0943 347.822 56.1125 347.894 56.1197C348.003 56.1314 348.115 56.1174 348.219 56.081C347.908 55.7418 347.602 55.4006 347.296 55.0578C347.261 55.1336 347.238 55.2131 347.229 55.2933C347.213 55.4364 347.239 55.584 347.306 55.714L347.309 55.7149Z" fill="#CCCCCC"/>
<path d="M345.775 53.3078C345.475 52.9553 345.179 52.6007 344.884 52.243C344.801 52.2708 344.721 52.3112 344.651 52.3678C344.611 52.399 344.576 52.4346 344.542 52.4742C344.275 52.7914 344.315 53.2658 344.632 53.5319C344.948 53.798 345.421 53.7579 345.686 53.4403C345.72 53.4007 345.748 53.3577 345.773 53.3154C345.774 53.3123 345.774 53.3108 345.775 53.3078Z" fill="#CCCCCC"/>
<path d="M342.884 50.1351C342.857 50.0936 342.828 50.0546 342.793 50.0173C342.775 49.9987 342.757 49.9816 342.737 49.9655C342.718 49.9495 342.698 49.9334 342.677 49.9189C342.655 49.9039 342.634 49.8908 342.612 49.8789C342.416 50.3359 342.221 50.7949 342.03 51.2569C342.309 51.3455 342.628 51.2632 342.828 51.0237C342.862 50.9841 342.89 50.9412 342.915 50.8988C343.046 50.6581 343.033 50.3634 342.888 50.136L342.884 50.1351Z" fill="#CCCCCC"/>
<path d="M343.182 55.2564C342.867 54.9888 342.393 55.0304 342.128 55.348C341.86 55.6652 341.901 56.1396 342.217 56.4057C342.533 56.6718 343.006 56.6317 343.272 56.3141C343.538 55.9965 343.499 55.5225 343.182 55.2564Z" fill="#CCCCCC"/>
<path d="M340.548 55.487C340.504 55.4485 340.455 55.4186 340.405 55.3918C340.232 55.8573 340.061 56.3237 339.893 56.791C340.159 56.8539 340.45 56.7683 340.638 56.5447C340.905 56.2275 340.865 55.7531 340.548 55.487Z" fill="#CCCCCC"/>
<path d="M343.405 57.9019C343.089 57.6343 342.616 57.6759 342.35 57.9935C342.083 58.3107 342.123 58.7851 342.44 59.0512C342.755 59.3189 343.229 59.2773 343.495 58.9596C343.762 58.6424 343.721 58.168 343.405 57.9019Z" fill="#CCCCCC"/>
<path d="M342.96 52.6119C342.644 52.3442 342.171 52.3858 341.905 52.7035C341.637 53.0207 341.678 53.4951 341.994 53.7612C342.31 54.0288 342.783 53.9872 343.049 53.6696C343.317 53.3524 343.276 52.878 342.96 52.6119Z" fill="#CCCCCC"/>
<path d="M345.819 55.0288C345.503 54.7612 345.03 54.8028 344.764 55.1205C344.497 55.4377 344.537 55.9121 344.854 56.1782C345.169 56.4458 345.643 56.4042 345.909 56.0866C346.176 55.7694 346.135 55.295 345.819 55.0288Z" fill="#CCCCCC"/>
<path d="M340.768 58.1304C340.492 57.8964 340.096 57.8983 339.822 58.1157C339.783 58.1469 339.747 58.1825 339.713 58.2221C339.446 58.5392 339.487 59.0137 339.803 59.2798C340.119 59.5459 340.592 59.5058 340.858 59.1881C340.891 59.1486 340.919 59.1056 340.944 59.0632C341.11 58.7568 341.045 58.3644 340.768 58.1304Z" fill="#CCCCCC"/>
<path d="M366.073 74.5923C365.757 74.3247 365.284 74.3663 365.018 74.684C364.751 75.0011 364.791 75.4756 365.108 75.7417C365.424 76.0078 365.897 75.9677 366.163 75.65C366.43 75.3329 366.389 74.8584 366.073 74.5923Z" fill="#BC84BF"/>
<path d="M363.432 74.8218C363.117 74.5542 362.643 74.5958 362.378 74.9134C362.11 75.2306 362.151 75.7051 362.467 75.9712C362.783 76.2388 363.256 76.1972 363.522 75.8795C363.789 75.5624 363.749 75.0879 363.432 74.8218Z" fill="#BC84BF"/>
<path d="M365.85 71.9488C365.535 71.6811 365.061 71.7228 364.795 72.0404C364.528 72.3576 364.569 72.832 364.885 73.0981C365.201 73.3657 365.674 73.3241 365.94 73.0065C366.207 72.6893 366.167 72.2149 365.85 71.9488Z" fill="#BC84BF"/>
<path d="M368.706 74.3638C368.39 74.0962 367.917 74.1378 367.651 74.4554C367.383 74.7726 367.424 75.247 367.74 75.5132C367.771 75.539 367.802 75.5603 367.834 75.58C368.215 75.3705 368.593 75.1604 368.972 74.9469C368.975 74.7302 368.884 74.5144 368.706 74.3638Z" fill="#BC84BF"/>
<path d="M363.316 72.2846C363.301 72.2649 363.285 72.2467 363.267 72.2281C363.25 72.2094 363.232 72.1923 363.212 72.1762C363.192 72.1602 363.172 72.1441 363.152 72.1296C363.088 72.087 363.022 72.0551 362.952 72.0338C362.86 72.0056 362.762 71.9956 362.667 72.0031C362.571 72.0122 362.477 72.0383 362.391 72.0817C362.304 72.1268 362.224 72.1887 362.158 72.2683C362.091 72.3475 362.044 72.4362 362.015 72.5304C361.987 72.6232 361.977 72.7215 361.984 72.8168C361.992 72.9121 362.019 73.0069 362.062 73.0932C362.095 73.1582 362.138 73.2194 362.191 73.2738C362.208 73.2924 362.226 73.3095 362.246 73.3256C362.266 73.3416 362.286 73.3577 362.307 73.3722C362.327 73.3868 362.349 73.4003 362.371 73.4118C362.676 73.5781 363.067 73.5131 363.301 73.2339C363.535 72.9564 363.532 72.5583 363.318 72.285L363.316 72.2846Z" fill="#BC84BF"/>
<path d="M367.514 72.8682C367.749 73.0661 368.07 73.0943 368.329 72.9659C367.969 72.7361 367.609 72.5048 367.25 72.2705C367.242 72.4924 367.333 72.7147 367.514 72.8682Z" fill="#BC84BF"/>
<path d="M361.017 77.6964C360.701 77.4288 360.228 77.4704 359.962 77.7881C359.887 77.878 359.838 77.9793 359.81 78.0856C359.803 78.1783 359.798 78.2714 359.793 78.3645C359.815 78.5459 359.902 78.7185 360.052 78.8458C360.367 79.1134 360.841 79.0718 361.107 78.7542C361.374 78.437 361.333 77.9625 361.017 77.6964Z" fill="#BC84BF"/>
<path d="M362.712 77.4533C362.673 77.4845 362.637 77.5202 362.603 77.5598C362.413 77.7874 362.379 78.0945 362.492 78.3483C362.941 78.1299 363.388 77.909 363.834 77.6847C363.791 77.6034 363.732 77.5305 363.658 77.4681C363.382 77.2341 362.986 77.236 362.712 77.4533Z" fill="#BC84BF"/>
<path d="M360.896 75.1576C360.881 75.1379 360.865 75.1198 360.847 75.1011C360.83 75.0825 360.812 75.0654 360.792 75.0493C360.772 75.0332 360.752 75.0172 360.732 75.0026C360.669 74.9601 360.602 74.9281 360.532 74.9069C360.44 74.8786 360.342 74.8686 360.247 74.8762C360.184 74.8819 360.122 74.8961 360.063 74.9162C360.02 75.3702 359.981 75.8236 359.943 76.279C359.946 76.2799 359.948 76.2824 359.951 76.2848C360.256 76.4512 360.647 76.3861 360.881 76.1085C360.915 76.0689 360.943 76.026 360.967 75.9836C361.111 75.72 361.082 75.3955 360.898 75.1596L360.896 75.1576Z" fill="#BC84BF"/>
<path d="M360.601 70.1855C360.581 70.3454 360.559 70.5033 360.538 70.6632C360.612 70.513 360.632 70.3446 360.601 70.1855Z" fill="#BC84BF"/>
<path d="M360.571 72.4036C360.5 72.3437 360.422 72.3 360.34 72.2715C360.283 72.7545 360.23 73.2384 360.18 73.7218C360.361 73.6989 360.533 73.612 360.66 73.4613C360.928 73.1442 360.887 72.6697 360.571 72.4036Z" fill="#BC84BF"/>
<path d="M362.987 69.5298C362.671 69.2622 362.198 69.3038 361.932 69.6215C361.665 69.9386 361.705 70.4131 362.022 70.6792C362.337 70.9468 362.811 70.9052 363.077 70.5875C363.344 70.2704 363.303 69.7959 362.987 69.5298Z" fill="#BC84BF"/>
<path d="M330.179 26.8779C330.179 26.8779 345.911 63.936 370.47 73.6373" stroke="#DFC7A2" stroke-width="1.47522" stroke-miterlimit="10"/>
<path d="M53.2104 36.9636C49.2021 37.3818 45.2355 37.5462 41.3175 37.5063C43.1277 34.2511 44.7756 30.9042 46.0849 27.4248C48.7456 30.3715 51.0361 33.6191 53.2104 36.9636Z" fill="#F7931E"/>
<path d="M46.152 49.3954C42.1363 49.2308 38.18 48.8702 34.2969 48.3211C36.5608 45.288 38.6524 42.1246 40.552 38.8588C42.5714 42.2274 44.4397 45.7469 46.152 49.3954Z" fill="#B75FBB"/>
<path d="M37.5542 60.7364C33.5932 60.0565 29.7172 59.1944 25.9315 58.1502C28.5671 55.434 31.0402 52.5597 33.3533 49.563C34.9172 53.1705 36.3192 56.8988 37.5527 60.7368L37.5542 60.7364Z" fill="#666666"/>
<path d="M27.5781 70.8792C23.7306 69.6926 19.998 68.3397 16.3802 66.8204C19.3283 64.4658 22.171 61.934 24.8362 59.2603C25.9441 63.0884 26.8505 66.9565 27.5781 70.8792Z" fill="#F39800"/>
<path d="M16.3815 79.6509C12.7628 78.0039 9.22562 76.1791 5.79232 74.1847C9.01821 72.2405 12.1707 70.0777 15.1526 67.7793C15.7488 71.6623 16.1685 75.6342 16.383 79.6505L16.3815 79.6509Z" fill="#B75FBB"/>
<path d="M39.6151 44.7508L42.5262 42.2912C42.7595 42.7135 42.9923 43.1394 43.2205 43.5666L40.5289 45.8395L40.4379 45.9155L37.1542 48.69C36.5119 48.6153 35.8727 48.5346 35.2341 48.4505L39.5225 44.8273L39.6135 44.7513L39.6151 44.7508Z" fill="#BC84BF"/>
<path d="M38.6065 43.7392L36.0322 45.9131C37.0048 44.5258 37.9415 43.1129 38.8416 41.678L41.0905 39.7779C41.333 40.1925 41.5745 40.609 41.8135 41.028L38.6956 43.6621L38.6045 43.7381L38.6065 43.7392Z" fill="#BC84BF"/>
<path d="M43.2728 49.1059L45.2187 47.4612C45.4336 47.8991 45.6464 48.341 45.8577 48.7834L45.1837 49.3532C44.4942 49.3195 43.8065 49.2803 43.1203 49.2355L43.1822 49.1834L43.2733 49.1074L43.2728 49.1059Z" fill="#BC84BF"/>
<path d="M41.4407 46.9288L43.8978 44.8537C44.1219 45.2839 44.344 45.718 44.5645 46.1525L42.3566 48.0185L42.2655 48.0945L41.0935 49.084C40.4291 49.0293 39.766 48.9676 39.1049 48.9019L41.3496 47.0048L41.4407 46.9288Z" fill="#BC84BF"/>
<path d="M27.5782 70.88C27.2692 70.7849 26.9613 70.6878 26.6533 70.5907L27.4026 69.958C27.4618 70.2657 27.5205 70.5718 27.5782 70.88Z" fill="#F8C166"/>
<path d="M26.3927 65.2271L21.9359 68.9931C21.4237 68.8072 20.912 68.6178 20.4028 68.4259L26.0198 63.6807C26.1471 64.1952 26.2714 64.7107 26.3927 65.2271Z" fill="#F8C166"/>
<path d="M27.0839 68.3672L25.0603 70.0771C24.5332 69.9024 24.0101 69.7248 23.4877 69.5436L26.7463 66.79C26.8619 67.3148 26.9744 67.8405 27.0824 68.3676L27.0839 68.3672Z" fill="#F8C166"/>
<path d="M25.6311 62.1475L18.8913 67.8423C18.3908 67.6462 17.8924 67.446 17.3965 67.2435L25.2229 60.6318C25.362 61.1361 25.4981 61.6414 25.6311 62.1475Z" fill="#F8C166"/>
<path d="M42.3895 37.4255C42.4094 37.4095 42.4294 37.3934 42.4498 37.3789C42.4906 37.3498 42.5348 37.3263 42.5804 37.3074C42.8518 37.1929 43.1733 37.2476 43.3907 37.4605C43.4069 37.4755 43.422 37.4924 43.4351 37.5084C43.0571 37.5125 42.6781 37.5136 42.3002 37.5127C42.31 37.5014 42.3193 37.4885 42.3306 37.4768C42.3481 37.4581 42.3661 37.441 42.386 37.4249L42.3895 37.4255Z" fill="#FFFF66"/>
<path d="M45.2472 35.0083C45.563 34.7407 46.0362 34.7823 46.3022 35.1C46.5696 35.4172 46.529 35.8916 46.2128 36.1577C45.8965 36.4238 45.4238 36.3837 45.1578 36.0661C44.8903 35.7489 44.9309 35.2745 45.2472 35.0083Z" fill="#FFFF66"/>
<path d="M47.8878 35.2359C48.2036 34.9683 48.6768 35.0099 48.9428 35.3275C49.2103 35.6447 49.1696 36.1191 48.8534 36.3852C48.5376 36.6529 48.0644 36.6112 47.7984 36.2936C47.531 35.9764 47.5716 35.502 47.8878 35.2359Z" fill="#FFFF66"/>
<path d="M45.4738 32.3619C45.7896 32.0942 46.2628 32.1358 46.5287 32.4535C46.7962 32.7707 46.7556 33.2451 46.4393 33.5112C46.1235 33.7788 45.6503 33.7372 45.3844 33.4196C45.1169 33.1024 45.1575 32.628 45.4738 32.3619Z" fill="#FFFF66"/>
<path d="M42.8501 34.6439C43.1347 34.5453 43.4636 34.6244 43.6692 34.869C43.9367 35.1862 43.8961 35.6607 43.5798 35.9268C43.264 36.1944 42.7908 36.1528 42.5249 35.8351C42.4542 35.7503 42.4049 35.654 42.3758 35.5532C42.5351 35.2503 42.6928 34.9479 42.8496 34.6424L42.8501 34.6439Z" fill="#FFFF66"/>
<path d="M43.8017 33.2826C43.6978 33.3709 43.5767 33.4245 43.4524 33.4458C43.6301 33.0841 43.8074 32.7208 43.9797 32.3574C44.1411 32.6638 44.0756 33.0511 43.8017 33.2826Z" fill="#FFFF66"/>
<path d="M49.0071 36.9896C49.2575 37.2671 49.5038 37.5476 49.7475 37.8304C49.434 38.0458 49.0032 37.9913 48.7533 37.6937C48.7504 37.6896 48.747 37.6839 48.7426 37.6803C48.8319 37.4519 48.9207 37.2221 49.0075 36.9911L49.0071 36.9896Z" fill="#FFFF66"/>
<path d="M48.0041 32.7009C48.0196 32.6812 48.0356 32.6631 48.0531 32.6444C48.0706 32.6258 48.0886 32.6087 48.1085 32.5926C48.1285 32.5765 48.1484 32.5605 48.1688 32.5459C48.3992 32.3891 48.6918 32.3762 48.9294 32.4981C49.016 32.5431 49.0962 32.605 49.162 32.6847C49.2292 32.7639 49.2762 32.8526 49.305 32.9468C49.3834 33.2037 49.3218 33.4901 49.1295 33.6901C49.112 33.7088 49.094 33.7259 49.0741 33.7419C49.0541 33.758 49.0342 33.7741 49.0138 33.7886C48.9934 33.8031 48.971 33.8166 48.9497 33.8281C48.6443 33.9945 48.253 33.9279 48.0191 33.6503C47.7853 33.3727 47.7879 32.9747 48.0026 32.7014L48.0041 32.7009Z" fill="#FFFF66"/>
<path d="M50.5625 33.0598C50.8174 33.4174 51.0698 33.7774 51.3197 34.1398C51.0779 34.1671 50.8285 34.0771 50.6614 33.8772C50.4631 33.6403 50.4344 33.3183 50.5625 33.0598Z" fill="#FFFF66"/>
<path d="M48.2716 30.0081C48.58 30.3942 48.8828 30.7837 49.182 31.1776C48.8761 31.3475 48.4832 31.2813 48.2473 31.0027C48.0003 30.7091 48.0173 30.2818 48.2716 30.0081Z" fill="#FFFF66"/>
<path d="M45.5901 29.8269C45.6056 29.8072 45.6216 29.789 45.6391 29.7704C45.6566 29.7517 45.6745 29.7346 45.6945 29.7186C45.7144 29.7025 45.7343 29.6864 45.7547 29.6719C45.9851 29.5151 46.2777 29.5022 46.5153 29.6241C46.5584 29.6458 46.5999 29.6731 46.6392 29.7043C46.6785 29.7354 46.7143 29.7711 46.7479 29.8107C46.8151 29.8898 46.8621 29.9785 46.8909 30.0728C46.9694 30.3297 46.9078 30.6161 46.7154 30.8161C46.6979 30.8347 46.68 30.8519 46.66 30.8679C46.6401 30.884 46.6201 30.9 46.5997 30.9146C46.5793 30.9291 46.5569 30.9426 46.5356 30.9541C46.2303 31.1205 45.8394 31.0554 45.6055 30.7778C45.5719 30.7382 45.5439 30.6953 45.5193 30.6529C45.3759 30.3892 45.4043 30.0648 45.589 29.8289L45.5901 29.8269Z" fill="#FFFF66"/>
<path d="M50.4221 35.574C50.4376 35.5543 50.4536 35.5361 50.4711 35.5175C50.4886 35.4988 50.5066 35.4817 50.5265 35.4656C50.5464 35.4496 50.5664 35.4335 50.5868 35.419C50.8172 35.2622 51.1097 35.2493 51.3474 35.3712C51.3905 35.3929 51.4319 35.4201 51.4712 35.4513C51.5106 35.4825 51.5463 35.5181 51.5799 35.5577C51.6472 35.6369 51.6941 35.7256 51.7229 35.8199C51.8014 36.0768 51.7398 36.3632 51.5474 36.5632C51.5299 36.5818 51.512 36.5989 51.492 36.615C51.4721 36.631 51.4522 36.6471 51.4318 36.6617C51.4114 36.6762 51.389 36.6897 51.3676 36.7012C51.0623 36.8676 50.6714 36.8025 50.4376 36.5249C50.4039 36.4853 50.3759 36.4423 50.3514 36.4C50.2079 36.1363 50.2363 35.8119 50.421 35.576L50.4221 35.574Z" fill="#FFFF66"/>
<path d="M27.4152 57.4458C27.731 57.1782 28.2042 57.2198 28.4701 57.5375C28.7376 57.8547 28.697 58.3291 28.3807 58.5952C28.3045 58.66 28.2191 58.706 28.1287 58.7353C27.8701 58.6697 27.6111 58.6026 27.3536 58.535C27.3438 58.5246 27.3345 58.5159 27.3243 58.504C27.0568 58.1868 27.0974 57.7124 27.4137 57.4463L27.4152 57.4458Z" fill="#CCCCCC"/>
<path d="M29.8148 58.0431C29.8351 57.9737 29.8643 57.9066 29.9034 57.8448C29.9425 57.783 29.993 57.7261 30.0519 57.6748C30.1307 57.6076 30.2191 57.5606 30.313 57.5319C30.4524 57.4894 30.6008 57.4872 30.7392 57.5281C30.8771 57.5674 31.0075 57.6472 31.1068 57.7665C31.2062 57.8857 31.2639 58.026 31.2799 58.1706C31.2955 58.3138 31.2694 58.4614 31.203 58.5913C31.1583 58.6781 31.0967 58.7584 31.0189 58.8237C30.9596 58.8734 30.8954 58.913 30.8281 58.9419C30.7607 58.9707 30.6901 58.989 30.6177 58.9961C30.3785 59.021 30.1306 58.9305 29.964 58.7321C29.7974 58.5337 29.7495 58.2741 29.8163 58.0426L29.8148 58.0431Z" fill="#CCCCCC"/>
<path d="M28.7889 55.7149C28.7442 55.8017 28.6826 55.882 28.6048 55.9473C28.5454 55.997 28.4813 56.0365 28.4139 56.0654C28.3466 56.0943 28.2759 56.1125 28.2036 56.1197C28.0945 56.1314 27.9826 56.1174 27.8787 56.081C28.1892 55.7418 28.4958 55.4006 28.8019 55.0578C28.8366 55.1336 28.8593 55.2131 28.8688 55.2933C28.8844 55.4364 28.8582 55.584 28.7919 55.714L28.7889 55.7149Z" fill="#CCCCCC"/>
<path d="M30.3227 53.3078C30.6225 52.9553 30.9183 52.6007 31.2133 52.243C31.2963 52.2708 31.3765 52.3112 31.4468 52.3678C31.4862 52.399 31.5219 52.4346 31.5555 52.4742C31.823 52.7914 31.7824 53.2658 31.4661 53.5319C31.1499 53.798 30.6771 53.7579 30.4112 53.4403C30.3775 53.4007 30.3495 53.3577 30.325 53.3154C30.3241 53.3123 30.3236 53.3108 30.3227 53.3078Z" fill="#CCCCCC"/>
<path d="M33.2132 50.1351C33.2403 50.0936 33.2698 50.0546 33.3048 50.0173C33.3223 49.9987 33.3402 49.9816 33.3602 49.9655C33.3801 49.9495 33.4001 49.9334 33.4205 49.9189C33.4424 49.9039 33.4632 49.8908 33.4861 49.8789C33.682 50.3359 33.8768 50.7949 34.0676 51.2569C33.7883 51.3455 33.4699 51.2632 33.2693 51.0237C33.2356 50.9841 33.2076 50.9412 33.1831 50.8988C33.0516 50.6581 33.0643 50.3634 33.2102 50.136L33.2132 50.1351Z" fill="#CCCCCC"/>
<path d="M32.9152 55.2564C33.231 54.9888 33.7042 55.0304 33.9701 55.348C34.2376 55.6652 34.197 56.1396 33.8807 56.4057C33.5645 56.6718 33.0917 56.6317 32.8258 56.3141C32.5598 55.9965 32.5989 55.5225 32.9152 55.2564Z" fill="#CCCCCC"/>
<path d="M35.5493 55.487C35.5939 55.4485 35.6427 55.4186 35.6925 55.3918C35.8661 55.8573 36.0368 56.3237 36.2043 56.791C35.9386 56.8539 35.6475 56.7683 35.4599 56.5447C35.1924 56.2275 35.2331 55.7531 35.5493 55.487Z" fill="#CCCCCC"/>
<path d="M32.6925 57.9019C33.0083 57.6343 33.4815 57.6759 33.7475 57.9935C34.015 58.3107 33.9743 58.7851 33.6581 59.0512C33.3423 59.3189 32.8691 59.2773 32.6031 58.9596C32.3356 58.6424 32.3763 58.168 32.6925 57.9019Z" fill="#CCCCCC"/>
<path d="M33.1339 52.6109C33.4497 52.3433 33.9229 52.3849 34.1889 52.7025C34.4564 53.0197 34.4157 53.4941 34.0995 53.7602C33.7837 54.0279 33.3105 53.9862 33.0445 53.6686C32.777 53.3514 32.8177 52.877 33.1339 52.6109Z" fill="#CCCCCC"/>
<path d="M30.2746 55.0288C30.5904 54.7612 31.0635 54.8028 31.3295 55.1205C31.597 55.4377 31.5564 55.9121 31.2401 56.1782C30.9243 56.4458 30.4511 56.4042 30.1851 56.0866C29.9177 55.7694 29.9583 55.295 30.2746 55.0288Z" fill="#CCCCCC"/>
<path d="M35.3292 58.1304C35.6056 57.8964 36.0021 57.8983 36.2755 58.1157C36.3149 58.1469 36.3506 58.1825 36.3842 58.2221C36.6517 58.5392 36.6111 59.0137 36.2948 59.2798C35.9785 59.5459 35.5058 59.5058 35.2398 59.1881C35.2062 59.1486 35.1782 59.1056 35.1537 59.0632C34.9872 58.7568 35.0529 58.3644 35.3292 58.1304Z" fill="#CCCCCC"/>
<path d="M10.0246 74.5923C10.3404 74.3247 10.8135 74.3663 11.0795 74.684C11.347 75.0011 11.3064 75.4756 10.9901 75.7417C10.6738 76.0078 10.2011 75.9677 9.93515 75.65C9.66767 75.3329 9.70829 74.8584 10.0246 74.5923Z" fill="#BC84BF"/>
<path d="M12.6652 74.8218C12.981 74.5542 13.4542 74.5958 13.7201 74.9134C13.9876 75.2306 13.947 75.7051 13.6307 75.9712C13.3149 76.2388 12.8417 76.1972 12.5758 75.8795C12.3083 75.5624 12.3489 75.0879 12.6652 74.8218Z" fill="#BC84BF"/>
<path d="M10.2472 71.9488C10.563 71.6811 11.0362 71.7228 11.3022 72.0404C11.5696 72.3576 11.529 72.832 11.2128 73.0981C10.897 73.3657 10.4238 73.3241 10.1578 73.0065C9.89033 72.6893 9.93095 72.2149 10.2472 71.9488Z" fill="#BC84BF"/>
<path d="M7.39174 74.3628C7.70754 74.0952 8.18073 74.1368 8.4467 74.4545C8.71418 74.7716 8.67356 75.2461 8.35729 75.5122C8.32709 75.538 8.29549 75.5593 8.26343 75.5791C7.88305 75.3695 7.50419 75.1595 7.12592 74.9459C7.12267 74.7292 7.21414 74.5135 7.39174 74.3628Z" fill="#BC84BF"/>
<path d="M12.7775 72.2846C12.793 72.2649 12.809 72.2467 12.8265 72.2281C12.844 72.2094 12.8619 72.1923 12.8819 72.1762C12.9018 72.1602 12.9217 72.1441 12.9421 72.1296C13.0053 72.087 13.0718 72.0551 13.1415 72.0338C13.2339 72.0056 13.3319 71.9956 13.4269 72.0031C13.5225 72.0122 13.6166 72.0383 13.7027 72.0817C13.7894 72.1268 13.8696 72.1887 13.9353 72.2683C14.0025 72.3475 14.0495 72.4362 14.0783 72.5304C14.1066 72.6232 14.1168 72.7215 14.1094 72.8168C14.1021 72.9121 14.0747 73.0069 14.0315 73.0932C13.9984 73.1582 13.9558 73.2194 13.9028 73.2738C13.8853 73.2924 13.8673 73.3095 13.8474 73.3256C13.8275 73.3416 13.8075 73.3577 13.7871 73.3722C13.7667 73.3868 13.7443 73.4003 13.723 73.4118C13.4177 73.5781 13.0268 73.5131 12.7924 73.2339C12.5586 72.9564 12.5613 72.5583 12.7759 72.285L12.7775 72.2846Z" fill="#BC84BF"/>
<path d="M8.58322 72.8682C8.34882 73.0661 8.02782 73.0943 7.76828 72.9659C8.12877 72.7361 8.4888 72.5048 8.8479 72.2705C8.85603 72.4924 8.76491 72.7147 8.58322 72.8682Z" fill="#BC84BF"/>
<path d="M15.0805 77.6955C15.3963 77.4278 15.8695 77.4694 16.1354 77.7871C16.211 77.877 16.2601 77.9784 16.2876 78.0846C16.2944 78.1773 16.2996 78.2704 16.3049 78.3636C16.2824 78.5449 16.196 78.7176 16.046 78.8448C15.7302 79.1124 15.257 79.0708 14.9911 78.7532C14.7236 78.436 14.7642 77.9616 15.0805 77.6955Z" fill="#BC84BF"/>
<path d="M13.3855 77.4533C13.4249 77.4845 13.4606 77.5202 13.4942 77.5598C13.6847 77.7874 13.7188 78.0945 13.6059 78.3483C13.1565 78.1299 12.7097 77.909 12.2636 77.6847C12.3066 77.6034 12.3656 77.5305 12.4393 77.4681C12.7156 77.2341 13.1121 77.236 13.3855 77.4533Z" fill="#BC84BF"/>
<path d="M15.2012 75.1567C15.2167 75.137 15.2327 75.1188 15.2502 75.1001C15.2677 75.0815 15.2856 75.0644 15.3056 75.0483C15.3255 75.0323 15.3454 75.0162 15.3658 75.0017C15.429 74.9591 15.4955 74.9272 15.5652 74.9059C15.6576 74.8777 15.7556 74.8677 15.8507 74.8752C15.9137 74.8809 15.976 74.8951 16.0351 74.9152C16.0777 75.3692 16.1168 75.8227 16.1549 76.278C16.1518 76.279 16.1493 76.2814 16.1467 76.2839C15.8414 76.4502 15.4505 76.3851 15.2166 76.1076C15.183 76.068 15.155 76.025 15.1304 75.9826C14.987 75.719 15.0154 75.3945 15.2001 75.1586L15.2012 75.1567Z" fill="#BC84BF"/>
<path d="M15.4963 70.1855C15.517 70.3454 15.5387 70.5033 15.5594 70.6632C15.4854 70.513 15.4654 70.3446 15.4963 70.1855Z" fill="#BC84BF"/>
<path d="M15.5268 72.4036C15.5979 72.3437 15.6757 72.3 15.7581 72.2715C15.8145 72.7545 15.8679 73.2384 15.9178 73.7218C15.7368 73.6989 15.5645 73.612 15.4374 73.4613C15.1699 73.1442 15.2105 72.6697 15.5268 72.4036Z" fill="#BC84BF"/>
<path d="M13.1105 69.5298C13.4263 69.2622 13.8995 69.3038 14.1654 69.6215C14.4329 69.9386 14.3923 70.4131 14.076 70.6792C13.7602 70.9468 13.2871 70.9052 13.0211 70.5875C12.7536 70.2704 12.7942 69.7959 13.1105 69.5298Z" fill="#BC84BF"/>
<path d="M45.9182 26.877C45.9182 26.877 30.1871 63.935 5.62726 73.6363" stroke="#DFC7A2" stroke-width="1.47522" stroke-miterlimit="10"/>
</g>
<defs>
<clipPath id="clip0_493_445">
<rect width="375" height="120" fill="white"/>
</clipPath>
</defs>
</svg>
