<svg width="375" height="136" viewBox="0 0 375 136" fill="none" xmlns="http://www.w3.org/2000/svg">
<rect width="375" height="136" transform="matrix(-1 0 0 1 375 0)" fill="#092622"/>
<path opacity="0.55" d="M362.234 65.0361C362.234 66.1299 362.097 67.7021 361.824 69.7529C361.619 71.8037 361.311 74.0596 360.901 76.5205C360.491 78.9131 360.046 81.4082 359.568 84.0059C359.158 86.5352 358.713 88.8594 358.235 90.9785C357.825 93.0977 357.449 94.875 357.107 96.3105C356.833 97.7461 356.663 98.5322 356.594 98.6689C356.458 98.874 356.082 99.0107 355.466 99.0791C354.919 99.0791 354.27 99.0107 353.518 98.874C352.834 98.7373 352.185 98.5322 351.57 98.2588C351.023 97.9854 350.681 97.6436 350.544 97.2334C350.476 96.96 350.442 96.0029 350.442 94.3623C350.51 92.7217 350.579 90.7734 350.647 88.5176C350.784 86.1934 350.92 83.7324 351.057 81.1348C351.194 78.4688 351.331 76.0078 351.467 73.752C351.672 71.4277 351.809 69.4453 351.877 67.8047C352.014 66.1641 352.083 65.1729 352.083 64.8311C352.083 63.6006 351.946 62.4385 351.672 61.3447C351.467 60.1826 351.194 59.1914 350.852 58.3711C350.51 57.5508 350.1 56.9355 349.622 56.5254C349.211 56.0469 348.835 55.876 348.494 56.0127C347.605 56.1494 346.853 56.3887 346.238 56.7305C345.623 57.0039 345.11 57.3115 344.7 57.6533C344.221 58.0635 343.845 58.542 343.572 59.0889C343.503 59.2256 343.367 59.6357 343.162 60.3193C343.025 61.0029 342.957 61.7891 342.957 62.6777C342.957 62.9512 342.957 63.9424 342.957 65.6514C342.957 67.292 342.922 69.2744 342.854 71.5986C342.854 73.9229 342.82 76.4521 342.751 79.1865C342.751 81.8525 342.717 84.3477 342.649 86.6719C342.649 88.9277 342.615 90.876 342.546 92.5166C342.478 94.1572 342.41 95.0801 342.341 95.2852C342.205 95.6953 341.863 96.2764 341.316 97.0283C340.769 97.7119 340.154 98.3613 339.47 98.9766C338.787 99.5918 338.137 100.07 337.522 100.412C336.907 100.686 336.497 100.617 336.292 100.207C336.086 100.002 335.881 99.0107 335.676 97.2334C335.471 95.3877 335.232 93.166 334.958 90.5684C334.753 87.9023 334.514 85.0312 334.241 81.9551C333.967 78.8105 333.728 75.8027 333.523 72.9316C333.318 70.0605 333.147 67.4629 333.01 65.1387C332.874 62.8145 332.771 61.1396 332.703 60.1143C332.634 58.6787 332.566 57.0723 332.498 55.2949C332.429 53.4492 332.361 51.7402 332.292 50.168C332.292 48.5273 332.292 47.126 332.292 45.9639C332.361 44.7334 332.498 43.9814 332.703 43.708C332.839 43.4346 333.284 43.3662 334.036 43.5029C334.856 43.6396 335.71 43.9131 336.599 44.3232C337.556 44.665 338.445 45.1094 339.265 45.6562C340.085 46.1348 340.632 46.6133 340.906 47.0918C341.042 47.502 341.213 47.9805 341.418 48.5273C341.624 49.0059 341.794 49.8262 341.931 50.9883C343.093 50.3047 344.358 49.6895 345.725 49.1426C347.092 48.5273 348.425 48.083 349.724 47.8096C351.091 47.4678 352.39 47.3652 353.621 47.502C354.851 47.5703 355.945 47.9121 356.902 48.5273C357.517 49.0059 358.132 49.8262 358.748 50.9883C359.431 52.1504 360.012 53.5176 360.491 55.0898C361.038 56.6621 361.448 58.3369 361.721 60.1143C362.063 61.8232 362.234 63.4639 362.234 65.0361Z" fill="#3E4140"/>
<path opacity="0.55" d="M323.601 51.9111C324.08 52.3213 324.524 53.1074 324.934 54.2695C325.413 55.4316 325.823 56.833 326.165 58.4736C326.507 60.1143 326.814 61.8916 327.088 63.8057C327.361 65.7197 327.6 67.5996 327.805 69.4453C328.01 71.291 328.147 73.0342 328.216 74.6748C328.352 76.2471 328.455 77.5459 328.523 78.5713C328.592 79.8018 328.626 81.1006 328.626 82.4678C328.694 83.7666 328.694 85.0312 328.626 86.2617C328.626 87.4238 328.557 88.4834 328.421 89.4404C328.352 90.3975 328.216 91.1152 328.01 91.5938C327.6 92.6191 326.883 93.3369 325.857 93.7471C324.9 94.0889 323.806 94.3281 322.576 94.4648C321.961 94.5332 320.901 94.5674 319.397 94.5674C317.962 94.499 316.389 94.4307 314.68 94.3623C313.04 94.2256 311.468 94.0889 309.964 93.9521C308.46 93.8154 307.332 93.6787 306.58 93.542C305.076 93.2002 303.982 92.7559 303.299 92.209C302.683 91.6621 302.068 90.876 301.453 89.8506C301.248 89.4404 301.077 88.415 300.94 86.7744C300.803 85.0654 300.701 83.0488 300.633 80.7246C300.633 78.332 300.667 75.7686 300.735 73.0342C300.803 70.2998 300.906 67.7021 301.043 65.2412C301.248 62.7803 301.453 60.627 301.658 58.7812C301.931 56.9355 302.273 55.7051 302.683 55.0898C303.367 54.1328 304.529 53.2441 306.17 52.4238C307.879 51.6035 309.417 50.9541 310.784 50.4756C311.468 50.2705 312.356 50.1338 313.45 50.0654C314.612 49.9287 315.808 49.9287 317.039 50.0654C318.338 50.1338 319.568 50.3389 320.73 50.6807C321.892 50.9541 322.849 51.3643 323.601 51.9111ZM317.859 83.6982C317.996 83.4248 318.133 82.6045 318.269 81.2373C318.474 79.8018 318.611 78.0928 318.679 76.1104C318.816 74.1279 318.885 72.0088 318.885 69.7529C318.953 67.4971 318.987 65.4121 318.987 63.498C318.987 61.584 318.919 59.9775 318.782 58.6787C318.645 57.3115 318.474 56.5254 318.269 56.3203C317.927 56.0469 317.415 55.9443 316.731 56.0127C316.116 56.0127 315.467 56.1152 314.783 56.3203C314.099 56.457 313.484 56.6621 312.937 56.9355C312.39 57.1406 312.014 57.3457 311.809 57.5508C310.921 58.3027 310.442 59.5332 310.374 61.2422C310.374 61.7207 310.305 63.0879 310.169 65.3438C310.1 67.5312 310.066 69.9238 310.066 72.5215C310.066 75.0508 310.1 77.4092 310.169 79.5967C310.305 81.7842 310.545 83.1172 310.886 83.5957C311.228 84.0742 311.707 84.4502 312.322 84.7236C313.006 84.9287 313.689 85.0312 314.373 85.0312C315.125 85.0312 315.808 84.9287 316.424 84.7236C317.107 84.4502 317.586 84.1084 317.859 83.6982Z" fill="#3E4140"/>
<path opacity="0.55" d="M294.607 63.9082C294.744 64.25 294.812 65.3438 294.812 67.1895C294.881 68.9668 294.881 71.1543 294.812 73.752C294.812 76.2812 294.744 79.0156 294.607 81.9551C294.471 84.8262 294.3 87.5605 294.095 90.1582C293.958 92.6875 293.787 94.875 293.582 96.7207C293.377 98.498 293.172 99.5576 292.967 99.8994C292.352 100.856 291.429 101.472 290.198 101.745C288.968 101.95 288.079 101.984 287.532 101.848C287.259 101.848 286.951 101.062 286.609 99.4893C286.336 97.917 286.062 95.9346 285.789 93.542C285.516 91.1494 285.276 88.5518 285.071 85.749C284.866 82.9463 284.695 80.2803 284.559 77.751C284.422 75.1533 284.354 72.8975 284.354 70.9834C284.354 69.0693 284.422 67.8389 284.559 67.292C284.764 66.4033 285.345 65.6172 286.302 64.9336C287.327 64.25 288.387 63.7373 289.48 63.3955C290.643 63.0537 291.702 62.917 292.659 62.9854C293.685 62.9854 294.334 63.293 294.607 63.9082ZM295.12 47.2969C295.394 47.8438 295.496 48.5957 295.428 49.5527C295.428 50.5098 295.325 51.501 295.12 52.5264C294.915 53.5518 294.642 54.543 294.3 55.5C293.958 56.457 293.616 57.209 293.274 57.7559C292.591 58.7129 291.565 59.3281 290.198 59.6016C288.899 59.8066 287.942 59.8408 287.327 59.7041C286.849 59.6357 286.37 59.3281 285.892 58.7812C285.413 58.166 285.003 57.4482 284.661 56.6279C284.319 55.7393 284.08 54.7822 283.943 53.7568C283.807 52.7314 283.841 51.7744 284.046 50.8857C284.251 49.9971 284.9 49.2109 285.994 48.5273C287.088 47.7754 288.25 47.2285 289.48 46.8867C290.711 46.4766 291.873 46.3057 292.967 46.374C294.061 46.374 294.778 46.6816 295.12 47.2969Z" fill="#3E4140"/>
<path opacity="0.55" d="M281.609 55.2949C281.678 55.5 281.678 56.0811 281.609 57.0381C281.541 57.9268 281.404 58.9521 281.199 60.1143C281.062 61.208 280.892 62.2334 280.687 63.1904C280.481 64.0791 280.311 64.626 280.174 64.8311C279.49 64.8994 278.807 64.9336 278.123 64.9336C277.439 64.8652 276.79 64.8311 276.175 64.8311H274.021C273.953 69.3428 273.851 73.8203 273.714 78.2637C273.577 82.707 273.406 86.7061 273.201 90.2607C272.996 93.7471 272.757 96.584 272.483 98.7715C272.278 100.959 272.073 102.087 271.868 102.155C271.39 102.224 270.843 102.019 270.228 101.54C269.612 101.062 268.997 100.48 268.382 99.7969C267.835 99.0449 267.322 98.293 266.844 97.541C266.434 96.7207 266.194 96.0029 266.126 95.3877C265.784 91.2178 265.477 87.2529 265.203 83.4932C264.93 79.665 264.725 76.2812 264.588 73.3418C264.314 69.9238 264.144 66.7451 264.075 63.8057C263.323 63.7373 262.571 63.6348 261.819 63.498C261.136 63.3613 260.418 63.2246 259.666 63.0879C258.982 62.9512 258.265 62.8145 257.513 62.6777C257.376 62.541 257.205 62.2334 257 61.7549C256.795 61.208 256.59 60.627 256.385 60.0117C256.248 59.3965 256.111 58.8154 255.975 58.2686C255.838 57.6533 255.77 57.209 255.77 56.9355C255.77 56.7305 256.521 56.5254 258.025 56.3203C259.598 56.1152 261.512 55.9443 263.768 55.8076C263.631 52.1846 263.528 49.04 263.46 46.374C263.46 43.6396 263.562 41.7939 263.768 40.8369C263.973 39.5381 264.52 38.3076 265.408 37.1455C266.365 35.915 267.356 34.8555 268.382 33.9668C269.476 33.0781 270.467 32.4287 271.355 32.0186C272.312 31.54 272.928 31.4033 273.201 31.6084C273.406 31.7451 273.577 32.4629 273.714 33.7617C273.851 34.9922 273.953 36.667 274.021 38.7861C274.09 40.9053 274.124 43.4004 274.124 46.2715C274.124 49.0742 274.124 52.0479 274.124 55.1924C276.175 55.0557 277.918 55.0215 279.354 55.0898C280.789 55.0898 281.541 55.1582 281.609 55.2949Z" fill="#3E4140"/>
<path opacity="0.55" d="M251.282 54.0645C251.693 54.543 252.069 55.0557 252.41 55.6026C252.752 56.0811 253.06 56.7647 253.333 57.6533C253.607 58.4737 253.812 59.5674 253.948 60.9346C254.154 62.3018 254.256 64.0791 254.256 66.2666C254.256 69.753 254.154 73.2735 253.948 76.8281C253.812 80.3145 253.675 83.3906 253.538 86.0567C253.47 88.4492 253.402 90.6709 253.333 92.7217C253.265 94.7725 253.197 96.584 253.128 98.1563C253.06 99.6602 252.957 100.856 252.821 101.745C252.752 102.634 252.684 103.112 252.615 103.181C252.342 103.386 251.898 103.317 251.282 102.976C250.736 102.565 250.12 102.053 249.437 101.438C248.822 100.822 248.24 100.173 247.694 99.4893C247.147 98.8057 246.805 98.2588 246.668 97.8487C246.668 97.5069 246.566 96.5156 246.361 94.875C244.72 95.8321 242.908 96.5156 240.926 96.9258C238.944 97.2676 236.961 97.4043 234.979 97.336C233.065 97.1992 231.287 96.8233 229.647 96.208C228.006 95.5928 226.776 94.7725 225.955 93.7471C225.614 93.3369 225.306 92.7217 225.032 91.9014C224.827 91.0811 224.622 90.1582 224.417 89.1328C224.281 88.0391 224.144 86.9112 224.007 85.749C223.87 84.5186 223.768 83.3906 223.699 82.3653C223.563 79.6992 223.905 77.4092 224.725 75.4951C225.545 73.5127 227.049 72.043 229.237 71.086C230.194 70.6758 231.458 70.4707 233.031 70.4707C234.671 70.4024 236.278 70.4707 237.85 70.6758C239.49 70.8125 240.96 71.0176 242.259 71.291C243.558 71.4961 244.378 71.667 244.72 71.8037C244.447 68.3174 244.241 65.3096 244.105 62.7803C243.968 60.1826 243.695 58.5078 243.284 57.7559C242.943 57.2774 242.532 56.7988 242.054 56.3203C241.644 55.9785 241.097 55.6026 240.413 55.1924C239.73 54.7822 238.909 54.4746 237.952 54.2696C237.2 54.1328 236.517 54.4404 235.902 55.1924C235.355 55.876 234.842 57.1065 234.364 58.8838C233.953 60.5928 233.714 63.2246 233.646 66.7793C231.253 66.8477 229.407 66.8477 228.109 66.7793C226.878 66.6426 225.955 66.5059 225.34 66.3692C224.588 66.2324 224.144 66.0615 224.007 65.8565C223.87 65.583 223.939 64.5918 224.212 62.8828C224.486 61.1055 224.862 59.1914 225.34 57.1406C225.887 55.0899 226.502 53.1416 227.186 51.2959C227.938 49.4502 228.724 48.2881 229.544 47.8096C231.185 46.8526 233.133 46.5108 235.389 46.7842C237.713 47.0576 239.969 47.6387 242.156 48.5274C244.344 49.416 246.292 50.4072 248.001 51.501C249.71 52.5947 250.804 53.4492 251.282 54.0645ZM244.925 84.0059C244.925 83.6641 244.959 83.2197 245.028 82.6729C245.096 82.0576 245.13 81.4424 245.13 80.8272C245.13 80.2119 245.096 79.6309 245.028 79.084C245.028 78.5371 244.959 78.127 244.823 77.8535C244.617 77.4434 244.002 77.1016 242.977 76.8281C242.02 76.5547 240.926 76.3838 239.696 76.3155C238.465 76.1787 237.303 76.1446 236.209 76.2129C235.115 76.2129 234.364 76.3496 233.953 76.6231C233.406 76.9649 232.996 77.4434 232.723 78.0586C232.518 78.6738 232.381 79.6309 232.313 80.9297C232.313 81.5449 232.347 82.1944 232.415 82.8779C232.484 83.5615 232.552 84.2451 232.62 84.9287C232.757 85.544 232.894 86.0908 233.031 86.5694C233.236 87.0479 233.441 87.3555 233.646 87.4922C234.124 87.834 234.945 88.1416 236.107 88.4151C237.337 88.6201 238.568 88.6885 239.798 88.6201C241.029 88.4834 242.156 88.0733 243.182 87.3897C244.207 86.7061 244.788 85.5781 244.925 84.0059Z" fill="#3E4140"/>
<path opacity="0.55" d="M216.341 47.2969C217.64 48.3906 218.597 50.5781 219.212 53.8594C219.828 57.0723 220.067 60.6611 219.93 64.626C219.862 65.8564 219.691 67.5654 219.417 69.7529C219.144 71.8721 218.802 74.2305 218.392 76.8281C218.05 79.3574 217.64 81.9551 217.162 84.6211C216.751 87.2871 216.341 89.748 215.931 92.0039C215.521 94.2598 215.145 96.1738 214.803 97.7461C214.53 99.25 214.359 100.139 214.291 100.412C214.154 100.891 213.778 101.369 213.163 101.848C212.547 102.326 211.898 102.736 211.214 103.078C210.599 103.352 209.984 103.557 209.369 103.693C208.753 103.762 208.377 103.625 208.241 103.283C208.172 103.078 208.172 102.019 208.241 100.104C208.309 98.1904 208.412 95.832 208.548 93.0293C208.685 90.1582 208.822 87.1162 208.958 83.9033C209.164 80.6221 209.334 77.5459 209.471 74.6748C209.608 71.8037 209.745 69.377 209.881 67.3945C210.018 65.3438 210.086 64.1133 210.086 63.7031C210.155 61.584 209.984 59.7383 209.574 58.166C209.164 56.5254 208.48 55.7051 207.523 55.7051C207.181 55.7051 206.771 55.876 206.292 56.2178C205.814 56.4912 205.335 56.833 204.857 57.2432C204.447 57.6533 204.037 58.0977 203.626 58.5762C203.285 59.0547 203.114 59.499 203.114 59.9092C203.045 61.1396 202.943 62.9512 202.806 65.3438C202.738 67.7363 202.635 70.3682 202.499 73.2393C202.43 76.1104 202.328 79.0498 202.191 82.0576C202.123 85.0654 202.02 87.834 201.883 90.3633C201.815 92.8926 201.747 95.0117 201.678 96.7207C201.61 98.3613 201.542 99.2842 201.473 99.4893C201.336 99.7627 200.892 99.9678 200.14 100.104C199.457 100.173 198.67 100.173 197.782 100.104C196.893 100.036 196.073 99.8652 195.321 99.5918C194.637 99.3184 194.227 98.9424 194.09 98.4639C193.954 98.1221 193.851 97.0967 193.783 95.3877C193.714 93.6104 193.612 91.4912 193.475 89.0303C193.407 86.5693 193.338 83.9375 193.27 81.1348C193.202 78.2637 193.133 75.5977 193.065 73.1367C192.997 70.6758 192.928 68.5566 192.86 66.7793C192.86 65.002 192.86 63.9082 192.86 63.498C192.86 61.8574 192.723 60.5586 192.45 59.6016C192.176 58.5762 191.834 57.79 191.424 57.2432C191.083 56.6279 190.672 56.252 190.194 56.1152C189.715 55.9102 189.237 55.8076 188.758 55.8076C188.553 55.8076 188.246 55.9785 187.835 56.3203C187.425 56.5938 187.015 57.0381 186.605 57.6533C186.195 58.2002 185.853 58.8496 185.58 59.6016C185.306 60.2852 185.204 61.0371 185.272 61.8574C185.272 62.1992 185.306 63.4639 185.375 65.6514C185.443 67.8389 185.477 70.4707 185.477 73.5469C185.545 76.623 185.614 79.9385 185.682 83.4932C185.75 87.0479 185.785 90.3633 185.785 93.4395C185.853 96.4473 185.887 99.0107 185.887 101.13C185.887 103.181 185.887 104.274 185.887 104.411C185.75 104.753 185.375 104.958 184.759 105.026C184.144 105.026 183.46 104.89 182.708 104.616C181.957 104.343 181.239 103.967 180.555 103.488C179.872 102.941 179.393 102.292 179.12 101.54C178.983 100.993 178.778 99.7969 178.504 97.9512C178.231 96.1055 177.923 93.918 177.582 91.3887C177.24 88.791 176.898 86.0225 176.556 83.083C176.214 80.0752 175.873 77.2041 175.531 74.4697C175.189 71.667 174.881 69.1377 174.608 66.8818C174.403 64.626 174.232 62.917 174.095 61.7549C173.89 60.1143 173.651 58.3369 173.377 56.4229C173.172 54.4404 172.967 52.5605 172.762 50.7832C172.625 48.9375 172.523 47.3652 172.455 46.0664C172.386 44.6992 172.455 43.8447 172.66 43.5029C172.796 43.2295 173.275 43.127 174.095 43.1953C174.984 43.2637 175.907 43.4688 176.864 43.8105C177.889 44.084 178.846 44.4941 179.735 45.041C180.692 45.5195 181.307 46.0322 181.581 46.5791C181.786 46.9893 181.991 47.502 182.196 48.1172C182.469 48.6641 182.743 49.5527 183.016 50.7832C184.178 49.8945 185.375 49.0742 186.605 48.3223C187.835 47.502 189.066 46.8867 190.296 46.4766C191.527 45.998 192.689 45.7588 193.783 45.7588C194.945 45.6904 196.039 45.998 197.064 46.6816C197.953 47.3652 198.807 48.5615 199.627 50.2705C202.909 48.4248 206.053 47.1602 209.061 46.4766C212.137 45.7246 214.564 45.998 216.341 47.2969Z" fill="#3E4140"/>
<path opacity="0.55" d="M166.942 52.1162C167.489 52.458 168.002 53.1416 168.48 54.167C169.027 55.124 169.506 56.252 169.916 57.5508C170.394 58.7812 170.77 60.1143 171.044 61.5498C171.385 62.9854 171.659 64.3184 171.864 65.5488C172.137 66.7793 172.308 67.8389 172.377 68.7275C172.445 69.5479 172.445 70.0605 172.377 70.2656C172.24 70.5391 171.83 70.8125 171.146 71.0859C170.531 71.3594 169.608 71.667 168.378 72.0088C167.147 72.3506 165.438 72.7266 163.251 73.1367C163.114 69.377 162.841 66.54 162.43 64.626C162.02 62.6436 161.576 61.2422 161.097 60.4219C160.551 59.4648 159.969 58.9863 159.354 58.9863C158.739 59.2598 158.192 59.6016 157.714 60.0117C157.235 60.3535 156.825 60.7295 156.483 61.1396C156.073 61.6182 155.697 62.1309 155.355 62.6777C155.219 62.8828 155.082 63.3613 154.945 64.1133C154.808 64.8652 154.672 65.9932 154.535 67.4971C154.535 67.9756 154.501 68.9668 154.432 70.4707C154.432 71.9746 154.398 73.7178 154.33 75.7002C154.33 77.6826 154.296 79.7676 154.227 81.9551C154.227 84.1426 154.193 86.1934 154.125 88.1074C154.125 89.9531 154.091 91.5254 154.022 92.8242C154.022 94.123 153.988 94.875 153.92 95.0801C153.783 95.4219 153.441 95.9004 152.894 96.5156C152.347 97.1309 151.732 97.7119 151.049 98.2588C150.365 98.7373 149.716 99.1475 149.1 99.4893C148.485 99.7627 148.075 99.7285 147.87 99.3867C147.665 99.1816 147.46 98.293 147.255 96.7207C147.05 95.1484 146.81 93.2344 146.537 90.9785C146.332 88.6543 146.093 86.125 145.819 83.3906C145.546 80.6562 145.306 78.0244 145.101 75.4951C144.896 72.9658 144.725 70.71 144.589 68.7275C144.452 66.6768 144.349 65.207 144.281 64.3184C144.213 63.0195 144.144 61.584 144.076 60.0117C144.008 58.4395 143.939 56.9697 143.871 55.6025C143.871 54.167 143.871 52.9365 143.871 51.9111C143.939 50.8174 144.076 50.168 144.281 49.9629C144.418 49.7578 144.862 49.7236 145.614 49.8604C146.434 49.9287 147.289 50.1338 148.177 50.4756C149.135 50.749 150.023 51.125 150.844 51.6035C151.664 52.082 152.211 52.5264 152.484 52.9365C152.689 53.2783 152.894 53.791 153.099 54.4746C154.398 53.791 155.629 53.1758 156.791 52.6289C158.021 52.0137 159.183 51.5693 160.277 51.2959C161.439 51.0225 162.567 50.9541 163.661 51.0908C164.755 51.1592 165.848 51.501 166.942 52.1162Z" fill="#3E4140"/>
<path opacity="0.55" d="M135.18 51.9111C135.658 52.3213 136.103 53.1074 136.513 54.2695C136.991 55.4316 137.401 56.833 137.743 58.4736C138.085 60.1143 138.393 61.8916 138.666 63.8057C138.939 65.7197 139.179 67.5996 139.384 69.4453C139.589 71.291 139.726 73.0342 139.794 74.6748C139.931 76.2471 140.033 77.5459 140.102 78.5713C140.17 79.8018 140.204 81.1006 140.204 82.4678C140.272 83.7666 140.272 85.0312 140.204 86.2617C140.204 87.4238 140.136 88.4834 139.999 89.4404C139.931 90.3975 139.794 91.1152 139.589 91.5938C139.179 92.6191 138.461 93.3369 137.436 93.7471C136.479 94.0889 135.385 94.3281 134.154 94.4648C133.539 94.5332 132.479 94.5674 130.976 94.5674C129.54 94.499 127.968 94.4307 126.259 94.3623C124.618 94.2256 123.046 94.0889 121.542 93.9521C120.038 93.8154 118.91 93.6787 118.158 93.542C116.654 93.2002 115.561 92.7559 114.877 92.209C114.262 91.6621 113.646 90.876 113.031 89.8506C112.826 89.4404 112.655 88.415 112.519 86.7744C112.382 85.0654 112.279 83.0488 112.211 80.7246C112.211 78.332 112.245 75.7686 112.313 73.0342C112.382 70.2998 112.484 67.7021 112.621 65.2412C112.826 62.7803 113.031 60.627 113.236 58.7812C113.51 56.9355 113.852 55.7051 114.262 55.0898C114.945 54.1328 116.107 53.2441 117.748 52.4238C119.457 51.6035 120.995 50.9541 122.362 50.4756C123.046 50.2705 123.935 50.1338 125.028 50.0654C126.19 49.9287 127.387 49.9287 128.617 50.0654C129.916 50.1338 131.146 50.3389 132.309 50.6807C133.471 50.9541 134.428 51.3643 135.18 51.9111ZM129.438 83.6982C129.574 83.4248 129.711 82.6045 129.848 81.2373C130.053 79.8018 130.189 78.0928 130.258 76.1104C130.395 74.1279 130.463 72.0088 130.463 69.7529C130.531 67.4971 130.565 65.4121 130.565 63.498C130.565 61.584 130.497 59.9775 130.36 58.6787C130.224 57.3115 130.053 56.5254 129.848 56.3203C129.506 56.0469 128.993 55.9443 128.31 56.0127C127.694 56.0127 127.045 56.1152 126.361 56.3203C125.678 56.457 125.062 56.6621 124.516 56.9355C123.969 57.1406 123.593 57.3457 123.388 57.5508C122.499 58.3027 122.021 59.5332 121.952 61.2422C121.952 61.7207 121.884 63.0879 121.747 65.3438C121.679 67.5312 121.645 69.9238 121.645 72.5215C121.645 75.0508 121.679 77.4092 121.747 79.5967C121.884 81.7842 122.123 83.1172 122.465 83.5957C122.807 84.0742 123.285 84.4502 123.9 84.7236C124.584 84.9287 125.268 85.0312 125.951 85.0312C126.703 85.0312 127.387 84.9287 128.002 84.7236C128.686 84.4502 129.164 84.1084 129.438 83.6982Z" fill="#3E4140"/>
<path opacity="0.55" d="M111.312 39.709C111.654 40.4609 111.962 41.3838 112.235 42.4775C112.509 43.5713 112.68 44.665 112.748 45.7588C112.885 46.7842 112.919 47.6728 112.851 48.4248C112.782 49.1767 112.543 49.5869 112.133 49.6553C111.723 49.6553 110.868 49.2451 109.569 48.4248C108.271 47.5361 106.869 46.6816 105.365 45.8613C103.861 44.9726 102.46 44.289 101.161 43.8105C99.8623 43.2636 99.0762 43.3662 98.8027 44.1181C98.5977 44.665 98.4609 45.5879 98.3926 46.8867C98.3242 48.1855 98.2559 49.792 98.1875 51.706C98.1875 53.5517 98.1875 55.6709 98.1875 58.0635C98.2559 60.3877 98.3242 62.8486 98.3926 65.4463C100.443 65.2412 102.255 65.1045 103.827 65.0361C105.468 64.9678 106.527 65.0019 107.006 65.1386C107.621 65.3437 108.1 65.8906 108.441 66.7793C108.852 67.5996 109.091 68.5224 109.159 69.5478C109.296 70.5732 109.262 71.5303 109.057 72.4189C108.92 73.3076 108.612 73.8886 108.134 74.1621C107.792 74.3672 106.698 74.5039 104.853 74.5722C103.075 74.6406 101.024 74.6406 98.7002 74.5722C98.8369 78.0586 98.9736 81.5107 99.1104 84.9287C99.3154 88.2783 99.4863 91.3545 99.623 94.1572C99.7598 96.9599 99.8623 99.3867 99.9307 101.437C100.067 103.42 100.136 104.821 100.136 105.642C100.136 106.667 99.8281 107.145 99.2129 107.077C98.666 106.94 97.9824 106.496 97.1621 105.744C96.3418 104.924 95.4531 103.898 94.4961 102.668C93.6074 101.437 92.8555 100.207 92.2402 98.9765C91.8984 98.3613 91.5908 97.2676 91.3174 95.6953C91.0439 94.123 90.7705 92.2431 90.4971 90.0556C90.2236 87.7998 89.9502 85.3047 89.6768 82.5703C89.4033 79.8359 89.1641 76.999 88.959 74.0595C87.5918 73.9228 86.3955 73.7861 85.3701 73.6494C84.4131 73.5127 83.832 73.376 83.627 73.2392C83.2852 72.9658 83.0459 72.624 82.9092 72.2138C82.8408 71.7353 82.7725 71.2568 82.7041 70.7783C82.7041 70.2998 82.7041 69.8554 82.7041 69.4453C82.7725 68.9668 82.8408 68.5908 82.9092 68.3174C83.0459 68.1123 83.5928 67.873 84.5498 67.5996C85.5752 67.3261 86.874 67.0527 88.4463 66.7793C88.2412 64.1816 88.0703 61.6523 87.9336 59.1914C87.8652 56.7304 87.7969 54.4746 87.7285 52.4238C87.6602 50.3047 87.5918 48.4931 87.5234 46.9892C87.5234 45.417 87.5576 44.2207 87.626 43.4004C87.626 42.7851 88.002 41.9306 88.7539 40.8369C89.5742 39.6748 90.4971 38.5127 91.5225 37.3506C92.6162 36.1885 93.71 35.1289 94.8037 34.1719C95.9658 33.2148 96.8887 32.5654 97.5723 32.2236C99.1445 31.4717 100.683 31.3008 102.187 31.7109C103.69 32.1211 105.058 32.8388 106.288 33.8642C107.519 34.8213 108.578 35.8808 109.467 37.0429C110.355 38.1367 110.971 39.0254 111.312 39.709Z" fill="#3E4140"/>
<path opacity="0.55" d="M81.0881 65.0361C81.0881 66.1299 80.9514 67.7021 80.678 69.7529C80.4729 71.8037 80.1653 74.0596 79.7551 76.5205C79.345 78.9131 78.9006 81.4082 78.4221 84.0059C78.012 86.5352 77.5676 88.8594 77.0891 90.9785C76.679 93.0977 76.303 94.875 75.9612 96.3105C75.6877 97.7461 75.5168 98.5322 75.4485 98.6689C75.3118 98.874 74.9358 99.0107 74.3206 99.0791C73.7737 99.0791 73.1243 99.0107 72.3723 98.874C71.6887 98.7373 71.0393 98.5322 70.4241 98.2588C69.8772 97.9854 69.5354 97.6436 69.3987 97.2334C69.3303 96.96 69.2961 96.0029 69.2961 94.3623C69.3645 92.7217 69.4329 90.7734 69.5012 88.5176C69.6379 86.1934 69.7747 83.7324 69.9114 81.1348C70.0481 78.4688 70.1848 76.0078 70.3215 73.752C70.5266 71.4277 70.6633 69.4453 70.7317 67.8047C70.8684 66.1641 70.9368 65.1729 70.9368 64.8311C70.9368 63.6006 70.8 62.4385 70.5266 61.3447C70.3215 60.1826 70.0481 59.1914 69.7063 58.3711C69.3645 57.5508 68.9543 56.9355 68.4758 56.5254C68.0657 56.0469 67.6897 55.876 67.3479 56.0127C66.4592 56.1494 65.7073 56.3887 65.092 56.7305C64.4768 57.0039 63.9641 57.3115 63.554 57.6533C63.0754 58.0635 62.6995 58.542 62.426 59.0889C62.3577 59.2256 62.2209 59.6357 62.0159 60.3193C61.8792 61.0029 61.8108 61.7891 61.8108 62.6777C61.8108 62.9512 61.8108 63.9424 61.8108 65.6514C61.8108 67.292 61.7766 69.2744 61.7083 71.5986C61.7083 73.9229 61.6741 76.4521 61.6057 79.1865C61.6057 81.8525 61.5715 84.3477 61.5032 86.6719C61.5032 88.9277 61.469 90.876 61.4006 92.5166C61.3323 94.1572 61.2639 95.0801 61.1956 95.2852C61.0588 95.6953 60.717 96.2764 60.1702 97.0283C59.6233 97.7119 59.0081 98.3613 58.3245 98.9766C57.6409 99.5918 56.9915 100.07 56.3762 100.412C55.761 100.686 55.3508 100.617 55.1458 100.207C54.9407 100.002 54.7356 99.0107 54.5305 97.2334C54.3254 95.3877 54.0862 93.166 53.8127 90.5684C53.6077 87.9023 53.3684 85.0312 53.095 81.9551C52.8215 78.8105 52.5823 75.8027 52.3772 72.9316C52.1721 70.0605 52.0012 67.4629 51.8645 65.1387C51.7278 62.8145 51.6252 61.1396 51.5569 60.1143C51.4885 58.6787 51.4202 57.0723 51.3518 55.2949C51.2834 53.4492 51.2151 51.7402 51.1467 50.168C51.1467 48.5273 51.1467 47.126 51.1467 45.9639C51.2151 44.7334 51.3518 43.9814 51.5569 43.708C51.6936 43.4346 52.1379 43.3662 52.8899 43.5029C53.7102 43.6396 54.5647 43.9131 55.4534 44.3232C56.4104 44.665 57.2991 45.1094 58.1194 45.6562C58.9397 46.1348 59.4866 46.6133 59.76 47.0918C59.8967 47.502 60.0676 47.9805 60.2727 48.5273C60.4778 49.0059 60.6487 49.8262 60.7854 50.9883C61.9475 50.3047 63.2122 49.6895 64.5793 49.1426C65.9465 48.5273 67.2795 48.083 68.5784 47.8096C69.9456 47.4678 71.2444 47.3652 72.4749 47.502C73.7053 47.5703 74.7991 47.9121 75.7561 48.5273C76.3713 49.0059 76.9866 49.8262 77.6018 50.9883C78.2854 52.1504 78.8665 53.5176 79.345 55.0898C79.8918 56.6621 80.302 58.3369 80.5754 60.1143C80.9172 61.8232 81.0881 63.4639 81.0881 65.0361Z" fill="#3E4140"/>
<path opacity="0.55" d="M49.1206 44.2207C47.9585 44.2891 46.7964 44.3232 45.6343 44.3232C44.5405 44.2549 43.5151 44.2207 42.5581 44.2207C41.4644 44.2207 40.439 44.1865 39.4819 44.1182C39.6187 47.7412 39.6528 51.9795 39.5845 56.833C39.5845 61.6182 39.5161 66.54 39.3794 71.5986C39.311 76.6572 39.1743 81.6133 38.9692 86.4668C38.8325 91.252 38.6616 95.4902 38.4565 99.1816C41.0542 99.1133 43.3442 99.1133 45.3267 99.1816C47.3091 99.25 48.3687 99.3525 48.5054 99.4893C48.6421 99.6943 48.6421 100.378 48.5054 101.54C48.3687 102.634 48.1636 103.864 47.8901 105.231C47.6167 106.53 47.3433 107.727 47.0698 108.82C46.7964 109.982 46.5913 110.7 46.4546 110.974C44.5405 111.042 42.7632 111.042 41.1226 110.974C39.5503 110.974 38.1831 110.905 37.021 110.769C35.6538 110.7 34.4233 110.598 33.3296 110.461C32.2358 110.256 31.0737 110.017 29.8433 109.743C28.8179 109.47 27.6216 109.128 26.2544 108.718C24.9556 108.308 23.6226 107.795 22.2554 107.18C21.9819 107.043 21.6401 106.667 21.23 106.052C20.8882 105.437 20.5122 104.787 20.1021 104.104C19.7603 103.352 19.4868 102.634 19.2817 101.95C19.0083 101.267 18.8716 100.788 18.8716 100.515C18.8716 100.446 19.1792 100.378 19.7944 100.31C20.4097 100.173 21.2642 100.07 22.3579 100.002C23.4517 99.8652 24.6821 99.7627 26.0493 99.6943C27.4165 99.5576 28.8862 99.4551 30.4585 99.3867C30.3218 97.4043 30.1167 94.8066 29.8433 91.5938C29.6382 88.3125 29.3989 84.792 29.1255 81.0322C28.9204 77.2041 28.6812 73.3076 28.4077 69.3428C28.2026 65.3096 28.0317 61.584 27.895 58.166C27.7583 54.6797 27.6899 51.6377 27.6899 49.04C27.6899 46.4424 27.7925 44.6309 27.9976 43.6055C28.0659 43.4688 28.1001 43.3662 28.1001 43.2979C28.1001 43.1611 28.1343 43.0244 28.2026 42.8877L25.3315 42.1699C24.5112 41.9648 23.6226 41.7256 22.6655 41.4521C21.7085 41.1787 20.7515 40.8711 19.7944 40.5293C19.521 40.3926 19.1792 40.0166 18.769 39.4014C18.2905 38.7861 17.8462 38.1025 17.436 37.3506C16.9575 36.5986 16.5815 35.915 16.3081 35.2998C15.9663 34.6162 15.7954 34.1377 15.7954 33.8643C15.7954 33.7275 16.6841 33.5908 18.4614 33.4541C20.1704 33.249 22.3237 33.0781 24.9214 32.9414C27.519 32.8047 30.3218 32.7021 33.3296 32.6338C36.4058 32.5654 39.2427 32.5312 41.8403 32.5312C44.5063 32.5312 46.728 32.5654 48.5054 32.6338C50.3511 32.6338 51.3423 32.7021 51.479 32.8389C51.6841 33.0439 51.6841 33.7275 51.479 34.8896C51.3423 35.9834 51.103 37.2139 50.7612 38.5811C50.4878 39.8799 50.1802 41.1104 49.8384 42.2725C49.5649 43.3662 49.3257 44.0156 49.1206 44.2207Z" fill="#3E4140"/>
<path d="M97.2159 54.194L102.346 61.547C99.8949 63.428 95.8479 65.651 91.2879 67.931H93.5109V86.285H86.4999V70.211C83.3079 71.693 80.0589 73.118 77.2089 74.315L74.0169 68.615C82.3959 64.169 89.4639 59.609 97.2159 54.194ZM147.391 64.169L143.116 64.625L142.318 57.044L146.878 56.645L147.391 64.169ZM141.691 64.739L137.302 65.366L135.991 57.956L140.893 57.272L141.691 64.739ZM149.443 75.683L143.287 82.808C137.302 78.818 132.457 74.828 127.555 69.869L119.461 79.388L113.761 74.429L126.643 60.407C133.996 66.278 141.634 71.351 149.443 75.683ZM175.274 65.879L160.91 65.936L160.853 59.153L175.217 59.096L175.274 65.879ZM171.683 87.197L166.553 80.471C174.818 74.999 180.233 70.097 187.13 61.376L193.343 66.107C186.788 74.885 180.347 81.098 171.683 87.197ZM212.012 54.878V67.019C216.743 67.646 221.189 68.102 225.293 68.387L224.951 75.056C223.754 75.113 222.557 75.113 221.36 75.113C218.225 75.113 215.147 74.999 212.012 74.714V86.285H204.716V54.878H212.012ZM266.473 84.606H266.719C266.801 84.606 266.924 84.565 267.006 84.483L267.129 84.319C267.17 84.114 267.252 83.909 267.293 83.622L267.416 81.695C267.416 80.588 267.99 80.301 268.933 80.875C269.302 81.08 269.671 81.244 270.04 81.408C270.45 81.572 270.696 81.982 270.696 82.392C270.614 84.114 270.45 85.795 270.245 86.574C269.999 87.517 269.63 88.091 269.015 88.583C268.482 88.993 267.703 89.239 266.965 89.239H265.079C264.054 89.239 263.07 88.952 262.455 88.214C261.84 87.476 261.676 86.779 261.676 84.36V83.704C261.676 83.335 261.512 83.294 261.307 83.581C259.79 85.549 257.945 87.435 255.649 89.116C255.157 89.444 254.583 89.362 254.214 88.911C253.681 88.337 253.025 87.681 252.41 87.148C251.795 86.574 251.795 85.918 252.492 85.426L253.23 84.852C253.517 84.647 253.681 84.196 253.599 83.827C253.517 83.458 253.189 83.212 252.779 83.376C250.483 84.278 248.187 85.139 246.137 85.918C245.563 86.164 245.03 85.918 244.825 85.385L243.513 82.146C243.226 81.531 243.513 80.957 244.21 80.793L244.579 80.711C245.03 80.588 245.317 80.219 245.317 79.727V75.586C245.317 74.315 244.907 74.233 244.333 75.299L244.005 75.914C243.595 76.652 243.062 76.611 242.734 75.832C242.365 75.053 242.119 75.135 242.119 75.996V88.665C242.119 89.28 241.709 89.69 241.094 89.69H237.978C237.363 89.69 236.953 89.28 236.953 88.665V81.162C236.953 79.604 236.625 79.563 236.01 80.957L235.846 81.285C235.313 82.515 234.534 82.392 233.96 81.203C233.55 80.383 233.099 79.563 232.689 78.866C232.525 78.538 232.525 78.128 232.689 77.8C234.288 74.807 235.723 70.461 236.543 66.648C236.707 65.91 236.297 65.418 235.559 65.418H234.247C233.632 65.418 233.222 65.008 233.222 64.393V61.359C233.222 60.744 233.632 60.334 234.247 60.334H235.928C236.543 60.334 236.953 59.924 236.953 59.309V53.733C236.953 53.118 237.363 52.708 237.978 52.708H241.094C241.709 52.708 242.119 53.118 242.119 53.733V59.309C242.119 59.924 242.529 60.334 243.144 60.334H243.636C244.251 60.334 244.661 60.744 244.661 61.359V64.393C244.661 65.008 244.251 65.418 243.636 65.418H243.144C242.529 65.418 242.119 65.828 242.119 66.443V67.099C242.119 67.304 242.201 67.591 242.365 67.755C242.734 68.165 243.226 68.78 243.759 69.436C244.702 70.625 245.317 70.42 245.317 68.903V55.455C245.317 54.84 245.727 54.43 246.342 54.43H254.829C255.444 54.43 255.854 54.84 255.854 55.455V71.404C255.854 72.019 255.444 72.429 254.829 72.429H250.852C250.237 72.429 249.827 72.839 249.827 73.454V78.046C249.827 78.784 250.36 79.112 251.098 78.866C251.672 78.743 252.041 78.169 251.877 77.636V77.554C251.672 77.062 251.467 76.488 251.303 75.996V75.914C251.057 75.381 251.344 74.848 251.959 74.643L254.337 73.864C254.87 73.7 255.403 73.905 255.608 74.438C256.1 75.709 256.633 77.062 257.125 78.415C257.494 79.522 258.232 79.686 258.888 78.661C259.79 77.226 260.487 75.791 261.061 74.315C261.348 73.536 260.938 73.003 260.118 73.003H257.494C256.879 73.003 256.469 72.593 256.469 71.978V68.78C256.469 68.411 256.715 68.165 257.125 68.165C257.494 68.165 257.74 67.919 257.74 67.509V59.637C257.74 59.309 257.535 59.104 257.207 59.104C256.838 59.104 256.633 58.899 256.633 58.53V55.373C256.633 54.758 257.043 54.348 257.658 54.348H268.277C268.892 54.348 269.302 54.758 269.302 55.373V58.243C269.302 58.776 268.974 59.104 268.441 59.104C267.908 59.104 267.58 59.432 267.58 59.965V61.523C267.58 63.163 267.539 65.049 267.375 67.017C267.293 67.714 267.703 68.165 268.4 68.165H268.933C269.548 68.165 269.958 68.575 269.958 69.19V71.978C269.958 72.593 269.548 73.003 268.933 73.003H266.842C266.555 73.003 266.309 73.208 266.227 73.454L266.145 73.7C266.104 73.741 266.104 73.823 266.104 73.864L266.063 74.069V83.868C266.063 84.032 266.063 84.278 266.104 84.401C266.145 84.565 266.309 84.606 266.473 84.606ZM251.385 59.514C251.385 59.145 251.139 58.899 250.77 58.899H250.442C250.073 58.899 249.827 59.145 249.827 59.514V60.662C249.827 61.031 250.073 61.277 250.442 61.277H250.77C251.139 61.277 251.385 61.031 251.385 60.662V59.514ZM261.963 67.796C261.963 68.042 262.086 68.165 262.332 68.165C262.537 68.165 262.66 68.042 262.701 67.837C262.988 65.5 263.07 63.327 263.07 61.482V59.637C263.07 59.309 262.865 59.104 262.537 59.104C262.168 59.104 261.963 59.309 261.963 59.637V67.796ZM249.827 67.386C249.827 67.755 250.073 68.001 250.442 68.001H250.77C251.139 68.001 251.385 67.755 251.385 67.386V66.074C251.385 65.705 251.139 65.459 250.77 65.459H250.442C250.073 65.459 249.827 65.705 249.827 66.074V67.386ZM276.395 64.68H282.381L282.217 62.917H275.985V57.3H303.291V62.917H297.469L297.264 64.68H303.25L302.84 73.208H276.805L276.395 64.68ZM287.096 64.68H292.795L292.877 62.917H286.973L287.096 64.68ZM282.381 70.256H283.611V67.796H282.381V70.256ZM289.146 70.256H290.335V67.796H289.146V70.256ZM295.665 70.256H296.854V67.796H295.665V70.256ZM304.398 75.094V79.153H297.797C297.182 80.055 296.526 80.957 295.87 81.859L298.658 82.351L297.715 87.066C295.993 86.738 294.189 86.369 292.262 86.041C291.647 86.656 291.032 87.23 290.417 87.804L286.399 86.328C286.727 85.959 287.055 85.631 287.383 85.221C285.456 84.934 283.488 84.688 281.561 84.483L282.258 79.153H275.247V75.094H282.75L282.914 73.905L287.957 74.233L287.793 75.094H304.398ZM290.376 81.162C290.786 80.465 291.196 79.809 291.606 79.153H287.096L286.809 80.834C287.957 80.916 289.146 81.039 290.376 81.162Z" fill="white"/>
</svg>
