<svg width="375" height="136" viewBox="0 0 375 136" fill="none" xmlns="http://www.w3.org/2000/svg">
<rect width="375" height="136" transform="matrix(-1 0 0 1 375 0)" fill="#092622"/>
<path opacity="0.55" d="M348.81 62.1718C348.81 63.3385 348.664 65.0155 348.373 67.203C348.154 69.3905 347.826 71.7968 347.388 74.4218C346.951 76.9739 346.477 79.6353 345.966 82.4062C345.529 85.1041 345.055 87.5833 344.544 89.8437C344.107 92.1041 343.706 93.9999 343.341 95.5312C343.05 97.0624 342.867 97.901 342.794 98.0468C342.649 98.2655 342.248 98.4114 341.591 98.4843C341.008 98.4843 340.315 98.4114 339.513 98.2655C338.784 98.1197 338.091 97.901 337.435 97.6093C336.852 97.3176 336.487 96.953 336.341 96.5155C336.268 96.2239 336.232 95.203 336.232 93.453C336.305 91.703 336.378 89.6249 336.451 87.2187C336.597 84.7395 336.742 82.1145 336.888 79.3437C337.034 76.4999 337.18 73.8749 337.326 71.4687C337.544 68.9895 337.69 66.8749 337.763 65.1249C337.909 63.3749 337.982 62.3176 337.982 61.953C337.982 60.6405 337.836 59.401 337.544 58.2343C337.326 56.9947 337.034 55.9374 336.669 55.0624C336.305 54.1874 335.867 53.5312 335.357 53.0937C334.919 52.5833 334.518 52.401 334.154 52.5468C333.206 52.6926 332.404 52.9478 331.748 53.3124C331.091 53.6041 330.544 53.9322 330.107 54.2968C329.597 54.7343 329.195 55.2447 328.904 55.828C328.831 55.9739 328.685 56.4114 328.466 57.1405C328.32 57.8697 328.248 58.7083 328.248 59.6562C328.248 59.9478 328.248 61.0051 328.248 62.828C328.248 64.578 328.211 66.6926 328.138 69.1718C328.138 71.651 328.102 74.3489 328.029 77.2655C328.029 80.1093 327.992 82.7708 327.919 85.2499C327.919 87.6562 327.883 89.7343 327.81 91.4843C327.737 93.2343 327.664 94.2187 327.591 94.4374C327.445 94.8749 327.081 95.4947 326.498 96.2968C325.914 97.026 325.258 97.7187 324.529 98.3749C323.8 99.0312 323.107 99.5416 322.451 99.9062C321.794 100.198 321.357 100.125 321.138 99.6874C320.919 99.4687 320.701 98.4114 320.482 96.5155C320.263 94.5468 320.008 92.177 319.716 89.4062C319.498 86.5624 319.242 83.4999 318.951 80.2187C318.659 76.8645 318.404 73.6562 318.185 70.5937C317.966 67.5312 317.784 64.7603 317.638 62.2812C317.492 59.802 317.383 58.0155 317.31 56.9218C317.237 55.3905 317.164 53.677 317.091 51.7812C317.018 49.8124 316.945 47.9895 316.873 46.3124C316.873 44.5624 316.873 43.0676 316.873 41.828C316.945 40.5155 317.091 39.7135 317.31 39.4218C317.456 39.1301 317.93 39.0572 318.732 39.203C319.607 39.3489 320.518 39.6405 321.466 40.078C322.487 40.4426 323.435 40.9166 324.31 41.4999C325.185 42.0103 325.768 42.5208 326.06 43.0312C326.206 43.4687 326.388 43.9791 326.607 44.5624C326.826 45.0728 327.008 45.9478 327.154 47.1874C328.393 46.4583 329.742 45.802 331.201 45.2187C332.659 44.5624 334.081 44.0885 335.466 43.7968C336.925 43.4322 338.31 43.3228 339.623 43.4687C340.935 43.5416 342.102 43.9062 343.123 44.5624C343.779 45.0728 344.435 45.9478 345.091 47.1874C345.82 48.427 346.44 49.8853 346.951 51.5624C347.534 53.2395 347.972 55.026 348.263 56.9218C348.628 58.7447 348.81 60.4947 348.81 62.1718Z" fill="#3E4140"/>
<path opacity="0.55" d="M307.602 48.1719C308.112 48.6094 308.586 49.4479 309.024 50.6875C309.534 51.9271 309.972 53.4219 310.336 55.1719C310.701 56.9219 311.029 58.8177 311.321 60.8594C311.612 62.901 311.868 64.9062 312.086 66.875C312.305 68.8438 312.451 70.7031 312.524 72.4531C312.67 74.1302 312.779 75.5156 312.852 76.6094C312.925 77.9219 312.961 79.3073 312.961 80.7656C313.034 82.151 313.034 83.5 312.961 84.8125C312.961 86.0521 312.889 87.1823 312.743 88.2031C312.67 89.224 312.524 89.9896 312.305 90.5C311.868 91.5938 311.102 92.3594 310.008 92.7969C308.987 93.1615 307.821 93.4167 306.508 93.5625C305.852 93.6354 304.722 93.6719 303.118 93.6719C301.586 93.599 299.909 93.526 298.086 93.4531C296.336 93.3073 294.659 93.1615 293.055 93.0156C291.451 92.8698 290.248 92.724 289.446 92.5781C287.842 92.2135 286.675 91.7396 285.946 91.1562C285.29 90.5729 284.633 89.7344 283.977 88.6406C283.758 88.2031 283.576 87.1094 283.43 85.3594C283.284 83.5365 283.175 81.3854 283.102 78.9062C283.102 76.3542 283.139 73.6198 283.211 70.7031C283.284 67.7865 283.394 65.0156 283.54 62.3906C283.758 59.7656 283.977 57.4688 284.196 55.5C284.487 53.5312 284.852 52.2188 285.29 51.5625C286.019 50.5417 287.258 49.5938 289.008 48.7188C290.831 47.8438 292.472 47.151 293.93 46.6406C294.659 46.4219 295.607 46.276 296.774 46.2031C298.014 46.0573 299.29 46.0573 300.602 46.2031C301.987 46.276 303.3 46.4948 304.54 46.8594C305.779 47.151 306.8 47.5885 307.602 48.1719ZM301.477 82.0781C301.623 81.7865 301.769 80.9115 301.915 79.4531C302.133 77.9219 302.279 76.099 302.352 73.9844C302.498 71.8698 302.571 69.6094 302.571 67.2031C302.644 64.7969 302.68 62.5729 302.68 60.5312C302.68 58.4896 302.607 56.776 302.461 55.3906C302.316 53.9323 302.133 53.0938 301.915 52.875C301.55 52.5833 301.003 52.474 300.274 52.5469C299.618 52.5469 298.925 52.6562 298.196 52.875C297.467 53.0208 296.81 53.2396 296.227 53.5312C295.644 53.75 295.243 53.9688 295.024 54.1875C294.076 54.9896 293.566 56.3021 293.493 58.125C293.493 58.6354 293.42 60.0938 293.274 62.5C293.201 64.8333 293.165 67.3854 293.165 70.1562C293.165 72.8542 293.201 75.3698 293.274 77.7031C293.42 80.0365 293.675 81.4583 294.04 81.9688C294.404 82.4792 294.915 82.8802 295.571 83.1719C296.3 83.3906 297.029 83.5 297.758 83.5C298.56 83.5 299.29 83.3906 299.946 83.1719C300.675 82.8802 301.185 82.5156 301.477 82.0781Z" fill="#3E4140"/>
<path opacity="0.55" d="M276.675 60.9688C276.821 61.3333 276.894 62.5 276.894 64.4688C276.967 66.3646 276.967 68.6979 276.894 71.4688C276.894 74.1667 276.821 77.0833 276.675 80.2188C276.529 83.2812 276.347 86.1979 276.128 88.9688C275.982 91.6667 275.8 94 275.581 95.9688C275.363 97.8646 275.144 98.9948 274.925 99.3594C274.269 100.38 273.285 101.036 271.972 101.328C270.66 101.547 269.712 101.583 269.128 101.438C268.837 101.438 268.508 100.599 268.144 98.9219C267.852 97.2448 267.561 95.1302 267.269 92.5781C266.977 90.026 266.722 87.2552 266.503 84.2656C266.285 81.276 266.102 78.4323 265.956 75.7344C265.811 72.9635 265.738 70.5573 265.738 68.5156C265.738 66.474 265.811 65.1615 265.956 64.5781C266.175 63.6302 266.795 62.7917 267.816 62.0625C268.91 61.3333 270.04 60.7865 271.206 60.4219C272.446 60.0573 273.576 59.9115 274.597 59.9844C275.691 59.9844 276.383 60.3125 276.675 60.9688ZM277.222 43.25C277.514 43.8333 277.623 44.6354 277.55 45.6562C277.55 46.6771 277.441 47.7344 277.222 48.8281C277.003 49.9219 276.712 50.9792 276.347 52C275.982 53.0208 275.618 53.8229 275.253 54.4062C274.524 55.4271 273.43 56.0833 271.972 56.375C270.587 56.5938 269.566 56.6302 268.91 56.4844C268.399 56.4115 267.889 56.0833 267.378 55.5C266.868 54.8438 266.43 54.0781 266.066 53.2031C265.701 52.2552 265.446 51.2344 265.3 50.1406C265.154 49.0469 265.191 48.026 265.41 47.0781C265.628 46.1302 266.321 45.2917 267.488 44.5625C268.654 43.7604 269.894 43.1771 271.206 42.8125C272.519 42.375 273.758 42.1927 274.925 42.2656C276.092 42.2656 276.857 42.5938 277.222 43.25Z" fill="#3E4140"/>
<path opacity="0.55" d="M262.811 51.7813C262.884 52 262.884 52.6198 262.811 53.6407C262.738 54.5886 262.592 55.6823 262.373 56.9219C262.227 58.0886 262.045 59.1823 261.826 60.2032C261.608 61.1511 261.425 61.7344 261.28 61.9532C260.55 62.0261 259.821 62.0625 259.092 62.0625C258.363 61.9896 257.67 61.9532 257.014 61.9532H254.717C254.644 66.7657 254.535 71.5417 254.389 76.2813C254.243 81.0209 254.061 85.2865 253.842 89.0782C253.623 92.7969 253.368 95.823 253.076 98.1563C252.858 100.49 252.639 101.693 252.42 101.766C251.91 101.839 251.326 101.62 250.67 101.109C250.014 100.599 249.358 99.9792 248.701 99.25C248.118 98.448 247.571 97.6459 247.061 96.8438C246.623 95.9688 246.368 95.2032 246.295 94.5469C245.931 90.099 245.602 85.8698 245.311 81.8594C245.019 77.7761 244.8 74.1667 244.655 71.0313C244.363 67.3855 244.181 63.9948 244.108 60.8594C243.306 60.7865 242.503 60.6771 241.701 60.5313C240.972 60.3855 240.207 60.2396 239.405 60.0938C238.675 59.948 237.91 59.8021 237.108 59.6563C236.962 59.5105 236.78 59.1823 236.561 58.6719C236.342 58.0886 236.123 57.4688 235.905 56.8125C235.759 56.1563 235.613 55.5365 235.467 54.9532C235.321 54.2969 235.248 53.823 235.248 53.5313C235.248 53.3125 236.05 53.0938 237.655 52.875C239.332 52.6563 241.373 52.474 243.78 52.3282C243.634 48.4636 243.524 45.1094 243.451 42.2657C243.451 39.349 243.561 37.3803 243.78 36.3594C243.998 34.974 244.582 33.6615 245.53 32.4219C246.55 31.1094 247.608 29.9792 248.701 29.0313C249.868 28.0834 250.925 27.3907 251.873 26.9532C252.894 26.4428 253.55 26.2969 253.842 26.5157C254.061 26.6615 254.243 27.4271 254.389 28.8125C254.535 30.125 254.644 31.9115 254.717 34.1719C254.79 36.4323 254.826 39.0938 254.826 42.1563C254.826 45.1459 254.826 48.3178 254.826 51.6719C257.014 51.5261 258.873 51.4896 260.405 51.5625C261.936 51.5625 262.738 51.6355 262.811 51.7813Z" fill="#3E4140"/>
<path opacity="0.55" d="M230.462 50.4688C230.899 50.9792 231.3 51.5261 231.665 52.1094C232.03 52.6198 232.358 53.349 232.649 54.2969C232.941 55.1719 233.16 56.3386 233.306 57.7969C233.524 59.2553 233.634 61.1511 233.634 63.4844C233.634 67.2032 233.524 70.9584 233.306 74.7501C233.16 78.4688 233.014 81.7501 232.868 84.5938C232.795 87.1459 232.722 89.5157 232.649 91.7032C232.576 93.8907 232.504 95.823 232.431 97.5001C232.358 99.1042 232.248 100.38 232.103 101.328C232.03 102.276 231.957 102.787 231.884 102.859C231.592 103.078 231.118 103.005 230.462 102.641C229.879 102.203 229.222 101.656 228.493 101C227.837 100.344 227.217 99.6511 226.634 98.9219C226.05 98.1928 225.686 97.6094 225.54 97.1719C225.54 96.8073 225.431 95.7501 225.212 94.0001C223.462 95.0209 221.53 95.7501 219.415 96.1876C217.3 96.5521 215.186 96.698 213.071 96.6251C211.03 96.4792 209.134 96.0782 207.384 95.4219C205.634 94.7657 204.321 93.8907 203.446 92.7969C203.082 92.3594 202.754 91.7032 202.462 90.8282C202.243 89.9532 202.024 88.9688 201.806 87.8751C201.66 86.7084 201.514 85.5053 201.368 84.2657C201.222 82.9532 201.113 81.7501 201.04 80.6563C200.894 77.8126 201.259 75.3698 202.134 73.3282C203.009 71.2136 204.613 69.6459 206.946 68.6251C207.967 68.1876 209.316 67.9688 210.993 67.9688C212.743 67.8959 214.457 67.9688 216.134 68.1876C217.884 68.3334 219.451 68.5521 220.837 68.8438C222.222 69.0626 223.097 69.2448 223.462 69.3907C223.17 65.6719 222.951 62.4636 222.806 59.7657C222.66 56.9948 222.368 55.2084 221.931 54.4063C221.566 53.8959 221.129 53.3855 220.618 52.8751C220.181 52.5105 219.597 52.1094 218.868 51.6719C218.139 51.2344 217.264 50.9063 216.243 50.6876C215.441 50.5417 214.712 50.8698 214.056 51.6719C213.472 52.4011 212.925 53.7136 212.415 55.6094C211.978 57.4323 211.722 60.2396 211.649 64.0313C209.097 64.1042 207.129 64.1042 205.743 64.0313C204.431 63.8855 203.446 63.7396 202.79 63.5938C201.988 63.448 201.514 63.2657 201.368 63.0469C201.222 62.7553 201.295 61.698 201.587 59.8751C201.879 57.9792 202.28 55.9376 202.79 53.7501C203.373 51.5626 204.03 49.4844 204.759 47.5157C205.561 45.5469 206.399 44.3073 207.274 43.7969C209.024 42.7761 211.103 42.4115 213.509 42.7032C215.988 42.9948 218.394 43.6146 220.728 44.5626C223.061 45.5105 225.139 46.5678 226.962 47.7344C228.785 48.9011 229.951 49.8126 230.462 50.4688ZM223.681 82.4063C223.681 82.0417 223.717 81.5678 223.79 80.9844C223.863 80.3282 223.899 79.6719 223.899 79.0157C223.899 78.3594 223.863 77.7396 223.79 77.1563C223.79 76.573 223.717 76.1355 223.571 75.8438C223.353 75.4063 222.696 75.0417 221.603 74.7501C220.582 74.4584 219.415 74.2761 218.103 74.2032C216.79 74.0573 215.55 74.0209 214.384 74.0938C213.217 74.0938 212.415 74.2396 211.978 74.5313C211.394 74.8959 210.957 75.4063 210.665 76.0626C210.446 76.7188 210.3 77.7396 210.228 79.1251C210.228 79.7813 210.264 80.474 210.337 81.2032C210.41 81.9323 210.483 82.6615 210.556 83.3907C210.701 84.0469 210.847 84.6303 210.993 85.1407C211.212 85.6511 211.431 85.9792 211.649 86.1251C212.16 86.4896 213.035 86.8178 214.274 87.1094C215.587 87.3282 216.899 87.4011 218.212 87.3282C219.524 87.1823 220.728 86.7448 221.821 86.0157C222.915 85.2865 223.535 84.0834 223.681 82.4063Z" fill="#3E4140"/>
<path opacity="0.55" d="M193.191 43.2499C194.577 44.4166 195.598 46.7499 196.254 50.2499C196.91 53.677 197.165 57.5051 197.02 61.7343C196.947 63.0468 196.764 64.8697 196.473 67.203C196.181 69.4634 195.816 71.9791 195.379 74.7499C195.014 77.4478 194.577 80.2187 194.066 83.0624C193.629 85.9062 193.191 88.5312 192.754 90.9374C192.316 93.3437 191.915 95.3853 191.551 97.0624C191.259 98.6666 191.077 99.6145 191.004 99.9062C190.858 100.417 190.457 100.927 189.801 101.437C189.145 101.948 188.452 102.385 187.723 102.75C187.066 103.042 186.41 103.26 185.754 103.406C185.098 103.479 184.697 103.333 184.551 102.969C184.478 102.75 184.478 101.62 184.551 99.578C184.624 97.5364 184.733 95.0207 184.879 92.0312C185.025 88.9687 185.171 85.7239 185.316 82.2968C185.535 78.7968 185.717 75.5155 185.863 72.453C186.009 69.3905 186.155 66.802 186.301 64.6874C186.447 62.4999 186.52 61.1874 186.52 60.7499C186.592 58.4895 186.41 56.5207 185.973 54.8437C185.535 53.0937 184.806 52.2187 183.785 52.2187C183.421 52.2187 182.983 52.4009 182.473 52.7655C181.962 53.0572 181.452 53.4218 180.941 53.8593C180.504 54.2968 180.066 54.7707 179.629 55.2812C179.264 55.7916 179.082 56.2655 179.082 56.703C179.009 58.0155 178.9 59.9478 178.754 62.4999C178.681 65.052 178.572 67.8593 178.426 70.9218C178.353 73.9843 178.243 77.1197 178.098 80.328C178.025 83.5364 177.915 86.4895 177.77 89.1874C177.697 91.8853 177.624 94.1457 177.551 95.9687C177.478 97.7187 177.405 98.703 177.332 98.9218C177.186 99.2134 176.712 99.4322 175.91 99.578C175.181 99.6509 174.342 99.6509 173.395 99.578C172.447 99.5051 171.572 99.3228 170.77 99.0312C170.04 98.7395 169.603 98.3384 169.457 97.828C169.311 97.4634 169.202 96.3697 169.129 94.5468C169.056 92.6509 168.947 90.3905 168.801 87.7655C168.728 85.1405 168.655 82.3332 168.582 79.3437C168.509 76.2812 168.436 73.4374 168.363 70.8124C168.29 68.1874 168.217 65.927 168.145 64.0312C168.145 62.1353 168.145 60.9687 168.145 60.5312C168.145 58.7812 167.999 57.3957 167.707 56.3749C167.415 55.2812 167.051 54.4426 166.613 53.8593C166.249 53.203 165.811 52.802 165.301 52.6562C164.79 52.4374 164.28 52.328 163.77 52.328C163.551 52.328 163.223 52.5103 162.785 52.8749C162.348 53.1666 161.91 53.6405 161.473 54.2968C161.035 54.8801 160.671 55.5728 160.379 56.3749C160.087 57.1041 159.978 57.9062 160.051 58.7812C160.051 59.1457 160.087 60.4947 160.16 62.828C160.233 65.1614 160.27 67.9687 160.27 71.2499C160.342 74.5312 160.415 78.0676 160.488 81.8593C160.561 85.6509 160.598 89.1874 160.598 92.4687C160.671 95.677 160.707 98.4114 160.707 100.672C160.707 102.859 160.707 104.026 160.707 104.172C160.561 104.536 160.16 104.755 159.504 104.828C158.848 104.828 158.118 104.682 157.316 104.391C156.514 104.099 155.749 103.698 155.02 103.187C154.29 102.604 153.78 101.911 153.488 101.109C153.342 100.526 153.124 99.2499 152.832 97.2812C152.54 95.3124 152.212 92.9791 151.848 90.2812C151.483 87.5103 151.118 84.5572 150.754 81.4218C150.389 78.2134 150.025 75.1509 149.66 72.2343C149.296 69.2447 148.967 66.5468 148.676 64.1405C148.457 61.7343 148.275 59.9114 148.129 58.6718C147.91 56.9218 147.655 55.0259 147.363 52.9843C147.145 50.8697 146.926 48.8645 146.707 46.9687C146.561 44.9999 146.452 43.3228 146.379 41.9374C146.306 40.4791 146.379 39.5676 146.598 39.203C146.743 38.9114 147.254 38.802 148.129 38.8749C149.077 38.9478 150.061 39.1666 151.082 39.5312C152.176 39.8228 153.197 40.2603 154.145 40.8437C155.165 41.3541 155.822 41.9009 156.113 42.4843C156.332 42.9218 156.551 43.4687 156.77 44.1249C157.061 44.7082 157.353 45.6562 157.645 46.9687C158.884 46.0207 160.16 45.1457 161.473 44.3437C162.785 43.4687 164.098 42.8124 165.41 42.3749C166.723 41.8645 167.962 41.6093 169.129 41.6093C170.368 41.5364 171.535 41.8645 172.629 42.5937C173.577 43.3228 174.488 44.5989 175.363 46.4218C178.863 44.453 182.217 43.1041 185.426 42.3749C188.707 41.5728 191.296 41.8645 193.191 43.2499Z" fill="#3E4140"/>
<path opacity="0.55" d="M138.858 48.1719C139.369 48.6094 139.843 49.4479 140.28 50.6875C140.791 51.9271 141.228 53.4219 141.593 55.1719C141.957 56.9219 142.285 58.8177 142.577 60.8594C142.869 62.901 143.124 64.9062 143.343 66.875C143.562 68.8438 143.707 70.7031 143.78 72.4531C143.926 74.1302 144.035 75.5156 144.108 76.6094C144.181 77.9219 144.218 79.3073 144.218 80.7656C144.291 82.151 144.291 83.5 144.218 84.8125C144.218 86.0521 144.145 87.1823 143.999 88.2031C143.926 89.224 143.78 89.9896 143.562 90.5C143.124 91.5938 142.358 92.3594 141.265 92.7969C140.244 93.1615 139.077 93.4167 137.765 93.5625C137.108 93.6354 135.978 93.6719 134.374 93.6719C132.843 93.599 131.166 93.526 129.343 93.4531C127.593 93.3073 125.916 93.1615 124.312 93.0156C122.707 92.8698 121.504 92.724 120.702 92.5781C119.098 92.2135 117.931 91.7396 117.202 91.1562C116.546 90.5729 115.89 89.7344 115.233 88.6406C115.015 88.2031 114.832 87.1094 114.687 85.3594C114.541 83.5365 114.431 81.3854 114.358 78.9062C114.358 76.3542 114.395 73.6198 114.468 70.7031C114.541 67.7865 114.65 65.0156 114.796 62.3906C115.015 59.7656 115.233 57.4688 115.452 55.5C115.744 53.5312 116.108 52.2188 116.546 51.5625C117.275 50.5417 118.515 49.5938 120.265 48.7188C122.088 47.8438 123.728 47.151 125.187 46.6406C125.916 46.4219 126.864 46.276 128.03 46.2031C129.27 46.0573 130.546 46.0573 131.858 46.2031C133.244 46.276 134.556 46.4948 135.796 46.8594C137.035 47.151 138.056 47.5885 138.858 48.1719ZM132.733 82.0781C132.879 81.7865 133.025 80.9115 133.171 79.4531C133.39 77.9219 133.535 76.099 133.608 73.9844C133.754 71.8698 133.827 69.6094 133.827 67.2031C133.9 64.7969 133.937 62.5729 133.937 60.5312C133.937 58.4896 133.864 56.776 133.718 55.3906C133.572 53.9323 133.39 53.0938 133.171 52.875C132.806 52.5833 132.259 52.474 131.53 52.5469C130.874 52.5469 130.181 52.6562 129.452 52.875C128.723 53.0208 128.067 53.2396 127.483 53.5312C126.9 53.75 126.499 53.9688 126.28 54.1875C125.332 54.9896 124.822 56.3021 124.749 58.125C124.749 58.6354 124.676 60.0938 124.53 62.5C124.457 64.8333 124.421 67.3854 124.421 70.1562C124.421 72.8542 124.457 75.3698 124.53 77.7031C124.676 80.0365 124.931 81.4583 125.296 81.9688C125.66 82.4792 126.171 82.8802 126.827 83.1719C127.556 83.3906 128.285 83.5 129.015 83.5C129.817 83.5 130.546 83.3906 131.202 83.1719C131.931 82.8802 132.442 82.5156 132.733 82.0781Z" fill="#3E4140"/>
<path opacity="0.55" d="M113.4 35.1562C113.765 35.9583 114.093 36.9426 114.385 38.1093C114.676 39.276 114.858 40.4426 114.931 41.6093C115.077 42.7031 115.114 43.651 115.041 44.4531C114.968 45.2551 114.713 45.6926 114.275 45.7656C113.838 45.7656 112.926 45.3281 111.541 44.4531C110.155 43.5051 108.661 42.5937 107.056 41.7187C105.452 40.7708 103.957 40.0416 102.572 39.5312C101.187 38.9478 100.348 39.0572 100.056 39.8593C99.8376 40.4426 99.6918 41.427 99.6189 42.8124C99.546 44.1978 99.4731 45.9114 99.4001 47.9531C99.4001 49.9218 99.4001 52.1822 99.4001 54.7343C99.4731 57.2135 99.546 59.8385 99.6189 62.6093C101.806 62.3906 103.739 62.2447 105.416 62.1718C107.166 62.0989 108.296 62.1353 108.806 62.2812C109.463 62.4999 109.973 63.0833 110.338 64.0312C110.775 64.9062 111.03 65.8906 111.103 66.9843C111.249 68.0781 111.213 69.0989 110.994 70.0468C110.848 70.9947 110.52 71.6145 110.01 71.9062C109.645 72.1249 108.478 72.2708 106.51 72.3437C104.614 72.4166 102.426 72.4166 99.947 72.3437C100.093 76.0624 100.239 79.7447 100.385 83.3906C100.603 86.9635 100.786 90.2447 100.931 93.2343C101.077 96.2239 101.187 98.8124 101.26 101C101.405 103.115 101.478 104.609 101.478 105.484C101.478 106.578 101.15 107.088 100.494 107.016C99.9106 106.87 99.1814 106.396 98.3064 105.594C97.4314 104.719 96.4835 103.625 95.4626 102.312C94.5147 101 93.7126 99.6874 93.0564 98.3749C92.6918 97.7187 92.3637 96.552 92.072 94.8749C91.7804 93.1978 91.4887 91.1926 91.197 88.8593C90.9054 86.4531 90.6137 83.7916 90.322 80.8749C90.0304 77.9583 89.7751 74.9322 89.5564 71.7968C88.0981 71.651 86.822 71.5051 85.7283 71.3593C84.7074 71.2135 84.0876 71.0676 83.8689 70.9218C83.5043 70.6301 83.2491 70.2656 83.1033 69.8281C83.0304 69.3176 82.9574 68.8072 82.8845 68.2968C82.8845 67.7864 82.8845 67.3124 82.8845 66.8749C82.9574 66.3645 83.0304 65.9635 83.1033 65.6718C83.2491 65.4531 83.8324 65.1978 84.8533 64.9062C85.947 64.6145 87.3324 64.3228 89.0095 64.0312C88.7908 61.2603 88.6085 58.5624 88.4626 55.9374C88.3897 53.3124 88.3168 50.9062 88.2439 48.7187C88.171 46.4583 88.0981 44.526 88.0251 42.9218C88.0251 41.2447 88.0616 39.9687 88.1345 39.0937C88.1345 38.4374 88.5356 37.526 89.3376 36.3593C90.2126 35.1197 91.197 33.8801 92.2908 32.6406C93.4574 31.401 94.6241 30.2708 95.7908 29.2499C97.0304 28.2291 98.0147 27.5364 98.7439 27.1718C100.421 26.3697 102.062 26.1874 103.666 26.6249C105.27 27.0624 106.728 27.8281 108.041 28.9218C109.353 29.9426 110.483 31.0728 111.431 32.3124C112.379 33.4791 113.036 34.427 113.4 35.1562Z" fill="#3E4140"/>
<path opacity="0.55" d="M81.1606 62.1718C81.1606 63.3385 81.0148 65.0155 80.7231 67.203C80.5044 69.3905 80.1763 71.7968 79.7388 74.4218C79.3013 76.9739 78.8273 79.6353 78.3169 82.4062C77.8794 85.1041 77.4054 87.5833 76.895 89.8437C76.4575 92.1041 76.0565 93.9999 75.6919 95.5312C75.4002 97.0624 75.2179 97.901 75.145 98.0468C74.9992 98.2655 74.5981 98.4114 73.9419 98.4843C73.3586 98.4843 72.6659 98.4114 71.8638 98.2655C71.1346 98.1197 70.4419 97.901 69.7856 97.6093C69.2023 97.3176 68.8377 96.953 68.6919 96.5155C68.619 96.2239 68.5825 95.203 68.5825 93.453C68.6554 91.703 68.7284 89.6249 68.8013 87.2187C68.9471 84.7395 69.0929 82.1145 69.2388 79.3437C69.3846 76.4999 69.5304 73.8749 69.6763 71.4687C69.895 68.9895 70.0409 66.8749 70.1138 65.1249C70.2596 63.3749 70.3325 62.3176 70.3325 61.953C70.3325 60.6405 70.1867 59.401 69.895 58.2343C69.6763 56.9947 69.3846 55.9374 69.02 55.0624C68.6554 54.1874 68.2179 53.5312 67.7075 53.0937C67.27 52.5833 66.869 52.401 66.5044 52.5468C65.5565 52.6926 64.7544 52.9478 64.0981 53.3124C63.4419 53.6041 62.895 53.9322 62.4575 54.2968C61.9471 54.7343 61.5461 55.2447 61.2544 55.828C61.1815 55.9739 61.0356 56.4114 60.8169 57.1405C60.6711 57.8697 60.5981 58.7083 60.5981 59.6562C60.5981 59.9478 60.5981 61.0051 60.5981 62.828C60.5981 64.578 60.5617 66.6926 60.4888 69.1718C60.4888 71.651 60.4523 74.3489 60.3794 77.2655C60.3794 80.1093 60.3429 82.7708 60.27 85.2499C60.27 87.6562 60.2336 89.7343 60.1606 91.4843C60.0877 93.2343 60.0148 94.2187 59.9419 94.4374C59.7961 94.8749 59.4315 95.4947 58.8481 96.2968C58.2648 97.026 57.6086 97.7187 56.8794 98.3749C56.1502 99.0312 55.4575 99.5416 54.8013 99.9062C54.145 100.198 53.7075 100.125 53.4888 99.6874C53.27 99.4687 53.0513 98.4114 52.8325 96.5155C52.6138 94.5468 52.3586 92.177 52.0669 89.4062C51.8481 86.5624 51.5929 83.4999 51.3013 80.2187C51.0096 76.8645 50.7544 73.6562 50.5356 70.5937C50.3169 67.5312 50.1346 64.7603 49.9888 62.2812C49.8429 59.802 49.7336 58.0155 49.6606 56.9218C49.5877 55.3905 49.5148 53.677 49.4419 51.7812C49.369 49.8124 49.2961 47.9895 49.2231 46.3124C49.2231 44.5624 49.2231 43.0676 49.2231 41.828C49.2961 40.5155 49.4419 39.7135 49.6606 39.4218C49.8065 39.1301 50.2804 39.0572 51.0825 39.203C51.9575 39.3489 52.869 39.6405 53.8169 40.078C54.8377 40.4426 55.7856 40.9166 56.6606 41.4999C57.5356 42.0103 58.119 42.5208 58.4106 43.0312C58.5565 43.4687 58.7388 43.9791 58.9575 44.5624C59.1763 45.0728 59.3586 45.9478 59.5044 47.1874C60.744 46.4583 62.0929 45.802 63.5513 45.2187C65.0096 44.5624 66.4315 44.0885 67.8169 43.7968C69.2752 43.4322 70.6606 43.3228 71.9731 43.4687C73.2856 43.5416 74.4523 43.9062 75.4731 44.5624C76.1294 45.0728 76.7856 45.9478 77.4419 47.1874C78.1711 48.427 78.7909 49.8853 79.3013 51.5624C79.8846 53.2395 80.3221 55.026 80.6138 56.9218C80.9784 58.7447 81.1606 60.4947 81.1606 62.1718Z" fill="#3E4140"/>
<path opacity="0.55" d="M47.062 39.9688C45.8224 40.0417 44.5828 40.0781 43.3433 40.0781C42.1766 40.0052 41.0828 39.9688 40.062 39.9688C38.8953 39.9688 37.8016 39.9323 36.7808 39.8594C36.9266 43.724 36.9631 48.2448 36.8901 53.4219C36.8901 58.526 36.8172 63.776 36.6714 69.1719C36.5985 74.5677 36.4526 79.8542 36.2339 85.0312C36.0881 90.1354 35.9058 94.6562 35.687 98.5938C38.4578 98.5208 40.9006 98.5208 43.0151 98.5938C45.1297 98.6667 46.2599 98.776 46.4058 98.9219C46.5516 99.1406 46.5516 99.8698 46.4058 101.109C46.2599 102.276 46.0412 103.589 45.7495 105.047C45.4578 106.432 45.1662 107.708 44.8745 108.875C44.5828 110.115 44.3641 110.88 44.2183 111.172C42.1766 111.245 40.2808 111.245 38.5308 111.172C36.8537 111.172 35.3953 111.099 34.1558 110.953C32.6974 110.88 31.3849 110.771 30.2183 110.625C29.0516 110.406 27.812 110.151 26.4995 109.859C25.4058 109.568 24.1297 109.203 22.6714 108.766C21.286 108.328 19.8641 107.781 18.4058 107.125C18.1141 106.979 17.7495 106.578 17.312 105.922C16.9474 105.266 16.5464 104.573 16.1089 103.844C15.7443 103.042 15.4526 102.276 15.2339 101.547C14.9422 100.818 14.7964 100.307 14.7964 100.016C14.7964 99.9427 15.1245 99.8698 15.7808 99.7969C16.437 99.651 17.3485 99.5417 18.5151 99.4688C19.6818 99.3229 20.9943 99.2135 22.4526 99.1406C23.911 98.9948 25.4787 98.8854 27.1558 98.8125C27.0099 96.6979 26.7912 93.9271 26.4995 90.5C26.2808 87 26.0256 83.2448 25.7339 79.2344C25.5151 75.151 25.2599 70.9948 24.9683 66.7656C24.7495 62.4635 24.5672 58.4896 24.4214 54.8438C24.2756 51.125 24.2026 47.8802 24.2026 45.1094C24.2026 42.3385 24.312 40.4062 24.5308 39.3125C24.6037 39.1667 24.6401 39.0573 24.6401 38.9844C24.6401 38.8385 24.6766 38.6927 24.7495 38.5469L21.687 37.7812C20.812 37.5625 19.8641 37.3073 18.8433 37.0156C17.8224 36.724 16.8016 36.3958 15.7808 36.0312C15.4891 35.8854 15.1245 35.4844 14.687 34.8281C14.1766 34.1719 13.7026 33.4427 13.2651 32.6406C12.7547 31.8385 12.3537 31.1094 12.062 30.4531C11.6974 29.724 11.5151 29.2135 11.5151 28.9219C11.5151 28.776 12.4631 28.6302 14.3589 28.4844C16.1818 28.2656 18.4787 28.0833 21.2495 27.9375C24.0203 27.7917 27.0099 27.6823 30.2183 27.6094C33.4995 27.5365 36.5256 27.5 39.2964 27.5C42.1401 27.5 44.5099 27.5365 46.4058 27.6094C48.3745 27.6094 49.4318 27.6823 49.5776 27.8281C49.7964 28.0469 49.7964 28.776 49.5776 30.0156C49.4318 31.1823 49.1766 32.4948 48.812 33.9531C48.5203 35.3385 48.1922 36.651 47.8276 37.8906C47.536 39.0573 47.2808 39.75 47.062 39.9688Z" fill="#3E4140"/>
<path d="M276.395 64.68H282.381L282.217 62.9171H275.985V57.3H303.291V62.9171H297.469L297.264 64.68H303.25L302.84 73.2081H276.805L276.395 64.68ZM287.096 64.68H292.795L292.877 62.9171H286.973L287.096 64.68ZM282.381 70.2561H283.611V67.796H282.381V70.2561ZM289.146 70.2561H290.335V67.796H289.146V70.2561ZM295.665 70.2561H296.854V67.796H295.665V70.2561ZM304.398 75.0941V79.1531H297.797C297.182 80.0551 296.526 80.9571 295.87 81.8591L298.658 82.3511L297.715 87.0661C295.993 86.7381 294.189 86.3691 292.262 86.0411C291.647 86.6561 291.032 87.2301 290.417 87.8041L286.399 86.3281C286.727 85.9591 287.055 85.6311 287.383 85.2211C285.456 84.9341 283.488 84.6881 281.561 84.4831L282.258 79.1531H275.247V75.0941H282.75L282.914 73.9051L287.957 74.2331L287.793 75.0941H304.398ZM290.376 81.1621C290.786 80.4651 291.196 79.8091 291.606 79.1531H287.096L286.809 80.8341C287.957 80.9161 289.146 81.0391 290.376 81.1621Z" fill="white"/>
<path d="M266.473 84.606H266.719C266.801 84.606 266.924 84.565 267.006 84.483L267.129 84.319C267.17 84.114 267.252 83.909 267.293 83.622L267.416 81.695C267.416 80.588 267.99 80.301 268.933 80.875C269.302 81.08 269.671 81.244 270.04 81.408C270.45 81.572 270.696 81.982 270.696 82.392C270.614 84.114 270.45 85.795 270.245 86.574C269.999 87.517 269.63 88.091 269.015 88.583C268.482 88.993 267.703 89.239 266.965 89.239H265.079C264.054 89.239 263.07 88.952 262.455 88.214C261.84 87.476 261.676 86.779 261.676 84.36V83.704C261.676 83.335 261.512 83.294 261.307 83.581C259.79 85.549 257.945 87.435 255.649 89.116C255.157 89.444 254.583 89.362 254.214 88.911C253.681 88.337 253.025 87.681 252.41 87.148C251.795 86.574 251.795 85.918 252.492 85.426L253.23 84.852C253.517 84.647 253.681 84.196 253.599 83.827C253.517 83.458 253.189 83.212 252.779 83.376C250.483 84.278 248.187 85.139 246.137 85.918C245.563 86.164 245.03 85.918 244.825 85.385L243.513 82.146C243.226 81.531 243.513 80.957 244.21 80.793L244.579 80.711C245.03 80.588 245.317 80.219 245.317 79.727V75.586C245.317 74.315 244.907 74.233 244.333 75.299L244.005 75.914C243.595 76.652 243.062 76.611 242.734 75.832C242.365 75.053 242.119 75.135 242.119 75.996V88.665C242.119 89.28 241.709 89.69 241.094 89.69H237.978C237.363 89.69 236.953 89.28 236.953 88.665V81.162C236.953 79.604 236.625 79.563 236.01 80.957L235.846 81.285C235.313 82.515 234.534 82.392 233.96 81.203C233.55 80.383 233.099 79.563 232.689 78.866C232.525 78.538 232.525 78.128 232.689 77.8C234.288 74.807 235.723 70.461 236.543 66.648C236.707 65.91 236.297 65.418 235.559 65.418H234.247C233.632 65.418 233.222 65.008 233.222 64.393V61.359C233.222 60.744 233.632 60.334 234.247 60.334H235.928C236.543 60.334 236.953 59.924 236.953 59.309V53.733C236.953 53.118 237.363 52.708 237.978 52.708H241.094C241.709 52.708 242.119 53.118 242.119 53.733V59.309C242.119 59.924 242.529 60.334 243.144 60.334H243.636C244.251 60.334 244.661 60.744 244.661 61.359V64.393C244.661 65.008 244.251 65.418 243.636 65.418H243.144C242.529 65.418 242.119 65.828 242.119 66.443V67.099C242.119 67.304 242.201 67.591 242.365 67.755C242.734 68.165 243.226 68.78 243.759 69.436C244.702 70.625 245.317 70.42 245.317 68.903V55.455C245.317 54.84 245.727 54.43 246.342 54.43H254.829C255.444 54.43 255.854 54.84 255.854 55.455V71.404C255.854 72.019 255.444 72.429 254.829 72.429H250.852C250.237 72.429 249.827 72.839 249.827 73.454V78.046C249.827 78.784 250.36 79.112 251.098 78.866C251.672 78.743 252.041 78.169 251.877 77.636V77.554C251.672 77.062 251.467 76.488 251.303 75.996V75.914C251.057 75.381 251.344 74.848 251.959 74.643L254.337 73.864C254.87 73.7 255.403 73.905 255.608 74.438C256.1 75.709 256.633 77.062 257.125 78.415C257.494 79.522 258.232 79.686 258.888 78.661C259.79 77.226 260.487 75.791 261.061 74.315C261.348 73.536 260.938 73.003 260.118 73.003H257.494C256.879 73.003 256.469 72.593 256.469 71.978V68.78C256.469 68.411 256.715 68.165 257.125 68.165C257.494 68.165 257.74 67.919 257.74 67.509V59.637C257.74 59.309 257.535 59.104 257.207 59.104C256.838 59.104 256.633 58.899 256.633 58.53V55.373C256.633 54.758 257.043 54.348 257.658 54.348H268.277C268.892 54.348 269.302 54.758 269.302 55.373V58.243C269.302 58.776 268.974 59.104 268.441 59.104C267.908 59.104 267.58 59.432 267.58 59.965V61.523C267.58 63.163 267.539 65.049 267.375 67.017C267.293 67.714 267.703 68.165 268.4 68.165H268.933C269.548 68.165 269.958 68.575 269.958 69.19V71.978C269.958 72.593 269.548 73.003 268.933 73.003H266.842C266.555 73.003 266.309 73.208 266.227 73.454L266.145 73.7C266.104 73.741 266.104 73.823 266.104 73.864L266.063 74.069V83.868C266.063 84.032 266.063 84.278 266.104 84.401C266.145 84.565 266.309 84.606 266.473 84.606ZM251.385 59.514C251.385 59.145 251.139 58.899 250.77 58.899H250.442C250.073 58.899 249.827 59.145 249.827 59.514V60.662C249.827 61.031 250.073 61.277 250.442 61.277H250.77C251.139 61.277 251.385 61.031 251.385 60.662V59.514ZM261.963 67.796C261.963 68.042 262.086 68.165 262.332 68.165C262.537 68.165 262.66 68.042 262.701 67.837C262.988 65.5 263.07 63.327 263.07 61.482V59.637C263.07 59.309 262.865 59.104 262.537 59.104C262.168 59.104 261.963 59.309 261.963 59.637V67.796ZM249.827 67.386C249.827 67.755 250.073 68.001 250.442 68.001H250.77C251.139 68.001 251.385 67.755 251.385 67.386V66.074C251.385 65.705 251.139 65.459 250.77 65.459H250.442C250.073 65.459 249.827 65.705 249.827 66.074V67.386Z" fill="white"/>
<path d="M212.012 54.8779V67.0189C216.743 67.6459 221.189 68.1019 225.293 68.3869L224.951 75.0559C223.754 75.1129 222.557 75.1129 221.36 75.1129C218.225 75.1129 215.147 74.9989 212.012 74.7139V86.2849H204.716V54.8779H212.012Z" fill="white"/>
<path d="M175.274 65.8789L160.91 65.9359L160.853 59.1529L175.217 59.0959L175.274 65.8789ZM171.683 87.1969L166.553 80.4709C174.818 74.9989 180.233 70.0969 187.13 61.3759L193.343 66.1069C186.788 74.8849 180.347 81.0979 171.683 87.1969Z" fill="white"/>
<path d="M147.391 64.169L143.116 64.625L142.318 57.044L146.878 56.645L147.391 64.169ZM141.691 64.739L137.302 65.366L135.991 57.956L140.893 57.272L141.691 64.739ZM149.443 75.683L143.287 82.808C137.302 78.818 132.457 74.828 127.555 69.869L119.461 79.388L113.761 74.429L126.643 60.407C133.996 66.278 141.634 71.351 149.443 75.683Z" fill="white"/>
<path d="M97.2161 54.1941L102.346 61.5471C99.8951 63.4281 95.8481 65.6511 91.2881 67.9311H93.5111V86.2851H86.5001V70.2111C83.3081 71.6931 80.0591 73.1181 77.2091 74.3151L74.0171 68.6151C82.3961 64.1691 89.4641 59.6091 97.2161 54.1941Z" fill="white"/>
</svg>
