<svg width="375" height="48" viewBox="0 0 375 48" fill="none" xmlns="http://www.w3.org/2000/svg">
<g clip-path="url(#clip0_493_766)">
<path d="M73.4888 12.2194C69.5436 11.4485 65.7122 10.4471 61.9867 9.26452C64.6616 6.68003 67.2085 3.96044 69.4709 1.01514C71.1504 4.61053 72.3891 8.38554 73.4888 12.2194Z" fill="#F7931E"/>
<path d="M63.1335 22.0468C59.3511 20.7164 55.6825 19.216 52.1386 17.5566C55.1816 15.317 58.0982 12.9026 60.8616 10.334C61.8064 14.1455 62.5632 18.0573 63.1335 22.0468Z" fill="#B75FBB"/>
<path d="M51.6292 30.3824C48.049 28.5751 44.6031 26.6185 41.2963 24.514C44.6015 22.6861 47.7978 20.6595 50.8771 18.4692C51.3179 22.3762 51.5691 26.3515 51.6276 30.3824H51.6292Z" fill="#666666"/>
<path d="M39.1605 37.169C35.8363 34.9103 32.67 32.5261 29.6618 30.0163C33.1598 28.6256 36.6089 27.0345 39.9299 25.2559C39.8715 29.2407 39.6092 33.2048 39.1605 37.169Z" fill="#F39800"/>
<path d="M25.925 42.2876C22.9531 39.6554 20.1108 36.877 17.4169 33.9667C21.0603 33.0495 24.6974 31.9019 28.2112 30.5747C27.6487 34.4626 26.8919 38.3838 25.9266 42.2876H25.925Z" fill="#B75FBB"/>
<path d="M58.2509 15.6954L61.7442 14.1934C61.8437 14.6654 61.9417 15.1407 62.0349 15.6159L58.8055 17.0036L58.6965 17.0496L54.7561 18.744C54.1652 18.4849 53.579 18.2211 52.9944 17.9541L58.1403 15.7415L58.2493 15.6954H58.2509Z" fill="#BC84BF"/>
<path d="M57.5863 14.4335L54.4975 15.7607C55.8294 14.718 57.1344 13.6404 58.411 12.5309L61.1096 11.3706C61.2202 11.8379 61.3292 12.3068 61.4351 12.7773L57.6937 14.3858L57.5847 14.4319L57.5863 14.4335Z" fill="#BC84BF"/>
<path d="M60.4727 20.9294L62.8079 19.9248C62.8853 20.4064 62.9595 20.8912 63.0322 21.376L62.2233 21.7241C61.5755 21.4904 60.9309 21.252 60.2894 21.0088L60.3637 20.977L60.4727 20.9309V20.9294Z" fill="#BC84BF"/>
<path d="M59.3592 18.3117L62.3074 17.0449C62.3959 17.5218 62.4812 18.0018 62.5649 18.4818L59.9154 19.6215L59.8063 19.6676L58.4002 20.2716C57.7824 20.0252 57.1678 19.7725 56.5564 19.5166L59.2502 18.3578L59.3592 18.3117Z" fill="#BC84BF"/>
<path d="M39.1586 37.1694C38.8916 36.9881 38.6262 36.8054 38.3608 36.6226L39.2598 36.2363C39.2266 36.5479 39.1934 36.8578 39.1586 37.1694Z" fill="#F8C166"/>
<path d="M39.6755 31.417L34.3273 33.717C33.8928 33.3895 33.4599 33.0589 33.0302 32.7267L39.7703 29.8291C39.7418 30.3584 39.7102 30.8877 39.6755 31.417Z" fill="#F8C166"/>
<path d="M39.4185 34.6211L36.9901 35.6654C36.5382 35.3443 36.0911 35.0217 35.6455 34.6958L39.5559 33.0142C39.5132 33.5498 39.4674 34.0855 39.4169 34.6211H39.4185Z" fill="#F8C166"/>
<path d="M39.8468 28.249L31.759 31.7268C31.3387 31.393 30.9216 31.056 30.5077 30.7174L39.8989 26.6802C39.8847 27.2031 39.8673 27.7261 39.8468 28.249Z" fill="#F8C166"/>
<path d="M63.0331 9.49961C63.0568 9.49007 63.0805 9.48054 63.1042 9.47259C63.1516 9.45669 63.2006 9.44716 63.2495 9.44239C63.5418 9.41219 63.8326 9.55842 63.9779 9.82545C63.989 9.84453 63.9984 9.86519 64.0063 9.88426C63.6445 9.77777 63.2827 9.6681 62.9225 9.55683C62.9351 9.54888 62.9478 9.53935 62.962 9.5314C62.9841 9.51868 63.0062 9.50756 63.0299 9.49802L63.0331 9.49961Z" fill="#FFFF66"/>
<path d="M66.4648 8.02328C66.844 7.85956 67.2832 8.03759 67.4444 8.41906C67.6071 8.80053 67.4302 9.24241 67.051 9.40454C66.6718 9.56666 66.2325 9.39023 66.0714 9.00876C65.9087 8.62728 66.0856 8.18541 66.4648 8.02328Z" fill="#FFFF66"/>
<path d="M68.9152 9.01156C69.2944 8.84784 69.7337 9.02587 69.8948 9.40734C70.0575 9.78882 69.8806 10.2307 69.5014 10.3928C69.1222 10.5565 68.683 10.3785 68.5218 9.99704C68.3591 9.61556 68.536 9.17369 68.9152 9.01156Z" fill="#FFFF66"/>
<path d="M67.4504 5.55795C67.8296 5.39423 68.2688 5.57225 68.43 5.95373C68.5927 6.3352 68.4157 6.77708 68.0366 6.9392C67.6574 7.10292 67.2181 6.9249 67.057 6.54342C66.8943 6.16195 67.0712 5.72007 67.4504 5.55795Z" fill="#FFFF66"/>
<path d="M64.278 6.97425C64.5782 6.96312 64.8689 7.13478 64.9937 7.42884C65.1564 7.81031 64.9795 8.25219 64.6003 8.41431C64.2211 8.57803 63.7819 8.40001 63.6207 8.01853C63.578 7.91681 63.5591 7.81031 63.5607 7.7054C63.8008 7.46221 64.0394 7.21903 64.278 6.97266V6.97425Z" fill="#FFFF66"/>
<path d="M65.5875 5.95056C65.4627 6.0046 65.3315 6.0205 65.2067 6.0046C65.4816 5.71055 65.7565 5.41491 66.0267 5.11768C66.0915 5.45782 65.9161 5.8091 65.5875 5.95056Z" fill="#FFFF66"/>
<path d="M69.4705 1.01514C69.6285 1.3537 69.7818 1.69384 69.9319 2.03558C69.5701 2.15002 69.1751 1.972 69.0234 1.61437C69.0218 1.6096 69.0203 1.60324 69.0171 1.59847C69.1688 1.40615 69.3204 1.21223 69.4705 1.01673V1.01514Z" fill="#FFFF66"/>
<path d="M69.7639 6.62118C69.7845 6.60688 69.805 6.59416 69.8271 6.58145C69.8493 6.56873 69.8714 6.5576 69.8951 6.54807C69.9188 6.53853 69.9425 6.52899 69.9662 6.52105C70.2316 6.43839 70.5144 6.51151 70.7056 6.69748C70.7751 6.76583 70.8336 6.84848 70.8731 6.94385C70.9141 7.03922 70.9331 7.13776 70.9331 7.23631C70.9331 7.50493 70.7909 7.76084 70.5492 7.89594C70.5271 7.90866 70.5049 7.91979 70.4812 7.92932C70.4575 7.93886 70.4338 7.9484 70.4101 7.95634C70.3864 7.96429 70.3612 7.97065 70.3375 7.97542C69.9978 8.04535 69.6439 7.86733 69.5017 7.53354C69.3595 7.19975 69.478 6.81987 69.7624 6.62118H69.7639Z" fill="#FFFF66"/>
<path d="M72.0995 7.71143C72.2385 8.12787 72.3744 8.5459 72.5071 8.96552C72.2685 8.92102 72.0568 8.76207 71.9557 8.52206C71.8356 8.23754 71.902 7.92124 72.0995 7.71143Z" fill="#FFFF66"/>
<path d="M70.8029 4.12402C70.9846 4.58338 71.1599 5.04433 71.3306 5.50846C70.9893 5.58157 70.6338 5.40355 70.49 5.06817C70.3399 4.71531 70.4806 4.31158 70.8029 4.12402Z" fill="#FFFF66"/>
<path d="M68.2991 3.16708C68.3196 3.15278 68.3402 3.14006 68.3623 3.12734C68.3844 3.11463 68.4065 3.1035 68.4302 3.09397C68.4539 3.08443 68.4776 3.07489 68.5013 3.06694C68.7668 2.98429 69.0496 3.05741 69.2407 3.24338C69.2755 3.27676 69.3071 3.3149 69.3355 3.35623C69.364 3.39756 69.3877 3.44206 69.4082 3.48975C69.4493 3.58511 69.4683 3.68366 69.4683 3.78221C69.4683 4.05083 69.3261 4.30674 69.0843 4.44184C69.0622 4.45456 69.0401 4.46568 69.0164 4.47522C68.9927 4.48476 68.969 4.49429 68.9453 4.50224C68.9216 4.51019 68.8963 4.51655 68.8726 4.52132C68.5329 4.59125 68.179 4.41482 68.0368 4.08103C68.0163 4.03335 68.0021 3.98407 67.991 3.93639C67.931 3.64233 68.0526 3.34033 68.2975 3.16867L68.2991 3.16708Z" fill="#FFFF66"/>
<path d="M71.2327 10.0748C71.2532 10.0605 71.2738 10.0478 71.2959 10.0351C71.318 10.0223 71.3401 10.0112 71.3638 10.0017C71.3875 9.99214 71.4112 9.98261 71.4349 9.97466C71.7004 9.89201 71.9832 9.96512 72.1743 10.1511C72.2091 10.1845 72.2407 10.2226 72.2691 10.2639C72.2976 10.3053 72.3213 10.3498 72.3418 10.3975C72.3829 10.4928 72.4019 10.5914 72.4019 10.6899C72.4019 10.9585 72.2597 11.2145 72.0179 11.3496C71.9958 11.3623 71.9737 11.3734 71.95 11.3829C71.9263 11.3925 71.9026 11.402 71.8789 11.41C71.8552 11.4179 71.8299 11.4243 71.8062 11.429C71.4665 11.499 71.1126 11.3225 70.9704 10.9887C70.9499 10.9411 70.9357 10.8918 70.9246 10.8441C70.8646 10.5501 70.9862 10.248 71.2311 10.0764L71.2327 10.0748Z" fill="#FFFF66"/>
<path d="M42.9182 24.2733C43.2974 24.1096 43.7366 24.2876 43.8977 24.6691C44.0605 25.0505 43.8835 25.4924 43.5043 25.6545C43.4127 25.6943 43.3179 25.7133 43.2231 25.7149C42.9956 25.5767 42.7681 25.4368 42.5421 25.2969C42.5358 25.2842 42.5295 25.2731 42.5232 25.2588C42.3604 24.8773 42.5374 24.4354 42.9166 24.2733H42.9182Z" fill="#CCCCCC"/>
<path d="M45.0314 25.5455C45.0709 25.4851 45.1183 25.4294 45.1736 25.3818C45.2289 25.3341 45.2937 25.2943 45.3648 25.2625C45.4596 25.2212 45.5576 25.2021 45.6555 25.2021C45.8009 25.2021 45.9431 25.2435 46.0631 25.3229C46.1832 25.4008 46.2843 25.5153 46.3444 25.6583C46.4044 25.8014 46.4186 25.9524 46.3918 26.0954C46.3649 26.2369 46.297 26.3704 46.1959 26.4753C46.1279 26.5453 46.0458 26.6041 45.9525 26.6438C45.8815 26.674 45.8088 26.6931 45.7361 26.701C45.6634 26.709 45.5907 26.7058 45.5196 26.6915C45.2842 26.6454 45.0741 26.4864 44.973 26.248C44.8719 26.0096 44.9019 25.7473 45.033 25.5455H45.0314Z" fill="#CCCCCC"/>
<path d="M44.7328 23.0197C44.6648 23.0896 44.5827 23.1484 44.4895 23.1882C44.4184 23.2184 44.3457 23.2374 44.273 23.2454C44.2003 23.2533 44.1277 23.2502 44.0566 23.2359C43.9491 23.2152 43.8464 23.1691 43.7579 23.1039C44.1529 22.8703 44.5448 22.6334 44.9366 22.395C44.9476 22.4777 44.9461 22.5603 44.9318 22.6398C44.905 22.7813 44.8371 22.9148 44.7359 23.0197H44.7328Z" fill="#CCCCCC"/>
<path d="M46.8969 21.1649C47.2856 20.9154 47.6711 20.6626 48.0566 20.4067C48.1277 20.4576 48.1925 20.5196 48.243 20.5943C48.2715 20.6356 48.2952 20.6801 48.3157 20.7278C48.4784 21.1093 48.3015 21.5512 47.9223 21.7133C47.5431 21.8754 47.1039 21.699 46.9427 21.3175C46.9222 21.2698 46.908 21.2206 46.8969 21.1729C46.8969 21.1697 46.8969 21.1681 46.8969 21.1649Z" fill="#CCCCCC"/>
<path d="M50.576 18.9744C50.6139 18.9426 50.6534 18.914 50.6977 18.8886C50.7198 18.8758 50.7419 18.8647 50.7656 18.8552C50.7893 18.8456 50.813 18.8361 50.8367 18.8282C50.862 18.8202 50.8857 18.8139 50.911 18.8091C50.9647 19.3034 51.0168 19.7993 51.0642 20.2968C50.7719 20.3 50.4923 20.1283 50.3706 19.8407C50.3501 19.793 50.3358 19.7437 50.3248 19.696C50.2695 19.4274 50.3674 19.1492 50.5728 18.9744H50.576Z" fill="#CCCCCC"/>
<path d="M48.801 23.786C49.1802 23.6223 49.6194 23.8003 49.7806 24.1818C49.9433 24.5632 49.7663 25.0051 49.3871 25.1672C49.008 25.3294 48.5687 25.1529 48.4076 24.7715C48.2464 24.39 48.4218 23.9481 48.801 23.786Z" fill="#CCCCCC"/>
<path d="M51.248 24.7763C51.3017 24.7525 51.357 24.7382 51.4123 24.7271C51.4424 25.223 51.4692 25.7189 51.4929 26.2148C51.2212 26.1973 50.9684 26.0304 50.8546 25.7618C50.6919 25.3803 50.8688 24.9385 51.248 24.7763Z" fill="#CCCCCC"/>
<path d="M47.819 26.2513C48.1982 26.0876 48.6375 26.2656 48.7986 26.6471C48.9614 27.0286 48.7844 27.4704 48.4052 27.6326C48.026 27.7963 47.5868 27.6183 47.4256 27.2368C47.2629 26.8553 47.4399 26.4134 47.819 26.2513Z" fill="#CCCCCC"/>
<path d="M49.7827 21.3206C50.1619 21.1569 50.6011 21.3349 50.7622 21.7164C50.925 22.0979 50.748 22.5398 50.3688 22.7019C49.9896 22.8656 49.5504 22.6876 49.3893 22.3061C49.2265 21.9246 49.4035 21.4828 49.7827 21.3206Z" fill="#CCCCCC"/>
<path d="M46.3503 22.7974C46.7295 22.6337 47.1687 22.8118 47.3299 23.1932C47.4926 23.5747 47.3156 24.0166 46.9365 24.1787C46.5573 24.3424 46.118 24.1644 45.9569 23.7829C45.7942 23.4015 45.9711 22.9596 46.3503 22.7974Z" fill="#CCCCCC"/>
<path d="M50.2658 27.2396C50.5976 27.0966 50.9752 27.2142 51.1727 27.5019C51.2012 27.5432 51.2249 27.5877 51.2454 27.6354C51.4081 28.0169 51.2312 28.4587 50.852 28.6209C50.4728 28.783 50.0336 28.6066 49.8724 28.2251C49.8519 28.1774 49.8377 28.1281 49.8266 28.0804C49.7571 27.7387 49.934 27.3827 50.2658 27.2396Z" fill="#CCCCCC"/>
<path d="M21.3352 35.5926C21.7144 35.4289 22.1536 35.6069 22.3147 35.9884C22.4775 36.3699 22.3005 36.8117 21.9213 36.9739C21.5421 37.136 21.1029 36.9596 20.9418 36.5781C20.779 36.1966 20.956 35.7547 21.3352 35.5926Z" fill="#BC84BF"/>
<path d="M23.7856 36.5828C24.1648 36.4191 24.604 36.5972 24.7652 36.9786C24.9279 37.3601 24.751 37.802 24.3718 37.9641C23.9926 38.1278 23.5533 37.9498 23.3922 37.5683C23.2295 37.1869 23.4064 36.745 23.7856 36.5828Z" fill="#BC84BF"/>
<path d="M22.3169 33.1287C22.696 32.965 23.1353 33.1431 23.2964 33.5245C23.4592 33.906 23.2822 34.3479 22.903 34.51C22.5238 34.6737 22.0846 34.4957 21.9234 34.1142C21.7607 33.7327 21.9377 33.2909 22.3169 33.1287Z" fill="#BC84BF"/>
<path d="M18.8884 34.6038C19.2676 34.4401 19.7068 34.6182 19.868 34.9996C20.0307 35.3811 19.8537 35.823 19.4745 35.9851C19.4382 36.001 19.4019 36.0121 19.3655 36.0217C19.0638 35.7101 18.7636 35.3986 18.465 35.0839C18.525 34.8756 18.6751 34.696 18.8884 34.6038Z" fill="#BC84BF"/>
<path d="M24.6343 34.1902C24.6548 34.1759 24.6754 34.1631 24.6975 34.1504C24.7196 34.1377 24.7417 34.1266 24.7654 34.117C24.7891 34.1075 24.8128 34.098 24.8365 34.09C24.9092 34.0678 24.9819 34.0566 25.0546 34.0566C25.1509 34.0566 25.2473 34.0757 25.3358 34.1107C25.4243 34.1472 25.5064 34.1997 25.576 34.2665C25.6455 34.3348 25.7039 34.4175 25.7434 34.5128C25.7845 34.6082 25.8035 34.7067 25.8035 34.8053C25.8035 34.9022 25.7845 34.9992 25.7497 35.0882C25.715 35.1772 25.6613 35.2599 25.5949 35.3298C25.5444 35.3823 25.4859 35.4284 25.4195 35.4649C25.3974 35.4776 25.3753 35.4888 25.3516 35.4983C25.3279 35.5078 25.3042 35.5174 25.2805 35.5253C25.2568 35.5333 25.2315 35.5396 25.2078 35.5444C24.8681 35.6143 24.5142 35.4379 24.372 35.1025C24.2298 34.7687 24.3483 34.3888 24.6327 34.1902H24.6343Z" fill="#BC84BF"/>
<path d="M20.4604 33.5217C20.1791 33.6425 19.8647 33.5757 19.6546 33.377C20.0654 33.2626 20.4762 33.1466 20.887 33.0273C20.8301 33.2419 20.6784 33.4279 20.4604 33.5217Z" fill="#BC84BF"/>
<path d="M25.2517 40.037C25.6309 39.8732 26.0702 40.0513 26.2313 40.4327C26.2771 40.5408 26.2945 40.6521 26.2898 40.7618C26.2692 40.8524 26.2471 40.943 26.225 41.0336C26.1507 41.2004 26.018 41.3403 25.8379 41.4182C25.4587 41.5819 25.0195 41.4039 24.8583 41.0224C24.6956 40.641 24.8726 40.1991 25.2517 40.037Z" fill="#BC84BF"/>
<path d="M23.7076 39.3105C23.736 39.3518 23.7597 39.3963 23.7802 39.444C23.8956 39.7174 23.8387 40.021 23.657 40.2308C23.292 39.8906 22.9302 39.5489 22.57 39.204C22.6348 39.1388 22.7122 39.0864 22.8007 39.0482C23.1325 38.9052 23.5101 39.0228 23.7076 39.3105Z" fill="#BC84BF"/>
<path d="M26.1064 37.6443C26.1269 37.63 26.1474 37.6172 26.1696 37.6045C26.1917 37.5918 26.2138 37.5807 26.2375 37.5711C26.2612 37.5616 26.2849 37.5521 26.3086 37.5441C26.3813 37.5219 26.4539 37.5107 26.5266 37.5107C26.623 37.5107 26.7194 37.5298 26.8079 37.5648C26.8663 37.5886 26.9216 37.6204 26.9722 37.657C26.8805 38.1036 26.7857 38.5487 26.6894 38.9953C26.6862 38.9953 26.683 38.9969 26.6799 38.9985C26.3402 39.0684 25.9863 38.892 25.8441 38.5582C25.8235 38.5105 25.8093 38.4612 25.7983 38.4136C25.7382 38.1195 25.8599 37.8175 26.1048 37.6458L26.1064 37.6443Z" fill="#BC84BF"/>
<path d="M27.8372 32.9761C27.8102 33.135 27.7849 33.2924 27.7579 33.4513C27.731 33.286 27.7611 33.1191 27.8372 32.9761Z" fill="#BC84BF"/>
<path d="M27.2196 35.1062C27.305 35.0696 27.3919 35.0505 27.4788 35.0474C27.3919 35.5258 27.3018 36.0042 27.2086 36.4811C27.0427 36.4064 26.9037 36.2728 26.8262 36.0916C26.6635 35.7102 26.8405 35.2683 27.2196 35.1062Z" fill="#BC84BF"/>
<path d="M25.7529 31.6522C26.1321 31.4885 26.5713 31.6665 26.7325 32.048C26.8952 32.4294 26.7182 32.8713 26.339 33.0334C25.9599 33.1972 25.5206 33.0191 25.3595 32.6377C25.1967 32.2562 25.3737 31.8143 25.7529 31.6522Z" fill="#BC84BF"/>
<path d="M69.4722 0.442871C69.4722 0.442871 43.6715 31.2898 17.419 33.3943" stroke="#DFC7A2" stroke-width="1.47522" stroke-miterlimit="10"/>
<path d="M301.973 12.2194C305.918 11.4485 309.75 10.4471 313.475 9.26452C310.8 6.68003 308.253 3.96044 305.991 1.01514C304.311 4.61053 303.073 8.38554 301.973 12.2194Z" fill="#F7931E"/>
<path d="M312.328 22.0468C316.111 20.7164 319.779 19.216 323.323 17.5566C320.28 15.317 317.364 12.9026 314.6 10.334C313.656 14.1455 312.899 18.0573 312.328 22.0468Z" fill="#B75FBB"/>
<path d="M323.833 30.3824C327.413 28.5751 330.859 26.6185 334.166 24.514C330.86 22.6861 327.664 20.6595 324.585 18.4692C324.144 22.3762 323.893 26.3515 323.834 30.3824H323.833Z" fill="#666666"/>
<path d="M336.301 37.169C339.626 34.9103 342.792 32.5261 345.8 30.0163C342.302 28.6256 338.853 27.0345 335.532 25.2559C335.59 29.2407 335.853 33.2048 336.301 37.169Z" fill="#F39800"/>
<path d="M349.537 42.2876C352.509 39.6554 355.351 36.877 358.045 33.9667C354.402 33.0495 350.765 31.9019 347.251 30.5747C347.813 34.4626 348.57 38.3838 349.535 42.2876H349.537Z" fill="#B75FBB"/>
<path d="M317.211 15.6954L313.718 14.1934C313.618 14.6654 313.52 15.1407 313.427 15.6159L316.656 17.0036L316.765 17.0496L320.706 18.744C321.297 18.4849 321.883 18.2211 322.467 17.9541L317.322 15.7415L317.213 15.6954H317.211Z" fill="#BC84BF"/>
<path d="M317.876 14.4335L320.964 15.7607C319.633 14.718 318.327 13.6404 317.051 12.5309L314.352 11.3706C314.242 11.8379 314.133 12.3068 314.027 12.7773L317.768 14.3858L317.877 14.4319L317.876 14.4335Z" fill="#BC84BF"/>
<path d="M314.989 20.9294L312.654 19.9248C312.577 20.4064 312.502 20.8912 312.43 21.376L313.239 21.7241C313.886 21.4904 314.531 21.252 315.172 21.0088L315.098 20.977L314.989 20.9309V20.9294Z" fill="#BC84BF"/>
<path d="M316.103 18.3117L313.155 17.0449C313.066 17.5218 312.981 18.0018 312.897 18.4818L315.547 19.6215L315.656 19.6676L317.062 20.2716C317.679 20.0252 318.294 19.7725 318.906 19.5166L316.212 18.3578L316.103 18.3117Z" fill="#BC84BF"/>
<path d="M336.303 37.1694C336.57 36.9881 336.836 36.8054 337.101 36.6226L336.202 36.2363C336.235 36.5479 336.269 36.8578 336.303 37.1694Z" fill="#F8C166"/>
<path d="M335.786 31.417L341.135 33.717C341.569 33.3895 342.002 33.0589 342.432 32.7267L335.692 29.8291C335.72 30.3584 335.752 30.8877 335.786 31.417Z" fill="#F8C166"/>
<path d="M336.043 34.6211L338.472 35.6654C338.924 35.3443 339.371 35.0217 339.816 34.6958L335.906 33.0142C335.949 33.5498 335.994 34.0855 336.045 34.6211H336.043Z" fill="#F8C166"/>
<path d="M335.615 28.249L343.703 31.7268C344.123 31.393 344.54 31.056 344.954 30.7174L335.563 26.6802C335.577 27.2031 335.595 27.7261 335.615 28.249Z" fill="#F8C166"/>
<path d="M312.429 9.49961C312.405 9.49007 312.381 9.48054 312.358 9.47259C312.31 9.45669 312.261 9.44716 312.212 9.44239C311.92 9.41219 311.629 9.55842 311.484 9.82545C311.473 9.84453 311.463 9.86519 311.456 9.88426C311.817 9.77777 312.179 9.6681 312.539 9.55683C312.527 9.54888 312.514 9.53935 312.5 9.5314C312.478 9.51868 312.456 9.50756 312.432 9.49802L312.429 9.49961Z" fill="#FFFF66"/>
<path d="M308.997 8.02328C308.618 7.85956 308.179 8.03759 308.018 8.41906C307.855 8.80053 308.032 9.24241 308.411 9.40454C308.79 9.56666 309.229 9.39023 309.391 9.00876C309.553 8.62728 309.376 8.18541 308.997 8.02328Z" fill="#FFFF66"/>
<path d="M306.547 9.01156C306.167 8.84784 305.728 9.02587 305.567 9.40734C305.404 9.78882 305.581 10.2307 305.961 10.3928C306.34 10.5565 306.779 10.3785 306.94 9.99704C307.103 9.61556 306.926 9.17369 306.547 9.01156Z" fill="#FFFF66"/>
<path d="M308.012 5.55795C307.632 5.39423 307.193 5.57225 307.032 5.95373C306.869 6.3352 307.046 6.77708 307.425 6.9392C307.805 7.10292 308.244 6.9249 308.405 6.54342C308.568 6.16195 308.391 5.72007 308.012 5.55795Z" fill="#FFFF66"/>
<path d="M311.184 6.97425C310.884 6.96312 310.593 7.13478 310.468 7.42884C310.305 7.81031 310.482 8.25219 310.862 8.41431C311.241 8.57803 311.68 8.40001 311.841 8.01853C311.884 7.91681 311.903 7.81031 311.901 7.7054C311.661 7.46221 311.423 7.21903 311.184 6.97266V6.97425Z" fill="#FFFF66"/>
<path d="M309.874 5.95056C309.999 6.0046 310.13 6.0205 310.255 6.0046C309.98 5.71055 309.705 5.41491 309.435 5.11768C309.37 5.45782 309.546 5.8091 309.874 5.95056Z" fill="#FFFF66"/>
<path d="M305.991 1.01514C305.833 1.3537 305.68 1.69384 305.53 2.03558C305.892 2.15002 306.287 1.972 306.439 1.61437C306.44 1.6096 306.442 1.60324 306.445 1.59847C306.293 1.40615 306.141 1.21223 305.991 1.01673V1.01514Z" fill="#FFFF66"/>
<path d="M305.698 6.62118C305.677 6.60688 305.657 6.59416 305.635 6.58145C305.613 6.56873 305.591 6.5576 305.567 6.54807C305.543 6.53853 305.519 6.52899 305.496 6.52105C305.23 6.43839 304.947 6.51151 304.756 6.69748C304.687 6.76583 304.628 6.84848 304.589 6.94385C304.548 7.03922 304.529 7.13776 304.529 7.23631C304.529 7.50493 304.671 7.76084 304.913 7.89594C304.935 7.90866 304.957 7.91979 304.981 7.92932C305.004 7.93886 305.028 7.9484 305.052 7.95634C305.075 7.96429 305.101 7.97065 305.124 7.97542C305.464 8.04535 305.818 7.86733 305.96 7.53354C306.102 7.19975 305.984 6.81987 305.7 6.62118H305.698Z" fill="#FFFF66"/>
<path d="M303.362 7.71143C303.223 8.12787 303.088 8.5459 302.955 8.96552C303.193 8.92102 303.405 8.76207 303.506 8.52206C303.626 8.23754 303.56 7.92124 303.362 7.71143Z" fill="#FFFF66"/>
<path d="M304.659 4.12402C304.477 4.58338 304.302 5.04433 304.131 5.50846C304.473 5.58157 304.828 5.40355 304.972 5.06817C305.122 4.71531 304.981 4.31158 304.659 4.12402Z" fill="#FFFF66"/>
<path d="M307.163 3.16708C307.142 3.15278 307.122 3.14006 307.1 3.12734C307.078 3.11463 307.055 3.1035 307.032 3.09397C307.008 3.08443 306.984 3.07489 306.961 3.06694C306.695 2.98429 306.412 3.05741 306.221 3.24338C306.186 3.27676 306.155 3.3149 306.126 3.35623C306.098 3.39756 306.074 3.44206 306.054 3.48975C306.013 3.58511 305.994 3.68366 305.994 3.78221C305.994 4.05083 306.136 4.30674 306.378 4.44184C306.4 4.45456 306.422 4.46568 306.446 4.47522C306.469 4.48476 306.493 4.49429 306.517 4.50224C306.54 4.51019 306.566 4.51655 306.589 4.52132C306.929 4.59125 307.283 4.41482 307.425 4.08103C307.446 4.03335 307.46 3.98407 307.471 3.93639C307.531 3.64233 307.409 3.34033 307.164 3.16867L307.163 3.16708Z" fill="#FFFF66"/>
<path d="M304.229 10.0748C304.209 10.0605 304.188 10.0478 304.166 10.0351C304.144 10.0223 304.122 10.0112 304.098 10.0017C304.074 9.99214 304.051 9.98261 304.027 9.97466C303.762 9.89201 303.479 9.96512 303.288 10.1511C303.253 10.1845 303.221 10.2226 303.193 10.2639C303.164 10.3053 303.141 10.3498 303.12 10.3975C303.079 10.4928 303.06 10.5914 303.06 10.6899C303.06 10.9585 303.202 11.2145 303.444 11.3496C303.466 11.3623 303.488 11.3734 303.512 11.3829C303.536 11.3925 303.559 11.402 303.583 11.41C303.607 11.4179 303.632 11.4243 303.656 11.429C303.995 11.499 304.349 11.3225 304.491 10.9887C304.512 10.9411 304.526 10.8918 304.537 10.8441C304.597 10.5501 304.476 10.248 304.231 10.0764L304.229 10.0748Z" fill="#FFFF66"/>
<path d="M332.544 24.2733C332.165 24.1096 331.725 24.2876 331.564 24.6691C331.401 25.0505 331.578 25.4924 331.958 25.6545C332.049 25.6943 332.144 25.7133 332.239 25.7149C332.466 25.5767 332.694 25.4368 332.92 25.2969C332.926 25.2842 332.932 25.2731 332.939 25.2588C333.101 24.8773 332.925 24.4354 332.545 24.2733H332.544Z" fill="#CCCCCC"/>
<path d="M330.43 25.5455C330.391 25.4851 330.344 25.4294 330.288 25.3818C330.233 25.3341 330.168 25.2943 330.097 25.2625C330.002 25.2212 329.904 25.2021 329.806 25.2021C329.661 25.2021 329.519 25.2435 329.399 25.3229C329.279 25.4008 329.178 25.5153 329.118 25.6583C329.057 25.8014 329.043 25.9524 329.07 26.0954C329.097 26.2369 329.165 26.3704 329.266 26.4753C329.334 26.5453 329.416 26.6041 329.509 26.6438C329.58 26.674 329.653 26.6931 329.726 26.701C329.798 26.709 329.871 26.7058 329.942 26.6915C330.178 26.6454 330.388 26.4864 330.489 26.248C330.59 26.0096 330.56 25.7473 330.429 25.5455H330.43Z" fill="#CCCCCC"/>
<path d="M330.729 23.0197C330.797 23.0896 330.879 23.1484 330.972 23.1882C331.044 23.2184 331.116 23.2374 331.189 23.2454C331.262 23.2533 331.334 23.2502 331.405 23.2359C331.513 23.2152 331.615 23.1691 331.704 23.1039C331.309 22.8703 330.917 22.6334 330.525 22.395C330.514 22.4777 330.516 22.5603 330.53 22.6398C330.557 22.7813 330.625 22.9148 330.726 23.0197H330.729Z" fill="#CCCCCC"/>
<path d="M328.565 21.1649C328.176 20.9154 327.791 20.6626 327.405 20.4067C327.334 20.4576 327.269 20.5196 327.219 20.5943C327.19 20.6356 327.167 20.6801 327.146 20.7278C326.983 21.1093 327.16 21.5512 327.54 21.7133C327.919 21.8754 328.358 21.699 328.519 21.3175C328.54 21.2698 328.554 21.2206 328.565 21.1729C328.565 21.1697 328.565 21.1681 328.565 21.1649Z" fill="#CCCCCC"/>
<path d="M324.886 18.9744C324.848 18.9426 324.808 18.914 324.764 18.8886C324.742 18.8758 324.72 18.8647 324.696 18.8552C324.673 18.8456 324.649 18.8361 324.625 18.8282C324.6 18.8202 324.576 18.8139 324.551 18.8091C324.497 19.3034 324.445 19.7993 324.398 20.2968C324.69 20.3 324.97 20.1283 325.091 19.8407C325.112 19.793 325.126 19.7437 325.137 19.696C325.192 19.4274 325.094 19.1492 324.889 18.9744H324.886Z" fill="#CCCCCC"/>
<path d="M326.661 23.786C326.282 23.6223 325.843 23.8003 325.681 24.1818C325.519 24.5632 325.696 25.0051 326.075 25.1672C326.454 25.3294 326.893 25.1529 327.054 24.7715C327.215 24.39 327.04 23.9481 326.661 23.786Z" fill="#CCCCCC"/>
<path d="M324.214 24.7763C324.16 24.7525 324.105 24.7382 324.05 24.7271C324.02 25.223 323.993 25.7189 323.969 26.2148C324.241 26.1973 324.494 26.0304 324.607 25.7618C324.77 25.3803 324.593 24.9385 324.214 24.7763Z" fill="#CCCCCC"/>
<path d="M327.643 26.2513C327.264 26.0876 326.824 26.2656 326.663 26.6471C326.501 27.0286 326.678 27.4704 327.057 27.6326C327.436 27.7963 327.875 27.6183 328.036 27.2368C328.199 26.8553 328.022 26.4134 327.643 26.2513Z" fill="#CCCCCC"/>
<path d="M325.679 21.3206C325.3 21.1569 324.861 21.3349 324.7 21.7164C324.537 22.0979 324.714 22.5398 325.093 22.7019C325.472 22.8656 325.911 22.6876 326.073 22.3061C326.235 21.9246 326.058 21.4828 325.679 21.3206Z" fill="#CCCCCC"/>
<path d="M329.112 22.7974C328.732 22.6337 328.293 22.8118 328.132 23.1932C327.969 23.5747 328.146 24.0166 328.525 24.1787C328.905 24.3424 329.344 24.1644 329.505 23.7829C329.668 23.4015 329.491 22.9596 329.112 22.7974Z" fill="#CCCCCC"/>
<path d="M325.196 27.2396C324.864 27.0966 324.487 27.2142 324.289 27.5019C324.261 27.5432 324.237 27.5877 324.217 27.6354C324.054 28.0169 324.231 28.4587 324.61 28.6209C324.989 28.783 325.428 28.6066 325.589 28.2251C325.61 28.1774 325.624 28.1281 325.635 28.0804C325.705 27.7387 325.528 27.3827 325.196 27.2396Z" fill="#CCCCCC"/>
<path d="M354.127 35.5926C353.748 35.4289 353.308 35.6069 353.147 35.9884C352.984 36.3699 353.161 36.8117 353.541 36.9739C353.92 37.136 354.359 36.9596 354.52 36.5781C354.683 36.1966 354.506 35.7547 354.127 35.5926Z" fill="#BC84BF"/>
<path d="M351.676 36.5828C351.297 36.4191 350.858 36.5972 350.697 36.9786C350.534 37.3601 350.711 37.802 351.09 37.9641C351.469 38.1278 351.909 37.9498 352.07 37.5683C352.232 37.1869 352.056 36.745 351.676 36.5828Z" fill="#BC84BF"/>
<path d="M353.145 33.1287C352.766 32.965 352.327 33.1431 352.165 33.5245C352.003 33.906 352.18 34.3479 352.559 34.51C352.938 34.6737 353.377 34.4957 353.538 34.1142C353.701 33.7327 353.524 33.2909 353.145 33.1287Z" fill="#BC84BF"/>
<path d="M356.574 34.6038C356.194 34.4401 355.755 34.6182 355.594 34.9996C355.431 35.3811 355.608 35.823 355.987 35.9851C356.024 36.001 356.06 36.0121 356.096 36.0217C356.398 35.7101 356.698 35.3986 356.997 35.0839C356.937 34.8756 356.787 34.696 356.574 34.6038Z" fill="#BC84BF"/>
<path d="M350.828 34.1902C350.807 34.1759 350.787 34.1631 350.764 34.1504C350.742 34.1377 350.72 34.1266 350.696 34.117C350.673 34.1075 350.649 34.098 350.625 34.09C350.553 34.0678 350.48 34.0566 350.407 34.0566C350.311 34.0566 350.215 34.0757 350.126 34.1107C350.038 34.1472 349.955 34.1997 349.886 34.2665C349.816 34.3348 349.758 34.4175 349.718 34.5128C349.677 34.6082 349.658 34.7067 349.658 34.8053C349.658 34.9022 349.677 34.9992 349.712 35.0882C349.747 35.1772 349.801 35.2599 349.867 35.3298C349.918 35.3823 349.976 35.4284 350.042 35.4649C350.064 35.4776 350.087 35.4888 350.11 35.4983C350.134 35.5078 350.158 35.5174 350.181 35.5253C350.205 35.5333 350.23 35.5396 350.254 35.5444C350.594 35.6143 350.948 35.4379 351.09 35.1025C351.232 34.7687 351.114 34.3888 350.829 34.1902H350.828Z" fill="#BC84BF"/>
<path d="M355.002 33.5217C355.283 33.6425 355.597 33.5757 355.807 33.377C355.397 33.2626 354.986 33.1466 354.575 33.0273C354.632 33.2419 354.784 33.4279 355.002 33.5217Z" fill="#BC84BF"/>
<path d="M350.21 40.037C349.831 39.8732 349.392 40.0513 349.231 40.4327C349.185 40.5408 349.167 40.6521 349.172 40.7618C349.193 40.8524 349.215 40.943 349.237 41.0336C349.311 41.2004 349.444 41.3403 349.624 41.4182C350.003 41.5819 350.442 41.4039 350.604 41.0224C350.766 40.641 350.589 40.1991 350.21 40.037Z" fill="#BC84BF"/>
<path d="M351.754 39.3105C351.726 39.3518 351.702 39.3963 351.682 39.444C351.566 39.7174 351.623 40.021 351.805 40.2308C352.17 39.8906 352.532 39.5489 352.892 39.204C352.827 39.1388 352.75 39.0864 352.661 39.0482C352.329 38.9052 351.952 39.0228 351.754 39.3105Z" fill="#BC84BF"/>
<path d="M349.356 37.6443C349.335 37.63 349.314 37.6172 349.292 37.6045C349.27 37.5918 349.248 37.5807 349.224 37.5711C349.201 37.5616 349.177 37.5521 349.153 37.5441C349.081 37.5219 349.008 37.5107 348.935 37.5107C348.839 37.5107 348.743 37.5298 348.654 37.5648C348.596 37.5886 348.54 37.6204 348.49 37.657C348.581 38.1036 348.676 38.5487 348.773 38.9953C348.776 38.9953 348.779 38.9969 348.782 38.9985C349.122 39.0684 349.476 38.892 349.618 38.5582C349.638 38.5105 349.653 38.4612 349.664 38.4136C349.724 38.1195 349.602 37.8175 349.357 37.6458L349.356 37.6443Z" fill="#BC84BF"/>
<path d="M347.625 32.9761C347.652 33.135 347.677 33.2924 347.704 33.4513C347.731 33.286 347.701 33.1191 347.625 32.9761Z" fill="#BC84BF"/>
<path d="M348.242 35.1062C348.157 35.0696 348.07 35.0505 347.983 35.0474C348.07 35.5258 348.16 36.0042 348.253 36.4811C348.419 36.4064 348.558 36.2728 348.636 36.0916C348.798 35.7102 348.621 35.2683 348.242 35.1062Z" fill="#BC84BF"/>
<path d="M349.709 31.6522C349.33 31.4885 348.891 31.6665 348.729 32.048C348.567 32.4294 348.744 32.8713 349.123 33.0334C349.502 33.1972 349.941 33.0191 350.102 32.6377C350.265 32.2562 350.088 31.8143 349.709 31.6522Z" fill="#BC84BF"/>
<path d="M305.99 0.442871C305.99 0.442871 331.79 31.2898 358.043 33.3943" stroke="#DFC7A2" stroke-width="1.47522" stroke-miterlimit="10"/>
<path d="M269.326 23.68H275.312L275.148 21.9171H268.916V16.3H296.222V21.9171H290.4L290.195 23.68H296.181L295.771 32.2081H269.736L269.326 23.68ZM280.027 23.68H285.726L285.808 21.9171H279.904L280.027 23.68ZM275.312 29.2561H276.542V26.796H275.312V29.2561ZM282.077 29.2561H283.266V26.796H282.077V29.2561ZM288.596 29.2561H289.785V26.796H288.596V29.2561ZM297.329 34.0941V38.1531H290.728C290.113 39.0551 289.457 39.9571 288.801 40.8591L291.589 41.3511L290.646 46.0661C288.924 45.7381 287.12 45.3691 285.193 45.0411C284.578 45.6561 283.963 46.2301 283.348 46.8041L279.33 45.3281C279.658 44.9591 279.986 44.6311 280.314 44.2211C278.387 43.9341 276.419 43.6881 274.492 43.4831L275.189 38.1531H268.178V34.0941H275.681L275.845 32.9051L280.888 33.2331L280.724 34.0941H297.329ZM283.307 40.1621C283.717 39.4651 284.127 38.8091 284.537 38.1531H280.027L279.74 39.8341C280.888 39.9161 282.077 40.0391 283.307 40.1621Z" fill="#ED6D46"/>
<path d="M261.864 43.606H262.11C262.192 43.606 262.315 43.565 262.397 43.483L262.52 43.319C262.561 43.114 262.643 42.909 262.684 42.622L262.807 40.695C262.807 39.588 263.381 39.301 264.324 39.875C264.693 40.08 265.062 40.244 265.431 40.408C265.841 40.572 266.087 40.982 266.087 41.392C266.005 43.114 265.841 44.795 265.636 45.574C265.39 46.517 265.021 47.091 264.406 47.583C263.873 47.993 263.094 48.239 262.356 48.239H260.47C259.445 48.239 258.461 47.952 257.846 47.214C257.231 46.476 257.067 45.779 257.067 43.36V42.704C257.067 42.335 256.903 42.294 256.698 42.581C255.181 44.549 253.336 46.435 251.04 48.116C250.548 48.444 249.974 48.362 249.605 47.911C249.072 47.337 248.416 46.681 247.801 46.148C247.186 45.574 247.186 44.918 247.883 44.426L248.621 43.852C248.908 43.647 249.072 43.196 248.99 42.827C248.908 42.458 248.58 42.212 248.17 42.376C245.874 43.278 243.578 44.139 241.528 44.918C240.954 45.164 240.421 44.918 240.216 44.385L238.904 41.146C238.617 40.531 238.904 39.957 239.601 39.793L239.97 39.711C240.421 39.588 240.708 39.219 240.708 38.727V34.586C240.708 33.315 240.298 33.233 239.724 34.299L239.396 34.914C238.986 35.652 238.453 35.611 238.125 34.832C237.756 34.053 237.51 34.135 237.51 34.996V47.665C237.51 48.28 237.1 48.69 236.485 48.69H233.369C232.754 48.69 232.344 48.28 232.344 47.665V40.162C232.344 38.604 232.016 38.563 231.401 39.957L231.237 40.285C230.704 41.515 229.925 41.392 229.351 40.203C228.941 39.383 228.49 38.563 228.08 37.866C227.916 37.538 227.916 37.128 228.08 36.8C229.679 33.807 231.114 29.461 231.934 25.648C232.098 24.91 231.688 24.418 230.95 24.418H229.638C229.023 24.418 228.613 24.008 228.613 23.393V20.359C228.613 19.744 229.023 19.334 229.638 19.334H231.319C231.934 19.334 232.344 18.924 232.344 18.309V12.733C232.344 12.118 232.754 11.708 233.369 11.708H236.485C237.1 11.708 237.51 12.118 237.51 12.733V18.309C237.51 18.924 237.92 19.334 238.535 19.334H239.027C239.642 19.334 240.052 19.744 240.052 20.359V23.393C240.052 24.008 239.642 24.418 239.027 24.418H238.535C237.92 24.418 237.51 24.828 237.51 25.443V26.099C237.51 26.304 237.592 26.591 237.756 26.755C238.125 27.165 238.617 27.78 239.15 28.436C240.093 29.625 240.708 29.42 240.708 27.903V14.455C240.708 13.84 241.118 13.43 241.733 13.43H250.22C250.835 13.43 251.245 13.84 251.245 14.455V30.404C251.245 31.019 250.835 31.429 250.22 31.429H246.243C245.628 31.429 245.218 31.839 245.218 32.454V37.046C245.218 37.784 245.751 38.112 246.489 37.866C247.063 37.743 247.432 37.169 247.268 36.636V36.554C247.063 36.062 246.858 35.488 246.694 34.996V34.914C246.448 34.381 246.735 33.848 247.35 33.643L249.728 32.864C250.261 32.7 250.794 32.905 250.999 33.438C251.491 34.709 252.024 36.062 252.516 37.415C252.885 38.522 253.623 38.686 254.279 37.661C255.181 36.226 255.878 34.791 256.452 33.315C256.739 32.536 256.329 32.003 255.509 32.003H252.885C252.27 32.003 251.86 31.593 251.86 30.978V27.78C251.86 27.411 252.106 27.165 252.516 27.165C252.885 27.165 253.131 26.919 253.131 26.509V18.637C253.131 18.309 252.926 18.104 252.598 18.104C252.229 18.104 252.024 17.899 252.024 17.53V14.373C252.024 13.758 252.434 13.348 253.049 13.348H263.668C264.283 13.348 264.693 13.758 264.693 14.373V17.243C264.693 17.776 264.365 18.104 263.832 18.104C263.299 18.104 262.971 18.432 262.971 18.965V20.523C262.971 22.163 262.93 24.049 262.766 26.017C262.684 26.714 263.094 27.165 263.791 27.165H264.324C264.939 27.165 265.349 27.575 265.349 28.19V30.978C265.349 31.593 264.939 32.003 264.324 32.003H262.233C261.946 32.003 261.7 32.208 261.618 32.454L261.536 32.7C261.495 32.741 261.495 32.823 261.495 32.864L261.454 33.069V42.868C261.454 43.032 261.454 43.278 261.495 43.401C261.536 43.565 261.7 43.606 261.864 43.606ZM246.776 18.514C246.776 18.145 246.53 17.899 246.161 17.899H245.833C245.464 17.899 245.218 18.145 245.218 18.514V19.662C245.218 20.031 245.464 20.277 245.833 20.277H246.161C246.53 20.277 246.776 20.031 246.776 19.662V18.514ZM257.354 26.796C257.354 27.042 257.477 27.165 257.723 27.165C257.928 27.165 258.051 27.042 258.092 26.837C258.379 24.5 258.461 22.327 258.461 20.482V18.637C258.461 18.309 258.256 18.104 257.928 18.104C257.559 18.104 257.354 18.309 257.354 18.637V26.796ZM245.218 26.386C245.218 26.755 245.464 27.001 245.833 27.001H246.161C246.53 27.001 246.776 26.755 246.776 26.386V25.074C246.776 24.705 246.53 24.459 246.161 24.459H245.833C245.464 24.459 245.218 24.705 245.218 25.074V26.386Z" fill="#822586"/>
<path d="M210.823 13.8779V26.0189C215.554 26.6459 220 27.1019 224.104 27.3869L223.762 34.0559C222.565 34.1129 221.368 34.1129 220.171 34.1129C217.036 34.1129 213.958 33.9989 210.823 33.7139V45.2849H203.527V13.8779H210.823Z" fill="#ED6D46"/>
<path d="M177.504 24.8789L163.14 24.9359L163.083 18.1529L177.447 18.0959L177.504 24.8789ZM173.913 46.1969L168.783 39.4709C177.048 33.9989 182.463 29.0969 189.36 20.3759L195.573 25.1069C189.018 33.8849 182.577 40.0979 173.913 46.1969Z" fill="#FBBD1B"/>
<path d="M153.042 23.169L148.767 23.625L147.969 16.044L152.529 15.645L153.042 23.169ZM147.342 23.739L142.953 24.366L141.642 16.956L146.544 16.272L147.342 23.739ZM155.094 34.683L148.938 41.808C142.953 37.818 138.108 33.828 133.206 28.869L125.112 38.388L119.412 33.429L132.294 19.407C139.647 25.278 147.285 30.351 155.094 34.683Z" fill="#822586"/>
<path d="M106.286 13.1941L111.416 20.5471C108.965 22.4281 104.918 24.6511 100.358 26.9311H102.581V45.2851H95.5704V29.2111C92.3784 30.6931 89.1294 32.1181 86.2794 33.3151L83.0874 27.6151C91.4664 23.1691 98.5344 18.6091 106.286 13.1941Z" fill="#ED6D46"/>
</g>
<defs>
<clipPath id="clip0_493_766">
<rect width="375" height="48" fill="white"/>
</clipPath>
</defs>
</svg>
