<svg width="375" height="69" viewBox="0 0 375 69" fill="none" xmlns="http://www.w3.org/2000/svg">
<g clip-path="url(#clip0_493_333)">
<path d="M302.082 25.3169V64.1339L291.993 63.3929L292.506 57.0089L295.185 57.2939L295.014 43.7849H284.298V25.3169H302.082ZM270.504 64.1909L262.866 64.4759L261.84 25.3739H280.137L280.08 43.8419L270.162 43.8989L270.504 64.1909ZM268.167 31.2449V32.9549H274.95V31.2449H268.167ZM290.055 31.2449V32.9549H296.838V31.2449H290.055ZM268.281 36.9449V38.4839H275.178V36.9449H268.281ZM290.169 36.9449V38.4839H297.066V36.9449H290.169ZM289.314 59.6879H275.52V47.4899H289.314V59.6879ZM280.251 52.2779V54.4439H284.697V52.2779H280.251Z" fill="#822586"/>
<path d="M221.941 33.8669H219.091C218.92 35.9759 218.692 38.0279 218.464 40.1369L211.795 39.9659C212.251 34.3229 212.422 28.6799 212.422 23.0369C218.407 22.0109 224.449 20.6999 229.921 19.2749L231.346 25.2029C227.242 26.1149 223.708 26.7419 219.433 27.1979C219.433 27.8249 219.376 28.5089 219.376 29.1359H232.201V33.8669H228.097L228.211 41.2769H222.055L221.941 33.8669ZM242.119 29.1359H255.001V33.8669H251.011L250.897 41.2199H244.285L244.399 33.8669H241.777C241.606 35.9759 241.378 38.0279 241.15 40.1369L234.196 39.9659C234.652 34.3229 234.823 28.6799 234.823 23.0369C240.865 22.0109 247.135 20.6999 252.721 19.2749L254.203 25.2029C249.985 26.1149 246.565 26.7419 242.176 27.1979C242.176 27.8249 242.119 28.5089 242.119 29.1359ZM249.871 58.4909H217.267L216.697 43.0439H250.441L249.871 58.4909ZM241.492 46.4639H225.703V47.3759H241.492V46.4639ZM241.492 50.3399H225.703V51.2519H241.492V50.3399ZM241.492 54.3299H225.703V55.2419H241.492V54.3299ZM238.471 60.4289L246.451 59.1749C247.42 61.3409 247.819 62.2529 248.959 64.2479L240.01 66.3569C239.269 64.0199 239.041 63.2789 238.471 60.4289ZM228.439 66.4139L219.661 64.9319C220.516 62.6519 220.744 61.7399 221.2 59.2319L230.662 60.6569C229.921 63.2219 229.465 64.3049 228.439 66.4139Z" fill="#ED6D46"/>
<path d="M188.676 63.9059C184.173 63.9059 180.696 61.6829 180.696 57.6929C180.696 54.0449 184.344 51.8219 187.878 51.8219C191.013 51.8219 194.091 53.5889 194.319 57.6929C196.086 57.3509 197.055 56.0399 197.055 54.6719C197.055 52.6199 195.003 50.3399 190.443 50.3399C187.536 50.3399 183.546 51.3089 178.359 53.9309L176.25 49.0859L191.013 40.4789L178.302 40.5929L178.188 34.4939L201.615 34.3799L201.444 41.6189L193.35 45.6659C193.749 45.6089 194.091 45.6089 194.433 45.6089C200.361 45.6089 203.839 49.5419 203.839 53.8169C203.839 58.6619 199.278 63.9059 188.676 63.9059ZM187.65 59.0039C188.277 59.0039 188.847 58.4339 188.847 57.7499C188.847 57.1229 188.277 56.5529 187.65 56.5529C186.966 56.5529 186.396 57.1229 186.396 57.7499C186.396 58.4339 186.966 59.0039 187.65 59.0039Z" fill="#FBBD1B"/>
<path d="M153.12 43.7848C162.525 43.7848 166.743 48.9148 166.743 54.8998C166.743 57.9208 165.66 61.1698 163.608 64.0768L158.022 61.7398C159.39 59.5738 160.074 57.4078 160.074 55.4698V55.3558L154.26 58.3198L154.716 62.7658L148.56 63.6778L148.275 61.3978L142.974 64.0768C140.295 61.5118 139.041 58.3768 139.041 55.2988C139.041 51.0808 141.435 47.0908 146.166 45.0958L145.767 42.0748H137.787L137.673 35.8618H144.969L144.513 32.4988L151.524 31.7578L151.923 35.8618L167.028 35.8048L167.142 42.0178H152.607L152.778 43.7848H153.12ZM153.348 49.4848L153.633 52.2778L157.167 50.3398C156.141 49.7698 154.887 49.4848 153.348 49.4848ZM145.539 56.7808L147.534 55.6978L146.964 51.1378C145.596 52.1068 144.912 53.3608 144.912 54.6718C144.912 55.3558 145.14 56.0968 145.539 56.7808Z" fill="#ED6D46"/>
<path d="M128.512 59.8018L122.356 64.1908L109.645 47.9458L121.615 31.5298L129.139 36.4888L119.506 48.2878L128.512 59.8018Z" fill="#ED6D46"/>
<path d="M101.665 42.0177L90.4935 42.0747C90.7215 44.2407 90.9495 46.4067 91.0635 48.4587C93.4575 48.5727 96.2505 48.8577 97.9605 49.1997L97.0485 55.4127C95.6235 55.0137 92.8875 54.7857 91.1775 54.7287C90.7785 59.9727 88.0425 63.9057 82.7985 63.9057C76.9275 63.9057 73.9065 60.1437 73.9065 56.2677C73.9065 52.3917 77.0415 48.4587 83.3685 48.4587C83.1975 43.8417 82.5135 37.9707 81.5445 32.4417L89.0115 31.8147C89.2395 33.1257 89.4675 34.4937 89.6385 35.8617L101.551 35.8047L101.665 42.0177ZM82.5705 57.6357C83.3685 57.6357 84.0525 56.9517 84.0525 56.1537C84.0525 55.3557 83.3685 54.6717 82.5705 54.6717C81.7725 54.6717 81.0885 55.3557 81.0885 56.1537C81.0885 56.9517 81.7725 57.6357 82.5705 57.6357Z" fill="#822586"/>
<path d="M299.779 10.0626C303.734 9.40387 307.576 8.54824 311.311 7.53778C308.629 5.32944 306.076 3.00566 303.807 0.489014C302.123 3.56114 300.881 6.78673 299.779 10.0626Z" fill="#F7931E"/>
<path d="M310.161 18.4598C313.954 17.3231 317.632 16.041 321.186 14.6231C318.134 12.7094 315.21 10.6464 312.439 8.45166C311.492 11.7085 310.733 15.0509 310.161 18.4598Z" fill="#B75FBB"/>
<path d="M321.697 25.5824C325.286 24.0382 328.741 22.3663 332.057 20.5681C328.743 19.0062 325.538 17.2746 322.451 15.4031C322.009 18.7414 321.757 22.1381 321.698 25.5824H321.697Z" fill="#666666"/>
<path d="M334.198 31.3812C337.532 29.4513 340.706 27.4141 343.723 25.2695C340.215 24.0812 336.757 22.7217 333.427 21.2019C333.486 24.6068 333.749 27.994 334.198 31.3812Z" fill="#F39800"/>
<path d="M347.469 35.755C350.449 33.5059 353.299 31.1319 356 28.6451C352.347 27.8615 348.7 26.8809 345.177 25.7468C345.741 29.0688 346.5 32.4194 347.468 35.755H347.469Z" fill="#B75FBB"/>
<path d="M315.057 13.033L311.554 11.7495C311.455 12.1529 311.356 12.559 311.263 12.9651L314.501 14.1507L314.61 14.1901L318.561 15.6379C319.154 15.4165 319.741 15.191 320.328 14.9629L315.168 13.0723L315.059 13.033H315.057Z" fill="#BC84BF"/>
<path d="M315.724 11.9548L318.821 13.0888C317.485 12.1979 316.177 11.2771 314.897 10.3291L312.191 9.33765C312.08 9.73694 311.971 10.1376 311.865 10.5396L315.616 11.914L315.725 11.9534L315.724 11.9548Z" fill="#BC84BF"/>
<path d="M312.829 17.5051L310.488 16.6467C310.41 17.0582 310.336 17.4725 310.263 17.8867L311.074 18.1841C311.724 17.9845 312.37 17.7808 313.013 17.573L312.939 17.5458L312.829 17.5064V17.5051Z" fill="#BC84BF"/>
<path d="M313.946 15.2682L310.99 14.1858C310.901 14.5932 310.816 15.0034 310.732 15.4136L313.388 16.3873L313.498 16.4267L314.908 16.9428C315.527 16.7323 316.143 16.5164 316.756 16.2977L314.055 15.3076L313.946 15.2682Z" fill="#BC84BF"/>
<path d="M334.2 31.3815C334.468 31.2266 334.734 31.0704 335 30.9143L334.099 30.5842C334.132 30.8504 334.165 31.1153 334.2 31.3815Z" fill="#F8C166"/>
<path d="M333.682 26.4664L339.045 28.4316C339.48 28.1519 339.914 27.8694 340.345 27.5855L333.587 25.1096C333.616 25.5619 333.647 26.0141 333.682 26.4664Z" fill="#F8C166"/>
<path d="M333.94 29.2044L336.375 30.0967C336.828 29.8223 337.276 29.5466 337.723 29.2682L333.802 27.8313C333.845 28.289 333.891 28.7467 333.941 29.2044H333.94Z" fill="#F8C166"/>
<path d="M333.511 23.7594L341.62 26.7311C342.041 26.4458 342.459 26.1579 342.875 25.8686L333.458 22.4189C333.473 22.8658 333.49 23.3126 333.511 23.7594Z" fill="#F8C166"/>
<path d="M310.262 7.73876C310.238 7.73061 310.215 7.72246 310.191 7.71567C310.143 7.70209 310.094 7.69394 310.045 7.68987C309.752 7.66406 309.461 7.78901 309.315 8.01718C309.304 8.03348 309.294 8.05113 309.286 8.06743C309.649 7.97644 310.012 7.88272 310.373 7.78765C310.36 7.78086 310.348 7.77271 310.334 7.76592C310.311 7.75506 310.289 7.74555 310.265 7.7374L310.262 7.73876Z" fill="#FFFF66"/>
<path d="M306.821 6.47755C306.441 6.33767 306.001 6.48978 305.839 6.81573C305.676 7.14169 305.853 7.51925 306.234 7.65778C306.614 7.79631 307.054 7.64556 307.216 7.3196C307.379 6.99365 307.202 6.61609 306.821 6.47755Z" fill="#FFFF66"/>
<path d="M304.364 7.32179C303.984 7.1819 303.544 7.33402 303.382 7.65997C303.219 7.98593 303.396 8.36349 303.777 8.50202C304.157 8.64191 304.597 8.4898 304.759 8.16384C304.922 7.83789 304.745 7.46032 304.364 7.32179Z" fill="#FFFF66"/>
<path d="M305.833 4.37087C305.453 4.23098 305.013 4.38309 304.851 4.70904C304.688 5.035 304.865 5.41256 305.245 5.55109C305.626 5.69098 306.066 5.53887 306.228 5.21291C306.391 4.88696 306.213 4.5094 305.833 4.37087Z" fill="#FFFF66"/>
<path d="M309.01 5.58119C308.709 5.57168 308.418 5.71836 308.292 5.96962C308.129 6.29558 308.307 6.67314 308.687 6.81167C309.067 6.95156 309.507 6.79945 309.669 6.47349C309.712 6.38657 309.731 6.29558 309.729 6.20594C309.488 5.99814 309.249 5.79035 309.01 5.57983V5.58119Z" fill="#FFFF66"/>
<path d="M307.701 4.70605C307.826 4.75223 307.958 4.76581 308.083 4.75223C307.807 4.50097 307.532 4.24836 307.261 3.99438C307.196 4.28503 307.372 4.58518 307.701 4.70605Z" fill="#FFFF66"/>
<path d="M303.808 0.489014C303.649 0.778298 303.495 1.06894 303.345 1.36094C303.708 1.45873 304.104 1.30662 304.256 1.00103C304.257 0.99696 304.259 0.991527 304.262 0.987453C304.11 0.823117 303.958 0.657424 303.808 0.490372V0.489014Z" fill="#FFFF66"/>
<path d="M303.513 5.27919C303.493 5.26697 303.472 5.2561 303.45 5.24523C303.428 5.23437 303.406 5.22486 303.382 5.21671C303.358 5.20856 303.334 5.20042 303.311 5.19363C303.044 5.123 302.761 5.18548 302.569 5.34438C302.499 5.40278 302.441 5.4734 302.401 5.55489C302.36 5.63638 302.341 5.72059 302.341 5.80479C302.341 6.03432 302.484 6.25298 302.726 6.36842C302.748 6.37929 302.77 6.38879 302.794 6.39694C302.818 6.40509 302.842 6.41324 302.865 6.42003C302.889 6.42682 302.915 6.43225 302.938 6.43633C303.279 6.49609 303.634 6.34397 303.776 6.05876C303.919 5.77355 303.8 5.44896 303.515 5.27919H303.513Z" fill="#FFFF66"/>
<path d="M301.172 6.21094C301.032 6.56677 300.896 6.92396 300.763 7.28251C301.002 7.24449 301.214 7.10867 301.316 6.90359C301.436 6.66048 301.37 6.39021 301.172 6.21094Z" fill="#FFFF66"/>
<path d="M302.472 3.14575C302.29 3.53826 302.114 3.93212 301.943 4.3287C302.285 4.39117 302.641 4.23906 302.785 3.95249C302.936 3.65098 302.795 3.30601 302.472 3.14575Z" fill="#FFFF66"/>
<path d="M304.982 2.32802C304.962 2.31579 304.941 2.30493 304.919 2.29406C304.897 2.2832 304.874 2.27369 304.851 2.26554C304.827 2.25739 304.803 2.24924 304.779 2.24245C304.513 2.17183 304.23 2.2343 304.038 2.39321C304.003 2.42173 303.971 2.45432 303.943 2.48964C303.914 2.52495 303.891 2.56298 303.87 2.60372C303.829 2.68521 303.81 2.76941 303.81 2.85362C303.81 3.08315 303.952 3.30181 304.195 3.41725C304.217 3.42811 304.239 3.43762 304.263 3.44577C304.287 3.45392 304.31 3.46207 304.334 3.46886C304.358 3.47565 304.383 3.48108 304.407 3.48516C304.748 3.54491 305.102 3.39416 305.245 3.10895C305.266 3.06821 305.28 3.0261 305.291 2.98536C305.351 2.7341 305.229 2.47605 304.984 2.32937L304.982 2.32802Z" fill="#FFFF66"/>
<path d="M302.041 8.23036C302.02 8.21814 302 8.20727 301.977 8.19641C301.955 8.18554 301.933 8.17603 301.909 8.16789C301.885 8.15974 301.862 8.15159 301.838 8.1448C301.572 8.07417 301.288 8.13665 301.097 8.29555C301.062 8.32407 301.03 8.35667 301.001 8.39198C300.973 8.42729 300.949 8.46532 300.929 8.50606C300.887 8.58755 300.868 8.67176 300.868 8.75596C300.868 8.98549 301.011 9.20415 301.253 9.31959C301.276 9.33046 301.298 9.33996 301.321 9.34811C301.345 9.35626 301.369 9.36441 301.393 9.3712C301.417 9.37799 301.442 9.38343 301.466 9.3875C301.806 9.44726 302.161 9.2965 302.304 9.01129C302.324 8.97055 302.339 8.92845 302.35 8.8877C302.41 8.63645 302.288 8.3784 302.042 8.23172L302.041 8.23036Z" fill="#FFFF66"/>
<path d="M330.431 20.3623C330.051 20.2224 329.61 20.3745 329.449 20.7005C329.285 21.0265 329.463 21.404 329.843 21.5425C329.935 21.5765 330.03 21.5928 330.125 21.5942C330.353 21.476 330.581 21.3565 330.808 21.237C330.814 21.2261 330.821 21.2166 330.827 21.2044C330.99 20.8784 330.813 20.5009 330.432 20.3623H330.431Z" fill="#CCCCCC"/>
<path d="M328.312 21.4494C328.272 21.3978 328.225 21.3502 328.169 21.3095C328.114 21.2687 328.049 21.2348 327.978 21.2076C327.883 21.1723 327.784 21.156 327.686 21.156C327.54 21.156 327.398 21.1913 327.277 21.2592C327.157 21.3258 327.056 21.4236 326.995 21.5458C326.935 21.668 326.921 21.797 326.948 21.9193C326.975 22.0402 327.043 22.1542 327.144 22.2439C327.212 22.3036 327.295 22.3539 327.388 22.3878C327.46 22.4136 327.532 22.4299 327.605 22.4367C327.678 22.4435 327.751 22.4408 327.822 22.4286C328.058 22.3892 328.269 22.2534 328.37 22.0497C328.472 21.8459 328.442 21.6218 328.31 21.4494H328.312Z" fill="#CCCCCC"/>
<path d="M328.611 19.2911C328.679 19.3508 328.762 19.4011 328.855 19.435C328.927 19.4608 328.999 19.4771 329.072 19.4839C329.145 19.4907 329.218 19.488 329.289 19.4758C329.397 19.4581 329.5 19.4187 329.589 19.3631C329.193 19.1634 328.8 18.961 328.407 18.7573C328.396 18.8279 328.397 18.8986 328.412 18.9665C328.439 19.0874 328.507 19.2014 328.608 19.2911H328.611Z" fill="#CCCCCC"/>
<path d="M326.442 17.7062C326.052 17.493 325.665 17.277 325.279 17.0583C325.207 17.1018 325.142 17.1548 325.092 17.2186C325.063 17.2539 325.04 17.292 325.019 17.3327C324.856 17.6586 325.033 18.0362 325.413 18.1747C325.794 18.3133 326.234 18.1625 326.396 17.8366C326.416 17.7958 326.43 17.7537 326.442 17.713C326.442 17.7103 326.442 17.7089 326.442 17.7062Z" fill="#CCCCCC"/>
<path d="M322.752 15.8348C322.714 15.8077 322.675 15.7832 322.63 15.7615C322.608 15.7506 322.586 15.7411 322.562 15.733C322.539 15.7248 322.515 15.7167 322.491 15.7099C322.466 15.7031 322.442 15.6977 322.417 15.6936C322.363 16.116 322.31 16.5397 322.263 16.9648C322.556 16.9675 322.836 16.8209 322.958 16.575C322.979 16.5343 322.993 16.4922 323.004 16.4514C323.06 16.2219 322.962 15.9842 322.756 15.8348H322.752Z" fill="#CCCCCC"/>
<path d="M324.532 19.9461C324.152 19.8062 323.712 19.9583 323.55 20.2842C323.387 20.6102 323.564 20.9878 323.945 21.1263C324.325 21.2648 324.765 21.1141 324.927 20.7881C325.088 20.4622 324.913 20.0846 324.532 19.9461Z" fill="#CCCCCC"/>
<path d="M322.079 20.7923C322.025 20.772 321.969 20.7598 321.914 20.7502C321.884 21.174 321.857 21.5977 321.833 22.0215C322.106 22.0065 322.359 21.8639 322.473 21.6344C322.636 21.3084 322.459 20.9309 322.079 20.7923Z" fill="#CCCCCC"/>
<path d="M325.517 22.0523C325.137 21.9124 324.696 22.0645 324.535 22.3904C324.371 22.7164 324.549 23.094 324.929 23.2325C325.309 23.3724 325.75 23.2203 325.911 22.8943C326.074 22.5684 325.897 22.1908 325.517 22.0523Z" fill="#CCCCCC"/>
<path d="M323.548 17.8394C323.168 17.6995 322.727 17.8516 322.566 18.1775C322.403 18.5035 322.58 18.8811 322.96 19.0196C323.34 19.1595 323.781 19.0074 323.942 18.6814C324.106 18.3555 323.928 17.9779 323.548 17.8394Z" fill="#CCCCCC"/>
<path d="M326.989 19.1016C326.609 18.9617 326.169 19.1138 326.007 19.4398C325.844 19.7657 326.021 20.1433 326.402 20.2818C326.782 20.4217 327.222 20.2696 327.384 19.9436C327.547 19.6177 327.37 19.2401 326.989 19.1016Z" fill="#CCCCCC"/>
<path d="M323.064 22.897C322.731 22.7748 322.352 22.8753 322.154 23.1211C322.126 23.1564 322.102 23.1944 322.081 23.2352C321.918 23.5611 322.096 23.9387 322.476 24.0772C322.856 24.2158 323.296 24.065 323.458 23.7391C323.479 23.6983 323.493 23.6562 323.504 23.6155C323.574 23.3235 323.396 23.0192 323.064 22.897Z" fill="#CCCCCC"/>
<path d="M352.071 30.0342C351.691 29.8943 351.251 30.0464 351.089 30.3724C350.926 30.6983 351.103 31.0759 351.484 31.2144C351.864 31.353 352.304 31.2022 352.466 30.8762C352.629 30.5503 352.452 30.1727 352.071 30.0342Z" fill="#BC84BF"/>
<path d="M349.614 30.8804C349.234 30.7405 348.794 30.8926 348.632 31.2186C348.469 31.5445 348.646 31.9221 349.027 32.0606C349.407 32.2005 349.847 32.0484 350.009 31.7224C350.172 31.3965 349.995 31.0189 349.614 30.8804Z" fill="#BC84BF"/>
<path d="M351.087 27.9287C350.707 27.7888 350.266 27.941 350.105 28.2669C349.942 28.5929 350.119 28.9704 350.499 29.109C350.88 29.2488 351.32 29.0967 351.482 28.7708C351.645 28.4448 351.467 28.0673 351.087 27.9287Z" fill="#BC84BF"/>
<path d="M354.525 29.1895C354.144 29.0496 353.704 29.2017 353.542 29.5276C353.379 29.8536 353.557 30.2312 353.937 30.3697C353.973 30.3833 354.01 30.3928 354.046 30.4009C354.349 30.1347 354.65 29.8685 354.949 29.5996C354.889 29.4217 354.738 29.2682 354.525 29.1895Z" fill="#BC84BF"/>
<path d="M348.763 28.836C348.743 28.8238 348.722 28.8129 348.7 28.8021C348.678 28.7912 348.656 28.7817 348.632 28.7735C348.608 28.7654 348.584 28.7572 348.561 28.7504C348.488 28.7314 348.415 28.7219 348.342 28.7219C348.245 28.7219 348.149 28.7382 348.06 28.7681C347.971 28.7993 347.889 28.8442 347.819 28.9012C347.749 28.9596 347.691 29.0302 347.651 29.1117C347.61 29.1932 347.591 29.2774 347.591 29.3616C347.591 29.4445 347.61 29.5273 347.645 29.6034C347.68 29.6794 347.734 29.75 347.8 29.8098C347.851 29.8546 347.909 29.894 347.976 29.9252C347.998 29.9361 348.02 29.9456 348.044 29.9538C348.068 29.9619 348.092 29.9701 348.115 29.9769C348.139 29.9836 348.165 29.9891 348.188 29.9931C348.529 30.0529 348.884 29.9022 349.026 29.6156C349.169 29.3304 349.05 29.0058 348.765 28.836H348.763Z" fill="#BC84BF"/>
<path d="M352.948 28.2649C353.23 28.3681 353.546 28.3111 353.756 28.1413C353.345 28.0435 352.933 27.9444 352.521 27.8425C352.578 28.0259 352.73 28.1848 352.948 28.2649Z" fill="#BC84BF"/>
<path d="M348.144 33.8318C347.764 33.6919 347.324 33.844 347.162 34.17C347.116 34.2623 347.099 34.3574 347.104 34.4511C347.124 34.5285 347.146 34.6059 347.168 34.6834C347.243 34.826 347.376 34.9455 347.557 35.012C347.937 35.1519 348.377 34.9998 348.539 34.6738C348.702 34.3479 348.525 33.9703 348.144 33.8318Z" fill="#BC84BF"/>
<path d="M349.693 33.2109C349.664 33.2463 349.64 33.2843 349.62 33.325C349.504 33.5586 349.561 33.818 349.743 33.9973C350.109 33.7067 350.472 33.4147 350.833 33.1199C350.768 33.0643 350.691 33.0194 350.602 32.9868C350.269 32.8646 349.891 32.9651 349.693 33.2109Z" fill="#BC84BF"/>
<path d="M347.287 31.7872C347.267 31.775 347.246 31.7641 347.224 31.7532C347.202 31.7424 347.18 31.7329 347.156 31.7247C347.132 31.7166 347.108 31.7084 347.085 31.7016C347.012 31.6826 346.939 31.6731 346.866 31.6731C346.769 31.6731 346.673 31.6894 346.584 31.7193C346.525 31.7396 346.47 31.7668 346.419 31.798C346.511 32.1797 346.606 32.56 346.703 32.9416C346.706 32.9416 346.709 32.943 346.712 32.9443C347.053 33.0041 347.408 32.8533 347.55 32.5681C347.571 32.5274 347.585 32.4853 347.596 32.4445C347.656 32.1933 347.534 31.9352 347.289 31.7885L347.287 31.7872Z" fill="#BC84BF"/>
<path d="M345.552 27.7986C345.579 27.9344 345.604 28.0689 345.631 28.2047C345.658 28.0634 345.628 27.9208 345.552 27.7986Z" fill="#BC84BF"/>
<path d="M346.171 29.6184C346.086 29.5871 345.999 29.5708 345.911 29.5681C345.999 29.9769 346.089 30.3857 346.182 30.7932C346.349 30.7293 346.488 30.6152 346.566 30.4604C346.729 30.1345 346.551 29.7569 346.171 29.6184Z" fill="#BC84BF"/>
<path d="M347.642 26.6673C347.262 26.5274 346.821 26.6795 346.66 27.0054C346.496 27.3314 346.674 27.7089 347.054 27.8475C347.434 27.9874 347.875 27.8353 348.036 27.5093C348.199 27.1833 348.022 26.8058 347.642 26.6673Z" fill="#BC84BF"/>
<path d="M303.806 0C303.806 0 329.675 26.3575 355.998 28.1557" stroke="#DFC7A2" stroke-width="1.47522" stroke-miterlimit="10"/>
<path d="M74.7786 10.0626C70.8229 9.40387 66.9813 8.54824 63.2458 7.53778C65.9278 5.32944 68.4815 3.00566 70.75 0.489014C72.434 3.56114 73.676 6.78673 74.7786 10.0626Z" fill="#F7931E"/>
<path d="M64.3958 18.4598C60.6033 17.3231 56.9248 16.041 53.3715 14.6231C56.4226 12.7094 59.347 10.6464 62.1177 8.45166C63.0651 11.7085 63.8239 15.0509 64.3958 18.4598Z" fill="#B75FBB"/>
<path d="M52.8606 25.5824C49.2709 24.0382 45.8158 22.3663 42.5001 20.5681C45.8142 19.0062 49.019 17.2746 52.1065 15.4031C52.5485 18.7414 52.8004 22.1381 52.859 25.5824H52.8606Z" fill="#666666"/>
<path d="M40.3586 31.3812C37.0255 29.4513 33.8509 27.4141 30.8346 25.2695C34.342 24.0812 37.8002 22.7217 41.1301 21.2019C41.0715 24.6068 40.8085 27.994 40.3586 31.3812Z" fill="#F39800"/>
<path d="M27.0878 35.755C24.108 33.5059 21.2581 31.1319 18.5571 28.6451C22.2102 27.8615 25.8569 26.8809 29.3801 25.7468C28.8162 29.0688 28.0573 32.4194 27.0894 35.755H27.0878Z" fill="#B75FBB"/>
<path d="M59.5001 13.033L63.0027 11.7495C63.1025 12.1529 63.2007 12.559 63.2942 12.9651L60.0562 14.1507L59.9468 14.1901L55.9959 15.6379C55.4035 15.4165 54.8157 15.191 54.2296 14.9629L59.3892 13.0723L59.4985 13.033H59.5001Z" fill="#BC84BF"/>
<path d="M58.8336 11.9548L55.7365 13.0888C57.072 12.1979 58.3805 11.2771 59.6605 10.3291L62.3663 9.33765C62.4772 9.73694 62.5865 10.1376 62.6926 10.5396L58.9413 11.914L58.832 11.9534L58.8336 11.9548Z" fill="#BC84BF"/>
<path d="M61.7278 17.5051L64.0692 16.6467C64.1469 17.0582 64.2213 17.4725 64.2942 17.8867L63.4831 18.1841C62.8336 17.9845 62.1872 17.7808 61.5441 17.573L61.6185 17.5458L61.7278 17.5064V17.5051Z" fill="#BC84BF"/>
<path d="M60.6112 15.2682L63.5672 14.1858C63.6559 14.5932 63.7415 15.0034 63.8254 15.4136L61.1688 16.3873L61.0595 16.4267L59.6496 16.9428C59.0302 16.7323 58.4139 16.5164 57.8009 16.2977L60.5019 15.3076L60.6112 15.2682Z" fill="#BC84BF"/>
<path d="M40.3569 31.3815C40.0891 31.2266 39.823 31.0704 39.5569 30.9143L40.4583 30.5842C40.425 30.8504 40.3917 31.1153 40.3569 31.3815Z" fill="#F8C166"/>
<path d="M40.8749 26.4664L35.5125 28.4316C35.0769 28.1519 34.6428 27.8694 34.2119 27.5855L40.97 25.1096C40.9415 25.5619 40.9098 26.0141 40.8749 26.4664Z" fill="#F8C166"/>
<path d="M40.6173 29.2044L38.1824 30.0967C37.7294 29.8223 37.281 29.5466 36.8343 29.2682L40.7551 27.8313C40.7124 28.289 40.6664 28.7467 40.6157 29.2044H40.6173Z" fill="#F8C166"/>
<path d="M41.0466 23.7594L32.9373 26.7311C32.5159 26.4458 32.0976 26.1579 31.6826 25.8686L41.0989 22.4189C41.0846 22.8658 41.0672 23.3126 41.0466 23.7594Z" fill="#F8C166"/>
<path d="M64.2949 7.73876C64.3187 7.73061 64.3424 7.72246 64.3662 7.71567C64.4137 7.70209 64.4628 7.69394 64.5119 7.68987C64.805 7.66406 65.0965 7.78901 65.2422 8.01718C65.2533 8.03348 65.2628 8.05113 65.2708 8.06743C64.908 7.97644 64.5452 7.88272 64.184 7.78765C64.1967 7.78086 64.2094 7.77271 64.2236 7.76592C64.2458 7.75506 64.268 7.74555 64.2917 7.7374L64.2949 7.73876Z" fill="#FFFF66"/>
<path d="M67.7357 6.47755C68.1159 6.33767 68.5563 6.48978 68.7179 6.81573C68.8811 7.14169 68.7036 7.51925 68.3234 7.65778C67.9432 7.79631 67.5028 7.64556 67.3412 7.3196C67.1781 6.99365 67.3555 6.61609 67.7357 6.47755Z" fill="#FFFF66"/>
<path d="M70.1927 7.32179C70.5729 7.1819 71.0133 7.33402 71.1749 7.65997C71.3381 7.98593 71.1607 8.36349 70.7805 8.50202C70.4003 8.64191 69.9599 8.4898 69.7983 8.16384C69.6351 7.83789 69.8125 7.46032 70.1927 7.32179Z" fill="#FFFF66"/>
<path d="M68.724 4.37087C69.1042 4.23098 69.5446 4.38309 69.7062 4.70904C69.8693 5.035 69.6919 5.41256 69.3117 5.55109C68.9315 5.69098 68.4911 5.53887 68.3295 5.21291C68.1664 4.88696 68.3438 4.5094 68.724 4.37087Z" fill="#FFFF66"/>
<path d="M65.5471 5.58119C65.8481 5.57168 66.1396 5.71836 66.2648 5.96962C66.4279 6.29558 66.2505 6.67314 65.8703 6.81167C65.4901 6.95156 65.0497 6.79945 64.8881 6.47349C64.8454 6.38657 64.8263 6.29558 64.8279 6.20594C65.0687 5.99814 65.3079 5.79035 65.5471 5.57983V5.58119Z" fill="#FFFF66"/>
<path d="M66.8561 4.70605C66.7309 4.75223 66.5994 4.76581 66.4743 4.75223C66.7499 4.50097 67.0256 4.24836 67.2965 3.99438C67.3614 4.28503 67.1856 4.58518 66.8561 4.70605Z" fill="#FFFF66"/>
<path d="M70.7496 0.489014C70.908 0.778298 71.0617 1.06894 71.2122 1.36094C70.8494 1.45873 70.4533 1.30662 70.3013 1.00103C70.2997 0.99696 70.2981 0.991527 70.2949 0.987453C70.447 0.823117 70.5991 0.657424 70.7496 0.490372V0.489014Z" fill="#FFFF66"/>
<path d="M71.0438 5.27919C71.0644 5.26697 71.085 5.2561 71.1071 5.24523C71.1293 5.23437 71.1515 5.22486 71.1753 5.21671C71.199 5.20856 71.2228 5.20042 71.2466 5.19363C71.5127 5.123 71.7963 5.18548 71.9879 5.34438C72.0576 5.40278 72.1163 5.4734 72.1559 5.55489C72.1971 5.63638 72.2161 5.72059 72.2161 5.80479C72.2161 6.03432 72.0735 6.25298 71.8311 6.36842C71.8089 6.37929 71.7868 6.38879 71.763 6.39694C71.7392 6.40509 71.7155 6.41324 71.6917 6.42003C71.6679 6.42682 71.6426 6.43225 71.6188 6.43633C71.2782 6.49609 70.9234 6.34397 70.7808 6.05876C70.6382 5.77355 70.757 5.44896 71.0422 5.27919H71.0438Z" fill="#FFFF66"/>
<path d="M73.3855 6.21094C73.5249 6.56677 73.6611 6.92396 73.7942 7.28251C73.555 7.24449 73.3427 7.10867 73.2413 6.90359C73.1209 6.66048 73.1875 6.39021 73.3855 6.21094Z" fill="#FFFF66"/>
<path d="M72.0854 3.14575C72.2676 3.53826 72.4434 3.93212 72.6145 4.3287C72.2723 4.39117 71.9159 4.23906 71.7717 3.95249C71.6212 3.65098 71.7622 3.30601 72.0854 3.14575Z" fill="#FFFF66"/>
<path d="M69.575 2.32802C69.5956 2.31579 69.6162 2.30493 69.6384 2.29406C69.6606 2.2832 69.6828 2.27369 69.7065 2.26554C69.7303 2.25739 69.754 2.24924 69.7778 2.24245C70.0439 2.17183 70.3275 2.2343 70.5192 2.39321C70.554 2.42173 70.5857 2.45432 70.6142 2.48964C70.6428 2.52495 70.6665 2.56298 70.6871 2.60372C70.7283 2.68521 70.7473 2.76941 70.7473 2.85362C70.7473 3.08315 70.6047 3.30181 70.3624 3.41725C70.3402 3.42811 70.318 3.43762 70.2942 3.44577C70.2705 3.45392 70.2467 3.46207 70.223 3.46886C70.1992 3.47565 70.1738 3.48108 70.1501 3.48516C69.8095 3.54491 69.4546 3.39416 69.3121 3.10895C69.2915 3.06821 69.2772 3.0261 69.2661 2.98536C69.2059 2.7341 69.3279 2.47605 69.5734 2.32937L69.575 2.32802Z" fill="#FFFF66"/>
<path d="M72.5164 8.23036C72.537 8.21814 72.5576 8.20727 72.5798 8.19641C72.602 8.18554 72.6242 8.17603 72.6479 8.16789C72.6717 8.15974 72.6954 8.15159 72.7192 8.1448C72.9854 8.07417 73.2689 8.13665 73.4606 8.29555C73.4955 8.32407 73.5271 8.35667 73.5557 8.39198C73.5842 8.42729 73.6079 8.46532 73.6285 8.50606C73.6697 8.58755 73.6887 8.67176 73.6887 8.75596C73.6887 8.98549 73.5461 9.20415 73.3038 9.31959C73.2816 9.33046 73.2594 9.33996 73.2356 9.34811C73.2119 9.35626 73.1881 9.36441 73.1644 9.3712C73.1406 9.37799 73.1153 9.38343 73.0915 9.3875C72.7509 9.44726 72.396 9.2965 72.2535 9.01129C72.2329 8.97055 72.2186 8.92845 72.2075 8.8877C72.1473 8.63645 72.2693 8.3784 72.5149 8.23172L72.5164 8.23036Z" fill="#FFFF66"/>
<path d="M44.1263 20.3623C44.5065 20.2224 44.9469 20.3745 45.1085 20.7005C45.2717 21.0265 45.0943 21.404 44.7141 21.5425C44.6222 21.5765 44.5271 21.5928 44.4321 21.5942C44.204 21.476 43.9758 21.3565 43.7493 21.237C43.743 21.2261 43.7366 21.2166 43.7303 21.2044C43.5671 20.8784 43.7445 20.5009 44.1247 20.3623H44.1263Z" fill="#CCCCCC"/>
<path d="M46.2453 21.4494C46.2849 21.3978 46.3324 21.3502 46.3879 21.3095C46.4433 21.2687 46.5083 21.2348 46.5796 21.2076C46.6746 21.1723 46.7728 21.156 46.871 21.156C47.0168 21.156 47.1594 21.1913 47.2798 21.2592C47.4002 21.3258 47.5015 21.4236 47.5617 21.5458C47.6219 21.668 47.6362 21.797 47.6093 21.9193C47.5823 22.0402 47.5142 22.1542 47.4128 22.2439C47.3447 22.3036 47.2623 22.3539 47.1689 22.3878C47.0976 22.4136 47.0247 22.4299 46.9518 22.4367C46.879 22.4435 46.8061 22.4408 46.7348 22.4286C46.4988 22.3892 46.2881 22.2534 46.1867 22.0497C46.0853 21.8459 46.1154 21.6218 46.2469 21.4494H46.2453Z" fill="#CCCCCC"/>
<path d="M45.9458 19.2911C45.8777 19.3508 45.7953 19.4011 45.7019 19.435C45.6306 19.4608 45.5577 19.4771 45.4848 19.4839C45.412 19.4907 45.3391 19.488 45.2678 19.4758C45.1601 19.4581 45.0571 19.4187 44.9684 19.3631C45.3644 19.1634 45.7573 18.961 46.1502 18.7573C46.1613 18.8279 46.1597 18.8986 46.1454 18.9665C46.1185 19.0874 46.0504 19.2014 45.949 19.2911H45.9458Z" fill="#CCCCCC"/>
<path d="M48.1156 17.7062C48.5053 17.493 48.8919 17.277 49.2784 17.0583C49.3497 17.1018 49.4146 17.1548 49.4653 17.2186C49.4938 17.2539 49.5176 17.292 49.5382 17.3327C49.7014 17.6586 49.5239 18.0362 49.1437 18.1747C48.7635 18.3133 48.3231 18.1625 48.1616 17.8366C48.141 17.7958 48.1267 17.7537 48.1156 17.713C48.1156 17.7103 48.1156 17.7089 48.1156 17.7062Z" fill="#CCCCCC"/>
<path d="M51.8047 15.8348C51.8427 15.8077 51.8823 15.7832 51.9267 15.7615C51.9488 15.7506 51.971 15.7411 51.9948 15.733C52.0185 15.7248 52.0423 15.7167 52.0661 15.7099C52.0914 15.7031 52.1152 15.6977 52.1405 15.6936C52.1944 16.116 52.2467 16.5397 52.2942 16.9648C52.0011 16.9675 51.7207 16.8209 51.5987 16.575C51.5781 16.5343 51.5639 16.4922 51.5528 16.4514C51.4974 16.2219 51.5956 15.9842 51.8015 15.8348H51.8047Z" fill="#CCCCCC"/>
<path d="M50.0248 19.9461C50.405 19.8062 50.8454 19.9583 51.007 20.2842C51.1701 20.6102 50.9927 20.9878 50.6125 21.1263C50.2323 21.2648 49.7919 21.1141 49.6303 20.7881C49.4687 20.4622 49.6446 20.0846 50.0248 19.9461Z" fill="#CCCCCC"/>
<path d="M52.4783 20.7923C52.5322 20.772 52.5876 20.7598 52.6431 20.7502C52.6732 21.174 52.7001 21.5977 52.7239 22.0215C52.4514 22.0065 52.1979 21.8639 52.0839 21.6344C51.9207 21.3084 52.0981 20.9309 52.4783 20.7923Z" fill="#CCCCCC"/>
<path d="M49.0404 22.0523C49.4206 21.9124 49.861 22.0645 50.0226 22.3904C50.1857 22.7164 50.0083 23.094 49.6281 23.2325C49.2479 23.3724 48.8075 23.2203 48.6459 22.8943C48.4828 22.5684 48.6602 22.1908 49.0404 22.0523Z" fill="#CCCCCC"/>
<path d="M51.0091 17.8394C51.3893 17.6995 51.8297 17.8516 51.9913 18.1775C52.1545 18.5035 51.9771 18.8811 51.5969 19.0196C51.2167 19.1595 50.7763 19.0074 50.6147 18.6814C50.4515 18.3555 50.6289 17.9779 51.0091 17.8394Z" fill="#CCCCCC"/>
<path d="M47.5677 19.1016C47.9479 18.9617 48.3883 19.1138 48.5499 19.4398C48.7131 19.7657 48.5357 20.1433 48.1555 20.2818C47.7753 20.4217 47.3349 20.2696 47.1733 19.9436C47.0101 19.6177 47.1875 19.2401 47.5677 19.1016Z" fill="#CCCCCC"/>
<path d="M51.4935 22.897C51.8262 22.7748 52.2048 22.8753 52.4028 23.1211C52.4313 23.1564 52.4551 23.1944 52.4757 23.2352C52.6389 23.5611 52.4614 23.9387 52.0812 24.0772C51.701 24.2158 51.2606 24.065 51.0991 23.7391C51.0785 23.6983 51.0642 23.6562 51.0531 23.6155C50.9834 23.3235 51.1608 23.0192 51.4935 22.897Z" fill="#CCCCCC"/>
<path d="M22.4857 30.0342C22.8659 29.8943 23.3063 30.0464 23.4679 30.3724C23.6311 30.6983 23.4536 31.0759 23.0734 31.2144C22.6932 31.353 22.2528 31.2022 22.0912 30.8762C21.9281 30.5503 22.1055 30.1727 22.4857 30.0342Z" fill="#BC84BF"/>
<path d="M24.9427 30.8804C25.3229 30.7405 25.7633 30.8926 25.9249 31.2186C26.0881 31.5445 25.9107 31.9221 25.5305 32.0606C25.1503 32.2005 24.7099 32.0484 24.5483 31.7224C24.3851 31.3965 24.5625 31.0189 24.9427 30.8804Z" fill="#BC84BF"/>
<path d="M23.4701 27.9287C23.8503 27.7888 24.2907 27.941 24.4523 28.2669C24.6154 28.5929 24.438 28.9704 24.0578 29.109C23.6776 29.2488 23.2372 29.0967 23.0756 28.7708C22.9125 28.4448 23.0899 28.0673 23.4701 27.9287Z" fill="#BC84BF"/>
<path d="M20.0326 29.1895C20.4128 29.0496 20.8532 29.2017 21.0148 29.5276C21.1779 29.8536 21.0005 30.2312 20.6203 30.3697C20.5839 30.3833 20.5474 30.3928 20.511 30.4009C20.2084 30.1347 19.9074 29.8685 19.608 29.5996C19.6682 29.4217 19.8187 29.2682 20.0326 29.1895Z" fill="#BC84BF"/>
<path d="M25.7938 28.836C25.8144 28.8238 25.835 28.8129 25.8571 28.8021C25.8793 28.7912 25.9015 28.7817 25.9253 28.7735C25.949 28.7654 25.9728 28.7572 25.9966 28.7504C26.0694 28.7314 26.1423 28.7219 26.2152 28.7219C26.3118 28.7219 26.4084 28.7382 26.4972 28.7681C26.5859 28.7993 26.6682 28.8442 26.7379 28.9012C26.8076 28.9596 26.8663 29.0302 26.9059 29.1117C26.9471 29.1932 26.9661 29.2774 26.9661 29.3616C26.9661 29.4445 26.9471 29.5273 26.9122 29.6034C26.8774 29.6794 26.8235 29.75 26.757 29.8098C26.7063 29.8546 26.6476 29.894 26.5811 29.9252C26.5589 29.9361 26.5368 29.9456 26.513 29.9538C26.4892 29.9619 26.4655 29.9701 26.4417 29.9769C26.4179 29.9836 26.3926 29.9891 26.3688 29.9931C26.0282 30.0529 25.6734 29.9022 25.5308 29.6156C25.3882 29.3304 25.507 29.0058 25.7922 28.836H25.7938Z" fill="#BC84BF"/>
<path d="M21.6087 28.2649C21.3267 28.3681 21.0114 28.3111 20.8007 28.1413C21.2126 28.0435 21.6245 27.9444 22.0364 27.8425C21.9793 28.0259 21.8273 28.1848 21.6087 28.2649Z" fill="#BC84BF"/>
<path d="M26.4128 33.8318C26.793 33.6919 27.2334 33.844 27.395 34.17C27.4409 34.2623 27.4583 34.3574 27.4536 34.4511C27.433 34.5285 27.4108 34.6059 27.3886 34.6834C27.3142 34.826 27.1811 34.9455 27.0005 35.012C26.6203 35.1519 26.1799 34.9998 26.0183 34.6738C25.8552 34.3479 26.0326 33.9703 26.4128 33.8318Z" fill="#BC84BF"/>
<path d="M24.8644 33.2109C24.893 33.2463 24.9167 33.2843 24.9373 33.325C25.053 33.5586 24.9959 33.818 24.8137 33.9973C24.4478 33.7067 24.085 33.4147 23.7238 33.1199C23.7888 33.0643 23.8664 33.0194 23.9551 32.9868C24.2878 32.8646 24.6664 32.9651 24.8644 33.2109Z" fill="#BC84BF"/>
<path d="M27.2698 31.7872C27.2904 31.775 27.311 31.7641 27.3332 31.7532C27.3554 31.7424 27.3775 31.7329 27.4013 31.7247C27.4251 31.7166 27.4488 31.7084 27.4726 31.7016C27.5455 31.6826 27.6183 31.6731 27.6912 31.6731C27.7878 31.6731 27.8845 31.6894 27.9732 31.7193C28.0318 31.7396 28.0872 31.7668 28.1379 31.798C28.0461 32.1797 27.951 32.56 27.8544 32.9416C27.8512 32.9416 27.848 32.943 27.8449 32.9443C27.5043 33.0041 27.1494 32.8533 27.0068 32.5681C26.9863 32.5274 26.972 32.4853 26.9609 32.4445C26.9007 32.1933 27.0227 31.9352 27.2682 31.7885L27.2698 31.7872Z" fill="#BC84BF"/>
<path d="M29.0051 27.7986C28.9782 27.9344 28.9528 28.0689 28.9259 28.2047C28.899 28.0634 28.9291 27.9208 29.0051 27.7986Z" fill="#BC84BF"/>
<path d="M28.3859 29.6184C28.4715 29.5871 28.5586 29.5708 28.6458 29.5681C28.5586 29.9769 28.4683 30.3857 28.3749 30.7932C28.2085 30.7293 28.0691 30.6152 27.9915 30.4604C27.8283 30.1345 28.0057 29.7569 28.3859 29.6184Z" fill="#BC84BF"/>
<path d="M26.9154 26.6673C27.2956 26.5274 27.736 26.6795 27.8976 27.0054C28.0607 27.3314 27.8833 27.7089 27.5031 27.8475C27.1229 27.9874 26.6825 27.8353 26.5209 27.5093C26.3578 27.1833 26.5352 26.8058 26.9154 26.6673Z" fill="#BC84BF"/>
<path d="M70.7512 0C70.7512 0 44.8818 26.3575 18.5593 28.1557" stroke="#DFC7A2" stroke-width="1.47522" stroke-miterlimit="10"/>
</g>
<defs>
<clipPath id="clip0_493_333">
<rect width="375" height="69" fill="white" transform="matrix(-1 0 0 1 375 0)"/>
</clipPath>
</defs>
</svg>
