<svg width="375" height="76" viewBox="0 0 375 76" fill="none" xmlns="http://www.w3.org/2000/svg">
<g clip-path="url(#clip0_493_660)">
<path d="M279.285 46.9967H286.021L285.837 45.0128H278.824V38.6919H309.552V45.0128H303L302.769 46.9967H309.505L309.044 56.5933H279.747L279.285 46.9967ZM291.327 46.9967H297.74L297.833 45.0128H291.189L291.327 46.9967ZM286.021 53.2714H287.405V50.5031H286.021V53.2714ZM293.634 53.2714H294.972V50.5031H293.634V53.2714ZM300.97 53.2714H302.308V50.5031H300.97V53.2714ZM310.797 58.7156V63.2833H303.369C302.677 64.2983 301.939 65.3133 301.201 66.3283L304.338 66.882L303.277 72.1878C301.339 71.8187 299.309 71.4035 297.141 71.0344C296.448 71.7264 295.756 72.3724 295.064 73.0183L290.543 71.3573C290.912 70.9421 291.281 70.573 291.65 70.1116C289.482 69.7887 287.267 69.5118 285.099 69.2812L285.883 63.2833H277.993V58.7156H286.437L286.621 57.3776L292.296 57.7467L292.112 58.7156H310.797ZM295.018 65.544C295.48 64.7597 295.941 64.0215 296.402 63.2833H291.327L291.004 65.1749C292.296 65.2672 293.634 65.4056 295.018 65.544Z" fill="#ED6D46"/>
<path d="M263.746 42.1062H262.823V37.1233H273.158V42.1062H272.235V54.0558H273.158V59.0387H269.928C269.928 59.8691 269.836 60.6535 269.79 61.3917H272.42V65.9593C272.42 68.3585 272.604 69.0505 273.158 69.0505V74.0334C270.067 74.0334 268.683 72.1879 268.406 67.8048C266.929 72.0956 264.946 74.0334 264.946 74.0334L261.255 72.2802C261.255 72.2802 261.531 71.9572 261.947 71.3113H259.409L259.317 70.0194L251.796 71.7265V66.6052L252.858 66.3746V57.1009L250.643 58.4389L249.443 56.455V74.0334H244.922V62.5451C244.23 63.837 243.399 64.9904 242.246 65.9593V59.1309C243.768 57.0548 244.368 53.2715 244.46 48.6116H242.246V43.6287H244.922V40.2607H249.443V43.6287H251.52V48.6116H249.443V51.8873L250.689 51.1953L252.858 54.8401V37.1233H261.9V59.0387H256.456V65.5441L258.809 65.0366L258.302 60.1921H262.5L263.377 68.7737C264.484 66.4668 265.638 63.1449 265.868 59.0387H262.823V54.0558H263.746V42.1062ZM258.302 42.1062H256.456V46.1663H258.302V42.1062ZM268.637 42.1062H267.345V54.0558H268.637V42.1062ZM258.302 49.9957H256.456V54.0558H258.302V49.9957Z" fill="#FBBD1B"/>
<path d="M236.031 43.7042C236.298 43.871 236.548 44.2048 236.782 44.7054C237.049 45.1727 237.282 45.7234 237.483 46.3575C237.716 46.9582 237.9 47.609 238.033 48.3099C238.2 49.0108 238.334 49.6616 238.434 50.2624C238.567 50.8631 238.651 51.3804 238.684 51.8143C238.718 52.2148 238.718 52.4651 238.684 52.5652C238.617 52.6987 238.417 52.8322 238.083 52.9657C237.783 53.0992 237.333 53.2494 236.732 53.4163C236.131 53.5832 235.297 53.7667 234.229 53.967C234.162 52.1314 234.028 50.7463 233.828 49.8118C233.628 48.8439 233.411 48.1597 233.177 47.7592C232.91 47.292 232.627 47.0584 232.326 47.0584C232.026 47.1919 231.759 47.3587 231.525 47.559C231.292 47.7259 231.091 47.9094 230.925 48.1097C230.724 48.3433 230.541 48.5936 230.374 48.8606C230.307 48.9607 230.24 49.1944 230.174 49.5615C230.107 49.9286 230.04 50.4793 229.973 51.2136C229.973 51.4472 229.957 51.9311 229.923 52.6654C229.923 53.3996 229.907 54.2507 229.873 55.2186C229.873 56.1864 229.857 57.2044 229.823 58.2724C229.823 59.3404 229.806 60.3416 229.773 61.2761C229.773 62.1772 229.756 62.9449 229.723 63.579C229.723 64.2131 229.706 64.5802 229.673 64.6804C229.606 64.8472 229.439 65.0809 229.172 65.3812C228.905 65.6816 228.605 65.9653 228.271 66.2323C227.937 66.4659 227.62 66.6662 227.32 66.8331C227.02 66.9666 226.819 66.9499 226.719 66.783C226.619 66.6829 226.519 66.249 226.419 65.4814C226.319 64.7138 226.202 63.7792 226.068 62.6779C225.968 61.5431 225.852 60.3082 225.718 58.9732C225.585 57.6382 225.468 56.3533 225.368 55.1184C225.267 53.8836 225.184 52.7822 225.117 51.8143C225.051 50.813 225 50.0955 224.967 49.6616C224.934 49.0275 224.9 48.3266 224.867 47.559C224.834 46.7914 224.8 46.0738 224.767 45.4063C224.767 44.7054 224.767 44.1047 224.767 43.604C224.8 43.07 224.867 42.753 224.967 42.6529C225.034 42.5527 225.251 42.536 225.618 42.6028C226.018 42.6362 226.436 42.7363 226.869 42.9032C227.337 43.0367 227.771 43.2202 228.171 43.4539C228.572 43.6875 228.839 43.9044 228.972 44.1047C229.072 44.2715 229.172 44.5219 229.272 44.8556C229.907 44.5219 230.507 44.2215 231.075 43.9545C231.675 43.6541 232.243 43.4372 232.777 43.3037C233.344 43.1702 233.895 43.1368 234.429 43.2035C234.963 43.2369 235.497 43.4038 236.031 43.7042Z" fill="#822586"/>
<path d="M210.537 56.5202C211.071 56.32 211.672 56.103 212.339 55.8694C213.04 55.6024 213.708 55.3688 214.342 55.1685C214.976 54.9349 215.543 54.7347 216.044 54.5678C216.545 54.4009 216.912 54.2674 217.145 54.1673C217.112 53.8002 217.062 53.383 216.995 52.9157C216.962 52.4151 216.912 51.9478 216.845 51.514C216.778 51.0467 216.695 50.6462 216.595 50.3125C216.495 49.9787 216.394 49.7785 216.294 49.7117C216.027 49.6116 215.577 49.5282 214.943 49.4614C214.342 49.3613 213.708 49.378 213.04 49.5115C212.406 49.645 211.822 49.8953 211.288 50.2624C210.754 50.6295 210.454 51.2136 210.387 52.0146C210.32 52.5486 210.303 53.2161 210.337 54.0171C210.37 54.8181 210.437 55.6525 210.537 56.5202ZM221.401 57.3212C221.367 57.388 220.967 57.5215 220.199 57.7217C219.432 57.922 218.514 58.1389 217.446 58.3725C216.378 58.5728 215.243 58.7897 214.041 59.0234C212.84 59.2236 211.805 59.3905 210.938 59.524C211.104 60.859 211.305 62.0605 211.538 63.1285C211.772 64.1631 211.972 64.8139 212.139 65.0809C212.306 65.3145 212.523 65.5315 212.79 65.7317C213.024 65.8986 213.307 66.0655 213.641 66.2324C214.008 66.3659 214.442 66.466 214.943 66.5327C215.31 66.6329 215.66 66.4994 215.994 66.1322C216.261 65.7985 216.495 65.2144 216.695 64.38C216.928 63.5457 217.045 62.2274 217.045 60.4251C218.08 60.2582 218.881 60.1581 219.448 60.1247C220.049 60.0914 220.483 60.0914 220.75 60.1247C221.084 60.1581 221.284 60.2082 221.351 60.2749C221.384 60.375 221.384 60.6254 221.351 61.0259C221.317 61.4264 221.234 61.927 221.1 62.5277C221 63.0951 220.867 63.7292 220.7 64.4301C220.566 65.0976 220.399 65.7484 220.199 66.3825C219.999 66.9833 219.782 67.534 219.548 68.0346C219.315 68.5019 219.064 68.8356 218.797 69.0359C217.996 69.6366 216.995 69.937 215.794 69.937C214.592 69.9036 213.407 69.7367 212.239 69.4364C211.071 69.1026 210.02 68.7188 209.085 68.2849C208.151 67.8177 207.567 67.4339 207.333 67.1335C207.166 66.9332 207.016 66.4326 206.883 65.6316C206.749 64.7972 206.632 63.796 206.532 62.6279C206.465 61.4597 206.415 60.1748 206.382 58.773C206.349 57.3713 206.365 56.0029 206.432 54.6679C206.532 53.3329 206.666 52.098 206.832 50.9633C207.033 49.8285 207.3 48.9107 207.633 48.2098C208.134 47.2086 208.952 46.3909 210.087 45.7568C211.221 45.1227 212.423 44.6888 213.691 44.4552C214.959 44.2215 216.161 44.1882 217.296 44.355C218.464 44.5219 219.331 44.889 219.899 45.4564C220.233 45.7902 220.533 46.4577 220.8 47.4589C221.067 48.4268 221.234 49.6116 221.301 51.0133C221.301 51.1468 221.317 51.5307 221.351 52.1648C221.384 52.7989 221.401 53.4831 221.401 54.2174C221.434 54.9182 221.451 55.5857 221.451 56.2199C221.451 56.854 221.434 57.2211 221.401 57.3212Z" fill="#ED6D46"/>
<path d="M197.609 53.6165C197.876 54.0838 198.276 54.7846 198.81 55.7191C199.378 56.6536 199.978 57.6883 200.613 58.823C201.247 59.9578 201.898 61.1259 202.565 62.3274C203.233 63.5289 203.817 64.6303 204.317 65.6315C204.818 66.6328 205.202 67.4672 205.469 68.1347C205.769 68.8022 205.869 69.1693 205.769 69.236C205.602 69.3362 205.352 69.3862 205.018 69.3862C204.684 69.3528 204.334 69.3028 203.967 69.236C203.6 69.1359 203.249 69.0191 202.915 68.8856C202.615 68.7187 202.398 68.5685 202.265 68.435C201.13 66.8998 200.112 65.4813 199.211 64.1797C198.343 62.8781 197.575 61.7433 196.908 60.7755C196.14 59.6741 195.456 58.6561 194.855 57.7216C194.755 59.2903 194.655 60.7755 194.555 62.1772C194.455 63.579 194.355 64.8305 194.255 65.9319C194.154 66.9999 194.038 67.8677 193.904 68.5352C193.804 69.1693 193.704 69.503 193.604 69.5364C193.337 69.5698 193.053 69.4697 192.753 69.236C192.452 68.969 192.169 68.652 191.902 68.2848C191.635 67.8843 191.384 67.4838 191.151 67.0833C190.95 66.6495 190.834 66.2823 190.8 65.982C190.6 62.9448 190.433 60.2248 190.3 57.8218C190.2 55.3854 190.099 53.2327 189.999 51.3637C189.933 49.4947 189.882 47.876 189.849 46.5076C189.849 45.1059 189.849 43.9211 189.849 42.9532C189.849 40.6503 189.916 39.065 190.049 38.1973C190.183 37.5298 190.483 36.8956 190.951 36.2949C191.451 35.6607 191.985 35.1101 192.552 34.6428C193.12 34.1756 193.654 33.8251 194.154 33.5915C194.655 33.3579 194.989 33.2911 195.156 33.3912C195.289 33.4914 195.373 34.0754 195.406 35.1434C195.439 36.2114 195.439 37.5798 195.406 39.2486C195.406 40.8839 195.373 42.7196 195.306 44.7554C195.239 46.7913 195.172 48.8272 195.106 50.8631C195.706 49.9619 196.291 49.0608 196.858 48.1597C197.425 47.2252 197.959 46.3908 198.46 45.6566C198.96 44.8889 199.394 44.2548 199.762 43.7542C200.162 43.2536 200.462 42.9532 200.663 42.8531C200.896 42.7196 201.263 42.6194 201.764 42.5527C202.298 42.4526 202.832 42.3858 203.366 42.3524C203.9 42.3191 204.384 42.3358 204.818 42.4025C205.285 42.4693 205.569 42.5861 205.669 42.7529C205.769 42.8531 205.585 43.2703 205.118 44.0045C204.651 44.7054 204.034 45.5731 203.266 46.6078C202.498 47.6424 201.614 48.7771 200.613 50.012C199.611 51.2469 198.61 52.4484 197.609 53.6165Z" fill="#822586"/>
<path d="M175.369 56.5202C175.903 56.32 176.504 56.103 177.171 55.8694C177.872 55.6024 178.54 55.3688 179.174 55.1685C179.808 54.9349 180.375 54.7347 180.876 54.5678C181.377 54.4009 181.744 54.2674 181.977 54.1673C181.944 53.8002 181.894 53.383 181.827 52.9157C181.794 52.4151 181.744 51.9478 181.677 51.514C181.61 51.0467 181.527 50.6462 181.427 50.3125C181.327 49.9787 181.226 49.7785 181.126 49.7117C180.859 49.6116 180.409 49.5282 179.775 49.4614C179.174 49.3613 178.54 49.378 177.872 49.5115C177.238 49.645 176.654 49.8953 176.12 50.2624C175.586 50.6295 175.286 51.2136 175.219 52.0146C175.152 52.5486 175.136 53.2161 175.169 54.0171C175.202 54.8181 175.269 55.6525 175.369 56.5202ZM186.233 57.3212C186.199 57.388 185.799 57.5215 185.031 57.7217C184.264 57.922 183.346 58.1389 182.278 58.3725C181.21 58.5728 180.075 58.7897 178.874 59.0234C177.672 59.2236 176.637 59.3905 175.77 59.524C175.937 60.859 176.137 62.0605 176.37 63.1285C176.604 64.1631 176.804 64.8139 176.971 65.0809C177.138 65.3145 177.355 65.5315 177.622 65.7317C177.856 65.8986 178.139 66.0655 178.473 66.2324C178.84 66.3659 179.274 66.466 179.775 66.5327C180.142 66.6329 180.492 66.4994 180.826 66.1322C181.093 65.7985 181.327 65.2144 181.527 64.38C181.76 63.5457 181.877 62.2274 181.877 60.4251C182.912 60.2582 183.713 60.1581 184.28 60.1247C184.881 60.0914 185.315 60.0914 185.582 60.1247C185.916 60.1581 186.116 60.2082 186.183 60.2749C186.216 60.375 186.216 60.6254 186.183 61.0259C186.149 61.4264 186.066 61.927 185.932 62.5277C185.832 63.0951 185.699 63.7292 185.532 64.4301C185.398 65.0976 185.231 65.7484 185.031 66.3825C184.831 66.9833 184.614 67.534 184.38 68.0346C184.147 68.5019 183.896 68.8356 183.629 69.0359C182.828 69.6366 181.827 69.937 180.626 69.937C179.424 69.9036 178.239 69.7367 177.071 69.4364C175.903 69.1026 174.852 68.7188 173.917 68.2849C172.983 67.8177 172.399 67.4339 172.165 67.1335C171.998 66.9332 171.848 66.4326 171.715 65.6316C171.581 64.7972 171.464 63.796 171.364 62.6279C171.297 61.4597 171.247 60.1748 171.214 58.773C171.181 57.3713 171.197 56.0029 171.264 54.6679C171.364 53.3329 171.498 52.098 171.665 50.9633C171.865 49.8285 172.132 48.9107 172.466 48.2098C172.966 47.2086 173.784 46.3909 174.919 45.7568C176.053 45.1227 177.255 44.6888 178.523 44.4552C179.791 44.2215 180.993 44.1882 182.128 44.355C183.296 44.5219 184.163 44.889 184.731 45.4564C185.065 45.7902 185.365 46.4577 185.632 47.4589C185.899 48.4268 186.066 49.6116 186.133 51.0133C186.133 51.1468 186.149 51.5307 186.183 52.1648C186.216 52.7989 186.233 53.4831 186.233 54.2174C186.266 54.9182 186.283 55.5857 186.283 56.2199C186.283 56.854 186.266 57.2211 186.233 57.3212Z" fill="#ED6D46"/>
<path d="M156.984 56.5202C157.518 56.32 158.119 56.103 158.786 55.8694C159.487 55.6024 160.155 55.3688 160.789 55.1685C161.423 54.9349 161.99 54.7347 162.491 54.5678C162.992 54.4009 163.359 54.2674 163.592 54.1673C163.559 53.8002 163.509 53.383 163.442 52.9157C163.409 52.4151 163.359 51.9478 163.292 51.514C163.225 51.0467 163.142 50.6462 163.042 50.3125C162.942 49.9787 162.841 49.7785 162.741 49.7117C162.474 49.6116 162.024 49.5282 161.39 49.4614C160.789 49.3613 160.155 49.378 159.487 49.5115C158.853 49.645 158.269 49.8953 157.735 50.2624C157.201 50.6295 156.901 51.2136 156.834 52.0146C156.767 52.5486 156.751 53.2161 156.784 54.0171C156.817 54.8181 156.884 55.6525 156.984 56.5202ZM167.848 57.3212C167.814 57.388 167.414 57.5215 166.646 57.7217C165.879 57.922 164.961 58.1389 163.893 58.3725C162.825 58.5728 161.69 58.7897 160.489 59.0234C159.287 59.2236 158.252 59.3905 157.385 59.524C157.552 60.859 157.752 62.0605 157.985 63.1285C158.219 64.1631 158.419 64.8139 158.586 65.0809C158.753 65.3145 158.97 65.5315 159.237 65.7317C159.471 65.8986 159.754 66.0655 160.088 66.2324C160.455 66.3659 160.889 66.466 161.39 66.5327C161.757 66.6329 162.107 66.4994 162.441 66.1322C162.708 65.7985 162.942 65.2144 163.142 64.38C163.375 63.5457 163.492 62.2274 163.492 60.4251C164.527 60.2582 165.328 60.1581 165.895 60.1247C166.496 60.0914 166.93 60.0914 167.197 60.1247C167.531 60.1581 167.731 60.2082 167.798 60.2749C167.831 60.375 167.831 60.6254 167.798 61.0259C167.764 61.4264 167.681 61.927 167.547 62.5277C167.447 63.0951 167.314 63.7292 167.147 64.4301C167.013 65.0976 166.846 65.7484 166.646 66.3825C166.446 66.9833 166.229 67.534 165.995 68.0346C165.762 68.5019 165.511 68.8356 165.244 69.0359C164.443 69.6366 163.442 69.937 162.241 69.937C161.039 69.9036 159.854 69.7367 158.686 69.4364C157.518 69.1026 156.467 68.7188 155.532 68.2849C154.598 67.8177 154.014 67.4339 153.78 67.1335C153.613 66.9332 153.463 66.4326 153.33 65.6316C153.196 64.7972 153.079 63.796 152.979 62.6279C152.912 61.4597 152.862 60.1748 152.829 58.773C152.796 57.3713 152.812 56.0029 152.879 54.6679C152.979 53.3329 153.113 52.098 153.28 50.9633C153.48 49.8285 153.747 48.9107 154.081 48.2098C154.581 47.2086 155.399 46.3909 156.534 45.7568C157.668 45.1227 158.87 44.6888 160.138 44.4552C161.406 44.2215 162.608 44.1882 163.743 44.355C164.911 44.5219 165.778 44.889 166.346 45.4564C166.68 45.7902 166.98 46.4577 167.247 47.4589C167.514 48.4268 167.681 49.6116 167.748 51.0133C167.748 51.1468 167.764 51.5307 167.798 52.1648C167.831 52.7989 167.848 53.4831 167.848 54.2174C167.881 54.9182 167.898 55.5857 167.898 56.2199C167.898 56.854 167.881 57.2211 167.848 57.3212Z" fill="#ED6D46"/>
<path d="M150.464 40.7003C150.497 41.201 150.431 41.9519 150.264 42.9531C150.13 43.9544 149.897 44.9556 149.563 45.9569C149.229 46.9581 148.795 47.8426 148.261 48.6102C147.761 49.3445 147.177 49.7116 146.509 49.7116C146.175 49.7116 145.892 49.5113 145.658 49.1108C145.424 48.7103 145.224 48.193 145.057 47.5589C144.89 46.9248 144.757 46.2239 144.657 45.4563C144.557 44.6553 144.457 43.8876 144.356 43.1534C144.29 42.4191 144.223 41.7516 144.156 41.1509C144.123 40.5168 144.089 40.0495 144.056 39.7491C143.923 39.5489 143.672 39.3486 143.305 39.1484C142.971 38.9148 142.671 38.7979 142.404 38.7979C142.104 38.7979 141.736 39.0816 141.303 39.649C140.902 40.2164 140.518 40.8839 140.151 41.6515C139.784 42.4191 139.484 43.1868 139.25 43.9544C139.016 44.6886 138.916 45.256 138.95 45.6565C138.95 45.9235 139.2 46.3908 139.701 47.0583C140.235 47.7258 140.885 48.5101 141.653 49.4112C142.421 50.3123 143.255 51.2969 144.156 52.3649C145.057 53.3995 145.892 54.4341 146.659 55.4688C147.427 56.5034 148.078 57.488 148.612 58.4225C149.146 59.357 149.429 60.158 149.463 60.8255C149.53 61.6265 149.346 62.6611 148.912 63.9293C148.512 65.1642 147.994 66.3657 147.36 67.5338C146.726 68.702 146.042 69.7199 145.308 70.5877C144.607 71.422 143.973 71.8559 143.405 71.8893C143.038 71.9227 142.554 71.7558 141.953 71.3887C141.353 71.0549 140.702 70.6044 140.001 70.037C139.3 69.4696 138.583 68.8522 137.848 68.1847C137.147 67.4838 136.48 66.7996 135.846 66.1321C135.245 65.4646 134.728 64.8638 134.294 64.3298C133.893 63.7625 133.66 63.3453 133.593 63.0783C133.459 62.6778 133.376 62.1438 133.343 61.4763C133.343 60.7754 133.376 60.1079 133.443 59.4738C133.543 58.8063 133.66 58.2389 133.793 57.7717C133.96 57.271 134.16 57.0207 134.394 57.0207C134.561 57.0207 134.828 57.2377 135.195 57.6715C135.595 58.1054 136.046 58.6561 136.547 59.3236C137.047 59.9911 137.581 60.7253 138.149 61.5263C138.749 62.294 139.317 63.0115 139.851 63.679C140.385 64.3465 140.869 64.9139 141.303 65.3812C141.736 65.815 142.087 66.0153 142.354 65.9819C142.554 65.9819 142.771 65.8317 143.005 65.5313C143.238 65.1976 143.455 64.8138 143.656 64.3799C143.856 63.9127 144.023 63.4454 144.156 62.9782C144.29 62.5109 144.356 62.1438 144.356 61.8768C144.323 61.4763 143.989 60.9089 143.355 60.1747C142.754 59.407 141.987 58.556 141.052 57.6215C140.151 56.6536 139.167 55.6523 138.099 54.6177C137.064 53.5831 136.079 52.5985 135.145 51.664C134.244 50.6961 133.476 49.8284 132.842 49.0608C132.241 48.2931 131.924 47.7091 131.891 47.3086C131.857 46.9081 131.974 46.2906 132.241 45.4563C132.508 44.5885 132.859 43.6206 133.293 42.5526C133.76 41.4846 134.277 40.4 134.845 39.2986C135.412 38.1972 135.996 37.1793 136.597 36.2448C137.197 35.3103 137.782 34.5593 138.349 33.9919C138.916 33.3912 139.417 33.0908 139.851 33.0908C140.418 33.0908 141.069 33.2243 141.803 33.4913C142.537 33.7249 143.288 34.0587 144.056 34.4926C144.857 34.8931 145.625 35.3603 146.359 35.8943C147.127 36.4283 147.811 36.979 148.411 37.5464C149.012 38.0804 149.496 38.6311 149.863 39.1985C150.23 39.7325 150.431 40.2331 150.464 40.7003Z" fill="#FBBD1B"/>
<path d="M127.123 48.2098C127.456 48.4101 127.774 48.7772 128.074 49.3112C128.408 49.8452 128.708 50.4626 128.975 51.1635C129.242 51.831 129.459 52.5653 129.626 53.3663C129.793 54.1339 129.876 54.8681 129.876 55.569C129.876 56.0363 129.809 56.7371 129.676 57.6716C129.542 58.5728 129.376 59.574 129.175 60.6754C128.975 61.7434 128.758 62.8448 128.524 63.9795C128.291 65.1143 128.074 66.1489 127.874 67.0834C127.673 68.0179 127.49 68.8022 127.323 69.4363C127.156 70.0705 127.056 70.4209 127.023 70.4876C126.956 70.5878 126.756 70.6545 126.422 70.6879C126.121 70.7213 125.788 70.7046 125.421 70.6378C125.087 70.5711 124.77 70.471 124.469 70.3375C124.169 70.204 123.985 70.0371 123.919 69.8368C123.885 69.7033 123.869 69.2861 123.869 68.5853C123.902 67.851 123.935 66.9833 123.969 65.982C124.036 64.9808 124.102 63.8961 124.169 62.728C124.269 61.5598 124.353 60.4751 124.419 59.4739C124.486 58.4393 124.536 57.5548 124.57 56.8206C124.636 56.0863 124.67 55.6524 124.67 55.5189C124.703 54.9849 124.653 54.4676 124.519 53.967C124.419 53.433 124.269 52.9824 124.069 52.6153C123.902 52.2482 123.702 51.9645 123.468 51.7643C123.268 51.564 123.068 51.4973 122.867 51.564C122.567 51.6308 122.267 51.7142 121.966 51.8143C121.699 51.9144 121.466 51.9979 121.265 52.0646C120.998 52.1648 120.765 52.2649 120.565 52.365C120.531 54.8348 120.481 57.2545 120.414 59.6241C120.348 61.9937 120.264 64.1297 120.164 66.0321C120.064 67.9011 119.947 69.4196 119.814 70.5878C119.713 71.7225 119.597 72.3066 119.463 72.34C119.196 72.3733 118.896 72.2565 118.562 71.9895C118.262 71.7225 117.961 71.3888 117.661 70.9883C117.361 70.6211 117.094 70.2206 116.86 69.7868C116.66 69.3529 116.526 68.9858 116.459 68.6854C116.192 65.4146 115.975 62.4943 115.809 59.9245C115.642 57.3212 115.508 55.0183 115.408 53.0158C115.308 51.0133 115.225 49.2778 115.158 47.8093C115.124 46.3408 115.108 45.0893 115.108 44.0546C115.074 41.6183 115.108 39.9328 115.208 38.9983C115.341 38.2974 115.642 37.6299 116.109 36.9958C116.576 36.3283 117.077 35.7442 117.611 35.2436C118.178 34.743 118.696 34.3759 119.163 34.1422C119.663 33.8752 119.997 33.8085 120.164 33.942C120.264 34.0421 120.348 34.5094 120.414 35.3437C120.514 36.1447 120.581 37.2294 120.615 38.5978C120.648 39.9328 120.665 41.4848 120.665 43.2536C120.665 44.9891 120.648 46.8248 120.615 48.7605C121.95 48.2265 123.184 47.8928 124.319 47.7593C125.487 47.6258 126.422 47.7759 127.123 48.2098Z" fill="#ED6D46"/>
<path d="M107.837 43.6041C107.703 43.4706 107.419 43.3371 106.986 43.2036C106.552 43.0701 106.251 43.1202 106.084 43.3538C105.984 43.4873 105.817 43.9212 105.584 44.6555C105.35 45.3897 105.1 46.3242 104.833 47.459C104.599 48.5937 104.382 49.8953 104.182 51.3638C104.015 52.8323 103.932 54.3509 103.932 55.9195C103.932 57.0543 103.982 58.139 104.082 59.1736C104.182 60.1748 104.299 61.0593 104.432 61.8269C104.599 62.5945 104.783 63.212 104.983 63.6792C105.217 64.1465 105.45 64.3968 105.684 64.4302C105.884 64.4302 106.118 64.1965 106.385 63.7293C106.685 63.262 106.969 62.728 107.236 62.1273C107.536 61.4932 107.787 60.9091 107.987 60.3751C108.22 59.8077 108.387 59.4406 108.487 59.2737C108.754 58.8398 109.105 58.4727 109.539 58.1723C109.973 57.8386 110.34 57.6717 110.64 57.6717C110.807 57.6717 110.924 57.7885 110.991 58.0222C111.091 58.2558 111.157 58.5395 111.191 58.8732C111.258 59.1736 111.291 59.4907 111.291 59.8244C111.291 60.1582 111.291 60.4252 111.291 60.6254C111.291 60.9925 111.224 61.6767 111.091 62.678C110.957 63.6792 110.757 64.6972 110.49 65.7318C110.256 66.7664 109.973 67.6842 109.639 68.4852C109.338 69.2862 109.005 69.67 108.638 69.6367C108.27 69.6033 107.72 69.4364 106.986 69.136C106.251 68.8357 105.5 68.4852 104.733 68.0847C103.998 67.6842 103.314 67.2837 102.68 66.8832C102.079 66.4493 101.712 66.1156 101.579 65.882C101.445 65.6483 101.245 65.081 100.978 64.1798C100.711 63.2453 100.427 62.1106 100.127 60.7756C99.86 59.4406 99.6264 57.9721 99.4261 56.3701C99.2259 54.7681 99.1257 53.1661 99.1257 51.5641C99.1257 49.9621 99.1591 48.3768 99.2259 46.8081C99.326 45.2395 99.4762 43.8378 99.6764 42.6029C99.8767 41.368 100.127 40.3668 100.427 39.5991C100.761 38.8315 101.162 38.431 101.629 38.3976C102.93 38.2641 104.232 38.381 105.534 38.7481C106.869 39.0818 108.054 39.5491 109.088 40.1498C110.156 40.7172 111.024 41.3346 111.691 42.0021C112.359 42.6363 112.709 43.1703 112.743 43.6041C112.776 44.0714 112.743 44.7222 112.643 45.5566C112.576 46.391 112.459 47.242 112.292 48.1098C112.159 48.9441 111.992 49.7118 111.792 50.4126C111.625 51.0801 111.474 51.464 111.341 51.5641C111.041 51.8645 110.69 52.1815 110.29 52.5153C109.889 52.849 109.505 52.9158 109.138 52.7155C109.005 52.6488 108.888 52.3985 108.788 51.9646C108.688 51.4973 108.588 50.93 108.487 50.2625C108.421 49.595 108.354 48.8774 108.287 48.1098C108.22 47.3421 108.154 46.6413 108.087 46.0071C108.054 45.3396 108.003 44.789 107.937 44.3551C107.903 43.8878 107.87 43.6375 107.837 43.6041Z" fill="#822586"/>
<path d="M85.1965 56.5202C85.7305 56.32 86.3313 56.103 86.9988 55.8694C87.6997 55.6024 88.3672 55.3688 89.0013 55.1685C89.6354 54.9349 90.2028 54.7347 90.7034 54.5678C91.204 54.4009 91.5712 54.2674 91.8048 54.1673C91.7714 53.8002 91.7214 53.383 91.6546 52.9157C91.6212 52.4151 91.5712 51.9478 91.5044 51.514C91.4377 51.0467 91.3542 50.6462 91.2541 50.3125C91.154 49.9787 91.0539 49.7785 90.9537 49.7117C90.6867 49.6116 90.2362 49.5282 89.602 49.4614C89.0013 49.3613 88.3672 49.378 87.6997 49.5115C87.0655 49.645 86.4815 49.8953 85.9475 50.2624C85.4135 50.6295 85.1131 51.2136 85.0464 52.0146C84.9796 52.5486 84.9629 53.2161 84.9963 54.0171C85.0297 54.8181 85.0964 55.6525 85.1965 56.5202ZM96.0601 57.3212C96.0267 57.388 95.6262 57.5215 94.8586 57.7217C94.091 57.922 93.1732 58.1389 92.1052 58.3725C91.0372 58.5728 89.9024 58.7897 88.7009 59.0234C87.4994 59.2236 86.4648 59.3905 85.597 59.524C85.7639 60.859 85.9642 62.0605 86.1978 63.1285C86.4314 64.1631 86.6317 64.8139 86.7985 65.0809C86.9654 65.3145 87.1823 65.5315 87.4493 65.7317C87.683 65.8986 87.9667 66.0655 88.3004 66.2324C88.6675 66.3659 89.1014 66.466 89.602 66.5327C89.9692 66.6329 90.3196 66.4994 90.6534 66.1322C90.9204 65.7985 91.154 65.2144 91.3542 64.38C91.5879 63.5457 91.7047 62.2274 91.7047 60.4251C92.7393 60.2582 93.5403 60.1581 94.1077 60.1247C94.7084 60.0914 95.1423 60.0914 95.4093 60.1247C95.743 60.1581 95.9433 60.2082 96.01 60.2749C96.0434 60.375 96.0434 60.6254 96.01 61.0259C95.9767 61.4264 95.8932 61.927 95.7597 62.5277C95.6596 63.0951 95.5261 63.7292 95.3592 64.4301C95.2257 65.0976 95.0589 65.7484 94.8586 66.3825C94.6584 66.9833 94.4414 67.534 94.2078 68.0346C93.9742 68.5019 93.7239 68.8356 93.4569 69.0359C92.6558 69.6366 91.6546 69.937 90.4531 69.937C89.2516 69.9036 88.0668 69.7367 86.8987 69.4364C85.7305 69.1026 84.6792 68.7188 83.7447 68.2849C82.8102 67.8177 82.2262 67.4339 81.9925 67.1335C81.8257 66.9332 81.6755 66.4326 81.542 65.6316C81.4085 64.7972 81.2917 63.796 81.1915 62.6279C81.1248 61.4597 81.0747 60.1748 81.0413 58.773C81.008 57.3713 81.0247 56.0029 81.0914 54.6679C81.1915 53.3329 81.325 52.098 81.4919 50.9633C81.6922 49.8285 81.9592 48.9107 82.2929 48.2098C82.7935 47.2086 83.6112 46.3909 84.746 45.7568C85.8807 45.1227 87.0822 44.6888 88.3505 44.4552C89.6187 44.2215 90.8202 44.1882 91.955 44.355C93.1231 44.5219 93.9909 44.889 94.5582 45.4564C94.892 45.7902 95.1924 46.4577 95.4594 47.4589C95.7264 48.4268 95.8932 49.6116 95.96 51.0133C95.96 51.1468 95.9767 51.5307 96.01 52.1648C96.0434 52.7989 96.0601 53.4831 96.0601 54.2174C96.0935 54.9182 96.1102 55.5857 96.1102 56.2199C96.1102 56.854 96.0935 57.2211 96.0601 57.3212Z" fill="#ED6D46"/>
<path d="M81.1294 34.0421C81.2295 34.2089 81.2796 34.5928 81.2796 35.1935C81.313 35.7943 81.2963 36.4451 81.2295 37.146C81.1628 37.8468 81.0626 38.531 80.9291 39.1985C80.829 39.8326 80.7122 40.2498 80.5787 40.4501C80.4786 40.617 79.8611 40.6837 78.7264 40.6503C77.625 40.5836 76.0397 40.4167 73.9705 40.1497C73.9705 41.4513 73.9538 43.1201 73.9204 45.156C73.887 47.1918 73.8203 49.3779 73.7201 51.7142C73.6534 54.017 73.57 56.3366 73.4698 58.6728C73.4031 61.0091 73.3196 63.1284 73.2195 65.0308C73.1194 66.9332 73.0193 68.4851 72.9191 69.6866C72.819 70.8881 72.7356 71.5222 72.6688 71.589C72.5353 71.6891 72.3017 71.639 71.968 71.4388C71.6676 71.2719 71.3505 71.0216 71.0168 70.6879C70.683 70.3541 70.366 70.0204 70.0656 69.6866C69.7986 69.3195 69.615 69.0024 69.5149 68.7354C69.4815 68.6019 69.4148 67.9511 69.3146 66.783C69.2479 65.6148 69.1645 64.1464 69.0643 62.3775C68.9642 60.6086 68.8474 58.6395 68.7139 56.4701C68.5804 54.3007 68.4469 52.148 68.3134 50.012C68.1799 47.876 68.0297 45.8735 67.8628 44.0045C67.7293 42.1355 67.6125 40.5836 67.5124 39.3487C65.2429 39.1151 63.6075 38.8815 62.6063 38.6478C61.605 38.4142 61.0376 38.2306 60.9041 38.0971C60.7706 37.9636 60.6371 37.7133 60.5036 37.3462C60.3368 36.9457 60.2033 36.5452 60.1031 36.1447C60.003 35.7442 59.9529 35.3771 59.9529 35.0433C59.9196 34.6762 59.9529 34.4426 60.0531 34.3424C60.1198 34.2757 60.6872 34.2089 61.7552 34.1422C62.7898 34.0754 64.0748 34.0087 65.61 33.9419C67.1453 33.8752 68.7973 33.8251 70.5662 33.7918C72.3685 33.7584 74.0372 33.7417 75.5725 33.7417C77.1077 33.7417 78.3927 33.7751 79.4273 33.8418C80.4953 33.8752 81.0627 33.9419 81.1294 34.0421Z" fill="#822586"/>
<path d="M305.465 11.7765C309.421 11.0056 313.262 10.0042 316.998 8.82165C314.316 6.23716 311.762 3.51757 309.493 0.572266C307.809 4.16766 306.567 7.94267 305.465 11.7765Z" fill="#F7931E"/>
<path d="M315.848 21.604C319.64 20.2736 323.319 18.7731 326.872 17.1137C323.821 14.8741 320.896 12.4597 318.126 9.89111C317.178 13.7027 316.42 17.6144 315.848 21.604Z" fill="#B75FBB"/>
<path d="M327.383 29.9395C330.973 28.1323 334.428 26.1756 337.743 24.0711C334.429 22.2432 331.224 20.2167 328.137 18.0264C327.695 21.9333 327.443 25.9086 327.384 29.9395H327.383Z" fill="#666666"/>
<path d="M339.885 36.7261C343.218 34.4675 346.393 32.0833 349.409 29.5735C345.901 28.1827 342.443 26.5916 339.113 24.813C339.172 28.7978 339.435 32.762 339.885 36.7261Z" fill="#F39800"/>
<path d="M353.156 41.8447C356.135 39.2125 358.985 36.4341 361.686 33.5238C358.033 32.6067 354.386 31.459 350.863 30.1318C351.427 34.0197 352.186 37.9409 353.154 41.8447H353.156Z" fill="#B75FBB"/>
<path d="M320.743 15.2525L317.241 13.7505C317.141 14.2226 317.043 14.6978 316.949 15.1731L320.187 16.5607L320.297 16.6068L324.247 18.3012C324.84 18.0421 325.428 17.7782 326.014 17.5112L320.854 15.2986L320.745 15.2525H320.743Z" fill="#BC84BF"/>
<path d="M321.41 13.9907L324.507 15.3179C323.171 14.2752 321.863 13.1975 320.583 12.0881L317.877 10.9277C317.766 11.395 317.657 11.8639 317.551 12.3344L321.302 13.943L321.411 13.9891L321.41 13.9907Z" fill="#BC84BF"/>
<path d="M318.516 20.4865L316.174 19.4819C316.097 19.9635 316.022 20.4483 315.949 20.9331L316.76 21.2812C317.41 21.0476 318.056 20.8091 318.699 20.566L318.625 20.5342L318.516 20.4881V20.4865Z" fill="#BC84BF"/>
<path d="M319.632 17.8689L316.676 16.6021C316.587 17.0789 316.502 17.5589 316.418 18.0389L319.075 19.1786L319.184 19.2247L320.594 19.8287C321.213 19.5823 321.829 19.3296 322.443 19.0737L319.742 17.915L319.632 17.8689Z" fill="#BC84BF"/>
<path d="M339.887 36.7265C340.154 36.5453 340.42 36.3625 340.687 36.1797L339.785 35.7935C339.818 36.105 339.852 36.4149 339.887 36.7265Z" fill="#F8C166"/>
<path d="M339.368 30.9741L344.731 33.2741C345.167 32.9467 345.601 32.616 346.031 32.2838L339.273 29.3862C339.302 29.9155 339.334 30.4448 339.368 30.9741Z" fill="#F8C166"/>
<path d="M339.626 34.1783L342.061 35.2225C342.514 34.9015 342.962 34.5788 343.409 34.253L339.488 32.5713C339.531 33.1069 339.577 33.6426 339.628 34.1783H339.626Z" fill="#F8C166"/>
<path d="M339.197 27.8061L347.306 31.2839C347.728 30.9501 348.146 30.6131 348.561 30.2746L339.145 26.2373C339.159 26.7602 339.176 27.2832 339.197 27.8061Z" fill="#F8C166"/>
<path d="M315.949 9.05674C315.925 9.0472 315.901 9.03767 315.877 9.02972C315.83 9.01382 315.781 9.00429 315.731 8.99952C315.438 8.96932 315.147 9.11555 315.001 9.38258C314.99 9.40166 314.981 9.42232 314.973 9.44139C315.335 9.3349 315.698 9.22522 316.059 9.11396C316.047 9.10601 316.034 9.09648 316.02 9.08853C315.998 9.07581 315.975 9.06469 315.952 9.05515L315.949 9.05674Z" fill="#FFFF66"/>
<path d="M312.508 7.58041C312.128 7.41669 311.687 7.59471 311.526 7.97619C311.362 8.35766 311.54 8.79954 311.92 8.96166C312.3 9.12379 312.741 8.94736 312.902 8.56588C313.065 8.18441 312.888 7.74254 312.508 7.58041Z" fill="#FFFF66"/>
<path d="M310.051 8.56869C309.67 8.40497 309.23 8.583 309.068 8.96447C308.905 9.34594 309.083 9.78782 309.463 9.94994C309.843 10.1137 310.284 9.93564 310.445 9.55417C310.608 9.17269 310.431 8.73082 310.051 8.56869Z" fill="#FFFF66"/>
<path d="M311.519 5.11508C311.139 4.95136 310.699 5.12938 310.537 5.51086C310.374 5.89233 310.551 6.33421 310.932 6.49633C311.312 6.66005 311.752 6.48203 311.914 6.10055C312.077 5.71908 311.9 5.2772 311.519 5.11508Z" fill="#FFFF66"/>
<path d="M314.696 6.53137C314.395 6.52025 314.104 6.69191 313.979 6.98596C313.815 7.36744 313.993 7.80931 314.373 7.97144C314.753 8.13516 315.194 7.95714 315.355 7.57566C315.398 7.47393 315.417 7.36744 315.415 7.26253C315.175 7.01934 314.935 6.77615 314.696 6.52979V6.53137Z" fill="#FFFF66"/>
<path d="M313.387 5.50769C313.513 5.56173 313.644 5.57763 313.769 5.56173C313.493 5.26768 313.218 4.97204 312.947 4.6748C312.882 5.01495 313.058 5.36623 313.387 5.50769Z" fill="#FFFF66"/>
<path d="M309.494 0.572266C309.335 0.910824 309.182 1.25097 309.031 1.59271C309.394 1.70715 309.79 1.52913 309.942 1.1715C309.944 1.16673 309.945 1.16037 309.948 1.1556C309.796 0.963277 309.644 0.769361 309.494 0.573855V0.572266Z" fill="#FFFF66"/>
<path d="M309.2 6.17831C309.179 6.16401 309.158 6.15129 309.136 6.13857C309.114 6.12586 309.092 6.11473 309.068 6.1052C309.044 6.09566 309.021 6.08612 308.997 6.07817C308.731 5.99552 308.447 6.06864 308.255 6.25461C308.186 6.32295 308.127 6.40561 308.088 6.50098C308.046 6.59634 308.027 6.69489 308.027 6.79344C308.027 7.06206 308.17 7.31797 308.412 7.45307C308.434 7.46579 308.457 7.47691 308.48 7.48645C308.504 7.49599 308.528 7.50553 308.552 7.51347C308.575 7.52142 308.601 7.52778 308.625 7.53255C308.965 7.60248 309.32 7.42446 309.463 7.09067C309.605 6.75688 309.486 6.377 309.201 6.17831H309.2Z" fill="#FFFF66"/>
<path d="M306.858 7.26855C306.719 7.685 306.582 8.10303 306.449 8.52265C306.688 8.47815 306.901 8.3192 307.002 8.07919C307.122 7.79467 307.056 7.47837 306.858 7.26855Z" fill="#FFFF66"/>
<path d="M308.158 3.68115C307.976 4.14051 307.8 4.60146 307.629 5.06559C307.971 5.1387 308.328 4.96068 308.472 4.6253C308.622 4.27244 308.481 3.86871 308.158 3.68115Z" fill="#FFFF66"/>
<path d="M310.668 2.72421C310.648 2.7099 310.627 2.69719 310.605 2.68447C310.583 2.67176 310.561 2.66063 310.537 2.65109C310.513 2.64156 310.489 2.63202 310.466 2.62407C310.199 2.54142 309.916 2.61454 309.724 2.80051C309.689 2.83388 309.658 2.87203 309.629 2.91336C309.601 2.95468 309.577 2.99919 309.556 3.04687C309.515 3.14224 309.496 3.24079 309.496 3.33934C309.496 3.60796 309.639 3.86387 309.881 3.99897C309.903 4.01169 309.925 4.02281 309.949 4.03235C309.973 4.04189 309.997 4.05142 310.02 4.05937C310.044 4.06732 310.07 4.07368 310.093 4.07844C310.434 4.14838 310.789 3.97195 310.931 3.63816C310.952 3.59048 310.966 3.5412 310.977 3.49352C311.037 3.19946 310.916 2.89746 310.67 2.7258L310.668 2.72421Z" fill="#FFFF66"/>
<path d="M307.727 9.63192C307.706 9.61762 307.686 9.6049 307.664 9.59219C307.641 9.57947 307.619 9.56835 307.595 9.55881C307.572 9.54927 307.548 9.53974 307.524 9.53179C307.258 9.44914 306.974 9.52225 306.783 9.70822C306.748 9.7416 306.716 9.77975 306.688 9.82107C306.659 9.8624 306.635 9.9069 306.615 9.95459C306.574 10.05 306.555 10.1485 306.555 10.2471C306.555 10.5157 306.697 10.7716 306.94 10.9067C306.962 10.9194 306.984 10.9305 307.008 10.9401C307.032 10.9496 307.055 10.9591 307.079 10.9671C307.103 10.975 307.128 10.9814 307.152 10.9862C307.493 11.0561 307.847 10.8797 307.99 10.5459C308.011 10.4982 308.025 10.4489 308.036 10.4012C308.096 10.1072 307.974 9.80518 307.729 9.63351L307.727 9.63192Z" fill="#FFFF66"/>
<path d="M336.117 23.8304C335.737 23.6667 335.296 23.8447 335.135 24.2262C334.972 24.6077 335.149 25.0495 335.529 25.2117C335.621 25.2514 335.716 25.2705 335.811 25.2721C336.039 25.1338 336.268 24.9939 336.494 24.854C336.5 24.8413 336.507 24.8302 336.513 24.8159C336.676 24.4344 336.499 23.9925 336.119 23.8304H336.117Z" fill="#CCCCCC"/>
<path d="M333.998 25.1026C333.959 25.0422 333.911 24.9866 333.856 24.9389C333.8 24.8912 333.735 24.8515 333.664 24.8197C333.569 24.7783 333.471 24.7593 333.372 24.7593C333.227 24.7593 333.084 24.8006 332.964 24.8801C332.843 24.958 332.742 25.0724 332.682 25.2155C332.621 25.3585 332.607 25.5095 332.634 25.6526C332.661 25.794 332.729 25.9275 332.831 26.0324C332.899 26.1024 332.981 26.1612 333.075 26.2009C333.146 26.2311 333.219 26.2502 333.292 26.2582C333.364 26.2661 333.437 26.2629 333.509 26.2486C333.745 26.2025 333.955 26.0436 334.057 25.8052C334.158 25.5667 334.128 25.3045 333.997 25.1026H333.998Z" fill="#CCCCCC"/>
<path d="M334.298 22.5768C334.366 22.6467 334.448 22.7056 334.542 22.7453C334.613 22.7755 334.686 22.7946 334.759 22.8025C334.831 22.8105 334.904 22.8073 334.976 22.793C335.083 22.7723 335.186 22.7262 335.275 22.6611C334.879 22.4274 334.486 22.1906 334.093 21.9521C334.082 22.0348 334.084 22.1175 334.098 22.1969C334.125 22.3384 334.193 22.4719 334.294 22.5768H334.298Z" fill="#CCCCCC"/>
<path d="M332.128 20.722C331.738 20.4725 331.352 20.2198 330.965 19.9639C330.894 20.0147 330.829 20.0767 330.778 20.1514C330.75 20.1928 330.726 20.2373 330.705 20.2849C330.542 20.6664 330.719 21.1083 331.1 21.2704C331.48 21.4325 331.92 21.2561 332.082 20.8746C332.102 20.827 332.117 20.7777 332.128 20.73C332.128 20.7268 332.128 20.7252 332.128 20.722Z" fill="#CCCCCC"/>
<path d="M328.439 18.5315C328.401 18.4997 328.361 18.4711 328.317 18.4457C328.295 18.433 328.272 18.4218 328.249 18.4123C328.225 18.4028 328.201 18.3932 328.177 18.3853C328.152 18.3773 328.128 18.371 328.103 18.3662C328.049 18.8605 327.997 19.3565 327.949 19.854C328.242 19.8571 328.523 19.6855 328.645 19.3978C328.665 19.3501 328.68 19.3008 328.691 19.2531C328.746 18.9845 328.648 18.7064 328.442 18.5315H328.439Z" fill="#CCCCCC"/>
<path d="M330.219 23.3431C329.838 23.1794 329.398 23.3574 329.236 23.7389C329.073 24.1204 329.251 24.5622 329.631 24.7244C330.011 24.8865 330.452 24.7101 330.613 24.3286C330.775 23.9471 330.599 23.5052 330.219 23.3431Z" fill="#CCCCCC"/>
<path d="M327.765 24.3335C327.711 24.3096 327.656 24.2953 327.6 24.2842C327.57 24.7801 327.543 25.276 327.52 25.7719C327.792 25.7544 328.045 25.5875 328.16 25.3189C328.323 24.9375 328.145 24.4956 327.765 24.3335Z" fill="#CCCCCC"/>
<path d="M331.203 25.8084C330.823 25.6447 330.382 25.8227 330.221 26.2042C330.058 26.5857 330.235 27.0276 330.615 27.1897C330.995 27.3534 331.436 27.1754 331.597 26.7939C331.761 26.4124 331.583 25.9706 331.203 25.8084Z" fill="#CCCCCC"/>
<path d="M329.234 20.8778C328.854 20.7141 328.414 20.8921 328.252 21.2736C328.089 21.655 328.266 22.0969 328.647 22.259C329.027 22.4227 329.467 22.2447 329.629 21.8632C329.792 21.4818 329.614 21.0399 329.234 20.8778Z" fill="#CCCCCC"/>
<path d="M332.676 22.3548C332.295 22.1911 331.855 22.3691 331.693 22.7506C331.53 23.1321 331.708 23.574 332.088 23.7361C332.468 23.8998 332.909 23.7218 333.07 23.3403C333.233 22.9588 333.056 22.5169 332.676 22.3548Z" fill="#CCCCCC"/>
<path d="M328.75 26.7967C328.417 26.6537 328.039 26.7713 327.841 27.059C327.812 27.1003 327.788 27.1448 327.768 27.1925C327.605 27.574 327.782 28.0159 328.162 28.178C328.542 28.3401 328.983 28.1637 329.144 27.7822C329.165 27.7345 329.179 27.6853 329.19 27.6376C329.26 27.2958 329.083 26.9398 328.75 26.7967Z" fill="#CCCCCC"/>
<path d="M357.758 35.1497C357.377 34.986 356.937 35.1641 356.776 35.5455C356.612 35.927 356.79 36.3689 357.17 36.531C357.55 36.6931 357.991 36.5167 358.152 36.1352C358.315 35.7537 358.138 35.3119 357.758 35.1497Z" fill="#BC84BF"/>
<path d="M355.301 36.14C354.92 35.9763 354.48 36.1543 354.318 36.5358C354.155 36.9172 354.333 37.3591 354.713 37.5212C355.093 37.685 355.534 37.5069 355.695 37.1255C355.858 36.744 355.681 36.3021 355.301 36.14Z" fill="#BC84BF"/>
<path d="M356.773 32.6859C356.393 32.5222 355.953 32.7002 355.791 33.0817C355.628 33.4631 355.805 33.905 356.186 34.0671C356.566 34.2308 357.006 34.0528 357.168 33.6714C357.331 33.2899 357.154 32.848 356.773 32.6859Z" fill="#BC84BF"/>
<path d="M360.211 34.161C359.831 33.9973 359.39 34.1753 359.229 34.5568C359.065 34.9382 359.243 35.3801 359.623 35.5422C359.66 35.5581 359.696 35.5693 359.732 35.5788C360.035 35.2673 360.336 34.9557 360.635 34.641C360.575 34.4328 360.425 34.2532 360.211 34.161Z" fill="#BC84BF"/>
<path d="M354.45 33.7473C354.429 33.733 354.408 33.7203 354.386 33.7076C354.364 33.6948 354.342 33.6837 354.318 33.6742C354.294 33.6646 354.271 33.6551 354.247 33.6471C354.174 33.6249 354.101 33.6138 354.028 33.6138C353.932 33.6138 353.835 33.6328 353.746 33.6678C353.658 33.7044 353.575 33.7568 353.505 33.8236C353.436 33.8919 353.377 33.9746 353.338 34.07C353.296 34.1653 353.277 34.2639 353.277 34.3624C353.277 34.4594 353.296 34.5563 353.331 34.6453C353.366 34.7344 353.42 34.817 353.486 34.8869C353.537 34.9394 353.596 34.9855 353.662 35.022C353.684 35.0348 353.707 35.0459 353.73 35.0554C353.754 35.065 353.778 35.0745 353.802 35.0824C353.825 35.0904 353.851 35.0968 353.875 35.1015C354.215 35.1715 354.57 34.995 354.713 34.6596C354.855 34.3259 354.736 33.946 354.451 33.7473H354.45Z" fill="#BC84BF"/>
<path d="M358.635 33.0788C358.917 33.1996 359.232 33.1328 359.443 32.9342C359.031 32.8197 358.619 32.7037 358.207 32.5845C358.264 32.7991 358.416 32.985 358.635 33.0788Z" fill="#BC84BF"/>
<path d="M353.831 39.5941C353.45 39.4304 353.01 39.6084 352.848 39.9899C352.802 40.0979 352.785 40.2092 352.79 40.3189C352.81 40.4095 352.833 40.5001 352.855 40.5907C352.929 40.7576 353.062 40.8975 353.243 40.9753C353.623 41.1391 354.063 40.961 354.225 40.5796C354.388 40.1981 354.211 39.7562 353.831 39.5941Z" fill="#BC84BF"/>
<path d="M355.379 38.8676C355.35 38.9089 355.327 38.9534 355.306 39.0011C355.19 39.2745 355.247 39.5781 355.43 39.7879C355.796 39.4478 356.158 39.106 356.52 38.7611C356.455 38.6959 356.377 38.6435 356.288 38.6053C355.956 38.4623 355.577 38.5799 355.379 38.8676Z" fill="#BC84BF"/>
<path d="M352.974 37.2014C352.953 37.1871 352.932 37.1744 352.91 37.1616C352.888 37.1489 352.866 37.1378 352.842 37.1283C352.818 37.1187 352.795 37.1092 352.771 37.1012C352.698 37.079 352.625 37.0679 352.552 37.0679C352.456 37.0679 352.359 37.0869 352.27 37.1219C352.212 37.1458 352.156 37.1775 352.105 37.2141C352.197 37.6607 352.292 38.1058 352.389 38.5524C352.392 38.5524 352.395 38.554 352.399 38.5556C352.739 38.6256 353.094 38.4491 353.237 38.1153C353.257 38.0677 353.271 38.0184 353.283 37.9707C353.343 37.6766 353.221 37.3746 352.975 37.203L352.974 37.2014Z" fill="#BC84BF"/>
<path d="M351.238 32.5332C351.265 32.6922 351.291 32.8495 351.317 33.0085C351.344 32.8432 351.314 32.6763 351.238 32.5332Z" fill="#BC84BF"/>
<path d="M351.857 34.6633C351.772 34.6267 351.685 34.6077 351.598 34.6045C351.685 35.0829 351.775 35.5614 351.869 36.0382C352.035 35.9635 352.174 35.83 352.252 35.6488C352.415 35.2673 352.238 34.8254 351.857 34.6633Z" fill="#BC84BF"/>
<path d="M353.328 31.2093C352.948 31.0456 352.507 31.2236 352.346 31.6051C352.183 31.9866 352.36 32.4284 352.74 32.5906C353.12 32.7543 353.561 32.5763 353.722 32.1948C353.886 31.8133 353.708 31.3714 353.328 31.2093Z" fill="#BC84BF"/>
<path d="M309.492 0C309.492 0 335.362 30.847 361.684 32.9514" stroke="#DFC7A2" stroke-width="1.47522" stroke-miterlimit="10"/>
<path d="M70.4648 11.7765C66.5092 11.0056 62.6676 10.0042 58.9321 8.82165C61.6141 6.23716 64.1678 3.51757 66.4363 0.572266C68.1203 4.16766 69.3623 7.94267 70.4648 11.7765Z" fill="#F7931E"/>
<path d="M60.082 21.604C56.2895 20.2736 52.6111 18.7731 49.0578 17.1137C52.1089 14.8741 55.0333 12.4597 57.804 9.89111C58.7513 13.7027 59.5101 17.6144 60.082 21.604Z" fill="#B75FBB"/>
<path d="M48.5469 29.9395C44.9572 28.1323 41.5021 26.1756 38.1864 24.0711C41.5005 22.2432 44.7053 20.2167 47.7928 18.0264C48.2348 21.9333 48.4867 25.9086 48.5453 29.9395H48.5469Z" fill="#666666"/>
<path d="M36.0449 36.7261C32.7118 34.4675 29.5372 32.0833 26.5209 29.5735C30.0282 28.1827 33.4865 26.5916 36.8164 24.813C36.7578 28.7978 36.4948 32.762 36.0449 36.7261Z" fill="#F39800"/>
<path d="M22.7741 41.8447C19.7943 39.2125 16.9444 36.4341 14.2434 33.5238C17.8965 32.6067 21.5432 31.459 25.0664 30.1318C24.5024 34.0197 23.7436 37.9409 22.7757 41.8447H22.7741Z" fill="#B75FBB"/>
<path d="M55.1864 15.2525L58.689 13.7505C58.7888 14.2226 58.887 14.6978 58.9805 15.1731L55.7424 16.5607L55.6331 16.6068L51.6822 18.3012C51.0897 18.0421 50.502 17.7782 49.9159 17.5112L55.0755 15.2986L55.1848 15.2525H55.1864Z" fill="#BC84BF"/>
<path d="M54.5199 13.9907L51.4228 15.3179C52.7583 14.2752 54.0668 13.1975 55.3468 12.0881L58.0526 10.9277C58.1635 11.395 58.2728 11.8639 58.3789 12.3344L54.6276 13.943L54.5183 13.9891L54.5199 13.9907Z" fill="#BC84BF"/>
<path d="M57.4141 20.4865L59.7555 19.4819C59.8331 19.9635 59.9076 20.4483 59.9805 20.9331L59.1694 21.2812C58.5199 21.0476 57.8735 20.8091 57.2304 20.566L57.3048 20.5342L57.4141 20.4881V20.4865Z" fill="#BC84BF"/>
<path d="M56.2974 17.8689L59.2535 16.6021C59.3422 17.0789 59.4278 17.5589 59.5117 18.0389L56.8551 19.1786L56.7458 19.2247L55.3359 19.8287C54.7164 19.5823 54.1002 19.3296 53.4871 19.0737L56.1881 17.915L56.2974 17.8689Z" fill="#BC84BF"/>
<path d="M36.0431 36.7265C35.7754 36.5453 35.5093 36.3625 35.2431 36.1797L36.1445 35.7935C36.1113 36.105 36.078 36.4149 36.0431 36.7265Z" fill="#F8C166"/>
<path d="M36.5612 30.9741L31.1988 33.2741C30.7631 32.9467 30.3291 32.616 29.8982 32.2838L36.6562 29.3862C36.6277 29.9155 36.5961 30.4448 36.5612 30.9741Z" fill="#F8C166"/>
<path d="M36.3036 34.1783L33.8687 35.2225C33.4156 34.9015 32.9673 34.5788 32.5206 34.253L36.4414 32.5713C36.3986 33.1069 36.3527 33.6426 36.302 34.1783H36.3036Z" fill="#F8C166"/>
<path d="M36.7329 27.8061L28.6235 31.2839C28.2021 30.9501 27.7839 30.6131 27.3689 30.2746L36.7852 26.2373C36.7709 26.7602 36.7535 27.2832 36.7329 27.8061Z" fill="#F8C166"/>
<path d="M59.9812 9.05674C60.0049 9.0472 60.0287 9.03767 60.0525 9.02972C60.1 9.01382 60.1491 9.00429 60.1982 8.99952C60.4913 8.96932 60.7828 9.11555 60.9285 9.38258C60.9396 9.40166 60.9491 9.42232 60.957 9.44139C60.5943 9.3349 60.2315 9.22522 59.8703 9.11396C59.883 9.10601 59.8956 9.09648 59.9099 9.08853C59.9321 9.07581 59.9543 9.06469 59.978 9.05515L59.9812 9.05674Z" fill="#FFFF66"/>
<path d="M63.422 7.58041C63.8022 7.41669 64.2426 7.59471 64.4042 7.97619C64.5673 8.35766 64.3899 8.79954 64.0097 8.96166C63.6295 9.12379 63.1891 8.94736 63.0275 8.56588C62.8644 8.18441 63.0418 7.74254 63.422 7.58041Z" fill="#FFFF66"/>
<path d="M65.879 8.56869C66.2592 8.40497 66.6996 8.583 66.8612 8.96447C67.0244 9.34594 66.8469 9.78782 66.4667 9.94994C66.0865 10.1137 65.6461 9.93564 65.4846 9.55417C65.3214 9.17269 65.4988 8.73082 65.879 8.56869Z" fill="#FFFF66"/>
<path d="M64.4103 5.11508C64.7905 4.95136 65.2309 5.12938 65.3925 5.51086C65.5556 5.89233 65.3782 6.33421 64.998 6.49633C64.6178 6.66005 64.1774 6.48203 64.0158 6.10055C63.8526 5.71908 64.0301 5.2772 64.4103 5.11508Z" fill="#FFFF66"/>
<path d="M61.2334 6.53137C61.5344 6.52025 61.8259 6.69191 61.951 6.98596C62.1142 7.36744 61.9368 7.80931 61.5566 7.97144C61.1764 8.13516 60.736 7.95714 60.5744 7.57566C60.5316 7.47393 60.5126 7.36744 60.5142 7.26253C60.755 7.01934 60.9942 6.77615 61.2334 6.52979V6.53137Z" fill="#FFFF66"/>
<path d="M62.5423 5.50769C62.4172 5.56173 62.2857 5.57763 62.1605 5.56173C62.4362 5.26768 62.7118 4.97204 62.9827 4.6748C63.0477 5.01495 62.8718 5.36623 62.5423 5.50769Z" fill="#FFFF66"/>
<path d="M66.4359 0.572266C66.5943 0.910824 66.7479 1.25097 66.8984 1.59271C66.5357 1.70715 66.1396 1.52913 65.9875 1.1715C65.986 1.16673 65.9844 1.16037 65.9812 1.1556C66.1333 0.963277 66.2854 0.769361 66.4359 0.573855V0.572266Z" fill="#FFFF66"/>
<path d="M66.7301 6.17831C66.7507 6.16401 66.7712 6.15129 66.7934 6.13857C66.8156 6.12586 66.8378 6.11473 66.8615 6.1052C66.8853 6.09566 66.9091 6.08612 66.9328 6.07817C67.199 5.99552 67.4825 6.06864 67.6742 6.25461C67.7439 6.32295 67.8025 6.40561 67.8421 6.50098C67.8833 6.59634 67.9023 6.69489 67.9023 6.79344C67.9023 7.06206 67.7598 7.31797 67.5174 7.45307C67.4952 7.46579 67.473 7.47691 67.4493 7.48645C67.4255 7.49599 67.4017 7.50553 67.378 7.51347C67.3542 7.52142 67.3289 7.52778 67.3051 7.53255C66.9645 7.60248 66.6097 7.42446 66.4671 7.09067C66.3245 6.75688 66.4433 6.377 66.7285 6.17831H66.7301Z" fill="#FFFF66"/>
<path d="M69.0718 7.26855C69.2112 7.685 69.3474 8.10303 69.4805 8.52265C69.2413 8.47815 69.029 8.3192 68.9276 8.07919C68.8072 7.79467 68.8737 7.47837 69.0718 7.26855Z" fill="#FFFF66"/>
<path d="M67.7717 3.68115C67.9538 4.14051 68.1297 4.60146 68.3008 5.06559C67.9586 5.1387 67.6022 4.96068 67.458 4.6253C67.3075 4.27244 67.4485 3.86871 67.7717 3.68115Z" fill="#FFFF66"/>
<path d="M65.2613 2.72421C65.2819 2.7099 65.3025 2.69719 65.3247 2.68447C65.3469 2.67176 65.369 2.66063 65.3928 2.65109C65.4166 2.64156 65.4403 2.63202 65.4641 2.62407C65.7302 2.54142 66.0138 2.61454 66.2055 2.80051C66.2403 2.83388 66.272 2.87203 66.3005 2.91336C66.329 2.95468 66.3528 2.99919 66.3734 3.04687C66.4146 3.14224 66.4336 3.24079 66.4336 3.33934C66.4336 3.60796 66.291 3.86387 66.0486 3.99897C66.0265 4.01169 66.0043 4.02281 65.9805 4.03235C65.9568 4.04189 65.933 4.05142 65.9092 4.05937C65.8855 4.06732 65.8601 4.07368 65.8364 4.07844C65.4958 4.14838 65.1409 3.97195 64.9983 3.63816C64.9777 3.59048 64.9635 3.5412 64.9524 3.49352C64.8922 3.19946 65.0142 2.89746 65.2597 2.7258L65.2613 2.72421Z" fill="#FFFF66"/>
<path d="M68.2027 9.63192C68.2233 9.61762 68.2439 9.6049 68.2661 9.59219C68.2883 9.57947 68.3104 9.56835 68.3342 9.55881C68.358 9.54927 68.3817 9.53974 68.4055 9.53179C68.6716 9.44914 68.9552 9.52225 69.1469 9.70822C69.1817 9.7416 69.2134 9.77975 69.2419 9.82107C69.2704 9.8624 69.2942 9.9069 69.3148 9.95459C69.356 10.05 69.375 10.1485 69.375 10.2471C69.375 10.5157 69.2324 10.7716 68.99 10.9067C68.9679 10.9194 68.9457 10.9305 68.9219 10.9401C68.8982 10.9496 68.8744 10.9591 68.8506 10.9671C68.8269 10.975 68.8015 10.9814 68.7778 10.9862C68.4372 11.0561 68.0823 10.8797 67.9397 10.5459C67.9192 10.4982 67.9049 10.4489 67.8938 10.4012C67.8336 10.1072 67.9556 9.80518 68.2011 9.63351L68.2027 9.63192Z" fill="#FFFF66"/>
<path d="M39.8126 23.8304C40.1928 23.6667 40.6332 23.8447 40.7948 24.2262C40.958 24.6077 40.7805 25.0495 40.4003 25.2117C40.3085 25.2514 40.2134 25.2705 40.1184 25.2721C39.8902 25.1338 39.6621 24.9939 39.4356 24.854C39.4292 24.8413 39.4229 24.8302 39.4166 24.8159C39.2534 24.4344 39.4308 23.9925 39.811 23.8304H39.8126Z" fill="#CCCCCC"/>
<path d="M41.9316 25.1026C41.9712 25.0422 42.0187 24.9866 42.0742 24.9389C42.1296 24.8912 42.1946 24.8515 42.2658 24.8197C42.3609 24.7783 42.4591 24.7593 42.5573 24.7593C42.7031 24.7593 42.8456 24.8006 42.966 24.8801C43.0864 24.958 43.1878 25.0724 43.248 25.2155C43.3082 25.3585 43.3225 25.5095 43.2955 25.6526C43.2686 25.794 43.2005 25.9275 43.0991 26.0324C43.031 26.1024 42.9486 26.1612 42.8552 26.2009C42.7839 26.2311 42.711 26.2502 42.6381 26.2582C42.5652 26.2661 42.4924 26.2629 42.4211 26.2486C42.185 26.2025 41.9744 26.0436 41.873 25.8052C41.7716 25.5667 41.8017 25.3045 41.9332 25.1026H41.9316Z" fill="#CCCCCC"/>
<path d="M41.6321 22.5768C41.564 22.6467 41.4816 22.7056 41.3882 22.7453C41.3169 22.7755 41.244 22.7946 41.1711 22.8025C41.0983 22.8105 41.0254 22.8073 40.9541 22.793C40.8464 22.7723 40.7434 22.7262 40.6547 22.6611C41.0507 22.4274 41.4436 22.1906 41.8365 21.9521C41.8476 22.0348 41.846 22.1175 41.8317 22.1969C41.8048 22.3384 41.7367 22.4719 41.6353 22.5768H41.6321Z" fill="#CCCCCC"/>
<path d="M43.8019 20.722C44.1916 20.4725 44.5781 20.2198 44.9647 19.9639C45.036 20.0147 45.1009 20.0767 45.1516 20.1514C45.1801 20.1928 45.2039 20.2373 45.2245 20.2849C45.3877 20.6664 45.2102 21.1083 44.83 21.2704C44.4498 21.4325 44.0094 21.2561 43.8478 20.8746C43.8272 20.827 43.813 20.7777 43.8019 20.73C43.8019 20.7268 43.8019 20.7252 43.8019 20.722Z" fill="#CCCCCC"/>
<path d="M47.491 18.5315C47.529 18.4997 47.5686 18.4711 47.6129 18.4457C47.6351 18.433 47.6573 18.4218 47.6811 18.4123C47.7048 18.4028 47.7286 18.3932 47.7523 18.3853C47.7777 18.3773 47.8015 18.371 47.8268 18.3662C47.8807 18.8605 47.9329 19.3565 47.9805 19.854C47.6874 19.8571 47.407 19.6855 47.285 19.3978C47.2644 19.3501 47.2502 19.3008 47.2391 19.2531C47.1836 18.9845 47.2819 18.7064 47.4878 18.5315H47.491Z" fill="#CCCCCC"/>
<path d="M45.711 23.3431C46.0912 23.1794 46.5316 23.3574 46.6932 23.7389C46.8564 24.1204 46.679 24.5622 46.2988 24.7244C45.9186 24.8865 45.4782 24.7101 45.3166 24.3286C45.155 23.9471 45.3308 23.5052 45.711 23.3431Z" fill="#CCCCCC"/>
<path d="M48.1646 24.3335C48.2185 24.3096 48.2739 24.2953 48.3294 24.2842C48.3595 24.7801 48.3864 25.276 48.4102 25.7719C48.1377 25.7544 47.8842 25.5875 47.7702 25.3189C47.607 24.9375 47.7844 24.4956 48.1646 24.3335Z" fill="#CCCCCC"/>
<path d="M44.7267 25.8084C45.1069 25.6447 45.5473 25.8227 45.7089 26.2042C45.872 26.5857 45.6946 27.0276 45.3144 27.1897C44.9342 27.3534 44.4938 27.1754 44.3322 26.7939C44.169 26.4124 44.3465 25.9706 44.7267 25.8084Z" fill="#CCCCCC"/>
<path d="M46.6954 20.8778C47.0756 20.7141 47.516 20.8921 47.6776 21.2736C47.8408 21.655 47.6633 22.0969 47.2831 22.259C46.9029 22.4227 46.4626 22.2447 46.301 21.8632C46.1378 21.4818 46.3152 21.0399 46.6954 20.8778Z" fill="#CCCCCC"/>
<path d="M43.254 22.3548C43.6342 22.1911 44.0746 22.3691 44.2362 22.7506C44.3994 23.1321 44.2219 23.574 43.8417 23.7361C43.4615 23.8998 43.0211 23.7218 42.8596 23.3403C42.6964 22.9588 42.8738 22.5169 43.254 22.3548Z" fill="#CCCCCC"/>
<path d="M47.1798 26.7967C47.5125 26.6537 47.8911 26.7713 48.0891 27.059C48.1176 27.1003 48.1414 27.1448 48.162 27.1925C48.3252 27.574 48.1477 28.0159 47.7675 28.178C47.3873 28.3401 46.9469 28.1637 46.7853 27.7822C46.7647 27.7345 46.7505 27.6853 46.7394 27.6376C46.6697 27.2958 46.8471 26.9398 47.1798 26.7967Z" fill="#CCCCCC"/>
<path d="M18.172 35.1497C18.5522 34.986 18.9926 35.1641 19.1542 35.5455C19.3173 35.927 19.1399 36.3689 18.7597 36.531C18.3795 36.6931 17.9391 36.5167 17.7775 36.1352C17.6144 35.7537 17.7918 35.3119 18.172 35.1497Z" fill="#BC84BF"/>
<path d="M20.629 36.14C21.0092 35.9763 21.4496 36.1543 21.6112 36.5358C21.7744 36.9172 21.5969 37.3591 21.2167 37.5212C20.8365 37.685 20.3961 37.5069 20.2346 37.1255C20.0714 36.744 20.2488 36.3021 20.629 36.14Z" fill="#BC84BF"/>
<path d="M19.1564 32.6859C19.5366 32.5222 19.977 32.7002 20.1385 33.0817C20.3017 33.4631 20.1243 33.905 19.7441 34.0671C19.3639 34.2308 18.9235 34.0528 18.7619 33.6714C18.5987 33.2899 18.7762 32.848 19.1564 32.6859Z" fill="#BC84BF"/>
<path d="M15.7189 34.161C16.0991 33.9973 16.5395 34.1753 16.701 34.5568C16.8642 34.9382 16.6868 35.3801 16.3066 35.5422C16.2702 35.5581 16.2337 35.5693 16.1973 35.5788C15.8947 35.2673 15.5937 34.9557 15.2943 34.641C15.3545 34.4328 15.505 34.2532 15.7189 34.161Z" fill="#BC84BF"/>
<path d="M21.4801 33.7473C21.5007 33.733 21.5212 33.7203 21.5434 33.7076C21.5656 33.6948 21.5878 33.6837 21.6115 33.6742C21.6353 33.6646 21.6591 33.6551 21.6828 33.6471C21.7557 33.6249 21.8286 33.6138 21.9015 33.6138C21.9981 33.6138 22.0947 33.6328 22.1834 33.6678C22.2721 33.7044 22.3545 33.7568 22.4242 33.8236C22.4939 33.8919 22.5525 33.9746 22.5921 34.07C22.6333 34.1653 22.6523 34.2639 22.6523 34.3624C22.6523 34.4594 22.6333 34.5563 22.5985 34.6453C22.5636 34.7344 22.5098 34.817 22.4432 34.8869C22.3925 34.9394 22.3339 34.9855 22.2674 35.022C22.2452 35.0348 22.223 35.0459 22.1993 35.0554C22.1755 35.065 22.1517 35.0745 22.128 35.0824C22.1042 35.0904 22.0789 35.0968 22.0551 35.1015C21.7145 35.1715 21.3597 34.995 21.2171 34.6596C21.0745 34.3259 21.1933 33.946 21.4785 33.7473H21.4801Z" fill="#BC84BF"/>
<path d="M17.2949 33.0788C17.013 33.1996 16.6977 33.1328 16.487 32.9342C16.8989 32.8197 17.3108 32.7037 17.7227 32.5845C17.6656 32.7991 17.5135 32.985 17.2949 33.0788Z" fill="#BC84BF"/>
<path d="M22.0991 39.5941C22.4793 39.4304 22.9197 39.6084 23.0813 39.9899C23.1272 40.0979 23.1446 40.2092 23.1399 40.3189C23.1193 40.4095 23.0971 40.5001 23.0749 40.5907C23.0005 40.7576 22.8674 40.8975 22.6868 40.9753C22.3066 41.1391 21.8662 40.961 21.7046 40.5796C21.5414 40.1981 21.7189 39.7562 22.0991 39.5941Z" fill="#BC84BF"/>
<path d="M20.5507 38.8676C20.5792 38.9089 20.603 38.9534 20.6236 39.0011C20.7392 39.2745 20.6822 39.5781 20.5 39.7879C20.1341 39.4478 19.7713 39.106 19.4101 38.7611C19.4751 38.6959 19.5527 38.6435 19.6414 38.6053C19.9741 38.4623 20.3527 38.5799 20.5507 38.8676Z" fill="#BC84BF"/>
<path d="M22.9561 37.2014C22.9767 37.1871 22.9973 37.1744 23.0195 37.1616C23.0416 37.1489 23.0638 37.1378 23.0876 37.1283C23.1113 37.1187 23.1351 37.1092 23.1589 37.1012C23.2317 37.079 23.3046 37.0679 23.3775 37.0679C23.4741 37.0679 23.5708 37.0869 23.6595 37.1219C23.7181 37.1458 23.7735 37.1775 23.8242 37.2141C23.7323 37.6607 23.6373 38.1058 23.5407 38.5524C23.5375 38.5524 23.5343 38.554 23.5312 38.5556C23.1906 38.6256 22.8357 38.4491 22.6931 38.1153C22.6725 38.0677 22.6583 38.0184 22.6472 37.9707C22.587 37.6766 22.709 37.3746 22.9545 37.203L22.9561 37.2014Z" fill="#BC84BF"/>
<path d="M24.6914 32.5332C24.6645 32.6922 24.6391 32.8495 24.6122 33.0085C24.5853 32.8432 24.6154 32.6763 24.6914 32.5332Z" fill="#BC84BF"/>
<path d="M24.0722 34.6633C24.1578 34.6267 24.2449 34.6077 24.332 34.6045C24.2449 35.0829 24.1546 35.5614 24.0611 36.0382C23.8948 35.9635 23.7554 35.83 23.6778 35.6488C23.5146 35.2673 23.692 34.8254 24.0722 34.6633Z" fill="#BC84BF"/>
<path d="M22.6017 31.2093C22.9819 31.0456 23.4223 31.2236 23.5839 31.6051C23.747 31.9866 23.5696 32.4284 23.1894 32.5906C22.8092 32.7543 22.3688 32.5763 22.2072 32.1948C22.044 31.8133 22.2215 31.3714 22.6017 31.2093Z" fill="#BC84BF"/>
<path d="M66.4375 0C66.4375 0 40.5681 30.847 14.2455 32.9514" stroke="#DFC7A2" stroke-width="1.47522" stroke-miterlimit="10"/>
</g>
<defs>
<clipPath id="clip0_493_660">
<rect width="375" height="76" fill="white"/>
</clipPath>
</defs>
</svg>
