<svg width="375" height="80" viewBox="0 0 375 80" fill="none" xmlns="http://www.w3.org/2000/svg">
<path d="M303.418 59.5271H292.132L290.422 67.9061L294.925 67.4501L294.583 64.3151L302.164 63.9161L302.62 75.7721L295.894 76.2851L295.666 74.2901L281.131 76.1711L279.991 68.9891L282.898 68.7041L284.095 59.5271H278.053V51.9461H286.888V47.5001H279.421V39.8051H286.888V36.1001H294.697V39.8051H302.107V47.5001H294.697V51.9461H303.418V59.5271ZM263.575 39.9191L275.545 41.8571L274.747 48.4121L262.549 47.2721L263.575 39.9191ZM263.404 51.2051L273.949 51.9461L273.436 58.5581L262.777 58.0451L263.404 51.2051ZM270.529 74.7461L264.088 69.8441L270.928 61.5791L276.97 66.3101L270.529 74.7461Z" fill="#FBBD1B"/>
<path d="M257.999 40.0902V48.1272H235.997C235.826 49.7802 235.598 51.4902 235.313 53.1432H255.947C255.89 61.2372 255.035 69.0462 254.009 76.7412L243.122 75.7722L243.806 68.0772L246.713 68.1912L247.34 60.8382L234.002 60.7812C233.204 64.6572 232.292 68.4762 231.266 72.2382L222.317 71.0982C223.856 63.5172 224.996 55.9362 225.737 48.1272H219.182V40.0902H233.318V35.0742H242.609V40.0902H257.999Z" fill="#ED6D46"/>
<path d="M213.5 61.978L212.189 68.647C211.163 68.476 210.251 68.362 209.339 68.248L208.484 76.228L202.328 75.544L203.012 67.564C202.043 67.45 201.017 67.393 199.934 67.336C198.623 71.554 196.343 74.404 192.182 74.632C186.539 74.974 183.746 71.44 183.746 67.678C183.746 63.802 186.767 59.812 192.695 59.812C193.379 59.812 194.12 59.869 194.918 59.983L195.26 53.371L185.798 53.314L185.741 47.5H201.815C201.701 51.946 201.644 56.506 201.245 60.61L203.582 60.781L204.152 54.226L210.764 54.739L210.023 61.465L213.5 61.978ZM191.612 68.818C192.41 68.818 193.094 68.134 193.094 67.336C193.094 66.538 192.41 65.854 191.612 65.854C190.814 65.854 190.13 66.538 190.13 67.336C190.13 68.134 190.814 68.818 191.612 68.818Z" fill="#822586"/>
<path d="M161.096 67.8489L154.199 64.7139C156.878 60.0399 160.013 53.3709 162.293 47.6139C161.153 43.7949 160.127 39.9189 159.272 36.0999L166.853 34.2759C170.045 44.9919 174.149 55.8789 178.025 64.9989L169.361 67.6209C168.107 64.5999 166.853 61.4079 165.713 58.1589C164.231 61.5789 162.635 64.9989 161.096 67.8489ZM139.436 36.7269L150.95 37.7529L150.38 44.1369L138.866 43.1109L139.436 36.7269ZM151.976 46.0749L151.805 55.2519C150.836 59.7549 149.753 63.8019 148.727 67.3359C158.645 69.0459 167.366 69.7299 177.911 70.6419L176.258 77.8239C165.542 76.6269 156.935 75.3729 146.846 73.2069C146.504 74.1189 146.162 74.9169 145.877 75.7149L138.695 74.1189C140.291 69.1029 142.685 58.1019 143.54 52.9719H138.182V46.0179L151.976 46.0749Z" fill="#ED6D46"/>
<path d="M120.905 76.6271C113.153 76.6271 107.966 70.5851 108.536 63.2891L109.847 46.2461L117.428 46.9301L116.003 64.6001C115.718 68.0771 117.884 69.9011 120.335 69.9011C122.843 69.9011 125.636 68.1341 126.776 64.6001L133.616 67.3931C130.994 72.6941 126.491 76.6271 120.905 76.6271Z" fill="#FBBD1B"/>
<path d="M88.24 41.3439H102.775L102.148 66.9939H88.468V76.7409H79.348V66.9939H65.212L64.585 41.3439H79.12V34.0479H88.24V41.3439ZM79.462 48.2979H74.674V51.7179H79.462V48.2979ZM88.183 51.7179H93.028V48.2979H88.183V51.7179ZM79.462 57.2469H74.674V60.7239H79.462V57.2469ZM88.183 60.7239H93.028V57.2469H88.183V60.7239Z" fill="#822586"/>
<path d="M303 21.7765C306.956 21.0056 310.797 20.0042 314.533 18.8217C311.851 16.2372 309.297 13.5176 307.029 10.5723C305.345 14.1677 304.103 17.9427 303 21.7765Z" fill="#F7931E"/>
<path d="M313.383 31.604C317.175 30.2736 320.854 28.7731 324.407 27.1137C321.356 24.8741 318.432 22.4597 315.661 19.8911C314.714 23.7027 313.955 27.6144 313.383 31.604Z" fill="#B75FBB"/>
<path d="M324.918 39.9395C328.508 38.1323 331.963 36.1756 335.278 34.0711C331.964 32.2432 328.76 30.2167 325.672 28.0264C325.23 31.9333 324.978 35.9086 324.92 39.9395H324.918Z" fill="#666666"/>
<path d="M337.418 46.7261C340.751 44.4675 343.926 42.0833 346.942 39.5735C343.435 38.1827 339.976 36.5916 336.646 34.813C336.705 38.7978 336.968 42.762 337.418 46.7261Z" fill="#F39800"/>
<path d="M350.689 51.8447C353.669 49.2125 356.519 46.4341 359.22 43.5238C355.566 42.6067 351.92 41.459 348.396 40.1318C348.96 44.0197 349.719 47.9409 350.687 51.8447H350.689Z" fill="#B75FBB"/>
<path d="M318.277 25.2525L314.774 23.7505C314.674 24.2226 314.576 24.6978 314.482 25.1731L317.72 26.5607L317.83 26.6068L321.781 28.3012C322.373 28.0421 322.961 27.7782 323.547 27.5112L318.387 25.2986L318.278 25.2525H318.277Z" fill="#BC84BF"/>
<path d="M318.941 23.9907L322.038 25.3179C320.703 24.2752 319.394 23.1975 318.114 22.0881L315.408 20.9277C315.297 21.395 315.188 21.8639 315.082 22.3344L318.833 23.943L318.943 23.9891L318.941 23.9907Z" fill="#BC84BF"/>
<path d="M316.049 30.4865L313.707 29.4819C313.63 29.9635 313.555 30.4483 313.482 30.9331L314.294 31.2812C314.943 31.0476 315.589 30.8091 316.233 30.566L316.158 30.5342L316.049 30.4881V30.4865Z" fill="#BC84BF"/>
<path d="M317.163 27.8689L314.207 26.6021C314.119 27.0789 314.033 27.5589 313.949 28.0389L316.606 29.1786L316.715 29.2247L318.125 29.8287C318.744 29.5823 319.361 29.3296 319.974 29.0737L317.273 27.915L317.163 27.8689Z" fill="#BC84BF"/>
<path d="M337.418 46.7265C337.686 46.5453 337.952 46.3625 338.218 46.1797L337.316 45.7935C337.35 46.105 337.383 46.4149 337.418 46.7265Z" fill="#F8C166"/>
<path d="M336.902 40.9741L342.264 43.2741C342.7 42.9467 343.134 42.616 343.565 42.2838L336.807 39.3862C336.835 39.9155 336.867 40.4448 336.902 40.9741Z" fill="#F8C166"/>
<path d="M337.157 44.1783L339.592 45.2225C340.045 44.9015 340.494 44.5788 340.94 44.253L337.02 42.5713C337.062 43.1069 337.108 43.6426 337.159 44.1783H337.157Z" fill="#F8C166"/>
<path d="M336.73 37.8061L344.839 41.2839C345.261 40.9501 345.679 40.6131 346.094 40.2746L336.678 36.2373C336.692 36.7602 336.709 37.2832 336.73 37.8061Z" fill="#F8C166"/>
<path d="M313.482 19.0567C313.458 19.0472 313.434 19.0377 313.41 19.0297C313.363 19.0138 313.314 19.0043 313.265 18.9995C312.972 18.9693 312.68 19.1155 312.534 19.3826C312.523 19.4017 312.514 19.4223 312.506 19.4414C312.869 19.3349 313.231 19.2252 313.593 19.114C313.58 19.106 313.567 19.0965 313.553 19.0885C313.531 19.0758 313.509 19.0647 313.485 19.0552L313.482 19.0567Z" fill="#FFFF66"/>
<path d="M310.039 17.5804C309.659 17.4167 309.218 17.5947 309.057 17.9762C308.894 18.3577 309.071 18.7995 309.451 18.9617C309.831 19.1238 310.272 18.9474 310.433 18.5659C310.597 18.1844 310.419 17.7425 310.039 17.5804Z" fill="#FFFF66"/>
<path d="M307.584 18.5687C307.204 18.405 306.763 18.583 306.602 18.9645C306.439 19.3459 306.616 19.7878 306.996 19.9499C307.376 20.1137 307.817 19.9356 307.978 19.5542C308.141 19.1727 307.964 18.7308 307.584 18.5687Z" fill="#FFFF66"/>
<path d="M309.053 15.1151C308.672 14.9514 308.232 15.1294 308.07 15.5109C307.907 15.8923 308.085 16.3342 308.465 16.4963C308.845 16.66 309.285 16.482 309.447 16.1006C309.61 15.7191 309.433 15.2772 309.053 15.1151Z" fill="#FFFF66"/>
<path d="M312.231 16.5314C311.93 16.5202 311.639 16.6919 311.514 16.986C311.351 17.3674 311.528 17.8093 311.908 17.9714C312.288 18.1352 312.729 17.9571 312.89 17.5757C312.933 17.4739 312.952 17.3674 312.951 17.2625C312.71 17.0193 312.471 16.7762 312.231 16.5298V16.5314Z" fill="#FFFF66"/>
<path d="M310.923 15.5077C311.048 15.5617 311.179 15.5776 311.304 15.5617C311.029 15.2677 310.753 14.972 310.482 14.6748C310.417 15.015 310.593 15.3662 310.923 15.5077Z" fill="#FFFF66"/>
<path d="M307.027 20.5723C306.869 20.9108 306.715 21.251 306.564 21.5927C306.927 21.7072 307.323 21.5291 307.475 21.1715C307.477 21.1667 307.479 21.1604 307.482 21.1556C307.33 20.9633 307.178 20.7694 307.027 20.5739V20.5723Z" fill="#FFFF66"/>
<path d="M306.731 16.1783C306.71 16.164 306.69 16.1513 306.668 16.1386C306.645 16.1259 306.623 16.1147 306.599 16.1052C306.576 16.0957 306.552 16.0861 306.528 16.0782C306.262 15.9955 305.978 16.0686 305.787 16.2546C305.717 16.323 305.658 16.4056 305.619 16.501C305.578 16.5963 305.559 16.6949 305.559 16.7934C305.559 17.0621 305.701 17.318 305.944 17.4531C305.966 17.4658 305.988 17.4769 306.012 17.4865C306.035 17.496 306.059 17.5055 306.083 17.5135C306.107 17.5214 306.132 17.5278 306.156 17.5325C306.496 17.6025 306.851 17.4245 306.994 17.0907C307.136 16.7569 307.018 16.377 306.732 16.1783H306.731Z" fill="#FFFF66"/>
<path d="M304.391 17.2686C304.252 17.685 304.115 18.103 303.982 18.5227C304.222 18.4781 304.434 18.3192 304.535 18.0792C304.656 17.7947 304.589 17.4784 304.391 17.2686Z" fill="#FFFF66"/>
<path d="M305.693 13.6812C305.511 14.1405 305.335 14.6015 305.164 15.0656C305.506 15.1387 305.863 14.9607 306.007 14.6253C306.157 14.2724 306.016 13.8687 305.693 13.6812Z" fill="#FFFF66"/>
<path d="M308.204 12.7242C308.183 12.7099 308.162 12.6972 308.14 12.6845C308.118 12.6718 308.096 12.6606 308.072 12.6511C308.048 12.6416 308.025 12.632 308.001 12.6241C307.735 12.5414 307.451 12.6145 307.259 12.8005C307.225 12.8339 307.193 12.872 307.164 12.9134C307.136 12.9547 307.112 12.9992 307.091 13.0469C307.05 13.1422 307.031 13.2408 307.031 13.3393C307.031 13.608 307.174 13.8639 307.416 13.999C307.438 14.0117 307.461 14.0228 307.484 14.0323C307.508 14.0419 307.532 14.0514 307.556 14.0594C307.579 14.0673 307.605 14.0737 307.628 14.0784C307.969 14.1484 308.324 13.9719 308.467 13.6382C308.487 13.5905 308.501 13.5412 308.512 13.4935C308.573 13.1995 308.451 12.8975 308.205 12.7258L308.204 12.7242Z" fill="#FFFF66"/>
<path d="M305.26 19.6319C305.24 19.6176 305.219 19.6049 305.197 19.5922C305.175 19.5795 305.152 19.5683 305.129 19.5588C305.105 19.5493 305.081 19.5397 305.057 19.5318C304.791 19.4491 304.508 19.5223 304.316 19.7082C304.281 19.7416 304.249 19.7797 304.221 19.8211C304.192 19.8624 304.169 19.9069 304.148 19.9546C304.107 20.05 304.088 20.1485 304.088 20.2471C304.088 20.5157 304.23 20.7716 304.473 20.9067C304.495 20.9194 304.517 20.9305 304.541 20.9401C304.565 20.9496 304.588 20.9591 304.612 20.9671C304.636 20.975 304.661 20.9814 304.685 20.9862C305.026 21.0561 305.381 20.8797 305.523 20.5459C305.544 20.4982 305.558 20.4489 305.569 20.4012C305.629 20.1072 305.507 19.8052 305.262 19.6335L305.26 19.6319Z" fill="#FFFF66"/>
<path d="M333.652 33.8304C333.272 33.6667 332.832 33.8447 332.67 34.2262C332.507 34.6077 332.684 35.0495 333.065 35.2117C333.156 35.2514 333.251 35.2705 333.346 35.2721C333.575 35.1338 333.803 34.9939 334.029 34.854C334.036 34.8413 334.042 34.8302 334.048 34.8159C334.211 34.4344 334.034 33.9925 333.654 33.8304H333.652Z" fill="#CCCCCC"/>
<path d="M331.529 35.1026C331.49 35.0422 331.442 34.9866 331.387 34.9389C331.331 34.8912 331.266 34.8515 331.195 34.8197C331.1 34.7783 331.002 34.7593 330.904 34.7593C330.758 34.7593 330.615 34.8006 330.495 34.8801C330.374 34.958 330.273 35.0724 330.213 35.2155C330.153 35.3585 330.138 35.5095 330.165 35.6526C330.192 35.794 330.26 35.9275 330.362 36.0324C330.43 36.1024 330.512 36.1612 330.606 36.2009C330.677 36.2311 330.75 36.2502 330.823 36.2582C330.896 36.2661 330.969 36.2629 331.04 36.2486C331.276 36.2025 331.487 36.0436 331.588 35.8052C331.689 35.5667 331.659 35.3045 331.528 35.1026H331.529Z" fill="#CCCCCC"/>
<path d="M331.831 32.5768C331.899 32.6467 331.981 32.7056 332.075 32.7453C332.146 32.7755 332.219 32.7946 332.292 32.8025C332.365 32.8105 332.438 32.8073 332.509 32.793C332.617 32.7723 332.719 32.7262 332.808 32.6611C332.412 32.4274 332.019 32.1906 331.626 31.9521C331.615 32.0348 331.617 32.1175 331.631 32.1969C331.658 32.3384 331.726 32.4719 331.828 32.5768H331.831Z" fill="#CCCCCC"/>
<path d="M329.663 30.722C329.273 30.4725 328.887 30.2198 328.5 29.9639C328.429 30.0147 328.364 30.0767 328.313 30.1514C328.285 30.1928 328.261 30.2373 328.24 30.2849C328.077 30.6664 328.255 31.1083 328.635 31.2704C329.015 31.4325 329.455 31.2561 329.617 30.8746C329.638 30.827 329.652 30.7777 329.663 30.73C329.663 30.7268 329.663 30.7252 329.663 30.722Z" fill="#CCCCCC"/>
<path d="M325.97 28.5315C325.932 28.4997 325.892 28.4711 325.848 28.4457C325.826 28.433 325.804 28.4218 325.78 28.4123C325.756 28.4028 325.732 28.3932 325.709 28.3853C325.683 28.3773 325.659 28.371 325.634 28.3662C325.58 28.8605 325.528 29.3565 325.48 29.854C325.774 29.8571 326.054 29.6855 326.176 29.3978C326.197 29.3501 326.211 29.3008 326.222 29.2531C326.277 28.9845 326.179 28.7064 325.973 28.5315H325.97Z" fill="#CCCCCC"/>
<path d="M327.752 33.3431C327.372 33.1794 326.931 33.3574 326.77 33.7389C326.606 34.1204 326.784 34.5622 327.164 34.7244C327.544 34.8865 327.985 34.7101 328.146 34.3286C328.308 33.9471 328.132 33.5052 327.752 33.3431Z" fill="#CCCCCC"/>
<path d="M325.296 34.3335C325.242 34.3096 325.187 34.2953 325.132 34.2842C325.101 34.7801 325.075 35.276 325.051 35.7719C325.323 35.7544 325.577 35.5875 325.691 35.3189C325.854 34.9375 325.677 34.4956 325.296 34.3335Z" fill="#CCCCCC"/>
<path d="M328.738 35.8084C328.358 35.6447 327.918 35.8227 327.756 36.2042C327.593 36.5857 327.77 37.0276 328.15 37.1897C328.531 37.3534 328.971 37.1754 329.133 36.7939C329.296 36.4124 329.118 35.9706 328.738 35.8084Z" fill="#CCCCCC"/>
<path d="M326.767 30.8778C326.387 30.7141 325.947 30.8921 325.785 31.2736C325.622 31.655 325.8 32.0969 326.18 32.259C326.56 32.4227 327 32.2447 327.162 31.8632C327.325 31.4818 327.148 31.0399 326.767 30.8778Z" fill="#CCCCCC"/>
<path d="M330.209 32.3548C329.829 32.1911 329.388 32.3691 329.227 32.7506C329.064 33.1321 329.241 33.574 329.621 33.7361C330.001 33.8998 330.442 33.7218 330.603 33.3403C330.767 32.9588 330.589 32.5169 330.209 32.3548Z" fill="#CCCCCC"/>
<path d="M326.281 36.7967C325.948 36.6537 325.57 36.7713 325.372 37.059C325.343 37.1003 325.32 37.1448 325.299 37.1925C325.136 37.574 325.313 38.0159 325.693 38.178C326.074 38.3401 326.514 38.1637 326.676 37.7822C326.696 37.7345 326.71 37.6853 326.722 37.6376C326.791 37.2958 326.614 36.9398 326.281 36.7967Z" fill="#CCCCCC"/>
<path d="M355.291 45.1497C354.911 44.986 354.47 45.1641 354.309 45.5455C354.146 45.927 354.323 46.3689 354.703 46.531C355.083 46.6931 355.524 46.5167 355.685 46.1352C355.849 45.7537 355.671 45.3119 355.291 45.1497Z" fill="#BC84BF"/>
<path d="M352.834 46.14C352.454 45.9763 352.013 46.1543 351.852 46.5358C351.689 46.9172 351.866 47.3591 352.246 47.5212C352.626 47.685 353.067 47.5069 353.228 47.1255C353.392 46.744 353.214 46.3021 352.834 46.14Z" fill="#BC84BF"/>
<path d="M354.305 42.6859C353.924 42.5222 353.484 42.7002 353.322 43.0817C353.159 43.4631 353.337 43.905 353.717 44.0671C354.097 44.2308 354.537 44.0528 354.699 43.6714C354.862 43.2899 354.685 42.848 354.305 42.6859Z" fill="#BC84BF"/>
<path d="M357.746 44.161C357.366 43.9973 356.925 44.1753 356.764 44.5568C356.601 44.9382 356.778 45.3801 357.158 45.5422C357.195 45.5581 357.231 45.5693 357.268 45.5788C357.57 45.2673 357.871 44.9557 358.171 44.641C358.11 44.4328 357.96 44.2532 357.746 44.161Z" fill="#BC84BF"/>
<path d="M351.981 43.7473C351.96 43.733 351.94 43.7203 351.918 43.7076C351.895 43.6948 351.873 43.6837 351.849 43.6742C351.826 43.6646 351.802 43.6551 351.778 43.6471C351.705 43.6249 351.632 43.6138 351.559 43.6138C351.463 43.6138 351.366 43.6328 351.278 43.6678C351.189 43.7044 351.106 43.7568 351.037 43.8236C350.967 43.8919 350.908 43.9746 350.869 44.07C350.828 44.1653 350.809 44.2639 350.809 44.3624C350.809 44.4594 350.828 44.5563 350.862 44.6453C350.897 44.7344 350.951 44.817 351.018 44.8869C351.068 44.9394 351.127 44.9855 351.194 45.022C351.216 45.0348 351.238 45.0459 351.262 45.0554C351.285 45.065 351.309 45.0745 351.333 45.0824C351.357 45.0904 351.382 45.0968 351.406 45.1015C351.746 45.1715 352.101 44.995 352.244 44.6596C352.386 44.3259 352.268 43.946 351.982 43.7473H351.981Z" fill="#BC84BF"/>
<path d="M356.17 43.0788C356.452 43.1996 356.767 43.1328 356.978 42.9342C356.566 42.8197 356.154 42.7037 355.742 42.5845C355.799 42.7991 355.951 42.985 356.17 43.0788Z" fill="#BC84BF"/>
<path d="M351.364 49.5941C350.984 49.4304 350.543 49.6084 350.382 49.9899C350.336 50.0979 350.318 50.2092 350.323 50.3189C350.344 50.4095 350.366 50.5001 350.388 50.5907C350.462 50.7576 350.595 50.8975 350.776 50.9753C351.156 51.1391 351.597 50.961 351.758 50.5796C351.921 50.1981 351.744 49.7562 351.364 49.5941Z" fill="#BC84BF"/>
<path d="M352.91 48.8676C352.882 48.9089 352.858 48.9534 352.837 49.0011C352.722 49.2745 352.779 49.5781 352.961 49.7879C353.327 49.4478 353.69 49.106 354.051 48.7611C353.986 48.6959 353.908 48.6435 353.82 48.6053C353.487 48.4623 353.108 48.5799 352.91 48.8676Z" fill="#BC84BF"/>
<path d="M350.509 47.2014C350.488 47.1871 350.468 47.1744 350.445 47.1616C350.423 47.1489 350.401 47.1378 350.377 47.1283C350.353 47.1187 350.33 47.1092 350.306 47.1012C350.233 47.079 350.16 47.0679 350.087 47.0679C349.991 47.0679 349.894 47.0869 349.805 47.1219C349.747 47.1458 349.691 47.1775 349.641 47.2141C349.733 47.6607 349.828 48.1058 349.924 48.5524C349.927 48.5524 349.931 48.554 349.934 48.5556C350.274 48.6256 350.629 48.4491 350.772 48.1153C350.792 48.0677 350.807 48.0184 350.818 47.9707C350.878 47.6766 350.756 47.3746 350.51 47.203L350.509 47.2014Z" fill="#BC84BF"/>
<path d="M348.77 42.5332C348.796 42.6922 348.822 42.8495 348.849 43.0085C348.876 42.8432 348.846 42.6763 348.77 42.5332Z" fill="#BC84BF"/>
<path d="M349.393 44.6633C349.307 44.6267 349.22 44.6077 349.133 44.6045C349.22 45.0829 349.31 45.5614 349.404 46.0382C349.57 45.9635 349.709 45.83 349.787 45.6488C349.95 45.2673 349.773 44.8254 349.393 44.6633Z" fill="#BC84BF"/>
<path d="M350.861 41.2093C350.481 41.0456 350.041 41.2236 349.879 41.6051C349.716 41.9866 349.893 42.4284 350.273 42.5906C350.654 42.7543 351.094 42.5763 351.256 42.1948C351.419 41.8133 351.241 41.3714 350.861 41.2093Z" fill="#BC84BF"/>
<path d="M307.027 10C307.027 10 332.897 40.847 359.219 42.9514" stroke="#DFC7A2" stroke-width="1.47522" stroke-miterlimit="10"/>
<path d="M70.2197 21.7765C66.2641 21.0056 62.4225 20.0042 58.687 18.8217C61.369 16.2372 63.9227 13.5176 66.1912 10.5723C67.8752 14.1677 69.1171 17.9427 70.2197 21.7765Z" fill="#F7931E"/>
<path d="M59.8369 31.604C56.0444 30.2736 52.366 28.7731 48.8127 27.1137C51.8638 24.8741 54.7882 22.4597 57.5589 19.8911C58.5062 23.7027 59.265 27.6144 59.8369 31.604Z" fill="#B75FBB"/>
<path d="M48.3018 39.9395C44.712 38.1323 41.257 36.1756 37.9413 34.0711C41.2554 32.2432 44.4602 30.2167 47.5477 28.0264C47.9897 31.9333 48.2416 35.9086 48.3002 39.9395H48.3018Z" fill="#666666"/>
<path d="M35.8018 46.7261C32.4687 44.4675 29.294 42.0833 26.2777 39.5735C29.7851 38.1827 33.2433 36.5916 36.5732 34.813C36.5146 38.7978 36.2517 42.762 35.8018 46.7261Z" fill="#F39800"/>
<path d="M22.531 51.8447C19.5511 49.2125 16.7012 46.4341 14.0002 43.5238C17.6533 42.6067 21.3001 41.459 24.8232 40.1318C24.2593 44.0197 23.5005 47.9409 22.5325 51.8447H22.531Z" fill="#B75FBB"/>
<path d="M54.9432 25.2525L58.4458 23.7505C58.5456 24.2226 58.6438 24.6978 58.7373 25.1731L55.4993 26.5607L55.39 26.6068L51.439 28.3012C50.8466 28.0421 50.2588 27.7782 49.6727 27.5112L54.8323 25.2986L54.9416 25.2525H54.9432Z" fill="#BC84BF"/>
<path d="M54.2787 23.9907L51.1816 25.3179C52.5171 24.2752 53.8256 23.1975 55.1056 22.0881L57.8114 20.9277C57.9222 21.395 58.0316 21.8639 58.1377 22.3344L54.3864 23.943L54.2771 23.9891L54.2787 23.9907Z" fill="#BC84BF"/>
<path d="M57.171 30.4865L59.5124 29.4819C59.59 29.9635 59.6644 30.4483 59.7373 30.9331L58.9262 31.2812C58.2767 31.0476 57.6304 30.8091 56.9872 30.566L57.0616 30.5342L57.171 30.4881V30.4865Z" fill="#BC84BF"/>
<path d="M56.0562 27.8689L59.0123 26.6021C59.101 27.0789 59.1865 27.5589 59.2705 28.0389L56.6139 29.1786L56.5046 29.2247L55.0946 29.8287C54.4752 29.5823 53.859 29.3296 53.2459 29.0737L55.9469 27.915L56.0562 27.8689Z" fill="#BC84BF"/>
<path d="M35.8019 46.7265C35.5342 46.5453 35.2681 46.3625 35.0019 46.1797L35.9033 45.7935C35.8701 46.105 35.8368 46.4149 35.8019 46.7265Z" fill="#F8C166"/>
<path d="M36.318 40.9741L30.9556 43.2741C30.52 42.9467 30.0859 42.616 29.655 42.2838L36.4131 39.3862C36.3846 39.9155 36.3529 40.4448 36.318 40.9741Z" fill="#F8C166"/>
<path d="M36.0624 44.1783L33.6275 45.2225C33.1744 44.9015 32.7261 44.5788 32.2794 44.253L36.2002 42.5713C36.1574 43.1069 36.1115 43.6426 36.0608 44.1783H36.0624Z" fill="#F8C166"/>
<path d="M36.4897 37.8061L28.3804 41.2839C27.959 40.9501 27.5408 40.6131 27.1257 40.2746L36.542 36.2373C36.5277 36.7602 36.5103 37.2832 36.4897 37.8061Z" fill="#F8C166"/>
<path d="M59.738 19.0567C59.7618 19.0472 59.7855 19.0377 59.8093 19.0297C59.8568 19.0138 59.9059 19.0043 59.9551 18.9995C60.2481 18.9693 60.5396 19.1155 60.6854 19.3826C60.6964 19.4017 60.7059 19.4223 60.7139 19.4414C60.3511 19.3349 59.9883 19.2252 59.6271 19.114C59.6398 19.106 59.6525 19.0965 59.6667 19.0885C59.6889 19.0758 59.7111 19.0647 59.7349 19.0552L59.738 19.0567Z" fill="#FFFF66"/>
<path d="M63.1808 17.5804C63.561 17.4167 64.0014 17.5947 64.163 17.9762C64.3261 18.3577 64.1487 18.7995 63.7685 18.9617C63.3883 19.1238 62.9479 18.9474 62.7863 18.5659C62.6231 18.1844 62.8006 17.7425 63.1808 17.5804Z" fill="#FFFF66"/>
<path d="M65.6359 18.5687C66.0161 18.405 66.4565 18.583 66.618 18.9645C66.7812 19.3459 66.6038 19.7878 66.2236 19.9499C65.8434 20.1137 65.403 19.9356 65.2414 19.5542C65.0782 19.1727 65.2557 18.7308 65.6359 18.5687Z" fill="#FFFF66"/>
<path d="M64.1671 15.1151C64.5473 14.9514 64.9877 15.1294 65.1493 15.5109C65.3125 15.8923 65.135 16.3342 64.7548 16.4963C64.3746 16.66 63.9342 16.482 63.7726 16.1006C63.6095 15.7191 63.7869 15.2772 64.1671 15.1151Z" fill="#FFFF66"/>
<path d="M60.9883 16.5314C61.2893 16.5202 61.5808 16.6919 61.7059 16.986C61.8691 17.3674 61.6917 17.8093 61.3115 17.9714C60.9313 18.1352 60.4909 17.9571 60.3293 17.5757C60.2865 17.4739 60.2675 17.3674 60.2691 17.2625C60.5099 17.0193 60.7491 16.7762 60.9883 16.5298V16.5314Z" fill="#FFFF66"/>
<path d="M62.2972 15.5077C62.1721 15.5617 62.0406 15.5776 61.9154 15.5617C62.1911 15.2677 62.4667 14.972 62.7376 14.6748C62.8026 15.015 62.6267 15.3662 62.2972 15.5077Z" fill="#FFFF66"/>
<path d="M66.1927 20.5723C66.3511 20.9108 66.5048 21.251 66.6553 21.5927C66.2925 21.7072 65.8965 21.5291 65.7444 21.1715C65.7428 21.1667 65.7412 21.1604 65.738 21.1556C65.8901 20.9633 66.0422 20.7694 66.1927 20.5739V20.5723Z" fill="#FFFF66"/>
<path d="M66.4888 16.1783C66.5094 16.164 66.53 16.1513 66.5522 16.1386C66.5744 16.1259 66.5966 16.1147 66.6203 16.1052C66.6441 16.0957 66.6679 16.0861 66.6916 16.0782C66.9578 15.9955 67.2413 16.0686 67.433 16.2546C67.5027 16.323 67.5613 16.4056 67.6009 16.501C67.6421 16.5963 67.6611 16.6949 67.6611 16.7934C67.6611 17.0621 67.5186 17.318 67.2762 17.4531C67.254 17.4658 67.2318 17.4769 67.2081 17.4865C67.1843 17.496 67.1605 17.5055 67.1368 17.5135C67.113 17.5214 67.0877 17.5278 67.0639 17.5325C66.7233 17.6025 66.3685 17.4245 66.2259 17.0907C66.0833 16.7569 66.2021 16.377 66.4873 16.1783H66.4888Z" fill="#FFFF66"/>
<path d="M68.8286 17.2686C68.968 17.685 69.1042 18.103 69.2373 18.5227C68.9981 18.4781 68.7858 18.3192 68.6844 18.0792C68.564 17.7947 68.6306 17.4784 68.8286 17.2686Z" fill="#FFFF66"/>
<path d="M67.5266 13.6812C67.7087 14.1405 67.8846 14.6015 68.0557 15.0656C67.7135 15.1387 67.357 14.9607 67.2129 14.6253C67.0624 14.2724 67.2034 13.8687 67.5266 13.6812Z" fill="#FFFF66"/>
<path d="M65.0162 12.7242C65.0368 12.7099 65.0574 12.6972 65.0796 12.6845C65.1017 12.6718 65.1239 12.6606 65.1477 12.6511C65.1714 12.6416 65.1952 12.632 65.219 12.6241C65.4851 12.5414 65.7687 12.6145 65.9604 12.8005C65.9952 12.8339 66.0269 12.872 66.0554 12.9134C66.0839 12.9547 66.1077 12.9992 66.1283 13.0469C66.1695 13.1422 66.1885 13.2408 66.1885 13.3393C66.1885 13.608 66.0459 13.8639 65.8035 13.999C65.7813 14.0117 65.7592 14.0228 65.7354 14.0323C65.7116 14.0419 65.6879 14.0514 65.6641 14.0594C65.6404 14.0673 65.615 14.0737 65.5912 14.0784C65.2507 14.1484 64.8958 13.9719 64.7532 13.6382C64.7326 13.5905 64.7184 13.5412 64.7073 13.4935C64.6471 13.1995 64.7691 12.8975 65.0146 12.7258L65.0162 12.7242Z" fill="#FFFF66"/>
<path d="M67.9596 19.6319C67.9801 19.6176 68.0007 19.6049 68.0229 19.5922C68.0451 19.5795 68.0673 19.5683 68.091 19.5588C68.1148 19.5493 68.1386 19.5397 68.1623 19.5318C68.4285 19.4491 68.712 19.5223 68.9037 19.7082C68.9386 19.7416 68.9703 19.7797 68.9988 19.8211C69.0273 19.8624 69.051 19.9069 69.0716 19.9546C69.1128 20.05 69.1318 20.1485 69.1318 20.2471C69.1318 20.5157 68.9893 20.7716 68.7469 20.9067C68.7247 20.9194 68.7025 20.9305 68.6788 20.9401C68.655 20.9496 68.6312 20.9591 68.6075 20.9671C68.5837 20.975 68.5584 20.9814 68.5346 20.9862C68.194 21.0561 67.8392 20.8797 67.6966 20.5459C67.676 20.4982 67.6617 20.4489 67.6506 20.4012C67.5904 20.1072 67.7124 19.8052 67.958 19.6335L67.9596 19.6319Z" fill="#FFFF66"/>
<path d="M39.5675 33.8304C39.9477 33.6667 40.3881 33.8447 40.5497 34.2262C40.7128 34.6077 40.5354 35.0495 40.1552 35.2117C40.0633 35.2514 39.9683 35.2705 39.8732 35.2721C39.6451 35.1338 39.417 34.9939 39.1905 34.854C39.1841 34.8413 39.1778 34.8302 39.1715 34.8159C39.0083 34.4344 39.1857 33.9925 39.5659 33.8304H39.5675Z" fill="#CCCCCC"/>
<path d="M41.6904 35.1026C41.73 35.0422 41.7775 34.9866 41.8329 34.9389C41.8884 34.8912 41.9533 34.8515 42.0246 34.8197C42.1197 34.7783 42.2179 34.7593 42.3161 34.7593C42.4619 34.7593 42.6044 34.8006 42.7248 34.8801C42.8452 34.958 42.9466 35.0724 43.0068 35.2155C43.067 35.3585 43.0813 35.5095 43.0543 35.6526C43.0274 35.794 42.9593 35.9275 42.8579 36.0324C42.7898 36.1024 42.7074 36.1612 42.6139 36.2009C42.5427 36.2311 42.4698 36.2502 42.3969 36.2582C42.324 36.2661 42.2512 36.2629 42.1799 36.2486C41.9438 36.2025 41.7331 36.0436 41.6318 35.8052C41.5304 35.5667 41.5605 35.3045 41.692 35.1026H41.6904Z" fill="#CCCCCC"/>
<path d="M41.389 32.5768C41.3208 32.6467 41.2385 32.7056 41.145 32.7453C41.0737 32.7755 41.0008 32.7946 40.928 32.8025C40.8551 32.8105 40.7822 32.8073 40.7109 32.793C40.6032 32.7723 40.5002 32.7262 40.4115 32.6611C40.8076 32.4274 41.2004 32.1906 41.5933 31.9521C41.6044 32.0348 41.6028 32.1175 41.5886 32.1969C41.5616 32.3384 41.4935 32.4719 41.3921 32.5768H41.389Z" fill="#CCCCCC"/>
<path d="M43.5568 30.722C43.9465 30.4725 44.333 30.2198 44.7196 29.9639C44.7908 30.0147 44.8558 30.0767 44.9065 30.1514C44.935 30.1928 44.9588 30.2373 44.9794 30.2849C45.1425 30.6664 44.9651 31.1083 44.5849 31.2704C44.2047 31.4325 43.7643 31.2561 43.6027 30.8746C43.5821 30.827 43.5679 30.7777 43.5568 30.73C43.5568 30.7268 43.5568 30.7252 43.5568 30.722Z" fill="#CCCCCC"/>
<path d="M47.2498 28.5315C47.2878 28.4997 47.3274 28.4711 47.3717 28.4457C47.3939 28.433 47.4161 28.4218 47.4399 28.4123C47.4636 28.4028 47.4874 28.3932 47.5111 28.3853C47.5365 28.3773 47.5602 28.371 47.5856 28.3662C47.6395 28.8605 47.6917 29.3565 47.7393 29.854C47.4462 29.8571 47.1658 29.6855 47.0438 29.3978C47.0232 29.3501 47.009 29.3008 46.9979 29.2531C46.9424 28.9845 47.0406 28.7064 47.2466 28.5315H47.2498Z" fill="#CCCCCC"/>
<path d="M45.4679 33.3431C45.8481 33.1794 46.2885 33.3574 46.4501 33.7389C46.6132 34.1204 46.4358 34.5622 46.0556 34.7244C45.6754 34.8865 45.235 34.7101 45.0734 34.3286C44.9118 33.9471 45.0877 33.5052 45.4679 33.3431Z" fill="#CCCCCC"/>
<path d="M47.9234 34.3335C47.9773 34.3096 48.0327 34.2953 48.0882 34.2842C48.1183 34.7801 48.1452 35.276 48.1689 35.7719C47.8965 35.7544 47.643 35.5875 47.5289 35.3189C47.3658 34.9375 47.5432 34.4956 47.9234 34.3335Z" fill="#CCCCCC"/>
<path d="M44.4816 35.8084C44.8618 35.6447 45.3022 35.8227 45.4637 36.2042C45.6269 36.5857 45.4495 37.0276 45.0693 37.1897C44.6891 37.3534 44.2487 37.1754 44.0871 36.7939C43.9239 36.4124 44.1014 35.9706 44.4816 35.8084Z" fill="#CCCCCC"/>
<path d="M46.4523 30.8778C46.8325 30.7141 47.2729 30.8921 47.4344 31.2736C47.5976 31.655 47.4202 32.0969 47.04 32.259C46.6598 32.4227 46.2194 32.2447 46.0578 31.8632C45.8946 31.4818 46.0721 31.0399 46.4523 30.8778Z" fill="#CCCCCC"/>
<path d="M43.0109 32.3548C43.3911 32.1911 43.8315 32.3691 43.993 32.7506C44.1562 33.1321 43.9788 33.574 43.5986 33.7361C43.2184 33.8998 42.778 33.7218 42.6164 33.3403C42.4532 32.9588 42.6307 32.5169 43.0109 32.3548Z" fill="#CCCCCC"/>
<path d="M46.9386 36.7967C47.2713 36.6537 47.6499 36.7713 47.8479 37.059C47.8764 37.1003 47.9002 37.1448 47.9208 37.1925C48.0839 37.574 47.9065 38.0159 47.5263 38.178C47.1461 38.3401 46.7057 38.1637 46.5441 37.7822C46.5235 37.7345 46.5093 37.6853 46.4982 37.6376C46.4285 37.2958 46.6059 36.9398 46.9386 36.7967Z" fill="#CCCCCC"/>
<path d="M17.9288 45.1497C18.309 44.986 18.7494 45.1641 18.911 45.5455C19.0742 45.927 18.8967 46.3689 18.5165 46.531C18.1363 46.6931 17.6959 46.5167 17.5344 46.1352C17.3712 45.7537 17.5486 45.3119 17.9288 45.1497Z" fill="#BC84BF"/>
<path d="M20.3859 46.14C20.7661 45.9763 21.2065 46.1543 21.368 46.5358C21.5312 46.9172 21.3538 47.3591 20.9736 47.5212C20.5934 47.685 20.153 47.5069 19.9914 47.1255C19.8282 46.744 20.0057 46.3021 20.3859 46.14Z" fill="#BC84BF"/>
<path d="M18.9152 42.6859C19.2954 42.5222 19.7357 42.7002 19.8973 43.0817C20.0605 43.4631 19.8831 43.905 19.5029 44.0671C19.1227 44.2308 18.6823 44.0528 18.5207 43.6714C18.3575 43.2899 18.535 42.848 18.9152 42.6859Z" fill="#BC84BF"/>
<path d="M15.4737 44.161C15.8539 43.9973 16.2943 44.1753 16.4559 44.5568C16.6191 44.9382 16.4417 45.3801 16.0615 45.5422C16.025 45.5581 15.9886 45.5693 15.9522 45.5788C15.6496 45.2673 15.3486 44.9557 15.0492 44.641C15.1094 44.4328 15.2599 44.2532 15.4737 44.161Z" fill="#BC84BF"/>
<path d="M21.2389 43.7473C21.2594 43.733 21.28 43.7203 21.3022 43.7076C21.3244 43.6948 21.3466 43.6837 21.3703 43.6742C21.3941 43.6646 21.4179 43.6551 21.4416 43.6471C21.5145 43.6249 21.5874 43.6138 21.6602 43.6138C21.7569 43.6138 21.8535 43.6328 21.9422 43.6678C22.0309 43.7044 22.1133 43.7568 22.183 43.8236C22.2527 43.8919 22.3113 43.9746 22.3509 44.07C22.3921 44.1653 22.4111 44.2639 22.4111 44.3624C22.4111 44.4594 22.3921 44.5563 22.3573 44.6453C22.3224 44.7344 22.2686 44.817 22.202 44.8869C22.1513 44.9394 22.0927 44.9855 22.0262 45.022C22.004 45.0348 21.9818 45.0459 21.9581 45.0554C21.9343 45.065 21.9105 45.0745 21.8868 45.0824C21.863 45.0904 21.8377 45.0968 21.8139 45.1015C21.4733 45.1715 21.1185 44.995 20.9759 44.6596C20.8333 44.3259 20.9521 43.946 21.2373 43.7473H21.2389Z" fill="#BC84BF"/>
<path d="M17.0498 43.0788C16.7678 43.1996 16.4526 43.1328 16.2419 42.9342C16.6538 42.8197 17.0657 42.7037 17.4775 42.5845C17.4205 42.7991 17.2684 42.985 17.0498 43.0788Z" fill="#BC84BF"/>
<path d="M21.8559 49.5941C22.2361 49.4304 22.6765 49.6084 22.8381 49.9899C22.884 50.0979 22.9015 50.2092 22.8967 50.3189C22.8761 50.4095 22.8539 50.5001 22.8318 50.5907C22.7573 50.7576 22.6242 50.8975 22.4436 50.9753C22.0634 51.1391 21.623 50.961 21.4615 50.5796C21.2983 50.1981 21.4757 49.7562 21.8559 49.5941Z" fill="#BC84BF"/>
<path d="M20.3095 48.8676C20.338 48.9089 20.3618 48.9534 20.3824 49.0011C20.498 49.2745 20.441 49.5781 20.2588 49.7879C19.8929 49.4478 19.5301 49.106 19.1689 48.7611C19.2339 48.6959 19.3115 48.6435 19.4002 48.6053C19.7329 48.4623 20.1115 48.5799 20.3095 48.8676Z" fill="#BC84BF"/>
<path d="M22.711 47.2014C22.7316 47.1871 22.7522 47.1744 22.7743 47.1616C22.7965 47.1489 22.8187 47.1378 22.8425 47.1283C22.8662 47.1187 22.89 47.1092 22.9138 47.1012C22.9866 47.079 23.0595 47.0679 23.1324 47.0679C23.229 47.0679 23.3256 47.0869 23.4144 47.1219C23.473 47.1458 23.5284 47.1775 23.5791 47.2141C23.4872 47.6607 23.3922 48.1058 23.2955 48.5524C23.2924 48.5524 23.2892 48.554 23.286 48.5556C22.9454 48.6256 22.5906 48.4491 22.448 48.1153C22.4274 48.0677 22.4132 48.0184 22.4021 47.9707C22.3419 47.6766 22.4638 47.3746 22.7094 47.203L22.711 47.2014Z" fill="#BC84BF"/>
<path d="M24.4502 42.5332C24.4233 42.6922 24.3979 42.8495 24.371 43.0085C24.3441 42.8432 24.3742 42.6763 24.4502 42.5332Z" fill="#BC84BF"/>
<path d="M23.8271 44.6633C23.9127 44.6267 23.9998 44.6077 24.0869 44.6045C23.9998 45.0829 23.9095 45.5614 23.816 46.0382C23.6497 45.9635 23.5103 45.83 23.4327 45.6488C23.2695 45.2673 23.4469 44.8254 23.8271 44.6633Z" fill="#BC84BF"/>
<path d="M22.3585 41.2093C22.7387 41.0456 23.1791 41.2236 23.3407 41.6051C23.5039 41.9866 23.3264 42.4284 22.9462 42.5906C22.566 42.7543 22.1256 42.5763 21.9641 42.1948C21.8009 41.8133 21.9783 41.3714 22.3585 41.2093Z" fill="#BC84BF"/>
<path d="M66.1924 10C66.1924 10 40.3229 40.847 14.0004 42.9514" stroke="#DFC7A2" stroke-width="1.47522" stroke-miterlimit="10"/>
<path d="M249.904 18.4641H246.656L246.348 7.85205H250.212L249.904 18.4641ZM249.96 23.0001H246.572V19.892H249.96V23.0001Z" fill="black"/>
<path d="M234.18 22.9999H230.932L230.344 7.9639C231.828 7.8519 233.144 7.7959 234.32 7.7959C239.696 7.7959 241.88 9.0839 241.88 12.4719C241.88 16.1119 239.08 17.5119 235.02 17.5119C234.712 17.5119 234.404 17.5119 234.068 17.4839L234.18 22.9999ZM233.928 11.1279L234.012 14.3199C234.432 14.3479 234.824 14.3759 235.16 14.3759C237.624 14.3759 238.632 13.6479 238.632 12.6119C238.632 11.5479 237.568 11.0439 235.552 11.0439C235.076 11.0439 234.516 11.0719 233.928 11.1279Z" fill="black"/>
<path d="M225.596 7.85205V11.2681L218.092 11.1841L218.12 14.4321H225.036V17.2601H218.148L218.204 20.0881L225.26 20.0041V23.0001H214.984L214.396 7.85205H225.596Z" fill="black"/>
<path d="M210.194 7.87988L210.11 11.0719H205.77V22.9999H202.046L201.794 11.0999H197.454L197.258 7.87988H210.194Z" fill="black"/>
<path d="M188.523 23.2241C185.695 23.2241 184.015 21.6281 182.867 19.4721L185.387 17.7921C186.283 19.3881 187.067 20.1721 188.523 20.1721C189.363 20.1721 190.091 19.6401 190.091 18.9401C190.091 18.1841 189.251 17.1761 186.759 16.3641C184.267 15.5521 183.063 13.7041 183.063 11.9121C183.063 9.75608 184.827 7.68408 188.187 7.68408C191.351 7.68408 192.807 9.14008 193.619 11.2681L191.015 12.6401C190.371 11.2681 189.447 10.6241 188.187 10.6241C187.263 10.6241 186.675 11.1281 186.675 11.7441C186.675 12.4441 187.375 13.3121 189.083 13.8721C192.135 14.8801 193.675 17.1201 193.675 19.1641C193.675 21.3201 191.967 23.2241 188.523 23.2241Z" fill="black"/>
<path d="M178.343 22.9442L166.611 23.0002V19.3882C169.775 16.8682 171.511 15.3562 173.023 13.4522C173.835 12.4162 174.255 11.3522 174.255 10.4562C174.255 9.39217 173.639 8.60817 172.379 8.60817C170.419 8.60817 169.579 10.3442 169.299 12.2482L165.099 11.8842C165.323 9.16817 166.639 4.57617 172.183 4.57617C176.635 4.57617 178.679 7.51617 178.679 10.6242C178.679 11.8282 178.343 13.0882 177.727 14.1802C176.523 16.2522 174.955 17.8482 173.303 19.1922H178.455L178.343 22.9442Z" fill="black"/>
<path d="M152.941 17.008H160.893V20.62H152.941V23.476H148.601V20.62H141.153V17.008H148.601V15.608H142.105L141.825 6.25603H142.833L141.573 3.37203L145.661 2.39203L147.061 6.25603H149.441L148.517 2.81203L152.605 1.83203L153.585 6.25603H155.349L156.273 2.30803L160.529 3.06403L159.213 6.25603H160.221L159.941 15.608H152.941V17.008ZM146.193 10.176H148.965V9.08403H146.193V10.176ZM152.745 10.176H155.517V9.08403H152.745V10.176ZM148.965 11.94H146.193V13.032H148.965V11.94ZM152.745 13.032H155.517V11.94H152.745V13.032Z" fill="black"/>
<path d="M121.081 6.2278H120.577C120.353 7.0398 120.129 7.85181 119.849 8.7198L116.125 8.21581C116.685 5.7518 116.937 3.7638 117.217 1.2998L121.585 1.7758C121.501 2.2238 121.417 2.6718 121.305 3.0918H126.457V6.2278H124.777L124.861 7.96381L121.249 8.15981L121.081 6.2278ZM132.365 3.0918H137.517V6.2278H136.089L135.557 8.6918L132.029 8.4398L132.421 6.2278H131.497C131.357 6.7598 131.161 7.31981 130.965 7.96381L127.241 7.4598C127.717 4.9958 127.913 3.7638 128.277 1.2998L132.645 1.7758C132.533 2.2518 132.449 2.6998 132.365 3.0918ZM126.177 9.86781V15.6918H121.137V23.6998H117.105V9.86781H126.177ZM127.297 9.89581H136.649L136.229 23.6998L131.105 23.0838L131.469 19.9758L132.617 20.0878L132.729 15.6918H127.297V9.89581ZM122.985 11.5758H120.633V12.2478H122.985V11.5758ZM132.981 11.5758H130.349V12.2478H132.981V11.5758ZM122.985 13.4798H120.633V14.1518H122.985V13.4798ZM132.981 13.4798H130.349V14.1518H132.981V13.4798ZM130.265 22.9998H123.293V16.9238H130.265V22.9998ZM127.997 18.6038H125.561V19.3318H127.997V18.6038ZM127.997 20.6478H125.561V21.4038H127.997V20.6478Z" fill="black"/>
</svg>
