<svg width="375" height="136" viewBox="0 0 375 136" fill="none" xmlns="http://www.w3.org/2000/svg">
<g clip-path="url(#clip0_489_35743)">
<rect width="375" height="136" transform="matrix(-1 0 0 1 375 0)" fill="#092622"/>
<path opacity="0.55" d="M56.062 40.9688C54.8224 41.0417 53.5828 41.0781 52.3433 41.0781C51.1766 41.0052 50.0828 40.9688 49.062 40.9688C47.8953 40.9688 46.8016 40.9323 45.7808 40.8594C45.9266 44.724 45.9631 49.2448 45.8901 54.4219C45.8901 59.526 45.8172 64.776 45.6714 70.1719C45.5985 75.5677 45.4526 80.8542 45.2339 86.0312C45.0881 91.1354 44.9058 95.6562 44.687 99.5938C47.4578 99.5208 49.9006 99.5208 52.0151 99.5938C54.1297 99.6667 55.2599 99.776 55.4058 99.9219C55.5516 100.141 55.5516 100.87 55.4058 102.109C55.2599 103.276 55.0412 104.589 54.7495 106.047C54.4578 107.432 54.1662 108.708 53.8745 109.875C53.5828 111.115 53.3641 111.88 53.2183 112.172C51.1766 112.245 49.2808 112.245 47.5308 112.172C45.8537 112.172 44.3953 112.099 43.1558 111.953C41.6974 111.88 40.3849 111.771 39.2183 111.625C38.0516 111.406 36.812 111.151 35.4995 110.859C34.4058 110.568 33.1297 110.203 31.6714 109.766C30.286 109.328 28.8641 108.781 27.4058 108.125C27.1141 107.979 26.7495 107.578 26.312 106.922C25.9474 106.266 25.5464 105.573 25.1089 104.844C24.7443 104.042 24.4526 103.276 24.2339 102.547C23.9422 101.818 23.7964 101.307 23.7964 101.016C23.7964 100.943 24.1245 100.87 24.7808 100.797C25.437 100.651 26.3485 100.542 27.5151 100.469C28.6818 100.323 29.9943 100.214 31.4526 100.141C32.911 99.9948 34.4787 99.8854 36.1558 99.8125C36.0099 97.6979 35.7912 94.9271 35.4995 91.5C35.2808 88 35.0256 84.2448 34.7339 80.2344C34.5151 76.151 34.2599 71.9948 33.9683 67.7656C33.7495 63.4635 33.5672 59.4896 33.4214 55.8438C33.2756 52.125 33.2026 48.8802 33.2026 46.1094C33.2026 43.3385 33.312 41.4062 33.5308 40.3125C33.6037 40.1667 33.6401 40.0573 33.6401 39.9844C33.6401 39.8385 33.6766 39.6927 33.7495 39.5469L30.687 38.7812C29.812 38.5625 28.8641 38.3073 27.8433 38.0156C26.8224 37.724 25.8016 37.3958 24.7808 37.0312C24.4891 36.8854 24.1245 36.4844 23.687 35.8281C23.1766 35.1719 22.7026 34.4427 22.2651 33.6406C21.7547 32.8385 21.3537 32.1094 21.062 31.4531C20.6974 30.724 20.5151 30.2135 20.5151 29.9219C20.5151 29.776 21.4631 29.6302 23.3589 29.4844C25.1818 29.2656 27.4787 29.0833 30.2495 28.9375C33.0203 28.7917 36.0099 28.6823 39.2183 28.6094C42.4995 28.5365 45.5256 28.5 48.2964 28.5C51.1401 28.5 53.5099 28.5365 55.4058 28.6094C57.3745 28.6094 58.4318 28.6823 58.5776 28.8281C58.7964 29.0469 58.7964 29.776 58.5776 31.0156C58.4318 32.1823 58.1766 33.4948 57.812 34.9531C57.5203 36.3385 57.1922 37.651 56.8276 38.8906C56.536 40.0573 56.2808 40.75 56.062 40.9688ZM90.1608 63.1719C90.1608 64.3385 90.0149 66.0156 89.7233 68.2031C89.5045 70.3906 89.1764 72.7969 88.7389 75.4219C88.3014 77.974 87.8274 80.6354 87.317 83.4062C86.8795 86.1042 86.4056 88.5833 85.8951 90.8438C85.4576 93.1042 85.0566 95 84.692 96.5312C84.4003 98.0625 84.2181 98.901 84.1451 99.0469C83.9993 99.2656 83.5983 99.4115 82.942 99.4844C82.3587 99.4844 81.666 99.4115 80.8639 99.2656C80.1347 99.1198 79.442 98.901 78.7858 98.6094C78.2024 98.3177 77.8378 97.9531 77.692 97.5156C77.6191 97.224 77.5826 96.2031 77.5826 94.4531C77.6556 92.7031 77.7285 90.625 77.8014 88.2188C77.9472 85.7396 78.0931 83.1146 78.2389 80.3438C78.3847 77.5 78.5306 74.875 78.6764 72.4688C78.8951 69.9896 79.041 67.875 79.1139 66.125C79.2597 64.375 79.3326 63.3177 79.3326 62.9531C79.3326 61.6406 79.1868 60.401 78.8951 59.2344C78.6764 57.9948 78.3847 56.9375 78.0201 56.0625C77.6556 55.1875 77.2181 54.5312 76.7076 54.0938C76.2701 53.5833 75.8691 53.401 75.5045 53.5469C74.5566 53.6927 73.7545 53.9479 73.0983 54.3125C72.442 54.6042 71.8951 54.9323 71.4576 55.2969C70.9472 55.7344 70.5462 56.2448 70.2545 56.8281C70.1816 56.974 70.0358 57.4115 69.817 58.1406C69.6712 58.8698 69.5983 59.7083 69.5983 60.6562C69.5983 60.9479 69.5983 62.0052 69.5983 63.8281C69.5983 65.5781 69.5618 67.6927 69.4889 70.1719C69.4889 72.651 69.4524 75.349 69.3795 78.2656C69.3795 81.1094 69.3431 83.7708 69.2701 86.25C69.2701 88.6562 69.2337 90.7344 69.1608 92.4844C69.0878 94.2344 69.0149 95.2188 68.942 95.4375C68.7962 95.875 68.4316 96.4948 67.8483 97.2969C67.2649 98.026 66.6087 98.7188 65.8795 99.375C65.1503 100.031 64.4576 100.542 63.8014 100.906C63.1451 101.198 62.7076 101.125 62.4889 100.688C62.2701 100.469 62.0514 99.4115 61.8326 97.5156C61.6139 95.5469 61.3587 93.1771 61.067 90.4062C60.8483 87.5625 60.5931 84.5 60.3014 81.2188C60.0097 77.8646 59.7545 74.6562 59.5358 71.5938C59.317 68.5312 59.1347 65.7604 58.9889 63.2812C58.8431 60.8021 58.7337 59.0156 58.6608 57.9219C58.5878 56.3906 58.5149 54.6771 58.442 52.7812C58.3691 50.8125 58.2962 48.9896 58.2233 47.3125C58.2233 45.5625 58.2233 44.0677 58.2233 42.8281C58.2962 41.5156 58.442 40.7135 58.6608 40.4219C58.8066 40.1302 59.2806 40.0573 60.0826 40.2031C60.9576 40.349 61.8691 40.6406 62.817 41.0781C63.8378 41.4427 64.7858 41.9167 65.6608 42.5C66.5358 43.0104 67.1191 43.5208 67.4108 44.0312C67.5566 44.4688 67.7389 44.9792 67.9576 45.5625C68.1764 46.0729 68.3587 46.9479 68.5045 48.1875C69.7441 47.4583 71.0931 46.8021 72.5514 46.2188C74.0097 45.5625 75.4316 45.0885 76.817 44.7969C78.2753 44.4323 79.6608 44.3229 80.9733 44.4688C82.2858 44.5417 83.4524 44.9062 84.4733 45.5625C85.1295 46.0729 85.7858 46.9479 86.442 48.1875C87.1712 49.4271 87.791 50.8854 88.3014 52.5625C88.8847 54.2396 89.3222 56.026 89.6139 57.9219C89.9785 59.7448 90.1608 61.4948 90.1608 63.1719ZM122.4 36.1562C122.765 36.9583 123.093 37.9427 123.385 39.1094C123.676 40.276 123.858 41.4427 123.931 42.6094C124.077 43.7031 124.114 44.651 124.041 45.4531C123.968 46.2552 123.713 46.6927 123.275 46.7656C122.838 46.7656 121.926 46.3281 120.541 45.4531C119.155 44.5052 117.661 43.5938 116.056 42.7188C114.452 41.7708 112.957 41.0417 111.572 40.5312C110.187 39.9479 109.348 40.0573 109.056 40.8594C108.838 41.4427 108.692 42.4271 108.619 43.8125C108.546 45.1979 108.473 46.9115 108.4 48.9531C108.4 50.9219 108.4 53.1823 108.4 55.7344C108.473 58.2135 108.546 60.8385 108.619 63.6094C110.806 63.3906 112.739 63.2448 114.416 63.1719C116.166 63.099 117.296 63.1354 117.806 63.2812C118.463 63.5 118.973 64.0833 119.338 65.0312C119.775 65.9062 120.03 66.8906 120.103 67.9844C120.249 69.0781 120.213 70.099 119.994 71.0469C119.848 71.9948 119.52 72.6146 119.01 72.9062C118.645 73.125 117.478 73.2708 115.51 73.3438C113.614 73.4167 111.426 73.4167 108.947 73.3438C109.093 77.0625 109.239 80.7448 109.385 84.3906C109.603 87.9635 109.786 91.2448 109.931 94.2344C110.077 97.224 110.187 99.8125 110.26 102C110.405 104.115 110.478 105.609 110.478 106.484C110.478 107.578 110.15 108.089 109.494 108.016C108.911 107.87 108.181 107.396 107.306 106.594C106.431 105.719 105.483 104.625 104.463 103.312C103.515 102 102.713 100.688 102.056 99.375C101.692 98.7188 101.364 97.5521 101.072 95.875C100.78 94.1979 100.489 92.1927 100.197 89.8594C99.9053 87.4531 99.6137 84.7917 99.322 81.875C99.0303 78.9583 98.7751 75.9323 98.5564 72.7969C97.0981 72.651 95.822 72.5052 94.7283 72.3594C93.7074 72.2135 93.0876 72.0677 92.8689 71.9219C92.5043 71.6302 92.2491 71.2656 92.1033 70.8281C92.0303 70.3177 91.9574 69.8073 91.8845 69.2969C91.8845 68.7865 91.8845 68.3125 91.8845 67.875C91.9574 67.3646 92.0303 66.9635 92.1033 66.6719C92.2491 66.4531 92.8324 66.1979 93.8533 65.9062C94.947 65.6146 96.3324 65.3229 98.0095 65.0312C97.7908 62.2604 97.6085 59.5625 97.4626 56.9375C97.3897 54.3125 97.3168 51.9062 97.2439 49.7188C97.171 47.4583 97.0981 45.526 97.0251 43.9219C97.0251 42.2448 97.0616 40.9688 97.1345 40.0938C97.1345 39.4375 97.5356 38.526 98.3376 37.3594C99.2126 36.1198 100.197 34.8802 101.291 33.6406C102.457 32.401 103.624 31.2708 104.791 30.25C106.03 29.2292 107.015 28.5365 107.744 28.1719C109.421 27.3698 111.062 27.1875 112.666 27.625C114.27 28.0625 115.728 28.8281 117.041 29.9219C118.353 30.9427 119.483 32.0729 120.431 33.3125C121.379 34.4792 122.036 35.4271 122.4 36.1562ZM147.858 49.1719C148.369 49.6094 148.843 50.4479 149.28 51.6875C149.791 52.9271 150.228 54.4219 150.593 56.1719C150.957 57.9219 151.285 59.8177 151.577 61.8594C151.869 63.901 152.124 65.9062 152.343 67.875C152.561 69.8438 152.707 71.7031 152.78 73.4531C152.926 75.1302 153.035 76.5156 153.108 77.6094C153.181 78.9219 153.218 80.3073 153.218 81.7656C153.291 83.151 153.291 84.5 153.218 85.8125C153.218 87.0521 153.145 88.1823 152.999 89.2031C152.926 90.224 152.78 90.9896 152.561 91.5C152.124 92.5938 151.358 93.3594 150.265 93.7969C149.244 94.1615 148.077 94.4167 146.765 94.5625C146.108 94.6354 144.978 94.6719 143.374 94.6719C141.843 94.599 140.166 94.526 138.343 94.4531C136.593 94.3073 134.916 94.1615 133.311 94.0156C131.707 93.8698 130.504 93.724 129.702 93.5781C128.098 93.2135 126.931 92.7396 126.202 92.1562C125.546 91.5729 124.89 90.7344 124.233 89.6406C124.015 89.2031 123.832 88.1094 123.686 86.3594C123.541 84.5365 123.431 82.3854 123.358 79.9062C123.358 77.3542 123.395 74.6198 123.468 71.7031C123.541 68.7865 123.65 66.0156 123.796 63.3906C124.015 60.7656 124.233 58.4688 124.452 56.5C124.744 54.5312 125.108 53.2188 125.546 52.5625C126.275 51.5417 127.515 50.5938 129.265 49.7188C131.087 48.8438 132.728 48.151 134.186 47.6406C134.916 47.4219 135.863 47.276 137.03 47.2031C138.27 47.0573 139.546 47.0573 140.858 47.2031C142.244 47.276 143.556 47.4948 144.796 47.8594C146.035 48.151 147.056 48.5885 147.858 49.1719ZM141.733 83.0781C141.879 82.7865 142.025 81.9115 142.171 80.4531C142.39 78.9219 142.535 77.099 142.608 74.9844C142.754 72.8698 142.827 70.6094 142.827 68.2031C142.9 65.7969 142.936 63.5729 142.936 61.5312C142.936 59.4896 142.863 57.776 142.718 56.3906C142.572 54.9323 142.39 54.0938 142.171 53.875C141.806 53.5833 141.259 53.474 140.53 53.5469C139.874 53.5469 139.181 53.6562 138.452 53.875C137.723 54.0208 137.067 54.2396 136.483 54.5312C135.9 54.75 135.499 54.9688 135.28 55.1875C134.332 55.9896 133.822 57.3021 133.749 59.125C133.749 59.6354 133.676 61.0938 133.53 63.5C133.457 65.8333 133.421 68.3854 133.421 71.1562C133.421 73.8542 133.457 76.3698 133.53 78.7031C133.676 81.0365 133.931 82.4583 134.296 82.9688C134.66 83.4792 135.171 83.8802 135.827 84.1719C136.556 84.3906 137.285 84.5 138.015 84.5C138.817 84.5 139.546 84.3906 140.202 84.1719C140.931 83.8802 141.442 83.5156 141.733 83.0781ZM202.191 44.25C203.577 45.4167 204.598 47.75 205.254 51.25C205.91 54.6771 206.165 58.5052 206.02 62.7344C205.947 64.0469 205.764 65.8698 205.473 68.2031C205.181 70.4635 204.816 72.9792 204.379 75.75C204.014 78.4479 203.577 81.2188 203.066 84.0625C202.629 86.9062 202.191 89.5312 201.754 91.9375C201.316 94.3438 200.915 96.3854 200.551 98.0625C200.259 99.6667 200.077 100.615 200.004 100.906C199.858 101.417 199.457 101.927 198.801 102.438C198.145 102.948 197.452 103.385 196.723 103.75C196.066 104.042 195.41 104.26 194.754 104.406C194.098 104.479 193.697 104.333 193.551 103.969C193.478 103.75 193.478 102.62 193.551 100.578C193.624 98.5365 193.733 96.0208 193.879 93.0312C194.025 89.9688 194.171 86.724 194.316 83.2969C194.535 79.7969 194.717 76.5156 194.863 73.4531C195.009 70.3906 195.155 67.8021 195.301 65.6875C195.447 63.5 195.52 62.1875 195.52 61.75C195.592 59.4896 195.41 57.5208 194.973 55.8438C194.535 54.0938 193.806 53.2188 192.785 53.2188C192.421 53.2188 191.983 53.401 191.473 53.7656C190.962 54.0573 190.452 54.4219 189.941 54.8594C189.504 55.2969 189.066 55.7708 188.629 56.2812C188.264 56.7917 188.082 57.2656 188.082 57.7031C188.009 59.0156 187.9 60.9479 187.754 63.5C187.681 66.0521 187.572 68.8594 187.426 71.9219C187.353 74.9844 187.243 78.1198 187.098 81.3281C187.025 84.5365 186.915 87.4896 186.77 90.1875C186.697 92.8854 186.624 95.1458 186.551 96.9688C186.478 98.7188 186.405 99.7031 186.332 99.9219C186.186 100.214 185.712 100.432 184.91 100.578C184.181 100.651 183.342 100.651 182.395 100.578C181.447 100.505 180.572 100.323 179.77 100.031C179.04 99.7396 178.603 99.3385 178.457 98.8281C178.311 98.4635 178.202 97.3698 178.129 95.5469C178.056 93.651 177.947 91.3906 177.801 88.7656C177.728 86.1406 177.655 83.3333 177.582 80.3438C177.509 77.2812 177.436 74.4375 177.363 71.8125C177.29 69.1875 177.217 66.9271 177.145 65.0312C177.145 63.1354 177.145 61.9688 177.145 61.5312C177.145 59.7812 176.999 58.3958 176.707 57.375C176.415 56.2812 176.051 55.4427 175.613 54.8594C175.249 54.2031 174.811 53.8021 174.301 53.6562C173.79 53.4375 173.28 53.3281 172.77 53.3281C172.551 53.3281 172.223 53.5104 171.785 53.875C171.348 54.1667 170.91 54.6406 170.473 55.2969C170.035 55.8802 169.671 56.5729 169.379 57.375C169.087 58.1042 168.978 58.9062 169.051 59.7812C169.051 60.1458 169.087 61.4948 169.16 63.8281C169.233 66.1615 169.27 68.9688 169.27 72.25C169.342 75.5312 169.415 79.0677 169.488 82.8594C169.561 86.651 169.598 90.1875 169.598 93.4688C169.671 96.6771 169.707 99.4115 169.707 101.672C169.707 103.859 169.707 105.026 169.707 105.172C169.561 105.536 169.16 105.755 168.504 105.828C167.848 105.828 167.118 105.682 166.316 105.391C165.514 105.099 164.749 104.698 164.02 104.188C163.29 103.604 162.78 102.911 162.488 102.109C162.342 101.526 162.124 100.25 161.832 98.2812C161.54 96.3125 161.212 93.9792 160.848 91.2812C160.483 88.5104 160.118 85.5573 159.754 82.4219C159.389 79.2135 159.025 76.151 158.66 73.2344C158.296 70.2448 157.967 67.5469 157.676 65.1406C157.457 62.7344 157.275 60.9115 157.129 59.6719C156.91 57.9219 156.655 56.026 156.363 53.9844C156.145 51.8698 155.926 49.8646 155.707 47.9688C155.561 46 155.452 44.3229 155.379 42.9375C155.306 41.4792 155.379 40.5677 155.598 40.2031C155.743 39.9115 156.254 39.8021 157.129 39.875C158.077 39.9479 159.061 40.1667 160.082 40.5312C161.176 40.8229 162.197 41.2604 163.145 41.8438C164.165 42.3542 164.822 42.901 165.113 43.4844C165.332 43.9219 165.551 44.4688 165.77 45.125C166.061 45.7083 166.353 46.6562 166.645 47.9688C167.884 47.0208 169.16 46.1458 170.473 45.3438C171.785 44.4688 173.098 43.8125 174.41 43.375C175.723 42.8646 176.962 42.6094 178.129 42.6094C179.368 42.5365 180.535 42.8646 181.629 43.5938C182.577 44.3229 183.488 45.599 184.363 47.4219C187.863 45.4531 191.217 44.1042 194.426 43.375C197.707 42.5729 200.296 42.8646 202.191 44.25ZM239.462 51.4688C239.9 51.9792 240.301 52.526 240.665 53.1094C241.03 53.6198 241.358 54.349 241.65 55.2969C241.941 56.1719 242.16 57.3385 242.306 58.7969C242.525 60.2552 242.634 62.151 242.634 64.4844C242.634 68.2031 242.525 71.9583 242.306 75.75C242.16 79.4688 242.014 82.75 241.868 85.5938C241.795 88.1458 241.722 90.5156 241.65 92.7031C241.577 94.8906 241.504 96.8229 241.431 98.5C241.358 100.104 241.248 101.38 241.103 102.328C241.03 103.276 240.957 103.786 240.884 103.859C240.592 104.078 240.118 104.005 239.462 103.641C238.879 103.203 238.222 102.656 237.493 102C236.837 101.344 236.217 100.651 235.634 99.9219C235.051 99.1927 234.686 98.6094 234.54 98.1719C234.54 97.8073 234.431 96.75 234.212 95C232.462 96.0208 230.53 96.75 228.415 97.1875C226.301 97.5521 224.186 97.6979 222.071 97.625C220.03 97.4792 218.134 97.0781 216.384 96.4219C214.634 95.7656 213.321 94.8906 212.446 93.7969C212.082 93.3594 211.754 92.7031 211.462 91.8281C211.243 90.9531 211.025 89.9688 210.806 88.875C210.66 87.7083 210.514 86.5052 210.368 85.2656C210.222 83.9531 210.113 82.75 210.04 81.6562C209.894 78.8125 210.259 76.3698 211.134 74.3281C212.009 72.2135 213.613 70.6458 215.946 69.625C216.967 69.1875 218.316 68.9688 219.993 68.9688C221.743 68.8958 223.457 68.9688 225.134 69.1875C226.884 69.3333 228.452 69.5521 229.837 69.8438C231.222 70.0625 232.097 70.2448 232.462 70.3906C232.17 66.6719 231.952 63.4635 231.806 60.7656C231.66 57.9948 231.368 56.2083 230.931 55.4062C230.566 54.8958 230.129 54.3854 229.618 53.875C229.181 53.5104 228.597 53.1094 227.868 52.6719C227.139 52.2344 226.264 51.9062 225.243 51.6875C224.441 51.5417 223.712 51.8698 223.056 52.6719C222.472 53.401 221.926 54.7135 221.415 56.6094C220.978 58.4323 220.722 61.2396 220.65 65.0312C218.097 65.1042 216.129 65.1042 214.743 65.0312C213.431 64.8854 212.446 64.7396 211.79 64.5938C210.988 64.4479 210.514 64.2656 210.368 64.0469C210.222 63.7552 210.295 62.6979 210.587 60.875C210.879 58.9792 211.28 56.9375 211.79 54.75C212.373 52.5625 213.03 50.4844 213.759 48.5156C214.561 46.5469 215.4 45.3073 216.275 44.7969C218.025 43.776 220.103 43.4115 222.509 43.7031C224.988 43.9948 227.394 44.6146 229.728 45.5625C232.061 46.5104 234.139 47.5677 235.962 48.7344C237.785 49.901 238.952 50.8125 239.462 51.4688ZM232.681 83.4062C232.681 83.0417 232.717 82.5677 232.79 81.9844C232.863 81.3281 232.9 80.6719 232.9 80.0156C232.9 79.3594 232.863 78.7396 232.79 78.1562C232.79 77.5729 232.717 77.1354 232.571 76.8438C232.353 76.4062 231.696 76.0417 230.603 75.75C229.582 75.4583 228.415 75.276 227.103 75.2031C225.79 75.0573 224.551 75.0208 223.384 75.0938C222.217 75.0938 221.415 75.2396 220.978 75.5312C220.394 75.8958 219.957 76.4062 219.665 77.0625C219.446 77.7188 219.301 78.7396 219.228 80.125C219.228 80.7812 219.264 81.474 219.337 82.2031C219.41 82.9323 219.483 83.6615 219.556 84.3906C219.702 85.0469 219.847 85.6302 219.993 86.1406C220.212 86.651 220.431 86.9792 220.65 87.125C221.16 87.4896 222.035 87.8177 223.275 88.1094C224.587 88.3281 225.9 88.401 227.212 88.3281C228.525 88.1823 229.728 87.7448 230.821 87.0156C231.915 86.2865 232.535 85.0833 232.681 83.4062ZM271.811 52.7812C271.884 53 271.884 53.6198 271.811 54.6406C271.738 55.5885 271.592 56.6823 271.373 57.9219C271.227 59.0885 271.045 60.1823 270.826 61.2031C270.608 62.151 270.425 62.7344 270.28 62.9531C269.55 63.026 268.821 63.0625 268.092 63.0625C267.363 62.9896 266.67 62.9531 266.014 62.9531H263.717C263.644 67.7656 263.535 72.5417 263.389 77.2812C263.243 82.0208 263.061 86.2865 262.842 90.0781C262.623 93.7969 262.368 96.8229 262.076 99.1562C261.858 101.49 261.639 102.693 261.42 102.766C260.91 102.839 260.326 102.62 259.67 102.109C259.014 101.599 258.358 100.979 257.701 100.25C257.118 99.4479 256.571 98.6458 256.061 97.8438C255.623 96.9688 255.368 96.2031 255.295 95.5469C254.931 91.099 254.602 86.8698 254.311 82.8594C254.019 78.776 253.8 75.1667 253.655 72.0312C253.363 68.3854 253.181 64.9948 253.108 61.8594C252.306 61.7865 251.503 61.6771 250.701 61.5312C249.972 61.3854 249.207 61.2396 248.405 61.0938C247.675 60.9479 246.91 60.8021 246.108 60.6562C245.962 60.5104 245.78 60.1823 245.561 59.6719C245.342 59.0885 245.123 58.4688 244.905 57.8125C244.759 57.1562 244.613 56.5365 244.467 55.9531C244.321 55.2969 244.248 54.8229 244.248 54.5312C244.248 54.3125 245.05 54.0938 246.655 53.875C248.332 53.6562 250.373 53.474 252.78 53.3281C252.634 49.4635 252.524 46.1094 252.451 43.2656C252.451 40.349 252.561 38.3802 252.78 37.3594C252.998 35.974 253.582 34.6615 254.53 33.4219C255.55 32.1094 256.608 30.9792 257.701 30.0312C258.868 29.0833 259.925 28.3906 260.873 27.9531C261.894 27.4427 262.55 27.2969 262.842 27.5156C263.061 27.6615 263.243 28.4271 263.389 29.8125C263.535 31.125 263.644 32.9115 263.717 35.1719C263.79 37.4323 263.826 40.0938 263.826 43.1562C263.826 46.1458 263.826 49.3177 263.826 52.6719C266.014 52.526 267.873 52.4896 269.405 52.5625C270.936 52.5625 271.738 52.6354 271.811 52.7812ZM285.675 61.9688C285.821 62.3333 285.894 63.5 285.894 65.4688C285.967 67.3646 285.967 69.6979 285.894 72.4688C285.894 75.1667 285.821 78.0833 285.675 81.2188C285.529 84.2812 285.347 87.1979 285.128 89.9688C284.982 92.6667 284.8 95 284.581 96.9688C284.363 98.8646 284.144 99.9948 283.925 100.359C283.269 101.38 282.285 102.036 280.972 102.328C279.66 102.547 278.712 102.583 278.128 102.438C277.837 102.438 277.508 101.599 277.144 99.9219C276.852 98.2448 276.561 96.1302 276.269 93.5781C275.977 91.026 275.722 88.2552 275.503 85.2656C275.285 82.276 275.102 79.4323 274.956 76.7344C274.811 73.9635 274.738 71.5573 274.738 69.5156C274.738 67.474 274.811 66.1615 274.956 65.5781C275.175 64.6302 275.795 63.7917 276.816 63.0625C277.91 62.3333 279.04 61.7865 280.206 61.4219C281.446 61.0573 282.576 60.9115 283.597 60.9844C284.691 60.9844 285.383 61.3125 285.675 61.9688ZM286.222 44.25C286.514 44.8333 286.623 45.6354 286.55 46.6562C286.55 47.6771 286.441 48.7344 286.222 49.8281C286.003 50.9219 285.712 51.9792 285.347 53C284.982 54.0208 284.618 54.8229 284.253 55.4062C283.524 56.4271 282.43 57.0833 280.972 57.375C279.587 57.5938 278.566 57.6302 277.91 57.4844C277.399 57.4115 276.889 57.0833 276.378 56.5C275.868 55.8438 275.43 55.0781 275.066 54.2031C274.701 53.2552 274.446 52.2344 274.3 51.1406C274.154 50.0469 274.191 49.026 274.41 48.0781C274.628 47.1302 275.321 46.2917 276.488 45.5625C277.654 44.7604 278.894 44.1771 280.206 43.8125C281.519 43.375 282.758 43.1927 283.925 43.2656C285.092 43.2656 285.857 43.5938 286.222 44.25ZM316.602 49.1719C317.112 49.6094 317.586 50.4479 318.024 51.6875C318.534 52.9271 318.972 54.4219 319.336 56.1719C319.701 57.9219 320.029 59.8177 320.321 61.8594C320.612 63.901 320.868 65.9062 321.086 67.875C321.305 69.8438 321.451 71.7031 321.524 73.4531C321.67 75.1302 321.779 76.5156 321.852 77.6094C321.925 78.9219 321.961 80.3073 321.961 81.7656C322.034 83.151 322.034 84.5 321.961 85.8125C321.961 87.0521 321.888 88.1823 321.743 89.2031C321.67 90.224 321.524 90.9896 321.305 91.5C320.868 92.5938 320.102 93.3594 319.008 93.7969C317.987 94.1615 316.821 94.4167 315.508 94.5625C314.852 94.6354 313.722 94.6719 312.118 94.6719C310.586 94.599 308.909 94.526 307.086 94.4531C305.336 94.3073 303.659 94.1615 302.055 94.0156C300.451 93.8698 299.248 93.724 298.446 93.5781C296.842 93.2135 295.675 92.7396 294.946 92.1562C294.29 91.5729 293.633 90.7344 292.977 89.6406C292.758 89.2031 292.576 88.1094 292.43 86.3594C292.284 84.5365 292.175 82.3854 292.102 79.9062C292.102 77.3542 292.138 74.6198 292.211 71.7031C292.284 68.7865 292.394 66.0156 292.54 63.3906C292.758 60.7656 292.977 58.4688 293.196 56.5C293.487 54.5312 293.852 53.2188 294.29 52.5625C295.019 51.5417 296.258 50.5938 298.008 49.7188C299.831 48.8438 301.472 48.151 302.93 47.6406C303.659 47.4219 304.607 47.276 305.774 47.2031C307.013 47.0573 308.29 47.0573 309.602 47.2031C310.987 47.276 312.3 47.4948 313.54 47.8594C314.779 48.151 315.8 48.5885 316.602 49.1719ZM310.477 83.0781C310.623 82.7865 310.769 81.9115 310.915 80.4531C311.133 78.9219 311.279 77.099 311.352 74.9844C311.498 72.8698 311.571 70.6094 311.571 68.2031C311.644 65.7969 311.68 63.5729 311.68 61.5312C311.68 59.4896 311.607 57.776 311.461 56.3906C311.316 54.9323 311.133 54.0938 310.915 53.875C310.55 53.5833 310.003 53.474 309.274 53.5469C308.618 53.5469 307.925 53.6562 307.196 53.875C306.467 54.0208 305.81 54.2396 305.227 54.5312C304.644 54.75 304.243 54.9688 304.024 55.1875C303.076 55.9896 302.566 57.3021 302.493 59.125C302.493 59.6354 302.42 61.0938 302.274 63.5C302.201 65.8333 302.165 68.3854 302.165 71.1562C302.165 73.8542 302.201 76.3698 302.274 78.7031C302.42 81.0365 302.675 82.4583 303.04 82.9688C303.404 83.4792 303.915 83.8802 304.571 84.1719C305.3 84.3906 306.029 84.5 306.758 84.5C307.56 84.5 308.29 84.3906 308.946 84.1719C309.675 83.8802 310.185 83.5156 310.477 83.0781ZM357.81 63.1719C357.81 64.3385 357.664 66.0156 357.373 68.2031C357.154 70.3906 356.826 72.7969 356.388 75.4219C355.951 77.974 355.477 80.6354 354.966 83.4062C354.529 86.1042 354.055 88.5833 353.545 90.8438C353.107 93.1042 352.706 95 352.341 96.5312C352.05 98.0625 351.867 98.901 351.795 99.0469C351.649 99.2656 351.248 99.4115 350.591 99.4844C350.008 99.4844 349.315 99.4115 348.513 99.2656C347.784 99.1198 347.091 98.901 346.435 98.6094C345.852 98.3177 345.487 97.9531 345.341 97.5156C345.268 97.224 345.232 96.2031 345.232 94.4531C345.305 92.7031 345.378 90.625 345.451 88.2188C345.597 85.7396 345.742 83.1146 345.888 80.3438C346.034 77.5 346.18 74.875 346.326 72.4688C346.545 69.9896 346.69 67.875 346.763 66.125C346.909 64.375 346.982 63.3177 346.982 62.9531C346.982 61.6406 346.836 60.401 346.545 59.2344C346.326 57.9948 346.034 56.9375 345.67 56.0625C345.305 55.1875 344.867 54.5312 344.357 54.0938C343.92 53.5833 343.518 53.401 343.154 53.5469C342.206 53.6927 341.404 53.9479 340.748 54.3125C340.091 54.6042 339.545 54.9323 339.107 55.2969C338.597 55.7344 338.196 56.2448 337.904 56.8281C337.831 56.974 337.685 57.4115 337.466 58.1406C337.321 58.8698 337.248 59.7083 337.248 60.6562C337.248 60.9479 337.248 62.0052 337.248 63.8281C337.248 65.5781 337.211 67.6927 337.138 70.1719C337.138 72.651 337.102 75.349 337.029 78.2656C337.029 81.1094 336.992 83.7708 336.92 86.25C336.92 88.6562 336.883 90.7344 336.81 92.4844C336.737 94.2344 336.664 95.2188 336.591 95.4375C336.446 95.875 336.081 96.4948 335.498 97.2969C334.914 98.026 334.258 98.7188 333.529 99.375C332.8 100.031 332.107 100.542 331.451 100.906C330.795 101.198 330.357 101.125 330.138 100.688C329.92 100.469 329.701 99.4115 329.482 97.5156C329.263 95.5469 329.008 93.1771 328.716 90.4062C328.498 87.5625 328.242 84.5 327.951 81.2188C327.659 77.8646 327.404 74.6562 327.185 71.5938C326.966 68.5312 326.784 65.7604 326.638 63.2812C326.492 60.8021 326.383 59.0156 326.31 57.9219C326.237 56.3906 326.164 54.6771 326.091 52.7812C326.018 50.8125 325.946 48.9896 325.873 47.3125C325.873 45.5625 325.873 44.0677 325.873 42.8281C325.946 41.5156 326.091 40.7135 326.31 40.4219C326.456 40.1302 326.93 40.0573 327.732 40.2031C328.607 40.349 329.518 40.6406 330.466 41.0781C331.487 41.4427 332.435 41.9167 333.31 42.5C334.185 43.0104 334.768 43.5208 335.06 44.0312C335.206 44.4688 335.388 44.9792 335.607 45.5625C335.826 46.0729 336.008 46.9479 336.154 48.1875C337.393 47.4583 338.742 46.8021 340.201 46.2188C341.659 45.5625 343.081 45.0885 344.466 44.7969C345.925 44.4323 347.31 44.3229 348.623 44.4688C349.935 44.5417 351.102 44.9062 352.123 45.5625C352.779 46.0729 353.435 46.9479 354.091 48.1875C354.821 49.4271 355.44 50.8854 355.951 52.5625C356.534 54.2396 356.972 56.026 357.263 57.9219C357.628 59.7448 357.81 61.4948 357.81 63.1719Z" fill="#3E4140"/>
<path d="M97.2159 54.194L102.346 61.547C99.8949 63.428 95.8479 65.651 91.2879 67.931H93.5109V86.285H86.4999V70.211C83.3079 71.693 80.0589 73.118 77.2089 74.315L74.0169 68.615C82.3959 64.169 89.4639 59.609 97.2159 54.194ZM147.391 64.169L143.116 64.625L142.318 57.044L146.878 56.645L147.391 64.169ZM141.691 64.739L137.302 65.366L135.991 57.956L140.893 57.272L141.691 64.739ZM149.443 75.683L143.287 82.808C137.302 78.818 132.457 74.828 127.555 69.869L119.461 79.388L113.761 74.429L126.643 60.407C133.996 66.278 141.634 71.351 149.443 75.683ZM175.274 65.879L160.91 65.936L160.853 59.153L175.217 59.096L175.274 65.879ZM171.683 87.197L166.553 80.471C174.818 74.999 180.233 70.097 187.13 61.376L193.343 66.107C186.788 74.885 180.347 81.098 171.683 87.197ZM212.012 54.878V67.019C216.743 67.646 221.189 68.102 225.293 68.387L224.951 75.056C223.754 75.113 222.557 75.113 221.36 75.113C218.225 75.113 215.147 74.999 212.012 74.714V86.285H204.716V54.878H212.012ZM266.473 84.606H266.719C266.801 84.606 266.924 84.565 267.006 84.483L267.129 84.319C267.17 84.114 267.252 83.909 267.293 83.622L267.416 81.695C267.416 80.588 267.99 80.301 268.933 80.875C269.302 81.08 269.671 81.244 270.04 81.408C270.45 81.572 270.696 81.982 270.696 82.392C270.614 84.114 270.45 85.795 270.245 86.574C269.999 87.517 269.63 88.091 269.015 88.583C268.482 88.993 267.703 89.239 266.965 89.239H265.079C264.054 89.239 263.07 88.952 262.455 88.214C261.84 87.476 261.676 86.779 261.676 84.36V83.704C261.676 83.335 261.512 83.294 261.307 83.581C259.79 85.549 257.945 87.435 255.649 89.116C255.157 89.444 254.583 89.362 254.214 88.911C253.681 88.337 253.025 87.681 252.41 87.148C251.795 86.574 251.795 85.918 252.492 85.426L253.23 84.852C253.517 84.647 253.681 84.196 253.599 83.827C253.517 83.458 253.189 83.212 252.779 83.376C250.483 84.278 248.187 85.139 246.137 85.918C245.563 86.164 245.03 85.918 244.825 85.385L243.513 82.146C243.226 81.531 243.513 80.957 244.21 80.793L244.579 80.711C245.03 80.588 245.317 80.219 245.317 79.727V75.586C245.317 74.315 244.907 74.233 244.333 75.299L244.005 75.914C243.595 76.652 243.062 76.611 242.734 75.832C242.365 75.053 242.119 75.135 242.119 75.996V88.665C242.119 89.28 241.709 89.69 241.094 89.69H237.978C237.363 89.69 236.953 89.28 236.953 88.665V81.162C236.953 79.604 236.625 79.563 236.01 80.957L235.846 81.285C235.313 82.515 234.534 82.392 233.96 81.203C233.55 80.383 233.099 79.563 232.689 78.866C232.525 78.538 232.525 78.128 232.689 77.8C234.288 74.807 235.723 70.461 236.543 66.648C236.707 65.91 236.297 65.418 235.559 65.418H234.247C233.632 65.418 233.222 65.008 233.222 64.393V61.359C233.222 60.744 233.632 60.334 234.247 60.334H235.928C236.543 60.334 236.953 59.924 236.953 59.309V53.733C236.953 53.118 237.363 52.708 237.978 52.708H241.094C241.709 52.708 242.119 53.118 242.119 53.733V59.309C242.119 59.924 242.529 60.334 243.144 60.334H243.636C244.251 60.334 244.661 60.744 244.661 61.359V64.393C244.661 65.008 244.251 65.418 243.636 65.418H243.144C242.529 65.418 242.119 65.828 242.119 66.443V67.099C242.119 67.304 242.201 67.591 242.365 67.755C242.734 68.165 243.226 68.78 243.759 69.436C244.702 70.625 245.317 70.42 245.317 68.903V55.455C245.317 54.84 245.727 54.43 246.342 54.43H254.829C255.444 54.43 255.854 54.84 255.854 55.455V71.404C255.854 72.019 255.444 72.429 254.829 72.429H250.852C250.237 72.429 249.827 72.839 249.827 73.454V78.046C249.827 78.784 250.36 79.112 251.098 78.866C251.672 78.743 252.041 78.169 251.877 77.636V77.554C251.672 77.062 251.467 76.488 251.303 75.996V75.914C251.057 75.381 251.344 74.848 251.959 74.643L254.337 73.864C254.87 73.7 255.403 73.905 255.608 74.438C256.1 75.709 256.633 77.062 257.125 78.415C257.494 79.522 258.232 79.686 258.888 78.661C259.79 77.226 260.487 75.791 261.061 74.315C261.348 73.536 260.938 73.003 260.118 73.003H257.494C256.879 73.003 256.469 72.593 256.469 71.978V68.78C256.469 68.411 256.715 68.165 257.125 68.165C257.494 68.165 257.74 67.919 257.74 67.509V59.637C257.74 59.309 257.535 59.104 257.207 59.104C256.838 59.104 256.633 58.899 256.633 58.53V55.373C256.633 54.758 257.043 54.348 257.658 54.348H268.277C268.892 54.348 269.302 54.758 269.302 55.373V58.243C269.302 58.776 268.974 59.104 268.441 59.104C267.908 59.104 267.58 59.432 267.58 59.965V61.523C267.58 63.163 267.539 65.049 267.375 67.017C267.293 67.714 267.703 68.165 268.4 68.165H268.933C269.548 68.165 269.958 68.575 269.958 69.19V71.978C269.958 72.593 269.548 73.003 268.933 73.003H266.842C266.555 73.003 266.309 73.208 266.227 73.454L266.145 73.7C266.104 73.741 266.104 73.823 266.104 73.864L266.063 74.069V83.868C266.063 84.032 266.063 84.278 266.104 84.401C266.145 84.565 266.309 84.606 266.473 84.606ZM251.385 59.514C251.385 59.145 251.139 58.899 250.77 58.899H250.442C250.073 58.899 249.827 59.145 249.827 59.514V60.662C249.827 61.031 250.073 61.277 250.442 61.277H250.77C251.139 61.277 251.385 61.031 251.385 60.662V59.514ZM261.963 67.796C261.963 68.042 262.086 68.165 262.332 68.165C262.537 68.165 262.66 68.042 262.701 67.837C262.988 65.5 263.07 63.327 263.07 61.482V59.637C263.07 59.309 262.865 59.104 262.537 59.104C262.168 59.104 261.963 59.309 261.963 59.637V67.796ZM249.827 67.386C249.827 67.755 250.073 68.001 250.442 68.001H250.77C251.139 68.001 251.385 67.755 251.385 67.386V66.074C251.385 65.705 251.139 65.459 250.77 65.459H250.442C250.073 65.459 249.827 65.705 249.827 66.074V67.386ZM276.395 64.68H282.381L282.217 62.917H275.985V57.3H303.291V62.917H297.469L297.264 64.68H303.25L302.84 73.208H276.805L276.395 64.68ZM287.096 64.68H292.795L292.877 62.917H286.973L287.096 64.68ZM282.381 70.256H283.611V67.796H282.381V70.256ZM289.146 70.256H290.335V67.796H289.146V70.256ZM295.665 70.256H296.854V67.796H295.665V70.256ZM304.398 75.094V79.153H297.797C297.182 80.055 296.526 80.957 295.87 81.859L298.658 82.351L297.715 87.066C295.993 86.738 294.189 86.369 292.262 86.041C291.647 86.656 291.032 87.23 290.417 87.804L286.399 86.328C286.727 85.959 287.055 85.631 287.383 85.221C285.456 84.934 283.488 84.688 281.561 84.483L282.258 79.153H275.247V75.094H282.75L282.914 73.905L287.957 74.233L287.793 75.094H304.398ZM290.376 81.162C290.786 80.465 291.196 79.809 291.606 79.153H287.096L286.809 80.834C287.957 80.916 289.146 81.039 290.376 81.162Z" fill="white"/>
</g>
<defs>
<clipPath id="clip0_489_35743">
<rect width="375" height="136" fill="white" transform="matrix(-1 0 0 1 375 0)"/>
</clipPath>
</defs>
</svg>
