<svg width="335" height="84" viewBox="0 0 335 84" fill="none" xmlns="http://www.w3.org/2000/svg">
<rect x="172" y="46" width="163" height="38" rx="8" fill="#AA68AA"/>
<path d="M300.398 67.4401H307.358V73.3281H305.678V68.9921H302.014V73.3921H300.398V67.4401ZM300.046 61.6961H306.974V65.7921H305.326V63.1681H300.046V61.6961ZM302.094 59.5521L303.774 59.6801C303.689 60.3521 303.582 61.0614 303.454 61.8081C303.337 62.5548 303.214 63.2801 303.086 63.9841C302.969 64.6774 302.851 65.2801 302.734 65.7921H301.07C301.166 65.3974 301.257 64.9441 301.342 64.4321C301.438 63.9201 301.534 63.3814 301.63 62.8161C301.726 62.2508 301.811 61.6908 301.886 61.1361C301.971 60.5708 302.041 60.0428 302.094 59.5521ZM299.79 58.9441H307.806V60.4161H299.79V58.9441ZM299.23 64.9921H308.366V66.4961H299.23V64.9921ZM301.054 71.2001H306.638V72.7361H301.054V71.2001ZM294.11 63.4401H298.702V64.7521H294.11V63.4401ZM294.206 58.9761H298.718V60.2721H294.206V58.9761ZM294.11 65.6641H298.702V66.9761H294.11V65.6641ZM293.342 61.1681H299.278V62.5281H293.342V61.1681ZM294.91 67.9201H298.814V72.7201H294.91V71.3601H297.326V69.2801H294.91V67.9201ZM294.078 67.9201H295.534V73.3761H294.078V67.9201Z" fill="white"/>
<path d="M277.646 67.376H292.014V68.976H277.646V67.376ZM279.23 63.68H290.542V68.064H288.798V65.168H280.878V68.064H279.23V63.68ZM283.87 62H285.662V66.656C285.662 67.2213 285.603 67.776 285.486 68.32C285.369 68.8533 285.155 69.3707 284.846 69.872C284.547 70.3627 284.121 70.8267 283.566 71.264C283.022 71.7013 282.323 72.1013 281.47 72.464C280.627 72.8267 279.598 73.1467 278.382 73.424C278.318 73.296 278.222 73.1413 278.094 72.96C277.977 72.7787 277.849 72.5973 277.71 72.416C277.582 72.2453 277.449 72.096 277.31 71.968C278.462 71.744 279.427 71.488 280.206 71.2C280.985 70.9013 281.614 70.5813 282.094 70.24C282.585 69.888 282.958 69.52 283.214 69.136C283.47 68.7413 283.641 68.336 283.726 67.92C283.822 67.4933 283.87 67.0667 283.87 66.64V62ZM285.71 68C286.233 69.1093 287.049 69.9787 288.158 70.608C289.278 71.2373 290.702 71.648 292.43 71.84C292.302 71.968 292.169 72.1227 292.03 72.304C291.891 72.496 291.763 72.688 291.646 72.88C291.529 73.0827 291.433 73.264 291.358 73.424C290.131 73.2107 289.059 72.8907 288.142 72.464C287.225 72.048 286.441 71.4987 285.79 70.816C285.15 70.1333 284.611 69.312 284.174 68.352L285.71 68ZM277.822 59.76H291.806V61.296H277.822V59.76ZM281.022 58.448H282.718V62.8H281.022V58.448ZM286.862 58.448H288.574V62.8H286.862V58.448Z" fill="white"/>
<path d="M268.974 71.648C269.006 71.4986 269.033 71.328 269.054 71.136C269.075 70.944 269.086 70.752 269.086 70.56C269.086 70.4426 269.086 70.208 269.086 69.856C269.086 69.4933 269.086 69.0613 269.086 68.56C269.086 68.048 269.086 67.4933 269.086 66.896C269.086 66.2986 269.086 65.7013 269.086 65.104C269.086 64.496 269.086 63.9306 269.086 63.408C269.086 62.8746 269.086 62.4106 269.086 62.016C269.086 61.6106 269.086 61.3226 269.086 61.152C269.086 60.8106 269.07 60.5173 269.038 60.272C269.006 60.016 268.985 59.8666 268.974 59.824H271.102C271.102 59.8666 271.086 60.016 271.054 60.272C271.022 60.5173 271.006 60.816 271.006 61.168C271.006 61.3386 271.006 61.6053 271.006 61.968C271.006 62.3306 271.006 62.7573 271.006 63.248C271.006 63.728 271.006 64.2453 271.006 64.8C271.006 65.344 271.006 65.8826 271.006 66.416C271.006 66.9493 271.006 67.4506 271.006 67.92C271.006 68.3786 271.006 68.7733 271.006 69.104C271.006 69.424 271.006 69.648 271.006 69.776C271.465 69.5733 271.939 69.3013 272.43 68.96C272.931 68.608 273.417 68.2026 273.886 67.744C274.366 67.2746 274.793 66.7733 275.166 66.24L276.254 67.808C275.806 68.3946 275.273 68.9706 274.654 69.536C274.035 70.0906 273.395 70.5973 272.734 71.056C272.073 71.504 271.433 71.8826 270.814 72.192C270.654 72.288 270.521 72.3733 270.414 72.448C270.318 72.5226 270.238 72.5866 270.174 72.64L268.974 71.648ZM261.582 71.456C262.275 70.9653 262.846 70.3786 263.294 69.696C263.753 69.0026 264.094 68.304 264.318 67.6C264.435 67.248 264.526 66.8106 264.59 66.288C264.654 65.7653 264.702 65.2053 264.734 64.608C264.766 64.0106 264.782 63.4186 264.782 62.832C264.793 62.2453 264.798 61.7173 264.798 61.248C264.798 60.9493 264.782 60.6933 264.75 60.48C264.729 60.256 264.697 60.048 264.654 59.856H266.766C266.755 59.888 266.739 59.9786 266.718 60.128C266.707 60.2666 266.691 60.432 266.67 60.624C266.659 60.816 266.654 61.0133 266.654 61.216C266.654 61.6853 266.649 62.2293 266.638 62.848C266.627 63.4666 266.606 64.1013 266.574 64.752C266.542 65.4026 266.494 66.0213 266.43 66.608C266.377 67.184 266.291 67.6746 266.174 68.08C265.939 68.9653 265.577 69.7973 265.086 70.576C264.595 71.344 264.009 72.0266 263.326 72.624L261.582 71.456Z" fill="white"/>
<path d="M257.246 59.328C257.385 59.5094 257.529 59.7334 257.678 60C257.838 60.2667 257.993 60.5334 258.142 60.8C258.291 61.0667 258.419 61.3067 258.526 61.52L257.358 62.016C257.198 61.6854 257.001 61.312 256.766 60.896C256.531 60.4694 256.307 60.1014 256.094 59.792L257.246 59.328ZM259.102 58.624C259.241 58.816 259.39 59.0507 259.55 59.328C259.721 59.5947 259.881 59.8614 260.03 60.128C260.19 60.384 260.313 60.608 260.398 60.8L259.246 61.296C259.075 60.9547 258.873 60.5814 258.638 60.176C258.403 59.76 258.174 59.4027 257.95 59.104L259.102 58.624ZM248.014 67.072C248.195 66.6347 248.366 66.1707 248.526 65.68C248.697 65.1787 248.846 64.6667 248.974 64.144C249.113 63.6107 249.23 63.0827 249.326 62.56C249.433 62.0374 249.507 61.5254 249.55 61.024L251.63 61.456C251.598 61.6054 251.555 61.7707 251.502 61.952C251.449 62.1334 251.401 62.3147 251.358 62.496C251.326 62.6667 251.299 62.816 251.278 62.944C251.225 63.2107 251.15 63.5414 251.054 63.936C250.958 64.3307 250.846 64.752 250.718 65.2C250.59 65.648 250.457 66.1014 250.318 66.56C250.179 67.008 250.035 67.424 249.886 67.808C249.694 68.3094 249.47 68.832 249.214 69.376C248.958 69.92 248.681 70.448 248.382 70.96C248.094 71.4614 247.811 71.9147 247.534 72.32L245.534 71.488C246.035 70.8267 246.505 70.1014 246.942 69.312C247.39 68.512 247.747 67.7654 248.014 67.072ZM255.918 66.656C255.758 66.24 255.577 65.7974 255.374 65.328C255.182 64.848 254.979 64.368 254.766 63.888C254.563 63.408 254.361 62.96 254.158 62.544C253.955 62.1174 253.769 61.7547 253.598 61.456L255.486 60.832C255.646 61.1307 255.827 61.4987 256.03 61.936C256.243 62.3627 256.457 62.816 256.67 63.296C256.894 63.776 257.107 64.256 257.31 64.736C257.513 65.2054 257.689 65.6374 257.838 66.032C257.987 66.3947 258.147 66.816 258.318 67.296C258.489 67.776 258.659 68.272 258.83 68.784C259.011 69.296 259.177 69.7974 259.326 70.288C259.486 70.768 259.619 71.2 259.726 71.584L257.614 72.256C257.475 71.648 257.315 71.024 257.134 70.384C256.953 69.744 256.755 69.104 256.542 68.464C256.339 67.824 256.131 67.2214 255.918 66.656Z" fill="white"/>
<path d="M230.506 64.72C230.688 64.7306 230.917 64.7466 231.194 64.768C231.482 64.7893 231.781 64.8053 232.09 64.816C232.4 64.816 232.693 64.816 232.97 64.816C233.216 64.816 233.53 64.816 233.914 64.816C234.298 64.816 234.725 64.816 235.194 64.816C235.664 64.816 236.149 64.816 236.65 64.816C237.162 64.816 237.669 64.816 238.17 64.816C238.682 64.816 239.162 64.816 239.61 64.816C240.058 64.816 240.453 64.816 240.794 64.816C241.146 64.816 241.424 64.816 241.626 64.816C242.01 64.816 242.357 64.8053 242.666 64.784C242.986 64.752 243.248 64.7306 243.45 64.72V66.976C243.269 66.9653 243.002 66.9493 242.65 66.928C242.309 66.9066 241.968 66.896 241.626 66.896C241.434 66.896 241.162 66.896 240.81 66.896C240.458 66.896 240.053 66.896 239.594 66.896C239.146 66.896 238.672 66.896 238.17 66.896C237.669 66.896 237.162 66.896 236.65 66.896C236.149 66.896 235.664 66.896 235.194 66.896C234.725 66.896 234.298 66.896 233.914 66.896C233.53 66.896 233.216 66.896 232.97 66.896C232.522 66.896 232.069 66.9066 231.61 66.928C231.162 66.9386 230.794 66.9546 230.506 66.976V64.72Z" fill="white"/>
<path d="M215.098 60.752C215.418 60.7626 215.712 60.7733 215.978 60.784C216.256 60.784 216.501 60.784 216.714 60.784C216.864 60.784 217.114 60.784 217.466 60.784C217.829 60.784 218.25 60.784 218.73 60.784C219.21 60.784 219.722 60.784 220.266 60.784C220.821 60.784 221.37 60.784 221.914 60.784C222.469 60.784 222.981 60.784 223.45 60.784C223.93 60.784 224.346 60.784 224.698 60.784C225.05 60.784 225.301 60.784 225.45 60.784C225.642 60.784 225.877 60.784 226.154 60.784C226.432 60.784 226.709 60.7786 226.986 60.768C226.976 60.992 226.965 61.2373 226.954 61.504C226.954 61.76 226.954 62.0053 226.954 62.24C226.954 62.368 226.954 62.592 226.954 62.912C226.954 63.2213 226.954 63.5946 226.954 64.032C226.954 64.4693 226.954 64.9386 226.954 65.44C226.954 65.9306 226.954 66.4266 226.954 66.928C226.954 67.4186 226.954 67.8826 226.954 68.32C226.954 68.7573 226.954 69.1306 226.954 69.44C226.954 69.7493 226.954 69.9626 226.954 70.08C226.954 70.2293 226.954 70.4213 226.954 70.656C226.965 70.88 226.97 71.1093 226.97 71.344C226.97 71.568 226.97 71.7653 226.97 71.936C226.981 72.1066 226.986 72.2026 226.986 72.224H225.002C225.013 72.192 225.018 72.064 225.018 71.84C225.018 71.6053 225.024 71.3386 225.034 71.04C225.045 70.7306 225.05 70.4373 225.05 70.16C225.05 70.0426 225.05 69.8186 225.05 69.488C225.05 69.1573 225.05 68.7626 225.05 68.304C225.05 67.8453 225.05 67.36 225.05 66.848C225.05 66.3253 225.05 65.8133 225.05 65.312C225.05 64.8106 225.05 64.3573 225.05 63.952C225.05 63.5466 225.05 63.2213 225.05 62.976C225.05 62.7306 225.05 62.608 225.05 62.608H217.034C217.034 62.608 217.034 62.7306 217.034 62.976C217.034 63.2106 217.034 63.536 217.034 63.952C217.034 64.3573 217.034 64.8106 217.034 65.312C217.034 65.8026 217.034 66.3093 217.034 66.832C217.034 67.344 217.034 67.8293 217.034 68.288C217.034 68.7466 217.034 69.1413 217.034 69.472C217.034 69.8026 217.034 70.032 217.034 70.16C217.034 70.3413 217.034 70.544 217.034 70.768C217.034 70.992 217.034 71.2106 217.034 71.424C217.045 71.6266 217.05 71.8026 217.05 71.952C217.05 72.1013 217.05 72.192 217.05 72.224H215.082C215.082 72.192 215.082 72.1013 215.082 71.952C215.093 71.792 215.098 71.6 215.098 71.376C215.109 71.1413 215.114 70.912 215.114 70.688C215.114 70.4533 215.114 70.2453 215.114 70.064C215.114 69.9466 215.114 69.7333 215.114 69.424C215.114 69.104 215.114 68.7253 215.114 68.288C215.114 67.8506 215.114 67.3813 215.114 66.88C215.114 66.3786 215.114 65.8826 215.114 65.392C215.114 64.8906 215.114 64.4266 215.114 64C215.114 63.5626 215.114 63.1893 215.114 62.88C215.114 62.5706 215.114 62.3573 215.114 62.24C215.114 62.016 215.114 61.7706 215.114 61.504C215.114 61.2266 215.109 60.976 215.098 60.752ZM225.77 69.52V71.344H216.074V69.52H225.77Z" fill="white"/>
<path d="M209.386 58.976C209.525 59.168 209.669 59.3973 209.818 59.664C209.978 59.9306 210.133 60.1973 210.282 60.464C210.432 60.7306 210.56 60.9653 210.666 61.168L209.498 61.68C209.338 61.3493 209.141 60.976 208.906 60.56C208.672 60.1333 208.448 59.7653 208.234 59.456L209.386 58.976ZM211.242 58.272C211.381 58.4746 211.53 58.7093 211.69 58.976C211.861 59.2426 212.021 59.5093 212.17 59.776C212.33 60.032 212.458 60.256 212.554 60.448L211.386 60.96C211.226 60.6186 211.024 60.24 210.778 59.824C210.544 59.408 210.314 59.0506 210.09 58.752L211.242 58.272ZM210.714 62.4C210.629 62.5386 210.544 62.7093 210.458 62.912C210.373 63.104 210.298 63.2906 210.234 63.472C210.096 63.9626 209.898 64.512 209.642 65.12C209.386 65.728 209.072 66.3573 208.698 67.008C208.336 67.648 207.914 68.2666 207.434 68.864C206.677 69.7706 205.792 70.5973 204.778 71.344C203.765 72.08 202.506 72.7413 201.002 73.328L199.306 71.824C200.373 71.504 201.296 71.1413 202.074 70.736C202.864 70.32 203.557 69.8666 204.154 69.376C204.752 68.8853 205.285 68.3733 205.754 67.84C206.128 67.4026 206.474 66.912 206.794 66.368C207.114 65.824 207.386 65.2853 207.61 64.752C207.845 64.208 208.005 63.728 208.09 63.312H202.554L203.226 61.68C203.365 61.68 203.594 61.68 203.914 61.68C204.245 61.68 204.618 61.68 205.034 61.68C205.45 61.68 205.861 61.68 206.266 61.68C206.672 61.68 207.024 61.68 207.322 61.68C207.632 61.68 207.84 61.68 207.946 61.68C208.192 61.68 208.426 61.664 208.65 61.632C208.885 61.6 209.082 61.5573 209.242 61.504L210.714 62.4ZM205.466 59.904C205.285 60.1706 205.109 60.4533 204.938 60.752C204.778 61.04 204.65 61.264 204.554 61.424C204.213 62.0533 203.781 62.7146 203.258 63.408C202.746 64.0906 202.154 64.7573 201.482 65.408C200.821 66.0586 200.096 66.6506 199.306 67.184L197.69 66C198.394 65.584 199.013 65.1466 199.546 64.688C200.09 64.2186 200.56 63.7493 200.954 63.28C201.36 62.8106 201.701 62.3626 201.978 61.936C202.266 61.5093 202.506 61.1253 202.698 60.784C202.816 60.6026 202.938 60.3626 203.066 60.064C203.205 59.7546 203.306 59.472 203.37 59.216L205.466 59.904Z" fill="white"/>
<rect x="172" width="163" height="38" rx="8" fill="#B6D43E"/>
<path d="M294.272 18.6584C294.453 18.6691 294.683 18.6851 294.96 18.7064C295.248 18.7278 295.547 18.7438 295.856 18.7544C296.165 18.7544 296.459 18.7544 296.736 18.7544C296.981 18.7544 297.296 18.7544 297.68 18.7544C298.064 18.7544 298.491 18.7544 298.96 18.7544C299.429 18.7544 299.915 18.7544 300.416 18.7544C300.928 18.7544 301.435 18.7544 301.936 18.7544C302.448 18.7544 302.928 18.7544 303.376 18.7544C303.824 18.7544 304.219 18.7544 304.56 18.7544C304.912 18.7544 305.189 18.7544 305.392 18.7544C305.776 18.7544 306.123 18.7438 306.432 18.7224C306.752 18.6904 307.013 18.6691 307.216 18.6584V20.9144C307.035 20.9038 306.768 20.8878 306.416 20.8664C306.075 20.8451 305.733 20.8344 305.392 20.8344C305.2 20.8344 304.928 20.8344 304.576 20.8344C304.224 20.8344 303.819 20.8344 303.36 20.8344C302.912 20.8344 302.437 20.8344 301.936 20.8344C301.435 20.8344 300.928 20.8344 300.416 20.8344C299.915 20.8344 299.429 20.8344 298.96 20.8344C298.491 20.8344 298.064 20.8344 297.68 20.8344C297.296 20.8344 296.981 20.8344 296.736 20.8344C296.288 20.8344 295.835 20.8451 295.376 20.8664C294.928 20.8771 294.56 20.8931 294.272 20.9144V18.6584Z" fill="white"/>
<path d="M281.648 13.3784C281.904 13.5171 282.197 13.6878 282.528 13.8904C282.859 14.0931 283.195 14.3064 283.536 14.5304C283.877 14.7438 284.197 14.9518 284.496 15.1544C284.805 15.3464 285.056 15.5118 285.248 15.6504L284.192 17.2344C283.979 17.0851 283.717 16.9091 283.408 16.7064C283.109 16.5038 282.795 16.2958 282.464 16.0824C282.133 15.8691 281.808 15.6664 281.488 15.4744C281.168 15.2718 280.88 15.0958 280.624 14.9464L281.648 13.3784ZM278.848 24.7544C279.445 24.6478 280.053 24.5144 280.672 24.3544C281.291 24.1944 281.904 23.9971 282.512 23.7624C283.12 23.5278 283.707 23.2558 284.272 22.9464C285.168 22.4344 286.005 21.8638 286.784 21.2344C287.563 20.5944 288.261 19.9171 288.88 19.2024C289.509 18.4771 290.032 17.7358 290.448 16.9784L291.552 18.9144C290.827 20.0131 289.92 21.0584 288.832 22.0504C287.744 23.0318 286.549 23.9011 285.248 24.6584C284.704 24.9678 284.112 25.2558 283.472 25.5224C282.832 25.7891 282.197 26.0184 281.568 26.2104C280.949 26.4024 280.4 26.5464 279.92 26.6424L278.848 24.7544ZM279.2 17.0104C279.467 17.1491 279.765 17.3198 280.096 17.5224C280.427 17.7144 280.763 17.9171 281.104 18.1304C281.445 18.3438 281.765 18.5464 282.064 18.7384C282.373 18.9304 282.624 19.0958 282.816 19.2344L281.776 20.8504C281.552 20.6904 281.291 20.5144 280.992 20.3224C280.693 20.1198 280.373 19.9118 280.032 19.6984C279.701 19.4744 279.371 19.2664 279.04 19.0744C278.72 18.8824 278.432 18.7224 278.176 18.5944L279.2 17.0104Z" fill="white"/>
<path d="M264.68 13.7625C264.894 13.7945 265.144 13.8158 265.432 13.8265C265.731 13.8371 266.008 13.8425 266.264 13.8425C266.456 13.8425 266.76 13.8425 267.176 13.8425C267.603 13.8425 268.078 13.8425 268.6 13.8425C269.123 13.8425 269.646 13.8425 270.168 13.8425C270.691 13.8425 271.155 13.8425 271.56 13.8425C271.976 13.8425 272.275 13.8425 272.456 13.8425C272.712 13.8425 272.995 13.8371 273.304 13.8265C273.624 13.8158 273.891 13.7945 274.104 13.7625V15.6345C273.902 15.6131 273.646 15.5971 273.336 15.5865C273.027 15.5758 272.728 15.5705 272.44 15.5705C272.259 15.5705 271.96 15.5705 271.544 15.5705C271.139 15.5705 270.675 15.5705 270.152 15.5705C269.63 15.5705 269.107 15.5705 268.584 15.5705C268.062 15.5705 267.592 15.5705 267.176 15.5705C266.76 15.5705 266.456 15.5705 266.264 15.5705C266.019 15.5705 265.747 15.5758 265.448 15.5865C265.16 15.5971 264.904 15.6131 264.68 15.6345V13.7625ZM275.416 18.2905C275.363 18.3865 275.31 18.4931 275.256 18.6105C275.203 18.7278 275.166 18.8238 275.144 18.8985C274.899 19.6771 274.59 20.4505 274.216 21.2185C273.854 21.9865 273.374 22.7011 272.776 23.3625C271.966 24.2691 271.064 24.9945 270.072 25.5385C269.091 26.0825 268.088 26.4985 267.064 26.7865L265.64 25.1705C266.824 24.9251 267.891 24.5571 268.84 24.0665C269.79 23.5651 270.579 22.9891 271.208 22.3385C271.656 21.8798 272.019 21.3891 272.296 20.8665C272.574 20.3331 272.782 19.8265 272.92 19.3465C272.803 19.3465 272.595 19.3465 272.296 19.3465C271.998 19.3465 271.64 19.3465 271.224 19.3465C270.808 19.3465 270.355 19.3465 269.864 19.3465C269.384 19.3465 268.894 19.3465 268.392 19.3465C267.902 19.3465 267.432 19.3465 266.984 19.3465C266.536 19.3465 266.136 19.3465 265.784 19.3465C265.443 19.3465 265.176 19.3465 264.984 19.3465C264.792 19.3465 264.526 19.3518 264.184 19.3625C263.854 19.3731 263.528 19.3945 263.208 19.4265V17.5545C263.539 17.5758 263.859 17.5971 264.168 17.6185C264.478 17.6398 264.75 17.6505 264.984 17.6505C265.134 17.6505 265.368 17.6505 265.688 17.6505C266.019 17.6505 266.403 17.6505 266.84 17.6505C267.278 17.6505 267.747 17.6505 268.248 17.6505C268.75 17.6505 269.251 17.6505 269.752 17.6505C270.264 17.6505 270.739 17.6505 271.176 17.6505C271.624 17.6505 272.008 17.6505 272.328 17.6505C272.659 17.6505 272.894 17.6505 273.032 17.6505C273.278 17.6505 273.496 17.6398 273.688 17.6185C273.88 17.5865 274.03 17.5438 274.136 17.4905L275.416 18.2905Z" fill="white"/>
<path d="M248.344 13.7944C248.6 13.8264 248.872 13.8531 249.16 13.8744C249.448 13.8851 249.72 13.8904 249.976 13.8904C250.179 13.8904 250.494 13.8904 250.92 13.8904C251.358 13.8904 251.848 13.8904 252.392 13.8904C252.947 13.8904 253.496 13.8904 254.04 13.8904C254.595 13.8904 255.086 13.8904 255.512 13.8904C255.939 13.8904 256.243 13.8904 256.424 13.8904C256.68 13.8904 256.952 13.8851 257.24 13.8744C257.539 13.8531 257.822 13.8264 258.088 13.7944V15.6504C257.822 15.6291 257.544 15.6131 257.256 15.6024C256.968 15.5918 256.691 15.5864 256.424 15.5864C256.243 15.5864 255.939 15.5864 255.512 15.5864C255.086 15.5864 254.595 15.5864 254.04 15.5864C253.496 15.5864 252.952 15.5864 252.408 15.5864C251.864 15.5864 251.374 15.5864 250.936 15.5864C250.499 15.5864 250.184 15.5864 249.992 15.5864C249.726 15.5864 249.443 15.5918 249.144 15.6024C248.846 15.6131 248.579 15.6291 248.344 15.6504V13.7944ZM246.472 17.8584C246.707 17.8798 246.952 17.9011 247.208 17.9224C247.464 17.9438 247.715 17.9544 247.96 17.9544C248.099 17.9544 248.376 17.9544 248.792 17.9544C249.208 17.9544 249.71 17.9544 250.296 17.9544C250.894 17.9544 251.528 17.9544 252.2 17.9544C252.883 17.9544 253.56 17.9544 254.232 17.9544C254.915 17.9544 255.55 17.9544 256.136 17.9544C256.723 17.9544 257.219 17.9544 257.624 17.9544C258.04 17.9544 258.312 17.9544 258.44 17.9544C258.611 17.9544 258.835 17.9491 259.112 17.9384C259.39 17.9171 259.635 17.8904 259.848 17.8584V19.7304C259.656 19.7091 259.427 19.6984 259.16 19.6984C258.904 19.6878 258.664 19.6824 258.44 19.6824C258.312 19.6824 258.04 19.6824 257.624 19.6824C257.219 19.6824 256.723 19.6824 256.136 19.6824C255.55 19.6824 254.915 19.6824 254.232 19.6824C253.56 19.6824 252.883 19.6824 252.2 19.6824C251.528 19.6824 250.894 19.6824 250.296 19.6824C249.71 19.6824 249.208 19.6824 248.792 19.6824C248.376 19.6824 248.099 19.6824 247.96 19.6824C247.726 19.6824 247.475 19.6878 247.208 19.6984C246.942 19.7091 246.696 19.7251 246.472 19.7464V17.8584ZM254.472 18.8344C254.472 19.8691 254.387 20.8024 254.216 21.6344C254.046 22.4558 253.79 23.2024 253.448 23.8744C253.256 24.2371 253 24.6051 252.68 24.9784C252.36 25.3518 251.992 25.7038 251.576 26.0344C251.171 26.3758 250.728 26.6638 250.248 26.8984L248.568 25.6824C249.144 25.4478 249.699 25.1224 250.232 24.7064C250.766 24.2798 251.187 23.8264 251.496 23.3464C251.902 22.7278 252.168 22.0398 252.296 21.2824C252.424 20.5251 252.494 19.7144 252.504 18.8504L254.472 18.8344Z" fill="white"/>
<path d="M241.784 13.6025C241.774 13.8159 241.763 14.0505 241.752 14.3065C241.742 14.5625 241.736 14.8399 241.736 15.1385C241.736 15.3945 241.736 15.7145 241.736 16.0985C241.736 16.4719 241.736 16.8452 241.736 17.2185C241.736 17.5919 241.736 17.9012 241.736 18.1465C241.736 19.0319 241.694 19.7999 241.608 20.4505C241.534 21.0905 241.422 21.6505 241.272 22.1305C241.123 22.6105 240.931 23.0372 240.696 23.4105C240.472 23.7732 240.211 24.1199 239.912 24.4505C239.571 24.8452 239.171 25.1972 238.712 25.5065C238.264 25.8052 237.806 26.0559 237.336 26.2585C236.878 26.4719 236.451 26.6425 236.056 26.7705L234.568 25.1865C235.347 25.0052 236.056 24.7545 236.696 24.4345C237.347 24.1039 237.918 23.6719 238.408 23.1385C238.686 22.8292 238.91 22.5145 239.08 22.1945C239.262 21.8745 239.395 21.5172 239.48 21.1225C239.576 20.7279 239.64 20.2799 239.672 19.7785C239.704 19.2772 239.72 18.6959 239.72 18.0345C239.72 17.7785 239.72 17.4692 239.72 17.1065C239.72 16.7332 239.72 16.3705 239.72 16.0185C239.72 15.6559 239.72 15.3625 239.72 15.1385C239.72 14.8399 239.71 14.5625 239.688 14.3065C239.678 14.0505 239.656 13.8159 239.624 13.6025H241.784ZM234.376 13.7305C234.366 13.9119 234.35 14.0985 234.328 14.2905C234.318 14.4825 234.312 14.6959 234.312 14.9305C234.312 15.0372 234.312 15.2239 234.312 15.4905C234.312 15.7572 234.312 16.0719 234.312 16.4345C234.312 16.7865 234.312 17.1599 234.312 17.5545C234.312 17.9492 234.312 18.3332 234.312 18.7065C234.312 19.0692 234.312 19.3945 234.312 19.6825C234.312 19.9705 234.312 20.1839 234.312 20.3225C234.312 20.5252 234.318 20.7545 234.328 21.0105C234.35 21.2665 234.366 21.4852 234.376 21.6665H232.28C232.302 21.5279 232.318 21.3305 232.328 21.0745C232.35 20.8079 232.36 20.5519 232.36 20.3065C232.36 20.1679 232.36 19.9599 232.36 19.6825C232.36 19.3945 232.36 19.0639 232.36 18.6905C232.36 18.3172 232.36 17.9385 232.36 17.5545C232.36 17.1599 232.36 16.7865 232.36 16.4345C232.36 16.0719 232.36 15.7572 232.36 15.4905C232.36 15.2239 232.36 15.0372 232.36 14.9305C232.36 14.7919 232.355 14.6052 232.344 14.3705C232.334 14.1252 232.318 13.9119 232.296 13.7305H234.376Z" fill="white"/>
<path d="M216.776 17.8424H224.312V19.3304H216.776V17.8424ZM213.96 21.4424H228.232V23.0264H213.96V21.4424ZM220.2 20.3704H221.96V25.4424C221.96 25.9011 221.891 26.2531 221.752 26.4984C221.624 26.7544 221.379 26.9464 221.016 27.0744C220.664 27.1917 220.238 27.2664 219.736 27.2984C219.235 27.3304 218.632 27.3464 217.928 27.3464C217.875 27.1011 217.779 26.8184 217.64 26.4984C217.502 26.1784 217.363 25.9064 217.224 25.6824C217.576 25.6931 217.928 25.7037 218.28 25.7144C218.643 25.7144 218.958 25.7144 219.224 25.7144C219.491 25.7144 219.678 25.7144 219.784 25.7144C219.944 25.7037 220.051 25.6771 220.104 25.6344C220.168 25.5917 220.2 25.5117 220.2 25.3944V20.3704ZM223.752 17.8424H224.184L224.552 17.7464L225.64 18.5784C225.278 18.9624 224.862 19.3464 224.392 19.7304C223.923 20.1144 223.432 20.4771 222.92 20.8184C222.408 21.1491 221.891 21.4371 221.368 21.6824C221.262 21.5331 221.112 21.3624 220.92 21.1704C220.739 20.9677 220.584 20.8077 220.456 20.6904C220.872 20.4771 221.294 20.2264 221.72 19.9384C222.147 19.6397 222.536 19.3357 222.888 19.0264C223.251 18.7171 223.539 18.4291 223.752 18.1624V17.8424ZM214.2 14.9624H228.024V18.7864H226.328V16.4824H215.816V18.7864H214.2V14.9624ZM225.368 12.4984L227.224 13.0584C226.862 13.5811 226.483 14.0931 226.088 14.5944C225.694 15.0957 225.331 15.5224 225 15.8744L223.608 15.3464C223.822 15.0904 224.035 14.7971 224.248 14.4664C224.472 14.1357 224.68 13.7997 224.872 13.4584C225.075 13.1064 225.24 12.7864 225.368 12.4984ZM215.272 13.2184L216.728 12.5624C217.027 12.8824 217.315 13.2397 217.592 13.6344C217.88 14.0291 218.088 14.3811 218.216 14.6904L216.664 15.4264C216.547 15.1171 216.355 14.7597 216.088 14.3544C215.822 13.9384 215.55 13.5597 215.272 13.2184ZM219.32 12.8664L220.84 12.3064C221.096 12.6584 221.342 13.0584 221.576 13.5064C221.822 13.9544 221.998 14.3384 222.104 14.6584L220.488 15.2984C220.403 14.9677 220.248 14.5731 220.024 14.1144C219.8 13.6557 219.566 13.2397 219.32 12.8664Z" fill="white"/>
<path d="M200.136 13.8264H201.816V27.3144H200.136V13.8264ZM197.64 16.8984H203.992V18.4984H197.64V16.8984ZM200.232 17.5224L201.256 17.9704C201.096 18.5464 200.904 19.1437 200.68 19.7624C200.467 20.3704 200.227 20.9784 199.96 21.5864C199.704 22.1837 199.427 22.749 199.128 23.2824C198.84 23.805 198.542 24.2584 198.232 24.6424C198.158 24.397 198.035 24.1197 197.864 23.8104C197.704 23.4904 197.555 23.2237 197.416 23.0104C197.704 22.6904 197.987 22.3117 198.264 21.8744C198.542 21.437 198.803 20.973 199.048 20.4824C199.304 19.981 199.534 19.4797 199.736 18.9784C199.939 18.4664 200.104 17.981 200.232 17.5224ZM202.92 12.5464L203.896 13.9544C203.363 14.1464 202.776 14.3224 202.136 14.4824C201.496 14.6424 200.84 14.781 200.168 14.8984C199.496 15.0157 198.851 15.1117 198.232 15.1864C198.2 14.9944 198.136 14.7704 198.04 14.5144C197.944 14.2584 197.854 14.0397 197.768 13.8584C198.376 13.7624 198.99 13.6504 199.608 13.5224C200.238 13.3837 200.84 13.2344 201.416 13.0744C201.992 12.9037 202.494 12.7277 202.92 12.5464ZM201.752 18.6104C201.859 18.717 202.014 18.8824 202.216 19.1064C202.419 19.3304 202.638 19.581 202.872 19.8584C203.107 20.125 203.32 20.381 203.512 20.6264C203.715 20.861 203.859 21.0264 203.944 21.1224L202.936 22.4664C202.84 22.2637 202.707 22.0184 202.536 21.7304C202.376 21.4424 202.2 21.1437 202.008 20.8344C201.816 20.525 201.63 20.237 201.448 19.9704C201.278 19.693 201.128 19.469 201 19.2984L201.752 18.6104ZM208.984 12.3704H210.68V27.2984H208.984V12.3704ZM203.752 22.7224L212.36 21.2664L212.616 22.8824L204.008 24.3704L203.752 22.7224ZM204.856 14.3704L205.976 13.3944C206.275 13.6077 206.584 13.8477 206.904 14.1144C207.235 14.381 207.539 14.653 207.816 14.9304C208.104 15.197 208.334 15.4424 208.504 15.6664L207.304 16.7544C207.144 16.5197 206.931 16.2637 206.664 15.9864C206.398 15.6984 206.104 15.4157 205.784 15.1384C205.475 14.8504 205.166 14.5944 204.856 14.3704ZM204.264 18.5624L205.352 17.5864C205.672 17.7997 206.003 18.045 206.344 18.3224C206.696 18.589 207.022 18.861 207.32 19.1384C207.63 19.4157 207.875 19.6664 208.056 19.8904L206.888 21.0104C206.718 20.765 206.483 20.4984 206.184 20.2104C205.896 19.9224 205.582 19.6344 205.24 19.3464C204.899 19.0584 204.574 18.797 204.264 18.5624Z" fill="white"/>
<rect y="46" width="163" height="38" rx="8" fill="#28AFE7"/>
<path d="M124.652 65.9201C124.652 67.0294 124.514 68.0534 124.236 68.9921C123.959 69.9308 123.58 70.7841 123.1 71.5521C122.62 72.3094 122.082 72.9868 121.484 73.5841L120.124 72.9601C120.679 72.3628 121.175 71.7121 121.612 71.0081C122.05 70.3041 122.391 69.5308 122.636 68.6881C122.892 67.8348 123.02 66.9121 123.02 65.9201C123.02 64.9174 122.892 63.9948 122.636 63.1521C122.391 62.3094 122.05 61.5361 121.612 60.8321C121.175 60.1174 120.679 59.4668 120.124 58.8801L121.484 58.2561C122.082 58.8428 122.62 59.5201 123.1 60.2881C123.58 61.0561 123.959 61.9094 124.236 62.8481C124.514 63.7868 124.652 64.8108 124.652 65.9201Z" fill="white"/>
<path d="M111.34 60.096C110.903 60.7147 110.348 61.3547 109.676 62.016C109.004 62.6667 108.258 63.296 107.436 63.904C106.626 64.5013 105.778 65.0347 104.892 65.504C104.818 65.3653 104.722 65.2107 104.604 65.04C104.487 64.8693 104.359 64.704 104.22 64.544C104.082 64.3733 103.948 64.2293 103.82 64.112C104.748 63.664 105.634 63.12 106.476 62.48C107.319 61.84 108.076 61.168 108.748 60.464C109.431 59.7493 109.97 59.0667 110.364 58.416H112.156C112.583 59.0027 113.063 59.5733 113.596 60.128C114.13 60.6827 114.695 61.2 115.292 61.68C115.89 62.1493 116.503 62.576 117.132 62.96C117.772 63.344 118.407 63.664 119.036 63.92C118.834 64.1333 118.631 64.3787 118.428 64.656C118.236 64.9333 118.066 65.2 117.916 65.456C117.298 65.136 116.674 64.768 116.044 64.352C115.426 63.936 114.823 63.488 114.236 63.008C113.65 62.528 113.106 62.0427 112.604 61.552C112.114 61.0613 111.692 60.576 111.34 60.096ZM107.356 63.264H115.404V64.784H107.356V63.264ZM105.388 66.528H117.34V68.016H105.388V66.528ZM104.604 71.44H118.22V72.912H104.604V71.44ZM110.412 63.872H112.236V72.192H110.412V63.872ZM106.492 68.672L107.868 68.112C108.082 68.3787 108.284 68.6773 108.476 69.008C108.679 69.3387 108.86 69.664 109.02 69.984C109.18 70.2933 109.298 70.576 109.372 70.832L107.884 71.488C107.82 71.232 107.714 70.9387 107.564 70.608C107.426 70.2773 107.26 69.9467 107.068 69.616C106.876 69.2747 106.684 68.96 106.492 68.672ZM114.684 68.112L116.316 68.72C116.007 69.2107 115.682 69.7067 115.34 70.208C114.999 70.7093 114.679 71.136 114.38 71.488L113.1 70.944C113.282 70.688 113.468 70.3947 113.66 70.064C113.863 69.7333 114.055 69.3973 114.236 69.056C114.418 68.7147 114.567 68.4 114.684 68.112Z" fill="white"/>
<path d="M94.2683 59.072C94.2576 59.1574 94.2416 59.28 94.2203 59.44C94.2096 59.6 94.1936 59.7654 94.1723 59.936C94.1616 60.096 94.151 60.24 94.1403 60.368C94.119 60.6667 94.0976 61.0027 94.0763 61.376C94.0656 61.7494 94.055 62.144 94.0443 62.56C94.0336 62.976 94.023 63.392 94.0123 63.808C94.0123 64.224 94.0123 64.6294 94.0123 65.024C94.0123 65.4507 94.0123 65.9254 94.0123 66.448C94.023 66.96 94.0336 67.472 94.0443 67.984C94.0656 68.496 94.0816 68.9654 94.0923 69.392C94.103 69.808 94.1083 70.1387 94.1083 70.384C94.1083 70.992 94.0336 71.4667 93.8843 71.808C93.7456 72.1494 93.5536 72.3894 93.3083 72.528C93.063 72.6667 92.775 72.736 92.4443 72.736C92.0816 72.736 91.687 72.656 91.2603 72.496C90.8443 72.3467 90.4496 72.1387 90.0763 71.872C89.703 71.6054 89.3936 71.296 89.1483 70.944C88.9136 70.5814 88.7963 70.2027 88.7963 69.808C88.7963 69.296 88.9883 68.7947 89.3723 68.304C89.767 67.8134 90.279 67.36 90.9083 66.944C91.5376 66.5174 92.2096 66.176 92.9243 65.92C93.6496 65.6534 94.391 65.456 95.1483 65.328C95.9056 65.2 96.5883 65.136 97.1963 65.136C98.007 65.136 98.7323 65.2747 99.3723 65.552C100.023 65.8187 100.54 66.208 100.924 66.72C101.308 67.2214 101.5 67.8294 101.5 68.544C101.5 69.1734 101.378 69.744 101.132 70.256C100.887 70.768 100.508 71.2054 99.9963 71.568C99.4843 71.9307 98.8176 72.2134 97.9963 72.416C97.6336 72.4907 97.2763 72.544 96.9243 72.576C96.5723 72.608 96.2416 72.64 95.9323 72.672L95.2763 70.816C95.6176 70.816 95.9536 70.8107 96.2843 70.8C96.615 70.7894 96.9243 70.7574 97.2123 70.704C97.6603 70.6187 98.0656 70.4854 98.4283 70.304C98.8016 70.1227 99.095 69.888 99.3083 69.6C99.5323 69.3014 99.6443 68.944 99.6443 68.528C99.6443 68.1334 99.5376 67.8027 99.3243 67.536C99.111 67.2694 98.8176 67.0667 98.4443 66.928C98.0816 66.7787 97.6603 66.704 97.1803 66.704C96.4976 66.704 95.815 66.7787 95.1323 66.928C94.4496 67.0667 93.783 67.2587 93.1323 67.504C92.6523 67.6854 92.215 67.904 91.8203 68.16C91.4363 68.416 91.1323 68.6774 90.9083 68.944C90.6843 69.2107 90.5723 69.472 90.5723 69.728C90.5723 69.8667 90.615 70 90.7003 70.128C90.7963 70.256 90.9136 70.368 91.0523 70.464C91.2016 70.56 91.351 70.64 91.5003 70.704C91.6603 70.7574 91.799 70.784 91.9163 70.784C92.0656 70.784 92.1883 70.7307 92.2843 70.624C92.3803 70.5174 92.4283 70.3307 92.4283 70.064C92.4283 69.776 92.423 69.36 92.4123 68.816C92.4016 68.272 92.3856 67.6747 92.3643 67.024C92.3536 66.3627 92.3483 65.7174 92.3483 65.088C92.3483 64.6294 92.3483 64.1654 92.3483 63.696C92.359 63.216 92.3643 62.7574 92.3643 62.32C92.3643 61.8827 92.3643 61.4987 92.3643 61.168C92.375 60.8267 92.3803 60.5707 92.3803 60.4C92.3803 60.2827 92.375 60.1387 92.3643 59.968C92.3536 59.7974 92.343 59.6267 92.3323 59.456C92.3216 59.2854 92.3056 59.1574 92.2843 59.072H94.2683ZM98.9403 60.816C99.3456 61.008 99.7936 61.2427 100.284 61.52C100.775 61.7974 101.244 62.0747 101.692 62.352C102.151 62.6294 102.519 62.8747 102.796 63.088L101.916 64.544C101.724 64.3734 101.468 64.1814 101.148 63.968C100.828 63.744 100.482 63.5254 100.108 63.312C99.7456 63.088 99.3883 62.88 99.0363 62.688C98.695 62.4854 98.4016 62.32 98.1563 62.192L98.9403 60.816ZM89.1963 61.76C89.655 61.8134 90.055 61.8454 90.3963 61.856C90.7376 61.8667 91.0576 61.872 91.3563 61.872C91.7616 61.872 92.215 61.856 92.7163 61.824C93.2176 61.7814 93.7243 61.728 94.2363 61.664C94.759 61.5894 95.271 61.504 95.7723 61.408C96.2736 61.312 96.727 61.2054 97.1323 61.088L97.1643 62.864C96.727 62.96 96.247 63.0507 95.7243 63.136C95.2016 63.2214 94.6736 63.296 94.1403 63.36C93.6176 63.424 93.1163 63.4774 92.6363 63.52C92.167 63.552 91.7563 63.568 91.4043 63.568C90.8923 63.568 90.471 63.5627 90.1403 63.552C89.8096 63.5414 89.5056 63.52 89.2283 63.488L89.1963 61.76Z" fill="white"/>
<path d="M82.1563 65.9201C82.1563 64.8108 82.295 63.7868 82.5723 62.8481C82.8496 61.9094 83.2283 61.0561 83.7083 60.2881C84.1883 59.5201 84.727 58.8428 85.3243 58.2561L86.6843 58.8801C86.1296 59.4668 85.6336 60.1174 85.1963 60.8321C84.759 61.5361 84.4123 62.3094 84.1563 63.1521C83.911 63.9948 83.7883 64.9174 83.7883 65.9201C83.7883 66.9121 83.911 67.8348 84.1563 68.6881C84.4123 69.5308 84.759 70.3041 85.1963 71.0081C85.6336 71.7121 86.1296 72.3628 86.6843 72.9601L85.3243 73.5841C84.727 72.9868 84.1883 72.3094 83.7083 71.5521C83.2283 70.7841 82.8496 69.9308 82.5723 68.9921C82.295 68.0534 82.1563 67.0294 82.1563 65.9201Z" fill="white"/>
<path d="M60.5883 59.9521H70.7003V61.4401H60.5883V59.9521ZM62.8123 66.4801H68.5723V67.9201H62.8123V66.4801ZM62.8123 69.1361H68.6043V70.5601H62.8123V69.1361ZM64.7323 58.4641H66.4923V60.6241H64.7323V58.4641ZM67.7563 65.7281H69.4363V73.3601H67.7563V65.7281ZM67.6123 60.8321L69.2123 61.2801C68.6896 62.1761 67.9963 62.9334 67.1323 63.5521C66.279 64.1601 65.3083 64.6614 64.2203 65.0561C63.143 65.4401 62.0016 65.7548 60.7963 66.0001C60.743 65.8721 60.6683 65.7174 60.5723 65.5361C60.487 65.3548 60.3856 65.1734 60.2683 64.9921C60.1616 64.8108 60.0656 64.6614 59.9803 64.5441C61.111 64.3841 62.1776 64.1548 63.1803 63.8561C64.1936 63.5468 65.0843 63.1468 65.8523 62.6561C66.631 62.1548 67.2176 61.5468 67.6123 60.8321ZM56.7963 59.8081L57.7243 58.5441C58.0656 58.6828 58.4176 58.8428 58.7803 59.0241C59.1536 59.2054 59.5056 59.3974 59.8363 59.6001C60.167 59.7921 60.439 59.9788 60.6523 60.1601L59.6603 61.5681C59.4576 61.3761 59.1963 61.1734 58.8763 60.9601C58.5563 60.7468 58.215 60.5388 57.8523 60.3361C57.4896 60.1228 57.1376 59.9468 56.7963 59.8081ZM55.9003 64.1601L56.8123 62.8641C57.1536 62.9814 57.511 63.1308 57.8843 63.3121C58.2576 63.4828 58.615 63.6641 58.9563 63.8561C59.2976 64.0481 59.575 64.2348 59.7883 64.4161L58.7963 65.8401C58.6043 65.6588 58.343 65.4668 58.0123 65.2641C57.6816 65.0614 57.3296 64.8641 56.9563 64.6721C56.5936 64.4694 56.2416 64.2988 55.9003 64.1601ZM56.3643 72.0961C56.631 71.6801 56.9296 71.1894 57.2603 70.6241C57.591 70.0588 57.927 69.4614 58.2683 68.8321C58.6096 68.1921 58.9296 67.5628 59.2283 66.9441L60.5243 68.0161C60.2683 68.5814 59.9856 69.1628 59.6763 69.7601C59.3776 70.3574 59.0736 70.9441 58.7643 71.5201C58.4656 72.0961 58.1616 72.6454 57.8523 73.1681L56.3643 72.0961ZM61.8683 65.6961H63.5163V67.6481C63.5163 68.0748 63.4896 68.5441 63.4363 69.0561C63.383 69.5574 63.2763 70.0801 63.1163 70.6241C62.9563 71.1574 62.7216 71.6748 62.4123 72.1761C62.1136 72.6881 61.7136 73.1468 61.2123 73.5521C61.1056 73.4561 60.967 73.3494 60.7963 73.2321C60.6363 73.1148 60.471 72.9974 60.3003 72.8801C60.1296 72.7734 59.975 72.6881 59.8363 72.6241C60.295 72.2721 60.6576 71.8828 60.9243 71.4561C61.191 71.0188 61.3936 70.5761 61.5323 70.1281C61.671 69.6694 61.7616 69.2268 61.8043 68.8001C61.847 68.3628 61.8683 67.9681 61.8683 67.6161V65.6961ZM63.2443 60.7201C63.895 61.5308 64.6203 62.1708 65.4203 62.6401C66.2203 63.1094 67.0896 63.4668 68.0283 63.7121C68.9776 63.9574 69.9856 64.1654 71.0523 64.3361C70.871 64.5281 70.6896 64.7681 70.5083 65.0561C70.3376 65.3334 70.215 65.6054 70.1403 65.8721C69.0203 65.6481 67.9643 65.3708 66.9723 65.0401C65.9803 64.6988 65.0523 64.2348 64.1883 63.6481C63.335 63.0614 62.551 62.2828 61.8363 61.3121L63.2443 60.7201Z" fill="white"/>
<path d="M46.1403 59.2161H53.0523V60.7041H46.1403V59.2161ZM46.7323 67.8241H54.1883V69.3281H46.7323V67.8241ZM45.7403 71.4241H54.8763V72.9441H45.7403V71.4241ZM52.5563 59.2161H52.8923L53.1963 59.1521L54.3483 59.6481C53.9323 60.8961 53.3403 61.9734 52.5723 62.8801C51.815 63.7868 50.9296 64.5494 49.9163 65.1681C48.903 65.7761 47.8043 66.2668 46.6203 66.6401C46.5136 66.4268 46.3696 66.1814 46.1883 65.9041C46.007 65.6161 45.8363 65.3814 45.6763 65.2001C46.7323 64.9228 47.719 64.5228 48.6363 64.0001C49.5643 63.4774 50.3696 62.8374 51.0523 62.0801C51.735 61.3228 52.2363 60.4588 52.5563 59.4881V59.2161ZM48.5083 60.5121C49.063 61.6641 49.911 62.6454 51.0523 63.4561C52.1936 64.2561 53.5376 64.8268 55.0843 65.1681C54.9136 65.3281 54.7216 65.5521 54.5083 65.8401C54.3056 66.1174 54.151 66.3574 54.0443 66.5601C52.4123 66.1228 51.0043 65.4348 49.8203 64.4961C48.6363 63.5574 47.6976 62.3948 47.0043 61.0081L48.5083 60.5121ZM49.5483 65.7921H51.2443V72.4001H49.5483V65.7921ZM42.3643 58.4641L43.8523 59.0241C43.639 59.4188 43.415 59.8348 43.1803 60.2721C42.9563 60.7094 42.727 61.1254 42.4923 61.5201C42.2683 61.9041 42.055 62.2454 41.8523 62.5441L40.7003 62.0481C40.903 61.7281 41.1056 61.3601 41.3083 60.9441C41.511 60.5281 41.703 60.1014 41.8843 59.6641C42.0763 59.2268 42.2363 58.8268 42.3643 58.4641ZM44.1883 60.3361L45.5963 60.9761C45.2123 61.5841 44.791 62.2241 44.3323 62.8961C43.8843 63.5681 43.431 64.2134 42.9723 64.8321C42.5243 65.4401 42.0976 65.9788 41.6923 66.4481L40.6843 65.8881C40.983 65.5254 41.2923 65.1148 41.6123 64.6561C41.9323 64.1974 42.247 63.7174 42.5563 63.2161C42.8763 62.7148 43.175 62.2188 43.4523 61.7281C43.7296 61.2268 43.975 60.7628 44.1883 60.3361ZM39.8843 62.1281L40.7003 60.9761C40.9883 61.2108 41.2816 61.4774 41.5803 61.7761C41.879 62.0748 42.151 62.3734 42.3963 62.6721C42.6523 62.9601 42.8496 63.2214 42.9883 63.4561L42.0923 64.7841C41.9643 64.5281 41.7776 64.2454 41.5323 63.9361C41.287 63.6161 41.0203 63.3014 40.7323 62.9921C40.4443 62.6721 40.1616 62.3841 39.8843 62.1281ZM43.6923 64.1281L44.8283 63.6481C45.0416 64.0001 45.2443 64.3841 45.4363 64.8001C45.639 65.2054 45.8096 65.6001 45.9483 65.9841C46.0976 66.3681 46.2043 66.7148 46.2683 67.0241L45.0523 67.5681C44.9883 67.2588 44.887 66.9068 44.7483 66.5121C44.6096 66.1174 44.4496 65.7121 44.2683 65.2961C44.087 64.8694 43.895 64.4801 43.6923 64.1281ZM39.8523 65.5361C40.5776 65.5148 41.4416 65.4828 42.4443 65.4401C43.447 65.3974 44.4656 65.3548 45.5003 65.3121L45.4843 66.6721C44.5136 66.7468 43.5483 66.8161 42.5883 66.8801C41.6283 66.9441 40.7643 67.0028 39.9963 67.0561L39.8523 65.5361ZM44.0443 68.0481L45.2603 67.6641C45.463 68.1121 45.6603 68.6081 45.8523 69.1521C46.0443 69.6961 46.183 70.1708 46.2683 70.5761L44.9883 71.0241C44.9136 70.6188 44.7856 70.1388 44.6043 69.5841C44.423 69.0294 44.2363 68.5174 44.0443 68.0481ZM40.6043 67.7761L42.0283 68.0321C41.943 68.8001 41.8096 69.5574 41.6283 70.3041C41.4576 71.0401 41.255 71.6641 41.0203 72.1761C40.9136 72.1121 40.7803 72.0428 40.6203 71.9681C40.4603 71.8828 40.295 71.8028 40.1243 71.7281C39.9643 71.6428 39.8203 71.5788 39.6923 71.5361C39.9376 71.0561 40.1296 70.4801 40.2683 69.8081C40.4176 69.1361 40.5296 68.4588 40.6043 67.7761ZM42.3803 66.2721H43.8843V73.4081H42.3803V66.2721Z" fill="white"/>
<rect width="163" height="38" rx="8" fill="#FCAF17"/>
<path d="M131.016 19.8586C131.016 20.9679 130.877 21.9919 130.6 22.9306C130.322 23.8692 129.944 24.7226 129.464 25.4906C128.984 26.2479 128.445 26.9252 127.848 27.5226L126.488 26.8986C127.042 26.3012 127.538 25.6506 127.976 24.9466C128.413 24.2426 128.754 23.4692 129 22.6266C129.256 21.7732 129.384 20.8506 129.384 19.8586C129.384 18.8559 129.256 17.9332 129 17.0906C128.754 16.2479 128.413 15.4746 127.976 14.7706C127.538 14.0559 127.042 13.4052 126.488 12.8186L127.848 12.1946C128.445 12.7812 128.984 13.4586 129.464 14.2266C129.944 14.9946 130.322 15.8479 130.6 16.7866C130.877 17.7252 131.016 18.7492 131.016 19.8586Z" fill="white"/>
<path d="M111 15.7625H123.32V17.5225H111V15.7625ZM122.616 15.7625H124.392C124.392 15.7625 124.392 15.8211 124.392 15.9385C124.392 16.0451 124.386 16.1625 124.376 16.2905C124.376 16.4185 124.37 16.5251 124.36 16.6105C124.274 18.2211 124.189 19.5971 124.104 20.7385C124.018 21.8798 123.922 22.8291 123.816 23.5865C123.709 24.3331 123.586 24.9251 123.448 25.3625C123.32 25.7998 123.165 26.1198 122.984 26.3225C122.76 26.6105 122.525 26.8078 122.28 26.9145C122.045 27.0211 121.757 27.0958 121.416 27.1385C121.128 27.1811 120.749 27.1971 120.28 27.1865C119.81 27.1865 119.336 27.1758 118.856 27.1545C118.845 26.9091 118.781 26.6105 118.664 26.2585C118.557 25.9171 118.418 25.6238 118.248 25.3785C118.77 25.4318 119.25 25.4638 119.688 25.4745C120.136 25.4745 120.466 25.4745 120.68 25.4745C120.85 25.4745 120.989 25.4585 121.096 25.4265C121.213 25.3945 121.32 25.3251 121.416 25.2185C121.554 25.0798 121.682 24.8078 121.8 24.4025C121.928 23.9971 122.034 23.4371 122.12 22.7225C122.216 21.9971 122.301 21.0905 122.376 20.0025C122.461 18.9145 122.541 17.6185 122.616 16.1145V15.7625ZM116.008 12.4185H117.832V15.5705C117.832 16.3065 117.794 17.0851 117.72 17.9065C117.656 18.7171 117.517 19.5491 117.304 20.4025C117.09 21.2558 116.765 22.0985 116.328 22.9305C115.89 23.7625 115.309 24.5625 114.584 25.3305C113.858 26.0878 112.946 26.7811 111.848 27.4105C111.762 27.2611 111.64 27.0958 111.48 26.9145C111.32 26.7438 111.154 26.5731 110.984 26.4025C110.813 26.2425 110.653 26.1145 110.504 26.0185C111.528 25.4531 112.37 24.8345 113.032 24.1625C113.704 23.4798 114.237 22.7705 114.632 22.0345C115.037 21.2985 115.336 20.5571 115.528 19.8105C115.72 19.0531 115.848 18.3171 115.912 17.6025C115.976 16.8771 116.008 16.1998 116.008 15.5705V12.4185Z" fill="white"/>
<path d="M94.7436 16.9465H108.68V18.4025H94.7436V16.9465ZM95.9756 14.1145H105V15.5225H95.9756V14.1145ZM99.7836 12.3865H101.48V17.6825H99.7836V12.3865ZM105.944 19.1865L107 20.3225C106.296 20.5038 105.506 20.6638 104.632 20.8025C103.768 20.9411 102.872 21.0585 101.944 21.1545C101.016 21.2505 100.12 21.3251 99.2556 21.3785C99.2342 21.2185 99.1809 21.0265 99.0956 20.8025C99.0209 20.5678 98.9462 20.3758 98.8716 20.2265C99.5009 20.1731 100.141 20.1145 100.792 20.0505C101.442 19.9758 102.082 19.8958 102.712 19.8105C103.341 19.7251 103.933 19.6291 104.488 19.5225C105.042 19.4158 105.528 19.3038 105.944 19.1865ZM106.648 13.0585L108.04 13.8265C106.973 15.1598 105.746 16.3918 104.36 17.5225C102.973 18.6425 101.49 19.6505 99.9116 20.5465C98.3436 21.4425 96.7436 22.2105 95.1116 22.8505C95.0369 22.7331 94.9356 22.5891 94.8076 22.4185C94.6796 22.2478 94.5462 22.0825 94.4076 21.9225C94.2796 21.7518 94.1622 21.6185 94.0556 21.5225C95.7089 20.9465 97.3089 20.2371 98.8556 19.3945C100.413 18.5518 101.858 17.5971 103.192 16.5305C104.525 15.4638 105.677 14.3065 106.648 13.0585ZM98.4716 19.2665L100.184 19.4585C100.066 20.0131 99.9329 20.5945 99.7836 21.2025C99.6449 21.7998 99.5009 22.3811 99.3516 22.9465C99.2129 23.5118 99.0742 24.0078 98.9356 24.4345L97.2236 24.1945C97.3622 23.7678 97.5062 23.2718 97.6556 22.7065C97.8156 22.1411 97.9649 21.5598 98.1036 20.9625C98.2529 20.3651 98.3756 19.7998 98.4716 19.2665ZM105.288 22.2905H107.016C107.016 22.2905 107.01 22.3385 107 22.4345C107 22.5198 106.994 22.6211 106.984 22.7385C106.973 22.8451 106.952 22.9358 106.92 23.0105C106.802 23.7571 106.674 24.3811 106.536 24.8825C106.408 25.3838 106.269 25.7891 106.12 26.0985C105.981 26.4185 105.816 26.6585 105.624 26.8185C105.432 27.0105 105.218 27.1385 104.984 27.2025C104.76 27.2665 104.488 27.3091 104.168 27.3305C103.912 27.3411 103.565 27.3465 103.128 27.3465C102.701 27.3465 102.242 27.3358 101.752 27.3145C101.741 27.0798 101.682 26.8131 101.576 26.5145C101.48 26.2158 101.357 25.9545 101.208 25.7305C101.688 25.7731 102.152 25.8051 102.6 25.8265C103.058 25.8371 103.389 25.8425 103.592 25.8425C103.752 25.8425 103.885 25.8371 103.992 25.8265C104.098 25.8051 104.194 25.7625 104.28 25.6985C104.472 25.5491 104.648 25.2238 104.808 24.7225C104.978 24.2211 105.133 23.4798 105.272 22.4985L105.288 22.2905ZM98.6316 22.2905H105.688V23.6985H98.2476L98.6316 22.2905Z" fill="white"/>
<path d="M82.3116 22.1465H84.0396V24.9145C84.0396 25.1491 84.0983 25.2985 84.2156 25.3625C84.3329 25.4265 84.5943 25.4585 84.9996 25.4585C85.0956 25.4585 85.2556 25.4585 85.4796 25.4585C85.7036 25.4585 85.9489 25.4585 86.2156 25.4585C86.4823 25.4585 86.7329 25.4585 86.9676 25.4585C87.2129 25.4585 87.3943 25.4585 87.5116 25.4585C87.7463 25.4585 87.9223 25.4158 88.0396 25.3305C88.1676 25.2451 88.2583 25.0638 88.3116 24.7865C88.3649 24.5091 88.4023 24.0985 88.4236 23.5545C88.5516 23.6398 88.7063 23.7251 88.8876 23.8105C89.0689 23.8958 89.2609 23.9705 89.4636 24.0345C89.6663 24.0985 89.8423 24.1518 89.9916 24.1945C89.9169 24.9411 89.7996 25.5225 89.6396 25.9385C89.4903 26.3438 89.2556 26.6211 88.9356 26.7705C88.6263 26.9305 88.1996 27.0105 87.6556 27.0105C87.5703 27.0105 87.4316 27.0105 87.2396 27.0105C87.0476 27.0105 86.8289 27.0105 86.5836 27.0105C86.3489 27.0105 86.1089 27.0105 85.8636 27.0105C85.6183 27.0105 85.3996 27.0105 85.2076 27.0105C85.0263 27.0105 84.8983 27.0105 84.8236 27.0105C84.1516 27.0105 83.6343 26.9465 83.2716 26.8185C82.9089 26.6905 82.6583 26.4771 82.5196 26.1785C82.3809 25.8798 82.3116 25.4638 82.3116 24.9305V22.1465ZM83.8636 21.6345L84.9996 20.5785C85.3836 20.7598 85.7836 20.9785 86.1996 21.2345C86.6156 21.4798 87.0049 21.7358 87.3676 22.0025C87.7409 22.2691 88.0449 22.5251 88.2796 22.7705L87.0476 23.9545C86.8449 23.7198 86.5623 23.4638 86.1996 23.1865C85.8476 22.8985 85.4689 22.6211 85.0636 22.3545C84.6583 22.0771 84.2583 21.8371 83.8636 21.6345ZM89.4956 22.3385L91.0156 21.7145C91.3249 22.1091 91.6236 22.5411 91.9116 23.0105C92.1996 23.4691 92.4556 23.9225 92.6796 24.3705C92.9036 24.8185 93.0689 25.2345 93.1756 25.6185L91.5116 26.3225C91.4156 25.9598 91.2609 25.5491 91.0476 25.0905C90.8449 24.6318 90.6049 24.1625 90.3276 23.6825C90.0609 23.2025 89.7836 22.7545 89.4956 22.3385ZM80.1036 21.8425L81.6556 22.3865C81.5276 22.8345 81.3783 23.3038 81.2076 23.7945C81.0476 24.2851 80.8609 24.7598 80.6476 25.2185C80.4343 25.6771 80.1996 26.0825 79.9436 26.4345L78.4076 25.5865C78.6529 25.2558 78.8823 24.8878 79.0956 24.4825C79.3196 24.0665 79.5169 23.6291 79.6876 23.1705C79.8583 22.7118 79.9969 22.2691 80.1036 21.8425ZM81.6076 17.5065V19.0905H89.7356V17.5065H81.6076ZM81.6076 14.5625V16.1145H89.7356V14.5625H81.6076ZM79.9916 13.0745H91.4316V20.5785H79.9916V13.0745ZM84.8716 13.7305H86.5516V19.9545H84.8716V13.7305Z" fill="white"/>
<path d="M72.5196 19.8586C72.5196 18.7492 72.6583 17.7252 72.9356 16.7866C73.2129 15.8479 73.5916 14.9946 74.0716 14.2266C74.5516 13.4586 75.0903 12.7812 75.6876 12.1946L77.0476 12.8186C76.4929 13.4052 75.9969 14.0559 75.5596 14.7706C75.1223 15.4746 74.7756 16.2479 74.5196 17.0906C74.2743 17.9332 74.1516 18.8559 74.1516 19.8586C74.1516 20.8506 74.2743 21.7732 74.5196 22.6266C74.7756 23.4692 75.1223 24.2426 75.5596 24.9466C75.9969 25.6506 76.4929 26.3012 77.0476 26.8986L75.6876 27.5226C75.0903 26.9252 74.5516 26.2479 74.0716 25.4906C73.5916 24.7226 73.2129 23.8692 72.9356 22.9306C72.6583 21.9919 72.5196 20.9679 72.5196 19.8586Z" fill="white"/>
<path d="M49.4796 17.8424H57.0156V19.3304H49.4796V17.8424ZM46.6636 21.4424H60.9356V23.0264H46.6636V21.4424ZM52.9036 20.3704H54.6636V25.4424C54.6636 25.9011 54.5942 26.2531 54.4556 26.4984C54.3276 26.7544 54.0822 26.9464 53.7196 27.0744C53.3676 27.1917 52.9409 27.2664 52.4396 27.2984C51.9382 27.3304 51.3356 27.3464 50.6316 27.3464C50.5782 27.1011 50.4822 26.8184 50.3436 26.4984C50.2049 26.1784 50.0662 25.9064 49.9276 25.6824C50.2796 25.6931 50.6316 25.7037 50.9836 25.7144C51.3462 25.7144 51.6609 25.7144 51.9276 25.7144C52.1942 25.7144 52.3809 25.7144 52.4876 25.7144C52.6476 25.7037 52.7542 25.6771 52.8076 25.6344C52.8716 25.5917 52.9036 25.5117 52.9036 25.3944V20.3704ZM56.4556 17.8424H56.8876L57.2556 17.7464L58.3436 18.5784C57.9809 18.9624 57.5649 19.3464 57.0956 19.7304C56.6262 20.1144 56.1356 20.4771 55.6236 20.8184C55.1116 21.1491 54.5942 21.4371 54.0716 21.6824C53.9649 21.5331 53.8156 21.3624 53.6236 21.1704C53.4422 20.9677 53.2876 20.8077 53.1596 20.6904C53.5756 20.4771 53.9969 20.2264 54.4236 19.9384C54.8502 19.6397 55.2396 19.3357 55.5916 19.0264C55.9542 18.7171 56.2422 18.4291 56.4556 18.1624V17.8424ZM46.9036 14.9624H60.7276V18.7864H59.0316V16.4824H48.5196V18.7864H46.9036V14.9624ZM58.0716 12.4984L59.9276 13.0584C59.5649 13.5811 59.1862 14.0931 58.7916 14.5944C58.3969 15.0957 58.0342 15.5224 57.7036 15.8744L56.3116 15.3464C56.5249 15.0904 56.7382 14.7971 56.9516 14.4664C57.1756 14.1357 57.3836 13.7997 57.5756 13.4584C57.7782 13.1064 57.9436 12.7864 58.0716 12.4984ZM47.9756 13.2184L49.4316 12.5624C49.7302 12.8824 50.0182 13.2397 50.2956 13.6344C50.5836 14.0291 50.7916 14.3811 50.9196 14.6904L49.3676 15.4264C49.2502 15.1171 49.0582 14.7597 48.7916 14.3544C48.5249 13.9384 48.2529 13.5597 47.9756 13.2184ZM52.0236 12.8664L53.5436 12.3064C53.7996 12.6584 54.0449 13.0584 54.2796 13.5064C54.5249 13.9544 54.7009 14.3384 54.8076 14.6584L53.1916 15.2984C53.1062 14.9677 52.9516 14.5731 52.7276 14.1144C52.5036 13.6557 52.2689 13.2397 52.0236 12.8664Z" fill="white"/>
<path d="M33.4476 25.2344H42.1516V26.7224H33.4476V25.2344ZM32.6156 21.5064H43.1116V27.2984H41.3516V22.9944H34.2956V27.3464H32.6156V21.5064ZM30.7916 13.9064H36.9996V15.2984H30.7916V13.9064ZM38.3916 15.7944H44.9836V17.3144H38.3916V15.7944ZM30.5196 16.9624C31.0849 16.909 31.7196 16.845 32.4236 16.7704C33.1383 16.685 33.8903 16.5997 34.6796 16.5144C35.4796 16.4184 36.2796 16.3277 37.0796 16.2424L37.1116 17.6024C35.9703 17.7517 34.8343 17.901 33.7036 18.0504C32.5729 18.189 31.5703 18.317 30.6956 18.4344L30.5196 16.9624ZM41.1596 16.4504H42.8556V21.0584H41.1596V16.4504ZM33.2236 12.3704H34.9036V19.6024C34.9036 19.9864 34.8556 20.2797 34.7596 20.4824C34.6743 20.685 34.4983 20.845 34.2316 20.9624C33.9863 21.069 33.6769 21.133 33.3036 21.1544C32.9409 21.1757 32.5036 21.1864 31.9916 21.1864C31.9596 20.9837 31.8956 20.7544 31.7996 20.4984C31.7036 20.2317 31.6129 19.997 31.5276 19.7944C31.8156 19.805 32.0983 19.8157 32.3756 19.8264C32.6636 19.8264 32.8556 19.8264 32.9516 19.8264C33.0583 19.8157 33.1276 19.7944 33.1596 19.7624C33.2023 19.7304 33.2236 19.6664 33.2236 19.5704V12.3704ZM37.7356 13.0264L39.7516 13.5544C39.7409 13.6824 39.6129 13.773 39.3676 13.8264V15.5864C39.3676 15.9917 39.3356 16.4344 39.2716 16.9144C39.2076 17.3837 39.0903 17.869 38.9196 18.3704C38.7489 18.861 38.5036 19.3357 38.1836 19.7944C37.8636 20.253 37.4476 20.6797 36.9356 21.0744C36.8609 20.9464 36.7543 20.8024 36.6156 20.6424C36.4769 20.4824 36.3276 20.333 36.1676 20.1944C36.0183 20.045 35.8849 19.933 35.7676 19.8584C36.3436 19.4317 36.7703 18.9677 37.0476 18.4664C37.3249 17.965 37.5063 17.4637 37.5916 16.9624C37.6876 16.461 37.7356 15.9757 37.7356 15.5064V13.0264ZM43.3356 12.4184L44.4876 13.6664C43.9436 13.8264 43.3409 13.9757 42.6796 14.1144C42.0183 14.253 41.3409 14.3704 40.6476 14.4664C39.9543 14.5624 39.2876 14.637 38.6476 14.6904C38.6156 14.5197 38.5516 14.3117 38.4556 14.0664C38.3703 13.8104 38.2796 13.6024 38.1836 13.4424C38.7916 13.3677 39.4103 13.2824 40.0396 13.1864C40.6796 13.0797 41.2823 12.9624 41.8476 12.8344C42.4236 12.7064 42.9196 12.5677 43.3356 12.4184Z" fill="white"/>
</svg>
