<svg width="304" height="43" viewBox="0 0 304 43" fill="none" xmlns="http://www.w3.org/2000/svg">
<g filter="url(#filter0_d_2316_4510)">
<rect x="4" y="3" width="35" height="35" rx="6" fill="white"/>
</g>
<path d="M21.5003 31.9999C17.1663 31.9962 12.8588 31.2654 8.7294 29.8324C8.32013 29.7407 8.01997 29.3568 8.00291 28.901C7.99496 28.8229 8.00632 21.5191 8.00178 21.4398C8.00291 20.2767 8.37583 19.1509 9.05456 18.2541C9.73442 17.3574 10.6781 16.7455 11.7252 16.5226C11.0191 15.1725 11.026 13.514 11.7433 12.17C12.4596 10.8261 13.7796 10 15.2062 10C16.6329 10 17.9519 10.8274 18.6683 12.1713C19.3845 13.5151 19.3913 15.1736 18.6842 16.5238C19.8109 16.7641 20.8136 17.4527 21.5003 18.4547C22.187 17.4515 23.1909 16.7641 24.3164 16.5225C23.6093 15.1737 23.6138 13.5165 24.3301 12.1725C25.0452 10.8274 26.364 10 27.7909 10C29.2166 10 30.5354 10.8262 31.2518 12.1701C31.968 13.5139 31.9749 15.1711 31.2677 16.5213C32.3171 16.7418 33.263 17.3537 33.944 18.2504C34.6238 19.1484 34.9979 20.2755 34.999 21.4399C34.9922 21.586 35.0047 28.7514 34.9979 28.9011C34.9808 29.3569 34.6807 29.7408 34.2714 29.8325C30.142 31.2655 25.8343 31.9962 21.5003 31.9999ZM17.9655 29.8472V29.846C20.3132 30.0739 22.6759 30.0739 25.0246 29.8472V27.6958C25.0292 27.2078 24.8529 26.7371 24.5357 26.3915C24.2186 26.046 23.7865 25.854 23.3374 25.8602H22.5507C21.872 26.1091 21.1364 26.1091 20.4577 25.8602H19.663C18.7284 25.8577 17.969 26.6789 17.9656 27.6958L17.9655 29.8472ZM26.8437 27.6958V29.6255C28.989 29.3109 31.1069 28.808 33.1798 28.1256V21.4396C33.1775 19.7688 31.9349 18.4162 30.4023 18.4137H29.212C28.2979 18.7754 27.2963 18.7754 26.3822 18.4137H25.1873C24.2869 18.415 23.4433 18.8918 22.9226 19.6907C24.3597 20.5169 24.9747 22.4069 24.3369 24.0356C25.8229 24.5187 26.8414 26.0063 26.8437 27.6958ZM9.82083 28.1243V28.1256C11.89 28.8068 14.0047 29.3084 16.1465 29.6243V27.6958C16.1499 26.0064 17.1697 24.52 18.6556 24.0383C18.0281 22.4059 18.6443 20.5219 20.0768 19.6896C19.556 18.8907 18.7125 18.4163 17.8132 18.4138H16.6194C15.7065 18.778 14.706 18.778 13.7931 18.4138H12.5982C11.0656 18.4163 9.82298 19.7688 9.82071 21.4397L9.82083 28.1243ZM20.4874 23.5489C20.7137 23.8536 21.0479 24.0406 21.4072 24.0641C21.7665 24.0864 22.1189 23.9427 22.3758 23.669C22.6339 23.3953 22.7738 23.015 22.7612 22.6236C22.7487 22.231 22.585 21.8632 22.3099 21.6092C21.8062 21.1423 21.0604 21.1708 20.5875 21.6736C20.1145 22.1765 20.0713 22.989 20.4874 23.5489ZM15.2087 11.9816C12.3619 11.9568 12.2755 16.6895 15.2076 16.6772C18.0987 16.6982 18.0714 11.9619 15.2087 11.9816ZM25.6137 14.3374C25.6001 14.9703 25.8274 15.5797 26.2413 16.0231C26.6551 16.4665 27.219 16.703 27.7988 16.677C28.3718 16.6795 28.9221 16.433 29.328 15.9921C29.7338 15.5524 29.9612 14.9542 29.9624 14.3299C29.9624 13.7056 29.7338 13.1074 29.3291 12.6665C28.9232 12.2255 28.373 11.979 27.8 11.9815C27.219 11.9592 26.654 12.1995 26.2401 12.6454C25.8263 13.0913 25.5989 13.7032 25.6137 14.3374Z" fill="#005C3F"/>
<path d="M62.494 19.072H64.654V29.62H62.494V19.072ZM57.742 21.34H69.316V23.284H57.742V21.34ZM65.068 22.204C65.404 22.852 65.824 23.494 66.328 24.13C66.844 24.766 67.402 25.354 68.002 25.894C68.614 26.434 69.232 26.884 69.856 27.244C69.7 27.364 69.52 27.526 69.316 27.73C69.124 27.934 68.938 28.144 68.758 28.36C68.59 28.576 68.446 28.774 68.326 28.954C67.702 28.51 67.084 27.958 66.472 27.298C65.872 26.638 65.308 25.924 64.78 25.156C64.264 24.376 63.82 23.584 63.448 22.78L65.068 22.204ZM62.188 22.024L63.88 22.618C63.496 23.458 63.028 24.28 62.476 25.084C61.924 25.876 61.318 26.602 60.658 27.262C59.998 27.91 59.308 28.462 58.588 28.918C58.48 28.738 58.336 28.54 58.156 28.324C57.988 28.108 57.808 27.904 57.616 27.712C57.436 27.508 57.262 27.334 57.094 27.19C57.79 26.83 58.462 26.38 59.11 25.84C59.758 25.288 60.346 24.688 60.874 24.04C61.414 23.38 61.852 22.708 62.188 22.024ZM60.982 15.4V17.812H66.274V15.4H60.982ZM58.948 13.492H68.452V19.702H58.948V13.492ZM56.59 12.754L58.588 13.402C58.192 14.422 57.718 15.442 57.166 16.462C56.626 17.47 56.038 18.43 55.402 19.342C54.778 20.242 54.136 21.034 53.476 21.718C53.416 21.538 53.32 21.31 53.188 21.034C53.056 20.758 52.912 20.476 52.756 20.188C52.6 19.9 52.456 19.672 52.324 19.504C52.888 18.952 53.434 18.316 53.962 17.596C54.49 16.876 54.976 16.102 55.42 15.274C55.876 14.446 56.266 13.606 56.59 12.754ZM54.844 17.722L56.896 15.67V15.688V29.566H54.844V17.722ZM76.984 23.914H85.318V25.444H76.984V23.914ZM84.814 23.914H85.192L85.534 23.824L86.758 24.454C86.338 25.246 85.786 25.936 85.102 26.524C84.43 27.112 83.668 27.61 82.816 28.018C81.964 28.426 81.046 28.762 80.062 29.026C79.078 29.29 78.052 29.5 76.984 29.656C76.9 29.416 76.774 29.134 76.606 28.81C76.45 28.486 76.288 28.228 76.12 28.036C77.08 27.94 78.01 27.796 78.91 27.604C79.81 27.4 80.644 27.142 81.412 26.83C82.192 26.518 82.87 26.14 83.446 25.696C84.034 25.252 84.49 24.742 84.814 24.166V23.914ZM79.972 25.246C80.44 25.714 81.058 26.134 81.826 26.506C82.594 26.866 83.47 27.166 84.454 27.406C85.438 27.634 86.47 27.802 87.55 27.91C87.334 28.102 87.106 28.366 86.866 28.702C86.638 29.05 86.458 29.35 86.326 29.602C85.186 29.446 84.106 29.206 83.086 28.882C82.078 28.558 81.16 28.15 80.332 27.658C79.516 27.154 78.814 26.572 78.226 25.912L79.972 25.246ZM76.75 13.618H87.208V15.148H76.75V13.618ZM78.766 18.766H86.344V19.846H78.766V18.766ZM78.766 20.386H86.344V21.448H78.766V20.386ZM79 12.682H80.926V16.012H79V12.682ZM81.574 17.524H83.446V23.032H81.574V17.524ZM83.014 12.682H84.94V16.012H83.014V12.682ZM78.406 15.598L80.098 16.03C79.786 16.798 79.384 17.548 78.892 18.28C78.4 19.012 77.89 19.624 77.362 20.116C77.278 20.02 77.152 19.9 76.984 19.756C76.816 19.612 76.642 19.474 76.462 19.342C76.282 19.198 76.126 19.084 75.994 19C76.498 18.58 76.96 18.07 77.38 17.47C77.812 16.858 78.154 16.234 78.406 15.598ZM82.096 15.67L84.058 15.976C83.878 16.336 83.698 16.672 83.518 16.984C83.338 17.284 83.176 17.548 83.032 17.776L81.376 17.47C81.508 17.194 81.64 16.894 81.772 16.57C81.916 16.234 82.024 15.934 82.096 15.67ZM86.722 16.912V18.244H79.756V22.024H87.154V23.356H77.884V16.912H86.722ZM71.278 18.226H76.066V19.864H71.278V18.226ZM71.404 13.276H76.03V14.896H71.404V13.276ZM71.278 20.692H76.066V22.312H71.278V20.692ZM70.54 15.688H76.534V17.398H70.54V15.688ZM72.268 23.176H76.048V28.63H72.268V26.938H74.32V24.868H72.268V23.176ZM71.224 23.176H72.916V29.368H71.224V23.176ZM88.9 18.172H105.1V20.062H88.9V18.172ZM90.448 14.644H100.744V16.516H90.448V14.644ZM93.634 24.436H101.662V26.074H93.634V24.436ZM93.634 27.28H101.662V29.098H93.634V27.28ZM94.696 12.7H96.838V19.234H94.696V12.7ZM102.616 13.222L104.47 14.194C103.306 15.826 101.938 17.314 100.366 18.658C98.794 20.002 97.096 21.19 95.272 22.222C93.46 23.254 91.582 24.13 89.638 24.85C89.554 24.694 89.434 24.508 89.278 24.292C89.122 24.064 88.954 23.836 88.774 23.608C88.606 23.38 88.456 23.2 88.324 23.068C90.28 22.444 92.146 21.652 93.922 20.692C95.71 19.732 97.342 18.622 98.818 17.362C100.306 16.102 101.572 14.722 102.616 13.222ZM92.41 21.502H103.03V29.548H100.78V23.284H94.57V29.62H92.41V21.502ZM107.548 15.724H121.102V17.848H109.708V29.602H107.548V15.724ZM120.346 15.724H122.506V27.118C122.506 27.694 122.434 28.15 122.29 28.486C122.146 28.822 121.882 29.074 121.498 29.242C121.114 29.41 120.634 29.512 120.058 29.548C119.482 29.596 118.78 29.62 117.952 29.62C117.94 29.416 117.892 29.182 117.808 28.918C117.736 28.654 117.646 28.39 117.538 28.126C117.442 27.862 117.346 27.634 117.25 27.442C117.61 27.466 117.964 27.484 118.312 27.496C118.672 27.496 118.996 27.496 119.284 27.496C119.572 27.484 119.776 27.478 119.896 27.478C120.064 27.478 120.178 27.454 120.238 27.406C120.31 27.346 120.346 27.238 120.346 27.082V15.724ZM113.488 12.7L116.242 13.096C115.93 13.828 115.594 14.542 115.234 15.238C114.886 15.934 114.568 16.522 114.28 17.002L112.192 16.552C112.36 16.18 112.528 15.772 112.696 15.328C112.864 14.884 113.014 14.434 113.146 13.978C113.29 13.522 113.404 13.096 113.488 12.7ZM111.454 19.594H113.416V27.028H111.454V19.594ZM112.3 19.594H118.528V25.768H112.3V23.878H116.548V21.466H112.3V19.594ZM138.004 13.69C137.98 13.882 137.962 14.086 137.95 14.302C137.938 14.506 137.926 14.71 137.914 14.914C137.902 15.082 137.896 15.34 137.896 15.688C137.908 16.024 137.914 16.408 137.914 16.84C137.914 17.26 137.914 17.692 137.914 18.136C137.914 18.568 137.914 18.97 137.914 19.342C137.926 19.714 137.932 20.002 137.932 20.206C137.932 21.274 137.89 22.246 137.806 23.122C137.734 23.986 137.566 24.784 137.302 25.516C137.05 26.248 136.66 26.926 136.132 27.55C135.616 28.174 134.908 28.774 134.008 29.35L131.938 27.712C132.274 27.568 132.646 27.364 133.054 27.1C133.462 26.824 133.786 26.548 134.026 26.272C134.374 25.912 134.656 25.534 134.872 25.138C135.088 24.742 135.256 24.304 135.376 23.824C135.508 23.344 135.592 22.81 135.628 22.222C135.676 21.634 135.7 20.956 135.7 20.188C135.7 19.864 135.7 19.456 135.7 18.964C135.7 18.472 135.694 17.962 135.682 17.434C135.67 16.906 135.658 16.42 135.646 15.976C135.634 15.52 135.616 15.172 135.592 14.932C135.58 14.704 135.55 14.476 135.502 14.248C135.466 14.02 135.43 13.834 135.394 13.69H138.004ZM130.912 17.2C131.2 17.236 131.494 17.272 131.794 17.308C132.094 17.332 132.394 17.356 132.694 17.38C133.006 17.392 133.318 17.398 133.63 17.398C134.41 17.398 135.226 17.38 136.078 17.344C136.93 17.308 137.752 17.254 138.544 17.182C139.336 17.098 140.026 17.002 140.614 16.894L140.596 19.234C140.032 19.294 139.366 19.354 138.598 19.414C137.83 19.462 137.02 19.504 136.168 19.54C135.328 19.564 134.5 19.576 133.684 19.576C133.432 19.576 133.144 19.57 132.82 19.558C132.496 19.546 132.172 19.534 131.848 19.522C131.524 19.51 131.212 19.498 130.912 19.486V17.2ZM129.058 13.996C128.986 14.212 128.908 14.464 128.824 14.752C128.74 15.028 128.674 15.262 128.626 15.454C128.518 15.946 128.404 16.54 128.284 17.236C128.164 17.92 128.062 18.634 127.978 19.378C127.894 20.122 127.852 20.854 127.852 21.574C127.852 22.282 127.912 22.912 128.032 23.464C128.152 23.188 128.29 22.858 128.446 22.474C128.602 22.078 128.752 21.712 128.896 21.376L130.012 22.096C129.844 22.612 129.676 23.146 129.508 23.698C129.352 24.238 129.214 24.754 129.094 25.246C128.974 25.726 128.872 26.14 128.788 26.488C128.752 26.62 128.722 26.776 128.698 26.956C128.686 27.124 128.68 27.262 128.68 27.37C128.68 27.454 128.68 27.568 128.68 27.712C128.692 27.856 128.704 27.988 128.716 28.108L126.718 28.306C126.586 27.946 126.436 27.454 126.268 26.83C126.112 26.194 125.974 25.498 125.854 24.742C125.746 23.974 125.692 23.218 125.692 22.474C125.692 21.49 125.722 20.542 125.782 19.63C125.854 18.718 125.938 17.89 126.034 17.146C126.13 16.39 126.208 15.772 126.268 15.292C126.316 15.04 126.346 14.776 126.358 14.5C126.37 14.212 126.382 13.954 126.394 13.726L129.058 13.996ZM154.312 13.582C154.276 13.858 154.246 14.158 154.222 14.482C154.21 14.806 154.204 15.112 154.204 15.4C154.216 15.904 154.228 16.45 154.24 17.038C154.252 17.626 154.264 18.25 154.276 18.91C154.3 19.57 154.318 20.248 154.33 20.944C154.342 21.628 154.354 22.318 154.366 23.014C154.378 23.698 154.39 24.376 154.402 25.048C154.414 25.708 154.426 26.344 154.438 26.956C154.45 27.532 154.288 27.976 153.952 28.288C153.616 28.612 153.106 28.774 152.422 28.774C151.882 28.774 151.354 28.762 150.838 28.738C150.322 28.726 149.806 28.702 149.29 28.666L149.092 26.326C149.5 26.398 149.926 26.452 150.37 26.488C150.814 26.524 151.186 26.542 151.486 26.542C151.714 26.542 151.876 26.482 151.972 26.362C152.068 26.242 152.116 26.05 152.116 25.786C152.116 25.378 152.116 24.91 152.116 24.382C152.116 23.842 152.11 23.272 152.098 22.672C152.098 22.06 152.092 21.436 152.08 20.8C152.068 20.152 152.056 19.51 152.044 18.874C152.032 18.238 152.014 17.626 151.99 17.038C151.978 16.45 151.96 15.904 151.936 15.4C151.912 15.004 151.882 14.662 151.846 14.374C151.822 14.074 151.792 13.81 151.756 13.582H154.312ZM144.034 16.57C144.298 16.606 144.616 16.636 144.988 16.66C145.372 16.684 145.72 16.696 146.032 16.696C146.212 16.696 146.518 16.696 146.95 16.696C147.382 16.696 147.892 16.696 148.48 16.696C149.08 16.696 149.716 16.696 150.388 16.696C151.06 16.696 151.726 16.696 152.386 16.696C153.046 16.696 153.664 16.696 154.24 16.696C154.816 16.696 155.302 16.696 155.698 16.696C156.094 16.696 156.352 16.696 156.472 16.696C156.76 16.696 157.09 16.684 157.462 16.66C157.834 16.624 158.128 16.588 158.344 16.552V18.946C158.056 18.934 157.75 18.922 157.426 18.91C157.114 18.898 156.838 18.892 156.598 18.892C156.49 18.892 156.238 18.892 155.842 18.892C155.446 18.892 154.954 18.892 154.366 18.892C153.79 18.892 153.16 18.892 152.476 18.892C151.792 18.892 151.102 18.892 150.406 18.892C149.722 18.892 149.074 18.892 148.462 18.892C147.862 18.892 147.352 18.892 146.932 18.892C146.512 18.892 146.23 18.892 146.086 18.892C145.762 18.892 145.42 18.898 145.06 18.91C144.7 18.922 144.358 18.94 144.034 18.964V16.57ZM143.08 25.138C144.016 24.694 144.91 24.196 145.762 23.644C146.614 23.092 147.394 22.516 148.102 21.916C148.81 21.316 149.434 20.722 149.974 20.134C150.526 19.534 150.964 18.97 151.288 18.442L152.458 18.46L152.476 20.368C152.116 20.92 151.654 21.496 151.09 22.096C150.526 22.696 149.902 23.296 149.218 23.896C148.534 24.496 147.808 25.066 147.04 25.606C146.272 26.134 145.504 26.602 144.736 27.01L143.08 25.138ZM164.338 14.32C164.65 14.536 165.016 14.8 165.436 15.112C165.856 15.424 166.288 15.766 166.732 16.138C167.188 16.498 167.614 16.852 168.01 17.2C168.406 17.548 168.73 17.86 168.982 18.136L167.146 20.008C166.918 19.756 166.618 19.456 166.246 19.108C165.874 18.76 165.472 18.4 165.04 18.028C164.608 17.656 164.182 17.302 163.762 16.966C163.342 16.63 162.97 16.348 162.646 16.12L164.338 14.32ZM162.088 26.308C163.024 26.176 163.906 25.99 164.734 25.75C165.562 25.51 166.33 25.234 167.038 24.922C167.746 24.61 168.394 24.286 168.982 23.95C170.002 23.338 170.938 22.642 171.79 21.862C172.642 21.082 173.386 20.272 174.022 19.432C174.658 18.58 175.162 17.752 175.534 16.948L176.938 19.486C176.482 20.29 175.918 21.094 175.246 21.898C174.586 22.702 173.836 23.47 172.996 24.202C172.156 24.922 171.25 25.57 170.278 26.146C169.666 26.518 169.006 26.872 168.298 27.208C167.59 27.532 166.84 27.82 166.048 28.072C165.268 28.336 164.452 28.54 163.6 28.684L162.088 26.308ZM182.014 14.194C182.266 14.23 182.566 14.254 182.914 14.266C183.262 14.278 183.586 14.284 183.886 14.284C184.114 14.284 184.462 14.284 184.93 14.284C185.41 14.284 185.938 14.284 186.514 14.284C187.102 14.284 187.684 14.284 188.26 14.284C188.836 14.284 189.352 14.284 189.808 14.284C190.264 14.284 190.6 14.284 190.816 14.284C191.092 14.284 191.422 14.278 191.806 14.266C192.19 14.254 192.508 14.23 192.76 14.194V16.516C192.52 16.492 192.208 16.48 191.824 16.48C191.452 16.468 191.104 16.462 190.78 16.462C190.588 16.462 190.258 16.462 189.79 16.462C189.334 16.462 188.812 16.462 188.224 16.462C187.648 16.462 187.066 16.462 186.478 16.462C185.902 16.462 185.38 16.462 184.912 16.462C184.444 16.462 184.102 16.462 183.886 16.462C183.598 16.462 183.28 16.468 182.932 16.48C182.596 16.492 182.29 16.504 182.014 16.516V14.194ZM194.272 19.414C194.212 19.534 194.146 19.666 194.074 19.81C194.014 19.954 193.966 20.074 193.93 20.17C193.654 21.034 193.306 21.898 192.886 22.762C192.478 23.614 191.938 24.412 191.266 25.156C190.366 26.164 189.358 26.986 188.242 27.622C187.126 28.246 185.992 28.72 184.84 29.044L183.058 27.01C184.414 26.722 185.62 26.302 186.676 25.75C187.732 25.198 188.602 24.568 189.286 23.86C189.766 23.368 190.15 22.852 190.438 22.312C190.738 21.76 190.972 21.238 191.14 20.746C191.008 20.746 190.78 20.746 190.456 20.746C190.132 20.746 189.742 20.746 189.286 20.746C188.842 20.746 188.362 20.746 187.846 20.746C187.33 20.746 186.802 20.746 186.262 20.746C185.722 20.746 185.206 20.746 184.714 20.746C184.222 20.746 183.778 20.746 183.382 20.746C182.998 20.746 182.686 20.746 182.446 20.746C182.23 20.746 181.924 20.752 181.528 20.764C181.132 20.776 180.742 20.8 180.358 20.836V18.496C180.742 18.52 181.114 18.544 181.474 18.568C181.846 18.592 182.17 18.604 182.446 18.604C182.626 18.604 182.896 18.604 183.256 18.604C183.628 18.604 184.054 18.604 184.534 18.604C185.014 18.604 185.524 18.604 186.064 18.604C186.616 18.604 187.162 18.604 187.702 18.604C188.254 18.604 188.776 18.604 189.268 18.604C189.76 18.604 190.186 18.604 190.546 18.604C190.906 18.604 191.176 18.604 191.356 18.604C191.644 18.604 191.902 18.586 192.13 18.55C192.37 18.514 192.55 18.472 192.67 18.424L194.272 19.414ZM197.116 20.998C198.736 20.578 200.2 20.092 201.508 19.54C202.828 18.976 203.986 18.388 204.982 17.776C205.606 17.392 206.23 16.954 206.854 16.462C207.49 15.958 208.084 15.442 208.636 14.914C209.2 14.386 209.674 13.882 210.058 13.402L212.002 15.256C211.45 15.796 210.844 16.342 210.184 16.894C209.536 17.446 208.858 17.974 208.15 18.478C207.442 18.982 206.74 19.444 206.044 19.864C205.36 20.26 204.592 20.668 203.74 21.088C202.9 21.508 202.012 21.904 201.076 22.276C200.14 22.648 199.198 22.978 198.25 23.266L197.116 20.998ZM204.604 18.928L207.16 18.334V26.434C207.16 26.698 207.166 26.986 207.178 27.298C207.19 27.61 207.208 27.898 207.232 28.162C207.256 28.438 207.286 28.648 207.322 28.792H204.478C204.502 28.648 204.52 28.438 204.532 28.162C204.556 27.898 204.574 27.61 204.586 27.298C204.598 26.986 204.604 26.698 204.604 26.434V18.928ZM218.338 14.32C218.65 14.536 219.016 14.8 219.436 15.112C219.856 15.424 220.288 15.766 220.732 16.138C221.188 16.498 221.614 16.852 222.01 17.2C222.406 17.548 222.73 17.86 222.982 18.136L221.146 20.008C220.918 19.756 220.618 19.456 220.246 19.108C219.874 18.76 219.472 18.4 219.04 18.028C218.608 17.656 218.182 17.302 217.762 16.966C217.342 16.63 216.97 16.348 216.646 16.12L218.338 14.32ZM216.088 26.308C217.024 26.176 217.906 25.99 218.734 25.75C219.562 25.51 220.33 25.234 221.038 24.922C221.746 24.61 222.394 24.286 222.982 23.95C224.002 23.338 224.938 22.642 225.79 21.862C226.642 21.082 227.386 20.272 228.022 19.432C228.658 18.58 229.162 17.752 229.534 16.948L230.938 19.486C230.482 20.29 229.918 21.094 229.246 21.898C228.586 22.702 227.836 23.47 226.996 24.202C226.156 24.922 225.25 25.57 224.278 26.146C223.666 26.518 223.006 26.872 222.298 27.208C221.59 27.532 220.84 27.82 220.048 28.072C219.268 28.336 218.452 28.54 217.6 28.684L216.088 26.308ZM237.076 25.606C237.076 25.354 237.076 24.994 237.076 24.526C237.076 24.046 237.076 23.506 237.076 22.906C237.076 22.294 237.076 21.658 237.076 20.998C237.076 20.326 237.076 19.672 237.076 19.036C237.076 18.388 237.076 17.788 237.076 17.236C237.076 16.684 237.076 16.222 237.076 15.85C237.076 15.658 237.07 15.436 237.058 15.184C237.058 14.932 237.046 14.68 237.022 14.428C236.998 14.176 236.968 13.96 236.932 13.78H239.614C239.578 14.056 239.542 14.398 239.506 14.806C239.47 15.202 239.452 15.55 239.452 15.85C239.452 16.21 239.452 16.642 239.452 17.146C239.452 17.638 239.452 18.172 239.452 18.748C239.452 19.312 239.452 19.888 239.452 20.476C239.452 21.064 239.452 21.64 239.452 22.204C239.452 22.768 239.452 23.284 239.452 23.752C239.452 24.22 239.452 24.628 239.452 24.976C239.452 25.336 239.506 25.63 239.614 25.858C239.722 26.086 239.938 26.248 240.262 26.344C240.598 26.44 241.096 26.488 241.756 26.488C242.392 26.488 243.028 26.464 243.664 26.416C244.312 26.356 244.954 26.284 245.59 26.2C246.226 26.104 246.838 25.996 247.426 25.876L247.354 28.324C246.862 28.396 246.304 28.462 245.68 28.522C245.056 28.582 244.408 28.63 243.736 28.666C243.076 28.702 242.422 28.72 241.774 28.72C240.754 28.72 239.932 28.654 239.308 28.522C238.684 28.402 238.21 28.216 237.886 27.964C237.574 27.712 237.358 27.388 237.238 26.992C237.13 26.596 237.076 26.134 237.076 25.606ZM248.416 17.686C248.332 17.818 248.23 17.98 248.11 18.172C248.002 18.352 247.906 18.52 247.822 18.676C247.63 19.048 247.384 19.468 247.084 19.936C246.796 20.404 246.484 20.884 246.148 21.376C245.812 21.868 245.464 22.336 245.104 22.78C244.756 23.224 244.42 23.602 244.096 23.914L242.116 22.744C242.512 22.396 242.896 22 243.268 21.556C243.652 21.1 243.994 20.656 244.294 20.224C244.594 19.78 244.828 19.408 244.996 19.108C244.828 19.132 244.534 19.192 244.114 19.288C243.706 19.372 243.202 19.474 242.602 19.594C242.002 19.714 241.348 19.846 240.64 19.99C239.932 20.122 239.218 20.26 238.498 20.404C237.778 20.548 237.082 20.692 236.41 20.836C235.738 20.968 235.132 21.094 234.592 21.214C234.052 21.322 233.62 21.412 233.296 21.484L232.864 19.126C233.212 19.078 233.668 19.012 234.232 18.928C234.796 18.832 235.426 18.724 236.122 18.604C236.818 18.472 237.544 18.334 238.3 18.19C239.056 18.046 239.806 17.902 240.55 17.758C241.294 17.614 241.99 17.482 242.638 17.362C243.286 17.23 243.85 17.116 244.33 17.02C244.81 16.912 245.17 16.828 245.41 16.768C245.662 16.708 245.896 16.648 246.112 16.588C246.328 16.516 246.52 16.438 246.688 16.354L248.416 17.686ZM255.13 13.906C255.598 13.966 256.162 14.056 256.822 14.176C257.494 14.284 258.202 14.41 258.946 14.554C259.702 14.698 260.452 14.86 261.196 15.04C261.952 15.208 262.648 15.376 263.284 15.544C263.932 15.712 264.484 15.874 264.94 16.03L264.022 18.28C263.602 18.124 263.08 17.962 262.456 17.794C261.832 17.614 261.154 17.434 260.422 17.254C259.69 17.074 258.952 16.906 258.208 16.75C257.464 16.594 256.75 16.45 256.066 16.318C255.394 16.186 254.8 16.09 254.284 16.03L255.13 13.906ZM254.302 18.748C254.95 18.856 255.694 18.994 256.534 19.162C257.374 19.33 258.238 19.516 259.126 19.72C260.014 19.912 260.86 20.116 261.664 20.332C262.468 20.536 263.152 20.74 263.716 20.944L262.834 23.194C262.318 22.99 261.664 22.78 260.872 22.564C260.092 22.348 259.258 22.132 258.37 21.916C257.494 21.7 256.624 21.508 255.76 21.34C254.896 21.16 254.134 21.022 253.474 20.926L254.302 18.748ZM253.384 23.896C253.996 23.992 254.692 24.118 255.472 24.274C256.252 24.43 257.062 24.604 257.902 24.796C258.754 24.988 259.588 25.186 260.404 25.39C261.22 25.594 261.976 25.798 262.672 26.002C263.38 26.206 263.98 26.404 264.472 26.596L263.482 28.846C263.002 28.642 262.408 28.432 261.7 28.216C260.992 28.012 260.224 27.808 259.396 27.604C258.568 27.388 257.734 27.19 256.894 27.01C256.054 26.818 255.25 26.65 254.482 26.506C253.726 26.362 253.06 26.248 252.484 26.164L253.384 23.896ZM276.244 15.868C276.244 15.568 276.226 15.214 276.19 14.806C276.154 14.386 276.094 14.038 276.01 13.762H278.872C278.824 14.038 278.788 14.392 278.764 14.824C278.74 15.244 278.728 15.598 278.728 15.886C278.728 16.222 278.728 16.588 278.728 16.984C278.728 17.38 278.728 17.788 278.728 18.208C278.728 18.628 278.728 19.036 278.728 19.432C278.728 20.416 278.65 21.352 278.494 22.24C278.338 23.116 278.068 23.956 277.684 24.76C277.312 25.564 276.79 26.32 276.118 27.028C275.458 27.736 274.612 28.396 273.58 29.008L271.348 27.352C272.296 26.92 273.082 26.422 273.706 25.858C274.342 25.294 274.846 24.676 275.218 24.004C275.59 23.332 275.854 22.612 276.01 21.844C276.166 21.076 276.244 20.272 276.244 19.432C276.244 19.036 276.244 18.628 276.244 18.208C276.244 17.776 276.244 17.362 276.244 16.966C276.244 16.558 276.244 16.192 276.244 15.868ZM269.566 17.722C269.842 17.746 270.154 17.776 270.502 17.812C270.85 17.836 271.204 17.848 271.564 17.848C271.72 17.848 272.014 17.848 272.446 17.848C272.89 17.848 273.424 17.848 274.048 17.848C274.672 17.848 275.344 17.848 276.064 17.848C276.784 17.848 277.504 17.848 278.224 17.848C278.956 17.848 279.634 17.848 280.258 17.848C280.882 17.848 281.416 17.848 281.86 17.848C282.304 17.848 282.61 17.848 282.778 17.848C283.198 17.848 283.582 17.836 283.93 17.812C284.29 17.788 284.56 17.764 284.74 17.74V20.188C284.56 20.176 284.272 20.164 283.876 20.152C283.492 20.128 283.12 20.116 282.76 20.116C282.592 20.116 282.286 20.116 281.842 20.116C281.41 20.116 280.876 20.116 280.24 20.116C279.616 20.116 278.944 20.116 278.224 20.116C277.516 20.116 276.802 20.116 276.082 20.116C275.362 20.116 274.69 20.116 274.066 20.116C273.442 20.116 272.914 20.116 272.482 20.116C272.05 20.116 271.768 20.116 271.636 20.116C271.24 20.116 270.868 20.128 270.52 20.152C270.172 20.164 269.854 20.182 269.566 20.206V17.722ZM287.656 19.666C287.872 19.678 288.148 19.696 288.484 19.72C288.82 19.732 289.168 19.744 289.528 19.756C289.9 19.768 290.242 19.774 290.554 19.774C290.854 19.774 291.226 19.774 291.67 19.774C292.114 19.774 292.594 19.774 293.11 19.774C293.638 19.774 294.178 19.774 294.73 19.774C295.294 19.774 295.852 19.774 296.404 19.774C296.956 19.774 297.478 19.774 297.97 19.774C298.462 19.774 298.9 19.774 299.284 19.774C299.68 19.774 299.992 19.774 300.22 19.774C300.64 19.774 301.036 19.762 301.408 19.738C301.78 19.702 302.086 19.678 302.326 19.666V22.492C302.122 22.48 301.816 22.462 301.408 22.438C301 22.414 300.604 22.402 300.22 22.402C299.992 22.402 299.68 22.402 299.284 22.402C298.888 22.402 298.444 22.402 297.952 22.402C297.46 22.402 296.938 22.402 296.386 22.402C295.846 22.402 295.294 22.402 294.73 22.402C294.166 22.402 293.62 22.402 293.092 22.402C292.576 22.402 292.096 22.402 291.652 22.402C291.22 22.402 290.854 22.402 290.554 22.402C290.038 22.402 289.51 22.414 288.97 22.438C288.43 22.45 287.992 22.468 287.656 22.492V19.666Z" fill="#005C3F"/>
<defs>
<filter id="filter0_d_2316_4510" x="0" y="0" width="43" height="43" filterUnits="userSpaceOnUse" color-interpolation-filters="sRGB">
<feFlood flood-opacity="0" result="BackgroundImageFix"/>
<feColorMatrix in="SourceAlpha" type="matrix" values="0 0 0 0 0 0 0 0 0 0 0 0 0 0 0 0 0 0 127 0" result="hardAlpha"/>
<feOffset dy="1"/>
<feGaussianBlur stdDeviation="2"/>
<feComposite in2="hardAlpha" operator="out"/>
<feColorMatrix type="matrix" values="0 0 0 0 0 0 0 0 0 0 0 0 0 0 0 0 0 0 0.25 0"/>
<feBlend mode="normal" in2="BackgroundImageFix" result="effect1_dropShadow_2316_4510"/>
<feBlend mode="normal" in="SourceGraphic" in2="effect1_dropShadow_2316_4510" result="shape"/>
</filter>
</defs>
</svg>
