<?xml version="1.0" encoding="UTF-8"?><svg id="b" xmlns="http://www.w3.org/2000/svg" width="383.217" height="278.57" viewBox="0 0 383.217 278.57"><defs><style>.e{fill:#fff;}.f{fill:#211715;}.g{fill:#645d5c;}.h{fill:#febe69;}</style></defs><g id="c"><g id="d"><path class="e" d="M337.63,167.749c1.518-1.031,6.109-4.15,9.642-6.55,17.695,3.865,30.734,14.24,33.25,30.49,1.644,23.704-3.543,46.547-15.588,67.377-2.797,4.837-6.038,8.887-10.628,12.11-4.655,3.268-11.157,5.609-16.926,4.901-5.344-.657-10.111-3.671-13.606-7.541-3.607-3.994-6.277-8.481-8.309-13.205-.296-.689-.586-1.381-.868-2.076-20.723,0-53.926,0-53.926,0-2.459-5.861-6.8-13.118-12.477-19.845-4.165-4.935-12.132-9.363-20.583-12.653l-3.726-.656c-.36-.161-4.992-2.359-5.228-2.434-3.551-1.962-4.296-4.979-4.756-7.649-.087-.508-.161-.955-.209-1.347,8.669-4.054,15.564-15.122,16.796-18.243.229-.648.74-1.978,1.125-3.502,2.092.873,3.438.319,4.778-.75,1.567-1.267,2.695-2.932,3.56-4.672,1.491-2.998,2.275-6.294,2.274-9.594,2.843-2.332,5.918-4.405,9.016-6.388,1.969-1.263,5.056-2.586,8.813-3.945,19.548,10.353,29.475,13.479,47.547,13.08,17.559-.388,23.492-3.239,29.519-6.56,0,0,.184-.125.512-.348Z"/><path class="e" d="M145.102,71.964c1.422-1.281,3.297-1.72,4.886-1.613,3.458.233,4.87,2.153,5.469,3.272,1.787,3.342,1.512,9.386.122,13.086-.984,2.62-2.588,6.626-6.233,9.418-1.502,1.15-3.681,1.87-5.73,1.456,0,0-.195-.039-.542-.109-.723,2.138-1.598,4.228-2.124,5.239-1.559,3.845-9.875,17.174-20.045,22.285-.354,2.319-.433,4.325-.43,6.623.01,2.73.475,5.374,3.172,7.132.126.069,2.356,1.489,5.657,3.246-20.369,14.493-50.319,10.235-66.337-4.404,4.098-1.56,9.57-3.674,9.742-3.723,3.017-1.124,4.05-3.602,4.658-6.264.415-1.835.733-3.491.921-5.309-3.316-2.268-6.368-5.286-9.282-9.01-4.92-6.289-7.621-12.979-9.055-18.496-2.213.496-4.56-.396-6.093-1.734-3.458-3.02-4.802-7.12-5.616-9.799-1.15-3.782-1.035-9.83.962-13.051.669-1.079,2.202-2.904,5.667-2.915,1.592-.005,3.435.553,4.772,1.923,0,0-6.804-34.601,47.418-34.601,48.889,0,38.039,37.347,38.039,37.347Z"/><path class="f" d="M132.247,140.828c-1.828-.931-3.63-1.912-5.401-2.95-.506-.296-1.008-.597-1.508-.903-.123-.075-.248-.15-.37-.227-.088-.056-.447-.295-.253-.148-.193-.146-.372-.319-.542-.492-.037-.038-.432-.483-.27-.282.127.157-.216-.329-.26-.402-.094-.158-.176-.32-.262-.483-.252-.477.05.242-.087-.232-.061-.21-.13-.414-.183-.627s-.093-.428-.135-.643c-.102-.516.006.337-.031-.241-.138-2.16-.073-4.337.139-6.491.127-1.292-1.194-2.4-2.4-2.4-1.404,0-2.272,1.105-2.4,2.4-.424,4.309-.792,9.714,2.666,12.962.934.877,2.049,1.512,3.145,2.16,1.876,1.109,3.788,2.155,5.729,3.143,1.155.588,2.603.303,3.284-.861.626-1.071.298-2.693-.861-3.284h0Z"/><path class="e" d="M45.246,256.6c-1.93,1.485-3.987,2.807-6.202,3.893-6.363,3.118-14.28,4.021-20.651.919-7.346-3.578-11.11-11.496-13.125-19.105-3.855-14.556-3.292-29.852-1.399-44.754,1.655-13.031,4.596-26.557,13.372-36.689,7.888-9.107,30.021-18.922,45.59-23.413,16.242,15.015,47.083,19.236,67.524,3.784,13.08,3.088,22.848,6.188,32.478,13.807,2.411,1.907,5.024,5.024,7.214,9.211,1.661,3.175,2.995,8.359,3.865,11.659,3.538,13.418,5.604,25.276,7.026,38.71-.688,1.138-1.699,2.192-3.234,3.046-.261.075-4.868,2.272-5.253,2.434-8.645,3.29-20.315,8.374-24.576,13.308-5.808,6.727-8.04,11.859-11.026,20.504,0,0-66.636,0-88.42.002-1.024.939-2.084,1.838-3.184,2.685Z"/><path class="e" d="M253,91.963c.773-1.014,2.218-2.222,4.929-2.307,1.527-.048,3.309.437,4.628,1.715,0,0-5.48-37.541,39.52-37.541,47.815,0,42.504,37.86,42.504,37.86,1.329-1.267,3.115-1.738,4.642-1.679,3.322.13,4.729,1.933,5.333,2.99,1.804,3.156,1.704,8.959.471,12.545-.873,2.539-2.302,6.424-5.722,9.2-1.409,1.144-3.48,1.893-5.455,1.552,0,0-.189-.033-.522-.09-.635,2.07-1.418,4.098-1.895,5.082-1.476,3.957-9.958,18.36-20.403,22.771.151.618.183,1.298.163,1.995-.027.975-.325,2.835-.744,4.98,1.405.321,2.779.636,2.779.636.455-.38,2.002-.643,3.486-.291,2.059.489,3.49,1.759,3.708,4.199,4.101,2.924,10.388,5.39,15.538,7.509-3.776,2.139-8.84,5.008-8.84,5.008-6.027,3.321-11.96,6.172-29.519,6.56-18.051.399-27.975-2.72-47.473-13.046,8.88-3.236,17.934-5.48,22.209-8.347.47-.315,1.035-.535,1.328-1.018.194-.32.264-.699.329-1.068.447-2.504.893-5.008,1.337-7.505-4.599-2.122-8.704-5.59-12.601-10.292-4.889-5.898-7.66-12.24-9.183-17.49-2.109.533-4.384-.258-5.89-1.501-3.398-2.803-4.797-6.698-5.651-9.244-1.205-3.595-1.259-9.399.569-12.541.113-.194.253-.413.427-.641Z"/><path class="f" d="M238.545,178.732c4.103-4.592,9.254-8.456,14.571-11.543,4.999-2.902,10.858-4.495,16.336-6.207,2.939-.919,1.684-5.554-1.276-4.629-5.866,1.834-12.132,3.585-17.483,6.691-5.643,3.275-11.188,7.421-15.543,12.293-2.053,2.297,1.331,5.703,3.394,3.394h0Z"/><path class="f" d="M125.35,142.54c12.676,2.88,26.455,5.977,36.515,14.806,2.602,2.283,4.624,5.191,6.186,8.264,1.504,2.96,2.317,6.299,3.166,9.493,1.97,7.411,3.674,14.884,4.978,22.442,1.528,8.855,2.508,17.788,3.241,26.741.106,1.292,1.027,2.4,2.4,2.4,1.217,0,2.506-1.101,2.4-2.4-1.356-16.559-3.782-32.932-8.009-49.013-.879-3.344-1.745-6.717-3.063-9.921-1.461-3.553-3.581-6.87-6.179-9.703-2.309-2.517-5.228-4.529-8.107-6.34-2.804-1.765-5.758-3.257-8.808-4.546-7.525-3.181-15.502-5.047-23.445-6.852-3.008-.683-4.292,3.943-1.276,4.629h0Z"/><path class="h" d="M143.254,239.549c-2.693,4.234-4.374,8.488-6.404,14.364h124.094c-2.403-5.967-6.857-13.522-12.75-20.504-4.477-5.304-13.347-10.023-22.489-13.373-3.32,5.317-13.106,10.05-23.052,10.652-5.593.339-11.254,0-16.741-1.141-5.923-1.231-11.723-3.904-15.566-8.633-8.342,3.28-18.548,7.95-22.471,12.494-1.86,2.154-3.353,4.145-4.622,6.14Z"/><path class="e" d="M233.394,165.939c1.12-1.011,2.78-1.499,4.332-1.267,1.552.232,2.965,1.168,3.676,2.444.502.895.664,1.913.757,2.907.34,3.918-.432,7.911-2.208,11.481-.865,1.74-1.992,3.405-3.56,4.672-1.34,1.069-2.686,1.623-4.775.751-.387,1.522-.899,2.853-1.127,3.501-1.232,3.121-8.127,14.189-16.796,18.243.048.393.123.839.21,1.347.459,2.67,1.204,5.687,4.756,7.649.236.075,4.868,2.272,5.228,2.434l1.376.617c-.156.196-.313.391-.313.391-3.889,4.867-13.021,9.018-22.294,9.58-5.593.339-11.254,0-16.741-1.141s-10.867-3.518-14.686-7.619c0,0-.44-.473-.88-.945l2.105-.883c.385-.161,4.992-2.359,5.253-2.434,3.527-1.962,4.284-4.979,4.743-7.649.037-.161.062-.31.087-.471-4.457-1.853-8.565-5.022-12.146-9.022-3.946-4.408-6.332-9.128-7.743-13.188-1.798.585-3.028.038-4.252-.939-1.567-1.267-2.695-2.932-3.56-4.672-1.776-3.57-2.548-7.563-2.208-11.481.093-.994.255-2.013.757-2.907.71-1.276,2.123-2.212,3.676-2.444s3.212.257,4.332,1.267c0,0-6.635-29.035,34.034-29.035s37.97,28.813,37.97,28.813Z"/><path class="g" d="M252.09,142.079c-2.98-3.061-3.977-5.844-4.939-10.215-.8-3.664-1.496-6.076-2.875-9.566-.893-2.261-2.632-4.418-4.035-5.67-4.8-4.278-9.032-5.855-15.027-5.009-4.661.661-8.951,2.586-10.876,6.713l.004.007c-1.002-.449-2.022-.858-3.057-1.223-4.609-1.626-9.478-2.353-14.348-2.353-9.613,0-17.775,2.796-24.307,7.481-7.585,5.44-16.173,15.13-16.86,30.815-.213,4.866,1.065,12.911,1.02,11.895.087-.03.177-.046.267-.059,1.552-.232,3.212.257,4.332,1.267,0,0,.499.45,1.221,1.102,1.135-4.752,4.522-8.931,8.962-10.985.128-.059.256-.116.385-.172,6.569.005,23.467.005,23.467.005,2.687-.52,5.486-1.41,6.179-1.802,3.276-1.854,6.268-4.423,8.404-7.502,5.834.531,10.967,3.875,14.503,8.381,2.49,3.174,4.212,6.907,5.288,10.798,1.938-.019,3.596-.046,3.596-.046,1.032-.932,2.524-1.42,3.967-1.309.586-3.417.941-7.166.748-11.572-.173-3.939-.884-7.835-2.132-11.543l1.806.737c4.36,1.82,8.986,1.496,14.308-.174Z"/><path class="f" d="M180.134,209.546c0,.034.126-.699.046-.4-.026.096-.04.197-.058.295-.023.122-.043.245-.066.367-.054.29-.111.58-.176.867-.129.572-.284,1.138-.486,1.688-.034.092-.241.61-.076.209.157-.381-.032.056-.074.143-.141.289-.297.57-.469.841-.088.139-.184.273-.277.409-.24.353.307-.354.02-.03-.234.265-.471.524-.731.764-.137.126-.281.242-.423.363-.199.169.152-.125.16-.125-.043,0-.169.121-.207.146-.166.115-.352.209-.512.331-.334.255.198-.046.218-.045-.286-.003-.859.364-1.168.505-.835.382-1.666.775-2.497,1.166-.704.331-1.403.683-2.118.989-.513.219-.962.924-1.103,1.434-.158.574-.087,1.339.242,1.849.33.512.822.964,1.434,1.103.672.153,1.222.026,1.849-.242,1.536-.657,3.027-1.426,4.545-2.123.143-.065.286-.13.429-.195.449-.204-.59.287-.301.127.485-.268.947-.439,1.405-.756s.907-.66,1.325-1.03c1.275-1.129,2.149-2.566,2.788-4.125.266-.648.469-1.315.628-1.997.184-.79.453-1.723.453-2.53,0-1.255-1.104-2.458-2.4-2.4s-2.4,1.055-2.4,2.4h0Z"/><path class="f" d="M211.29,208.664c.423,3.22,1.079,6.392,3.33,8.877.61.674,1.343,1.251,2.097,1.755.413.276.843.531,1.316.69.163.055-.726-.321-.447-.189.064.03.129.058.194.087.858.387,1.708.792,2.56,1.193.778.366,1.551.742,2.335,1.096,1.141.516,2.635.366,3.284-.861.555-1.051.36-2.731-.861-3.284-1.49-.674-2.959-1.397-4.444-2.083-.237-.109-.474-.218-.713-.323-.206-.09-.412-.209-.631-.265.047.012.521.282.308.093-.066-.058-.169-.101-.244-.148-.156-.098-.306-.203-.458-.306-.046-.031-.291-.214-.041-.024.258.196-.046-.043-.094-.083-.271-.231-.527-.478-.766-.742-.1-.111-.191-.264-.305-.358.004.003.275.395.143.181-.052-.085-.117-.165-.173-.248-.178-.265-.34-.541-.487-.825-.066-.128-.125-.26-.189-.389-.174-.354.176.483-.004-.018-.228-.632-.414-1.272-.557-1.929-.067-.306-.125-.613-.18-.921-.041-.227-.079-.454-.117-.681-.026-.16-.141-.956-.054-.294-.087-.662-.21-1.205-.703-1.697-.416-.416-1.099-.73-1.697-.703-1.16.052-2.575,1.067-2.4,2.4h0Z"/><path class="f" d="M216.411,119.544c1.441-2.952,4.166-4.45,7.269-5.199,3.186-.769,6.631-.837,9.684.485,3.089,1.338,6.058,3.784,7.817,6.66,2.063,3.372,2.882,7.609,3.747,11.417.94,4.139,2.504,7.77,5.466,10.869l1.059-4.011c-4.356,1.339-8.706,1.915-13.032.174-1.203-.484-2.637.528-2.952,1.676-.376,1.37.469,2.466,1.676,2.952,5.045,2.03,10.506,1.387,15.584-.174,1.741-.535,2.328-2.684,1.059-4.011-2.752-2.878-3.657-6.254-4.52-10.047-.963-4.231-2.152-8.912-4.745-12.461-2.475-3.386-6.018-6.127-9.911-7.688-3.756-1.505-7.951-1.423-11.851-.552-4.347.97-8.485,3.372-10.494,7.488-.568,1.164-.316,2.595.861,3.284,1.055.617,2.713.309,3.284-.861h0Z"/><path class="f" d="M235.091,167.636c1.238-1.036,3.443-.766,4.238.691.487.892.481,2.081.502,3.07.026,1.226-.041,2.459-.262,3.666-.442,2.414-1.274,4.748-2.584,6.829-.897,1.425-2.371,3.409-4.118,2.943-2.988-.797-4.263,3.832-1.276,4.629,3.922,1.046,6.993-1.485,9.131-4.535,2.127-3.034,3.297-6.747,3.743-10.395.421-3.447.423-7.828-2.37-10.335-3.009-2.701-7.382-2.477-10.397.044-.995.832-.859,2.535,0,3.394.985.985,2.397.834,3.394,0h0Z"/><path class="f" d="M163.087,164.464c-3.013-2.52-7.39-2.743-10.397-.044-2.791,2.506-2.79,6.891-2.37,10.335.446,3.648,1.616,7.361,3.743,10.395,2.14,3.052,5.205,5.582,9.131,4.535,2.982-.795,1.717-5.427-1.276-4.629-1.744.465-3.22-1.519-4.118-2.943-1.311-2.08-2.142-4.417-2.584-6.829-.209-1.142-.281-2.309-.266-3.469.013-1.046-.014-2.323.506-3.266.801-1.453,2.994-1.731,4.238-.691.994.831,2.42.974,3.394,0,.854-.854.999-2.559,0-3.394h0Z"/><path class="f" d="M229.68,184.335c-.28,1.893-.886,3.656-1.507,5.455-.132.381.284-.531.049-.12-.097.17-.169.361-.256.536-.188.378-.388.749-.594,1.117-1.147,2.049-2.508,4.059-3.94,5.867-3.569,4.506-8.178,9.121-13.984,10.39-3.016.659-1.74,5.288,1.276,4.629,6.594-1.441,12.022-6.495,16.102-11.624,3.528-4.435,6.639-9.254,7.483-14.973.189-1.281-.319-2.579-1.676-2.952-1.131-.311-2.762.386-2.952,1.676h0Z"/><path class="f" d="M159.384,184.823c1.774,6.863,5.294,13.198,10.173,18.339s11.19,9.33,18.323,10.337c1.282.181,2.578-.313,2.952-1.676.309-1.124-.385-2.77-1.676-2.952-12.594-1.777-22.105-13.569-25.144-25.323-.773-2.988-5.403-1.722-4.629,1.276h0Z"/><path class="f" d="M239.721,165.003c1.828-11.185.709-23.058-5.503-32.791-5.808-9.1-15.229-15.774-25.682-18.434-10.68-2.718-22.519-1.612-32.336,3.463-7.314,3.781-13.682,9.895-17.685,17.093-2.677,4.814-4.25,10.086-4.889,15.544-.59,5.03-.103,10.147.707,15.129.208,1.28,1.799,1.993,2.952,1.676,1.361-.374,1.885-1.668,1.676-2.952-1.283-7.888-1.138-16.678,2.371-24.349,3.003-6.566,8.051-12.191,13.89-16.01,8.105-5.3,18.104-7.137,27.65-5.833,9.744,1.331,18.733,6.399,24.944,13.957,7.357,8.954,9.102,21.057,7.275,32.232-.209,1.278.333,2.583,1.676,2.952,1.146.315,2.742-.39,2.952-1.676h0Z"/><path class="f" d="M262.743,252.043c-3.181-7.511-7.83-14.772-13.289-20.831-5.514-6.119-13.683-9.821-21.205-12.77-1.207-.473-2.634.52-2.952,1.676-.374,1.361.465,2.477,1.676,2.952,6.86,2.689,14.358,6.136,19.309,11.785,5.054,5.767,9.327,12.548,12.317,19.61.506,1.194,2.267,1.456,3.284.861,1.236-.723,1.369-2.085.861-3.284h0Z"/><path class="f" d="M139.164,254.551c2.112-6.101,4.519-11.983,8.501-17.131,1.728-2.234,3.563-4.12,5.915-5.685,2.801-1.864,5.81-3.412,8.85-4.843,3.489-1.642,7.057-3.103,10.658-4.477,1.21-.462,2.043-1.617,1.676-2.952-.318-1.159-1.735-2.141-2.952-1.676-6.818,2.601-13.747,5.4-19.926,9.329-5.601,3.562-9.723,8.898-12.734,14.767-1.872,3.649-3.278,7.523-4.618,11.392-1.013,2.925,3.622,4.182,4.629,1.276h0Z"/><path class="f" d="M213.724,150.064c3.57,1.268,6.673,3.723,8.99,6.697,1.208,1.551,2.206,3.287,3.039,5.064.388.827.723,1.674,1.025,2.537.185.529.357,1.062.516,1.599.064.215.126.43.185.646.045.162.089.324.131.486.117.526.173.208.169-.953l.861-.861-.12.08,1.211-.328-.155-.014c-1.293-.115-2.4,1.185-2.4,2.4,0,1.394,1.103,2.285,2.4,2.4,1.996.177,3.039-1.948,2.732-3.644-.228-1.262-.684-2.519-1.13-3.72-.949-2.552-2.142-5.024-3.699-7.262-3.102-4.46-7.337-7.93-12.479-9.756-1.222-.434-2.627.491-2.952,1.676-.365,1.328.45,2.517,1.676,2.952h0Z"/><path class="f" d="M210.807,138.513c-.63,4.097-2.636,7.383-5.615,10.206-1.517,1.438-2.949,2.384-4.8,3.517-.138.085-.499.188.088-.019-.182.064-.361.14-.544.205-.478.17-.963.322-1.449.466-1.219.361-2.455.661-3.701.909-1.272.253-2.002,1.768-1.676,2.952.364,1.326,1.677,1.93,2.952,1.676,2.251-.447,4.702-.968,6.752-2.044,2.094-1.099,4.061-2.647,5.771-4.268,3.449-3.269,6.12-7.58,6.85-12.324.197-1.28-.324-2.581-1.676-2.952-1.137-.312-2.754.387-2.952,1.676h0Z"/><path class="f" d="M191.88,138.568c-1.755,3.543-3.976,7-6.868,9.728-2.829,2.669-6.548,3.305-10.168,4.304-3.677,1.015-7.073,2.625-9.751,5.405-2.51,2.605-4.293,5.915-4.978,9.473-.245,1.272.357,2.59,1.676,2.952,1.175.323,2.706-.397,2.952-1.676.632-3.283,2.271-6.189,4.817-8.372,2.676-2.295,6.064-3.012,9.382-3.891,3.832-1.015,7.248-2.514,10.059-5.387,2.865-2.928,5.21-6.452,7.024-10.113.575-1.161.312-2.598-.861-3.284-1.06-.62-2.706-.305-3.284.861h0Z"/><path class="f" d="M169.53,223.625c5.772,6.079,13.991,8.342,22.078,9.218,8.643.936,17.4.247,25.422-3.258,3.565-1.558,7.125-3.736,9.614-6.779.82-1.002.981-2.413,0-3.394-.846-.846-2.569-1.008-3.394,0-4.109,5.024-11.082,7.472-17.284,8.51-3.916.656-8.013.61-11.963.334-3.893-.272-7.815-.876-11.524-2.119-3.608-1.209-6.925-3.138-9.555-5.906-2.131-2.245-5.522,1.153-3.394,3.394h0Z"/><path class="f" d="M341.798,112.562c-.627,2.978-1.733,5.782-2.812,8.425.303-.742-.145.302-.249.52-.203.423-.418.841-.638,1.256-.508.956-1.052,1.893-1.618,2.815-2.966,4.828-6.578,9.383-10.99,12.969-2.402,1.952-5.099,3.479-8.096,4.162s-1.736,5.316,1.276,4.629c6.278-1.432,11.526-5.977,15.643-10.725,3.411-3.934,6.605-8.367,8.775-13.125.123-.27.239-.543.354-.816.011-.027.371-.875.206-.498-.148.339.014-.016.039-.07.116-.251.22-.509.327-.764.2-.477.395-.955.579-1.439.749-1.973,1.398-3.996,1.833-6.063.634-3.014-3.992-4.302-4.629-1.276h0Z"/><path class="h" d="M332.321,33.18c-2.821-1.951-5.844-3.617-9.009-4.947-6.186-2.61-12.92-3.921-19.748-3.577-22.613-1.331-44.257,15.598-48.705,37.022-1.209,5.781-.743,14.723-.09,19.418.387,2.782,1.238,6.571,2.544,8.606.197-.025.403-.038.616-.045,1.527-.048,3.309.437,4.628,1.715l4.7-6.957c2.995-2.027,6.561-3.564,11.251-5.499,1.268-.474,2.277-.952,3.362-1.621-.021.385-.034.64-.034.64-.11.888.102,1.842.924,2.271.823.429,2.221.413,3.158.427,3.406.052,6.529-.273,11.105-2.672.442-.263.853-.527,1.237-.799h17.714c2.643-1.845,5.468-5.615,6.381-7.38,1.704-3.295,2.878-5.845,3.535-9.792,2.062,0,3.809,0,3.809,0,.716,5.788,3.048,11.242,5.544,16.512,1.501,3.169,3.345,6.565,6.61,7.843l2.728,7.348c1.329-1.267,3.115-1.738,4.642-1.679,1.002.039,1.83.231,2.511.512,3.281-8.248,1.599-21.69.231-28.468-.69-3.46-1.834-6.807-3.36-9.984-2.628-5.504-5.567-9.584-10.136-13.753l-6.149-5.139Z"/><path class="f" d="M260.427,113.376c1.837,8.242,5.675,15.946,11.162,22.364,5.307,6.208,12.159,11.147,20.379,12.401,1.28.195,2.581-.323,2.952-1.676.312-1.136-.387-2.756-1.676-2.952-7.505-1.146-13.415-5.498-18.261-11.167-4.952-5.793-8.274-12.828-9.927-20.246-.672-3.014-5.3-1.738-4.629,1.276h0Z"/><path class="f" d="M333.532,31.107c-8.35-5.722-18.405-9.084-28.573-8.899-4.198.076-8.264.02-12.423.78-3.957.724-7.775,1.994-11.44,3.644-14.163,6.375-26.217,19.94-28.762,35.548-.758,4.648-.749,9.411-.44,14.099.307,4.645.867,9.416,2.826,13.687.54,1.178,2.244,1.469,3.284.861,1.21-.708,1.403-2.101.861-3.284-.825-1.798-1.237-3.831-1.575-5.77-.252-1.444-.403-2.92-.533-4.622-.297-3.88-.379-7.807-.034-11.686.629-7.071,3.714-13.855,7.87-19.539,8.49-11.612,22.709-19.168,37.161-18.939,2.455.039,4.916-.045,7.368.148,2.612.206,5.192.692,7.718,1.386,5.122,1.407,9.896,3.732,14.272,6.73,2.555,1.75,4.958-2.407,2.423-4.145h0Z"/><path class="f" d="M353.859,91.618c2.809-6.687,2.473-14.685,1.705-21.75-.357-3.28-.821-6.583-1.578-9.798-1.044-4.437-2.85-8.713-5.111-12.665-2.312-4.042-5.287-7.635-8.709-10.783-2.27-2.088-5.674,1.297-3.394,3.394,5.813,5.346,10.068,12.139,12.185,19.773,1.743,6.283,2.413,13.103,2.259,19.605-.088,3.728-.531,7.484-1.987,10.948-.502,1.196.541,2.64,1.676,2.952,1.385.381,2.448-.476,2.952-1.676h0Z"/><path class="f" d="M327.299,59.987c.743,5.674,2.727,10.923,5.111,16.096,2,4.34,4.169,8.632,8.806,10.573,1.196.501,2.64-.54,2.952-1.676.38-1.384-.476-2.45-1.676-2.952-3.241-1.357-4.791-5.855-6.125-8.776-1.921-4.206-3.663-8.651-4.268-13.265-.168-1.285-.983-2.4-2.4-2.4-1.166,0-2.57,1.106-2.4,2.4h0Z"/><path class="f" d="M264.254,89.674c-2.786-2.518-6.798-3.112-10.216-1.533-2.527,1.167-4.029,3.561-4.709,6.188-1.557,6.016-.048,12.973,3.398,18.094,2.314,3.439,5.946,6.529,10.37,5.961,1.285-.165,2.4-.985,2.4-2.4,0-1.169-1.105-2.566-2.4-2.4-3.401.437-5.687-2.399-7.15-5.124-1.2-2.234-2.115-4.808-2.328-7.344s-.189-5.574,1.309-7.745c-.304.44.15-.162.238-.251.07-.071.564-.469.392-.35.445-.309.915-.49,1.442-.605,1.358-.296,2.813-.044,3.86.903,2.287,2.067,5.691-1.317,3.394-3.394h0Z"/><path class="f" d="M324.798,153.309c2.057,3.234,5.586,5.316,8.919,7.02,3.925,2.006,8.045,3.605,12.116,5.286,1.199.495,2.639-.536,2.952-1.676.379-1.379-.473-2.455-1.676-2.952-3.603-1.488-7.217-2.908-10.702-4.666-1.638-.827-3.251-1.723-4.75-2.784-.637-.45-.932-.681-1.6-1.329-.24-.233-.466-.477-.688-.727-.126-.141-.288-.371-.086-.091-.118-.164-.231-.332-.339-.503-.695-1.093-2.135-1.533-3.284-.861-1.089.637-1.559,2.185-.861,3.284h0Z"/><path class="f" d="M269.453,160.982c4.12-1.344,8.35-2.613,12.231-4.574,1.798-.908,3.905-1.98,4.506-4.04.31-1.063.415-2.226.609-3.315.219-1.228.438-2.456.657-3.684.227-1.275-.345-2.587-1.676-2.952-1.161-.319-2.724.393-2.952,1.676-.383,2.149-.739,4.304-1.15,6.447-.008.044-.098.554-.117.552-.006,0,.172-.324.19-.281.004.01-.852.529-.948.589-.625.394-1.28.741-1.945,1.062-1.476.714-2.815,1.215-4.571,1.84-2.024.721-4.069,1.384-6.111,2.051-1.232.402-2.031,1.661-1.676,2.952.332,1.208,1.715,2.08,2.952,1.676h0Z"/><path class="f" d="M268.505,168.529c5.119,2.413,10.369,4.612,15.838,6.1,5.077,1.382,10.322,2.109,15.573,2.354,5.796.271,11.661.102,17.433-.491,4.077-.419,8.166-1.055,12.075-2.32,3.111-1.007,6.047-2.431,8.906-4.004,2.707-1.49.288-5.636-2.423-4.145-1.125.619-2.256,1.227-3.413,1.784-.544.262-1.093.513-1.649.751.477-.204-.449.179-.594.236-.374.146-.751.286-1.13.42-3.336,1.179-6.84,1.9-10.35,2.32-10.234,1.224-21.094,1.374-31.17-1.028-5.785-1.379-11.306-3.592-16.674-6.122-1.172-.552-2.589-.327-3.284.861-.61,1.043-.317,2.729.861,3.284h0Z"/><path class="f" d="M317.185,79.232c3.894-2.803,6.696-6.791,8.658-11.118,2.07-4.564,2.813-9.296,3.013-14.284.124-3.089-4.676-3.083-4.8,0-.093,2.316-.254,4.632-.743,6.902-.37,1.719-1.007,3.619-1.614,4.959-1.598,3.523-3.735,7.093-6.936,9.396-1.051.756-1.559,2.09-.861,3.284.607,1.038,2.226,1.622,3.284.861h0Z"/><path class="f" d="M279.436,77.933c-.152,1.985.798,3.848,2.694,4.591,1.563.613,3.397.54,5.056.505,3.451-.073,6.68-.916,9.799-2.377,3.217-1.506,5.759-3.923,7.924-6.697s3.925-5.736,5.112-9.059c1.293-3.621,1.782-7.469,2.22-11.27.149-1.29-1.21-2.4-2.4-2.4-1.421,0-2.251,1.107-2.4,2.4-.397,3.438-.917,6.89-2.107,10.155-1.139,3.125-3.037,6.001-5.224,8.49-2.345,2.669-5.264,4.453-8.699,5.383-1.395.378-2.783.544-4.226.574-.77.016-1.551.028-2.32-.02-.211-.013-.706,0-.894-.078.279.115.219.395.264-.198.099-1.294-1.174-2.4-2.4-2.4-1.381,0-2.3,1.102-2.4,2.4h0Z"/><path class="f" d="M268.468,86.486c5.325-3.554,11.827-4.853,16.923-8.724,5.151-3.912,7.679-9.872,9.179-15.993.735-3-3.892-4.279-4.629-1.276-1.309,5.34-3.348,10.604-8.007,13.881-2.48,1.744-5.29,2.708-8.054,3.902-2.706,1.168-5.379,2.426-7.835,4.065-2.557,1.707-.157,5.866,2.423,4.145h0Z"/><path class="f" d="M61.688,139.669c13.746,12.132,34.063,16.363,51.737,12.086,5.259-1.273,10.339-3.377,14.934-6.237,2.617-1.629.21-5.783-2.423-4.145-14.635,9.109-34.005,9.337-49.497,2.176-4.095-1.893-7.97-4.286-11.357-7.275-2.308-2.037-5.716,1.345-3.394,3.394h0Z"/><path class="g" d="M53.622,37.967c4.118-13.001,12.504-21.51,20.031-26.741,8.385-5.827,18.734-9.132,30.786-8.745,11.488.369,20.528,3.891,28.233,9.291l6.483,5.316c8.029,7.736,15.125,19.625,15.299,36.83.059,5.802-.775,10.505-2.579,16.77-.548-.169-1.174-.289-1.887-.337-1.589-.107-3.463.331-4.886,1.613l-6.605-5.587c-2.011-5.576-6.757-11.819-11.768-16.419-2.924-2.684-4.967-3.893-7.662-5.169l-8.456-1.316c-5.803,2.229-14.04,7.036-18.653,9.408-1.1.566-2.342-.429-2.157-1.736.122-.861.153-1.773-.1-2.984-.262-1.254-1.201-1.812-1.958-1.446-6.455,3.125-15.777,11.443-21.086,16.989l-7.014,5.515c-1.337-1.37-3.18-1.928-4.772-1.923-.796.002-1.489.101-2.094.263-1.43-5.98-1.929-11.871-1.55-16.957.344-4.618,1.185-8.82,2.393-12.634Z"/><path class="f" d="M61.342,67.521c-2.835-2.712-7.125-3.372-10.681-1.717-2.547,1.186-4.059,3.596-4.813,6.224-1.762,6.139-.378,13.247,2.929,18.639,2.288,3.73,6.037,7.079,10.707,6.613,1.29-.129,2.4-1.011,2.4-2.4,0-1.198-1.102-2.529-2.4-2.4-3.645.364-5.991-2.885-7.43-5.818-1.171-2.386-1.982-5.092-2.116-7.751-.131-2.599.006-5.758,1.633-7.925-.34.453.25-.238.328-.312.314-.301-.121.034.303-.25.538-.36,1.087-.569,1.732-.67,1.473-.23,2.928.123,4.014,1.161,2.232,2.136,5.632-1.254,3.394-3.394h0Z"/><path class="f" d="M146.799,73.662c1.129-.949,2.728-1.111,4.115-.75.499.13,1.1.393,1.419.631.297.221.653.64.679.678,1.524,2.231,1.477,5.49,1.164,8.071-.329,2.719-1.354,5.35-2.7,7.699-1.396,2.437-3.996,5.812-7.222,5.279-1.277-.211-2.583.334-2.952,1.676-.315,1.148.39,2.74,1.676,2.952,7.881,1.302,12.677-6.263,14.969-12.699,1.909-5.361,2.197-13.897-2.941-17.616-3.491-2.527-8.404-2.003-11.601.684-.993.835-.861,2.533,0,3.394.983.983,2.399.837,3.394,0h0Z"/><path class="f" d="M141.666,93.726c-.426,1.776-1.012,3.511-1.67,5.215-.238.615-.485,1.225-.761,1.824-.115.248-.245.489-.358.738-.74,1.628.171-.293-.196.455-.879,1.792-1.867,3.509-2.959,5.18-3.172,4.854-7.026,9.516-11.668,13.049-2.649,2.017-5.554,3.606-8.823,4.254-1.272.252-2.002,1.768-1.676,2.952.365,1.327,1.677,1.929,2.952,1.676,6.573-1.303,12.17-5.937,16.584-10.755,3.655-3.989,7.1-8.528,9.486-13.409.095-.194.187-.389.275-.585.093-.208.46-1.006.315-.721-.181.354.062-.096.102-.178.1-.202.19-.409.282-.615.212-.477.414-.959.613-1.441.854-2.066,1.607-4.187,2.129-6.363.72-3.002-3.907-4.283-4.629-1.276h0Z"/><path class="f" d="M56.894,92.126c1.241,6.419,3.657,12.673,7.127,18.219,3.702,5.916,8.638,11.473,14.682,15.067,3.079,1.831,6.488,3.108,10.012,3.747,1.274.231,2.587-.348,2.952-1.676.32-1.164-.394-2.72-1.676-2.952-7.738-1.403-13.748-6.1-18.616-12.096-5.053-6.223-8.335-13.739-9.852-21.584-.246-1.273-1.772-2.001-2.952-1.676-1.331.366-1.923,1.675-1.676,2.952h0Z"/><path class="f" d="M133.883,9.7C119.012-.65,98.848-2.973,82.045,3.969c-13.815,5.708-24.937,17.282-30.047,31.329-3.755,10.326-4.084,21.451-1.714,32.123.669,3.014,5.298,1.739,4.629-1.276-3.51-15.812.012-32.741,10.973-44.911,4.379-4.863,9.315-8.707,15.201-11.605,7.708-3.795,16.37-5.173,24.904-4.678,9.231.535,17.895,3.62,25.471,8.893,1.064.741,2.666.195,3.284-.861.699-1.195.206-2.541-.861-3.284h0Z"/><path class="f" d="M154.391,70.618c1.205-4.319,2.123-8.712,2.383-13.198.256-4.429-.056-8.898-.765-13.274-1.159-7.154-3.789-14.12-7.862-20.129-2.005-2.957-4.32-5.701-6.885-8.187-2.219-2.151-5.617,1.24-3.394,3.394,4.284,4.151,7.745,9.009,10.156,14.475,2.998,6.798,4.161,14.385,4.023,21.778-.088,4.739-1.015,9.313-2.285,13.865-.831,2.98,3.798,4.252,4.629,1.276h0Z"/><path class="f" d="M117.856,46.861c4.219,2.012,7.6,4.915,10.719,8.375,3.102,3.441,5.994,7.4,7.608,11.779.448,1.216,1.627,2.04,2.952,1.676,1.17-.322,2.127-1.73,1.676-2.952-1.872-5.078-5.011-9.59-8.589-13.614-3.417-3.843-7.282-7.185-11.944-9.408-1.169-.558-2.591-.323-3.284.861-.612,1.047-.314,2.723.861,3.284h0Z"/><path class="f" d="M68.355,65.4c5.252-5.468,11.024-10.779,17.453-14.838.684-.432,1.379-.847,2.091-1.233.169-.092.38-.173.534-.282.333-.236.237.049.021-.089-.098-.063-1.607.559-1.045-.256-.083.12.048.397.06.536.076.864-.119,1.717-.042,2.572.104,1.153.692,2.202,1.635,2.875,1.949,1.391,3.799.442,5.648-.542,1.596-.85,3.182-1.719,4.774-2.577,3.834-2.068,7.697-4.198,11.764-5.779,1.207-.469,2.045-1.611,1.676-2.952-.317-1.153-1.738-2.149-2.952-1.676-3.803,1.479-7.441,3.345-11.039,5.26-1.743.928-3.475,1.874-5.213,2.812-.699.377-1.398.753-2.1,1.123-.554.292-.867.211-.121.448s.707.633.773-.315c.148-2.138-.337-4.741-2.377-5.854-1.929-1.052-3.86.195-5.518,1.178-3.471,2.056-6.677,4.584-9.759,7.175-3.371,2.835-6.606,5.844-9.658,9.021-2.14,2.228,1.249,5.627,3.394,3.394h0Z"/><path class="f" d="M64.434,139.595c2.147-.819,4.292-1.643,6.437-2.466,1.305-.5,2.719-.928,3.952-1.59,4.514-2.425,5.254-8.201,5.815-12.77.154-1.251-1.214-2.453-2.4-2.4-1.432.064-2.235,1.06-2.4,2.4-.038.305-.045.363-.02.174-.025.178-.052.356-.08.534-.042.266-.086.531-.133.796-.111.626-.236,1.25-.37,1.872-.194.904-.397,1.808-.71,2.68-.043.119-.087.237-.134.355.122-.282.129-.3.019-.054-.085.167-.163.336-.253.501-.105.191-.226.371-.339.557-.308.508.184-.142-.135.183-.133.135-.255.28-.393.411-.093.089-.189.175-.287.257.231-.171.236-.176.014-.016-.174.109-.343.224-.523.325-.08.045-.693.324-.5.251.196-.074-.093.026-.139.043-.21.074-.418.158-.627.237-.697.266-1.394.533-2.09.8-1.993.764-3.985,1.529-5.979,2.29-1.169.446-2.102,1.637-1.676,2.952.369,1.14,1.696,2.155,2.952,1.676h0Z"/><path class="f" d="M60.428,135.658c-7.722,2.362-15.28,5.325-22.58,8.777-6.778,3.205-13.552,6.857-19.272,11.758-5.979,5.123-9.898,12.408-12.483,19.744-2.929,8.309-4.184,17.135-5.125,25.86-1.05,9.739-1.419,19.609-.227,29.354,1.026,8.387,2.823,17.426,7.722,24.504,2.242,3.239,5.143,6.094,8.717,7.829,3.954,1.919,8.417,2.583,12.775,2.091,9.029-1.019,16.574-6.115,22.78-12.504,5.661-5.828,10.827-12.383,15.198-19.233,3.891-6.098,6.979-12.637,9.829-19.273.876-2.039,1.733-4.085,2.585-6.134.498-1.197-.538-2.639-1.676-2.952-1.381-.38-2.453.474-2.952,1.676-2.755,6.629-5.579,13.256-9.096,19.525-3.469,6.185-7.651,11.9-12.213,17.32-5.141,6.11-10.974,12.471-18.653,15.313-7.176,2.656-15.411,2.229-20.987-3.471-5.305-5.421-7.33-13.414-8.617-20.654-1.621-9.124-1.622-18.493-.914-27.709.644-8.383,1.68-16.858,3.857-24.995,1.975-7.382,5.093-14.826,10.353-20.498,4.408-4.753,10.373-8.087,16.062-11.048,6.808-3.544,13.914-6.522,21.17-9.021,1.664-.573,3.338-1.116,5.021-1.631,2.945-.901,1.69-5.536-1.276-4.629h0Z"/><path class="f" d="M201.809,189.918c-.092.09-.456.382-.063.079.407-.314-.067.035-.183.107-.148.091-.3.175-.454.253-.101.051-.22.091-.316.149.133-.08.538-.205.161-.075-.498.172-.997.318-1.516.415-.127.024-.674.177-.054.021-.148.037-.315.035-.466.048-.371.031-.743.045-1.115.046-.34,0-.68-.012-1.018-.038-.049-.004-.528-.083-.562-.055.093-.076.503.079.029-.006-.522-.094-1.039-.226-1.538-.407-.195-.071-.503-.279.099.052-.085-.047-.179-.081-.266-.124-.173-.085-.342-.177-.506-.278-.125-.077-.24-.173-.366-.247.683.403.319.258.119.062-.898-.879-2.511-.962-3.394,0-.872.95-.959,2.456,0,3.394,1.898,1.858,4.845,2.449,7.404,2.447s5.503-.587,7.402-2.447c.899-.88.948-2.524,0-3.394-.966-.887-2.435-.939-3.394,0h0Z"/><path class="f" d="M196.675,177.588c.307,1.171.602,2.361.778,3.56l-.086-.638c.021.164.03.326.013.491l.086-.638c-.012.076-.028.148-.054.221l.242-.573c-.023.052-.047.095-.078.142l.375-.486c-.037.044-.071.079-.116.115l.486-.375c-.09.058-.185.104-.282.149l.573-.242c-.155.065-.309.112-.475.139l.638-.086c-.15.018-.296.017-.446,0l.638.086c-.168-.023-.333-.064-.502-.087-.319-.1-.638-.114-.957-.043-.319.014-.617.109-.892.285-.498.291-.973.862-1.103,1.434-.14.614-.11,1.304.242,1.849.312.484.835,1.022,1.434,1.103.434.058.855.167,1.297.187.704.031,1.349-.19,1.976-.479.786-.363,1.404-1.102,1.613-1.947.178-.721.105-1.31-.017-2.033-.194-1.147-.459-2.283-.754-3.408-.152-.579-.588-1.133-1.103-1.434s-1.273-.429-1.849-.242c-.581.188-1.141.548-1.434,1.103-.304.576-.41,1.209-.242,1.849h0Z"/><path class="f" d="M178.619,168.079c-.581,1.889-.202,6.233,3.375,6.603,4.729-.028,4.981-5.281,3.389-7.75-1.303-2.022-5.136-2.863-6.764,1.148Z"/><path class="f" d="M216.332,168.079c.581,1.889.203,6.233-3.375,6.603-4.729-.028-4.981-5.281-3.389-7.751,1.303-2.022,5.136-2.863,6.764,1.148Z"/><path class="e" d="M309.867,211.42l-1.525-5.154s-.204-.691-.556-1.879c-.629.442-1.289.851-2.002,1.273-1.699,1.006-4.967,4.737-5.878,6.564,0,0-.01.017-.023.049-5.787-2.494-13.536-5.938-18.645-9.162.996-2.969,1.894-6.624,2.364-8.832.973-3.645,1.416-5.991,2.475-8.874,2.206-6.005,6.251-13.172,8.414-18.349,2.35-5.763,10.501-24.462,12.439-28.567,1.309-2.772,3.758-3.185,5.327-2.864,1.697.347,3.197,2.642,3.617,3.967l.599,1.891c.76-.192,1.609-.156,2.443.161,2.01.764,2.328,2.526,2.277,4.411-.041,1.496-.721,5.075-1.496,8.569,2.139-1.79,3.531-2.954,3.531-2.954.455-.38,2.002-.643,3.486-.291,1.782.424,3.094,1.432,3.556,3.278.499,1.995.337,6.483-.019,8.644-1.416,8.576-2.435,16.011-3.748,24.342-.936,4.57.308,7.969,1.822,10.99l5.286,10.216.297.575c-7.055,3.044-15.416,6.628-21.871,9.332-.035-.132-.057-.204-.057-.204l-2.111-7.134Z"/><path class="f" d="M318.188,138.954c-1.032-2.967-3.376-5.705-6.702-5.817-2.989-.101-5.508,1.785-6.755,4.41-1.826,3.844-3.485,7.774-5.188,11.673-2.086,4.773-4.157,9.553-6.181,14.353-2.281,5.41-4.995,10.601-7.416,15.948-1.637,3.617-2.92,7.252-3.885,11.101-.997,3.979-1.858,7.997-3.152,11.894-.976,2.938,3.658,4.198,4.629,1.276,2.056-6.192,2.878-12.76,5.269-18.842,2.359-6.002,5.653-11.589,8.117-17.547,1.44-3.482,3.037-7.182,4.698-11.013,1.887-4.354,3.785-8.703,5.72-13.035.637-1.425,1.217-3.489,2.279-4.658.385-.423.653-.564,1.148-.699.7-.191-.331-.03.36-.061.191-.008.946.161.489.003.908.314,1.693,1.579,1.941,2.291.426,1.224,1.643,2.036,2.952,1.676,1.188-.327,2.104-1.723,1.676-2.952h0Z"/><path class="f" d="M315.179,173.465c1.41-4.277,2.865-8.751,5.047-12.708.182-.329.373-.651.588-.96-.537.772.142-.166.03-.119.936-.398.646,1.752.594,2.178-.296,2.4-.959,4.792-1.55,7.131-1.297,5.139-2.843,10.218-4.051,15.379-1.284,5.49-2.995,11.223-6.74,15.594-1.738,2.029-3.948,3.008-5.973,4.711s-4.059,3.984-5.291,6.341c-1.429,2.735,2.712,5.164,4.145,2.423,1.057-2.022,3.027-4.279,4.703-5.504.744-.544,2.045-1.255,2.943-1.933,1.141-.862,2.182-1.806,3.093-2.911,4.295-5.212,6.322-11.529,7.877-17.98,1.39-5.767,3.144-11.441,4.503-17.216.689-2.928,1.719-6.34.873-9.318-1.07-3.763-5.973-4.917-8.628-2.045-1.771,1.916-2.685,4.733-3.646,7.097-1.144,2.817-2.195,5.676-3.146,8.563-.969,2.941,3.665,4.201,4.629,1.276h0Z"/><path class="f" d="M305.894,170.272c2.416-6.094,4.805-12.199,7.242-18.285.548-1.369,1.099-2.738,1.656-4.104.212-.52.426-1.04.641-1.558.036-.087.336-.804.21-.505-.121.286.147-.343.197-.459.349-.805.671-1.658,1.696-1.611,1.451.067,1.313,1.531,1.237,2.666-.097,1.454-.484,3.236-.833,4.95-.467,2.294-.988,4.577-1.553,6.849-.745,2.998,3.883,4.277,4.629,1.276,1.045-4.206,2.169-8.542,2.54-12.872.173-2.018-.154-4.222-1.576-5.761-1.821-1.97-4.917-2.37-7.284-1.257-2.79,1.313-3.648,4.83-4.72,7.466-1.411,3.468-2.79,6.949-4.168,10.431-1.517,3.832-3.024,7.667-4.543,11.498-.478,1.205.523,2.635,1.676,2.952,1.365.375,2.473-.466,2.952-1.676h0Z"/><path class="f" d="M324.439,153.744c.191-.125.524-.146.953-.127.454.019.929.09,1.352.268.765.322,1.079.835,1.261,1.635.106.468.16,1.548.174,2.352.02,1.15-.018,2.303-.106,3.449-.183,2.393-.775,5.254-1.19,7.938-.442,2.862-.869,5.726-1.298,8.589-.445,2.975-.863,5.956-1.362,8.923-.485,2.886-.611,5.649.179,8.501.759,2.738,2.195,5.245,3.494,7.755l3.64,7.035c1.42,2.744,5.564.32,4.145-2.423l-3.371-6.514c-1.309-2.53-2.833-5.054-3.463-7.858-.636-2.832.079-5.665.509-8.474.473-3.087.931-6.177,1.395-9.265.485-3.224.977-6.447,1.497-9.665.393-2.432.724-4.828.734-7.296.01-2.629-.112-5.584-2.08-7.568-2.069-2.087-6.303-3.092-8.887-1.4s-.172,5.844,2.423,4.145h0Z"/><path class="f" d="M306.028,206.904c1.058,3.576,2.117,7.152,3.175,10.728l.462,1.56c.356,1.203,1.703,2.081,2.952,1.676,1.218-.394,2.058-1.663,1.676-2.952-1.058-3.576-2.117-7.152-3.175-10.728l-.462-1.56c-.356-1.203-1.703-2.081-2.952-1.676-1.218.394-2.058,1.663-1.676,2.952h0Z"/><path class="f" d="M278.231,203.98c3.278,2.335,6.918,4.162,10.537,5.901,3.771,1.811,7.607,3.481,11.452,5.129,1.19.51,2.573.354,3.284-.861.591-1.011.337-2.77-.861-3.284-3.844-1.648-7.681-3.318-11.452-5.129-3.619-1.739-7.259-3.566-10.537-5.901-1.056-.753-2.671-.186-3.284.861-.705,1.205-.198,2.529.861,3.284h0Z"/><path class="e" d="M59.541,172.456c-.311-.202-.612-.401-.903-.595l.286-1.189c1.82-9.967,3.361-17.764,6.413-27.343,1.629-5.114,3.337-11.267,6.691-14.55,2.236-2.422,5.404-4.985,8.36-6.409,6.24-3.004,13.231-5.633,20.424-7.193,1.575-.342,4.36-.248,5.756.571,1.257.737,1.871,2.029,1.668,3.532-.217,1.603-2.995,3.406-5.287,4.333-5.46,2.21-10.313,4.68-15.513,7.107l-.412.192c4.368.499,9.767,1.267,13.082,1.689,1.481.189,4.663,1.527,4.345,5.138-.23,2.613-1.749,4.723-5.925,4.479,1.121.528,1.894.895,1.894.895,1.855.881,2.962,2.555,2.528,5.068-.397,2.304-2.973,2.981-4.593,2.86-.051-.004-.107-.008-.168-.013.616.628.96.978.96.978.875.89.982,2.603.971,3.323-.025,1.766-1.403,3.243-3.613,3.699-1.85.382-3.641.704-6.403,1.118-.105,3.803-.321,6.61-1.411,9.334-1.471,3.677-3.366,5.871-6.399,6.679,0,0-1.859,3.705-3.637,7.254-5.361-2.738-13.718-7.446-19.117-10.959Z"/><path class="f" d="M83.739,132.973c2.884.252,5.758.624,8.628.999,1.494.195,2.987.397,4.48.597.641.086,1.283.172,1.924.256.29.038.581.077.871.114.511.065-.316-.117.242.049.183.054.369.105.553.158.501.143-.154-.141.197.079.198.124.409.228.607.354.224.143-.035-.04-.066-.065.14.114.263.241.393.364.372.351.03-.013.235.305.031.048.215.399.066.059.049.112.08.234.115.351.121.402.084.2.089.548.003.225-.125,1.086-.015.568-.048.228-.11.452-.16.679-.11.507.119-.082-.077.238-.065.106-.373.609-.219.402.206-.276-.492.466-.245.262.171-.142-.317.193-.443.26-.081.043-.403.146-.038.019-.109.038-.225.081-.338.104-.604.123-.907.18-1.695.158-1.768-.05-3.553-.346-5.313-.525-1.886-.191-3.773-.38-5.657-.598-1.29-.149-2.4,1.21-2.4,2.4,0,1.421,1.107,2.251,2.4,2.4,1.884.218,3.77.406,5.657.598,1.857.188,3.759.528,5.626.53,3.293.003,6.227-1.567,7.31-4.786,1.076-3.196-.041-6.654-2.889-8.473-1.146-.732-2.377-1.035-3.701-1.207-1.558-.203-3.116-.412-4.674-.621-3.814-.511-7.631-1.04-11.465-1.376-1.293-.113-2.4,1.184-2.4,2.4,0,1.392,1.103,2.287,2.4,2.4h0Z"/><path class="f" d="M99.211,145.185c.227.112.438.247.659.368.219.154.205.137-.043-.05.093.076.182.156.268.24.085.083.167.169.246.259-.187-.257-.204-.278-.052-.062.089.156.18.309.265.467-.29-.536.014.151.061.301.05.271.053.252.007-.056.013.137.02.275.022.413.002.108-.101.94-.008.479-.039.19-.087.373-.148.557.127-.291.131-.319.01-.085-.147.22-.123.199.071-.063-.13.134-.668.505-.151.193-.197.119-.391.23-.593.34.525-.285.095-.046-.064.004-.216.067-.434.109-.654.159-.43.098.529-.025-.16.002-.3.012-.597-.01-.896-.033-3.404-.263-6.807-.549-10.208-.858-1.254-.114-2.454,1.185-2.4,2.4.063,1.397,1.057,2.278,2.4,2.4,3.19.289,6.382.553,9.575.808,1.658.132,3.222.02,4.752-.703,2.189-1.034,3.307-3.231,3.275-5.601-.035-2.593-1.489-4.876-3.81-6.024-1.124-.556-2.65-.339-3.284.861-.573,1.084-.34,2.689.861,3.284h0Z"/><path class="f" d="M87.691,160.446c-.027.926-.061,1.852-.126,2.776-.027.382-.059.763-.097,1.144-.021.204-.043.409-.069.613.043-.342-.01.054-.032.195-.116.725-.268,1.444-.469,2.151-.105.367-.222.73-.353,1.088-.067.185-.139.368-.213.55-.175.428.229-.474-.104.234-.311.662-.637,1.312-1.029,1.93-.096.151-.194.3-.296.447-.034.049-.38.498-.185.256.191-.237-.204.228-.201.224-.088.098-.178.195-.27.289-.226.231-.466.447-.717.652.251-.205.152-.109-.053.021-.135.085-.266.173-.404.254-.11.064-.222.126-.336.185-.005.003-.548.257-.239.124s-.201.071-.263.092c-.191.066-.385.122-.579.176-1.248.348-2.02,1.7-1.676,2.952s1.699,2.026,2.952,1.676c3.419-.953,5.857-3.48,7.338-6.636,1.703-3.629,2.104-7.426,2.22-11.393.037-1.256-1.13-2.457-2.4-2.4-1.332.06-2.36,1.054-2.4,2.4h0Z"/><path class="f" d="M97.452,153.704c.267.288-.312-.526.001.02l.062.113c.108.225.081.153-.082-.217.042.289.189.585.246.877.039.202.025.609-.01-.15.005.113.024.228.033.341.016.213.025.429.02.643-.006.276-.132.417.044-.153-.041.132-.053.275-.093.409-.016.058-.034.114-.054.171-.088.231-.053.15.105-.242-.067.083-.116.224-.172.317-.042.069-.087.136-.134.202.243-.304.305-.385.187-.244-.107.096-.195.218-.301.318-.216.204-.342.142.089-.045-.135.059-.263.181-.391.257-.099.058-.368.137-.43.225l.311-.129c-.091.036-.182.07-.275.101-.326.111-.659.184-.996.253-.57.116-1.141.228-1.713.334-1.427.264-2.861.494-4.296.711-.554.084-1.165.642-1.434,1.103-.301.514-.429,1.273-.242,1.849.188.581.548,1.141,1.103,1.434.608.321,1.175.344,1.849.242,1.615-.244,3.228-.505,4.833-.812,1.74-.333,3.352-.75,4.744-1.918,1.33-1.116,2.078-2.809,2.067-4.538-.012-1.752-.46-3.553-1.675-4.863-.855-.923-2.54-.93-3.394,0-.907.988-.913,2.409,0,3.394h0Z"/><path class="f" d="M88.648,132.79c3.841-1.797,7.642-3.681,11.517-5.405,3.325-1.479,7.832-2.669,9.807-6.042,2.017-3.445-.449-7.491-4.035-8.392-3.774-.949-7.609.246-11.225,1.303-4.053,1.185-8.004,2.677-11.873,4.363-3.705,1.614-7.058,3.457-10.114,6.137-2.701,2.369-4.849,5.038-6.31,8.333-1.475,3.328-2.52,6.816-3.609,10.284-2.74,8.731-4.555,17.671-6.198,26.662-.233,1.274.349,2.588,1.676,2.952,1.165.32,2.718-.395,2.952-1.676,1.299-7.108,2.667-14.206,4.583-21.178.91-3.31,1.938-6.589,3-9.853.92-2.829,1.911-5.689,3.569-8.184,1.719-2.586,4.461-4.803,7.061-6.449,2.918-1.848,6.26-3.145,9.475-4.376,3.491-1.337,7.06-2.477,10.693-3.358,1.49-.362,5.48-1.424,6.241.585.161.425-.038.457-.358.795-.558.59-1.297,1.015-2,1.405-1.692.938-3.555,1.572-5.323,2.351-4.026,1.776-7.968,3.734-11.953,5.598-1.174.549-1.473,2.238-.861,3.284.704,1.203,2.105,1.412,3.284.861h0Z"/><path class="f" d="M54.05,171.485c3.914,3.108,8.316,5.624,12.636,8.115,4.381,2.527,8.813,5.024,13.389,7.183,1.172.553,2.589.326,3.284-.861.61-1.043.316-2.728-.861-3.284-4.474-2.111-8.809-4.548-13.095-7.014-2.354-1.354-4.691-2.738-6.991-4.182-1.016-.638-2.025-1.287-3.018-1.961-.391-.265-.779-.534-1.163-.809-.173-.124-.344-.251-.517-.376-.534-.389.003.011-.27-.205-1.014-.805-2.404-.99-3.394,0-.836.836-1.021,2.584,0,3.394h0Z"/><path class="f" d="M352.12,223.259c-1.973-4.718-3.951-9.434-5.879-14.171-.982-2.412-2.03-6.314-5.525-5.198-1.873.598-3.703,1.598-5.508,2.378-7.969,3.444-15.942,6.88-23.95,10.233-1.634.684-3.27,1.365-4.91,2.035-1.068.436-2.139.793-2.788,1.826-.732,1.165-.474,2.401-.186,3.654,1.077,4.697,2.223,9.379,3.539,14.016,2.95,10.391,6.429,21.207,13.164,29.816,3.164,4.045,7.045,7.358,11.846,9.281s10.079,1.816,14.976.302c4.926-1.522,9.412-4.272,13.093-7.873,3.551-3.474,6.194-7.691,8.557-12.027,10.339-18.974,15.418-40.475,14.578-62.073-.18-4.621-1.006-8.867-2.851-13.118-1.579-3.636-3.829-6.963-6.534-9.857-5.704-6.101-13.385-10.091-21.321-12.444-2.128-.631-4.289-1.138-6.468-1.554-1.272-.243-2.589.356-2.952,1.676-.322,1.173.397,2.708,1.676,2.952,13.313,2.539,27.137,9.458,31.97,23.003.568,1.59,1.01,3.225,1.332,4.883.406,2.095.363,4.317.411,6.447.105,4.675-.057,9.355-.5,14.01-.865,9.089-2.888,18.068-5.912,26.68-1.537,4.379-3.346,8.652-5.408,12.81-1.977,3.986-4.081,8.018-6.762,11.584-4.882,6.491-12.856,11.675-21.236,11.247-8.749-.447-15.019-8.11-18.88-15.215-4.417-8.13-7.038-17.375-9.367-26.285-.528-2.021-1.03-4.049-1.514-6.082-.208-.873-.412-1.747-.614-2.622-.08-.346-.116-1.029-.305-1.327-.496-.786-.547,1.583-.945,1.193.019.019.645-.263.68-.277,3.072-1.255,6.131-2.544,9.187-3.836,7.106-3.004,14.194-6.052,21.275-9.114.779-.337,1.557-.673,2.335-1.011.366-.158.732-.317,1.097-.475.132-.057.269-.109.398-.172.731-.359.165.201-.25.028l-1.059-.617c-.032-.187-.008-.152.075.106.087.215.174.431.261.646.14.346.281.692.421,1.038.292.719.585,1.437.879,2.156.546,1.334,1.095,2.667,1.648,3.999,1.193,2.877,2.397,5.748,3.599,8.621.5,1.195,1.589,2.051,2.952,1.676,1.128-.31,2.179-1.749,1.676-2.952h0Z"/><path class="f" d="M294.198,123.985c2.553,1.361,5.305,1.94,8.199,1.932,2.989-.008,5.954-.61,8.348-2.46.998-.772.872-2.593,0-3.394-1.059-.972-2.329-.823-3.394,0,.747-.577.231-.183.04-.062-.162.103-.329.198-.499.286-.246.128-.755.213-.11.072-.23.051-.462.175-.687.247-.627.199-1.272.335-1.923.431.359-.053.123-.019-.101.002-.189.018-.377.033-.566.044-.455.028-.91.037-1.366.033-.408-.004-.816-.02-1.222-.049-.187-.013-.373-.033-.56-.049-.703-.061.47.089-.188-.021-.606-.102-1.205-.227-1.793-.405-.251-.076-.496-.167-.744-.253-.584-.203.427.213-.1-.04-.307-.147-.61-.299-.91-.459-1.107-.59-2.662-.315-3.284.861-.588,1.113-.322,2.653.861,3.284h0Z"/><path class="f" d="M301.111,104.87c.346,1.339.677,2.7.873,4.07l-.086-.638c.023.188.033.373.013.561l.086-.638c-.014.087-.033.169-.063.252l.242-.573c-.026.059-.054.109-.09.162l.375-.486c-.042.051-.082.089-.133.13l.486-.375c-.103.066-.212.119-.323.169l.573-.242c-.178.073-.354.127-.544.156l.638-.086c-.171.02-.338.018-.51-.003l.638.086c-.192-.028-.38-.075-.573-.102-.319-.1-.638-.114-.957-.043-.319.014-.617.109-.892.285-.498.291-.973.862-1.103,1.434-.14.614-.11,1.304.242,1.849.313.485.834,1.02,1.434,1.103.465.065.916.181,1.39.204.741.035,1.425-.195,2.085-.498.825-.378,1.465-1.133,1.687-2.018.189-.751.108-1.388-.016-2.141-.216-1.311-.514-2.611-.846-3.897-.149-.579-.59-1.134-1.103-1.434s-1.273-.429-1.849-.242c-1.254.406-2.013,1.649-1.676,2.952h0Z"/><path class="f" d="M279.954,93.178c-.688,2.204-.265,7.283,3.915,7.731,5.526-.012,5.844-6.148,3.995-9.042-1.514-2.369-5.989-3.369-7.91,1.31Z"/><path class="f" d="M324.207,93.351c.671,2.21.208,7.285-3.974,7.7-5.526-.055-5.796-6.194-3.925-9.073,1.532-2.357,6.015-3.322,7.899,1.372Z"/><path class="f" d="M94.483,104.358c2.565,1.462,5.365,2.107,8.31,2.202,2.767.089,6.015-.275,8.327-1.959,1.012-.737,1.612-2.118.861-3.284-.646-1.003-2.199-1.652-3.284-.861-.283.207-.583.388-.897.545-.089.045-.184.082-.272.13-.245.135.544-.205.15-.063-.258.093-.514.187-.778.264-.303.089-.609.165-.919.228-.155.032-.311.061-.468.087-.234.039-.402.047-.069.014-.884.088-1.765.126-2.653.098-.43-.013-.859-.039-1.287-.08-.032-.003-.799-.099-.286-.024-.178-.026-.355-.055-.532-.087-.637-.114-1.268-.267-1.884-.468-.263-.086-.519-.189-.778-.285-.285-.104.505.242.144.058-.108-.055-.22-.102-.329-.156-.318-.156-.627-.329-.935-.505-1.091-.622-2.674-.293-3.284.861-.602,1.14-.304,2.62.861,3.284h0Z"/><path class="f" d="M102.252,84.738c.287,1.256.552,2.527.728,3.804l-.086-.638c.042.319.083.637.13.955l-.086-.638c.032.244.048.486.015.731l.086-.638c-.017.091-.039.175-.073.261l.242-.573c-.029.061-.059.112-.098.166l.375-.486c-.027.034-.057.065-.09.092l.486-.375c-.12.09-.257.149-.394.207l.573-.242c-.163.062-.325.109-.496.137l.638-.086c-.183.023-.362.023-.545,0l.638.086c-.22-.033-.435-.095-.654-.132-.654-.11-1.257-.105-1.849.242-.498.291-.973.862-1.103,1.434-.14.614-.11,1.304.242,1.849.319.494.829,1.002,1.434,1.103.478.08.926.194,1.418.231.778.059,1.527-.195,2.218-.518.828-.386,1.437-1.169,1.654-2.053.187-.764.098-1.451-.024-2.216l.086.638c-.19-1.553-.488-3.093-.836-4.618-.28-1.225-1.757-2.063-2.952-1.676-1.283.415-1.976,1.64-1.676,2.952h0Z"/><path class="f" d="M80.436,71.891c-.781,2.277-.49,7.581,3.851,8.171,5.759.151,6.27-6.235,4.429-9.304-1.508-2.513-6.141-3.687-8.28,1.133Z"/><path class="f" d="M126.541,73.373c.634,2.322.003,7.597-4.368,7.907-5.756-.22-5.857-6.624-3.823-9.569,1.666-2.411,6.365-3.285,8.19,1.662Z"/><path class="f" d="M346.278,93.387c.96-.854,2.257-1.117,3.511-.931.649.097,1.261.315,1.796.697-.14-.1.822.868.504.453,1.597,2.082,1.576,5.255,1.369,7.734-.214,2.549-1.124,5.106-2.328,7.353-1.223,2.284-3.612,5.704-6.643,5.291-1.283-.175-2.577.309-2.952,1.676-.308,1.119.384,2.776,1.676,2.952,7.649,1.042,12.133-6.234,14.179-12.576,1.022-3.168,1.164-6.659.661-9.933-.424-2.754-1.581-5.4-3.933-7.017-3.426-2.356-8.207-1.787-11.234.906-2.312,2.058,1.092,5.443,3.394,3.394h0Z"/></g></g></svg>