<?xml version="1.0" encoding="UTF-8"?><svg id="b" xmlns="http://www.w3.org/2000/svg" width="301.262" height="315.361" viewBox="0 0 301.262 315.361"><defs><style>.h{fill:#f4b467;}.i{fill:#fff;}.j{fill:#211715;}.k{fill:#ffda71;}.l{fill:#645d5c;}</style></defs><g id="c"><g id="d"><path class="i" d="M113.95,186.176c-10.295-1.46-19.747-8.015-27.549-17.353-5.877-7.034-9.08-14.894-10.908-21.697-.396.099-.615.154-.615.154-3.282.82-5.866-.831-7.696-2.29-2.382-1.926-4.095-4.456-5.409-7.099-2.699-5.425-3.872-11.492-3.356-17.446.141-1.51.387-3.059,1.15-4.418,1.079-1.938,3.227-3.361,5.585-3.713s4.881.39,6.582,1.926c0,0,4.321-43.035,54.395-43.035s56.009,43.035,56.009,43.035c1.701-1.536,4.224-2.278,6.582-1.926,2.358.352,4.506,1.775,5.585,3.713.763,1.359,1.009,2.908,1.15,4.418.516,5.954-.657,12.021-3.356,17.446-1.314,2.643-3.027,5.173-5.409,7.099-1.787,1.425-4.92,1.425-7.283,1.765-.576,2.452-1.342,4.586-1.686,5.631-2.125,5.767-15.342,28.21-31.001,31.69l-32.772,2.101Z"/><path class="l" d="M55.839,141.914c.152-.466.327-.925.525-1.376.911-2.072,2.411-3.947,4.266-5.21.344.868.725,1.723,1.143,2.563,1.314,2.643,3.027,5.173,5.409,7.099,1.829,1.459,4.414,3.111,7.696,2.29,0,0,.214-.054.614-.156,1.828,6.803,5.031,14.665,10.909,21.699,1.164,1.393,2.364,2.724,3.599,3.985-2.035,5.775-7.226,11.336-12.502,14.507-4.122,2.478-8.366,4.115-13.512,3.501-.931-.111-1.909-.168-2.343-1-.627-1.2,1.339-3.404,2.457-5.554,1.327-2.552.53-6.68-.416-9.396-.946-2.716-2.522-5.16-3.843-7.715-2.447-4.734-4.033-9.911-4.658-15.203-.396-3.354-.388-6.845.656-10.034Z"/><path class="l" d="M191.642,82.296c1.428,9.758,2.234,23.436-1.555,32.174-.439-.161-.898-.273-1.364-.343-2.58-.385-5.356.539-7.038,2.378-8.189-2.599-17.005-14.694-20.179-20.129-2.345-4.015-5.536-13.202-7.467-20.004-9.163,11.519-24.317,18.902-40.128,22.563-3.787.918-.78-8.012.066-13.262-9.841,8.463-29.864,21.333-40.988,30.111-1.437-2.505-4.662-3.874-7.661-3.495-.933-4.564-1.922-9.405-1.922-9.405-1.409-6.087-1.595-19.133-.045-26.758,5.721-28.271,33.976-50.712,63.607-49.073,29.631-1.64,57.886,20.802,63.607,49.073.356,1.756.73,3.852,1.069,6.169Z"/><path class="j" d="M57.361,134.926c-5.23,5.315-5.348,13.002-4.166,19.92.626,3.668,1.735,7.212,3.209,10.625,1.363,3.154,3.333,6.013,4.647,9.183.947,2.286,1.956,5.616,1.101,8.064-.888,2.541-3.834,4.752-2.824,7.735,1.163,3.436,6.422,3.08,9.266,2.717,3.217-.411,6.231-1.589,9.051-3.167,6.462-3.615,12.002-9.424,14.616-16.409.454-1.214-.506-2.631-1.676-2.952-1.345-.37-2.496.458-2.952,1.676-1.919,5.131-6.114,9.592-10.68,12.509-2.243,1.433-4.636,2.65-7.232,3.286-1.255.307-2.501.444-3.794.428-.645-.008-1.303-.03-1.941-.127.049.007-.768-.093-.72-.144.461.225.666.549.615.971-.02.365.007.365.08.001.677-.908,1.234-2.065,1.812-3.054.771-1.318,1.212-2.661,1.365-4.179.261-2.591-.286-5.341-1.14-7.784-1.024-2.93-2.67-5.545-4.085-8.288-1.444-2.798-2.543-5.748-3.327-8.797-1.544-6.003-2.608-13.967,2.169-18.822,2.169-2.204-1.223-5.6-3.394-3.394h0Z"/><path class="j" d="M183.837,115.936c2.466-2.106,6.78-1.634,8.398,1.302.886,1.607.907,3.654.937,5.443.037,2.18-.148,4.352-.589,6.487-.827,3.999-2.365,8.057-4.858,11.329-.976,1.282-2.171,2.722-3.772,3.178-1.732.492-3.574.533-5.349.789-1.284.185-1.989,1.815-1.676,2.952.379,1.379,1.664,1.862,2.952,1.676,1.666-.24,3.363-.295,5.004-.699,1.956-.482,3.484-1.54,4.884-2.961,2.911-2.955,4.868-6.775,6.235-10.655,1.408-3.994,2.086-8.31,1.958-12.544s-1.041-8.259-4.757-10.729c-3.975-2.641-9.222-1.985-12.762,1.038-.986.842-.866,2.528,0,3.394.977.977,2.405.844,3.394,0h0Z"/><path class="j" d="M177.758,141.554c-.082,2.502-.684,4.939-1.412,7.324-.255.835-.53,1.664-.811,2.491-.068.199-.138.396-.208.594-.254.721.119-.224-.092.229-1.089,2.348-2.329,4.607-3.691,6.809-3.967,6.409-8.782,12.479-14.676,17.222-3.198,2.573-6.802,4.622-10.784,5.536-3.009.691-1.736,5.32,1.276,4.629,8.213-1.887,15.043-7.907,20.403-14.134,4.468-5.191,8.618-11.033,11.463-17.293,1.881-4.14,3.183-8.863,3.333-13.407.102-3.09-4.698-3.086-4.8,0h0Z"/><path class="j" d="M73.432,112.542c-3.265-2.788-7.717-3.489-11.635-1.665-4.046,1.884-5.504,5.823-5.815,10.014-.62,8.357,1.955,17.832,7.698,24.095,3.057,3.334,7.235,5.619,11.836,4.608,3.016-.663,1.739-5.291-1.276-4.629-3.259.716-6.273-2.083-8.09-4.468-2.538-3.33-4.088-7.475-4.902-11.55-.412-2.064-.579-4.163-.545-6.267.03-1.839.059-3.97,1.027-5.594,1.678-2.818,5.895-3.212,8.309-1.151.985.841,2.427.967,3.394,0,.862-.862.99-2.549,0-3.394h0Z"/><path class="j" d="M70.806,134.847c1.007,8.25,2.827,16.295,6.365,23.86,4.486,9.592,11.963,18.073,20.859,23.82,4.618,2.984,9.828,5.158,15.283,5.964,1.281.189,2.579-.319,2.952-1.676.311-1.131-.386-2.762-1.676-2.952-9.325-1.378-17.261-6.792-23.635-13.523-6.584-6.953-10.955-15.321-13.335-24.57-.519-2.018-.951-4.058-1.308-6.111-.162-.93-.308-1.862-.441-2.796-.097-.678-.144-1.04-.263-2.015-.157-1.286-.991-2.4-2.4-2.4-1.175,0-2.558,1.105-2.4,2.4h0Z"/><path class="j" d="M65.72,102.241c-.726-3.212-.912-6.528-1.01-9.911-.116-4.017-.017-8.056.42-12.053.783-7.174,3.387-14.159,7.011-20.367,7.567-12.961,20.061-23.059,34.334-27.712,3.508-1.144,7.145-2.011,10.812-2.442,3.891-.458,7.762-.305,11.664-.38,7.599-.147,15.125,1.347,22.181,4.149,13.929,5.531,25.791,16.385,32.498,29.78,3.182,6.355,4.786,13.173,5.776,20.172,1.083,7.652,1.667,15.782.331,23.437-.316,1.809-.755,3.591-1.355,5.328-1.011,2.926,3.624,4.183,4.629,1.276,2.72-7.872,2.542-16.718,1.786-24.907-.693-7.505-1.832-15.138-4.576-22.193-5.871-15.095-17.622-27.668-32.057-34.949-7.28-3.672-15.167-5.994-23.296-6.694-2.027-.174-4.063-.242-6.097-.195-2.044.047-4.083-.046-6.129,0-4.075.091-8.161.618-12.134,1.523-15.855,3.611-30.052,13.466-39.456,26.661-4.622,6.484-8.055,13.915-9.791,21.696-1.726,7.738-1.796,16.111-.957,23.971.182,1.705.41,3.413.788,5.087.681,3.012,5.31,1.737,4.629-1.276h0Z"/><path class="j" d="M151.958,77.836c1.162,3.973,2.453,7.912,3.925,11.782,1.162,3.053,2.393,6.116,4.111,8.905,3.402,5.523,7.584,10.87,12.508,15.115,2.797,2.411,6,4.664,9.662,5.483,3.009.673,4.294-3.954,1.276-4.629-5.699-1.275-10.418-6.612-14.038-11.025-3.563-4.343-6.492-8.975-8.539-14.213-1.625-4.159-3.024-8.41-4.277-12.694-.865-2.959-5.499-1.7-4.629,1.276h0Z"/><path class="j" d="M152.499,74.474c-5.232,6.599-12.105,11.552-19.607,15.28-3.888,1.932-7.936,3.511-12.076,4.813-2.16.679-4.343,1.284-6.543,1.816-.266.064-.537.117-.801.19-.529.148.208.104-.006.024.157.059.66.208.95.561-.007-.008.222.388.091.152-.048-.086-.057-.248-.077-.349.115.579.013-.06.016-.179.083-3.369,1.259-6.94,1.845-10.471.394-2.376-2.115-3.96-4.011-2.335-4.944,4.236-10.283,8.009-15.586,11.776-6.044,4.294-12.149,8.501-18.145,12.864-2.95,2.147-5.878,4.331-8.708,6.635-1.006.819-.851,2.544,0,3.394.995.995,2.386.821,3.394,0,10.823-8.808,22.762-16.265,33.964-24.601,2.884-2.146,5.744-4.333,8.475-6.673l-4.011-2.335c-.622,3.745-1.907,7.469-2.013,11.285-.042,1.495.219,3.122,1.377,4.176,1.744,1.586,4.144.628,6.122.116,9.529-2.467,18.919-6.278,27.02-11.929,4.383-3.057,8.402-6.622,11.727-10.815.805-1.015.991-2.404,0-3.394-.835-.835-2.584-1.021-3.394,0h0Z"/><g id="e"><path class="i" d="M251.022,88.295l.043-.811c1.02.198,2.053.301,3.027.056,1.542-.388,2.76-1.503,3.641-2.827.937-1.408,2.11-3.393,1.839-4.836l-.725-1.55c-8.045-1.805-18.448-6.395-23.105-8.983l-2.332.068c-1.887.801-2.659,5.234-2.368,7.262.198,1.38.911,2.327,1.755,3.05-1.174.915-2.283,1.778-2.283,1.778-1.46.639-2.028,4.247-1.787,5.903.339,2.329,2.375,3.167,3.49,3.992-3.979,4.071-1.833,8.344,1.237,9.859,2.628,1.297,7.161,1.229,8.954-2.526,0,0,.53-1.11,1.213-2.541,1.027.258,2.103.495,3.095.242,1.195-.305,2.134-1.205,2.808-2.278.718-1.141,1.615-2.751,1.394-3.929l.102-1.93Z"/><path class="k" d="M254.67,25.545c-.801.068-1.631.175-2.484.331-2.082.379-7.359,1.411-12.25,5.759-4.274,3.8-5.97,8.124-6.765,10.239-1.854,4.933-1.8,9.124-1.741,11.767.101,4.502,1.044,7.832,1.371,8.913.868,2.873,1.999,5.158,2.942,6.789,4.657,2.588,15.06,7.178,23.105,8.983,5.193.043,12.32-4.813,15.278-8.295,2.142-2.522,4.186-5.276,5.485-8.319,2.031-4.756,2.283-8.892,2.305-10.762.031-2.626.023-8.443-3.676-14.104-2.63-4.025-6.023-6.285-7.623-7.329-.85-.555-2.494-1.614-4.794-2.502-.921-.356-5.281-1.97-11.153-1.471Z"/><path class="j" d="M228.598,92.31c-.909,1.911-1.279,4.071-.571,6.119.655,1.896,1.914,3.463,3.598,4.548,2.398,1.545,5.842,1.919,8.494.859,1.885-.754,3.453-2.049,4.363-3.894.555-1.124.34-2.649-.861-3.284-1.083-.572-2.691-.341-3.284.861-.095.192-.193.38-.305.563-.054.088-.11.174-.168.259-.15.208-.115.167.104-.125-.11.008-.614.633-.709.72-.305.279.471-.313-.077.039-.116.074-.235.145-.356.21-.08.044-.162.085-.244.125-.23.105-.164.08.198-.077-.169.03-.347.129-.514.179-.303.091-.626.117-.926.207.689-.208.214-.03-.034-.015-.134.008-.269.012-.403.013-.178.001-.357-.004-.535-.014-.209-.013-.791-.15-.02.019-.295-.065-.593-.101-.887-.177-.282-.073-.553-.168-.827-.266-.39-.139.575.294.031.004-.187-.1-.373-.196-.552-.309-.093-.058-.363-.177-.396-.27.272.214.308.239.108.075-.082-.07-.162-.142-.24-.217-.158-.15-.298-.313-.447-.47-.322-.34.243.403-.022-.03-.114-.186-.237-.364-.341-.557-.052-.096-.101-.194-.147-.293.13.323.148.362.053.117-.048-.159-.106-.313-.148-.474-.028-.108-.053-.216-.074-.326-.045-.266-.041-.22.013.137-.074-.068-.025-.499-.023-.602,0-.088.004-.175.011-.263.026-.271.019-.236-.022.104-.039-.187.119-.547.174-.726.038-.124.081-.246.127-.368-.116.265-.116.271.002.017.539-1.132.351-2.643-.861-3.284-1.069-.565-2.708-.349-3.284.861h0Z"/><path class="j" d="M254.67,23.145c-5.618.52-10.933,2.362-15.379,5.911-4.668,3.727-7.793,9.128-9.289,14.871s-1.319,12.096.088,17.813c.657,2.669,1.685,5.268,2.965,7.698.393.747.748,1.496,1.477,1.977.344.227.735.401,1.1.592,1.176.616,2.371,1.197,3.574,1.757,5.652,2.632,11.532,4.995,17.583,6.535,3.08.784,5.905.032,8.771-1.21,2.768-1.2,5.309-2.883,7.625-4.808,8.871-7.374,12.99-19.764,10.379-30.972-1.597-6.856-6.088-12.222-11.904-15.974-5.069-3.27-10.979-4.647-16.99-4.191-1.293.098-2.4,1.033-2.4,2.4,0,1.223,1.1,2.499,2.4,2.4,5.828-.442,10.934.994,15.708,4.295,5.626,3.889,8.909,10.013,9.126,16.886.208,6.594-1.836,12.706-5.97,17.872-2.013,2.516-4.336,4.573-7.099,6.24-1.444.871-2.951,1.643-4.562,2.152-1.469.464-2.513.617-3.989.236-7.217-1.863-14.402-4.749-20.93-8.353l.861.861c-6.865-12-5.439-30.069,7.362-37.304,2.892-1.635,6.188-2.577,9.492-2.883,1.291-.12,2.4-1.017,2.4-2.4,0-1.205-1.102-2.52-2.4-2.4Z"/><path class="j" d="M257.173,79.876c.177,1.535-1.2,3.549-2.302,4.545-1.494,1.351-3.335.755-5.104.315-2.825-.702-5.564-1.887-8.221-3.055-2.356-1.035-5.225-2.05-7.191-3.778-1.053-.926-1.071-2.073-.918-3.301.099-.795.289-1.671.619-2.404.03-.068.289-.491.398-.666-.021.034-.005.037.167-.049,2.764-1.381.335-5.523-2.423-4.145-2.896,1.447-3.787,5.957-3.602,8.883.232,3.671,2.851,5.831,5.894,7.418,2.917,1.521,5.968,2.818,9.026,4.025,2.984,1.177,6.466,2.578,9.721,2.407,2.545-.134,4.641-1.564,6.137-3.553,1.363-1.812,2.869-4.282,2.597-6.642-.148-1.288-.997-2.4-2.4-2.4-1.182,0-2.549,1.104-2.4,2.4h0Z"/><path class="j" d="M248.52,90.225c.121,1.062-.749,2.529-1.531,3.314-1.001,1.004-2.288.472-3.51.14-2.311-.628-4.229-1.547-6.376-2.556-1.764-.829-4.361-1.803-5.57-3.183-.558-.637-.51-1.621-.421-2.289.076-.575.213-1.162.415-1.706.059-.16.058-.163-.004-.009.067-.141.141-.278.223-.41-.03.087-.21.149-.019.049,2.738-1.432.314-5.577-2.423-4.145-2.417,1.264-3.112,4.879-3.026,7.358.111,3.168,2.155,5.176,4.765,6.641,2.196,1.232,4.508,2.279,6.825,3.26,2.496,1.057,5.357,2.332,8.12,2.248,2.303-.07,4.15-1.45,5.42-3.283,1.047-1.51,2.127-3.535,1.912-5.429-.146-1.288-.998-2.4-2.4-2.4-1.184,0-2.547,1.104-2.4,2.4h0Z"/><path class="j" d="M271.459,2.402c-.124,2.197-.236,4.396-.335,6.594-.057,1.256,1.145,2.456,2.4,2.4,1.349-.06,2.339-1.055,2.4-2.4.1-2.199.211-4.397.335-6.594.071-1.256-1.154-2.456-2.4-2.4-1.361.061-2.324,1.055-2.4,2.4h0Z"/><path class="j" d="M286.654,14.082c1.357-1.61,2.647-3.28,3.862-5,.341-.483.393-1.3.242-1.849-.153-.557-.584-1.16-1.103-1.434-.557-.294-1.232-.442-1.849-.242l-.573.242c-.361.213-.648.5-.861.861-.549.777-1.114,1.542-1.695,2.295l.375-.486c-.582.752-1.179,1.492-1.792,2.219-.419.497-.703,1.027-.703,1.697,0,.589.261,1.292.703,1.697.457.42,1.058.732,1.697.703.605-.027,1.291-.222,1.697-.703h0Z"/><path class="j" d="M293.976,24.471c1.592-.789,3.201-1.544,4.837-2.237l-.573.242c.418-.176.837-.348,1.259-.514.601-.237,1.096-.525,1.434-1.103.301-.514.429-1.273.242-1.849-.188-.581-.548-1.141-1.103-1.434-.536-.283-1.259-.474-1.849-.242-2.268.892-4.487,1.911-6.67,2.993-.518.257-.954.892-1.103,1.434-.158.574-.087,1.339.242,1.849.33.512.822.964,1.434,1.103.654.149,1.246.057,1.849-.242h0Z"/><path class="j" d="M258.738,70.976c3.799-1.829,7.425-4.201,9.831-7.743,2.194-3.231,3.137-7.727,1.675-11.44-2.602-6.61-13.078-12.186-18.44-5.334-2.655,3.392-2.264,8.47,1.444,10.932,3.343,2.221,9.209,1.927,11.397-1.777,1.895-3.208,1.033-7.443-1.38-10.105-2.203-2.43-5.502-3.606-8.694-3.913-4.552-.438-9.224,1.655-11.544,5.666-2.376,4.108-2.239,9.056-1.14,13.515.739,2.998,5.369,1.728,4.629-1.276-1.216-4.935-.813-11.633,5.17-12.988,3.39-.767,8.629.795,9.156,4.502.081.567.072,1.707-.404,2.284-.634.768-2.196.747-3.076.607-2.294-.364-3.312-2.624-1.8-4.514,2.867-3.583,8.82.803,10.127,3.85,1.113,2.594.136,5.729-1.482,7.879-1.982,2.633-4.977,4.307-7.889,5.709-1.168.562-1.478,2.229-.861,3.284.698,1.193,2.112,1.425,3.284.861h0Z"/></g><g id="f"><path class="i" d="M216.17,262.896c-1.37,4.38,3.055,12.708,5.328,14.681,3.882,3.368,7.422,4.856,12.482,4.952,4.889.093,10.702-1.122,14.173-5.14,2.92-3.381,4.352-5.728,5.025-11.86.312-2.842-.842-11.847-3.255-16.249"/><path class="i" d="M212.31,150.74c-.255-.17-.569-.267-.904-.267-19.944,0-64.811,14.086-83.719,29.383-17.896-15.277-71.947-28.736-84.856-28.736-.58,0-1.065.415-1.07.995-.013,1.532-.043,6.576-.05,9.887,18.92,1.494,70.245,11.328,83.914,20.489,1.123.753,2.988.832,4.148.138,14.22-8.504,62.416-19.197,83.18-20.638-.005-3.597-.005-7.226-.005-7.226v-2.843c0-.504-.253-.925-.637-1.181Z"/><path class="i" d="M39.456,262.896c1.37,4.38-3.055,12.708-5.328,14.681-3.882,3.368-7.422,4.856-12.482,4.952-4.889.093-10.702-1.122-14.173-5.14-2.92-3.381-4.352-5.728-5.025-11.86-.312-2.842.842-11.847,3.255-16.249"/><path class="j" d="M37.142,263.534c.197.689.226,1.423.127,2.215-.143,1.145-.499,2.29-.886,3.373-.688,1.926-1.66,3.787-2.828,5.466-.345.495-.117.22-.482.633-.204.232-.415.45-.643.659-.979.897-2.096,1.667-3.247,2.325-2.128,1.216-4.49,1.801-6.93,1.905-4.847.207-10.009-.837-13.294-4.663-2.647-3.083-4.15-6.802-4.161-11.03-.006-2.281.321-4.575.759-6.809.476-2.427,1.081-4.983,2.218-7.116,1.453-2.725-2.689-5.152-4.145-2.423-2.47,4.633-3.449,10.452-3.62,15.657-.17,5.164,1.557,10.16,4.762,14.161,3.988,4.978,9.932,7.006,16.185,7.047,3.128.02,6.204-.504,9.066-1.785,2.377-1.064,4.89-2.687,6.581-4.696,1.839-2.186,3.15-4.787,4.177-7.437,1.051-2.713,1.808-5.882.988-8.756-.846-2.965-5.479-1.705-4.629,1.276h0Z"/><path class="j" d="M213.856,262.258c-.73,2.56-.192,5.364.65,7.83.827,2.424,1.956,4.817,3.421,6.922,3.254,4.677,8.882,7.362,14.463,7.838,5.997.512,12.98-.907,17.214-5.486,3.719-4.022,5.739-8.848,6.011-14.341.131-2.657-.316-5.404-.789-8.008-.557-3.068-1.355-6.177-2.831-8.944-1.454-2.727-5.599-.305-4.145,2.423,1.965,3.684,2.723,8.522,2.943,12.731.207,3.959-.816,7.971-3.158,11.047-1.427,1.874-3.138,3.488-5.372,4.445-2.165.927-4.555,1.327-6.897,1.405-4.742.157-9.557-1.261-12.813-4.899-1.047-1.17-2.346-3.606-3.08-5.483-.448-1.145-.813-2.331-1.039-3.54-.175-.941-.176-1.869.051-2.664.849-2.976-3.781-4.246-4.629-1.276h0Z"/><path class="h" d="M125.625,182.491c-14.593-9.78-72.103-20.327-87.286-20.675-1.107-.025-2.013.859-2.015,1.966-.034,18.082-.338,106.275-.441,123.784-.006.993.792,1.878,1.781,1.961,14.257,1.188,74.379,16.755,87.984,23.049,1.144.529,3.007.523,4.147-.014,13.566-6.39,73.281-22.264,88.124-23.053,1.012-.054,1.83-.941,1.824-1.955-.104-17.545-.407-105.774-.441-123.797-.002-1.065-.856-1.922-1.921-1.929-17.255-.124-72.25,11.616-87.609,20.8-1.16.694-3.025.615-4.148-.138Z"/><path class="j" d="M44.109,160.982c.003-2.727.035-5.453.049-8.18,0-.163.047-.418.003-.573.352,1.225-2.017,1.141-.855,1.296.388.052.8.029,1.192.053,1.016.064,2.029.17,3.039.293.242.029.483.061.724.092-.639-.083.252.036.403.058.639.092,1.278.189,1.915.292,1.377.222,2.751.467,4.122.727,3.145.597,6.274,1.275,9.39,2.006,14.795,3.47,29.623,7.901,43.528,14.007,3.551,1.559,7.053,3.245,10.429,5.156,1.53.866,3.035,1.779,4.494,2.762,1.477.994,2.294,1.604,3.447,2.582,1.071.909,2.311.872,3.394,0,4.757-3.829,10.778-7.215,16.492-10.045,6.816-3.376,13.875-6.244,21.046-8.773,7.259-2.561,14.647-4.781,22.135-6.568,6.181-1.475,12.286-2.687,18.404-3.137.735-.054,1.471-.097,2.207-.123.33-.012.661-.021.991-.027.142-.002.287.007.429-.005.574-.05.083.091-.038-.092-.413-.627-.504-1.214-.504-.342v1.65c0,2.297,0,4.594,0,6.891,0,3.089,4.8,3.094,4.8,0v-6.338c0-.885.045-1.783,0-2.666-.121-2.36-1.836-3.855-4.152-3.904-6.234-.133-12.656,1.137-18.727,2.412-15.745,3.306-31.262,8.532-45.833,15.347-7.265,3.398-14.381,7.284-20.646,12.327h3.394c-5.102-4.328-11.11-7.497-17.163-10.272-7.448-3.416-15.155-6.265-22.946-8.793-13.482-4.375-27.462-8.244-41.559-9.999-2.75-.342-7.505-1.346-8.27,2.383-.317,1.548-.101,3.324-.111,4.893-.01,1.537-.025,3.075-.027,4.612-.003,3.089,4.797,3.094,4.8,0h0Z"/><path class="j" d="M126.836,180.419c-3.609-2.399-7.796-3.982-11.854-5.436-5.502-1.972-11.135-3.58-16.789-5.051-12.489-3.249-25.169-5.83-37.904-7.902-5.193-.845-10.406-1.611-15.639-2.155-1.804-.187-3.612-.35-5.425-.428-1.598-.068-3.084.2-4.208,1.461-.985,1.106-1.093,2.456-1.096,3.856-.017,8.052-.043,16.104-.069,24.156-.038,11.923-.078,23.847-.12,35.77-.042,12.011-.086,24.022-.133,36.033-.032,8.315-.064,16.63-.108,24.946-.003.581-.028,1.167-.01,1.748.066,2.138,1.376,3.995,3.542,4.426.837.166,1.727.195,2.575.297.405.049-.566-.083.1.014.181.027.362.052.543.078.469.069.938.142,1.406.218,4.585.744,9.135,1.706,13.669,2.707,12.074,2.664,24.068,5.712,35.991,8.98,10.112,2.772,20.317,5.557,30.129,9.28.382.145.763.292,1.142.443.19.075.379.151.568.228.109.044.753.314.381.156-.324-.138.498.221.684.303.917.405,1.758.682,2.764.781,1.72.169,3.185-.325,4.722-1.01.145-.065.292-.127.438-.192.086-.038.174-.074.26-.112.285-.124-.462.191-.168.072.386-.158.772-.317,1.16-.471,4.15-1.643,8.406-3.025,12.661-4.366,11.789-3.716,23.728-6.976,35.713-9.995,10.474-2.638,21.047-5.271,31.741-6.865.206-.031.412-.061.619-.09.237-.034.772-.104.211-.031.423-.055.846-.109,1.27-.156.73-.082,1.462-.13,2.193-.194,2.338-.207,4.18-1.76,4.332-4.195.039-.624.008-1.258.004-1.883-.018-3.424-.033-6.849-.048-10.273-.046-10.599-.086-21.197-.125-31.796-.046-12.396-.089-24.791-.13-37.187-.035-10.518-.069-21.035-.1-31.553-.01-3.353-.019-6.707-.026-10.06-.002-1.142.016-2.264-.545-3.308-.91-1.697-2.686-2.25-4.488-2.232-2.002.02-4.002.163-5.995.345-12.08,1.107-24.087,3.455-35.917,6.079-12.218,2.71-24.504,5.76-36.232,10.178-2.191.825-4.365,1.709-6.486,2.703-.863.404-1.717.829-2.552,1.289-.894.492-1.646.996-2.655.395-2.661-1.584-5.078,2.564-2.423,4.145,1.792,1.067,4.089,1.249,6.004.405.919-.405,1.775-.966,2.673-1.421,2.149-1.088,3.576-1.673,5.598-2.46,5.251-2.043,10.645-3.717,16.061-5.261,12.539-3.574,25.303-6.44,38.14-8.719,5.522-.98,10.681-1.795,16.006-2.357,2.105-.222,4.217-.405,6.333-.485.427-.016.854-.028,1.282-.034.183-.003.382.022.562-.004-.024.003.309.005.31,0-.056.181-.447-.297-.415-.288-.216-.061.023-.288-.064.025-.032.116,0,.311,0,.432,0,.311.001.622.002.934.018,8.057.044,16.114.069,24.17.037,11.712.077,23.423.118,35.135.041,11.844.084,23.688.131,35.533.032,8.304.064,16.608.107,24.912.003.617.006,1.235.01,1.852,0,.118-.017.254.002.37.07.419-.1.069.084-.013.503-.224.214-.166-.262-.129-1.804.14-3.601.395-5.388.669-4.688.72-9.34,1.683-13.972,2.697-11.994,2.624-23.897,5.685-35.721,8.986-9.881,2.758-19.851,5.548-29.425,9.262-.9.349-1.794.715-2.682,1.096-.314.134-.627.268-.937.411-.105.048-.562.219-.181.091-.38.127-.735.195-1.135.198-.406.003-.748-.061-1.137-.186.306.098.024.002-.122-.059-.48-.2-.955-.415-1.436-.615-.74-.309-1.485-.605-2.234-.89-4.169-1.587-8.43-2.938-12.692-4.249-11.562-3.556-23.255-6.7-34.985-9.647-10.297-2.586-20.656-5.134-31.127-6.924-1.774-.303-3.557-.578-5.346-.775-.124-.014-.777-.164-.864-.086.446-.399.45.965.505.021.037-.618.007-1.249.01-1.868.018-3.434.033-6.869.048-10.303.045-10.438.084-20.876.123-31.315.045-12.248.088-24.497.129-36.745.035-10.385.069-20.77.099-31.155.01-3.388.019-6.776.027-10.164,0-.295.189-1.566.004-1.774.329.369-.916.241.014.393.368.06.777.031,1.151.051,1.862.102,3.72.279,5.573.482,1.125.123,2.249.257,3.372.4.27.034.539.069.809.104.096.012.948.126.546.071.654.088,1.307.179,1.96.272,2.758.392,5.511.822,8.259,1.279,6.148,1.022,12.273,2.178,18.373,3.453,11.844,2.475,23.758,5.242,35.156,9.355,1.104.399,2.203.813,3.293,1.251.274.11.548.222.821.335.384.159-.201-.091.32.135.473.206.945.414,1.414.63,1.595.736,3.164,1.544,4.629,2.518,2.58,1.715,4.986-2.441,2.423-4.145Z"/><path class="j" d="M125.545,191.524c0,12.549-.053,25.097-.089,37.646-.05,17.217-.102,34.434-.142,51.651-.016,6.938-.032,13.877-.032,20.815,0,3.089,4.8,3.094,4.8,0,0-14.265.049-28.53.089-42.795.046-16.733.099-33.467.142-50.2.015-5.706.032-11.411.032-17.117,0-3.089-4.8-3.094-4.8,0h0Z"/><path class="i" d="M12.951,225.091c1.207-1.647,2.871-3.467,5.195-5.076,1.388-.961,5.487-3.719,11.307-3.847,1.386-.031,4.639-.09,8.143,1.667,1.689.847,3.238,2.009,4.591,3.477.978,1.061,1.849,2.282,2.165,3.69.316,1.408-.023,3.031-1.13,3.956-.412.344-.896.529-1.412.628.85.646,1.478,1.126,1.478,1.126,1.369,1.047,2.942,2.902,3.171,4.448.25,1.683.07,2.94-.883,4.35-.702,1.039-1.901,1.62-3.163,1.809,1.03.957,1.897,1.764,1.897,1.764,1.816,1.692,1.992,4.69.699,6.809-.85,1.394-2.214,1.987-3.753,2.202.298,1.076.492,1.777.492,1.777.202.728,1.678,5.509-1.21,8.353-1.873,1.844-4.52,2.713-7.133,2.996-2.613.282-5.264.244-7.878-.029-2.668-.279-5.45-.383-7.891-1.292-2.502-.932-4.298-2.383-5.889-4.442-.888-1.149-2.91-4.618-3.33-7.048-.325-1.883-.844-4.361-.898-6.256-.127-4.41-.371-10.781,3.223-17.477.49-.913,1.185-2.186,2.21-3.585Z"/><path class="j" d="M23.803,230.776c4.51.242,8.991.865,13.494,1.199,2.123.158,4.582.434,6.536-.567,2.771-1.419,3.609-5.014,2.609-7.793-2.026-5.63-8.425-9.087-14.061-9.729-4.71-.537-9.544.57-13.646,2.915-8.932,5.105-13.432,15.181-13.663,25.18-.114,4.959.258,10.29,2.37,14.839,2.158,4.649,5.724,8.434,10.802,9.785,3.389.902,7.232,1.135,10.728,1.203,3.463.067,7.05-.215,10.209-1.741,2.861-1.382,4.94-3.812,5.388-6.995.277-1.964.027-3.937-.507-5.838-.834-2.969-5.467-1.708-4.629,1.276.375,1.335.518,1.967.462,3.334-.071,1.743-1.039,2.948-2.614,3.809-2.067,1.131-4.52,1.306-6.829,1.354-2.763.057-5.545-.22-8.287-.545-2.248-.267-4.475-.837-6.312-2.217-1.473-1.106-2.422-2.425-3.306-3.985-2.004-3.537-2.582-7.59-2.668-11.612-.096-4.445.279-8.899,2.083-13.021,1.507-3.446,3.698-6.691,6.682-9.021,5.91-4.615,15.095-5.951,20.951-.496.887.826,3.647,3.575,2.159,4.948-.516.476-1.719.25-2.369.234-.841-.02-1.681-.083-2.519-.149-4.357-.345-8.697-.931-13.062-1.166-3.087-.166-3.078,4.635,0,4.8h0Z"/><path class="j" d="M41.59,232.409c.973.773,2.217,1.857,2.518,3.132.275,1.162-.114,2.672-1.258,3.194-1.412.645-3.603.064-5.082-.095-5.122-.551-10.254-1.199-15.4-1.481-3.087-.169-3.077,4.632,0,4.8,4.686.256,9.36.829,14.024,1.332,1.528.165,3.063.385,4.598.478,3.421.207,6.415-1.655,7.57-4.897,1.337-3.755-.647-7.531-3.576-9.858-1.014-.805-2.404-.99-3.394,0-.836.836-1.02,2.584,0,3.394h0Z"/><path class="j" d="M42.613,244.781c1.326,1.332,1.088,4.022-.76,4.783-1.055.435-2.293.299-3.393.187-1.312-.134-2.623-.274-3.935-.406-4.576-.463-9.166-1.003-13.76-1.249-3.087-.165-3.078,4.635,0,4.8,5.599.3,11.196.977,16.771,1.559,3.509.366,7.158.11,9.352-3.059,2.104-3.038,1.709-7.406-.882-10.009-2.182-2.192-5.577,1.201-3.394,3.394h0Z"/><path class="i" d="M242.675,225.091c-1.207-1.647-2.871-3.467-5.195-5.076-1.388-.961-5.487-3.719-11.307-3.847-1.386-.031-4.639-.09-8.143,1.667-1.689.847-3.238,2.009-4.591,3.477-.978,1.061-1.849,2.282-2.165,3.69-.316,1.408.023,3.031,1.13,3.956.412.344.896.529,1.412.628-.85.646-1.478,1.126-1.478,1.126-1.369,1.047-2.942,2.902-3.171,4.448-.25,1.683-.07,2.94.883,4.35.702,1.039,1.901,1.62,3.163,1.809-1.03.957-1.897,1.764-1.897,1.764-1.816,1.692-1.992,4.69-.699,6.809.85,1.394,2.214,1.987,3.753,2.202-.298,1.076-.492,1.777-.492,1.777-.202.728-1.678,5.509,1.21,8.353,1.873,1.844,4.52,2.713,7.133,2.996,2.613.282,5.264.244,7.878-.029,2.668-.279,5.45-.383,7.891-1.292,2.502-.932,4.298-2.383,5.889-4.442.888-1.149,2.91-4.618,3.33-7.048.325-1.883.844-4.361.898-6.256.127-4.41.371-10.781-3.223-17.477-.49-.913-1.185-2.186-2.21-3.585Z"/><path class="j" d="M231.823,225.976c-3.205-.056-6.46.481-9.64.811-1.665.172-3.331.352-5.001.457-1.051.066-3.21.56-3.562-.72-.535-1.947,1.886-4.061,3.199-5.101,1.831-1.45,4.079-2.4,6.39-2.729,3.733-.531,7.629.257,10.921,2.062,7.078,3.882,11.058,11.709,11.556,19.602.46,7.304-.295,17.7-7.963,21.083-2.63,1.16-5.783,1.211-8.604,1.442-2.94.24-6.121.335-8.98-.505-2.005-.589-4.001-1.748-4.359-3.956-.238-1.465.009-2.471.413-3.911.837-2.979-3.793-4.25-4.629-1.276-1.261,4.486-.656,9.097,3.365,11.942,5.194,3.676,12.603,2.761,18.533,2.086,3.103-.354,6.146-1.03,8.735-2.873,2.014-1.434,3.626-3.297,4.867-5.427,2.652-4.55,3.424-9.748,3.496-14.954.081-5.842-.905-11.531-3.697-16.719-2.164-4.021-5.139-7.429-9.002-9.902-3.949-2.527-8.649-3.83-13.338-3.608-5.734.271-12.018,3.276-14.778,8.548-1.577,3.013-1.303,7.363,2.048,9.079,2.045,1.047,4.64.714,6.857.523,4.356-.376,8.793-1.231,13.173-1.155,3.09.054,3.09-4.746,0-4.8h0Z"/><path class="j" d="M210.642,229.015c-3.349,2.66-5.183,7.043-3.05,11.064,1.673,3.154,4.979,3.877,8.254,3.59,5.58-.49,11.158-1.086,16.752-1.388,3.072-.166,3.092-4.967,0-4.8-4.997.27-9.983.777-14.966,1.228-1.41.128-3.527.645-4.857.027-1.141-.53-1.534-2.023-1.258-3.194.301-1.275,1.545-2.359,2.518-3.132,1.016-.807.843-2.551,0-3.394-1.003-1.003-2.376-.809-3.394,0h0Z"/><path class="j" d="M209.62,241.387c-2.586,2.598-2.992,6.976-.882,10.008,2.17,3.118,5.903,3.328,9.368,3.127,5.605-.325,11.156-1.312,16.756-1.626,3.071-.172,3.091-4.973,0-4.8-4.585.257-9.149,1.011-13.725,1.403-1.269.109-2.54.205-3.812.264-1.154.053-2.437.162-3.542-.255-1.853-.7-2.097-3.391-.768-4.727,2.182-2.192-1.211-5.588-3.394-3.394h0Z"/></g><g id="g"><path class="j" d="M127.492,137.176c.463,1.766.908,3.561,1.173,5.369l-.086-.638c.031.248.045.492.02.741l.086-.638c-.018.115-.043.223-.082.333l.242-.573c-.034.078-.07.144-.118.214l.375-.486c-.055.067-.108.119-.175.173l.486-.375c-.136.087-.279.158-.425.225l.573-.242c-.234.098-.466.169-.717.209l.638-.086c-.226.027-.447.025-.673-.001l.638.086c-.254-.035-.503-.097-.756-.131-.67-.09-1.239-.115-1.849.242-.498.291-.973.862-1.103,1.434-.14.614-.11,1.304.242,1.849.312.484.835,1.022,1.434,1.103.546.074,1.076.214,1.631.238.836.037,1.616-.216,2.364-.556.916-.417,1.628-1.221,1.872-2.208.206-.834.115-1.583-.026-2.418-.292-1.73-.692-3.444-1.137-5.14-.318-1.214-1.729-2.072-2.952-1.676-1.25.404-2.018,1.651-1.676,2.952h0Z"/><path class="j" d="M98.922,122.692c-.897,2.913-.312,9.616,5.207,10.186,7.295-.044,7.683-8.147,5.228-11.957-2.011-3.119-7.923-4.417-10.435,1.771Z"/><path class="j" d="M156.09,122.692c.897,2.914.313,9.616-5.207,10.186-7.295-.044-7.684-8.147-5.228-11.957,2.011-3.119,7.923-4.416,10.435,1.771Z"/><path class="j" d="M138.333,160.961c.684-1.035,1.293-2.116,1.87-3.214.75-1.43,1.742-2.969.806-4.569-1.025-1.752-2.925-1.315-4.573-1.194-3.531.259-7.073.392-10.611.517-1.83.065-3.661.122-5.492.164-1.844.043-4.388-.369-5.477,1.49-.88,1.503-.009,2.904.898,4.11.791,1.052,1.624,2.069,2.518,3.035,1.793,1.94,3.777,3.862,5.926,5.405,2.558,1.837,5.881,1.843,8.542.163,2.341-1.478,4.06-3.648,5.592-5.908.728-1.073.205-2.66-.861-3.284-1.184-.692-2.554-.215-3.284.861-1.399,2.064-4.288,6.173-7.159,4.306-1.537-.999-2.906-2.441-4.199-3.731-.701-.7-1.38-1.422-2.026-2.173-.295-.343-.588-.689-.865-1.047-.176-.227-.687-.746-.748-.929v1.276l.052-.235-.617,1.059.16-.179-1.059.617c-.409.122-.053.008.138.008.194,0,.389-.005.583-.008.395-.006.79-.014,1.184-.022.909-.019,1.817-.042,2.726-.069,2.112-.06,4.224-.135,6.335-.221,1.944-.08,3.888-.169,5.831-.283.76-.045,1.521-.093,2.28-.152.322-.025.645-.051.966-.083.193-.019.967-.032.343-.129l-1.059-.617.184.159-.617-1.059.085.23v-1.276c-.119.651-.751,1.547-1.103,2.191-.442.808-.908,1.599-1.416,2.367-.715,1.082-.214,2.655.861,3.284,1.173.686,2.567.223,3.284-.861Z"/></g></g></g></svg>