<svg width="161" height="145" viewBox="0 0 161 145" fill="none" xmlns="http://www.w3.org/2000/svg">
<path d="M54.3774 27.5817C54.3774 27.5817 44.8004 31.2848 44.0343 32.051C43.2681 32.8171 22.5818 24.6447 18.4956 28.4756C16.1971 30.6463 24.8802 46.9911 24.8802 46.9911C24.8802 46.9911 13.1324 63.5913 12.1109 64.8682C9.04624 65.2513 4.19389 65.2513 3.55542 68.9544C2.91695 72.6575 1.51233 101.516 5.59852 104.326C9.68471 107.135 16.9632 106.624 16.9632 106.624C26.1572 120.543 44.162 144.932 94.7286 136.632C145.295 128.332 159.086 58.2281 112.35 35.7541C91.9194 28.4755 64.4652 23.3678 54.1221 27.7094L54.3774 27.5817Z" fill="white"/>
<path d="M64.7008 24.1957C69.1782 24.1772 74.3229 24.6491 79.7418 25.4809C89.9025 27.0406 101.163 29.8873 111.036 33.267L112.991 33.9496L113.178 34.0277C137.446 45.6976 145.967 69.7735 141.91 91.8549C137.858 113.909 121.226 134.223 95.0367 138.522C69.4007 142.73 51.799 138.678 39.3824 131.625C27.5184 124.887 20.5918 115.516 15.9567 108.573C15.8965 108.573 15.8343 108.575 15.7701 108.576C14.9761 108.58 13.8723 108.554 12.6285 108.435C10.2149 108.204 6.96852 107.593 4.51134 105.904C3.44419 105.17 2.8588 103.87 2.48986 102.751C2.08649 101.529 1.7898 100.027 1.56603 98.3949C1.11697 95.1191 0.927536 91.0396 0.887319 86.9945C0.807334 78.9481 1.31525 70.6621 1.66564 68.6293C2.16339 65.7424 4.37627 64.4398 6.36291 63.8344C7.91003 63.3629 9.74159 63.1888 11.0748 63.0522C12.1556 61.5787 14.752 57.9456 17.3151 54.3412C18.8465 52.1876 20.3465 50.0732 21.4635 48.4975C21.9315 47.8373 22.3316 47.2707 22.6393 46.8363C22.4221 46.4126 22.1497 45.8759 21.8414 45.2553C21.0546 43.6715 20.0248 41.5276 19.0651 39.307C18.1123 37.1027 17.1981 34.7538 16.6705 32.7787C16.4092 31.8003 16.2163 30.818 16.193 29.9457C16.1728 29.1877 16.2596 27.9511 17.1783 27.0834L17.1832 27.0785C18.0987 26.2202 19.3117 25.8378 20.4469 25.6664C21.6104 25.4908 22.9211 25.5032 24.2623 25.6176C26.9481 25.8467 30.0632 26.5162 32.9791 27.2572C35.9019 28.0001 38.7359 28.8444 40.8151 29.434C41.8742 29.7343 42.7104 29.9604 43.2945 30.0893C43.3598 30.1037 43.4193 30.1137 43.4723 30.1244C43.5817 30.0622 43.6957 30 43.8111 29.9399C44.1919 29.7416 44.6662 29.518 45.1822 29.2846C46.2188 28.8157 47.5125 28.2708 48.7643 27.7572C50.0197 27.2422 51.2492 26.752 52.1637 26.391C52.6212 26.2104 53.0009 26.0619 53.2662 25.9584C53.3987 25.9067 53.5026 25.8659 53.5738 25.8383C53.6095 25.8245 53.6373 25.8133 53.6559 25.8061C53.6648 25.8026 53.6716 25.8001 53.6764 25.7983C53.6787 25.7974 53.681 25.7968 53.6822 25.7963L53.6842 25.7953L53.8649 25.7358C53.8958 25.7272 53.9275 25.7222 53.9586 25.7152C56.8224 24.6514 60.55 24.2129 64.7008 24.1957ZM64.7164 28.0268C60.4583 28.0444 57.1009 28.5358 54.861 29.476C54.7465 29.524 54.6296 29.5587 54.5123 29.5834C54.2647 29.6802 53.9438 29.806 53.5699 29.9535C52.6648 30.3108 51.4519 30.7947 50.2174 31.3012C48.9794 31.8091 47.7348 32.334 46.7604 32.7748C46.271 32.9962 45.8703 33.1865 45.5807 33.3373C45.435 33.4132 45.3379 33.4695 45.2799 33.5053C45.2769 33.5072 45.2738 33.5085 45.2711 33.5102C44.7948 33.918 44.2689 33.9835 44.1227 34.0004C43.8785 34.0286 43.6541 34.0168 43.4986 34.0033C43.1772 33.9755 42.816 33.9069 42.4693 33.8305C41.7597 33.674 40.8216 33.4177 39.7701 33.1195C37.6275 32.512 34.8908 31.6957 32.0358 30.9701C29.1737 30.2428 26.3031 29.6358 23.9371 29.434C22.7527 29.333 21.7709 29.3409 21.0182 29.4545C20.525 29.529 20.2121 29.6357 20.0221 29.7299C20.0216 29.7631 20.021 29.8008 20.0221 29.8432C20.0337 30.2802 20.1422 30.9314 20.3717 31.7904C20.8258 33.4904 21.6511 35.6345 22.5817 37.7875C23.5053 39.9243 24.5027 42.0026 25.2721 43.5512C25.6561 44.3241 25.9824 44.9619 26.2115 45.4057C26.3259 45.6273 26.4159 45.8004 26.4772 45.9174C26.5078 45.9758 26.531 46.0208 26.5465 46.0502C26.5541 46.0646 26.5603 46.0753 26.5641 46.0824L26.569 46.0922C26.8872 46.6912 26.8638 47.4106 26.5152 47.9848L26.441 48.0981L26.4332 48.1098C26.4276 48.1177 26.4188 48.1294 26.4078 48.1449C26.3855 48.1764 26.3523 48.2236 26.3092 48.2846C26.2228 48.4066 26.0959 48.5856 25.9342 48.8139C25.6109 49.2704 25.1482 49.9241 24.5895 50.7123C23.4718 52.289 21.9702 54.4051 20.4371 56.5609C17.4028 60.8279 14.1596 65.3705 13.6041 66.0649C13.2925 66.4543 12.8413 66.707 12.3463 66.769C10.5948 66.9879 8.94514 67.0517 7.47912 67.4984C6.11411 67.9145 5.5818 68.4637 5.44103 69.2797C5.15295 70.9505 4.63874 78.9458 4.71837 86.9565C4.75798 90.9399 4.94411 94.8336 5.36095 97.8744C5.57014 99.4004 5.82815 100.644 6.12755 101.551C6.46116 102.562 6.72644 102.778 6.68126 102.747C8.31027 103.867 10.7467 104.406 12.9938 104.621C14.0802 104.726 15.0513 104.748 15.7496 104.745C16.0977 104.743 16.3754 104.735 16.5621 104.727C16.655 104.723 16.7251 104.719 16.7701 104.716C16.7927 104.715 16.8095 104.715 16.819 104.714C16.8226 104.714 16.8252 104.713 16.8268 104.713C17.5162 104.665 18.1783 104.992 18.5592 105.569C23.1192 112.472 29.7139 121.728 41.275 128.294C52.801 134.841 69.4853 138.834 94.4156 134.742C118.793 130.74 134.34 111.853 138.141 91.1625C141.933 70.5254 134.006 48.3426 111.605 37.5229C101.518 33.937 89.7083 30.8861 79.1608 29.267C73.8696 28.4548 68.934 28.0094 64.7164 28.0268Z" fill="black"/>
<path d="M40.3359 131.396C40.3359 130.339 41.1931 129.481 42.251 129.481C43.3088 129.481 44.166 130.339 44.166 131.396C44.166 132.088 44.44 133.424 45.1543 134.928C45.8553 136.403 46.9037 137.875 48.2979 138.94C49.6639 139.984 51.3948 140.668 53.5947 140.58C55.8266 140.49 58.689 139.598 62.2549 137.211C63.1339 136.622 64.3236 136.858 64.9121 137.737C65.5005 138.616 65.2647 139.806 64.3857 140.394C60.4178 143.051 56.8792 144.281 53.748 144.407C50.5851 144.534 47.9904 143.526 45.9727 141.984C43.9833 140.464 42.5894 138.456 41.6943 136.572C40.8126 134.716 40.3359 132.812 40.3359 131.396Z" fill="black"/>
<path d="M118.144 126.648C118.369 125.615 119.389 124.959 120.422 125.183C121.456 125.408 122.112 126.429 121.887 127.462C120.878 132.103 119.197 135.428 117.042 137.681C114.865 139.957 112.309 141.027 109.793 141.313C107.313 141.595 104.92 141.113 102.963 140.376C101.03 139.647 99.3629 138.608 98.3576 137.603C97.61 136.855 97.6099 135.643 98.3576 134.895C99.1057 134.147 100.319 134.147 101.067 134.895C101.594 135.422 102.751 136.203 104.314 136.792C105.853 137.371 107.626 137.703 109.361 137.506C111.059 137.313 112.764 136.611 114.274 135.033C115.806 133.431 117.237 130.818 118.144 126.648Z" fill="black"/>
<path d="M37.6049 74.0957C40.9102 73.8483 43.3679 70.6832 43.0942 67.0262C42.8205 63.3692 39.9191 60.6052 36.6138 60.8526C33.3084 61.0999 30.8508 64.265 31.1245 67.922C31.3981 71.579 34.2995 74.343 37.6049 74.0957Z" fill="black"/>
<path d="M148.489 64.3723C151.074 61.979 155.042 60.478 159.606 62.1799C160.597 62.5497 161.101 63.6527 160.731 64.6438C160.362 65.6348 159.258 66.1384 158.267 65.7688C155.848 64.8669 153.754 65.3135 152.128 66.3733C153.459 67.407 154.351 68.9361 154.695 70.926H154.693C154.963 72.2749 154.33 73.4105 153.671 74.1184C152.977 74.8636 152.031 75.4117 151.063 75.7044C150.101 75.9954 148.916 76.0912 147.788 75.6673C146.574 75.2108 145.642 74.2285 145.224 72.8186C144.838 71.5144 145.04 70.0772 145.503 68.7932C143.827 69.0554 142.156 69.6754 141.074 70.2581C140.143 70.7595 138.981 70.411 138.479 69.4798C137.978 68.5484 138.326 67.3866 139.258 66.885C141.113 65.8857 144.318 64.7629 147.347 64.8372C147.557 64.8423 147.769 64.8537 147.982 64.8714C148.145 64.701 148.314 64.5342 148.489 64.3723ZM149.505 69.2132C149.387 69.4295 149.285 69.6451 149.198 69.8567C148.811 70.7964 148.814 71.4463 148.898 71.7307C148.991 72.0434 149.097 72.0668 149.136 72.0813C149.26 72.1282 149.545 72.1613 149.955 72.0374C150.36 71.915 150.691 71.6957 150.867 71.5071C150.88 71.4934 150.889 71.4792 150.898 71.468C150.675 70.3081 150.2 69.6982 149.698 69.3382C149.637 69.2942 149.572 69.2532 149.505 69.2132Z" fill="black"/>
<path d="M55.6534 40.096C54.7596 37.2868 54.1211 34.4775 54.1211 31.4129C54.1211 15.0681 67.2735 1.91568 83.4906 1.91568C99.7077 1.91568 112.86 15.0681 112.86 31.2852C112.86 36.3929 111.298 38.9138 109 43L96 39L79.5 36.5L65 37.4145L55.5257 39.9684L55.6534 40.096Z" fill="#FEBE69"/>
<path d="M110.945 31.2848C110.945 16.1258 98.6503 3.83072 83.4912 3.83072C68.3376 3.83092 56.0372 16.1206 56.0371 31.4128C56.0371 33.6124 56.4002 35.6923 56.9746 37.8014L64.168 36.6715L64.3145 36.654L78.8711 35.5045C79.025 35.4924 79.1807 35.4991 79.333 35.5241L96.4434 38.3336L96.6328 38.3747C96.6952 38.3915 96.7569 38.4111 96.8174 38.4342L108.253 42.8063C109.945 39.3346 110.945 35.4422 110.945 31.2848ZM114.776 31.2848C114.776 36.7505 113.272 41.7967 110.827 46.1432C110.362 46.9704 109.387 46.339 108.5 46L95.5 41L79 38.5L64.5 40L56.6514 41.7301L56.5 41C55.7454 41.4593 54.9245 42.0754 54.2998 41.4508L54.1719 41.3229C53.8066 40.9576 53.6119 40.4672 53.6123 39.9665C52.7988 37.2763 52.207 34.4795 52.207 31.4128C52.2071 14.0157 66.2111 0.000844016 83.4912 0.000640869C100.766 0.000640869 114.776 14.0101 114.776 31.2848Z" fill="black"/>
<path d="M91.2422 14.9111C91.5407 13.8964 92.6054 13.3151 93.6201 13.6133L93.127 15.292C93.5981 13.6903 93.6204 13.6174 93.6221 13.6143H93.6241C93.6252 13.6146 93.6266 13.6149 93.628 13.6153L93.6631 13.627C93.6836 13.6333 93.7107 13.6409 93.7432 13.6514C93.8084 13.6725 93.8976 13.7022 94.0069 13.7412C94.2251 13.8191 94.5269 13.9346 94.8887 14.0928C95.6098 14.408 96.5859 14.9002 97.6192 15.6162C99.6787 17.0435 102.072 19.4393 102.985 23.168C103.237 24.1955 102.608 25.2328 101.58 25.4844C100.553 25.7358 99.5163 25.1065 99.2647 24.0791C98.6455 21.5509 97.0163 19.8604 95.4366 18.7656C94.6503 18.2208 93.9024 17.843 93.3545 17.6035C93.0822 17.4845 92.8636 17.4009 92.7198 17.3496C92.648 17.324 92.5944 17.3069 92.5635 17.2969C92.5482 17.2919 92.5383 17.2884 92.5342 17.2871V17.2861C91.523 16.9854 90.9446 15.924 91.2422 14.9111Z" fill="black"/>
<path d="M70.4957 35.7101C83.531 34.9117 100.705 36.7302 116.987 47.2999C117.874 47.8759 118.126 49.0621 117.55 49.9493C116.974 50.8366 115.788 51.0898 114.901 50.5138C99.5146 40.5251 83.2334 38.7675 70.7301 39.5333C64.4826 39.916 59.2035 40.9279 55.4928 41.8419C53.6385 42.2986 52.179 42.7302 51.19 43.045C50.6957 43.2024 50.3192 43.3307 50.0699 43.4181C49.9453 43.4618 49.8523 43.4949 49.7926 43.5167C49.7628 43.5276 49.7413 43.5362 49.7281 43.5411C49.7216 43.5436 49.7168 43.5451 49.7145 43.546C49.7134 43.5464 49.7126 43.5469 49.7125 43.547L49.7115 43.546C48.7233 43.9207 47.6187 43.4247 47.2428 42.4366C46.8668 41.448 47.3635 40.342 48.3521 39.9659L48.9342 41.4962C48.3683 40.0086 48.3527 39.9665 48.3531 39.965C48.3536 39.9648 48.3551 39.9643 48.3561 39.964C48.3581 39.9632 48.3608 39.9622 48.3639 39.961C48.3701 39.9587 48.3788 39.9552 48.3893 39.9513C48.4101 39.9435 48.4397 39.9328 48.4771 39.9191C48.5526 39.8915 48.6614 39.8522 48.8023 39.8028C49.0848 39.7038 49.4968 39.5637 50.0279 39.3946C51.0901 39.0565 52.6321 38.6012 54.5768 38.1222C58.4637 37.1648 63.9743 36.1095 70.4957 35.7101Z" fill="black"/>
</svg>
