<svg width="287" height="212" viewBox="0 0 287 212" fill="none" xmlns="http://www.w3.org/2000/svg">
<g clip-path="url(#clip0_22_27680)">
<path d="M269.249 35.4701L270.094 40.6184L269.158 45.7191L265.871 49.8177L262.618 53.6073L259.684 57.6667L256.328 61.641L251.672 63.8881L246.748 65.3077L241.849 67.0657L236.685 66.2898L231.823 64.8926L226.571 64.9427L221.723 63.0536L217.484 60.0433L214.577 55.6925L211.081 52.0319L208.424 47.6915L205.961 43.1029L206.004 37.8636L206.255 32.8354L205.064 27.531L206.692 22.5334L209.334 18.0234L213.603 14.8428L216.276 10.5499L220.423 7.70818L224.106 3.82181L229.545 3.8402L234.327 2.2797L239.346 2.66497L244.506 2.09158L249.508 3.34632L254.348 5.24857L258.052 8.94476L261.367 12.7393L265.65 15.8459L266.585 21.1126L270.465 25.1197L270.474 30.4151L269.249 35.4701Z" fill="#E60012"/>
<path d="M221.112 39.2543L220.308 41.5073C220.194 41.8263 220.024 42.0014 219.7 41.9878C219.296 41.9709 218.678 41.7022 218.698 41.2376C218.702 41.1366 218.727 41.0365 218.771 40.9372L219.594 38.7254C219.708 38.4064 219.878 38.2314 220.202 38.2449C220.586 38.261 221.204 38.5094 221.186 38.9538C221.181 39.0548 221.157 39.155 221.112 39.2543ZM236.792 32.7466L235.376 32.6874L235.212 36.6063L236.062 36.6418C236.466 36.6588 236.681 36.8499 236.659 37.3751C236.637 37.9003 236.407 38.0728 236.002 38.0559L220.116 37.3914C219.711 37.3745 219.515 37.2044 219.538 36.659C219.561 36.1136 219.77 35.9604 220.175 35.9774L221.025 36.0129L221.189 32.094L219.792 32.0356C219.388 32.0187 219.192 31.8486 219.215 31.3032C219.238 30.7578 219.448 30.5845 219.852 30.6014L221.249 30.6598L221.362 27.9529L220.948 28.6439C220.795 28.9005 220.607 29.0343 220.364 29.0242C220 29.0089 219.347 28.6376 219.363 28.2336C219.369 28.1124 219.414 27.9929 219.501 27.8548L221.853 23.9668C222.006 23.7101 222.214 23.5771 222.477 23.5881C222.841 23.6034 223.497 23.9141 223.48 24.3181C223.475 24.4393 223.43 24.5588 223.343 24.6969L222.93 25.3676L236.489 25.9347C236.914 25.9525 237.129 26.1436 237.106 26.689C237.084 27.2344 236.853 27.4069 236.428 27.3892L235.599 27.3544L235.436 31.2531L236.852 31.3124C237.257 31.3293 237.472 31.5204 237.449 32.0659C237.426 32.6113 237.197 32.7636 236.792 32.7466ZM225.621 26.9372L222.97 26.8263L222.807 30.725L225.458 30.8358L225.621 26.9372ZM225.398 32.2701L222.747 32.1592L222.583 36.0781L225.234 36.189L225.398 32.2701ZM225.185 42.2172C224.821 42.202 224.666 42.0134 224.58 41.6657L224.066 39.3981C224.05 39.2962 224.033 39.2146 224.038 39.1136C224.057 38.649 224.65 38.5321 225.034 38.5482C225.399 38.5634 225.553 38.752 225.639 39.1199L226.151 41.4077C226.167 41.5096 226.184 41.5912 226.181 41.672C226.162 42.1164 225.549 42.2324 225.185 42.2172ZM229.811 27.1124L227.18 27.0023L227.017 30.901L229.647 31.0111L229.811 27.1124ZM229.587 32.4453L226.957 32.3353L226.793 36.2542L229.424 36.3642L229.587 32.4453ZM230.408 42.3952C230.084 42.3816 229.91 42.1922 229.822 41.8648L229.228 39.5937C229.191 39.491 229.175 39.3892 229.18 39.2882C229.198 38.8438 229.832 38.7286 230.196 38.7439C230.54 38.7582 230.715 38.9275 230.802 39.2751L231.397 41.5259C231.433 41.6286 231.449 41.7305 231.445 41.8315C231.427 42.2759 230.772 42.4104 230.408 42.3952ZM234.02 27.2884L231.389 27.1784L231.226 31.0771L233.857 31.1871L234.02 27.2884ZM233.797 32.6214L231.166 32.5113L231.002 36.4302L233.633 36.5403L233.797 32.6214ZM235.695 42.4949C235.392 42.4822 235.217 42.2928 235.108 41.9847L234.369 39.7885C234.334 39.6656 234.318 39.5638 234.322 39.4628C234.339 39.0588 234.954 38.8822 235.319 38.8974C235.642 38.9109 235.817 39.1004 235.925 39.4287L236.645 41.6038C236.68 41.7267 236.696 41.8285 236.692 41.9295C236.675 42.3335 236.039 42.5093 235.695 42.4949Z" fill="#FFF100"/>
<path d="M247.219 32.5352L244.609 32.426L244.512 34.7289C244.62 34.5715 245.034 34.3864 245.216 34.394C245.398 34.4016 245.535 34.5086 245.669 34.6963L247.43 37.1982C247.545 37.3649 247.599 37.5089 247.593 37.6503C247.579 37.9937 246.993 38.4346 246.649 38.4202C246.467 38.4126 246.329 38.3057 246.196 38.0977L244.474 35.6379L244.204 42.102C244.185 42.5667 243.973 42.7804 243.366 42.755C242.759 42.7296 242.586 42.4998 242.605 42.0352L242.887 35.3084L240.426 39.8395C240.295 40.0768 240.127 40.2115 239.925 40.203C239.56 40.1878 238.949 39.7777 238.965 39.3939C238.97 39.2727 239.016 39.1532 239.082 39.0143L242.706 32.3464L240.156 32.2398C239.691 32.2203 239.476 32.0292 239.501 31.4232C239.527 30.8172 239.758 30.6245 240.223 30.6439L243.077 30.7633L243.308 25.2284C243.328 24.7637 243.52 24.529 244.127 24.5544C244.734 24.5797 244.926 24.8306 244.907 25.2952L244.675 30.8302L247.286 30.9394C247.752 30.9588 247.986 31.171 247.961 31.777C247.935 32.383 247.685 32.5547 247.219 32.5352ZM241.322 29.5769C241.018 29.5642 240.863 29.3959 240.795 29.0895L240.016 25.9001C240 25.7982 239.983 25.7166 239.987 25.6358C240.004 25.2116 240.558 25.0728 240.922 25.0881C241.225 25.1008 241.381 25.2691 241.449 25.5755L242.227 28.7851C242.243 28.887 242.26 28.9686 242.256 29.0494C242.239 29.4736 241.686 29.5922 241.322 29.5769ZM248.152 26.2404L247.109 29.3536C247.016 29.6532 246.847 29.808 246.543 29.7953C246.199 29.7809 245.639 29.6158 245.656 29.1916C245.66 29.1108 245.683 29.0309 245.708 28.9307L246.751 25.7973C246.845 25.4977 247.013 25.3429 247.317 25.3556C247.681 25.3708 248.221 25.5552 248.203 25.9795C248.2 26.0603 248.176 26.1402 248.152 26.2404ZM256.943 38.0413L255.674 38.3323L255.497 42.5744C255.477 43.039 255.266 43.2527 254.659 43.2273C254.051 43.2019 253.879 42.9721 253.898 42.5075L254.058 38.6896L249.493 39.7331C249.391 39.749 249.309 39.7659 249.208 39.7616C248.743 39.7422 248.546 39.1066 248.563 38.7026C248.577 38.3794 248.766 38.2052 249.094 38.138L254.129 36.9928L254.601 25.7007C254.62 25.2361 254.813 25.0013 255.42 25.0267C256.027 25.0521 256.219 25.3029 256.2 25.7675L255.745 36.6354L256.584 36.4479C256.686 36.4319 256.788 36.416 256.869 36.4194C257.153 36.4312 257.347 36.6215 257.45 37.071C257.485 37.2141 257.499 37.3563 257.495 37.4573C257.48 37.8007 257.292 37.9547 256.943 38.0413ZM252.805 34.2258C252.63 34.5422 252.442 34.676 252.239 34.6675C252.138 34.6633 252.018 34.6178 251.899 34.5522L249.644 33.2234C249.426 33.0929 249.291 32.9254 249.301 32.7032C249.314 32.38 249.641 31.8271 250.026 31.8431C250.127 31.8474 250.247 31.8928 250.366 31.9585L252.621 33.2873C252.839 33.4178 252.975 33.5651 252.965 33.7873C252.96 33.9085 252.894 34.0474 252.805 34.2258ZM253.161 29.1008C252.966 29.4164 252.778 29.5502 252.575 29.5417C252.474 29.5375 252.354 29.492 252.235 29.4263L249.981 28.0774C249.763 27.9469 249.648 27.8004 249.656 27.5984C249.669 27.2752 250.018 26.7029 250.382 26.7181C250.483 26.7224 250.603 26.7678 250.722 26.8335L252.977 28.1623C253.195 28.2928 253.331 28.4401 253.321 28.6623C253.316 28.7835 253.25 28.9224 253.161 29.1008Z" fill="#FFF100"/>
<g filter="url(#filter0_d_22_27680)">
<path d="M244.433 112.58V117.472H258.693V112.58H244.433ZM238.049 106.971H265.435V123.081H238.049V106.971ZM251.056 90.3845C250.181 91.9358 249.047 93.5865 247.655 95.3366C246.303 97.047 244.771 98.6977 243.061 100.289C241.35 101.88 239.561 103.232 237.691 104.346C237.333 103.431 236.796 102.357 236.08 101.124C235.404 99.8512 234.748 98.8171 234.111 98.0215C235.981 96.9476 237.771 95.6151 239.481 94.024C241.191 92.3932 242.723 90.6629 244.075 88.8332C245.467 86.9637 246.581 85.1937 247.416 83.5231H254.218C255.411 85.313 256.744 87.0831 258.216 88.8332C259.687 90.5436 261.259 92.0949 262.929 93.487C264.639 94.8394 266.35 95.9333 268.06 96.7686C267.384 97.6834 266.688 98.7972 265.972 100.11C265.256 101.383 264.639 102.556 264.122 103.63C262.452 102.596 260.801 101.363 259.17 99.9308C257.539 98.4591 256.008 96.8879 254.576 95.2173C253.184 93.5467 252.011 91.9358 251.056 90.3845ZM248.013 100.826H254.994V112.341C254.994 114.767 254.815 117.233 254.457 119.739C254.099 122.245 253.363 124.731 252.249 127.197C251.175 129.624 249.584 131.931 247.476 134.119C245.368 136.306 242.524 138.275 238.944 140.025C238.626 139.468 238.168 138.832 237.572 138.116C237.015 137.44 236.418 136.764 235.782 136.087C235.185 135.451 234.628 134.914 234.111 134.477C237.214 133.045 239.68 131.454 241.51 129.703C243.379 127.913 244.771 126.044 245.686 124.095C246.641 122.146 247.257 120.157 247.536 118.128C247.854 116.1 248.013 114.131 248.013 112.222V100.826ZM255.531 119.739C256.565 122.762 258.136 125.507 260.244 127.973C262.352 130.439 264.878 132.309 267.822 133.582C267.305 134.059 266.728 134.656 266.091 135.371C265.455 136.127 264.838 136.883 264.242 137.639C263.645 138.434 263.168 139.15 262.81 139.787C259.508 137.997 256.784 135.471 254.636 132.209C252.488 128.948 250.797 125.288 249.564 121.231L255.531 119.739ZM242.226 98.2005H260.543V104.227H242.226V98.2005ZM217.286 94.74H234.648V100.647H217.286V94.74ZM217.286 103.749H234.648V109.716H217.286V103.749ZM213.587 112.818H234.171V118.904H213.587V112.818ZM223.61 89.3702H229.815V116.219H223.61V89.3702ZM225.519 121.529L228.503 120.515C229.099 121.708 229.636 123.021 230.114 124.453C230.631 125.845 230.989 127.058 231.188 128.092L228.025 129.226C227.827 128.192 227.488 126.959 227.011 125.527C226.574 124.055 226.076 122.723 225.519 121.529ZM221.701 122.245L224.923 121.708C225.4 123.26 225.798 124.93 226.116 126.72C226.474 128.51 226.693 130.041 226.772 131.314L223.312 132.03C223.272 130.718 223.093 129.146 222.775 127.317C222.496 125.487 222.139 123.797 221.701 122.245ZM217.584 122.544L220.866 122.186C221.184 123.936 221.383 125.845 221.462 127.913C221.542 129.982 221.542 131.752 221.462 133.224L218.002 133.701C218.081 132.189 218.081 130.399 218.002 128.331C217.962 126.263 217.823 124.334 217.584 122.544ZM213.109 121.231L217.405 122.007C217.326 123.876 217.166 125.706 216.928 127.496C216.729 129.286 216.391 130.956 215.914 132.508C215.476 134.019 214.84 135.352 214.004 136.505L210.066 134.357C210.782 133.323 211.339 132.13 211.737 130.777C212.135 129.385 212.433 127.874 212.632 126.243C212.871 124.572 213.03 122.902 213.109 121.231ZM213.587 85.671H235.841V91.9954H220.03V117.054H213.587V85.671ZM230.71 112.818H237.214C237.214 112.818 237.214 113.156 237.214 113.833C237.214 114.469 237.194 114.986 237.154 115.384C236.955 120.157 236.736 124.055 236.498 127.078C236.299 130.061 236.04 132.368 235.722 133.999C235.404 135.59 235.006 136.704 234.529 137.34C234.012 138.056 233.455 138.573 232.858 138.892C232.301 139.21 231.665 139.429 230.949 139.548C230.313 139.707 229.517 139.787 228.562 139.787C227.648 139.826 226.673 139.826 225.639 139.787C225.599 138.832 225.44 137.778 225.162 136.624C224.883 135.471 224.505 134.496 224.028 133.701C224.744 133.78 225.38 133.84 225.937 133.88C226.534 133.88 227.011 133.88 227.369 133.88C227.727 133.88 228.025 133.84 228.264 133.761C228.503 133.641 228.741 133.442 228.98 133.164C229.258 132.726 229.497 131.871 229.696 130.598C229.895 129.286 230.074 127.297 230.233 124.632C230.432 121.967 230.591 118.407 230.71 113.952V112.818Z" fill="#B6D43E"/>
</g>
<g filter="url(#filter1_d_22_27680)">
<path d="M153.207 83.7617L160.665 86.029C159.511 89.41 158.119 92.8108 156.488 96.2316C154.857 99.6523 153.087 102.914 151.178 106.017C149.269 109.079 147.3 111.764 145.271 114.071C145.033 113.435 144.655 112.6 144.138 111.565C143.621 110.491 143.084 109.417 142.527 108.343C142.01 107.27 141.512 106.414 141.035 105.778C142.666 103.988 144.237 101.92 145.749 99.5728C147.3 97.1862 148.712 94.6405 149.985 91.9357C151.258 89.231 152.332 86.5063 153.207 83.7617ZM148.553 100.527L156.011 93.0097L156.071 93.0694V139.787H148.553V100.527ZM174.03 83.8214H181.786V139.429H174.03V83.8214ZM159.352 93.7257H197.895V101.243H159.352V93.7257ZM166.751 123.021H189.304V130.061H166.751V123.021ZM184.411 98.0215C185.445 101.323 186.738 104.664 188.289 108.045C189.88 111.386 191.65 114.529 193.6 117.472C195.549 120.376 197.577 122.862 199.685 124.93C198.77 125.646 197.736 126.601 196.583 127.794C195.429 128.948 194.494 130.061 193.779 131.135C191.67 128.629 189.662 125.686 187.752 122.305C185.883 118.924 184.192 115.284 182.681 111.386C181.209 107.488 179.916 103.57 178.803 99.6325L184.411 98.0215ZM171.762 97.3652L177.43 98.9165C176.317 103.093 174.984 107.19 173.433 111.207C171.882 115.225 170.112 118.964 168.123 122.424C166.134 125.845 163.966 128.808 161.619 131.314C161.182 130.678 160.625 129.982 159.949 129.226C159.273 128.47 158.576 127.734 157.861 127.018C157.184 126.302 156.548 125.726 155.951 125.288C158.219 123.22 160.347 120.694 162.335 117.711C164.364 114.688 166.194 111.426 167.824 107.926C169.455 104.386 170.768 100.866 171.762 97.3652Z" fill="#B6D43E"/>
</g>
<g filter="url(#filter2_d_22_27680)">
<path d="M75.1046 119.918H128.624V126.362H75.1046V119.918ZM75.2239 93.0097H128.385V99.4535H75.2239V93.0097ZM77.6702 103.809H126.058V109.954H77.6702V103.809ZM80.6534 112.102H123.313V117.77H80.6534V112.102ZM97.7174 106.971H105.593V139.846H97.7174V106.971ZM92.6459 83.4634H99.9846V96.0526H92.6459V83.4634ZM103.624 83.4634H111.082V95.5753H103.624V83.4634ZM96.4644 122.842L102.67 125.646C100.76 127.715 98.493 129.624 95.8678 131.374C93.2426 133.124 90.4383 134.675 87.4551 136.028C84.4719 137.38 81.4091 138.454 78.2668 139.25C77.9088 138.573 77.4315 137.818 76.8348 136.982C76.278 136.187 75.6813 135.391 75.0449 134.596C74.4085 133.84 73.792 133.184 73.1953 132.627C76.2183 132.07 79.2015 131.314 82.145 130.36C85.0884 129.365 87.7932 128.232 90.2593 126.959C92.7653 125.646 94.8336 124.274 96.4644 122.842ZM107.025 122.663C108.218 123.777 109.65 124.851 111.321 125.885C112.992 126.879 114.841 127.774 116.87 128.57C118.938 129.365 121.086 130.061 123.313 130.658C125.581 131.255 127.908 131.732 130.294 132.09C129.698 132.687 129.061 133.403 128.385 134.238C127.709 135.073 127.052 135.928 126.416 136.803C125.819 137.718 125.322 138.534 124.924 139.25C122.538 138.653 120.211 137.897 117.944 136.982C115.676 136.107 113.509 135.073 111.44 133.88C109.372 132.647 107.443 131.294 105.653 129.823C103.863 128.351 102.272 126.78 100.88 125.109L107.025 122.663ZM117.287 83.881L125.64 85.7903C124.646 87.4211 123.671 88.9923 122.717 90.5038C121.802 92.0153 120.947 93.308 120.151 94.382L113.767 92.413C114.205 91.6175 114.642 90.7226 115.08 89.7281C115.557 88.7337 115.975 87.7194 116.333 86.6853C116.73 85.6511 117.049 84.7163 117.287 83.881ZM109.471 96.7089L117.884 98.6181C117.049 100.09 116.253 101.462 115.497 102.735C114.742 104.008 114.046 105.102 113.409 106.017L106.667 104.167C107.184 103.053 107.701 101.82 108.218 100.468C108.735 99.0756 109.153 97.8226 109.471 96.7089ZM79.3408 85.9693L86.1425 83.6424C86.9778 84.9152 87.8131 86.3472 88.6484 87.9382C89.5235 89.4895 90.1599 90.8419 90.5577 91.9954L83.3383 94.561C83.0598 93.4075 82.5229 92.0352 81.7273 90.4441C80.9318 88.8133 80.1363 87.3217 79.3408 85.9693ZM86.8585 99.4535L94.5552 98.2602C95.0325 99.0557 95.5098 99.9705 95.9871 101.005C96.4645 101.999 96.8026 102.874 97.0014 103.63L88.9467 105.002C88.7479 104.286 88.4495 103.391 88.0518 102.317C87.654 101.243 87.2562 100.289 86.8585 99.4535Z" fill="#B6D43E"/>
</g>
<g filter="url(#filter3_d_22_27680)">
<path d="M54.5801 83.8214L59.1743 89.6089C56.8673 90.126 54.3614 90.5834 51.6566 90.9812C48.9916 91.3391 46.2271 91.6772 43.3632 91.9954C40.4993 92.3137 37.6354 92.5722 34.7715 92.7711C31.9077 92.9302 29.1432 93.0694 26.4782 93.1887C26.3986 92.3534 26.16 91.359 25.7622 90.2055C25.4042 89.052 25.0462 88.0974 24.6883 87.3416C27.3135 87.2223 29.9984 87.0632 32.743 86.8643C35.4875 86.6256 38.1724 86.3472 40.7977 86.029C43.4229 85.7108 45.9089 85.3727 48.2557 85.0147C50.6025 84.6169 52.7107 84.2192 54.5801 83.8214ZM26.4782 94.9787L32.4446 93.0694C33.1208 94.1831 33.7771 95.456 34.4136 96.8879C35.0898 98.2801 35.5671 99.4734 35.8455 100.468L29.5807 102.675C29.3421 101.641 28.9244 100.408 28.3278 98.9762C27.7311 97.5045 27.1146 96.172 26.4782 94.9787ZM37.8741 93.7257L44.0195 92.3534C44.4571 93.5467 44.9145 94.8593 45.3918 96.2913C45.9089 97.7232 46.2669 98.9364 46.4658 99.9308L40.022 101.601C39.8629 100.607 39.5646 99.3541 39.127 97.8426C38.7293 96.3311 38.3116 94.9588 37.8741 93.7257ZM52.0146 91.5181L59.3533 93.6064C58.2793 95.6748 57.1855 97.7232 56.0718 99.7518C54.9978 101.78 53.9835 103.491 53.0289 104.883L47.2414 102.914C47.8381 101.88 48.4347 100.706 49.0313 99.3938C49.628 98.0414 50.1849 96.6891 50.702 95.3367C51.2588 93.9445 51.6964 92.6716 52.0146 91.5181ZM23.9723 102.019H60.6063V111.864H53.3272V108.463H30.953V111.804H23.9723V102.019ZM27.1345 113.057H52.4919V119.441H27.1345V113.057ZM50.0456 113.057H51.4776L52.7305 112.759L57.3247 114.549C56.1712 118.327 54.5801 121.629 52.5516 124.453C50.5627 127.277 48.1762 129.683 45.3918 131.672C42.6075 133.661 39.5049 135.292 36.0842 136.565C32.7032 137.877 29.0438 138.931 25.1059 139.727C24.907 139.091 24.6087 138.335 24.2109 137.46C23.853 136.585 23.4353 135.729 22.958 134.894C22.5204 134.059 22.0829 133.363 21.6454 132.806C25.2252 132.329 28.5466 131.593 31.6093 130.598C34.7119 129.604 37.4962 128.351 39.9624 126.839C42.4285 125.288 44.4969 123.459 46.1675 121.35C47.8778 119.202 49.1706 116.736 50.0456 113.952V113.057ZM35.0699 118.546C37.178 122.484 40.3999 125.666 44.7355 128.092C49.1109 130.519 54.4608 132.17 60.7852 133.045C60.2284 133.522 59.6516 134.178 59.055 135.014C58.4583 135.849 57.8816 136.684 57.3247 137.519C56.8076 138.355 56.39 139.13 56.0718 139.846C49.2302 138.534 43.5621 136.286 39.0674 133.104C34.6124 129.922 31.0326 125.686 28.3278 120.396L35.0699 118.546ZM4.40234 113.296C6.78892 112.779 9.65282 112.102 12.994 111.267C16.3352 110.432 19.6963 109.577 23.0773 108.701L24.0916 115.802C21.0288 116.677 17.9263 117.572 14.784 118.486C11.6416 119.362 8.73796 120.157 6.07295 120.873L4.40234 113.296ZM5.17798 94.6207H23.495V101.9H5.17798V94.6207ZM11.2638 83.5828H18.5428V131.613C18.5428 133.363 18.3638 134.775 18.0058 135.849C17.6478 136.923 16.9915 137.778 16.0369 138.414C15.0823 139.011 13.9089 139.409 12.5167 139.608C11.1643 139.807 9.49371 139.906 7.50489 139.906C7.46512 138.951 7.24635 137.738 6.84859 136.266C6.45082 134.835 6.01328 133.601 5.53597 132.567C6.57015 132.607 7.52478 132.647 8.39986 132.687C9.31472 132.687 9.95114 132.667 10.3091 132.627C10.6671 132.627 10.9058 132.567 11.0251 132.448C11.1842 132.329 11.2638 132.05 11.2638 131.613V83.5828Z" fill="#B6D43E"/>
</g>
<path d="M212.179 84.2668V117.5H229.136C229.046 119.728 228.944 121.637 228.826 123.228C228.823 123.27 228.82 123.312 228.817 123.354C228.781 123.253 228.745 123.151 228.707 123.049C228.229 121.617 227.692 120.305 227.095 119.112L224.113 120.125C224.67 121.319 225.167 122.652 225.604 124.123C226.081 125.555 226.42 126.788 226.619 127.823L228.533 127.136C228.455 127.946 228.374 128.632 228.289 129.195C228.09 130.467 227.851 131.322 227.573 131.76C227.334 132.038 227.096 132.237 226.857 132.357C226.618 132.436 226.32 132.476 225.962 132.476H224.53C223.973 132.436 223.337 132.377 222.621 132.297C223.098 133.093 223.476 134.067 223.754 135.221C224.033 136.374 224.192 137.429 224.232 138.383C225.266 138.423 226.241 138.423 227.156 138.383C228.11 138.383 228.905 138.303 229.542 138.144C230.257 138.024 230.894 137.806 231.451 137.488C232.047 137.169 232.605 136.653 233.122 135.937C233.417 135.543 233.681 134.965 233.916 134.205C234.066 134.358 234.219 134.518 234.375 134.684C235.011 135.36 235.608 136.036 236.165 136.712C236.761 137.428 237.219 138.065 237.537 138.621C240.893 136.981 243.602 135.148 245.665 133.122L246.069 132.715C248.05 130.659 249.573 128.497 250.641 126.231C251.414 127.834 252.276 129.359 253.229 130.806C255.243 133.863 257.763 136.274 260.791 138.038L261.403 138.383C261.761 137.747 262.238 137.03 262.835 136.235C263.431 135.479 264.048 134.724 264.684 133.968C265.321 133.252 265.898 132.655 266.415 132.178C263.655 130.985 261.262 129.267 259.237 127.025L258.837 126.57C257.534 125.045 256.436 123.414 255.544 121.677H264.028V105.568H253.587V102.823H259.135V99.679C260.319 100.631 261.511 101.481 262.715 102.226C263.103 101.42 263.547 100.559 264.046 99.6418L264.565 98.7063C265.281 97.3937 265.977 96.2794 266.653 95.3645C264.943 94.5292 263.232 93.4356 261.522 92.0833C259.851 90.6911 258.28 89.1393 256.808 87.429C255.337 85.679 254.004 83.9091 252.811 82.1194H246.009C245.174 83.7898 244.061 85.5597 242.669 87.429C241.316 89.2587 239.784 90.9895 238.074 92.6204C236.528 94.0581 234.916 95.2826 233.241 96.2981V93.3362H228.409V90.592H234.434V84.2668H212.179ZM211.703 119.827C211.623 121.498 211.464 123.169 211.225 124.839L211.146 125.445C210.95 126.846 210.678 128.155 210.33 129.373C209.932 130.726 209.376 131.919 208.66 132.953L212.597 135.101C213.432 133.947 214.069 132.615 214.506 131.104C214.984 129.552 215.322 127.882 215.521 126.092C215.76 124.302 215.918 122.472 215.998 120.603L211.703 119.827ZM216.177 121.14C216.416 122.93 216.555 124.859 216.594 126.927C216.674 128.995 216.674 130.786 216.594 132.297L220.055 131.82C220.135 130.348 220.135 128.578 220.055 126.51C219.976 124.442 219.777 122.532 219.459 120.781L216.177 121.14ZM233.241 97.3401C233.708 98.0096 234.186 98.8024 234.673 99.72C235.389 100.953 235.926 102.028 236.284 102.943C237.852 102.008 239.363 100.903 240.819 99.6331V102.823H246.606V105.568H236.642V121.677H244.744C244.599 122.016 244.444 122.354 244.279 122.691C243.364 124.64 241.972 126.509 240.102 128.299C238.614 129.722 236.706 131.04 234.377 132.252C234.666 130.647 234.905 128.454 235.09 125.674C235.329 122.651 235.548 118.753 235.747 113.98C235.786 113.582 235.806 113.065 235.806 112.429V111.414H228.409V108.312H233.241V102.346H228.409V99.2434H233.241V97.3401ZM220.294 120.841C220.731 122.392 221.089 124.084 221.368 125.913C221.686 127.743 221.865 129.314 221.905 130.626L225.366 129.91C225.286 128.638 225.067 127.106 224.71 125.317C224.391 123.527 223.993 121.856 223.516 120.305L220.294 120.841ZM237.995 124.485C237.96 124.973 237.926 125.444 237.89 125.896L237.889 125.895C237.874 126.122 237.857 126.346 237.841 126.567C237.951 126.468 238.058 126.37 238.162 126.271C238.784 125.675 239.336 125.079 239.823 124.485H237.995ZM257.286 111.176V116.069H253.324C253.49 114.42 253.577 112.789 253.585 111.176H257.286ZM246.602 111.176C246.586 112.766 246.462 114.397 246.226 116.069H243.026V111.176H246.602ZM222.204 111.414H218.624V108.312H222.204V111.414ZM222.204 102.346H218.624V99.2434H222.204V102.346ZM249.649 88.9807C250.604 90.532 251.777 92.1432 253.17 93.8137L253.711 94.4358C254.429 95.2472 255.172 96.0341 255.938 96.7971H243.76C244.647 95.8613 245.477 94.9074 246.248 93.9329C247.64 92.1827 248.774 90.532 249.649 88.9807ZM222.204 93.3362H218.624V90.592H222.204V93.3362ZM237.242 89.4905C238.398 88.297 239.454 87.0541 240.41 85.761L240.417 85.7522C241.733 83.9844 242.752 82.3552 243.498 80.8635L243.593 80.6897C244.096 79.8399 245.012 79.3118 246.009 79.3118H252.811L252.986 79.3167C253.858 79.3709 254.659 79.8294 255.147 80.5618C256.274 82.2516 257.536 83.9305 258.937 85.5979L259.457 86.1897C260.674 87.5481 261.956 88.7886 263.304 89.9133C264.865 91.1433 266.393 92.1131 267.885 92.842C268.634 93.2079 269.182 93.8877 269.38 94.6975C269.579 95.5073 269.406 96.363 268.911 97.0334C268.33 97.8187 267.702 98.8175 267.03 100.05C267.024 100.061 267.018 100.072 267.012 100.082C266.392 101.184 265.858 102.197 265.404 103.121C266.258 103.603 266.836 104.517 266.836 105.568V121.677C266.835 123.228 265.579 124.485 264.028 124.485H260.754C260.826 124.571 260.898 124.658 260.971 124.744C262.805 126.889 264.983 128.5 267.529 129.601C268.401 129.978 269.023 130.77 269.182 131.706C269.342 132.643 269.017 133.596 268.319 134.24C267.894 134.632 267.39 135.15 266.804 135.808C266.202 136.524 265.619 137.241 265.054 137.955C264.521 138.669 264.126 139.268 263.85 139.759C263.098 141.096 261.412 141.582 260.064 140.851C256.34 138.832 253.275 135.982 250.883 132.35C250.764 132.169 250.647 131.986 250.531 131.803C249.796 132.784 248.982 133.738 248.09 134.663C245.696 137.147 242.557 139.292 238.77 141.144C237.44 141.794 235.834 141.3 235.099 140.015C234.929 139.718 234.667 139.335 234.289 138.858C233.856 139.269 233.377 139.632 232.843 139.925C231.999 140.408 231.082 140.718 230.126 140.89C229.228 141.103 228.235 141.187 227.198 141.19C226.221 141.23 225.196 141.23 224.124 141.189C222.661 141.132 221.487 139.961 221.426 138.499C221.396 137.765 221.27 136.895 221.025 135.879C220.903 135.372 220.763 134.938 220.615 134.569C220.557 134.58 220.498 134.593 220.439 134.601L216.978 135.078C216.628 135.127 216.277 135.107 215.941 135.027C215.623 135.626 215.268 136.201 214.872 136.748C214.043 137.893 212.493 138.243 211.253 137.567L207.315 135.418C206.616 135.037 206.111 134.377 205.927 133.602C205.743 132.827 205.898 132.01 206.351 131.355C206.877 130.595 207.313 129.68 207.636 128.581C207.986 127.353 208.256 125.995 208.438 124.499L208.446 124.442C208.672 122.858 208.823 121.275 208.898 119.694L208.909 119.543C208.96 119.035 209.149 118.554 209.45 118.15C209.4 117.941 209.372 117.724 209.372 117.5V84.2668C209.372 82.7164 210.629 81.4594 212.179 81.4592H234.434C235.985 81.4592 237.242 82.7163 237.242 84.2668V89.4905Z" fill="#4D4D4D"/>
<path d="M196.488 92.3215H180.379V82.4172H172.622V92.3215H157.945V99.84H169.125C168.349 102.059 167.447 104.287 166.417 106.522C164.786 110.022 162.957 113.284 160.929 116.307L160.554 116.861C158.708 119.552 156.744 121.855 154.663 123.773V95.6906C154.803 95.4038 154.943 95.1164 155.081 94.8273C156.712 91.4067 158.104 88.0061 159.258 84.6252L151.8 82.3576C150.925 85.102 149.851 87.8268 148.578 90.5314L148.094 91.5383C146.949 93.8703 145.699 96.0808 144.342 98.1691L143.771 99.0363C142.436 101.029 141.055 102.808 139.628 104.374C140.105 105.011 140.603 105.866 141.12 106.94C141.677 108.013 142.213 109.087 142.73 110.161C143.247 111.195 143.626 112.031 143.864 112.667C144.977 111.402 146.069 110.021 147.145 108.529V138.383H154.663V123.974C155.225 124.4 155.822 124.946 156.453 125.614C157.169 126.33 157.866 127.067 158.542 127.822C159.218 128.578 159.774 129.274 160.212 129.91C162.03 127.969 163.74 125.752 165.344 123.261V128.657H172.622V138.025H180.379V128.657H187.896V123.513C189.335 125.821 190.825 127.894 192.371 129.732C192.998 128.792 193.791 127.821 194.753 126.82L195.176 126.39C196.329 125.197 197.363 124.242 198.278 123.527C196.17 121.458 194.141 118.972 192.192 116.069C190.243 113.125 188.473 109.982 186.882 106.641C185.834 104.356 184.906 102.088 184.094 99.84H196.488V92.3215ZM172.622 121.617H166.364C166.482 121.42 166.599 121.221 166.716 121.021C168.705 117.56 170.474 113.821 172.025 109.804C172.228 109.279 172.427 108.753 172.622 108.226V121.617ZM180.379 107.543C180.67 108.357 180.967 109.171 181.273 109.983C182.785 113.881 184.476 117.521 186.346 120.902C186.482 121.143 186.622 121.38 186.76 121.617H180.379V107.543ZM157.472 116.357C157.849 115.839 158.222 115.303 158.592 114.749L158.597 114.742C160.54 111.847 162.299 108.713 163.872 105.336C164.286 104.438 164.676 103.541 165.047 102.648H157.945C157.784 102.648 157.626 102.63 157.472 102.604V116.357ZM183.186 89.5139H196.488C198.039 89.5139 199.296 90.771 199.296 92.3215V99.84C199.296 101.39 198.039 102.648 196.488 102.648H188.2C188.591 103.584 189 104.525 189.434 105.469C190.964 108.678 192.661 111.689 194.523 114.503C196.385 117.276 198.295 119.609 200.244 121.522C200.821 122.088 201.126 122.876 201.081 123.683C201.036 124.49 200.645 125.239 200.009 125.737C199.229 126.348 198.293 127.206 197.194 128.342C197.183 128.353 197.172 128.364 197.161 128.375C196.106 129.43 195.299 130.403 194.708 131.289C194.218 132.024 193.409 132.485 192.527 132.534C191.645 132.583 190.791 132.215 190.223 131.539C190.031 131.312 189.842 131.08 189.652 130.846C189.171 131.232 188.561 131.465 187.896 131.465H183.186V138.025C183.186 139.575 181.93 140.832 180.379 140.832H172.622C171.072 140.832 169.814 139.575 169.814 138.025V131.465H165.344C164.561 131.465 163.853 131.144 163.344 130.627C162.987 131.037 162.627 131.439 162.262 131.829C161.68 132.45 160.849 132.774 160.001 132.71C159.153 132.646 158.38 132.202 157.898 131.501C157.773 131.318 157.63 131.125 157.472 130.92V138.383C157.472 139.934 156.214 141.191 154.663 141.191H147.145C145.595 141.19 144.338 139.933 144.338 138.383V115.433C144.018 115.488 143.687 115.489 143.358 115.429C142.388 115.251 141.582 114.577 141.235 113.654C141.047 113.151 140.719 112.415 140.22 111.417C140.213 111.405 140.207 111.392 140.201 111.379C139.696 110.331 139.171 109.281 138.627 108.232C138.614 108.207 138.602 108.182 138.59 108.157C138.117 107.175 137.71 106.496 137.382 106.059C136.573 104.98 136.645 103.479 137.553 102.483C139.064 100.824 140.542 98.8834 141.981 96.6486L141.987 96.6389C143.465 94.3647 144.816 91.931 146.037 89.3361C147.26 86.7384 148.289 84.1282 149.125 81.5051L149.225 81.2385C149.785 79.9446 151.239 79.2524 152.616 79.6711L160.074 81.9387C160.802 82.16 161.41 82.6676 161.757 83.3449C162.104 84.0221 162.161 84.8113 161.915 85.5314C161.463 86.8572 160.975 88.1847 160.452 89.5139H169.814V82.4172C169.815 80.8668 171.072 79.6098 172.622 79.6096H180.379C181.929 79.6096 183.186 80.8667 183.186 82.4172V89.5139Z" fill="#4D4D4D"/>
<path d="M106.815 99.0637C106.352 100.273 105.888 101.387 105.425 102.406H94.5444L95.5981 102.226C95.3992 101.47 95.0607 100.595 94.5835 99.6008C94.3292 99.0499 94.0741 98.5333 93.8198 98.05H107.183C107.067 98.3794 106.944 98.7171 106.815 99.0637ZM98.5815 82.0598H91.2426V91.6057H86.3022L89.1547 90.592C88.757 89.4385 88.1197 88.0857 87.2446 86.5344C86.4093 84.9435 85.574 83.5113 84.7387 82.2385L77.937 84.5657C78.7325 85.918 79.5282 87.4095 80.3237 89.0403C80.7885 89.9698 81.1633 90.8255 81.4516 91.6057H73.8208V98.05H85.4555C85.8532 98.8852 86.2512 99.8396 86.6489 100.913C86.85 101.456 87.025 101.954 87.1753 102.406H76.267V108.551H96.3139V110.698H79.2504V116.366H96.3139V118.515H73.7016V124.958H89.9536C89.5972 125.158 89.232 125.358 88.8559 125.555C86.3898 126.828 83.6851 127.962 80.7417 128.956L79.6362 129.305C77.0521 130.097 74.4374 130.736 71.7924 131.223C72.3889 131.78 73.0048 132.436 73.6411 133.192C74.2774 133.987 74.8743 134.783 75.4311 135.578C75.8785 136.205 76.2595 136.787 76.5727 137.323L76.8637 137.846C79.6131 137.15 82.3016 136.241 84.9292 135.118L86.0522 134.624C89.0353 133.272 91.8392 131.72 94.4643 129.97C95.102 129.545 95.7185 129.11 96.3139 128.666V138.443H104.19V128.368C104.21 128.385 104.229 128.403 104.249 128.419C106.039 129.891 107.968 131.243 110.037 132.476C112.105 133.669 114.273 134.703 116.54 135.578C118.524 136.379 120.553 137.058 122.628 137.615L123.521 137.846C123.919 137.13 124.416 136.314 125.012 135.4C125.649 134.525 126.306 133.67 126.982 132.834C127.658 131.999 128.294 131.282 128.891 130.686C126.504 130.328 124.177 129.851 121.91 129.254C119.682 128.658 117.534 127.962 115.466 127.166C113.769 126.501 112.197 125.763 110.75 124.958H127.22V118.515H104.19V116.366H121.91V110.698H104.19V108.551H124.655V102.406H113.443C113.654 102.063 113.872 101.705 114.094 101.331C114.705 100.303 115.339 99.2082 116.001 98.05H126.982V91.6057H119.713C120.224 90.8503 120.759 90.016 121.314 89.0999C122.268 87.5886 123.243 86.0175 124.237 84.387L115.884 82.4768C115.646 83.3121 115.327 84.2473 114.929 85.2815C114.571 86.3157 114.154 87.3301 113.676 88.3245C113.239 89.3187 112.801 90.2136 112.364 91.009L114.298 91.6057H109.679V82.0598H102.221V91.6057H98.5815V82.0598ZM112.487 83.7991C112.777 83.0178 113.008 82.3215 113.184 81.7063C113.594 80.2716 115.055 79.4081 116.509 79.7405L124.863 81.6497C125.743 81.8509 126.473 82.4632 126.824 83.2952C127.175 84.1271 127.104 85.0769 126.634 85.8479C126.021 86.8537 125.413 87.8364 124.814 88.7981H126.982C128.532 88.7983 129.789 90.0552 129.79 91.6057V98.05C129.789 99.5959 128.54 100.849 126.996 100.857C127.29 101.301 127.462 101.833 127.462 102.406V108.551C127.462 110.08 126.239 111.321 124.718 111.355V115.707H127.22C128.771 115.707 130.028 116.964 130.028 118.515V124.958C130.028 126.276 129.12 127.377 127.896 127.68C128.364 127.761 128.834 127.838 129.307 127.909C130.355 128.067 131.225 128.801 131.557 129.808C131.889 130.814 131.626 131.922 130.876 132.671C130.365 133.183 129.794 133.822 129.164 134.601C128.534 135.379 127.922 136.175 127.328 136.99C126.773 137.842 126.324 138.58 125.975 139.209C125.358 140.32 124.073 140.878 122.84 140.57C120.343 139.945 117.905 139.154 115.53 138.198V138.198C113.13 137.272 110.83 136.175 108.634 134.908C108.623 134.902 108.611 134.895 108.599 134.888C108.056 134.564 107.523 134.232 106.998 133.892V138.443C106.997 139.993 105.74 141.25 104.19 141.25H96.3139C94.7633 141.25 93.5064 139.993 93.5063 138.443V133.89C91.496 135.09 89.3986 136.189 87.2114 137.181C84.0782 138.601 80.8575 139.731 77.5522 140.568C76.2972 140.885 74.988 140.304 74.3823 139.159C74.0986 138.624 73.6938 137.976 73.1469 137.21C73.1418 137.203 73.1364 137.196 73.1313 137.189C72.6172 136.454 72.064 135.717 71.4721 134.976C70.9016 134.3 70.3699 133.736 69.8764 133.276C69.1012 132.552 68.7998 131.454 69.0971 130.436C69.3947 129.418 70.2406 128.654 71.2836 128.462C72.3904 128.258 73.4914 128.025 74.5874 127.766H73.7016C72.1509 127.766 70.893 126.509 70.893 124.958V118.515C70.893 116.964 72.1509 115.707 73.7016 115.707H76.4419V111.359H76.267C74.7165 111.359 73.4597 110.102 73.4594 108.551V102.406C73.4594 101.833 73.6313 101.302 73.9253 100.858H73.8208C72.2702 100.858 71.0133 99.6005 71.0131 98.05V91.6057C71.0132 90.0551 72.2702 88.7981 73.8208 88.7981H77.059C76.541 87.7945 76.028 86.8581 75.517 85.9895C75.0894 85.2625 75.0112 84.3811 75.3042 83.5901C75.5971 82.7991 76.2307 82.1815 77.0288 81.9084L83.8305 79.5823L84.059 79.5139C85.2082 79.2265 86.427 79.6937 87.0864 80.6985C87.5391 81.3884 87.9884 82.1172 88.435 82.884V82.0598C88.435 80.5091 89.692 79.2522 91.2426 79.2522H98.5815C99.2763 79.2522 99.9106 79.506 100.401 79.9241C100.891 79.5058 101.526 79.2522 102.221 79.2522H109.679C111.23 79.2523 112.487 80.5092 112.487 82.0598V83.7991Z" fill="#4D4D4D"/>
<path d="M50.0737 111.654H25.731V118.037H30.4019L26.9243 118.991C28.6985 122.461 30.8493 125.478 33.3765 128.041C32.3592 128.457 31.3024 128.843 30.2056 129.195C27.1429 130.189 23.8215 130.924 20.2417 131.402C20.6792 131.958 21.1167 132.655 21.5542 133.49C22.0315 134.326 22.4492 135.181 22.8071 136.056C23.1055 136.712 23.3482 137.301 23.5347 137.823L23.7027 138.323C27.6405 137.528 31.3002 136.474 34.6812 135.161C36.4015 134.521 38.0407 133.789 39.6001 132.968C43.4509 135.303 48.0501 137.044 53.3989 138.186L54.6685 138.443C54.9867 137.727 55.4043 136.951 55.9214 136.115C56.4782 135.28 57.0553 134.445 57.6519 133.61C58.2483 132.775 58.8246 132.118 59.3814 131.641C54.5187 130.968 50.2334 129.833 46.523 128.243C48.2493 126.706 49.7916 124.975 51.148 123.049C53.1766 120.225 54.7679 116.924 55.9214 113.145L51.3267 111.355L50.0737 111.654ZM19.9468 118.106V128.608C23.0352 128.192 25.897 127.576 28.5396 126.772C27.0724 124.886 25.759 122.829 24.5982 120.605C23.6122 120.169 22.9234 119.185 22.9234 118.037V117.251C21.9353 117.534 20.9432 117.819 19.9468 118.106ZM46.1196 118.037C45.7011 118.699 45.2502 119.336 44.7642 119.947C43.4234 121.638 41.8253 123.149 39.9722 124.483C37.5771 122.647 35.6428 120.501 34.1734 118.037H46.1196ZM40.0278 120.858C40.0329 120.853 40.0384 120.849 40.0435 120.845H40.0151C40.0195 120.849 40.0235 120.854 40.0278 120.858ZM36.4702 92.3215C36.9078 93.5546 37.3254 94.9273 37.7232 96.4387C38.1607 97.9502 38.4596 99.2031 38.6187 100.198L45.062 98.5266C44.8632 97.5324 44.5057 96.3194 43.9888 94.8879C43.5115 93.456 43.0533 92.1428 42.6157 90.9495L36.4702 92.3215ZM46.7017 92.8635C46.5619 92.8807 46.422 92.8982 46.2817 92.9153C46.3432 93.0958 46.4062 93.2778 46.4683 93.4622C46.5376 93.2845 46.6084 93.1075 46.6763 92.9299L46.6919 92.8899C46.6954 92.8812 46.6982 92.8722 46.7017 92.8635ZM53.1763 82.4172C51.3069 82.815 49.1987 83.2129 46.8521 83.6106C44.5053 83.9686 42.0192 84.307 39.3941 84.6252C36.7689 84.9434 34.0839 85.2216 31.3394 85.4602L29.2925 85.6018C27.2564 85.7361 25.2537 85.8482 23.2847 85.9377C23.6427 86.6935 24.0009 87.6485 24.3589 88.802C24.7565 89.9552 24.9951 90.9493 25.0747 91.7844C27.7396 91.6651 30.5039 91.5265 33.3677 91.3674C36.2315 91.1686 39.0957 90.9102 41.9595 90.592C44.8234 90.2738 47.5884 89.9354 50.2534 89.5774C52.9581 89.1796 55.4641 88.7224 57.771 88.2053L53.1763 82.4172ZM53.4155 100.615C53.8235 99.9098 54.2417 99.1541 54.6685 98.3479C55.7822 96.3194 56.8758 94.2707 57.9497 92.2024L50.6109 90.1145C50.2926 91.2679 49.8552 92.5408 49.2984 93.9329C48.7813 95.2852 48.2241 96.6381 47.6275 97.9905C47.1967 98.9382 46.7653 99.8129 46.3345 100.615H30.0396L34.4419 99.0637C34.1635 98.0694 33.6864 96.8757 33.0103 95.4836C32.3739 94.0518 31.7177 92.7789 31.0415 91.6653L25.0747 93.5745C25.7111 94.7678 26.3277 96.1008 26.9243 97.5725L27.1402 98.0999C27.5107 99.0279 27.7991 99.8667 28.0083 100.615H22.5689V110.401H29.5493V107.059H51.9234V110.46H59.2026V100.615H53.4155ZM9.85988 82.179V93.217H3.77491V100.496H9.85988V110.29C7.24952 110.931 4.96246 111.466 2.99855 111.892L4.66945 119.469C6.30939 119.028 8.03918 118.556 9.85988 118.055V130.209L9.85695 130.365C9.83954 130.714 9.76081 130.94 9.62159 131.044L9.57179 131.086C9.44132 131.178 9.21917 131.223 8.90577 131.223L8.58546 131.249C8.21257 131.272 7.68294 131.282 6.99659 131.282C6.12152 131.243 5.16652 131.203 4.13234 131.163C4.60963 132.197 5.04709 133.431 5.44484 134.863C5.79289 136.15 6.00467 137.24 6.07863 138.132L6.10109 138.502C8.08971 138.502 9.76048 138.402 11.1128 138.203C12.3309 138.029 13.382 137.703 14.2651 137.225L14.6333 137.011C15.5879 136.375 16.2441 135.519 16.6021 134.445C16.9153 133.505 17.0922 132.306 17.1314 130.849L17.1392 130.209V115.992C19.0031 115.454 20.8527 114.922 22.688 114.398L21.6743 107.298C20.1589 107.69 18.6466 108.077 17.1392 108.461V100.496H22.0913V93.217H17.1392V82.179H9.85988ZM19.9468 90.4094H21.9273C21.8628 90.1934 21.7893 89.9626 21.7046 89.717C21.6951 89.6895 21.6859 89.6618 21.6773 89.634C21.3429 88.5568 21.03 87.7362 20.7476 87.1399C20.3452 86.2905 20.394 85.2959 20.8784 84.4905C21.3629 83.6851 22.2188 83.1757 23.1577 83.1331C25.7458 83.0154 28.3943 82.8593 31.103 82.6633C33.8149 82.4274 36.4659 82.1521 39.0562 81.8381C41.6532 81.5234 44.1083 81.1899 46.4214 80.8372C48.7231 80.4466 50.779 80.057 52.5923 79.6711L52.7886 79.637C53.7683 79.5 54.7543 79.8896 55.3755 80.6721L59.9702 86.4592C60.5711 87.2162 60.7405 88.2296 60.4185 89.1409C60.2884 89.5088 60.0843 89.8383 59.8267 90.1155C60.1242 90.383 60.3654 90.7136 60.5278 91.0901C60.8619 91.8643 60.8304 92.7479 60.4419 93.4963C59.6906 94.9432 58.9284 96.3801 58.1577 97.8079H59.2026C60.7533 97.8079 62.0103 99.0648 62.0103 100.615V110.46C62.0101 112.011 60.7532 113.268 59.2026 113.268H58.7241C58.7139 113.499 58.6774 113.733 58.6069 113.964C57.3789 117.987 55.6651 121.565 53.4429 124.664L53.4439 124.665C52.8496 125.509 52.2204 126.318 51.5601 127.095C54.041 127.853 56.7737 128.445 59.7671 128.86C60.8611 129.011 61.7646 129.79 62.0757 130.85C62.3869 131.91 62.0481 133.054 61.2095 133.773C60.8779 134.057 60.449 134.523 59.936 135.241C59.3651 136.041 58.8132 136.839 58.2808 137.637C57.8281 138.372 57.4843 139.02 57.2339 139.583C56.7036 140.776 55.4211 141.445 54.1392 141.199C48.6032 140.137 43.7098 138.471 39.5073 136.157C38.2779 136.749 37.0072 137.288 35.6958 137.778L35.6968 137.779C32.1516 139.155 28.3365 140.252 24.2583 141.075C22.8485 141.36 21.452 140.533 21.023 139.16C20.87 138.671 20.6202 138.029 20.2515 137.218C20.2367 137.185 20.2221 137.153 20.2085 137.119C19.9451 136.475 19.6413 135.843 19.3013 135.22C19.2892 135.258 19.2786 135.296 19.2661 135.333C18.7078 137.008 17.6574 138.369 16.1909 139.347C16.1681 139.362 16.1449 139.377 16.1216 139.392C14.7633 140.241 13.1962 140.743 11.5103 140.984L11.5093 140.983C9.97857 141.207 8.16547 141.31 6.10109 141.31C4.59616 141.31 3.35923 140.123 3.2964 138.619C3.26898 137.961 3.10754 136.979 2.73976 135.615L2.60011 135.127C2.27312 134.019 1.93188 133.095 1.58351 132.34C1.17422 131.453 1.25527 130.417 1.79738 129.605C2.33952 128.793 3.26491 128.32 4.24074 128.358C5.24946 128.396 6.18445 128.435 7.04542 128.474C7.0477 128.474 7.04998 128.474 7.05226 128.474V121.732C6.49086 121.884 5.93987 122.035 5.39796 122.181C4.6575 122.38 3.86781 122.267 3.21241 121.869C2.55697 121.471 2.09235 120.822 1.92726 120.073L0.257337 112.496C0.0966377 111.767 0.232383 111.005 0.635266 110.376C1.0382 109.748 1.6753 109.306 2.4048 109.148C3.78611 108.848 5.33459 108.492 7.05226 108.081V103.304H3.77491C2.22439 103.304 0.966552 102.047 0.966321 100.496V93.217C0.966321 91.6664 2.22424 90.4094 3.77491 90.4094H7.05226V82.179C7.05226 80.6284 8.30941 79.3716 9.85988 79.3713H17.1392C18.6898 79.3713 19.9468 80.6283 19.9468 82.179V90.4094Z" fill="#4D4D4D"/>
<g filter="url(#filter4_d_22_27680)">
<path d="M27.5192 207.383C23.9791 207.383 21.0158 206.846 18.6292 205.772C16.2824 204.698 14.5322 203.226 13.3787 201.356C12.2252 199.447 11.6484 197.279 11.6484 194.853C11.6484 192.665 12.1456 190.776 13.14 189.185C14.1742 187.554 15.467 186.142 17.0182 184.949C18.6093 183.716 20.2998 182.622 22.0897 181.667C23.8796 180.673 25.5503 179.718 27.1015 178.803C28.6926 177.849 29.9853 176.834 30.9797 175.76C32.0139 174.686 32.531 173.453 32.531 172.061C32.531 170.828 32.1929 169.893 31.5167 169.257C30.8803 168.581 29.9853 168.243 28.8318 168.243C27.6385 168.243 26.6839 168.601 25.9679 169.317C25.2519 170.033 24.8939 171.146 24.8939 172.658C24.8939 173.971 25.3315 175.343 26.2066 176.775C27.0816 178.207 28.255 179.678 29.7268 181.19C31.1985 182.662 32.8094 184.133 34.5596 185.605C36.3495 187.037 38.1395 188.429 39.9294 189.782C41.7591 191.134 43.4496 192.387 45.0009 193.54C46.751 194.853 48.4415 196.007 50.0723 197.001C51.7032 197.956 53.0158 198.672 54.0102 199.149L49.3564 207.383C47.6062 206.388 45.8958 205.394 44.2252 204.399C42.5944 203.365 40.6652 201.933 38.4378 200.104C35.8921 197.995 33.3265 195.867 30.7411 193.719C28.1556 191.532 25.769 189.324 23.5813 187.097C21.4334 184.829 19.7031 182.522 18.3905 180.176C17.1177 177.829 16.4813 175.442 16.4813 173.016C16.4813 170.59 16.9983 168.521 18.0325 166.811C19.1065 165.061 20.5583 163.708 22.388 162.754C24.2177 161.799 26.2662 161.322 28.5335 161.322C32.1929 161.322 35.0966 162.237 37.2445 164.066C39.4322 165.856 40.526 168.402 40.526 171.703C40.526 173.811 40.0487 175.641 39.0941 177.192C38.1792 178.744 36.9859 180.116 35.5142 181.309C34.0425 182.463 32.4713 183.557 30.8007 184.591C29.1301 185.585 27.559 186.58 26.0872 187.574C24.6155 188.529 23.4023 189.583 22.4477 190.736C21.5328 191.85 21.0754 193.143 21.0754 194.614C21.0754 196.245 21.7715 197.458 23.1637 198.254C24.5956 199.01 26.3657 199.388 28.4738 199.388C30.224 199.388 31.9343 198.791 33.605 197.598C35.3153 196.365 36.8666 194.774 38.2588 192.824C39.4123 191.273 40.3669 189.583 41.1227 187.753C41.8784 185.884 42.3955 183.755 42.674 181.369H51.9816C51.385 184.392 50.5298 187.236 49.416 189.901C48.3023 192.526 46.8703 195.132 45.1202 197.717C43.0916 200.7 40.705 203.067 37.9605 204.817C35.2557 206.527 31.7752 207.383 27.5192 207.383Z" fill="#EDA00C"/>
</g>
<path d="M40.5254 170.3C40.5254 166.998 39.4318 164.452 37.2441 162.662C35.2304 160.947 32.5523 160.036 29.21 159.929L28.5332 159.918C26.266 159.918 24.2174 160.395 22.3877 161.35L22.0488 161.533C20.3778 162.475 19.039 163.767 18.0322 165.407L17.8447 165.732C16.9356 167.377 16.4805 169.338 16.4805 171.612L16.4883 172.067C16.5629 174.337 17.1973 176.571 18.3906 178.772C18.889 179.663 19.4467 180.548 20.0654 181.428C19.0119 182.081 17.9959 182.787 17.0176 183.545L16.7305 183.772C15.3064 184.916 14.1092 186.252 13.1396 187.781C12.1453 189.372 11.6484 191.262 11.6484 193.449L11.6553 193.901C11.7229 196.146 12.2968 198.163 13.3779 199.952C14.5314 201.822 16.2821 203.294 18.6289 204.368C21.0154 205.442 23.9787 205.979 27.5186 205.979C31.7746 205.979 35.2552 205.124 37.96 203.413C39.1086 202.681 40.1926 201.838 41.2158 200.89C42.3121 201.715 43.3142 202.418 44.2246 202.995C45.8952 203.99 47.6063 204.984 49.3564 205.979L54.0098 197.745C53.0154 197.268 51.7031 196.551 50.0723 195.597C49.0349 194.964 47.9734 194.267 46.8877 193.506C47.6697 192.169 48.3697 190.828 48.9834 189.481L49.416 188.497C50.5297 185.832 51.3848 182.988 51.9814 179.965H42.6738C42.3954 182.351 41.8778 184.479 41.1221 186.349C40.8155 187.091 40.4736 187.809 40.1016 188.506C40.0441 188.463 39.9865 188.421 39.9287 188.378C38.1389 187.026 36.3494 185.633 34.5596 184.201C33.7767 183.543 33.022 182.884 32.2949 182.226C33.4157 181.481 34.4893 180.708 35.5137 179.905C36.9854 178.712 38.1789 177.339 39.0938 175.788C39.9886 174.334 40.4646 172.635 40.5205 170.692L40.5254 170.3ZM21.0752 193.211C21.0752 191.739 21.5324 190.446 22.4473 189.332C23.1315 188.505 23.9495 187.731 24.8994 187.006C26.7188 188.788 28.6645 190.559 30.7402 192.316C32.0114 193.372 33.2795 194.421 34.541 195.468C34.2341 195.722 33.9224 195.964 33.6045 196.193C31.934 197.387 30.2237 197.983 28.4736 197.984V195.176C28.8463 195.176 29.2284 195.131 29.623 195.036C29.3979 194.849 29.1718 194.663 28.9463 194.476C28.9398 194.47 28.9332 194.465 28.9268 194.459C27.512 193.262 26.1543 192.056 24.8516 190.843C24.7711 190.933 24.6916 191.022 24.6162 191.113L24.6172 191.114C24.1243 191.714 23.8828 192.374 23.8828 193.211C23.8829 193.843 24.0514 194.115 24.5283 194.395C25.4488 194.867 26.7234 195.176 28.4736 195.176V197.984L28.082 197.98C26.1453 197.935 24.5055 197.558 23.1631 196.85C21.8582 196.104 21.1647 194.992 21.083 193.512L21.0752 193.211ZM39.9082 179.497C39.132 180.434 38.2552 181.297 37.2822 182.086C37.2702 182.096 37.2582 182.106 37.2461 182.115C37.1119 182.221 36.9755 182.324 36.8398 182.428C37.5445 182.988 38.2487 183.543 38.9531 184.091C39.3756 182.776 39.6915 181.296 39.8848 179.64L39.9082 179.497ZM29.7227 170.657C29.7226 170.291 29.672 170.084 29.6367 169.986C29.6199 169.94 29.6065 169.917 29.6016 169.909C29.5971 169.902 29.5943 169.9 29.5918 169.898C29.5506 169.859 29.5105 169.819 29.4717 169.777C29.4553 169.76 29.436 169.742 29.376 169.719C29.3034 169.691 29.1367 169.647 28.8311 169.647C28.2396 169.647 28.0493 169.802 27.9531 169.899C27.9506 169.901 27.938 169.913 27.9189 169.945C27.899 169.979 27.8678 170.042 27.835 170.145C27.7669 170.356 27.7012 170.71 27.7012 171.254C27.7012 171.766 27.8315 172.393 28.1943 173.155C28.4594 172.918 28.7017 172.684 28.9189 172.449L28.957 172.409C29.5267 171.818 29.7227 171.268 29.7227 170.657ZM32.5303 170.657C32.5303 172.049 32.0136 173.283 30.9795 174.357C30.0604 175.349 28.8848 176.288 27.4561 177.179C26.9883 176.569 26.5704 175.967 26.2061 175.371C25.331 173.939 24.8936 172.567 24.8936 171.254C24.8936 169.837 25.2085 168.77 25.8379 168.052L25.9678 167.913C26.6837 167.197 27.6379 166.839 28.8311 166.839C29.9124 166.839 30.7666 167.136 31.3936 167.731L31.6387 167.976C32.2332 168.607 32.5303 169.501 32.5303 170.657ZM43.333 170.3C43.3329 172.844 42.7526 175.2 41.4854 177.26L41.4844 177.259C41.4374 177.338 41.39 177.417 41.3418 177.495C41.7398 177.28 42.1936 177.157 42.6738 177.157H51.9814C52.8213 177.157 53.6171 177.534 54.1504 178.183C54.6835 178.832 54.898 179.685 54.7354 180.509C54.1047 183.704 53.1968 186.73 52.0059 189.58C52.004 189.585 52.0019 189.589 52 189.594C51.5716 190.604 51.0985 191.607 50.585 192.606C50.8962 192.805 51.2042 192.998 51.5098 193.185C53.1044 194.118 54.3347 194.787 55.2246 195.214C55.9253 195.55 56.4555 196.162 56.6885 196.903C56.9215 197.645 56.8366 198.45 56.4541 199.127L51.8008 207.36C51.4339 208.01 50.8232 208.486 50.1045 208.685C49.3857 208.883 48.6171 208.788 47.9688 208.42C46.2029 207.417 44.4764 206.413 42.7891 205.408C42.7664 205.395 42.743 205.38 42.7207 205.366C42.28 205.087 41.8232 204.782 41.3496 204.454C40.7418 204.924 40.1163 205.368 39.4697 205.78L39.4609 205.786C36.1817 207.86 32.1348 208.786 27.5186 208.786C23.7137 208.786 20.3292 208.212 17.4766 206.928C17.4712 206.925 17.4653 206.923 17.46 206.921C14.6988 205.657 12.4822 203.846 10.9893 201.427C10.9847 201.419 10.9801 201.412 10.9756 201.404C9.53439 199.019 8.83986 196.341 8.83984 193.449C8.83984 190.824 9.44187 188.4 10.7588 186.293L10.7686 186.277C11.981 184.366 13.4978 182.71 15.3057 181.319C15.607 181.086 15.9128 180.859 16.2207 180.635C16.1252 180.471 16.0314 180.307 15.9395 180.143C15.9335 180.132 15.9277 180.121 15.9219 180.11C14.4491 177.395 13.6729 174.552 13.6729 171.612C13.6729 168.784 14.2792 166.188 15.6299 163.954L15.6387 163.939C16.9798 161.753 18.8112 160.049 21.0889 158.86C23.358 157.677 25.8591 157.11 28.5332 157.11C32.6371 157.11 36.2364 158.138 39.0215 160.49L39.0225 160.489C41.9748 162.905 43.333 166.314 43.333 170.3Z" fill="#4D4D4D"/>
<g filter="url(#filter5_d_22_27680)">
<path d="M212.812 201.519C216.432 201.399 220.569 201.28 225.222 201.161C229.876 201.001 234.769 200.822 239.9 200.624C245.031 200.425 250.083 200.226 255.055 200.027L254.816 207.246C250.003 207.525 245.111 207.783 240.138 208.022C235.206 208.261 230.493 208.479 225.998 208.678C221.503 208.917 217.466 209.116 213.886 209.275L212.812 201.519ZM212.574 183.977H262.274V191.316H212.574V183.977ZM223.313 172.462H251.176V179.741H223.313V172.462ZM226.714 188.81L235.783 191.256C234.868 193.086 233.894 194.955 232.859 196.865C231.865 198.734 230.89 200.524 229.936 202.234C228.981 203.905 228.066 205.397 227.191 206.709L220.27 204.442C221.066 202.97 221.861 201.34 222.657 199.55C223.492 197.76 224.268 195.93 224.984 194.06C225.7 192.151 226.276 190.401 226.714 188.81ZM241.69 194.896L248.73 191.256C250.48 192.768 252.211 194.418 253.921 196.208C255.671 197.998 257.262 199.788 258.694 201.578C260.166 203.368 261.359 205.019 262.274 206.53L254.876 211.005C254.08 209.494 252.966 207.783 251.534 205.874C250.102 204.005 248.531 202.115 246.821 200.206C245.111 198.257 243.4 196.487 241.69 194.896ZM237.215 162.319C235.624 164.546 233.595 166.814 231.129 169.121C228.663 171.428 225.899 173.615 222.836 175.684C219.813 177.752 216.67 179.562 213.409 181.113C213.091 180.437 212.653 179.701 212.096 178.906C211.579 178.11 211.022 177.315 210.426 176.519C209.829 175.724 209.252 175.047 208.695 174.491C212.116 173.019 215.378 171.189 218.48 169.001C221.583 166.774 224.367 164.407 226.833 161.901C229.299 159.395 231.248 157.009 232.68 154.742H241.093C242.684 156.929 244.434 158.978 246.344 160.887C248.253 162.756 250.281 164.487 252.429 166.078C254.577 167.669 256.805 169.061 259.112 170.254C261.419 171.448 263.766 172.462 266.152 173.297C265.158 174.292 264.223 175.445 263.348 176.758C262.513 178.07 261.737 179.323 261.021 180.517C258.038 179.124 255.035 177.434 252.012 175.445C248.989 173.456 246.184 171.328 243.599 169.061C241.014 166.754 238.886 164.507 237.215 162.319Z" fill="#01B4DB"/>
</g>
<g filter="url(#filter6_d_22_27680)">
<path d="M149.809 157.784H166.993V194.717H149.809V187.497H159.654V164.884H149.809V157.784ZM149.929 172.522H162.518V179.562H149.929V172.522ZM175.465 156.949H193.245V164.288H175.465V156.949ZM175.465 171.149H193.245V178.249H175.465V171.149ZM175.405 185.111H193.245V192.211H175.405V185.111ZM145.633 157.784H152.972V199.788H145.633V157.784ZM190.321 156.949H198.138V202.115C198.138 204.104 197.899 205.675 197.422 206.829C196.944 207.982 196.109 208.857 194.916 209.454C193.643 210.09 192.111 210.488 190.321 210.647C188.532 210.846 186.404 210.945 183.937 210.945C183.818 210.229 183.619 209.394 183.341 208.44C183.062 207.485 182.724 206.55 182.326 205.635C181.968 204.72 181.591 203.945 181.193 203.308C182.227 203.348 183.261 203.388 184.295 203.428C185.33 203.428 186.264 203.428 187.1 203.428C187.935 203.428 188.532 203.428 188.89 203.428C189.446 203.428 189.824 203.328 190.023 203.129C190.222 202.891 190.321 202.533 190.321 202.055V156.949ZM170.692 156.949H178.508V178.727C178.508 181.312 178.349 184.096 178.031 187.08C177.712 190.023 177.116 192.986 176.241 195.97C175.405 198.953 174.133 201.777 172.422 204.442C170.712 207.107 168.484 209.434 165.74 211.423C165.342 210.906 164.765 210.289 164.009 209.573C163.293 208.897 162.538 208.241 161.742 207.604C160.986 206.968 160.33 206.471 159.773 206.113C162.279 204.323 164.268 202.314 165.74 200.086C167.211 197.859 168.305 195.532 169.021 193.106C169.737 190.64 170.195 188.193 170.394 185.767C170.592 183.301 170.692 180.934 170.692 178.667V156.949Z" fill="#01B4DB"/>
</g>
<g filter="url(#filter7_d_22_27680)">
<path d="M109.715 172.163V179.98H124.034V172.163H109.715ZM102.077 165.421H132.148V186.662H102.077V165.421ZM123.199 154.503L131.432 156.531C130.597 158.401 129.762 160.211 128.926 161.961C128.131 163.671 127.395 165.143 126.719 166.376L119.857 164.467C120.255 163.552 120.673 162.518 121.11 161.364C121.588 160.211 122.005 159.037 122.363 157.844C122.721 156.651 123 155.537 123.199 154.503ZM102.674 157.128L109.715 154.92C110.669 156.352 111.544 157.943 112.34 159.694C113.175 161.444 113.792 162.995 114.189 164.347L106.851 166.973C106.572 165.62 106.015 164.029 105.18 162.2C104.384 160.33 103.549 158.64 102.674 157.128ZM117.71 185.17H125.168V201.459C125.168 202.374 125.207 202.95 125.287 203.189C125.366 203.428 125.565 203.547 125.884 203.547C126.003 203.547 126.142 203.547 126.301 203.547C126.5 203.547 126.699 203.547 126.898 203.547C127.097 203.547 127.236 203.547 127.316 203.547C127.554 203.547 127.753 203.368 127.912 203.01C128.071 202.612 128.191 201.817 128.27 200.623C128.389 199.39 128.469 197.581 128.509 195.194C128.986 195.592 129.603 195.989 130.358 196.387C131.154 196.785 131.969 197.143 132.805 197.461C133.68 197.779 134.455 198.018 135.132 198.177C134.933 201.399 134.575 203.905 134.058 205.695C133.541 207.485 132.805 208.718 131.85 209.394C130.935 210.11 129.702 210.468 128.151 210.468C127.872 210.468 127.574 210.468 127.256 210.468C126.977 210.468 126.659 210.468 126.301 210.468C125.983 210.468 125.665 210.468 125.347 210.468C125.068 210.468 124.79 210.468 124.511 210.468C122.642 210.468 121.21 210.19 120.215 209.633C119.261 209.076 118.605 208.121 118.247 206.769C117.889 205.456 117.71 203.706 117.71 201.518V185.17ZM107.388 185.469H115.323C115.164 188.094 114.866 190.64 114.428 193.106C114.03 195.572 113.394 197.899 112.519 200.086C111.683 202.274 110.49 204.303 108.939 206.172C107.427 208.081 105.439 209.772 102.972 211.244C102.654 210.528 102.197 209.772 101.6 208.976C101.043 208.181 100.427 207.405 99.7506 206.65C99.1141 205.934 98.4976 205.337 97.901 204.86C100.566 203.388 102.555 201.638 103.867 199.609C105.18 197.581 106.035 195.373 106.433 192.986C106.871 190.56 107.189 188.054 107.388 185.469ZM80.6579 173.416H98.0203V179.323H80.6579V173.416ZM81.0159 156.412H98.1396V162.319H81.0159V156.412ZM80.6579 181.829H98.0203V187.736H80.6579V181.829ZM77.7344 164.765H100.228V170.911H77.7344V164.765ZM84.2975 190.361H98.5573V208.678H84.2975V202.533H91.8152V196.566H84.2975V190.361ZM80.4789 190.361H87.1017V210.945H80.4789V190.361Z" fill="#01B4DB"/>
</g>
<path d="M260.875 181.871H211.174V189.21H224.554C224.266 190.085 223.942 191 223.584 191.955C222.869 193.824 222.093 195.654 221.258 197.443C220.999 198.028 220.736 198.594 220.476 199.144C217.162 199.234 214.141 199.323 211.414 199.413L212.487 207.169C216.067 207.01 220.104 206.811 224.599 206.572C229.094 206.373 233.808 206.155 238.74 205.916C242.957 205.713 247.117 205.496 251.219 205.265C252.142 206.583 252.895 207.794 253.477 208.899L260.875 204.425C259.961 202.913 258.767 201.262 257.295 199.473C255.863 197.683 254.272 195.892 252.522 194.102C250.834 192.336 249.127 190.705 247.4 189.21H260.875V181.871ZM240.291 192.79C242.001 194.381 243.712 196.151 245.422 198.1C245.464 198.147 245.504 198.193 245.545 198.239C243.214 198.331 240.866 198.426 238.5 198.517C235.322 198.641 232.234 198.754 229.239 198.862C229.968 197.54 230.709 196.172 231.46 194.759C232.483 192.87 233.448 191.021 234.354 189.21H247.216L240.291 192.79ZM236.079 192.017C235.429 193.286 234.751 194.572 234.047 195.875C235.476 195.821 236.924 195.769 238.392 195.712C238.679 195.701 238.967 195.689 239.253 195.678C238.961 195.395 238.67 195.117 238.378 194.846C237.709 194.223 237.385 193.314 237.509 192.409C237.528 192.276 237.557 192.145 237.593 192.017H236.079ZM231.282 152.636C229.85 154.903 227.9 157.29 225.434 159.796C222.968 162.302 220.184 164.668 217.082 166.895L216.498 167.302C213.57 169.311 210.503 171.005 207.296 172.385C207.853 172.941 208.43 173.617 209.027 174.413C209.623 175.208 210.18 176.004 210.697 176.8C211.254 177.595 211.692 178.331 212.01 179.008C215.272 177.456 218.414 175.646 221.437 173.578C221.598 173.47 221.756 173.358 221.915 173.249V177.635H249.778V172.779C250.055 172.966 250.332 173.155 250.613 173.34C253.636 175.328 256.639 177.019 259.623 178.411C260.338 177.218 261.114 175.965 261.949 174.652C262.824 173.34 263.759 172.186 264.753 171.191C262.367 170.356 260.019 169.342 257.712 168.148C255.694 167.104 253.736 165.908 251.839 164.559L251.031 163.972C248.883 162.381 246.854 160.651 244.945 158.781C243.036 156.872 241.285 154.823 239.694 152.636H231.282ZM252.573 177.865C252.537 178.301 252.403 178.707 252.192 179.063H254.695C253.988 178.679 253.28 178.28 252.573 177.865ZM219.199 178.339C218.788 178.584 218.375 178.826 217.959 179.063H219.5C219.367 178.84 219.265 178.597 219.199 178.339ZM235.816 160.213C237.486 162.4 239.614 164.648 242.2 166.955C243.535 168.126 244.931 169.259 246.383 170.356H225.843C227.212 169.272 228.508 168.158 229.73 167.015C232.196 164.708 234.225 162.44 235.816 160.213ZM235.883 164.667C235.061 165.628 234.168 166.588 233.21 167.549H238.706C237.694 166.585 236.752 165.625 235.883 164.667ZM263.683 189.21C263.683 190.76 262.426 192.017 260.875 192.017H254.412C254.451 192.058 254.491 192.099 254.53 192.14L255.201 192.834C256.741 194.445 258.162 196.064 259.464 197.689L260.027 198.384C261.312 199.992 262.4 201.522 263.277 202.971C263.663 203.608 263.779 204.372 263.601 205.096C263.423 205.819 262.966 206.442 262.329 206.827L254.93 211.302C254.268 211.702 253.469 211.812 252.724 211.604C251.979 211.397 251.352 210.891 250.992 210.207C250.66 209.578 250.258 208.895 249.783 208.158C246.19 208.356 242.554 208.543 238.875 208.72C233.939 208.958 229.222 209.179 224.723 209.378L224.722 209.377C220.232 209.615 216.195 209.814 212.612 209.974C211.164 210.038 209.905 208.99 209.706 207.555L208.632 199.798C208.523 199.01 208.753 198.212 209.266 197.603C209.779 196.995 210.526 196.633 211.321 196.606C213.567 196.532 216.012 196.46 218.654 196.386C218.666 196.358 218.68 196.331 218.692 196.304L218.713 196.257C219.361 194.87 219.969 193.456 220.542 192.017H211.174C209.624 192.017 208.367 190.76 208.367 189.21V181.871C208.367 181.056 208.716 180.323 209.271 179.81C209.052 179.401 208.764 178.935 208.397 178.41C208.379 178.384 208.361 178.357 208.343 178.33C207.862 177.59 207.342 176.845 206.781 176.098C206.244 175.382 205.753 174.812 205.311 174.37C204.653 173.712 204.363 172.77 204.539 171.855C204.714 170.941 205.332 170.173 206.187 169.806C209.425 168.412 212.517 166.678 215.463 164.6C218.439 162.462 221.093 160.203 223.433 157.826C225.799 155.422 227.61 153.191 228.908 151.137L229.008 150.987C229.534 150.262 230.379 149.828 231.282 149.828H239.694C240.592 149.828 241.437 150.258 241.965 150.984C243.47 153.053 245.125 154.99 246.93 156.796C248.741 158.567 250.665 160.207 252.702 161.716C254.732 163.22 256.833 164.532 259.002 165.654C261.196 166.789 263.422 167.75 265.681 168.541C266.592 168.86 267.276 169.625 267.491 170.566C267.706 171.508 267.422 172.494 266.739 173.177C265.896 174.02 265.082 175.018 264.302 176.184C263.581 177.318 262.908 178.405 262.281 179.443C263.118 179.929 263.683 180.833 263.683 181.871V189.21Z" fill="#4D4D4D"/>
<path d="M179.897 198.397C180.915 198.436 181.932 198.475 182.949 198.515H185.696V201.322H182.893C181.859 201.282 180.824 201.243 179.79 201.203C180.188 201.839 180.565 202.615 180.923 203.529C181.321 204.444 181.659 205.379 181.938 206.334C182.146 207.05 182.31 207.698 182.43 208.28L182.534 208.84C185 208.84 187.128 208.74 188.918 208.541C190.596 208.392 192.047 208.033 193.271 207.465L193.513 207.348C194.631 206.788 195.435 205.984 195.925 204.935L196.019 204.723C196.436 203.713 196.67 202.384 196.723 200.735L196.734 200.01V154.844H169.289V176.561L169.284 177.416C169.262 179.421 169.164 181.503 168.99 183.661C168.791 186.087 168.334 188.534 167.618 191C166.902 193.426 165.808 195.753 164.337 197.98L164.055 198.395C162.614 200.458 160.719 202.329 158.37 204.007C158.927 204.365 159.583 204.862 160.339 205.498C161.134 206.134 161.89 206.791 162.606 207.468C163.173 208.004 163.64 208.485 164.005 208.91L164.337 209.317C167.081 207.328 169.308 205.001 171.019 202.336C172.729 199.671 174.003 196.847 174.838 193.864C175.206 192.608 175.522 191.354 175.792 190.105H188.918V199.95L188.913 200.123C188.891 200.514 188.794 200.814 188.62 201.023C188.421 201.222 188.043 201.322 187.486 201.322H185.696V198.515H186.11V192.913H178.01C177.862 193.482 177.707 194.051 177.54 194.62L177.541 194.621C176.629 197.879 175.239 200.958 173.382 203.852C171.469 206.832 168.992 209.411 165.984 211.591C164.754 212.482 163.038 212.233 162.111 211.029C161.84 210.676 161.379 210.173 160.675 209.506V209.505C160.018 208.884 159.321 208.28 158.585 207.691C158.567 207.677 158.548 207.662 158.53 207.646C157.827 207.054 157.271 206.639 156.852 206.369C156.068 205.866 155.586 205.006 155.563 204.075C155.541 203.144 155.981 202.263 156.738 201.722C159.006 200.101 160.739 198.332 161.994 196.432C162.216 196.097 162.428 195.759 162.63 195.419H154.376V197.682C154.376 199.233 153.119 200.49 151.568 200.49H144.229C142.679 200.49 141.422 199.233 141.422 197.682V155.679C141.422 154.128 142.679 152.871 144.229 152.871H165.59C166.097 152.871 166.572 153.008 166.982 153.244C167.489 152.514 168.333 152.036 169.289 152.036H196.734C198.285 152.036 199.542 153.293 199.542 154.844V200.01C199.542 202.174 199.289 204.161 198.612 205.797C197.858 207.62 196.52 208.983 194.768 209.859C193.126 210.68 191.256 211.145 189.228 211.331C187.305 211.544 185.069 211.647 182.534 211.647C181.162 211.647 179.99 210.655 179.765 209.302C179.669 208.727 179.5 208.004 179.242 207.12C178.997 206.279 178.699 205.456 178.349 204.649C178.335 204.617 178.321 204.585 178.309 204.553C177.996 203.753 177.691 203.142 177.408 202.69C176.857 201.809 176.839 200.694 177.36 199.795C177.882 198.895 178.858 198.357 179.897 198.397ZM158.251 185.391H151.568V177.456H158.251V185.391ZM188.918 183.005H176.815C177.007 180.757 177.104 178.629 177.104 176.621V176.143H188.918V183.005ZM154.376 182.584H155.443V180.264H154.376V182.584ZM179.872 178.951C179.858 179.362 179.84 179.778 179.819 180.197H186.11V178.951H179.872ZM158.251 162.778V170.416H151.568V162.778H158.251ZM188.918 169.044H177.104V162.182H188.918V169.044ZM154.376 167.608H155.443V165.587H154.376V167.608ZM179.912 166.235H186.11V164.99H179.912V166.235ZM144.229 197.682H151.568V192.611H165.59V155.679H144.229V197.682Z" fill="#4D4D4D"/>
<path d="M130.745 163.315H125.826C126.358 162.297 126.924 161.144 127.523 159.855C128.359 158.105 129.194 156.295 130.029 154.426L121.796 152.397C121.597 153.431 121.318 154.545 120.96 155.738L120.681 156.63C120.39 157.517 120.065 158.394 119.707 159.259C119.27 160.412 118.852 161.446 118.454 162.361L121.884 163.315H109.785L112.786 162.242C112.388 160.89 111.772 159.338 110.937 157.588C110.141 155.838 109.266 154.246 108.312 152.814L101.271 155.022C102.147 156.534 102.982 158.224 103.777 160.094L104.077 160.768C104.472 161.681 104.791 162.53 105.038 163.315H100.675V184.557H105.883C105.683 186.721 105.4 188.83 105.03 190.881L104.95 191.326C104.524 193.542 103.695 195.602 102.465 197.504L102.21 197.881C101.017 199.582 99.3318 201.08 97.1543 202.376V188.256H79.0762V208.84H85.6992V206.572H97.1543V203.324C97.5433 203.683 97.9426 204.088 98.3477 204.544C99.0238 205.3 99.6404 206.075 100.197 206.871L100.414 207.167C100.906 207.854 101.291 208.511 101.569 209.138C104.035 207.666 106.025 205.976 107.536 204.066C109.087 202.197 110.281 200.168 111.116 197.98C111.991 195.793 112.628 193.466 113.025 191C113.396 188.909 113.665 186.761 113.836 184.557H116.307V199.413L116.315 200.213C116.355 202.031 116.531 203.515 116.844 204.663C117.202 206.015 117.858 206.97 118.812 207.527C119.683 208.014 120.888 208.289 122.428 208.349L123.108 208.362H126.748L127.035 208.358C128.452 208.316 129.59 207.959 130.447 207.288C131.402 206.612 132.137 205.379 132.654 203.589C133.171 201.799 133.53 199.293 133.729 196.071C133.052 195.912 132.276 195.674 131.401 195.355C130.566 195.037 129.751 194.679 128.955 194.281C128.2 193.883 127.583 193.485 127.105 193.088C127.066 195.474 126.987 197.284 126.867 198.517C126.788 199.711 126.668 200.506 126.509 200.904C126.35 201.262 126.151 201.441 125.912 201.441H125.495V200.546L124.898 200.744V201.441H124.48L124.367 201.435C124.115 201.409 123.953 201.292 123.884 201.083C123.824 200.904 123.787 200.535 123.772 199.975L123.765 199.353V184.557H130.745V163.315ZM125.495 201.441H124.898V200.744L125.495 200.546V201.441ZM90.4121 194.461V200.427H85.6992V194.461H90.4121ZM99.7578 187.207C99.8885 187.531 99.9619 187.885 99.9619 188.256V196.193C100.011 196.121 100.061 196.051 100.107 195.978C101.211 194.273 101.926 192.427 102.261 190.419L102.267 190.383C102.445 189.392 102.603 188.385 102.74 187.364H100.675C100.353 187.364 100.045 187.306 99.7578 187.207ZM96.6172 179.724H79.2549V185.63H96.6172V179.724ZM122.631 170.058V177.874H108.312V170.058H122.631ZM79.2549 171.31V177.218H96.6172V171.31H79.2549ZM111.119 175.066H119.823V172.865H111.119V175.066ZM99.5439 159.948C99.9492 160.055 100.318 160.249 100.63 160.511C100.645 160.51 100.66 160.508 100.675 160.508H100.896C100.455 159.509 100.003 158.576 99.5439 157.705V159.948ZM133.553 184.557C133.553 186.107 132.296 187.364 130.745 187.364H126.572V190.333C127.389 190.175 128.247 190.385 128.903 190.932C129.182 191.164 129.613 191.452 130.242 191.785C130.94 192.133 131.655 192.446 132.388 192.725C133.18 193.013 133.838 193.213 134.372 193.339C135.703 193.652 136.615 194.879 136.531 196.244C136.327 199.545 135.953 202.288 135.353 204.368C134.769 206.386 133.813 208.288 132.177 209.499C132.142 209.526 132.106 209.553 132.07 209.58L132.069 209.579C130.537 210.732 128.672 211.17 126.748 211.17H123.108C121.032 211.17 119.041 210.873 117.44 209.976C117.426 209.968 117.412 209.96 117.397 209.952C115.641 208.928 114.624 207.252 114.129 205.382V205.381C113.693 203.771 113.509 201.806 113.5 199.579C112.576 201.817 111.317 203.894 109.736 205.808L109.737 205.809C107.98 208.029 105.716 209.933 103.009 211.549C102.319 211.96 101.486 212.057 100.721 211.814C99.9552 211.571 99.3301 211.012 99.0039 210.278C98.8522 209.937 98.6349 209.549 98.3428 209.112C97.9814 209.282 97.5798 209.38 97.1543 209.38H88.4531C88.2012 210.672 87.0648 211.647 85.6992 211.647H79.0762C77.5255 211.647 76.2686 210.39 76.2686 208.84V188.256C76.2686 187.712 76.4256 187.205 76.6934 186.775C76.5367 186.425 76.4473 186.038 76.4473 185.63V179.724C76.4473 179.273 76.5552 178.847 76.7441 178.47C76.5557 178.092 76.4473 177.668 76.4473 177.218V171.612H76.3311C74.7806 171.612 73.5234 170.355 73.5234 168.805V162.659C73.5236 161.109 74.7806 159.852 76.3311 159.851H76.8057V154.307C76.8057 152.756 78.0626 151.499 79.6133 151.499H96.7363C97.8427 151.499 98.7964 152.14 99.2539 153.07C99.5756 152.738 99.9782 152.486 100.431 152.344L107.472 150.136L107.695 150.075C108.821 149.821 109.999 150.284 110.647 151.258C111.695 152.829 112.642 154.554 113.493 156.426L113.492 156.427C114.184 157.879 114.751 159.242 115.18 160.508H116.191C116.475 159.827 116.772 159.079 117.082 158.263L117.113 158.184C117.554 157.118 117.941 156.034 118.271 154.932C118.607 153.813 118.86 152.793 119.038 151.867C119.183 151.111 119.633 150.448 120.281 150.033C120.929 149.618 121.72 149.487 122.468 149.671L130.701 151.699C131.509 151.898 132.187 152.446 132.552 153.193C132.917 153.941 132.932 154.812 132.593 155.571C131.836 157.264 131.079 158.909 130.321 160.508H130.745C132.296 160.508 133.553 161.765 133.553 163.315V184.557ZM76.3311 168.805H98.8252V162.659H76.3311V168.805ZM79.6133 160.213H96.7363V154.307H79.6133V160.213Z" fill="#4D4D4D"/>
<line x1="7.05766" y1="58.0908" x2="169.484" y2="58.0908" stroke="#26A8DE" stroke-width="3.13094" stroke-linecap="round"/>
<path d="M159.487 16.6455C159.487 17.8014 159.475 18.5884 159.451 19.0065C159.328 24.6385 159.205 28.9424 159.082 31.9182C158.959 34.8695 158.786 37.1567 158.565 38.7799C158.368 40.3785 158.073 41.4729 157.68 42.0631C157.212 42.7272 156.745 43.219 156.278 43.5387C155.835 43.8585 155.27 44.0921 154.581 44.2397C153.917 44.4118 152.859 44.4979 151.408 44.4979H150.08C150.031 43.7355 149.871 42.8624 149.601 41.8787C149.355 40.8949 149.035 40.0341 148.642 39.2963C147.732 41.559 146.563 43.551 145.137 45.2726C144.719 44.6086 144.129 43.8708 143.366 43.0592C142.604 42.2722 141.891 41.6696 141.227 41.2515C143.046 39.1119 144.313 36.5049 145.026 33.4307C145.74 30.3565 146.158 26.5076 146.281 21.884H142.444V16.6455H146.354V10.7799H151.63C151.63 13.436 151.617 15.3912 151.593 16.6455H159.487ZM161.037 14.2476H174.945V44.129H169.559V41.9156H166.165V44.4241H161.037V14.2476ZM166.165 36.7509H169.559V19.4123H166.165V36.7509ZM151.482 21.884C151.335 25.5238 151.052 28.7456 150.634 31.5493C150.216 34.353 149.564 36.8738 148.678 39.1119C149.834 39.2103 150.855 39.2594 151.74 39.2594C152.011 39.2594 152.245 39.2103 152.441 39.1119C152.638 38.9889 152.823 38.7922 152.995 38.5216C153.339 38.0543 153.597 36.6279 153.769 34.2423C153.942 31.8321 154.089 27.7127 154.212 21.884H151.482Z" fill="#EDA00C"/>
<path d="M131.969 26.569C133.1 27.7003 134.355 28.7209 135.732 29.6309C137.134 30.5409 138.585 31.291 140.085 31.8812C139.544 32.3485 138.929 33.0002 138.241 33.8364C137.577 34.6726 137.035 35.4227 136.617 36.0867C134.551 35.103 132.596 33.7872 130.752 32.1394C128.932 30.4917 127.321 28.6348 125.919 26.569H118.799C118.283 27.3806 117.57 28.352 116.66 29.4833C119.34 28.7947 121.308 28.0938 122.562 27.3806L126.657 29.3727C125.28 30.258 123.62 31.045 121.677 31.7337C119.758 32.3977 117.791 32.9387 115.774 33.3568C115.258 32.6682 114.827 32.1517 114.483 31.8074C112.442 33.7257 110.265 35.2751 107.953 36.4556C107.584 35.9146 106.982 35.2137 106.146 34.3529C105.334 33.4921 104.633 32.8158 104.043 32.3239C107.265 30.9958 110.007 29.0775 112.27 26.569H105.371V22.1052H115.295C115.639 21.4412 115.922 20.8263 116.143 20.2607C112.97 20.4082 109.958 20.5189 107.105 20.5927L106.552 15.9076L112.97 15.76C114.176 13.8909 115.135 12.0464 115.848 10.2264L121.861 11.6652C120.951 12.9686 119.98 14.2721 118.947 15.5756L127.136 15.3542C127.038 15.2559 126.423 14.7148 125.292 13.731L129.571 11.37C131.219 12.6735 132.855 14.0631 134.478 15.5387C136.101 16.9897 137.343 18.2686 138.204 19.3753L133.555 22.0683C133.187 21.5273 132.51 20.7034 131.526 19.5966C128.452 19.7688 125.267 19.9164 121.972 20.0393C121.8 20.5804 121.529 21.269 121.16 22.1052H139.273V26.569H131.969ZM129.903 33.3199C128.182 34.6726 126.042 35.8285 123.484 36.7877C120.951 37.7468 118.209 38.5215 115.258 39.1118C114.963 38.5215 114.544 37.8698 114.003 37.1566C113.487 36.4433 112.97 35.8408 112.454 35.3489C115.11 34.98 117.656 34.4513 120.09 33.7626C122.525 33.0494 124.394 32.2255 125.698 31.291L129.903 33.3199ZM134.625 37.1566C132.289 39.493 129.264 41.276 125.55 42.5057C121.861 43.76 117.41 44.6945 112.196 45.3094C111.95 44.6208 111.593 43.8584 111.126 43.0222C110.683 42.2106 110.228 41.5097 109.761 40.9194C119.82 40.2062 126.534 38.251 129.903 35.0538L134.625 37.1566Z" fill="#EDA00C"/>
<path d="M77.3555 16.0183H101.556V21.6626C99.1209 21.9085 97.0059 22.5602 95.2105 23.6178C93.4398 24.6507 91.9518 25.8558 90.7467 27.233C89.5663 28.5857 88.8038 29.8892 88.4595 31.1434C88.0168 32.8158 88.0537 34.1562 88.5702 35.1645C89.0867 36.1483 89.7999 36.8738 90.7099 37.3411C91.6444 37.7838 92.5052 38.0297 93.2922 38.0789C94.2759 38.1281 95.2228 38.1281 96.1328 38.0789C97.0427 38.0297 97.842 37.9682 98.5307 37.8944C99.2439 37.7961 99.6128 37.7469 99.6374 37.7469V43.6494C98.2847 43.8215 97.0919 43.9076 96.059 43.9076C95.0261 43.9322 93.9562 43.9076 92.8495 43.8338C91.8166 43.7846 90.6115 43.5387 89.2342 43.096C87.857 42.6779 86.6027 42.0139 85.4714 41.1039C84.3647 40.1939 83.5039 38.9766 82.8891 37.4517C82.2988 35.9269 82.1389 34.0455 82.4095 31.8075C82.68 30.2335 83.1473 28.8193 83.8113 27.5651C84.4999 26.3108 85.2378 25.2533 86.0248 24.3925C86.8364 23.5071 87.525 22.8308 88.0906 22.3635C88.6563 21.8962 88.9637 21.6626 89.0129 21.6626H77.3555V16.0183ZM94.3251 29.8892V24.0605H97.1288V29.8892H94.3251ZM98.7151 29.8892V24.0605H101.519V29.8892H98.7151Z" fill="#EDA00C"/>
<path d="M73.9601 31.5862H59.6097V39.2594C59.6097 40.7351 59.413 41.8541 59.0195 42.6165C58.6506 43.4035 57.9742 44.006 56.9905 44.4241C56.0805 44.8176 54.9861 45.0758 53.7072 45.1988C52.4529 45.3464 50.9035 45.4079 49.059 45.3833C48.8868 44.5963 48.5671 43.6617 48.0998 42.5796C47.6572 41.4975 47.2145 40.5875 46.7718 39.8497C48.3458 39.9235 50.3871 39.9604 52.8956 39.9604C53.3137 39.9604 53.5965 39.9112 53.7441 39.8128C53.8917 39.6898 53.9655 39.4685 53.9655 39.1488V31.5862H39.5781V26.2002H53.9655V20.3715H56.5478C57.6299 19.7074 58.9211 18.7852 60.4213 17.6047H43.4885V12.3293H65.9549L67.1723 12.0342L71.2671 15.133C69.644 16.83 67.7994 18.5146 65.7335 20.187C63.6923 21.8594 61.651 23.3104 59.6097 24.5401V26.2002H73.9601V31.5862Z" fill="#EDA00C"/>
<path d="M15.8209 41.3253C15.3783 40.6612 14.665 39.7513 13.6813 38.5954V45.2357H8.55349V39.5914C7.37299 41.2392 6.09412 42.641 4.71687 43.7969C4.34797 43.1329 3.88069 42.4074 3.31503 41.6204C2.77397 40.8334 2.2575 40.2063 1.76562 39.739C2.82316 39.0504 3.85609 38.1281 4.86443 36.9722C5.87278 35.7917 6.74585 34.5251 7.48367 33.1725H2.72478V28.7456H8.55349V26.5321H2.46655V22.1053H5.67603C5.50387 20.6051 5.18415 19.277 4.71687 18.1211L6.22939 17.7891H3.0199V13.436H8.36904V10.4847H13.4968V13.436H18.9935V17.7891H16.4481L17.481 17.9735L16.3743 21.0723L16.0054 22.1053H19.2518V26.5321H13.6813V28.7456H18.846V33.1725H13.8657C14.6035 33.7381 15.5012 34.4759 16.5588 35.3859C17.6409 36.2713 18.4894 36.9845 19.1042 37.5255L15.8209 41.3253ZM33.2333 40.071C33.3809 40.071 33.4915 39.9849 33.5653 39.8128C33.6391 39.616 33.6883 39.1856 33.7129 38.5216C33.7621 37.833 33.799 36.9599 33.8235 35.9024C34.2416 36.2467 34.8688 36.6033 35.705 36.9722C36.5411 37.3165 37.3404 37.587 38.1028 37.7838C37.9799 39.5791 37.7462 40.9687 37.4019 41.9524C37.0822 42.9362 36.6272 43.6248 36.037 44.0183C35.4713 44.4118 34.7212 44.6085 33.7867 44.6085H31.9052C30.7247 44.6085 29.8271 44.4241 29.2122 44.0552C28.622 43.7109 28.2162 43.1452 27.9948 42.3582C27.7735 41.5712 27.6628 40.4522 27.6628 39.0012V33.6151H26.5561C26.3839 35.5826 26.0519 37.2796 25.5601 38.706C25.0928 40.1079 24.3181 41.3622 23.2359 42.4689C22.1538 43.6002 20.6659 44.5593 18.7722 45.3463C18.5262 44.7561 18.1205 44.0675 17.5548 43.2805C17.0137 42.4935 16.485 41.8786 15.9685 41.4359C17.4195 40.9195 18.5385 40.2923 19.3255 39.5545C20.1371 38.8167 20.7028 37.9805 21.0225 37.046C21.3668 36.1114 21.6005 34.9678 21.7234 33.6151H20.1002V11.8497H35.705V33.6151H32.4955V38.9274C32.4955 39.4439 32.5078 39.7636 32.5324 39.8865C32.5816 40.0095 32.6799 40.071 32.8275 40.071H33.2333ZM24.8591 16.4979V17.8997H30.6878V16.4979H24.8591ZM8.99618 17.7891C9.53724 19.1171 9.86926 20.4329 9.99223 21.7364L8.47971 22.1053H13.7551L11.7999 21.6995C12.1196 20.519 12.4024 19.2155 12.6483 17.7891H8.99618ZM24.8591 21.9946V23.4333H30.6878V21.9946H24.8591ZM24.8591 27.5651V29.0038H30.6878V27.5651H24.8591Z" fill="#EDA00C"/>
</g>
<defs>
<filter id="filter0_d_22_27680" x="210.066" y="83.5231" width="58.6941" height="60.0119" filterUnits="userSpaceOnUse" color-interpolation-filters="sRGB">
<feFlood flood-opacity="0" result="BackgroundImageFix"/>
<feColorMatrix in="SourceAlpha" type="matrix" values="0 0 0 0 0 0 0 0 0 0 0 0 0 0 0 0 0 0 127 0" result="hardAlpha"/>
<feOffset dx="0.701935" dy="3.50967"/>
<feComposite in2="hardAlpha" operator="out"/>
<feColorMatrix type="matrix" values="0 0 0 0 0.686275 0 0 0 0 0.8 0 0 0 0 0.235294 0 0 0 1 0"/>
<feBlend mode="normal" in2="BackgroundImageFix" result="effect1_dropShadow_22_27680"/>
<feBlend mode="normal" in="SourceGraphic" in2="effect1_dropShadow_22_27680" result="shape"/>
</filter>
<filter id="filter1_d_22_27680" x="141.035" y="83.7617" width="59.3504" height="59.5346" filterUnits="userSpaceOnUse" color-interpolation-filters="sRGB">
<feFlood flood-opacity="0" result="BackgroundImageFix"/>
<feColorMatrix in="SourceAlpha" type="matrix" values="0 0 0 0 0 0 0 0 0 0 0 0 0 0 0 0 0 0 127 0" result="hardAlpha"/>
<feOffset dx="0.701935" dy="3.50967"/>
<feComposite in2="hardAlpha" operator="out"/>
<feColorMatrix type="matrix" values="0 0 0 0 0.686275 0 0 0 0 0.8 0 0 0 0 0.235294 0 0 0 1 0"/>
<feBlend mode="normal" in2="BackgroundImageFix" result="effect1_dropShadow_22_27680"/>
<feBlend mode="normal" in="SourceGraphic" in2="effect1_dropShadow_22_27680" result="shape"/>
</filter>
<filter id="filter2_d_22_27680" x="73.1953" y="83.4634" width="57.7996" height="59.8926" filterUnits="userSpaceOnUse" color-interpolation-filters="sRGB">
<feFlood flood-opacity="0" result="BackgroundImageFix"/>
<feColorMatrix in="SourceAlpha" type="matrix" values="0 0 0 0 0 0 0 0 0 0 0 0 0 0 0 0 0 0 127 0" result="hardAlpha"/>
<feOffset dx="0.701935" dy="3.50967"/>
<feComposite in2="hardAlpha" operator="out"/>
<feColorMatrix type="matrix" values="0 0 0 0 0.686275 0 0 0 0 0.8 0 0 0 0 0.235294 0 0 0 1 0"/>
<feBlend mode="normal" in2="BackgroundImageFix" result="effect1_dropShadow_22_27680"/>
<feBlend mode="normal" in="SourceGraphic" in2="effect1_dropShadow_22_27680" result="shape"/>
</filter>
<filter id="filter3_d_22_27680" x="4.40234" y="83.5828" width="57.0847" height="59.8329" filterUnits="userSpaceOnUse" color-interpolation-filters="sRGB">
<feFlood flood-opacity="0" result="BackgroundImageFix"/>
<feColorMatrix in="SourceAlpha" type="matrix" values="0 0 0 0 0 0 0 0 0 0 0 0 0 0 0 0 0 0 127 0" result="hardAlpha"/>
<feOffset dx="0.701935" dy="3.50967"/>
<feComposite in2="hardAlpha" operator="out"/>
<feColorMatrix type="matrix" values="0 0 0 0 0.686275 0 0 0 0 0.8 0 0 0 0 0.235294 0 0 0 1 0"/>
<feBlend mode="normal" in2="BackgroundImageFix" result="effect1_dropShadow_22_27680"/>
<feBlend mode="normal" in="SourceGraphic" in2="effect1_dropShadow_22_27680" result="shape"/>
</filter>
<filter id="filter4_d_22_27680" x="11.6484" y="161.322" width="44.4691" height="48.8687" filterUnits="userSpaceOnUse" color-interpolation-filters="sRGB">
<feFlood flood-opacity="0" result="BackgroundImageFix"/>
<feColorMatrix in="SourceAlpha" type="matrix" values="0 0 0 0 0 0 0 0 0 0 0 0 0 0 0 0 0 0 127 0" result="hardAlpha"/>
<feOffset dx="2.1058" dy="2.80774"/>
<feComposite in2="hardAlpha" operator="out"/>
<feColorMatrix type="matrix" values="0 0 0 0 1 0 0 0 0 0.584314 0 0 0 0 0.584314 0 0 0 1 0"/>
<feBlend mode="normal" in2="BackgroundImageFix" result="effect1_dropShadow_22_27680"/>
<feBlend mode="normal" in="SourceGraphic" in2="effect1_dropShadow_22_27680" result="shape"/>
</filter>
<filter id="filter5_d_22_27680" x="208.695" y="154.742" width="58.8609" height="59.0713" filterUnits="userSpaceOnUse" color-interpolation-filters="sRGB">
<feFlood flood-opacity="0" result="BackgroundImageFix"/>
<feColorMatrix in="SourceAlpha" type="matrix" values="0 0 0 0 0 0 0 0 0 0 0 0 0 0 0 0 0 0 127 0" result="hardAlpha"/>
<feOffset dx="1.40387" dy="2.80774"/>
<feComposite in2="hardAlpha" operator="out"/>
<feColorMatrix type="matrix" values="0 0 0 0 0.00392157 0 0 0 0 0.705882 0 0 0 0 0.858824 0 0 0 1 0"/>
<feBlend mode="normal" in2="BackgroundImageFix" result="effect1_dropShadow_22_27680"/>
<feBlend mode="normal" in="SourceGraphic" in2="effect1_dropShadow_22_27680" result="shape"/>
</filter>
<filter id="filter6_d_22_27680" x="145.633" y="156.949" width="53.9078" height="57.2814" filterUnits="userSpaceOnUse" color-interpolation-filters="sRGB">
<feFlood flood-opacity="0" result="BackgroundImageFix"/>
<feColorMatrix in="SourceAlpha" type="matrix" values="0 0 0 0 0 0 0 0 0 0 0 0 0 0 0 0 0 0 127 0" result="hardAlpha"/>
<feOffset dx="1.40387" dy="2.80774"/>
<feComposite in2="hardAlpha" operator="out"/>
<feColorMatrix type="matrix" values="0 0 0 0 0.00392157 0 0 0 0 0.705882 0 0 0 0 0.858824 0 0 0 1 0"/>
<feBlend mode="normal" in2="BackgroundImageFix" result="effect1_dropShadow_22_27680"/>
<feBlend mode="normal" in="SourceGraphic" in2="effect1_dropShadow_22_27680" result="shape"/>
</filter>
<filter id="filter7_d_22_27680" x="77.7344" y="154.503" width="58.8023" height="59.5486" filterUnits="userSpaceOnUse" color-interpolation-filters="sRGB">
<feFlood flood-opacity="0" result="BackgroundImageFix"/>
<feColorMatrix in="SourceAlpha" type="matrix" values="0 0 0 0 0 0 0 0 0 0 0 0 0 0 0 0 0 0 127 0" result="hardAlpha"/>
<feOffset dx="1.40387" dy="2.80774"/>
<feComposite in2="hardAlpha" operator="out"/>
<feColorMatrix type="matrix" values="0 0 0 0 0.00392157 0 0 0 0 0.705882 0 0 0 0 0.858824 0 0 0 1 0"/>
<feBlend mode="normal" in2="BackgroundImageFix" result="effect1_dropShadow_22_27680"/>
<feBlend mode="normal" in="SourceGraphic" in2="effect1_dropShadow_22_27680" result="shape"/>
</filter>
<clipPath id="clip0_22_27680">
<rect width="287" height="212" fill="white"/>
</clipPath>
</defs>
</svg>
