<svg width="880" height="554" viewBox="0 0 880 554" fill="none" xmlns="http://www.w3.org/2000/svg">
<g clip-path="url(#clip0_5_2384)">
<path d="M46.5862 520.911C40.9629 527.7 34.8176 534.035 28.1504 539.9L12.0718 513.668C23.4531 505.181 33.0666 496.106 40.9124 486.46H18.941V459.84H45.8117V452.984H18.3517V425.961H30.9116C29.7331 421.256 28.4872 417.021 27.1908 413.24H20.7256V387.192H46.6199V374.067H77.8007V387.192H101.136V413.24H94.8559C94.0646 416.769 92.886 421.004 91.3203 425.961H101.91V452.984H77.7839V459.84H100.934V486.46H81.9088C87.8015 491.417 95.5125 497.098 105.059 503.5L89.7545 527.784C85.6969 524.389 81.4542 520.541 77.0094 516.239V552.067H46.603V520.944L46.5862 520.911ZM59.1461 425.944H64.4495C65.4934 422.55 66.5372 418.315 67.5811 413.223H55.4253C56.3344 415.962 57.5803 420.214 59.1461 425.944ZM142.705 501.904C136.947 524.356 126.744 541.715 112.113 553.983L88.9632 533.43C103.998 522.473 113.544 507.517 117.602 488.594H106.422V378.369H194.106V488.594H172.522V517.768C172.522 519.6 173.246 520.507 174.677 520.507H175.468C177.034 520.507 178.01 519.6 178.414 517.768C178.802 515.415 179.004 508.962 179.004 498.392L199.999 505.836C199.999 524.12 198.955 535.733 196.867 540.69C194.257 547.076 188.163 550.286 178.633 550.286H160.198C153.261 550.286 148.749 549.429 146.661 547.748C144.052 545.665 142.738 541.094 142.738 534.035V501.921L142.705 501.904ZM125.447 488.594L142.705 494.661V488.594H125.447ZM163.312 410.668V404.014H136.829V410.668H163.312ZM163.312 437.49V431.036H136.829V437.49H163.312ZM163.312 464.311V457.656H136.829V464.311H163.312Z" fill="#F7C9DD"/>
<path d="M324.739 516.205C324.739 530.557 322.213 539.732 317.179 543.715C312.145 547.698 301.656 549.681 285.695 549.681H260.003L250.592 516.592H278.641C285.83 516.592 289.433 513.533 289.433 507.382V479.973H212.744V447.472H289.433V427.894H299.047C306.623 422.55 313.425 417.189 319.452 411.845H236.87V379.545H372.992V406.165C360.836 417.912 344.74 431.154 324.739 445.909V447.472H393.986V479.973H324.739V516.188V516.205Z" fill="#F7C9DD"/>
<path d="M53.0347 46.1135H27.7129V99.7892H13.7725V10.2512H53.0179V46.0966L53.0347 46.1135ZM39.6835 20.1494H27.7129V23.4769H39.6835V20.1494ZM27.7129 36.1144H39.6835V32.4844H27.7129V36.1144ZM70.9822 78.6315V98.0247H58.5234V78.6315H51.6542C50.9975 82.6143 49.6675 86.5468 47.6808 90.4287C45.6773 94.3107 42.9161 97.5037 39.3973 99.9741C38.4208 98.7305 37.0234 97.3189 35.2219 95.7056C33.4204 94.1091 31.8041 92.8487 30.3731 91.9412C32.7975 90.4456 34.7505 88.4962 36.2658 86.1098C37.7642 83.7235 38.8249 81.2363 39.4142 78.6147H30.9792V67.1536H40.0034V61.5742H32.2587V50.4996H79.1647V61.5742H71.0159V67.1536H80.5284V78.6147H71.0159L70.9822 78.6315ZM52.0414 67.1704H58.5234V61.591H52.0414V67.1704ZM98.0718 83.8243C98.0718 87.3534 97.7183 90.1095 96.9943 92.1093C96.2704 94.0923 94.9571 95.6552 93.0715 96.7643C91.169 97.8735 88.9297 98.6129 86.3538 98.9658C83.761 99.3187 80.4106 99.4699 76.3025 99.4027C76.1005 97.4365 75.5954 95.067 74.7872 92.2605C73.9623 89.454 73.1036 87.1685 72.1944 85.404C74.6862 85.5384 77.9861 85.6057 82.111 85.6057C82.835 85.6057 83.3401 85.4544 83.6263 85.1687C83.9125 84.883 84.064 84.3621 84.064 83.6563V46.4327H58.153V10.2512H98.0887V83.8075L98.0718 83.8243ZM84.0472 20.1494H71.6894V23.4769H84.0472V20.1494ZM71.6894 36.4169H84.0472V32.5012H71.6894V36.4169Z" fill="black"/>
<path d="M137.62 71.8758C136.577 69.2038 135.129 65.8427 133.31 61.7927V99.7892H120.161V67.9602C117.737 74.363 115.194 79.4549 112.501 83.2361C111.591 80.0935 109.487 75.7578 106.221 70.2121C108.898 66.5486 111.406 61.9775 113.73 56.4486C116.053 50.9365 117.905 45.3236 119.269 39.6434H108.763V26.5186H120.144V6.72208H133.293V26.5018H143.294V39.6266H133.293V43.1557C134.539 44.7186 136.476 47.5587 139.136 51.676C141.779 55.7932 143.833 59.0198 145.264 61.3726L137.604 71.859L137.62 71.8758ZM188.55 58.0619C186.126 64.5319 183.348 70.1113 180.216 74.8167C186.362 80.4297 193.466 84.6141 201.514 87.3534C199.948 88.7986 198.181 90.7816 196.211 93.336C194.241 95.8904 192.709 98.1423 191.598 100.092C183.752 96.7643 176.815 92.0588 170.788 85.9922C164.171 92.1933 156.174 96.8987 146.746 100.092C146.022 98.5288 144.944 96.5794 143.513 94.2603C142.082 91.9412 140.769 90.0926 139.59 88.7314C148.884 85.9249 156.494 81.4884 162.454 75.4049C159.188 70.3801 156.208 64.4983 153.531 57.7763C151.696 59.4064 150.753 60.2634 150.685 60.3306C149.642 59.0198 148.16 57.4738 146.274 55.6756C144.372 53.8774 142.604 52.365 140.971 51.1214C143.648 49.1048 146.241 46.4327 148.716 43.1389C151.207 39.8451 153.295 36.4673 154.995 33.0054H144.591V19.9814H164.71V6.75569H178.735V19.9814H199.443V33.0054H187.085C190.099 36.1984 192.894 39.593 195.47 43.1389C198.046 46.7016 199.965 49.8442 201.211 52.5834L189.14 59.5408L188.55 58.0787V58.0619ZM164.71 51.3063C166.41 55.7428 168.498 59.8937 170.99 63.7421C173.078 59.7593 174.677 55.3899 175.805 50.6172L185.621 52.4826C182.876 47.9116 179.475 43.2734 175.418 38.5679L185.335 32.9886H155.804L167.875 38.0806C164.929 43.6935 161.562 48.7183 157.773 53.1716L164.744 51.3063H164.71Z" fill="black"/>
<path d="M243.706 31.1232L244.295 27.2076H208.08V14.1836H245.659C245.793 12.5535 245.911 9.93187 246.046 6.35236L262.933 6.73888L262.63 8.99078C262.108 12.251 261.805 13.9819 261.754 14.1836H295.999V27.2076H259.296L258.421 31.1232H286.285V78.5307H232.611V31.1232H243.706ZM297.195 82.6479V95.7728H226.347V99.9909H212.222V34.249H226.347V82.6311H297.195V82.6479ZM272.176 44.0632V40.9206H246.08V44.0632H272.176ZM272.176 56.3982V53.1716H246.08V56.3982H272.176ZM272.176 68.7332V65.5066H246.08V68.7332H272.176Z" fill="black"/>
<path d="M395.216 20.7376V33.5768H305.041V20.7376H324.082C322.449 17.6118 320.294 14.4693 317.6 11.3267L331.238 6.62125C333.14 8.58745 334.908 10.6713 336.541 12.8896C338.174 15.1079 339.353 17.1077 340.077 18.8722L334.672 20.7376H360.584C363.782 15.7801 366.241 11.041 367.941 6.53722L383.548 11.041C381.326 14.5029 379.137 17.7295 376.982 20.7376H395.233H395.216ZM350.667 86.4627C350.667 89.4036 350.33 91.7059 349.64 93.3697C348.95 95.0334 347.721 96.361 345.953 97.3357C344.32 98.2432 342.434 98.8481 340.313 99.1506C338.191 99.4363 335.413 99.5876 332.012 99.5876C331.692 97.823 331.103 95.7896 330.244 93.4705C329.386 91.1514 328.51 89.202 327.601 87.6391C329.1 87.7063 330.564 87.7567 331.962 87.7903C333.376 87.8239 334.504 87.8071 335.346 87.7399C335.935 87.7399 336.339 87.6223 336.575 87.4038C336.811 87.1853 336.912 86.7988 336.912 86.2779V80.1103H323.375V99.2179H309.94V39.1561H350.667V86.4627ZM336.928 51.0038H323.392V55.121H336.928V51.0038ZM323.392 69.8088H336.928V65.4058H323.392V69.8088ZM370.096 40.2316V80.396H357.048V40.2316H370.096ZM376.578 37.6772H390.603V84.799C390.603 88.1936 390.215 90.8153 389.424 92.6806C388.633 94.546 387.202 95.9913 385.114 97.0332C383.144 98.0079 380.838 98.6801 378.194 99.033C375.551 99.3859 372.285 99.5372 368.429 99.4699C368.109 97.5709 367.453 95.319 366.459 92.7142C365.483 90.1094 364.456 87.8743 363.412 86.0594C365.432 86.1938 367.503 86.2779 369.591 86.3115C371.679 86.3451 373.312 86.3115 374.49 86.2611C375.282 86.2611 375.82 86.1434 376.107 85.925C376.393 85.6897 376.544 85.2527 376.544 84.5973V37.6772H376.578Z" fill="black"/>
<path d="M451.937 19.2756H469.599C466.854 24.9557 463.504 30.3166 459.547 35.3413C455.591 40.3661 451.971 44.7522 448.705 48.4662V99.9909H433.198V60.4147C428.164 64.4647 423.316 67.6913 418.669 70.1113C414.022 72.5312 410.335 74.2117 407.574 75.1528C404.829 76.0939 403.415 76.5645 403.348 76.5645V60.8012C403.348 60.8012 405.082 60.129 408.348 58.8014C411.614 57.457 415.79 55.2387 420.857 52.1465C425.925 49.0376 431.212 44.8026 436.7 39.4082C442.189 34.0137 447.257 27.3084 451.904 19.2756H451.937Z" fill="black"/>
<path d="M477.36 81.3707V53.4573C479.97 49.0207 482.209 45.2228 484.028 42.097C485.846 38.9712 487.664 35.9295 489.432 32.9886C491.2 30.0477 492.58 27.7958 493.557 26.2329C494.803 24.3339 496.082 22.9895 497.429 22.166C498.776 21.3426 499.938 20.8552 500.914 20.704C501.891 20.5359 502.379 20.4855 502.379 20.5527C504.349 20.6872 505.965 21.0737 507.245 21.7291C508.524 22.3845 509.686 23.4937 510.73 25.0565C511.521 26.2329 513.07 28.5856 515.394 32.1147C517.717 35.6438 520.394 39.6939 523.441 44.2649C526.489 48.8359 529.435 53.2893 532.28 57.6418C535.126 61.9775 538.51 67.0863 542.433 72.9681V101.268C517.633 63.2547 504.972 43.8111 504.45 42.8869C503.793 41.8449 503.288 41.2399 502.935 41.0719C502.581 40.9038 502.396 40.8534 502.396 40.9206C502.396 40.8534 502.261 40.9206 502.009 41.1223C501.739 41.324 501.285 41.9122 500.628 42.8869C500.039 43.6767 498.877 45.458 497.143 48.2309C495.409 51.0038 493.439 54.2472 491.25 57.9275C489.062 61.6246 486.199 66.4309 482.664 72.38C479.128 78.329 477.36 81.3203 477.36 81.3875V81.3707ZM523.879 37.005V21.5275H531.338V37.005H523.879ZM535.563 37.005V21.5275H543.022V37.005H535.563Z" fill="black"/>
<path d="M553.41 37.0891V21.8131H584.018V37.0891H553.41ZM603.06 38.2654H618.667C615.401 50.2139 611.007 59.9441 605.518 67.456C600.029 74.968 594.322 80.7658 588.396 84.8494C582.469 88.9331 576.863 91.8236 571.559 93.5209C566.256 95.2182 561.929 96.2097 558.562 96.5122C555.194 96.7979 553.477 96.9156 553.41 96.8483V80.8834C553.41 80.8834 554.807 80.8834 557.434 80.7322C560.043 80.5641 563.394 79.8919 567.485 78.7323C571.576 77.556 575.869 75.3041 580.398 71.9766C584.91 68.6492 589.086 64.4143 592.908 59.2887C596.729 54.1631 600.114 47.1554 603.06 38.2822V38.2654Z" fill="black"/>
<path d="M688.437 43.8616V59.2383H647.222V99.5035H631.715V17.4102H647.222V43.8616H688.437Z" fill="black"/>
<path d="M111.305 342.826H83.0367V263.976C76.9925 277.84 69.9044 289.57 61.7556 299.149C53.6068 308.728 45.8116 316.509 38.3868 322.475C30.962 328.441 24.8504 332.726 20.0857 335.314C15.3211 337.902 12.863 339.196 12.7451 339.196V306.644C12.863 306.644 14.7318 305.502 18.3684 303.216C21.9882 300.931 26.7024 297.217 32.4941 292.091C38.2858 286.965 44.2964 280.092 50.5258 271.471C56.7384 262.85 62.5132 252.145 67.8335 239.373H12.7451V211.712H83.0367V189.109H111.305V211.712H131.963V239.373H111.305V342.809V342.826Z" fill="#FCAF17"/>
<path d="M149.708 226.198V197.982H206.228V226.198H149.708ZM241.382 228.366H270.189C264.145 250.431 256.063 268.396 245.911 282.26C235.759 296.124 225.219 306.829 214.293 314.358C203.366 321.887 193.011 327.231 183.23 330.357C173.448 333.482 165.45 335.331 159.221 335.869C152.992 336.406 149.826 336.625 149.708 336.507V307.031C149.826 307.149 152.301 307.064 157.133 306.762C161.965 306.46 168.161 305.233 175.704 303.048C183.246 300.88 191.193 296.713 199.527 290.579C207.861 284.428 215.555 276.63 222.627 267.169C229.698 257.708 235.944 244.784 241.382 228.383V228.366Z" fill="#FCAF17"/>
<path d="M372.369 266.883H289.029V239.945H406.429C406.429 255.741 404.19 269.421 399.728 281C395.266 292.578 388.919 302.04 380.703 309.384C372.487 316.744 364.153 322.408 355.701 326.39C347.249 330.373 339.218 333.23 331.608 334.978C323.998 336.726 317.836 337.902 313.122 338.507C308.408 339.112 305.933 339.414 305.697 339.414V310.308C305.815 310.426 307.802 310.241 311.674 309.77C315.53 309.283 320.429 308.258 326.355 306.695C332.265 305.132 338.427 302.779 344.842 299.637C351.239 296.511 356.896 292.276 361.779 286.982C366.678 281.672 370.197 274.983 372.369 266.917V266.883ZM294.097 222.938V195.999H398.448V222.938H294.097Z" fill="#28AFE7"/>
<path d="M515.478 193.277H548.089C543.022 203.763 536.826 213.644 529.519 222.938C522.212 232.214 515.545 240.297 509.501 247.171V342.288H480.879V269.236C471.585 276.714 462.645 282.68 454.059 287.134C445.489 291.587 438.653 294.696 433.586 296.444C428.518 298.191 425.908 299.065 425.791 299.065V269.959C425.908 269.959 428.989 268.732 435.034 266.245C441.078 263.774 448.772 259.674 458.133 253.943C467.494 248.213 477.242 240.381 487.395 230.433C497.547 220.484 506.891 208.099 515.478 193.277Z" fill="#28AFE7"/>
<path d="M562.939 226.198V197.982H619.458V226.198H562.939ZM654.613 228.366H683.42C677.375 250.431 669.294 268.396 659.142 282.26C648.989 296.124 638.45 306.829 627.523 314.358C616.596 321.887 606.242 327.231 596.46 330.357C586.678 333.482 578.681 335.331 572.452 335.869C566.222 336.406 563.057 336.625 562.939 336.507V307.031C563.057 307.149 565.532 307.064 570.364 306.762C575.196 306.46 581.392 305.233 588.934 303.048C596.477 300.88 604.424 296.713 612.758 290.579C621.092 284.428 628.786 276.63 635.857 267.169C642.928 257.708 649.175 244.784 654.613 228.383V228.366Z" fill="#B6D43E"/>
<path d="M404.896 438.918L383.885 439.456V411.61L405.082 410.887V385.578H432.255V409.996L507.615 407.459V435.49H507.43C504.416 446.816 499.399 456.261 492.395 463.79C485.391 471.318 478.471 477.267 471.652 481.603C464.834 485.939 459.025 489.014 454.261 490.829C449.479 492.644 446.987 493.535 446.735 493.535V464.966C446.853 465.084 448.25 464.613 450.893 463.521C453.553 462.428 456.752 460.748 460.49 458.462C464.228 456.177 467.645 453.219 470.726 449.606C473.807 445.993 476.316 441.54 478.235 436.229L432.222 438.044C431.868 449.253 431.7 459.051 431.767 467.436C431.835 475.822 431.969 483.267 432.222 489.771C432.592 493.031 433.181 495.804 434.04 498.089C434.882 500.375 436.481 502.19 438.838 503.517C441.196 504.845 445.455 505.635 451.617 505.87C457.527 505.988 463.571 505.954 469.733 505.786C475.895 505.601 481.62 505.332 486.94 504.979C492.26 504.609 496.536 504.257 499.803 503.887C503.069 503.517 504.753 503.349 504.87 503.349V532.456C504.753 532.456 501.991 532.607 496.621 532.909C491.25 533.212 484.515 533.447 476.417 533.632C468.319 533.817 459.093 533.783 448.705 533.548C435.539 533.195 425.336 530.321 418.079 524.961C410.84 519.6 406.732 509.87 405.755 495.753C405.503 486.225 405.301 477.167 405.115 468.546C404.93 459.925 404.846 450.077 404.846 438.985L404.896 438.918Z" fill="#AA68AA"/>
<path d="M641.665 506.357V534.388C630.789 532.456 620.738 531.01 611.495 530.053C602.252 529.078 591.847 528.607 580.247 528.607H528.98V500.223H580.247C601.864 500.459 622.337 502.509 641.665 506.374V506.357ZM638.399 399.661V427.692C627.523 425.76 617.472 424.348 608.228 423.44C598.985 422.533 588.513 422.029 576.795 421.894H532.415V393.51H576.795C598.413 393.746 618.953 395.796 638.399 399.661ZM632.776 451.74V479.771C621.9 477.839 611.848 476.394 602.605 475.436C593.362 474.478 582.89 473.99 571.172 473.99H536.758V445.606H571.172C592.79 445.724 613.33 447.774 632.776 451.757V451.74Z" fill="#EE242C"/>
<path d="M710.879 446.699H659.613V417.76H710.879V385.746H739.871V417.76H785.7V446.699H739.871V468.394C739.518 481.536 736.605 492.106 731.167 500.123C725.729 508.139 719.533 514.491 712.597 519.196C705.643 523.902 698.673 527.7 691.669 530.59C684.665 533.481 678.806 535.481 674.092 536.556C669.378 537.649 666.97 538.119 666.852 538.001V508.34C666.97 508.34 668.57 508.004 671.651 507.349C674.732 506.693 678.537 505.45 683.066 503.635C687.595 501.82 692.157 499.198 696.737 495.77C701.316 492.342 704.801 487.905 707.159 482.477C709.516 477.049 710.745 470.428 710.879 462.58V446.665V446.699Z" fill="#B6D43E"/>
<path d="M786.744 473.99V445.607H870.437V473.99H786.744Z" fill="#28AFE7"/>
<path d="M13.7725 144.256H688.437" stroke="black" stroke-miterlimit="10"/>
<path d="M851.395 312.207C852.355 311.568 855.234 309.602 857.439 308.106C868.534 310.526 876.717 317.03 878.299 327.197C879.326 342.036 876.077 356.354 868.518 369.395C866.767 372.42 864.729 374.957 861.85 376.974C858.938 379.024 854.847 380.486 851.227 380.049C847.876 379.646 844.879 377.747 842.691 375.327C840.435 372.823 838.751 370.017 837.471 367.059C837.286 366.622 837.101 366.202 836.933 365.765H803.092C801.543 362.101 798.832 357.547 795.263 353.329C792.653 350.237 787.653 347.464 782.349 345.397L780.009 344.994C779.79 344.893 776.878 343.515 776.726 343.465C774.504 342.238 774.032 340.339 773.746 338.675C773.696 338.356 773.645 338.07 773.611 337.835C779.049 335.297 783.376 328.357 784.151 326.407C784.302 326.004 784.622 325.164 784.858 324.223C786.171 324.777 787.013 324.424 787.855 323.752C788.831 322.962 789.538 321.92 790.094 320.828C791.037 318.946 791.525 316.879 791.525 314.812C793.31 313.35 795.246 312.056 797.182 310.812C798.411 310.022 800.347 309.199 802.704 308.342C814.961 314.828 821.191 316.778 832.538 316.526C843.549 316.291 847.27 314.492 851.058 312.425C851.058 312.425 851.176 312.341 851.378 312.207H851.395Z" fill="white"/>
<path d="M730.595 252.229C731.487 251.422 732.666 251.154 733.659 251.221C735.831 251.372 736.706 252.565 737.094 253.271C738.222 255.372 738.036 259.153 737.178 261.472C736.555 263.119 735.561 265.623 733.272 267.371C732.329 268.093 730.965 268.547 729.669 268.278C729.669 268.278 729.551 268.261 729.332 268.211C728.877 269.555 728.322 270.866 728.002 271.488C727.025 273.891 721.806 282.243 715.425 285.436C715.206 286.881 715.156 288.142 715.156 289.587C715.156 291.301 715.459 292.948 717.143 294.057C717.227 294.108 718.624 294.982 720.695 296.091C707.916 305.166 689.127 302.493 679.076 293.335C681.652 292.36 685.086 291.032 685.187 290.999C687.073 290.293 687.73 288.747 688.117 287.083C688.369 285.94 688.571 284.898 688.689 283.756C686.601 282.327 684.699 280.445 682.864 278.109C679.783 274.177 678.082 269.975 677.19 266.53C675.809 266.833 674.328 266.278 673.368 265.438C671.196 263.539 670.354 260.985 669.849 259.304C669.125 256.935 669.193 253.153 670.455 251.137C670.876 250.465 671.836 249.322 674.008 249.305C675.001 249.305 676.163 249.658 677.005 250.515C677.005 250.515 672.728 228.853 706.755 228.853C737.43 228.853 730.628 252.246 730.628 252.246L730.595 252.229Z" fill="white"/>
<path d="M722.53 295.351C721.385 294.763 720.257 294.158 719.146 293.503C718.826 293.318 718.506 293.133 718.203 292.931C718.119 292.881 718.052 292.83 717.967 292.797C717.917 292.763 717.681 292.612 717.816 292.696C717.698 292.612 717.58 292.494 717.479 292.394C717.462 292.377 717.21 292.091 717.311 292.209C717.395 292.31 717.176 292.007 717.143 291.957C717.075 291.856 717.025 291.755 716.974 291.654C716.823 291.352 717.008 291.805 716.924 291.503C716.89 291.368 716.839 291.251 716.806 291.116C716.772 290.982 716.755 290.847 716.722 290.713C716.654 290.394 716.722 290.931 716.705 290.562C716.621 289.217 716.654 287.839 716.789 286.495C716.873 285.688 716.048 284.999 715.291 284.999C714.415 284.999 713.859 285.688 713.792 286.495C713.523 289.201 713.287 292.578 715.459 294.612C716.048 295.166 716.738 295.553 717.429 295.956C718.607 296.645 719.803 297.301 721.015 297.922C721.739 298.292 722.648 298.107 723.069 297.385C723.456 296.713 723.254 295.704 722.53 295.334V295.351Z" fill="#211715"/>
<path d="M667.947 367.849C666.735 368.773 665.438 369.613 664.058 370.286C660.068 372.235 655.101 372.806 651.094 370.857C646.481 368.622 644.124 363.664 642.861 358.892C640.436 349.783 640.79 340.204 641.985 330.861C643.029 322.693 644.864 314.224 650.37 307.888C655.32 302.191 669.21 296.04 678.975 293.234C689.161 302.645 708.523 305.283 721.335 295.603C729.534 297.536 735.663 299.485 741.707 304.258C743.222 305.451 744.855 307.401 746.236 310.022C747.28 312.005 748.122 315.249 748.66 317.316C750.883 325.718 752.179 333.146 753.071 341.566C752.634 342.271 752.011 342.944 751.034 343.481C750.866 343.532 747.987 344.91 747.734 345.011C742.313 347.078 734.989 350.254 732.312 353.346C728.676 357.564 727.261 360.774 725.392 366.185C725.392 366.185 683.588 366.185 669.917 366.185C669.277 366.773 668.604 367.328 667.913 367.866L667.947 367.849Z" fill="white"/>
<path d="M798.294 264.749C798.782 264.11 799.691 263.354 801.391 263.304C802.351 263.27 803.462 263.573 804.287 264.379C804.287 264.379 800.853 240.869 829.087 240.869C859.09 240.869 855.756 264.581 855.756 264.581C856.598 263.791 857.709 263.489 858.669 263.522C860.756 263.606 861.632 264.732 862.019 265.388C863.147 267.371 863.08 271.001 862.322 273.236C861.766 274.832 860.874 277.252 858.736 279C857.844 279.722 856.547 280.193 855.318 279.975C855.318 279.975 855.2 279.958 854.998 279.924C854.594 281.218 854.106 282.495 853.803 283.1C852.877 285.571 847.557 294.595 841.007 297.368C841.108 297.754 841.125 298.175 841.108 298.611C841.091 299.216 840.906 300.393 840.637 301.737C841.512 301.939 842.388 302.141 842.388 302.141C842.674 301.905 843.651 301.737 844.577 301.956C845.873 302.258 846.765 303.065 846.9 304.577C849.476 306.409 853.416 307.955 856.648 309.283C854.274 310.627 851.109 312.425 851.109 312.425C847.321 314.509 843.6 316.291 832.589 316.526C821.258 316.778 815.046 314.828 802.806 308.358C808.379 306.325 814.052 304.93 816.746 303.132C817.049 302.93 817.403 302.796 817.571 302.493C817.689 302.292 817.74 302.057 817.773 301.821C818.059 300.258 818.329 298.679 818.615 297.116C815.736 295.788 813.16 293.62 810.702 290.663C807.638 286.965 805.904 282.999 804.944 279.706C803.614 280.042 802.2 279.538 801.257 278.765C799.119 277.017 798.243 274.563 797.704 272.984C796.947 270.732 796.913 267.102 798.058 265.136C798.125 265.018 798.209 264.883 798.327 264.732L798.294 264.749Z" fill="white"/>
<path d="M789.235 319.08C791.811 316.207 795.044 313.787 798.378 311.854C801.509 310.039 805.196 309.031 808.631 307.972C810.483 307.401 809.692 304.493 807.823 305.081C804.136 306.224 800.213 307.333 796.862 309.266C793.327 311.316 789.842 313.921 787.114 316.963C785.818 318.408 787.956 320.542 789.235 319.08Z" fill="#211715"/>
<path d="M718.203 296.427C726.15 298.225 734.804 300.174 741.118 305.703C742.751 307.132 744.013 308.947 745.007 310.879C745.95 312.728 746.455 314.829 746.993 316.828C748.223 321.467 749.3 326.155 750.125 330.877C751.085 336.423 751.691 342.019 752.162 347.615C752.23 348.422 752.802 349.111 753.661 349.111C754.418 349.111 755.226 348.422 755.159 347.615C754.3 337.247 752.785 326.995 750.142 316.929C749.586 314.828 749.048 312.728 748.223 310.711C747.313 308.493 745.983 306.409 744.35 304.628C742.902 303.048 741.067 301.788 739.266 300.662C737.515 299.553 735.646 298.628 733.743 297.822C729.029 295.822 724.012 294.662 719.028 293.536C717.143 293.116 716.335 296.007 718.22 296.427H718.203Z" fill="#211715"/>
<path d="M729.45 357.178C727.766 359.833 726.705 362.488 725.426 366.168H803.277C801.762 362.438 798.967 357.699 795.28 353.329C792.468 350.002 786.912 347.044 781.171 344.96C779.083 348.288 772.955 351.262 766.708 351.632C763.206 351.85 759.654 351.632 756.203 350.909C752.482 350.136 748.845 348.472 746.438 345.498C741.201 347.548 734.804 350.472 732.346 353.329C731.184 354.674 730.241 355.917 729.45 357.178Z" fill="#FEBE69"/>
<path d="M786.003 311.081C786.71 310.442 787.754 310.14 788.714 310.291C789.674 310.442 790.566 311.031 791.02 311.82C791.34 312.375 791.441 313.014 791.492 313.635C791.711 316.089 791.223 318.593 790.111 320.828C789.573 321.92 788.865 322.962 787.872 323.752C787.03 324.424 786.188 324.76 784.875 324.223C784.64 325.18 784.303 326.004 784.168 326.407C783.394 328.357 779.067 335.297 773.629 337.835C773.662 338.087 773.713 338.356 773.763 338.675C774.049 340.339 774.521 342.238 776.743 343.465C776.895 343.515 779.791 344.893 780.026 344.994L780.885 345.38C780.784 345.498 780.683 345.632 780.683 345.632C778.242 348.674 772.517 351.279 766.692 351.632C763.19 351.85 759.638 351.632 756.186 350.909C752.735 350.187 749.367 348.708 746.977 346.137C746.977 346.137 746.707 345.834 746.421 345.548L747.734 344.994C747.97 344.893 750.866 343.515 751.034 343.465C753.24 342.238 753.728 340.339 754.014 338.675C754.031 338.574 754.048 338.473 754.065 338.373C751.27 337.213 748.694 335.23 746.438 332.726C743.963 329.97 742.465 327.012 741.572 324.475C740.444 324.844 739.67 324.491 738.912 323.886C737.936 323.097 737.228 322.055 736.673 320.962C735.562 318.727 735.073 316.223 735.292 313.77C735.343 313.148 735.461 312.509 735.764 311.955C736.201 311.148 737.094 310.577 738.07 310.426C739.047 310.274 740.091 310.594 740.781 311.215C740.781 311.215 736.622 293.032 762.129 293.032C787.636 293.032 785.953 311.081 785.953 311.081H786.003Z" fill="white"/>
<path d="M797.721 296.141C795.852 294.225 795.229 292.478 794.623 289.738C794.118 287.436 793.68 285.94 792.822 283.756C792.266 282.344 791.172 280.983 790.296 280.21C787.282 277.538 784.622 276.546 780.868 277.067C777.938 277.487 775.244 278.681 774.049 281.269C773.426 281 772.786 280.731 772.13 280.512C769.234 279.487 766.187 279.033 763.122 279.033C757.095 279.033 751.977 280.781 747.869 283.722C743.104 287.134 737.716 293.2 737.295 303.014C737.161 306.056 737.969 311.098 737.935 310.459C737.986 310.442 738.053 310.426 738.104 310.426C739.08 310.274 740.124 310.594 740.814 311.215C740.814 311.215 741.134 311.501 741.572 311.904C742.279 308.93 744.417 306.308 747.195 305.031C747.279 304.997 747.364 304.964 747.431 304.93C751.556 304.93 762.146 304.93 762.146 304.93C763.829 304.611 765.58 304.04 766.018 303.804C768.072 302.645 769.958 301.031 771.288 299.099C774.941 299.435 778.174 301.519 780.38 304.342C781.945 306.325 783.023 308.661 783.696 311.098C784.909 311.098 785.952 311.064 785.952 311.064C786.592 310.476 787.535 310.173 788.444 310.241C788.814 308.106 789.033 305.754 788.916 302.998C788.814 300.527 788.36 298.091 787.585 295.771L788.713 296.225C791.441 297.368 794.354 297.166 797.687 296.124L797.721 296.141Z" fill="#645D5C"/>
<path d="M752.583 338.389C752.583 338.389 752.667 337.952 752.617 338.137C752.617 338.205 752.6 338.255 752.583 338.322C752.583 338.406 752.549 338.473 752.549 338.557C752.516 338.742 752.482 338.927 752.431 339.095C752.347 339.448 752.246 339.801 752.128 340.154C752.112 340.204 751.977 340.54 752.078 340.288C752.179 340.053 752.061 340.322 752.027 340.372C751.943 340.557 751.842 340.725 751.741 340.893C751.691 340.977 751.623 341.061 751.573 341.145C751.421 341.364 751.758 340.927 751.573 341.129C751.421 341.297 751.27 341.465 751.118 341.599C751.034 341.683 750.95 341.75 750.849 341.834C750.731 341.935 750.95 341.75 750.95 341.75C750.916 341.75 750.849 341.834 750.815 341.834C750.714 341.902 750.596 341.969 750.495 342.036C750.293 342.204 750.613 342.002 750.63 342.002C750.445 342.002 750.091 342.238 749.889 342.322C749.367 342.557 748.845 342.809 748.323 343.044C747.886 343.246 747.448 343.465 746.993 343.666C746.673 343.801 746.387 344.238 746.303 344.557C746.202 344.91 746.252 345.397 746.454 345.716C746.657 346.036 746.976 346.321 747.347 346.405C747.768 346.506 748.121 346.405 748.509 346.254C749.468 345.851 750.411 345.364 751.354 344.927C751.438 344.893 751.539 344.843 751.623 344.809C751.909 344.674 751.253 344.994 751.438 344.893C751.741 344.725 752.027 344.624 752.314 344.422C752.6 344.221 752.886 344.002 753.138 343.784C753.947 343.078 754.485 342.171 754.889 341.196C755.058 340.792 755.176 340.372 755.277 339.952C755.395 339.465 755.563 338.877 755.563 338.373C755.563 337.583 754.873 336.826 754.065 336.877C753.256 336.927 752.566 337.532 752.566 338.373L752.583 338.389Z" fill="#211715"/>
<path d="M772.13 337.835C772.399 339.851 772.803 341.834 774.218 343.397C774.605 343.817 775.059 344.187 775.531 344.49C775.783 344.658 776.053 344.826 776.356 344.927C776.457 344.96 775.901 344.725 776.07 344.809C776.103 344.826 776.154 344.843 776.187 344.859C776.726 345.095 777.265 345.364 777.787 345.599C778.275 345.834 778.763 346.069 779.252 346.288C779.976 346.607 780.902 346.523 781.306 345.75C781.659 345.095 781.525 344.036 780.767 343.7C779.824 343.28 778.915 342.826 777.972 342.389C777.821 342.322 777.669 342.255 777.518 342.187C777.383 342.137 777.265 342.053 777.113 342.019C777.147 342.019 777.433 342.204 777.299 342.07C777.265 342.036 777.198 342.003 777.147 341.969C777.046 341.902 776.962 341.834 776.861 341.784C776.827 341.767 776.676 341.65 776.827 341.784C776.996 341.902 776.794 341.75 776.76 341.734C776.592 341.582 776.423 341.431 776.272 341.263C776.204 341.196 776.154 341.095 776.086 341.045C776.086 341.045 776.255 341.297 776.171 341.162C776.137 341.112 776.103 341.061 776.07 341.011C775.952 340.843 775.851 340.675 775.767 340.49C775.733 340.406 775.682 340.322 775.649 340.255C775.767 340.557 775.548 340.036 775.649 340.255C775.514 339.851 775.396 339.465 775.295 339.045C775.261 338.86 775.211 338.658 775.177 338.473C775.144 338.339 775.127 338.188 775.11 338.053C775.11 337.952 775.026 337.448 775.076 337.868C775.026 337.448 774.942 337.112 774.639 336.81C774.369 336.541 773.948 336.356 773.578 336.373C772.854 336.406 771.962 337.045 772.079 337.868L772.13 337.835Z" fill="#211715"/>
<path d="M775.345 282.025C776.255 280.176 777.955 279.235 779.908 278.765C781.912 278.277 784.067 278.244 785.986 279.067C787.922 279.907 789.791 281.437 790.885 283.235C792.182 285.352 792.687 288.007 793.242 290.377C793.832 292.965 794.808 295.25 796.677 297.183L797.334 294.679C794.606 295.519 791.879 295.872 789.151 294.78C788.394 294.477 787.501 295.116 787.299 295.822C787.064 296.679 787.585 297.368 788.343 297.67C791.508 298.948 794.926 298.544 798.125 297.57C799.219 297.233 799.59 295.889 798.782 295.066C797.047 293.267 796.492 291.15 795.953 288.78C795.347 286.125 794.606 283.201 792.973 280.983C791.424 278.865 789.202 277.151 786.76 276.177C784.403 275.235 781.777 275.286 779.319 275.824C776.591 276.429 773.999 277.941 772.736 280.512C772.382 281.235 772.534 282.142 773.275 282.563C773.931 282.949 774.975 282.764 775.329 282.025H775.345Z" fill="#211715"/>
<path d="M787.064 312.14C787.838 311.484 789.219 311.652 789.724 312.577C790.027 313.131 790.027 313.887 790.044 314.492C790.044 315.265 790.01 316.038 789.876 316.795C789.606 318.307 789.084 319.769 788.259 321.063C787.704 321.954 786.778 323.197 785.683 322.912C783.814 322.408 783.006 325.315 784.875 325.802C787.333 326.458 789.269 324.878 790.599 322.962C791.93 321.063 792.67 318.744 792.94 316.459C793.209 314.308 793.209 311.552 791.458 309.989C789.572 308.291 786.828 308.443 784.942 310.022C784.32 310.543 784.404 311.602 784.942 312.14C785.565 312.761 786.441 312.661 787.064 312.14Z" fill="#211715"/>
<path d="M741.892 310.157C740.006 308.577 737.262 308.443 735.376 310.123C733.625 311.686 733.625 314.442 733.895 316.593C734.181 318.879 734.905 321.198 736.235 323.097C737.582 325.012 739.501 326.592 741.959 325.937C743.828 325.433 743.037 322.542 741.151 323.046C740.057 323.332 739.131 322.088 738.575 321.198C737.75 319.887 737.228 318.425 736.959 316.929C736.824 316.207 736.79 315.484 736.79 314.761C736.79 314.106 736.79 313.299 737.11 312.711C737.615 311.804 738.996 311.619 739.77 312.274C740.393 312.795 741.286 312.879 741.892 312.274C742.431 311.736 742.515 310.678 741.892 310.157Z" fill="#211715"/>
<path d="M783.663 322.592C783.494 323.786 783.107 324.878 782.72 326.004C782.636 326.239 782.905 325.668 782.754 325.937C782.686 326.038 782.653 326.155 782.585 326.273C782.467 326.508 782.35 326.743 782.215 326.979C781.491 328.256 780.649 329.516 779.74 330.659C777.501 333.482 774.605 336.373 770.968 337.163C769.083 337.583 769.874 340.473 771.776 340.053C775.918 339.146 779.319 335.986 781.878 332.776C784.084 330.004 786.037 326.979 786.575 323.399C786.693 322.592 786.373 321.786 785.532 321.551C784.824 321.349 783.797 321.786 783.68 322.592H783.663Z" fill="#211715"/>
<path d="M739.569 322.895C740.68 327.197 742.885 331.163 745.95 334.373C749.014 337.6 752.97 340.221 757.449 340.843C758.257 340.961 759.065 340.641 759.301 339.801C759.503 339.095 759.065 338.07 758.257 337.952C750.361 336.843 744.384 329.449 742.481 322.088C741.993 320.223 739.097 321.013 739.586 322.895H739.569Z" fill="#211715"/>
<path d="M789.959 310.493C791.104 303.485 790.397 296.057 786.508 289.957C782.871 284.26 776.962 280.075 770.396 278.412C763.695 276.714 756.27 277.403 750.108 280.58C745.512 282.949 741.521 286.781 739.013 291.284C737.329 294.293 736.353 297.603 735.949 301.015C735.578 304.157 735.881 307.367 736.386 310.493C736.521 311.299 737.514 311.736 738.238 311.535C739.097 311.299 739.417 310.493 739.282 309.686C738.474 304.745 738.575 299.25 740.764 294.444C742.649 290.327 745.815 286.814 749.485 284.411C754.57 281.084 760.849 279.941 766.826 280.764C772.938 281.605 778.578 284.764 782.484 289.503C787.097 295.116 788.192 302.695 787.047 309.686C786.912 310.493 787.249 311.299 788.091 311.535C788.815 311.736 789.808 311.283 789.943 310.493H789.959Z" fill="#211715"/>
<path d="M804.405 364.992C802.402 360.287 799.489 355.749 796.071 351.951C792.62 348.12 787.485 345.8 782.77 343.952C782.013 343.649 781.121 344.271 780.918 344.994C780.683 345.851 781.205 346.54 781.962 346.842C786.272 348.523 790.97 350.691 794.084 354.22C797.25 357.833 799.943 362.085 801.812 366.504C802.132 367.244 803.227 367.412 803.866 367.042C804.641 366.589 804.725 365.731 804.405 364.992Z" fill="#211715"/>
<path d="M726.874 366.572C728.204 362.757 729.702 359.06 732.211 355.85C733.288 354.455 734.45 353.262 735.915 352.287C737.666 351.128 739.568 350.153 741.471 349.262C743.66 348.237 745.899 347.313 748.155 346.456C748.913 346.17 749.434 345.448 749.199 344.607C748.997 343.885 748.104 343.263 747.347 343.565C743.07 345.195 738.727 346.943 734.837 349.414C731.319 351.649 728.743 354.993 726.84 358.656C725.662 360.942 724.786 363.362 723.944 365.799C723.304 367.63 726.217 368.42 726.84 366.605L726.874 366.572Z" fill="#211715"/>
<path d="M773.662 301.132C775.901 301.922 777.854 303.468 779.302 305.334C780.06 306.308 780.683 307.384 781.205 308.51C781.441 309.031 781.659 309.552 781.845 310.106C781.963 310.442 782.064 310.778 782.165 311.115C782.198 311.249 782.249 311.383 782.282 311.518C782.316 311.619 782.333 311.72 782.367 311.82C782.434 312.156 782.468 311.955 782.468 311.215L783.006 310.678L782.939 310.728L783.697 310.526H783.596C782.788 310.442 782.097 311.266 782.097 312.022C782.097 312.896 782.788 313.45 783.596 313.518C784.842 313.635 785.498 312.291 785.313 311.232C785.178 310.442 784.892 309.652 784.606 308.896C784.017 307.3 783.259 305.754 782.282 304.342C780.329 301.552 777.686 299.368 774.454 298.225C773.679 297.956 772.804 298.527 772.602 299.267C772.366 300.09 772.888 300.847 773.645 301.115L773.662 301.132Z" fill="#211715"/>
<path d="M771.827 293.906C771.44 296.477 770.177 298.527 768.308 300.292C767.349 301.199 766.456 301.788 765.294 302.493C765.21 302.544 764.975 302.611 765.345 302.493C765.227 302.527 765.126 302.578 765.008 302.628C764.705 302.729 764.402 302.83 764.099 302.914C763.341 303.132 762.567 303.334 761.776 303.485C760.984 303.636 760.513 304.594 760.732 305.334C760.968 306.157 761.776 306.544 762.584 306.375C763.998 306.09 765.53 305.771 766.827 305.098C768.14 304.409 769.369 303.435 770.446 302.426C772.618 300.376 774.285 297.687 774.74 294.713C774.858 293.906 774.538 293.099 773.696 292.864C772.989 292.662 771.962 293.099 771.844 293.906H771.827Z" fill="#211715"/>
<path d="M759.957 293.94C758.863 296.158 757.465 298.326 755.647 300.04C753.879 301.704 751.539 302.107 749.266 302.729C746.959 303.367 744.821 304.376 743.154 306.107C741.572 307.737 740.461 309.804 740.023 312.039C739.871 312.829 740.242 313.669 741.067 313.887C741.808 314.089 742.767 313.635 742.919 312.845C743.323 310.795 744.35 308.963 745.949 307.602C747.633 306.157 749.754 305.72 751.842 305.166C754.25 304.527 756.388 303.586 758.156 301.788C759.957 299.956 761.422 297.754 762.567 295.452C762.92 294.729 762.769 293.822 762.028 293.402C761.355 293.015 760.328 293.217 759.974 293.94H759.957Z" fill="#211715"/>
<path d="M745.932 347.195C749.552 351.01 754.704 352.422 759.789 352.976C765.21 353.564 770.699 353.128 775.733 350.943C777.972 349.968 780.211 348.607 781.76 346.691C782.282 346.069 782.383 345.179 781.76 344.574C781.221 344.036 780.144 343.935 779.639 344.574C777.063 347.716 772.685 349.246 768.796 349.901C766.338 350.304 763.762 350.287 761.287 350.103C758.846 349.935 756.388 349.548 754.064 348.775C751.808 348.019 749.721 346.809 748.071 345.078C746.741 343.666 744.602 345.8 745.949 347.195H745.932Z" fill="#211715"/>
<path d="M854.005 277.655C853.618 279.521 852.911 281.269 852.237 282.932C852.422 282.462 852.153 283.117 852.086 283.252C851.951 283.52 851.816 283.773 851.682 284.041C851.362 284.646 851.025 285.235 850.671 285.806C848.803 288.831 846.547 291.688 843.769 293.923C842.253 295.15 840.57 296.108 838.684 296.528C836.798 296.948 837.59 299.855 839.492 299.418C843.432 298.527 846.732 295.671 849.308 292.696C851.446 290.226 853.449 287.453 854.813 284.478C854.897 284.31 854.965 284.142 855.032 283.974C855.032 283.957 855.268 283.42 855.167 283.655C855.066 283.873 855.167 283.655 855.184 283.604C855.251 283.453 855.318 283.285 855.386 283.134C855.503 282.831 855.638 282.529 855.756 282.226C856.227 280.983 856.632 279.722 856.901 278.428C857.305 276.546 854.392 275.74 854.005 277.622V277.655Z" fill="#211715"/>
<path d="M848.062 227.946C846.294 226.719 844.392 225.677 842.405 224.854C838.516 223.223 834.307 222.4 830.013 222.618C815.82 221.778 802.25 232.382 799.455 245.81C798.698 249.423 798.984 255.036 799.405 257.977C799.641 259.724 800.179 262.094 801.004 263.371C801.122 263.371 801.257 263.354 801.392 263.337C802.351 263.304 803.462 263.606 804.287 264.413L807.234 260.06C809.119 258.783 811.342 257.825 814.288 256.615C815.079 256.313 815.719 256.027 816.393 255.607C816.393 255.842 816.376 256.01 816.376 256.01C816.309 256.565 816.443 257.17 816.948 257.439C817.47 257.708 818.346 257.691 818.935 257.708C821.073 257.741 823.026 257.54 825.905 256.027C826.175 255.859 826.444 255.691 826.68 255.523H837.792C839.442 254.363 841.226 252.011 841.799 250.902C842.859 248.835 843.6 247.238 844.021 244.768H846.412C846.866 248.398 848.331 251.809 849.897 255.103C850.84 257.086 852.002 259.22 854.039 260.01L855.756 264.615C856.598 263.825 857.709 263.522 858.669 263.556C859.292 263.573 859.814 263.707 860.251 263.875C862.305 258.716 861.261 250.297 860.403 246.045C859.965 243.877 859.258 241.776 858.298 239.793C856.648 236.348 854.813 233.794 851.934 231.189L848.079 227.962L848.062 227.946Z" fill="#FEBE69"/>
<path d="M802.957 278.16C804.102 283.319 806.509 288.142 809.961 292.158C813.295 296.04 817.588 299.132 822.74 299.922C823.548 300.04 824.356 299.721 824.592 298.88C824.794 298.175 824.356 297.149 823.548 297.032C818.834 296.309 815.13 293.587 812.099 290.041C808.984 286.411 806.914 282.008 805.87 277.37C805.449 275.488 802.536 276.277 802.974 278.176L802.957 278.16Z" fill="#211715"/>
<path d="M848.819 226.635C843.583 223.055 837.27 220.938 830.889 221.055C828.262 221.106 825.703 221.056 823.094 221.543C820.619 221.997 818.211 222.786 815.921 223.828C807.032 227.828 799.472 236.315 797.873 246.095C797.401 249.003 797.401 251.994 797.603 254.918C797.789 257.825 798.142 260.817 799.371 263.489C799.708 264.228 800.785 264.413 801.425 264.026C802.183 263.589 802.301 262.716 801.964 261.976C801.442 260.85 801.189 259.573 800.971 258.363C800.819 257.456 800.718 256.531 800.634 255.473C800.449 253.036 800.398 250.582 800.617 248.162C801.004 243.743 802.94 239.491 805.55 235.928C810.87 228.651 819.794 223.929 828.868 224.064C830.4 224.08 831.949 224.03 833.498 224.164C835.131 224.299 836.748 224.601 838.347 225.038C841.563 225.912 844.56 227.374 847.304 229.256C848.904 230.349 850.419 227.744 848.819 226.668V226.635Z" fill="#211715"/>
<path d="M861.581 264.531C863.349 260.346 863.13 255.338 862.659 250.902C862.44 248.851 862.137 246.784 861.665 244.768C861.009 241.995 859.881 239.306 858.467 236.836C857.019 234.298 855.15 232.046 852.995 230.08C851.564 228.769 849.442 230.887 850.873 232.197C854.527 235.542 857.187 239.793 858.517 244.583C859.611 248.515 860.032 252.784 859.931 256.867C859.881 259.203 859.595 261.556 858.685 263.724C858.366 264.48 859.022 265.371 859.729 265.572C860.605 265.808 861.261 265.27 861.581 264.531Z" fill="#211715"/>
<path d="M844.913 244.717C845.385 248.263 846.63 251.557 848.112 254.8C849.375 257.523 850.722 260.212 853.634 261.422C854.392 261.741 855.284 261.085 855.486 260.38C855.722 259.506 855.183 258.85 854.442 258.531C852.405 257.674 851.429 254.868 850.604 253.036C849.392 250.397 848.314 247.625 847.927 244.734C847.826 243.927 847.304 243.238 846.428 243.238C845.704 243.238 844.812 243.927 844.93 244.734L844.913 244.717Z" fill="#211715"/>
<path d="M805.365 263.321C803.614 261.741 801.105 261.371 798.95 262.363C797.368 263.085 796.425 264.598 796.004 266.245C795.027 270.009 795.97 274.362 798.142 277.571C799.59 279.722 801.88 281.655 804.641 281.302C805.449 281.201 806.139 280.68 806.139 279.806C806.139 279.067 805.449 278.193 804.641 278.311C802.503 278.58 801.072 276.815 800.163 275.101C799.405 273.706 798.832 272.093 798.698 270.496C798.563 268.9 798.58 267.001 799.523 265.64C799.338 265.909 799.624 265.539 799.674 265.488C799.725 265.438 800.028 265.203 799.927 265.27C800.213 265.068 800.499 264.967 800.836 264.883C801.695 264.699 802.604 264.85 803.26 265.455C804.692 266.749 806.83 264.631 805.382 263.337L805.365 263.321Z" fill="#211715"/>
<path d="M843.347 303.166C844.644 305.199 846.849 306.493 848.937 307.569C851.395 308.829 853.988 309.821 856.53 310.879C857.288 311.182 858.18 310.543 858.382 309.837C858.618 308.98 858.079 308.308 857.338 307.989C855.082 307.064 852.809 306.174 850.621 305.065C849.594 304.544 848.583 303.989 847.641 303.317C847.236 303.031 847.051 302.897 846.63 302.477C846.479 302.325 846.344 302.174 846.193 302.023C846.108 301.939 846.007 301.788 846.142 301.973C846.075 301.872 845.991 301.771 845.923 301.653C845.486 300.964 844.576 300.695 843.869 301.115C843.179 301.519 842.893 302.477 843.33 303.166H843.347Z" fill="#211715"/>
<path d="M808.614 307.972C811.207 307.132 813.85 306.342 816.292 305.115C817.42 304.544 818.75 303.872 819.12 302.578C819.322 301.905 819.373 301.183 819.507 300.494C819.642 299.721 819.777 298.948 819.912 298.191C820.046 297.385 819.693 296.578 818.868 296.343C818.144 296.141 817.15 296.595 817.016 297.385C816.78 298.729 816.544 300.074 816.292 301.418C816.292 301.452 816.224 301.771 816.224 301.771C816.224 301.771 816.325 301.569 816.342 301.603C816.342 301.603 815.803 301.939 815.753 301.973C815.366 302.225 814.945 302.443 814.541 302.645C813.615 303.098 812.773 303.401 811.679 303.804C810.416 304.258 809.12 304.678 807.84 305.081C807.065 305.334 806.56 306.123 806.796 306.93C806.998 307.686 807.874 308.241 808.648 307.972H808.614Z" fill="#211715"/>
<path d="M808.025 312.694C811.24 314.207 814.524 315.585 817.958 316.509C821.14 317.366 824.44 317.837 827.723 317.988C831.36 318.156 835.047 318.055 838.667 317.685C841.226 317.416 843.785 317.03 846.243 316.24C848.196 315.602 850.031 314.711 851.833 313.736C853.533 312.795 852.018 310.207 850.317 311.148C849.61 311.535 848.903 311.921 848.179 312.257C847.843 312.425 847.489 312.577 847.152 312.728C847.455 312.593 846.866 312.845 846.782 312.879C846.546 312.963 846.31 313.064 846.075 313.148C843.987 313.887 841.782 314.341 839.576 314.593C833.161 315.366 826.343 315.45 820.012 313.955C816.376 313.098 812.924 311.703 809.557 310.123C808.816 309.77 807.941 309.921 807.503 310.661C807.116 311.316 807.301 312.375 808.042 312.711L808.025 312.694Z" fill="#211715"/>
<path d="M838.566 256.783C841.007 255.036 842.775 252.532 844.004 249.826C845.3 246.969 845.772 244.011 845.89 240.886C845.974 238.953 842.96 238.953 842.876 240.886C842.825 242.331 842.724 243.793 842.405 245.205C842.169 246.28 841.765 247.473 841.394 248.314C840.384 250.515 839.054 252.75 837.051 254.195C836.394 254.666 836.074 255.506 836.512 256.246C836.899 256.901 837.909 257.254 838.566 256.783Z" fill="#211715"/>
<path d="M814.877 255.96C814.776 257.203 815.382 258.363 816.561 258.834C817.537 259.22 818.699 259.17 819.726 259.153C821.898 259.102 823.918 258.582 825.871 257.657C827.892 256.716 829.491 255.204 830.838 253.456C832.202 251.725 833.296 249.86 834.037 247.776C834.845 245.507 835.148 243.104 835.434 240.718C835.535 239.911 834.677 239.222 833.936 239.222C833.043 239.222 832.522 239.911 832.437 240.718C832.185 242.869 831.865 245.037 831.107 247.07C830.4 249.019 829.205 250.834 827.824 252.38C826.359 254.044 824.524 255.17 822.369 255.758C821.494 255.994 820.618 256.094 819.726 256.111C819.238 256.111 818.749 256.128 818.278 256.111C818.143 256.111 817.84 256.111 817.722 256.061C817.891 256.128 817.857 256.313 817.891 255.943C817.958 255.136 817.15 254.447 816.392 254.447C815.534 254.447 814.944 255.136 814.894 255.943L814.877 255.96Z" fill="#211715"/>
<path d="M808.008 261.321C811.342 259.102 815.433 258.279 818.632 255.859C821.864 253.406 823.447 249.675 824.39 245.843C824.844 243.961 821.949 243.171 821.494 245.037C820.669 248.381 819.39 251.675 816.477 253.725C814.928 254.817 813.16 255.422 811.426 256.162C809.725 256.901 808.059 257.674 806.51 258.699C804.91 259.775 806.409 262.379 808.025 261.287L808.008 261.321Z" fill="#211715"/>
<path d="M678.267 294.629C686.888 302.225 699.633 304.88 710.728 302.191C714.028 301.401 717.21 300.074 720.106 298.292C721.756 297.267 720.24 294.662 718.59 295.704C709.415 301.401 697.259 301.552 687.544 297.065C684.968 295.872 682.544 294.377 680.422 292.511C678.975 291.234 676.836 293.351 678.301 294.629H678.267Z" fill="#211715"/>
<path d="M673.2 230.937C675.776 222.803 681.046 217.459 685.76 214.199C691.013 210.552 697.512 208.485 705.071 208.72C712.277 208.956 717.951 211.157 722.783 214.535L726.857 217.863C731.891 222.702 736.353 230.147 736.454 240.919C736.488 244.549 735.966 247.49 734.838 251.422C734.501 251.322 734.097 251.238 733.659 251.204C732.666 251.137 731.487 251.406 730.595 252.212L726.453 248.717C725.19 245.221 722.21 241.323 719.062 238.432C717.227 236.752 715.947 235.995 714.247 235.189L708.943 234.365C705.307 235.76 700.138 238.768 697.242 240.264C696.552 240.617 695.777 239.995 695.895 239.172C695.979 238.634 695.996 238.062 695.828 237.306C695.66 236.516 695.07 236.163 694.599 236.399C690.541 238.348 684.699 243.558 681.366 247.036L676.971 250.498C676.129 249.641 674.968 249.288 673.974 249.288C673.469 249.288 673.048 249.355 672.661 249.456C671.769 245.709 671.449 242.028 671.685 238.835C671.904 235.945 672.425 233.306 673.183 230.92L673.2 230.937Z" fill="#645D5C"/>
<path d="M678.049 249.439C676.264 247.742 673.57 247.322 671.348 248.364C669.748 249.103 668.806 250.616 668.334 252.263C667.223 256.111 668.098 260.565 670.169 263.942C671.6 266.278 673.958 268.379 676.887 268.076C677.695 267.992 678.385 267.438 678.385 266.581C678.385 265.825 677.695 265.001 676.887 265.085C674.597 265.32 673.133 263.27 672.223 261.438C671.483 259.943 670.978 258.245 670.893 256.582C670.809 254.952 670.893 252.969 671.92 251.624C671.701 251.91 672.072 251.473 672.122 251.423C672.324 251.238 672.038 251.439 672.308 251.271C672.644 251.053 672.998 250.918 673.402 250.851C674.328 250.7 675.237 250.935 675.927 251.574C677.325 252.918 679.463 250.784 678.049 249.456V249.439Z" fill="#211715"/>
<path d="M731.672 253.288C732.38 252.7 733.39 252.599 734.248 252.817C734.568 252.901 734.939 253.069 735.141 253.221C735.326 253.355 735.545 253.624 735.562 253.641C736.521 255.036 736.488 257.086 736.286 258.699C736.084 260.396 735.444 262.043 734.585 263.522C733.71 265.052 732.076 267.169 730.056 266.833C729.248 266.698 728.44 267.035 728.204 267.875C728.002 268.597 728.457 269.589 729.248 269.723C734.198 270.547 737.195 265.808 738.643 261.775C739.838 258.413 740.023 253.069 736.791 250.75C734.602 249.171 731.521 249.49 729.517 251.17C728.894 251.691 728.979 252.75 729.517 253.288C730.14 253.91 731.016 253.809 731.639 253.288H731.672Z" fill="#211715"/>
<path d="M728.44 265.858C728.17 266.967 727.8 268.06 727.396 269.118C727.244 269.505 727.093 269.891 726.925 270.261C726.857 270.412 726.773 270.564 726.706 270.732C726.234 271.757 726.807 270.547 726.588 271.017C726.032 272.143 725.409 273.219 724.736 274.261C722.749 277.302 720.325 280.227 717.412 282.428C715.745 283.688 713.927 284.68 711.873 285.1C711.082 285.251 710.61 286.209 710.829 286.949C711.065 287.772 711.873 288.159 712.681 287.991C716.806 287.167 720.325 284.277 723.086 281.252C725.376 278.748 727.547 275.908 729.029 272.849C729.096 272.731 729.147 272.614 729.197 272.479C729.248 272.345 729.484 271.858 729.399 272.026C729.282 272.244 729.433 271.958 729.467 271.908C729.534 271.774 729.585 271.656 729.652 271.522C729.787 271.219 729.905 270.917 730.039 270.614C730.578 269.32 731.049 267.992 731.369 266.631C731.824 264.749 728.911 263.942 728.473 265.825L728.44 265.858Z" fill="#211715"/>
<path d="M675.254 264.85C676.028 268.866 677.544 272.782 679.732 276.261C682.056 279.958 685.154 283.453 688.942 285.688C690.878 286.831 693.016 287.638 695.222 288.041C696.013 288.192 696.838 287.823 697.074 286.999C697.276 286.276 696.821 285.302 696.03 285.151C691.181 284.277 687.41 281.336 684.345 277.571C681.18 273.673 679.109 268.967 678.167 264.06C678.015 263.27 677.055 262.8 676.315 263.018C675.473 263.253 675.102 264.06 675.271 264.867L675.254 264.85Z" fill="#211715"/>
<path d="M723.557 213.241C714.23 206.754 701.569 205.309 691.029 209.645C682.359 213.224 675.389 220.467 672.173 229.256C669.816 235.726 669.614 242.684 671.095 249.372C671.516 251.254 674.412 250.465 673.991 248.566C671.786 238.667 673.991 228.063 680.877 220.434C683.622 217.392 686.719 214.989 690.407 213.174C695.239 210.804 700.677 209.93 706.031 210.25C711.822 210.586 717.26 212.518 722.008 215.812C722.682 216.283 723.675 215.93 724.062 215.275C724.5 214.518 724.197 213.678 723.524 213.224L723.557 213.241Z" fill="#211715"/>
<path d="M736.437 251.389C737.195 248.683 737.767 245.927 737.935 243.121C738.104 240.348 737.902 237.541 737.447 234.802C736.723 230.315 735.073 225.963 732.514 222.198C731.251 220.35 729.803 218.636 728.187 217.073C726.79 215.728 724.668 217.846 726.066 219.19C728.76 221.795 730.931 224.837 732.43 228.248C734.316 232.5 735.04 237.256 734.955 241.894C734.905 244.868 734.316 247.725 733.524 250.582C733.002 252.448 735.915 253.237 736.42 251.389H736.437Z" fill="#211715"/>
<path d="M713.506 236.499C716.149 237.76 718.271 239.575 720.224 241.743C722.177 243.894 723.978 246.381 725.005 249.12C725.291 249.876 726.032 250.397 726.857 250.162C727.598 249.96 728.187 249.087 727.901 248.314C726.722 245.137 724.753 242.314 722.513 239.793C720.375 237.39 717.951 235.289 715.021 233.895C714.28 233.542 713.388 233.693 712.967 234.432C712.58 235.088 712.765 236.13 713.506 236.483V236.499Z" fill="#211715"/>
<path d="M682.46 248.112C685.76 244.684 689.38 241.356 693.403 238.819C693.824 238.55 694.262 238.281 694.717 238.046C694.818 237.995 694.952 237.945 695.053 237.861C695.255 237.709 695.205 237.894 695.053 237.81C694.986 237.777 694.043 238.163 694.397 237.642C694.346 237.709 694.43 237.894 694.43 237.978C694.481 238.516 694.363 239.054 694.397 239.592C694.464 240.314 694.834 240.97 695.424 241.39C696.653 242.264 697.814 241.659 698.959 241.054C699.953 240.516 700.963 239.978 701.956 239.44C704.364 238.146 706.788 236.819 709.331 235.827C710.088 235.542 710.61 234.819 710.374 233.979C710.172 233.256 709.28 232.634 708.522 232.937C706.132 233.861 703.859 235.037 701.603 236.231C700.508 236.819 699.431 237.407 698.336 237.995C697.899 238.23 697.461 238.466 697.023 238.701C696.67 238.886 696.484 238.835 696.939 238.987C697.394 239.138 697.377 239.39 697.427 238.785C697.528 237.441 697.208 235.811 695.929 235.121C694.717 234.466 693.504 235.239 692.461 235.861C690.289 237.155 688.268 238.735 686.332 240.348C684.211 242.129 682.19 244.011 680.271 245.994C678.924 247.389 681.062 249.524 682.392 248.112H682.46Z" fill="#211715"/>
<path d="M679.985 294.578C681.332 294.057 682.679 293.553 684.026 293.032C684.851 292.713 685.726 292.444 686.501 292.041C689.329 290.528 689.8 286.898 690.154 284.041C690.255 283.252 689.396 282.512 688.656 282.546C687.763 282.579 687.258 283.218 687.157 284.041C687.14 284.226 687.124 284.277 687.157 284.142C687.157 284.26 687.123 284.361 687.107 284.478C687.073 284.646 687.056 284.814 687.022 284.982C686.955 285.369 686.871 285.772 686.787 286.159C686.669 286.73 686.534 287.285 686.349 287.839C686.315 287.907 686.298 287.991 686.265 288.058C686.349 287.873 686.349 287.873 686.265 288.024C686.214 288.125 686.164 288.243 686.113 288.344C686.046 288.461 685.979 288.579 685.894 288.696C685.709 289.016 686.012 288.612 685.81 288.814C685.726 288.898 685.642 288.982 685.558 289.066C685.507 289.117 685.44 289.184 685.372 289.234C685.524 289.133 685.524 289.117 685.372 289.234C685.271 289.301 685.154 289.369 685.053 289.436C685.002 289.469 684.615 289.638 684.733 289.587C684.851 289.537 684.682 289.587 684.649 289.621C684.514 289.671 684.379 289.722 684.261 289.772C683.824 289.94 683.386 290.108 682.948 290.276C681.702 290.747 680.456 291.234 679.194 291.705C678.453 291.99 677.88 292.73 678.15 293.553C678.385 294.259 679.21 294.898 680.002 294.595L679.985 294.578Z" fill="#211715"/>
<path d="M677.476 292.108C672.627 293.587 667.896 295.435 663.317 297.603C659.057 299.603 654.815 301.905 651.228 304.964C647.474 308.174 645.016 312.728 643.4 317.332C641.564 322.542 640.773 328.071 640.184 333.533C639.527 339.633 639.291 345.817 640.049 351.918C640.689 357.178 641.817 362.824 644.898 367.261C646.312 369.294 648.131 371.075 650.37 372.168C652.845 373.378 655.656 373.781 658.384 373.479C664.041 372.84 668.789 369.647 672.678 365.647C676.23 362.001 679.463 357.9 682.207 353.598C684.648 349.783 686.585 345.683 688.369 341.532C688.925 340.255 689.464 338.978 689.986 337.684C690.305 336.927 689.649 336.037 688.942 335.835C688.083 335.6 687.41 336.137 687.09 336.877C685.356 341.028 683.588 345.179 681.382 349.111C679.21 352.976 676.584 356.556 673.722 359.95C670.489 363.782 666.836 367.765 662.02 369.546C657.525 371.21 652.356 370.941 648.855 367.378C645.521 363.984 644.258 358.976 643.45 354.438C642.44 348.725 642.44 342.86 642.878 337.079C643.282 331.835 643.938 326.525 645.302 321.433C646.548 316.812 648.501 312.156 651.801 308.594C654.562 305.619 658.316 303.535 661.886 301.67C666.162 299.452 670.607 297.586 675.17 296.023C676.213 295.671 677.257 295.318 678.318 294.998C680.17 294.427 679.379 291.537 677.51 292.108H677.476Z" fill="#211715"/>
<path d="M766.187 326.088C766.187 326.088 765.9 326.323 766.153 326.138C766.406 325.937 766.119 326.155 766.035 326.206C765.934 326.256 765.85 326.323 765.749 326.357C765.682 326.39 765.614 326.407 765.547 326.458C765.631 326.407 765.884 326.323 765.648 326.407C765.328 326.508 765.025 326.609 764.705 326.659C764.621 326.659 764.284 326.777 764.671 326.659C764.57 326.676 764.469 326.676 764.385 326.693C764.15 326.71 763.914 326.727 763.678 326.727C763.459 326.727 763.257 326.727 763.038 326.71C763.005 326.71 762.702 326.659 762.685 326.676C762.735 326.626 763.005 326.727 762.702 326.676C762.382 326.609 762.045 326.542 761.742 326.424C761.624 326.374 761.422 326.256 761.809 326.458C761.759 326.424 761.691 326.407 761.641 326.374C761.54 326.323 761.422 326.256 761.321 326.206C761.237 326.155 761.169 326.105 761.085 326.054C761.506 326.306 761.287 326.222 761.153 326.088C760.597 325.533 759.57 325.483 759.031 326.088C758.492 326.676 758.425 327.634 759.031 328.205C760.227 329.365 762.079 329.735 763.678 329.735C765.278 329.735 767.13 329.365 768.325 328.205C768.897 327.651 768.914 326.626 768.325 326.088C767.719 325.533 766.793 325.5 766.204 326.088H766.187Z" fill="#211715"/>
<path d="M762.954 318.374C763.139 319.114 763.324 319.853 763.442 320.609L763.392 320.206C763.392 320.307 763.409 320.408 763.392 320.509L763.442 320.105C763.442 320.105 763.425 320.206 763.409 320.24L763.56 319.887C763.56 319.887 763.526 319.954 763.51 319.971L763.745 319.668C763.745 319.668 763.695 319.719 763.678 319.736L763.981 319.5C763.981 319.5 763.863 319.568 763.796 319.601L764.149 319.45C764.048 319.484 763.947 319.517 763.846 319.534L764.25 319.484C764.149 319.484 764.065 319.484 763.964 319.484L764.368 319.534C764.267 319.534 764.166 319.5 764.048 319.484C763.846 319.416 763.644 319.416 763.442 319.45C763.24 319.45 763.055 319.517 762.887 319.635C762.567 319.82 762.281 320.173 762.196 320.525C762.112 320.912 762.129 321.349 762.348 321.685C762.55 321.987 762.87 322.324 763.24 322.374C763.51 322.408 763.779 322.475 764.048 322.492C764.486 322.508 764.89 322.374 765.294 322.189C765.782 321.954 766.17 321.5 766.304 320.962C766.422 320.509 766.372 320.139 766.304 319.685C766.187 318.963 766.018 318.257 765.833 317.551C765.732 317.181 765.463 316.845 765.143 316.66C764.823 316.475 764.351 316.391 763.981 316.509C763.611 316.627 763.257 316.845 763.089 317.198C762.903 317.551 762.836 317.954 762.937 318.358L762.954 318.374Z" fill="#211715"/>
<path d="M751.623 312.409C751.253 313.585 751.489 316.307 753.745 316.543C756.708 316.526 756.876 313.232 755.866 311.686C755.041 310.426 752.65 309.888 751.623 312.409Z" fill="#211715"/>
<path d="M775.295 312.409C775.666 313.585 775.43 316.307 773.174 316.543C770.211 316.526 770.042 313.232 771.052 311.686C771.877 310.426 774.268 309.888 775.295 312.409Z" fill="#211715"/>
<path d="M833.97 339.566L833.01 336.339C833.01 336.339 832.875 335.902 832.656 335.163C832.269 335.432 831.848 335.701 831.394 335.953C830.333 336.574 828.279 338.927 827.707 340.07C827.707 340.07 827.707 340.07 827.707 340.104C824.07 338.541 819.221 336.39 816.005 334.373C816.628 332.508 817.201 330.222 817.487 328.844C818.093 326.559 818.379 325.096 819.036 323.282C820.416 319.517 822.959 315.03 824.322 311.787C825.804 308.174 830.905 296.46 832.135 293.889C832.96 292.158 834.492 291.889 835.485 292.091C836.546 292.31 837.488 293.738 837.758 294.578L838.128 295.755C838.6 295.637 839.138 295.654 839.66 295.855C840.923 296.326 841.125 297.435 841.091 298.611C841.058 299.553 840.637 301.788 840.149 303.972C841.496 302.846 842.371 302.124 842.371 302.124C842.657 301.888 843.634 301.72 844.56 301.939C845.671 302.208 846.496 302.83 846.799 303.989C847.119 305.233 847.018 308.056 846.799 309.4C845.907 314.778 845.267 319.433 844.442 324.643C843.853 327.5 844.627 329.634 845.587 331.533L848.903 337.936L849.089 338.289C844.661 340.188 839.425 342.439 835.367 344.137C835.35 344.053 835.333 344.002 835.333 344.002L834.003 339.532L833.97 339.566Z" fill="white"/>
<path d="M839.189 294.175C838.549 292.31 837.068 290.595 834.98 290.528C833.111 290.461 831.529 291.654 830.737 293.284C829.592 295.687 828.548 298.158 827.488 300.595C826.175 303.586 824.878 306.577 823.615 309.585C822.184 312.98 820.484 316.223 818.969 319.568C817.942 321.836 817.133 324.105 816.527 326.525C815.904 329.012 815.366 331.533 814.558 333.97C813.951 335.801 816.847 336.591 817.453 334.776C818.75 330.894 819.255 326.794 820.753 322.979C822.235 319.215 824.306 315.719 825.838 311.988C826.747 309.804 827.74 307.485 828.784 305.098C829.963 302.376 831.158 299.653 832.37 296.931C832.774 296.04 833.128 294.746 833.801 294.007C834.037 293.738 834.206 293.654 834.525 293.57C834.963 293.452 834.323 293.553 834.744 293.536C834.862 293.536 835.334 293.637 835.047 293.536C835.62 293.738 836.108 294.528 836.26 294.965C836.529 295.738 837.287 296.242 838.111 296.007C838.852 295.805 839.425 294.931 839.155 294.158L839.189 294.175Z" fill="#211715"/>
<path d="M837.303 315.786C838.196 313.114 839.105 310.308 840.469 307.821C840.586 307.619 840.704 307.417 840.839 307.216C840.502 307.703 840.923 307.115 840.856 307.149C841.445 306.896 841.26 308.241 841.226 308.51C841.041 310.005 840.62 311.518 840.25 312.98C839.442 316.207 838.465 319.383 837.707 322.609C836.899 326.054 835.822 329.634 833.481 332.373C832.387 333.65 831.007 334.255 829.727 335.331C828.447 336.406 827.185 337.818 826.41 339.297C825.518 341.011 828.111 342.523 829.003 340.809C829.66 339.549 830.906 338.137 831.949 337.364C832.421 337.028 833.229 336.574 833.801 336.154C834.525 335.617 835.165 335.028 835.738 334.339C838.431 331.079 839.711 327.113 840.687 323.08C841.563 319.467 842.657 315.921 843.516 312.291C843.954 310.459 844.593 308.325 844.072 306.46C843.398 304.107 840.317 303.384 838.65 305.182C837.539 306.375 836.967 308.14 836.361 309.619C835.637 311.383 834.98 313.182 834.391 314.98C833.785 316.828 836.697 317.618 837.286 315.786H837.303Z" fill="#211715"/>
<path d="M831.478 313.787C832.993 309.972 834.491 306.14 836.024 302.342C836.36 301.485 836.714 300.628 837.067 299.771C837.202 299.452 837.337 299.116 837.471 298.796C837.488 298.746 837.69 298.292 837.606 298.477C837.522 298.662 837.69 298.259 837.724 298.191C837.943 297.687 838.145 297.149 838.785 297.183C839.694 297.217 839.61 298.141 839.559 298.847C839.492 299.754 839.256 300.88 839.037 301.939C838.751 303.367 838.414 304.813 838.061 306.224C837.589 308.106 840.502 308.896 840.957 307.031C841.613 304.392 842.32 301.687 842.556 298.964C842.657 297.704 842.455 296.326 841.563 295.351C840.418 294.124 838.482 293.872 837 294.561C835.249 295.385 834.71 297.586 834.037 299.233C833.145 301.401 832.286 303.586 831.427 305.77C830.468 308.174 829.525 310.577 828.582 312.963C828.279 313.719 828.902 314.61 829.626 314.812C830.484 315.047 831.175 314.526 831.478 313.77V313.787Z" fill="#211715"/>
<path d="M843.112 303.435C843.23 303.351 843.449 303.351 843.718 303.351C844.004 303.351 844.307 303.401 844.56 303.519C845.048 303.72 845.233 304.04 845.351 304.544C845.418 304.829 845.452 305.518 845.452 306.023C845.452 306.745 845.452 307.468 845.385 308.19C845.267 309.686 844.896 311.484 844.644 313.165C844.374 314.963 844.105 316.744 843.836 318.542C843.55 320.408 843.297 322.273 842.977 324.139C842.674 325.954 842.59 327.684 843.095 329.466C843.566 331.18 844.476 332.743 845.284 334.323L847.573 338.725C848.466 340.44 851.059 338.927 850.166 337.213L848.045 333.129C847.22 331.55 846.26 329.97 845.873 328.205C845.469 326.424 845.923 324.66 846.193 322.895C846.496 320.962 846.782 319.03 847.068 317.097C847.371 315.081 847.674 313.064 848.011 311.047C848.264 309.518 848.466 308.022 848.466 306.476C848.466 304.829 848.398 302.981 847.153 301.737C845.856 300.426 843.196 299.805 841.58 300.863C839.963 301.922 841.479 304.527 843.095 303.451L843.112 303.435Z" fill="#211715"/>
<path d="M831.562 336.726C832.219 338.961 832.892 341.213 833.549 343.448L833.835 344.422C834.054 345.179 834.896 345.733 835.687 345.464C836.445 345.212 836.983 344.422 836.731 343.616C836.074 341.381 835.401 339.129 834.744 336.894L834.458 335.919C834.239 335.163 833.397 334.608 832.606 334.877C831.848 335.129 831.309 335.919 831.562 336.726Z" fill="#211715"/>
<path d="M814.119 334.894C816.173 336.356 818.463 337.499 820.736 338.591C823.11 339.717 825.501 340.776 827.925 341.801C828.666 342.12 829.542 342.019 829.979 341.263C830.35 340.625 830.198 339.532 829.44 339.213C827.033 338.188 824.625 337.129 822.251 336.003C819.978 334.911 817.689 333.768 815.635 332.306C814.978 331.835 813.951 332.188 813.581 332.844C813.143 333.6 813.463 334.423 814.119 334.894Z" fill="#211715"/>
<path d="M676.921 315.165C676.719 315.03 676.533 314.913 676.348 314.795L676.533 314.055C677.678 307.821 678.638 302.93 680.557 296.931C681.584 293.721 682.645 289.873 684.749 287.823C686.147 286.31 688.134 284.697 690.002 283.806C693.925 281.924 698.303 280.277 702.815 279.302C703.808 279.084 705.542 279.151 706.418 279.655C707.209 280.109 707.596 280.932 707.462 281.874C707.327 282.882 705.576 284.008 704.145 284.579C700.727 285.957 697.68 287.503 694.414 289.033L694.161 289.15C696.905 289.469 700.289 289.94 702.36 290.209C703.286 290.327 705.29 291.167 705.088 293.419C704.936 295.049 703.993 296.376 701.367 296.225C702.074 296.561 702.562 296.78 702.562 296.78C703.724 297.334 704.414 298.376 704.145 299.956C703.892 301.401 702.276 301.821 701.266 301.754C701.232 301.754 701.199 301.754 701.165 301.754C701.552 302.141 701.771 302.359 701.771 302.359C702.327 302.914 702.394 303.989 702.377 304.443C702.377 305.552 701.502 306.476 700.104 306.762C698.942 306.997 697.814 307.199 696.08 307.468C696.013 309.854 695.878 311.602 695.188 313.316C694.262 315.618 693.083 316.996 691.181 317.501C691.181 317.501 690.019 319.82 688.891 322.038C685.524 320.324 680.288 317.383 676.904 315.181L676.921 315.165Z" fill="white"/>
<path d="M692.107 290.427C693.909 290.579 695.727 290.814 697.528 291.049C698.471 291.167 699.397 291.301 700.34 291.419C700.744 291.469 701.148 291.52 701.552 291.587C701.737 291.604 701.923 291.637 702.091 291.654C702.411 291.688 701.889 291.587 702.243 291.688C702.36 291.721 702.478 291.755 702.596 291.789C702.916 291.873 702.495 291.705 702.714 291.839C702.832 291.923 702.966 291.973 703.101 292.057C703.236 292.141 703.084 292.041 703.067 292.024C703.152 292.091 703.236 292.175 703.32 292.259C703.556 292.478 703.337 292.259 703.472 292.444C703.488 292.478 703.606 292.696 703.505 292.478C703.539 292.545 703.556 292.629 703.573 292.696C703.657 292.948 703.623 292.814 703.623 293.032C703.623 293.167 703.539 293.704 703.623 293.385C703.589 293.52 703.556 293.671 703.522 293.805C703.455 294.125 703.589 293.755 703.472 293.956C703.438 294.024 703.236 294.343 703.337 294.209C703.472 294.04 703.034 294.494 703.185 294.377C703.286 294.293 702.983 294.494 702.899 294.545C702.849 294.578 702.647 294.629 702.882 294.545C702.815 294.561 702.748 294.595 702.663 294.612C702.276 294.696 702.091 294.729 701.603 294.713C700.492 294.679 699.38 294.494 698.269 294.377C697.091 294.259 695.895 294.141 694.717 294.007C693.909 293.906 693.218 294.763 693.218 295.503C693.218 296.393 693.909 296.914 694.717 296.998C695.895 297.133 697.074 297.25 698.269 297.368C699.431 297.486 700.626 297.704 701.805 297.704C703.876 297.704 705.711 296.729 706.384 294.713C707.058 292.713 706.351 290.545 704.566 289.402C703.842 288.949 703.068 288.747 702.243 288.646C701.266 288.512 700.289 288.394 699.313 288.259C696.922 287.94 694.531 287.604 692.124 287.402C691.316 287.335 690.625 288.142 690.625 288.898C690.625 289.772 691.316 290.327 692.124 290.394L692.107 290.427Z" fill="#211715"/>
<path d="M701.805 298.074C701.939 298.141 702.074 298.225 702.226 298.309C702.36 298.41 702.36 298.393 702.192 298.275C702.242 298.326 702.31 298.376 702.36 298.427C702.411 298.477 702.461 298.527 702.512 298.595C702.394 298.427 702.377 298.427 702.478 298.561C702.529 298.662 702.596 298.763 702.646 298.847C702.461 298.511 702.646 298.948 702.68 299.032C702.714 299.2 702.714 299.183 702.68 298.998C702.68 299.082 702.68 299.166 702.68 299.25C702.68 299.317 702.613 299.838 702.68 299.553C702.663 299.67 702.63 299.788 702.579 299.905C702.663 299.721 702.663 299.704 702.579 299.855C702.495 299.989 702.495 299.973 702.63 299.821C702.545 299.905 702.209 300.141 702.529 299.939C702.411 300.006 702.276 300.09 702.158 300.158C702.495 299.973 702.226 300.124 702.125 300.158C701.99 300.191 701.855 300.225 701.72 300.258C701.451 300.326 702.057 300.258 701.619 300.258C701.434 300.258 701.249 300.258 701.064 300.242C698.926 300.074 696.787 299.905 694.666 299.704C693.875 299.637 693.134 300.443 693.168 301.199C693.201 302.073 693.824 302.628 694.666 302.695C696.67 302.88 698.673 303.048 700.677 303.199C701.72 303.283 702.697 303.199 703.657 302.762C705.037 302.107 705.728 300.746 705.711 299.25C705.694 297.62 704.785 296.192 703.32 295.486C702.613 295.133 701.653 295.267 701.266 296.023C700.912 296.696 701.047 297.704 701.805 298.074Z" fill="#211715"/>
<path d="M694.582 307.636C694.565 308.224 694.548 308.795 694.497 309.367C694.481 309.602 694.464 309.837 694.43 310.089C694.43 310.224 694.396 310.342 694.38 310.476C694.413 310.257 694.38 310.51 694.363 310.594C694.295 311.047 694.194 311.501 694.077 311.938C694.009 312.173 693.942 312.392 693.858 312.627C693.824 312.745 693.774 312.862 693.723 312.963C693.605 313.232 693.875 312.661 693.656 313.114C693.454 313.535 693.252 313.938 693.016 314.324C692.949 314.425 692.898 314.509 692.831 314.61C692.814 314.644 692.595 314.929 692.713 314.778C692.831 314.627 692.578 314.913 692.595 314.913C692.544 314.98 692.477 315.03 692.427 315.097C692.292 315.249 692.14 315.383 691.972 315.501C692.124 315.366 692.073 315.433 691.938 315.501C691.854 315.551 691.77 315.602 691.686 315.652C691.618 315.686 691.551 315.736 691.467 315.77C691.467 315.77 691.13 315.938 691.315 315.854C691.501 315.77 691.198 315.904 691.147 315.904C691.029 315.938 690.911 315.988 690.777 316.022C689.985 316.24 689.514 317.08 689.733 317.87C689.952 318.66 690.793 319.131 691.585 318.912C693.723 318.307 695.255 316.727 696.181 314.761C697.242 312.493 697.494 310.106 697.579 307.619C697.595 306.829 696.871 306.073 696.08 306.123C695.238 306.157 694.598 306.779 694.582 307.619V307.636Z" fill="#211715"/>
<path d="M700.71 303.418C700.879 303.603 700.508 303.082 700.71 303.418L700.744 303.485C700.811 303.619 700.794 303.586 700.693 303.351C700.727 303.535 700.811 303.72 700.845 303.905C700.862 304.04 700.845 304.292 700.845 303.804C700.845 303.872 700.845 303.939 700.862 304.023C700.862 304.157 700.862 304.292 700.862 304.426C700.862 304.594 700.778 304.695 700.895 304.325C700.862 304.409 700.862 304.493 700.845 304.577C700.845 304.611 700.828 304.645 700.811 304.678C700.761 304.829 700.778 304.779 700.879 304.527C700.845 304.577 700.811 304.661 700.778 304.729C700.744 304.779 700.727 304.813 700.693 304.863C700.845 304.678 700.879 304.628 700.811 304.712C700.744 304.779 700.693 304.846 700.626 304.913C700.491 305.048 700.407 304.997 700.677 304.88C700.592 304.913 700.508 304.997 700.424 305.048C700.357 305.081 700.188 305.132 700.155 305.182L700.357 305.098C700.357 305.098 700.239 305.149 700.188 305.165C699.986 305.233 699.767 305.283 699.565 305.317C699.212 305.384 698.841 305.451 698.488 305.518C697.596 305.686 696.686 305.821 695.794 305.955C695.44 306.006 695.07 306.359 694.902 306.644C694.717 306.964 694.632 307.434 694.75 307.804C694.868 308.174 695.087 308.527 695.44 308.695C695.828 308.896 696.181 308.913 696.602 308.846C697.612 308.695 698.623 308.527 699.633 308.342C700.727 308.14 701.737 307.871 702.613 307.149C703.455 306.443 703.909 305.384 703.909 304.308C703.909 303.216 703.623 302.09 702.865 301.267C702.327 300.695 701.266 300.679 700.744 301.267C700.171 301.888 700.171 302.779 700.744 303.384L700.71 303.418Z" fill="#211715"/>
<path d="M695.188 290.31C697.596 289.184 699.987 288.007 702.411 286.932C704.499 286.008 707.327 285.268 708.556 283.151C709.819 281 708.27 278.462 706.031 277.891C703.657 277.302 701.249 278.042 698.993 278.714C696.451 279.454 693.976 280.395 691.552 281.453C689.228 282.462 687.124 283.621 685.204 285.302C683.504 286.781 682.157 288.461 681.248 290.528C680.322 292.612 679.665 294.797 678.992 296.965C677.274 302.426 676.13 308.022 675.103 313.669C674.951 314.459 675.321 315.282 676.146 315.518C676.87 315.719 677.847 315.265 677.998 314.476C678.807 310.022 679.665 305.586 680.877 301.216C681.45 299.149 682.09 297.082 682.763 295.049C683.335 293.284 683.958 291.486 685.002 289.923C686.08 288.31 687.797 286.915 689.43 285.89C691.265 284.73 693.353 283.924 695.373 283.151C697.562 282.31 699.801 281.605 702.074 281.05C703.017 280.832 705.509 280.159 705.997 281.42C706.098 281.689 705.98 281.705 705.778 281.924C705.425 282.294 704.97 282.563 704.516 282.798C703.455 283.386 702.293 283.789 701.182 284.277C698.657 285.386 696.182 286.613 693.69 287.789C692.949 288.125 692.764 289.184 693.151 289.839C693.589 290.595 694.464 290.73 695.205 290.377L695.188 290.31Z" fill="#211715"/>
<path d="M673.469 314.543C675.927 316.492 678.689 318.072 681.399 319.618C684.143 321.198 686.921 322.761 689.8 324.122C690.541 324.475 691.417 324.323 691.854 323.584C692.242 322.929 692.057 321.87 691.316 321.534C688.504 320.206 685.793 318.694 683.1 317.148C681.618 316.307 680.153 315.433 678.705 314.526C678.066 314.123 677.443 313.719 676.82 313.299C676.567 313.131 676.331 312.963 676.096 312.795C675.995 312.711 675.877 312.644 675.776 312.56C675.439 312.325 675.776 312.56 675.607 312.425C674.968 311.921 674.092 311.804 673.486 312.425C672.964 312.946 672.846 314.039 673.486 314.543H673.469Z" fill="#211715"/>
<path d="M860.487 346.977C859.241 344.019 858.012 341.061 856.8 338.104C856.177 336.591 855.52 334.154 853.331 334.844C852.153 335.213 851.008 335.852 849.88 336.339C844.88 338.49 839.879 340.641 834.862 342.742C833.835 343.162 832.808 343.599 831.781 344.019C831.108 344.288 830.434 344.523 830.03 345.162C829.575 345.885 829.727 346.658 829.912 347.447C830.586 350.388 831.31 353.329 832.135 356.22C833.987 362.723 836.175 369.496 840.401 374.89C842.388 377.428 844.829 379.495 847.826 380.705C850.823 381.915 854.156 381.848 857.221 380.89C860.318 379.932 863.13 378.218 865.437 375.966C867.659 373.798 869.326 371.143 870.807 368.437C877.289 356.556 880.488 343.095 879.95 329.567C879.832 326.676 879.327 324.021 878.165 321.349C877.172 319.08 875.757 316.996 874.074 315.181C870.488 311.367 865.672 308.863 860.689 307.384C859.359 306.98 857.995 306.678 856.631 306.409C855.84 306.258 855.015 306.628 854.779 307.451C854.577 308.19 855.032 309.148 855.823 309.3C864.174 310.896 872.845 315.215 875.875 323.702C876.229 324.693 876.515 325.718 876.717 326.76C876.97 328.071 876.953 329.466 876.97 330.793C877.037 333.718 876.936 336.658 876.65 339.566C876.111 345.263 874.831 350.876 872.946 356.27C871.986 359.009 870.841 361.681 869.545 364.286C868.299 366.79 866.986 369.311 865.302 371.546C862.238 375.613 857.237 378.856 851.985 378.587C846.496 378.302 842.556 373.512 840.132 369.059C837.354 363.967 835.721 358.186 834.256 352.607C833.919 351.346 833.616 350.069 833.313 348.792C833.178 348.237 833.061 347.699 832.926 347.145C832.875 346.926 832.858 346.506 832.741 346.321C832.438 345.834 832.404 347.313 832.151 347.061C832.151 347.061 832.555 346.893 832.572 346.893C834.492 346.103 836.411 345.296 838.33 344.49C842.792 342.608 847.237 340.692 851.681 338.776C852.17 338.557 852.658 338.356 853.146 338.137C853.382 338.037 853.601 337.936 853.837 337.835C853.921 337.801 854.005 337.768 854.089 337.734C854.544 337.516 854.19 337.852 853.938 337.751L853.281 337.364C853.264 337.247 853.281 337.263 853.331 337.431C853.382 337.566 853.432 337.7 853.5 337.835C853.584 338.053 853.668 338.272 853.769 338.49C853.954 338.944 854.14 339.398 854.325 339.835C854.661 340.675 855.015 341.498 855.352 342.339C856.093 344.137 856.85 345.935 857.608 347.733C857.928 348.489 858.601 349.01 859.46 348.775C860.167 348.573 860.824 347.683 860.504 346.926L860.487 346.977Z" fill="#211715"/>
<path d="M824.137 284.798C825.737 285.655 827.471 286.008 829.289 286.008C831.158 286.008 833.027 285.621 834.525 284.462C835.148 283.974 835.064 282.831 834.525 282.344C833.868 281.739 833.06 281.823 832.404 282.344C832.875 281.974 832.555 282.226 832.421 282.31C832.32 282.378 832.219 282.428 832.101 282.495C831.949 282.579 831.629 282.63 832.033 282.546C831.882 282.579 831.747 282.663 831.596 282.697C831.208 282.815 830.804 282.899 830.383 282.966C830.602 282.932 830.468 282.966 830.316 282.966C830.198 282.966 830.08 282.983 829.962 282.999C829.676 283.016 829.39 283.016 829.104 283.016C828.851 283.016 828.599 283.016 828.329 282.983C828.211 282.983 828.094 282.966 827.976 282.949C827.538 282.915 828.279 282.999 827.858 282.949C827.471 282.882 827.1 282.815 826.73 282.697C826.578 282.647 826.427 282.596 826.258 282.546C825.888 282.411 826.528 282.68 826.191 282.529C826.006 282.445 825.804 282.344 825.619 282.243C824.928 281.874 823.952 282.042 823.565 282.781C823.194 283.47 823.363 284.445 824.103 284.831L824.137 284.798Z" fill="#211715"/>
<path d="M828.481 272.832C828.7 273.673 828.902 274.53 829.036 275.387L828.986 274.983C828.986 275.101 829.003 275.219 828.986 275.336L829.036 274.933C829.036 274.933 829.02 275.034 829.003 275.084L829.154 274.731C829.154 274.731 829.121 274.799 829.104 274.832L829.339 274.53C829.339 274.53 829.289 274.58 829.255 274.614L829.558 274.378C829.558 274.378 829.424 274.446 829.356 274.479L829.71 274.328C829.592 274.378 829.491 274.412 829.373 274.429L829.777 274.378C829.676 274.378 829.558 274.378 829.457 274.378L829.861 274.429C829.744 274.412 829.626 274.378 829.508 274.362C829.306 274.294 829.104 274.294 828.902 274.328C828.7 274.328 828.514 274.395 828.346 274.513C828.026 274.698 827.74 275.051 827.656 275.404C827.572 275.79 827.588 276.227 827.807 276.563C828.009 276.866 828.329 277.202 828.7 277.252C828.986 277.286 829.272 277.37 829.575 277.387C830.047 277.403 830.468 277.269 830.888 277.067C831.41 276.832 831.814 276.361 831.949 275.807C832.067 275.336 832.016 274.933 831.949 274.462C831.814 273.639 831.629 272.832 831.41 272.026C831.309 271.656 831.04 271.32 830.72 271.135C830.4 270.95 829.929 270.866 829.558 270.984C828.767 271.236 828.296 272.009 828.514 272.832H828.481Z" fill="#211715"/>
<path d="M815.214 265.505C814.776 266.883 815.046 270.059 817.672 270.345C821.14 270.345 821.343 266.497 820.181 264.682C819.238 263.203 816.426 262.564 815.214 265.505Z" fill="#211715"/>
<path d="M842.977 265.623C843.398 267.001 843.112 270.177 840.485 270.446C837.017 270.412 836.849 266.564 838.027 264.766C838.987 263.287 841.799 262.682 842.977 265.623Z" fill="#211715"/>
<path d="M698.842 272.513C700.458 273.421 702.209 273.841 704.061 273.891C705.795 273.941 707.832 273.723 709.28 272.664C709.92 272.211 710.29 271.337 709.819 270.614C709.415 269.992 708.438 269.572 707.765 270.076C707.58 270.211 707.394 270.312 707.209 270.412C707.159 270.446 707.091 270.463 707.041 270.496C706.889 270.58 707.378 270.362 707.142 270.463C706.974 270.513 706.822 270.58 706.654 270.631C706.468 270.681 706.266 270.732 706.081 270.765C705.98 270.782 705.879 270.799 705.795 270.816C705.643 270.832 705.542 270.849 705.744 270.816C705.189 270.866 704.633 270.9 704.078 270.883C703.808 270.883 703.539 270.866 703.269 270.833C703.253 270.833 702.764 270.765 703.084 270.833C702.966 270.833 702.865 270.799 702.748 270.782C702.343 270.715 701.956 270.614 701.569 270.496C701.401 270.446 701.249 270.379 701.081 270.312C700.896 270.244 701.401 270.463 701.165 270.345C701.098 270.312 701.03 270.278 700.963 270.244C700.761 270.143 700.576 270.043 700.374 269.925C699.683 269.538 698.69 269.74 698.32 270.463C697.949 271.169 698.134 272.11 698.858 272.513H698.842Z" fill="#211715"/>
<path d="M703.724 260.228C703.909 261.018 704.078 261.808 704.179 262.615L704.128 262.211C704.162 262.413 704.179 262.615 704.212 262.816L704.162 262.413C704.179 262.564 704.196 262.716 704.162 262.867L704.212 262.464C704.212 262.464 704.196 262.581 704.162 262.632L704.313 262.279C704.313 262.279 704.28 262.346 704.246 262.379L704.482 262.077C704.482 262.077 704.448 262.111 704.431 262.127L704.734 261.892C704.734 261.892 704.566 261.993 704.482 262.027L704.835 261.875C704.734 261.909 704.633 261.943 704.532 261.959L704.936 261.909C704.819 261.909 704.717 261.909 704.6 261.909L705.004 261.959C704.869 261.943 704.734 261.892 704.6 261.875C704.196 261.808 703.808 261.808 703.438 262.027C703.118 262.211 702.832 262.564 702.748 262.917C702.663 263.304 702.68 263.741 702.899 264.077C703.101 264.379 703.421 264.699 703.791 264.766C704.095 264.816 704.381 264.883 704.684 264.917C705.172 264.951 705.643 264.799 706.081 264.598C706.603 264.362 706.99 263.858 707.125 263.304C707.243 262.833 707.192 262.396 707.125 261.909L707.176 262.312C707.058 261.338 706.873 260.38 706.654 259.422C706.485 258.649 705.559 258.128 704.802 258.38C703.994 258.632 703.556 259.405 703.758 260.228H703.724Z" fill="#211715"/>
<path d="M690.036 252.179C689.548 253.607 689.733 256.935 692.461 257.288C696.08 257.388 696.4 253.389 695.239 251.456C694.296 249.876 691.383 249.154 690.036 252.162V252.179Z" fill="#211715"/>
<path d="M718.961 253.103C719.365 254.565 718.961 257.859 716.216 258.061C712.613 257.926 712.546 253.91 713.826 252.061C714.87 250.549 717.816 250.011 718.961 253.103Z" fill="#211715"/>
<path d="M856.817 265.64C857.423 265.102 858.231 264.934 859.022 265.052C859.426 265.119 859.814 265.253 860.15 265.488C860.066 265.421 860.672 266.026 860.47 265.774C861.48 267.085 861.464 269.068 861.329 270.614C861.194 272.211 860.622 273.807 859.864 275.219C859.09 276.647 857.591 278.798 855.689 278.529C854.881 278.412 854.072 278.731 853.837 279.571C853.652 280.277 854.072 281.302 854.881 281.42C859.679 282.075 862.491 277.521 863.77 273.538C864.41 271.555 864.494 269.37 864.191 267.32C863.922 265.589 863.198 263.942 861.716 262.934C859.561 261.455 856.564 261.808 854.662 263.505C853.214 264.799 855.352 266.917 856.783 265.623L856.817 265.64Z" fill="#211715"/>
<path d="M37.0569 511.382C31.4336 518.171 25.2883 524.507 18.6212 530.372L2.54248 504.139C13.9238 495.652 23.5374 486.578 31.3831 476.931H9.39486V450.312H36.2656V443.455H8.80559V416.433H21.3655C20.1869 411.727 18.941 407.492 17.6446 403.711H11.1795V377.663H37.0737V364.538H68.2546V377.663H91.5897V403.711H85.3098C84.5185 407.24 83.3399 411.475 81.7741 416.433H92.3642V443.455H68.2377V450.312H91.3877V476.931H72.3626C78.2553 481.889 85.9664 487.569 95.5126 493.972L80.2084 518.255C76.1508 514.861 71.9081 511.012 67.4633 506.71V542.539H37.0569V511.416V511.382ZM49.6168 416.416H54.9202C55.9641 413.021 57.0079 408.786 58.0518 403.694H45.896C46.8051 406.434 48.051 410.685 49.6168 416.416ZM133.175 492.375C127.417 514.827 117.215 532.187 102.584 544.455L79.4339 523.902C94.4687 512.945 104.015 497.988 108.072 479.066H96.8931V368.84H184.577V479.066H162.992V508.239C162.992 510.071 163.716 510.979 165.148 510.979H165.939C167.505 510.979 168.481 510.071 168.885 508.239C169.272 505.887 169.474 499.434 169.474 488.863L190.469 496.308C190.469 514.592 189.425 526.204 187.338 531.162C184.728 537.548 178.633 540.757 169.104 540.757H150.668C143.732 540.757 139.22 539.9 137.132 538.22C134.522 536.136 133.209 531.565 133.209 524.507V492.392L133.175 492.375ZM115.918 479.066L133.175 485.132V479.066H115.918ZM153.783 401.14V394.485H127.3V401.14H153.783ZM153.783 427.961V421.508H127.3V427.961H153.783ZM153.783 454.782V448.127H127.3V454.782H153.783Z" stroke="black" stroke-width="3" stroke-linecap="round" stroke-linejoin="round"/>
<path d="M315.193 506.677C315.193 521.028 312.667 530.204 307.633 534.187C302.599 538.169 292.11 540.153 276.149 540.153H250.457L241.046 507.063H269.095C276.284 507.063 279.887 504.005 279.887 497.854V470.445H203.198V437.943H279.887V418.365H289.501C297.077 413.021 303.879 407.66 309.906 402.316H227.324V370.017H363.446V396.636C351.29 408.383 335.194 421.626 315.193 436.38V437.943H384.441V470.445H315.193V506.66V506.677Z" stroke="black" stroke-width="3" stroke-linecap="round" stroke-linejoin="round"/>
<path d="M867.608 80.5809L870.252 93.3192L868.45 106.125L860.689 116.678L852.978 126.459L846.091 136.878L838.145 147.129L826.78 153.213L814.658 157.263L802.637 162.153L789.69 160.758L777.433 157.784L764.351 158.456L752.078 154.255L741.201 147.197L733.507 136.66L724.415 127.904L717.344 117.367L710.728 106.192L710.29 93.1344L710.391 80.5809L706.872 67.4897L710.408 54.869L716.519 43.3574L726.823 34.9884L733.036 24.0146L743.07 16.5027L751.842 6.43639L765.395 5.91543L777.147 1.52927L789.69 1.96621L802.485 0L815.079 2.6048L827.336 6.83971L836.949 15.6624L845.603 24.7709L856.597 32.0643L859.476 45.0883L869.561 54.6673L870.134 67.8594L867.608 80.5809Z" fill="#E60012"/>
<path d="M748.07 95.0334L746.302 100.73C746.05 101.537 745.646 101.991 744.838 101.991C743.827 101.991 742.262 101.386 742.262 100.226C742.262 99.9741 742.312 99.722 742.413 99.4699L744.232 93.8738C744.484 93.0672 744.888 92.6134 745.696 92.6134C746.656 92.6134 748.222 93.168 748.222 94.2771C748.222 94.5292 748.171 94.7813 748.07 95.0334ZM786.457 77.1862H782.921V86.9669H785.043C786.053 86.9669 786.609 87.4206 786.609 88.7314C786.609 90.0422 786.053 90.496 785.043 90.496H745.393C744.383 90.496 743.878 90.0926 743.878 88.7314C743.878 87.3702 744.383 86.9669 745.393 86.9669H747.515V77.1862H744.03C743.019 77.1862 742.514 76.7829 742.514 75.4217C742.514 74.0605 743.019 73.6067 744.03 73.6067H747.515V66.8511L746.555 68.6156C746.201 69.271 745.747 69.6239 745.141 69.6239C744.232 69.6239 742.565 68.7668 742.565 67.7585C742.565 67.456 742.666 67.1535 742.868 66.8006L748.323 56.8688C748.676 56.2134 749.181 55.8605 749.838 55.8605C750.747 55.8605 752.414 56.5663 752.414 57.5746C752.414 57.8771 752.313 58.1796 752.111 58.5325L751.151 60.2466H784.992C786.053 60.2466 786.609 60.7004 786.609 62.0616C786.609 63.4228 786.053 63.8765 784.992 63.8765H782.921V73.6067H786.457C787.467 73.6067 788.023 74.0605 788.023 75.4217C788.023 76.7829 787.467 77.1862 786.457 77.1862ZM758.021 63.8765H751.404V73.6067H758.021V63.8765ZM758.021 77.1862H751.404V86.9669H758.021V77.1862ZM758.526 101.991C757.616 101.991 757.212 101.537 756.96 100.68L755.445 95.0838C755.394 94.8317 755.344 94.63 755.344 94.378C755.344 93.2184 756.808 92.8655 757.768 92.8655C758.677 92.8655 759.081 93.3192 759.334 94.2267L760.849 99.8733C760.9 100.125 760.95 100.327 760.95 100.529C760.95 101.638 759.435 101.991 758.526 101.991ZM768.476 63.8765H761.91V73.6067H768.476V63.8765ZM768.476 77.1862H761.91V86.9669H768.476V77.1862ZM771.557 101.89C770.749 101.89 770.294 101.436 770.042 100.629L768.324 95.0334C768.223 94.7813 768.173 94.5292 768.173 94.2771C768.173 93.168 769.739 92.8151 770.648 92.8151C771.506 92.8151 771.961 93.2184 772.214 94.0755L773.931 99.6212C774.032 99.8733 774.082 100.125 774.082 100.377C774.082 101.487 772.466 101.89 771.557 101.89ZM778.982 63.8765H772.416V73.6067H778.982V63.8765ZM778.982 77.1862H772.416V86.9669H778.982V77.1862ZM784.74 101.587C783.982 101.587 783.528 101.134 783.224 100.377L781.154 94.9829C781.053 94.6805 781.002 94.4284 781.002 94.1763C781.002 93.168 782.517 92.6638 783.427 92.6638C784.235 92.6638 784.689 93.1176 784.992 93.9242L787.013 99.2683C787.114 99.5708 787.164 99.8228 787.164 100.075C787.164 101.083 785.598 101.587 784.74 101.587Z" fill="#FFF100"/>
<path d="M812.418 75.573H805.903V81.3203C806.155 80.917 807.165 80.4128 807.62 80.4128C808.075 80.4128 808.428 80.6649 808.782 81.1187L813.429 87.1685C813.732 87.5719 813.883 87.9248 813.883 88.2777C813.883 89.1347 812.469 90.2943 811.61 90.2943C811.156 90.2943 810.802 90.0422 810.449 89.5381L805.903 83.589V99.722C805.903 100.882 805.398 101.436 803.882 101.436C802.367 101.436 801.912 100.882 801.912 99.722V82.9336L796.256 94.4788C795.952 95.0838 795.548 95.4367 795.043 95.4367C794.134 95.4367 792.568 94.4788 792.568 93.5209C792.568 93.2184 792.669 92.9159 792.821 92.563L801.155 75.573H794.791C793.629 75.573 793.073 75.1192 793.073 73.6067C793.073 72.0943 793.629 71.5901 794.791 71.5901H801.912V57.7763C801.912 56.6167 802.367 56.0117 803.882 56.0117C805.398 56.0117 805.903 56.6167 805.903 57.7763V71.5901H812.418C813.58 71.5901 814.186 72.0943 814.186 73.6067C814.186 75.1192 813.58 75.573 812.418 75.573ZM797.417 68.8173C796.66 68.8173 796.256 68.4139 796.053 67.6577L793.781 59.7929C793.73 59.5408 793.68 59.3391 793.68 59.1375C793.68 58.0787 795.043 57.6754 795.952 57.6754C796.71 57.6754 797.114 58.0787 797.316 58.835L799.589 66.7502C799.64 67.0023 799.69 67.204 799.69 67.4056C799.69 68.4644 798.326 68.8173 797.417 68.8173ZM814.085 59.7929L811.812 67.6577C811.61 68.4139 811.206 68.8173 810.449 68.8173C809.59 68.8173 808.176 68.4644 808.176 67.4056C808.176 67.204 808.226 67.0023 808.277 66.7502L810.55 58.835C810.752 58.0787 811.156 57.6754 811.913 57.6754C812.822 57.6754 814.186 58.0787 814.186 59.1375C814.186 59.3391 814.136 59.5408 814.085 59.7929ZM837.218 88.2777L834.087 89.1347V99.722C834.087 100.882 833.582 101.436 832.066 101.436C830.551 101.436 830.096 100.882 830.096 99.722V90.1935L818.833 93.2688C818.58 93.3192 818.378 93.3697 818.126 93.3697C816.964 93.3697 816.409 91.8068 816.409 90.7985C816.409 89.9918 816.863 89.5381 817.671 89.3364L830.096 85.9586V57.7763C830.096 56.6167 830.551 56.0117 832.066 56.0117C833.582 56.0117 834.087 56.6167 834.087 57.7763V84.8998L836.158 84.3453C836.41 84.2948 836.663 84.2444 836.865 84.2444C837.572 84.2444 838.077 84.6982 838.38 85.8073C838.481 86.1602 838.531 86.5131 838.531 86.7652C838.531 87.6223 838.077 88.0256 837.218 88.2777ZM826.51 79.2029C826.106 80.0095 825.652 80.3624 825.147 80.3624C824.894 80.3624 824.591 80.2616 824.288 80.1104L818.53 77.035C817.974 76.7325 817.621 76.3292 817.621 75.7746C817.621 74.968 818.378 73.5563 819.338 73.5563C819.591 73.5563 819.894 73.6572 820.197 73.8084L825.955 76.8838C826.51 77.1863 826.864 77.5392 826.864 78.0937C826.864 78.3962 826.712 78.7491 826.51 79.2029ZM826.864 66.3973C826.409 67.204 825.955 67.5569 825.45 67.5569C825.197 67.5569 824.894 67.456 824.591 67.3048L818.833 64.179C818.277 63.8765 817.974 63.5236 817.974 63.0195C817.974 62.2128 818.782 60.7508 819.692 60.7508C819.944 60.7508 820.247 60.8516 820.55 61.0028L826.308 64.0782C826.864 64.3807 827.217 64.7336 827.217 65.2882C827.217 65.5907 827.066 65.9436 826.864 66.3973Z" fill="#FFF100"/>
</g>
<defs>
<clipPath id="clip0_5_2384">
<rect width="880" height="554" fill="white"/>
</clipPath>
</defs>
</svg>
