<?xml version="1.0" encoding="UTF-8"?><svg id="b" xmlns="http://www.w3.org/2000/svg" width="247.524" height="266.385" viewBox="0 0 247.524 266.385"><defs><style>.e{fill:#fff;}.e,.f,.g,.h{stroke-width:0px;}.f{fill:#3d8dcc;}.g{fill:#febe69;}.h{fill:#211715;}</style></defs><g id="c"><g id="d"><path class="g" d="m112.712,146.914c-15.341,0-34.139-6.28-40.177-17.495-5.273-9.793-4.032-21.337-2.116-32.394,4.825-26.515,2.17-56.414,23.401-76.739,7.89-7.553,25.668-17.844,45.643-17.844,12.183,0,20.761,2.216,28.995,5.554,0,0,2.215.898,4.43,1.796,2.23,1.305,4.46,2.611,4.46,2.611,3.852,2.255,5.226,4.187,9.19,7.985,9.922,9.507,15.49,23.81,17.441,37.191,1.948,13.357,3.754,26.749,6.493,39.975,2.483,11.989,3.765,23.821-4.137,34.297-9.441,12.516-26.386,15.706-41.583,15.706l-52.043-.643Z"/><path class="e" d="m43.563,157.876c2.128-1.036,3.406-2.947,3.743-5.148.377-3.546-1.705-6.261-4.12-7.205-1.565-.611-3.669-.347-5.4.469-.849.4-3.249,1.647-3.707,4.714-.486,3.257,1.432,6.735,4.658,7.576,1.512.395,3.281.346,4.826-.406Z"/><path class="e" d="m7.067,82.775c1.834-.857,3.944-1.131,5.827-.608,3.708,1.03,5.041,4.193,6.52,7.367,1.862,3.997,3.704,8.002,5.521,12.02,3.23,7.14,6.394,14.313,9.376,21.561,1.405,3.415,4.365,8.191,3.246,12.002-1.272,4.331-7.083,5.559-10.18,2.494-2.544-2.518-4.192-6.442-5.944-9.526-1.962-3.453-3.875-6.935-5.767-10.427-4.066-7.504-7.945-15.116-11.886-22.676-.752-1.443-1.309-3.013-1.413-4.647-.21-3.302,1.755-6.182,4.702-7.559Z"/><path class="h" d="m44.774,159.948c3.678-1.856,5.499-5.928,4.788-9.917-.661-3.712-3.772-6.791-7.535-7.195-2.909-.313-6.344.94-8.29,3.188-2.517,2.907-2.747,7.111-.883,10.433,2.385,4.251,7.63,5.48,11.92,3.492,1.143-.53,1.517-2.266.861-3.284-.759-1.177-2.062-1.427-3.284-.861.423-.196-.255.09-.289.1-.146.046-.294.086-.442.122.026-.006-.701.124-.352.077s-.38.019-.355.018c-.371.014-.743,0-1.111-.042.457.052.082.009-.009-.015-.228-.06-.458-.103-.684-.173-.145-.045-.287-.098-.429-.152.5.191.184.08.082.017-.254-.156-.508-.304-.759-.466.448.29.119.09.002-.014-.11-.098-.218-.2-.321-.305-.082-.084-.158-.177-.241-.26-.332-.332.23.357-.115-.146-.169-.246-.32-.502-.456-.767-.066-.13-.223-.517-.02.003-.044-.112-.088-.223-.127-.336-.099-.284-.181-.574-.244-.868-.007-.031-.119-.617-.05-.216.065.377-.02-.328-.023-.403-.01-.274.019-.545.019-.818-.001-.372-.134.618,0-.017.027-.13.051-.259.083-.388.046-.184.107-.361.162-.543.138-.456-.039.037-.041.076.014-.258.359-.65.496-.867.245-.389-.068.128-.093.113,0,0,.275-.312.297-.335.146-.153.305-.289.459-.434.387-.363-.423.265.07-.053.185-.119.366-.241.557-.349.128-.073.259-.142.391-.208.108-.054.656-.265.229-.109.315-.114.632-.218.957-.3.18-.045.36-.082.542-.118.662-.134-.437-.003.229-.024.357-.011.702.001,1.058.009-.455-.01-.165-.033-.032.003.191.051.383.106.574.154.406.104-.089-.054-.096-.051.05-.024.382.191.433.219.209.116.547.256.692.448-.331-.439-.108-.076.034.054.084.077.166.156.246.238.12.122.622.822.299.313.161.253.332.494.474.759.058.107.11.217.164.326.236.475-.091-.363.038.114.101.373.204.738.285,1.116-.112-.522-.014-.095-.003.056.017.241.023.482.018.723-.003.142-.015.284-.022.426.026-.543-.009-.001-.042.137-.085.366-.199.722-.338,1.071.194-.487.069-.163.012-.066-.11.186-.204.381-.319.564-.083.131-.171.257-.26.384.326-.46-.007-.009-.099.09-.128.138-.262.271-.401.398-.098.09-.557.404-.109.106-.332.221-.662.427-1.019.607-1.123.567-1.533,2.241-.861,3.284.74,1.148,2.082,1.467,3.284.861Z"/><path class="h" d="m8.279,84.847c1.661-.731,3.637-.779,5.218.162,1.337.796,2.116,2.196,2.802,3.543,2.141,4.207,4.007,8.577,5.958,12.874,3.998,8.805,7.687,17.743,11.644,26.563.701,1.562,1.438,3.301,1.499,5.033.047,1.323-.43,2.458-1.298,3.097-.944.695-2.158.921-3.094.752-1.369-.247-2.249-1.14-3.144-2.352-1.215-1.644-2.146-3.492-3.093-5.297-1.042-1.983-2.161-3.923-3.25-5.88-2.393-4.298-4.734-8.626-7.03-12.977-2.68-5.081-5.306-10.19-7.956-15.286-.989-1.902-2.159-4.009-1.683-6.234.403-1.886,1.752-3.172,3.429-3.998,1.163-.572,1.482-2.222.861-3.284-.694-1.186-2.117-1.435-3.284-.861-4.541,2.235-6.743,7.14-5.524,12.024.672,2.693,2.263,5.17,3.53,7.614,1.36,2.623,2.717,5.247,4.082,7.866,2.667,5.117,5.377,10.21,8.161,15.264,1.314,2.387,2.694,4.74,3.977,7.143,1.084,2.031,2.095,4.114,3.412,6.01,1.212,1.744,2.603,3.437,4.586,4.312,1.876.828,3.996.998,5.98.446,4.551-1.265,6.689-5.611,5.947-10.09-.384-2.317-1.387-4.492-2.366-6.609-1.045-2.259-1.985-4.557-2.953-6.85-2.287-5.415-4.659-10.794-7.075-16.152-1.342-2.977-2.698-5.949-4.066-8.914-1.159-2.512-2.214-5.129-3.584-7.537-1.197-2.104-2.85-3.914-5.1-4.886-2.984-1.289-6.095-.922-9.006.358-1.187.522-1.462,2.256-.861,3.284.716,1.224,2.092,1.385,3.284.861Z"/><path class="e" d="m153.863,54.802c-6.747,4.664-14.232,8.675-27.901,15.167-12.766,6.064-26.801,9.944-37.771,13.363-1.354-.763-2.876-1.063-4.235-1.02-4.094.128-5.845,2.336-6.6,3.633-2.253,3.872-2.186,11.023-.701,15.453,1.051,3.137,2.775,7.937,6.963,11.391,1.856,1.531,4.659,2.506,7.258,1.847,1.878,6.472,5.293,14.286,11.316,21.552,4.662,5.625,9.566,9.817,15.034,12.449-.022,2.069.027,3.036-.181,5.888-.101,1.381-.208,2.874-.72,4.222-.686,1.772-1.61,3.307-3.095,4.505-1.217.98-2.447,1.763-3.729,2.44.782,3.317,1.592,6.643,2.43,9.973,8.624,4.515,18.413,6.563,28.225,6.299,9.814.264,19.604-1.785,28.233-6.301.879-3.517,1.732-7.029,2.552-10.529-.927-.544-1.832-1.159-2.729-1.882-1.485-1.198-2.408-2.733-3.095-4.505-.512-1.348-.619-2.84-.72-4.222-.224-3.073-.15-3.958-.191-6.398,11.705-6.486,20.943-22.281,22.642-26.837.588-1.213,1.552-3.711,2.335-6.262.41.071.644.111.644.111,2.434.421,4.985-.502,6.722-1.912,4.214-3.421,5.975-8.207,7.051-11.336,1.519-4.419,1.642-11.569-.581-15.458-.745-1.303-2.478-3.524-6.571-3.684-2.493-.098-5.547.954-7.1,3.925-4.32-14.306-13.749-29.95-24.203-40.61-4.132,3.448-7.596,6.19-11.281,8.737Z"/><path class="h" d="m163.447,44.368c-6.321,5.27-12.789,10.029-20.061,14.108-10.4,5.833-21.286,11.081-32.517,15.094-6.601,2.359-13.314,4.383-20.016,6.433-2.945.901-1.689,5.536,1.276,4.629,12.531-3.833,24.96-7.766,36.808-13.431,9.022-4.313,18.082-8.734,26.316-14.451,4.017-2.789,7.834-5.858,11.588-8.988.996-.831.858-2.536,0-3.394-.986-.986-2.395-.833-3.394,0h0Z"/><path class="h" d="m163.447,47.762c8.75,8.968,15.807,19.886,20.655,31.431.502,1.194,1.587,2.051,2.952,1.676,1.126-.309,2.181-1.75,1.676-2.952-5.183-12.339-12.524-23.95-21.89-33.549-2.161-2.215-5.554,1.181-3.394,3.394h0Z"/><path class="h" d="m187.837,110.685c-.765,3.661-2.125,7.15-3.481,10.42.291-.701.039-.092-.04.077-.103.22-.203.441-.309.661-.245.509-.502,1.013-.767,1.512-.638,1.201-1.32,2.378-2.033,3.536-3.688,5.996-8.177,11.632-13.652,16.093-2.999,2.444-6.417,4.386-10.177,5.236-3.012.682-1.737,5.31,1.276,4.629,7.698-1.742,14.111-7.373,19.139-13.198,4.15-4.808,8.046-10.23,10.668-16.046.164-.364.321-.732.473-1.101.066-.16.351-.807.075-.187.426-.96.836-1.928,1.208-2.911.918-2.422,1.719-4.908,2.249-7.445.63-3.014-3.996-4.303-4.629-1.276h0Z"/><path class="h" d="m87.572,111.391c1.658,7.461,4.664,14.693,8.884,21.07,4.543,6.863,10.524,13.294,17.776,17.326,3.666,2.038,7.667,3.425,11.814,4.053,1.28.194,2.58-.322,2.952-1.676.312-1.134-.387-2.757-1.676-2.952-14.952-2.263-26.139-15.262-31.789-28.572-1.439-3.39-2.534-6.931-3.333-10.524-.67-3.014-5.299-1.739-4.629,1.276h0Z"/><path class="h" d="m91.356,82.728c-3.254-2.977-8.032-3.622-12.02-1.755-2.961,1.386-4.688,4.256-5.462,7.336-1.812,7.208-.027,15.427,4.032,21.592,2.734,4.152,7.095,7.969,12.419,7.253,1.284-.173,2.4-.98,2.4-2.4,0-1.163-1.106-2.574-2.4-2.4-6.277.843-9.688-6.552-11.314-11.471-.929-2.809-1.176-5.789-.935-8.731.115-1.401.38-2.864.929-4.165.166-.393.39-.752.602-1.121.081-.141.327-.462.083-.153.163-.207.343-.403.53-.588,1.84-1.821,5.618-1.946,7.742-.002,2.275,2.082,5.679-1.303,3.394-3.394h0Z"/><path class="h" d="m192.425,86.515c1.924-1.733,5.133-1.84,7.238-.357.609.429.867.761,1.283,1.488.662,1.155.982,2.515,1.18,3.823.825,5.458-.696,11.206-3.58,15.858-1.655,2.669-4.559,6.001-8.082,5.5-1.282-.182-2.578.314-2.952,1.676-.309,1.125.385,2.769,1.676,2.952,9.072,1.291,14.345-7.653,16.775-15.074,1.233-3.764,1.417-7.931.845-11.831-.483-3.299-1.795-6.505-4.609-8.459-3.977-2.763-9.652-2.138-13.169,1.03-2.3,2.072,1.103,5.458,3.394,3.394h0Z"/><path class="h" d="m139.551,103.808c.432,1.649.847,3.323,1.095,5.011l-.086-.638c.029.231.042.459.019.692l.086-.638c-.016.108-.04.208-.076.311l.242-.573c-.032.073-.066.134-.11.2l.375-.486c-.052.063-.1.111-.164.161l.486-.375c-.127.081-.26.147-.397.21l.573-.242c-.218.091-.435.158-.669.195l.638-.086c-.211.025-.417.023-.628-.001l.638.086c-.237-.033-.469-.091-.706-.122-.67-.09-1.239-.115-1.849.242-.498.291-.973.862-1.103,1.434-.14.614-.11,1.304.242,1.849.312.484.835,1.022,1.434,1.103.524.071,1.032.204,1.565.228.809.035,1.564-.211,2.287-.541.89-.407,1.584-1.197,1.82-2.156.2-.811.113-1.53-.024-2.342-.273-1.614-.646-3.214-1.061-4.798-.318-1.214-1.729-2.072-2.952-1.676-1.25.404-2.018,1.651-1.676,2.952h0Z"/><path class="h" d="m112.892,89.662c-.837,2.719-.291,8.975,4.86,9.508,6.809-.041,7.172-7.604,4.879-11.16-1.877-2.912-7.395-4.122-9.74,1.653Z"/><path class="h" d="m167.42,89.662c.837,2.719.292,8.975-4.86,9.507-6.809-.041-7.172-7.604-4.88-11.16,1.877-2.911,7.395-4.122,9.74,1.653Z"/><path class="h" d="m99.359,172.402c4.824-1.893,10.049-3.36,14.272-6.453,2.676-1.96,4.721-4.637,5.4-7.949.568-2.768.576-5.684.591-8.502.016-3.089-4.784-3.093-4.8,0-.012,2.327.03,4.754-.386,7.048-.463,2.546-1.931,4.423-4.045,5.829-3.74,2.487-8.158,3.77-12.308,5.398-1.206.473-2.046,1.608-1.676,2.952.316,1.149,1.739,2.152,2.952,1.676h0Z"/><path class="h" d="m161.82,149.498c.015,2.918-.019,6.005.668,8.854.824,3.417,3.029,6.031,5.867,7.982,4.263,2.931,9.421,4.347,14.198,6.218,1.207.473,2.634-.519,2.952-1.676.374-1.36-.465-2.478-1.676-2.952-4.103-1.607-8.472-2.842-12.228-5.195-2.185-1.369-3.861-3.073-4.484-5.653-.584-2.422-.484-5.095-.497-7.578-.016-3.088-4.816-3.094-4.8,0h0Z"/><path class="e" d="m192.066,113.507c-4.048,0-6.846,2.847-6.846,6.179,0,3.728,2.858,6.295,6.846,6.295,4.142,0,6.846-2.591,6.846-6.295,0-3.354-2.813-6.179-6.846-6.179Z"/><path class="h" d="m192.066,111.107c-3.915.048-7.464,2.206-8.815,5.956-1.271,3.529.22,7.53,3.196,9.658,2.958,2.116,7.301,2.156,10.47.509,3.331-1.731,4.837-5.522,4.234-9.121-.725-4.328-4.935-6.953-9.086-7.003-1.256-.015-2.458,1.115-2.4,2.4.059,1.313,1.054,2.384,2.4,2.4.206.002.41.016.616.022.454.014.054-.005-.043-.02.318.047.632.114.942.201.18.051.355.114.533.172.414.137.008.004-.066-.033.32.16.633.32.931.519.039.026.449.379.177.121-.28-.266.126.124.15.146.15.14.509.42.579.618-.152-.434-.139-.204-.028-.013.07.12.15.234.219.355.065.115.114.265.192.37.076.163.051.099-.075-.191.041.104.079.208.113.314.042.129.277.732.204.814-.003.003-.044-.626-.02-.132.009.172.022.343.022.516,0,.12-.003.241-.009.361-.01.196.087.649.017.061.032.269-.126.652-.203.907-.02.065-.077.367-.132.391.129-.055.225-.433.016-.052-.129.235-.262.463-.402.692-.243.398.059.024.04-.04.006.02-.18.205-.211.239-.109.117-.224.229-.342.337-.059.054-.12.107-.183.158-.137.113-.081.07.166-.127-.049.148-.55.356-.7.437-.134.072-.308.189-.456.222.057-.013.514-.178.091-.051-.287.086-.568.18-.86.246-.182.041-.365.072-.548.102.421-.069.123-.02-.129-.004-.331.021-.664.025-.995.01-.129-.006-.258-.02-.387-.025-.632-.026.497.112-.111-.014-.298-.062-.593-.124-.885-.214-.113-.035-.224-.078-.337-.112-.249-.096-.22-.081.088.046-.105-.047-.208-.096-.31-.148-.252-.129-.484-.284-.724-.432-.233-.144-.146.022.088.076-.106-.025-.291-.252-.369-.328-.078-.076-.155-.154-.229-.234-.028-.03-.397-.425-.128-.132.26.284-.069-.108-.099-.155-.09-.138-.174-.279-.251-.424l-.076-.147c-.111-.237-.098-.198.038.118-.048-.053-.089-.237-.116-.316-.092-.273-.148-.552-.215-.831-.138-.569.006.529-.007-.067-.003-.121-.016-.243-.019-.365-.004-.176-.003-.352.008-.528.005-.085.011-.17.021-.254.019-.186.01-.113-.028.219-.087-.102.224-.861.257-.969.14-.45-.054.103-.053.111-.023-.124.247-.481.312-.588.058-.095.123-.186.181-.281.235-.393-.329.319.089-.11.219-.225.44-.44.67-.654-.439.409-.05.038.069-.042.146-.098.297-.191.451-.277.123-.069.286-.121.398-.206.16-.074.107-.055-.157.059.115-.046.23-.088.347-.128.363-.123.733-.204,1.108-.282.137-.029.424-.004-.049.005.273-.005.545-.037.819-.04,1.255-.015,2.459-1.093,2.4-2.4-.058-1.287-1.055-2.416-2.4-2.4Z"/><path class="h" d="m190.599,29.412c6.151,7.482,9.071,16.697,10.653,26.117,1.901,11.322,3.218,22.731,5.248,34.036,1.73,9.638,4.851,19.749,2.911,29.599-1.783,9.055-7.938,16.154-16.022,20.32-8.615,4.44-18.634,5.617-28.202,5.671-3.088.018-3.094,4.818,0,4.8,9.34-.053,18.862-1.211,27.518-4.882,9.024-3.827,16.576-10.694,20.036-20.007,3.749-10.09,1.477-20.835-.53-31.02-2.359-11.974-4.022-24.069-5.77-36.143-.814-5.624-1.872-11.225-3.799-16.586-2.01-5.592-4.874-10.708-8.648-15.299-.824-1.002-2.54-.854-3.394,0-.991.991-.826,2.39,0,3.394h0Z"/><path class="h" d="m112.712,144.514c-7.872-.024-15.814-1.539-23.106-4.524-6.352-2.601-12.552-6.618-15.585-12.934-4.003-8.336-3.109-18.174-1.685-27.016,1.325-8.228,2.418-16.444,3.346-24.727,1.753-15.66,3.894-32.033,13.017-45.348,8.735-12.75,23.573-20.672,38.497-23.826,8.941-1.89,18.357-1.647,27.313.05,9.092,1.723,18.14,5.109,25.334,11.068,1.788,1.481,3.449,3.103,4.991,4.839,2.055,2.315,5.439-1.09,3.394-3.394-6.657-7.5-15.606-12.499-25.143-15.366-9.344-2.81-19.599-3.943-29.323-3.017-9.414.896-18.551,3.765-26.942,8.098-6.697,3.458-12.956,7.885-17.948,13.567-11.562,13.158-15.186,30.301-17.275,47.2-1.031,8.346-1.733,16.738-3.114,25.038-1.598,9.603-3.333,19.495-.864,29.119,1.083,4.223,2.964,8.233,5.849,11.521,2.514,2.865,5.706,5.169,9.026,7.011,7.384,4.097,15.788,6.299,24.154,7.133,2.016.201,4.039.303,6.065.31,3.089.01,3.093-4.79,0-4.8h0Z"/><path class="f" d="m125.28,222.208c-4.889-15.144-9.413-30.881-13.354-46.541,8.628,4.514,18.417,6.563,28.229,6.299,9.815.264,19.606-1.785,28.235-6.302-3.937,15.661-8.46,31.4-13.35,46.544h-29.761Z"/><path class="e" d="m35.156,222.205c13.15-25.29,36-45.55,62.66-55.8,3.12-2.43,6.39-4.63,9.04-6.36.58-.36,1.32-.06,1.47.6.16.72.33,1.45.5,2.17,4.59,19.84,10.22,40.1,16.45,59.39H35.156Z"/><path class="e" d="m245.156,222.202c-13.15-25.27-35.99-45.54-62.629-55.784-3.136-2.436-6.423-4.649-9.081-6.372-.555-.366-1.319-.063-1.465.596-4.667,20.531-10.485,41.565-16.942,61.562l90.118-.003Z"/><path class="h" d="m112.899,178.818c8.664,3.989,17.768,5.548,27.257,5.548s18.593-1.558,27.257-5.548c1.177-.542,1.47-2.243.861-3.284-.707-1.209-2.102-1.405-3.284-.861-7.872,3.624-16.236,4.893-24.835,4.893s-16.963-1.268-24.835-4.893c-1.177-.542-2.585-.334-3.284.861-.605,1.035-.322,2.739.861,3.284h0Z"/><path class="h" d="m127.59,221.567c-3.295-10.229-6.372-20.528-9.223-30.889-1.433-5.208-2.81-10.431-4.128-15.669-.645-2.566-1.277-5.135-1.893-7.708-.595-2.486-.948-5.195-1.824-7.592-.546-1.494-2.095-2.438-3.68-2.147-1.309.24-2.458,1.24-3.544,1.97-2.449,1.646-4.838,3.37-7.171,5.177l1.697-.703c-1.344,0-2.57,1.368-3.543,2.171-1.063.877-2.103,1.783-3.101,2.733-1.809,1.722-3.54,3.612-4.863,5.742-.592.954-1.228,2.04-1.219,3.191.013,1.676,1.258,2.582,2.573,3.336,2.59,1.485,5.18,2.969,7.772,4.45l-.486-3.769c-2.975,2.781-5.921,5.598-8.704,8.574-1.459,1.561-2.548,3.295-1.912,5.516.524,1.831,1.742,3.619,2.616,5.303,3.859,7.437,7.823,14.82,11.855,22.165,1.487,2.709,5.634.289,4.145-2.423-3.649-6.646-7.24-13.323-10.75-20.043-.846-1.62-1.687-3.242-2.523-4.866-.214-.416-.765-1.384-.746-1.442.177-.553,1.131-1.266,1.516-1.669,2.543-2.664,5.208-5.207,7.898-7.722,1.127-1.054.822-3.022-.486-3.769-1.472-.841-2.943-1.683-4.414-2.525-.7-.401-1.4-.802-2.1-1.203-.349-.2-.699-.401-1.048-.601-.179-.103-.917-.723-.727-.369l.328,1.211c.011.283-.188.373.035-.01.146-.252.279-.51.43-.759.255-.421.528-.831.82-1.227.686-.931,1.479-1.788,2.287-2.614,1.872-1.914,3.928-3.637,6.035-5.283l-1.697.703c1.108,0,1.897-.856,2.727-1.475.929-.694,1.87-1.371,2.82-2.036,1.559-1.092,3.256-2.554,5.011-3.303l-1.211.328-.651-.275-.617-1.059c.699,1.782.938,3.862,1.38,5.727.479,2.025.967,4.047,1.464,6.067,1,4.063,2.036,8.118,3.107,12.163,2.165,8.181,4.471,16.325,6.914,24.427,1.358,4.505,2.76,8.996,4.202,13.475.943,2.928,5.579,1.676,4.629-1.276h0Z"/><path class="h" d="m181.508,223.416c4.026-7.347,7.993-14.727,11.848-22.165.879-1.696,2.071-3.467,2.619-5.303.653-2.191-.472-3.981-1.909-5.516-2.784-2.974-5.732-5.789-8.704-8.574l-.486,3.769c1.681-.961,3.361-1.924,5.042-2.886,1.529-.875,3.843-1.687,4.803-3.218,1.764-2.811-1.703-6.491-3.456-8.443-2.466-2.747-5.362-5.088-8.293-7.316-2.642-2.008-5.396-4.2-8.316-5.791-1.528-.833-3.497-.506-4.489.99s-1.133,3.814-1.538,5.541c-.841,3.587-1.712,7.166-2.611,10.739-1.849,7.351-3.816,14.672-5.893,21.962-2.326,8.162-4.792,16.284-7.394,24.362-.949,2.947,3.684,4.209,4.629,1.276,5.147-15.981,9.767-32.134,13.813-48.429.56-2.254,1.108-4.511,1.645-6.771.258-1.086.513-2.173.766-3.26.182-.784.431-2.602.728-2.998l-.861.861c-1.281-.323-1.579-.296-.895.08.221.144.441.288.661.433.461.304.922.609,1.38.917.857.575,1.709,1.159,2.554,1.752,1.881,1.321,3.73,2.687,5.504,4.15,1.732,1.428,3.413,2.932,4.935,4.584.585.634,1.157,1.286,1.658,1.989.283.397.551.804.798,1.225.117.199.229.401.336.607.194.399.202.402.024.01l.328-1.211c.199-.155.172-.152-.08.009-.211.12-.421.24-.632.36-.281.16-.561.32-.842.481-.771.441-1.543.882-2.314,1.324-1.47.842-2.94,1.685-4.411,2.525-1.31.749-1.611,2.714-.486,3.769,2.629,2.465,5.24,4.951,7.735,7.552.435.453,1.484,1.227,1.677,1.839-.057-.18-.053.018-.108.181-.139.413-.446.872-.646,1.261-.834,1.625-1.675,3.247-2.52,4.866-3.508,6.72-7.102,13.395-10.744,20.043-1.485,2.71,2.658,5.135,4.145,2.423h0Z"/><path class="h" d="m37.228,223.416c10.127-19.393,25.826-35.661,44.696-46.703,2.679-1.568,5.419-3.031,8.213-4.383,1.396-.675,2.806-1.323,4.228-1.943.58-.253,1.162-.499,1.748-.739.299-.122.598-.244.898-.364.15-.06,1.527-.48.815-.48,3.089,0,3.094-4.8,0-4.8-1.234,0-2.755.914-3.885,1.386-1.384.579-2.76,1.175-4.122,1.802-2.585,1.188-5.126,2.47-7.617,3.843-4.989,2.747-9.778,5.854-14.328,9.279-9.245,6.96-17.453,15.12-24.442,24.343-3.899,5.146-7.36,10.614-10.348,16.336-1.428,2.735,2.713,5.165,4.145,2.423h0Z"/><path class="h" d="m181.878,168.729c20.249,7.823,38.333,21.587,51.325,38.975,3.709,4.964,7.012,10.22,9.881,15.712,1.431,2.739,5.575.315,4.145-2.423-10.548-20.192-27.061-37.177-46.74-48.611-5.546-3.222-11.352-5.971-17.335-8.282-1.209-.467-2.633.515-2.952,1.676-.372,1.356.462,2.483,1.676,2.952h0Z"/><path class="h" d="m141.135,122.614c.185.002.37.006.555.019l.18.014c.274.03.236.024-.115-.019.151-.058.664.142.817.188.041.012.453.119.457.156l-.283-.121c.094.042.187.087.279.135.176.091.598.482.768.48-.237.003-.365-.307-.032.004.071.067.141.136.209.206.054.056.222.311.291.328-.225-.057-.28-.397-.03-.014.135.207.244.424.363.64.252.458-.169-.526-.008-.025.046.144.1.285.142.43.053.182.078.785.198.904-.143-.141-.043-.495-.031-.168.006.161.022.32.025.481.005.219,0,.437-.015.655-.006.095-.018.189-.024.283-.026.411.129-.679.004-.056-.09.448-.229.87-.355,1.308-.047.164-.211.335.099-.22-.062.11-.106.234-.164.347-.117.231-.248.455-.393.669-.169.249-.333.22.061-.066-.096.07-.181.211-.264.298-.147.155-.374.29-.496.458.287-.395.288-.213.036-.05-.1.064-.202.125-.306.182-.058.032-.305.116-.325.165.346-.14.398-.163.156-.069-.097.036-.195.069-.295.099-.118.037-.687.251-.796.188l.295-.037c-.119.014-.238.025-.357.033-.155.011-.311.016-.467.018-.161.002-.322,0-.482-.009l-.188-.012c-.278-.028-.247-.021.093.022-.298.038-.713-.171-.999-.246-.535-.14.452.252-.027-.002-.139-.074-.28-.141-.416-.221-.088-.052-.172-.113-.261-.164-.455-.263.383.364.003.009-.182-.17-.366-.335-.532-.521-.336-.377.039-.129.006.025.014-.068-.277-.42-.32-.495-.049-.085-.096-.171-.141-.258-.148-.286-.033-.411-.004.038-.015-.235-.196-.535-.26-.768-.064-.232-.062-.585-.171-.792.21.4.044.399.017.055-.011-.146-.019-.292-.021-.438-.003-.163,0-.327.008-.49.006-.114.016-.229.028-.343-.048.326-.056.397-.025.214.086-.364.174-.716.283-1.074.129-.426-.045.052-.052.098.029-.192.212-.44.308-.608.085-.148.181-.287.27-.432.289-.474-.337.357.034-.054.222-.247.529-.696.844-.826-.041.017-.457.301-.078.074.193-.116.391-.227.583-.345.478-.293-.486.137.052-.032.165-.052.326-.111.494-.155.129-.034.383-.134.515-.109-.344.043-.379.051-.104.025.122-.008.244-.012.366-.012,1.255-.02,2.459-1.089,2.4-2.4-.057-1.283-1.055-2.422-2.4-2.4-3.952.064-7.454,3.064-8.142,6.975-.619,3.519.638,7.309,3.749,9.268s7.666,1.524,10.332-1.002c2.227-2.109,2.933-5.372,2.491-8.313-.267-1.777-1.163-3.567-2.519-4.765-1.653-1.46-3.719-2.138-5.911-2.163-1.256-.014-2.458,1.114-2.4,2.4.059,1.312,1.054,2.385,2.4,2.4Z"/><path class="e" d="m102.462,239.316c-5.764-5.624-8.802-17.403-9.217-23.702-.317-4.825,1.224-9.559,2.983-12.725,2.182-3.929,5.542-6.202,7.602-7.372,5.763-3.275,9.503-3.934,15.815-5.05,1.348-.238,3.789-.482,5.156-.427,2.536.102,4.769.644,6.614,2.274,1.427,1.26,3.093,4.85,2.347,7.005l-1.059,3.059c1.84.59,3.159,1.976,3.634,3.844.608,2.392-.227,4.924-1.78,6.318l-1.116,1.001c.427-.023.824-.043,1.182-.064,1.998-.118,4.007,1.663,4.565,3.851.372,1.458-.317,3.855-1.442,4.853-.073.065-.15.128-.229.189,2.827,1.938.581,7.32.581,7.32-.339,1.223-.874,2.088-1.696,3.055-.332.39-.771.864-1.221,1.253-.413.358-.98.78-1.473,1.016-3.28,1.57-5.806,2.286-10.657,4.039"/><path class="h" d="m123.692,241.367c3.141-1.132,6.326-2.148,9.4-3.456,1.548-.659,2.945-1.377,4.17-2.566,1.446-1.404,2.584-3.073,3.154-5.016.353-1.204-.427-2.668-1.676-2.952-1.286-.293-2.574.387-2.952,1.676-.058.197-.119.39-.187.583-.085.242.128-.194-.078.169-.188.332-.373.655-.591.969-.065.093-.219.272-.062.083-.127.154-.256.305-.389.454-.283.317-.579.623-.896.906-.052.046-.451.374-.128.127-.123.094-.252.184-.381.269-.302.198-.622.356-.949.508-.304.142-.609.28-.916.415-.059.026-.564.243-.253.111s-.246.1-.25.102c-2.72,1.109-5.529,1.996-8.291,2.992-1.178.425-2.097,1.653-1.676,2.952.375,1.159,1.688,2.132,2.952,1.676h0Z"/><path class="h" d="m136.078,199.956c.875-2.992-.504-6.464-2.424-8.765-2.148-2.576-5.784-3.481-8.996-3.555-3.183-.073-6.4.609-9.507,1.222-3.161.624-6.198,1.516-9.138,2.845-5.846,2.643-10.594,6.609-13.118,12.629-1.451,3.461-2.261,7.286-2.063,11.049.138,2.622.603,5.251,1.205,7.803,1.499,6.349,4.016,13.142,8.727,17.829,2.192,2.182,5.588-1.211,3.394-3.394-3.463-3.446-5.397-8.285-6.748-12.897-1.428-4.87-2.466-9.767-1.295-14.815,1.193-5.143,3.954-9.377,8.525-12.085,4.867-2.884,10.115-4.116,15.643-5.041,2.547-.426,5.637-.748,8.06.366,1.899.873,3.7,3.502,3.106,5.533-.869,2.971,3.762,4.24,4.629,1.276h0Z"/><path class="h" d="m115.733,207.305c4.477-1.148,9.049-2.086,13.625-2.742-.608.087.371-.042.562-.06.338-.031.672-.05,1.011-.035.904.041,1.737.381,2.297.938.344.343.45.475.673,1.005.08.189.251,1.046.236,1.526-.034,1.128-.463,2.131-1.276,2.906-2.241,2.135,1.157,5.526,3.394,3.394,2.781-2.65,3.475-7.101,1.671-10.486-1.47-2.757-4.675-4.271-7.736-4.072-2.461.16-4.937.691-7.354,1.157-2.807.541-5.61,1.129-8.38,1.84-2.99.767-1.723,5.398,1.276,4.629h0Z"/><path class="h" d="m122.152,217.426c1.383-.311,2.794-.485,4.195-.691,1.427-.21,2.729-.464,4.061-.587s2.661-.194,3.992-.258c.152-.007.304-.01.455-.018.031-.002.391.045.14.003-.314-.052.636.254.224.062.148.069.281.155.422.235.039.022.351.263.11.064.097.08.187.168.276.256.035.034.384.408.207.188.425.528.474.824.643,1.288.016.045.057.365.025.085-.037-.319-.011.15-.011.223,0,.115-.007.23-.014.344.025-.408-.019.102-.039.193-.061.281-.142.555-.234.828-.021.063-.195.406-.038.096-.053.104-.106.208-.165.309-.032.053-.295.446-.122.219.151-.198-.058.063-.082.082-.027.023-.271.249-.059.079-.135.109-.296.198-.446.286-1.563.921-3.666,1.495-5.537,2.096-2.306.741-4.638,1.489-7.011,1.986-1.269.266-2.004,1.759-1.676,2.952.362,1.316,1.679,1.943,2.952,1.676,2.408-.504,4.774-1.265,7.113-2.018,2.41-.776,5.187-1.48,7.233-2.988,2.808-2.069,3.666-6.19,2.142-9.275-.781-1.582-2.146-2.886-3.77-3.569-1.523-.641-3.071-.472-4.676-.376-2.009.12-3.985.37-5.97.693-1.87.304-3.764.493-5.614.909-1.265.284-2.008,1.745-1.676,2.952.358,1.302,1.683,1.961,2.952,1.676h0Z"/><path class="e" d="m165.991,222.797c-3.753-2.139-10.626-5.861-12.293-6.435-1.667-.574-3.693-.496-4.983.707-1.012.944-1.39,2.402-1.407,3.786-.025,2.034.647,4.077,1.909,5.674l1.059,1.323c.936,1.169.244,2.915-1.238,3.127-15.075,2.161-21.307,3.792-35.526,7.211-13.249,3.186-18.391,11.253-18.433,15.557-.032,3.322,2.416,5.314,3.918,5.427-2.001,2.378,2.944,5.166,7.106,4.868,15.159-1.086,31.081-2.421,45.812-3.231.959,1.075,3.89,2.253,5.328,2.329,9.116.483,25.705-9.632,27.782-18.013,1.224-4.938-4.195-6.596-4.997-7.248-1.054-.858-1.422-2.276-1.845-3.567-.977-2.984-2.672-6.25-6.286-8.035-2.323-1.049-3.691-2.218-5.906-3.48Z"/><path class="h" d="m167.202,220.724c-3.173-1.805-6.377-3.568-9.637-5.209-3.243-1.633-7.099-3.046-10.279-.37-3.891,3.275-2.517,9.585.234,13.079.286.363.587.714.866,1.082.363.477-.153-.122-.086-.361.103-.37.709-.22.101-.281-1.12-.112-2.585.377-3.705.547-1.126.172-2.252.349-3.376.533-8.051,1.316-15.984,3.127-23.911,5.038-7.661,1.847-15.599,4.007-20.891,10.3-1.741,2.07-3.264,4.519-3.692,7.234-.656,4.16,1.733,8.715,6.172,9.258l-2.072-3.611c-2.163,2.862.447,6.028,3.091,7.252,3.665,1.696,7.43,1.134,11.325.846,8.666-.641,17.328-1.321,25.996-1.926,4.857-.339,9.716-.654,14.577-.923l-1.697-.703c3.858,3.93,9.843,3.351,14.607,1.834,5.301-1.688,10.242-4.506,14.567-7.982,3.468-2.787,7.325-6.66,8.075-11.248.446-2.731-.539-5.293-2.662-7.062-.707-.589-1.467-1.093-2.274-1.53-.283-.154-.573-.294-.855-.449-.095-.052-.214-.1-.299-.169-.125-.079-.099-.068.078.032-.118-.108-.207-.239-.267-.392-1.198-3.031-2.099-6.008-4.332-8.489-1.295-1.44-2.874-2.38-4.576-3.248-1.765-.9-3.365-2.088-5.076-3.081-2.677-1.554-5.096,2.593-2.423,4.145,2.101,1.219,4.125,2.507,6.261,3.663,1.691.916,2.909,2.296,3.809,3.978.955,1.787,1.229,3.883,2.287,5.611.789,1.29,1.801,1.9,3.054,2.589.403.222,1.117.66,1.28.783.301.229.907.879,1.056,1.162.193.367.154.174.229.6.013.073.071.397.039.756-.027.301-.112.608-.203.909-.044.146-.096.289-.144.434-.13.392.034-.041-.068.191-1.26,2.88-3.553,5.088-6.006,7.113-2.869,2.367-6.158,4.301-9.549,5.817-2.841,1.27-6.018,2.27-8.866,2.282-.768.003-.867-.003-1.778-.295-.863-.276-1.744-.657-2.467-1.211-.131-.1-.739-.638-1.161-.754-.64-.176-1.371-.045-2.022-.008-1.397.08-2.795.163-4.191.249-5.404.335-10.805.717-16.205,1.114-6.105.449-12.209.92-18.314,1.373-2.592.192-5.578.846-8.138.223-.787-.192-1.767-.53-2.341-.962-.143-.107-.255-.265-.397-.368.061.044.03-.147-.008.072-.092.533-.268.728.134.196,1.233-1.631-.509-3.42-2.072-3.611.315.039.164.018.013-.071-.257-.151-.371-.248-.456-.324-.417-.377-.725-.857-.911-1.441-.184-.58-.137-1.095-.139-1.687,0,.012-.11.441.011-.041.06-.24.104-.482.171-.721.055-.197.117-.392.185-.586.04-.113.257-.658.15-.407-.109.255.208-.426.255-.517.127-.248.262-.492.403-.732.688-1.169,1.046-1.623,1.992-2.623,5.059-5.341,12.288-6.836,19.216-8.503,7.132-1.716,14.276-3.336,21.512-4.551,2.123-.356,4.249-.687,6.378-1.002,2.188-.323,4.326-.767,5.1-3.157.597-1.844-.168-3.336-1.293-4.742-.833-1.04-1.523-1.966-1.798-3.633-.233-1.411-.146-3.445,1.631-3.613.459-.043.863.021,1.304.146.219.062.857.314.298.076.592.252,1.17.539,1.746.826,3.394,1.687,6.72,3.524,10.014,5.398,2.689,1.53,5.11-2.616,2.423-4.145Z"/></g></g></svg>