<svg width="1174" height="231" viewBox="0 0 1174 231" fill="none" xmlns="http://www.w3.org/2000/svg">
<circle cx="124" cy="125.5" r="105" fill="#FCAF17"/>
<path d="M181.725 143.34C181.725 149.612 179.197 154.668 175.357 158.572L173.438 157.58C177.15 153.772 179.421 149.068 179.421 143.34C179.421 137.644 177.15 132.94 173.438 129.132L175.357 128.14C179.197 132.044 181.725 137.1 181.725 143.34Z" fill="black"/>
<path d="M142.623 135.628H167.455V138.06H142.623V135.628ZM166.527 135.628H169.023C169.023 135.628 168.991 136.524 168.959 136.908C168.223 150.156 167.551 154.924 166.143 156.524C165.375 157.452 164.607 157.708 163.391 157.804C162.271 157.932 160.223 157.868 158.239 157.74C158.207 157.036 157.887 155.98 157.439 155.276C159.615 155.468 161.663 155.5 162.463 155.5C163.167 155.5 163.551 155.404 163.967 155.02C165.183 153.836 165.887 148.844 166.527 136.14V135.628ZM153.087 128.684H155.615V134.252C155.615 141.548 154.719 151.436 143.519 158.188C143.167 157.612 142.271 156.716 141.695 156.3C152.319 149.964 153.087 140.876 153.087 134.252V128.684Z" fill="black"/>
<path d="M110.046 138.124H137.598V140.204H110.046V138.124ZM112.51 132.428H130.686V134.444H112.51V132.428ZM120.67 128.62H123.038V139.148H120.67V128.62ZM132.67 142.252L134.238 143.884C130.206 144.972 123.966 145.708 118.75 146.092C118.686 145.612 118.398 144.844 118.174 144.428C123.23 143.98 129.31 143.18 132.67 142.252ZM134.366 130.124L136.318 131.212C129.854 139.052 120.126 145.004 110.27 148.78C109.95 148.3 109.214 147.34 108.734 146.892C118.718 143.436 128.35 137.484 134.366 130.124ZM117.822 142.316L120.19 142.604C119.518 145.708 118.558 149.644 117.822 152.044L115.422 151.724C116.222 149.292 117.214 145.292 117.822 142.316ZM131.774 148.46H134.206C134.206 148.46 134.142 149.164 134.078 149.548C133.31 154.284 132.606 156.396 131.55 157.324C130.878 157.932 130.206 158.092 129.086 158.124C128.094 158.188 126.206 158.156 124.222 158.028C124.158 157.388 123.87 156.46 123.454 155.82C125.47 156.012 127.55 156.044 128.318 156.044C128.99 156.044 129.374 156.012 129.694 155.756C130.494 155.116 131.166 153.164 131.742 148.78L131.774 148.46ZM117.47 148.46H132.414V150.476H116.958L117.47 148.46Z" fill="black"/>
<path d="M85.1792 147.788H87.6113V154.124C87.6113 155.052 87.9313 155.18 89.7233 155.18C90.5553 155.18 94.7473 155.18 95.8673 155.18C97.4353 155.18 97.6913 154.668 97.8513 151.052C98.3953 151.436 99.3873 151.82 100.059 151.98C99.7393 156.332 99.0033 157.42 96.0273 157.42C95.2913 157.42 90.2673 157.42 89.5633 157.42C86.1073 157.42 85.1792 156.716 85.1792 154.124V147.788ZM88.1553 146.572L89.7233 145.1C92.1233 146.284 95.0673 148.204 96.5073 149.644L94.8113 151.276C93.4353 149.868 90.5553 147.852 88.1553 146.572ZM99.7073 148.14L101.851 147.276C103.707 149.676 105.691 152.94 106.395 155.148L104.091 156.172C103.387 153.996 101.563 150.636 99.7073 148.14ZM81.0513 147.628L83.1632 148.364C82.4272 151.02 81.2753 154.348 79.6753 156.428L77.5312 155.276C79.1313 153.292 80.3473 150.124 81.0513 147.628ZM82.9072 138.252V142.38H100.699V138.252H82.9072ZM82.9072 132.172V136.236H100.699V132.172H82.9072ZM80.6353 130.06H103.067V144.492H80.6353V130.06ZM90.7153 130.956H93.0513V143.564H90.7153V130.956Z" fill="black"/>
<path d="M66.2344 143.34C66.2344 137.1 68.7624 132.044 72.6024 128.14L74.5224 129.132C70.8104 132.94 68.5384 137.644 68.5384 143.34C68.5384 149.068 70.8104 153.772 74.5224 157.58L72.6024 158.572C68.7624 154.668 66.2344 149.612 66.2344 143.34Z" fill="black"/>
<path d="M131.29 91.4359H147.13V93.5479H131.29V91.4359ZM125.914 98.7319H154.202V100.972H125.914V98.7319ZM138.778 96.3959H141.242V107.212C141.242 108.652 140.858 109.356 139.642 109.708C138.49 110.06 136.634 110.092 133.722 110.092C133.562 109.42 133.082 108.428 132.698 107.788C135.162 107.852 137.338 107.852 137.978 107.82C138.618 107.788 138.778 107.628 138.778 107.148V96.3959ZM146.394 91.4359H147.002L147.514 91.3079L149.05 92.4919C146.874 94.6999 143.514 96.9079 140.474 98.2199C140.186 97.8039 139.546 97.1639 139.13 96.8119C141.818 95.6599 144.89 93.5479 146.394 91.9159V91.4359ZM126.554 85.9639H153.658V93.0999H151.29V88.1399H128.826V93.0999H126.554V85.9639ZM149.434 80.8439L151.93 81.6759C150.586 83.6599 148.858 85.8039 147.514 87.2119L145.626 86.4119C146.906 84.9079 148.538 82.5399 149.434 80.8439ZM128.73 81.9639L130.746 81.0039C131.994 82.3479 133.306 84.1719 133.85 85.4519L131.706 86.4759C131.194 85.2599 129.914 83.3399 128.73 81.9639ZM136.954 81.2599L139.034 80.4919C140.122 81.9959 141.274 84.0759 141.658 85.4199L139.45 86.2839C139.066 84.9399 138.01 82.8279 136.954 81.2599Z" fill="black"/>
<path d="M99.1922 106.636H116.952V108.748H99.1922V106.636ZM97.9762 98.7001H118.296V109.996H115.864V100.844H100.344V110.124H97.9762V98.7001ZM94.1362 84.0441H106.328V86.0601H94.1362V84.0441ZM108.888 87.6281H122.232V89.8041H108.888V87.6281ZM93.6562 90.2841C96.8883 89.9001 101.784 89.1961 106.584 88.5561L106.648 90.5401C102.04 91.1801 97.3042 91.9161 93.9442 92.3961L93.6562 90.2841ZM115.128 88.5241H117.496V97.7401H115.128V88.5241ZM99.3842 80.6201H101.72V95.4681C101.72 96.6841 101.496 97.2601 100.632 97.5801C99.8002 97.9001 98.4882 97.9321 96.4722 97.9321C96.3762 97.3241 96.0562 96.4921 95.8002 95.9161C97.1442 95.9801 98.4882 95.9801 98.8722 95.9481C99.2562 95.9481 99.3842 95.8201 99.3842 95.4361V80.6201ZM107.96 82.1561L110.904 82.9561C110.872 83.1801 110.68 83.3401 110.232 83.4041V87.4041C110.232 90.5081 109.528 94.7641 105.592 97.7401C105.272 97.1961 104.472 96.3641 103.96 96.0441C107.416 93.4521 107.96 90.0921 107.96 87.3081V82.1561ZM119.288 80.8761L120.952 82.6361C117.816 83.5961 113.176 84.3001 109.304 84.6521C109.208 84.1401 108.888 83.3401 108.6 82.8601C112.344 82.4441 116.76 81.7081 119.288 80.8761Z" fill="black"/>
<circle cx="355" cy="125.5" r="105" fill="#B6D43E"/>
<path d="M405.922 141.644C406.914 141.74 408.578 141.836 410.402 141.836C412.738 141.836 425.57 141.836 427.938 141.836C429.538 141.836 430.658 141.708 431.394 141.644V144.78C430.722 144.748 429.378 144.652 427.97 144.652C425.538 144.652 412.77 144.652 410.402 144.652C408.642 144.652 406.946 144.716 405.922 144.78V141.644Z" fill="black"/>
<path d="M380.287 130.924C382.175 131.98 385.855 134.444 387.263 135.468L385.759 137.644C384.223 136.46 380.735 134.156 378.879 133.1L380.287 130.924ZM375.487 153.804C379.007 153.196 382.975 151.916 386.239 150.092C391.551 147.052 395.775 142.86 398.335 138.348L399.903 141.004C397.119 145.292 392.703 149.42 387.583 152.428C384.351 154.316 379.935 155.788 376.991 156.396L375.487 153.804ZM375.487 138.124C377.375 139.148 381.119 141.452 382.495 142.444L381.023 144.684C379.455 143.532 375.999 141.324 374.047 140.3L375.487 138.124Z" fill="black"/>
<path d="M346.708 131.692C347.54 131.788 348.532 131.852 349.556 131.852C351.284 131.852 360.276 131.852 362.164 131.852C363.156 131.852 364.276 131.788 365.044 131.692V134.348C364.308 134.284 363.188 134.252 362.1 134.252C360.308 134.252 351.316 134.252 349.556 134.252C348.596 134.252 347.572 134.284 346.708 134.348V131.692ZM367.412 140.108C367.252 140.428 367.028 140.812 366.964 141.068C366.132 144.204 364.692 147.532 362.292 150.156C358.964 153.836 354.932 155.692 350.868 156.844L348.884 154.572C353.396 153.644 357.396 151.564 360.148 148.684C362.068 146.668 363.348 143.948 363.924 141.612C362.356 141.612 348.884 141.612 346.964 141.612C346.196 141.612 344.98 141.644 343.828 141.74V139.052C344.98 139.148 346.068 139.244 346.964 139.244C348.532 139.244 362.164 139.244 363.796 139.244C364.532 139.244 365.236 139.148 365.588 138.988L367.412 140.108Z" fill="black"/>
<path d="M314.16 131.852C315.088 131.948 316.016 132.012 317.072 132.012C318.928 132.012 328.24 132.012 330.032 132.012C330.928 132.012 332.08 131.948 333.008 131.852V134.508C332.048 134.444 330.928 134.38 330.032 134.38C328.24 134.38 318.928 134.38 317.104 134.38C316.048 134.38 314.992 134.444 314.16 134.508V131.852ZM310.352 139.884C311.216 139.98 312.144 140.012 313.136 140.012C314.992 140.012 332.368 140.012 334.064 140.012C334.736 140.012 335.792 139.98 336.592 139.884V142.508C335.856 142.476 334.864 142.444 334.064 142.444C332.368 142.444 314.992 142.444 313.136 142.444C312.176 142.444 311.216 142.476 310.352 142.54V139.884ZM325.424 141.164C325.424 145.196 324.912 148.524 323.472 151.212C322.32 153.356 319.888 155.628 317.2 157.036L314.832 155.308C317.296 154.252 319.6 152.428 320.848 150.38C322.448 147.852 322.704 144.716 322.736 141.196L325.424 141.164Z" fill="black"/>
<path d="M300.112 131.244C300.048 132.012 300.016 132.94 300.016 134.028C300.016 135.276 300.016 137.996 300.016 139.18C300.016 146.892 298.992 149.42 296.656 152.14C294.608 154.636 291.408 156.044 289.072 156.844L286.96 154.636C289.904 153.868 292.624 152.62 294.608 150.348C296.88 147.724 297.296 145.1 297.296 139.084C297.296 137.836 297.296 135.148 297.296 134.028C297.296 132.94 297.2 132.012 297.104 131.244H300.112ZM285.264 131.5C285.2 132.108 285.168 133.036 285.168 133.772C285.168 134.732 285.168 143.116 285.168 144.46C285.168 145.292 285.2 146.348 285.264 146.924H282.352C282.416 146.412 282.48 145.388 282.48 144.46C282.48 143.084 282.48 134.732 282.48 133.772C282.48 133.228 282.448 132.108 282.352 131.5H285.264Z" fill="black"/>
<path d="M362.298 91.4359H378.138V93.5479H362.298V91.4359ZM356.922 98.7319H385.21V100.972H356.922V98.7319ZM369.786 96.3959H372.25V107.212C372.25 108.652 371.866 109.356 370.65 109.708C369.498 110.06 367.642 110.092 364.73 110.092C364.57 109.42 364.09 108.428 363.706 107.788C366.17 107.852 368.346 107.852 368.986 107.82C369.626 107.788 369.786 107.628 369.786 107.148V96.3959ZM377.402 91.4359H378.01L378.522 91.3079L380.058 92.4919C377.882 94.6999 374.522 96.9079 371.482 98.2199C371.194 97.8039 370.554 97.1639 370.138 96.8119C372.826 95.6599 375.898 93.5479 377.402 91.9159V91.4359ZM357.562 85.9639H384.666V93.0999H382.298V88.1399H359.834V93.0999H357.562V85.9639ZM380.442 80.8439L382.938 81.6759C381.594 83.6599 379.866 85.8039 378.522 87.2119L376.634 86.4119C377.914 84.9079 379.546 82.5399 380.442 80.8439ZM359.738 81.9639L361.754 81.0039C363.002 82.3479 364.314 84.1719 364.858 85.4519L362.714 86.4759C362.202 85.2599 360.922 83.3399 359.738 81.9639ZM367.962 81.2599L370.042 80.4919C371.13 81.9959 372.282 84.0759 372.666 85.4199L370.458 86.2839C370.074 84.9399 369.018 82.8279 367.962 81.2599Z" fill="black"/>
<path d="M329.786 83.2761H332.122V109.996H329.786V83.2761ZM324.378 89.6441H336.858V91.9161H324.378V89.6441ZM329.914 90.5081L331.418 91.1481C330.138 95.6601 327.578 101.26 325.114 104.236C324.89 103.564 324.314 102.572 323.898 102.028C326.202 99.4681 328.762 94.4761 329.914 90.5081ZM334.906 81.0681L336.378 83.0201C333.434 84.1721 329.018 85.0361 325.37 85.5481C325.242 85.0041 324.922 84.2041 324.666 83.6601C328.282 83.0841 332.474 82.1561 334.906 81.0681ZM331.994 92.3321C332.826 93.1961 335.898 97.0681 336.602 98.0281L335.098 99.9161C334.33 98.3801 331.834 94.5721 330.874 93.3241L331.994 92.3321ZM347.386 80.6201H349.754V110.028H347.386V80.6201ZM336.474 101.452L353.498 98.7001L353.882 100.94L336.826 103.724L336.474 101.452ZM339.066 84.2681L340.602 82.8601C342.522 84.0761 344.794 85.9001 345.882 87.2441L344.218 88.8121C343.194 87.4681 340.954 85.5481 339.066 84.2681ZM337.786 92.5881L339.29 91.1801C341.37 92.4281 343.898 94.3481 345.082 95.7241L343.482 97.3241C342.298 95.9161 339.866 93.9001 337.786 92.5881Z" fill="black"/>
<circle cx="586.5" cy="125.5" r="105" fill="#28AFE7"/>
<path d="M628.225 143.34C628.225 149.612 625.697 154.668 621.857 158.572L619.938 157.58C623.65 153.772 625.922 149.068 625.922 143.34C625.922 137.644 623.65 132.94 619.938 129.132L621.857 128.14C625.697 132.044 628.225 137.1 628.225 143.34Z" fill="black"/>
<path d="M602.368 130.956C599.712 134.764 594.56 139.18 589.152 142.06C588.864 141.484 588.192 140.652 587.68 140.14C593.216 137.356 598.528 132.62 600.992 128.588H603.456C606.848 133.228 612.384 137.516 617.408 139.756C616.832 140.332 616.256 141.164 615.84 141.868C610.88 139.308 605.312 134.924 602.368 130.956ZM594.432 138.38H610.496V140.556H594.432V138.38ZM590.304 144.812H614.656V146.956H590.304V144.812ZM588.832 154.924H616.192V157.036H588.832V154.924ZM601.088 139.212H603.616V156.044H601.088V139.212ZM592.96 148.588L594.912 147.788C596.224 149.548 597.536 151.98 597.984 153.58L595.904 154.476C595.488 152.876 594.24 150.38 592.96 148.588ZM609.696 147.724L611.968 148.652C610.752 150.668 609.248 152.972 608.064 154.476L606.24 153.676C607.392 152.108 608.896 149.548 609.696 147.724Z" fill="black"/>
<path d="M567.612 129.964C567.516 130.54 567.452 131.404 567.42 132.172C567.324 134.06 567.164 138.956 567.164 142.284C567.164 145.612 567.324 150.604 567.324 152.62C567.324 155.564 566.236 156.524 564.476 156.524C561.98 156.524 557.82 154.092 557.82 151.212C557.82 148.396 561.628 145.42 565.596 143.916C568.444 142.796 571.644 142.22 574.172 142.22C578.876 142.22 582.236 144.748 582.236 148.588C582.236 152.46 579.804 154.924 575.388 155.948C573.98 156.268 572.54 156.332 571.42 156.396L570.524 153.836C571.74 153.836 573.084 153.868 574.3 153.612C577.084 153.068 579.644 151.564 579.644 148.588C579.644 145.868 577.18 144.428 574.172 144.428C571.292 144.428 568.668 145.036 565.948 146.124C562.812 147.34 560.348 149.484 560.348 151.116C560.348 152.556 562.588 153.836 563.836 153.836C564.572 153.836 564.988 153.324 564.988 152.268C564.988 150.412 564.828 145.964 564.828 142.412C564.828 138.732 564.956 133.516 564.956 132.204C564.956 131.596 564.892 130.476 564.796 129.964H567.612ZM577.564 133.516C579.836 134.7 583.324 136.876 584.86 138.156L583.58 140.204C582.012 138.732 578.428 136.524 576.38 135.436L577.564 133.516ZM558.364 135.692C560.124 135.916 561.276 135.948 562.428 135.948C565.596 135.948 570.684 135.276 573.852 134.316L573.916 136.812C570.62 137.612 565.372 138.316 562.492 138.316C560.7 138.316 559.484 138.252 558.428 138.156L558.364 135.692Z" fill="black"/>
<path d="M544.734 143.34C544.734 137.1 547.262 132.044 551.102 128.14L553.022 129.132C549.31 132.94 547.038 137.644 547.038 143.34C547.038 149.068 549.31 153.772 553.022 157.58L551.102 158.572C547.262 154.668 544.734 149.612 544.734 143.34Z" fill="black"/>
<path d="M596.768 83.9801H616.928V86.1241H596.768V83.9801ZM600.832 96.7801H613.024V98.8601H600.832V96.7801ZM600.704 101.932H613.056V104.012H600.704V101.932ZM605.568 80.6521H608.032V85.0041H605.568V80.6521ZM611.84 94.9241H614.208V110.06H611.84V94.9241ZM611.2 85.1321L613.472 85.7721C610.496 91.1801 604.096 93.9001 597.024 95.4041C596.8 94.8601 596.224 93.8361 595.808 93.3241C602.656 92.2041 608.736 89.8041 611.2 85.1321ZM589.376 82.6361L590.72 80.9081C592.736 81.7721 595.264 83.2121 596.48 84.3321L595.104 86.2841C593.888 85.1321 591.424 83.5961 589.376 82.6361ZM587.68 91.3401L588.992 89.5481C591.04 90.3161 593.632 91.6921 594.912 92.7481L593.536 94.7321C592.288 93.6441 589.76 92.2041 587.68 91.3401ZM588.64 108.076C590.272 105.612 592.608 101.356 594.336 97.7081L596.16 99.1801C594.592 102.572 592.48 106.636 590.72 109.612L588.64 108.076ZM599.52 94.8921H601.824V99.0841C601.824 102.54 601.248 107.18 597.248 110.38C596.8 109.964 595.904 109.356 595.328 109.036C599.04 106.156 599.52 102.028 599.52 99.0521V94.8921ZM601.824 85.0361C605.472 89.9961 610.72 91.7241 617.536 92.9721C616.992 93.5161 616.448 94.3801 616.192 95.1161C609.216 93.6121 603.776 91.5001 599.872 85.8681L601.824 85.0361Z" fill="black"/>
<path d="M567.809 82.2841H581.985V84.3961H567.809V82.2841ZM569.025 99.5321H583.873V101.708H569.025V99.5321ZM566.945 106.956H585.281V109.132H566.945V106.956ZM581.313 82.2841H581.793L582.241 82.1881L583.873 82.9241C581.281 90.2841 575.265 94.4121 568.481 96.5881C568.193 95.9801 567.585 95.0841 567.105 94.6041C573.377 92.8441 579.137 88.8441 581.313 82.7001V82.2841ZM571.969 84.1721C574.241 89.3561 579.169 93.1001 585.665 94.5401C585.153 94.9881 584.513 95.9161 584.161 96.5241C577.473 94.7641 572.481 90.7641 569.825 84.8761L571.969 84.1721ZM575.169 94.9241H577.505V108.332H575.169V94.9241ZM560.737 80.6521L562.849 81.4841C561.633 83.8201 560.129 86.6681 558.881 88.4281L557.217 87.6601C558.433 85.8361 559.905 82.7641 560.737 80.6521ZM564.321 84.3001L566.337 85.1961C564.161 88.8761 561.089 93.5161 558.721 96.3321L557.249 95.5001C559.617 92.6201 562.625 87.7561 564.321 84.3001ZM555.681 87.3721L556.897 85.8041C558.689 87.3081 560.705 89.3881 561.569 90.8281L560.289 92.6521C559.425 91.1481 557.409 88.9081 555.681 87.3721ZM563.201 91.7241L564.865 91.0521C566.177 93.1001 567.457 95.8521 567.905 97.6121L566.113 98.4441C565.665 96.6521 564.481 93.8361 563.201 91.7241ZM555.585 94.9881C558.369 94.8921 562.369 94.7321 566.433 94.5081L566.401 96.4921C562.561 96.7481 558.689 96.9721 555.777 97.1641L555.585 94.9881ZM564.033 99.2761L565.761 98.7321C566.657 100.524 567.521 102.956 567.841 104.556L565.985 105.196C565.697 103.596 564.833 101.132 564.033 99.2761ZM557.377 98.9241L559.457 99.3081C559.009 102.316 558.209 105.42 557.185 107.468C556.769 107.212 555.809 106.764 555.297 106.54C556.353 104.588 556.993 101.74 557.377 98.9241ZM560.833 95.8841H562.977V110.156H560.833V95.8841Z" fill="black"/>
<rect x="715" y="20.5" width="210" height="210" rx="105" fill="#AA68AA"/>
<path d="M835.167 148.652H848.703V160.044H846.367V150.86H837.439V160.172H835.167V148.652ZM834.303 137.324H847.839V145.164H845.503V139.436H834.303V137.324ZM838.911 132.748L841.279 132.94C840.703 136.876 839.807 142.124 839.135 145.164H836.767C837.503 141.996 838.399 136.62 838.911 132.748ZM833.791 131.948H849.631V134.028H833.791V131.948ZM832.831 144.076H850.655V146.22H832.831V144.076ZM836.191 156.524H847.647V158.7H836.191V156.524ZM822.559 140.62H831.583V142.508H822.559V140.62ZM822.751 131.884H831.551V133.804H822.751V131.884ZM822.559 144.972H831.583V146.892H822.559V144.972ZM821.055 136.172H832.703V138.156H821.055V136.172ZM823.711 149.356H831.711V158.7H823.711V156.716H829.599V151.372H823.711V149.356ZM822.527 149.356H824.607V160.172H822.527V149.356Z" fill="white"/>
<path d="M789.631 148.748H818.047V150.988H789.631V148.748ZM792.959 141.228H814.911V149.644H812.479V143.372H795.263V149.644H792.959V141.228ZM802.431 137.548H804.927V146.444C804.927 151.884 803.167 157.228 790.495 160.268C790.207 159.724 789.567 158.764 789.055 158.252C801.247 155.532 802.431 150.924 802.431 146.412V137.548ZM805.311 149.548C807.359 154.412 811.935 157.132 818.815 158.06C818.271 158.604 817.631 159.596 817.279 160.268C810.143 158.988 805.535 155.852 803.167 150.092L805.311 149.548ZM790.015 133.708H817.503V135.884H790.015V133.708ZM796.799 130.764H799.167V139.244H796.799V130.764ZM808.319 130.764H810.687V139.244H808.319V130.764Z" fill="white"/>
<path d="M884.422 116.94C884.55 116.46 884.646 115.788 884.646 115.148C884.646 113.676 884.646 97.9958 884.646 95.9798C884.646 94.7638 884.486 93.8678 884.486 93.6118H887.43C887.398 93.8678 887.27 94.7958 887.27 96.0118C887.27 97.9958 887.27 113.484 887.27 114.444C890.246 113.1 894.182 110.188 896.614 106.572L898.15 108.78C895.366 112.524 890.95 115.788 887.238 117.644C886.694 117.9 886.374 118.188 886.118 118.348L884.422 116.94ZM869.766 116.812C872.486 114.892 874.374 112.044 875.334 108.94C876.294 105.996 876.294 99.6278 876.294 96.0438C876.294 95.1158 876.23 94.4118 876.07 93.7398H879.014C878.982 94.0918 878.854 95.0838 878.854 96.0118C878.854 99.5638 878.758 106.444 877.894 109.644C876.934 113.068 874.886 116.172 872.198 118.412L869.766 116.812Z" fill="white"/>
<path d="M860.167 92.6838C860.967 93.8358 862.119 95.7878 862.791 97.0678L861.031 97.8358C860.423 96.5558 859.335 94.6358 858.471 93.4198L860.167 92.6838ZM863.687 91.4038C864.519 92.5878 865.767 94.5718 866.343 95.7558L864.647 96.5238C863.943 95.1478 862.887 93.3238 861.991 92.1398L863.687 91.4038ZM842.631 108.012C844.039 104.684 845.351 99.8198 845.799 96.1398L848.647 96.7158C848.423 97.4198 848.199 98.3798 848.039 99.0518C847.623 101.036 846.503 105.772 845.159 109.068C843.975 111.98 842.215 115.276 840.423 117.868L837.703 116.716C839.719 114.028 841.543 110.668 842.631 108.012ZM858.407 106.796C857.127 103.5 855.143 99.0518 853.767 96.6518L856.359 95.7878C857.607 98.1238 859.655 102.54 861.031 105.9C862.311 109.068 864.007 113.964 864.871 116.876L862.023 117.772C861.223 114.54 859.719 110.188 858.407 106.796Z" fill="white"/>
<path d="M807.227 103.756C808.219 103.852 809.883 103.948 811.707 103.948C814.043 103.948 826.875 103.948 829.243 103.948C830.843 103.948 831.963 103.82 832.699 103.756V106.892C832.027 106.86 830.683 106.764 829.275 106.764C826.843 106.764 814.075 106.764 811.707 106.764C809.947 106.764 808.251 106.828 807.227 106.892V103.756Z" fill="white"/>
<path d="M776.665 95.6919C777.913 95.7559 778.745 95.7559 779.513 95.7559C781.209 95.7559 795.129 95.7559 796.697 95.7559C797.369 95.7559 798.521 95.7559 799.513 95.7239C799.449 96.4919 799.449 97.3879 799.449 98.1879C799.449 99.6919 799.449 112.748 799.449 113.964C799.449 114.988 799.481 117.484 799.513 117.836H796.729C796.761 117.484 796.793 115.66 796.793 114.316C796.793 113.132 796.793 98.2839 796.793 98.2839H779.321C779.321 98.2839 779.321 113.004 779.321 114.316C779.321 115.372 779.353 117.42 779.353 117.836H776.633C776.633 117.42 776.697 115.084 776.697 113.964C776.697 112.652 776.697 99.4359 776.697 98.1879C776.697 97.4519 776.697 96.4919 776.665 95.6919ZM797.849 113.516V116.012H778.041V113.516H797.849Z" fill="white"/>
<path d="M764.476 92.0119C765.276 93.1639 766.428 95.1159 767.068 96.3959L765.34 97.1959C764.7 95.8839 763.612 93.9639 762.748 92.7479L764.476 92.0119ZM767.964 90.7319C768.828 91.9159 770.044 93.8999 770.652 95.0839L768.924 95.8519C768.22 94.4759 767.196 92.6519 766.3 91.4679L767.964 90.7319ZM766.588 98.3799C766.332 98.8599 766.012 99.5959 765.852 100.108C764.988 103.308 763.004 107.66 760.188 111.116C757.276 114.668 753.436 117.612 747.42 119.82L745.116 117.74C751.004 116.012 754.972 113.1 757.884 109.708C760.38 106.764 762.332 102.636 763.004 99.7239H751.132L752.156 97.4199C753.468 97.4199 761.372 97.4199 762.364 97.4199C763.228 97.4199 763.932 97.3239 764.476 97.0999L766.588 98.3799ZM755.868 93.5479C755.356 94.3799 754.78 95.4679 754.46 96.0759C752.572 99.5959 749.212 104.172 744.092 107.596L741.852 105.932C747.388 102.636 750.524 97.9959 751.932 95.1159C752.252 94.5719 752.732 93.3879 752.924 92.5879L755.868 93.5479Z" fill="white"/>
<rect x="945.5" y="20.5" width="210" height="210" rx="105" fill="#EE242C"/>
<path d="M1128.21 135.192C1128.81 136.08 1129.65 137.592 1130.11 138.48L1128.19 139.32C1127.69 138.336 1126.94 136.896 1126.29 135.984L1128.21 135.192ZM1131.05 134.112C1131.67 135.024 1132.56 136.536 1132.99 137.376L1131.07 138.192C1130.57 137.208 1129.8 135.792 1129.15 134.904L1131.05 134.112ZM1130.35 140.472C1130.09 140.952 1129.75 141.6 1129.56 142.2C1128.91 144.336 1127.54 147.552 1125.38 150.216C1123.1 153 1120.2 155.208 1115.69 156.984L1112.85 154.464C1117.77 152.976 1120.44 150.888 1122.53 148.512C1124.16 146.64 1125.55 143.76 1125.93 141.984H1117.85L1118.95 139.248C1120.03 139.248 1125.05 139.248 1125.81 139.248C1126.56 139.248 1127.35 139.152 1127.9 138.96L1130.35 140.472ZM1122.53 136.68C1121.97 137.52 1121.35 138.624 1121.06 139.128C1119.45 142.032 1116.57 145.416 1113.14 147.768L1110.43 145.776C1114.65 143.208 1116.74 140.112 1117.94 138.048C1118.3 137.472 1118.81 136.344 1119.02 135.528L1122.53 136.68Z" fill="white"/>
<path d="M1091.31 136.608C1092.96 137.736 1096.08 140.232 1097.5 141.696L1095.05 144.192C1093.8 142.848 1090.78 140.232 1089.03 139.032L1091.31 136.608ZM1088.28 152.592C1092.05 152.064 1095.15 150.84 1097.47 149.472C1101.58 147.024 1104.7 143.376 1106.23 140.136L1108.08 143.496C1106.28 146.76 1103.09 150.072 1099.23 152.4C1096.78 153.864 1093.68 155.184 1090.32 155.76L1088.28 152.592Z" fill="white"/>
<path d="M1068.33 136.056C1071.5 136.44 1078.41 137.856 1081.44 138.912L1080.21 141.888C1077.4 140.856 1070.61 139.344 1067.23 138.912L1068.33 136.056ZM1067.25 142.512C1070.68 143.088 1076.78 144.408 1079.78 145.44L1078.6 148.44C1075.87 147.384 1069.7 145.992 1066.12 145.416L1067.25 142.512ZM1066 149.4C1070.13 150.024 1077.5 151.752 1080.81 152.976L1079.49 155.976C1076.25 154.656 1068.64 153 1064.8 152.4L1066 149.4Z" fill="white"/>
<path d="M1042.87 136.44C1043.52 136.536 1044.55 136.584 1045.37 136.584C1046.88 136.584 1053.19 136.584 1054.58 136.584C1055.35 136.584 1056.53 136.536 1057.18 136.44V139.56C1056.55 139.512 1055.42 139.464 1054.54 139.464C1053.22 139.464 1046.78 139.464 1045.37 139.464C1044.58 139.464 1043.57 139.488 1042.87 139.56V136.44ZM1059.22 143.424C1059.05 143.736 1058.83 144.168 1058.76 144.408C1058.02 146.736 1056.98 149.088 1055.21 151.056C1052.78 153.768 1049.71 155.376 1046.64 156.264L1044.24 153.552C1047.86 152.784 1050.72 151.224 1052.57 149.328C1053.84 148.032 1054.61 146.52 1055.02 145.2C1053.82 145.2 1045.58 145.2 1043.45 145.2C1042.85 145.2 1041.65 145.224 1040.64 145.296V142.176C1041.67 142.272 1042.68 142.344 1043.45 142.344C1045.08 142.344 1053.67 142.344 1055.3 142.344C1056.1 142.344 1056.74 142.248 1057.08 142.08L1059.22 143.424Z" fill="white"/>
<path d="M1032.21 135.192C1032.81 136.08 1033.65 137.592 1034.11 138.48L1032.19 139.32C1031.69 138.336 1030.94 136.896 1030.29 135.984L1032.21 135.192ZM1035.05 134.112C1035.67 135.024 1036.56 136.536 1036.99 137.376L1035.07 138.192C1034.57 137.208 1033.8 135.792 1033.15 134.904L1035.05 134.112ZM1034.35 140.472C1034.09 140.952 1033.75 141.6 1033.56 142.2C1032.91 144.336 1031.54 147.552 1029.38 150.216C1027.1 153 1024.2 155.208 1019.69 156.984L1016.85 154.464C1021.77 152.976 1024.44 150.888 1026.53 148.512C1028.16 146.64 1029.55 143.76 1029.93 141.984H1021.85L1022.95 139.248C1024.03 139.248 1029.05 139.248 1029.81 139.248C1030.56 139.248 1031.35 139.152 1031.9 138.96L1034.35 140.472ZM1026.53 136.68C1025.97 137.52 1025.35 138.624 1025.06 139.128C1023.45 142.032 1020.57 145.416 1017.14 147.768L1014.43 145.776C1018.65 143.208 1020.74 140.112 1021.94 138.048C1022.3 137.472 1022.81 136.344 1023.02 135.528L1026.53 136.68Z" fill="white"/>
<path d="M992.54 137.832C993.5 137.856 994.412 137.88 995.06 137.88C996.812 137.88 1006.56 137.88 1008.28 137.88C1008.88 137.88 1009.77 137.88 1010.66 137.856C1010.61 138.576 1010.61 139.44 1010.61 140.184C1010.61 141.648 1010.61 150.48 1010.61 151.944C1010.61 152.88 1010.64 155.184 1010.66 155.28H1007.32C1007.32 155.184 1007.4 153.312 1007.4 151.992C1007.4 150.6 1007.4 140.952 1007.4 140.952H995.78C995.78 140.952 995.78 150.576 995.78 151.992C995.78 153.144 995.804 155.16 995.804 155.28H992.516C992.516 155.16 992.564 153.048 992.564 151.896C992.564 150.456 992.564 141.576 992.564 140.184C992.564 139.488 992.564 138.528 992.54 137.832ZM1008.57 150.912V153.96H994.148V150.912H1008.57Z" fill="white"/>
<path d="M984.792 137.256C984.792 138.024 985.416 138.648 986.184 138.648C986.952 138.648 987.576 138.024 987.576 137.256C987.576 136.488 986.952 135.864 986.184 135.864C985.416 135.864 984.792 136.488 984.792 137.256ZM983.304 137.256C983.304 135.672 984.6 134.376 986.184 134.376C987.768 134.376 989.064 135.672 989.064 137.256C989.064 138.84 987.768 140.136 986.184 140.136C984.6 140.136 983.304 138.84 983.304 137.256ZM986.232 139.152C985.992 139.608 985.824 140.304 985.704 140.808C985.152 143.16 984.096 146.904 982.08 149.568C979.92 152.448 976.728 154.824 972.432 156.192L969.816 153.312C974.592 152.208 977.304 150.12 979.224 147.696C980.832 145.704 981.744 142.968 982.056 140.904C980.592 140.904 972.672 140.904 970.872 140.904C969.768 140.904 968.64 140.976 968.016 141.024V137.616C968.736 137.712 970.08 137.832 970.872 137.832C972.672 137.832 980.64 137.832 981.984 137.832C982.464 137.832 983.232 137.808 983.856 137.64L986.232 139.152Z" fill="white"/>
<path d="M1126.78 94.6401C1127.38 95.5521 1128.18 96.9201 1128.61 97.8081L1126.62 98.6481C1126.14 97.6401 1125.42 96.4161 1124.79 95.4561L1126.78 94.6401ZM1130.12 94.0161C1130.74 94.9041 1131.58 96.3441 1132.04 97.2081L1130.05 98.0481C1129.54 97.0641 1128.8 95.7201 1128.13 94.8321L1130.12 94.0161ZM1129.26 99.1521C1129.04 99.6081 1128.85 100.304 1128.73 100.808C1128.18 103.16 1127.12 106.904 1125.13 109.568C1122.94 112.448 1119.75 114.824 1115.48 116.192L1112.86 113.312C1117.62 112.208 1120.33 110.12 1122.25 107.696C1123.86 105.704 1124.77 102.968 1125.08 100.904C1123.64 100.904 1115.7 100.904 1113.9 100.904C1112.82 100.904 1111.66 100.976 1111.04 101.024V97.6161C1111.76 97.7121 1113.1 97.8321 1113.9 97.8321C1115.7 97.8321 1123.66 97.8321 1125.01 97.8321C1125.49 97.8321 1126.26 97.8081 1126.88 97.6401L1129.26 99.1521Z" fill="white"/>
<path d="M1087.12 108.032C1090.26 107.336 1093.81 105.728 1095.71 104.576C1098.06 103.16 1100.46 101.024 1101.71 99.4641L1104.09 101.792C1102.65 103.352 1099.74 105.608 1097.13 107.144C1094.97 108.416 1091.27 110.024 1088.53 110.84L1087.12 108.032ZM1095.45 106.472L1098.71 105.848V114.368C1098.71 115.232 1098.73 116.504 1098.88 116.984H1095.3C1095.37 116.504 1095.45 115.232 1095.45 114.368V106.472Z" fill="white"/>
<path d="M1066.82 96.4641C1067.59 96.5601 1068.58 96.6321 1069.39 96.6321C1070.9 96.6321 1077.62 96.6321 1079.04 96.6321C1079.83 96.6321 1080.79 96.5601 1081.61 96.4641V99.5601C1080.79 99.5121 1079.86 99.4641 1079.04 99.4641C1077.62 99.4641 1070.9 99.4641 1069.39 99.4641C1068.58 99.4641 1067.54 99.5121 1066.82 99.5601V96.4641ZM1064.02 102.584C1064.74 102.68 1065.58 102.728 1066.32 102.728C1067.83 102.728 1080.62 102.728 1082.04 102.728C1082.54 102.728 1083.6 102.704 1084.25 102.584V105.704C1083.62 105.68 1082.71 105.656 1082.04 105.656C1080.62 105.656 1067.83 105.656 1066.32 105.656C1065.62 105.656 1064.69 105.68 1064.02 105.728V102.584ZM1076.3 104.264C1076.3 107.408 1075.75 109.808 1074.72 111.8C1073.9 113.48 1072.03 115.328 1069.92 116.432L1067.09 114.392C1068.79 113.72 1070.5 112.352 1071.43 110.936C1072.63 109.112 1072.97 106.856 1072.97 104.288L1076.3 104.264Z" fill="white"/>
<path d="M1039.95 105.536C1044.25 104.432 1047.75 102.872 1050.44 101.216C1052.89 99.7042 1055.63 97.3042 1057.19 95.4082L1059.78 97.8562C1057.59 100.064 1054.67 102.32 1051.83 104.024C1049.12 105.632 1045.23 107.432 1041.44 108.56L1039.95 105.536ZM1049.94 102.776L1053.35 101.96V112.784C1053.35 113.84 1053.39 115.328 1053.56 115.928H1049.75C1049.84 115.352 1049.94 113.84 1049.94 112.784V102.776Z" fill="white"/>
<path d="M1017.78 98.0962C1018.4 98.1922 1019.41 98.2642 1020.06 98.2642H1033.14C1033.86 98.2642 1034.7 98.1922 1035.37 98.0962V101.408C1034.67 101.336 1033.83 101.288 1033.14 101.288H1020.06C1019.41 101.288 1018.4 101.336 1017.78 101.408V98.0962ZM1024.71 112.88V99.9442H1028.05V112.88H1024.71ZM1016.24 110.912C1017.01 111.032 1017.87 111.104 1018.59 111.104H1034.43C1035.27 111.104 1036.04 110.984 1036.67 110.912V114.368C1035.99 114.296 1034.99 114.272 1034.43 114.272H1018.59C1017.9 114.272 1017.03 114.296 1016.24 114.368V110.912Z" fill="white"/>
<path d="M1009.72 96.2241C1009.67 96.8961 1009.65 97.6641 1009.65 98.6481C1009.65 99.8721 1009.65 102.2 1009.65 103.376C1009.65 108.56 1008.64 110.768 1006.84 112.736C1005.25 114.488 1002.78 115.64 1001.03 116.216L998.51 113.552C1000.91 113 1002.83 112.088 1004.29 110.528C1005.93 108.728 1006.26 106.928 1006.26 103.184C1006.26 101.984 1006.26 99.6801 1006.26 98.6481C1006.26 97.6641 1006.19 96.8961 1006.09 96.2241H1009.72ZM998.606 96.4401C998.558 96.9921 998.51 97.5201 998.51 98.2641C998.51 99.3201 998.51 105.032 998.51 106.376C998.51 106.976 998.558 107.912 998.606 108.464H995.102C995.15 108.032 995.222 107.096 995.222 106.352C995.222 104.984 995.222 99.3201 995.222 98.2641C995.222 97.8321 995.198 96.9921 995.126 96.4401H998.606Z" fill="white"/>
<path d="M988.045 99.9441C987.781 100.4 987.445 101.048 987.253 101.648C986.605 103.808 985.237 107 983.053 109.664C980.773 112.448 977.893 114.656 973.381 116.432L970.549 113.912C975.445 112.424 978.109 110.336 980.221 107.96C981.853 106.088 983.245 103.208 983.629 101.432H975.541L976.645 98.6961C977.701 98.6961 982.741 98.6961 983.485 98.6961C984.229 98.6961 985.045 98.6001 985.573 98.4081L988.045 99.9441ZM980.221 96.1281C979.645 96.9681 979.021 98.0721 978.757 98.5761C977.125 101.48 974.269 104.864 970.813 107.216L968.125 105.224C972.325 102.656 974.437 99.5601 975.613 97.4961C975.973 96.9201 976.477 95.8161 976.693 94.9761L980.221 96.1281Z" fill="white"/>
<circle cx="1128.5" cy="45.583" r="44.3247" fill="white" stroke="#EE242C" stroke-width="2.35055"/>
<path d="M1145.36 65.9607V53.7029H1147.11L1152.66 62.4128H1152.69V53.7029H1154.55V65.9607H1152.79L1147.25 57.2508H1147.22V65.9607H1145.36Z" fill="#EE242C"/>
<path d="M1132.54 59.8319C1132.54 58.4082 1132.58 57.4554 1132.67 56.9734C1132.75 56.4914 1132.89 56.1018 1133.08 55.8048C1133.37 55.2387 1133.85 54.7342 1134.51 54.2914C1135.15 53.8431 1135.96 53.6133 1136.92 53.6021C1137.89 53.6133 1138.71 53.8431 1139.36 54.2914C1140 54.7342 1140.47 55.2387 1140.75 55.8048C1140.96 56.1018 1141.1 56.4914 1141.18 56.9734C1141.25 57.4554 1141.29 58.4082 1141.29 59.8319C1141.29 61.2331 1141.25 62.1803 1141.18 62.6735C1141.1 63.1668 1140.96 63.5619 1140.75 63.859C1140.47 64.4251 1140 64.9239 1139.36 65.3555C1138.71 65.8038 1137.89 66.0393 1136.92 66.0617C1135.96 66.0393 1135.15 65.8038 1134.51 65.3555C1133.85 64.9239 1133.37 64.4251 1133.08 63.859C1132.99 63.674 1132.91 63.4974 1132.83 63.3293C1132.77 63.1556 1132.71 62.937 1132.67 62.6735C1132.58 62.1803 1132.54 61.2331 1132.54 59.8319ZM1134.41 59.8319C1134.41 61.0369 1134.45 61.8524 1134.54 62.2784C1134.62 62.7044 1134.78 63.0491 1135.02 63.3125C1135.22 63.5647 1135.47 63.7693 1135.79 63.9262C1136.11 64.1112 1136.48 64.2037 1136.92 64.2037C1137.36 64.2037 1137.75 64.1112 1138.07 63.9262C1138.38 63.7693 1138.63 63.5647 1138.81 63.3125C1139.05 63.0491 1139.22 62.7044 1139.31 62.2784C1139.39 61.8524 1139.43 61.0369 1139.43 59.8319C1139.43 58.6268 1139.39 57.8057 1139.31 57.3685C1139.22 56.9538 1139.05 56.6147 1138.81 56.3512C1138.63 56.099 1138.38 55.8888 1138.07 55.7207C1137.75 55.5581 1137.36 55.4713 1136.92 55.4601C1136.48 55.4713 1136.11 55.5581 1135.79 55.7207C1135.47 55.8888 1135.22 56.099 1135.02 56.3512C1134.78 56.6147 1134.62 56.9538 1134.54 57.3685C1134.45 57.8057 1134.41 58.6268 1134.41 59.8319Z" fill="#EE242C"/>
<path d="M1120.13 59.8319C1120.13 58.4082 1120.17 57.4554 1120.26 56.9734C1120.35 56.4914 1120.49 56.1018 1120.67 55.8048C1120.97 55.2387 1121.44 54.7342 1122.1 54.2914C1122.74 53.8431 1123.55 53.6133 1124.51 53.6021C1125.49 53.6133 1126.3 53.8431 1126.95 54.2914C1127.6 54.7342 1128.06 55.2387 1128.35 55.8048C1128.55 56.1018 1128.7 56.4914 1128.78 56.9734C1128.85 57.4554 1128.88 58.4082 1128.88 59.8319C1128.88 61.2331 1128.85 62.1803 1128.78 62.6735C1128.7 63.1668 1128.55 63.5619 1128.35 63.859C1128.06 64.4251 1127.6 64.9239 1126.95 65.3555C1126.3 65.8038 1125.49 66.0393 1124.51 66.0617C1123.55 66.0393 1122.74 65.8038 1122.1 65.3555C1121.44 64.9239 1120.97 64.4251 1120.67 63.859C1120.58 63.674 1120.5 63.4974 1120.43 63.3293C1120.36 63.1556 1120.3 62.937 1120.26 62.6735C1120.17 62.1803 1120.13 61.2331 1120.13 59.8319ZM1122 59.8319C1122 61.0369 1122.04 61.8524 1122.13 62.2784C1122.21 62.7044 1122.37 63.0491 1122.61 63.3125C1122.81 63.5647 1123.07 63.7693 1123.39 63.9262C1123.7 64.1112 1124.08 64.2037 1124.51 64.2037C1124.96 64.2037 1125.34 64.1112 1125.66 63.9262C1125.97 63.7693 1126.22 63.5647 1126.4 63.3125C1126.65 63.0491 1126.81 62.7044 1126.9 62.2784C1126.98 61.8524 1127.03 61.0369 1127.03 59.8319C1127.03 58.6268 1126.98 57.8057 1126.9 57.3685C1126.81 56.9538 1126.65 56.6147 1126.4 56.3512C1126.22 56.099 1125.97 55.8888 1125.66 55.7207C1125.34 55.5581 1124.96 55.4713 1124.51 55.4601C1124.08 55.4713 1123.7 55.5581 1123.39 55.7207C1123.07 55.8888 1122.81 56.099 1122.61 56.3512C1122.37 56.6147 1122.21 56.9538 1122.13 57.3685C1122.04 57.8057 1122 58.6268 1122 59.8319Z" fill="#EE242C"/>
<path d="M1108.93 62.9846C1109.91 63.7861 1111.07 64.1925 1112.41 64.2037C1114 64.1812 1114.81 63.6123 1114.83 62.497C1114.84 61.5834 1114.31 61.0341 1113.23 60.8491C1112.74 60.7819 1112.2 60.7062 1111.61 60.6221C1110.56 60.4484 1109.76 60.0589 1109.21 59.4535C1108.64 58.8314 1108.36 58.0747 1108.36 57.1836C1108.36 56.113 1108.71 55.2499 1109.43 54.5941C1110.12 53.9439 1111.09 53.6133 1112.36 53.6021C1113.88 53.6357 1115.21 54.0588 1116.34 54.8716L1115.3 56.4017C1114.38 55.7964 1113.37 55.4825 1112.27 55.4601C1111.7 55.4601 1111.22 55.603 1110.84 55.8888C1110.44 56.1859 1110.24 56.6287 1110.22 57.2172C1110.22 57.5703 1110.36 57.8898 1110.64 58.1756C1110.91 58.4671 1111.35 58.6689 1111.96 58.7809C1112.29 58.837 1112.75 58.9015 1113.34 58.9743C1114.48 59.1313 1115.33 59.5432 1115.88 60.2102C1116.43 60.866 1116.7 61.6282 1116.7 62.497C1116.64 64.8398 1115.2 66.028 1112.39 66.0617C1110.58 66.0617 1109.02 65.5012 1107.71 64.3802L1108.93 62.9846Z" fill="#EE242C"/>
<path d="M1158.08 39.9668V38.2097H1162.44V40.7067C1162.42 41.9342 1162 42.9627 1161.18 43.7922C1160.35 44.6161 1159.32 45.0393 1158.07 45.0617C1157.1 45.0393 1156.3 44.8039 1155.65 44.3555C1155 43.9239 1154.52 43.4251 1154.23 42.859C1154.14 42.674 1154.05 42.4974 1153.98 42.3293C1153.91 42.1556 1153.86 41.937 1153.81 41.6735C1153.73 41.1803 1153.69 40.2331 1153.69 38.8319C1153.69 37.4082 1153.73 36.4554 1153.81 35.9734C1153.9 35.4914 1154.04 35.1018 1154.23 34.8048C1154.52 34.2387 1155 33.7342 1155.65 33.2914C1156.3 32.8431 1157.1 32.6133 1158.07 32.6021C1159.25 32.6133 1160.21 32.9636 1160.96 33.653C1161.71 34.348 1162.18 35.2083 1162.37 36.234H1160.4C1160.25 35.7408 1159.98 35.3204 1159.58 34.9729C1159.17 34.6422 1158.66 34.4713 1158.07 34.4601C1157.63 34.4713 1157.26 34.5582 1156.94 34.7207C1156.62 34.8888 1156.36 35.099 1156.17 35.3512C1155.93 35.6147 1155.77 35.9538 1155.69 36.3685C1155.6 36.8057 1155.55 37.6268 1155.55 38.8319C1155.55 40.0369 1155.6 40.8524 1155.69 41.2784C1155.77 41.7044 1155.93 42.0491 1156.17 42.3125C1156.36 42.5647 1156.62 42.7693 1156.94 42.9262C1157.26 43.1112 1157.63 43.2037 1158.07 43.2037C1158.79 43.2037 1159.39 42.957 1159.86 42.4638C1160.33 41.993 1160.57 41.3737 1160.58 40.6058V39.9668H1158.08Z" fill="#EE242C"/>
<path d="M1140.43 44.9607V32.7029H1142.18L1147.73 41.4128H1147.76V32.7029H1149.62V44.9607H1147.86L1142.32 36.2508H1142.29V44.9607H1140.43Z" fill="#EE242C"/>
<path d="M1134.09 44.9607V32.7029H1135.95V44.9607H1134.09Z" fill="#EE242C"/>
<path d="M1119.16 44.9607V32.7029H1120.9L1124.42 40.6898L1127.87 32.7029H1129.62V44.9607H1127.77V37.3185H1127.72L1125.16 43.2036H1123.61L1121.05 37.3185H1121.01V44.9607H1119.16Z" fill="#EE242C"/>
<path d="M1106.33 38.8319C1106.33 37.4082 1106.37 36.4554 1106.45 35.9734C1106.54 35.4914 1106.68 35.1018 1106.87 34.8048C1107.16 34.2387 1107.64 33.7342 1108.3 33.2914C1108.94 32.8431 1109.74 32.6133 1110.71 32.6021C1111.68 32.6133 1112.5 32.8431 1113.15 33.2914C1113.79 33.7342 1114.26 34.2387 1114.54 34.8048C1114.75 35.1018 1114.89 35.4914 1114.97 35.9734C1115.04 36.4554 1115.08 37.4082 1115.08 38.8319C1115.08 40.2331 1115.04 41.1803 1114.97 41.6735C1114.89 42.1668 1114.75 42.5619 1114.54 42.859C1114.26 43.4251 1113.79 43.9239 1113.15 44.3555C1112.5 44.8039 1111.68 45.0393 1110.71 45.0617C1109.74 45.0393 1108.94 44.8039 1108.3 44.3555C1107.64 43.9239 1107.16 43.4251 1106.87 42.859C1106.78 42.674 1106.7 42.4974 1106.62 42.3293C1106.56 42.1556 1106.5 41.937 1106.45 41.6735C1106.37 41.1803 1106.33 40.2331 1106.33 38.8319ZM1108.19 38.8319C1108.19 40.0369 1108.24 40.8524 1108.33 41.2784C1108.41 41.7044 1108.57 42.0491 1108.81 42.3125C1109 42.5647 1109.26 42.7693 1109.58 42.9262C1109.9 43.1112 1110.27 43.2037 1110.71 43.2037C1111.15 43.2037 1111.54 43.1112 1111.86 42.9262C1112.17 42.7693 1112.42 42.5647 1112.6 42.3125C1112.84 42.0491 1113.01 41.7044 1113.1 41.2784C1113.18 40.8524 1113.22 40.0369 1113.22 38.8319C1113.22 37.6268 1113.18 36.8057 1113.1 36.3685C1113.01 35.9538 1112.84 35.6147 1112.6 35.3512C1112.42 35.099 1112.17 34.8888 1111.86 34.7207C1111.54 34.5582 1111.15 34.4713 1110.71 34.4601C1110.27 34.4713 1109.9 34.5582 1109.58 34.7207C1109.26 34.8888 1109 35.099 1108.81 35.3512C1108.57 35.6147 1108.41 35.9538 1108.33 36.3685C1108.24 36.8057 1108.19 37.6268 1108.19 38.8319Z" fill="#EE242C"/>
<path d="M1101.57 41.5306H1103.54C1103.27 42.6684 1102.75 43.5428 1102 44.1537C1101.22 44.759 1100.3 45.0617 1099.23 45.0617C1098.27 45.0393 1097.46 44.8039 1096.82 44.3555C1096.16 43.9239 1095.69 43.4251 1095.39 42.859C1095.3 42.674 1095.22 42.4974 1095.15 42.3293C1095.08 42.1556 1095.02 41.937 1094.98 41.6735C1094.89 41.1803 1094.85 40.2331 1094.85 38.8319C1094.85 37.4082 1094.89 36.4554 1094.98 35.9734C1095.07 35.4914 1095.2 35.1018 1095.39 34.8048C1095.69 34.2387 1096.16 33.7342 1096.82 33.2914C1097.46 32.8431 1098.27 32.6133 1099.23 32.6021C1100.41 32.6133 1101.38 32.9636 1102.12 33.653C1102.87 34.348 1103.34 35.2083 1103.54 36.234H1101.57C1101.42 35.7408 1101.14 35.3204 1100.75 34.9729C1100.33 34.6422 1099.83 34.4713 1099.23 34.4601C1098.79 34.4713 1098.42 34.5582 1098.11 34.7207C1097.79 34.8888 1097.53 35.099 1097.33 35.3512C1097.09 35.6147 1096.93 35.9538 1096.85 36.3685C1096.76 36.8057 1096.72 37.6268 1096.72 38.8319C1096.72 40.0369 1096.76 40.8524 1096.85 41.2784C1096.93 41.7044 1097.09 42.0491 1097.33 42.3125C1097.53 42.5647 1097.79 42.7693 1098.11 42.9262C1098.42 43.1112 1098.79 43.2037 1099.23 43.2037C1100.27 43.2037 1101.05 42.646 1101.57 41.5306Z" fill="#EE242C"/>
</svg>
