<svg width="463" height="70" viewBox="0 0 463 70" fill="none" xmlns="http://www.w3.org/2000/svg">
<g clip-path="url(#clip0_22_27864)">
<g filter="url(#filter0_d_22_27864)">
<path d="M242.345 45.3991H301.948V52.5754H242.345V45.3991ZM242.478 15.4313H301.683V22.6076H242.478V15.4313ZM245.202 27.4583H299.091V34.3023H245.202V27.4583ZM248.525 36.6945H296.035V43.007H248.525V36.6945ZM267.529 30.98H276.3V67.5925H267.529V30.98ZM261.881 4.79968H270.054V18.8201H261.881V4.79968ZM274.107 4.79968H282.413V18.2885H274.107V4.79968ZM266.133 48.655L273.044 51.778C270.917 54.0815 268.392 56.2078 265.469 58.157C262.545 60.1061 259.422 61.8337 256.1 63.3399C252.777 64.846 249.366 66.0421 245.867 66.928C245.468 66.175 244.937 65.3333 244.272 64.403C243.652 63.5171 242.987 62.6311 242.279 61.7451C241.57 60.9035 240.883 60.1725 240.219 59.5524C243.585 58.9322 246.908 58.0905 250.186 57.0274C253.464 55.9199 256.476 54.6574 259.223 53.2399C262.014 51.778 264.317 50.2497 266.133 48.655ZM277.894 48.4557C279.223 49.696 280.818 50.8921 282.679 52.0438C284.539 53.1513 286.599 54.148 288.858 55.0339C291.162 55.9199 293.554 56.6951 296.035 57.3596C298.56 58.0241 301.151 58.5557 303.809 58.9543C303.144 59.6188 302.436 60.4162 301.683 61.3465C300.93 62.2767 300.199 63.2291 299.49 64.2037C298.825 65.2226 298.272 66.1307 297.829 66.928C295.171 66.2636 292.579 65.4219 290.054 64.403C287.529 63.4285 285.115 62.2767 282.812 60.9478C280.508 59.5745 278.36 58.0684 276.366 56.4293C274.373 54.7903 272.601 53.0405 271.05 51.18L277.894 48.4557ZM289.323 5.26482L298.626 7.39113C297.519 9.20736 296.433 10.9571 295.37 12.6405C294.351 14.3238 293.399 15.7635 292.513 16.9596L285.403 14.7668C285.89 13.8808 286.378 12.8841 286.865 11.7767C287.396 10.6692 287.862 9.5396 288.26 8.38785C288.703 7.23609 289.058 6.19508 289.323 5.26482ZM280.619 19.551L289.988 21.6773C289.058 23.3164 288.172 24.8447 287.33 26.2622C286.488 27.6798 285.713 28.898 285.004 29.9168L277.496 27.8569C278.072 26.6166 278.648 25.2433 279.223 23.7372C279.799 22.1868 280.264 20.7914 280.619 19.551ZM247.063 7.59047L254.638 4.99903C255.568 6.41657 256.498 8.01131 257.429 9.78324C258.403 11.5109 259.112 13.017 259.555 14.3017L251.515 17.1589C251.205 15.8743 250.607 14.346 249.721 12.574C248.835 10.7578 247.949 9.09662 247.063 7.59047ZM255.435 22.6076L264.007 21.2786C264.539 22.1646 265.07 23.1835 265.602 24.3352C266.133 25.4427 266.51 26.4172 266.731 27.2589L257.761 28.7872C257.539 27.9898 257.207 26.9931 256.764 25.7971C256.321 24.601 255.878 23.5379 255.435 22.6076Z" fill="#B6D43E"/>
</g>
<g filter="url(#filter1_d_22_27864)">
<path d="M219.488 5.1984L224.604 11.6438C222.035 12.2197 219.244 12.7291 216.232 13.1721C213.264 13.5708 210.185 13.9473 206.996 14.3017C203.806 14.6561 200.617 14.944 197.427 15.1655C194.238 15.3427 191.159 15.4978 188.191 15.6307C188.102 14.7004 187.837 13.5929 187.394 12.3083C186.995 11.0236 186.596 9.96047 186.198 9.1188C189.121 8.98591 192.111 8.80872 195.168 8.58722C198.225 8.32143 201.215 8.01135 204.138 7.65696C207.062 7.30257 209.831 6.92604 212.444 6.52735C215.058 6.08437 217.406 5.64139 219.488 5.1984ZM188.191 17.6241L194.836 15.4978C195.589 16.7381 196.32 18.1557 197.029 19.7504C197.782 21.3008 198.313 22.6298 198.623 23.7372L191.646 26.1958C191.38 25.044 190.915 23.6708 190.251 22.0761C189.586 20.437 188.9 18.953 188.191 17.6241ZM200.882 16.2287L207.727 14.7004C208.214 16.0293 208.723 17.4912 209.255 19.0859C209.831 20.6807 210.229 22.0318 210.451 23.1392L203.275 24.9997C203.097 23.8923 202.765 22.4969 202.278 20.8136C201.835 19.1302 201.37 17.6019 200.882 16.2287ZM216.631 13.7701L224.804 16.0958C223.608 18.3993 222.389 20.6807 221.149 22.9399C219.953 25.1991 218.823 27.1039 217.76 28.6544L211.315 26.4616C211.979 25.3098 212.644 24.003 213.308 22.5412C213.973 21.035 214.593 19.5289 215.169 18.0228C215.789 16.4723 216.276 15.0548 216.631 13.7701ZM185.4 25.4649H226.199V36.4287H218.092V32.6412H193.175V36.3623H185.4V25.4649ZM188.922 37.7576H217.162V44.8675H188.922V37.7576ZM214.438 37.7576H216.032L217.428 37.4254L222.544 39.4188C221.26 43.6272 219.488 47.3039 217.229 50.4491C215.014 53.5943 212.356 56.2743 209.255 58.4893C206.154 60.7042 202.699 62.5204 198.889 63.9379C195.124 65.3998 191.048 66.5737 186.663 67.4597C186.441 66.7509 186.109 65.9092 185.666 64.9346C185.267 63.9601 184.802 63.0077 184.271 62.0774C183.783 61.1471 183.296 60.3719 182.809 59.7517C186.796 59.2202 190.495 58.4007 193.905 57.2932C197.361 56.1857 200.462 54.7903 203.208 53.107C205.955 51.3794 208.258 49.3417 210.119 46.9938C212.024 44.6017 213.463 41.8552 214.438 38.7544V37.7576ZM197.759 43.8708C200.107 48.2563 203.695 51.8002 208.524 54.5024C213.397 57.2046 219.355 59.043 226.398 60.0175C225.778 60.5491 225.136 61.28 224.471 62.2103C223.807 63.1406 223.165 64.0708 222.544 65.0011C221.968 65.9314 221.503 66.7952 221.149 67.5925C213.53 66.1307 207.217 63.6278 202.211 60.084C197.25 56.5401 193.263 51.8224 190.251 45.9307L197.759 43.8708ZM163.605 38.0234C166.263 37.4476 169.453 36.6945 173.174 35.7642C176.895 34.834 180.638 33.8815 184.404 32.907L185.533 40.8142C182.122 41.7888 178.667 42.7855 175.167 43.8044C171.668 44.7789 168.434 45.6649 165.466 46.4623L163.605 38.0234ZM164.469 17.2254H184.869V25.332H164.469V17.2254ZM171.247 4.93262H179.354V58.4228C179.354 60.3719 179.154 61.9445 178.755 63.1406C178.357 64.3366 177.626 65.289 176.563 65.9978C175.5 66.6623 174.193 67.1053 172.642 67.3268C171.136 67.5483 169.276 67.659 167.061 67.659C167.016 66.5958 166.773 65.2447 166.33 63.6057C165.887 62.011 165.4 60.6377 164.868 59.486C166.02 59.5303 167.083 59.5746 168.057 59.6189C169.076 59.6189 169.785 59.5967 170.184 59.5524C170.582 59.5524 170.848 59.486 170.981 59.3531C171.158 59.2202 171.247 58.9101 171.247 58.4228V4.93262Z" fill="#B6D43E"/>
</g>
<path d="M278.241 22.2578C277.726 23.6046 277.209 24.8443 276.694 25.9785H264.58L265.749 25.7793C265.527 24.9377 265.15 23.9628 264.619 22.8555C264.336 22.2417 264.052 21.6662 263.768 21.1279H278.651C278.521 21.495 278.384 21.8715 278.241 22.2578ZM269.071 3.32031H260.898V13.9521H255.393L258.572 12.8223C258.129 11.5377 257.421 10.0313 256.446 8.30371C255.516 6.53184 254.585 4.93704 253.655 3.51953L246.08 6.11133C246.966 7.61747 247.852 9.2785 248.738 11.0947C249.256 12.1302 249.674 13.0831 249.995 13.9521H241.496V21.1279H254.453C254.896 22.0581 255.339 23.1214 255.782 24.3174C256.006 24.9218 256.201 25.4759 256.368 25.9785H244.22V32.8232H266.546V35.2148H247.542V41.5273H266.546V43.9199H241.362V51.0957H259.463C259.066 51.3181 258.659 51.5413 258.24 51.7607C255.494 53.1782 252.481 54.4404 249.203 55.5479C245.925 56.611 242.603 57.4531 239.236 58.0732C239.901 58.6933 240.587 59.4241 241.296 60.2656C242.004 61.1516 242.67 62.0379 243.29 62.9238C243.788 63.6214 244.212 64.2692 244.56 64.8672L244.885 65.4482C248.384 64.5623 251.795 63.3664 255.117 61.8604C258.439 60.3542 261.562 58.6268 264.486 56.6777C265.196 56.2043 265.883 55.7199 266.546 55.2256V66.1133H275.317V54.8936C275.34 54.912 275.361 54.9317 275.384 54.9502C277.377 56.5892 279.525 58.0955 281.829 59.4688C284.132 60.7977 286.547 61.9493 289.072 62.9238C291.281 63.8153 293.541 64.5713 295.852 65.1914L296.846 65.4482C297.289 64.651 297.843 63.7432 298.508 62.7246C299.216 61.7501 299.947 60.7974 300.7 59.8672C301.453 58.9369 302.162 58.1391 302.826 57.4746C300.5 57.1258 298.226 56.6754 296.002 56.123L295.053 55.8799C292.572 55.2154 290.179 54.4406 287.876 53.5547C285.985 52.8132 284.234 51.9924 282.623 51.0957H300.966V43.9199H275.317V41.5273H295.053V35.2148H275.317V32.8232H298.108V25.9785H285.622C285.857 25.5969 286.1 25.1992 286.347 24.7832C287.028 23.6377 287.734 22.4181 288.472 21.1279H300.7V13.9521H292.609C293.178 13.1112 293.77 12.1809 294.388 11.1611C295.451 9.47789 296.536 7.72823 297.643 5.91211L288.341 3.78516C288.075 4.71531 287.721 5.7566 287.278 6.9082L286.967 7.76855C286.643 8.62382 286.281 9.46651 285.883 10.2969L285.516 11.1074C285.151 11.8962 284.786 12.6228 284.421 13.2871L286.576 13.9521H281.43V3.32031H273.125V13.9521H269.071V3.32031ZM284.557 5.25684C284.88 4.38693 285.138 3.61173 285.334 2.92676C285.79 1.32882 287.418 0.366997 289.038 0.737305L298.341 2.86328C299.321 3.08745 300.133 3.76977 300.524 4.69629C300.915 5.62293 300.837 6.68134 300.313 7.54004C299.63 8.66018 298.953 9.75423 298.286 10.8252H300.7C302.427 10.8252 303.827 12.2252 303.827 13.9521V21.1279C303.827 22.8497 302.435 24.2455 300.716 24.2539C301.043 24.7484 301.235 25.3408 301.235 25.9785V32.8232C301.235 34.5264 299.874 35.9106 298.179 35.9482V40.793H300.966C302.693 40.793 304.093 42.193 304.093 43.9199V51.0957C304.093 52.5603 303.086 53.7892 301.726 54.1289C302.245 54.2182 302.766 54.3042 303.29 54.3828C304.457 54.5579 305.427 55.3751 305.797 56.4961C306.166 57.6173 305.873 58.8518 305.038 59.6865C304.468 60.2562 303.833 60.968 303.131 61.835C302.43 62.7002 301.749 63.585 301.088 64.4912C300.469 65.442 299.969 66.2656 299.58 66.9668C298.893 68.2036 297.46 68.8256 296.088 68.4824C293.306 67.787 290.592 66.9052 287.946 65.8398V65.8408C285.273 64.8091 282.712 63.5879 280.266 62.1768C280.254 62.1694 280.241 62.1618 280.228 62.1543C279.624 61.794 279.029 61.4241 278.444 61.0459V66.1133C278.444 67.8402 277.044 69.2402 275.317 69.2402H266.546C264.819 69.24 263.419 67.84 263.419 66.1133V61.0439C261.18 62.3809 258.844 63.6038 256.408 64.708C252.919 66.2898 249.333 67.5486 245.652 68.4805C244.254 68.8343 242.796 68.1862 242.121 66.9121C241.805 66.3153 241.354 65.5939 240.745 64.7412C240.739 64.7331 240.733 64.7249 240.727 64.7168C240.156 63.9012 239.543 63.0818 238.886 62.2588C238.248 61.5033 237.653 60.8738 237.102 60.3594C236.239 59.5535 235.904 58.329 236.235 57.1953C236.567 56.0619 237.508 55.212 238.67 54.998C239.903 54.7709 241.129 54.5118 242.35 54.2227H241.362C239.635 54.2224 238.235 52.8225 238.235 51.0957V43.9199C238.235 42.1931 239.635 40.7932 241.362 40.793H244.415V35.9502H244.22C242.493 35.9501 241.093 34.55 241.093 32.8232V25.9785C241.093 25.3412 241.285 24.7492 241.612 24.2549H241.496C239.769 24.2549 238.369 22.8549 238.369 21.1279V13.9521C238.369 12.2252 239.769 10.8252 241.496 10.8252H245.102C244.525 9.70733 243.955 8.66384 243.386 7.69629C242.909 6.88668 242.822 5.90623 243.148 5.02539C243.475 4.14449 244.179 3.45641 245.068 3.15234L252.643 0.561523L252.898 0.485352C254.178 0.165397 255.535 0.685076 256.269 1.80371C256.773 2.5718 257.274 3.38357 257.771 4.2373V3.32031C257.771 1.59336 259.171 0.193359 260.898 0.193359H269.071C269.845 0.193359 270.551 0.476659 271.097 0.942383C271.644 0.476478 272.351 0.193359 273.125 0.193359H281.43C283.157 0.193427 284.557 1.59341 284.557 3.32031V5.25684Z" fill="#4D4D4D"/>
<path d="M215.046 36.2783H187.936V43.3877H193.141L189.264 44.4512C191.24 48.3158 193.635 51.6758 196.449 54.5303C195.317 54.9936 194.14 55.4221 192.919 55.8135C189.508 56.9209 185.809 57.7409 181.822 58.2725C182.31 58.8926 182.797 59.6676 183.284 60.5977C183.816 61.5278 184.28 62.4806 184.679 63.4551C185.011 64.1861 185.282 64.8424 185.489 65.4238L185.676 65.9805C189.787 65.1499 193.626 64.0662 197.193 62.7295L198.612 62.1885C200.271 61.5422 201.86 60.8176 203.381 60.0166C207.67 62.6176 212.792 64.5552 218.749 65.8271L220.162 66.1133C220.517 65.3159 220.982 64.4517 221.558 63.5215C222.178 62.5913 222.82 61.6607 223.485 60.7305C224.149 59.8004 224.791 59.0696 225.411 58.5381C219.995 57.7887 215.222 56.5257 211.09 54.7549C213.013 53.0424 214.732 51.115 216.242 48.9697C218.501 45.8246 220.273 42.1477 221.558 37.9395L216.442 35.9463L215.046 36.2783ZM181.493 43.4639V55.1602C184.933 54.6973 188.121 54.0135 191.065 53.1172C189.43 51.0164 187.967 48.7252 186.674 46.248C185.576 45.763 184.809 44.6656 184.809 43.3877V42.5127C183.708 42.8275 182.603 43.1445 181.493 43.4639ZM210.643 43.3877C210.176 44.125 209.674 44.8346 209.132 45.5146C207.638 47.3999 205.857 49.084 203.792 50.5693C201.125 48.5252 198.973 46.1313 197.337 43.3877H210.643ZM203.857 46.5303C203.863 46.5248 203.87 46.5201 203.876 46.5146H203.84C203.846 46.5199 203.851 46.5251 203.857 46.5303ZM199.896 14.749C200.383 16.1222 200.848 17.6507 201.291 19.334C201.778 21.0173 202.111 22.4131 202.288 23.5205L209.464 21.6602C209.243 20.5527 208.844 19.2012 208.268 17.6064C207.736 16.0118 207.227 14.5496 206.739 13.2207L199.896 14.749ZM211.289 15.3535C211.136 15.3724 210.982 15.3914 210.827 15.4102C210.895 15.6095 210.963 15.8111 211.031 16.0146C211.108 15.8184 211.186 15.623 211.261 15.4268C211.267 15.4119 211.273 15.3966 211.278 15.3818C211.282 15.3725 211.285 15.3629 211.289 15.3535ZM218.501 3.71875C216.419 4.16174 214.071 4.60487 211.457 5.04785C208.844 5.44651 206.075 5.82337 203.152 6.17773C200.228 6.53211 197.237 6.84164 194.181 7.10742L191.902 7.26562C189.634 7.41513 187.404 7.53998 185.211 7.63965C185.61 8.48127 186.009 9.54458 186.407 10.8291C186.85 12.1136 187.116 13.2212 187.204 14.1514C190.172 14.0185 193.251 13.8637 196.441 13.6865C199.63 13.465 202.819 13.1767 206.009 12.8223C209.198 12.4679 212.277 12.0911 215.245 11.6924C218.257 11.2494 221.048 10.7399 223.617 10.1641L218.501 3.71875ZM218.768 23.9854C219.222 23.1997 219.687 22.3584 220.162 21.4609C221.403 19.2017 222.621 16.9197 223.817 14.6162L215.644 12.291C215.289 13.5755 214.802 14.9928 214.182 16.543L213.741 17.6729C213.293 18.8024 212.82 19.932 212.321 21.0615C211.842 22.1171 211.361 23.0915 210.881 23.9854H192.735L197.637 22.2578C197.327 21.1505 196.795 19.8217 196.042 18.2715C195.333 16.6767 194.602 15.2589 193.849 14.0186L187.204 16.1445C187.913 17.4734 188.599 18.9577 189.264 20.5967L189.504 21.1846C189.917 22.2178 190.238 23.1517 190.471 23.9854H184.413V34.8828H192.188V31.1621H217.106V34.9492H225.212V23.9854H218.768ZM170.26 3.45312V15.7461H163.483V23.8525H170.26V34.7607C167.353 35.4746 164.806 36.07 162.618 36.5439L164.48 44.9824C166.306 44.4918 168.232 43.9659 170.26 43.4082V56.9434C170.26 57.4306 170.171 57.7411 169.994 57.874L169.939 57.9199C169.793 58.0218 169.546 58.0732 169.197 58.0732L168.84 58.1025C168.425 58.1275 167.835 58.1396 167.07 58.1396C166.096 58.0954 165.033 58.0511 163.881 58.0068C164.413 59.1585 164.9 60.5314 165.343 62.126C165.731 63.5602 165.966 64.7743 166.048 65.7676L166.074 66.1797C168.289 66.1797 170.149 66.0691 171.655 65.8477C173.012 65.6538 174.183 65.2899 175.166 64.7568L175.576 64.5186C176.639 63.8098 177.37 62.8571 177.769 61.6611C178.167 60.4651 178.366 58.8925 178.366 56.9434V41.1113C178.71 41.0119 179.054 40.9124 179.397 40.8135L184.546 39.335L183.417 31.4277C181.729 31.8646 180.045 32.2957 178.366 32.7236V23.8525H183.882V15.7461H178.366V3.45312H170.26ZM167.133 55.0107V47.502C166.508 47.6714 165.894 47.8408 165.29 48.0029C164.466 48.2243 163.586 48.0984 162.857 47.6553C162.127 47.2121 161.61 46.4901 161.426 45.6562L159.566 37.2178C159.387 36.4061 159.538 35.5562 159.986 34.8564C160.435 34.1568 161.144 33.6644 161.956 33.4883C163.495 33.1549 165.22 32.7568 167.133 32.2998V26.9795H163.483C161.756 26.9795 160.356 25.5795 160.356 23.8525V15.7461C160.356 14.0191 161.756 12.6191 163.483 12.6191H167.133V3.45312C167.133 1.72632 168.533 0.326338 170.26 0.326172H178.366C180.093 0.326172 181.493 1.72621 181.493 3.45312V12.6191H183.699C183.628 12.3786 183.545 12.122 183.45 11.8486C183.44 11.8179 183.43 11.7869 183.42 11.7559C183.048 10.556 182.7 9.64168 182.385 8.97754C181.937 8.03169 181.992 6.92417 182.531 6.02734C183.071 5.13069 184.023 4.56327 185.069 4.51562C187.949 4.38472 190.896 4.2112 193.91 3.99316C196.933 3.73031 199.888 3.42321 202.776 3.07324C205.653 2.72441 208.375 2.35556 210.94 1.96484C213.518 1.52771 215.821 1.09197 217.851 0.660156L218.069 0.62207C219.16 0.46943 220.258 0.902991 220.95 1.77441L226.067 8.2207C226.736 9.06371 226.924 10.1913 226.566 11.2061C226.421 11.6163 226.194 11.984 225.906 12.293C226.238 12.591 226.507 12.9586 226.688 13.3779C227.06 14.2402 227.025 15.2242 226.592 16.0576C225.755 17.6687 224.907 19.2686 224.049 20.8584H225.212C226.939 20.8584 228.339 22.2585 228.339 23.9854V34.9492C228.339 36.6762 226.939 38.0762 225.212 38.0762H224.679C224.667 38.3342 224.627 38.5949 224.548 38.8525C223.177 43.3428 221.265 47.3361 218.782 50.793C218.125 51.7246 217.43 52.6178 216.7 53.4756C219.463 54.3204 222.506 54.9792 225.84 55.4404C227.059 55.609 228.066 56.4768 228.412 57.6572C228.759 58.8376 228.381 60.1115 227.446 60.9121C227.077 61.2287 226.601 61.7491 226.029 62.5488C225.396 63.4354 224.783 64.3203 224.193 65.2051C223.685 66.0278 223.3 66.7525 223.02 67.3828C222.429 68.7113 221.001 69.4583 219.573 69.1846C213.408 68.0017 207.958 66.1446 203.278 63.5684C201.896 64.2328 200.467 64.8409 198.992 65.3896L198.991 65.3887C195.055 66.9138 190.821 68.1306 186.295 69.0449C184.725 69.3621 183.169 68.4419 182.692 66.9131C182.521 66.3681 182.243 65.6526 181.832 64.749C181.816 64.7129 181.8 64.6764 181.785 64.6396C181.492 63.9225 181.153 63.2183 180.775 62.5244C180.761 62.5663 180.749 62.6089 180.736 62.6504C180.114 64.5155 178.944 66.0313 177.311 67.1201C177.285 67.1371 177.259 67.1537 177.234 67.1699C175.724 68.1134 173.983 68.6715 172.11 68.9404L172.111 68.9414C172.109 68.9416 172.107 68.9412 172.106 68.9414C172.103 68.9418 172.1 68.943 172.098 68.9434L172.097 68.9424C170.392 69.1921 168.373 69.3066 166.074 69.3066C164.398 69.3066 163.019 67.9844 162.949 66.3096C162.919 65.5732 162.738 64.4728 162.324 62.9424H162.323C161.915 61.4737 161.483 60.2737 161.042 59.3174C160.586 58.3298 160.677 57.1753 161.28 56.2705C161.884 55.3661 162.914 54.8402 164.001 54.8818C165.128 54.9252 166.172 54.9673 167.133 55.0107Z" fill="#4D4D4D"/>
<g filter="url(#filter2_d_22_27864)">
<path d="M120.301 38.7055V44.1542H136.182V38.7055H120.301ZM113.191 32.4594H143.691V50.4002H113.191V32.4594ZM127.677 13.987C126.702 15.7147 125.44 17.5531 123.889 19.5022C122.383 21.407 120.678 23.2454 118.773 25.0173C116.868 26.7892 114.875 28.2954 112.793 29.5357C112.394 28.5169 111.796 27.3208 110.998 25.9476C110.245 24.53 109.514 23.3783 108.806 22.4923C110.888 21.2963 112.881 19.8123 114.786 18.0403C116.691 16.2241 118.396 14.2971 119.902 12.2594C121.453 10.1774 122.693 8.20611 123.623 6.34558H131.198C132.527 8.339 134.011 10.3103 135.65 12.2594C137.289 14.1642 139.039 15.8919 140.9 17.4423C142.805 18.9484 144.709 20.1666 146.614 21.0969C145.861 22.1158 145.086 23.3561 144.289 24.818C143.491 26.2355 142.805 27.5423 142.229 28.7384C140.368 27.5866 138.53 26.2134 136.714 24.6186C134.897 22.9796 133.192 21.2298 131.597 19.3693C130.047 17.5088 128.74 15.7147 127.677 13.987ZM124.288 25.6153H132.062V38.4397C132.062 41.1419 131.863 43.8884 131.464 46.6792C131.066 49.47 130.246 52.2386 129.006 54.9851C127.81 57.6873 126.038 60.2566 123.69 62.693C121.342 65.1294 118.175 67.3222 114.188 69.2713C113.834 68.6511 113.324 67.9424 112.66 67.145C112.039 66.3919 111.375 65.6388 110.666 64.8858C110.002 64.177 109.382 63.579 108.806 63.0917C112.261 61.497 115.007 59.725 117.045 57.7759C119.127 55.7825 120.678 53.7005 121.696 51.5298C122.76 49.3592 123.446 47.1443 123.756 44.8851C124.111 42.6259 124.288 40.4331 124.288 38.3068V25.6153ZM132.66 46.6792C133.812 50.0458 135.562 53.1024 137.91 55.8489C140.257 58.5954 143.07 60.6774 146.348 62.095C145.773 62.6266 145.13 63.291 144.421 64.0884C143.713 64.9301 143.026 65.7717 142.362 66.6134C141.697 67.4994 141.166 68.2967 140.767 69.0055C137.09 67.0121 134.056 64.1991 131.664 60.5667C129.271 56.9342 127.389 52.8588 126.016 48.3404L132.66 46.6792ZM117.843 22.6917H138.242V29.4028H117.843V22.6917ZM90.0675 18.8377H109.404V25.416H90.0675V18.8377ZM90.0675 28.8713H109.404V35.516H90.0675V28.8713ZM85.9477 38.9713H108.872V45.7489H85.9477V38.9713ZM97.1109 12.8574H104.021V42.7588H97.1109V12.8574ZM99.2372 48.6726L102.56 47.543C103.224 48.8719 103.822 50.3338 104.354 51.9285C104.93 53.479 105.328 54.8301 105.55 55.9818L102.028 57.2443C101.807 56.0926 101.43 54.7193 100.898 53.1246C100.411 51.4855 99.8574 50.0015 99.2372 48.6726ZM94.9846 49.47L98.5728 48.8719C99.1043 50.5996 99.5473 52.4601 99.9017 54.4535C100.3 56.4469 100.544 58.1524 100.633 59.57L96.7787 60.3673C96.7344 58.9055 96.535 57.1557 96.1806 55.118C95.8706 53.0803 95.4719 51.1976 94.9846 49.47ZM90.3997 49.8022L94.0543 49.4035C94.4087 51.3526 94.6302 53.479 94.7188 55.7825C94.8074 58.086 94.8074 60.0573 94.7188 61.6963L90.8649 62.2279C90.9534 60.5445 90.9534 58.5511 90.8649 56.2476C90.8206 53.9441 90.6655 51.7956 90.3997 49.8022ZM85.4162 48.3404L90.2004 49.2042C90.1118 51.2862 89.9346 53.3239 89.6688 55.3173C89.4473 57.3108 89.0708 59.1713 88.5392 60.8989C88.0519 62.5823 87.3431 64.0663 86.4129 65.3509L82.0273 62.9588C82.8247 61.807 83.4449 60.4781 83.8879 58.972C84.3309 57.4215 84.6631 55.7382 84.8846 53.9219C85.1504 52.0614 85.3276 50.2009 85.4162 48.3404ZM85.9477 8.73769H110.733V15.7811H93.1241V43.689H85.9477V8.73769ZM105.018 38.9713H112.261C112.261 38.9713 112.261 39.3478 112.261 40.1009C112.261 40.8097 112.239 41.3855 112.194 41.8285C111.973 47.1443 111.729 51.4855 111.464 54.8522C111.242 58.1746 110.954 60.7439 110.6 62.5601C110.245 64.332 109.802 65.5724 109.271 66.2812C108.695 67.0785 108.075 67.6544 107.41 68.0088C106.79 68.3632 106.081 68.6068 105.284 68.7397C104.575 68.9169 103.689 69.0055 102.626 69.0055C101.607 69.0498 100.522 69.0498 99.3701 69.0055C99.3258 67.9424 99.1486 66.7684 98.8385 65.4838C98.5285 64.1991 98.1076 63.1138 97.576 62.2279C98.3734 62.3165 99.0822 62.3829 99.7024 62.4272C100.367 62.4272 100.898 62.4272 101.297 62.4272C101.696 62.4272 102.028 62.3829 102.294 62.2943C102.56 62.1614 102.825 61.9399 103.091 61.6298C103.401 61.1426 103.667 60.1902 103.889 58.7726C104.11 57.3108 104.309 55.0959 104.487 52.1279C104.708 49.1599 104.885 45.1952 105.018 40.2338V38.9713Z" fill="#EDA00C"/>
</g>
<g filter="url(#filter3_d_22_27864)">
<path d="M18.7037 6.61133L27.0096 9.13633C25.725 12.9017 24.1746 16.6892 22.3583 20.4988C20.5421 24.3085 18.5708 27.941 16.4445 31.3962C14.3182 34.8072 12.1254 37.7973 9.86621 40.3666C9.60042 39.6579 9.17958 38.7276 8.6037 37.5758C8.02783 36.3798 7.4298 35.1837 6.80962 33.9877C6.23375 32.7916 5.68002 31.8392 5.14844 31.1304C6.96467 29.137 8.71445 26.8335 10.3978 24.2199C12.1254 21.562 13.698 18.7269 15.1156 15.7146C16.5331 12.7023 17.7292 9.66791 18.7037 6.61133ZM13.5208 25.2831L21.8267 16.9107L21.8932 16.9771V69.0055H13.5208V25.2831ZM41.8939 6.67777H50.532V68.6068H41.8939V6.67777ZM25.5478 17.708H68.4728V26.0804H25.5478V17.708ZM33.7873 50.3337H58.9044V58.1745H33.7873V50.3337ZM53.4557 22.4923C54.6075 26.169 56.0472 29.8901 57.7748 33.6554C59.5467 37.3765 61.518 40.8761 63.6886 44.1541C65.8592 47.3879 68.1185 50.1565 70.4663 52.4601C69.4474 53.2574 68.2957 54.3206 67.011 55.6495C65.7264 56.9342 64.6853 58.1745 63.888 59.3706C61.5402 56.5798 59.3031 53.3017 57.1768 49.5364C55.0948 45.771 53.2121 41.7177 51.5287 37.3765C49.8897 33.0353 48.45 28.6719 47.2097 24.2863L53.4557 22.4923ZM39.3689 21.7613L45.6814 23.489C44.441 28.1403 42.957 32.703 41.2294 37.1772C39.5018 41.6513 37.5305 45.8153 35.3156 49.6693C33.1007 53.4789 30.6864 56.7791 28.0728 59.5699C27.5855 58.8612 26.9653 58.0859 26.2123 57.2443C25.4592 56.4026 24.684 55.5831 23.8866 54.7857C23.1335 53.9884 22.4248 53.346 21.7603 52.8587C24.2853 50.5552 26.6553 47.7423 28.8702 44.4199C31.1294 41.0532 33.1671 37.4208 34.9833 33.5225C36.7996 29.58 38.2614 25.6596 39.3689 21.7613Z" fill="#EDA00C"/>
</g>
<path d="M84.4653 5.7793V42.79H103.353C103.252 45.2713 103.137 47.3976 103.004 49.1689C103.002 49.216 102.997 49.2629 102.995 49.3096C102.954 49.1975 102.914 49.0839 102.872 48.9697C102.34 47.375 101.742 45.9129 101.078 44.584L97.7553 45.7139C98.3755 47.0428 98.9292 48.527 99.4164 50.166C99.9479 51.7605 100.325 53.1335 100.546 54.2852L102.677 53.5215C102.59 54.4235 102.501 55.1876 102.407 55.8135C102.185 57.231 101.919 58.1836 101.609 58.6709C101.343 58.981 101.078 59.203 100.812 59.3359C100.546 59.4245 100.214 59.4688 99.8149 59.4688H98.2201C97.6001 59.4245 96.8914 59.3581 96.0942 59.2695C96.6256 60.1554 97.0468 61.241 97.3569 62.5254C97.6669 63.8099 97.8438 64.9838 97.8881 66.0469C99.0398 66.0912 100.125 66.0912 101.144 66.0469C102.207 66.0469 103.093 65.9584 103.802 65.7812C104.599 65.6483 105.308 65.4041 105.928 65.0498C106.593 64.6954 107.213 64.1196 107.789 63.3223C108.118 62.8835 108.411 62.2407 108.672 61.3945C108.84 61.5645 109.011 61.7417 109.184 61.9268C109.893 62.6798 110.557 63.4335 111.177 64.1865L111.647 64.7676C112.087 65.3323 112.44 65.8474 112.705 66.3125C116.443 64.4852 119.461 62.4441 121.758 60.1885L122.207 59.7344C124.414 57.445 126.111 55.0378 127.3 52.5137C128.161 54.2986 129.12 55.9967 130.181 57.6074C132.424 61.0128 135.231 63.6982 138.603 65.6631L139.285 66.0469C139.683 65.3381 140.215 64.5403 140.879 63.6543C141.544 62.8128 142.23 61.9714 142.939 61.1299C143.648 60.3325 144.291 59.6673 144.867 59.1357C141.589 57.7182 138.775 55.6361 136.427 52.8896C134.976 51.1921 133.754 49.3758 132.76 47.4414H142.208V29.501H130.58V26.4443H136.76V22.9434C138.078 24.0033 139.406 24.9494 140.747 25.7793C141.178 24.8823 141.672 23.9229 142.229 22.9014L142.806 21.8594C143.603 20.3975 144.379 19.1566 145.132 18.1377C143.227 17.2074 141.322 15.9895 139.417 14.4834C137.557 12.933 135.807 11.2055 134.168 9.30078C132.529 7.35166 131.045 5.38014 129.716 3.38672H122.141C121.211 5.24723 119.971 7.21878 118.42 9.30078L117.846 10.0596C116.485 11.8182 114.971 13.492 113.304 15.0811C111.583 16.6822 109.787 18.0458 107.921 19.1768V15.8789H102.539V12.8223H109.25V5.7793H84.4653ZM83.934 45.3818C83.8454 47.2422 83.6685 49.1026 83.4028 50.9629L83.3139 51.6377C83.0959 53.1978 82.7933 54.6561 82.4057 56.0127C81.9627 57.5188 81.3427 58.8483 80.5453 60L84.9311 62.3926C85.8613 61.108 86.5698 59.6237 87.0571 57.9404C87.5886 56.2128 87.9655 54.3518 88.1869 52.3584C88.4527 50.365 88.6296 48.3271 88.7182 46.2451L83.934 45.3818ZM88.9174 46.8438C89.1832 48.8371 89.338 50.9857 89.3823 53.2891C89.4708 55.5925 89.4708 57.5863 89.3823 59.2695L93.2367 58.7373C93.3253 57.0983 93.3253 55.1267 93.2367 52.8232C93.1481 50.5199 92.9261 48.3933 92.5717 46.4443L88.9174 46.8438ZM107.921 20.3389C108.441 21.0844 108.973 21.9676 109.516 22.9893C110.313 24.3624 110.911 25.5584 111.31 26.5771C113.056 25.5367 114.739 24.307 116.361 22.8926V26.4443H122.806V29.501H111.709V47.4414H120.731C120.57 47.8192 120.398 48.1962 120.214 48.5713C119.195 50.7418 117.645 52.824 115.563 54.8174L115.172 55.1807C113.576 56.627 111.581 57.973 109.186 59.2197C109.508 57.4316 109.775 54.9899 109.982 51.8936C110.248 48.527 110.491 44.1857 110.712 38.8701C110.757 38.4271 110.779 37.8504 110.779 37.1416V36.0127H102.539V32.5576H107.921V25.9121H102.539V22.457H107.921V20.3389ZM93.5024 46.5107C93.9897 48.2384 94.3886 50.1215 94.6987 52.1592C95.053 54.1967 95.252 55.9464 95.2963 57.4082L99.1508 56.6113C99.0622 55.1939 98.818 53.4884 98.4194 51.4951C98.065 49.5017 97.6218 47.6407 97.0903 45.9131L93.5024 46.5107ZM113.215 50.5684C113.177 51.1128 113.139 51.6368 113.099 52.1396L113.098 52.1387C113.081 52.3917 113.063 52.641 113.045 52.8867C113.167 52.7769 113.287 52.6679 113.402 52.5576C114.095 51.8938 114.71 51.2306 115.252 50.5684H113.215ZM134.7 35.7471V41.1953H130.288C130.472 39.3596 130.569 37.5437 130.578 35.7471H134.7ZM122.802 35.7471C122.784 37.5175 122.644 39.3335 122.382 41.1953H118.819V35.7471H122.802ZM95.6283 36.0127H91.642V32.5576H95.6283V36.0127ZM95.6283 25.9121H91.642V22.457H95.6283V25.9121ZM126.195 11.0283C127.258 12.7558 128.564 14.5498 130.115 16.4102L130.718 17.1025C131.518 18.006 132.344 18.8828 133.198 19.7324H119.637C120.625 18.6904 121.549 17.6281 122.407 16.543C123.957 14.5939 125.22 12.7559 126.195 11.0283ZM95.6283 15.8789H91.642V12.8223H95.6283V15.8789ZM112.377 11.5967C113.665 10.2673 114.841 8.88272 115.906 7.44238L115.913 7.43262C117.379 5.46379 118.514 3.64959 119.344 1.98828L119.451 1.79395C120.01 0.847923 121.031 0.259848 122.141 0.259766H129.716L129.912 0.265625C130.882 0.326244 131.774 0.836871 132.318 1.65234C133.576 3.53946 134.986 5.41438 136.551 7.27637C138.069 9.03819 139.681 10.6297 141.387 12.0547C143.131 13.4302 144.837 14.5139 146.504 15.3281C147.339 15.7355 147.949 16.4928 148.169 17.3945C148.39 18.2964 148.199 19.2504 147.647 19.9971C147 20.8717 146.3 21.9837 145.551 23.3564C145.545 23.3683 145.538 23.3808 145.532 23.3926C144.841 24.6196 144.246 25.7473 143.741 26.7764C144.692 27.3126 145.335 28.3311 145.335 29.501V47.4414C145.335 49.1684 143.935 50.5683 142.208 50.5684H138.562C138.642 50.6651 138.722 50.7625 138.804 50.8584C140.846 53.247 143.273 55.0396 146.108 56.2656C147.079 56.6856 147.771 57.5685 147.949 58.6113C148.126 59.6541 147.765 60.716 146.988 61.4336C146.515 61.8701 145.954 62.447 145.301 63.1797C144.638 63.9682 143.994 64.7553 143.372 65.542C142.767 66.3498 142.321 67.0268 142.01 67.5801C141.173 69.0685 139.296 69.6098 137.794 68.7959C133.647 66.5471 130.233 63.3728 127.57 59.3281C127.437 59.1264 127.306 58.9229 127.176 58.7188C126.358 59.8112 125.452 60.874 124.459 61.9043C121.793 64.6709 118.298 67.0599 114.08 69.1221C112.598 69.8462 110.809 69.2957 109.991 67.8643C109.802 67.5333 109.509 67.1065 109.087 66.5752C108.606 67.0326 108.072 67.4373 107.479 67.7637L107.48 67.7646C107.471 67.7698 107.461 67.7741 107.452 67.7793C107.434 67.7888 107.417 67.7993 107.4 67.8086L107.399 67.8076C106.473 68.3238 105.472 68.6586 104.427 68.8438C103.44 69.0756 102.35 69.1694 101.211 69.1729C100.118 69.2183 98.9692 69.2171 97.768 69.1709C96.1392 69.1083 94.8319 67.8053 94.7641 66.1768C94.73 65.3589 94.5901 64.3908 94.3168 63.2588C94.1805 62.6939 94.0253 62.2106 93.8608 61.7988C93.7957 61.8121 93.73 61.8258 93.6635 61.835L89.81 62.3662C89.4203 62.42 89.0294 62.398 88.6557 62.3086C88.3011 62.9768 87.9045 63.6174 87.4633 64.2266C86.5405 65.5006 84.8142 65.891 83.433 65.1377L79.0483 62.7451C78.2696 62.3204 77.7071 61.5847 77.5024 60.7217C77.2977 59.8587 77.4692 58.9489 77.9741 58.2197C78.56 57.3733 79.0457 56.3549 79.4057 55.1309C79.7949 53.7633 80.0952 52.2504 80.2983 50.585L80.3071 50.5205C80.559 48.7566 80.7271 46.9937 80.811 45.2324L80.8227 45.0654C80.88 44.5005 81.0902 43.9661 81.4242 43.5166C81.3688 43.2834 81.3383 43.0402 81.3383 42.79V5.7793C81.3383 4.05244 82.7385 2.65252 84.4653 2.65234H109.25C110.977 2.65234 112.377 4.05234 112.377 5.7793V11.5967Z" fill="#4D4D4D"/>
<path d="M66.9904 14.7491H49.05V3.71879H40.4113V14.7491H24.0656V23.1221H36.5178C35.6536 25.5938 34.6479 28.0742 33.5012 30.5635C31.6849 34.4617 29.6471 38.0943 27.3879 41.461C25.2122 44.7245 22.8862 47.496 20.4113 49.7764V18.4991C20.5667 18.1803 20.723 17.8613 20.8762 17.5401C22.6924 13.7305 24.2429 9.94307 25.5275 6.17777L17.2219 3.65238C16.2473 6.70896 15.0505 9.74361 13.633 12.7559L13.0949 13.877C11.8206 16.4741 10.4269 18.9351 8.91522 21.2608C7.23188 23.8744 5.48243 26.1785 3.6662 28.1719C4.19775 28.8807 4.75148 29.8333 5.32733 31.0293C5.94746 32.2253 6.54544 33.4213 7.12127 34.6172C7.69715 35.769 8.11818 36.6995 8.38397 37.4082C9.62299 35.9992 10.8392 34.4611 12.0383 32.7989V66.0469H20.4113V50C21.037 50.4741 21.7016 51.083 22.4045 51.8272C23.2017 52.6244 23.9768 53.4437 24.7297 54.2852C25.4827 55.1269 26.1037 55.9026 26.591 56.6114C28.6157 54.4493 30.5194 51.9806 32.3049 49.2071V55.2159H40.4113V65.6485H49.05V55.2159H57.4221V49.4893C59.024 52.0585 60.6845 54.3665 62.4055 56.4121C63.2028 55.2161 64.2439 53.9751 65.5285 52.6905C66.8131 51.3615 67.9657 50.2984 68.9846 49.501C66.6367 47.1975 64.3769 44.4291 62.2062 41.1954C60.0357 37.9173 58.0641 34.4173 56.2922 30.6963C55.1247 28.1518 54.0922 25.6262 53.1877 23.1221H66.9904V14.7491ZM40.4113 47.375H33.4426C33.5736 47.1555 33.7035 46.934 33.8332 46.711C36.0481 42.8571 38.0196 38.6928 39.7472 34.2188C39.973 33.6342 40.1939 33.0476 40.4113 32.46V47.375ZM49.05 31.7002C49.3742 32.6068 49.7045 33.5134 50.0461 34.418C51.7294 38.7591 53.6126 42.812 55.6945 46.5772C55.8461 46.8456 55.9989 47.1116 56.1515 47.375H49.05V31.7002ZM23.5383 41.5157C23.9582 40.9395 24.3749 40.3437 24.7863 39.7266L24.7912 39.7188C26.9551 36.4942 28.9151 33.0037 30.6672 29.2432C31.1278 28.2429 31.5623 27.2443 31.9748 26.2491H24.0656C23.8858 26.2491 23.7098 26.2323 23.5383 26.2032V41.5157ZM52.1769 11.6221H66.9904C68.7173 11.6221 70.1172 13.0222 70.1174 14.7491V23.1221C70.1172 24.8489 68.7172 26.2491 66.9904 26.2491H57.7599C58.1955 27.2919 58.6522 28.3404 59.1349 29.3926C60.8419 32.9726 62.7355 36.3303 64.8137 39.4688C66.8834 42.5502 69.0064 45.1429 71.174 47.2696C71.8166 47.9001 72.1559 48.7769 72.1057 49.6758C72.0553 50.5749 71.6204 51.4089 70.9113 51.9639C70.0427 52.6437 68.9996 53.5991 67.7766 54.8643C67.7644 54.8769 67.7518 54.89 67.7394 54.9024C66.5645 56.0774 65.6658 57.1598 65.008 58.1465C64.4622 58.9652 63.5626 59.4793 62.5803 59.5342C61.5978 59.589 60.6463 59.1778 60.0129 58.4248C59.7996 58.1714 59.5882 57.9138 59.3771 57.6534C58.8415 58.0835 58.1625 58.3428 57.4221 58.3428H52.1769V65.6485C52.1767 67.3752 50.7767 68.7753 49.05 68.7754H40.4113C38.6847 68.7752 37.2846 67.3751 37.2844 65.6485V58.3428H32.3049C31.433 58.3428 30.6454 57.9849 30.0783 57.4092C29.6812 57.866 29.2808 58.3139 28.8732 58.7491C28.2259 59.4402 27.2999 59.8006 26.3556 59.7295C25.4115 59.6584 24.5503 59.1631 24.0139 58.3829C23.8738 58.1791 23.7144 57.9642 23.5383 57.7354V66.0469C23.5382 67.7737 22.1381 69.1737 20.4113 69.1739H12.0383C10.3115 69.1737 8.9114 67.7737 8.91131 66.0469V40.4883C8.55525 40.5493 8.18663 40.5505 7.82049 40.4834C6.73969 40.2854 5.84207 39.5347 5.45624 38.5059C5.24622 37.9458 4.88011 37.1271 4.3244 36.0157C4.31744 36.0018 4.31064 35.9877 4.30389 35.9737C3.74171 34.8061 3.158 33.6376 2.55194 32.4688C2.53776 32.4414 2.52331 32.4135 2.50995 32.3858C1.98327 31.2919 1.52983 30.5353 1.16424 30.0479C0.263709 28.847 0.343712 27.1751 1.35467 26.0655C3.03755 24.2184 4.68334 22.0572 6.28631 19.5684L6.29413 19.5567C7.94024 17.0242 9.44406 14.3144 10.8039 11.4248C12.1653 8.53182 13.3109 5.62449 14.2424 2.70316L14.2941 2.5518C14.8697 1.01739 16.5457 0.179228 18.131 0.66117L26.4367 3.18558C27.2476 3.43211 27.9243 3.99765 28.3107 4.75199C28.6971 5.50629 28.7602 6.38544 28.4865 7.18754C27.9828 8.66383 27.4403 10.1421 26.8586 11.6221H37.2844V3.71879C37.2845 1.99207 38.6846 0.592028 40.4113 0.591834H49.05C50.7768 0.591914 52.1768 1.992 52.1769 3.71879V11.6221Z" fill="#4D4D4D"/>
<g filter="url(#filter4_d_22_27864)">
<path d="M417.695 43.605V45.4655H443.344V43.605H417.695ZM417.695 49.7182V51.6451H443.344V49.7182H417.695ZM417.695 37.5583V39.4188H443.344V37.5583H417.695ZM409.389 33.1063H452.115V56.0971H409.389V33.1063ZM433.111 53.8379H441.749V58.3563C441.749 59.198 441.926 59.7296 442.281 59.9511C442.679 60.1283 443.521 60.2168 444.806 60.2168C445.071 60.2168 445.536 60.2168 446.201 60.2168C446.865 60.2168 447.574 60.2168 448.327 60.2168C449.08 60.2168 449.789 60.2168 450.454 60.2168C451.162 60.2168 451.694 60.2168 452.048 60.2168C452.757 60.2168 453.289 60.1061 453.643 59.8846C453.997 59.6188 454.263 59.1094 454.44 58.3563C454.618 57.6032 454.75 56.4958 454.839 55.0339C455.681 55.5655 456.81 56.0971 458.228 56.6287C459.69 57.1603 460.974 57.5147 462.082 57.6918C461.86 60.1725 461.417 62.0774 460.753 63.4063C460.088 64.7796 459.136 65.7098 457.896 66.1971C456.655 66.7287 454.994 66.9945 452.912 66.9945C452.558 66.9945 452.07 66.9945 451.45 66.9945C450.83 66.9945 450.143 66.9945 449.39 66.9945C448.637 66.9945 447.884 66.9945 447.131 66.9945C446.378 66.9945 445.691 66.9945 445.071 66.9945C444.451 66.9945 443.964 66.9945 443.609 66.9945C440.819 66.9945 438.648 66.7287 437.098 66.1971C435.591 65.6655 434.55 64.7796 433.975 63.5392C433.399 62.2989 433.111 60.5934 433.111 58.4228V53.8379ZM418.359 54.5688H426.998C426.599 56.4736 425.957 58.157 425.071 59.6188C424.229 61.0807 422.944 62.3432 421.217 63.4063C419.489 64.4695 417.141 65.3554 414.173 66.0642C411.25 66.773 407.551 67.3267 403.077 67.7254C402.811 66.7508 402.279 65.5991 401.482 64.2701C400.729 62.9412 400.02 61.878 399.355 61.0807C403.121 60.9035 406.177 60.6598 408.525 60.3497C410.873 59.9954 412.711 59.5745 414.04 59.0872C415.369 58.6 416.344 58.0019 416.964 57.2932C417.584 56.5401 418.049 55.632 418.359 54.5688ZM437.297 23.2721H459.49V29.9168H437.297V23.2721ZM437.762 11.2451H461.152V17.9563H437.762V11.2451ZM437.098 4.79968L444.938 6.52732C444.008 10.0269 442.746 13.4157 441.151 16.6938C439.556 19.9275 437.851 22.6519 436.034 24.8668C435.547 24.4238 434.883 23.9144 434.041 23.3385C433.244 22.7626 432.402 22.2089 431.516 21.6773C430.674 21.1458 429.943 20.7249 429.323 20.4148C431.051 18.51 432.579 16.1622 433.908 13.3714C435.281 10.5806 436.345 7.72337 437.098 4.79968ZM414.838 9.18521H421.881V15.4313H414.838V9.18521ZM414.838 21.7438H421.881V28.1227H414.838V21.7438ZM407.329 13.5707H430.054V24.6675H407.329V20.149H422.479V18.0892H407.329V13.5707ZM430.852 6.99245V11.7102H410.784V26.7273H431.981V31.5116H402.944V6.99245H430.852Z" fill="#01B4DB"/>
</g>
<g filter="url(#filter5_d_22_27864)">
<path d="M323.539 30.7806H385.269V40.4155H323.539V30.7806Z" fill="#01B4DB"/>
</g>
<path d="M449.159 32.048H406.434V55.0392H414.795C414.569 55.4733 414.307 55.8722 414.009 56.2346C413.389 56.9432 412.414 57.5412 411.085 58.0285C409.756 58.5158 407.917 58.9368 405.57 59.2912C403.222 59.6013 400.165 59.8454 396.4 60.0226C397.064 60.82 397.773 61.8831 398.527 63.2121C399.224 64.3747 399.718 65.4018 400.009 66.2931L400.121 66.6672C404.595 66.2685 408.294 65.7148 411.218 65.006C414.186 64.2973 416.533 63.4109 418.261 62.3478C419.989 61.2847 421.274 60.0226 422.115 58.5607C422.756 57.5031 423.268 56.3287 423.654 55.0392H430.155V57.3644C430.155 59.5348 430.443 61.2403 431.019 62.4806C431.595 63.7209 432.636 64.6073 434.142 65.1388C435.499 65.604 437.33 65.8659 439.637 65.924L440.654 65.9367H449.956L450.718 65.924C452.448 65.8658 453.855 65.6039 454.941 65.1388C456.181 64.6515 457.133 63.7209 457.797 62.3478C458.378 61.1851 458.79 59.5817 459.032 57.5373L459.126 56.634C458.157 56.4789 457.053 56.1882 455.813 55.7619L455.273 55.5705C453.855 55.039 452.726 54.5073 451.884 53.9758C451.795 55.4376 451.662 56.545 451.485 57.298C451.307 58.051 451.042 58.5605 450.688 58.8263C450.333 59.0478 449.802 59.1584 449.093 59.1584H441.85C440.566 59.1584 439.724 59.0698 439.325 58.8928C438.971 58.6713 438.793 58.1397 438.793 57.298V55.0392H449.159V32.048ZM440.388 48.6603V50.5871H414.739V48.6603H440.388ZM440.388 42.5471V44.4074H414.739V42.5471H440.388ZM440.388 36.5002V38.3605H414.739V36.5002H440.388ZM411.882 25.6691H407.829V23.6096H411.882V25.6691ZM419.524 17.0305V19.091H407.829V17.0305H419.524ZM411.882 12.5129H407.829V10.6515H411.882V12.5129ZM434.341 22.214V28.8586H456.535V22.214H434.341ZM459.661 28.8586C459.661 30.5854 458.262 31.9853 456.535 31.9855H452.284C452.285 32.0063 452.286 32.0271 452.286 32.048V50.8762C452.73 50.9337 453.162 51.0856 453.553 51.3322C454.145 51.7061 455.055 52.1487 456.358 52.6379C457.691 53.1219 458.771 53.4102 459.62 53.5461C461.242 53.8056 462.386 55.2754 462.24 56.9113C462.006 59.5369 461.518 61.8767 460.611 63.7092L460.613 63.7101C459.672 65.6532 458.204 67.1853 456.171 68.0109L456.172 68.0129C454.39 68.7768 452.256 69.0627 449.956 69.0627H440.654C437.725 69.0626 435.155 68.7919 433.128 68.0969C433.119 68.0938 433.111 68.0902 433.102 68.0871C430.946 67.3264 429.173 65.9302 428.183 63.798C427.431 62.1792 427.105 60.2483 427.041 58.1662H425.833C425.536 58.8426 425.2 59.4939 424.824 60.1193L424.825 60.1203C423.676 62.1161 421.981 63.73 419.9 65.0109C417.788 66.3104 415.094 67.2934 411.953 68.0441L411.954 68.0451C408.826 68.8035 404.96 69.375 400.399 69.7814C398.89 69.9158 397.503 68.9502 397.105 67.4894C396.943 66.8966 396.564 66.0198 395.845 64.8205C395.832 64.7983 395.819 64.7756 395.806 64.7531C395.106 63.5188 394.501 62.6285 393.998 62.0246C393.238 61.1129 393.06 59.8491 393.538 58.7629C394.016 57.6768 395.068 56.9544 396.253 56.8986C399.168 56.7614 401.615 56.5843 403.609 56.3732C403.417 55.9682 403.307 55.517 403.307 55.0392V33.5803H399.988C398.262 33.5803 396.862 32.1803 396.862 30.4533V5.93377C396.862 4.207 398.262 2.80682 399.988 2.80682H427.896C429.11 2.80682 430.16 3.50018 430.678 4.51092C430.833 3.99606 430.981 3.47991 431.114 2.96111L431.156 2.81072C431.636 1.26924 433.221 0.336762 434.815 0.687677L442.655 2.41522C443.488 2.59868 444.21 3.11477 444.654 3.84295C445.097 4.57106 445.224 5.44878 445.005 6.27264C444.935 6.53567 444.863 6.79791 444.789 7.05975H458.196C459.923 7.05998 461.323 8.45993 461.323 10.1867V16.8976C461.323 18.446 460.197 19.7303 458.72 19.9797C459.3 20.5474 459.661 21.3381 459.661 22.214V28.8586ZM399.988 30.4533H429.026V25.6691H418.926V23.6096H427.099V19.7463C427.542 19.9935 428.03 20.2839 428.561 20.6193C429.447 21.1508 430.288 21.7047 431.085 22.2805L431.684 22.6994C432.249 23.1064 432.714 23.4765 433.079 23.8088C434.654 21.8883 436.145 19.5841 437.553 16.8976H458.196V10.1867H440.502C441.064 8.63705 441.558 7.06462 441.983 5.46893L434.142 3.74139C433.389 6.66497 432.326 9.52198 430.952 12.3127L430.701 12.8312C429.627 15.003 428.425 16.8947 427.099 18.508V12.5129H418.926V10.6515H427.896V5.93377H399.988V30.4533Z" fill="#4D4D4D"/>
<path d="M382.31 29.7228H320.58V39.3575H382.31V29.7228ZM385.437 39.3575C385.436 41.0843 384.036 42.4845 382.31 42.4845H320.58C318.853 42.4844 317.453 41.0843 317.453 39.3575V29.7228C317.453 27.9959 318.853 26.5959 320.58 26.5958H382.31C384.037 26.5958 385.437 27.9958 385.437 29.7228V39.3575Z" fill="#4D4D4D"/>
</g>
<defs>
<filter id="filter0_d_22_27864" x="240.219" y="4.79968" width="64.3716" height="66.7015" filterUnits="userSpaceOnUse" color-interpolation-filters="sRGB">
<feFlood flood-opacity="0" result="BackgroundImageFix"/>
<feColorMatrix in="SourceAlpha" type="matrix" values="0 0 0 0 0 0 0 0 0 0 0 0 0 0 0 0 0 0 127 0" result="hardAlpha"/>
<feOffset dx="0.781734" dy="3.90867"/>
<feComposite in2="hardAlpha" operator="out"/>
<feColorMatrix type="matrix" values="0 0 0 0 0.686275 0 0 0 0 0.8 0 0 0 0 0.235294 0 0 0 1 0"/>
<feBlend mode="normal" in2="BackgroundImageFix" result="effect1_dropShadow_22_27864"/>
<feBlend mode="normal" in="SourceGraphic" in2="effect1_dropShadow_22_27864" result="shape"/>
</filter>
<filter id="filter1_d_22_27864" x="163.605" y="4.93262" width="63.5747" height="66.635" filterUnits="userSpaceOnUse" color-interpolation-filters="sRGB">
<feFlood flood-opacity="0" result="BackgroundImageFix"/>
<feColorMatrix in="SourceAlpha" type="matrix" values="0 0 0 0 0 0 0 0 0 0 0 0 0 0 0 0 0 0 127 0" result="hardAlpha"/>
<feOffset dx="0.781734" dy="3.90867"/>
<feComposite in2="hardAlpha" operator="out"/>
<feColorMatrix type="matrix" values="0 0 0 0 0.686275 0 0 0 0 0.8 0 0 0 0 0.235294 0 0 0 1 0"/>
<feBlend mode="normal" in2="BackgroundImageFix" result="effect1_dropShadow_22_27864"/>
<feBlend mode="normal" in="SourceGraphic" in2="effect1_dropShadow_22_27864" result="shape"/>
</filter>
<filter id="filter2_d_22_27864" x="82.0273" y="6.34558" width="66.0653" height="64.4051" filterUnits="userSpaceOnUse" color-interpolation-filters="sRGB">
<feFlood flood-opacity="0" result="BackgroundImageFix"/>
<feColorMatrix in="SourceAlpha" type="matrix" values="0 0 0 0 0 0 0 0 0 0 0 0 0 0 0 0 0 0 127 0" result="hardAlpha"/>
<feOffset dx="1.47933" dy="1.47933"/>
<feComposite in2="hardAlpha" operator="out"/>
<feColorMatrix type="matrix" values="0 0 0 0 0.929412 0 0 0 0 0.627451 0 0 0 0 0.0470588 0 0 0 1 0"/>
<feBlend mode="normal" in2="BackgroundImageFix" result="effect1_dropShadow_22_27864"/>
<feBlend mode="normal" in="SourceGraphic" in2="effect1_dropShadow_22_27864" result="shape"/>
</filter>
<filter id="filter3_d_22_27864" x="5.14844" y="6.61133" width="66.7957" height="63.8735" filterUnits="userSpaceOnUse" color-interpolation-filters="sRGB">
<feFlood flood-opacity="0" result="BackgroundImageFix"/>
<feColorMatrix in="SourceAlpha" type="matrix" values="0 0 0 0 0 0 0 0 0 0 0 0 0 0 0 0 0 0 127 0" result="hardAlpha"/>
<feOffset dx="1.47933" dy="1.47933"/>
<feComposite in2="hardAlpha" operator="out"/>
<feColorMatrix type="matrix" values="0 0 0 0 0.929412 0 0 0 0 0.627451 0 0 0 0 0.0470588 0 0 0 1 0"/>
<feBlend mode="normal" in2="BackgroundImageFix" result="effect1_dropShadow_22_27864"/>
<feBlend mode="normal" in="SourceGraphic" in2="effect1_dropShadow_22_27864" result="shape"/>
</filter>
<filter id="filter4_d_22_27864" x="399.355" y="4.79968" width="63.5083" height="66.8345" filterUnits="userSpaceOnUse" color-interpolation-filters="sRGB">
<feFlood flood-opacity="0" result="BackgroundImageFix"/>
<feColorMatrix in="SourceAlpha" type="matrix" values="0 0 0 0 0 0 0 0 0 0 0 0 0 0 0 0 0 0 127 0" result="hardAlpha"/>
<feOffset dx="0.781734" dy="3.90867"/>
<feComposite in2="hardAlpha" operator="out"/>
<feColorMatrix type="matrix" values="0 0 0 0 0.00392157 0 0 0 0 0.705882 0 0 0 0 0.858824 0 0 0 1 0"/>
<feBlend mode="normal" in2="BackgroundImageFix" result="effect1_dropShadow_22_27864"/>
<feBlend mode="normal" in="SourceGraphic" in2="effect1_dropShadow_22_27864" result="shape"/>
</filter>
<filter id="filter5_d_22_27864" x="323.539" y="30.7806" width="62.5122" height="13.5436" filterUnits="userSpaceOnUse" color-interpolation-filters="sRGB">
<feFlood flood-opacity="0" result="BackgroundImageFix"/>
<feColorMatrix in="SourceAlpha" type="matrix" values="0 0 0 0 0 0 0 0 0 0 0 0 0 0 0 0 0 0 127 0" result="hardAlpha"/>
<feOffset dx="0.781734" dy="3.90867"/>
<feComposite in2="hardAlpha" operator="out"/>
<feColorMatrix type="matrix" values="0 0 0 0 0.00392157 0 0 0 0 0.705882 0 0 0 0 0.858824 0 0 0 1 0"/>
<feBlend mode="normal" in2="BackgroundImageFix" result="effect1_dropShadow_22_27864"/>
<feBlend mode="normal" in="SourceGraphic" in2="effect1_dropShadow_22_27864" result="shape"/>
</filter>
<clipPath id="clip0_22_27864">
<rect width="461.714" height="69.6005" fill="white" transform="translate(0.539062 0.193359)"/>
</clipPath>
</defs>
</svg>
