<svg width="22" height="24" viewBox="0 0 22 24" fill="none" xmlns="http://www.w3.org/2000/svg">
<g opacity="0.4">
<path d="M2.15021 22.7004C-0.949793 21.0404 -0.199799 16.5804 1.3002 13.2604C4.8802 5.14042 14.5802 -2.01958 19.3102 0.520424C22.7802 2.38042 21.2202 7.64043 20.1602 9.96043C16.6302 17.8904 6.95021 25.2804 2.15021 22.7004ZM6.76019 10.1804C4.35019 13.1804 3.22019 15.1204 2.57019 16.6104C1.10019 19.9004 1.35018 21.3004 2.47018 21.9104C3.93018 22.7004 6.0102 21.6604 8.2702 19.8904C10.7002 18.0404 12.7602 15.4104 13.8402 13.9804L6.76019 10.1804ZM18.9102 6.56042C19.7802 4.53042 20.5902 2.16042 18.9102 1.26042C17.3802 0.440424 15.2402 1.74042 13.5702 3.00042C11.0602 4.77042 9.12019 7.24042 7.54019 9.19042L14.6602 13.0104C17.0602 9.96042 18.1302 8.29042 18.9102 6.56042Z" fill="#39B54A"/>
</g>
</svg>
