<svg width="23" height="19" viewBox="0 0 23 19" fill="none" xmlns="http://www.w3.org/2000/svg">
<path d="M11.5003 18.9999C7.80834 18.9967 4.13897 18.3656 0.62134 17.128C0.272701 17.0488 0.0170108 16.7172 0.00248206 16.3236C-0.00429734 16.2562 0.00538755 9.94828 0.00151364 9.87982C0.00248206 8.87537 0.320153 7.90302 0.898326 7.12854C1.47747 6.35409 2.2813 5.82566 3.17328 5.63312C2.57185 4.46716 2.57768 3.03484 3.18878 1.87411C3.79891 0.713492 4.92332 0 6.13865 0C7.35398 0 8.47752 0.71456 9.08778 1.87518C9.69791 3.0358 9.70374 4.46812 9.10134 5.63419C10.0611 5.84171 10.9153 6.43646 11.5003 7.30183C12.0852 6.43537 12.9404 5.84171 13.8992 5.63309C13.2968 4.4682 13.3007 3.03695 13.9108 1.87627C14.52 0.714588 15.6434 2.74213e-05 16.8589 2.74213e-05C18.0734 2.74213e-05 19.1968 0.713519 19.8071 1.87414C20.4172 3.03476 20.423 4.46599 19.8206 5.63205C20.7145 5.82246 21.5203 6.35089 22.1004 7.12534C22.6796 7.90085 22.9982 8.87427 22.9992 9.8799C22.9934 10.0061 23.004 16.1944 22.9982 16.3236C22.9837 16.7173 22.728 17.0489 22.3793 17.1281C18.8617 18.3657 15.1922 18.9967 11.5003 18.9999ZM8.48915 17.1408V17.1397C10.4891 17.3365 12.5017 17.3365 14.5024 17.1408V15.2827C14.5063 14.8613 14.3562 14.4548 14.086 14.1563C13.8158 13.8579 13.4478 13.6921 13.0652 13.6974H12.395C11.8169 13.9124 11.1903 13.9124 10.6121 13.6974H9.93511C9.13903 13.6953 8.49208 14.4045 8.48918 15.2827L8.48915 17.1408ZM16.052 15.2827V16.9493C17.8795 16.6776 19.6837 16.2433 21.4494 15.6539V9.87968C21.4475 8.43668 20.389 7.26855 19.0835 7.26642H18.0695C17.2908 7.57876 16.4376 7.57876 15.6589 7.26642H14.641C13.874 7.26749 13.1554 7.67932 12.7118 8.36926C13.936 9.08275 14.46 10.7151 13.9166 12.1217C15.1824 12.5389 16.0501 13.8236 16.052 15.2827ZM1.55108 15.6528V15.6539C3.31371 16.2422 5.11507 16.6755 6.93959 16.9483V15.2828C6.9425 13.8237 7.81121 12.54 9.07702 12.124C8.54243 10.7142 9.06734 9.08711 10.2876 8.36827C9.84404 7.67833 9.12544 7.26864 8.35939 7.2665H7.34248C6.56479 7.58098 5.71253 7.58098 4.93485 7.2665H3.91698C2.61148 7.26864 1.55291 8.43673 1.55098 9.87976L1.55108 15.6528ZM10.6374 11.7013C10.8302 11.9644 11.1149 12.126 11.421 12.1463C11.727 12.1655 12.0272 12.0415 12.2461 11.8051C12.4659 11.5687 12.5851 11.2403 12.5744 10.9022C12.5637 10.5631 12.4243 10.2455 12.1899 10.0262C11.7609 9.62287 11.1255 9.64749 10.7227 10.0818C10.3198 10.5161 10.283 11.2178 10.6374 11.7013ZM6.14076 1.71134C3.71571 1.68995 3.64212 5.77733 6.13979 5.76665C8.60263 5.78483 8.57937 1.69436 6.14076 1.71134ZM15.0043 3.74589C14.9926 4.29251 15.1863 4.8188 15.5388 5.20174C15.8914 5.58468 16.3717 5.78899 16.8657 5.76654C17.3538 5.76868 17.8225 5.55581 18.1683 5.17499C18.514 4.79525 18.7077 4.2786 18.7087 3.73946C18.7087 3.20032 18.514 2.68367 18.1692 2.30286C17.8235 1.92206 17.3547 1.70918 16.8666 1.71131C16.3717 1.69206 15.8904 1.89958 15.5379 2.28468C15.1853 2.66978 14.9917 3.19821 15.0043 3.74589Z" fill="#4D4D4D"/>
</svg>
