<svg width="84" height="68" viewBox="0 0 84 68" fill="none" xmlns="http://www.w3.org/2000/svg">
<g clip-path="url(#clip0_2311_3758)">
<path d="M56.957 0C60.7473 0 63.8359 2.77342 63.8359 6.17677V62.0567C63.8457 65.4688 60.7571 68.2423 56.9668 68.2423H26.8789C23.0887 68.2423 20 65.4689 20 62.0655V6.17677C20 2.77344 23.0887 3.35722e-05 26.8789 0H56.957ZM26.8789 2.625C24.6964 2.62504 22.9229 4.21703 22.9229 6.17677V62.0567C22.9229 64.0165 24.6964 65.6085 26.8789 65.6085H56.957C59.1396 65.6085 60.9131 64.0165 60.9131 62.0567V6.17677C60.9131 4.21701 59.1396 2.625 56.957 2.625H52.1045V3.14942C52.1045 5.08291 50.3603 6.64936 48.207 6.64942H35.6377C33.4844 6.64942 31.7402 5.08295 31.7402 3.14942V2.625H26.8789ZM34.6631 3.14942C34.6631 3.63062 35.1018 4.02442 35.6377 4.02442H48.207C48.7429 4.02436 49.1816 3.63058 49.1816 3.14942V2.625H34.6631V3.14942Z" fill="#4D4D4D"/>
<path d="M56.9668 67.7423V68.2423H26.8789V67.7423H56.9668ZM63.3359 6.17677C63.3359 3.09883 60.5231 0.500001 56.957 0.500001H26.8789C23.3128 0.500034 20.5 3.09885 20.5 6.17677V62.0655C20.5 65.1434 23.3128 67.7423 26.8789 67.7423V68.2423C23.0887 68.2423 20 65.4689 20 62.0655V6.17677C20 2.77344 23.0887 3.35722e-05 26.8789 0H56.957C60.7473 0 63.8359 2.77342 63.8359 6.17677V62.0567C63.8457 65.4688 60.7571 68.2423 56.9668 68.2423V67.7423C60.5329 67.7423 63.3447 65.1434 63.3359 62.0577V6.17677ZM22.4229 62.0567V6.17677C22.4229 3.89153 24.4723 2.12504 26.8789 2.125V2.625C24.6964 2.62504 22.9229 4.21703 22.9229 6.17677V62.0567C22.9229 64.0165 24.6964 65.6085 26.8789 65.6085H56.957C59.1396 65.6085 60.9131 64.0165 60.9131 62.0567V6.17677C60.9131 4.21701 59.1396 2.625 56.957 2.625V2.125C59.2884 2.125 61.2846 3.78273 61.4072 5.96388L61.4131 6.17677V62.0567C61.4131 64.342 59.3637 66.1085 56.957 66.1085H26.8789C24.4723 66.1085 22.4229 64.342 22.4229 62.0567ZM31.7402 3.14942V2.625H26.8789V2.125H32.2402V3.14942C32.2402 4.7576 33.7086 6.14942 35.6377 6.14942V6.64942C33.4844 6.64942 31.7402 5.08295 31.7402 3.14942ZM48.207 6.14942V6.64942H35.6377V6.14942H48.207ZM51.6045 3.14942V2.125H56.957V2.625H52.1045V3.14942C52.1045 5.08291 50.3603 6.64936 48.207 6.64942V6.14942C50.1361 6.14936 51.6045 4.75755 51.6045 3.14942ZM34.6631 2.625V3.14942C34.6631 3.63062 35.1018 4.02442 35.6377 4.02442H48.207C48.7429 4.02436 49.1816 3.63058 49.1816 3.14942V2.625H34.6631ZM49.6816 3.14942C49.6816 3.90579 49.0533 4.45222 48.3486 4.51758L48.207 4.52442H35.6377C34.8777 4.52442 34.1631 3.95612 34.1631 3.14942V2.125H49.6816V3.14942Z" fill="white"/>
<path d="M56.4888 32.5671C56.4888 26.097 49.9544 20.833 41.9221 20.833C33.8899 20.833 27.3555 26.097 27.3555 32.5671C27.3555 38.3678 32.5382 43.2251 39.5383 44.144C40.012 44.2457 40.6578 44.4544 40.8217 44.8569C40.9691 45.2228 40.9173 45.7948 40.8695 46.1648C40.8695 46.1648 40.6988 47.1853 40.6619 47.4021C40.5978 47.7681 40.3698 48.832 41.9235 48.1814C43.4786 47.5309 50.3121 43.278 53.3677 39.7868C55.4785 37.4882 56.4902 35.1571 56.4902 32.5671H56.4888Z" fill="#4BCB49"/>
<path d="M41.9219 19.2334C49.8883 19.2334 57.0039 24.1305 57.9746 30.9668H58.0898V32.5674C58.0898 35.6276 56.8754 38.3197 54.5703 40.8398L54.5713 40.8408C52.9088 42.7402 50.3026 44.7672 47.9932 46.3652C45.9872 47.7533 44.0403 48.9305 42.9521 49.4678L42.541 49.6572C42.0619 49.8578 41.5112 50.0215 40.9482 49.9814C40.2717 49.9332 39.6444 49.5871 39.29 48.9551C39.0074 48.4507 39.0041 47.9427 39.0146 47.7002C39.0263 47.4317 39.0766 47.1794 39.0859 47.126C39.1051 47.0132 39.1549 46.714 39.2012 46.4375C39.2248 46.2966 39.2481 46.1624 39.2646 46.0635L39.2842 45.9453C39.2933 45.8736 39.3007 45.8027 39.3066 45.7344C39.2817 45.7282 39.2569 45.7205 39.2314 45.7148C31.7557 44.694 25.756 39.3901 25.7559 32.5674C25.7559 24.9079 33.3465 19.2335 41.9219 19.2334ZM27.3594 32.8379C27.5177 38.5183 32.6474 43.2389 39.5381 44.1436C40.0116 44.2452 40.6571 44.4543 40.8213 44.8564C40.9687 45.2224 40.9169 45.795 40.8691 46.165C40.8657 46.1857 40.6986 47.1877 40.6621 47.4023C40.6019 47.7455 40.3979 48.7017 41.6523 48.2842L41.9238 48.1816C43.4793 47.5308 50.3115 43.2781 53.3672 39.7871C55.4779 37.4886 56.4902 35.1572 56.4902 32.5674H56.4893C56.4893 26.0972 49.9541 20.833 41.9219 20.833C33.8898 20.8331 27.3555 26.0973 27.3555 32.5674L27.3594 32.8379Z" fill="#4D4D4D"/>
<path d="M51.6458 36.3044H47.5539C47.3996 36.3044 47.2754 36.181 47.2754 36.0279V36.0238V29.7244V29.7176C47.2754 29.5645 47.3996 29.4412 47.5539 29.4412H51.6458C51.7987 29.4412 51.9243 29.5658 51.9243 29.7176V30.7436C51.9243 30.8967 51.8001 31.0201 51.6458 31.0201H48.8646V32.0853H51.6458C51.7987 32.0853 51.9243 32.21 51.9243 32.3618V33.3878C51.9243 33.5409 51.8001 33.6642 51.6458 33.6642H48.8646V34.7295H51.6458C51.7987 34.7295 51.9243 34.8542 51.9243 35.006V36.0319C51.9243 36.1851 51.8001 36.3084 51.6458 36.3084V36.3044Z" fill="white"/>
<path d="M36.5085 36.3038C36.6614 36.3038 36.787 36.1804 36.787 36.0273V35.0013C36.787 34.8495 36.6614 34.7248 36.5085 34.7248H33.7273V29.7157C33.7273 29.5639 33.6017 29.4392 33.4488 29.4392H32.4152C32.261 29.4392 32.1367 29.5625 32.1367 29.7157V36.0219V36.0273C32.1367 36.1804 32.261 36.3038 32.4152 36.3038H36.5071H36.5085Z" fill="white"/>
<path d="M38.9709 29.4412H37.9387C37.7849 29.4412 37.6602 29.5649 37.6602 29.7176V36.0279C37.6602 36.1806 37.7849 36.3044 37.9387 36.3044H38.9709C39.1247 36.3044 39.2494 36.1806 39.2494 36.0279V29.7176C39.2494 29.5649 39.1247 29.4412 38.9709 29.4412Z" fill="white"/>
<path d="M46.0025 29.4412H44.9689C44.8147 29.4412 44.6904 29.5645 44.6904 29.7176V33.465L41.7823 29.5658C41.7754 29.5564 41.7673 29.5469 41.7604 29.5374C41.7604 29.5374 41.7604 29.5374 41.7591 29.536C41.7536 29.5306 41.7481 29.5238 41.7427 29.5184C41.7413 29.5171 41.7386 29.5157 41.7372 29.5143C41.7318 29.5103 41.7277 29.5062 41.7222 29.5022C41.7195 29.5008 41.7167 29.4981 41.714 29.4967C41.7099 29.4927 41.7045 29.49 41.699 29.4872C41.6963 29.4859 41.6935 29.4832 41.6908 29.4818C41.6853 29.4791 41.6812 29.4764 41.6758 29.4737C41.673 29.4723 41.6703 29.471 41.6676 29.4696C41.6621 29.4669 41.6567 29.4642 41.6512 29.4628C41.6485 29.4628 41.6457 29.4601 41.6416 29.4601C41.6362 29.4588 41.6307 29.4561 41.6253 29.4547C41.6225 29.4547 41.6184 29.4534 41.6157 29.452C41.6102 29.452 41.6048 29.4493 41.5993 29.4479C41.5952 29.4479 41.5911 29.4479 41.587 29.4466C41.5816 29.4466 41.5775 29.4452 41.572 29.4452C41.5666 29.4452 41.5625 29.4452 41.557 29.4452C41.5543 29.4452 41.5502 29.4452 41.5474 29.4452H40.5207C40.3678 29.4452 40.2422 29.5686 40.2422 29.7217V36.0319C40.2422 36.1837 40.3664 36.3084 40.5207 36.3084H41.5543C41.7085 36.3084 41.8328 36.1851 41.8328 36.0319V32.2846L44.745 36.1892C44.7655 36.2176 44.7901 36.2407 44.8174 36.2583C44.8174 36.2583 44.8201 36.2596 44.8201 36.261C44.8256 36.2651 44.831 36.2678 44.8379 36.2718C44.8406 36.2732 44.8433 36.2745 44.8461 36.2759C44.8502 36.2786 44.8556 36.28 44.8597 36.2827C44.8638 36.2854 44.8693 36.2867 44.8734 36.2881C44.8761 36.2881 44.8788 36.2908 44.8816 36.2908C44.8884 36.2935 44.8939 36.2949 44.9007 36.2962C44.9007 36.2962 44.9034 36.2962 44.9048 36.2962C44.928 36.3016 44.9526 36.3057 44.9771 36.3057H46.0039C46.1568 36.3057 46.2824 36.1824 46.2824 36.0292V29.719C46.2824 29.5672 46.1581 29.4425 46.0039 29.4425L46.0025 29.4412Z" fill="white"/>
<path d="M20 6C20 2.68629 22.6863 0 26 0H58C61.3137 0 64 2.68629 64 6V62C64 65.3137 61.3137 68 58 68H26C22.6863 68 20 65.3137 20 62V6Z" fill="white"/>
<path d="M58 66.2002V68H26V66.2002H58ZM62.2002 62V6C62.2002 3.6804 60.3196 1.7998 58 1.7998H26C23.6804 1.7998 21.7998 3.6804 21.7998 6V62C21.7998 64.3196 23.6804 66.2002 26 66.2002V68L25.6914 67.9922C22.6233 67.8367 20.1633 65.3767 20.0078 62.3086L20 62V6C20 2.68629 22.6863 9.66385e-08 26 0H58C61.3137 0 64 2.68629 64 6V62L63.9922 62.3086C63.8367 65.3767 61.3767 67.8367 58.3086 67.9922L58 68V66.2002C60.3196 66.2002 62.2002 64.3196 62.2002 62Z" fill="#4D4D4D"/>
<path d="M36 21.611C36 17.9291 38.9848 14.9443 42.6667 14.9443H69.3333C73.0152 14.9443 76 17.9291 76 21.611V49.3888C76 53.0707 73.0152 56.0554 69.3333 56.0554H42.6667C38.9848 56.0554 36 53.0707 36 49.3888V21.611Z" fill="white"/>
<path d="M69.333 54.2557V56.0554H42.667V54.2557H69.333ZM74.2002 49.3885V21.6113C74.2002 18.9235 72.0208 16.7441 69.333 16.7441H42.667C39.9792 16.7441 37.7998 18.9235 37.7998 21.6113V49.3885C37.7998 52.0763 39.9792 54.2557 42.667 54.2557V56.0554L42.3232 56.0467C38.8009 55.8679 36 52.9552 36 49.3885V21.6113C36 18.0446 38.8009 15.1319 42.3232 14.9531L42.667 14.9443H69.333C73.0149 14.9443 76 17.9294 76 21.6113V49.3885C76 52.9552 73.1991 55.8679 69.6768 56.0467L69.333 56.0554V54.2557C72.0208 54.2557 74.2002 52.0763 74.2002 49.3885Z" fill="#4D4D4D"/>
<path d="M41.5547 24.834C41.5547 23.6067 42.5496 22.6118 43.7769 22.6118H51.3325C52.5598 22.6118 53.5547 23.6067 53.5547 24.834V28.3896C53.5547 29.6169 52.5598 30.6118 51.3325 30.6118H43.7769C42.5496 30.6118 41.5547 29.6169 41.5547 28.3896V24.834Z" fill="white"/>
<path d="M51.332 28.812V30.6118H43.7773V28.812H51.332ZM51.7549 28.3892V24.8345C51.7549 24.6013 51.5652 24.4116 51.332 24.4116H43.7773C43.5442 24.4116 43.3545 24.6013 43.3545 24.8345V28.3892C43.3545 28.6223 43.5442 28.812 43.7773 28.812V30.6118L43.5498 30.6001C42.4292 30.4863 41.5547 29.5398 41.5547 28.3892V24.8345C41.5547 23.6839 42.4292 22.7373 43.5498 22.6235L43.7773 22.6118H51.332C52.5593 22.6118 53.5547 23.6072 53.5547 24.8345V28.3892C53.5547 29.6165 52.5593 30.6118 51.332 30.6118V28.812C51.5652 28.812 51.7549 28.6223 51.7549 28.3892Z" fill="#4D4D4D"/>
<path d="M41.5549 34.945C41.5549 33.7177 42.5498 32.7228 43.7771 32.7228H69.3327C70.56 32.7228 71.5549 33.7177 71.5549 34.945V38.2783C71.5549 39.5056 70.56 40.5006 69.3327 40.5006H43.7771C42.5498 40.5006 41.5549 39.5056 41.5549 38.2783V34.945Z" fill="white"/>
<path d="M69.3322 38.7003V40.5001H43.7776V38.7003H69.3322ZM69.7551 38.2784V34.9454C69.7551 34.7122 69.5654 34.5226 69.3322 34.5226H43.7776C43.5444 34.5226 43.3547 34.7122 43.3547 34.9454V38.2784C43.3548 38.5116 43.5444 38.7003 43.7776 38.7003V40.5001L43.55 40.4894C42.5042 40.3832 41.673 39.5517 41.5666 38.506L41.5549 38.2784V34.9454C41.5549 33.7948 42.4294 32.8483 43.55 32.7345L43.7776 32.7228H69.3322C70.5595 32.7228 71.5549 33.7181 71.5549 34.9454V38.2784L71.5432 38.506C71.4292 39.6263 70.4827 40.5001 69.3322 40.5001V38.7003C69.5654 38.7003 69.755 38.5116 69.7551 38.2784Z" fill="#4D4D4D"/>
<path d="M55.5547 24.834C55.5547 23.6067 56.5496 22.6118 57.7769 22.6118H64.3325C65.5598 22.6118 66.5547 23.6067 66.5547 24.834V28.3896C66.5547 29.6169 65.5598 30.6118 64.3325 30.6118H57.7769C56.5496 30.6118 55.5547 29.6169 55.5547 28.3896V24.834Z" fill="white"/>
<path d="M64.332 28.812V30.6118H57.7773V28.812H64.332ZM64.7549 28.3892V24.8345C64.7549 24.6013 64.5652 24.4116 64.332 24.4116H57.7773C57.5442 24.4116 57.3545 24.6013 57.3545 24.8345V28.3892C57.3545 28.6223 57.5442 28.812 57.7773 28.812V30.6118L57.5498 30.6001C56.4292 30.4863 55.5547 29.5398 55.5547 28.3892V24.8345C55.5547 23.6839 56.4292 22.7373 57.5498 22.6235L57.7773 22.6118H64.332C65.5593 22.6118 66.5547 23.6072 66.5547 24.8345V28.3892C66.5547 29.6165 65.5593 30.6118 64.332 30.6118V28.812C64.5652 28.812 64.7549 28.6223 64.7549 28.3892Z" fill="#4D4D4D"/>
<path d="M52.667 44.945C52.667 43.7177 53.6619 42.7228 54.8892 42.7228H69.3337C70.561 42.7228 71.5559 43.7177 71.5559 44.945V48.2783C71.5559 49.5056 70.561 50.5006 69.3337 50.5006H54.8892C53.6619 50.5006 52.667 49.5056 52.667 48.2783V44.945Z" fill="#FFC552"/>
<path d="M69.334 48.7003V50.5001H54.8896V48.7003H69.334ZM69.7559 48.2784V44.9454C69.7559 44.7124 69.567 44.5228 69.334 44.5226H54.8896C54.6565 44.5226 54.4668 44.7122 54.4668 44.9454V48.2784C54.4669 48.5116 54.6565 48.7003 54.8896 48.7003V50.5001L54.6621 50.4894C53.6163 50.3832 52.7851 49.5517 52.6787 48.506L52.667 48.2784V44.9454C52.667 43.7948 53.5415 42.8483 54.6621 42.7345L54.8896 42.7228H69.334L69.5605 42.7345C70.6813 42.8482 71.5557 43.7947 71.5557 44.9454V48.2784L71.5439 48.506C71.4375 49.5517 70.6064 50.3833 69.5605 50.4894L69.334 50.5001V48.7003C69.567 48.7001 69.7558 48.5115 69.7559 48.2784Z" fill="#4D4D4D"/>
<path d="M82 15C82 19.4183 78.4183 23 74 23C69.5817 23 66 19.4183 66 15C66 10.5817 69.5817 7 74 7C78.4183 7 82 10.5817 82 15Z" fill="#FFC552"/>
<path d="M80.333 15C80.333 11.5022 77.4978 8.66699 74 8.66699C70.5022 8.66699 67.667 11.5022 67.667 15C67.667 18.4978 70.5022 21.333 74 21.333V23C69.5817 23 66 19.4183 66 15C66 10.5817 69.5817 7 74 7C78.4183 7 82 10.5817 82 15C82 19.4183 78.4183 23 74 23V21.333C77.4978 21.333 80.333 18.4978 80.333 15Z" fill="#4D4D4D"/>
<path d="M78.0303 13.0303L72.5 18.5605L69.9697 16.0303L71.0303 14.9697L72.5 16.4395L76.9697 11.9697L78.0303 13.0303Z" fill="#4D4D4D"/>
<path d="M30 0H54V3C54 4.65685 52.6569 6 51 6H33C31.3431 6 30 4.65685 30 3V0Z" fill="white"/>
<path d="M51 4.2002V6H33V4.2002H51ZM52.2002 3V1.7998H31.7998V3C31.7998 3.66274 32.3373 4.2002 33 4.2002V6C31.3431 6 30 4.65685 30 3V0H54V3C54 4.65685 52.6569 6 51 6V4.2002C51.6627 4.2002 52.2002 3.66274 52.2002 3Z" fill="#4D4D4D"/>
</g>
<defs>
<clipPath id="clip0_2311_3758">
<rect width="84" height="68" fill="white"/>
</clipPath>
</defs>
</svg>
