<svg width="84" height="68" viewBox="0 0 84 68" fill="none" xmlns="http://www.w3.org/2000/svg">
<path d="M20 6C20 2.68629 22.6863 0 26 0H58C61.3137 0 64 2.68629 64 6V62C64 65.3137 61.3137 68 58 68H26C22.6863 68 20 65.3137 20 62V6Z" fill="white"/>
<path d="M58 66.2002V68H26V66.2002H58ZM62.2002 62V6C62.2002 3.6804 60.3196 1.7998 58 1.7998H26C23.6804 1.7998 21.7998 3.6804 21.7998 6V62C21.7998 64.3196 23.6804 66.2002 26 66.2002V68L25.6914 67.9922C22.6233 67.8367 20.1633 65.3767 20.0078 62.3086L20 62V6C20 2.68629 22.6863 9.66385e-08 26 0H58C61.3137 0 64 2.68629 64 6V62L63.9922 62.3086C63.8367 65.3767 61.3767 67.8367 58.3086 67.9922L58 68V66.2002C60.3196 66.2002 62.2002 64.3196 62.2002 62Z" fill="#4D4D4D"/>
<path d="M30 0H54V3C54 4.65685 52.6569 6 51 6H33C31.3431 6 30 4.65685 30 3V0Z" fill="white"/>
<path d="M51 4.2002V6H33V4.2002H51ZM52.2002 3V1.7998H31.7998V3C31.7998 3.66274 32.3373 4.2002 33 4.2002V6C31.3431 6 30 4.65685 30 3V0H54V3C54 4.65685 52.6569 6 51 6V4.2002C51.6627 4.2002 52.2002 3.66274 52.2002 3Z" fill="#4D4D4D"/>
<path d="M56.4888 33.5671C56.4888 27.097 49.9544 21.833 41.9221 21.833C33.8899 21.833 27.3555 27.097 27.3555 33.5671C27.3555 39.3678 32.5382 44.2251 39.5383 45.144C40.012 45.2457 40.6578 45.4544 40.8217 45.8569C40.9691 46.2228 40.9173 46.7948 40.8695 47.1648C40.8695 47.1648 40.6988 48.1853 40.6619 48.4021C40.5978 48.7681 40.3698 49.832 41.9235 49.1814C43.4786 48.5309 50.3121 44.278 53.3677 40.7868C55.4785 38.4882 56.4902 36.1571 56.4902 33.5671H56.4888Z" fill="#4BCB49"/>
<path d="M41.9219 20.0332C49.8863 20.0332 57.0691 24.8948 58.1484 31.7676H58.29V33.5674C58.29 36.6863 57.0502 39.4236 54.7207 41.9717L54.7217 41.9727C53.0424 43.8912 50.4199 45.9291 48.1074 47.5293C45.8145 49.116 43.5839 50.4367 42.6182 50.8408C42.1276 51.0462 41.5425 51.2241 40.9336 51.1807C40.1973 51.1281 39.5068 50.75 39.1162 50.0537C38.806 49.5005 38.8043 48.9467 38.8154 48.6914C38.8278 48.4067 38.8802 48.139 38.8887 48.0908C38.908 47.9771 38.9578 47.6796 39.0039 47.4043C39.0275 47.2635 39.0508 47.1292 39.0674 47.0303C39.0756 46.9809 39.0822 46.9403 39.0869 46.9121V46.9102C39.0875 46.9053 39.0873 46.9003 39.0879 46.8955C31.6007 45.8265 25.5558 40.4851 25.5557 33.5674C25.5557 25.7593 33.2786 20.0333 41.9219 20.0332ZM27.3594 33.8379C27.5177 39.5183 32.6474 44.2389 39.5381 45.1436C40.0116 45.2452 40.6571 45.4543 40.8213 45.8564C40.9687 46.2224 40.9169 46.795 40.8691 47.165C40.8657 47.1857 40.6986 48.1877 40.6621 48.4023C40.5979 48.7684 40.3703 49.8321 41.9238 49.1816C43.4793 48.5308 50.3115 44.2781 53.3672 40.7871C55.4779 38.4886 56.4902 36.1572 56.4902 33.5674H56.4893C56.4893 27.0972 49.9541 21.833 41.9219 21.833C33.8898 21.8331 27.3555 27.0973 27.3555 33.5674L27.3594 33.8379Z" fill="#4D4D4D"/>
<path d="M51.6458 37.3044H47.5539C47.3996 37.3044 47.2754 37.181 47.2754 37.0279V37.0238V30.7244V30.7176C47.2754 30.5645 47.3996 30.4412 47.5539 30.4412H51.6458C51.7987 30.4412 51.9243 30.5658 51.9243 30.7176V31.7436C51.9243 31.8967 51.8001 32.0201 51.6458 32.0201H48.8646V33.0853H51.6458C51.7987 33.0853 51.9243 33.21 51.9243 33.3618V34.3878C51.9243 34.5409 51.8001 34.6642 51.6458 34.6642H48.8646V35.7295H51.6458C51.7987 35.7295 51.9243 35.8542 51.9243 36.006V37.0319C51.9243 37.1851 51.8001 37.3084 51.6458 37.3084V37.3044Z" fill="white"/>
<path d="M36.5085 37.3038C36.6614 37.3038 36.787 37.1804 36.787 37.0273V36.0013C36.787 35.8495 36.6614 35.7248 36.5085 35.7248H33.7273V30.7157C33.7273 30.5639 33.6017 30.4392 33.4488 30.4392H32.4152C32.261 30.4392 32.1367 30.5625 32.1367 30.7157V37.0219V37.0273C32.1367 37.1804 32.261 37.3038 32.4152 37.3038H36.5071H36.5085Z" fill="white"/>
<path d="M38.9709 30.4412H37.9387C37.7849 30.4412 37.6602 30.5649 37.6602 30.7176V37.0279C37.6602 37.1806 37.7849 37.3044 37.9387 37.3044H38.9709C39.1247 37.3044 39.2494 37.1806 39.2494 37.0279V30.7176C39.2494 30.5649 39.1247 30.4412 38.9709 30.4412Z" fill="white"/>
<path d="M46.0025 30.4412H44.9689C44.8147 30.4412 44.6904 30.5645 44.6904 30.7176V34.465L41.7823 30.5658C41.7754 30.5564 41.7673 30.5469 41.7604 30.5374C41.7604 30.5374 41.7604 30.5374 41.7591 30.536C41.7536 30.5306 41.7481 30.5238 41.7427 30.5184C41.7413 30.5171 41.7386 30.5157 41.7372 30.5143C41.7318 30.5103 41.7277 30.5062 41.7222 30.5022C41.7195 30.5008 41.7167 30.4981 41.714 30.4967C41.7099 30.4927 41.7045 30.49 41.699 30.4872C41.6963 30.4859 41.6935 30.4832 41.6908 30.4818C41.6853 30.4791 41.6812 30.4764 41.6758 30.4737C41.673 30.4723 41.6703 30.471 41.6676 30.4696C41.6621 30.4669 41.6567 30.4642 41.6512 30.4628C41.6485 30.4628 41.6457 30.4601 41.6416 30.4601C41.6362 30.4588 41.6307 30.4561 41.6253 30.4547C41.6225 30.4547 41.6184 30.4534 41.6157 30.452C41.6102 30.452 41.6048 30.4493 41.5993 30.4479C41.5952 30.4479 41.5911 30.4479 41.587 30.4466C41.5816 30.4466 41.5775 30.4452 41.572 30.4452C41.5666 30.4452 41.5625 30.4452 41.557 30.4452C41.5543 30.4452 41.5502 30.4452 41.5474 30.4452H40.5207C40.3678 30.4452 40.2422 30.5686 40.2422 30.7217V37.0319C40.2422 37.1837 40.3664 37.3084 40.5207 37.3084H41.5543C41.7085 37.3084 41.8328 37.1851 41.8328 37.0319V33.2846L44.745 37.1892C44.7655 37.2176 44.7901 37.2407 44.8174 37.2583C44.8174 37.2583 44.8201 37.2596 44.8201 37.261C44.8256 37.2651 44.831 37.2678 44.8379 37.2718C44.8406 37.2732 44.8433 37.2745 44.8461 37.2759C44.8502 37.2786 44.8556 37.28 44.8597 37.2827C44.8638 37.2854 44.8693 37.2867 44.8734 37.2881C44.8761 37.2881 44.8788 37.2908 44.8816 37.2908C44.8884 37.2935 44.8939 37.2949 44.9007 37.2962C44.9007 37.2962 44.9034 37.2962 44.9048 37.2962C44.928 37.3016 44.9526 37.3057 44.9771 37.3057H46.0039C46.1568 37.3057 46.2824 37.1824 46.2824 37.0292V30.719C46.2824 30.5672 46.1581 30.4425 46.0039 30.4425L46.0025 30.4412Z" fill="white"/>
</svg>
