<svg width="84" height="68" viewBox="0 0 84 68" fill="none" xmlns="http://www.w3.org/2000/svg">
<path d="M67.6829 9.80859C69.9105 9.80859 71.7171 11.6142 71.7171 13.8418V46.2246H69.9163V13.8418C69.9163 12.6084 68.9164 11.6084 67.6829 11.6084H16.3167C15.0833 11.6084 14.0833 12.6084 14.0833 13.8418V46.2246H12.2835V13.8418C12.2835 11.6142 14.0892 9.80859 16.3167 9.80859H67.6829Z" fill="#4D4D4D"/>
<path d="M35.2998 50.6918C35.9164 50.6918 36.4167 51.1915 36.417 51.808V52.9251H47.583V51.808C47.5833 51.1915 48.0836 50.6918 48.7002 50.6918H75.0537C75.3001 50.692 75.4998 50.8917 75.5 51.138V51.808C75.5 54.8913 73.0004 57.3916 69.917 57.3918H14.083C10.9996 57.3916 8.5 54.8913 8.5 51.808V51.138C8.5002 50.8917 8.6999 50.692 8.94629 50.6918H35.2998Z" fill="#9CC1E8"/>
<path d="M6.7002 51.808V51.1361C6.70147 49.8971 7.70537 48.8932 8.94434 48.892H35.2998V50.6918H8.94629C8.6999 50.692 8.5002 50.8917 8.5 51.1381V51.808C8.5 54.8915 10.9996 57.3918 14.083 57.392H69.917C73.0004 57.3918 75.5 54.8915 75.5 51.808V51.1381C75.4998 50.8917 75.3001 50.692 75.0537 50.6918H48.7002V48.892H75.0557C76.2947 48.8932 77.2985 49.8972 77.2998 51.1361V51.808C77.2998 55.8853 73.9948 59.1915 69.917 59.1918H14.083C10.0052 59.1915 6.7002 55.8853 6.7002 51.808ZM48.7002 50.6918C48.0836 50.6918 47.5833 51.1915 47.583 51.808V52.9252H36.417V51.808C36.4167 51.1915 35.9164 50.6918 35.2998 50.6918V48.892C36.6743 48.892 37.8248 49.8439 38.1328 51.1254H45.8672C46.1752 49.8439 47.3257 48.892 48.7002 48.892V50.6918Z" fill="#4D4D4D"/>
<path d="M55.0065 37C54.3878 37 54.0785 36.6854 54.0785 36.056V26.744C54.0785 26.3814 54.1692 26.136 54.3505 26.008C54.5425 25.8694 54.8198 25.8 55.1825 25.8C55.6732 25.8 56.0465 26.0134 56.3025 26.44L59.1345 31.176L61.9345 26.456C62.0838 26.1894 62.2545 26.0134 62.4465 25.928C62.6492 25.8427 62.9105 25.8 63.2305 25.8C63.8598 25.8 64.1745 26.1147 64.1745 26.744V36.056C64.1745 36.6854 63.8598 37 63.2305 37C62.6012 37 62.2865 36.6854 62.2865 36.056V29.016L60.0305 32.92C59.8065 33.3574 59.5025 33.576 59.1185 33.576C58.7345 33.576 58.4305 33.3574 58.2065 32.92L55.9345 29.016V36.056C55.9345 36.6854 55.6252 37 55.0065 37Z" fill="#4D4D4D"/>
<path d="M46.1815 37.2561C45.1682 37.2561 44.2615 37.0161 43.4615 36.5361C42.6722 36.0561 42.0535 35.3788 41.6055 34.5041C41.1575 33.6188 40.9335 32.5841 40.9335 31.4001C40.9335 30.2054 41.1575 29.1708 41.6055 28.2961C42.0535 27.4108 42.6722 26.7281 43.4615 26.2481C44.2615 25.7574 45.1682 25.5121 46.1815 25.5121C47.1948 25.5121 48.0908 25.7574 48.8695 26.2481C49.6588 26.7281 50.2775 27.4108 50.7255 28.2961C51.1842 29.1708 51.4135 30.2054 51.4135 31.4001C51.4135 32.5841 51.1842 33.6188 50.7255 34.5041C50.2775 35.3788 49.6588 36.0561 48.8695 36.5361C48.0908 37.0161 47.1948 37.2561 46.1815 37.2561ZM46.1815 35.4641C46.8535 35.4641 47.4348 35.2988 47.9255 34.9681C48.4162 34.6268 48.7948 34.1521 49.0615 33.5441C49.3388 32.9254 49.4775 32.2108 49.4775 31.4001C49.4775 30.5788 49.3388 29.8641 49.0615 29.2561C48.7948 28.6374 48.4162 28.1628 47.9255 27.8321C47.4348 27.4908 46.8535 27.3201 46.1815 27.3201C45.5202 27.3201 44.9388 27.4908 44.4375 27.8321C43.9362 28.1628 43.5468 28.6374 43.2695 29.2561C43.0028 29.8641 42.8695 30.5788 42.8695 31.4001C42.8695 32.2108 43.0028 32.9254 43.2695 33.5441C43.5468 34.1521 43.9362 34.6268 44.4375 34.9681C44.9388 35.2988 45.5202 35.4641 46.1815 35.4641Z" fill="#4D4D4D"/>
<path d="M33.909 37.2561C32.8957 37.2561 31.989 37.0161 31.189 36.5361C30.3997 36.0561 29.781 35.3788 29.333 34.5041C28.885 33.6188 28.661 32.5841 28.661 31.4001C28.661 30.2054 28.885 29.1708 29.333 28.2961C29.781 27.4108 30.3997 26.7281 31.189 26.2481C31.989 25.7574 32.8957 25.5121 33.909 25.5121C34.9223 25.5121 35.8183 25.7574 36.597 26.2481C37.3863 26.7281 38.005 27.4108 38.453 28.2961C38.9117 29.1708 39.141 30.2054 39.141 31.4001C39.141 32.5841 38.9117 33.6188 38.453 34.5041C38.005 35.3788 37.3863 36.0561 36.597 36.5361C35.8183 37.0161 34.9223 37.2561 33.909 37.2561ZM33.909 35.4641C34.581 35.4641 35.1623 35.2988 35.653 34.9681C36.1437 34.6268 36.5223 34.1521 36.789 33.5441C37.0663 32.9254 37.205 32.2108 37.205 31.4001C37.205 30.5788 37.0663 29.8641 36.789 29.2561C36.5223 28.6374 36.1437 28.1628 35.653 27.8321C35.1623 27.4908 34.581 27.3201 33.909 27.3201C33.2477 27.3201 32.6663 27.4908 32.165 27.8321C31.6637 28.1628 31.2743 28.6374 30.997 29.2561C30.7303 29.8641 30.597 30.5788 30.597 31.4001C30.597 32.2108 30.7303 32.9254 30.997 33.5441C31.2743 34.1521 31.6637 34.6268 32.165 34.9681C32.6663 35.2988 33.2477 35.4641 33.909 35.4641Z" fill="#4D4D4D"/>
<path d="M19.52 37C18.8907 37 18.576 36.712 18.576 36.136V35.928C18.576 35.5014 18.704 35.1067 18.96 34.744L24.112 27.512H19.712C19.4133 27.512 19.1787 27.4427 19.008 27.304C18.848 27.1547 18.768 26.9414 18.768 26.664C18.768 26.088 19.0827 25.8 19.712 25.8H25.456C26.0853 25.8 26.4 26.088 26.4 26.664V26.872C26.4 27.3094 26.272 27.6987 26.016 28.04L20.864 35.288H25.6C26.2293 35.288 26.544 35.5707 26.544 36.136C26.544 36.712 26.2293 37 25.6 37H19.52Z" fill="#4D4D4D"/>
</svg>
