<svg width="84" height="68" viewBox="0 0 84 68" fill="none" xmlns="http://www.w3.org/2000/svg">
<path d="M34.197 20.2279L31.6319 22.0875H26.5017L26.0741 20.6928L27.3567 15.5789L31.6319 10.9298L37.6172 10L43.6024 11.3947L46.1676 13.7192L47.7985 18.3683V23.9036L43.6024 22.0875L36.7621 17.9034L35.4796 18.3683L34.197 20.2279Z" fill="#52BB70"/>
<path d="M37.6545 25.8727C38.2513 25.8727 38.735 25.3927 38.735 24.8006C38.735 24.2085 38.2513 23.7285 37.6545 23.7285C37.0578 23.7285 36.574 24.2085 36.574 24.8006C36.574 25.3927 37.0578 25.8727 37.6545 25.8727Z" fill="#4D4D4D"/>
<path d="M43.1204 25.8727C43.7171 25.8727 44.2009 25.3927 44.2009 24.8006C44.2009 24.2085 43.7171 23.7285 43.1204 23.7285C42.5236 23.7285 42.0398 24.2085 42.0398 24.8006C42.0398 25.3927 42.5236 25.8727 43.1204 25.8727Z" fill="#4D4D4D"/>
<path d="M36.9373 16.2304C37.3953 16.0373 37.9229 16.2519 38.116 16.7099C38.1643 16.8242 38.2846 17.0063 38.5242 17.2499C38.7568 17.4863 39.0649 17.7437 39.4344 18.0136C40.1736 18.5535 41.0994 19.1007 42.0213 19.5956C42.9391 20.0883 43.8331 20.5177 44.4989 20.8251C44.831 20.9784 45.1052 21.1008 45.2957 21.1845C45.3909 21.2263 45.4655 21.2587 45.5155 21.2802C45.5404 21.2909 45.5596 21.2993 45.5721 21.3046C45.5782 21.3072 45.5829 21.3092 45.5858 21.3105C45.587 21.311 45.5881 21.3112 45.5887 21.3114C46.0467 21.5046 46.2623 22.0331 46.0692 22.4911C45.888 22.9205 45.4125 23.1358 44.9764 23.0019L44.8895 22.9706L44.8836 22.9677C44.8798 22.9661 44.8741 22.9639 44.867 22.9609C44.8527 22.9548 44.8315 22.9461 44.8045 22.9345C44.7505 22.9113 44.6718 22.8767 44.5721 22.8329C44.3727 22.7454 44.0877 22.6186 43.744 22.4599C43.0572 22.1428 42.1291 21.6965 41.1697 21.1816C40.2145 20.6688 39.2077 20.0765 38.3729 19.4667C37.9553 19.1617 37.5645 18.8414 37.241 18.5126C36.9248 18.1911 36.6311 17.82 36.4578 17.4091C36.2647 16.9511 36.4793 16.4235 36.9373 16.2304Z" fill="#4D4D4D"/>
<path d="M28.8493 20.1601C30.193 20.2217 31.535 20.7508 32.1647 21.0517C32.6132 21.266 32.8028 21.8034 32.5885 22.2519C32.3742 22.7002 31.8368 22.8899 31.3884 22.6757C30.8511 22.4191 29.7625 22.0046 28.7673 21.9589C28.2755 21.9364 27.8829 22.0074 27.6012 22.1601C27.3497 22.2965 27.1176 22.5333 26.9802 23.0126C26.6468 24.1749 26.8825 24.9552 27.2546 25.4335C27.6454 25.936 28.2711 26.2167 28.903 26.2167C29.1457 26.2169 29.3782 26.3152 29.5475 26.4892C29.7169 26.6632 29.809 26.8987 29.8024 27.1415C29.795 27.4226 29.9474 27.8569 30.4167 28.4111C30.8716 28.9481 31.5461 29.5021 32.363 30.0019C34.0125 31.0112 36.0612 31.6896 37.694 31.6425C39.37 31.5941 41.0665 31.004 42.4587 30.1933C43.8764 29.3676 44.8442 28.3931 45.1872 27.6884C45.4046 27.2415 45.9434 27.055 46.3903 27.2724C46.8373 27.4899 47.0228 28.0286 46.8053 28.4755C46.2405 29.6362 44.929 30.838 43.3649 31.749C41.7749 32.6749 39.7867 33.3824 37.7458 33.4413C35.6617 33.5014 33.2695 32.6674 31.4235 31.538C30.4926 30.9684 29.6551 30.2961 29.0436 29.5742C28.6337 29.0902 28.2835 28.5344 28.113 27.9355C27.2442 27.7583 26.4179 27.2891 25.8337 26.538C25.0552 25.537 24.7837 24.1413 25.2497 22.5165C25.512 21.6022 26.0412 20.959 26.7438 20.5781C27.4164 20.2135 28.1714 20.129 28.8493 20.1601Z" fill="#4D4D4D"/>
<path d="M46.6311 24.0923C46.6311 23.7372 46.6774 23.226 46.721 22.686C46.7664 22.1226 46.8155 21.4679 46.8343 20.7554C46.8719 19.323 46.7855 17.701 46.3274 16.1958C45.8731 14.703 45.0626 13.3535 43.6594 12.395C42.2509 11.4329 40.1462 10.7967 36.9788 10.9253C33.8027 11.0542 31.6717 11.8116 30.2395 12.8022C28.814 13.7883 28.0168 15.0507 27.5794 16.312C27.1379 17.5853 27.0629 18.8606 27.1048 19.8325C27.1255 20.3152 27.1749 20.7145 27.218 20.9897C27.2396 21.1271 27.2588 21.2333 27.2727 21.3022C27.2797 21.3367 27.2859 21.3621 27.2893 21.3774C27.291 21.385 27.2917 21.3905 27.2923 21.3931L27.2932 21.394H27.2923C27.4087 21.8767 27.1128 22.3628 26.6302 22.48C26.1472 22.5971 25.6604 22.2999 25.5432 21.8169L26.4182 21.605L25.5432 21.8159V21.8149C25.543 21.8139 25.5426 21.8124 25.5423 21.811C25.5416 21.8084 25.5402 21.8052 25.5393 21.8013C25.5375 21.7933 25.5354 21.7822 25.5325 21.769C25.5266 21.7426 25.5184 21.7059 25.5091 21.6597C25.4902 21.5667 25.4657 21.4345 25.4397 21.269C25.3879 20.9383 25.3301 20.4704 25.3059 19.9097C25.258 18.7945 25.3393 17.2762 25.8782 15.7222C26.4213 14.1559 27.4297 12.5569 29.2151 11.3218C30.9941 10.0912 33.4798 9.26655 36.9055 9.12743C40.3402 8.988 42.8603 9.66905 44.6751 10.9087C46.495 12.1519 47.5066 13.8892 48.0491 15.6714C48.5877 17.4412 48.673 19.2824 48.6331 20.8022C48.613 21.5657 48.5609 22.2604 48.5149 22.8306C48.4671 23.4238 48.4319 23.831 48.4319 24.0923C48.4319 24.5893 48.0286 24.9927 47.5315 24.9927C47.0345 24.9927 46.6311 24.5893 46.6311 24.0923Z" fill="#4D4D4D"/>
<path d="M69.0454 37.1159C70.5255 37.0576 71.5143 37.4213 71.9985 38.193C72.2251 38.5544 72.2778 38.9175 72.2778 39.1755C72.2778 39.3053 72.2648 39.4164 72.2505 39.4987C72.2433 39.5401 72.2359 39.5758 72.229 39.6042C72.2278 39.6093 72.2263 39.6141 72.2251 39.6188L72.2231 39.6276C72.2214 39.6351 72.2188 39.6463 72.2153 39.6608C72.2083 39.6906 72.1977 39.7351 72.1841 39.7927C72.1567 39.9082 72.1163 40.0783 72.0649 40.2946C71.9622 40.7272 71.8146 41.3463 71.6362 42.0934C71.2795 43.588 70.7987 45.5954 70.3013 47.6432C69.804 49.6905 69.2893 51.7811 68.8667 53.443C68.6555 54.2737 68.4662 55.001 68.313 55.5632C68.1661 56.1021 68.038 56.5452 67.9507 56.7653C67.637 57.5561 67.1483 58.1072 66.4585 58.2106C66.1693 58.2539 65.9234 58.2 65.7495 58.1374C65.7476 58.1375 65.7456 58.1382 65.7437 58.1384C65.5915 58.147 65.3682 58.1603 65.0835 58.1764C64.514 58.2088 63.6988 58.2545 62.7163 58.3102C60.7515 58.4218 58.1172 58.5719 55.439 58.7233C50.0871 59.0259 44.5461 59.3374 43.8374 59.3698C42.8058 59.417 42.1353 58.957 41.77 58.3962C41.6045 58.142 41.5163 57.8917 41.4692 57.7106C41.4453 57.6185 41.4305 57.5387 41.4214 57.4782C41.4168 57.4479 41.4139 57.422 41.4116 57.4011C41.4105 57.3907 41.4094 57.3816 41.4087 57.3737C41.4083 57.3697 41.408 57.3653 41.4077 57.362V57.3542C41.412 57.3534 41.4719 57.3486 42.3052 57.2907L41.4077 57.3532C41.4009 57.255 41.4099 57.1564 41.4351 57.0612V57.0602L41.436 57.0583C41.4365 57.0567 41.4372 57.0544 41.438 57.0514C41.4397 57.045 41.4415 57.0348 41.4448 57.0222C41.4515 56.9969 41.4622 56.9596 41.4751 56.9108C41.5011 56.8128 41.5393 56.6684 41.5884 56.4841C41.6866 56.1154 41.8279 55.5854 42.0015 54.9411C42.3487 53.6524 42.8247 51.9041 43.3374 50.0651C44.3538 46.42 45.5422 42.3227 46.1626 40.8229C46.7544 39.3923 47.1616 38.6666 47.4858 38.3073C47.6217 38.1568 47.9483 37.8354 48.439 37.8757C48.4918 37.88 48.5417 37.8895 48.5894 37.9011L69.0454 37.1169V37.1159ZM69.1157 38.9138V38.9147L48.6909 39.6979C48.5336 39.95 48.2547 40.4757 47.8267 41.5104C47.2584 42.8841 46.102 46.8501 45.0708 50.5485C44.5599 52.381 44.0861 54.1244 43.7397 55.4098C43.5666 56.0525 43.4255 56.5807 43.3276 56.9479C43.2878 57.0974 43.2547 57.2201 43.23 57.3132C43.2425 57.3472 43.2575 57.3825 43.2778 57.4138C43.3064 57.4577 43.3408 57.4905 43.3882 57.5153C43.4345 57.5395 43.5414 57.5808 43.7554 57.571C44.4524 57.539 49.9756 57.2286 55.3364 56.9255C58.0147 56.774 60.6499 56.6249 62.6147 56.5134C63.5969 56.4576 64.4116 56.411 64.981 56.3786C65.2655 56.3624 65.489 56.3501 65.6411 56.3415C65.7172 56.3372 65.7757 56.334 65.8149 56.3317C65.8346 56.3306 65.8499 56.3294 65.8599 56.3288C65.8646 56.3285 65.8682 56.3289 65.8706 56.3288C65.8719 56.3287 65.8729 56.3278 65.8735 56.3278H65.8745L66.0347 56.3337C66.0755 56.3387 66.1152 56.3486 66.1548 56.3591C66.1884 56.3016 66.2312 56.2189 66.2778 56.1013C66.3203 55.994 66.4213 55.6596 66.5767 55.0895C66.726 54.5419 66.9124 53.8264 67.1226 52.9997C67.5428 51.3471 68.0555 49.2637 68.5522 47.2184C69.0489 45.1736 69.5288 43.1687 69.8853 41.6755C70.0634 40.9291 70.2104 40.3105 70.313 39.8786C70.3643 39.6626 70.4048 39.4929 70.4321 39.3776C70.4457 39.3203 70.4564 39.2764 70.4634 39.2468C70.4669 39.2319 70.4694 39.2201 70.4712 39.2126C70.472 39.2092 70.4727 39.2066 70.4731 39.2048L70.4741 39.2018L70.4878 39.1491V39.1511L70.4868 39.153C70.4863 39.1547 70.4853 39.1573 70.4849 39.1589C70.4841 39.1617 70.4836 39.1643 70.4829 39.1667C70.4815 39.1717 70.4808 39.1761 70.48 39.1794C70.4785 39.1855 70.4772 39.1891 70.4771 39.1901C70.4772 39.1889 70.478 39.1831 70.478 39.1755C70.478 39.1579 70.475 39.1515 70.4741 39.1501C70.4738 39.1496 70.467 39.1376 70.4429 39.1188C70.4177 39.0993 70.3657 39.0665 70.272 39.0319C70.0779 38.9604 69.7227 38.8899 69.1157 38.9138ZM66.4722 56.5124H66.4731L66.4712 56.5114L66.4692 56.5095C66.4679 56.5085 66.4666 56.5075 66.4653 56.5065C66.4625 56.5044 66.4592 56.5026 66.4565 56.5007C66.4513 56.4969 66.4466 56.4931 66.4419 56.4899C66.4325 56.4835 66.4235 56.4781 66.4155 56.4733C66.4095 56.4697 66.4032 56.4668 66.397 56.4636C66.4224 56.4792 66.4483 56.4941 66.4722 56.5124ZM47.6753 39.3122C47.6489 39.2732 47.6253 39.2318 47.605 39.1882C47.6052 39.1887 47.6064 39.191 47.6069 39.1921C47.608 39.1942 47.6088 39.1967 47.6099 39.1989C47.6119 39.2032 47.6145 39.2072 47.6167 39.2116C47.6212 39.2206 47.6261 39.2304 47.6314 39.2399C47.6417 39.2587 47.6535 39.2794 47.6675 39.3005C47.67 39.3043 47.6726 39.3082 47.6753 39.3122ZM47.6753 39.3122C47.6894 39.3327 47.7066 39.3545 47.7261 39.3776C47.7086 39.3563 47.6908 39.3352 47.6753 39.3122Z" fill="#4D4D4D"/>
<path d="M58.3572 51.9728C60.2769 51.9728 61.8331 50.4166 61.8331 48.4969C61.8331 46.5772 60.2769 45.021 58.3572 45.021C56.4375 45.021 54.8813 46.5772 54.8813 48.4969C54.8813 50.4166 56.4375 51.9728 58.3572 51.9728Z" fill="#52BB70"/>
<path d="M60.0327 48.4966C60.0325 47.5712 59.2823 46.8208 58.3569 46.8208C57.4315 46.821 56.6813 47.5713 56.6811 48.4966C56.6811 49.4221 57.4314 50.1722 58.3569 50.1724V51.9731L58.1782 51.9683C56.3417 51.8751 54.8813 50.3562 54.8813 48.4966C54.8815 46.5771 56.4374 45.0212 58.3569 45.021C60.2765 45.021 61.8333 46.577 61.8334 48.4966L61.8286 48.6753C61.7357 50.5121 60.2167 51.9731 58.3569 51.9731V50.1724C59.2824 50.1724 60.0327 49.4222 60.0327 48.4966Z" fill="#4D4D4D"/>
<path d="M25.5233 41.5916C26.0191 41.6228 26.3959 42.0499 26.3651 42.5457V42.5496C26.365 42.5523 26.3645 42.5569 26.3642 42.5623C26.3635 42.5731 26.3625 42.5892 26.3612 42.6102C26.3587 42.6529 26.3551 42.7164 26.3505 42.7977C26.3413 42.9602 26.3286 43.1949 26.3144 43.4813C26.2859 44.0544 26.2511 44.8337 26.2284 45.6609C26.2056 46.4901 26.1951 47.3602 26.2118 48.1151C26.2291 48.8949 26.2753 49.475 26.3437 49.7703C26.4557 50.2545 26.154 50.7383 25.6698 50.8504C25.1857 50.9624 24.702 50.6606 24.5897 50.1766C24.4745 49.6786 24.4291 48.9259 24.412 48.1541C24.3943 47.3573 24.4064 46.4552 24.4296 45.6121C24.4528 44.7673 24.4876 43.9733 24.5165 43.3914C24.531 43.1003 24.5442 42.8613 24.5536 42.6951C24.5583 42.6122 24.5617 42.5471 24.5644 42.5027C24.5657 42.4807 24.5666 42.4635 24.5673 42.452C24.5676 42.4465 24.5681 42.4423 24.5683 42.4393V42.4344C24.5992 41.9383 25.0272 41.5607 25.5233 41.5916Z" fill="#4D4D4D"/>
<path d="M43.2796 46.5574C43.7683 46.4666 44.2377 46.7894 44.3285 47.2781C44.4191 47.7666 44.0972 48.236 43.6087 48.3269L18.7992 52.9373C18.3106 53.0278 17.8411 52.7051 17.7503 52.2166C17.6595 51.7279 17.9823 51.2586 18.471 51.1678L43.2796 46.5574Z" fill="#4D4D4D"/>
<path d="M42.959 51.0937C43.445 50.9898 43.9233 51.2992 44.0273 51.7851C44.1313 52.2711 43.8218 52.7493 43.3359 52.8535L32.0225 55.2734C32.0079 55.2968 31.9933 55.3186 31.9824 55.3408C31.951 55.405 31.9453 55.443 31.9443 55.456C31.9471 55.4603 31.9524 55.467 31.9609 55.4765C31.9994 55.5194 32.1119 55.6176 32.3848 55.7226C32.6514 55.8251 33.4305 55.9987 34.5664 56.207C35.6617 56.4078 36.993 56.6246 38.2852 56.8252C39.5761 57.0255 40.8229 57.2087 41.7471 57.3418C42.209 57.4083 42.59 57.4627 42.8555 57.5C42.9882 57.5186 43.0925 57.5331 43.1631 57.5429C43.1982 57.5478 43.2251 57.5512 43.2432 57.5537C43.2522 57.5549 43.2591 57.556 43.2637 57.5566C43.2658 57.5569 43.2674 57.5574 43.2686 57.5576H43.2705C43.7628 57.6256 44.107 58.0799 44.0391 58.5722C43.971 59.0645 43.5158 59.4087 43.0234 59.3408L43.0225 59.3398C43.0213 59.3397 43.0196 59.3401 43.0176 59.3398C43.0129 59.3392 43.0053 59.3382 42.9961 59.3369C42.9777 59.3343 42.9505 59.3301 42.915 59.3252C42.8438 59.3152 42.7389 59.3009 42.6055 59.2822C42.3382 59.2446 41.9545 59.1898 41.4902 59.123C40.562 58.9894 39.3082 58.8051 38.0088 58.6035C36.7107 58.402 35.3611 58.1827 34.2422 57.9775C33.1643 57.7799 32.195 57.5785 31.7373 57.4023C30.8273 57.0519 30.1953 56.4327 30.1465 55.5615C30.1046 54.8116 30.5282 54.192 30.874 53.8349L30.9736 53.7461C31.0791 53.6654 31.2021 53.609 31.333 53.581L42.959 51.0937Z" fill="#4D4D4D"/>
<path d="M36.654 16.9137C37.1494 16.9536 37.5191 17.388 37.4792 17.8834C37.4264 18.5381 37.1113 19.076 36.7585 19.484C36.4056 19.892 35.9725 20.22 35.5798 20.4703C35.1825 20.7235 34.7955 20.9173 34.5104 21.0465C34.3668 21.1116 34.2461 21.1614 34.1599 21.1959C34.1169 21.2131 34.0823 21.2265 34.0573 21.236C34.0448 21.2407 34.0346 21.2449 34.027 21.2477C34.0233 21.2491 34.0197 21.2497 34.0173 21.2506C34.0162 21.251 34.0152 21.2513 34.0143 21.2516L34.0134 21.2526H34.0124C33.5446 21.4207 33.0291 21.1774 32.861 20.7096C32.6931 20.2419 32.9363 19.7263 33.404 19.5582L33.4196 19.5524C33.4348 19.5466 33.4598 19.5369 33.4919 19.5241C33.5562 19.4983 33.6517 19.4593 33.7673 19.4069C34.0009 19.3009 34.3081 19.1471 34.613 18.9528C34.9223 18.7556 35.1991 18.5352 35.3972 18.3063C35.5954 18.077 35.6732 17.8882 35.6852 17.7389C35.7252 17.2435 36.1587 16.8739 36.654 16.9137Z" fill="#4D4D4D"/>
<path d="M23.6861 26.0646C24.0331 25.8133 24.5158 25.8405 24.8326 26.1408C25.0992 26.3934 25.5813 26.7031 26.2242 27.0363C26.8501 27.3606 27.5661 27.6758 28.2506 27.9543C28.9329 28.2319 29.5727 28.4688 30.0426 28.6359C30.2772 28.7193 30.469 28.7854 30.6012 28.8302C30.6671 28.8526 30.7182 28.8696 30.7525 28.881C30.7697 28.8867 30.7831 28.8909 30.7916 28.8937C30.7956 28.895 30.7985 28.896 30.8004 28.8966L30.8023 28.8976C31.2749 29.0518 31.5337 29.5598 31.3795 30.0324C31.2253 30.5048 30.7172 30.7626 30.2447 30.6085H30.2428L30.2281 30.6037C30.2181 30.6004 30.2038 30.5952 30.1851 30.589C30.1476 30.5765 30.0927 30.558 30.023 30.5343C29.8836 30.487 29.6838 30.4179 29.44 30.3312C28.9529 30.1579 28.286 29.9128 27.5719 29.6222C26.8599 29.3325 26.0889 28.9939 25.3961 28.6349C24.9968 28.428 24.6007 28.2013 24.2486 27.9621L17.7701 33.6652C17.908 33.8415 18.069 34.0501 18.2535 34.2804C18.8722 35.0526 19.7291 36.087 20.6832 37.1418C21.64 38.1995 22.6805 39.2619 23.6685 40.0978C24.6895 40.9615 25.5374 41.4809 26.1178 41.6115C26.6027 41.7205 26.9074 42.2018 26.7984 42.6867C26.6894 43.1716 26.2082 43.4764 25.7232 43.3673C24.6828 43.1334 23.5478 42.3528 22.5064 41.4718C21.4321 40.5629 20.3309 39.4351 19.3482 38.3488C18.3629 37.2595 17.4825 36.1958 16.8492 35.4054C16.5324 35.0101 16.2763 34.6821 16.0992 34.4523C16.0107 34.3374 15.9412 34.2468 15.8941 34.1847C15.8708 34.1539 15.8527 34.1298 15.8404 34.1134C15.8342 34.1052 15.829 34.0983 15.8258 34.0939C15.8242 34.0919 15.8227 34.0902 15.8219 34.089L15.8209 34.088V34.0871C15.5401 33.7114 15.595 33.1832 15.9469 32.8732L23.6187 26.1183L23.6861 26.0646Z" fill="#4D4D4D"/>
<path d="M48.9418 26.9317C49.2486 26.9712 49.5139 27.1656 49.6439 27.4463L52.5824 33.793C52.7481 34.151 52.6614 34.5747 52.3685 34.8389V34.8399L52.3646 34.8438C52.362 34.8462 52.3578 34.8492 52.3529 34.8535C52.3432 34.8623 52.329 34.8746 52.3109 34.8907C52.2746 34.9229 52.2218 34.9695 52.1557 35.0274C52.0234 35.143 51.8366 35.3054 51.6146 35.4912C51.1741 35.8601 50.5827 36.3348 50.0101 36.7325C49.6019 37.016 49.0408 36.9151 48.7572 36.5069C48.4739 36.0986 48.5756 35.5374 48.9838 35.2539C49.4916 34.9012 50.0356 34.4651 50.4594 34.1104C50.5326 34.0491 50.6 33.9885 50.6644 33.9336L48.5248 29.3145C48.1007 29.6316 47.657 29.9038 47.2787 30.1143C46.9122 30.3182 46.5791 30.4824 46.3373 30.5957C46.2161 30.6525 46.1172 30.6978 46.0473 30.7285C46.0123 30.7439 45.9839 30.7553 45.9642 30.7637C45.9545 30.7679 45.9464 30.7711 45.9408 30.7735C45.9381 30.7746 45.9356 30.7757 45.934 30.7764L45.932 30.7774H45.931V30.7784C45.4721 30.9692 44.9451 30.751 44.7543 30.292C44.5638 29.8332 44.781 29.3071 45.2396 29.1162L45.2426 29.1153C45.2455 29.114 45.2504 29.1114 45.2572 29.1084C45.2713 29.1024 45.2937 29.0928 45.3226 29.0801C45.3806 29.0547 45.4661 29.0158 45.5726 28.9659C45.7866 28.8655 46.0816 28.7203 46.4037 28.541C47.0761 28.1669 47.7594 27.7039 48.1322 27.252C48.329 27.0133 48.635 26.8922 48.9418 26.9317Z" fill="#4D4D4D"/>
<path d="M14.0625 17.3432C15.4562 17.3606 16.9667 18.2065 17.7188 19.5902C18.2732 20.6104 19.6956 22.5563 21.0283 24.3031C21.685 25.1639 22.3055 25.9581 22.7617 26.5365C22.9895 26.8254 23.176 27.0604 23.3057 27.2231C23.3705 27.3044 23.4218 27.3678 23.4561 27.4106C23.473 27.4318 23.4864 27.4476 23.4951 27.4584C23.4995 27.4638 23.5027 27.4684 23.5049 27.4711C23.5059 27.4723 23.5063 27.4734 23.5068 27.474C23.8183 27.8614 23.7575 28.4292 23.3701 28.7406C23.0069 29.0326 22.4862 28.9963 22.166 28.6713L22.1045 28.6029L22.1035 28.602C22.1029 28.6012 22.1027 28.5995 22.1016 28.5981C22.0992 28.5951 22.0954 28.591 22.0908 28.5854C22.0817 28.574 22.0683 28.5574 22.0508 28.5356C22.0158 28.4918 21.9641 28.4275 21.8984 28.3451C21.7671 28.1803 21.5787 27.9425 21.3486 27.6508C20.8885 27.0674 20.2618 26.2664 19.5977 25.3959C18.2887 23.6802 16.7719 21.6165 16.1377 20.4496C15.7012 19.6464 14.7912 19.1524 14.04 19.143C13.6837 19.1385 13.425 19.2418 13.2568 19.3998C13.0953 19.5517 12.9168 19.8479 12.9004 20.4311C12.8853 20.9672 13.1681 21.9132 13.7383 23.1606C14.2874 24.3617 15.0351 25.7025 15.7969 26.9662C16.5567 28.2266 17.3208 29.3944 17.8955 30.2484C18.1825 30.6748 18.4218 31.022 18.5889 31.2621C18.6723 31.382 18.7379 31.4756 18.7822 31.5385C18.8044 31.5699 18.8218 31.5939 18.833 31.6098C18.8386 31.6176 18.843 31.6235 18.8457 31.6273C18.847 31.6291 18.848 31.6304 18.8486 31.6313V31.6322C19.1375 32.0367 19.0441 32.5992 18.6397 32.8881C18.2353 33.1768 17.6737 33.0833 17.3848 32.6791H17.3838V32.6781L17.3828 32.6772C17.3819 32.6759 17.3805 32.6736 17.3789 32.6713C17.3757 32.6668 17.3712 32.6602 17.3652 32.6518C17.353 32.6345 17.3347 32.6095 17.3115 32.5766C17.2651 32.5107 17.1972 32.4138 17.1113 32.2904C16.9396 32.0437 16.6952 31.6885 16.4023 31.2533C15.8169 30.3833 15.0358 29.1887 14.2559 27.8949C13.4779 26.6045 12.6911 25.199 12.1016 23.9096C11.5333 22.6666 11.0735 21.3772 11.1016 20.3803C11.1284 19.4304 11.4388 18.6379 12.0234 18.0883C12.6015 17.5449 13.3466 17.3342 14.0625 17.3432Z" fill="#4D4D4D"/>
<path d="M58.5115 17.4759C59.2279 17.4956 59.9651 17.7364 60.5222 18.3021C61.0863 18.8749 61.3667 19.6796 61.3533 20.6312C61.3456 21.1774 61.1708 21.7835 60.9373 22.3744C60.6974 22.9812 60.3651 23.6466 59.9812 24.3324C59.213 25.7045 58.2014 27.2219 57.2049 28.6254C56.2059 30.0322 55.21 31.3401 54.4646 32.2953C54.0916 32.7732 53.7813 33.1644 53.5633 33.4359C53.4544 33.5715 53.3681 33.677 53.3094 33.7494C53.2801 33.7854 53.2574 33.8135 53.242 33.8324C53.2344 33.8416 53.2284 33.849 53.2244 33.8539C53.2224 33.8563 53.2206 33.8584 53.2195 33.8597L53.2185 33.8617H53.2176C52.9022 34.2458 52.3351 34.302 51.951 33.9867C51.5668 33.6713 51.5115 33.1033 51.8269 32.7191L51.8279 32.7181L51.8474 32.6937C51.8619 32.6761 51.8836 32.6494 51.9119 32.6146C51.9687 32.5448 52.0522 32.4409 52.159 32.308C52.3725 32.0421 52.6786 31.6583 53.0457 31.1879C53.7806 30.2462 54.7597 28.9611 55.7381 27.5834C56.7187 26.2023 57.6881 24.7437 58.4109 23.4525C58.7725 22.8066 59.0637 22.2176 59.2635 21.7123C59.4694 21.1912 59.5504 20.8261 59.5535 20.6058C59.5616 20.0247 59.3957 19.723 59.24 19.5648C59.0773 19.3996 58.8203 19.2846 58.4617 19.2748C57.7064 19.2542 56.7815 19.7131 56.325 20.4935C55.6539 21.6416 54.0556 23.6472 52.6804 25.309C51.9821 26.1528 51.3234 26.9288 50.8396 27.4935C50.5978 27.7758 50.3996 28.0059 50.2615 28.1654C50.1924 28.2451 50.1382 28.3077 50.1013 28.35C50.083 28.3711 50.0689 28.3878 50.0594 28.3988C50.0548 28.404 50.051 28.4077 50.0486 28.4105C50.0474 28.4119 50.0463 28.4137 50.0457 28.4144L50.0447 28.4154C49.7178 28.7895 49.1495 28.828 48.7752 28.5013C48.4009 28.1743 48.3622 27.6051 48.6892 27.2308L48.6902 27.2299C48.6908 27.2292 48.6912 27.2281 48.6922 27.2269C48.6944 27.2243 48.6983 27.2205 48.7029 27.2152C48.7121 27.2047 48.726 27.1889 48.7439 27.1683C48.7799 27.127 48.8332 27.0662 48.9012 26.9877C49.0374 26.8304 49.2329 26.6023 49.4724 26.3226C49.9517 25.763 50.6037 24.9954 51.2937 24.1615C52.6955 22.4676 54.188 20.5814 54.7703 19.5853C55.5673 18.222 57.1167 17.4377 58.5115 17.4759Z" fill="#4D4D4D"/>
</svg>
