<svg width="23" height="23" viewBox="0 0 23 23" fill="none" xmlns="http://www.w3.org/2000/svg">
<g clip-path="url(#clip0_2397_9148)">
<path d="M19.625 2.75H17.75V0.875C17.75 0.70924 17.6842 0.550269 17.5669 0.433058C17.4497 0.315848 17.2908 0.25 17.125 0.25C16.9592 0.25 16.8003 0.315848 16.6831 0.433058C16.5658 0.550269 16.5 0.70924 16.5 0.875V2.75H6.5V0.875C6.5 0.70924 6.43415 0.550269 6.31694 0.433058C6.19973 0.315848 6.04076 0.25 5.875 0.25C5.70924 0.25 5.55027 0.315848 5.43306 0.433058C5.31585 0.550269 5.25 0.70924 5.25 0.875V2.75H3.375C2.54647 2.75087 1.75212 3.08039 1.16625 3.66625C0.58039 4.25212 0.25087 5.04647 0.25 5.875V19.625C0.25087 20.4535 0.58039 21.2479 1.16625 21.8337C1.75212 22.4196 2.54647 22.7491 3.375 22.75H19.625C20.4535 22.7491 21.2479 22.4196 21.8337 21.8337C22.4196 21.2479 22.7491 20.4535 22.75 19.625V5.875C22.7491 5.04647 22.4196 4.25212 21.8337 3.66625C21.2479 3.08039 20.4535 2.75087 19.625 2.75ZM3.375 4H5.25V5.875C5.25 6.04076 5.31585 6.19973 5.43306 6.31694C5.55027 6.43415 5.70924 6.5 5.875 6.5C6.04076 6.5 6.19973 6.43415 6.31694 6.31694C6.43415 6.19973 6.5 6.04076 6.5 5.875V4H16.5V5.875C16.5 6.04076 16.5658 6.19973 16.6831 6.31694C16.8003 6.43415 16.9592 6.5 17.125 6.5C17.2908 6.5 17.4497 6.43415 17.5669 6.31694C17.6842 6.19973 17.75 6.04076 17.75 5.875V4H19.625C20.1221 4.00054 20.5987 4.19826 20.9502 4.54977C21.3017 4.90129 21.4995 5.37789 21.5 5.875V9H1.5V5.875C1.50054 5.37789 1.69826 4.90129 2.04977 4.54977C2.40129 4.19826 2.87789 4.00054 3.375 4ZM19.625 21.5H3.375C2.87789 21.4995 2.40129 21.3017 2.04977 20.9502C1.69826 20.5987 1.50054 20.1221 1.5 19.625V10.25H21.5V19.625C21.4995 20.1221 21.3017 20.5987 20.9502 20.9502C20.5987 21.3017 20.1221 21.4995 19.625 21.5Z" fill="#4D4D4D"/>
<path d="M0.0419922 19.625V5.875C0.0429204 4.99129 0.393676 4.14343 1.01855 3.51855C1.64343 2.89368 2.49129 2.54292 3.375 2.54199V2.75C2.54647 2.75087 1.75188 3.08015 1.16602 3.66602C0.580153 4.25188 0.25087 5.04647 0.25 5.875V19.625C0.25087 20.4535 0.580153 21.2481 1.16602 21.834C1.75188 22.4198 2.54647 22.7491 3.375 22.75H19.625C20.4018 22.7492 21.1486 22.4595 21.7217 21.9404L21.834 21.834C22.4198 21.2481 22.7491 20.4535 22.75 19.625V5.875C22.7492 5.09817 22.4595 4.35138 21.9404 3.77832L21.834 3.66602C21.2481 3.08015 20.4535 2.75087 19.625 2.75V2.54199C20.5087 2.54292 21.3566 2.89368 21.9814 3.51855C22.5674 4.10447 22.9125 4.88629 22.9541 5.70996L22.958 5.875V19.625C22.9571 20.5087 22.6063 21.3566 21.9814 21.9814C21.3566 22.6063 20.5087 22.9571 19.625 22.958H3.375C2.49129 22.9571 1.64343 22.6063 1.01855 21.9814C0.393676 21.3566 0.0429204 20.5087 0.0419922 19.625ZM19.625 21.292V21.5H3.375V21.292H19.625ZM21.292 19.625V10.458H1.70801V19.625C1.70855 20.0669 1.88482 20.4903 2.19727 20.8027C2.50971 21.1152 2.93314 21.2914 3.375 21.292V21.5C2.94018 21.4995 2.52095 21.3483 2.1875 21.0752L2.0498 20.9502C1.69829 20.5987 1.50054 20.1221 1.5 19.625V10.25H21.5V19.625C21.4995 20.1221 21.3017 20.5987 20.9502 20.9502C20.5987 21.3017 20.1221 21.4995 19.625 21.5V21.292C20.0669 21.2914 20.4903 21.1152 20.8027 20.8027C21.0763 20.5292 21.245 20.1706 21.2832 19.7891L21.292 19.625ZM16.292 5.875V4.20801H6.70801V5.875C6.70801 6.09601 6.62015 6.30759 6.46387 6.46387C6.30759 6.62015 6.09601 6.70801 5.875 6.70801C5.65399 6.70801 5.44241 6.62015 5.28613 6.46387C5.12985 6.30759 5.04199 6.09601 5.04199 5.875V4.20801H3.375C2.93314 4.20855 2.50971 4.38482 2.19727 4.69727C1.88482 5.00971 1.70855 5.43314 1.70801 5.875V8.79199H21.292V5.875C21.2914 5.43314 21.1152 5.00971 20.8027 4.69727C20.5292 4.42374 20.1706 4.25496 19.7891 4.2168L19.625 4.20801H17.958V5.875C17.958 6.09601 17.8701 6.30759 17.7139 6.46387C17.5576 6.62015 17.346 6.70801 17.125 6.70801C16.904 6.70801 16.6924 6.62015 16.5361 6.46387C16.3799 6.30759 16.292 6.09601 16.292 5.875ZM17.75 0.875C17.75 0.750613 17.7126 0.630284 17.6445 0.52832L17.5674 0.432617C17.4502 0.315407 17.2908 0.25 17.125 0.25C16.9592 0.25 16.7998 0.315407 16.6826 0.432617C16.5654 0.549827 16.5 0.70924 16.5 0.875V2.75H6.5V0.875C6.5 0.750613 6.46257 0.630284 6.39453 0.52832L6.31738 0.432617C6.20017 0.315407 6.04076 0.25 5.875 0.25C5.70924 0.25 5.54983 0.315407 5.43262 0.432617C5.31541 0.549827 5.25 0.70924 5.25 0.875V2.75H3.375V2.54199H5.04199V0.875C5.04199 0.653986 5.12985 0.442413 5.28613 0.286133C5.44241 0.129853 5.65399 0.0419922 5.875 0.0419922C6.09601 0.0419922 6.30759 0.129853 6.46387 0.286133C6.62015 0.442413 6.70801 0.653986 6.70801 0.875V2.54199H16.292V0.875C16.292 0.653987 16.3799 0.442413 16.5361 0.286133C16.6924 0.129853 16.904 0.0419922 17.125 0.0419922C17.346 0.0419922 17.5576 0.129853 17.7139 0.286133C17.8701 0.442413 17.958 0.653987 17.958 0.875V2.54199H19.625V2.75H17.75V0.875ZM21.5 9H1.5V5.875C1.50047 5.44018 1.65166 5.02095 1.9248 4.6875L2.0498 4.5498C2.40132 4.19829 2.87789 4.00054 3.375 4H5.25V5.875C5.25 6.04076 5.31541 6.20017 5.43262 6.31738C5.54983 6.43459 5.70924 6.5 5.875 6.5C5.99939 6.5 6.11972 6.46257 6.22168 6.39453L6.31738 6.31738C6.43459 6.20017 6.5 6.04076 6.5 5.875V4H16.5V5.875C16.5 6.04076 16.5654 6.20017 16.6826 6.31738C16.7998 6.43459 16.9592 6.5 17.125 6.5C17.2494 6.5 17.3697 6.46257 17.4717 6.39453L17.5674 6.31738C17.6846 6.20017 17.75 6.04076 17.75 5.875V4H19.625C20.1221 4.00054 20.5987 4.19829 20.9502 4.5498C21.3017 4.90132 21.4995 5.37789 21.5 5.875V9Z" fill="#4D4D4D"/>
<path d="M12.1238 13.8956C12.2195 13.8955 12.3146 13.9146 12.4031 13.9512C12.4915 13.9879 12.5717 14.0418 12.6394 14.1094C12.7071 14.1771 12.761 14.2573 12.7976 14.3458C12.8342 14.4342 12.8533 14.5293 12.8533 14.6251L12.8386 14.7676C12.8293 14.8142 12.8159 14.8602 12.7976 14.9044C12.761 14.9928 12.7071 15.073 12.6394 15.1407C12.5717 15.2084 12.4915 15.2623 12.4031 15.2989C12.3146 15.3355 12.2195 15.3546 12.1238 15.3546H10.8738C10.6804 15.3546 10.4949 15.2774 10.3582 15.1407C10.2214 15.0039 10.1443 14.8184 10.1443 14.6251C10.1443 14.4317 10.2214 14.2462 10.3582 14.1094C10.4949 13.9727 10.6804 13.8956 10.8738 13.8956H12.1238Z" fill="#4D4D4D" stroke="#4D4D4D" stroke-width="0.208333"/>
<path d="M5.87219 13.8956C5.96795 13.8955 6.06301 13.9146 6.15149 13.9512C6.23992 13.9879 6.32014 14.0418 6.38782 14.1094C6.4555 14.1771 6.50939 14.2573 6.54602 14.3458C6.58264 14.4342 6.60173 14.5293 6.60168 14.6251L6.58704 14.7676C6.57776 14.8142 6.56428 14.8602 6.54602 14.9044C6.50939 14.9928 6.4555 15.073 6.38782 15.1407C6.32014 15.2084 6.23992 15.2623 6.15149 15.2989C6.06301 15.3355 5.96795 15.3546 5.87219 15.3546H4.62219C4.42881 15.3546 4.24331 15.2774 4.10657 15.1407C3.96982 15.0039 3.8927 14.8184 3.8927 14.6251C3.8927 14.4317 3.96982 14.2462 4.10657 14.1094C4.24331 13.9727 4.42881 13.8956 4.62219 13.8956H5.87219Z" fill="#4D4D4D" stroke="#4D4D4D" stroke-width="0.208333"/>
<path d="M5.87219 17.6456C5.96795 17.6456 6.06301 17.6647 6.15149 17.7013C6.23992 17.7379 6.32014 17.7918 6.38782 17.8595C6.4555 17.9272 6.50939 18.0074 6.54602 18.0958C6.58264 18.1843 6.60173 18.2794 6.60168 18.3751L6.58704 18.5177C6.57776 18.5643 6.56428 18.6103 6.54602 18.6544C6.50939 18.7428 6.4555 18.8231 6.38782 18.8907C6.32014 18.9584 6.23992 19.0123 6.15149 19.049C6.06301 19.0856 5.96795 19.1047 5.87219 19.1046H4.62219C4.42881 19.1046 4.24331 19.0275 4.10657 18.8907C3.96982 18.754 3.8927 18.5685 3.8927 18.3751C3.8927 18.1817 3.96982 17.9962 4.10657 17.8595C4.24331 17.7228 4.42881 17.6456 4.62219 17.6456H5.87219Z" fill="#4D4D4D" stroke="#4D4D4D" stroke-width="0.208333"/>
<path d="M12.1238 17.6456C12.2195 17.6456 12.3146 17.6647 12.4031 17.7013C12.4915 17.7379 12.5717 17.7918 12.6394 17.8595C12.7071 17.9272 12.761 18.0074 12.7976 18.0958C12.8342 18.1843 12.8533 18.2794 12.8533 18.3751L12.8386 18.5177C12.8293 18.5643 12.8159 18.6103 12.7976 18.6544C12.761 18.7428 12.7071 18.8231 12.6394 18.8907C12.5717 18.9584 12.4915 19.0123 12.4031 19.049C12.3146 19.0856 12.2195 19.1047 12.1238 19.1046H10.8738C10.6804 19.1046 10.4949 19.0275 10.3582 18.8907C10.2214 18.754 10.1443 18.5685 10.1443 18.3751C10.1443 18.1817 10.2214 17.9962 10.3582 17.8595C10.4949 17.7228 10.6804 17.6456 10.8738 17.6456H12.1238Z" fill="#4D4D4D" stroke="#4D4D4D" stroke-width="0.208333"/>
<path d="M18.3753 13.8956C18.4711 13.8955 18.5661 13.9146 18.6546 13.9512C18.743 13.9879 18.8232 14.0418 18.8909 14.1094C18.9586 14.1771 19.0125 14.2573 19.0491 14.3458C19.0858 14.4342 19.1048 14.5293 19.1048 14.6251L19.0901 14.7676C19.0809 14.8142 19.0674 14.8602 19.0491 14.9044C19.0125 14.9928 18.9586 15.073 18.8909 15.1407C18.8232 15.2084 18.743 15.2623 18.6546 15.2989C18.5661 15.3355 18.4711 15.3546 18.3753 15.3546H17.1253C16.9319 15.3546 16.7464 15.2774 16.6097 15.1407C16.4729 15.0039 16.3958 14.8184 16.3958 14.6251C16.3958 14.4317 16.4729 14.2462 16.6097 14.1094C16.7464 13.9727 16.9319 13.8956 17.1253 13.8956H18.3753Z" fill="#4D4D4D" stroke="#4D4D4D" stroke-width="0.208333"/>
</g>
<defs>
<clipPath id="clip0_2397_9148">
<rect width="23" height="23" fill="white"/>
</clipPath>
</defs>
</svg>
