<svg width="23" height="23" viewBox="0 0 23 23" fill="none" xmlns="http://www.w3.org/2000/svg">
<path d="M11.5003 20.7934C7.88859 20.7903 4.29899 20.1729 0.857833 18.9622C0.516773 18.8847 0.266641 18.5603 0.252428 18.1752C0.245796 18.1093 0.25527 11.9386 0.251481 11.8716C0.252428 10.889 0.563193 9.93775 1.1288 9.18011C1.69535 8.4225 2.48171 7.90556 3.3543 7.71721C2.76594 6.57659 2.77164 5.17541 3.36946 4.03991C3.96632 2.90452 5.06629 2.20654 6.2552 2.20654C7.44411 2.20654 8.54323 2.90557 9.14022 4.04096C9.73709 5.17635 9.74279 6.57753 9.15348 7.71825C10.0924 7.92126 10.928 8.50308 11.5003 9.34963C12.0725 8.50201 12.9091 7.92126 13.847 7.71718C13.2577 6.57761 13.2615 5.17747 13.8584 4.04203C14.4543 2.9056 15.5533 2.20657 16.7424 2.20657C17.9305 2.20657 19.0295 2.90455 19.6265 4.03994C20.2234 5.17533 20.2291 6.57544 19.6397 7.71616C20.5142 7.90243 21.3025 8.41937 21.87 9.17698C22.4365 9.93564 22.7482 10.8879 22.7492 11.8717C22.7435 11.9951 22.7539 18.0489 22.7482 18.1753C22.734 18.5604 22.4839 18.8848 22.1428 18.9622C18.7017 20.173 15.1119 20.7903 11.5003 20.7934ZM8.55461 18.9747V18.9737C10.511 19.1662 12.4799 19.1662 14.4372 18.9747V17.157C14.441 16.7447 14.2941 16.3471 14.0298 16.0551C13.7655 15.7632 13.4054 15.601 13.0312 15.6062H12.3756C11.81 15.8165 11.197 15.8165 10.6314 15.6062H9.96913C9.19035 15.6041 8.55747 16.2979 8.55463 17.157L8.55461 18.9747ZM15.9531 17.157V18.7874C17.7408 18.5216 19.5058 18.0967 21.2332 17.5201V11.8714C21.2313 10.4598 20.1957 9.31708 18.9186 9.31499H17.9267C17.1649 9.62055 16.3303 9.62055 15.5685 9.31499H14.5728C13.8224 9.31604 13.1194 9.71892 12.6855 10.3939C13.883 11.0918 14.3956 12.6887 13.8641 14.0647C15.1024 14.4728 15.9512 15.7297 15.9531 17.157ZM1.76736 17.5191V17.5202C3.49167 18.0957 5.25388 18.5195 7.03873 18.7864V17.1571C7.04157 15.7297 7.8914 14.4739 9.12969 14.067C8.60673 12.6878 9.12022 11.0961 10.314 10.3929C9.88004 9.71795 9.17706 9.31717 8.42766 9.31508H7.43286C6.67208 9.62272 5.83835 9.62272 5.07757 9.31508H4.08182C2.8047 9.31717 1.76915 10.4599 1.76726 11.8715L1.76736 17.5191ZM10.6562 13.6535C10.8447 13.9109 11.1233 14.0689 11.4227 14.0888C11.7221 14.1076 12.0158 13.9862 12.2299 13.755C12.4449 13.5237 12.5615 13.2024 12.551 12.8718C12.5406 12.54 12.4042 12.2293 12.1749 12.0147C11.7552 11.6202 11.1337 11.6443 10.7396 12.0692C10.3454 12.494 10.3094 13.1805 10.6562 13.6535ZM6.25726 3.88068C3.88493 3.85975 3.81294 7.85828 6.25632 7.84783C8.66562 7.86562 8.64286 3.86407 6.25726 3.88068ZM14.9281 5.87101C14.9167 6.40574 15.1062 6.92059 15.451 7.2952C15.7959 7.66982 16.2658 7.86969 16.749 7.84772C17.2265 7.84981 17.6851 7.64157 18.0233 7.26903C18.3615 6.89755 18.551 6.39213 18.552 5.86471C18.552 5.33729 18.3615 4.83187 18.0243 4.45934C17.686 4.08682 17.2275 3.87856 16.75 3.88065C16.2658 3.86182 15.795 4.06483 15.4501 4.44156C15.1052 4.81829 14.9158 5.33523 14.9281 5.87101Z" fill="#4D4D4D"/>
</svg>
