<svg width="84" height="68" viewBox="0 0 84 68" fill="none" xmlns="http://www.w3.org/2000/svg">
<path d="M13.5069 32.6981C13.5069 27.6216 17.6222 23.5063 22.6986 23.5063H62.8082C67.8847 23.5063 72 27.6216 72 32.6981V45.6502C72 50.7267 67.8847 54.842 62.8082 54.842H22.6986C17.6221 54.842 13.5069 50.7267 13.5069 45.6502V32.6981Z" fill="#52BB70"/>
<path d="M14.6279 13C15.2059 14.7335 16.9763 16.6998 19.0557 18.4883C20.131 19.4132 21.2658 20.2697 22.3115 21H60.3017C65.378 21.0003 69.4932 25.1151 69.4932 30.1915V43.1437C69.4931 48.22 65.378 52.335 60.3017 52.3352H20.1914C15.1151 52.335 11.0001 48.22 11 43.1437V30.1915C11 27.2734 12.3609 24.6741 14.4814 22.9903C14.3687 22.5425 14.2582 22.0847 14.1572 21.6192C13.5474 18.8069 13.1832 15.6832 13.6172 13.0791L14.6279 13Z" fill="white"/>
<path d="M60.3017 50.5354V52.3352H20.1914V50.5354H60.3017ZM67.6933 43.1437V30.1915C67.6933 26.2367 64.5874 23.0075 60.6816 22.8096L60.3017 22.7999H22.3115C21.9429 22.7999 21.5834 22.6866 21.2812 22.4756C20.1978 21.7189 19.0127 20.8252 17.8818 19.8526C16.9925 19.0876 16.1002 18.2433 15.3096 17.3545C15.4204 18.6264 15.636 19.9459 15.916 21.2373C16.0113 21.6766 16.1166 22.1141 16.2266 22.5508C16.3993 23.2367 16.1544 23.9596 15.6006 24.3995C13.891 25.757 12.7998 27.8464 12.7998 30.1915V43.1437C12.7999 47.2259 16.1092 50.5352 20.1914 50.5354V52.3352C15.1151 52.335 11.0001 48.22 11 43.1437V30.1915C11 27.2734 12.3609 24.6741 14.4814 22.9903C14.3687 22.5425 14.2582 22.0847 14.1572 21.6192C13.5474 18.8069 13.1832 15.6832 13.6172 13.0791L14.6279 13C15.2059 14.7335 16.9763 16.6998 19.0557 18.4883C20.131 19.4132 21.2658 20.2697 22.3115 21H60.3017C65.378 21.0003 69.4932 25.1151 69.4932 30.1915V43.1437C69.4931 48.22 65.378 52.335 60.3017 52.3352V50.5354C64.2565 50.5352 67.4858 47.4292 67.6836 43.5236L67.6933 43.1437Z" fill="#4D4D4D"/>
<path d="M51.2925 43C50.6632 43 50.3485 42.6854 50.3485 42.056V32.744C50.3485 32.1147 50.6525 31.8 51.2605 31.8C51.8792 31.8 52.1885 32.1147 52.1885 32.744V41.288H57.0845C57.7138 41.288 58.0285 41.5707 58.0285 42.136C58.0285 42.712 57.7138 43 57.0845 43H51.2925Z" fill="#4D4D4D"/>
<path d="M37.8105 43C37.2025 43 36.8985 42.6854 36.8985 42.056V32.744C36.8985 32.1147 37.2132 31.8 37.8425 31.8H42.0185C43.0638 31.8 43.8905 32.0454 44.4985 32.536C45.1172 33.0267 45.4265 33.8534 45.4265 35.016C45.4265 35.9974 45.2025 36.744 44.7545 37.256C44.3065 37.7574 43.6878 38.0667 42.8985 38.184L44.7385 41.88C44.8985 42.2107 44.9305 42.4827 44.8345 42.696C44.7385 42.8987 44.5358 43 44.2265 43H43.9225C43.3892 43 43.0212 42.7601 42.8185 42.2801L40.9785 38.264H38.7385V42.056C38.7385 42.6854 38.4292 43 37.8105 43ZM38.7385 36.536H41.7625C42.3065 36.536 42.7278 36.4187 43.0265 36.184C43.3252 35.9494 43.4745 35.56 43.4745 35.016C43.4745 34.4827 43.3252 34.0987 43.0265 33.864C42.7278 33.6294 42.3065 33.512 41.7625 33.512H38.7385V36.536Z" fill="#4D4D4D"/>
<path d="M27.28 43.208C25.8827 43.208 24.816 42.84 24.08 42.104C23.344 41.3574 22.976 40.2427 22.976 38.76V32.744C22.976 32.4347 23.056 32.2 23.216 32.04C23.3867 31.88 23.6213 31.8 23.92 31.8C24.5387 31.8 24.848 32.1147 24.848 32.744V38.664C24.848 39.624 25.0613 40.3227 25.488 40.76C25.9253 41.1867 26.5227 41.4 27.28 41.4C28.0373 41.4 28.6293 41.1867 29.056 40.76C29.4827 40.3227 29.696 39.624 29.696 38.664V32.744C29.696 32.1147 30.0053 31.8 30.624 31.8C31.2427 31.8 31.552 32.1147 31.552 32.744V38.76C31.552 40.2427 31.1893 41.3574 30.464 42.104C29.7387 42.84 28.6773 43.208 27.28 43.208Z" fill="#4D4D4D"/>
</svg>
