<svg width="250" height="43" viewBox="0 0 250 43" fill="none" xmlns="http://www.w3.org/2000/svg">
<g filter="url(#filter0_d_2316_4510)">
<rect x="4" y="3" width="35" height="35" rx="6" fill="white"/>
</g>
<path d="M21.5003 31.9999C17.1663 31.9962 12.8588 31.2654 8.7294 29.8324C8.32013 29.7407 8.01997 29.3568 8.00291 28.901C7.99496 28.8229 8.00632 21.5191 8.00178 21.4398C8.00291 20.2767 8.37583 19.1509 9.05456 18.2541C9.73442 17.3574 10.6781 16.7455 11.7252 16.5226C11.0191 15.1725 11.026 13.514 11.7433 12.17C12.4596 10.8261 13.7796 10 15.2062 10C16.6329 10 17.9519 10.8274 18.6683 12.1713C19.3845 13.5151 19.3913 15.1736 18.6842 16.5238C19.8109 16.7641 20.8136 17.4527 21.5003 18.4547C22.187 17.4515 23.1909 16.7641 24.3164 16.5225C23.6093 15.1737 23.6138 13.5165 24.3301 12.1725C25.0452 10.8274 26.364 10 27.7909 10C29.2166 10 30.5354 10.8262 31.2518 12.1701C31.968 13.5139 31.9749 15.1711 31.2677 16.5213C32.3171 16.7418 33.263 17.3537 33.944 18.2504C34.6238 19.1484 34.9979 20.2755 34.999 21.4399C34.9922 21.586 35.0047 28.7514 34.9979 28.9011C34.9808 29.3569 34.6807 29.7408 34.2714 29.8325C30.142 31.2655 25.8343 31.9962 21.5003 31.9999ZM17.9655 29.8472V29.846C20.3132 30.0739 22.6759 30.0739 25.0246 29.8472V27.6958C25.0292 27.2078 24.8529 26.7371 24.5357 26.3915C24.2186 26.046 23.7865 25.854 23.3374 25.8602H22.5507C21.872 26.1091 21.1364 26.1091 20.4577 25.8602H19.663C18.7284 25.8577 17.969 26.6789 17.9656 27.6958L17.9655 29.8472ZM26.8437 27.6958V29.6255C28.989 29.3109 31.1069 28.808 33.1798 28.1256V21.4396C33.1775 19.7688 31.9349 18.4162 30.4023 18.4137H29.212C28.2979 18.7754 27.2963 18.7754 26.3822 18.4137H25.1873C24.2869 18.415 23.4433 18.8918 22.9226 19.6907C24.3597 20.5169 24.9747 22.4069 24.3369 24.0356C25.8229 24.5187 26.8414 26.0063 26.8437 27.6958ZM9.82083 28.1243V28.1256C11.89 28.8068 14.0047 29.3084 16.1465 29.6243V27.6958C16.1499 26.0064 17.1697 24.52 18.6556 24.0383C18.0281 22.4059 18.6443 20.5219 20.0768 19.6896C19.556 18.8907 18.7125 18.4163 17.8132 18.4138H16.6194C15.7065 18.778 14.706 18.778 13.7931 18.4138H12.5982C11.0656 18.4163 9.82298 19.7688 9.82071 21.4397L9.82083 28.1243ZM20.4874 23.5489C20.7137 23.8536 21.0479 24.0406 21.4072 24.0641C21.7665 24.0864 22.1189 23.9427 22.3758 23.669C22.6339 23.3953 22.7738 23.015 22.7612 22.6236C22.7487 22.231 22.585 21.8632 22.3099 21.6092C21.8062 21.1423 21.0604 21.1708 20.5875 21.6736C20.1145 22.1765 20.0713 22.989 20.4874 23.5489ZM15.2087 11.9816C12.3619 11.9568 12.2755 16.6895 15.2076 16.6772C18.0987 16.6982 18.0714 11.9619 15.2087 11.9816ZM25.6137 14.3374C25.6001 14.9703 25.8274 15.5797 26.2413 16.0231C26.6551 16.4665 27.219 16.703 27.7988 16.677C28.3718 16.6795 28.9221 16.433 29.328 15.9921C29.7338 15.5524 29.9612 14.9542 29.9624 14.3299C29.9624 13.7056 29.7338 13.1074 29.3291 12.6665C28.9232 12.2255 28.3729 11.979 27.8 11.9815C27.219 11.9592 26.654 12.1995 26.2401 12.6454C25.8263 13.0913 25.5989 13.7032 25.6137 14.3374Z" fill="#005C3F"/>
<path d="M62.494 19.072H64.654V29.62H62.494V19.072ZM57.742 21.34H69.316V23.284H57.742V21.34ZM65.068 22.204C65.404 22.852 65.824 23.494 66.328 24.13C66.844 24.766 67.402 25.354 68.002 25.894C68.614 26.434 69.232 26.884 69.856 27.244C69.7 27.364 69.52 27.526 69.316 27.73C69.124 27.934 68.938 28.144 68.758 28.36C68.59 28.576 68.446 28.774 68.326 28.954C67.702 28.51 67.084 27.958 66.472 27.298C65.872 26.638 65.308 25.924 64.78 25.156C64.264 24.376 63.82 23.584 63.448 22.78L65.068 22.204ZM62.188 22.024L63.88 22.618C63.496 23.458 63.028 24.28 62.476 25.084C61.924 25.876 61.318 26.602 60.658 27.262C59.998 27.91 59.308 28.462 58.588 28.918C58.48 28.738 58.336 28.54 58.156 28.324C57.988 28.108 57.808 27.904 57.616 27.712C57.436 27.508 57.262 27.334 57.094 27.19C57.79 26.83 58.462 26.38 59.11 25.84C59.758 25.288 60.346 24.688 60.874 24.04C61.414 23.38 61.852 22.708 62.188 22.024ZM60.982 15.4V17.812H66.274V15.4H60.982ZM58.948 13.492H68.452V19.702H58.948V13.492ZM56.59 12.754L58.588 13.402C58.192 14.422 57.718 15.442 57.166 16.462C56.626 17.47 56.038 18.43 55.402 19.342C54.778 20.242 54.136 21.034 53.476 21.718C53.416 21.538 53.32 21.31 53.188 21.034C53.056 20.758 52.912 20.476 52.756 20.188C52.6 19.9 52.456 19.672 52.324 19.504C52.888 18.952 53.434 18.316 53.962 17.596C54.49 16.876 54.976 16.102 55.42 15.274C55.876 14.446 56.266 13.606 56.59 12.754ZM54.844 17.722L56.896 15.67V15.688V29.566H54.844V17.722ZM76.984 23.914H85.318V25.444H76.984V23.914ZM84.814 23.914H85.192L85.534 23.824L86.758 24.454C86.338 25.246 85.786 25.936 85.102 26.524C84.43 27.112 83.668 27.61 82.816 28.018C81.964 28.426 81.046 28.762 80.062 29.026C79.078 29.29 78.052 29.5 76.984 29.656C76.9 29.416 76.774 29.134 76.606 28.81C76.45 28.486 76.288 28.228 76.12 28.036C77.08 27.94 78.01 27.796 78.91 27.604C79.81 27.4 80.644 27.142 81.412 26.83C82.192 26.518 82.87 26.14 83.446 25.696C84.034 25.252 84.49 24.742 84.814 24.166V23.914ZM79.972 25.246C80.44 25.714 81.058 26.134 81.826 26.506C82.594 26.866 83.47 27.166 84.454 27.406C85.438 27.634 86.47 27.802 87.55 27.91C87.334 28.102 87.106 28.366 86.866 28.702C86.638 29.05 86.458 29.35 86.326 29.602C85.186 29.446 84.106 29.206 83.086 28.882C82.078 28.558 81.16 28.15 80.332 27.658C79.516 27.154 78.814 26.572 78.226 25.912L79.972 25.246ZM76.75 13.618H87.208V15.148H76.75V13.618ZM78.766 18.766H86.344V19.846H78.766V18.766ZM78.766 20.386H86.344V21.448H78.766V20.386ZM79 12.682H80.926V16.012H79V12.682ZM81.574 17.524H83.446V23.032H81.574V17.524ZM83.014 12.682H84.94V16.012H83.014V12.682ZM78.406 15.598L80.098 16.03C79.786 16.798 79.384 17.548 78.892 18.28C78.4 19.012 77.89 19.624 77.362 20.116C77.278 20.02 77.152 19.9 76.984 19.756C76.816 19.612 76.642 19.474 76.462 19.342C76.282 19.198 76.126 19.084 75.994 19C76.498 18.58 76.96 18.07 77.38 17.47C77.812 16.858 78.154 16.234 78.406 15.598ZM82.096 15.67L84.058 15.976C83.878 16.336 83.698 16.672 83.518 16.984C83.338 17.284 83.176 17.548 83.032 17.776L81.376 17.47C81.508 17.194 81.64 16.894 81.772 16.57C81.916 16.234 82.024 15.934 82.096 15.67ZM86.722 16.912V18.244H79.756V22.024H87.154V23.356H77.884V16.912H86.722ZM71.278 18.226H76.066V19.864H71.278V18.226ZM71.404 13.276H76.03V14.896H71.404V13.276ZM71.278 20.692H76.066V22.312H71.278V20.692ZM70.54 15.688H76.534V17.398H70.54V15.688ZM72.268 23.176H76.048V28.63H72.268V26.938H74.32V24.868H72.268V23.176ZM71.224 23.176H72.916V29.368H71.224V23.176ZM88.9 18.172H105.1V20.062H88.9V18.172ZM90.448 14.644H100.744V16.516H90.448V14.644ZM93.634 24.436H101.662V26.074H93.634V24.436ZM93.634 27.28H101.662V29.098H93.634V27.28ZM94.696 12.7H96.838V19.234H94.696V12.7ZM102.616 13.222L104.47 14.194C103.306 15.826 101.938 17.314 100.366 18.658C98.794 20.002 97.096 21.19 95.272 22.222C93.46 23.254 91.582 24.13 89.638 24.85C89.554 24.694 89.434 24.508 89.278 24.292C89.122 24.064 88.954 23.836 88.774 23.608C88.606 23.38 88.456 23.2 88.324 23.068C90.28 22.444 92.146 21.652 93.922 20.692C95.71 19.732 97.342 18.622 98.818 17.362C100.306 16.102 101.572 14.722 102.616 13.222ZM92.41 21.502H103.03V29.548H100.78V23.284H94.57V29.62H92.41V21.502ZM107.548 15.724H121.102V17.848H109.708V29.602H107.548V15.724ZM120.346 15.724H122.506V27.118C122.506 27.694 122.434 28.15 122.29 28.486C122.146 28.822 121.882 29.074 121.498 29.242C121.114 29.41 120.634 29.512 120.058 29.548C119.482 29.596 118.78 29.62 117.952 29.62C117.94 29.416 117.892 29.182 117.808 28.918C117.736 28.654 117.646 28.39 117.538 28.126C117.442 27.862 117.346 27.634 117.25 27.442C117.61 27.466 117.964 27.484 118.312 27.496C118.672 27.496 118.996 27.496 119.284 27.496C119.572 27.484 119.776 27.478 119.896 27.478C120.064 27.478 120.178 27.454 120.238 27.406C120.31 27.346 120.346 27.238 120.346 27.082V15.724ZM113.488 12.7L116.242 13.096C115.93 13.828 115.594 14.542 115.234 15.238C114.886 15.934 114.568 16.522 114.28 17.002L112.192 16.552C112.36 16.18 112.528 15.772 112.696 15.328C112.864 14.884 113.014 14.434 113.146 13.978C113.29 13.522 113.404 13.096 113.488 12.7ZM111.454 19.594H113.416V27.028H111.454V19.594ZM112.3 19.594H118.528V25.768H112.3V23.878H116.548V21.466H112.3V19.594ZM138.004 13.69C137.98 13.882 137.962 14.086 137.95 14.302C137.938 14.506 137.926 14.71 137.914 14.914C137.902 15.082 137.896 15.34 137.896 15.688C137.908 16.024 137.914 16.408 137.914 16.84C137.914 17.26 137.914 17.692 137.914 18.136C137.914 18.568 137.914 18.97 137.914 19.342C137.926 19.714 137.932 20.002 137.932 20.206C137.932 21.274 137.89 22.246 137.806 23.122C137.734 23.986 137.566 24.784 137.302 25.516C137.05 26.248 136.66 26.926 136.132 27.55C135.616 28.174 134.908 28.774 134.008 29.35L131.938 27.712C132.274 27.568 132.646 27.364 133.054 27.1C133.462 26.824 133.786 26.548 134.026 26.272C134.374 25.912 134.656 25.534 134.872 25.138C135.088 24.742 135.256 24.304 135.376 23.824C135.508 23.344 135.592 22.81 135.628 22.222C135.676 21.634 135.7 20.956 135.7 20.188C135.7 19.864 135.7 19.456 135.7 18.964C135.7 18.472 135.694 17.962 135.682 17.434C135.67 16.906 135.658 16.42 135.646 15.976C135.634 15.52 135.616 15.172 135.592 14.932C135.58 14.704 135.55 14.476 135.502 14.248C135.466 14.02 135.43 13.834 135.394 13.69H138.004ZM130.912 17.2C131.2 17.236 131.494 17.272 131.794 17.308C132.094 17.332 132.394 17.356 132.694 17.38C133.006 17.392 133.318 17.398 133.63 17.398C134.41 17.398 135.226 17.38 136.078 17.344C136.93 17.308 137.752 17.254 138.544 17.182C139.336 17.098 140.026 17.002 140.614 16.894L140.596 19.234C140.032 19.294 139.366 19.354 138.598 19.414C137.83 19.462 137.02 19.504 136.168 19.54C135.328 19.564 134.5 19.576 133.684 19.576C133.432 19.576 133.144 19.57 132.82 19.558C132.496 19.546 132.172 19.534 131.848 19.522C131.524 19.51 131.212 19.498 130.912 19.486V17.2ZM129.058 13.996C128.986 14.212 128.908 14.464 128.824 14.752C128.74 15.028 128.674 15.262 128.626 15.454C128.518 15.946 128.404 16.54 128.284 17.236C128.164 17.92 128.062 18.634 127.978 19.378C127.894 20.122 127.852 20.854 127.852 21.574C127.852 22.282 127.912 22.912 128.032 23.464C128.152 23.188 128.29 22.858 128.446 22.474C128.602 22.078 128.752 21.712 128.896 21.376L130.012 22.096C129.844 22.612 129.676 23.146 129.508 23.698C129.352 24.238 129.214 24.754 129.094 25.246C128.974 25.726 128.872 26.14 128.788 26.488C128.752 26.62 128.722 26.776 128.698 26.956C128.686 27.124 128.68 27.262 128.68 27.37C128.68 27.454 128.68 27.568 128.68 27.712C128.692 27.856 128.704 27.988 128.716 28.108L126.718 28.306C126.586 27.946 126.436 27.454 126.268 26.83C126.112 26.194 125.974 25.498 125.854 24.742C125.746 23.974 125.692 23.218 125.692 22.474C125.692 21.49 125.722 20.542 125.782 19.63C125.854 18.718 125.938 17.89 126.034 17.146C126.13 16.39 126.208 15.772 126.268 15.292C126.316 15.04 126.346 14.776 126.358 14.5C126.37 14.212 126.382 13.954 126.394 13.726L129.058 13.996ZM144.124 20.134H149.236V21.808H144.124V20.134ZM143.242 14.338H149.056V16.156H143.242V14.338ZM142.63 17.38H151.432V19.234H142.63V17.38ZM145.294 12.7H147.292V18.298H145.294V12.7ZM150.19 13.15L152.188 13.708C151.3 15.94 150.124 17.908 148.66 19.612C147.208 21.316 145.546 22.696 143.674 23.752C143.59 23.608 143.458 23.434 143.278 23.23C143.098 23.014 142.912 22.804 142.72 22.6C142.528 22.396 142.366 22.228 142.234 22.096C144.058 21.196 145.648 19.978 147.004 18.442C148.372 16.906 149.434 15.142 150.19 13.15ZM146.104 22.708H148.138V27.586C148.138 28.042 148.084 28.408 147.976 28.684C147.868 28.96 147.652 29.17 147.328 29.314C147.004 29.446 146.626 29.53 146.194 29.566C145.774 29.602 145.276 29.62 144.7 29.62C144.664 29.344 144.586 29.032 144.466 28.684C144.346 28.336 144.22 28.036 144.088 27.784C144.448 27.796 144.796 27.802 145.132 27.802C145.468 27.802 145.69 27.802 145.798 27.802C145.93 27.79 146.014 27.766 146.05 27.73C146.086 27.694 146.104 27.628 146.104 27.532V22.708ZM148.786 20.134H149.236L149.632 20.026L150.784 20.962C150.352 21.502 149.848 22.048 149.272 22.6C148.708 23.152 148.144 23.62 147.58 24.004C147.472 23.836 147.31 23.644 147.094 23.428C146.89 23.212 146.716 23.038 146.572 22.906C146.836 22.69 147.112 22.444 147.4 22.168C147.688 21.88 147.952 21.586 148.192 21.286C148.444 20.986 148.642 20.716 148.786 20.476V20.134ZM142.486 24.382C143.242 24.322 144.106 24.256 145.078 24.184C146.062 24.112 147.094 24.034 148.174 23.95C149.266 23.866 150.34 23.776 151.396 23.68V25.534C150.388 25.63 149.362 25.726 148.318 25.822C147.274 25.906 146.272 25.99 145.312 26.074C144.352 26.158 143.482 26.23 142.702 26.29L142.486 24.382ZM152.836 15.994H159.46V17.992H152.836V15.994ZM153.088 12.7L155.284 13.042C155.08 14.23 154.816 15.394 154.492 16.534C154.168 17.662 153.79 18.712 153.358 19.684C152.926 20.656 152.428 21.502 151.864 22.222C151.756 22.078 151.594 21.91 151.378 21.718C151.174 21.526 150.958 21.334 150.73 21.142C150.502 20.95 150.304 20.8 150.136 20.692C150.652 20.08 151.102 19.354 151.486 18.514C151.87 17.662 152.194 16.744 152.458 15.76C152.722 14.764 152.932 13.744 153.088 12.7ZM156.256 17.2L158.47 17.398C158.206 19.45 157.798 21.262 157.246 22.834C156.706 24.394 155.956 25.738 154.996 26.866C154.036 27.994 152.8 28.936 151.288 29.692C151.216 29.524 151.108 29.314 150.964 29.062C150.82 28.81 150.664 28.558 150.496 28.306C150.328 28.066 150.172 27.874 150.028 27.73C151.396 27.118 152.5 26.338 153.34 25.39C154.192 24.43 154.846 23.272 155.302 21.916C155.758 20.548 156.076 18.976 156.256 17.2ZM154.024 17.542C154.276 19.066 154.624 20.5 155.068 21.844C155.524 23.176 156.124 24.352 156.868 25.372C157.612 26.38 158.536 27.172 159.64 27.748C159.484 27.892 159.31 28.072 159.118 28.288C158.926 28.516 158.74 28.744 158.56 28.972C158.392 29.212 158.254 29.434 158.146 29.638C156.934 28.906 155.932 27.97 155.14 26.83C154.36 25.678 153.73 24.346 153.25 22.834C152.77 21.322 152.38 19.666 152.08 17.866L154.024 17.542ZM163.42 20.332H173.122V22.078H165.58V29.62H163.42V20.332ZM172.438 20.332H174.634V27.604C174.634 28.108 174.562 28.486 174.418 28.738C174.274 29.002 174.016 29.206 173.644 29.35C173.272 29.482 172.816 29.56 172.276 29.584C171.736 29.608 171.1 29.62 170.368 29.62C170.32 29.368 170.23 29.074 170.098 28.738C169.966 28.414 169.834 28.132 169.702 27.892C170.002 27.904 170.314 27.916 170.638 27.928C170.962 27.94 171.25 27.946 171.502 27.946C171.766 27.934 171.94 27.928 172.024 27.928C172.192 27.928 172.3 27.904 172.348 27.856C172.408 27.796 172.438 27.706 172.438 27.586V20.332ZM164.734 22.924H173.248V24.4H164.734V22.924ZM160.972 14.248H176.992V16.12H160.972V14.248ZM165.454 15.382L167.902 16.012C167.47 16.564 167.02 17.11 166.552 17.65C166.084 18.178 165.67 18.628 165.31 19L163.582 18.406C163.81 18.118 164.038 17.8 164.266 17.452C164.494 17.092 164.71 16.732 164.914 16.372C165.13 16.012 165.31 15.682 165.454 15.382ZM170.908 16.66L172.654 15.58C173.146 15.916 173.668 16.3 174.22 16.732C174.784 17.152 175.312 17.584 175.804 18.028C176.296 18.46 176.704 18.862 177.028 19.234L175.138 20.458C174.85 20.098 174.472 19.696 174.004 19.252C173.536 18.796 173.026 18.34 172.474 17.884C171.934 17.428 171.412 17.02 170.908 16.66ZM161.602 17.686C162.43 17.686 163.366 17.68 164.41 17.668C165.454 17.656 166.558 17.644 167.722 17.632C168.898 17.608 170.098 17.584 171.322 17.56C172.558 17.536 173.776 17.512 174.976 17.488L174.868 19.234C173.296 19.294 171.706 19.354 170.098 19.414C168.49 19.462 166.96 19.51 165.508 19.558C164.068 19.594 162.784 19.624 161.656 19.648L161.602 17.686ZM164.734 25.264H173.23V26.758H164.734V25.264ZM167.866 12.682H170.098V15.202H167.866V12.682ZM183.076 25.606C183.076 25.354 183.076 24.994 183.076 24.526C183.076 24.046 183.076 23.506 183.076 22.906C183.076 22.294 183.076 21.658 183.076 20.998C183.076 20.326 183.076 19.672 183.076 19.036C183.076 18.388 183.076 17.788 183.076 17.236C183.076 16.684 183.076 16.222 183.076 15.85C183.076 15.658 183.07 15.436 183.058 15.184C183.058 14.932 183.046 14.68 183.022 14.428C182.998 14.176 182.968 13.96 182.932 13.78H185.614C185.578 14.056 185.542 14.398 185.506 14.806C185.47 15.202 185.452 15.55 185.452 15.85C185.452 16.21 185.452 16.642 185.452 17.146C185.452 17.638 185.452 18.172 185.452 18.748C185.452 19.312 185.452 19.888 185.452 20.476C185.452 21.064 185.452 21.64 185.452 22.204C185.452 22.768 185.452 23.284 185.452 23.752C185.452 24.22 185.452 24.628 185.452 24.976C185.452 25.336 185.506 25.63 185.614 25.858C185.722 26.086 185.938 26.248 186.262 26.344C186.598 26.44 187.096 26.488 187.756 26.488C188.392 26.488 189.028 26.464 189.664 26.416C190.312 26.356 190.954 26.284 191.59 26.2C192.226 26.104 192.838 25.996 193.426 25.876L193.354 28.324C192.862 28.396 192.304 28.462 191.68 28.522C191.056 28.582 190.408 28.63 189.736 28.666C189.076 28.702 188.422 28.72 187.774 28.72C186.754 28.72 185.932 28.654 185.308 28.522C184.684 28.402 184.21 28.216 183.886 27.964C183.574 27.712 183.358 27.388 183.238 26.992C183.13 26.596 183.076 26.134 183.076 25.606ZM194.416 17.686C194.332 17.818 194.23 17.98 194.11 18.172C194.002 18.352 193.906 18.52 193.822 18.676C193.63 19.048 193.384 19.468 193.084 19.936C192.796 20.404 192.484 20.884 192.148 21.376C191.812 21.868 191.464 22.336 191.104 22.78C190.756 23.224 190.42 23.602 190.096 23.914L188.116 22.744C188.512 22.396 188.896 22 189.268 21.556C189.652 21.1 189.994 20.656 190.294 20.224C190.594 19.78 190.828 19.408 190.996 19.108C190.828 19.132 190.534 19.192 190.114 19.288C189.706 19.372 189.202 19.474 188.602 19.594C188.002 19.714 187.348 19.846 186.64 19.99C185.932 20.122 185.218 20.26 184.498 20.404C183.778 20.548 183.082 20.692 182.41 20.836C181.738 20.968 181.132 21.094 180.592 21.214C180.052 21.322 179.62 21.412 179.296 21.484L178.864 19.126C179.212 19.078 179.668 19.012 180.232 18.928C180.796 18.832 181.426 18.724 182.122 18.604C182.818 18.472 183.544 18.334 184.3 18.19C185.056 18.046 185.806 17.902 186.55 17.758C187.294 17.614 187.99 17.482 188.638 17.362C189.286 17.23 189.85 17.116 190.33 17.02C190.81 16.912 191.17 16.828 191.41 16.768C191.662 16.708 191.896 16.648 192.112 16.588C192.328 16.516 192.52 16.438 192.688 16.354L194.416 17.686ZM201.13 13.906C201.598 13.966 202.162 14.056 202.822 14.176C203.494 14.284 204.202 14.41 204.946 14.554C205.702 14.698 206.452 14.86 207.196 15.04C207.952 15.208 208.648 15.376 209.284 15.544C209.932 15.712 210.484 15.874 210.94 16.03L210.022 18.28C209.602 18.124 209.08 17.962 208.456 17.794C207.832 17.614 207.154 17.434 206.422 17.254C205.69 17.074 204.952 16.906 204.208 16.75C203.464 16.594 202.75 16.45 202.066 16.318C201.394 16.186 200.8 16.09 200.284 16.03L201.13 13.906ZM200.302 18.748C200.95 18.856 201.694 18.994 202.534 19.162C203.374 19.33 204.238 19.516 205.126 19.72C206.014 19.912 206.86 20.116 207.664 20.332C208.468 20.536 209.152 20.74 209.716 20.944L208.834 23.194C208.318 22.99 207.664 22.78 206.872 22.564C206.092 22.348 205.258 22.132 204.37 21.916C203.494 21.7 202.624 21.508 201.76 21.34C200.896 21.16 200.134 21.022 199.474 20.926L200.302 18.748ZM199.384 23.896C199.996 23.992 200.692 24.118 201.472 24.274C202.252 24.43 203.062 24.604 203.902 24.796C204.754 24.988 205.588 25.186 206.404 25.39C207.22 25.594 207.976 25.798 208.672 26.002C209.38 26.206 209.98 26.404 210.472 26.596L209.482 28.846C209.002 28.642 208.408 28.432 207.7 28.216C206.992 28.012 206.224 27.808 205.396 27.604C204.568 27.388 203.734 27.19 202.894 27.01C202.054 26.818 201.25 26.65 200.482 26.506C199.726 26.362 199.06 26.248 198.484 26.164L199.384 23.896ZM222.244 15.868C222.244 15.568 222.226 15.214 222.19 14.806C222.154 14.386 222.094 14.038 222.01 13.762H224.872C224.824 14.038 224.788 14.392 224.764 14.824C224.74 15.244 224.728 15.598 224.728 15.886C224.728 16.222 224.728 16.588 224.728 16.984C224.728 17.38 224.728 17.788 224.728 18.208C224.728 18.628 224.728 19.036 224.728 19.432C224.728 20.416 224.65 21.352 224.494 22.24C224.338 23.116 224.068 23.956 223.684 24.76C223.312 25.564 222.79 26.32 222.118 27.028C221.458 27.736 220.612 28.396 219.58 29.008L217.348 27.352C218.296 26.92 219.082 26.422 219.706 25.858C220.342 25.294 220.846 24.676 221.218 24.004C221.59 23.332 221.854 22.612 222.01 21.844C222.166 21.076 222.244 20.272 222.244 19.432C222.244 19.036 222.244 18.628 222.244 18.208C222.244 17.776 222.244 17.362 222.244 16.966C222.244 16.558 222.244 16.192 222.244 15.868ZM215.566 17.722C215.842 17.746 216.154 17.776 216.502 17.812C216.85 17.836 217.204 17.848 217.564 17.848C217.72 17.848 218.014 17.848 218.446 17.848C218.89 17.848 219.424 17.848 220.048 17.848C220.672 17.848 221.344 17.848 222.064 17.848C222.784 17.848 223.504 17.848 224.224 17.848C224.956 17.848 225.634 17.848 226.258 17.848C226.882 17.848 227.416 17.848 227.86 17.848C228.304 17.848 228.61 17.848 228.778 17.848C229.198 17.848 229.582 17.836 229.93 17.812C230.29 17.788 230.56 17.764 230.74 17.74V20.188C230.56 20.176 230.272 20.164 229.876 20.152C229.492 20.128 229.12 20.116 228.76 20.116C228.592 20.116 228.286 20.116 227.842 20.116C227.41 20.116 226.876 20.116 226.24 20.116C225.616 20.116 224.944 20.116 224.224 20.116C223.516 20.116 222.802 20.116 222.082 20.116C221.362 20.116 220.69 20.116 220.066 20.116C219.442 20.116 218.914 20.116 218.482 20.116C218.05 20.116 217.768 20.116 217.636 20.116C217.24 20.116 216.868 20.128 216.52 20.152C216.172 20.164 215.854 20.182 215.566 20.206V17.722ZM233.656 19.666C233.872 19.678 234.148 19.696 234.484 19.72C234.82 19.732 235.168 19.744 235.528 19.756C235.9 19.768 236.242 19.774 236.554 19.774C236.854 19.774 237.226 19.774 237.67 19.774C238.114 19.774 238.594 19.774 239.11 19.774C239.638 19.774 240.178 19.774 240.73 19.774C241.294 19.774 241.852 19.774 242.404 19.774C242.956 19.774 243.478 19.774 243.97 19.774C244.462 19.774 244.9 19.774 245.284 19.774C245.68 19.774 245.992 19.774 246.22 19.774C246.64 19.774 247.036 19.762 247.408 19.738C247.78 19.702 248.086 19.678 248.326 19.666V22.492C248.122 22.48 247.816 22.462 247.408 22.438C247 22.414 246.604 22.402 246.22 22.402C245.992 22.402 245.68 22.402 245.284 22.402C244.888 22.402 244.444 22.402 243.952 22.402C243.46 22.402 242.938 22.402 242.386 22.402C241.846 22.402 241.294 22.402 240.73 22.402C240.166 22.402 239.62 22.402 239.092 22.402C238.576 22.402 238.096 22.402 237.652 22.402C237.22 22.402 236.854 22.402 236.554 22.402C236.038 22.402 235.51 22.414 234.97 22.438C234.43 22.45 233.992 22.468 233.656 22.492V19.666Z" fill="#005C3F"/>
<defs>
<filter id="filter0_d_2316_4510" x="0" y="0" width="43" height="43" filterUnits="userSpaceOnUse" color-interpolation-filters="sRGB">
<feFlood flood-opacity="0" result="BackgroundImageFix"/>
<feColorMatrix in="SourceAlpha" type="matrix" values="0 0 0 0 0 0 0 0 0 0 0 0 0 0 0 0 0 0 127 0" result="hardAlpha"/>
<feOffset dy="1"/>
<feGaussianBlur stdDeviation="2"/>
<feComposite in2="hardAlpha" operator="out"/>
<feColorMatrix type="matrix" values="0 0 0 0 0 0 0 0 0 0 0 0 0 0 0 0 0 0 0.25 0"/>
<feBlend mode="normal" in2="BackgroundImageFix" result="effect1_dropShadow_2316_4510"/>
<feBlend mode="normal" in="SourceGraphic" in2="effect1_dropShadow_2316_4510" result="shape"/>
</filter>
</defs>
</svg>
