<?xml version="1.0" encoding="UTF-8"?><svg id="b" xmlns="http://www.w3.org/2000/svg" width="276.291" height="246.266" viewBox="0 0 276.291 246.266"><defs><style>.e{fill:#fff;}.e,.f,.g{stroke-width:0px;}.f{fill:#febe69;}.g{fill:#211715;}</style></defs><g id="c"><g id="d"><path class="e" d="m210.533,88.709c1.693-1.627,3.974-2.238,5.925-2.169,4.247.15,6.054,2.447,6.832,3.796,2.321,4.026,2.223,11.445.665,16.035-1.104,3.251-2.911,8.224-7.27,11.79-1.976,1.617-4.979,2.627-7.724,1.838-1.943,6.778-5.488,14.982-11.756,22.609-4.135,5.032-8.106,8.458-12.627,11.004,0,4.549,0,8.128,0,8.128,0,1.437,0,3.004.531,4.402.712,1.838,1.67,3.431,3.211,4.674,3.263,2.628,6.616,3.884,10.746,5.438,0,0,1.738.686,3.285,1.296l-1.607,1.4c-9.338,7.301-25.654,13.095-42.641,13.145-17.811-.052-34.884-6.419-43.951-14.215l4.131-1.626c4.13-1.554,7.483-2.81,10.746-5.438,1.541-1.243,2.499-2.835,3.211-4.674.531-1.398.531-2.965.531-4.402,0,0,0-2.761-.002-6.901-5.059-2.773-9.659-6.884-14.054-12.231-6.246-7.6-9.788-15.774-11.737-22.545-2.67.659-5.545-.337-7.458-1.903-4.358-3.566-6.166-8.539-7.27-11.79-1.558-4.59-1.656-12.009.665-16.035.778-1.349,2.585-3.646,6.832-3.796,1.952-.069,4.232.542,5.925,2.169,0,0-13.229-53.597,52.429-53.597s52.429,53.597,52.429,53.597Z"/><path class="g" d="m182.179,155.009v5.414c0,2.117-.104,4.333.617,6.359,1.371,3.856,4.225,6.457,7.738,8.4,4.24,2.345,9.033,3.837,13.54,5.615,1.206.476,2.635-.522,2.952-1.676.374-1.363-.466-2.475-1.676-2.952-3.795-1.497-7.784-2.788-11.426-4.621-2.82-1.42-5.663-3.238-6.632-6.426-.53-1.742-.313-3.721-.313-5.517v-4.594c0-3.089-4.8-3.094-4.8,0h0Z"/><path class="e" d="m43.474,243.934c6.741-24.267,25.275-45.08,46.893-56.58,7.581-4.036,15.552-7.237,23.741-9.527,9.044,7.824,26.15,14.216,43.996,14.269,18.027-.053,35.299-6.575,44.276-14.503,8.487,2.299,16.754,5.582,24.603,9.761,21.618,11.5,40.152,32.313,46.893,56.58H43.474Z"/><path class="g" d="m45.788,244.572c6.73-23.994,24.725-44.145,46.62-55.583,7.542-3.94,15.488-7.013,23.704-9.221,2.98-.801,1.716-5.432-1.276-4.629-13.889,3.731-27.35,9.851-38.826,18.576-10.488,7.974-19.531,17.866-26.187,29.261-3.721,6.37-6.67,13.214-8.663,20.319-.836,2.979,3.794,4.251,4.629,1.276h0Z"/><path class="g" d="m276.191,243.296c-3.551-12.661-10.123-24.285-18.611-34.285-8.436-9.939-18.856-18.261-30.422-24.275-7.836-4.074-16.114-7.305-24.643-9.596-2.987-.802-4.261,3.827-1.276,4.629,13.401,3.6,26.27,9.487,37.372,17.86,9.892,7.46,18.402,16.917,24.674,27.604,3.569,6.081,6.373,12.549,8.277,19.34.833,2.97,5.466,1.708,4.629-1.276h0Z"/><path class="f" d="m218.373,46.507c-2.597-7.937-6.852-14.953-13.035-19.904l-6.97-7.309c-7.906-10.424-20.759-16.076-39.12-16.881-23.886-.808-41.518,9.881-49.323,19.835l1.601,1.654c-16.2,14.061-22.097,39.215-14.241,63.014.713-.207,1.529-.344,2.464-.377,1.952-.069,4.232.542,5.925,2.169l8.38-7.036c6.288-7.007,17.388-17.57,25.177-21.655.913-.479,2.086.169,2.457,1.695.358,1.475.356,2.594.24,3.654-.176,1.609,1.385,2.78,2.712,2.043,5.56-3.089,15.468-9.306,22.493-12.266l10.417,1.28c3.353,1.458,5.905,2.859,9.595,6.035,6.324,5.441,12.386,12.906,15.071,19.662l8.316,6.589c1.693-1.627,3.974-2.238,5.925-2.169,1.07.038,1.985.212,2.768.472,3.217-12.729,3.306-27.798-.853-40.506Z"/><path class="g" d="m99.508,86c-5.305-16.47-4.401-35.252,4.938-50.137,2.411-3.842,5.364-7.276,8.777-10.262,2.329-2.038-1.077-5.421-3.394-3.394-13.694,11.98-19.595,30.853-18.19,48.674.439,5.572,1.527,11.076,3.24,16.396.943,2.928,5.58,1.676,4.629-1.276h0Z"/><path class="g" d="m203.641,28.3c12.807,10.357,16.283,28.348,15.406,44.005-.261,4.651-.951,9.253-2.062,13.777-.737,2.999,3.89,4.279,4.629,1.276,2.124-8.643,2.856-17.695,2.04-26.56-.807-8.767-3.032-17.553-7.528-25.189-2.385-4.05-5.43-7.743-9.089-10.702-1.007-.814-2.41-.984-3.394,0-.842.842-1.013,2.575,0,3.394h0Z"/><path class="g" d="m176.339,58.496c5.258,2.302,9.552,5.72,13.525,9.838,4.027,4.174,7.842,9.005,10.038,14.424.486,1.2,1.599,2.048,2.952,1.676,1.139-.313,2.166-1.744,1.676-2.952-2.471-6.098-6.453-11.477-10.967-16.224-4.29-4.511-9.076-8.4-14.802-10.907-1.186-.519-2.576-.348-3.284.861-.595,1.018-.333,2.761.861,3.284h0Z"/><path class="g" d="m115.752,83.37c6.251-6.946,13.172-13.75,20.934-19,.846-.572,1.707-1.122,2.591-1.634.218-.126.887-.455.826-.5.552.399-.938-.119-.774-.169-.191-.205-.177-.149.041.169-.002.113.016.224.054.332.286,1.056.075,2.073.094,3.138.025,1.436.781,2.856,1.993,3.636,2.272,1.463,4.356.151,6.377-1.012,1.938-1.116,3.864-2.252,5.797-3.376,4.77-2.771,9.577-5.573,14.661-7.736,1.193-.508,1.456-2.266.861-3.284-.722-1.235-2.086-1.371-3.284-.861-4.493,1.911-8.762,4.336-12.988,6.768-2.122,1.222-4.231,2.465-6.349,3.695-.808.469-1.616.936-2.429,1.396-.15.084-.348.171-.49.275-.411.302.117.016.505.144.026.009.021.044.057.044.07.369.101.417.093.143.002-.164.015-.327.037-.489.148-2.471-.197-5.725-2.6-7.069-2.286-1.278-4.475.296-6.385,1.516-4.131,2.638-7.94,5.815-11.58,9.085-4.003,3.596-7.836,7.396-11.435,11.396-2.061,2.291,1.322,5.696,3.394,3.394h0Z"/><path class="g" d="m111.623,23.946c6.999-8.86,17.691-14.429,28.514-17.162,7.287-1.84,14.822-2.359,22.307-1.777,6.539.509,13.182,1.757,19.227,4.379,5.677,2.462,10.847,6.181,14.625,11.12.786,1.028,2.066,1.573,3.284.861,1.012-.592,1.653-2.248.861-3.284-3.751-4.903-8.452-8.9-13.962-11.713-6.296-3.214-13.169-4.906-20.152-5.773-14.984-1.861-30.615.569-43.816,8.097-5.368,3.061-10.436,6.988-14.282,11.858-.803,1.016-.992,2.402,0,3.394.834.834,2.586,1.023,3.394,0h0Z"/><path class="g" d="m103.635,116.627c1.718,7.799,4.834,15.365,9.221,22.044,4.68,7.125,10.84,13.81,18.325,18.03,3.811,2.149,7.983,3.613,12.308,4.272,1.28.195,2.58-.323,2.952-1.676.312-1.135-.387-2.756-1.676-2.952-15.542-2.369-27.115-15.986-32.973-29.808-1.527-3.602-2.687-7.367-3.529-11.186-.664-3.015-5.293-1.739-4.629,1.276h0Z"/><path class="g" d="m207.658,115.351c-1.479,6.717-3.998,13.156-7.566,19.042-3.776,6.228-8.752,12.133-14.94,16.078-3.147,2.006-6.55,3.463-10.09,4.616-2.925.952-1.673,5.589,1.276,4.629,6.957-2.265,13.223-5.732,18.459-10.888,6.096-6.002,10.771-13.311,14.035-21.193,1.474-3.559,2.626-7.246,3.455-11.008.663-3.01-3.963-4.296-4.629-1.276h0Z"/><path class="g" d="m150.929,134.196c.385-.203.772-.398,1.166-.582.078-.036.483-.198.125-.057-.383.151.13-.046.164-.058.285-.102.569-.203.858-.292.781-.239,1.581-.413,2.388-.537-.324.05.178-.022.281-.033.235-.025.47-.047.706-.064.569-.042,1.14-.063,1.71-.066,1.963-.012,3.299.094,5.135.669.33.103.651.226.974.349-.553-.21.106.061.299.162.199.105.395.216.585.336.193.122.844.614.134.061,1.021.796,2.398.996,3.394,0,.829-.829,1.028-2.593,0-3.394-2.898-2.258-6.575-2.959-10.19-2.982-3.578-.023-6.987.674-10.151,2.344-1.146.605-1.495,2.199-.861,3.284.679,1.16,2.133,1.468,3.284.861h0Z"/><path class="g" d="m157.563,108.365c.449,1.711.879,3.448,1.136,5.199l-.086-.638c.03.24.044.476.019.718l.086-.638c-.017.112-.041.216-.079.323l.242-.573c-.033.075-.068.139-.114.208l.375-.486c-.053.065-.104.115-.17.167l.486-.375c-.131.084-.27.153-.412.218l.573-.242c-.227.095-.451.164-.694.202l.638-.086c-.219.026-.433.024-.651-.001l.638.086c-.246-.034-.487-.094-.732-.127-.67-.09-1.239-.115-1.849.242-.498.291-.973.862-1.103,1.434-.14.614-.11,1.304.242,1.849.312.484.835,1.022,1.434,1.103.535.072,1.055.209,1.6.233.823.036,1.591-.213,2.328-.549.903-.412,1.607-1.21,1.847-2.183.203-.823.114-1.558-.025-2.382-.283-1.675-.67-3.335-1.101-4.978-.318-1.214-1.729-2.072-2.952-1.676-1.25.404-2.018,1.651-1.676,2.952h0Z"/><path class="g" d="m129.818,93.713c-.868,2.821-.302,9.312,5.043,9.864,7.065-.042,7.44-7.889,5.062-11.578-1.947-3.021-7.672-4.277-10.105,1.715Z"/><path class="g" d="m186.39,93.713c.868,2.821.303,9.312-5.042,9.864-7.065-.043-7.441-7.889-5.063-11.579,1.947-3.021,7.672-4.277,10.105,1.715Z"/><path class="g" d="m107.372,87.012c-3.438-3.121-8.556-3.74-12.69-1.616-2.983,1.532-4.648,4.612-5.361,7.776-1.696,7.532.223,16.069,4.625,22.385,3.108,4.459,7.523,7.72,13.181,6.929,1.285-.18,1.988-1.819,1.676-2.952-.38-1.383-1.663-1.857-2.952-1.676-3.178.445-5.967-2.202-7.65-4.568-1.638-2.303-2.75-4.886-3.634-7.556-.964-2.914-1.211-6.028-.957-9.078.116-1.396.384-2.832.906-4.137.176-.44.397-.862.65-1.262.102-.162.209-.323.325-.475-.281.367.255-.255.353-.355.718-.73,1.997-1.291,3.268-1.444,1.754-.211,3.542.223,4.866,1.424,2.283,2.072,5.687-1.312,3.394-3.394h0Z"/><path class="g" d="m212.23,90.406c2.047-1.859,5.508-1.988,7.732-.345.123.091.597.551.868.873-.247-.293.031.04.112.168.12.19.239.379.348.576.671,1.209.999,2.628,1.2,3.985.842,5.691-.731,11.688-3.753,16.532-1.721,2.758-4.732,6.172-8.379,5.662-1.282-.179-2.578.312-2.952,1.676-.309,1.123.384,2.772,1.676,2.952,9.354,1.309,14.761-7.976,17.237-15.625,1.25-3.86,1.434-8.122.854-12.117-.494-3.406-1.813-6.686-4.675-8.748-4.077-2.937-10.037-2.274-13.661,1.017-2.292,2.081,1.11,5.467,3.394,3.394h0Z"/><path class="e" d="m48.359,136.11c-1.67,1.043-3.233,1.451-4.645,1.212-.834-.14-1.597-.433-2.267-.868-2.387-1.552-4.864-5.293-6.975-10.535-2.715-6.742-1.211-11.367.529-16.723.407-1.253.829-2.549,1.201-3.899.795-2.778.37-5.543-1.199-7.78-1.471-2.098-3.834-3.452-6.319-3.624-2.197-.26-4.533.287-6.543,1.544s-3.542,3.142-4.2,5.171c-1.283,3.352-1.148,6.822-.845,9.771.077.749.06,2.213-.918,3.609-.53.758-1.303,1.475-2.176,2.02-.961.6-2.008.98-3.028,1.099-2.737.318-4.846-.959-6.446-3.903-1.685-3.102-2.414-6.885-2.053-10.652.708-7.388,5.763-15.034,12.877-19.48,4.042-2.526,10.553-5.132,18.621-3.208,5.687,1.356,10.911,5.221,13.975,10.338,2.796,4.67,3.606,10.006,2.283,15.025-.835,3.168-1.618,5.48-2.309,7.519-.408,1.205-.76,2.245-1.064,3.286-.738,2.529-.411,5.493.855,7.735l.536.943c.87,1.525,1.621,2.842,2.274,4.387.362.857.597,2.32.303,3.657-.294,1.338-1.192,2.562-2.465,3.357Z"/><path class="e" d="m60.061,155.805c-2.039,1.274-4.495,1.5-6.573.605-3.257-1.586-4.482-5.042-3.993-7.631.317-1.677,1.398-3.165,3.126-4.305l.127-.082c.808-.505,3.669-2.055,6.557-.796,3.067,1.337,4.801,5.195,3.788,8.426-.475,1.515-1.552,2.858-3.032,3.783Z"/><path class="g" d="m47.148,134.038c-1.329.793-2.691,1.303-4.147.549-.819-.424-1.749-1.405-2.462-2.353-2.133-2.834-3.827-6.376-4.691-9.811-.796-3.165-.419-6.27.464-9.37.998-3.505,2.823-7.137,2.672-10.848-.153-3.758-2.154-7.249-5.388-9.198-3.341-2.013-7.595-1.993-11.105-.451s-5.912,4.464-7.095,8.07c-.617,1.88-.87,3.902-.9,5.876-.025,1.591.454,3.371.205,4.938-.405,2.553-4.087,4.002-6.037,2.94-1.233-.672-1.987-2.106-2.54-3.341-.714-1.594-1.151-3.374-1.283-5.114-.503-6.65,2.806-12.965,7.507-17.485,4.567-4.391,10.671-7.106,17.065-6.822,6.794.302,13.136,4.106,16.573,9.984,1.837,3.142,2.687,6.702,2.404,10.334-.26,3.342-1.613,6.705-2.679,9.863-1.23,3.64-2.295,7.182-1.022,10.994.395,1.184.99,2.254,1.603,3.332.79,1.389,1.972,3.008,2.227,4.618.213,1.346-.236,2.534-1.37,3.293-2.555,1.709-.154,5.869,2.423,4.145,3.696-2.473,4.623-6.729,2.842-10.713-1.312-2.935-3.616-5.507-3.541-8.874.042-1.892.868-3.748,1.467-5.52.559-1.653,1.101-3.311,1.588-4.987,1.216-4.183,1.733-8.287.745-12.583-1.791-7.786-7.823-14.115-15.147-17.029-7.231-2.877-15.547-1.904-22.259,1.855-6.533,3.659-11.804,9.869-14.134,17.005-1.247,3.819-1.478,7.93-.625,11.859.766,3.527,2.589,7.752,5.995,9.47,3.627,1.829,8.185.606,10.86-2.345,1.392-1.536,2.223-3.502,2.155-5.594-.06-1.852-.306-3.654-.166-5.515.278-3.69,1.938-7.17,5.596-8.498,3.241-1.177,7.027-.164,8.611,3.056,1.686,3.427-.476,7.448-1.506,10.768-1.114,3.593-1.771,7.238-1.246,10.996.578,4.137,2.456,8.263,4.674,11.779,1.911,3.03,4.468,5.969,8.234,6.41,2.088.244,4.084-.482,5.857-1.54,2.651-1.581.239-5.732-2.423-4.145Z"/><path class="g" d="m58.85,153.733c-.198.12-.404.224-.603.34-.06.035-.419.199-.049.039-.339.146-.708.253-1.068.336-.144.033-.289.061-.434.087.535-.097-.16.005-.235.008-.362.016-.728.008-1.087-.036.556.068-.145-.049-.216-.066-.141-.035-.28-.074-.418-.118-.004-.001-.61-.274-.316-.112.3.166-.265-.166-.257-.161-.113-.067-.225-.137-.334-.21-.01-.007-.502-.391-.224-.154s-.183-.172-.19-.179c-.136-.126-.267-.257-.393-.393-.104-.112-.199-.23-.299-.345-.235-.269.289.473,0-.019-.15-.254-.314-.495-.45-.758-.037-.072-.15-.245-.152-.313.01.412.094.263.015.017-.094-.295-.192-.585-.26-.888-.03-.132-.04-.276-.078-.405-.097-.329.033.607.015.074-.009-.265-.029-.525-.02-.791.004-.103.015-.206.018-.309.018-.502-.142.395-.017.112.127-.288.171-.675.267-.985-.151.487-.043.1.028-.038.073-.144.152-.285.236-.422.069-.112.144-.218.216-.328-.296.454.063-.073.127-.144.21-.235.437-.455.674-.663.081-.071.456-.351.115-.105.143-.103.288-.205.437-.3.297-.19.608-.347.922-.508.206-.106.291-.276-.067.019.063-.052.238-.093.324-.124.359-.129.727-.236,1.101-.313.133-.028.268-.054.403-.073-.578.082.131.011.211.009.148-.004.294.005.442.004.667-.007-.233-.085.156.003.355.08.705.158,1.045.291-.454-.177.087.06.15.095.159.087.309.189.465.283.36.216.022.003-.048-.054.141.115.278.233.41.357.199.188.372.398.559.597.247.264-.307-.468.012.022.067.102.136.202.201.306.097.156.188.315.273.477.064.122.283.64.067.093.124.314.232.632.316.959.038.148.066.299.101.448.138.584-.022-.51.016.088.021.336.034.669.014,1.006-.03.515-.028-.001.017,0,.005,0-.104.517-.11.54-.038.152-.082.301-.131.449-.189.57.13-.144-.1.255-.169.292-.331.583-.519.864.296-.441-.081.092-.138.155-.14.155-.286.304-.438.446-.103.096-.21.187-.316.28.377-.326-.3.2-.385.255-1.054.679-1.584,2.162-.861,3.284.68,1.054,2.155,1.588,3.284.861,3.484-2.243,5.271-6.225,4.172-10.293-1.03-3.813-4.395-6.834-8.435-6.869-3.458-.03-7.022,1.969-8.827,4.908s-1.464,6.916.499,9.698c1.294,1.834,3.179,3.326,5.411,3.798,2.475.524,5.016.066,7.179-1.241,1.074-.649,1.571-2.183.861-3.284-.696-1.079-2.134-1.556-3.284-.861Z"/><path class="g" d="m130.372,156.226v4.898c0,1.638.072,3.23-.605,4.758-1.299,2.932-4.048,4.565-6.836,5.909-3.517,1.694-7.308,2.947-10.943,4.377-1.205.474-2.046,1.607-1.676,2.952.316,1.148,1.739,2.154,2.952,1.676,4.339-1.708,8.91-3.169,13.037-5.337,3.418-1.796,6.336-4.168,7.884-7.782,1.513-3.534.987-7.688.987-11.451,0-3.089-4.8-3.094-4.8,0h0Z"/><path class="g" d="m113.766,180.648c9.372,7.265,21.191,11.304,32.839,12.967,13.18,1.882,26.743.524,39.258-4.066,5.933-2.176,11.574-5.022,16.578-8.901,1.025-.795.835-2.559,0-3.394-1.012-1.012-2.366-.797-3.394,0-8.554,6.631-19.709,10.099-30.278,11.668-12.255,1.82-24.925.37-36.571-3.793-5.298-1.894-10.572-4.414-15.038-7.876-1.023-.793-2.397-.998-3.394,0-.827.827-1.03,2.595,0,3.394h0Z"/><path class="e" d="m104.284,178.043c1.18-5.125,2.696-9.872,4.597-13.818,4.438-9.216,11.046-12.191,20.881-13.533,4.741-.647,9.674-.218,14.099,1.604,4.988,2.054,8.94,6.47,6.19,12.292,4.263.938,6.053,3.677,5.885,7.128-.091,1.87-1.374,5.287-4.572,5.94l-.544.111c2.751,1.344,3.202,3.772,3.246,5.405.078,2.895-2.507,5.98-4.901,5.711-1.73-.195-3.144-.35-4.452-.468.868.485,1.36.759,1.36.759,1.645.918,2.652,2.872,2.77,4.312.124,1.515-.225,3.117-1.093,4.339-1.368,1.925-3.691,2.035-5.691,2.261-2.613.296-4.978.983-5.854,3.43-.34.95-1.645,7.144-2.147,8.969-1.01,3.672-2.625,7.266-5.315,10.027-2.69,2.761-6.572,4.601-10.519,4.298,0,0-1.62-.124-2.825-.216-6.212-2.579-14.626-6.539-16.648-9.655-2.26-3.481,2.05-10.367,2.409-16.181.465-7.535,1.461-15.501,3.124-22.718Z"/><path class="g" d="m152.719,164.387c1.115-3.192.68-6.665-1.354-9.39-2.115-2.834-5.235-4.555-8.548-5.634-6.889-2.244-14.813-1.547-21.613.758-5.747,1.947-10.346,5.67-13.373,10.946-3.548,6.182-5.381,13.421-6.707,20.367-.754,3.948-1.314,7.935-1.742,11.93-.391,3.657-.348,7.406-1.306,10.972-.854,3.178-2.206,6.325-2.365,9.65-.144,3.025,1.391,5.167,3.682,6.938,2.624,2.028,5.605,3.565,8.589,4.99,1.598.764,3.216,1.487,4.845,2.182.911.388,1.766.82,2.759.915.784.075,1.573.124,2.359.18,7.822.556,14.074-5.073,16.973-11.909,1.128-2.662,1.78-5.412,2.419-8.218.281-1.234.555-2.471.857-3.7.186-.757.305-1.497.959-1.99.955-.72,2.392-.825,3.548-.955,1.682-.189,3.369-.397,4.863-1.259,3.336-1.927,4.539-6.584,3.111-10.049-.692-1.678-1.834-3.057-3.389-4.006-2.643-1.615-5.057,2.535-2.423,4.145,1.927,1.177,2.409,4.691.135,5.848-.877.446-1.976.479-2.938.592-1.659.194-3.288.461-4.79,1.236-2.281,1.178-3.249,3.253-3.815,5.62-.524,2.194-.983,4.405-1.527,6.595-1.428,5.742-4.677,11.715-10.916,13.102-1.14.253-2.279.21-3.435.122-.621-.048-1.314-.055-1.875-.22-.755-.222-1.502-.641-2.222-.96-2.857-1.265-5.694-2.612-8.387-4.202-.931-.549-1.987-1.201-2.779-1.82-.419-.327-.798-.693-1.178-1.064-.271-.265-.424-.492-.499-.712-.252-.745-.134-1.808.076-2.799.301-1.424.748-2.813,1.175-4.202.957-3.112,1.554-6.102,1.787-9.349.258-3.585.618-7.167,1.137-10.725.959-6.578,2.326-13.177,4.669-19.414,1.771-4.714,4.332-9.362,8.648-12.086,2.302-1.453,4.804-2.319,7.454-2.939,3.422-.8,6.937-1.247,10.452-.985,5.196.387,14.488,3.258,12.054,10.224-.427,1.224.487,2.625,1.676,2.952,1.323.363,2.523-.448,2.952-1.676h0Z"/><path class="g" d="m132.999,164.854c3.336.226,6.678.47,9.992.92,1.388.189,2.772.419,4.149.676,1.295.241,2.695.415,3.905.952.99.44,1.581.972,2.003,1.715.443.781.513,1.547.488,2.597-.015.599.121-.501-.011.154-.045.222-.094.443-.156.662-.185.653-.196.686-.557,1.286-.476.792-1.068,1.284-2.086,1.524-3.005.709-1.733,5.339,1.276,4.629,6.656-1.571,8.468-11.144,3.396-15.427-2.806-2.37-6.732-2.743-10.234-3.265-4.035-.601-8.096-.946-12.165-1.222-1.295-.088-2.4,1.166-2.4,2.4,0,1.372,1.102,2.312,2.4,2.4h0Z"/><path class="g" d="m132.695,177.678c3.163.164,6.323.41,9.469.773,1.476.17,2.947.375,4.411.635,1.337.237,2.658.459,3.721,1.135.041.026.367.277.105.063.089.072.178.152.257.234.088.091.524.619.266.259.12.168.222.345.325.523.065.113.122.236.176.356-.083-.184-.102-.284-.032-.036.059.208.125.412.173.623.037.165.105.796.045.136.041.455.103.937.034,1.392-.128.839-.841,1.966-1.493,2.426-.149.105-.317.177-.472.271.05-.03.219-.089-.036-.007-.249.08-.06.036.018.03-.167.013-.33.001-.497-.009-.869-.053-1.74-.195-2.607-.286-3.5-.367-6.985-.501-10.504-.448-3.086.047-3.095,4.847,0,4.8,3.636-.056,7.233.099,10.85.484,1.946.207,3.651.473,5.438-.547,1.704-.973,2.92-2.652,3.613-4.455.957-2.49.563-5.679-1.011-7.847-2.208-3.042-5.899-3.589-9.376-4.09-4.268-.615-8.568-.992-12.873-1.216-1.296-.067-2.4,1.151-2.4,2.4,0,1.356,1.1,2.332,2.4,2.4h0Z"/></g></g></svg>