<?xml version="1.0" encoding="UTF-8"?><svg id="b" xmlns="http://www.w3.org/2000/svg" width="253.181" height="432.866" viewBox="0 0 253.181 432.866"><defs><style>.e{fill:#fff;}.f{fill:#f4b467;}.g{fill:#211715;}.h{fill:#f8b8b3;}.i{fill:#c6c6c6;}.j{fill:#645d5c;}</style></defs><g id="c"><g id="d"><path class="e" d="M73.814,400.969c1.376.753,2.662,1.998,3.358,4.03.524,1.53,2.356,2.138,3.7,1.238,2.296-1.537,5.587-3.486,7.342-4.101l-1.127-.813c-.695-.502-1.127-1.303-1.344-2.132s-.23-3.311-.253-4.167v-6.173c-5.176,1.192-10.46,1.76-15.795,2.01-.302.014-.616.021-.941.018l-.041,1.367c-.03.993-.078,5.188-.115,7.602l1.005.034c1.068.026,2.695.257,4.213,1.087Z"/><path class="e" d="M51.175,391.425c-.016-1.066-.038-2.592-.059-4.028-1.36.421-2.354.814-2.354.814-4.165,1.34-9.897,1.553-15.333,1.316l.185,1.475c.24,1.136.395,2.29.464,3.449l.079.546c1.023-.028,1.795-.05,1.795-.05,2.036.05,6.107.844,7.571,5.117.524,1.53,2.356,2.138,3.7,1.238,1.591-1.066,3.66-2.328,5.363-3.208l-.08-.104c-1.111-1.444-1.277-3.177-1.304-4.865,0,0-.01-.678-.026-1.7Z"/><path class="e" d="M35.952,394.948c2.036.05,6.107.844,7.571,5.117.524,1.53,2.356,2.138,3.7,1.238,2.396-1.604,5.875-3.657,7.566-4.179,2.081,1.68,2.759,7.157,2.888,11.187.066,2.06-.983,3.996-2.766,5.029-2.315,1.342-4.698,2.646-6.897,3.318-6.794,2.073-10.663,5.916-16.851,7.877-3.1.983-10.57,2.426-14.456,1.786-7.048-1.16-9.033-4.286-9.766-9.419-.403-2.823,1.648-6.089,3.965-7.899,2.66-2.077,9.308-5.02,12.783-7.254,3.875-2.491,5.461-6.752,12.263-6.802"/><path class="g" d="M30.238,422.727c-2.833.822-5.783,1.376-8.721,1.632-2.845.248-5.758.121-8.397-1.096-2.056-.948-3.206-2.473-3.786-4.578-.333-1.209-.613-2.45-.275-3.685.424-1.55,1.41-2.914,2.576-3.996,2.093-1.941,5.026-3.141,7.529-4.451,2.625-1.374,5.323-2.693,7.583-4.637,1.766-1.519,3.305-3.437,5.526-4.321s4.658-.937,6.668.054c1.291.636,2.105,1.636,2.652,2.947.746,1.788,2.16,3.078,4.188,3.125,1.952.045,3.573-1.456,5.156-2.406,1.388-.833,2.836-1.752,4.381-2.263l-1.946-.514c.859.751,1.218,2.006,1.504,3.147.401,1.599.597,3.235.71,4.877.097,1.41.293,2.877-.602,4.087-1.053,1.423-3.234,2.218-4.782,2.975-1.738.85-3.6,1.328-5.387,2.057-1.706.696-3.352,1.504-4.966,2.39-3.137,1.723-6.166,3.601-9.613,4.655-2.455.75-1.408,4.613,1.063,3.857,5.372-1.642,9.79-5.159,14.97-7.202,5.003-1.974,12.688-3.742,13.359-10.173.265-2.54-.206-5.424-.738-7.904-.425-1.98-1.2-4.799-3.095-5.907-1.126-.658-2.47.119-3.505.613-1.216.58-2.388,1.257-3.54,1.953-.55.332-1.095.672-1.634,1.019-.28.18-.959.801-1.277.756-.694-.099-.88-1.469-1.169-1.982-2.239-3.977-6.923-5.246-11.178-4.597-2.277.348-4.287,1.357-6.078,2.775-1.419,1.123-2.609,2.515-4.048,3.612-3.764,2.871-8.457,4.413-12.42,6.991-2.118,1.378-3.932,3.234-5.027,5.534-1.141,2.395-1.169,4.752-.544,7.292,2.808,11.4,17.291,9.726,25.925,7.221,2.467-.716,1.418-4.577-1.063-3.857Z"/><path class="g" d="M83.489,395.023c.028,1.096.028,2.194.125,3.287.06.675.137,1.344.385,1.978.184.47.381.933.673,1.347.416.59.83.983,1.405,1.414.388.291,1.096.324,1.541.202.464-.128.967-.486,1.195-.919.245-.464.368-1.026.202-1.541-.17-.527-.479-.866-.919-1.195l-.079-.059.405.313c-.206-.166-.386-.351-.55-.558l.313.405c-.199-.267-.359-.552-.492-.856l.202.478c-.143-.348-.247-.699-.3-1.07l.071.532c-.165-1.242-.144-2.506-.176-3.755-.027-1.045-.901-2.049-2-2-1.06.047-2.029.88-2,2h0Z"/><path class="e" d="M69.601,399.882c2.036.05,6.107.844,7.571,5.117.524,1.53,2.356,2.138,3.7,1.238,2.396-1.604,5.875-3.657,7.566-4.179,2.081,1.68,2.759,7.157,2.888,11.187.066,2.06-.983,3.996-2.766,5.029-2.315,1.342-4.698,2.646-6.897,3.318-6.794,2.073-10.663,5.916-16.851,7.877-3.1.983-8.582,1.845-12.467,1.206-7.048-1.16-10.389-4.621-11.122-9.754-.403-2.823,3.004-5.755,5.322-7.564,2.66-2.077,7.32-4.44,10.794-6.674,3.875-2.491,5.461-6.752,12.263-6.802"/><path class="g" d="M65.071,427.276c-5.446,1.875-12.442,2.692-17.658-.281-1.884-1.073-3.254-2.704-3.872-4.794-.33-1.118-.516-2.033.094-3.084.795-1.37,2.035-2.467,3.238-3.472,4.637-3.874,10.496-5.89,14.914-10.069,1.707-1.615,3.37-3.008,5.73-3.504,2.073-.436,4.142-.265,5.912,1.006,1.3.933,1.488,2.224,2.292,3.492.963,1.517,2.774,2.311,4.538,2.005,1.699-.294,3.209-1.664,4.666-2.525,1.286-.761,2.62-1.591,4.045-2.063l-1.946-.514c1.835,1.603,2.01,5.337,2.188,7.661.106,1.383.355,2.903-.389,4.154-.873,1.467-2.903,2.219-4.354,2.962-1.753.898-3.583,1.425-5.411,2.131-1.671.646-3.293,1.409-4.872,2.254-3.009,1.611-5.89,3.475-9.114,4.642-2.402.869-1.365,4.736,1.063,3.857,4.991-1.806,9.238-5.099,14.186-6.972,2.845-1.077,5.559-2.067,8.224-3.573,2.496-1.411,4.361-3.298,4.714-6.269.283-2.382-.145-5.034-.576-7.377-.383-2.078-.999-4.408-2.496-5.985-1.824-1.92-4.613.11-6.442,1.151-1.063.605-2.106,1.243-3.132,1.908-.44.285-1.027.957-1.511.451-.37-.387-.511-1.3-.78-1.777s-.598-.924-.948-1.346c-.696-.84-1.565-1.557-2.521-2.086-1.541-.853-3.319-1.309-5.077-1.37-2.295-.08-4.682.483-6.693,1.59-1.665.917-3.044,2.255-4.417,3.547-3.501,3.296-8.114,5.101-12.046,7.814-2.093,1.444-4.132,3.119-5.678,5.15-1.577,2.074-2.022,4.212-1.404,6.735,2.789,11.377,17.681,11.478,26.596,8.41,2.42-.833,1.38-4.698-1.063-3.857Z"/><path class="g" d="M66.712,392.246c-.057,1.92-.087,3.841-.145,5.76-.031,1.047.942,2.047,2,2,1.11-.05,1.966-.879,2-2,.057-1.92.087-3.841.145-5.76.031-1.047-.942-2.047-2-2-1.11.05-1.966.879-2,2h0Z"/><path class="g" d="M49.201,393.125c.035,2.035.312,4.203,1.577,5.875.327.433.651.769,1.195.919.479.132,1.116.072,1.541-.202.427-.275.803-.685.919-1.195.111-.488.115-1.122-.202-1.541-.283-.374-.515-.776-.701-1.206l.202.478c-.245-.59-.394-1.207-.483-1.837l.071.532c-.081-.604-.11-1.213-.12-1.822-.009-.518-.217-1.045-.586-1.414-.347-.347-.916-.608-1.414-.586-1.068.048-2.019.879-2,2h0Z"/><path class="g" d="M31.685,391.534c.119.568.218,1.14.296,1.716l-.071-.532c.077.576.133,1.153.168,1.733.033.532.201,1.029.586,1.414.347.347.916.608,1.414.586.517-.023,1.054-.193,1.414-.586.346-.377.618-.885.586-1.414-.082-1.335-.261-2.671-.536-3.981-.099-.473-.512-.957-.919-1.195-.429-.251-1.061-.357-1.541-.202-.484.157-.951.457-1.195.919-.26.493-.317.993-.202,1.541h0Z"/><path class="e" d="M81.517,93.701l-4.824-2.126c-2.007-1.755-2.352-3.264-2.383-4.766-.043-1.687-.092-5.751-.117-8.83,0,0,0-.028.002-.08,1.753-1.762,3.238-3.583,4.638-5.502,0,0,1.534-2.19,2.194-3.449,0,0,.12-.258.293-.631,1.764-.198,3.458-1.025,4.152-1.564,2.488-1.94,3.473-4.403,4.101-6.17.893-2.5.948-6.533-.376-8.725-.443-.733-1.478-1.983-3.904-2.063-1.115-.037-2.42.296-3.387,1.176,0,0,4.348-25.946-41.874-25.946-23.197,0-20.129,22.743-20.129,22.743.482,5.061.743,10.118,1.084,14.774.592,8.074,2.782,15.436,8.251,20.252,4.469,3.935,9.218,6.146,14.688,6.736v.349c.009,1.987.018,2.892.027,4.879.001.319-.003.657-.175.925-.135.21-.355.348-.568.477-2.36,1.433-4.792,2.746-7.285,3.932,0,0-.559,14.043,19.663,14.043,24.222,0,25.929-20.436,25.929-20.436Z"/><path class="j" d="M20.177,48.191c.684-3.299,7.332-12.23,11.995-14.676.547-.287,1.249.101,1.471,1.015.214.883.213,1.553.143,2.188-.106.963.829,1.664,1.624,1.223,3.329-1.849,9.787-7.051,16.748-8.335l6.333,1.124c2.008.873,11.289,4.413,17.857,17.04l5.559,3.203c.967-.881,2.272-1.213,3.387-1.176,2.426.08,3.461,1.33,3.904,2.063.686,1.136,1.002,2.765,1.022,4.42,5.769-11.128,5.759-26.398-.723-37.249-1.318-2.206-2.492-3.585-4.146-5.34l-4.872-4.603c-6.55-4.776-14.655-7-23.167-7.042-10.81-.054-22.053,4.145-28.581,11.751-3.08,3.588-6.688,7.788-8.364,16.204-.672,3.375-1.522,8.29-.462,17.77"/><path class="i" d="M118.971,156.84c.494,19.373,1.685,66.072,1.685,66.072l-42.333-.159c-7.957,0-52.592-.042-62.616-.042l.029-4.221c3.619,4.562-6.071-10.26-12.33-23.908-2.589-9.802-.879-16.068-.589-26.003.111-3.806,1.303-10.095,1.667-14.135,1.178-9.538,3.448-29.209,6.123-34.099,1.038-1.897,2.935-4.692,4.745-6.511,2.084-2.094,4.155-3.901,6.637-5.529,5.309-3.482,10.001-6.322,15.344-9.185.812,2.935,3.687,4.014,6.379,4.411,7.232,1.069,15.91-1.515,22.861-3.78,5.824-1.898,10.205-3.833,14.869-6.086,8.258,4.073,16.961,9.213,24.042,14.499,3.005,2.239,4.973,4.167,6.974,7.516,1.387,2.312,2.688,5.488,3.183,8.137,1.526,8.077,2.372,15.485,3.118,24.755,0,0,.082,3.198.211,8.268Z"/><path class="e" d="M90.972,387.333c-6.905,2.265-14.044,3.189-21.277,3.528-3.912.183-9.932-.817-13.932-2.483-.085-.823-.17-1.652-.255-2.486-3.421,1.176-6.745,2.319-6.745,2.319-6.551,2.108-16.979,1.427-24.032.6-1.223-.143-2.152-1.161-2.188-2.392-.528-17.979-4.827-136.456-5.392-162.819,0,0-.007-.346-.024-.889,12.242.003,53.569.042,61.196.042h11.222l1.427,164.58Z"/><path class="g" d="M83.321,52.386c.766-.648,1.904-.717,2.834-.461.351.097.371.112.57.227.075.043.489.35.218.124.168.14.312.301.459.463-.324-.357-.054-.085.007.031.926,1.749,1.025,4.177.536,6.249-.493,2.089-1.433,4.049-3.052,5.598-1.272,1.216-3.517,2.173-5.448,1.551-2.456-.791-3.508,3.07-1.063,3.857,2.469.795,5.375.097,7.564-1.19,2.284-1.343,3.907-3.701,4.921-6.096.968-2.285,1.489-4.682,1.324-7.177-.149-2.254-.74-4.723-2.559-6.227-2.648-2.19-6.577-1.944-9.14.224-.825.698-.719,2.109,0,2.828.817.817,2.001.7,2.828,0h0Z"/><path class="g" d="M35.622,75.206c-.674-.493-.128-.079.098.105.36.293.732.582,1.143.801,1.182.631,2.488.9,3.82.962,2.539.12,5.064-.618,7.066-2.182.829-.647.73-2.159,0-2.828-.879-.807-1.944-.69-2.828,0,.643-.502.215-.167.049-.057-.141.093-.286.181-.434.263-.18.101-.365.188-.549.279-.309.153.345-.12.105-.041-.118.039-.232.09-.349.132-.256.09-.515.169-.778.235-.235.059-.565.189-.804.165.472.046.036-.005-.107.008-.169.015-.338.026-.508.032-.342.012-.684.007-1.025-.015-.137-.009-.336.011-.459-.041l.247.033c-.09-.014-.18-.029-.269-.046-.223-.042-.443-.095-.66-.159-.106-.032-.209-.07-.315-.104-.32-.102.053.001.148.07-.137-.099-.33-.157-.479-.243-.132-.077-.256-.162-.382-.248-.347-.235.415.349.062.044-.251-.217-.504-.424-.773-.62-.848-.619-2.267-.171-2.736.718-.55,1.04-.187,2.075.718,2.736h0Z"/><path class="g" d="M55.433,53.024c.59,1.581.486,5.304-2.546,5.799-4.033.213-4.512-4.252-3.279-6.438,1.01-1.789,4.235-2.699,5.825.639Z"/><path class="g" d="M32.895,53.22c.474,1.641.285,5.434-2.376,5.796-3.528.027-3.829-4.551-2.695-6.723.929-1.778,3.77-2.554,5.071.927Z"/><path class="g" d="M41.401,94.763c-4.932,2.481-9.769,5.139-14.474,8.03s-9.412,5.849-13.247,9.893c-2.636,2.779-4.922,6.128-6.048,9.812-1.041,3.406-1.646,6.955-2.229,10.462-1.335,8.039-2.169,16.138-3.231,24.213-.321,2.443-.703,4.879-1.001,7.325s-.355,4.868-.498,7.316c-.298,5.112-.948,10.229-.545,15.354.242,3.073.616,6.427,1.928,9.239,1.338,2.867,2.771,5.689,4.254,8.484,2.373,4.476,4.91,8.858,7.392,13.273,1.261,2.244,4.718.23,3.454-2.019-2.054-3.656-4.155-7.284-6.156-10.97-1.275-2.35-2.52-4.718-3.713-7.111-.606-1.215-1.236-2.431-1.777-3.677-.562-1.295-.777-2.799-1.012-4.188-.815-4.817-.454-9.698-.091-14.539s.532-9.681,1.216-14.513c1.112-7.861,1.897-15.763,3.083-23.615.576-3.816,1.195-7.64,2.094-11.396.318-1.328.686-2.636,1.142-3.923.189-.534-.025-.015.16-.396.123-.253.25-.497.387-.743.581-1.039,1.238-2.039,1.93-3.008,3.414-4.781,8.348-7.97,13.251-11.032,5.109-3.191,10.369-6.114,15.75-8.821,2.3-1.157.277-4.609-2.019-3.454h0Z"/><path class="g" d="M36.327,101.682c2.416,3.231,6.38,3.983,10.211,4.088,4.261.116,8.552-.685,12.664-1.738,7.986-2.045,15.686-5,23.106-8.571,2.319-1.116.292-4.566-2.019-3.454-6.599,3.176-13.405,5.759-20.465,7.718-3.59.996-7.262,1.829-10.994,2.015-2.639.131-7.236.349-9.05-2.077-.646-.864-1.729-1.307-2.736-.718-.851.498-1.368,1.866-.718,2.736h0Z"/><path class="g" d="M80.507,95.428c8.522,4.224,17.013,9.023,24.527,14.888,3.229,2.52,5.676,5.695,7.272,9.476,1.709,4.047,2.176,8.604,2.786,12.921.744,5.264,1.238,10.561,1.667,15.859.206,2.548,4.208,2.57,4,0-.398-4.917-.862-9.829-1.509-14.719-.602-4.546-1.024-9.404-2.558-13.747-1.499-4.247-3.868-8.246-7.232-11.279-3.544-3.195-7.698-5.832-11.727-8.363-4.919-3.089-10.004-5.91-15.207-8.489-2.299-1.14-4.328,2.309-2.019,3.454h0Z"/><path class="g" d="M72.193,77.979c.02,2.441.045,4.883.087,7.324.036,2.108.12,4.13,1.4,5.913.564.786,1.3,1.731,2.188,2.167.52.256,1.065.47,1.596.703l3.044,1.342c.988.435,2.148.289,2.736-.718.497-.85.276-2.298-.718-2.736l-2.766-1.219-1.661-.732c-.124-.055-.256-.102-.376-.166.384.205-.011-.057-.149-.196-.134-.135-.376-.382-.441-.464-.138-.175-.258-.368-.369-.561-.07-.12-.134-.242-.194-.367.066.175.059.154-.022-.064-.055-.177-.111-.352-.153-.533-.027-.116-.05-.234-.069-.352.03.24.033.243.009.008-.029-.813-.05-1.626-.063-2.44-.037-2.303-.061-4.607-.08-6.911-.021-2.573-4.021-2.579-4,0h0Z"/><path class="g" d="M37.422,60.233c-.543,1.024-1.052,2.07-1.488,3.145l.202-.478c-.25.56-.47,1.082-.47,1.709,0,.761.328,1.488.922,1.965.452.363.935.686,1.519.795.364.068.721.077,1.085.113.481.047,1.085-.257,1.414-.586.347-.347.608-.916.586-1.414-.023-.517-.193-1.054-.586-1.414l-.405-.313c-.312-.181-.648-.272-1.009-.273-.169-.016-.338-.013-.506-.034l.532.071c-.121-.019-.235-.049-.349-.094l.478.202c-.12-.053-.228-.118-.335-.194l.405.313c-.077-.06-.152-.122-.22-.193l.313.405c-.035-.047-.058-.087-.081-.141l.202.478c-.012-.034-.021-.069-.027-.105l.071.532c-.009-.078-.007-.151,0-.228l-.071.532c.026-.165.077-.319.14-.473l-.202.478c.102-.237.202-.475.301-.712l-.202.478c.367-.866.794-1.711,1.235-2.542.249-.471.345-1.019.202-1.541-.128-.464-.486-.967-.919-1.195-.464-.245-1.026-.368-1.541-.202-.484.157-.95.457-1.195.919h0Z"/><path class="g" d="M71.856,82.639c2.559-2.015,4.86-4.315,6.892-6.86,1.46-1.829,2.901-3.75,4.006-5.821.492-.923.263-2.218-.718-2.736-.928-.49-2.211-.268-2.736.718-.543,1.017-1.19,1.98-1.839,2.932-.613.9-1.097,1.527-1.666,2.234-2,2.485-4.261,4.731-6.768,6.705-.826.65-.732,2.157,0,2.828.876.804,1.947.694,2.828,0h0Z"/><path class="g" d="M61.551,84.424c-7.95,3.296-17.148,4.924-25.157.87-3.683-1.864-7.098-4.569-9.284-8.107s-3.305-7.693-3.842-11.804c-.761-5.83-.815-11.761-1.365-17.614-.101-1.075-.847-2-2-2-1.003,0-2.102.918-2,2,.531,5.659.648,11.366,1.293,17.011.534,4.676,1.611,9.331,3.907,13.48,4.558,8.236,13.956,13.211,23.217,13.436,5.642.137,11.114-1.267,16.294-3.415.997-.413,1.709-1.326,1.397-2.46-.259-.942-1.456-1.813-2.46-1.397h0Z"/><path class="g" d="M83.936,15.104c9.863,10.51,11,27.561,4.557,40.163-1.17,2.288,2.28,4.314,3.454,2.019,7.281-14.241,5.958-33.138-5.183-45.01-1.765-1.881-4.59.952-2.828,2.828h0Z"/><path class="g" d="M21.903,47.769c-1.13-10.332-.641-21.219,5.965-29.819,3.368-4.385,7.385-7.866,12.406-10.239,5.684-2.686,12.068-3.84,18.331-3.643,7.469.234,14.765,2.358,20.863,6.746.877.631,2.228.152,2.736-.718.589-1.008.162-2.104-.718-2.736C70.143-.804,54.134-2.039,41.248,2.975c-11.577,4.505-20.442,14.49-22.864,26.758-1.181,5.983-1.142,11.987-.481,18.036.117,1.074.835,2,2,2,.99,0,2.118-.919,2-2h0Z"/><path class="g" d="M57.482,32.456c1.706.739,3.363,1.539,4.939,2.533,1.463.923,2.422,1.644,3.612,2.679,1.489,1.294,2.864,2.718,4.119,4.239,1.742,2.111,3.199,4.452,4.469,6.872,1.196,2.28,4.65.261,3.454-2.019-3.653-6.962-9.153-13.143-16.25-16.701-.762-.382-1.543-.718-2.325-1.057-.99-.429-2.145-.293-2.736.718-.494.845-.279,2.305.718,2.736h0Z"/><path class="g" d="M22.106,48.722c.217-.95.483-1.406,1.001-2.333.658-1.177,1.408-2.302,2.2-3.392,1.692-2.328,3.642-4.55,5.858-6.393.372-.309.757-.594,1.163-.858.515-.335.986-.311.016-.538-1.108-.259-.472-.227-.539.278-.024.181.025.395.024.579-.015,1.761.442,3.432,2.383,3.918,1.468.368,2.753-.611,3.921-1.357,1.238-.791,2.461-1.604,3.709-2.379,3.379-2.096,6.915-3.945,10.849-4.713,2.524-.493,1.455-4.349-1.063-3.857-3.752.733-7.268,2.414-10.54,4.349-1.392.823-2.747,1.705-4.103,2.584-.553.359-1.106.719-1.668,1.064-.114.07-.717.34-.723.432.018-.27,1.039.367.991.354.192.365.269.344.231-.063l.013-.332c.011-1.844-.605-4.061-2.632-4.562-1.569-.388-3.025.833-4.18,1.731-2.484,1.934-4.569,4.325-6.472,6.819-1.694,2.22-3.66,4.826-4.296,7.607-.572,2.506,3.283,3.576,3.857,1.063h0Z"/><path class="g" d="M36.935,101.821c2.522-1.203,5.068-2.486,7.414-4.011.94-.611,1.481-1.447,1.583-2.569.057-.622.019-1.257.015-1.881-.007-1.16-.014-2.32-.02-3.48-.005-1.046-.916-2.049-2-2s-2.005.879-2,2c.005,1.058.012,2.115.018,3.173.003.569.013,1.138.009,1.707,0,.083-.079.479.006.214.057-.178.073-.327.208-.481.173-.197.158-.133-.049-.007-.137.083-.275.166-.413.248-2.205,1.318-4.472,2.527-6.79,3.633-.947.452-1.269,1.881-.718,2.736.627.973,1.724,1.201,2.736.718h0Z"/><path class="g" d="M14.348,130.285c-.021,3.072-.043,6.144-.064,9.216l-.153,22.005c-.062,8.914-.124,17.828-.186,26.742-.053,7.676-.107,15.352-.16,23.029-.026,3.744-.221,7.531-.078,11.273.002.054,0,.108-.001.162-.018,2.574,3.982,2.577,4,0,.021-3.072.043-6.144.064-9.216l.153-22.005c.062-8.914.124-17.828.186-26.742l.16-23.029c.026-3.744.221-7.531.078-11.273-.002-.054,0-.108.001-.162.018-2.574-3.982-2.577-4,0h0Z"/><path class="g" d="M78.323,220.753c-7.27,0-14.541-.009-21.811-.014-9.971-.008-19.942-.016-29.913-.023-3.631-.002-7.261-.005-10.892-.005-2.574,0-2.578,4,0,4,7.762,0,15.525.008,23.287.014,9.834.008,19.668.016,29.502.023,3.276.002,6.552.005,9.827.005,2.574,0,2.578-4,0-4h0Z"/><path class="g" d="M15.151,223.6c.203,9.444.52,18.886.822,28.326.454,14.199.934,28.398,1.42,42.596.512,14.981,1.032,29.962,1.552,44.943.409,11.789.822,23.577,1.22,35.366.117,3.455.234,6.91.34,10.366.034,1.089.021,2.174.526,3.178,1.21,2.404,3.773,2.466,6.124,2.699,5.074.503,10.232.783,15.32.313,2.302-.213,4.606-.556,6.818-1.247,2.449-.765,1.404-4.628-1.063-3.857-4.528,1.414-9.423,1.443-14.122,1.274-2.442-.088-4.88-.271-7.311-.518-.553-.056-1.846.077-2.192-.453-.131-.2-.075-.578-.082-.81-.098-3.228-.207-6.455-.316-9.682-.381-11.31-.776-22.62-1.169-33.929-.507-14.599-1.014-29.197-1.514-43.796-.485-14.167-.966-28.334-1.424-42.502-.323-9.987-.653-19.974-.896-29.962-.019-.768-.037-1.536-.053-2.304-.055-2.57-4.055-2.579-4,0h0Z"/><path class="g" d="M45.97,256.386c.317,17.039.962,34.072,1.817,51.091.89,17.71,2.014,35.41,3.436,53.085.747,9.28,1.579,18.554,2.539,27.815.102.983.571,1.563,1.468,1.929,5.132,2.089,10.847,2.792,16.349,2.453,6.747-.417,13.48-1.412,19.924-3.497,2.439-.789,1.396-4.653-1.063-3.857-6.117,1.979-12.456,2.957-18.861,3.354-5.195.322-10.438-.337-15.285-2.31l1.468,1.929c-1.753-16.913-3.097-33.868-4.223-50.834-1.175-17.704-2.102-35.426-2.768-53.157-.351-9.331-.627-18.665-.8-28.001-.048-2.571-4.048-2.579-4,0h0Z"/><path class="e" d="M182.883,397.566c-.1-.953-.263-1.899-.487-2.831,5.667.67,11.823.478,15.843-.3-.003.26-.001.425-.001.425.01,1.039,0,5.953,1.417,7.058-1.572.817-3.456,1.97-4.913,2.945-1.255.841-2.548.051-3.456-1.156-2.186-2.905-5.17-4.734-7.072-4.78-.435.003-.847.025-1.229.063-.019-.475-.053-.95-.103-1.423Z"/><path class="e" d="M184.215,398.926c1.901.046,4.886,1.875,7.072,4.78.908,1.207,2.201,1.997,3.456,1.156,2.238-1.499,5.488-3.415,7.067-3.903,1.944,1.569,2.577,6.685,2.697,10.45.062,1.924-.918,3.732-2.583,4.698-2.162,1.253-4.388,2.472-6.443,3.099-6.346,1.937-9.96,5.526-15.74,7.358-2.896.918-8.016,1.724-11.646,1.126-6.583-1.083-9.704-4.316-10.389-9.111-.377-2.637,2.806-5.375,4.971-7.066,2.485-1.94,6.837-4.147,10.083-6.234,3.62-2.327,5.101-6.307,11.455-6.354"/><path class="g" d="M184.215,400.926c1.244.075,2.697,1.139,3.675,2.023,1.513,1.367,2.545,3.484,4.626,4.092,2.156.63,3.766-.84,5.485-1.884,1.376-.835,2.806-1.759,4.34-2.269l-1.946-.514c.834.733,1.138,1.929,1.399,2.996.385,1.574.559,3.187.656,4.802.082,1.378.156,2.756-.952,3.773-1.282,1.177-3.27,1.997-4.856,2.7-1.755.779-3.628,1.257-5.39,2.035-1.556.687-3.051,1.497-4.532,2.332-2.847,1.604-5.66,3.201-8.854,4.002-3.007.753-6.353,1.214-9.437.715-2.618-.423-5.475-1.349-7.181-3.511-.638-.809-1.06-1.76-1.325-2.75-.348-1.3-.221-2.092.598-3.192,1.86-2.497,4.753-4.226,7.385-5.78,3.075-1.815,6.225-3.445,8.842-5.909,2.249-2.117,4.247-3.591,7.468-3.659,2.57-.055,2.579-4.055,0-4-2.238.048-4.429.498-6.378,1.636-1.545.902-2.819,2.171-4.117,3.382-3.18,2.967-7.399,4.606-10.965,7.053-3.475,2.384-7.745,5.858-6.906,10.549.661,3.694,3.043,6.797,6.419,8.43,4.347,2.102,9.128,2.193,13.815,1.463,4.628-.721,8.615-2.699,12.656-4.975,2.071-1.167,4.168-2.289,6.425-3.056,2.661-.904,5.143-2.023,7.566-3.457,2.06-1.219,3.438-3.163,3.716-5.561.263-2.266-.147-4.797-.568-7.023-.383-2.031-1.031-4.411-2.655-5.821-1.222-1.061-2.563-.333-3.808.258-1.181.561-2.317,1.222-3.434,1.9-.632.384-1.961,1.618-2.563,1.369-.491-.203-.917-1.053-1.257-1.456-.447-.53-.929-1.031-1.444-1.495-1.808-1.634-4.013-3.044-6.503-3.194-2.571-.155-2.562,3.845,0,4h0Z"/><path class="g" d="M196.238,394.86c.011,1.213.046,2.426.196,3.631.11.882.223,1.778.503,2.626.259.784.643,1.682,1.306,2.217.427.344.844.586,1.414.586.491,0,1.076-.218,1.414-.586.669-.728.87-2.127,0-2.828-.082-.066-.148-.141-.222-.215-.195-.197.318.459.179.227-.03-.051-.064-.099-.094-.15-.064-.11-.11-.228-.17-.339.35.648.09.213.019-.009-.2-.615-.313-1.256-.4-1.895l.071.532c-.165-1.259-.206-2.527-.217-3.796-.01-1.046-.913-2.049-2-2-1.075.048-2.01.879-2,2h0Z"/><path class="g" d="M180.602,395.862c.111.531.203,1.065.277,1.603l-.071-.532c.072.538.124,1.077.157,1.619.033.532.201,1.029.586,1.414.347.347.916.608,1.414.586.517-.023,1.054-.193,1.414-.586.346-.377.618-.885.586-1.414-.077-1.259-.246-2.519-.505-3.753-.099-.473-.512-.957-.919-1.195-.429-.251-1.061-.357-1.541-.202-.484.157-.951.457-1.195.919l-.202.478c-.095.354-.095.709,0,1.063h0Z"/><path class="e" d="M213.025,397.181c.011-.45.022-.898.033-1.346,1.354-.015,2.702-.076,4.045-.148,3.535-.189,8.176-.692,11.479-1.638.042,1.616.085,3.232.128,4.848.021.8.044,1.609.247,2.383s.606,1.523,1.256,1.991l1.053.759c-1.639.574-4.713,2.394-6.858,3.83-1.255.841-2.527.035-3.456-1.156-2.353-3.016-5.17-4.734-7.072-4.78-.335.002-.657.016-.963.039.029-1.592.068-3.193.107-4.785Z"/><path class="e" d="M213.882,401.926c1.901.046,4.719,1.764,7.072,4.78.929,1.191,2.201,1.997,3.456,1.156,2.238-1.499,5.488-3.415,7.067-3.903,1.944,1.569,2.577,6.685,2.697,10.45.062,1.924-.918,3.732-2.583,4.698-2.162,1.253-4.388,2.472-6.443,3.099-6.346,1.937-9.96,5.526-15.74,7.358-2.896.918-8.016,1.724-11.646,1.126-6.583-1.083-9.704-4.316-10.389-9.111-.377-2.637,2.806-5.375,4.971-7.066,2.485-1.94,6.837-4.147,10.083-6.234,3.62-2.327,5.101-6.307,11.455-6.354"/><path class="e" d="M175.1,389.753c-2.406-38.054-9.774-114.534-11.854-150.053l.387-26.716c2.489.079,51.053.242,69.006.289.553,3.882,1.031,7.193,1.031,7.193.269,7.199,2.318,21.845,2.036,38.001-.885,50.692-3.314,124.317-3.553,133.891-2.136,2.081-9.805,3.05-15.053,3.331-5.615.3-11.34.389-17.097-1.675-4.85,1.425-15.354,1.656-22.903-.214-1.051-.26-1.822-1.157-1.888-2.237-.036-.593-.074-1.197-.112-1.811Z"/><path class="j" d="M222.434,45.732c4.791,4.446,7.545,9.967,9.189,16.29.825,3.183,1.195,6.484,1.059,9.772-.148,3.541-.973,6.915-1.398,10.4-.474,3.892-.727,6.533-.542,9.624.289,4.674.647,9.212,1.841,13.904,1.552,6.096,5.111,11.829,4.846,18.109-.123,2.931-1.139,5.788-2.789,8.208,0,0-5.022,6.376-21.718,4.388-5.25-.625-16.402-2.288-21.75-3.625-4.927-1.232-19.821-4.447-19.821-4.447-4.083-1.25-9.083-5.25-8.082-9.596.384-1.667,1.688-6.518,1.779-9.989,0,0,.457-5.718-.043-12.385s-4.404-15.735-4.404-15.735c-1.163-6.431-.974-14.145.068-19.225,1.109-5.407,3.814-11.44,7.475-15.548,6.34-7.115,15.646-11.316,27.1-11.614,7.228-.188,14.42,1.322,22.083,7.035"/><path class="e" d="M186.554,140.297c-11.167-3.331-10.958-11.485-10.958-11.485,2.379-1.132,4.7-2.384,6.952-3.752.204-.124.414-.255.542-.455.164-.256.168-.579.167-.883-.006-1.375-.012-3.341-.019-5.04-5.134-.584-9.602-2.683-13.808-6.387-5.203-4.582-7.286-11.586-7.849-19.267-.413-5.635-.702-11.888-1.461-17.98,4.435-3.879,9.001-8.242,13.26-12.426-.368,3.113-2.326,9.702-.249,9.084,8.741-2.497,15.778-7.608,21.318-14.818,1.087,4.176,2.621,9.375,3.969,11.904,1.931,3.621,7.97,11.628,12.976,13.155l1.294.487c1.773.667,3.725.688,5.511.057l1.336-.471c.92-.838,2.162-1.154,3.222-1.119,2.308.076,3.292,1.265,3.714,1.962,1.259,2.085,1.207,5.922.357,8.301-.598,1.681-1.535,4.024-3.901,5.87-.66.512-2.271,1.299-3.949,1.487l-.279.601c-.628,1.198-2.087,3.281-2.087,3.281-1.354,1.857-2.793,3.617-4.499,5.319.024,2.936.07,6.806.112,8.413.029,1.434.358,2.873,2.274,4.548l4.603,2.029s.832,18.978-21.501,18.978c-4.562,0-8.179-.537-11.046-1.393Z"/><path class="f" d="M210.243,214.169c.275-.308.55-.618.826-.929l-.915-.004c-17.85-.07-41.637-.19-43.677-.25l-17.7-26.917c.731-7.643,1.45-15.259,2.736-24.034.416-2.839,1.105-6.277,1.777-9.066,2.083-8.632,7.147-15.818,14.62-20.613,2.683-1.721,7.026-3.786,10.765-5.603.588.851.955,1.382.955,1.382,1.099,1.587,4.141,2.319,6.05,2.602,6.419.949,13.859-.721,20.222-3.15,4.852-1.852,7.806-3.516,11.685-5.404,4.933,2.686,9.864,5.371,14.796,8.057,2.75,1.498,5.525,3.012,7.878,5.054,7.135,6.19,8.413,13.15,9.499,22.397.919,7.831,1.89,23.431,1.167,33.176-.667,8.984-.889,10.933-5.667,19.592-2.743,4.971-16.252,21.756-28.663,34.175-.52.52-1.24.297-1.784-.197-3.214-2.912-5.642-5.97-7.131-7.662-3.667-4.167-5.417-6.75-7.75-10.472,0,0-.113-.18-.306-.486,2.627-2.778,6.506-7.033,10.615-11.646Z"/><path class="g" d="M192.613,57.78c1.439,5.437,2.955,10.833,6.263,15.453,3.002,4.193,6.903,8.99,11.988,10.643,2.454.798,3.505-3.063,1.063-3.857-2.011-.654-3.714-2.179-5.193-3.636-1.759-1.732-3.349-3.642-4.758-5.669-2.92-4.202-4.21-9.099-5.506-13.997-.658-2.486-4.518-1.432-3.857,1.063h0Z"/><path class="g" d="M193.007,55.51c-3.994,5.146-8.913,9.415-14.831,12.202-1.436.676-2.919,1.242-4.432,1.721-.234.074-.961.191-1.145.345.579-.121,1.089.105,1.53.677l.095.229c-.047-.211-.053-.199-.017.036l-.012-.195c-.011-.261,0-.521.016-.781.147-2.393.867-4.743,1.169-7.122.229-1.806-2.289-2.519-3.414-1.414-5.536,5.434-11.158,10.805-17.157,15.73-1.991,1.634.853,4.45,2.828,2.828,5.999-4.925,11.621-10.296,17.157-15.73l-3.414-1.414c-.306,2.412-1.366,5.425-1.173,8.098.106,1.459.882,2.954,2.538,3.012,1.582.056,3.397-.86,4.838-1.437,7.278-2.914,13.455-7.778,18.252-13.957.662-.852.831-1.997,0-2.828-.69-.69-2.162-.858-2.828,0h0Z"/><path class="g" d="M181.222,123.259c-4.211,2.165-8.572,4.049-12.691,6.392-3.966,2.256-7.535,5.242-10.369,8.823-3.009,3.803-5.224,8.167-6.511,12.845-1.454,5.282-2.191,10.753-2.888,16.175-.794,6.177-1.393,12.376-1.986,18.574-.103,1.077.993,2,2,2,1.167,0,1.897-.92,2-2,1.003-10.484,1.818-21.107,4.167-31.395,2.006-8.783,6.944-16.385,14.755-21.074,4.343-2.607,9.044-4.575,13.542-6.888,2.29-1.177.269-4.63-2.019-3.454h0Z"/><path class="g" d="M161.992,153.296c-.635,3.928-1.233,7.865-1.713,11.815-.313,2.58-.618,5.167-.449,7.767.33,5.059,1.158,10.084,1.431,15.145.138,2.56,4.139,2.577,4,0-.269-4.988-1.074-9.942-1.416-14.926-.167-2.433.065-4.831.346-7.25.446-3.843,1.04-7.669,1.657-11.488.172-1.065-.276-2.152-1.397-2.46-.954-.262-2.287.324-2.46,1.397h0Z"/><path class="g" d="M223.1,163.357c.758,9.55,1.402,19.109,2.27,28.65.098,1.076.849,2,2,2,1.006,0,2.098-.918,2-2-.868-9.541-1.512-19.1-2.27-28.65-.202-2.549-4.204-2.571-4,0h0Z"/><path class="g" d="M233.258,136.296c-2.243,1.18-4.117,2.71-5.725,4.681-1.142,1.4-1.989,2.89-2.659,4.565-.405,1.014-.667,2.069-1.011,3.103-.331.993.382,2.229,1.397,2.46,1.104.251,2.106-.333,2.46-1.397.311-.932.547-1.885.896-2.805.057-.15.117-.299.177-.448-.175.438.044-.088.068-.14.15-.325.312-.645.486-.958.186-.334.385-.661.599-.978.112-.166.227-.33.347-.49-.184.245.22-.264.21-.252.483-.579.99-1.14,1.531-1.666.219-.212.443-.419.675-.617.105-.09.213-.176.319-.265.304-.254-.334.234.005-.002.721-.502,1.469-.928,2.245-1.336.927-.488,1.285-1.856.718-2.736-.608-.944-1.745-1.239-2.736-.718h0Z"/><path class="g" d="M177.904,129.144c2.022,2.629,5.463,3.353,8.602,3.699,3.867.426,7.814-.018,11.603-.83,7.45-1.597,14.117-5.017,20.915-8.31,2.316-1.122.29-4.572-2.019-3.454-5.952,2.883-11.747,5.869-18.204,7.497-3.332.84-6.746,1.355-10.19,1.246-1.431-.045-2.849-.199-4.24-.546-.888-.221-2.413-.541-3.013-1.321-.657-.855-1.72-1.312-2.736-.718-.841.492-1.38,1.875-.718,2.736h0Z"/><path class="g" d="M210.113,107.709c.019,2.33.043,4.659.083,6.988.035,2.027.118,3.974,1.349,5.689.546.761,1.26,1.679,2.121,2.101.497.244,1.017.448,1.523.671l2.905,1.28c.988.435,2.148.289,2.736-.718.497-.85.276-2.298-.718-2.736l-2.639-1.163-1.585-.699c-.119-.052-.243-.099-.359-.158.397.204.023-.024-.124-.173-.092-.091-.182-.184-.268-.281-.16-.206-.206-.254-.138-.144-.131-.167-.246-.351-.352-.535-.066-.114-.128-.231-.186-.35.073.189.069.176-.012-.039-.052-.169-.106-.336-.146-.508-.026-.111-.047-.223-.066-.335.032.254.035.264.012.032-.026-.776-.047-1.552-.06-2.328-.035-2.198-.058-4.396-.076-6.594-.021-2.573-4.021-2.579-4,0h0Z"/><path class="g" d="M176.605,130.539c2.407-1.148,4.835-2.373,7.074-3.827.926-.601,1.456-1.427,1.556-2.53.054-.594.018-1.2.014-1.795-.006-1.107-.014-2.214-.019-3.32-.005-1.046-.916-2.049-2-2s-2.005.879-2,2c.005,1.009.011,2.018.017,3.028.003.543.012,1.086.009,1.629,0,.088-.08.466.008.192.061-.191.078-.347.224-.512.166-.187.194-.156-.028-.021-.131.08-.262.158-.394.237-2.104,1.257-4.268,2.412-6.48,3.467-.947.452-1.269,1.881-.718,2.736.627.973,1.724,1.201,2.736.718h0Z"/><path class="g" d="M171.965,126.178c-2.794-.888-6.979-3.529-6.735-6.779.102-1.357.691-2.981.991-4.392.452-2.131.835-4.305.911-6.486.089-2.575-3.911-2.571-4,0-.078,2.246-.538,4.457-1.037,6.642-.437,1.913-1.079,3.783-.744,5.766.771,4.557,5.436,7.798,9.552,9.106,2.459.782,3.511-3.079,1.063-3.857h0Z"/><path class="g" d="M218.419,39.323c-5.398-3.978-11.543-6.504-18.232-7.151-5.956-.576-12.238.132-17.911,2.033-5.341,1.79-10.276,4.72-14.256,8.725-4.463,4.49-7.461,10.448-8.942,16.575-1.671,6.917-1.549,14.454-.324,21.429.187,1.065,1.49,1.664,2.46,1.397,1.124-.309,1.584-1.393,1.397-2.46-1.936-11.023-.69-24.125,7.029-32.827,7.135-8.044,17.943-11.438,28.489-11.01,6.751.274,12.861,2.758,18.27,6.744.87.641,2.232.145,2.736-.718.594-1.016.155-2.094-.718-2.736h0Z"/><path class="g" d="M220.95,83.434c.716-.605,1.745-.65,2.601-.414.148.04.293.088.436.143-.153-.057-.125-.036.084.063.102.06.461.334.188.103.16.135.29.293.436.44-.342-.344-.076-.121-.008.01.838,1.608.96,3.923.5,5.87-.467,1.98-1.319,3.791-2.878,5.283-.615.588-1.296.987-2.077,1.252-1.056.358-1.986.529-3.012.199-2.456-.791-3.508,3.07-1.063,3.857,2.373.764,5.167.095,7.271-1.142,2.192-1.289,3.748-3.548,4.721-5.846.925-2.185,1.426-4.479,1.268-6.866-.144-2.17-.713-4.544-2.463-5.993-2.561-2.121-6.353-1.885-8.833.213-.825.698-.719,2.109,0,2.828.817.817,2.001.7,2.828,0h0Z"/><path class="g" d="M175.454,105.66c-.674-.493-.151-.098.074.085.349.283.709.565,1.107.777,1.141.609,2.398.868,3.683.929,2.444.115,4.865-.6,6.791-2.104.829-.647.73-2.159,0-2.828-.879-.807-1.944-.69-2.828,0,.646-.505.233-.18.067-.07-.134.089-.272.172-.413.251-.171.096-.347.179-.522.266-.303.149.361-.128.123-.049-.112.037-.22.086-.332.125-.243.086-.49.16-.74.224-.206.052-.559.197-.765.157.284-.035.311-.039.08-.012l-.156.015c-.161.014-.322.024-.483.03-.325.012-.651.007-.975-.014-.104-.007-.363.02-.437-.039l.261.035c-.086-.013-.171-.027-.256-.043-.212-.04-.422-.09-.628-.152-.101-.03-.199-.067-.299-.099-.318-.101.076.018.164.076-.137-.092-.311-.148-.455-.231-.125-.073-.244-.154-.363-.236-.146-.099-.289-.291.207.162-.041-.037-.087-.069-.128-.105-.245-.212-.493-.413-.755-.605-.848-.619-2.267-.171-2.736.718-.55,1.04-.187,2.075.718,2.736h0Z"/><path class="g" d="M194.351,84.473c.562,1.504.462,5.046-2.422,5.517-3.837.203-4.292-4.045-3.119-6.124.96-1.702,4.029-2.567,5.541.608Z"/><path class="g" d="M172.909,84.66c.451,1.561.271,5.17-2.26,5.514-3.357.026-3.643-4.33-2.563-6.396.884-1.692,3.586-2.429,4.824.881Z"/><path class="g" d="M177.132,91.282c-.521.982-1.008,1.984-1.425,3.015l.202-.478c-.246.55-.461,1.059-.46,1.675,0,.747.321,1.469.905,1.938.443.356.915.675,1.488.781.355.066.703.076,1.058.111.481.047,1.085-.257,1.414-.586.347-.347.608-.916.586-1.414-.023-.517-.193-1.054-.586-1.414l-.405-.313c-.312-.181-.648-.272-1.009-.273-.16-.016-.321-.012-.481-.032l.532.071c-.115-.018-.223-.047-.332-.09l.478.202c-.114-.05-.217-.112-.318-.184l.405.313c-.074-.057-.145-.116-.209-.183l.313.405c-.033-.044-.056-.083-.077-.134l.202.478c-.012-.033-.02-.066-.025-.1l.071.532c-.008-.074-.007-.143,0-.217l-.071.532c.025-.157.074-.303.133-.45l-.202.478c.1-.233.199-.467.296-.701l-.202.478c.349-.824.756-1.628,1.175-2.418.249-.471.345-1.019.202-1.541-.128-.464-.486-.967-.919-1.195-.464-.245-1.026-.368-1.541-.202-.484.157-.95.457-1.195.919h0Z"/><path class="g" d="M210.043,112.216c2.435-1.917,4.623-4.105,6.556-6.526,1.394-1.747,2.772-3.58,3.826-5.558.492-.923.263-2.218-.718-2.736-.928-.49-2.211-.268-2.736.718-.516.968-1.132,1.884-1.749,2.79-.147.216-.295.432-.45.643-.222.304-.449.605-.677.904.17-.222-.016.021-.091.116-.116.148-.234.296-.352.443-1.903,2.365-4.053,4.501-6.438,6.379-.826.65-.732,2.157,0,2.828.876.804,1.947.694,2.828,0h0Z"/><path class="g" d="M200.145,113.751c-7.587,3.142-16.332,4.681-23.961.786-3.49-1.782-6.703-4.363-8.76-7.731-2.081-3.407-3.126-7.398-3.608-11.334-.67-5.468-.752-11.013-1.267-16.498-.101-1.075-.847-2-2-2-1.003,0-2.102.918-2,2,.503,5.354.621,10.752,1.22,16.095.504,4.496,1.534,8.977,3.742,12.965,4.339,7.837,13.271,12.584,22.084,12.825,5.404.148,10.65-1.195,15.613-3.25.997-.413,1.708-1.326,1.397-2.46-.259-.942-1.456-1.813-2.46-1.397h0Z"/><path class="g" d="M221.103,46.896c3.822,3.596,6.424,8.09,8.004,13.075.903,2.848,1.514,5.766,1.652,8.755.146,3.177-.312,6.262-.828,9.385-.489,2.96-.888,5.95-1.082,8.946-.178,2.749.01,5.486.237,8.227.258,3.124.637,6.254,1.318,9.317.639,2.874,1.665,5.608,2.695,8.359,1.073,2.865,2.203,5.841,2.395,8.922.202,3.227-.72,6.219-2.498,8.899-1.428,2.151,2.035,4.156,3.454,2.019,3.504-5.279,3.652-11.337,1.795-17.245-.908-2.888-2.13-5.666-3.052-8.549-.978-3.054-1.55-6.23-1.891-9.415-.32-2.984-.607-6.023-.524-9.027.082-2.983.453-5.978.932-8.921.539-3.309,1.133-6.613,1.077-9.979-.054-3.245-.58-6.484-1.475-9.601-1.74-6.058-4.765-11.652-9.382-15.997-1.874-1.763-4.708,1.06-2.828,2.828h0Z"/><path class="g" d="M166.477,214.987c10.428.287,20.882.15,31.312.198,4.121.019,8.243.036,12.364.052,2.574.01,2.578-3.99,0-4-13.153-.052-26.306-.099-39.458-.203-1.406-.011-2.813-.008-4.218-.047-2.575-.071-2.573,3.929,0,4h0Z"/><path class="g" d="M197.79,228.097c-1.082,1.539-2.78,3.074-4.251,4.406-.365.33-.729.669-1.114.974-.448.355-.579.347-1.169.308-1.161-.076-2.26-.061-3.415.1-4.885.682-9.849,3.25-13.215,6.861-1.754,1.882,1.069,4.716,2.828,2.828,3.091-3.317,8.081-5.953,12.699-5.862,1.342.026,2.607.264,3.843-.456.947-.552,1.792-1.394,2.597-2.131,1.673-1.533,3.342-3.147,4.651-5.011.621-.884.16-2.223-.718-2.736-.999-.584-2.114-.169-2.736.718h0Z"/><path class="g" d="M210.647,240.408c-2.479,1.099-4.819,2.479-7.133,3.887-1.153.702-2.151,1.35-2.969,2.447-.766,1.027-1.505,2.065-2.321,3.054-1.571,1.904-3.26,3.866-5.249,5.348-.944.703-1.965,1.259-3.067,1.668-1.24.46-2.388.935-3.342,1.882-1.83,1.816.999,4.645,2.828,2.828.693-.688,1.736-.892,2.617-1.258,1.226-.509,2.334-1.171,3.389-1.975,2.017-1.537,3.755-3.401,5.381-5.34.833-.993,1.633-2.017,2.4-3.062.297-.404.556-.886.927-1.225.407-.371.952-.626,1.424-.913,2.313-1.408,4.653-2.788,7.133-3.887.988-.438,1.219-1.878.718-2.736-.595-1.018-1.745-1.157-2.736-.718h0Z"/><path class="g" d="M166.024,232.264c.944.908,2.122,1.399,3.261,2.002s2.254,1.257,3.336,1.959c.482.313.96.632,1.423.973.067.049.373.303.07.05.109.091.221.179.33.271.194.165.384.335.567.513.201.196.384.406.574.612.251.273-.076-.139.044.052.073.116.157.225.229.341.058.093.113.187.165.282,0,.002.231.456.112.202-.117-.25.057.166.074.22.05.158.089.319.126.481.229,1.022,1.467,1.718,2.46,1.397,1.072-.347,1.642-1.365,1.397-2.46-.593-2.653-2.737-4.494-4.888-5.949-1.096-.741-2.228-1.43-3.387-2.067-.598-.328-1.205-.639-1.815-.943-.258-.129-.516-.259-.764-.406-.124-.073-.244-.15-.363-.231.282.192-.02-.029-.121-.126-.754-.726-2.088-.806-2.828,0-.721.786-.805,2.053,0,2.828h0Z"/><path class="g" d="M164.387,256.648c1.826,1.507,3.434,3.258,5.316,4.697,1.99,1.521,4.216,2.609,6.532,3.536,2.18.873,4.489,1.799,6.885,1.535,1.538-.169,3.105-.823,3.928-2.213.951-1.605.544-3.53-.234-5.103-.478-.968-1.851-1.235-2.736-.718-.987.577-1.198,1.765-.718,2.736.32.648.45,1.07-.25,1.267-.682.192-1.474.09-2.153-.084-1.645-.421-3.469-1.155-4.813-1.766-1.671-.759-3.438-1.811-4.697-2.888-1.447-1.237-2.762-2.616-4.232-3.83-.833-.687-2.013-.815-2.828,0-.708.708-.837,2.138,0,2.828h0Z"/><path class="g" d="M168.431,251.382c1.899,2.435,4.31,4.502,7.011,6.003,1.356.753,2.771,1.447,4.172,2.114,1.49.709,3.007,1.308,4.656,1.497,1.586.183,3.102-.305,4.087-1.605.911-1.204,1.166-2.935.73-4.382-.492-1.636-1.837-2.46-3.231-3.27s-2.799-1.577-4.117-2.498c-2.698-1.886-5.105-4.221-7.072-6.861-.644-.865-1.73-1.306-2.736-.718-.853.499-1.367,1.865-.718,2.736,1.632,2.191,3.431,4.226,5.519,5.996,2.128,1.804,4.433,3.258,6.844,4.648.481.277,1.098.594,1.5.887.18.131.08.021.201.242-.074-.134,0,.103.001.116.008.13-.037.611-.027.536.025-.18-.086.3-.02.114-.026.074-.264.168-.112.105.066-.027.143-.014-.049.006-.091.01-.29.009-.543-.023-1-.126-2.089-.593-3.031-1.049-1.225-.592-2.452-1.205-3.655-1.841-2.589-1.37-4.782-3.278-6.58-5.584-.665-.852-2.131-.698-2.828,0-.842.842-.667,1.974,0,2.828h0Z"/><path class="g" d="M198.207,227.311c3.247,5.171,7.042,9.858,11.115,14.4,1.081,1.206,2.2,2.378,3.378,3.49,1.374,1.298,3.098,2.413,4.909,1.158,1.219-.844,2.259-2.185,3.283-3.249,1.263-1.312,2.511-2.638,3.746-3.976,4.403-4.768,8.66-9.675,12.76-14.707,2.978-3.655,5.968-7.355,8.566-11.295,2.54-3.854,4.845-8.341,5.863-12.866,1.184-5.263,1.313-10.912,1.351-16.286.043-6.162-.235-12.331-.69-18.475-.404-5.447-.856-10.988-2.029-16.33-1.407-6.408-4.601-12.067-9.813-16.141-3.28-2.565-7.055-4.416-10.697-6.399-3.878-2.112-7.757-4.224-11.635-6.335-2.262-1.231-4.283,2.221-2.019,3.454,3.304,1.799,6.607,3.598,9.911,5.397,3.16,1.72,6.396,3.349,9.449,5.256,4.634,2.895,8.229,7.037,9.973,12.251,1.608,4.809,2.087,9.979,2.544,15.003.502,5.515.818,11.052.952,16.588s.005,11.102-.518,16.643c-.197,2.082-.501,4.141-1.124,6.143-.744,2.389-1.897,4.62-3.075,6.818-1.752,3.269-3.92,6.232-6.186,9.163-3.534,4.57-7.252,9.001-11.06,13.345-2.314,2.639-4.669,5.242-7.074,7.798-1.236,1.314-2.485,2.616-3.75,3.902-.071.072-.885.813-.862.871.772.242.965.218.58-.071-.176-.16-.351-.323-.524-.487-.772-.728-1.518-1.483-2.245-2.256-4.32-4.591-8.269-9.486-11.622-14.825-1.366-2.175-4.828-.17-3.454,2.019h0Z"/><path class="g" d="M227.146,191.068c-.262.372-.531.738-.804,1.102-.423.563-.35.468-.819,1.063-.819,1.042-1.656,2.07-2.499,3.093-2.138,2.593-4.321,5.15-6.52,7.692-4.699,5.433-9.472,10.806-14.322,16.105-1.863,2.036-3.731,4.071-5.663,6.043-1.803,1.84,1.023,4.671,2.828,2.828,4.094-4.177,7.985-8.563,11.878-12.926,4.793-5.371,9.546-10.784,14.141-16.326,1.799-2.169,3.607-4.351,5.233-6.654,1.487-2.108-1.98-4.108-3.454-2.019h0Z"/><path class="g" d="M232.224,228.017c.578,6.773,1.146,13.547,1.38,20.343.236,6.838.042,13.676-.095,20.513-.252,12.586-.555,25.171-.88,37.755-.321,12.389-.666,24.778-1.025,37.166-.292,10.06-.594,20.119-.9,30.178-.177,5.807-.364,11.614-.524,17.422-.009.32-.017.641-.025.961l.586-1.414c-.328.3.097.015-.15.124-.169.075-.327.203-.491.292-.322.174-.649.306-.994.428-.968.342-1.969.592-2.972.806-2.295.489-4.628.769-6.966.956-5.8.465-11.74.626-17.372-1.04-2.473-.732-3.53,3.127-1.063,3.857,4.494,1.33,9.176,1.597,13.837,1.436,3.814-.131,7.638-.429,11.397-1.11,1.557-.282,3.123-.626,4.603-1.196,1.335-.514,3.283-1.283,3.549-2.872.159-.949.082-1.984.11-2.944.239-8.229.499-16.458.747-24.687.398-13.194.784-26.388,1.149-39.582.414-14.974.803-29.949,1.137-44.925.157-7.052.303-14.104.427-21.157.154-8.73-.307-17.436-1.025-26.133-.143-1.726-.293-3.452-.44-5.177-.217-2.546-4.219-2.569-4,0h0Z"/><path class="g" d="M189.267,266.94c.068,5.924.471,11.852.804,17.765.557,9.894,1.183,19.784,1.831,29.672.731,11.168,1.496,22.333,2.294,33.497.687,9.603,1.392,19.205,2.164,28.802.429,5.34.773,10.713,1.47,16.027.052.396.102.792.17,1.185.185,1.065,1.491,1.663,2.46,1.397,1.125-.309,1.583-1.392,1.397-2.46-.071-.408-.107-.802-.043-.238-.041-.364-.09-.727-.131-1.091-.113-1.003-.212-2.008-.308-3.013-.294-3.079-.553-6.162-.806-9.245-.76-9.258-1.446-18.523-2.115-27.789-.797-11.039-1.56-22.08-2.291-33.123-.674-10.179-1.326-20.36-1.915-30.544-.377-6.518-.79-13.043-.955-19.571-.011-.424-.019-.847-.024-1.271-.03-2.572-4.03-2.579-4,0h0Z"/><path class="g" d="M226.642,396.341c.037,1.393,0,2.813.172,4.198.114.922.307,1.735.72,2.574.387.786.982,1.368,1.67,1.887.387.291,1.098.324,1.541.202.464-.128.967-.486,1.195-.919.245-.464.368-1.026.202-1.541-.171-.527-.48-.864-.919-1.195.472.356.178.134.075.031-.074-.074-.137-.175-.216-.242.199.264.24.31.122.14l-.058-.092c-.067-.11-.12-.225-.181-.338-.095-.178.181.487.035.072-.037-.103-.069-.208-.098-.314-.072-.261-.12-.527-.159-.795l.071.532c-.176-1.383-.134-2.805-.172-4.198-.028-1.045-.9-2.049-2-2-1.06.047-2.03.88-2,2h0Z"/><path class="g" d="M211.024,397.065c-.036,1.653-.072,3.306-.109,4.958-.023,1.047.936,2.048,2,2,1.103-.049,1.975-.879,2-2,.036-1.653.072-3.306.109-4.958.023-1.047-.936-2.048-2-2-1.103.049-1.975.879-2,2h0Z"/><path class="g" d="M213.882,403.926c1.212.071,2.632,1.101,3.602,1.974,1.525,1.374,2.617,3.52,4.706,4.135,2.154.634,3.76-.835,5.478-1.878,1.376-.835,2.806-1.759,4.34-2.269l-1.946-.514c.834.733,1.138,1.929,1.399,2.996.385,1.574.559,3.187.656,4.802.082,1.378.156,2.756-.952,3.773-1.282,1.177-3.27,1.997-4.856,2.7-1.755.779-3.628,1.257-5.39,2.035-1.556.687-3.051,1.497-4.532,2.332-2.847,1.604-5.66,3.201-8.854,4.002-3.007.753-6.353,1.214-9.437.715-2.618-.423-5.475-1.349-7.181-3.511-.638-.809-1.06-1.76-1.325-2.75-.348-1.3-.221-2.092.598-3.192,1.86-2.497,4.753-4.226,7.385-5.78,3.075-1.815,6.225-3.445,8.842-5.909,2.249-2.117,4.247-3.591,7.468-3.659,2.57-.055,2.579-4.055,0-4-2.238.048-4.429.498-6.378,1.636-1.545.902-2.819,2.171-4.117,3.382-3.18,2.967-7.399,4.606-10.965,7.053-3.475,2.384-7.745,5.858-6.906,10.549.661,3.694,3.043,6.797,6.419,8.43,4.347,2.102,9.128,2.193,13.815,1.463,4.628-.721,8.615-2.699,12.656-4.975,2.071-1.167,4.168-2.289,6.425-3.056,2.661-.904,5.143-2.023,7.566-3.457,2.06-1.219,3.438-3.163,3.716-5.561.263-2.266-.147-4.797-.568-7.023-.383-2.031-1.031-4.411-2.655-5.821-1.222-1.061-2.563-.333-3.808.258-1.181.561-2.317,1.222-3.434,1.9-.553.336-1.102.68-1.644,1.033-.43.28-.488.502-.91.329-.499-.205-.95-1.066-1.3-1.472-.462-.536-.956-1.047-1.482-1.521-1.797-1.62-3.957-3.002-6.431-3.146-2.572-.15-2.563,3.85,0,4h0Z"/><path class="g" d="M162.718,260.94c1.653,21.817,3.555,43.614,5.4,65.415,1.713,20.239,3.473,40.48,4.807,60.748.147,2.236-.191,5.274,1.289,7.096,1.024,1.261,2.453,1.586,3.973,1.891,1.569.314,3.158.537,4.748.708,5.628.607,11.736.678,17.253-.759,2.489-.649,1.434-4.508-1.063-3.857-4.622,1.204-9.68,1.144-14.406.781-1.264-.097-2.526-.228-3.779-.427-.627-.1-1.252-.211-1.874-.339-.438-.09-1.321-.116-1.654-.4-.417-.356-.279-1.435-.311-1.95-.06-.961-.122-1.922-.186-2.882-.592-8.974-1.286-17.942-2.003-26.907-1.731-21.637-3.62-43.262-5.433-64.892-.956-11.405-1.897-22.812-2.762-34.224-.193-2.551-4.195-2.572-4,0h0Z"/><path class="g" d="M162.503,258.704c1.544,1.723,3.387,3.211,5.392,4.367,1.035.597,2.127,1.093,3.241,1.523,1.29.499,3.068.802,4.057-.466.341-.437.586-.835.586-1.414,0-.491-.218-1.076-.586-1.414-.718-.659-2.141-.881-2.828,0-.242.311.473-.224.513-.236.625-.184.218.051.102-.025-.194-.128.368.107.139.013-.078-.032-.171-.046-.253-.071-.225-.071-.447-.158-.667-.243-.1-.039-.2-.079-.3-.119-.483-.193.231.11-.042-.018-.854-.403-1.693-.816-2.497-1.314-.389-.241-.769-.495-1.141-.761-.087-.063-.174-.126-.261-.19-.073-.054-.377-.298-.044-.03-.168-.135-.336-.269-.501-.407-.742-.623-1.435-1.301-2.081-2.022-.7-.781-2.125-.766-2.828,0-.766.834-.747,1.995,0,2.828h0Z"/><path class="e" d="M131.9,157.343c.02,2.558.061,5.935.097,7.337.026,1.248.312,2.502,1.98,3.96l2.999,1.497s-5.472,13.833-16.972,13.833c-19,0-16.612-9.928-16.612-9.928.934-.508,1.855-1.039,2.764-1.59.177-.108.36-.222.472-.397.143-.223.146-.504.145-.769-.007-1.651-.015-2.403-.022-4.054v-9.317l25.149-.572Z"/><path class="e" d="M107.367,166.968c-4.728-.417-8.805-2.262-12.633-5.633-4.531-3.99-6.344-10.089-6.835-16.777-.283-3.857-1.043-8.029-.898-12.238,0,0-.002-1.714-.004-3.743,0-6.774,3.758-14.441,13.924-17.108,11.969-3.139,22.5-.5,29.003,4.246,10.903,7.958,8.44,19.257,8.44,19.257.801-.729,1.882-1.005,2.806-.974,2.01.066,2.867,1.102,3.234,1.709,1.097,1.816,1.051,5.157.311,7.228-.52,1.464-1.336,3.504-3.397,5.111-.586.454-2.031,1.157-3.522,1.3-.799,1.396-1.978,3.375-1.978,3.375-1.904,2.61-3.997,5-6.951,7.313,0,0-2.211,1.599-3.211,2.21s-3.714,2.037-3.714,2.037c-2.341.982-5.647,2.064-8.109,2.442-.951.146-1.925.246-2.932.298-1.219.064-2.396.046-3.534-.055Z"/><path class="e" d="M103.747,396.526c5.197-.057,10.393-.724,14.508-1.549,0,.741.012,1.49.012,1.49.016,1.018.056,4.167.444,5.833l.03.144c-1.549.775-3.532,1.978-5.031,2.983-1.18.79-2.773.499-3.837-.441-2.006-1.771-4.296-3.75-6.083-3.75-.077,0-.154,0-.231.002-.015-.097-.024-.153-.024-.153-.251-1.523-.517-3.425-.557-4.555.256,0,.513-.001.77-.004Z"/><path class="g" d="M116.267,396.468c.033,2.111.044,4.298.516,6.365.233,1.021,1.464,1.719,2.46,1.397,1.069-.346,1.647-1.366,1.397-2.46-.073-.319-.126-.641-.17-.965l.071.532c-.214-1.612-.249-3.244-.274-4.868-.016-1.046-.908-2.049-2-2-1.07.048-2.017.879-2,2h0Z"/><path class="g" d="M101.012,397.112c.12,1.509.348,3.013.594,4.505.077.465.53.967.919,1.195.429.251,1.061.357,1.541.202.484-.157.951-.457,1.195-.919l.202-.478c.095-.354.095-.709,0-1.063-.112-.68-.215-1.361-.308-2.044l.071.532c-.086-.642-.164-1.285-.215-1.93-.043-.537-.194-1.023-.586-1.414-.347-.347-.916-.608-1.414-.586-.517.023-1.054.193-1.414.586-.343.373-.628.89-.586,1.414h0Z"/><path class="e" d="M99.998,425.698c-.128.043-.257.085-.387.127-2.721.863-7.534,1.62-10.945,1.059-6.187-1.018-8.699-3.13-9.343-7.637-.354-2.478,2.216-5.978,4.251-7.567,2.335-1.823,6.426-3.898,9.476-5.859,3.402-2.187,6.156-4.583,10.74-4.583,1.788,0,4.077,1.979,6.083,3.75,1.064.94,2.658,1.231,3.837.441,2.103-1.409,5.158-3.21,6.642-3.668,1.827,1.475,2.422,6.283,2.535,9.821.058,1.808-.863,3.508-2.428,4.415-2.032,1.178-4.124,2.323-6.055,2.913-5.821,1.777-9.197,5.033-14.406,6.789Z"/><path class="g" d="M99.466,423.769c-4.516,1.477-9.574,1.886-14.102.249-3.079-1.113-5.1-4.265-3.358-7.416,2.43-4.395,7.676-6.288,11.722-8.845,1.993-1.259,3.891-2.797,6.077-3.719,1.058-.446,2.206-.728,3.352-.785,1.222-.061,2.122.556,3.079,1.275,1.17.879,2.186,2.112,3.509,2.761s2.819.783,4.193.241c2.448-.965,4.406-2.997,6.945-3.844l-1.946-.514c1.64,1.45,1.723,4.769,1.867,6.799.086,1.222.289,2.551-.525,3.588-.917,1.168-2.799,1.85-4.099,2.485-1.461.714-3.025,1.114-4.529,1.722-1.443.583-2.842,1.251-4.21,1.992-2.622,1.421-5.144,3.026-7.976,4.009-2.417.839-1.378,4.704,1.063,3.857,4.1-1.423,7.608-3.952,11.541-5.721,2.149-.967,4.423-1.538,6.536-2.607,2.08-1.053,4.372-2.144,5.483-4.316,1.017-1.988.828-4.166.601-6.314-.214-2.026-.526-4.065-1.329-5.949-.774-1.814-2.083-3.503-4.229-2.629-1.943.792-3.761,1.889-5.524,3.018-.636.407-1.206,1.005-1.998.659-.894-.391-1.685-1.39-2.45-1.995-1.704-1.347-3.537-2.587-5.795-2.527-4.565.122-7.966,2.729-11.655,5.06-5.947,3.757-16.981,8.458-13.843,17.492,1.321,3.803,4.607,5.757,8.378,6.643,4.682,1.101,9.727.678,14.285-.813,2.436-.797,1.393-4.661-1.063-3.857Z"/><path class="e" d="M136.694,405.802c-1.633-.963-3.346-1.51-4.432-1.537-.115,0-.228.003-.331.006l.081-2.249c.034-1.122.068-2.245.102-3.367,0,0,.049-1.217.101-2.513.643.018,1.217.016,1.719-.007,5.513-.255,9.525-.792,12.833-1.503,0,.483,0,.836,0,.836.022.801.07,4.553.091,5.354.02.752.041,1.512.232,2.24s.858,2.271,1.468,2.711l.111.108c-1.611.699-4.073,2.173-5.854,3.366-1.18.79-2.331-.003-3.248-1.087-.796-.941-1.818-1.737-2.873-2.359Z"/><path class="g" d="M144.767,395.468c.042,1.625.051,3.251.081,4.876.022,1.18.029,2.414.402,3.544.366,1.11.944,2.55,1.894,3.3.819.647,2.039.859,2.828,0,.662-.721.877-2.136,0-2.828-.081-.064-.146-.133-.221-.203-.257-.24.222.379.02.02-.113-.201-.239-.391-.345-.597-.065-.127-.125-.256-.186-.385-.206-.436.144.406-.01-.026-.065-.182-.134-.361-.187-.547-.043-.151-.075-.304-.107-.458-.12-.569.011.369-.027-.213-.02-.314-.038-.627-.047-.941-.009-.31-.015-.619-.02-.929-.027-1.538-.037-3.076-.076-4.613-.027-1.045-.901-2.049-2-2-1.061.048-2.029.88-2,2h0Z"/><path class="g" d="M130.114,398.655c-.034,1.122-.068,2.245-.102,3.367-.015.503.234,1.062.586,1.414.347.347.916.608,1.414.586.517-.023,1.054-.193,1.414-.586.365-.398.569-.867.586-1.414.034-1.122.068-2.245.102-3.367.015-.503-.234-1.062-.586-1.414-.347-.347-.916-.608-1.414-.586-.517.023-1.054.193-1.414.586-.365.398-.569.867-.586,1.414h0Z"/><path class="e" d="M129.41,429.411c-.228.08-.459.158-.694.233-2.721.863-7.534,1.62-10.945,1.059-6.187-1.018-9.12-4.056-9.764-8.563-.354-2.478,2.637-5.052,4.672-6.641,2.335-1.823,6.426-3.898,9.476-5.859,3.402-2.187,4.136-5.331,10.107-5.375,1.787.044,5.278,1.5,7.305,3.896.917,1.084,2.068,1.877,3.248,1.087,2.103-1.409,5.158-3.21,6.642-3.668,1.827,1.475,2.422,6.283,2.535,9.821.058,1.808-.863,3.508-2.428,4.415-2.032,1.178-4.124,2.323-6.055,2.913-5.706,1.741-9.062,4.904-14.099,6.683Z"/><path class="g" d="M128.879,427.482c-4.548,1.566-10.262,2.276-14.729.088-1.639-.803-2.989-2.025-3.666-3.748-.278-.707-.609-1.63-.467-2.394.211-1.135,1.361-2.16,2.158-2.901,3.843-3.577,9.022-5.216,12.943-8.657,1.235-1.084,2.303-2.406,3.848-3.051,2.029-.846,3.949-.691,5.849.238,1.301.636,2.355,1.466,3.338,2.518,1.169,1.251,2.687,2.31,4.491,1.895,1.449-.333,2.796-1.56,4.067-2.303,1.044-.611,2.124-1.275,3.278-1.66l-1.946-.514c1.604,1.418,1.704,4.626,1.854,6.615.096,1.271.327,2.688-.512,3.772-.863,1.115-2.669,1.774-3.896,2.384-1.47.731-3.029,1.148-4.549,1.749-1.457.576-2.87,1.246-4.249,1.989-2.575,1.388-5.05,2.977-7.812,3.98-2.401.871-1.365,4.738,1.063,3.857,4.252-1.543,7.882-4.292,12.061-5.969,2.355-.945,4.694-1.676,6.936-2.903,2.104-1.151,3.952-2.393,4.726-4.789.671-2.079.242-4.548-.055-6.663-.273-1.941-.678-4.053-1.779-5.718-.538-.814-1.312-1.718-2.374-1.718-.955,0-1.994.642-2.822,1.063-.891.453-1.759.954-2.614,1.471-.492.298-.981.603-1.464.915-.202.131-.4.27-.605.396-.289.178.162.219-.176.089-.418-.161-.742-.726-1.035-1.038-.38-.403-.782-.77-1.214-1.117-.885-.711-1.824-1.337-2.849-1.829-1.81-.869-3.628-1.388-5.646-1.207-1.871.168-3.718.651-5.285,1.722-1.272.869-2.307,1.987-3.458,2.997-1.54,1.352-3.472,2.296-5.235,3.319-1.987,1.154-3.976,2.306-5.79,3.723-1.651,1.29-3.325,2.736-4.383,4.575-1.051,1.828-1.037,3.725-.432,5.699,2.946,9.621,15.666,9.675,23.493,6.981,2.42-.833,1.38-4.698-1.063-3.857Z"/><path class="h" d="M91.88,391.905c.061,1.152.131,2.305.212,3.457,8.225,2.091,19.225,1.048,26.556-.464,7.257.798,12.427,1.369,15.286,1.237,6-.278,10.222-.889,13.693-1.695,1.009-.234,1.687-1.191,1.717-2.227l3.474-122.874-.053-6.741c-7.28,0-14.392,0-14.392,0-15.181,0-31.579.067-46.892.073.251,28.477.525,58.774.375,86.778-.076,14.154-.725,28.326.024,42.456Z"/><path class="g" d="M150.818,269.339c-.135,4.772-.27,9.544-.405,14.317l-.947,33.486c-.362,12.82-.725,25.639-1.087,38.459l-.826,29.236-.189,6.703c-.028.978-.085.943-1.274,1.195-4.55.965-9.393,1.548-14.046,1.402-2.543-.08-5.081-.352-7.61-.613-1.076-.111-2,.999-2,2,0,1.174.921,1.889,2,2,2.628.271,5.267.561,7.91.622,2.56.059,5.149-.192,7.693-.461,2.336-.248,4.669-.58,6.969-1.061,2.404-.503,4.17-1.778,4.339-4.413.088-1.382.079-2.778.118-4.162l.752-26.587c.362-12.803.724-25.606,1.086-38.409l1.005-35.534c.168-5.954.573-11.956.506-17.913,0-.088.005-.177.008-.266.073-2.575-3.927-2.573-4,0h0Z"/><path class="e" d="M148.993,273.481c-.687,1.63-.021,3.522-.371,5.256-.405,2.006-2.07,3.467-3.268,5.126-3.236,4.484-3.071,10.492-2.771,16.014.054,1.001.127,2.06.698,2.885s1.825,1.262,2.602.627l1.197-.978c-.02,2.588-.041,5.175-.061,7.763-.006.785-.005,1.595.122,2.368,1.406.669.984,2.63,1.925,3.94.34.474.89.856,1.512.891,1.036.058,1.824-.792,2.757-1.204.934-.412,2.026-.379,3.028-.628,1.769-.439,3.129-1.72,4.183-3.08,1.676-2.164,2.813-4.668,3.302-7.274.199-1.062.624-5.981.743-7.365.178-3.521.719-7.932-.762-11.38-.584-1.361-1.434-2.616-1.814-4.048-.713-2.69.33-5.618-.412-8.301"/><path class="g" d="M147.065,272.95c-.594,1.668-.172,3.278-.345,4.977-.146,1.442-1.198,2.525-2.068,3.604-2.147,2.661-3.407,5.628-3.886,9.016-.461,3.262-.418,6.618-.146,9.897.135,1.629.522,3.27,1.864,4.331,1.261.997,3.025,1.234,4.408.341,2.155-1.392.152-4.856-2.019-3.454-.119.077.199.093.123.012-.071-.076-.159-.124-.18-.242-.097-.538-.2-1.005-.233-1.556-.081-1.364-.139-2.732-.148-4.098-.017-2.595.151-5.195.977-7.673.831-2.496,2.65-4.144,4.041-6.294.761-1.177,1.188-2.487,1.267-3.885.075-1.324-.253-2.637.202-3.914.865-2.429-2.998-3.475-3.857-1.063h0Z"/><path class="g" d="M145.154,292.877c-.034,4.287-.068,8.575-.102,12.862-.016,2.062-.169,4.183.015,6.238.164,1.835.763,3.726,2.346,4.821s3.569.828,4.969-.456c1.419-1.302,1.985-3.242,2.222-5.087.515-4.003.505-8.123.721-12.152.138-2.572-3.862-2.565-4,0-.179,3.343-.351,6.687-.538,10.029-.067,1.203-.103,2.506-.658,3.604-.1.198-.216.385-.354.559-.264.332-.37.184-.171.225.215.044-.078-.119-.104-.199-.107-.324-.247-.479-.333-.822-.325-1.301-.147-2.774-.136-4.101l.042-5.322.081-10.201c.02-2.575-3.98-2.577-4,0h0Z"/><path class="g" d="M159.673,274.624c.444,1.839.048,3.738.078,5.605.033,2.054.649,3.811,1.568,5.622,1.7,3.353,1.588,6.741,1.362,10.413-.152,2.468-.369,4.933-.637,7.391-.03.272-.058.545-.094.817-.028.212.051-.256-.021.124-.173.916-.416,1.813-.737,2.688-.588,1.608-1.514,3.2-2.657,4.479-.557.622-1.17,1.211-1.932,1.574-.847.403-1.789.417-2.696.59s-1.7.551-2.482,1.024c-.882.534-.787.494-1.069-.584-.651-2.488-4.51-1.433-3.857,1.063.577,2.203,2.169,4.218,4.68,3.895.969-.125,1.734-.626,2.559-1.104.856-.495,1.826-.483,2.776-.67,4.197-.824,6.932-5.118,8.384-8.809,1.164-2.958,1.274-6.2,1.553-9.333.327-3.683.709-7.509.002-11.168-.231-1.196-.652-2.319-1.178-3.415-.531-1.106-1.21-2.165-1.431-3.391-.47-2.611.322-5.242-.313-7.874-.604-2.501-4.462-1.442-3.857,1.063h0Z"/><path class="g" d="M155.318,299.323c-.092,4.854-.676,9.659-1.761,14.391-.241,1.052.324,2.165,1.397,2.46,1.009.277,2.218-.34,2.46-1.397,1.162-5.068,1.805-10.256,1.904-15.455.021-1.081-.934-2-2-2-1.101,0-1.979.916-2,2h0Z"/><path class="g" d="M159.126,301.14c.017.844-.035,1.687-.125,2.525-.012.11-.024.22-.038.33-.005.045-.052.407-.018.151s-.017.11-.023.155c-.017.113-.034.226-.052.339-.077.486-.164.97-.259,1.453-.348,1.754-.799,3.493-1.396,5.179-.35.988.395,2.232,1.397,2.46,1.12.255,2.086-.34,2.46-1.397.616-1.741,1.079-3.538,1.429-5.35.371-1.916.663-3.889.624-5.846-.021-1.045-.905-2.049-2-2-1.066.048-2.022.879-2,2h0Z"/><path class="e" d="M166.612,225.412c-.46,21.151-.682,28.898-2.183,53.7-2.389.044-14.873.055-19.088-.304-.469-5.398-.856-10.801-1.157-16.207-16.741-.022-35.413.063-52.703.069.046,5.249.093,10.565.138,15.916-3.864.029-9.767.036-12.135-.074.028-5.014-1.526-70.726-.352-77.969.35-2.159.962-4.77,1.548-6.89,1.813-6.56,6.223-12.022,12.731-15.666,2.28-1.277,5.936-2.802,9.135-4.156l1.07,1.297c.957,1.382,3.606,2.02,5.269,2.265,5.59.826,12.068-.628,17.609-2.743,4.223-1.612,6.796-3.061,10.172-4.704,4.296,2.401,8.592,4.802,12.887,7.203,2.395,1.339,4.811,2.692,6.86,4.517,6.213,5.533,8.075,14.39,9.02,22.656.8,6.999,1.056,13.262,1.179,21.09"/><path class="g" d="M111.64,292.183c.626,12.807,1.273,25.613,1.915,38.419.706,14.062,1.41,28.123,2.094,42.186.358,7.366.71,14.732,1.05,22.099.118,2.563,4.119,2.578,4,0-.619-13.412-1.276-26.822-1.942-40.231-.69-13.896-1.391-27.79-2.086-41.686-.347-6.929-.692-13.858-1.031-20.788-.125-2.562-4.126-2.577-4,0h0Z"/><path class="g" d="M89.484,263.043c.151,17.116.303,34.231.374,51.347.071,17.04.046,34.075-.228,51.112-.16,9.955-.222,19.92.462,29.859.06.866.577,1.708,1.468,1.929,8.952,2.215,18.725,1.356,27.67-.475,2.52-.516,1.454-4.372-1.063-3.857-8.229,1.684-17.309,2.512-25.543.475l1.468,1.929c-1.2-17.436-.263-34.963-.209-52.421.052-17.001-.032-34.002-.158-51.002-.071-9.632-.156-19.264-.241-28.896-.023-2.573-4.023-2.579-4,0h0Z"/><path class="g" d="M81.961,279.218c-.27,2.757-.674,5.494-1.218,8.211s-1.276,5.406-1.242,8.198c.06,4.939.815,10.049,3.557,14.249,1.402,2.147,4.867.145,3.454-2.019-2.49-3.813-3.177-8.682-3.001-13.177.098-2.486.863-4.927,1.316-7.363.498-2.681.868-5.385,1.133-8.099.105-1.077-.995-2-2-2-1.169,0-1.894.92-2,2h0Z"/><path class="j" d="M135.422,106.97c-4.208-5.292-2.875-11.625-2.875-11.625.685-2.266,3.21-3.47,5.563-3.733,4.113-.46,7.574-.088,11.082,4.403,2.036,2.606,2.665,5.877,4.13,8.842s3.333,4.444,6.111,6.167c-.944,2.833-1.889,5-4.889,6.222-.784.319-3.528.764-5.278.694,0,0-2.471-.178-5.596-1.887-2.387-1.305-6.214-6.523-8.25-9.083Z"/><path class="j" d="M149.354,119.066c.439,2.231.623,4.511.529,6.785-.129,3.083-.783,8.616-3.005,12.839l-1.679,1.919c.164-1.755-.055-3.675-.796-4.901-.367-.607-1.224-1.642-3.234-1.709-.923-.031-2.005.245-2.806.974,0,0-.958-.061-3.291.078s-3.797-.141-3.797-.141c-4.359-1.33-9.618-8.303-11.299-11.455-1.174-2.202-2.51-6.73-3.456-10.365-4.824,6.278-10.952,10.729-18.563,12.903-1.869.556-4.942,1.538-11.357,3.557-.379-4.564-.12-9.323.578-12.726.966-4.708,3.321-9.962,6.509-13.539,5.521-6.196,13.624-9.853,23.598-10.113,6.294-.164,12.557,1.151,19.229,6.126,1.31,1.059,3.365,2.559,4.837,4.184,4.171,3.871,6.179,8.354,7.611,13.86.148.571.279,1.146.393,1.724Z"/><path class="g" d="M104.871,170.66c-5.603,2.512-11.562,4.457-16.463,8.266-5.035,3.913-8.375,9.209-9.968,15.359-.813,3.14-1.418,6.246-1.559,9.478-.119,2.727-.148,5.459-.17,8.188-.131,16.79.219,33.587.513,50.374.094,5.393.284,10.794.26,16.188-.005,1.116.922,1.953,2,2,3.95.172,7.915.102,11.866.052,2.572-.032,2.579-4.032,0-4-3.952.05-7.917.12-11.866-.052l2,2c.058-12.574-.432-25.166-.601-37.74-.112-8.399-.207-16.798-.189-25.198.007-3.135.025-6.27.106-9.404.028-1.083.063-2.167.122-3.249.022-.407.047-.813.081-1.219.014-.167.031-.333.046-.499.043-.495.035-.222-.005-.014.629-3.271,1.198-6.658,2.5-9.747,1.283-3.044,3.258-5.747,5.673-7.988,4.955-4.597,11.623-6.629,17.673-9.341.986-.442,1.221-1.876.718-2.736-.593-1.015-1.747-1.161-2.736-.718h0Z"/><path class="g" d="M135.41,171.536c4.378,2.447,8.757,4.892,13.133,7.341,3.683,2.061,7.205,4.21,9.586,7.798,4.461,6.725,5.222,15.385,5.843,23.218.409,5.163.557,10.342.64,15.519.042,2.571,4.042,2.579,4,0-.149-9.251-.405-18.664-2.166-27.774-.796-4.116-2.039-8.228-4.168-11.865-2.29-3.912-5.575-6.781-9.453-9.063-5.067-2.982-10.264-5.759-15.396-8.628-2.249-1.257-4.269,2.196-2.019,3.454h0Z"/><path class="g" d="M88.008,196.969c-.555,2.193-.706,4.516-.87,6.765-.204,2.794-.317,5.595-.402,8.395-.142,4.642-.106,9.241.06,13.884.302,8.444.478,16.895.672,25.342.087,3.77.207,7.544.21,11.316.002,2.574,4.002,2.578,4,0-.007-8.036-.316-16.08-.526-24.112-.208-7.97-.677-15.965-.485-23.935.074-3.069.174-6.138.359-9.202.154-2.558.239-5.025.838-7.39.632-2.496-3.225-3.561-3.857-1.063h0Z"/><path class="g" d="M164.612,225.412c-.286,13.169-.653,26.329-1.362,39.483-.256,4.74-.535,9.479-.821,14.217l2-2c-6.332.109-12.774.213-19.088-.304l2,2c-.553-18.746-.797-37.498-1.133-56.248-.092-5.156-.193-10.313-.311-15.469-.059-2.57-4.059-2.579-4,0,.422,18.487.623,36.978,1.028,55.465.119,5.418.255,10.835.415,16.252.034,1.147.893,1.909,2,2,6.315.517,12.757.413,19.088.304,1.13-.019,1.934-.903,2-2,.833-13.78,1.545-27.561,1.898-41.362.105-4.112.196-8.225.285-12.338.056-2.575-3.944-2.574-4,0h0Z"/><path class="g" d="M89.679,264.671c14.037,0,28.073-.044,42.11-.064,3.785-.005,7.57-.009,11.355-.009,2.574,0,2.578-4,0-4-14.029,0-28.058.044-42.086.064-3.793.005-7.586.009-11.379.009-2.574,0-2.578,4,0,4h0Z"/><path class="g" d="M149.258,182.88c-1.802.971-3.261,2.669-4.543,4.226-.908,1.103-1.568,2.249-2.099,3.571-.294.733-.484,1.495-.733,2.243-.331.993.382,2.229,1.397,2.46,1.103.251,2.106-.333,2.46-1.397.228-.686.403-1.388.662-2.064.025-.064.159-.422.045-.122-.115.303.033-.069.062-.132.111-.239.23-.473.359-.702.137-.245.285-.484.444-.716.029-.043.288-.406.128-.188-.152.206.174-.209.212-.255.68-.816,1.387-1.613,2.157-2.346.146-.139.294-.275.446-.408.134-.117.752-.548.183-.17.279-.186.541-.385.838-.545.922-.497,1.289-1.85.718-2.736-.604-.936-1.75-1.249-2.736-.718h0Z"/><path class="g" d="M102.202,176.542c1.68,2.148,4.964,2.686,7.507,2.956,3.429.364,6.937-.055,10.29-.793,6.422-1.413,12.181-4.369,18.049-7.213,2.316-1.122.29-4.573-2.019-3.454-5.16,2.5-10.182,5.087-15.781,6.499-2.899.731-5.863,1.175-8.859,1.077-1.962-.065-5.04-.213-6.36-1.901-.666-.852-2.13-.698-2.828,0-.841.841-.668,1.975,0,2.828h0Z"/><path class="g" d="M129.9,157.343c.015,1.873.035,3.745.064,5.618.025,1.592.001,3.151.68,4.63.61,1.329,1.671,2.451,2.971,3.1l2.352,1.173c.935.467,2.209.28,2.736-.718.479-.906.282-2.238-.718-2.736l-2.102-1.049c-.05-.025-.854-.463-.875-.437-.092-.047-.027-.002.197.135-.088-.08-.173-.163-.256-.248-.074-.074-.402-.431-.344-.361.057.069-.227-.337-.276-.422-.054-.093-.257-.559-.091-.128-.111-.288-.178-.582-.239-.884.106.519.017.088.009-.048-.009-.152-.011-.303-.015-.455-.015-.637-.025-1.274-.034-1.911-.026-1.753-.045-3.506-.059-5.259-.009-1.046-.914-2.049-2-2-1.076.048-2.009.879-2,2h0Z"/><path class="g" d="M104.402,175.769c.758-.414,1.509-.841,2.251-1.282.43-.256.897-.508,1.257-.861.577-.567.821-1.319.86-2.11.071-1.419-.013-2.863-.019-4.284-.005-1.046-.916-2.049-2-2s-2.005.879-2,2c.003.725.008,1.449.012,2.173.005.737.052,1.49-.001,2.225l.071-.532c-.007.075-.021.149-.042.222.054-.198.15-.372.29-.522.274-.2.325-.242.154-.127-.067.042-.135.083-.202.123-.284.172-.57.342-.857.509-.593.347-1.191.683-1.794,1.012-.919.502-1.291,1.847-.718,2.736.601.932,1.753,1.254,2.736.718h0Z"/><path class="g" d="M139.778,136.388c.567-.48,1.351-.476,2.014-.294.128.035.255.076.379.124-.193-.079-.189-.069.011.029.166.118.364.284.111.049.132.123.249.261.38.383-.371-.346-.124-.197-.048-.044.033.065.328.617.181.282.08.183.138.38.193.572.164.574.185.717.22,1.173.041.526.042,1.056.009,1.583-.038.62-.045.674-.193,1.302-.101.426-.239.838-.392,1.248-.073.195-.146.391-.227.582.149-.353-.122.248-.156.318-.471.959-.938,1.643-1.665,2.338-.509.487-1.062.809-1.694,1.023-.238.081-.479.152-.723.21-.289.069-.372.082-.452.09-.256.024-.518.032-.775.013.233.017-.435-.107-.535-.139-1.028-.331-2.183.387-2.46,1.397-.297,1.081.365,2.128,1.397,2.46,2.13.686,4.642.09,6.531-1.02,1.958-1.151,3.348-3.161,4.217-5.214.818-1.933,1.266-3.965,1.126-6.078-.13-1.956-.646-4.092-2.22-5.401-2.34-1.946-5.785-1.736-8.057.185-.825.698-.719,2.109,0,2.828.817.817,2.001.7,2.828,0h0Z"/><path class="g" d="M99.849,155.346c-.671-.49-.21-.147.012.034.319.26.651.522,1.016.717,1.036.553,2.171.789,3.337.844,2.203.104,4.364-.555,6.096-1.908.375-.293.586-.964.586-1.414,0-.491-.218-1.076-.586-1.414-.381-.35-.882-.61-1.414-.586-.565.025-.972.241-1.414.586.713-.557-.024-.009-.249.117-.149.083-.302.156-.455.231-.287.141.4-.148.169-.069-.097.033-.192.075-.289.109-.212.075-.427.14-.644.195-.126.032-.598.055-.666.137.316-.039.362-.046.138-.019l-.136.013c-.14.012-.28.021-.421.026-.283.01-.567.006-.849-.012-.114-.007-.273-.057-.38-.034l.296.04c-.074-.011-.149-.024-.223-.038-.184-.035-.367-.078-.547-.132-.088-.026-.173-.059-.261-.086-.336-.106.173.096.204.092-.09.011-.319-.157-.396-.201-.109-.063-.212-.134-.316-.205-.143-.097-.296-.288.232.182-.036-.032-.075-.06-.112-.092-.23-.199-.463-.387-.71-.567-.394-.288-1.091-.326-1.541-.202-.464.128-.967.486-1.195.919-.55,1.04-.187,2.075.718,2.736h0Z"/><path class="g" d="M116.434,136.674c.489,1.31.403,4.394-2.109,4.804-3.341.177-3.738-3.522-2.716-5.333.836-1.482,3.508-2.236,4.825.529Z"/><path class="g" d="M97.763,136.836c.393,1.359.236,4.502-1.968,4.802-2.923.023-3.172-3.77-2.232-5.569.769-1.473,3.123-2.116,4.2.768Z"/><path class="g" d="M101.217,142.473c-.464.875-.895,1.769-1.267,2.687l.202-.478c-.235.525-.436,1-.436,1.589,0,.714.305,1.42.864,1.87.421.339.864.645,1.409.747.332.062.658.073.99.106.481.047,1.085-.257,1.414-.586.347-.347.608-.916.586-1.414-.023-.517-.193-1.054-.586-1.414l-.405-.313c-.312-.181-.648-.272-1.009-.273-.14-.014-.28-.01-.419-.028l.532.071c-.1-.016-.194-.041-.289-.078l.478.202c-.099-.044-.189-.097-.277-.16l.405.313c-.064-.05-.126-.101-.182-.16l.313.405c-.029-.039-.048-.072-.067-.117l.202.478c-.01-.028-.018-.057-.022-.087l.071.532c-.007-.064-.006-.125,0-.189l-.071.532c.022-.136.064-.264.116-.392l-.202.478c.096-.224.19-.448.284-.672l-.202.478c.304-.718.658-1.417,1.023-2.106.249-.471.345-1.019.202-1.541-.128-.464-.486-.967-.919-1.195-.464-.245-1.026-.368-1.541-.202-.484.157-.95.457-1.195.919h0Z"/><path class="g" d="M130.281,161.45c2.12-1.67,4.026-3.574,5.709-5.683,1.228-1.538,2.443-3.151,3.372-4.892.492-.923.263-2.218-.718-2.736-.928-.49-2.211-.268-2.736.718-.449.843-.986,1.64-1.523,2.429-.128.188-.257.376-.392.56-.193.265-.391.526-.59.787.167-.22.077-.099-.039.049-.101.129-.203.258-.306.385-1.657,2.059-3.529,3.919-5.606,5.555-.826.65-.732,2.157,0,2.828.876.804,1.947.694,2.828,0h0Z"/><path class="g" d="M121.411,162.354c-6.554,2.71-14.117,4.076-20.705.688-2.981-1.533-5.737-3.731-7.495-6.617-1.77-2.906-2.663-6.286-3.094-9.639-.615-4.789-.665-9.658-1.116-14.466-.101-1.075-.847-2-2-2-1.004,0-2.101.918-2,2,.791,8.45.114,17.839,4.388,25.495,3.815,6.833,11.606,10.985,19.306,11.232,4.767.152,9.4-1.025,13.779-2.835.997-.412,1.708-1.327,1.397-2.46-.259-.943-1.456-1.812-2.46-1.397h0Z"/><path class="g" d="M114.671,113.935c1.258,4.754,2.587,9.478,5.48,13.518,2.656,3.71,6.096,7.924,10.593,9.386,2.454.798,3.505-3.063,1.063-3.857-1.579-.513-3.144-1.855-4.408-3.1-1.516-1.493-2.888-3.137-4.102-4.884-2.53-3.642-3.645-7.881-4.769-12.126-.658-2.486-4.518-1.432-3.857,1.063h0Z"/><path class="g" d="M115.081,111.706c-3.709,4.773-8.366,8.74-13.98,11.085-2.02.844-4.145,1.405-6.232,2.057-2.732.854-5.46,1.72-8.19,2.579-2.447.77-1.402,4.633,1.063,3.857,5.053-1.591,10.377-2.9,15.254-4.986,5.924-2.534,10.973-6.696,14.913-11.765.662-.852.831-1.998,0-2.828-.69-.69-2.162-.858-2.828,0h0Z"/><path class="g" d="M94.336,120.273c.849,2.487,1.739,4.957,2.725,7.393.194.48.436.94.919,1.195.455.241,1.038.382,1.541.202.789-.283,1.554-.63,2.341-.919.941-.346,1.805-1.381,1.397-2.46-.942-2.492-1.875-4.987-2.841-7.47-.496-1.276-1.682-1.784-2.938-1.195-.736.345-1.482.668-2.225.996-.961.424-1.257,1.899-.718,2.736.641.995,1.709,1.171,2.736.718.743-.328,1.489-.652,2.225-.996l-2.938-1.195c.966,2.483,1.898,4.978,2.841,7.47l1.397-2.46c-.787.29-1.551.636-2.341.919l2.46,1.397c-.986-2.436-1.876-4.906-2.725-7.393-.337-.988-1.389-1.743-2.46-1.397-.98.317-1.759,1.4-1.397,2.46Z"/><path class="g" d="M134.475,95.876c.827-2.378,4.477-2.482,6.53-2.406,2.802.105,5.069,1.659,6.707,3.882,2.023,2.744,2.59,6.251,4.243,9.197,1.523,2.714,3.871,4.577,6.469,6.2l-.919-2.259c-.572,1.698-1.214,3.487-2.827,4.458-1.548.932-3.649,1.03-5.411.991-2.575-.057-2.574,3.943,0,4s5.53-.262,7.717-1.719c2.383-1.586,3.493-4.04,4.378-6.666.287-.852-.196-1.807-.919-2.259-1.399-.874-2.733-1.78-3.833-3.024-1.162-1.314-1.863-2.977-2.484-4.596-1.415-3.689-2.886-7.153-6.082-9.67-4.784-3.768-15.075-3.954-17.426,2.806-.848,2.436,3.015,3.483,3.857,1.063h0Z"/><path class="g" d="M89.046,133.033c-1.327-7.585-.908-15.981,2.554-22.962,3.161-6.373,8.773-10.978,15.509-13.189,6.932-2.275,14.994-2.547,21.804.293,3.738,1.559,7.218,4.031,10.141,6.822,2.658,2.537,4.868,5.279,6.295,8.696,3.224,7.719,3.696,17.376-.199,24.987-1.171,2.287,2.28,4.314,3.454,2.019,3.977-7.771,4.154-17.369,1.514-25.559-1.248-3.869-3.093-7.483-5.824-10.52-2.936-3.265-6.522-6.218-10.338-8.393-14.218-8.103-35.323-4.008-44.278,10.098-5.382,8.478-6.186,19.068-4.489,28.771.186,1.065,1.49,1.663,2.46,1.397,1.124-.309,1.584-1.392,1.397-2.46h0Z"/></g></g></svg>