<?xml version="1.0" encoding="UTF-8"?><svg id="b" xmlns="http://www.w3.org/2000/svg" width="432.735" height="315.721" viewBox="0 0 432.735 315.721"><defs><style>.d{fill:#3d8dcc;}.e{fill:#fff;}.f{fill:#c5ddf0;}.g{fill:#211715;}.h{fill:#e3e3e3;}.i{fill:#645d5c;}.j{fill:#cfcfcf;}</style></defs><g id="c"><path class="e" d="M356.086,91.017c0,5.693,2.521,22.499,3.345,27.299,1.083,6.312,2.524,12.719,3.043,19.089.338,4.155.375,8.37.365,12.606.923-.002,1.432-.003,1.432-.003,23.896-.045,52.011-.111,66.463-.11v-9.965c-1.015,0-2.839.005-7.106.013,0-14.42-.313-111.193-.29-114.723,0,0,.001-.181.002-.362h.512c3.483.005,5.572.007,6.882.006v-9.885c-7.291,0-41.715-.049-67.074-.082.176,9.043.325,17.224-.761,27.172-.523,4.793-6.942,28.161-7.205,34.833.663.28,1.022.891,1.04,1.82.071,3.589.129,9.822.129,11.905"/><path class="e" d="M356.18,163.406h2.868c3.372-.206,3.755-3.344,3.774-9.291.018-5.614.098-11.215-.349-16.71-.518-6.37-1.96-12.777-3.043-19.089-.842-4.911-3.462-22.387-3.34-27.669.321-.012.582-.019.772-.019,0-2.083-.058-8.315-.129-11.905-.018-.931-.378-1.543-1.032-1.841.255-6.652,6.674-30.02,7.197-34.812,1.524-13.963.615-24.445.619-38.715-4.2.273-11.306.218-16.404.057-1.829-.058-3.572-1.337-4.657-1.411-1.972-.136-4.155,1.244-6.58,1.489-3.332.337-6.795.81-9.575.812-.119,2.021.403,7.43.929,12.181.629,5.677,1.406,11.393,1.852,17.094.443,5.674,1.564,10.925,2.531,16.556,1.291,7.522,7.013,32.29,3.04,26.959-1.512.781-2.372,2.616-2.373,6.669,0,2.995-.28,5.453,1.478,6.866.093.075.199.143.315.205.57.303,1.399.455,2.278.528-.041.195-.064.302-.064.302-1.333,6.297-4.039,17.183-6.682,27.895,0,0-6.6,26.245-11.026,43.847h37.601Z"/><path class="e" d="M398.615,24.831c-19.536-.043-39.756-.103-34.839-.06-.001,5.504-.196,11.053-.878,17.299-.523,4.793-6.943,28.166-7.205,34.835.661.275,1.022.887,1.04,1.818.109,5.493.188,17.176.073,10.704-2.31-3.369,1.564,22.709,2.624,28.888,1.083,6.312,2.524,12.719,3.043,19.089.073.892.131,1.786.179,2.683.687-.001,1.055-.002,1.055-.002,17.422-.04,36.657-.112,51.669-.141,0-4.949-.334-110.607-.315-115.084-4.98-.006-10.683-.017-16.446-.03Z"/><path class="h" d="M361.517,3.356c.003,6.987.262,13.97.265,20.957.001,3.307-.065,6.615-.245,9.917-.091,1.668-.21,3.335-.358,4.999-.084.947-.217,1.894-.282,2.842-.03.445.081-.42-.041.27-1.403,7.898-3.612,15.655-5.309,23.493-.805,3.717-1.836,7.641-1.863,11.467-.018,2.574,3.982,2.577,4,0,.011-1.605.177-2.368.42-3.813.324-1.929.714-3.846,1.122-5.758.95-4.458,2.011-8.892,3.059-13.328.819-3.465,1.701-6.931,2.332-10.436,1.031-5.724,1.107-11.728,1.157-17.53.067-7.694-.253-15.386-.256-23.08-.001-2.574-4.001-2.578-4,0h0Z"/><path class="h" d="M335.083,89.106c-1.073-.696-.825-2.695-.817-3.767.012-1.604-.079-3.266.322-4.834.147-.576.219-.778.481-1.192.123-.194-.006-.018-.034.018.072-.092.159-.185.245-.267.057-.054.29-.237-.002-.023.091-.067.191-.131.291-.184.286-.151-.187.025.243-.108.204-.063.409-.113.619-.156.387-.079.126-.021.039-.011.132-.015.268-.028.4-.033.282-.012.563-.023.845-.023,3.159-.003,6.315.239,9.479.223,2.168-.011,4.337-.047,6.505-.072.232-.003.972-.123,1.147.01.035.027-.075-.033-.077-.037.152.288-.012,1.361-.007,1.731.054,3.415.098,6.831.1,10.247l2-2c-3.479.019-6.971.367-10.444.548-1.925.1-3.853.198-5.781.224-.925.012-1.852.032-2.777.024-.861-.008-1.981.058-2.777-.317-2.315-1.093-4.348,2.354-2.019,3.454,2.121,1.001,4.504.866,6.794.846,1.975-.018,3.946-.098,5.918-.197,3.688-.185,7.393-.56,11.086-.58,1.081-.006,2.001-.912,2-2-.002-3.677-.049-7.356-.113-11.032-.036-2.05-.516-4.027-2.707-4.713-1.016-.319-2.139-.208-3.186-.194-1.377.018-2.754.037-4.132.05-2.417.023-4.837.036-7.252-.054-1.462-.055-2.933-.213-4.397-.146-3.065.141-5.39,1.62-6.276,4.655-.657,2.249-.567,4.749-.531,7.068.039,2.493.587,4.863,2.797,6.298,2.165,1.406,4.173-2.056,2.019-3.454Z"/><path class="h" d="M331.534,120.091c2.29-9.279,4.694-18.545,6.682-27.895.534-2.511-3.321-3.584-3.857-1.063-1.989,9.35-4.393,18.616-6.682,27.895-.617,2.499,3.24,3.565,3.857,1.063h0Z"/><path class="h" d="M354.086,91.017c.015,3.642.521,7.303.968,10.911.534,4.304,1.14,8.6,1.8,12.886.723,4.696,1.653,9.354,2.465,14.035,1.141,6.585,1.516,13.148,1.521,19.825.002,3.257.183,6.606-.184,9.849-.097.861-.284,1.807-.637,2.37-.101.161-.191.262-.36.352-.188.1-.316.138-.61.163-2.547.213-2.569,4.215,0,4,5.142-.43,5.666-5.465,5.756-9.669.149-6.963.217-14.036-.595-20.962-.722-6.16-2.079-12.215-3.074-18.331-.654-4.02-1.242-8.053-1.772-12.092-.578-4.403-1.259-8.886-1.278-13.336-.011-2.573-4.011-2.578-4,0h0Z"/><path class="h" d="M343.993,92.052v24.327c0,2.574,4,2.578,4,0v-24.327c0-2.574-4-2.578-4,0h0Z"/><path class="h" d="M336.474,30.725c.31,5.351.535,10.705,1.139,16.033.621,5.483.917,11.019,1.922,16.452.468,2.528,4.323,1.457,3.857-1.063-.959-5.184-1.21-10.473-1.815-15.703s-.798-10.476-1.103-15.719c-.148-2.559-4.149-2.576-4,0h0Z"/><path class="h" d="M350.111,47.246c-1.059,5.321-1.147,10.789-1.811,16.163-.133,1.074,1.014,2,2,2,1.191,0,1.867-.923,2-2,.622-5.043.706-10.268,1.668-15.099.211-1.058-.303-2.16-1.397-2.46-.984-.27-2.248.332-2.46,1.397h0Z"/><path class="h" d="M324.301,4.303c-.095,2.023.132,4.075.311,6.088.253,2.847.566,5.689.896,8.528.715,6.155,1.19,12.35,1.975,18.493,1.141,8.926,3.113,17.733,4.793,26.567.736,3.869,1.606,7.82,1.753,11.769.096,2.566,4.097,2.579,4,0-.132-3.527-.833-7.06-1.465-10.523-.731-4.001-1.552-7.985-2.336-11.976-.899-4.574-1.74-9.172-2.449-13.779-.923-5.993-1.272-12.088-1.985-18.111-.382-3.229-.757-6.458-1.065-9.695-.232-2.428-.543-4.917-.428-7.36.121-2.573-3.88-2.567-4,0h0Z"/><path class="h" d="M326.301,6.303c1.767-.015,3.526-.17,5.283-.352,1.878-.194,3.816-.293,5.67-.661,1.5-.298,2.898-.988,4.402-1.258,1.202-.216,2.447.743,3.58,1.073,1.448.421,3.012.345,4.506.377,1.627.035,3.255.056,4.882.063,2.964.012,5.934-.005,8.894-.189,2.557-.159,2.575-4.16,0-4-2.96.184-5.93.201-8.894.189-1.562-.006-3.124-.026-4.685-.059-1.496-.031-2.957.051-4.374-.489-1.286-.49-2.392-1.091-3.814-.985-1.652.123-3.155.797-4.735,1.223-1.75.472-3.634.53-5.432.716-1.757.182-3.516.337-5.283.352-2.573.022-2.579,4.022,0,4h0Z"/><path class="h" d="M364.27,152.008c18.398-.035,36.796-.079,55.194-.102,3.757-.005,7.513-.008,11.27-.008,2.574,0,2.578-4,0-4-16.783,0-33.566.045-50.349.078-5.371.011-10.743.022-16.114.032-2.574.005-2.578,4.005,0,4h0Z"/><path class="h" d="M410.865,71.149h-4.485c-1.081,0-2,.916-2,2,0,6.22.01,12.439-.008,18.659-.003,1.084.919,1.996,2,2,1.548.006,3.095.07,4.643.075,2.574.007,2.578-3.993,0-4-1.548-.004-3.095-.069-4.643-.075l2,2c.018-6.22.008-12.439.008-18.659l-2,2h4.485c2.574,0,2.578-4,0-4h0Z"/><path class="h" d="M430.733,12.981c-16.143,0-32.286-.036-48.429-.058-5.839-.008-11.678-.016-17.517-.023-2.574-.003-2.578,3.997,0,4,19.245.025,38.489.054,57.734.075,2.738.003,5.475.006,8.213.006,2.574,0,2.578-4,0-4h0Z"/><path class="h" d="M415.061,22.861c-14.661-.019-29.322-.063-43.983-.094-2.27-.005-4.539-.01-6.809-.011-2.574,0-2.578,4,0,4,12.639.001,25.277.056,37.916.082,4.292.009,8.584.017,12.876.022,2.574.003,2.578-3.997,0-4h0Z"/><path class="h" d="M430.733,22.866c-2.294.002-4.588-.002-6.882-.005-1.046-.001-2.048.921-2,2,.049,1.085.879,1.999,2,2,2.294.003,4.588.007,6.882.005,1.046,0,2.048-.919,2-2s-.879-2.001-2-2h0Z"/><path class="h" d="M417.376,139.966c0-4.297-.021-8.595-.033-12.892-.026-9.016-.053-18.031-.079-27.047-.032-10.732-.063-21.464-.094-32.197-.027-9.31-.054-18.619-.078-27.929-.013-4.882.07-9.774-.031-14.655-.003-.147,0-.295,0-.442.015-2.574-3.985-2.577-4,0-.024,4.124.012,8.249.023,12.373.023,8.926.048,17.853.074,26.779.031,10.727.062,21.454.094,32.181.028,9.389.056,18.777.083,28.166.015,5.048.033,10.096.041,15.143,0,.173,0,.347,0,.52,0,2.574,4,2.578,4,0h0Z"/><path class="h" d="M425.643,149.328c0-4.964-.021-9.928-.033-14.892-.026-10.518-.052-21.036-.079-31.554-.032-12.582-.063-25.163-.094-37.745-.027-10.874-.053-21.748-.078-32.623-.013-5.678.071-11.366-.031-17.043-.003-.155,0-.31,0-.464.015-2.574-3.985-2.577-4,0-.027,4.79.013,9.581.023,14.37.023,10.429.048,20.858.074,31.288.031,12.576.062,25.153.094,37.729.028,10.953.055,21.906.082,32.858.014,5.845.033,11.689.041,17.534,0,.18,0,.361,0,.541,0,2.574,4,2.578,4,0h0Z"/><path class="h" d="M424.006,141.945c2.242-.004,4.485-.012,6.727-.012,1.046,0,2.048-.92,2-2s-.879-2-2-2c-2.242,0-4.485.008-6.727.012-1.046.002-2.048.918-2,2s.879,2.002,2,2h0Z"/><path class="h" d="M363.707,142.086c17.223-.04,34.446-.108,51.669-.141,2.574-.005,2.578-4.005,0-4-17.223.033-34.446.101-51.669.141-2.574.006-2.578,4.006,0,4h0Z"/><path class="h" d="M387.322,30.262c-.162,5.591.815,11.008,4.316,15.533,4.221,5.456,10.546,8.522,17.431,8.432,2.572-.034,2.579-4.034,0-4-5.722.075-11.022-2.443-14.457-7.086-2.826-3.82-3.423-8.269-3.29-12.88.074-2.575-3.926-2.573-4,0h0Z"/><path class="h" d="M395.314,61.563c-.957,2.649-2.067,5.247-3.123,7.858-.182.449-.032,1.142.202,1.541.243.415.718.811,1.195.919.512.117,1.087.091,1.541-.202.465-.3.713-.685.919-1.195,1.055-2.611,2.166-5.209,3.123-7.858.356-.985-.4-2.233-1.397-2.46-1.126-.256-2.079.342-2.46,1.397h0Z"/><path class="h" d="M387.726,53.604c-1.504,1.657-3.061,3.268-4.54,4.947-.353.401-.586.868-.586,1.414,0,.491.218,1.076.586,1.414.381.35.882.61,1.414.586.511-.023,1.065-.189,1.414-.586,1.479-1.679,3.036-3.29,4.54-4.947.355-.391.586-.876.586-1.414,0-.491-.218-1.076-.586-1.414-.381-.35-.882-.61-1.414-.586-.516.023-1.057.192-1.414.586h0Z"/><path class="h" d="M382.35,44.229c-1.32.495-2.612,1.062-3.911,1.611l.478-.202c-.487.205-.975.408-1.469.596-.5.19-.917.443-1.195.919-.251.429-.357,1.061-.202,1.541.157.484.457.951.919,1.195.45.238,1.045.39,1.541.202,1.091-.415,2.16-.89,3.235-1.344l-.478.202c.71-.299,1.423-.592,2.145-.863.499-.187.918-.445,1.195-.919.251-.429.357-1.061.202-1.541-.157-.484-.457-.951-.919-1.195-.451-.238-1.043-.388-1.541-.202h0Z"/><path class="h" d="M380.666,34.352c-1.503-.08-3.006.059-4.508-.013-1.047-.05-2.047.956-2,2,.05,1.127.879,1.946,2,2,1.502.072,3.005-.067,4.508.013.495.026,1.07-.242,1.414-.586.347-.347.608-.916.586-1.414-.051-1.131-.879-1.94-2-2h0Z"/><path class="h" d="M362.903,102.165c2.143-.133,5.024,1.313,3.142,3.708-.93,1.183-.665,2.846.883,3.343,1.162.373,2.354,1.07,2.691,2.325s-.373,2.43-1.212,3.321c-.984,1.044-.639,3.003.883,3.343,2.137.477,5.555,2.748,3.423,5.13-.661.739-.879,2.121,0,2.828,1.161.934,2.811,1.668,3.451,3.089.562,1.248,1.028,3.3-.307,4.213-2.112,1.444-.113,4.912,2.019,3.454,2.686-1.837,3.279-4.819,2.441-7.851-.373-1.348-1.004-2.656-2.011-3.646-.827-.813-1.866-1.364-2.764-2.087v2.828c1.902-2.126,2.457-4.851,1.032-7.411-1.264-2.272-3.722-3.847-6.22-4.405l.883,3.343c1.824-1.934,2.969-4.54,2.241-7.213-.718-2.637-2.986-4.317-5.485-5.119l.883,3.343c1.701-2.165,2.506-4.93.893-7.412-1.471-2.264-4.247-3.287-6.864-3.124-2.557.159-2.575,4.16,0,4h0Z"/><path class="g" d="M1.932,293.286c10.187-.001,20.374-.003,30.561-.004,14.895-.002,29.791-.004,44.686-.006,16.281-.002,32.563-.004,48.844-.006,14.305-.002,28.609-.003,42.914-.005,8.997,0,17.994-.002,26.991-.002.556,0,1.112,0,1.668,0,2.574,0,2.578-4,0-4-8.115,0-16.229.001-24.344.002-13.837.001-27.673.003-41.51.005-16.221.002-32.442.004-48.662.006-15.242.002-30.485.004-45.727.006-10.947.001-21.895.003-32.842.004-.859,0-1.718,0-2.577,0-2.574,0-2.578,4,0,4h0Z"/><path class="g" d="M250.076,201.316c-8.441,0-16.881.029-25.322.052-14.401.039-28.801.083-43.202.126-17.203.052-34.406.104-51.609.154-17.026.049-34.053.096-51.079.136-13.676.032-27.353.061-41.029.071-1.287,0-2.573.002-3.86.002-2.574,0-2.578,4.001,0,4,13.069-.005,26.137-.031,39.206-.06,16.79-.037,33.58-.083,50.369-.131,17.339-.049,34.678-.102,52.016-.154,14.91-.045,29.82-.091,44.73-.132,9.32-.026,18.64-.056,27.961-.064.606,0,1.212,0,1.818,0,2.574,0,2.578-4,0-4h0Z"/><path class="e" d="M39.88,60.162c.052,27.804.237,90.453.293,116.772.013,6.213,5.037,11.249,11.25,11.273,36.158.14,148.215-.087,185.217-.151,6.235-.011,11.278-5.061,11.275-11.295-.013-26.958-.056-91.11-.071-116.601-.004-6.237-5.055-11.284-11.292-11.285-38.363-.005-148.76-.026-185.377-.032-6.249-.001-11.308,5.07-11.296,11.319Z"/><path class="e" d="M40.94,181.013c-.493-1.265-.765-2.64-.768-4.079-.007-3.394-.017-7.392-.028-11.842,44.448-.06,166.163-.272,207.77-.392-.003,4.527,0,8.6,0,12.061.003,6.235-5.041,11.285-11.275,11.295-37.003.064-149.059.29-185.217.151-4.774-.018-8.847-2.996-10.482-7.194Z"/><path class="e" d="M165.38,190.537c.209,2.197.336,3.877.411,5.397.128,2.599.363,5.297.589,7.905.528,6.085,2.103,9.519,8.463,10.729,1.836.349,2.896,1.094,3.432,2.253s.616,4.768-1.188,4.768c-3.348,0-60.739-.013-66.179-.013-1.762,0-1.922-3.595-1.386-4.755.536-1.16,1.596-1.904,3.432-2.253,6.36-1.21,7.935-4.644,8.463-10.729.226-2.608.461-5.306.589-7.905.075-1.52.201-3.2.411-5.397"/><path class="j" d="M148.672,176.481c.012,2.839-2.104,4.933-5.135,4.946-3.476.015-5.278-2.353-5.289-4.904-.01-2.286,1.655-5.074,5.044-5.088,3.157-.013,5.369,2.525,5.38,5.046Z"/><path class="g" d="M37.88,60.162c.021,10.972.049,21.944.077,32.915.034,13.411.07,26.821.106,40.232.032,11.882.064,23.764.092,35.646.013,5.206-.79,11.11,2.429,15.58,1.939,2.693,4.804,4.702,8.082,5.37,2.083.425,4.243.306,6.358.313,8.7.025,17.401.03,26.101.032,11.265.003,22.53-.003,33.795-.013,12.467-.01,24.934-.025,37.401-.042,12.156-.017,24.313-.036,36.469-.056,10.379-.017,20.757-.036,31.136-.054,4.064-.007,8.128-.015,12.192-.022,1.841-.003,3.734.113,5.568-.057,3.347-.311,6.542-1.797,8.792-4.326,2.262-2.543,3.421-5.738,3.437-9.13.01-2.202-.002-4.405-.003-6.607-.003-5.375-.006-10.75-.009-16.125-.008-12.908-.016-25.815-.024-38.723-.008-12.454-.016-24.909-.024-37.363-.003-4.88-.006-9.761-.009-14.641-.002-2.748.051-5.429-1.031-8.019-1.261-3.019-3.635-5.577-6.63-6.938-4.134-1.877-9.098-1.259-13.542-1.26s-8.902-.001-13.353-.002c-10.956-.002-21.911-.004-32.867-.006-12.458-.002-24.916-.004-37.374-.007s-24.956-.005-37.434-.007c-11.015-.002-22.03-.004-33.046-.006-4.496,0-8.992-.002-13.487-.002-1.914,0-3.828,0-5.742,0-2.009,0-4.072-.127-6.064.152-6.536.917-11.311,6.633-11.397,13.166-.034,2.575,3.966,2.576,4,0,.038-2.906,1.336-5.673,3.673-7.447,2.094-1.589,4.444-1.873,6.981-1.872,3.689,0,7.377.001,11.066.002,9.77.002,19.541.003,29.311.005,11.822.002,23.644.004,35.466.006,12.376.002,24.751.005,37.127.007,11.591.002,23.183.004,34.774.006,9.42.002,18.84.003,28.26.005,1.861,0,3.722,0,5.583,0,2.352,0,4.644-.079,6.786,1.08,2.585,1.4,4.403,3.92,4.848,6.838.312,2.043.091,4.268.093,6.333.007,10.946.014,21.893.021,32.839.008,12.931.016,25.862.024,38.793.007,11.269.014,22.539.02,33.808.001,2.178.07,4.369-.002,6.546-.095,2.866-1.579,5.619-3.937,7.259-3.458,2.404-8.183,1.69-12.191,1.697-9.039.016-18.078.033-27.117.048-11.378.02-22.757.039-34.135.056-12.238.019-24.476.035-36.714.049-11.772.013-23.543.023-35.315.028-9.932.004-19.865.004-29.797-.008-3.863-.005-7.725-.011-11.588-.022-1.81-.005-3.779.186-5.552-.204-2.86-.628-5.285-2.527-6.535-5.185-1.069-2.273-.857-4.774-.863-7.215-.005-2.343-.011-4.687-.017-7.03-.014-5.566-.028-11.132-.043-16.697-.034-12.943-.069-25.886-.103-38.829-.033-12.324-.065-24.649-.094-36.973-.011-4.642-.021-9.283-.03-13.925-.005-2.574-4.005-2.578-4,0Z"/><path class="g" d="M40.515,167.293c3.07,0,6.14-.01,9.21-.018,5.667-.014,11.334-.031,17.001-.049,7.605-.023,15.209-.048,22.814-.074,8.883-.03,17.766-.061,26.649-.092,9.502-.034,19.004-.069,28.506-.105s18.924-.072,28.386-.111c8.762-.035,17.525-.072,26.287-.11,7.404-.032,14.808-.066,22.211-.103,5.386-.027,10.772-.055,16.158-.09,2.708-.018,5.418-.019,8.126-.071.181-.003.361-.004.542-.014,2.56-.139,2.577-4.14,0-4-1.94.106-3.9.051-5.842.065-4.787.035-9.574.061-14.361.086-6.967.037-13.935.069-20.902.101-8.489.038-16.977.074-25.466.109-9.351.038-18.701.075-28.052.111-9.553.037-19.107.072-28.66.107-9.097.033-18.194.065-27.29.096-7.981.027-15.962.054-23.943.079-6.206.02-12.412.039-18.618.056-3.772.01-7.543.021-11.315.026-.48,0-.96.001-1.44.001-2.574,0-2.578,4,0,4h0Z"/><path class="g" d="M163.38,190.537c.381,4.043.552,8.1.9,12.146.255,2.972.501,6.088,2.019,8.733,1.435,2.5,3.922,4.022,6.652,4.769,1.103.302,2.832.282,3.474,1.404-.016-.027.162.674.17.775.011.145-.088,1.615-.154,1.574-.161-.1,1.127-.297.221-.348-.354-.02-.714,0-1.068,0-1.139,0-2.278,0-3.416,0-3.702,0-7.403-.001-11.105-.002-9.78-.002-19.56-.004-29.34-.006-6.741-.001-13.483-.003-20.224-.004-.13,0-.323-.037-.448,0-.017.005-.149-.012-.154,0,.026-.065.514.207.542.203.148-.024-.076.109-.044-.119.026-.184-.151-.833-.155-1.175-.005-.362.065-.797.121-.897.657-1.161,2.499-1.124,3.631-1.449,1.353-.388,2.688-.953,3.829-1.787,2.218-1.622,3.472-4.024,4.047-6.675.825-3.809.919-7.864,1.127-11.744.097-1.802.242-3.6.411-5.397.101-1.077-.992-2-2-2-1.166,0-1.898.92-2,2-.395,4.197-.577,8.409-.94,12.609-.212,2.459-.444,5.502-2.223,7.32-2.178,2.226-5.573,1.674-7.946,3.52-2.281,1.776-2.714,5.43-1.25,7.886,1.441,2.417,5.358,1.704,7.775,1.704,3.949,0,7.898.001,11.847.002,10.171.002,20.343.004,30.514.006,4.156,0,8.311.002,12.467.003,2.102,0,4.226.091,6.326.001,3.187-.137,3.897-3.512,3.503-6.126-.224-1.487-.978-2.747-2.204-3.633-1.417-1.024-3.122-1.136-4.74-1.641-2.378-.742-3.853-2.234-4.531-4.608-.414-1.451-.566-2.938-.695-4.436-.201-2.325-.394-4.652-.517-6.982-.099-1.879-.246-3.753-.423-5.627-.101-1.075-.847-2-2-2-1.003,0-2.102.918-2,2h0Z"/><path class="g" d="M124.877,215.07h37.952c2.574,0,2.578-4,0-4h-37.952c-2.574,0-2.578,4,0,4h0Z"/><path class="g" d="M183.919,268.328c-4.243,0-8.485-.017-12.728-.026-9.013-.02-18.027-.041-27.04-.061-10.413-.023-20.826-.046-31.24-.068-8.442-.018-16.884-.035-25.326-.049-2.428-.004-4.857-.008-7.285-.009-.67,0-1.592.08-2-.556-.505-.785-.277-2.461.169-3.231,1.146-1.981,2.293-3.961,3.441-5.941,2.921-5.039,5.843-10.077,8.764-15.115.432-.745,1.268-2.876,1.997-3.069.353-.093.858,0,1.22,0h86.901c2.574,0,2.578-4,0-4h-85.402c-1.223,0-2.623-.161-3.827.134-2.511.616-3.661,3.743-4.845,5.785-1.474,2.541-2.947,5.083-4.421,7.624-1.518,2.618-3.036,5.236-4.554,7.855-.623,1.074-1.245,2.149-1.868,3.224-.525.908-1.206,1.847-1.532,2.849-.484,1.492-.391,3.849.208,5.286.724,1.737,2.357,2.803,4.187,3.065,1.161.166,2.372.09,3.543.091,7.222.007,14.443.023,21.665.038,10.389.021,20.779.044,31.168.067,9.945.022,19.889.045,29.834.067,5.895.013,11.789.028,17.684.038.429,0,.858.002,1.287.002,2.574,0,2.578-4,0-4h0Z"/><path class="g" d="M92.04,259.692c3.112-5.389,6.249-10.764,9.361-16.152,1.29-2.233-2.165-4.25-3.454-2.019-3.112,5.389-6.249,10.763-9.361,16.152-1.29,2.233,2.166,4.25,3.454,2.019h0Z"/><path class="g" d="M102.119,259.294c2.853-4.941,5.73-9.869,8.583-14.81,1.29-2.233-2.165-4.25-3.454-2.019-2.853,4.941-5.73,9.869-8.583,14.81-1.29,2.233,2.166,4.25,3.454,2.019h0Z"/><path class="g" d="M111.31,259.294c1.324-2.293,2.658-4.579,3.982-6.871.523-.906.241-2.23-.718-2.736s-2.177-.25-2.736.718c-1.324,2.293-2.659,4.579-3.982,6.871-.523.906-.241,2.23.718,2.736s2.177.25,2.736-.718h0Z"/><path class="g" d="M120.433,259.294c1.324-2.293,2.658-4.579,3.982-6.871.523-.906.241-2.23-.718-2.736s-2.177-.25-2.736.718c-1.324,2.293-2.659,4.579-3.982,6.871-.523.906-.241,2.23.718,2.736s2.177.25,2.736-.718h0Z"/><path class="g" d="M129.421,259.294c1.324-2.293,2.658-4.579,3.982-6.871.523-.906.241-2.23-.718-2.736s-2.177-.25-2.736.718c-1.324,2.293-2.659,4.579-3.982,6.871-.523.906-.241,2.23.718,2.736s2.177.25,2.736-.718h0Z"/><path class="g" d="M143.445,243.783h-49.313c-2.574,0-2.578,4,0,4h49.313c2.574,0,2.578-4,0-4h0Z"/><path class="g" d="M157.267,251.932c-18.456-.034-36.912-.097-55.368-.144-4.031-.01-8.062-.021-12.093-.028-2.574-.005-2.578,3.995,0,4,18.403.034,36.805.097,55.208.144,4.084.01,8.168.021,12.253.028,2.574.005,2.578-3.995,0-4h0Z"/><path class="g" d="M166.27,265.333s.007,0,.011,0v-4c-8.244.032-16.488,0-24.732,0-14.398,0-28.796,0-43.193,0-4.992,0-9.983,0-14.975,0-2.574,0-2.578,4,0,4,11.009,0,22.018,0,33.027,0,13.63,0,27.261,0,40.891,0,2.994,0,5.988.011,8.982,0,2.574-.01,2.578-3.992,0-4-.004,0-.007,0-.011,0-2.574-.002-2.578,3.998,0,4h0Z"/><path class="e" d="M61.473,66.765c0,2.535.006,64.684.006,68.97,19.639-.002,111.586.008,112.636.008,0-2.571.027-59.453.032-68.978-22.255.002-111.443,0-112.675,0Z"/><path class="f" d="M76.775,113.319c1.505,0,6.672-.005,7.854-.005v10.462c-3.061-.002-5.814-.001-7.982,0-.005-3.184-.018-9.502-.018-10.457.044,0,.092,0,.146,0Z"/><path class="d" d="M106.394,101.725c.005,6.047.021,23.176.019,22.047,3.023-.005,5.768-.008,7.98-.01,0-5.076,0-22.598,0-24.063-1.224,0-6.72.005-8,.005,0,.193,0,.925.001,2.022Z"/><path class="f" d="M91.513,108.319c0-.784-.001-1.33-.001-1.524,1.28,0,6.776-.005,8-.005,0,1.823,0,18.437,0,16.977-2.642,0-5.347.002-7.982.003.006,1.335-.012-10.961-.017-15.451Z"/><path class="g" d="M176.123,113.699c.006-13.536.014-27.073.021-40.609.001-2.108.002-4.217.004-6.325,0-1.081-.917-2-2-2-6.5,0-13.001,0-19.501,0-9.293,0-18.586,0-27.879,0-9.834,0-19.669,0-29.503,0-7.977,0-15.955,0-23.932,0-3.864,0-7.754-.132-11.616,0-.081.003-.162,0-.243,0-1.081,0-2,.916-2,2,0,7.777.001,15.555.002,23.332.001,11.89.002,23.78.003,35.67,0,3.323,0,6.645,0,9.968,0,1.081.916,2,2,2,9.143,0,18.286,0,27.43,0,13.104,0,26.209.002,39.313.003,6.966,0,13.933.001,20.899.002,2.574,0,2.578-4,0-4-12.807-.001-25.614-.002-38.421-.003-12.081,0-24.162-.002-36.244-.002-4.326,0-8.651,0-12.977,0l2,2c0-8.195-.001-16.389-.002-24.584-.001-11.773-.002-23.546-.003-35.319,0-3.022,0-6.045,0-9.067l-2,2c3.201,0,6.402,0,9.603,0,7.592,0,15.183,0,22.775,0,9.735,0,19.469,0,29.204,0,9.48,0,18.96,0,28.44,0,6.973,0,13.946,0,20.919,0,.578,0,1.157,0,1.735,0l-2-2c-.007,11.45-.013,22.899-.019,34.349-.002,4.195-.004,8.391-.006,12.586-.001,2.574,3.999,2.578,4,0h0Z"/><path class="g" d="M117.068,84.728c-.013-2.222.202-4.494-1.443-6.239-1.295-1.374-2.965-1.634-4.762-1.634-3.122,0-6.245,0-9.367,0-7.255,0-14.51,0-21.764,0-1.339,0-2.72-.094-4.055.019-2.181.185-4.067,1.661-4.669,3.787-.278.983-.204,2.054-.214,3.065-.011,1.14.041,2.22.574,3.254.953,1.85,2.8,2.797,4.83,2.835,6.785.128,13.58.055,20.367.084,3.871.017,7.742.033,11.612.048,1.609.006,3.442.238,5.01-.162,2.345-.597,3.776-2.723,3.881-5.059.115-2.574-3.885-2.568-4,0-.055,1.237-1.144,1.234-2.103,1.231-1.21-.004-2.42-.009-3.63-.014-2.949-.012-5.898-.024-8.847-.037-6.186-.026-12.372-.054-18.557-.078-1.171-.005-2.343-.013-3.514-.013-1.449,0-1.635-.783-1.622-2.09.013-1.321-.237-2.796,1.447-2.871,1.158-.051,2.331,0,3.491,0,6.175,0,12.35,0,18.525,0,3.278,0,6.557,0,9.835,0,1.221,0,2.539-.141,3.752,0,1.775.206,1.217,2.614,1.224,3.873.015,2.573,4.015,2.579,4,0Z"/><path class="g" d="M78.65,123.74c0-3.474-.02-6.947-.02-10.421l-2,2c2.667,0,5.333-.005,8-.005l-2-2v10.444c0,1.046.92,2.048,2,2s2-.879,2-2v-10.444c0-1.081-.916-2-2-2-2.667,0-5.333.005-8,.005-1.081,0-2,.916-2,2,0,3.474.02,6.947.02,10.421,0,1.046.92,2.048,2,2s2-.879,2-2h0Z"/><path class="g" d="M93.531,123.74c0-5.648-.02-11.297-.02-16.945l-2,2c2.667,0,5.333-.004,8-.005l-2-2c0,5.656,0,11.312,0,16.968,0,2.574,4,2.578,4,0,0-5.656,0-11.312,0-16.968,0-1.081-.916-2-2-2-2.667,0-5.333.004-8,.005-1.081,0-2,.916-2,2,0,5.648.02,11.297.02,16.945,0,2.574,4,2.578,4,0h0Z"/><path class="g" d="M108.413,123.74c0-6.917-.012-13.835-.018-20.752,0-1.095-.002-2.19-.003-3.285l-2,2c2.667,0,5.333-.004,8-.005l-2-2v24.06c0,2.574,4,2.578,4,0v-24.06c0-1.081-.916-2-2-2-2.667,0-5.333.004-8,.005-1.081,0-2,.916-2,2,0,6.859.012,13.718.018,20.578,0,1.153.002,2.306.003,3.459,0,2.574,4,2.578,4,0h0Z"/><path class="g" d="M72.112,125.777c13.618,0,27.235-.011,40.853-.016,2.233,0,4.466-.002,6.699-.002,2.574,0,2.578-4,0-4-13.395,0-26.791.011-40.186.016-2.455,0-4.91.002-7.366.002-2.574,0-2.578,4,0,4h0Z"/><path class="g" d="M130.28,119.189h13c1.046,0,2.048-.92,2-2s-.879-2-2-2h-13c-1.046,0-2.048.92-2,2s.879,2,2,2h0Z"/><path class="g" d="M130.847,126.078h8.333c1.046,0,2.048-.92,2-2s-.879-2-2-2h-8.333c-1.046,0-2.048.92-2,2s.879,2,2,2h0Z"/><path class="d" d="M153.13,85.043c-2.435-4.171-6.94-7.013-12.562-7.013-.028,0-.056,0-.084,0,.001.012.001,10.41.001,14.964-1.797,1.959-8.311,8.887-10.028,10.726,2.492,2.249,5.942,3.495,10.112,3.495,9.128,0,14.547-5.704,14.547-14.728,0-2.701-.708-5.255-1.986-7.444Z"/><path class="g" d="M156.343,98.245c1.684-6.051.6-12.753-3.872-17.344-4.228-4.34-10.817-5.864-16.606-4.24-5.52,1.548-9.879,6.015-11.303,11.569-1.372,5.353-.228,11.576,3.407,15.801,4.402,5.117,12.154,6.185,18.368,4.382,2.467-.716,1.418-4.577-1.063-3.857-4.277,1.241-9.663.936-13.193-2.067-3.229-2.748-4.389-7.215-4-11.326.411-4.345,3.164-8.25,7.147-10.044,4.193-1.888,9.503-1.35,13.155,1.467,4.473,3.449,5.561,9.359,4.103,14.596-.691,2.484,3.167,3.544,3.857,1.063h0Z"/><path class="g" d="M138.485,78.03v14.964l.586-1.414c-3.314,3.607-6.692,7.154-10.035,10.734-1.756,1.88,1.067,4.715,2.828,2.828,1.8-1.928,3.607-3.849,5.41-5.773,1.053-1.124,2.106-2.248,3.155-3.375.897-.963,1.991-1.825,2.055-3.221.224-4.893,0-9.843,0-14.743,0-2.574-4-2.578-4,0h0Z"/><path class="e" d="M182.859,150.708c-.045,0-.09,0-.135,0-.091-1.518-.378-6.267-.688-10.508-.92.706-1.461,1.121-1.461,1.121-1.13.867-4.722,3.889-5.667,4.778-1.052.99-2.29,1.921-3.825,2.046-1.059.087-2.898.037-3.802-.589-.938-.649-4.91-5.521-7.112-8.458-.889-1.185-2.741-3.815-3.227-4.454.119-.432,7.007-5.169,8.187-6.157.73.89,3.714,4.721,4.665,5.339.99-.869,3.698-6.068,4.592-7.286.746-1.017,1.515-3.152,2.668-4.738.709-1.458,2.938-2.347,4.502-3.15.96-.493,3.893-1.847,5.707-2.56,1.082-1.249,3.011-3.3,4.336-4.719,1.753.897,6.925,3.098,8.308,3.43l.336.081c.249-.06.499-.12.499-.12,1.366-.328,6.479-2.504,8.213-3.391,1.272,1.423,2.939,3.165,4.144,4.219l.808.707c1.637.737,3.658,1.771,4.792,2.353,1.233.633,3.284,1.717,4.273,2.695,1.492,1.475,2.23,3.542,2.895,5.541,1.443,6.812,2.955,16.78,3.723,23.855-8.936,0-27.486-.037-46.731-.036Z"/><path class="d" d="M206.566,138.232c-.746-4.043-2.552-13.413-2.613-14.043.27-.68,1.17-2.411,1.873-3.659-1.859-2.043-4.975-5.564-5.084-5.765l-.835.039c-.112.206-3.131,3.889-4.873,5.93.781,1.189,1.83,2.876,2.299,3.565-.05.8-2.04,12.89-2.37,15.15.85.93,4.37,3.99,5.81,4.94,1.23-.89,4.59-3.48,6.04-4.79-.055-.319-.14-.788-.247-1.367Z"/><path class="e" d="M156.907,131.71c-1.55-1.926-4.571-2.705-6.222-4.444-1.874-1.974-2.322-5.001-1.889-7.611.752-4.535,8.026-7.235,10.28-3.185.149-.145.247-.238.247-.238.918-1.188,3.478-1.69,4.695-.41.992,1.044,1.444,4.278.479,5.654-.619.884-1.872,1.148-2.995.988.235.207.404.357.404.357.872.773,1.845,3.141,1.895,4.299l.417,2.923-4.852,4.333-2.46-2.667Z"/><path class="g" d="M187.775,113.786c-1.931.593-3.795,1.519-5.624,2.369-2.015.937-4.256,1.831-5.879,3.382-.758.724-.784,2.109,0,2.828.813.747,2.02.773,2.828,0,.11-.105.227-.201.339-.304-.337.312.026-.012.104-.065.25-.17.511-.326.775-.474.554-.311,1.126-.586,1.696-.866.717-.353,1.43-.71,2.155-1.047.913-.424,1.831-.837,2.757-1.234.165-.071.482-.08.005-.003.096-.015.201-.084.29-.121.199-.082.398-.163.598-.241.336-.132.674-.261,1.019-.367.999-.307,1.736-1.412,1.397-2.46-.326-1.007-1.389-1.726-2.46-1.397h0Z"/><path class="g" d="M211.98,117.643c2.712,1.047,5.444,2.458,7.937,3.955,1.425.856,2.364,1.819,3.085,3.333.725,1.522,1.077,3.125,1.398,4.768,1.36,6.96,2.417,13.996,3.189,21.045.118,1.074.835,2,2,2,.99,0,2.118-.919,2-2-.851-7.764-1.996-15.528-3.546-23.184-.775-3.828-2.547-7.242-5.94-9.314-2.834-1.731-5.964-3.266-9.06-4.461-1.008-.389-2.194.429-2.46,1.397-.31,1.13.385,2.07,1.397,2.46h0Z"/><path class="g" d="M160.737,117.645c.127-.158.27-.296.429-.422l-.405.313c.235-.177.489-.317.76-.433l-.478.202c.338-.136.686-.227,1.046-.276l-.532.071c.311-.036.62-.039.931-.003l-.532-.071c.252.035.494.095.731.188l-.478-.202c.207.088.398.197.577.334l-.405-.313c.134.111.254.23.361.368l-.313-.405c.163.222.288.464.395.716l-.202-.478c.211.52.34,1.065.416,1.62l-.071-.532c.073.579.087,1.162.014,1.742l.071-.532c-.046.331-.121.654-.245.965l.202-.478c-.077.18-.169.348-.284.506l.313-.405c-.122.155-.258.289-.414.41l.405-.313c-.161.116-.329.212-.51.293l.478-.202c-.285.118-.578.193-.884.236l.532-.071c-.366.044-.731.041-1.097-.004l.532.071c-.352-.049-.693-.135-1.023-.268l.478.202c-.151-.064-.296-.136-.437-.22-.899-.537-2.235-.231-2.736.718-.51.966-.242,2.164.718,2.736,1.355.808,3.191,1.04,4.699.563.992-.314,1.797-.882,2.402-1.727.38-.531.608-1.195.714-1.837.478-2.904-.406-6.982-3.836-7.534-.956-.154-1.941-.129-2.865.192-.84.292-1.719.741-2.285,1.45-.343.43-.586.841-.586,1.414,0,.491.218,1.076.586,1.414.381.35.882.61,1.414.586.495-.022,1.09-.18,1.414-.586h0Z"/><path class="g" d="M160.493,124.236c.13.118.244.249.352.388l-.313-.405c.386.509.678,1.087.928,1.673l-.202-.478c.268.636.501,1.305.593,1.992l-.071-.532c.01.082.018.164.022.247.027.529.205,1.033.586,1.414.347.347.916.608,1.414.586.517-.023,1.054-.193,1.414-.586.349-.38.613-.883.586-1.414-.059-1.16-.447-2.221-.9-3.276-.177-.412-.375-.816-.611-1.198-.272-.442-.584-.89-.97-1.24-.392-.355-.875-.586-1.414-.586-.491,0-1.076.218-1.414.586-.35.381-.61.882-.586,1.414.023.515.192,1.057.586,1.414h0Z"/><path class="g" d="M158.321,130.296c-.998-1.196-2.393-1.993-3.732-2.748-.582-.328-1.165-.655-1.717-1.033-.127-.086-.254-.173-.375-.268.33.26-.119-.12-.148-.148-.135-.126-.256-.263-.386-.394-.269-.272.053.129-.176-.215-.2-.302-.386-.607-.545-.933-.036-.074-.19-.462-.073-.155-.07-.185-.134-.372-.192-.562-.096-.317-.173-.64-.235-.966-.005-.025-.083-.668-.043-.259-.023-.232-.04-.465-.049-.698-.014-.365-.01-.73.012-1.094.012-.197.029-.393.051-.589-.01.088-.066.349.009-.047.045-.236.096-.467.17-.696.024-.075.057-.149.079-.224.09-.316-.231.403.04-.066.1-.173.191-.349.301-.516.057-.087.126-.23.207-.296-.394.323-.124.15-.009.028.139-.148.273-.3.42-.441.111-.107.694-.681.249-.244.304-.299.771-.526,1.148-.718.109-.056.223-.103.332-.16.309-.16-.122.044-.14.058.186-.148.575-.206.803-.267.191-.052.389-.079.58-.131.409-.111-.49.024-.069.005.076-.003.154-.015.23-.02.227-.015.454-.018.681-.006.073.004.149.015.223.017.342.007-.508-.129.012.013.172.047.348.108.521.147.376.084-.41-.238-.081-.038.091.055.191.097.283.151.059.034.12.084.182.114.339.168-.321-.33-.061-.051.117.125.42.304.463.478l-.174-.222c.045.064.089.129.13.195.075.141.152.289.233.427.074.126.055.297-.052-.125.044.173.118.341.165.515.037.139.061.281.095.42.097.399.022-.401.013.086-.003.173.006.341-.01.514.039-.45-.032.065-.061.168-.117.423-.591,1.238-.928,1.608-.133.146-.271.286-.415.421-.053.049-.475.4-.187.181-.147.113-.305.215-.464.31-.08.048-.74.348-.312.181-1.006.392-1.704,1.342-1.397,2.46.264.96,1.448,1.791,2.46,1.397,3.537-1.379,6.243-5.312,4.964-9.138-.892-2.67-3.288-4.34-6.113-4.233-2.479.094-5.025,1.285-6.631,3.19-2.146,2.547-2.435,6.201-1.452,9.317.687,2.18,2.027,3.885,3.935,5.126.807.525,1.667.963,2.493,1.456.381.228.758.466,1.115.731-.258-.192.215.193.305.279.176.168.337.347.493.533.693.83,2.113.715,2.828,0,.821-.821.694-1.997,0-2.828h0Z"/><path class="g" d="M144.163,95.374c3.147,5.831,6.374,11.621,9.583,17.418.554,1.001,1.103,2.006,1.67,3,1.274,2.236,4.731.223,3.454-2.019-3.241-5.689-6.344-11.462-9.494-17.202-.588-1.071-1.178-2.141-1.758-3.216-1.223-2.266-4.678-.249-3.454,2.019h0Z"/><path class="g" d="M179.161,139.907c-1.816,1.407-3.585,2.903-5.294,4.438-1.01.906-1.939,1.796-3.369,1.83-.635.015-1.243-.018-1.857-.179-.309-.081-.447-.273-.117.009-.144-.124-.278-.259-.412-.394-3.594-3.601-6.401-7.927-9.442-11.977v2.019c-.232.478-.218.231.141-.04.423-.321.323-.263.599-.47.85-.638,1.71-1.261,2.572-1.883,1.528-1.103,3.106-2.162,4.563-3.359h-2.828c1.56,1.914,3.036,4.207,5.07,5.652.728.517,1.821.261,2.424-.313,1.799-1.712,2.885-4.38,4.141-6.485.563-.944,1.176-1.831,1.672-2.815.625-1.24,1.232-2.922,2.378-3.781.863-.647,1.307-1.728.718-2.736-.497-.85-1.867-1.37-2.736-.718-2.5,1.876-3.526,4.885-5.136,7.455-.725,1.157-1.38,2.358-2.074,3.534-.355.602-.713,1.204-1.094,1.79-.162.25-.321.51-.507.743.243-.305-.134.132-.19.186l2.424-.313c.485.345-.132-.148-.22-.235-.168-.166-.328-.341-.488-.515-.482-.525-.942-1.071-1.398-1.619-.729-.877-1.434-1.773-2.154-2.657-.728-.893-2.065-.628-2.828,0-.357.294.131-.094-.034.032-.162.124-.326.245-.49.366-.357.264-.716.524-1.076.784-.938.679-1.88,1.352-2.818,2.032-.917.664-1.83,1.333-2.724,2.028-.467.363-1.091.769-1.358,1.32-.29.598-.439,1.434,0,2.019,1.724,2.295,3.346,4.655,5.121,6.913,1.074,1.366,2.168,2.719,3.297,4.039.729.852,1.458,1.778,2.356,2.46,1.315.999,3.206,1.195,4.814,1.097,2.132-.131,3.811-1.105,5.373-2.517,1.879-1.698,3.81-3.36,5.812-4.912.855-.662.696-2.132,0-2.828-.844-.844-1.972-.664-2.828,0h0Z"/><path class="g" d="M179.478,133.836c.683,5.589.908,11.253,1.246,16.872.065,1.078.873,2,2,2,1.033,0,2.065-.916,2-2-.338-5.619-.563-11.283-1.246-16.872-.131-1.072-.825-2-2-2-.979,0-2.132.921-2,2h0Z"/><path class="g" d="M216.868,133.777c-.677,5.543-.878,11.159-1.214,16.731-.065,1.079.966,2,2,2,1.137,0,1.935-.917,2-2,.335-5.572.536-11.188,1.214-16.731.131-1.074-1.013-2-2-2-1.19,0-1.868.923-2,2h0Z"/><path class="g" d="M182.724,152.708c15.622,0,31.244.036,46.865.037,2.574,0,2.578-4,0-4-15.622,0-31.244-.037-46.865-.037-2.574,0-2.578,4,0,4h0Z"/><path class="e" d="M215.877,93.539c.043-.002,1.293.461,1.575.961.199.35.265.75.303,1.141.142,1.539-.154,3.109-.844,4.515-.336.685-.776,1.342-1.389,1.843-.471.38-1.149.541-1.81.578,0,0-.092.005-.256.013-.537,1.717-1.462,3.729-3.016,5.609-1.988,2.405-4.217,3.769-6.82,4.352-1.197.269-2.356.331-3.458.369-1.102-.026-2.155-.139-3.191-.325-2.625-.471-5.122-1.904-7.136-4.288-1.582-1.874-2.53-3.887-3.084-5.605-.912.303-1.629-.146-2.129-.54-.618-.495-1.065-1.146-1.408-1.828-.705-1.399-1.017-2.966-.891-4.506.034-.391.096-.791.291-1.144.276-.503.83-.873,1.439-.968.072-.011.145-.018.218-.022,0,0,.597-12.371,15.782-12.371,15.407,0,15.822,12.217,15.822,12.217Z"/><path class="i" d="M192.682,74.465c-2.267.838-4.344,2.099-5.914,3.919-3.389,3.931-4.181,10.079-3.246,15.042l2.315-.63c3.585-2.693,8.288-6.034,11.088-7.701.172.269,1.305,2.367,1.782,3.256.818-.411,5.408-2.937,7.154-3.69,3.177,1.641,6.642,4.34,8.254,7.857l2.222.611c.741-3.407.605-7.05-.444-9.926-1.228-3.366-3.126-4.665-5.489-6.093-2.809-4.121-8.693-4.422-13.137-3.781-1.55.223-3.107.589-4.584,1.135Z"/><path class="g" d="M192.677,95.427c-.328,1.066-.114,3.518,1.902,3.726,2.665-.016,2.807-2.98,1.91-4.374-.734-1.141-2.894-1.616-3.812.648Z"/><path class="g" d="M203.555,95.427c-.328,1.066-.114,3.518,1.902,3.726,2.665-.016,2.807-2.98,1.91-4.374-.734-1.141-2.894-1.616-3.812.648Z"/><path class="g" d="M186.222,100.772c-.37.107.202.047-.006.026-.063-.007-.395.012-.086.009.383-.003-.128,0-.126-.066,0-.029.394.223.127.034-.083-.058-.174-.117-.262-.167-.212-.121.32.285.113.091-.162-.152-.32-.3-.474-.459-.322-.331.141.225-.006.008-.054-.08-.112-.158-.164-.239-.118-.181-.227-.368-.328-.56-.06-.114-.117-.229-.171-.346-.023-.049-.046-.098-.067-.147-.059-.133-.044-.098.045.106-.123-.127-.187-.524-.235-.685-.069-.231-.128-.464-.177-.699-.022-.105-.039-.21-.059-.315-.074-.386.009.228-.003-.023-.022-.482-.058-.952-.022-1.436.004-.055.022-.402.005-.108-.017.31.036-.099.052-.17.05-.231.028-.073-.033.064.142-.322-.197.165-.056.055.046-.036.269-.239.034-.053-.303.239.111-.072.122-.052l-.238.099.125-.04c.176-.039.17-.044-.019-.016-.183.019-.196.022-.037.009,1.041-.076,2.051-.866,2-2-.046-1.019-.883-2.081-2-2-1.774.129-3.368,1.215-3.791,3.015-.347,1.475-.204,3.132.197,4.579.782,2.822,3.216,6.32,6.606,5.342,1.004-.29,1.732-1.424,1.397-2.46-.33-1.021-1.383-1.707-2.46-1.397h0Z"/><path class="g" d="M211.529,102.057c-.804,2.483-2.203,4.749-4.185,6.467-1.951,1.692-4.431,2.344-6.972,2.387-2.594.044-5.193-.581-7.263-2.195-2.112-1.647-3.587-4.029-4.427-6.547-.81-2.43-4.675-1.388-3.857,1.063,1.087,3.262,2.938,6.318,5.656,8.474,2.818,2.235,6.302,3.266,9.891,3.204,3.445-.059,6.664-1.019,9.361-3.194,2.721-2.194,4.586-5.3,5.653-8.597.794-2.455-3.066-3.506-3.857-1.063h0Z"/><path class="g" d="M215.877,95.539c-.187-.012-.4-.034-.085.011.212.03-.288-.176-.117-.051.039.019.076.04.112.064.126.08.078.039-.146-.126.014.027.152.168.18.176-.096-.026-.199-.357-.096-.104-.177-.433-.038-.101-.009.006.024.088.024.354.037.098.016-.312.01.116.016.187.035.48.017.956-.021,1.436-.02.248.019.093.01-.056.008.124-.047.274-.072.394-.049.236-.107.469-.175.7-.061.206-.133.408-.206.61-.172.48.118-.217-.016.044-.048.093-.089.19-.136.284-.097.193-.201.383-.315.566-.064.102-.137.199-.201.301-.141.224.232-.25.046-.06-.018.018-.453.482-.46.471.018.024.333-.296-.002-.022-.178.145.309-.085.079-.025-.119.031-.241.07-.36.104-.335.096.076-.028.08.005,0,.009-.514.037-.561.039-1.043.051-2.05.883-2,2,.047,1.04.881,2.055,2,2,1.546-.076,2.955-.486,4.006-1.688.963-1.102,1.627-2.459,1.99-3.874.366-1.425.495-3.06.14-4.503-.428-1.74-1.97-2.869-3.716-2.984-1.046-.069-2.046.969-2,2,.051,1.143.879,1.926,2,2h0Z"/><path class="g" d="M200.438,112.875c-1.351-.337-2.66-.938-3.941-1.472-.098-.041-.195-.082-.293-.123.151.063.244.104.038.016-.194-.083-.387-.165-.581-.249-.393-.17-.785-.342-1.176-.517-.631-.283-1.26-.569-1.876-.883-.775-.394-1.797-.359-2.424.313-1.369,1.465-2.748,2.922-4.077,4.423-.741.837-.766,1.989,0,2.828,1.057,1.159,2.196,2.248,3.317,3.343.995.971,1.973,2.001,3.053,2.879.851.691,1.984.814,2.828,0,1.186-1.144,2.195-2.527,3.244-3.793.635-.766,1.267-1.534,1.893-2.307.395-.488.87-.983,1.19-1.521.536-.9.232-2.235-.718-2.736-.965-.51-2.165-.243-2.736.718-.025.042-.075.083-.091.127-.058.167.407-.515.091-.12-.219.274-.438.547-.659.819-.623.768-1.252,1.532-1.883,2.293-1.022,1.232-2.005,2.578-3.16,3.691h2.828c-1.08-.878-2.058-1.908-3.053-2.879-1.122-1.095-2.26-2.185-3.317-3.343v2.828c1.329-1.502,2.708-2.958,4.077-4.423l-2.424.313c1.528.776,3.118,1.437,4.697,2.098,1.328.556,2.687,1.184,4.088,1.533,1.013.253,2.216-.326,2.46-1.397.236-1.036-.311-2.189-1.397-2.46Z"/><path class="g" d="M193.306,121.739c.773,1.186,1.511,2.395,2.3,3.57l-.273-1.009c-.044.558.036-.198-.001.048-.05.328-.096.656-.146.984-.148.976-.302,1.95-.457,2.925-.376,2.371-.759,4.74-1.137,7.11-.145.906-.29,1.813-.431,2.72-.195,1.254-.249,2.124.718,3.115,1.752,1.795,3.807,3.51,5.884,4.914.539.364,1.483.39,2.019,0,1.177-.857,2.329-1.752,3.473-2.653,1.038-.817,3.112-1.972,3.486-3.332.24-.87-.195-2.155-.36-3.04-.217-1.169-.438-2.337-.659-3.505-.471-2.492-.946-4.983-1.409-7.476-.133-.718-.207-1.473-.392-2.178-.015-.059-.008-.139-.031-.196-.187,1.134-.165,1.415.066.844.087-.182.176-.363.267-.544.421-.843.868-1.673,1.326-2.496,1.252-2.252-2.202-4.272-3.454-2.019-.634,1.14-1.27,2.291-1.797,3.485-.35.793-.332,1.405-.195,2.223.25,1.485.542,2.964.821,4.444.656,3.485,1.352,6.965,1.959,10.459l.514-1.946c-1.786,1.594-3.7,3.069-5.635,4.477h2.019c-1.906-1.288-3.815-2.931-5.405-4.627l.514,1.946c.5-3.396,1.078-6.782,1.617-10.172.233-1.465.472-2.93.68-4.398.125-.881.235-1.471-.247-2.297-.675-1.156-1.45-2.272-2.182-3.394-1.401-2.148-4.865-.146-3.454,2.019h0Z"/><path class="g" d="M201.273,116.693c1.386-.346,2.729-.967,4.042-1.516,1.563-.654,3.137-1.308,4.648-2.076l-2.424-.313c1.314,1.466,2.667,2.916,4.144,4.219v-2.828c-1.957,2.132-3.905,4.301-5.984,6.315h2.828c-1.19-1.143-2.255-2.441-3.352-3.671-.675-.757-1.347-1.516-2.014-2.28-.223-.255-.445-.511-.664-.769-.071-.084-.14-.17-.213-.254-.254-.292.286.406.182.235-.543-.894-1.818-1.31-2.736-.718-.898.579-1.298,1.779-.718,2.736.323.532.816,1.018,1.223,1.485.669.769,1.345,1.532,2.023,2.293,1.125,1.263,2.218,2.597,3.44,3.77.788.757,2.038.765,2.828,0,2.079-2.014,4.027-4.183,5.984-6.315.696-.758.839-2.088,0-2.828-1.477-1.304-2.83-2.754-4.144-4.219-.615-.686-1.659-.701-2.424-.313-.577.293-1.167.563-1.757.829-.389.175-.78.347-1.171.516-.193.084-.387.167-.581.25-.098.042-.196.083-.294.125.249-.105.157-.066-.037.015-1.268.526-2.56,1.121-3.895,1.455-1.015.254-1.724,1.45-1.397,2.46.34,1.052,1.372,1.669,2.46,1.397Z"/><path class="g" d="M204.55,83.07c-2.336,1.083-4.558,2.39-6.852,3.556l2.736.718c-.584-1.087-1.139-2.203-1.782-3.256-.558-.914-1.793-1.283-2.736-.718-3.854,2.31-7.497,5.008-11.088,7.701-.863.647-1.307,1.728-.718,2.736.497.85,1.867,1.369,2.736.718,3.592-2.693,7.234-5.39,11.088-7.701l-2.736-.718c.643,1.054,1.198,2.169,1.782,3.256.532.991,1.801,1.193,2.736.718,2.294-1.166,4.516-2.473,6.852-3.556.98-.454,1.226-1.867.718-2.736-.588-1.005-1.753-1.173-2.736-.718h0Z"/><path class="g" d="M205.823,86.92c.733.425,1.445.885,2.129,1.386.079.058.158.117.237.176.246.185.047.048-.076-.06.164.143.341.272.508.412.336.281.662.573.978.876.301.29.593.589.872.9.146.162.289.328.428.496.063.076.125.154.187.231.271.333-.273-.378-.024-.028.504.707.959,1.431,1.325,2.22.2.43.755.798,1.195.919.479.132,1.116.072,1.541-.202.98-.632,1.191-1.719.718-2.736-1.615-3.474-4.741-6.154-8-8.044-.905-.525-2.231-.24-2.736.718s-.249,2.176.718,2.736h0Z"/><path class="g" d="M211.418,75.161c-4.98-5.848-15.271-4.752-21.448-1.69-7.602,3.768-9.774,12.685-8.376,20.488.191,1.064,1.487,1.664,2.46,1.397,1.121-.308,1.588-1.393,1.397-2.46-1.097-6.126.62-13.037,6.538-15.97,2.735-1.356,5.959-1.888,8.994-1.852,2.839.033,5.698.675,7.607,2.917,1.671,1.963,4.489-.878,2.828-2.828h0Z"/><path class="g" d="M218.265,93.662c.723-3.44.805-7.152-.286-10.529-.959-2.969-2.729-5.22-5.3-6.952-.896-.604-2.216-.172-2.736.718-.576.984-.181,2.131.718,2.736.213.144.423.291.632.441.102.073.212.169.049.037.099.08.197.161.293.245.416.36.81.753,1.152,1.184.207.26-.136-.198.057.084.08.116.16.232.236.351.16.25.307.506.444.769.284.544.483,1.06.672,1.686.796,2.626.78,5.469.213,8.168-.222,1.056.31,2.162,1.397,2.46.993.273,2.237-.335,2.46-1.397h0Z"/><path class="e" d="M374.961,294.238c.418-3.14.776-6.138,1.023-8.657.152-1.544.026-3.333-1.736-5.333-1.846-2.094-4.195-1.905-4.778-1.889-12.083.333-52.846,2.753-67.936,4.278-3.105.314-6.122.857-8.524,2.808-2.416,1.963-3.231,5.22-3.818,8.26-1.163,6.026-1.977,12.12-2.438,18.242,26.511,0,85.432,0,85.432,0,.892-4.738,1.949-11.503,2.775-17.709Z"/><path class="e" d="M303.554,224.759c-3.326.771-6.869,1.781-10.408,3.028-1.476-4.519-2.734-8.372-2.734-8.372-1.097-3.387-2.567-6.164-2.613-6.311-.294-.901-1.213-1.456-2.142-1.276-3.877.745-9.705-.252-13.877-2.141-2.128-.963-4.125-2.683-5.546-5.937-.672-1.521-1.131-3.544-1.438-5.611-.463-3.139-.581-6.395-.542-8.249-.277-1.38-.778-2.676-1.696-3.823-1.385-1.737-3.72-3.183-2.269-5.91.551-1.031,1.515-1.757,2.586-2.237,5.392-2.42,6.191-10.264,6.782-15.917.125-4.403.806-8.241,1.923-11.594,2.304,7.121,7.032,13.436,13.225,17.644,0,0,3.493,0,6.851.002.213,0,.426,0,.637,0,2.745,3.317,5.865,6.252,9.69,8.334.734-.456,1.545-.775,2.524-.898,1.724-.217,3.326.195,4.461,1.254,1.69,1.576,2.198,4.506,1.8,6.819-.603,3.505-2.073,6.23-4.332,8.264-3.469-1.381-.175,8.809,3.495,12.776,2.34,2.53,8.578,4.707,12.408,5.473l.238.048c-.078.777-.132,1.497-.151,2.106-.056,2.06.948,6.772,2.459,10.485-7.32-.357-14.963.689-21.33,2.045h.002Z"/><path class="e" d="M303.554,224.759c-12.75,2.954-28.685,9.433-35.434,19.224-3.525,5.114-6.44,9.619-9.917,14.802-3.219,4.8-8.323,8.922-11.83,13.336l-5.438-5.588c-9.498,0-15.986.78-22.457,8.256-2.565,2.964-6.874,7.091-6.179,11.176.603,3.545,6.432,8.939,8.902,11.403,10.281,10.256,25.795,20.589,40.465,14.58,10.516-.003,25.089-.003,25.089-.003l.892-8.672c.418-3.205.934-6.397,1.546-9.57.587-3.04,1.401-6.297,3.818-8.26,2.402-1.951,5.42-2.494,8.524-2.808,13.068-1.32,45.39-3.312,61.665-4.039-.394-3.204-.775-5.898-1.115-7.699-1.37-7.28-6.37-19.6-12.99-29.08l-24.962-19.14c-7.09-.25-14.43.77-20.58,2.08"/><path class="g" d="M303.022,222.831c-9.714,2.27-19.598,5.824-27.809,11.597-4.081,2.869-7.249,6.23-10.048,10.34-1.735,2.548-3.44,5.116-5.143,7.684-1.666,2.512-3.232,5.149-5.153,7.475-3.846,4.658-8.705,8.474-11.959,13.615-1.381,2.181,2.079,4.191,3.454,2.019,2.766-4.37,6.869-7.721,10.273-11.567,3.848-4.348,6.793-9.487,10.018-14.297,1.458-2.175,2.836-4.469,4.555-6.452,1.411-1.628,3.013-3.105,4.723-4.415,3.85-2.948,8.218-5.249,12.666-7.151,4.989-2.134,10.208-3.757,15.489-4.991,2.506-.585,1.445-4.443-1.063-3.857h0Z"/><path class="e" d="M220.802,244.116c-2.015-1.522-3.411-1.317-7.078-.186-5.839,1.8-14.611,6-15.845,12.336-1.451,7.451,3.734,15.079,10.572,17.036l9.163,2.467c.303-.339.594-.665.865-.979,5.711-6.598,11.435-7.98,19.23-8.214-.24-2.841-.474-5.611-.474-5.611-2.905-4.346,2.029-14.875-6.46-13.066-2.424.516-2.179,3.264-4.715,2.545-1.258-.357-2.041-3.309-2.893-4.165-.933-.939-1.684-1.65-2.365-2.164Z"/><path class="g" d="M304.084,226.688c6.588-1.393,13.305-2.224,20.048-2.009,2.575.082,2.572-3.918,0-4-7.087-.227-14.188.688-21.112,2.151-2.517.532-1.452,4.389,1.063,3.857h0Z"/><path class="g" d="M240.936,264.534c-4.811.006-9.827.13-14.362,1.915-4.868,1.916-8.293,5.472-11.655,9.348-1.772,2.043-3.575,4.278-4.344,6.92-.685,2.353-.236,4.594.977,6.671,2.278,3.9,5.837,7.074,9.048,10.195,7.959,7.735,17.937,14.81,29.266,15.996,5.755.603,11.599-.762,16.521-3.797,2.535-1.563,4.353-4.195,6.102-6.539,2.656-3.561,5.108-7.276,7.487-11.025,1.65-2.599,3.368-5.209,4.775-7.952,1.173-2.286-2.277-4.312-3.454-2.019-2.728,5.314-6.218,10.365-9.609,15.268-1.788,2.585-3.537,5.124-5.679,7.399-.348.37-.714.711-1.088,1.053-.185.17.324-.168-.132.095-.648.374-1.273.779-1.935,1.129-2.298,1.215-4.838,2.04-7.42,2.368-10.224,1.297-20.112-4.535-27.643-10.857-3.394-2.849-6.637-5.994-9.63-9.265-1.345-1.47-2.84-3.09-3.625-4.952-.771-1.829.126-3.653,1.14-5.2,1.473-2.249,3.419-4.316,5.278-6.252,1.712-1.783,3.638-3.285,5.869-4.364,4.341-2.098,9.393-2.131,14.109-2.136,2.574-.003,2.578-4.003,0-4h0Z"/><path class="g" d="M347.367,242.829c3.978,5.734,7.246,12.013,9.753,18.524,1.026,2.665,1.944,5.382,2.618,8.158.724,2.978,1.083,6.041,1.456,9.079.132,1.072.825,2,2,2,.979,0,2.132-.921,2-2-.404-3.291-.768-6.623-1.53-9.856-.678-2.876-1.625-5.69-2.687-8.444-2.636-6.838-5.975-13.452-10.157-19.479-1.457-2.101-4.926-.103-3.454,2.019h0Z"/><path class="g" d="M238.962,259.956c-.444-.699-.642-1.547-.712-2.326-.104-1.156-.092-2.317-.098-3.477-.011-2.118.005-4.537-1.255-6.347-1.579-2.269-4.785-2.563-7.228-1.654-.735.274-1.381.705-1.932,1.264-.195.198-.364.418-.544.629-.107.126-.555.586-.445.527.283-.152-.097-.052-.12-.035.181-.138.329.53.141.003-.228-.641-.733-1.316-1.047-1.931-1.198-2.349-3.921-4.969-6.607-5.458-2.989-.545-6.359.88-9.088,1.969-5.754,2.295-12.999,6.23-14.141,12.975-1.405,8.294,4.019,16.726,12.034,19.135,2.471.743,3.526-3.117,1.063-3.857-5.772-1.735-9.945-7.81-9.285-13.845.611-5.591,7.045-8.857,11.694-10.67,1.305-.509,2.635-.95,3.982-1.335.595-.17,1.239-.366,1.836-.451.216-.031.476-.043.713-.045.295-.002.397.033.445.045.893.215,1.755,1.034,2.539,1.786.584.56.782.693,1.105,1.275.331.596.599,1.224.934,1.818.721,1.278,1.664,2.291,3.165,2.532,1.449.232,2.712-.27,3.691-1.349.762-.84,1.059-1.32,2.253-1.424.578-.05.732-.054,1.121.057.371.107-.138-.091.185.071.268.134-.096-.161.182.143.199.217-.171-.268-.003-.023.063.092.123.187.173.286.197.389.009-.071.103.249.071.242.131.484.184.731.065.304.053.332.057.37.116,1.12.093,2.252.099,3.376.011,2.356.047,4.948,1.354,7.004,1.377,2.166,4.841.162,3.454-2.019h0Z"/><path class="g" d="M374.115,312.48c.983-5.249,1.789-10.532,2.519-15.821.371-2.691.724-5.385,1.031-8.083.278-2.439.694-4.847-.326-7.177-1.104-2.522-3.322-4.518-6.087-4.933-1.3-.195-2.621-.084-3.929-.036-3.263.119-6.525.276-9.786.44-17.212.868-34.439,1.869-51.61,3.36-4.912.426-10.359.494-14.33,3.802-2.393,1.993-3.472,5.091-4.109,8.042-.798,3.697-1.346,7.455-1.841,11.203-.142,1.073,1.021,2,2,2,1.198,0,1.858-.924,2-2,.416-3.148.925-6.29,1.546-9.404.453-2.268.985-4.82,2.682-6.517,2.83-2.828,7.623-2.734,11.363-3.065,7.588-.671,15.189-1.191,22.79-1.69,8.565-.563,17.134-1.077,25.706-1.532,3.452-.183,6.904-.358,10.357-.507,1.285-.056,2.569-.108,3.855-.152,1.154-.04,2.375-.218,3.404.173,1.206.458,2.136,1.662,2.507,2.87.339,1.104.116,2.296-.003,3.42-.281,2.651-.61,5.297-.968,7.938-.753,5.553-1.595,11.1-2.627,16.609-.471,2.516,3.383,3.594,3.857,1.063h0Z"/><path class="g" d="M272.22,169.735c-.765,1.584-1.088,5.463,1.851,6.28,3.961.624,4.945-3.969,3.977-6.363-.792-1.96-3.875-3.227-5.828.083Z"/><path class="g" d="M292.34,218.883c-.529-1.598-1.15-3.16-1.835-4.698-.221-.495-.45-.986-.685-1.475-.05-.104-.097-.21-.151-.311-.381-.714.515,1.108-.143-.305-1.535-3.295-5.284-1.887-8.134-2.063-2.98-.184-6.177-.881-8.868-2.197-2.333-1.14-3.927-3.222-4.764-5.66-1.122-3.267-1.397-6.848-1.493-10.28-.043-1.534-.046-2.883-.614-4.343-.615-1.584-1.576-2.822-2.716-4.058-.536-.581-1.298-1.235-1.024-2.094.443-1.393,2.199-1.743,3.267-2.497,2.108-1.488,3.457-3.626,4.388-5.996,2.447-6.23,1.647-13.103,3.226-19.515.615-2.499-3.241-3.566-3.857-1.063-1.459,5.926-.926,12.143-2.702,18.003-.63,2.077-1.635,4.281-3.567,5.441-1.2.721-2.437,1.22-3.366,2.325-1.113,1.325-1.767,3.127-1.327,4.854.712,2.791,3.845,4.127,4.263,7.057.203,1.424.054,2.962.159,4.403.136,1.866.351,3.736.692,5.576.595,3.206,1.765,6.33,4.007,8.758,1.976,2.14,4.699,3.268,7.441,4.077,3.338.985,7.003,1.545,10.477,1.11.073-.009.858-.199.992-.139-.177-.079-.313-.526.082.353.15.333.319.659.475.989.74,1.565,1.378,3.167,1.922,4.81.805,2.432,4.669,1.39,3.857-1.063h0Z"/><path class="g" d="M270.593,190.491c-1.005.318-2.027.572-3.071.718l.532-.071c-.96.126-1.925.155-2.887.039l.532.071c-.234-.032-.467-.071-.699-.118-1.022-.209-2.209.295-2.46,1.397-.227.998.301,2.236,1.397,2.46,2.591.53,5.222.151,7.72-.639.996-.315,1.738-1.406,1.397-2.46-.323-1-1.392-1.735-2.46-1.397h0Z"/><path class="i" d="M291.655,168.053c-3.358-.002-6.851-.002-6.851-.002-6.357-4.319-11.171-10.86-13.407-18.212.84-3.094,2.049-5.529,3.795-8.464,1.162-1.955,7.772-10.643,21.013-14.185,6.318-1.69,13.24-2.314,20.229-.916,6.989,1.407,18.246,4.835,27.284,20.522,3.513,6.091,6.025,14.676,5.638,22.958-.397,8.451-3.163,15.382-6.477,20.736,3.168.94,5.926,2.52,7.955,5.018,3.57,4.4,3.73,10.49,1.65,15.46-3.16,7.57-8.75,18.28-3.7,24.6-1.67,1.46-4.17,1.65-6.69,1.25-3.29-.51-6.62-2-8.18-2.89-3.5-1.99-5.62-5.06-7.66-8.41-.35-.58-.69-1.24-1.01-1.96-1.71-3.81-2.88-9.11-2.82-11.33.019-.609.073-1.33.151-2.106l-.238-.048c-3.829-.766-10.067-2.943-12.408-5.473-3.67-3.968-6.964-14.157-3.495-12.776,2.259-2.034,3.73-4.759,4.332-8.264.398-2.312-.11-5.243-1.8-6.819-1.135-1.059-2.737-1.471-4.461-1.254-.979.123-1.79.442-2.524.898-3.825-2.083-6.945-5.017-9.69-8.334-.211,0-.424,0-.637,0Z"/><path class="g" d="M302.188,178.703c1.646-1.395,4.53-2.012,5.898.096,1.274,1.964.844,4.545.167,6.632-1.426,4.394-5.111,6.909-9.469,8.127-2.476.692-1.424,4.552,1.063,3.857,4.708-1.316,9.083-4.021,11.291-8.532,1.104-2.254,1.889-4.899,1.739-7.429-.166-2.804-1.319-5.831-3.963-7.176-3.279-1.669-6.877-.674-9.555,1.596-.825.699-.719,2.109,0,2.828.817.817,2.002.7,2.828,0h0Z"/><path class="g" d="M344.604,191.503c5.958-9.706,8.138-21.267,5.822-32.444-2.174-10.489-8.209-20.583-16.688-27.193-14.827-11.559-37.644-10.905-52.45.388-2.743,2.093-5.271,4.479-7.281,7.297-3.121,4.376-4.657,9.478-5.484,14.714-.168,1.066.273,2.151,1.397,2.46.951.261,2.291-.324,2.46-1.397.755-4.782,2.056-9.118,4.713-13.221.19-.293.395-.574.601-.857.275-.378-.194.243,0-.005.083-.106.166-.211.251-.315.188-.23.378-.458.572-.683.942-1.089,1.961-2.111,3.035-3.069,7.154-6.383,16.872-9.536,26.374-9.669,7.286-.102,14.734,1.757,20.87,5.715,7.878,5.082,13.828,13.596,16.618,22.473,3.597,11.445,1.998,23.585-4.265,33.788-1.35,2.2,2.108,4.211,3.454,2.019h0Z"/><path class="g" d="M269.433,150.258c2.424,7.943,7.52,14.827,14.362,19.52.891.611,2.219.167,2.736-.718.579-.991.176-2.124-.718-2.736-5.961-4.089-10.416-10.223-12.524-17.129-.749-2.455-4.611-1.408-3.857,1.063h0Z"/><path class="g" d="M283.484,158.99c4.373,6.791,8.967,13.704,15.874,18.17,2.168,1.402,4.176-2.06,2.019-3.454-6.3-4.073-10.457-10.55-14.439-16.735-1.389-2.157-4.853-.154-3.454,2.019h0Z"/><path class="g" d="M303.176,195.098c.436,2.29,1.349,4.514,2.409,6.581.983,1.918,2.205,3.874,3.917,5.221,1.838,1.447,3.968,2.422,6.137,3.267,1.998.779,4.064,1.408,6.166,1.836,1.057.216,2.161-.306,2.46-1.397.272-.988-.334-2.243-1.397-2.46-3.696-.754-7.732-1.976-10.779-4.264.246.185-.217-.183-.219-.185-.14-.122-.276-.249-.405-.381-.22-.224-.564-.633-.681-.788-.673-.891-1.236-1.876-1.745-2.868-.91-1.773-1.632-3.664-2.005-5.626-.202-1.062-1.479-1.667-2.46-1.397-1.112.306-1.6,1.396-1.397,2.46h0Z"/><path class="g" d="M321.345,204.437c-.507,3.082-1.192,6.385-.808,9.515.418,3.407,1.342,6.772,2.684,9.93s3.382,6.274,5.79,8.741c2.443,2.504,5.542,4.076,8.826,5.185,4.04,1.365,8.823,2.043,12.362-.825.612-.496.807-1.781.313-2.424-2.031-2.642-2.011-5.888-1.331-9.026.811-3.743,2.335-7.294,3.849-10.795,1.538-3.555,2.934-7.004,2.793-10.96-.144-4.043-1.694-7.961-4.602-10.814-3.449-3.384-8.124-4.783-12.805-5.365-1.074-.133-2,1.015-2,2,0,1.192.923,1.866,2,2,3.665.456,7.455,1.649,10.11,4.329,2.517,2.54,3.512,6.036,3.269,9.551-.244,3.532-2.031,6.752-3.38,9.958-1.395,3.314-2.746,6.719-3.329,10.285-.612,3.74-.424,7.74,1.973,10.857l.313-2.424c-1.381,1.119-3.559.948-5.193.66-2.042-.359-4.068-1.041-5.937-1.932-3.262-1.555-5.512-4.045-7.436-7.051-2.056-3.213-3.276-6.762-4.02-10.494-.656-3.292-.121-6.559.418-9.838.175-1.065-.278-2.153-1.397-2.46-.956-.263-2.284.325-2.46,1.397h0Z"/></g></svg>