<svg width="21" height="21" viewBox="0 0 21 21" fill="none" xmlns="http://www.w3.org/2000/svg">
<circle cx="10.2667" cy="10.2667" r="9.9" fill="white" stroke="white" stroke-width="0.733333"/>
<path d="M15.6381 6.8923L11.8866 13.2149L11.0709 11.6063L13.3014 7.85027C13.4252 7.64183 13.4053 7.39129 13.2484 7.1997C13.0958 7.01021 12.8328 6.8923 12.5631 6.8923H8.13956C7.8765 6.8923 7.62669 7.00179 7.46753 7.18285C7.30615 7.36813 7.2752 7.60394 7.38131 7.81448L9.28026 11.5621L8.30094 13.2128L5.12204 6.8923H3.43311L7.483 15.0971C7.60459 15.3393 7.89418 15.4993 8.21915 15.5077C8.53748 15.5077 8.84034 15.3645 8.97961 15.1329L10.1181 13.2149L11.0709 15.0971C11.1925 15.3393 11.4821 15.4993 11.8048 15.5077H11.8269C12.1408 15.5077 12.4304 15.3603 12.5653 15.1329L17.4331 6.8923H15.6381ZM11.261 8.22504L10.2353 9.95359L9.35984 8.22504H11.261Z" fill="#005C3F"/>
</svg>
