<svg width="67" height="67" viewBox="0 0 67 67" fill="none" xmlns="http://www.w3.org/2000/svg">
<g clip-path="url(#clip0_40_1595)">
<path d="M28.2881 32.4004L40.1866 32.6471V36.6802C40.1866 37.3942 40.1818 37.7188 40.1771 38.4328C40.1771 38.5453 40.1771 38.6708 40.2433 38.766C40.2954 38.8439 40.3805 38.8915 40.4657 38.9391C40.8962 39.1771 41.3315 39.4065 41.7715 39.6272C41.7715 39.6272 42.9022 43.9243 33.9133 43.9243C28.4726 43.9243 25.8848 37.9395 25.8848 37.9395L27.3041 37.2904C28.0941 36.6586 28.2266 36.1176 28.2408 35.5767C28.2597 34.9709 28.2787 33.5082 28.2881 32.4004Z" fill="white"/>
<path d="M39.8978 36.568C39.3585 36.6113 38.805 36.6199 38.2278 36.5896C37.75 36.568 37.2911 36.5247 36.8416 36.4598C35.6778 36.2954 34.1118 35.828 33.0048 35.4039C33.0048 35.4039 31.7227 34.7851 31.2496 34.5211C30.7765 34.2571 29.7309 33.5648 29.7309 33.5648C28.3353 32.5651 27.3418 31.5309 26.4429 30.4014C26.4429 30.4014 25.8846 29.5446 25.5061 28.9387C24.8012 28.8782 24.1152 28.5709 23.8408 28.3762C22.8662 27.6795 22.4783 26.7967 22.2323 26.1649C21.8822 25.2691 21.8585 23.8237 22.3789 23.0361C22.554 22.7722 22.9561 22.3264 23.9071 22.2961C24.3423 22.2832 24.858 22.4 25.2365 22.7159C25.2365 22.7159 24.0726 17.8259 29.2294 14.3813C32.3046 12.3258 37.2863 11.1833 42.9493 12.5421C47.7607 13.6976 49.5349 17.0124 49.5349 19.9464C49.5349 20.8248 49.5349 21.5648 49.5349 21.5648C49.6011 23.3867 49.2416 25.1912 49.1091 26.8616C48.8773 29.7566 48.021 32.3964 45.8778 34.123C44.0658 35.5813 42.1356 36.3819 39.9026 36.5593L39.8978 36.568Z" fill="white"/>
<path d="M11.8672 61.8572C11.924 58.4689 12.047 55.7599 12.4254 52.7307C12.8749 49.1519 13.7549 45.3222 16.6928 42.9248C17.6627 42.1372 18.8028 41.5486 19.9383 40.9688C21.9679 39.9302 24.0022 38.8916 26.0365 37.853C27.6356 38.5627 28.8515 39.1902 30.848 39.8869C33.4689 40.8 36.5346 41.4318 39.1792 41.0726C39.9646 40.9688 41.2183 40.6918 41.6725 40.0946L42.1787 39.5321C43.6926 40.1163 45.4242 40.7784 46.5028 41.3323C49.5827 42.9075 51.6691 45.2746 52.5254 48.1133C52.8045 49.0308 53.0931 50.1602 53.2587 51.0949C53.8122 54.228 53.0789 82.6635 53.0931 84.8359C51.9719 84.8835 49.1806 84.8791 47.3497 84.8662C47.3686 82.551 47.3923 80.2488 47.4159 77.9769C39.236 77.9769 30.4032 77.938 22.4835 77.9466C22.3416 80.2877 22.1571 82.6246 21.9348 84.9614C19.943 85.1172 14.034 85.1128 12.9033 85.0912C12.1936 74.3592 12.0895 71.0054 11.8719 61.8529" fill="white"/>
<path d="M26.6226 10.6031C25.6575 11.7109 23.8503 13.9698 22.7196 14.5324C21.2388 15.2723 20.0702 15.3502 20.0702 15.3502C19.2423 15.3805 17.946 15.1858 17.5722 15.0516C16.1529 14.5237 15.7035 13.5846 15.2588 12.36C16.574 11.6157 17.4587 10.9752 18.1494 9.68997C18.8402 8.40472 19.1382 6.98965 20.1033 5.86452C21.7639 3.92151 23.4008 3.7614 25.3453 3.96046C26.4571 4.07297 27.654 4.59659 27.9757 5.57459C27.9757 5.57459 28.6049 8.31385 26.6132 10.6031H26.6226Z" fill="#645D5C"/>
<path d="M20.0327 15.8395C20.0848 15.5886 20.151 15.3419 20.2173 15.0952C20.8938 12.7108 21.8447 10.7721 23.8175 9.09742C24.513 8.39638 25.4876 7.74726 26.1073 7.28856C29.2629 5.13783 32.2293 4.56661 35.2051 4.63584C39.9219 4.74836 43.7587 6.3322 46.3702 9.01087C47.8794 10.5601 48.9912 12.832 49.4501 14.8702C49.7813 16.3415 49.9043 18.4014 49.7245 20.379C46.6872 19.5049 45.2348 19.0808 44.3501 18.8385C40.7498 17.8994 37.8497 15.9694 35.5693 13.2561C35.1199 14.8269 34.4907 16.7873 33.9324 17.7393C33.1376 19.1024 30.6491 22.1186 28.5864 22.6985C28.5864 22.6985 27.8957 22.8197 26.7886 22.7591C25.6816 22.6985 25.2321 22.7245 25.2321 22.7245C24.8536 22.4086 24.3427 22.2874 23.9027 22.3047C22.9518 22.335 22.5449 22.7807 22.3746 23.0447C22.0245 23.577 21.9204 24.4078 21.9961 25.1651L21.2013 24.3343C20.151 22.5081 19.8388 20.1107 19.7773 18.7779C19.7347 17.7955 19.8198 16.8089 20.028 15.8439L20.0327 15.8395Z" fill="#645D5C"/>
<path d="M41.0764 38.1646C40.6081 37.9742 40.064 38.0348 39.7801 38.4762C39.5436 38.8484 39.6524 39.4672 40.1208 39.6619C42.983 40.8346 46.1386 41.7131 48.4804 43.7037C49.6206 44.6731 50.5573 45.8415 51.1629 47.1613C51.7779 48.4985 52.0476 49.9655 52.3457 51.3806C52.3267 51.2897 52.322 51.1729 52.3457 51.3849C52.3504 51.4585 52.3599 51.5277 52.3693 51.6013C52.3835 51.7787 52.3977 51.9518 52.4072 52.1292C52.4356 52.5966 52.4497 53.0683 52.4639 53.5356C52.5018 54.8901 52.5112 56.2489 52.516 57.6034C52.5254 61.2385 52.4781 64.8735 52.4261 68.5085C52.3457 73.9481 52.1138 79.4006 52.1422 84.8402L53.0884 83.9747C51.2197 84.0483 49.3462 84.018 47.4727 83.9964C46.2521 83.9834 46.2569 85.7144 47.4727 85.7273C49.3415 85.749 51.2197 85.7793 53.0884 85.7057C53.5994 85.6841 54.0346 85.3249 54.0346 84.8402C54.0252 82.5077 54.1151 80.1709 54.1576 77.8341C54.2948 70.5684 54.4604 63.3026 54.3989 56.0369C54.3895 54.8555 54.3753 53.6741 54.3185 52.4927C54.2523 51.095 53.9637 49.7491 53.5804 48.3903C52.8282 45.729 51.2481 43.4354 48.8636 41.7434C46.5455 40.0947 43.7258 39.2551 41.0764 38.1646Z" fill="#211715"/>
<path d="M26.628 38.5454C27.6924 38.0001 26.7368 36.5072 25.6723 37.0524C23.2453 38.2944 20.7852 39.4974 18.3866 40.787C16.5509 41.7737 14.9992 43.0156 13.9158 44.7076C12.9081 46.2828 12.3214 48.0614 11.9429 49.8443C11.115 53.7823 10.992 57.8544 10.921 61.8572C10.9021 62.9737 12.7945 62.9694 12.8134 61.8572C12.8513 59.6156 12.9223 57.374 13.1162 55.1411C13.4095 51.7527 13.7691 48.0051 15.8791 45.0928C17.0051 43.5392 18.6704 42.6088 20.4162 41.7174C22.4883 40.6572 24.5558 39.6013 26.628 38.5411V38.5454Z" fill="#211715"/>
<path d="M49.0581 49.5503C48.7601 48.4685 46.9339 48.9315 47.232 50.009C47.5158 51.0346 47.5537 52.0992 47.6294 53.207C47.7145 54.5312 47.7666 55.8597 47.7997 57.1882C47.8896 60.6372 47.6672 64.0948 47.5679 67.5438C47.4685 71.0187 47.3219 74.5023 47.3171 77.9772C47.3171 79.0936 49.2095 79.0893 49.2095 77.9772C49.2095 76.3457 49.2663 74.71 49.3089 73.0785C49.3988 69.4219 49.4839 65.7652 49.6259 62.1128C49.7063 60.1049 49.7205 58.1143 49.6542 56.1064C49.6164 54.8947 49.5596 53.683 49.465 52.4713C49.3893 51.4977 49.3136 50.4937 49.0534 49.546L49.0581 49.5503Z" fill="#211715"/>
<path d="M12.8136 61.8573C12.7852 60.7452 10.8928 60.7452 10.9212 61.8573C10.9638 63.6359 11.0064 65.4188 11.0584 67.1974C11.224 73.1692 11.5646 79.1324 11.9573 85.0956C11.9904 85.5716 12.3689 85.9524 12.9035 85.9611C15.8982 86.0087 18.945 86.052 21.935 85.8313C22.4601 85.7923 22.867 85.4634 22.8812 84.9658C22.9569 82.6203 23.0231 80.2792 23.0751 77.9337C23.2644 69.9323 23.3637 61.9309 23.5624 53.9295C23.5908 52.813 21.6984 52.8173 21.67 53.9295C21.6133 56.1624 21.566 58.3911 21.5234 60.624C21.3625 68.7379 21.249 76.8519 20.9888 84.9658L21.935 84.1003C18.9497 84.3253 15.8982 84.2777 12.9035 84.2301L13.8497 85.0956C13.7125 83.0444 13.58 80.9932 13.4618 78.942C13.1259 73.2514 12.9508 67.5565 12.8183 61.8573H12.8136Z" fill="#211715"/>
<path d="M20.075 43.4529C19.6067 43.2235 19.0673 43.3577 18.7787 43.7645C18.5091 44.1496 18.6841 44.7338 19.1194 44.9502C19.2613 45.0194 19.3843 45.106 19.5168 45.1838C19.2471 45.0194 19.5404 45.2055 19.6019 45.2574C19.6729 45.3137 19.7439 45.3743 19.8148 45.4348C20.1791 45.7507 20.515 46.0969 20.8367 46.4518C20.8556 46.4734 21.007 46.6508 20.9361 46.5643C20.8604 46.4691 20.9834 46.6292 20.9976 46.6465C21.0733 46.746 21.1442 46.8499 21.2057 46.9581C21.2672 47.0576 21.324 47.1572 21.376 47.261C21.3902 47.287 21.4612 47.4471 21.4044 47.3173C21.3524 47.1874 21.4139 47.3432 21.4234 47.3692C21.5464 47.6635 21.6268 47.9664 21.7356 48.2606C21.9012 48.7194 22.379 48.9747 22.8994 48.8665C23.3773 48.767 23.7179 48.2304 23.5618 47.8019C23.4435 47.4774 23.3536 47.1485 23.2164 46.8326C22.9657 46.2614 22.6534 45.7637 22.2229 45.2877C21.6173 44.6126 20.9266 43.877 20.075 43.4572V43.4529Z" fill="#211715"/>
<path d="M42.3398 40.7093C42.6568 40.3415 42.7372 39.8482 42.3398 39.4847C42.0087 39.1817 41.3179 39.1168 41.001 39.4847C40.3765 40.216 38.9193 40.2809 37.9921 40.3069C36.5728 40.3501 35.1724 40.1554 33.8004 39.8395C31.151 39.2293 28.7761 38.1085 26.3349 37.0267C25.242 36.542 24.2864 38.035 25.3792 38.5196C28.1563 39.7486 30.8814 41.0295 33.9187 41.6397C35.5036 41.9599 37.1641 42.1417 38.7869 41.9816C39.9885 41.8647 41.545 41.6311 42.3398 40.7007V40.7093Z" fill="#211715"/>
<path d="M29.2351 32.4004C29.2351 31.9158 28.7998 31.5566 28.2889 31.535C27.7732 31.5133 27.3474 31.9461 27.3427 32.4004C27.3379 33.1577 27.3285 33.9194 27.3143 34.6767C27.3143 34.9536 27.3048 35.2263 27.3001 35.5032C27.3001 35.5681 27.3001 35.633 27.2954 35.7023C27.2954 35.7629 27.248 35.9489 27.2954 35.7239C27.267 35.8537 27.2339 35.9835 27.1818 36.1047C27.2622 35.9186 27.1629 36.122 27.1392 36.161C27.1156 36.1956 26.9831 36.373 27.0068 36.3427C27.0352 36.3124 26.879 36.4682 26.8459 36.4985C26.8081 36.5375 26.7655 36.5721 26.7229 36.6067C26.827 36.5461 26.8601 36.5288 26.8175 36.5504C26.8081 36.5375 26.4296 36.7279 26.4012 36.7408L25.4077 37.1952C24.9346 37.4116 24.84 37.9871 25.0671 38.3809C25.3178 38.8137 25.9186 38.8916 26.3633 38.6925L27.4751 38.1862C28.0902 37.9049 28.5916 37.4203 28.8802 36.8447C29.2019 36.2042 29.1878 35.5292 29.2019 34.8411C29.2161 34.0319 29.2256 33.2227 29.2303 32.4091L29.2351 32.4004Z" fill="#211715"/>
<path d="M41.2988 40.3758C41.7624 40.6095 42.3112 40.4667 42.5951 40.0643C42.8648 39.6791 42.6897 39.0993 42.2545 38.8786C41.9706 38.7358 41.6867 38.5929 41.4076 38.4415C41.2704 38.3679 41.138 38.2944 41.0008 38.2208C40.9676 38.2035 40.9345 38.1862 40.9061 38.1689C40.8257 38.1169 40.8494 38.1386 40.9771 38.2251C41.0433 38.29 41.0906 38.3636 41.1143 38.4501C41.1048 38.4199 41.1001 38.3852 41.0954 38.3549L41.1285 38.5843C41.1048 38.2641 41.1285 37.9395 41.1285 37.6193C41.1285 37.3077 41.1285 36.9918 41.1332 36.6802C41.1332 36.1956 40.698 35.8364 40.187 35.8147C39.6761 35.7931 39.2408 36.2258 39.2408 36.6802C39.2408 37.2947 39.1982 37.9179 39.2314 38.5324C39.2503 38.8742 39.3638 39.1988 39.6382 39.4455C39.8085 39.5969 40.0309 39.7051 40.2343 39.8176C40.5844 40.008 40.9393 40.1941 41.2988 40.3715V40.3758Z" fill="#211715"/>
<path d="M24.561 23.3346C24.9536 23.6375 25.5119 23.6895 25.8998 23.3346C26.2405 23.023 26.2878 22.4129 25.8998 22.11C24.8259 21.2791 23.1937 21.1882 22.0867 22.0321C21.3439 22.599 21.0979 23.525 21.0364 24.3689C20.9701 25.282 21.183 26.1648 21.571 27C21.9826 27.8871 22.6402 28.7569 23.5675 29.2545C24.4616 29.7349 25.6491 29.9945 26.6568 29.6959C27.1441 29.5531 27.4563 29.0988 27.3191 28.6314C27.1867 28.1943 26.6426 27.8827 26.1553 28.0256C26.108 28.0385 25.791 28.0948 25.8998 28.0861C25.7768 28.0948 25.6538 28.0905 25.5356 28.0818C25.4977 28.0818 25.4599 28.0732 25.3227 28.0429C25.2091 28.0169 25.0908 27.9866 24.982 27.952C24.684 27.8611 24.4238 27.7183 24.1825 27.5106C23.8371 27.212 23.6195 26.9134 23.3971 26.498C23.383 26.4677 23.2505 26.208 23.3215 26.3595C23.2836 26.2773 23.2505 26.1907 23.2126 26.1085C23.1417 25.9311 23.0754 25.7537 23.0281 25.5676C22.9572 25.2949 22.9572 25.2733 22.9382 25.005C22.924 24.7757 22.924 24.5463 22.9382 24.3213C22.9572 24.1222 22.9666 24.0616 23.0423 23.815C23.066 23.7327 23.0944 23.6462 23.1322 23.5683C23.0612 23.7154 23.2032 23.4731 23.2174 23.4471C23.2552 23.3822 23.3688 23.3173 23.1937 23.4644C23.2552 23.4125 23.312 23.3519 23.3735 23.3C23.2552 23.4039 23.3451 23.3303 23.4255 23.2784C23.5202 23.2351 23.5202 23.2308 23.4303 23.2654C23.487 23.2437 23.5485 23.2264 23.61 23.2135C23.9223 23.1356 24.296 23.1312 24.561 23.339V23.3346Z" fill="#211715"/>
<path d="M43.4514 31.5393C43.8772 31.2537 44.0522 30.8036 43.792 30.3536C43.6832 30.1675 43.4467 30.0117 43.229 29.9554C43.0161 29.9035 42.685 29.9165 42.5005 30.042C42.3822 30.1199 42.2734 30.2021 42.1646 30.2886C42.1456 30.3016 42.1267 30.3146 42.1125 30.3276C42.3633 30.1242 42.2923 30.2064 42.2213 30.2497C42.174 30.28 42.122 30.3103 42.0699 30.3406C42.0321 30.3579 41.9233 30.4314 41.8807 30.4271C41.8949 30.4271 42.1362 30.3406 41.9753 30.3882C41.9327 30.4012 41.8949 30.4141 41.8523 30.4271C41.7671 30.4488 41.682 30.4704 41.5921 30.4834C41.559 30.4877 41.5211 30.4964 41.488 30.5007L41.63 30.4834C41.5779 30.4747 41.5022 30.4964 41.4502 30.4964C41.3177 30.505 41.1805 30.505 41.048 30.5007C40.9818 30.5007 40.9156 30.4964 40.8493 30.4877H40.7831C40.679 30.4704 40.6979 30.4747 40.8493 30.4877C40.8162 30.4531 40.5939 30.4444 40.5324 30.4271C40.4283 30.4012 40.3289 30.3752 40.2296 30.3406C40.1823 30.3276 40.1397 30.306 40.0924 30.293C39.9836 30.2583 40.31 30.3838 40.1728 30.3233C40.1018 30.293 40.0261 30.2583 39.9552 30.2237C39.8511 30.1675 39.501 29.9338 39.8369 30.1718C39.6287 30.0203 39.4348 29.9295 39.1698 29.9165C38.9191 29.9078 38.6825 30.0203 38.5028 30.1718C38.3277 30.3189 38.2236 30.5699 38.2236 30.782C38.2236 30.9767 38.323 31.2666 38.5028 31.3921C39.3212 31.9763 40.3431 32.2619 41.3887 32.2187C41.9422 32.197 42.4768 32.0932 42.9688 31.8552C43.1391 31.7729 43.3 31.6561 43.4514 31.5436C43.5555 31.4657 43.7731 31.3186 43.4561 31.5306L43.4514 31.5393Z" fill="#211715"/>
<path d="M37.8875 23.2306C38.3701 24.0138 38.1808 25.615 36.6007 25.5371C35.4132 25.3597 35.3706 24.0268 35.6024 23.4599C36.2269 22.2656 37.4901 22.5901 37.8875 23.2306Z" fill="#211715"/>
<path d="M44.4391 23.5294C44.9501 22.2831 46.0618 22.5601 46.4261 23.1962C46.8708 23.9751 46.7526 25.6152 45.3711 25.6066C44.3303 25.4768 44.2546 24.1179 44.4391 23.5294Z" fill="#211715"/>
<path d="M42.8027 25.9701C42.6844 25.7711 42.4668 25.6413 42.2397 25.572C41.9984 25.4985 41.7287 25.5547 41.5111 25.6586C41.3077 25.7581 41.1373 25.9745 41.0758 26.1779C41.0096 26.4029 41.0522 26.6409 41.1705 26.8443C41.3455 27.1429 41.5111 27.4458 41.653 27.7574L41.5584 27.5497C41.601 27.6449 41.6483 27.7444 41.6909 27.8396L41.5962 27.6319C41.6199 27.6881 41.6388 27.7444 41.653 27.8006L41.6199 27.5713C41.6199 27.5973 41.6199 27.6232 41.6199 27.6535L41.653 27.4242C41.653 27.4242 41.6483 27.4501 41.6436 27.4631L41.7382 27.2554C41.7382 27.2554 41.7193 27.29 41.7051 27.3073L41.8517 27.1342C41.8233 27.1602 41.7949 27.1818 41.7666 27.2035L41.9558 27.0693C41.9132 27.0953 41.8706 27.1212 41.8233 27.1385L42.0504 27.052C42.0031 27.0693 41.9605 27.078 41.9132 27.0866L42.164 27.0563C42.0977 27.065 42.0315 27.0607 41.9653 27.0693C41.795 27.0693 41.6341 27.1083 41.4874 27.1861L41.2982 27.3203C41.1137 27.4761 41.0333 27.7098 41.0191 27.9305C41.0096 28.1468 41.1326 28.3935 41.2982 28.5406C41.4543 28.6834 41.7382 28.8133 41.9653 28.796C42.1214 28.783 42.2775 28.7786 42.4336 28.7483C42.6891 28.7051 42.902 28.5709 43.1007 28.4238C43.3656 28.2291 43.5076 27.9218 43.5076 27.6146C43.5076 27.3592 43.413 27.1559 43.2994 26.9265L43.394 27.1342C43.219 26.7361 43.0155 26.351 42.7932 25.9701H42.8027Z" fill="#211715"/>
<path d="M29.055 34.1791C29.4713 34.4777 29.9775 34.5253 30.3938 34.1791C30.7392 33.8891 30.7865 33.2357 30.3938 32.9544C29.4098 32.2447 28.5251 31.4398 27.7397 30.5527C27.6924 30.4964 27.6404 30.4402 27.5931 30.3882C27.5363 30.3233 27.4937 30.2714 27.5742 30.3666C27.4795 30.2541 27.3849 30.1416 27.295 30.0247C27.2335 29.9468 27.172 29.8646 27.1105 29.7824C26.8551 29.4405 26.6043 29.0943 26.3914 28.7308C26.1407 28.3024 25.5351 28.2072 25.0951 28.4193C24.6315 28.6443 24.5227 29.2025 24.7545 29.605C25.1945 30.3579 25.7669 31.0547 26.3488 31.7211C27.1436 32.6342 28.0473 33.4564 29.0502 34.1791H29.055Z" fill="#211715"/>
<path d="M33.2503 34.5727C32.7772 34.3953 32.2095 34.7675 32.0865 35.1786C31.9399 35.6676 32.2757 36.0657 32.7488 36.2431C34.821 37.0264 37.0115 37.537 39.2682 37.4721C42.911 37.3639 46.5965 35.568 48.4037 32.6124C50.4239 29.2976 50.1069 25.2385 50.4806 21.5818C50.5279 21.1144 50.0075 20.7163 49.5344 20.7163C48.9904 20.7163 48.6355 21.1188 48.5882 21.5818C48.3753 23.6633 48.3517 25.7707 48.0584 27.8436C47.8549 29.2933 47.4339 30.7559 46.5965 32.0152C45.7638 33.2658 44.4628 34.2135 43.0482 34.88C39.9305 36.347 36.3539 35.7541 33.2503 34.5814V34.5727Z" fill="#211715"/>
<path d="M36.4407 13.6197C36.753 12.5379 34.9268 12.0835 34.6146 13.161C34.0847 15.0002 33.5548 16.8307 32.3579 18.4102C31.7854 19.1675 31.1326 19.8772 30.4182 20.522C29.8221 21.0629 29.0793 21.6428 28.3318 21.8635C27.1774 22.2053 27.6742 23.8757 28.8333 23.5339C30.9622 22.9021 32.5897 21.0759 33.8434 19.4704C35.2107 17.7221 35.8399 15.6796 36.436 13.6197H36.4407Z" fill="#211715"/>
<path d="M36.2457 12.6546C35.9287 12.2825 35.2332 12.356 34.9068 12.6546C34.5141 13.0138 34.5946 13.5115 34.9068 13.8793C36.7708 16.0733 39.16 17.8735 41.9607 18.9683C44.2694 19.8728 46.7863 20.4353 49.1755 21.1277C50.344 21.4653 50.8361 19.7905 49.677 19.4573C48.3854 19.0852 47.0939 18.7087 45.8023 18.3409C44.8135 18.0596 43.8105 17.8172 42.8549 17.4494C40.2008 16.4325 37.9961 14.7188 36.2409 12.6546H36.2457Z" fill="#211715"/>
<path d="M46.0623 16.3631C46.2326 15.9044 45.8636 15.437 45.3999 15.2985C44.8937 15.1471 44.397 15.476 44.2361 15.9044C43.834 16.9819 43.4129 18.0508 42.9493 19.1024L44.1131 18.4965C43.7394 18.3753 43.3798 18.2239 43.0061 18.0984L43.6684 19.1629C44.1131 18.0854 44.5578 17.0035 45.012 15.9303L43.6211 16.4453C43.9712 16.5924 44.3213 16.7352 44.6714 16.8781C45.1587 17.0728 45.6649 16.9992 45.9677 16.5665C46.2231 16.203 46.0812 15.5668 45.627 15.3808C45.2769 15.238 44.9221 15.0995 44.5768 14.948C43.9806 14.6927 43.4224 14.9134 43.1858 15.463C42.7269 16.5362 42.2869 17.618 41.8422 18.6956C41.6483 19.1629 42.0599 19.6087 42.5046 19.7601C42.8783 19.8856 43.2379 20.0371 43.6116 20.1582C43.8482 20.2361 44.1273 20.1756 44.3402 20.0717C44.5673 19.9592 44.6808 19.7601 44.7755 19.5524C45.2438 18.4965 45.6649 17.4276 46.0623 16.3544V16.3631Z" fill="#211715"/>
<path d="M27.0725 5.80413C27.4699 6.85137 29.3008 6.39699 28.8986 5.34543C27.7869 2.42009 22.9187 2.50231 20.6525 4.12942C19.1386 5.21993 18.4431 6.71722 17.7761 8.31404C17.4827 9.01508 17.1516 9.73343 16.6028 10.3047C16.0824 10.8413 15.4531 11.2351 14.7908 11.6115C14.4502 11.8063 14.2183 12.2217 14.3555 12.5895C14.7766 13.7276 15.3017 14.7879 16.4277 15.4759C17.4638 16.1077 18.8595 16.2462 20.0801 16.2202C21.3007 16.1943 21.2959 14.4633 20.0801 14.4893C19.2474 14.5066 18.2539 14.4633 17.5206 14.0609C16.7589 13.6411 16.4561 12.8665 16.1817 12.1308L15.7465 13.1088C16.9765 12.4078 18.0883 11.5986 18.8074 10.4258C19.588 9.14923 19.8577 7.63463 20.8134 6.44459C21.5892 5.4839 22.6585 4.80883 23.9879 4.76555C24.9577 4.73093 26.6845 4.77853 27.0772 5.80846L27.0725 5.80413Z" fill="#211715"/>
<path d="M48.5659 21.8805C48.476 22.3435 48.6936 22.8109 49.2282 22.9451C49.6871 23.0619 50.3021 22.8022 50.392 22.3392C51.1963 18.1416 50.8131 13.5589 48.2678 9.88921C44.0288 3.78754 34.0417 2.01763 27.3189 5.52284C25.5117 6.46189 23.818 7.74281 22.4271 9.15355C21.1355 10.4691 20.2603 12.0313 19.6737 13.706C18.4247 17.2502 18.5098 21.4045 20.388 24.7669C20.9416 25.7579 22.5738 24.8837 22.0202 23.8928C20.1751 20.5996 20.4022 16.4193 21.9256 13.0785C22.6021 11.5985 23.6477 10.4128 24.9014 9.31366C26.2829 8.10631 27.9292 7.03744 29.6986 6.36236C32.9204 5.13337 36.7336 5.25021 40.0122 6.23686C43.2009 7.19323 45.855 9.18817 47.35 11.9447C48.9869 14.9653 49.1856 18.6003 48.5564 21.8805H48.5659Z" fill="#211715"/>
</g>
<defs>
<clipPath id="clip0_40_1595">
<rect width="43" height="60" fill="white" transform="translate(11 3)"/>
</clipPath>
</defs>
</svg>
