<svg width="679" height="38" viewBox="0 0 679 38" fill="none" xmlns="http://www.w3.org/2000/svg">
<g clip-path="url(#clip0_272_65132)">
<path d="M155 0H8C3.58172 0 0 3.58172 0 8V30C0 34.4183 3.58172 38 8 38H155C159.418 38 163 34.4183 163 30V8C163 3.58172 159.418 0 155 0Z" fill="#FCAF17"/>
<path d="M131.016 19.8586C131.016 20.9679 130.877 21.9919 130.6 22.9306C130.322 23.8692 129.944 24.7226 129.464 25.4906C128.984 26.2479 128.445 26.9252 127.848 27.5226L126.488 26.8986C127.042 26.3012 127.538 25.6506 127.976 24.9466C128.413 24.2426 128.754 23.4692 129 22.6266C129.256 21.7732 129.384 20.8506 129.384 19.8586C129.384 18.8559 129.256 17.9332 129 17.0906C128.754 16.2479 128.413 15.4746 127.976 14.7706C127.538 14.0559 127.042 13.4052 126.488 12.8186L127.848 12.1946C128.445 12.7812 128.984 13.4586 129.464 14.2266C129.944 14.9946 130.322 15.8479 130.6 16.7866C130.877 17.7252 131.016 18.7492 131.016 19.8586Z" fill="white"/>
<path d="M111 15.7625H123.32V17.5225H111V15.7625ZM122.616 15.7625H124.392C124.392 15.7625 124.392 15.8211 124.392 15.9385C124.392 16.0451 124.386 16.1625 124.376 16.2905C124.376 16.4185 124.37 16.5251 124.36 16.6105C124.274 18.2211 124.189 19.5971 124.104 20.7385C124.018 21.8798 123.922 22.8291 123.816 23.5865C123.709 24.3331 123.586 24.9251 123.448 25.3625C123.32 25.7998 123.165 26.1198 122.984 26.3225C122.76 26.6105 122.525 26.8078 122.28 26.9145C122.045 27.0211 121.757 27.0958 121.416 27.1385C121.128 27.1811 120.749 27.1971 120.28 27.1865C119.81 27.1865 119.336 27.1758 118.856 27.1545C118.845 26.9091 118.781 26.6105 118.664 26.2585C118.557 25.9171 118.418 25.6238 118.248 25.3785C118.77 25.4318 119.25 25.4638 119.688 25.4745C120.136 25.4745 120.466 25.4745 120.68 25.4745C120.85 25.4745 120.989 25.4585 121.096 25.4265C121.213 25.3945 121.32 25.3251 121.416 25.2185C121.554 25.0798 121.682 24.8078 121.8 24.4025C121.928 23.9971 122.034 23.4371 122.12 22.7225C122.216 21.9971 122.301 21.0905 122.376 20.0025C122.461 18.9145 122.541 17.6185 122.616 16.1145V15.7625ZM116.008 12.4185H117.832V15.5705C117.832 16.3065 117.794 17.0851 117.72 17.9065C117.656 18.7171 117.517 19.5491 117.304 20.4025C117.09 21.2558 116.765 22.0985 116.328 22.9305C115.89 23.7625 115.309 24.5625 114.584 25.3305C113.858 26.0878 112.946 26.7811 111.848 27.4105C111.762 27.2611 111.64 27.0958 111.48 26.9145C111.32 26.7438 111.154 26.5731 110.984 26.4025C110.813 26.2425 110.653 26.1145 110.504 26.0185C111.528 25.4531 112.37 24.8345 113.032 24.1625C113.704 23.4798 114.237 22.7705 114.632 22.0345C115.037 21.2985 115.336 20.5571 115.528 19.8105C115.72 19.0531 115.848 18.3171 115.912 17.6025C115.976 16.8771 116.008 16.1998 116.008 15.5705V12.4185Z" fill="white"/>
<path d="M94.7427 16.9465H108.679V18.4025H94.7427V16.9465ZM95.9747 14.1145H104.999V15.5225H95.9747V14.1145ZM99.7827 12.3865H101.479V17.6825H99.7827V12.3865ZM105.943 19.1865L106.999 20.3225C106.295 20.5038 105.505 20.6638 104.631 20.8025C103.767 20.9411 102.871 21.0585 101.943 21.1545C101.015 21.2505 100.119 21.3251 99.2547 21.3785C99.2333 21.2185 99.18 21.0265 99.0947 20.8025C99.02 20.5678 98.9453 20.3758 98.8707 20.2265C99.5 20.1731 100.14 20.1145 100.791 20.0505C101.441 19.9758 102.081 19.8958 102.711 19.8105C103.34 19.7251 103.932 19.6291 104.487 19.5225C105.041 19.4158 105.527 19.3038 105.943 19.1865ZM106.647 13.0585L108.039 13.8265C106.972 15.1598 105.745 16.3918 104.359 17.5225C102.972 18.6425 101.489 19.6505 99.9107 20.5465C98.3427 21.4425 96.7427 22.2105 95.1107 22.8505C95.036 22.7331 94.9347 22.5891 94.8067 22.4185C94.6787 22.2478 94.5453 22.0825 94.4067 21.9225C94.2787 21.7518 94.1613 21.6185 94.0547 21.5225C95.708 20.9465 97.308 20.2371 98.8547 19.3945C100.412 18.5518 101.857 17.5971 103.191 16.5305C104.524 15.4638 105.676 14.3065 106.647 13.0585ZM98.4707 19.2665L100.183 19.4585C100.065 20.0131 99.932 20.5945 99.7827 21.2025C99.644 21.7998 99.5 22.3811 99.3507 22.9465C99.212 23.5118 99.0733 24.0078 98.9347 24.4345L97.2227 24.1945C97.3613 23.7678 97.5053 23.2718 97.6547 22.7065C97.8147 22.1411 97.964 21.5598 98.1027 20.9625C98.252 20.3651 98.3747 19.7998 98.4707 19.2665ZM105.287 22.2905H107.015C107.015 22.2905 107.009 22.3385 106.999 22.4345C106.999 22.5198 106.993 22.6211 106.983 22.7385C106.972 22.8451 106.951 22.9358 106.919 23.0105C106.801 23.7571 106.673 24.3811 106.535 24.8825C106.407 25.3838 106.268 25.7891 106.119 26.0985C105.98 26.4185 105.815 26.6585 105.623 26.8185C105.431 27.0105 105.217 27.1385 104.983 27.2025C104.759 27.2665 104.487 27.3091 104.167 27.3305C103.911 27.3411 103.564 27.3465 103.127 27.3465C102.7 27.3465 102.241 27.3358 101.751 27.3145C101.74 27.0798 101.681 26.8131 101.575 26.5145C101.479 26.2158 101.356 25.9545 101.207 25.7305C101.687 25.7731 102.151 25.8051 102.599 25.8265C103.057 25.8371 103.388 25.8425 103.591 25.8425C103.751 25.8425 103.884 25.8371 103.991 25.8265C104.097 25.8051 104.193 25.7625 104.279 25.6985C104.471 25.5491 104.647 25.2238 104.807 24.7225C104.977 24.2211 105.132 23.4798 105.271 22.4985L105.287 22.2905ZM98.6307 22.2905H105.687V23.6985H98.2467L98.6307 22.2905Z" fill="white"/>
<path d="M82.3122 22.1465H84.0402V24.9145C84.0402 25.1491 84.0989 25.2985 84.2162 25.3625C84.3335 25.4265 84.5949 25.4585 85.0002 25.4585C85.0962 25.4585 85.2562 25.4585 85.4802 25.4585C85.7042 25.4585 85.9495 25.4585 86.2162 25.4585C86.4829 25.4585 86.7335 25.4585 86.9682 25.4585C87.2135 25.4585 87.3949 25.4585 87.5122 25.4585C87.7469 25.4585 87.9229 25.4158 88.0402 25.3305C88.1682 25.2451 88.2589 25.0638 88.3122 24.7865C88.3655 24.5091 88.4029 24.0985 88.4242 23.5545C88.5522 23.6398 88.7069 23.7251 88.8882 23.8105C89.0695 23.8958 89.2615 23.9705 89.4642 24.0345C89.6669 24.0985 89.8429 24.1518 89.9922 24.1945C89.9175 24.9411 89.8002 25.5225 89.6402 25.9385C89.4909 26.3438 89.2562 26.6211 88.9362 26.7705C88.6269 26.9305 88.2002 27.0105 87.6562 27.0105C87.5709 27.0105 87.4322 27.0105 87.2402 27.0105C87.0482 27.0105 86.8295 27.0105 86.5842 27.0105C86.3495 27.0105 86.1095 27.0105 85.8642 27.0105C85.6189 27.0105 85.4002 27.0105 85.2082 27.0105C85.0269 27.0105 84.8989 27.0105 84.8242 27.0105C84.1522 27.0105 83.6349 26.9465 83.2722 26.8185C82.9095 26.6905 82.6589 26.4771 82.5202 26.1785C82.3815 25.8798 82.3122 25.4638 82.3122 24.9305V22.1465ZM83.8642 21.6345L85.0002 20.5785C85.3842 20.7598 85.7842 20.9785 86.2002 21.2345C86.6162 21.4798 87.0055 21.7358 87.3682 22.0025C87.7415 22.2691 88.0455 22.5251 88.2802 22.7705L87.0482 23.9545C86.8455 23.7198 86.5629 23.4638 86.2002 23.1865C85.8482 22.8985 85.4695 22.6211 85.0642 22.3545C84.6589 22.0771 84.2589 21.8371 83.8642 21.6345ZM89.4962 22.3385L91.0162 21.7145C91.3255 22.1091 91.6242 22.5411 91.9122 23.0105C92.2002 23.4691 92.4562 23.9225 92.6802 24.3705C92.9042 24.8185 93.0695 25.2345 93.1762 25.6185L91.5122 26.3225C91.4162 25.9598 91.2615 25.5491 91.0482 25.0905C90.8455 24.6318 90.6055 24.1625 90.3282 23.6825C90.0615 23.2025 89.7842 22.7545 89.4962 22.3385ZM80.1042 21.8425L81.6562 22.3865C81.5282 22.8345 81.3789 23.3038 81.2082 23.7945C81.0482 24.2851 80.8615 24.7598 80.6482 25.2185C80.4349 25.6771 80.2002 26.0825 79.9442 26.4345L78.4082 25.5865C78.6535 25.2558 78.8829 24.8878 79.0962 24.4825C79.3202 24.0665 79.5175 23.6291 79.6882 23.1705C79.8589 22.7118 79.9975 22.2691 80.1042 21.8425ZM81.6082 17.5065V19.0905H89.7362V17.5065H81.6082ZM81.6082 14.5625V16.1145H89.7362V14.5625H81.6082ZM79.9922 13.0745H91.4322V20.5785H79.9922V13.0745ZM84.8722 13.7305H86.5522V19.9545H84.8722V13.7305Z" fill="white"/>
<path d="M72.5195 19.8586C72.5195 18.7492 72.6582 17.7252 72.9355 16.7866C73.2128 15.8479 73.5915 14.9946 74.0715 14.2266C74.5515 13.4586 75.0902 12.7812 75.6875 12.1946L77.0475 12.8186C76.4928 13.4052 75.9968 14.0559 75.5595 14.7706C75.1222 15.4746 74.7755 16.2479 74.5195 17.0906C74.2742 17.9332 74.1515 18.8559 74.1515 19.8586C74.1515 20.8506 74.2742 21.7732 74.5195 22.6266C74.7755 23.4692 75.1222 24.2426 75.5595 24.9466C75.9968 25.6506 76.4928 26.3012 77.0475 26.8986L75.6875 27.5226C75.0902 26.9252 74.5515 26.2479 74.0715 25.4906C73.5915 24.7226 73.2128 23.8692 72.9355 22.9306C72.6582 21.9919 72.5195 20.9679 72.5195 19.8586Z" fill="white"/>
<path d="M49.4801 17.8424H57.0161V19.3304H49.4801V17.8424ZM46.6641 21.4424H60.9361V23.0264H46.6641V21.4424ZM52.9041 20.3704H54.6641V25.4424C54.6641 25.9011 54.5947 26.2531 54.4561 26.4984C54.3281 26.7544 54.0827 26.9464 53.7201 27.0744C53.3681 27.1917 52.9414 27.2664 52.4401 27.2984C51.9387 27.3304 51.3361 27.3464 50.6321 27.3464C50.5787 27.1011 50.4827 26.8184 50.3441 26.4984C50.2054 26.1784 50.0667 25.9064 49.9281 25.6824C50.2801 25.6931 50.6321 25.7037 50.9841 25.7144C51.3467 25.7144 51.6614 25.7144 51.9281 25.7144C52.1947 25.7144 52.3814 25.7144 52.4881 25.7144C52.6481 25.7037 52.7547 25.6771 52.8081 25.6344C52.8721 25.5917 52.9041 25.5117 52.9041 25.3944V20.3704ZM56.4561 17.8424H56.8881L57.2561 17.7464L58.3441 18.5784C57.9814 18.9624 57.5654 19.3464 57.0961 19.7304C56.6267 20.1144 56.1361 20.4771 55.6241 20.8184C55.1121 21.1491 54.5947 21.4371 54.0721 21.6824C53.9654 21.5331 53.8161 21.3624 53.6241 21.1704C53.4427 20.9677 53.2881 20.8077 53.1601 20.6904C53.5761 20.4771 53.9974 20.2264 54.4241 19.9384C54.8507 19.6397 55.2401 19.3357 55.5921 19.0264C55.9547 18.7171 56.2427 18.4291 56.4561 18.1624V17.8424ZM46.9041 14.9624H60.7281V18.7864H59.0321V16.4824H48.5201V18.7864H46.9041V14.9624ZM58.0721 12.4984L59.9281 13.0584C59.5654 13.5811 59.1867 14.0931 58.7921 14.5944C58.3974 15.0957 58.0347 15.5224 57.7041 15.8744L56.3121 15.3464C56.5254 15.0904 56.7387 14.7971 56.9521 14.4664C57.1761 14.1357 57.3841 13.7997 57.5761 13.4584C57.7787 13.1064 57.9441 12.7864 58.0721 12.4984ZM47.9761 13.2184L49.4321 12.5624C49.7307 12.8824 50.0187 13.2397 50.2961 13.6344C50.5841 14.0291 50.7921 14.3811 50.9201 14.6904L49.3681 15.4264C49.2507 15.1171 49.0587 14.7597 48.7921 14.3544C48.5254 13.9384 48.2534 13.5597 47.9761 13.2184ZM52.0241 12.8664L53.5441 12.3064C53.8001 12.6584 54.0454 13.0584 54.2801 13.5064C54.5254 13.9544 54.7014 14.3384 54.8081 14.6584L53.1921 15.2984C53.1067 14.9677 52.9521 14.5731 52.7281 14.1144C52.5041 13.6557 52.2694 13.2397 52.0241 12.8664Z" fill="white"/>
<path d="M33.4475 25.2344H42.1515V26.7224H33.4475V25.2344ZM32.6155 21.5064H43.1115V27.2984H41.3515V22.9944H34.2955V27.3464H32.6155V21.5064ZM30.7915 13.9064H36.9995V15.2984H30.7915V13.9064ZM38.3915 15.7944H44.9835V17.3144H38.3915V15.7944ZM30.5195 16.9624C31.0848 16.909 31.7195 16.845 32.4235 16.7704C33.1382 16.685 33.8902 16.5997 34.6795 16.5144C35.4795 16.4184 36.2795 16.3277 37.0795 16.2424L37.1115 17.6024C35.9702 17.7517 34.8342 17.901 33.7035 18.0504C32.5728 18.189 31.5702 18.317 30.6955 18.4344L30.5195 16.9624ZM41.1595 16.4504H42.8555V21.0584H41.1595V16.4504ZM33.2235 12.3704H34.9035V19.6024C34.9035 19.9864 34.8555 20.2797 34.7595 20.4824C34.6742 20.685 34.4982 20.845 34.2315 20.9624C33.9862 21.069 33.6768 21.133 33.3035 21.1544C32.9408 21.1757 32.5035 21.1864 31.9915 21.1864C31.9595 20.9837 31.8955 20.7544 31.7995 20.4984C31.7035 20.2317 31.6128 19.997 31.5275 19.7944C31.8155 19.805 32.0982 19.8157 32.3755 19.8264C32.6635 19.8264 32.8555 19.8264 32.9515 19.8264C33.0582 19.8157 33.1275 19.7944 33.1595 19.7624C33.2022 19.7304 33.2235 19.6664 33.2235 19.5704V12.3704ZM37.7355 13.0264L39.7515 13.5544C39.7408 13.6824 39.6128 13.773 39.3675 13.8264V15.5864C39.3675 15.9917 39.3355 16.4344 39.2715 16.9144C39.2075 17.3837 39.0902 17.869 38.9195 18.3704C38.7488 18.861 38.5035 19.3357 38.1835 19.7944C37.8635 20.253 37.4475 20.6797 36.9355 21.0744C36.8608 20.9464 36.7542 20.8024 36.6155 20.6424C36.4768 20.4824 36.3275 20.333 36.1675 20.1944C36.0182 20.045 35.8848 19.933 35.7675 19.8584C36.3435 19.4317 36.7702 18.9677 37.0475 18.4664C37.3248 17.965 37.5062 17.4637 37.5915 16.9624C37.6875 16.461 37.7355 15.9757 37.7355 15.5064V13.0264ZM43.3355 12.4184L44.4875 13.6664C43.9435 13.8264 43.3408 13.9757 42.6795 14.1144C42.0182 14.253 41.3408 14.3704 40.6475 14.4664C39.9542 14.5624 39.2875 14.637 38.6475 14.6904C38.6155 14.5197 38.5515 14.3117 38.4555 14.0664C38.3702 13.8104 38.2795 13.6024 38.1835 13.4424C38.7915 13.3677 39.4102 13.2824 40.0395 13.1864C40.6795 13.0797 41.2822 12.9624 41.8475 12.8344C42.4235 12.7064 42.9195 12.5677 43.3355 12.4184Z" fill="white"/>
<path d="M327 0H180C175.582 0 172 3.58172 172 8V30C172 34.4183 175.582 38 180 38H327C331.418 38 335 34.4183 335 30V8C335 3.58172 331.418 0 327 0Z" fill="#B6D43E"/>
<path d="M294.271 18.6584C294.452 18.6691 294.682 18.6851 294.959 18.7064C295.247 18.7278 295.546 18.7438 295.855 18.7544C296.164 18.7544 296.458 18.7544 296.735 18.7544C296.98 18.7544 297.295 18.7544 297.679 18.7544C298.063 18.7544 298.49 18.7544 298.959 18.7544C299.428 18.7544 299.914 18.7544 300.415 18.7544C300.927 18.7544 301.434 18.7544 301.935 18.7544C302.447 18.7544 302.927 18.7544 303.375 18.7544C303.823 18.7544 304.218 18.7544 304.559 18.7544C304.911 18.7544 305.188 18.7544 305.391 18.7544C305.775 18.7544 306.122 18.7438 306.431 18.7224C306.751 18.6904 307.012 18.6691 307.215 18.6584V20.9144C307.034 20.9038 306.767 20.8878 306.415 20.8664C306.074 20.8451 305.732 20.8344 305.391 20.8344C305.199 20.8344 304.927 20.8344 304.575 20.8344C304.223 20.8344 303.818 20.8344 303.359 20.8344C302.911 20.8344 302.436 20.8344 301.935 20.8344C301.434 20.8344 300.927 20.8344 300.415 20.8344C299.914 20.8344 299.428 20.8344 298.959 20.8344C298.49 20.8344 298.063 20.8344 297.679 20.8344C297.295 20.8344 296.98 20.8344 296.735 20.8344C296.287 20.8344 295.834 20.8451 295.375 20.8664C294.927 20.8771 294.559 20.8931 294.271 20.9144V18.6584Z" fill="white"/>
<path d="M281.648 13.3784C281.904 13.5171 282.197 13.6878 282.528 13.8904C282.859 14.0931 283.195 14.3064 283.536 14.5304C283.877 14.7438 284.197 14.9518 284.496 15.1544C284.805 15.3464 285.056 15.5118 285.248 15.6504L284.192 17.2344C283.979 17.0851 283.717 16.9091 283.408 16.7064C283.109 16.5038 282.795 16.2958 282.464 16.0824C282.133 15.8691 281.808 15.6664 281.488 15.4744C281.168 15.2718 280.88 15.0958 280.624 14.9464L281.648 13.3784ZM278.848 24.7544C279.445 24.6478 280.053 24.5144 280.672 24.3544C281.291 24.1944 281.904 23.9971 282.512 23.7624C283.12 23.5278 283.707 23.2558 284.272 22.9464C285.168 22.4344 286.005 21.8638 286.784 21.2344C287.563 20.5944 288.261 19.9171 288.88 19.2024C289.509 18.4771 290.032 17.7358 290.448 16.9784L291.552 18.9144C290.827 20.0131 289.92 21.0584 288.832 22.0504C287.744 23.0318 286.549 23.9011 285.248 24.6584C284.704 24.9678 284.112 25.2558 283.472 25.5224C282.832 25.7891 282.197 26.0184 281.568 26.2104C280.949 26.4024 280.4 26.5464 279.92 26.6424L278.848 24.7544ZM279.2 17.0104C279.467 17.1491 279.765 17.3198 280.096 17.5224C280.427 17.7144 280.763 17.9171 281.104 18.1304C281.445 18.3438 281.765 18.5464 282.064 18.7384C282.373 18.9304 282.624 19.0958 282.816 19.2344L281.776 20.8504C281.552 20.6904 281.291 20.5144 280.992 20.3224C280.693 20.1198 280.373 19.9118 280.032 19.6984C279.701 19.4744 279.371 19.2664 279.04 19.0744C278.72 18.8824 278.432 18.7224 278.176 18.5944L279.2 17.0104Z" fill="white"/>
<path d="M264.679 13.7625C264.893 13.7945 265.143 13.8158 265.431 13.8265C265.73 13.8371 266.007 13.8425 266.263 13.8425C266.455 13.8425 266.759 13.8425 267.175 13.8425C267.602 13.8425 268.077 13.8425 268.599 13.8425C269.122 13.8425 269.645 13.8425 270.167 13.8425C270.69 13.8425 271.154 13.8425 271.559 13.8425C271.975 13.8425 272.274 13.8425 272.455 13.8425C272.711 13.8425 272.994 13.8371 273.303 13.8265C273.623 13.8158 273.89 13.7945 274.103 13.7625V15.6345C273.901 15.6131 273.645 15.5971 273.335 15.5865C273.026 15.5758 272.727 15.5705 272.439 15.5705C272.258 15.5705 271.959 15.5705 271.543 15.5705C271.138 15.5705 270.674 15.5705 270.151 15.5705C269.629 15.5705 269.106 15.5705 268.583 15.5705C268.061 15.5705 267.591 15.5705 267.175 15.5705C266.759 15.5705 266.455 15.5705 266.263 15.5705C266.018 15.5705 265.746 15.5758 265.447 15.5865C265.159 15.5971 264.903 15.6131 264.679 15.6345V13.7625ZM275.415 18.2905C275.362 18.3865 275.309 18.4931 275.255 18.6105C275.202 18.7278 275.165 18.8238 275.143 18.8985C274.898 19.6771 274.589 20.4505 274.215 21.2185C273.853 21.9865 273.373 22.7011 272.775 23.3625C271.965 24.2691 271.063 24.9945 270.071 25.5385C269.09 26.0825 268.087 26.4985 267.063 26.7865L265.639 25.1705C266.823 24.9251 267.89 24.5571 268.839 24.0665C269.789 23.5651 270.578 22.9891 271.207 22.3385C271.655 21.8798 272.018 21.3891 272.295 20.8665C272.573 20.3331 272.781 19.8265 272.919 19.3465C272.802 19.3465 272.594 19.3465 272.295 19.3465C271.997 19.3465 271.639 19.3465 271.223 19.3465C270.807 19.3465 270.354 19.3465 269.863 19.3465C269.383 19.3465 268.893 19.3465 268.391 19.3465C267.901 19.3465 267.431 19.3465 266.983 19.3465C266.535 19.3465 266.135 19.3465 265.783 19.3465C265.442 19.3465 265.175 19.3465 264.983 19.3465C264.791 19.3465 264.525 19.3518 264.183 19.3625C263.853 19.3731 263.527 19.3945 263.207 19.4265V17.5545C263.538 17.5758 263.858 17.5971 264.167 17.6185C264.477 17.6398 264.749 17.6505 264.983 17.6505C265.133 17.6505 265.367 17.6505 265.687 17.6505C266.018 17.6505 266.402 17.6505 266.839 17.6505C267.277 17.6505 267.746 17.6505 268.247 17.6505C268.749 17.6505 269.25 17.6505 269.751 17.6505C270.263 17.6505 270.738 17.6505 271.175 17.6505C271.623 17.6505 272.007 17.6505 272.327 17.6505C272.658 17.6505 272.893 17.6505 273.031 17.6505C273.277 17.6505 273.495 17.6398 273.687 17.6185C273.879 17.5865 274.029 17.5438 274.135 17.4905L275.415 18.2905Z" fill="white"/>
<path d="M248.345 13.7944C248.601 13.8264 248.873 13.8531 249.161 13.8744C249.449 13.8851 249.721 13.8904 249.977 13.8904C250.18 13.8904 250.495 13.8904 250.921 13.8904C251.359 13.8904 251.849 13.8904 252.393 13.8904C252.948 13.8904 253.497 13.8904 254.041 13.8904C254.596 13.8904 255.087 13.8904 255.513 13.8904C255.94 13.8904 256.244 13.8904 256.425 13.8904C256.681 13.8904 256.953 13.8851 257.241 13.8744C257.54 13.8531 257.823 13.8264 258.089 13.7944V15.6504C257.823 15.6291 257.545 15.6131 257.257 15.6024C256.969 15.5918 256.692 15.5864 256.425 15.5864C256.244 15.5864 255.94 15.5864 255.513 15.5864C255.087 15.5864 254.596 15.5864 254.041 15.5864C253.497 15.5864 252.953 15.5864 252.409 15.5864C251.865 15.5864 251.375 15.5864 250.937 15.5864C250.5 15.5864 250.185 15.5864 249.993 15.5864C249.727 15.5864 249.444 15.5918 249.145 15.6024C248.847 15.6131 248.58 15.6291 248.345 15.6504V13.7944ZM246.473 17.8584C246.708 17.8798 246.953 17.9011 247.209 17.9224C247.465 17.9438 247.716 17.9544 247.961 17.9544C248.1 17.9544 248.377 17.9544 248.793 17.9544C249.209 17.9544 249.711 17.9544 250.297 17.9544C250.895 17.9544 251.529 17.9544 252.201 17.9544C252.884 17.9544 253.561 17.9544 254.233 17.9544C254.916 17.9544 255.551 17.9544 256.137 17.9544C256.724 17.9544 257.22 17.9544 257.625 17.9544C258.041 17.9544 258.313 17.9544 258.441 17.9544C258.612 17.9544 258.836 17.9491 259.113 17.9384C259.391 17.9171 259.636 17.8904 259.849 17.8584V19.7304C259.657 19.7091 259.428 19.6984 259.161 19.6984C258.905 19.6878 258.665 19.6824 258.441 19.6824C258.313 19.6824 258.041 19.6824 257.625 19.6824C257.22 19.6824 256.724 19.6824 256.137 19.6824C255.551 19.6824 254.916 19.6824 254.233 19.6824C253.561 19.6824 252.884 19.6824 252.201 19.6824C251.529 19.6824 250.895 19.6824 250.297 19.6824C249.711 19.6824 249.209 19.6824 248.793 19.6824C248.377 19.6824 248.1 19.6824 247.961 19.6824C247.727 19.6824 247.476 19.6878 247.209 19.6984C246.943 19.7091 246.697 19.7251 246.473 19.7464V17.8584ZM254.473 18.8344C254.473 19.8691 254.388 20.8024 254.217 21.6344C254.047 22.4558 253.791 23.2024 253.449 23.8744C253.257 24.2371 253.001 24.6051 252.681 24.9784C252.361 25.3518 251.993 25.7038 251.577 26.0344C251.172 26.3758 250.729 26.6638 250.249 26.8984L248.569 25.6824C249.145 25.4478 249.7 25.1224 250.233 24.7064C250.767 24.2798 251.188 23.8264 251.497 23.3464C251.903 22.7278 252.169 22.0398 252.297 21.2824C252.425 20.5251 252.495 19.7144 252.505 18.8504L254.473 18.8344Z" fill="white"/>
<path d="M241.783 13.6025C241.773 13.8159 241.762 14.0505 241.751 14.3065C241.741 14.5625 241.735 14.8399 241.735 15.1385C241.735 15.3945 241.735 15.7145 241.735 16.0985C241.735 16.4719 241.735 16.8452 241.735 17.2185C241.735 17.5919 241.735 17.9012 241.735 18.1465C241.735 19.0319 241.693 19.7999 241.607 20.4505C241.533 21.0905 241.421 21.6505 241.271 22.1305C241.122 22.6105 240.93 23.0372 240.695 23.4105C240.471 23.7732 240.21 24.1199 239.911 24.4505C239.57 24.8452 239.17 25.1972 238.711 25.5065C238.263 25.8052 237.805 26.0559 237.335 26.2585C236.877 26.4719 236.45 26.6425 236.055 26.7705L234.567 25.1865C235.346 25.0052 236.055 24.7545 236.695 24.4345C237.346 24.1039 237.917 23.6719 238.407 23.1385C238.685 22.8292 238.909 22.5145 239.079 22.1945C239.261 21.8745 239.394 21.5172 239.479 21.1225C239.575 20.7279 239.639 20.2799 239.671 19.7785C239.703 19.2772 239.719 18.6959 239.719 18.0345C239.719 17.7785 239.719 17.4692 239.719 17.1065C239.719 16.7332 239.719 16.3705 239.719 16.0185C239.719 15.6559 239.719 15.3625 239.719 15.1385C239.719 14.8399 239.709 14.5625 239.687 14.3065C239.677 14.0505 239.655 13.8159 239.623 13.6025H241.783ZM234.375 13.7305C234.365 13.9119 234.349 14.0985 234.327 14.2905C234.317 14.4825 234.311 14.6959 234.311 14.9305C234.311 15.0372 234.311 15.2239 234.311 15.4905C234.311 15.7572 234.311 16.0719 234.311 16.4345C234.311 16.7865 234.311 17.1599 234.311 17.5545C234.311 17.9492 234.311 18.3332 234.311 18.7065C234.311 19.0692 234.311 19.3945 234.311 19.6825C234.311 19.9705 234.311 20.1839 234.311 20.3225C234.311 20.5252 234.317 20.7545 234.327 21.0105C234.349 21.2665 234.365 21.4852 234.375 21.6665H232.279C232.301 21.5279 232.317 21.3305 232.327 21.0745C232.349 20.8079 232.359 20.5519 232.359 20.3065C232.359 20.1679 232.359 19.9599 232.359 19.6825C232.359 19.3945 232.359 19.0639 232.359 18.6905C232.359 18.3172 232.359 17.9385 232.359 17.5545C232.359 17.1599 232.359 16.7865 232.359 16.4345C232.359 16.0719 232.359 15.7572 232.359 15.4905C232.359 15.2239 232.359 15.0372 232.359 14.9305C232.359 14.7919 232.354 14.6052 232.343 14.3705C232.333 14.1252 232.317 13.9119 232.295 13.7305H234.375Z" fill="white"/>
<path d="M216.777 17.8424H224.313V19.3304H216.777V17.8424ZM213.961 21.4424H228.233V23.0264H213.961V21.4424ZM220.201 20.3704H221.961V25.4424C221.961 25.9011 221.892 26.2531 221.753 26.4984C221.625 26.7544 221.38 26.9464 221.017 27.0744C220.665 27.1917 220.239 27.2664 219.737 27.2984C219.236 27.3304 218.633 27.3464 217.929 27.3464C217.876 27.1011 217.78 26.8184 217.641 26.4984C217.503 26.1784 217.364 25.9064 217.225 25.6824C217.577 25.6931 217.929 25.7037 218.281 25.7144C218.644 25.7144 218.959 25.7144 219.225 25.7144C219.492 25.7144 219.679 25.7144 219.785 25.7144C219.945 25.7037 220.052 25.6771 220.105 25.6344C220.169 25.5917 220.201 25.5117 220.201 25.3944V20.3704ZM223.753 17.8424H224.185L224.553 17.7464L225.641 18.5784C225.279 18.9624 224.863 19.3464 224.393 19.7304C223.924 20.1144 223.433 20.4771 222.921 20.8184C222.409 21.1491 221.892 21.4371 221.369 21.6824C221.263 21.5331 221.113 21.3624 220.921 21.1704C220.74 20.9677 220.585 20.8077 220.457 20.6904C220.873 20.4771 221.295 20.2264 221.721 19.9384C222.148 19.6397 222.537 19.3357 222.889 19.0264C223.252 18.7171 223.54 18.4291 223.753 18.1624V17.8424ZM214.201 14.9624H228.025V18.7864H226.329V16.4824H215.817V18.7864H214.201V14.9624ZM225.369 12.4984L227.225 13.0584C226.863 13.5811 226.484 14.0931 226.089 14.5944C225.695 15.0957 225.332 15.5224 225.001 15.8744L223.609 15.3464C223.823 15.0904 224.036 14.7971 224.249 14.4664C224.473 14.1357 224.681 13.7997 224.873 13.4584C225.076 13.1064 225.241 12.7864 225.369 12.4984ZM215.273 13.2184L216.729 12.5624C217.028 12.8824 217.316 13.2397 217.593 13.6344C217.881 14.0291 218.089 14.3811 218.217 14.6904L216.665 15.4264C216.548 15.1171 216.356 14.7597 216.089 14.3544C215.823 13.9384 215.551 13.5597 215.273 13.2184ZM219.321 12.8664L220.841 12.3064C221.097 12.6584 221.343 13.0584 221.577 13.5064C221.823 13.9544 221.999 14.3384 222.105 14.6584L220.489 15.2984C220.404 14.9677 220.249 14.5731 220.025 14.1144C219.801 13.6557 219.567 13.2397 219.321 12.8664Z" fill="white"/>
<path d="M200.136 13.8264H201.816V27.3144H200.136V13.8264ZM197.64 16.8984H203.992V18.4984H197.64V16.8984ZM200.232 17.5224L201.256 17.9704C201.096 18.5464 200.904 19.1437 200.68 19.7624C200.467 20.3704 200.227 20.9784 199.96 21.5864C199.704 22.1837 199.427 22.749 199.128 23.2824C198.84 23.805 198.542 24.2584 198.232 24.6424C198.158 24.397 198.035 24.1197 197.864 23.8104C197.704 23.4904 197.555 23.2237 197.416 23.0104C197.704 22.6904 197.987 22.3117 198.264 21.8744C198.542 21.437 198.803 20.973 199.048 20.4824C199.304 19.981 199.534 19.4797 199.736 18.9784C199.939 18.4664 200.104 17.981 200.232 17.5224ZM202.92 12.5464L203.896 13.9544C203.363 14.1464 202.776 14.3224 202.136 14.4824C201.496 14.6424 200.84 14.781 200.168 14.8984C199.496 15.0157 198.851 15.1117 198.232 15.1864C198.2 14.9944 198.136 14.7704 198.04 14.5144C197.944 14.2584 197.854 14.0397 197.768 13.8584C198.376 13.7624 198.99 13.6504 199.608 13.5224C200.238 13.3837 200.84 13.2344 201.416 13.0744C201.992 12.9037 202.494 12.7277 202.92 12.5464ZM201.752 18.6104C201.859 18.717 202.014 18.8824 202.216 19.1064C202.419 19.3304 202.638 19.581 202.872 19.8584C203.107 20.125 203.32 20.381 203.512 20.6264C203.715 20.861 203.859 21.0264 203.944 21.1224L202.936 22.4664C202.84 22.2637 202.707 22.0184 202.536 21.7304C202.376 21.4424 202.2 21.1437 202.008 20.8344C201.816 20.525 201.63 20.237 201.448 19.9704C201.278 19.693 201.128 19.469 201 19.2984L201.752 18.6104ZM208.984 12.3704H210.68V27.2984H208.984V12.3704ZM203.752 22.7224L212.36 21.2664L212.616 22.8824L204.008 24.3704L203.752 22.7224ZM204.856 14.3704L205.976 13.3944C206.275 13.6077 206.584 13.8477 206.904 14.1144C207.235 14.381 207.539 14.653 207.816 14.9304C208.104 15.197 208.334 15.4424 208.504 15.6664L207.304 16.7544C207.144 16.5197 206.931 16.2637 206.664 15.9864C206.398 15.6984 206.104 15.4157 205.784 15.1384C205.475 14.8504 205.166 14.5944 204.856 14.3704ZM204.264 18.5624L205.352 17.5864C205.672 17.7997 206.003 18.045 206.344 18.3224C206.696 18.589 207.022 18.861 207.32 19.1384C207.63 19.4157 207.875 19.6664 208.056 19.8904L206.888 21.0104C206.718 20.765 206.483 20.4984 206.184 20.2104C205.896 19.9224 205.582 19.6344 205.24 19.3464C204.899 19.0584 204.574 18.797 204.264 18.5624Z" fill="white"/>
<path d="M499 0H352C347.582 0 344 3.58172 344 8V30C344 34.4183 347.582 38 352 38H499C503.418 38 507 34.4183 507 30V8C507 3.58172 503.418 0 499 0Z" fill="#28AFE7"/>
<path d="M468.651 19.9201C468.651 21.0294 468.513 22.0534 468.235 22.9921C467.958 23.9308 467.579 24.7841 467.099 25.5521C466.619 26.3094 466.081 26.9868 465.483 27.5841L464.123 26.9601C464.678 26.3628 465.174 25.7121 465.611 25.0081C466.049 24.3041 466.39 23.5308 466.635 22.6881C466.891 21.8348 467.019 20.9121 467.019 19.9201C467.019 18.9174 466.891 17.9948 466.635 17.1521C466.39 16.3094 466.049 15.5361 465.611 14.8321C465.174 14.1174 464.678 13.4668 464.123 12.8801L465.483 12.2561C466.081 12.8428 466.619 13.5201 467.099 14.2881C467.579 15.0561 467.958 15.9094 468.235 16.8481C468.513 17.7868 468.651 18.8108 468.651 19.9201Z" fill="white"/>
<path d="M455.34 14.096C454.903 14.7147 454.348 15.3547 453.676 16.016C453.004 16.6667 452.258 17.296 451.436 17.904C450.626 18.5013 449.778 19.0347 448.892 19.504C448.818 19.3653 448.722 19.2107 448.604 19.04C448.487 18.8693 448.359 18.704 448.22 18.544C448.082 18.3733 447.948 18.2293 447.82 18.112C448.748 17.664 449.634 17.12 450.476 16.48C451.319 15.84 452.076 15.168 452.748 14.464C453.431 13.7493 453.97 13.0667 454.364 12.416H456.156C456.583 13.0027 457.063 13.5733 457.596 14.128C458.13 14.6827 458.695 15.2 459.292 15.68C459.89 16.1493 460.503 16.576 461.132 16.96C461.772 17.344 462.407 17.664 463.036 17.92C462.834 18.1333 462.631 18.3787 462.428 18.656C462.236 18.9333 462.066 19.2 461.916 19.456C461.298 19.136 460.674 18.768 460.044 18.352C459.426 17.936 458.823 17.488 458.236 17.008C457.65 16.528 457.106 16.0427 456.604 15.552C456.114 15.0613 455.692 14.576 455.34 14.096ZM451.356 17.264H459.404V18.784H451.356V17.264ZM449.388 20.528H461.34V22.016H449.388V20.528ZM448.604 25.44H462.22V26.912H448.604V25.44ZM454.412 17.872H456.236V26.192H454.412V17.872ZM450.492 22.672L451.868 22.112C452.082 22.3787 452.284 22.6773 452.476 23.008C452.679 23.3387 452.86 23.664 453.02 23.984C453.18 24.2933 453.298 24.576 453.372 24.832L451.884 25.488C451.82 25.232 451.714 24.9387 451.564 24.608C451.426 24.2773 451.26 23.9467 451.068 23.616C450.876 23.2747 450.684 22.96 450.492 22.672ZM458.684 22.112L460.316 22.72C460.007 23.2107 459.682 23.7067 459.34 24.208C458.999 24.7093 458.679 25.136 458.38 25.488L457.1 24.944C457.282 24.688 457.468 24.3947 457.66 24.064C457.863 23.7333 458.055 23.3973 458.236 23.056C458.418 22.7147 458.567 22.4 458.684 22.112Z" fill="white"/>
<path d="M438.269 13.072C438.258 13.1574 438.242 13.28 438.221 13.44C438.21 13.6 438.194 13.7654 438.173 13.936C438.162 14.096 438.152 14.24 438.141 14.368C438.12 14.6667 438.098 15.0027 438.077 15.376C438.066 15.7494 438.056 16.144 438.045 16.56C438.034 16.976 438.024 17.392 438.013 17.808C438.013 18.224 438.013 18.6294 438.013 19.024C438.013 19.4507 438.013 19.9254 438.013 20.448C438.024 20.96 438.034 21.472 438.045 21.984C438.066 22.496 438.082 22.9654 438.093 23.392C438.104 23.808 438.109 24.1387 438.109 24.384C438.109 24.992 438.034 25.4667 437.885 25.808C437.746 26.1494 437.554 26.3894 437.309 26.528C437.064 26.6667 436.776 26.736 436.445 26.736C436.082 26.736 435.688 26.656 435.261 26.496C434.845 26.3467 434.45 26.1387 434.077 25.872C433.704 25.6054 433.394 25.296 433.149 24.944C432.914 24.5814 432.797 24.2027 432.797 23.808C432.797 23.296 432.989 22.7947 433.373 22.304C433.768 21.8134 434.28 21.36 434.909 20.944C435.538 20.5174 436.21 20.176 436.925 19.92C437.65 19.6534 438.392 19.456 439.149 19.328C439.906 19.2 440.589 19.136 441.197 19.136C442.008 19.136 442.733 19.2747 443.373 19.552C444.024 19.8187 444.541 20.208 444.925 20.72C445.309 21.2214 445.501 21.8294 445.501 22.544C445.501 23.1734 445.379 23.744 445.133 24.256C444.888 24.768 444.509 25.2054 443.997 25.568C443.485 25.9307 442.818 26.2134 441.997 26.416C441.634 26.4907 441.277 26.544 440.925 26.576C440.573 26.608 440.242 26.64 439.933 26.672L439.277 24.816C439.618 24.816 439.954 24.8107 440.285 24.8C440.616 24.7894 440.925 24.7574 441.213 24.704C441.661 24.6187 442.066 24.4854 442.429 24.304C442.802 24.1227 443.096 23.888 443.309 23.6C443.533 23.3014 443.645 22.944 443.645 22.528C443.645 22.1334 443.538 21.8027 443.325 21.536C443.112 21.2694 442.818 21.0667 442.445 20.928C442.082 20.7787 441.661 20.704 441.181 20.704C440.498 20.704 439.816 20.7787 439.133 20.928C438.45 21.0667 437.784 21.2587 437.133 21.504C436.653 21.6854 436.216 21.904 435.821 22.16C435.437 22.416 435.133 22.6774 434.909 22.944C434.685 23.2107 434.573 23.472 434.573 23.728C434.573 23.8667 434.616 24 434.701 24.128C434.797 24.256 434.914 24.368 435.053 24.464C435.202 24.56 435.352 24.64 435.501 24.704C435.661 24.7574 435.8 24.784 435.917 24.784C436.066 24.784 436.189 24.7307 436.285 24.624C436.381 24.5174 436.429 24.3307 436.429 24.064C436.429 23.776 436.424 23.36 436.413 22.816C436.402 22.272 436.386 21.6747 436.365 21.024C436.354 20.3627 436.349 19.7174 436.349 19.088C436.349 18.6294 436.349 18.1654 436.349 17.696C436.36 17.216 436.365 16.7574 436.365 16.32C436.365 15.8827 436.365 15.4987 436.365 15.168C436.376 14.8267 436.381 14.5707 436.381 14.4C436.381 14.2827 436.376 14.1387 436.365 13.968C436.354 13.7974 436.344 13.6267 436.333 13.456C436.322 13.2854 436.306 13.1574 436.285 13.072H438.269ZM442.941 14.816C443.346 15.008 443.794 15.2427 444.285 15.52C444.776 15.7974 445.245 16.0747 445.693 16.352C446.152 16.6294 446.52 16.8747 446.797 17.088L445.917 18.544C445.725 18.3734 445.469 18.1814 445.149 17.968C444.829 17.744 444.483 17.5254 444.109 17.312C443.746 17.088 443.389 16.88 443.037 16.688C442.696 16.4854 442.402 16.32 442.157 16.192L442.941 14.816ZM433.197 15.76C433.656 15.8134 434.056 15.8454 434.397 15.856C434.738 15.8667 435.058 15.872 435.357 15.872C435.762 15.872 436.216 15.856 436.717 15.824C437.218 15.7814 437.725 15.728 438.237 15.664C438.76 15.5894 439.272 15.504 439.773 15.408C440.274 15.312 440.728 15.2054 441.133 15.088L441.165 16.864C440.728 16.96 440.248 17.0507 439.725 17.136C439.202 17.2214 438.674 17.296 438.141 17.36C437.618 17.424 437.117 17.4774 436.637 17.52C436.168 17.552 435.757 17.568 435.405 17.568C434.893 17.568 434.472 17.5627 434.141 17.552C433.81 17.5414 433.506 17.52 433.229 17.488L433.197 15.76Z" fill="white"/>
<path d="M426.156 19.9201C426.156 18.8108 426.295 17.7868 426.572 16.8481C426.85 15.9094 427.228 15.0561 427.708 14.2881C428.188 13.5201 428.727 12.8428 429.324 12.2561L430.684 12.8801C430.13 13.4668 429.634 14.1174 429.196 14.8321C428.759 15.5361 428.412 16.3094 428.156 17.1521C427.911 17.9948 427.788 18.9174 427.788 19.9201C427.788 20.9121 427.911 21.8348 428.156 22.6881C428.412 23.5308 428.759 24.3041 429.196 25.0081C429.634 25.7121 430.13 26.3628 430.684 26.9601L429.324 27.5841C428.727 26.9868 428.188 26.3094 427.708 25.5521C427.228 24.7841 426.85 23.9308 426.572 22.9921C426.295 22.0534 426.156 21.0294 426.156 19.9201Z" fill="white"/>
<path d="M404.588 13.9521H414.7V15.4401H404.588V13.9521ZM406.812 20.4801H412.572V21.9201H406.812V20.4801ZM406.812 23.1361H412.604V24.5601H406.812V23.1361ZM408.732 12.4641H410.492V14.6241H408.732V12.4641ZM411.756 19.7281H413.436V27.3601H411.756V19.7281ZM411.612 14.8321L413.212 15.2801C412.69 16.1761 411.996 16.9334 411.132 17.5521C410.279 18.1601 409.308 18.6614 408.22 19.0561C407.143 19.4401 406.002 19.7548 404.796 20.0001C404.743 19.8721 404.668 19.7174 404.572 19.5361C404.487 19.3548 404.386 19.1734 404.268 18.9921C404.162 18.8108 404.066 18.6614 403.98 18.5441C405.111 18.3841 406.178 18.1548 407.18 17.8561C408.194 17.5468 409.084 17.1468 409.852 16.6561C410.631 16.1548 411.218 15.5468 411.612 14.8321ZM400.796 13.8081L401.724 12.5441C402.066 12.6828 402.418 12.8428 402.78 13.0241C403.154 13.2054 403.506 13.3974 403.836 13.6001C404.167 13.7921 404.439 13.9788 404.652 14.1601L403.66 15.5681C403.458 15.3761 403.196 15.1734 402.876 14.9601C402.556 14.7468 402.215 14.5388 401.852 14.3361C401.49 14.1228 401.138 13.9468 400.796 13.8081ZM399.9 18.1601L400.812 16.8641C401.154 16.9814 401.511 17.1308 401.884 17.3121C402.258 17.4828 402.615 17.6641 402.956 17.8561C403.298 18.0481 403.575 18.2348 403.788 18.4161L402.796 19.8401C402.604 19.6588 402.343 19.4668 402.012 19.2641C401.682 19.0614 401.33 18.8641 400.956 18.6721C400.594 18.4694 400.242 18.2988 399.9 18.1601ZM400.364 26.0961C400.631 25.6801 400.93 25.1894 401.26 24.6241C401.591 24.0588 401.927 23.4614 402.268 22.8321C402.61 22.1921 402.93 21.5628 403.228 20.9441L404.524 22.0161C404.268 22.5814 403.986 23.1628 403.676 23.7601C403.378 24.3574 403.074 24.9441 402.764 25.5201C402.466 26.0961 402.162 26.6454 401.852 27.1681L400.364 26.0961ZM405.868 19.6961H407.516V21.6481C407.516 22.0748 407.49 22.5441 407.436 23.0561C407.383 23.5574 407.276 24.0801 407.116 24.6241C406.956 25.1574 406.722 25.6748 406.412 26.1761C406.114 26.6881 405.714 27.1468 405.212 27.5521C405.106 27.4561 404.967 27.3494 404.796 27.2321C404.636 27.1148 404.471 26.9974 404.3 26.8801C404.13 26.7734 403.975 26.6881 403.836 26.6241C404.295 26.2721 404.658 25.8828 404.924 25.4561C405.191 25.0188 405.394 24.5761 405.532 24.1281C405.671 23.6694 405.762 23.2268 405.804 22.8001C405.847 22.3628 405.868 21.9681 405.868 21.6161V19.6961ZM407.244 14.7201C407.895 15.5308 408.62 16.1708 409.42 16.6401C410.22 17.1094 411.09 17.4668 412.028 17.7121C412.978 17.9574 413.986 18.1654 415.052 18.3361C414.871 18.5281 414.69 18.7681 414.508 19.0561C414.338 19.3334 414.215 19.6054 414.14 19.8721C413.02 19.6481 411.964 19.3708 410.972 19.0401C409.98 18.6988 409.052 18.2348 408.188 17.6481C407.335 17.0614 406.551 16.2828 405.836 15.3121L407.244 14.7201Z" fill="white"/>
<path d="M390.139 13.2161H397.051V14.7041H390.139V13.2161ZM390.731 21.8241H398.187V23.3281H390.731V21.8241ZM389.739 25.4241H398.875V26.9441H389.739V25.4241ZM396.555 13.2161H396.891L397.195 13.1521L398.347 13.6481C397.931 14.8961 397.339 15.9734 396.571 16.8801C395.814 17.7868 394.929 18.5494 393.915 19.1681C392.902 19.7761 391.803 20.2668 390.619 20.6401C390.513 20.4268 390.369 20.1814 390.187 19.9041C390.006 19.6161 389.835 19.3814 389.675 19.2001C390.731 18.9228 391.718 18.5228 392.635 18.0001C393.563 17.4774 394.369 16.8374 395.051 16.0801C395.734 15.3228 396.235 14.4588 396.555 13.4881V13.2161ZM392.507 14.5121C393.062 15.6641 393.91 16.6454 395.051 17.4561C396.193 18.2561 397.537 18.8268 399.083 19.1681C398.913 19.3281 398.721 19.5521 398.507 19.8401C398.305 20.1174 398.15 20.3574 398.043 20.5601C396.411 20.1228 395.003 19.4348 393.819 18.4961C392.635 17.5574 391.697 16.3948 391.003 15.0081L392.507 14.5121ZM393.547 19.7921H395.243V26.4001H393.547V19.7921ZM386.363 12.4641L387.851 13.0241C387.638 13.4188 387.414 13.8348 387.179 14.2721C386.955 14.7094 386.726 15.1254 386.491 15.5201C386.267 15.9041 386.054 16.2454 385.851 16.5441L384.699 16.0481C384.902 15.7281 385.105 15.3601 385.307 14.9441C385.51 14.5281 385.702 14.1014 385.883 13.6641C386.075 13.2268 386.235 12.8268 386.363 12.4641ZM388.187 14.3361L389.595 14.9761C389.211 15.5841 388.79 16.2241 388.331 16.8961C387.883 17.5681 387.43 18.2134 386.971 18.8321C386.523 19.4401 386.097 19.9788 385.691 20.4481L384.683 19.8881C384.982 19.5254 385.291 19.1148 385.611 18.6561C385.931 18.1974 386.246 17.7174 386.555 17.2161C386.875 16.7148 387.174 16.2188 387.451 15.7281C387.729 15.2268 387.974 14.7628 388.187 14.3361ZM383.883 16.1281L384.699 14.9761C384.987 15.2108 385.281 15.4774 385.579 15.7761C385.878 16.0748 386.15 16.3734 386.395 16.6721C386.651 16.9601 386.849 17.2214 386.987 17.4561L386.091 18.7841C385.963 18.5281 385.777 18.2454 385.531 17.9361C385.286 17.6161 385.019 17.3014 384.731 16.9921C384.443 16.6721 384.161 16.3841 383.883 16.1281ZM387.691 18.1281L388.827 17.6481C389.041 18.0001 389.243 18.3841 389.435 18.8001C389.638 19.2054 389.809 19.6001 389.947 19.9841C390.097 20.3681 390.203 20.7148 390.267 21.0241L389.051 21.5681C388.987 21.2588 388.886 20.9068 388.747 20.5121C388.609 20.1174 388.449 19.7121 388.267 19.2961C388.086 18.8694 387.894 18.4801 387.691 18.1281ZM383.851 19.5361C384.577 19.5148 385.441 19.4828 386.443 19.4401C387.446 19.3974 388.465 19.3548 389.499 19.3121L389.483 20.6721C388.513 20.7468 387.547 20.8161 386.587 20.8801C385.627 20.9441 384.763 21.0028 383.995 21.0561L383.851 19.5361ZM388.043 22.0481L389.259 21.6641C389.462 22.1121 389.659 22.6081 389.851 23.1521C390.043 23.6961 390.182 24.1708 390.267 24.5761L388.987 25.0241C388.913 24.6188 388.785 24.1388 388.603 23.5841C388.422 23.0294 388.235 22.5174 388.043 22.0481ZM384.603 21.7761L386.027 22.0321C385.942 22.8001 385.809 23.5574 385.627 24.3041C385.457 25.0401 385.254 25.6641 385.019 26.1761C384.913 26.1121 384.779 26.0428 384.619 25.9681C384.459 25.8828 384.294 25.8028 384.123 25.7281C383.963 25.6428 383.819 25.5788 383.691 25.5361C383.937 25.0561 384.129 24.4801 384.267 23.8081C384.417 23.1361 384.529 22.4588 384.603 21.7761ZM386.379 20.2721H387.883V27.4081H386.379V20.2721Z" fill="white"/>
<path d="M671 0H524C519.582 0 516 3.58172 516 8V30C516 34.4183 519.582 38 524 38H671C675.418 38 679 34.4183 679 30V8C679 3.58172 675.418 0 671 0Z" fill="#AA68AA"/>
<path d="M644.398 21.4401H651.358V27.3281H649.678V22.9921H646.014V27.3921H644.398V21.4401ZM644.046 15.6961H650.974V19.7921H649.326V17.1681H644.046V15.6961ZM646.094 13.5521L647.774 13.6801C647.689 14.3521 647.582 15.0614 647.454 15.8081C647.337 16.5548 647.214 17.2801 647.086 17.9841C646.969 18.6774 646.851 19.2801 646.734 19.7921H645.07C645.166 19.3974 645.257 18.9441 645.342 18.4321C645.438 17.9201 645.534 17.3814 645.63 16.8161C645.726 16.2508 645.811 15.6908 645.886 15.1361C645.971 14.5708 646.041 14.0428 646.094 13.5521ZM643.79 12.9441H651.806V14.4161H643.79V12.9441ZM643.23 18.9921H652.366V20.4961H643.23V18.9921ZM645.054 25.2001H650.638V26.7361H645.054V25.2001ZM638.11 17.4401H642.702V18.7521H638.11V17.4401ZM638.206 12.9761H642.718V14.2721H638.206V12.9761ZM638.11 19.6641H642.702V20.9761H638.11V19.6641ZM637.342 15.1681H643.278V16.5281H637.342V15.1681ZM638.91 21.9201H642.814V26.7201H638.91V25.3601H641.326V23.2801H638.91V21.9201ZM638.078 21.9201H639.534V27.3761H638.078V21.9201Z" fill="white"/>
<path d="M621.647 21.376H636.015V22.976H621.647V21.376ZM623.231 17.68H634.543V22.064H632.799V19.168H624.879V22.064H623.231V17.68ZM627.871 16H629.663V20.656C629.663 21.2213 629.604 21.776 629.487 22.32C629.37 22.8533 629.156 23.3707 628.847 23.872C628.548 24.3627 628.122 24.8267 627.567 25.264C627.023 25.7013 626.324 26.1013 625.471 26.464C624.628 26.8267 623.599 27.1467 622.383 27.424C622.319 27.296 622.223 27.1413 622.095 26.96C621.978 26.7787 621.85 26.5973 621.711 26.416C621.583 26.2453 621.45 26.096 621.311 25.968C622.463 25.744 623.428 25.488 624.207 25.2C624.986 24.9013 625.615 24.5813 626.095 24.24C626.586 23.888 626.959 23.52 627.215 23.136C627.471 22.7413 627.642 22.336 627.727 21.92C627.823 21.4933 627.871 21.0667 627.871 20.64V16ZM629.711 22C630.234 23.1093 631.05 23.9787 632.159 24.608C633.279 25.2373 634.703 25.648 636.431 25.84C636.303 25.968 636.17 26.1227 636.031 26.304C635.892 26.496 635.764 26.688 635.647 26.88C635.53 27.0827 635.434 27.264 635.359 27.424C634.132 27.2107 633.06 26.8907 632.143 26.464C631.226 26.048 630.442 25.4987 629.791 24.816C629.151 24.1333 628.612 23.312 628.175 22.352L629.711 22ZM621.823 13.76H635.807V15.296H621.823V13.76ZM625.023 12.448H626.719V16.8H625.023V12.448ZM630.863 12.448H632.575V16.8H630.863V12.448Z" fill="white"/>
<path d="M612.974 25.648C613.006 25.4986 613.033 25.328 613.054 25.136C613.075 24.944 613.086 24.752 613.086 24.56C613.086 24.4426 613.086 24.208 613.086 23.856C613.086 23.4933 613.086 23.0613 613.086 22.56C613.086 22.048 613.086 21.4933 613.086 20.896C613.086 20.2986 613.086 19.7013 613.086 19.104C613.086 18.496 613.086 17.9306 613.086 17.408C613.086 16.8746 613.086 16.4106 613.086 16.016C613.086 15.6106 613.086 15.3226 613.086 15.152C613.086 14.8106 613.07 14.5173 613.038 14.272C613.006 14.016 612.985 13.8666 612.974 13.824H615.102C615.102 13.8666 615.086 14.016 615.054 14.272C615.022 14.5173 615.006 14.816 615.006 15.168C615.006 15.3386 615.006 15.6053 615.006 15.968C615.006 16.3306 615.006 16.7573 615.006 17.248C615.006 17.728 615.006 18.2453 615.006 18.8C615.006 19.344 615.006 19.8826 615.006 20.416C615.006 20.9493 615.006 21.4506 615.006 21.92C615.006 22.3786 615.006 22.7733 615.006 23.104C615.006 23.424 615.006 23.648 615.006 23.776C615.465 23.5733 615.939 23.3013 616.43 22.96C616.931 22.608 617.417 22.2026 617.886 21.744C618.366 21.2746 618.793 20.7733 619.166 20.24L620.254 21.808C619.806 22.3946 619.273 22.9706 618.654 23.536C618.035 24.0906 617.395 24.5973 616.734 25.056C616.073 25.504 615.433 25.8826 614.814 26.192C614.654 26.288 614.521 26.3733 614.414 26.448C614.318 26.5226 614.238 26.5866 614.174 26.64L612.974 25.648ZM605.582 25.456C606.275 24.9653 606.846 24.3786 607.294 23.696C607.753 23.0026 608.094 22.304 608.318 21.6C608.435 21.248 608.526 20.8106 608.59 20.288C608.654 19.7653 608.702 19.2053 608.734 18.608C608.766 18.0106 608.782 17.4186 608.782 16.832C608.793 16.2453 608.798 15.7173 608.798 15.248C608.798 14.9493 608.782 14.6933 608.75 14.48C608.729 14.256 608.697 14.048 608.654 13.856H610.766C610.755 13.888 610.739 13.9786 610.718 14.128C610.707 14.2666 610.691 14.432 610.67 14.624C610.659 14.816 610.654 15.0133 610.654 15.216C610.654 15.6853 610.649 16.2293 610.638 16.848C610.627 17.4666 610.606 18.1013 610.574 18.752C610.542 19.4026 610.494 20.0213 610.43 20.608C610.377 21.184 610.291 21.6746 610.174 22.08C609.939 22.9653 609.577 23.7973 609.086 24.576C608.595 25.344 608.009 26.0266 607.326 26.624L605.582 25.456Z" fill="white"/>
<path d="M601.245 13.328C601.384 13.5094 601.528 13.7334 601.677 14C601.837 14.2667 601.992 14.5334 602.141 14.8C602.29 15.0667 602.418 15.3067 602.525 15.52L601.357 16.016C601.197 15.6854 601 15.312 600.765 14.896C600.53 14.4694 600.306 14.1014 600.093 13.792L601.245 13.328ZM603.101 12.624C603.24 12.816 603.389 13.0507 603.549 13.328C603.72 13.5947 603.88 13.8614 604.029 14.128C604.189 14.384 604.312 14.608 604.397 14.8L603.245 15.296C603.074 14.9547 602.872 14.5814 602.637 14.176C602.402 13.76 602.173 13.4027 601.949 13.104L603.101 12.624ZM592.013 21.072C592.194 20.6347 592.365 20.1707 592.525 19.68C592.696 19.1787 592.845 18.6667 592.973 18.144C593.112 17.6107 593.229 17.0827 593.325 16.56C593.432 16.0374 593.506 15.5254 593.549 15.024L595.629 15.456C595.597 15.6054 595.554 15.7707 595.501 15.952C595.448 16.1334 595.4 16.3147 595.357 16.496C595.325 16.6667 595.298 16.816 595.277 16.944C595.224 17.2107 595.149 17.5414 595.053 17.936C594.957 18.3307 594.845 18.752 594.717 19.2C594.589 19.648 594.456 20.1014 594.317 20.56C594.178 21.008 594.034 21.424 593.885 21.808C593.693 22.3094 593.469 22.832 593.213 23.376C592.957 23.92 592.68 24.448 592.381 24.96C592.093 25.4614 591.81 25.9147 591.533 26.32L589.533 25.488C590.034 24.8267 590.504 24.1014 590.941 23.312C591.389 22.512 591.746 21.7654 592.013 21.072ZM599.917 20.656C599.757 20.24 599.576 19.7974 599.373 19.328C599.181 18.848 598.978 18.368 598.765 17.888C598.562 17.408 598.36 16.96 598.157 16.544C597.954 16.1174 597.768 15.7547 597.597 15.456L599.485 14.832C599.645 15.1307 599.826 15.4987 600.029 15.936C600.242 16.3627 600.456 16.816 600.669 17.296C600.893 17.776 601.106 18.256 601.309 18.736C601.512 19.2054 601.688 19.6374 601.837 20.032C601.986 20.3947 602.146 20.816 602.317 21.296C602.488 21.776 602.658 22.272 602.829 22.784C603.01 23.296 603.176 23.7974 603.325 24.288C603.485 24.768 603.618 25.2 603.725 25.584L601.613 26.256C601.474 25.648 601.314 25.024 601.133 24.384C600.952 23.744 600.754 23.104 600.541 22.464C600.338 21.824 600.13 21.2214 599.917 20.656Z" fill="white"/>
<path d="M574.506 18.72C574.688 18.7306 574.917 18.7466 575.194 18.768C575.482 18.7893 575.781 18.8053 576.09 18.816C576.4 18.816 576.693 18.816 576.97 18.816C577.216 18.816 577.53 18.816 577.914 18.816C578.298 18.816 578.725 18.816 579.194 18.816C579.664 18.816 580.149 18.816 580.65 18.816C581.162 18.816 581.669 18.816 582.17 18.816C582.682 18.816 583.162 18.816 583.61 18.816C584.058 18.816 584.453 18.816 584.794 18.816C585.146 18.816 585.424 18.816 585.626 18.816C586.01 18.816 586.357 18.8053 586.666 18.784C586.986 18.752 587.248 18.7306 587.45 18.72V20.976C587.269 20.9653 587.002 20.9493 586.65 20.928C586.309 20.9066 585.968 20.896 585.626 20.896C585.434 20.896 585.162 20.896 584.81 20.896C584.458 20.896 584.053 20.896 583.594 20.896C583.146 20.896 582.672 20.896 582.17 20.896C581.669 20.896 581.162 20.896 580.65 20.896C580.149 20.896 579.664 20.896 579.194 20.896C578.725 20.896 578.298 20.896 577.914 20.896C577.53 20.896 577.216 20.896 576.97 20.896C576.522 20.896 576.069 20.9066 575.61 20.928C575.162 20.9386 574.794 20.9546 574.506 20.976V18.72Z" fill="white"/>
<path d="M559.098 14.752C559.418 14.7626 559.712 14.7733 559.978 14.784C560.256 14.784 560.501 14.784 560.714 14.784C560.864 14.784 561.114 14.784 561.466 14.784C561.829 14.784 562.25 14.784 562.73 14.784C563.21 14.784 563.722 14.784 564.266 14.784C564.821 14.784 565.37 14.784 565.914 14.784C566.469 14.784 566.981 14.784 567.45 14.784C567.93 14.784 568.346 14.784 568.698 14.784C569.05 14.784 569.301 14.784 569.45 14.784C569.642 14.784 569.877 14.784 570.154 14.784C570.432 14.784 570.709 14.7786 570.986 14.768C570.976 14.992 570.965 15.2373 570.954 15.504C570.954 15.76 570.954 16.0053 570.954 16.24C570.954 16.368 570.954 16.592 570.954 16.912C570.954 17.2213 570.954 17.5946 570.954 18.032C570.954 18.4693 570.954 18.9386 570.954 19.44C570.954 19.9306 570.954 20.4266 570.954 20.928C570.954 21.4186 570.954 21.8826 570.954 22.32C570.954 22.7573 570.954 23.1306 570.954 23.44C570.954 23.7493 570.954 23.9626 570.954 24.08C570.954 24.2293 570.954 24.4213 570.954 24.656C570.965 24.88 570.97 25.1093 570.97 25.344C570.97 25.568 570.97 25.7653 570.97 25.936C570.981 26.1066 570.986 26.2026 570.986 26.224H569.002C569.013 26.192 569.018 26.064 569.018 25.84C569.018 25.6053 569.024 25.3386 569.034 25.04C569.045 24.7306 569.05 24.4373 569.05 24.16C569.05 24.0426 569.05 23.8186 569.05 23.488C569.05 23.1573 569.05 22.7626 569.05 22.304C569.05 21.8453 569.05 21.36 569.05 20.848C569.05 20.3253 569.05 19.8133 569.05 19.312C569.05 18.8106 569.05 18.3573 569.05 17.952C569.05 17.5466 569.05 17.2213 569.05 16.976C569.05 16.7306 569.05 16.608 569.05 16.608H561.034C561.034 16.608 561.034 16.7306 561.034 16.976C561.034 17.2106 561.034 17.536 561.034 17.952C561.034 18.3573 561.034 18.8106 561.034 19.312C561.034 19.8026 561.034 20.3093 561.034 20.832C561.034 21.344 561.034 21.8293 561.034 22.288C561.034 22.7466 561.034 23.1413 561.034 23.472C561.034 23.8026 561.034 24.032 561.034 24.16C561.034 24.3413 561.034 24.544 561.034 24.768C561.034 24.992 561.034 25.2106 561.034 25.424C561.045 25.6266 561.05 25.8026 561.05 25.952C561.05 26.1013 561.05 26.192 561.05 26.224H559.082C559.082 26.192 559.082 26.1013 559.082 25.952C559.093 25.792 559.098 25.6 559.098 25.376C559.109 25.1413 559.114 24.912 559.114 24.688C559.114 24.4533 559.114 24.2453 559.114 24.064C559.114 23.9466 559.114 23.7333 559.114 23.424C559.114 23.104 559.114 22.7253 559.114 22.288C559.114 21.8506 559.114 21.3813 559.114 20.88C559.114 20.3786 559.114 19.8826 559.114 19.392C559.114 18.8906 559.114 18.4266 559.114 18C559.114 17.5626 559.114 17.1893 559.114 16.88C559.114 16.5706 559.114 16.3573 559.114 16.24C559.114 16.016 559.114 15.7706 559.114 15.504C559.114 15.2266 559.109 14.976 559.098 14.752ZM569.77 23.52V25.344H560.074V23.52H569.77Z" fill="white"/>
<path d="M553.385 12.976C553.524 13.168 553.668 13.3973 553.817 13.664C553.977 13.9306 554.132 14.1973 554.281 14.464C554.431 14.7306 554.559 14.9653 554.665 15.168L553.497 15.68C553.337 15.3493 553.14 14.976 552.905 14.56C552.671 14.1333 552.447 13.7653 552.233 13.456L553.385 12.976ZM555.241 12.272C555.38 12.4746 555.529 12.7093 555.689 12.976C555.86 13.2426 556.02 13.5093 556.169 13.776C556.329 14.032 556.457 14.256 556.553 14.448L555.385 14.96C555.225 14.6186 555.023 14.24 554.777 13.824C554.543 13.408 554.313 13.0506 554.089 12.752L555.241 12.272ZM554.713 16.4C554.628 16.5386 554.543 16.7093 554.457 16.912C554.372 17.104 554.297 17.2906 554.233 17.472C554.095 17.9626 553.897 18.512 553.641 19.12C553.385 19.728 553.071 20.3573 552.697 21.008C552.335 21.648 551.913 22.2666 551.433 22.864C550.676 23.7706 549.791 24.5973 548.777 25.344C547.764 26.08 546.505 26.7413 545.001 27.328L543.305 25.824C544.372 25.504 545.295 25.1413 546.073 24.736C546.863 24.32 547.556 23.8666 548.153 23.376C548.751 22.8853 549.284 22.3733 549.753 21.84C550.127 21.4026 550.473 20.912 550.793 20.368C551.113 19.824 551.385 19.2853 551.609 18.752C551.844 18.208 552.004 17.728 552.089 17.312H546.553L547.225 15.68C547.364 15.68 547.593 15.68 547.913 15.68C548.244 15.68 548.617 15.68 549.033 15.68C549.449 15.68 549.86 15.68 550.265 15.68C550.671 15.68 551.023 15.68 551.321 15.68C551.631 15.68 551.839 15.68 551.945 15.68C552.191 15.68 552.425 15.664 552.649 15.632C552.884 15.6 553.081 15.5573 553.241 15.504L554.713 16.4ZM549.465 13.904C549.284 14.1706 549.108 14.4533 548.937 14.752C548.777 15.04 548.649 15.264 548.553 15.424C548.212 16.0533 547.78 16.7146 547.257 17.408C546.745 18.0906 546.153 18.7573 545.481 19.408C544.82 20.0586 544.095 20.6506 543.305 21.184L541.689 20C542.393 19.584 543.012 19.1466 543.545 18.688C544.089 18.2186 544.559 17.7493 544.953 17.28C545.359 16.8106 545.7 16.3626 545.977 15.936C546.265 15.5093 546.505 15.1253 546.697 14.784C546.815 14.6026 546.937 14.3626 547.065 14.064C547.204 13.7546 547.305 13.472 547.369 13.216L549.465 13.904Z" fill="white"/>
</g>
<defs>
<clipPath id="clip0_272_65132">
<rect width="679" height="38" fill="white"/>
</clipPath>
</defs>
</svg>
