<svg width="67" height="67" viewBox="0 0 67 67" fill="none" xmlns="http://www.w3.org/2000/svg">
<g clip-path="url(#clip0_40_1669)">
<path d="M3 57.5L7.5 67H65.5L63 50L41.5 44L34 33.5L27.5 28.5L16 29L7.5 32.5L5 37L3 57.5Z" fill="white"/>
<g clip-path="url(#clip1_40_1669)">
<path d="M49.3887 60.0836C49.1227 60.4934 48.6889 60.9117 48.3142 61.2777C48.2197 61.368 48.1281 61.4606 48.0305 61.5435C47.9148 61.6403 47.8796 61.6426 47.7195 61.643C47.4048 61.6434 47.1079 61.6681 46.7998 61.7292C45.4926 61.9887 42.3469 65.5246 41.4995 66.5C41.0581 67.0079 41.8676 67.6778 42.3116 67.1671C43.0909 66.2701 46.241 62.7186 47.4908 62.659C47.8534 62.6427 48.2004 62.6783 48.5207 62.4738C48.7682 62.3174 48.9811 62.0894 49.1876 61.8873C49.6132 61.4695 50.0373 61.0289 50.3601 60.5339C50.5129 60.2997 50.3662 59.9681 50.1197 59.852C49.8398 59.7227 49.5467 59.8465 49.3914 60.0834L49.3887 60.0836Z" fill="#211715"/>
<path d="M53.07 62.9756C52.4183 63.2988 51.8092 63.6905 51.2086 64.0893C50.9096 64.2873 50.6503 64.47 50.4471 64.7635C50.2563 65.0385 50.0738 65.3154 49.8713 65.5784C49.4789 66.0882 49.0553 66.6179 48.5424 67.0287C48.3001 67.223 48.0339 67.3832 47.7408 67.5069C47.4135 67.6457 47.1106 67.7854 46.8698 68.0433C46.4058 68.5374 47.2177 69.202 47.6819 68.7104C47.8568 68.5231 48.1371 68.4536 48.3687 68.3441C48.6925 68.1929 48.9787 68.0059 49.2515 67.7815C49.7716 67.355 50.2106 66.8523 50.6158 66.3314C50.8235 66.0656 51.0224 65.7901 51.2131 65.5127C51.2874 65.4059 51.3495 65.277 51.4438 65.1842C51.5483 65.083 51.6899 65.0075 51.8122 64.9281C52.4128 64.5293 53.0219 64.1376 53.6736 63.8144C53.9338 63.6852 53.9718 63.3159 53.8223 63.1068C53.6431 62.8588 53.3327 62.8437 53.0699 62.9731L53.07 62.9756Z" fill="#211715"/>
<path d="M40.8418 67.9193C41.3616 68.2695 41.8232 68.6847 42.358 69.0161C42.9212 69.3661 43.542 69.6027 44.1817 69.7973C44.7853 69.979 45.4251 70.1736 46.0665 70.065C46.4798 69.9944 46.8904 69.8018 47.0914 69.4345C47.3212 69.0093 47.1782 68.5297 46.9439 68.1453C46.7979 67.9079 46.4234 67.8665 46.1914 68.0117C45.9337 68.1764 45.8968 68.4819 46.0428 68.7193C46.1401 68.8784 46.1823 68.9826 45.9965 69.0458C45.8159 69.1061 45.6008 69.0949 45.4142 69.0639C44.9614 68.9868 44.4574 68.8342 44.0849 68.7009C43.6209 68.538 43.1251 68.3033 42.7665 68.0519C42.354 67.7634 41.9769 67.4368 41.5594 67.1562C41.3236 66.996 41.0026 66.9841 40.7948 67.2067C40.6148 67.3994 40.6036 67.7643 40.8422 67.9243L40.8418 67.9193Z" fill="#211715"/>
</g>
<g clip-path="url(#clip2_40_1669)">
<path d="M26.2466 27.9471C26.2466 27.9471 25.7375 34.0421 18.5365 34.0421C12.5212 34.0421 12.6885 29.8528 12.6885 29.8528C13.4313 29.4997 14.1531 29.108 14.8541 28.6814C14.9168 28.6429 14.9831 28.601 15.0215 28.538C15.0738 28.4576 15.0738 28.3562 15.0738 28.2618C15.0738 27.6708 15.0668 27.398 15.0668 26.8071V26.7022C13.4383 26.5273 12.026 25.8664 10.6974 24.6915C9.07235 23.2543 8.42024 21.0582 8.2424 18.6524C8.14127 17.2641 8.06455 15.757 7.92158 14.2463C7.92158 14.2463 7.00794 7.4624 13.909 7.4624C27.6555 7.4624 26.3617 15.201 26.3617 15.201C26.6477 14.9387 27.0382 14.8408 27.3695 14.8513C28.0914 14.8758 28.3982 15.2464 28.5307 15.4667C28.9248 16.1206 28.9074 17.3236 28.6423 18.0684C28.454 18.5964 28.1611 19.3308 27.4218 19.9078C27.2161 20.0686 26.7104 20.3169 26.1874 20.3728C26.1351 20.4847 26.1002 20.5617 26.1002 20.5617C25.9049 20.9358 25.4481 21.5898 25.4481 21.5898C25.0331 22.1632 24.5902 22.7053 24.0672 23.2298C24.0672 23.2438 24.0672 23.2543 24.0672 23.2543C24.0741 24.1739 24.0881 25.3839 24.102 25.8874C24.1125 26.335 24.2136 26.7861 24.8099 27.3071L26.2432 27.9401L26.2466 27.9471Z" fill="white"/>
<path d="M7.92097 14.2464C7.60712 11.4174 7.8582 9.95221 8.05697 8.94511C8.55563 6.43436 9.62968 5.18248 10.5433 4.11244C12.4857 1.84297 15.8299 0.591095 19.045 0.608579C21.5767 0.622567 23.9864 1.28347 25.9357 2.7102L27.3863 4.08447C27.878 4.609 28.2268 5.01813 28.6208 5.67554C30.5492 8.91015 30.5527 13.4666 28.837 16.7851C28.83 16.292 28.7359 15.806 28.5336 15.4668C28.4011 15.2465 28.0942 14.8758 27.3724 14.8513C27.0411 14.8408 26.654 14.9387 26.3646 15.201L24.7117 14.2464C22.7589 10.4802 19.997 9.42418 19.4007 9.16542L17.5177 8.82972C15.4463 9.21437 13.5248 10.7635 12.538 11.316C12.3009 11.4489 12.0219 11.2391 12.0533 10.9523C12.0742 10.7635 12.0742 10.5642 12.0114 10.2984C11.9452 10.0256 11.7359 9.91025 11.5755 9.99417C10.1876 10.725 8.2104 13.3861 8.00815 14.3723" fill="#645D5C"/>
<path d="M26.78 15.624C26.5324 15.8338 26.1802 15.8688 25.9396 15.624C25.7268 15.4107 25.6955 14.9875 25.9396 14.7812C26.7033 14.1343 27.8714 14.0609 28.6595 14.7148C29.2001 15.1624 29.3779 15.9002 29.4198 16.5716C29.4686 17.3165 29.3151 18.0298 29.0257 18.7117C28.7258 19.4251 28.2411 20.1279 27.5611 20.5301C26.909 20.9147 26.0442 21.1211 25.3119 20.8833C24.5831 20.649 24.8969 19.4985 25.6292 19.7328C26.2046 19.9181 26.8706 19.6314 27.2507 19.2712C27.732 18.8096 28.0109 18.2256 28.1574 17.6032C28.3039 16.9843 28.2725 16.2604 27.997 15.7394C27.9796 15.7044 27.8993 15.624 27.997 15.7289C27.9517 15.6799 27.9098 15.631 27.861 15.5925C27.9412 15.6589 27.8191 15.568 27.7947 15.554C27.7355 15.5191 27.7285 15.5156 27.6239 15.4876C27.3484 15.4107 27.0101 15.4316 26.78 15.624Z" fill="#211715"/>
<path d="M12.5942 22.4288C12.3257 22.2329 12.2176 21.9217 12.3815 21.614C12.5209 21.3482 12.9429 21.2154 13.194 21.4007C13.2742 21.4601 13.3509 21.5196 13.4241 21.586C13.5287 21.6769 13.3021 21.5021 13.4067 21.572C13.445 21.5965 13.4799 21.6245 13.5218 21.6455C13.5671 21.67 13.6229 21.6874 13.6647 21.7189C13.6368 21.6979 13.5252 21.6665 13.6194 21.6979C13.6508 21.7084 13.6822 21.7189 13.7135 21.7294C13.7798 21.7469 13.8426 21.7644 13.9088 21.7784C13.9367 21.7819 13.9611 21.7888 13.989 21.7923L13.9158 21.7819C13.9507 21.7958 14.01 21.7923 14.0518 21.7923C14.1529 21.7993 14.2541 21.7993 14.3552 21.7958C14.404 21.7958 14.4563 21.7923 14.5051 21.7853C14.547 21.7819 14.676 21.7958 14.5365 21.7853C14.6063 21.7923 14.7074 21.7539 14.7771 21.7364C14.8539 21.7154 14.9341 21.6944 15.0073 21.6665C15.0422 21.6525 15.077 21.6385 15.1119 21.628C15.1817 21.6035 14.9899 21.6874 15.0805 21.6385C15.1363 21.6105 15.1886 21.586 15.2444 21.5546C15.2897 21.5301 15.3316 21.5056 15.3734 21.4776C15.4223 21.4462 15.5513 21.3447 15.3595 21.4951C15.621 21.2888 15.9384 21.2538 16.1999 21.4951C16.4161 21.6944 16.4475 22.1455 16.1999 22.3379C15.6036 22.8029 14.8539 23.0232 14.0971 22.9883C13.6996 22.9708 13.3125 22.8904 12.9603 22.7015C12.8383 22.6351 12.7267 22.5512 12.6221 22.4637C12.5558 22.4078 12.3919 22.2854 12.5942 22.4323V22.4288Z" fill="#211715"/>
<path d="M16.7539 15.6238C16.3878 16.2743 16.5307 17.6066 17.7303 17.5436C18.6335 17.3968 18.6614 16.2848 18.487 15.8127C18.0128 14.8161 17.0538 15.0888 16.7539 15.6203V15.6238Z" fill="#211715"/>
<path d="M10.2751 15.5958C9.93683 16.2427 10.0275 17.61 11.0771 17.5995C11.8687 17.4911 11.9245 16.3616 11.785 15.8721C11.3979 14.8335 10.5541 15.0643 10.2751 15.5958Z" fill="#211715"/>
<path d="M14.3136 28.2615C14.9971 27.9153 15.5969 28.9468 14.9134 29.293C13.3128 30.1008 11.7471 30.9715 10.2302 31.9227C8.77253 32.8354 7.30443 33.7865 6.28966 35.2132C6.08392 35.5035 5.88863 35.8007 5.71427 36.1119C5.67243 36.1854 5.63407 36.2588 5.5992 36.3322C5.5434 36.4441 5.60617 36.2903 5.55038 36.4511C5.41438 36.8358 5.30627 37.2239 5.21212 37.6226C4.94361 38.7416 4.76228 39.885 4.58792 41.0215C4.23572 43.3644 4.00207 45.7213 3.67079 48.0642C3.46854 49.5049 3.41623 50.9491 3.30813 52.3933C3.20003 53.8376 3.09193 55.2922 3.33603 56.7295C3.40577 57.1421 3.46854 57.5932 3.63592 57.9778C3.79633 58.3485 3.98464 58.7122 4.16597 59.0759C4.52166 59.7892 4.89131 60.4956 5.27141 61.195C5.86771 62.293 6.49192 63.377 7.10217 64.468C7.47879 65.1394 6.45007 65.7409 6.07345 65.0695C5.33417 63.7512 4.58095 62.4468 3.87654 61.111C3.43716 60.2788 3.00823 59.436 2.6107 58.5793C2.22013 57.7401 2.10854 56.74 2.0388 55.8238C1.92024 54.2956 2.11203 52.7675 2.19921 51.2429C2.24105 50.512 2.25849 49.7917 2.34567 49.0608C2.43285 48.33 2.54793 47.6061 2.64208 46.8753C2.95941 44.4659 3.207 42.0531 3.60454 39.6543C3.7789 38.6087 3.95674 37.5491 4.2671 36.535C4.60187 35.437 5.28187 34.4369 6.06648 33.6082C7.20679 32.4017 8.60862 31.5205 10.007 30.6568C11.4053 29.7931 12.8455 29.0028 14.3101 28.2615H14.3136Z" fill="#211715"/>
<path d="M12.8029 30.3247C12.6111 30.0659 12.7645 29.6567 13.0156 29.5099C13.3155 29.335 13.6363 29.4679 13.8281 29.7232C14.3686 30.447 15.7356 30.3806 16.5202 30.3421C17.6291 30.2862 18.7206 30.0379 19.7911 29.7407C21.8904 29.1567 23.9165 28.3874 25.8762 27.4397C26.5632 27.1075 27.1665 28.1356 26.476 28.4713C24.2687 29.5379 21.9776 30.4191 19.6028 31.0275C18.3788 31.3422 17.1025 31.58 15.8367 31.5451C14.6964 31.5136 13.5177 31.2898 12.7994 30.3247H12.8029Z" fill="#211715"/>
<path d="M23.4705 23.2578C23.4636 22.4885 24.6527 22.492 24.6597 23.2578C24.6666 23.9467 24.6736 24.6321 24.6841 25.3175C24.6876 25.5587 24.6945 25.8035 24.7015 26.0448C24.7085 26.1147 24.7085 26.1147 24.7015 26.0448C24.7085 26.0798 24.7154 26.1147 24.7224 26.1497C24.7364 26.2022 24.7503 26.2546 24.7678 26.3071C24.7922 26.3735 24.7957 26.377 24.7747 26.3246C24.7922 26.363 24.8131 26.398 24.834 26.433C24.8654 26.4889 24.9038 26.5484 24.9421 26.6008C24.963 26.6253 25.0328 26.6987 25.0746 26.7407C25.1165 26.7826 25.2315 26.8596 25.12 26.8001C25.1548 26.8176 25.1932 26.8316 25.2315 26.8491L25.7267 27.0659L26.5497 27.4296C26.8461 27.5589 26.9124 27.9926 26.7624 28.2443C26.5881 28.5451 26.2428 28.587 25.9499 28.4576L25.0432 28.059C24.8863 27.9891 24.7224 27.9261 24.569 27.8492C24.304 27.7198 24.0843 27.4366 23.9169 27.2023C23.5368 26.6707 23.5124 26.0658 23.5019 25.4398C23.488 24.7125 23.481 23.9851 23.4775 23.2543L23.4705 23.2578Z" fill="#211715"/>
<path d="M13.1312 17.9668C13.2044 17.8305 13.3439 17.7396 13.4868 17.6941C13.6403 17.6451 13.8077 17.6801 13.9437 17.7535C14.0727 17.82 14.1773 17.9703 14.2157 18.1102C14.2575 18.2676 14.2296 18.4284 14.1564 18.5683C14.0239 18.8166 13.8983 19.0684 13.7902 19.3271L13.8495 19.1838C13.8216 19.2537 13.7902 19.3271 13.7588 19.3971L13.8181 19.2537C13.8007 19.2992 13.7833 19.3446 13.7763 19.3936L13.7972 19.2362C13.7972 19.2607 13.7972 19.2817 13.7972 19.3027L13.7763 19.1453C13.7763 19.1453 13.7798 19.1663 13.7833 19.1768L13.724 19.0334C13.724 19.0334 13.7379 19.0614 13.7484 19.0754L13.6542 18.953C13.6752 18.9739 13.6961 18.9914 13.7205 19.0089L13.5984 18.9145C13.6298 18.9355 13.6612 18.9565 13.6996 18.9739L13.5566 18.9145C13.5915 18.9285 13.6228 18.9355 13.6612 18.9425L13.5043 18.9215C13.5531 18.9285 13.6054 18.9285 13.6542 18.932C13.7623 18.932 13.86 18.96 13.9541 19.0124L14.0762 19.1068C14.1947 19.2152 14.2436 19.3761 14.2505 19.5299C14.2575 19.6768 14.1808 19.8482 14.0762 19.9531C13.9785 20.051 13.7972 20.1419 13.6542 20.1279C13.5461 20.1174 13.4415 20.1139 13.3299 20.0929C13.1556 20.0615 13.0126 19.9636 12.8766 19.8552C12.6987 19.7118 12.6011 19.495 12.6011 19.2677C12.6011 19.0823 12.6674 18.925 12.7406 18.7571L12.6813 18.9005C12.8103 18.5788 12.9638 18.2676 13.1242 17.9634L13.1312 17.9668Z" fill="#211715"/>
<path d="M23.3728 24.6458C23.1113 24.8521 22.794 24.8871 22.5324 24.6458C22.3162 24.4465 22.2883 23.9954 22.5324 23.8031C23.2787 23.2156 23.9517 22.5442 24.5445 21.8029C24.7154 21.5931 24.8584 21.4042 25.0397 21.135C25.2315 20.8517 25.4268 20.565 25.5872 20.2608C25.7441 19.967 26.1242 19.9006 26.3997 20.0474C26.6926 20.2013 26.7589 20.5895 26.6124 20.8622C26.2846 21.4812 25.8557 22.0512 25.4198 22.5967C24.8165 23.3555 24.1296 24.0409 23.3694 24.6423L23.3728 24.6458Z" fill="#211715"/>
<path d="M20.3076 25.1811C20.6075 25.0587 20.9632 25.3175 21.04 25.5972C21.1341 25.9364 20.9214 26.2092 20.625 26.3316C19.0837 26.9715 17.4551 27.3911 15.7778 27.3492C13.0229 27.2827 10.2297 25.7966 8.87322 23.3418C8.18973 22.1039 7.86892 20.7156 7.712 19.3204C7.5202 17.6384 7.48533 15.9354 7.32841 14.2464C7.29702 13.9247 7.62482 13.6484 7.92471 13.6484C8.26646 13.6484 8.48963 13.9247 8.52102 14.2464C8.68491 15.9913 8.70235 17.7608 8.92553 19.4987C9.08594 20.7261 9.41722 21.964 10.0693 23.02C10.7214 24.0761 11.7362 24.8804 12.8312 25.4364C15.2129 26.6463 17.9503 26.1602 20.3146 25.1776L20.3076 25.1811Z" fill="#211715"/>
<path d="M26.9645 4.5038C26.4415 3.9443 27.2819 3.09806 27.8049 3.66106C31.1178 7.20338 31.5118 12.8368 29.3463 17.0855C28.9976 17.7709 27.9723 17.166 28.3176 16.4841C30.2355 12.7249 29.8972 7.64049 26.9611 4.5038H26.9645Z" fill="#211715"/>
<path d="M8.51374 14.2465C8.54861 14.5682 8.21385 14.8444 7.91744 14.8444C7.57221 14.8444 7.356 14.5682 7.32113 14.2465C7.12585 12.4421 7.1119 10.6517 7.4641 8.86829C8.18595 5.21056 10.8222 2.23123 14.2641 0.888432C18.0965 -0.608228 22.8565 -0.237559 26.232 2.19626C26.4936 2.38509 26.6191 2.7103 26.4448 3.01103C26.2948 3.2698 25.8903 3.41317 25.6323 3.22434C23.8189 1.91651 21.6499 1.28358 19.4286 1.21364C17.5664 1.15419 15.6659 1.50038 13.9781 2.30117C12.4856 3.00753 11.2895 4.0461 10.2887 5.35393C8.32544 7.91714 8.17897 11.1657 8.51374 14.2465Z" fill="#211715"/>
<path d="M19.0978 9.67925C18.8014 9.54987 18.7386 9.11626 18.8851 8.86448C19.0594 8.56375 19.4046 8.52179 19.6976 8.65117C19.9312 8.75258 20.1614 8.85399 20.388 8.96589C22.4978 10.0254 24.1332 11.8718 25.2212 13.9454C25.5769 14.6238 24.5482 15.2288 24.1925 14.5469C23.8159 13.8265 23.38 13.1272 22.8639 12.4977C22.4908 12.0431 22.0828 11.62 21.6399 11.2319C21.2877 10.9241 21.0018 10.7073 20.5659 10.4346C20.0986 10.1373 19.6034 9.89955 19.0978 9.67925Z" fill="#211715"/>
<path d="M8.57305 14.5331C8.40218 15.2815 7.2549 14.9632 7.42577 14.2149C7.61408 13.3862 8.19992 12.6098 8.70208 11.9454C9.267 11.2006 9.88772 10.4872 10.627 9.91026C10.9722 9.641 11.4046 9.27733 11.8719 9.39273C12.4752 9.54309 12.6565 10.204 12.653 10.753V10.8509C12.66 10.9733 12.6391 10.9803 12.5798 10.8684C12.5938 10.8719 12.2904 10.6831 12.2834 10.7635C12.2834 10.7355 12.4647 10.6551 12.4996 10.6341C12.667 10.5327 12.8309 10.4243 12.9948 10.3159C13.3993 10.0536 13.8003 9.79137 14.2153 9.54659C15.1882 8.9696 16.2344 8.46955 17.3503 8.24925C18.1 8.10238 18.4173 9.25285 17.6676 9.39972C16.4959 9.63051 15.4463 10.1795 14.442 10.8055C14.0723 11.0363 13.7062 11.2775 13.34 11.5153C12.9913 11.7391 12.6112 12.0294 12.1753 11.921C11.5964 11.7776 11.4604 11.2775 11.4674 10.753C11.4674 10.6971 11.4535 10.6341 11.4604 10.5817C11.4814 10.4313 11.2896 10.4208 11.6208 10.4977C11.9103 10.5642 11.7708 10.5572 11.6174 10.6586C11.4953 10.739 11.3837 10.8229 11.2721 10.9139C10.613 11.4629 10.0342 12.1273 9.52853 12.8197C9.29141 13.1449 9.06823 13.4806 8.87294 13.8303C8.71951 14.1065 8.63931 14.2429 8.57654 14.5261L8.57305 14.5331Z" fill="#211715"/>
<path d="M12.9844 30.3666C12.6845 30.51 12.3567 30.4435 12.1719 30.1533C12.008 29.898 12.1021 29.4714 12.3846 29.3385C13.0751 29.0098 13.7481 28.6496 14.4037 28.2545C14.4455 28.23 14.4874 28.2055 14.5257 28.181C14.5885 28.1426 14.592 28.1251 14.5397 28.181C14.4978 28.2265 14.4943 28.272 14.4769 28.3244C14.4525 28.4048 14.4769 28.286 14.4769 28.2615C14.4769 28.0901 14.4769 27.9223 14.4769 27.7509C14.4769 27.4362 14.4734 27.1215 14.4699 26.8033C14.4699 26.4676 14.7419 26.2228 15.0662 26.2053C15.3905 26.1878 15.6591 26.4886 15.6625 26.8033C15.6625 27.1495 15.666 27.4957 15.6695 27.8419C15.6695 28.0272 15.6835 28.216 15.666 28.4013C15.6347 28.737 15.4742 28.9853 15.1953 29.1672C14.4978 29.6218 13.7411 30.0029 12.9914 30.3631L12.9844 30.3666Z" fill="#211715"/>
<path d="M6.26818 38.8573C6.27515 38.0879 7.46427 38.0879 7.4573 38.8573C7.4573 38.8747 7.4573 38.8887 7.4573 38.9062C7.49914 40.0217 7.44335 41.1512 7.43289 42.2667L7.38407 49.1346C7.36663 51.7922 7.34571 54.4533 7.32827 57.1109L7.28294 63.6745C7.27596 64.5907 7.26899 65.5069 7.26551 66.4231C7.25853 67.1924 6.06941 67.1924 6.07638 66.4231C6.07638 66.4056 6.07638 66.3916 6.07638 66.3741C6.03454 65.2586 6.09033 64.1291 6.10079 63.0136C6.11823 60.7232 6.13217 58.4362 6.14961 56.1458C6.16705 53.4882 6.18797 50.827 6.20541 48.1694L6.25074 41.6058C6.25771 40.6896 6.26469 39.7734 6.26818 38.8573Z" fill="#211715"/>
<path d="M28.7622 40.7053C28.6883 39.9395 29.8709 39.8145 29.9448 40.5803C29.9466 40.5977 29.9481 40.6116 29.9499 40.629C30.1088 41.7339 30.172 42.863 30.2788 43.9734L30.952 50.8084C31.214 53.4531 31.4729 56.1017 31.7348 58.7464L32.3796 65.2785C32.4689 66.1903 32.5583 67.1021 32.6511 68.0136C32.725 68.7794 31.5424 68.9044 31.4685 68.1386C31.4667 68.1212 31.4652 68.1073 31.4634 68.0899C31.3045 66.985 31.2413 65.8559 31.1345 64.7454C30.9111 62.4658 30.6846 60.1901 30.4613 57.9105C30.1993 55.2658 29.9404 52.6172 29.6785 49.9724L29.0338 43.4404C28.9444 42.5286 28.8551 41.6167 28.7622 40.7053Z" fill="#211715"/>
<path d="M55.3365 3.96543C53.0559 2.26245 50.9182 1.81136 48.7701 1.86731C45.3632 1.95473 42.5944 3.2101 40.7113 5.3327C39.6233 6.55661 38.8178 8.35749 38.4865 9.96955C38.1761 11.4837 38.1203 13.7846 38.4656 15.7044C38.4656 15.7044 39.6268 18.4075 39.7767 20.3972C39.9267 22.3869 39.7907 24.0899 39.7907 24.0899C39.7628 25.125 39.3757 26.5727 39.2606 27.0692C38.9642 28.3666 40.4498 29.559 41.6633 29.9297C41.6633 29.9297 46.092 30.8878 47.5601 31.255C49.1502 31.6536 52.4665 32.1502 54.0288 32.3355C58.9945 32.93 60.487 31.0277 60.487 31.0277C60.9787 30.3073 61.2786 29.4541 61.317 28.5799C61.3972 26.7056 60.3371 24.9956 59.8768 23.1772C59.5211 21.7785 59.4165 20.4252 59.3293 19.0299C59.2735 18.1068 59.3502 17.32 59.4897 16.159C59.6152 15.1204 59.8628 14.1133 59.9047 13.0573C59.9465 12.0782 59.8349 11.092 59.5908 10.1444C59.1026 8.25958 58.2831 6.61256 56.8569 5.28724" fill="#645D5C"/>
<path d="M46.1824 33.4931C47.0368 33.7484 48.1108 33.9092 49.4673 33.9092C56.1104 33.9092 55.8628 28.2478 55.8628 28.2478L54.4923 27.6428C53.9239 27.1428 53.8263 26.7127 53.8158 26.286C53.8019 25.807 53.7879 24.653 53.7809 23.7753C54.2901 23.2682 54.7155 22.7437 55.12 22.1877C55.12 22.1877 55.5524 21.5653 55.7407 21.2086L55.8244 21.0303C56.3231 20.9743 56.8043 20.74 56.9996 20.5861C57.704 20.0371 57.983 19.3378 58.1608 18.8342C58.4119 18.1244 58.4293 16.9809 58.0562 16.3584C57.9307 16.1521 57.6378 15.7954 56.9508 15.7745C56.6369 15.764 56.2673 15.8584 55.9918 16.1067L55.5943 16.2465C55.0642 16.4354 54.4819 16.4284 53.9553 16.2291L53.5717 16.0822C52.0827 15.6276 50.2868 13.2392 49.7114 12.1587C49.3104 11.4034 48.8536 9.85426 48.5293 8.60938C46.8798 10.7599 44.7875 12.2846 42.1896 13.0294C41.5724 13.2148 42.1547 11.2495 42.2628 10.3193C40.997 11.5677 39.637 12.8686 38.3188 14.026C38.5455 15.8444 38.6292 17.7082 38.7547 19.3902C38.9221 21.6807 39.5428 23.7683 41.0877 25.1356C42.3395 26.2406 43.6682 26.8665 45.1955 27.0414C45.1955 27.5484 45.199 28.1359 45.2025 28.545C45.2025 28.6359 45.2025 28.7304 45.1537 28.8073C45.1153 28.8667 45.0526 28.9052 44.9933 28.9437C44.3237 29.3528 43.6333 29.7235 42.9254 30.0627C42.9254 30.0627 42.8626 32.493 46.1859 33.4896L46.1824 33.4931Z" fill="white"/>
<path d="M53.2303 55.5268C52.0098 56.9011 50.8555 58.1705 50.0744 58.9992C50.1302 59.0901 50.1651 59.1426 50.1651 59.1426C50.859 60.2511 51.3786 61.0239 52.4701 62.2653C52.9129 62.7689 53.6348 63.6815 54.5903 64.5488C54.7507 64.6956 54.9669 64.7621 55.1203 64.6082C58.8132 60.905 62.8305 55.8975 63.6464 54.4148C65.0692 51.8306 65.132 51.2502 65.3308 48.5716C65.547 45.6657 65.2575 41.0113 64.982 38.6754C64.6577 35.9164 64.2776 33.8428 62.1574 31.9964C61.4565 31.388 60.6335 30.9369 59.8141 30.4893C58.346 29.6885 56.8813 28.8877 55.4132 28.0869C54.259 28.6499 53.3802 29.1465 51.9365 29.699C50.043 30.4228 47.8321 30.9229 45.9212 30.6396C45.3528 30.5557 44.4496 30.3354 44.1218 29.8633C44.1218 29.8633 44.0137 29.706 43.8393 29.4507C42.7269 29.9927 41.4367 30.6082 40.6381 31.1222C38.4168 32.5524 36.9103 34.696 36.2896 37.2697C36.0908 38.1019 35.8851 39.1265 35.7596 39.9728C35.376 42.5884 35.1633 44.8614 34.9471 47.1413L40.2127 55.1702C40.8194 55.1876 47.8949 55.2226 53.2024 55.2436H53.4744C53.3907 55.338 53.3105 55.4289 53.2303 55.5233V55.5268Z" fill="white"/>
<path d="M47.9851 8.8821C47.7898 8.13726 48.9371 7.82255 49.1324 8.56388C49.5195 10.0256 49.9031 11.4838 50.7714 12.7391C51.1898 13.3441 51.6641 13.9141 52.1871 14.4316C52.6265 14.8652 53.1322 15.3198 53.732 15.5157C54.4573 15.7534 54.1469 16.9039 53.4146 16.6661C51.9012 16.1731 50.7435 14.7428 49.8507 13.491C48.8674 12.1132 48.4175 10.5046 47.9886 8.8821H47.9851Z" fill="#211715"/>
<path d="M48.1043 8.20385C48.303 7.94858 48.7389 7.99754 48.9447 8.20385C49.1923 8.45213 49.14 8.79482 48.9447 9.0466C47.5184 10.8894 45.6807 12.3406 43.5152 13.2079C43.0862 13.3792 42.5457 13.652 42.075 13.638C41.5833 13.6205 41.3531 13.1764 41.3217 12.7393C41.2659 11.942 41.5798 11.0433 41.6704 10.323L42.6852 10.7461C41.0393 12.3651 39.3654 13.9702 37.5835 15.4389C36.9976 15.9214 36.1503 15.0822 36.7431 14.5961C38.5285 13.1274 40.1989 11.5259 41.8448 9.90333C42.1796 9.57463 42.9293 9.78793 42.8596 10.3265C42.7689 11.0363 42.5562 11.7357 42.5109 12.4491C42.5074 12.526 42.5039 12.6029 42.5074 12.6833V12.7428C42.5004 12.6729 42.5004 12.6694 42.5143 12.7323L42.4864 12.6624C42.3539 12.491 42.204 12.4246 42.0331 12.4595C42.0889 12.4141 42.3051 12.3791 42.3749 12.3581C42.8247 12.2148 43.2676 12.0469 43.693 11.8441C45.454 11.0118 46.9151 9.73898 48.1043 8.20385Z" fill="#211715"/>
<path d="M35.8015 36.7799C36.1851 35.3847 36.8442 34.0838 37.7369 32.9474C38.5808 31.8808 39.6409 30.9891 40.8195 30.3142C42.0435 29.6148 43.3408 29.0518 44.5927 28.4084C45.2727 28.0587 45.8759 29.0868 45.1924 29.4365C43.8534 30.1254 42.455 30.7129 41.1648 31.4892C38.8423 32.8879 37.3742 35.1539 36.7779 37.773" fill="#211715"/>
<path d="M57.0516 40.3715C56.9923 39.6057 58.1815 39.6127 58.2408 40.3715C58.4674 43.2215 58.6592 46.0714 58.9173 48.9179C58.9452 49.2396 58.6209 49.5159 58.321 49.5159C57.9792 49.5159 57.756 49.2396 57.7247 48.9179C57.4666 46.0714 57.2748 43.2215 57.0481 40.3715H57.0516Z" fill="#211715"/>
<path d="M60.0758 32.3004C60.3722 32.1465 60.7069 32.2339 60.8883 32.5137C61.0556 32.7759 60.951 33.1851 60.6755 33.3284C60.4454 33.4508 60.2222 33.5767 60.0095 33.7271C59.9084 33.797 60.1002 33.6536 60.0095 33.7271C59.9781 33.755 59.9467 33.7795 59.9153 33.8075C59.8456 33.8669 59.7793 33.9299 59.7131 33.9928C59.5527 34.1502 59.4027 34.318 59.2563 34.4894C59.2563 34.4859 59.1377 34.6363 59.1935 34.5628C59.1586 34.6118 59.1238 34.6607 59.0889 34.7097C59.0261 34.8041 58.9668 34.902 58.911 34.9999C58.8587 35.0943 58.8099 35.1888 58.7681 35.2867C58.7611 35.3007 58.6948 35.458 58.7471 35.3286C58.7297 35.3741 58.7123 35.4161 58.6948 35.4615C58.5902 35.7343 58.5205 36.021 58.4298 36.2973C58.3252 36.6155 58.0253 36.7903 57.6975 36.7134C57.3941 36.6435 57.1849 36.2763 57.2825 35.9791C57.3837 35.6713 57.4639 35.3566 57.5824 35.0524C57.7812 34.5523 58.0323 34.1082 58.374 33.6921C58.8518 33.1046 59.4097 32.6465 60.0758 32.2969V32.3004Z" fill="#211715"/>
<path d="M43.6088 30.1674C43.4136 29.9122 43.574 29.4995 43.8216 29.3527C44.1249 29.1743 44.4388 29.3107 44.6341 29.566C44.8119 29.8003 45.2653 29.8947 45.5303 29.9611C45.9453 30.066 46.3672 30.1115 46.7926 30.1255C47.8179 30.1569 48.8326 30.0031 49.823 29.7548C51.7444 29.2687 53.4671 28.377 55.2386 27.5203C55.9255 27.1881 56.5288 28.2162 55.8383 28.5519C53.8158 29.5345 51.8351 30.5556 49.6172 31.0312C48.4909 31.2724 47.3157 31.4053 46.1649 31.2794C45.2304 31.1745 44.2086 30.9612 43.6054 30.1779L43.6088 30.1674Z" fill="#211715"/>
<path d="M53.1914 23.7715C53.1844 23.0022 54.3735 23.0057 54.3805 23.7715C54.3875 24.4254 54.3909 25.0828 54.4014 25.7367C54.4049 25.9675 54.4119 26.1983 54.4188 26.4326C54.4258 26.5025 54.4258 26.499 54.4154 26.4221C54.4223 26.4571 54.4258 26.4885 54.4363 26.5235C54.4467 26.576 54.4642 26.6249 54.4781 26.6739C54.5025 26.7368 54.5025 26.7403 54.4816 26.6844C54.499 26.7193 54.5165 26.7543 54.5374 26.7893C54.5688 26.8452 54.6037 26.8977 54.642 26.9501C54.6211 26.9187 54.635 26.9326 54.6839 26.9921C54.7083 27.0201 54.7362 27.048 54.7641 27.076C54.8094 27.1215 54.9175 27.1879 54.8024 27.1285C54.8373 27.146 54.8722 27.1599 54.9105 27.1739L55.3813 27.3837L56.1659 27.7299C56.4623 27.8593 56.5286 28.2929 56.3786 28.5447C56.2043 28.8454 55.859 28.8874 55.5661 28.758L54.7013 28.3768C54.5514 28.3104 54.3944 28.251 54.248 28.1775C53.9934 28.0516 53.7807 27.7789 53.6168 27.5516C53.2506 27.041 53.2262 26.4606 53.2158 25.8556C53.2053 25.1597 53.1983 24.4674 53.1914 23.7715Z" fill="#211715"/>
<path d="M43.2257 30.5835C42.9258 30.7269 42.598 30.6604 42.4132 30.3702C42.2493 30.1149 42.3435 29.6883 42.6259 29.5554C43.285 29.2407 43.9266 28.898 44.5543 28.5203C44.5927 28.4959 44.631 28.4749 44.6729 28.4504C44.7391 28.4084 44.7322 28.4014 44.6799 28.4574C44.638 28.5063 44.631 28.5518 44.6136 28.6113C44.5857 28.6917 44.6136 28.5798 44.6136 28.5553C44.6136 28.3945 44.6136 28.2301 44.6136 28.0692C44.6136 27.7685 44.6101 27.4678 44.6101 27.1671C44.6101 26.8314 44.8821 26.5866 45.2064 26.5691C45.5307 26.5516 45.7992 26.8523 45.8027 27.1671C45.8027 27.4958 45.8062 27.828 45.8097 28.1567C45.8097 28.335 45.8202 28.5133 45.8062 28.6917C45.7748 29.0204 45.6179 29.2687 45.3424 29.447C44.6764 29.8806 43.9545 30.2443 43.2397 30.587L43.2257 30.5835Z" fill="#211715"/>
<path d="M41.8447 29.2829C42.5735 29.5137 42.2597 30.6676 41.5274 30.4333C40.3034 30.0417 38.9155 29.0766 38.6853 27.7163C38.5842 27.1253 38.776 26.5658 38.905 25.9958C39.055 25.3454 39.191 24.6845 39.2119 24.0166C39.2398 23.2508 40.4289 23.2473 40.401 24.0166C40.3801 24.667 40.265 25.3139 40.129 25.9504C40.0384 26.37 39.864 26.856 39.8326 27.2617C39.7594 28.2303 41.0043 29.0171 41.8342 29.2829H41.8447Z" fill="#211715"/>
<path d="M55.6609 3.37811C55.919 3.57044 56.0515 3.89215 55.8736 4.19288C55.7237 4.45165 55.3192 4.59852 55.0611 4.40619C53.4535 3.21726 51.6367 2.47592 49.6281 2.39549C46.4931 2.26611 43.278 3.2802 41.1543 5.67905C38.8597 8.27373 38.4866 12.1832 39.062 15.4703C39.1178 15.7885 38.9818 16.1102 38.647 16.2046C38.3576 16.2851 37.9705 16.1067 37.9147 15.7885C37.552 13.7079 37.5137 11.4594 38.0123 9.39622C38.4517 7.56736 39.3444 5.79095 40.6731 4.45165C41.8552 3.25572 43.3233 2.385 44.9135 1.84998C46.6012 1.28349 48.4704 1.07018 50.2418 1.24502C52.233 1.43735 54.0603 2.19267 55.6644 3.37811H55.6609Z" fill="#211715"/>
<path d="M56.4136 16.5332C56.166 16.743 55.8138 16.7779 55.5732 16.5332C55.3605 16.3198 55.3291 15.8967 55.5732 15.6904C56.3124 15.0645 57.4388 14.9945 58.199 15.6275C58.7186 16.0611 58.8895 16.7674 58.9313 17.4144C58.9766 18.1277 58.8302 18.8096 58.5547 19.4635C58.2653 20.1489 57.8015 20.8238 57.1494 21.2085C56.5252 21.5791 55.6917 21.7785 54.9873 21.5477C54.2585 21.3134 54.5723 20.1629 55.3047 20.3972C55.6115 20.4951 55.887 20.4461 56.2009 20.3377C56.4345 20.2573 56.6368 20.1384 56.8181 19.9636C57.2819 19.5195 57.5364 18.9775 57.6724 18.3865C57.8084 17.806 57.7736 17.1136 57.5225 16.6346C57.4249 16.5297 57.5016 16.5961 57.5225 16.6346C57.4806 16.5891 57.4388 16.5436 57.3935 16.5017C57.4737 16.5716 57.3691 16.4877 57.3377 16.4702C57.2749 16.4422 57.2679 16.4352 57.3133 16.4527C57.2714 16.4352 57.2261 16.4213 57.1842 16.4108C56.9297 16.3408 56.6228 16.3548 56.4101 16.5332H56.4136Z" fill="#211715"/>
<path d="M42.8836 23.1631C42.6151 22.9673 42.507 22.6561 42.6709 22.3484C42.8104 22.0826 43.2323 21.9497 43.4834 22.1351C43.5601 22.191 43.6334 22.254 43.7066 22.3169C43.7171 22.3274 43.731 22.3379 43.745 22.3484C43.5985 22.212 43.6403 22.2714 43.6822 22.2994C43.7171 22.3239 43.7519 22.3484 43.7903 22.3694C43.8321 22.3938 43.8844 22.4113 43.9263 22.4393C43.8984 22.4218 43.7833 22.3868 43.8775 22.4183C43.9089 22.4288 43.9368 22.4393 43.9681 22.4463C44.0309 22.4638 44.0902 22.4813 44.1564 22.4917C44.1809 22.4952 44.2053 22.5022 44.2332 22.5057L44.1564 22.4952C44.1774 22.5127 44.2541 22.5057 44.2855 22.5057C44.3831 22.5127 44.4773 22.5127 44.5749 22.5092C44.6237 22.5092 44.6691 22.5057 44.7179 22.4987H44.7632C44.833 22.4848 44.8225 22.4883 44.7388 22.4987C44.8016 22.5092 44.9062 22.4673 44.9655 22.4533C45.0387 22.4358 45.1119 22.4113 45.1852 22.3868C45.22 22.3764 45.2514 22.3589 45.2828 22.3484C45.3525 22.3239 45.1573 22.4078 45.2479 22.3624C45.3002 22.3379 45.3525 22.3134 45.4049 22.2819C45.4467 22.2575 45.4885 22.233 45.5269 22.2085C45.5757 22.177 45.6978 22.0791 45.506 22.2295C45.7675 22.0232 46.0848 21.9882 46.3464 22.2295C46.5626 22.4288 46.594 22.8799 46.3464 23.0722C45.7745 23.5198 45.0526 23.7331 44.3273 23.6982C43.9437 23.6807 43.5706 23.6038 43.2323 23.4219C43.1138 23.359 43.0057 23.275 42.9046 23.1911C42.8383 23.1352 42.6814 23.0198 42.8836 23.1666V23.1631Z" fill="#211715"/>
<path d="M48.5019 16.8443C48.052 15.8967 47.1384 16.1554 46.8524 16.6625C46.5037 17.2814 46.6397 18.5508 47.78 18.4879C48.6379 18.348 48.6692 17.2919 48.5019 16.8408V16.8443Z" fill="#211715"/>
<path d="M42.1272 16.8969C41.7576 15.9108 40.9555 16.1311 40.694 16.6346C40.3732 17.2501 40.4568 18.5509 41.4577 18.5439C42.2109 18.4425 42.2632 17.3655 42.1307 16.9004L42.1272 16.8969Z" fill="#211715"/>
<path d="M43.3821 18.876C43.4554 18.7396 43.5948 18.6487 43.7378 18.6033C43.8913 18.5543 44.0586 18.5893 44.1946 18.6627C44.3237 18.7292 44.4283 18.8795 44.4666 19.0194C44.5085 19.1768 44.4806 19.3376 44.4074 19.4775C44.2818 19.7118 44.1633 19.9531 44.0586 20.1978L44.1179 20.0545C44.09 20.1244 44.0586 20.1943 44.0307 20.2643L44.09 20.1209C44.0726 20.1664 44.0586 20.2083 44.0517 20.2538L44.0726 20.0964C44.0726 20.1174 44.0726 20.1384 44.0726 20.1629L44.0517 20.0055C44.0517 20.0055 44.0552 20.0265 44.0586 20.037L43.9994 19.8936C43.9994 19.8936 44.0133 19.9216 44.0238 19.9321L43.9296 19.8097C43.9471 19.8307 43.9715 19.8482 43.9924 19.8656L43.8703 19.7712C43.9017 19.7922 43.9296 19.8097 43.9645 19.8272L43.8215 19.7677C43.8529 19.7817 43.8878 19.7887 43.9192 19.7957L43.7622 19.7747C43.8111 19.7817 43.8564 19.7782 43.9052 19.7852C44.0133 19.7852 44.111 19.8132 44.2051 19.8656L44.3272 19.9601C44.4457 20.0685 44.4945 20.2293 44.5015 20.3832C44.5085 20.53 44.4318 20.7014 44.3272 20.8063C44.2295 20.9042 44.0482 20.9951 43.9052 20.9811C43.8006 20.9707 43.696 20.9672 43.5914 20.9497C43.4205 20.9182 43.281 20.8238 43.1485 20.7154C42.9741 20.5755 42.88 20.3587 42.88 20.1384C42.88 19.9531 42.9427 19.8027 43.016 19.6383L42.9567 19.7817C43.0822 19.474 43.2252 19.1768 43.3821 18.883V18.876Z" fill="#211715"/>
<path d="M53.1708 25.1179C52.9093 25.3242 52.5919 25.3592 52.3304 25.1179C52.1142 24.9186 52.0863 24.4675 52.3304 24.2751C53.0383 23.7156 53.6799 23.0792 54.2449 22.3728C54.2797 22.3274 54.3146 22.2854 54.3495 22.24C54.3704 22.212 54.4262 22.1385 54.3774 22.205C54.4436 22.1141 54.5134 22.0266 54.5796 21.9357C54.625 21.8728 54.6703 21.8098 54.7121 21.7434C54.897 21.4741 55.0783 21.2014 55.2317 20.9111C55.3887 20.6174 55.7688 20.551 56.0442 20.6978C56.3372 20.8517 56.4034 21.2399 56.257 21.5126C55.9431 22.1036 55.5351 22.6491 55.1201 23.1701C54.5448 23.8905 53.8961 24.5444 53.1708 25.1179Z" fill="#211715"/>
<path d="M50.2237 25.5762C50.5236 25.4538 50.8793 25.7126 50.956 25.9923C51.0501 26.3315 50.8374 26.6043 50.541 26.7267C49.0659 27.3386 47.5037 27.7408 45.8961 27.6953C43.2737 27.6219 40.62 26.2091 39.3263 23.8697C38.6707 22.6808 38.3638 21.345 38.2139 20.0022C38.036 18.4076 38.0011 16.7991 37.8512 15.201C37.8198 14.8793 38.1476 14.603 38.4475 14.603C38.7892 14.603 39.0124 14.8793 39.0438 15.201C39.1972 16.8375 39.2216 18.4915 39.4204 20.1211C39.5634 21.296 39.8737 22.485 40.4945 23.5026C41.1047 24.5062 42.0602 25.2755 43.0994 25.807C45.3695 26.968 47.971 26.5099 50.2271 25.5727L50.2237 25.5762Z" fill="#211715"/>
<path d="M56.4593 5.63323C55.9014 5.10521 56.7418 4.26246 57.2997 4.79049C58.6737 6.08783 59.5734 7.75583 60.0895 9.56022C60.3545 10.4904 60.5114 11.4555 60.5289 12.4242C60.5463 13.4278 60.3684 14.4139 60.208 15.4C60.0651 16.2777 59.957 17.1694 59.9326 18.0611C59.9081 18.9563 59.9918 19.862 60.0895 20.7537C60.1906 21.7048 60.3615 22.6525 60.6509 23.5617C60.9264 24.4219 61.2891 25.2507 61.5576 26.1109C62.1085 27.8733 62.0667 29.6812 61.024 31.2548C60.6021 31.8912 59.5734 31.2933 59.9953 30.6533C60.5254 29.8525 60.7974 28.9608 60.7381 27.9992C60.6823 27.0795 60.344 26.1913 60.0267 25.3381C59.7198 24.5163 59.4164 23.7016 59.2247 22.8448C59.0224 21.9321 58.9108 20.9985 58.8341 20.0648C58.7678 19.2465 58.712 18.4318 58.7643 17.61C58.8236 16.7148 58.9422 15.8231 59.0852 14.9419C59.2386 14.0117 59.3746 13.0921 59.3328 12.1444C59.2909 11.2527 59.1096 10.382 58.8411 9.53224C58.3703 8.04607 57.5961 6.70677 56.4593 5.63323Z" fill="#211715"/>
<path d="M49.6487 59.4435C49.2407 58.7896 50.2694 58.1916 50.6774 58.842C51.6748 60.4331 52.85 61.8948 54.1332 63.2621C54.3494 63.4929 54.5726 63.7167 54.7993 63.9335C54.8516 63.9824 54.9039 64.0314 54.9562 64.0804C55.0713 64.1678 55.012 64.1748 54.7853 64.1013C54.7784 64.0838 55.019 63.8635 55.0434 63.8426C55.42 63.4579 55.7896 63.0698 56.1593 62.6781C56.8741 61.9158 57.5751 61.1395 58.262 60.3527C59.3954 59.0554 60.5008 57.737 61.5504 56.3733C62.2235 55.499 62.8686 54.6143 63.3917 53.6387C63.7404 52.9848 64.0856 52.3169 64.3053 51.6035C64.4901 51.0056 64.5808 50.3936 64.6401 49.7712C64.797 48.1171 64.8354 46.4596 64.7935 44.8091C64.7517 43.1586 64.661 41.5081 64.511 39.861C64.375 38.3644 64.2321 36.8223 63.7543 35.3851C63.2347 33.8289 62.1677 32.5945 60.7867 31.7308C59.8801 31.1608 58.9176 30.6748 57.9761 30.1642C56.9927 29.6292 56.0093 29.0907 55.0294 28.5557C54.3564 28.1885 54.9562 27.1569 55.6292 27.5241C56.7835 28.1535 57.9377 28.783 59.0885 29.4124C60.173 30.0034 61.2959 30.5559 62.2688 31.3217C63.8206 32.5351 64.7691 34.2241 65.1876 36.1369C65.5363 37.7314 65.6723 39.382 65.7908 41.008C65.9303 42.8439 66.0105 44.6832 66.0001 46.5226C65.9896 48.1241 65.9512 49.8096 65.599 51.3797C65.2957 52.7295 64.6122 54.0688 63.8555 55.2158C63.0813 56.3907 62.1921 57.4957 61.3063 58.5833C60.0858 60.0834 58.82 61.5486 57.5123 62.9684C57.1461 63.367 56.773 63.7621 56.3999 64.1538C56.0965 64.472 55.7861 64.8706 55.4235 65.1224C54.8865 65.4966 54.3704 65.1644 53.9624 64.7762C53.6136 64.444 53.2789 64.0943 52.9581 63.7342C51.748 62.3809 50.6182 60.9821 49.6522 59.44L49.6487 59.4435Z" fill="#211715"/>
<path d="M58.255 48.6346C58.6944 48.0122 59.7231 48.6067 59.2837 49.2361C58.799 49.9215 58.262 50.5754 57.7284 51.2223C56.3615 52.8763 54.9492 54.4884 53.5229 56.09C52.3652 57.3908 51.2074 58.6986 49.9904 59.9435C49.4534 60.4925 48.613 59.6498 49.15 59.1008C49.7254 58.5133 50.2798 57.9048 50.8343 57.2999C52.278 55.7193 53.6973 54.1177 55.0956 52.4952C55.7512 51.7364 56.3998 50.974 57.0345 50.2012C57.2856 49.897 57.5332 49.5893 57.7773 49.2781C57.9167 49.0997 57.8958 49.1277 58.0214 48.9598C58.1016 48.8514 58.1818 48.743 58.262 48.6311L58.255 48.6346Z" fill="#211715"/>
<path d="M37.1225 36.5879L35.2394 47.2708L33.8445 49.0193V50.418H38.7266L37.1225 36.5879Z" fill="white"/>
<path d="M26.5 28C28.6667 29.1667 33.2 31.9 34 33.5C34.8 35.1 36 37.1667 36.5 38L39.5 67.5" stroke="black"/>
</g>
<path d="M62.8501 55.7937C62.7593 54.7711 64.0304 54.7465 64.1209 55.7597C64.4652 59.5651 64.7722 63.3714 65.15 67.1712C65.1913 67.6007 64.8546 67.9795 64.5341 67.988C64.1689 67.9978 63.9205 67.6347 63.8755 67.2053C63.4977 63.4055 63.1907 59.5992 62.8464 55.7938L62.8501 55.7937Z" fill="#211715"/>
</g>
<defs>
<clipPath id="clip0_40_1669">
<rect width="67" height="67" fill="white"/>
</clipPath>
<clipPath id="clip1_40_1669">
<rect width="14" height="10" fill="white" transform="translate(39.6855 60.4722) rotate(-3.77831)"/>
</clipPath>
<clipPath id="clip2_40_1669">
<rect width="64" height="67" fill="white" transform="matrix(-1 0 0 1 66 0)"/>
</clipPath>
</defs>
</svg>
