<svg width="107" height="320" viewBox="0 0 107 320" fill="none" xmlns="http://www.w3.org/2000/svg">
<g clip-path="url(#clip0_61_2041)">
<path d="M53.72 169.65C41.64 169.63 29.59 169.6 22.18 169.47V171.56C22.17 183.99 22.41 203.73 22.72 211.68C23.47 230.89 24.32 258.89 24.84 274.19H25.78C28.97 274.27 35.81 274.62 39.05 274.62C40.34 274.62 49.47 274.41 52.36 274.38H53.37C53.87 274.38 54.38 274.38 54.38 274.38C57.25 274.41 66.39 274.62 67.69 274.62C70.93 274.62 77.78 274.27 80.97 274.2H82.28C82.3 273.73 82.32 273.24 82.35 272.74C83.06 257.18 84.14 230.32 84.27 211.68C84.34 202.1 85.38 182.25 85.2 169.81C77.68 169.69 65.69 169.67 53.72 169.64V169.65Z" fill="#3F88C9"/>
<path d="M28.36 285.06C26.99 284.93 25.91 284.75 25.24 284.52C25.15 283.08 25.01 279.36 24.84 274.19C27.35 274.19 35.44 274.62 39.05 274.62C40.34 274.62 49.47 274.41 52.36 274.38H53.37C53.87 274.38 54.38 274.38 54.38 274.38C57.25 274.41 66.39 274.62 67.69 274.62C71.51 274.62 80.33 274.13 82.28 274.21C82.03 279.37 81.84 283.08 81.75 284.52C80.34 284.99 77.11 285.27 73.24 285.35H73.14C68.41 285.44 62.74 285.25 58.22 284.79C56.42 284.6 54.8 284.37 53.5 284.1C52.27 284.36 50.76 284.57 49.09 284.75C44.62 285.23 38.96 285.44 34.19 285.35C31.99 285.31 29.98 285.22 28.36 285.06Z" fill="white"/>
<path d="M33.52 169.59C29.16 169.57 25.26 169.53 22.17 169.48H21.34C21.35 170.12 21.35 170.79 21.35 171.48C21.35 171.48 21.35 171.59 21.35 171.73C19.67 171.61 17.85 171.48 15.88 171.37C13.42 171.22 10.73 171.07 7.85999 170.87C6.86999 170.8 5.86999 170.72 4.83999 170.64C3.72999 170.55 2.89999 169.59 2.99999 168.48C4.17999 155.33 5.90999 123.91 8.40999 109.42C8.57999 108.46 8.74999 107.57 8.91999 106.76C9.82999 102.56 10.93 98.3 13.25 94.67C17.84 87.49 26.31 83.96 34.25 80.86C34.25 80.86 34.98 80.58 35.71 80.29L36.45 80.83C38.4 82.24 45.59 86.01 54.38 86.01C63.6 86.01 70.19 82.81 72.04 81.07C72.12 80.99 72.21 80.92 72.26 80.83C80.24 83.94 88.75 87.46 93.36 94.67C95.68 98.3 96.78 102.56 97.69 106.76C97.74 106.97 97.78 107.19 97.83 107.41C100.68 121.51 102.57 158.42 103.81 170.54C102.15 170.68 100.54 170.81 98.98 170.91H98.95C96.08 171.11 93.39 171.26 90.94 171.4C88.99 171.53 87.17 171.62 85.61 171.8C85.61 171.12 85.61 170.46 85.62 169.82C73.81 169.62 50.21 169.67 33.52 169.58V169.59Z" fill="white"/>
<path d="M72.1899 81.1299C72.1899 81.1299 72.1299 81.11 72.0499 81.07C71.9599 81.0299 71.8399 80.97 71.6799 80.9C70.7999 80.49 69.0499 79.6499 68.4399 79.3499C65.9899 78.1099 65.8599 76.65 65.5299 74.79C64.9899 71.69 64.9699 70.6399 64.8899 69.5199C71.3899 66.8999 76.6399 58.1199 77.5499 55.66C77.6899 55.25 77.9599 54.4799 78.1999 53.56C78.5199 53.51 78.7099 53.4799 78.7099 53.4799C79.8099 53.31 80.8499 52.81 81.6999 52.13C82.7999 51.24 83.5999 50.07 84.1999 48.84C85.4499 46.33 85.9899 43.5199 85.7499 40.7599C85.6799 40.0599 85.5699 39.34 85.2199 38.72C84.7199 37.82 83.7299 37.16 82.6299 37C81.5299 36.84 80.3699 37.18 79.5799 37.8899C79.5799 37.8899 79.7299 17.45 54.1699 17.45C28.6099 17.45 28.4699 37.8899 28.4699 37.8899C27.6799 37.18 26.5099 36.83 25.4199 37C24.3299 37.17 23.3299 37.82 22.8299 38.72C22.4799 39.35 22.3599 40.0699 22.2999 40.7599C22.0599 43.5199 22.5999 46.32 23.8499 48.84C24.4599 50.06 25.2499 51.24 26.3499 52.13C27.1999 52.81 28.2299 53.31 29.3399 53.4799C29.3399 53.4799 29.7099 53.54 30.3099 53.63C31.1699 56.68 32.6399 60.15 35.2499 63.27C37.4999 65.9599 40.0099 68.02 42.7499 69.3C42.5799 70.62 42.5599 72.13 42.1999 74.18C41.8799 76.04 41.9799 77.7 39.3899 78.6399C39.2199 78.7 35.5199 80.4599 35.2599 80.57C35.2599 80.57 37.2799 95.4599 52.3899 95.4599C67.4999 95.4599 72.1699 81.1299 72.1699 81.1299H72.1899Z" fill="white"/>
<path d="M58.17 288.23C60.99 290.51 65.22 292.38 69.89 292.29C71.04 292.27 72.23 292.14 73.21 291.54C73.76 291.21 74.22 290.68 74.47 290.08C74.66 289.62 74.72 289.12 74.59 288.63C76.44 288.98 77.83 290.45 79.07 291.87C82.23 295.5 85.24 299.26 88.08 303.14C89.25 304.74 90.41 306.4 91.03 308.28C91.64 310.17 91.64 312.35 90.58 314.02C90.49 314.15 90.41 314.27 90.32 314.39C89.6 315.33 88.57 316.03 87.5 316.56C83.63 318.44 78.83 318.27 75.12 316.11C69.93 313.1 67.32 306.92 62.37 303.53C60.47 302.23 58.1 301.19 57.3 299.03C56.97 298.14 56.96 297.17 56.96 296.22C56.94 292.33 56.98 291.04 56.96 287.15C57.33 287.52 57.73 287.88 58.17 288.23Z" fill="#645D5C"/>
<path d="M28.2599 291.87C29.4999 290.45 30.8899 288.98 32.7399 288.63C32.6099 289.1 32.6599 289.58 32.8399 290.03C33.0799 290.65 33.5599 291.2 34.1199 291.54C35.0999 292.14 36.2899 292.27 37.4499 292.29C42.0899 292.38 46.3199 290.52 49.1399 288.25C49.5899 287.89 49.9999 287.52 50.3699 287.15C50.3499 291.04 50.3899 292.33 50.3699 296.22C50.3699 297.17 50.3699 298.14 50.0299 299.03C49.2299 301.19 46.8599 302.23 44.9599 303.53C40.0099 306.92 37.3999 313.1 32.2199 316.11C28.4999 318.27 23.6999 318.44 19.8399 316.56C18.7599 316.03 17.7299 315.33 17.0099 314.39C16.9199 314.27 16.8399 314.15 16.7599 314.02C15.6899 312.35 15.6899 310.17 16.2999 308.28C16.9199 306.4 18.0799 304.74 19.2499 303.14C22.0899 299.26 25.0999 295.5 28.2599 291.87Z" fill="#645D5C"/>
<path d="M34.19 285.36C38.96 285.45 44.62 285.24 49.09 284.76L49.11 284.9C49.11 286.02 49.13 287.14 49.14 288.25C46.32 290.52 42.09 292.38 37.45 292.29C36.29 292.27 35.1 292.14 34.12 291.54C33.56 291.2 33.08 290.65 32.84 290.03C33.5 288.44 33.89 287.2 34.19 285.49V285.36Z" fill="white"/>
<path d="M58.1899 285.07L58.2199 284.8C62.7399 285.26 68.4099 285.45 73.1399 285.36H73.2399L73.2599 286.04C73.5299 287.45 73.8799 288.7 74.4399 290.07H74.4699C74.2199 290.68 73.7599 291.21 73.2099 291.54C72.2299 292.14 71.0399 292.27 69.8899 292.29C65.2199 292.38 60.9899 290.51 58.1699 288.23C58.1699 287.18 58.1899 286.13 58.1899 285.07Z" fill="white"/>
<path d="M97.15 191.76C97.01 190.22 96.89 189.81 96.6 187.52C96.04 188.09 94.2 190.83 93.77 191.37C92.86 192.5 91.76 191.75 91.7 190.3C91.43 184.7 90.49 179.32 91.08 173.75L90.95 171.4C93.4 171.26 96.09 171.11 98.96 170.91H98.99L99.15 173.2C99.93 177.99 101.43 179.18 103.18 183.97C104.06 186.34 104.6 188.8 104.82 191.32C104.92 192.53 104.76 196.77 104.48 198.08C104.09 199.82 103.47 201.22 102.31 202.56C101.22 203.82 99.64 203.73 98.27 202.98C97.88 202.77 97.68 201.69 97.65 200.28C97.57 196.98 97.59 196.67 97.15 191.76Z" fill="white"/>
<path d="M8.28994 203.11C8.37994 203.07 8.46994 203.02 8.55994 202.98C8.93994 202.77 9.13994 201.69 9.17994 200.28C9.24994 196.98 9.22994 196.67 9.67994 191.76C9.80994 190.22 9.93994 189.81 10.2299 187.52C10.7899 188.09 12.6199 190.83 13.0599 191.37C13.9599 192.5 15.0599 191.75 15.1299 190.3C15.3899 184.7 16.3299 179.32 15.7499 173.75L15.7999 171.37C13.4199 171.22 10.8099 171.08 8.03994 170.89L7.73994 172.73C6.98994 177.93 5.44994 179.04 3.63994 183.98C2.76994 186.35 2.21994 188.81 1.99994 191.33C1.89994 192.54 2.05994 196.78 2.34994 198.09C2.72994 199.83 3.35994 201.23 4.50994 202.57C5.52994 203.75 6.97994 203.75 8.28994 203.12V203.11Z" fill="white"/>
<path d="M67.6899 274.63C66.3899 274.63 57.2499 274.42 54.3799 274.39L80.9699 274.21C77.7799 274.28 70.9299 274.63 67.6899 274.63Z" fill="white"/>
<path d="M52.3599 274.39C49.4699 274.42 40.3399 274.63 39.0499 274.63C35.8099 274.63 28.9699 274.28 25.7799 274.21L52.3599 274.39Z" fill="white"/>
<path d="M32.26 284.95C32.12 285.74 31.94 286.53 31.71 287.3C31.6 287.67 31.48 288.03 31.35 288.39C31.21 288.78 31.03 289.16 30.9 289.55C30.74 290.03 30.85 290.67 31.1 291.09C31.34 291.51 31.82 291.9 32.3 292.01C33.4 292.26 34.41 291.68 34.76 290.61C34.89 290.23 35.06 289.86 35.2 289.48C35.34 289.11 35.46 288.74 35.58 288.36C35.81 287.59 35.99 286.8 36.13 286.01C36.23 285.47 36.21 284.96 35.93 284.47C35.69 284.05 35.21 283.66 34.74 283.55C34.23 283.43 33.65 283.46 33.2 283.75C32.79 284.02 32.37 284.44 32.28 284.95H32.26Z" fill="#211715"/>
<path d="M51.14 288.25C51.14 287.13 51.12 286.02 51.11 284.9C51.11 284.38 50.89 283.85 50.52 283.49C50.17 283.14 49.6 282.88 49.11 282.9C48.59 282.92 48.06 283.09 47.7 283.49C47.34 283.88 47.11 284.36 47.11 284.9C47.11 286.02 47.13 287.13 47.14 288.25C47.14 288.77 47.36 289.3 47.73 289.66C48.08 290.01 48.65 290.27 49.14 290.25C49.66 290.23 50.19 290.06 50.55 289.66C50.91 289.27 51.14 288.79 51.14 288.25Z" fill="#211715"/>
<path d="M50.5499 289.66C50.9799 289.31 51.3799 288.95 51.7799 288.56L48.3699 287.15C48.3599 289.59 48.3699 292.03 48.3699 294.47C48.3699 295.63 48.5399 296.98 48.2199 298.11C47.9399 299.08 47.1299 299.73 46.3199 300.28C44.2599 301.68 42.2399 302.94 40.5099 304.75C38.8899 306.45 37.4799 308.33 35.9599 310.11C32.7399 313.86 28.6099 316.72 23.4099 315.66C21.1799 315.21 18.3399 314.1 17.9299 311.56C17.5199 308.93 19.2699 306.51 20.7199 304.5C22.6999 301.76 24.7899 299.09 26.9499 296.48C27.9599 295.26 28.9799 294.04 30.0399 292.86C30.9599 291.84 31.8799 290.88 33.2599 290.56L30.7999 288.1C30.4199 290.17 31.2699 292.16 33.0999 293.27C34.9499 294.39 37.3499 294.42 39.4299 294.21C43.5399 293.81 47.3099 292.21 50.5399 289.66C51.3899 288.99 51.2399 287.53 50.5399 286.83C49.6999 285.99 48.5599 286.16 47.7099 286.83C45.7699 288.36 43.4299 289.4 41.0199 289.93C39.6999 290.22 38.3399 290.35 36.9899 290.27C36.4999 290.24 34.4799 290.05 34.6399 289.16C34.9199 287.65 33.7499 286.33 32.1799 286.7C29.0199 287.43 26.9799 290.22 24.9999 292.58C22.6899 295.32 20.4699 298.13 18.3199 301.01C16.3299 303.68 14.2999 306.43 13.9199 309.84C13.5499 313.17 15.0899 316.07 17.9199 317.8C23.3899 321.15 30.5299 320.22 35.3999 316.28C39.7099 312.8 42.2099 307.57 46.9699 304.58C48.2299 303.79 49.5599 302.99 50.5499 301.87C51.7799 300.48 52.2499 298.86 52.3299 297.03C52.4699 293.74 52.3299 290.43 52.3299 287.14C52.3299 285.39 50.1499 284.53 48.9199 285.73C48.5199 286.12 48.1199 286.48 47.6899 286.83C45.6999 288.47 48.5399 291.28 50.5199 289.66H50.5499Z" fill="#211715"/>
<path d="M71.21 285.96C71.52 287.55 71.9 289.1 72.51 290.6C72.71 291.1 72.94 291.51 73.43 291.8C73.86 292.05 74.49 292.16 74.97 292C75.45 291.84 75.92 291.54 76.16 291.08C76.39 290.64 76.56 290.03 76.36 289.54C75.75 288.04 75.36 286.49 75.06 284.9C74.97 284.43 74.54 283.94 74.14 283.7C73.71 283.45 73.08 283.34 72.6 283.5C72.12 283.66 71.65 283.96 71.41 284.42C71.15 284.92 71.1 285.41 71.21 285.96Z" fill="#211715"/>
<path d="M56.1899 285.07C56.1899 286.12 56.1899 287.18 56.1699 288.23C56.1699 288.74 56.3999 289.28 56.7599 289.64C57.1099 289.99 57.6799 290.25 58.1699 290.23C58.6899 290.21 59.2199 290.04 59.5799 289.64C59.9399 289.24 60.1599 288.77 60.1699 288.23C60.1699 287.18 60.1899 286.12 60.1899 285.07C60.1899 284.56 59.9699 284.02 59.5999 283.66C59.2499 283.31 58.6799 283.05 58.1899 283.07C57.6699 283.09 57.1399 283.26 56.7799 283.66C56.4199 284.06 56.1899 284.53 56.1899 285.07Z" fill="#211715"/>
<path d="M59.5799 286.81C59.1599 286.47 58.7599 286.11 58.3699 285.73C57.1399 284.53 54.9499 285.39 54.9599 287.14C54.9699 290.01 54.9499 292.87 54.9599 295.74C54.9599 297.33 55.0099 298.89 55.7099 300.35C56.3599 301.7 57.5099 302.68 58.6999 303.53C59.7199 304.26 60.8499 304.83 61.8399 305.59C62.9999 306.48 64.0199 307.57 64.9799 308.66C66.7999 310.74 68.4299 313.01 70.4099 314.95C74.8499 319.31 81.3499 321.2 87.2899 318.81C90.4199 317.55 92.9599 315.32 93.3699 311.82C93.7499 308.56 92.2499 305.58 90.4299 302.99C88.1599 299.77 85.7099 296.67 83.1999 293.64C80.9999 290.99 78.6799 287.52 75.1199 286.69C73.5399 286.32 72.3999 287.64 72.6599 289.15C72.8399 290.18 70.4399 290.27 69.8899 290.28C68.5699 290.31 67.2799 290.17 65.9999 289.86C63.6899 289.31 61.4499 288.28 59.5799 286.81C58.7299 286.14 57.5799 285.98 56.7499 286.81C56.0599 287.51 55.8999 288.96 56.7499 289.64C59.8899 292.13 63.5299 293.7 67.5199 294.16C69.6099 294.4 71.9099 294.4 73.8399 293.46C75.9099 292.45 76.8899 290.31 76.5199 288.09L74.0599 290.55C76.5099 291.12 78.2499 293.94 79.7799 295.75C81.6599 298 83.4899 300.29 85.2499 302.64C86.8599 304.79 88.9999 307.2 89.3899 309.96C89.7599 312.57 88.1699 314.2 85.8599 315.09C80.9399 316.99 76.0799 315.12 72.6099 311.46C69.2499 307.93 66.7099 303.86 62.5099 301.21C61.4999 300.57 60.3399 299.98 59.5899 299.03C58.7799 297.99 58.9699 296.51 58.9699 295.28C58.9699 292.56 58.9899 289.85 58.9699 287.13L55.5599 288.54C55.9499 288.92 56.3499 289.28 56.7699 289.62C58.7499 291.24 61.5899 288.42 59.5999 286.79L59.5799 286.81Z" fill="#211715"/>
<path d="M83.22 172.75C83.22 187.16 82.42 201.55 82.23 215.96C82.02 231.49 81.45 247.02 80.8 262.54C80.49 269.87 80.2 277.21 79.75 284.53L81.22 282.6C79.55 283.12 77.74 283.17 76.01 283.26C73.57 283.39 71.13 283.4 68.69 283.36C63.82 283.29 58.83 283.14 54.04 282.18C51.53 281.68 50.45 285.53 52.98 286.04C58.12 287.07 63.46 287.29 68.7 287.37C71.21 287.41 73.73 287.39 76.23 287.26C78.23 287.15 80.37 287.07 82.29 286.47C83.18 286.19 83.7 285.45 83.76 284.54C84.62 270.57 85.09 256.56 85.57 242.57C86.06 228 86.13 213.43 86.61 198.86C86.9 190.16 87.23 181.46 87.23 172.76C87.23 170.19 83.23 170.18 83.23 172.76L83.22 172.75Z" fill="#211715"/>
<path d="M20.1799 171.48C20.1799 185.46 20.2499 199.45 20.7899 213.42C21.4099 229.62 21.9199 245.82 22.4399 262.02C22.6799 269.52 22.7899 277.04 23.2399 284.53C23.2999 285.44 23.8299 286.18 24.7099 286.46C26.5599 287.04 28.6099 287.12 30.5299 287.23C33.2399 287.38 35.9499 287.41 38.6699 287.36C43.7799 287.27 49.0199 287.06 54.0299 286.04C56.5499 285.53 55.4799 281.67 52.9699 282.18C48.2999 283.13 43.4199 283.28 38.6699 283.36C36.1699 283.4 33.6699 283.38 31.1799 283.26C29.3899 283.17 27.4999 283.13 25.7699 282.6L27.2399 284.53C26.8399 277.91 26.7399 271.26 26.5199 264.63C26.2599 256.75 26.0099 248.87 25.7499 240.98C25.2599 226.33 24.5999 211.68 24.3799 197.02C24.2499 188.51 24.1799 179.99 24.1799 171.48C24.1799 168.91 20.1799 168.9 20.1799 171.48Z" fill="#211715"/>
<path d="M51.6699 193.36C51.6699 205.63 51.4899 217.9 51.4599 230.17C51.4299 242.44 51.3899 254.82 51.3799 267.15C51.3799 270.57 51.3799 274 51.3799 277.42C51.3799 279.1 51.3799 280.79 51.4199 282.47C51.4299 283.32 51.3499 284.34 51.7599 285.12C52.9699 287.39 56.4299 285.37 55.2099 283.1C55.2499 283.18 55.3699 284.34 55.4499 283.87C55.4699 283.74 55.4399 283.57 55.4299 283.44C55.4199 283 55.4099 282.55 55.3999 282.11C55.3799 280.55 55.3699 278.98 55.3699 277.42C55.3699 274.38 55.3699 271.34 55.3699 268.31C55.3699 262.03 55.3899 255.75 55.3999 249.47C55.4299 238.26 55.4099 227.06 55.4999 215.85C55.5599 208.35 55.6499 200.86 55.6499 193.36C55.6499 190.79 51.6499 190.78 51.6499 193.36H51.6699Z" fill="#211715"/>
<path d="M62.8899 69.8499C63.0499 71.4899 63.2499 73.1299 63.5099 74.7599C63.7199 76.0499 63.9099 77.3799 64.5899 78.5299C65.3699 79.8399 66.6199 80.6799 67.9599 81.3299C69.1699 81.9099 70.3899 82.6199 71.6699 83.0599C72.6599 83.3999 73.8999 82.6699 74.1299 81.6599C74.3799 80.5499 73.7899 79.5599 72.7299 79.1999C73.4799 79.4599 72.6799 79.1699 72.4799 79.0699C72.2199 78.9499 71.9599 78.8199 71.6999 78.6999C71.1499 78.4399 70.5899 78.1699 70.0399 77.8999C69.5399 77.6599 69.0799 77.3799 68.5899 77.1099C68.4699 77.0199 68.4999 77.0499 68.6699 77.1799C68.6099 77.1299 68.5499 77.0799 68.4999 77.0299C68.3899 76.9299 68.2999 76.8299 68.1899 76.7299C68.1399 76.6799 68.0999 76.6299 68.0599 76.5799C68.2199 76.7999 68.2599 76.8399 68.1799 76.7199C68.1399 76.6099 68.0399 76.4999 67.9799 76.3999C67.9499 76.3399 67.8999 76.1599 67.8399 76.1199C67.9599 76.4099 67.9799 76.4599 67.9099 76.2599L67.8699 76.1399C67.7899 75.8999 67.7299 75.6599 67.6799 75.4199C67.5599 74.8499 67.4599 74.2699 67.3699 73.6899C67.3099 73.2999 67.2499 72.9199 67.1999 72.5299C67.2499 72.8799 67.1799 72.3799 67.1699 72.2899C67.1499 72.0999 67.1199 71.9199 67.0999 71.7299C67.0299 71.0999 66.9599 70.4699 66.8999 69.8399C66.7999 68.7999 66.0499 67.7899 64.8999 67.8399C63.8999 67.8799 62.7899 68.7299 62.8999 69.8399L62.8899 69.8499Z" fill="#211715"/>
<path d="M40.6999 69.9799C40.6199 70.8099 40.5599 71.6399 40.4699 72.4699C40.4599 72.5899 40.4399 72.7099 40.4299 72.8299C40.4599 72.6099 40.4599 72.6099 40.4299 72.8599C40.3899 73.1199 40.3499 73.3899 40.2999 73.6499C40.2499 73.9699 40.1999 74.2799 40.1499 74.5999C40.0999 74.8999 40.0499 75.1999 39.9799 75.4999C39.9499 75.6099 39.9199 75.7099 39.8899 75.8199C39.7299 76.3299 40.0599 75.5499 39.8899 75.8499C39.8199 75.9799 39.7499 76.1099 39.6699 76.2299C39.5099 76.4999 39.9999 75.8899 39.6099 76.2699C39.5499 76.3299 39.4899 76.3799 39.4299 76.4399C39.6699 76.2599 39.6999 76.2399 39.5199 76.3699C39.3499 76.4699 39.1799 76.5699 39.0099 76.6599C38.5599 76.9099 39.3999 76.5099 38.8599 76.7199C38.6799 76.7899 38.4899 76.8699 38.3099 76.9499C38.1799 77.0099 38.0399 77.0699 37.9099 77.1299C37.4799 77.3299 37.0399 77.5399 36.6099 77.7399C35.8299 78.1099 35.0499 78.4999 34.2599 78.8399C33.2999 79.2599 33.0099 80.7399 33.5399 81.5799C34.1899 82.5799 35.2499 82.7399 36.2799 82.2999C37.6099 81.7299 38.8999 81.0699 40.2099 80.4599C40.6599 80.2499 39.6599 80.6799 40.0099 80.5399C40.4399 80.3799 40.8899 80.1999 41.2899 79.9699C41.9999 79.5599 42.5799 79.0099 43.0499 78.3499C43.7199 77.4099 43.8999 76.2599 44.0699 75.1399C44.3299 73.4199 44.5299 71.7199 44.6899 69.9899C44.7899 68.9499 43.6999 67.9499 42.6899 67.9899C41.5199 68.0399 40.7899 68.8699 40.6899 69.9899L40.6999 69.9799Z" fill="#211715"/>
<path d="M22.18 171.48C39.27 171.76 56.36 171.62 73.45 171.71C77.51 171.73 81.57 171.76 85.63 171.83C88.2 171.87 88.21 167.87 85.63 167.83C68.54 167.55 51.45 167.69 34.36 167.6C30.3 167.58 26.24 167.55 22.18 167.48C19.6 167.44 19.6 171.44 22.18 171.48Z" fill="#211715"/>
<path d="M54.3799 276.39C58.5599 276.44 62.7399 276.56 66.9199 276.62C71.5999 276.69 76.2899 276.32 80.9699 276.21C83.5399 276.15 83.5499 272.15 80.9699 272.21C76.2899 272.32 71.6099 272.69 66.9199 272.62C62.7399 272.56 58.5599 272.44 54.3799 272.39C51.7999 272.36 51.7999 276.36 54.3799 276.39Z" fill="#211715"/>
<path d="M52.3599 272.39C48.1799 272.44 43.9999 272.56 39.8099 272.62C35.1299 272.69 30.4499 272.32 25.7799 272.21C23.1999 272.15 23.2099 276.15 25.7799 276.21C30.4599 276.32 35.1399 276.69 39.8099 276.62C43.9899 276.56 48.1699 276.43 52.3599 276.39C54.9299 276.36 54.9399 272.36 52.3599 272.39Z" fill="#211715"/>
<path d="M17.84 109.68C17.84 117.17 18.2 124.66 18.47 132.14C18.73 139.54 18.74 146.95 18.99 154.35C19.18 160.09 19.36 165.83 19.36 171.57C19.36 174.14 23.36 174.15 23.36 171.57C23.36 161.59 22.86 151.62 22.76 141.64C22.69 134.87 22.31 128.1 22.1 121.34C21.98 117.45 21.85 113.56 21.84 109.68C21.84 107.11 17.84 107.1 17.84 109.68Z" fill="#211715"/>
<path d="M85.14 109.68C85.14 117.12 84.78 124.56 84.52 132C84.26 139.32 84.25 146.64 84 153.95C83.8 159.82 83.62 165.69 83.62 171.57C83.62 174.14 87.62 174.15 87.62 171.57C87.62 161.57 88.12 151.58 88.22 141.59C88.29 134.84 88.67 128.09 88.88 121.34C89 117.45 89.13 113.56 89.14 109.68C89.14 107.11 85.14 107.1 85.14 109.68Z" fill="#211715"/>
<path d="M89.0799 173.75C88.7899 176.66 88.8799 179.57 89.0999 182.48C89.2099 183.97 89.3499 185.47 89.4699 186.96C89.5799 188.38 89.4699 189.99 89.8499 191.37C90.6099 194.19 93.7899 194.63 95.4899 192.37C96.3399 191.24 97.1199 189.89 98.0099 188.92L94.5999 187.51C95.0199 190.8 95.4299 193.97 95.5699 197.37C95.6399 199.05 95.5299 200.79 95.8599 202.44C96.2799 204.51 98.1999 205.54 100.23 205.52C104.55 205.47 106.34 200.19 106.66 196.63C106.99 192.87 106.83 189.2 105.79 185.54C104.49 180.93 101.7 176.97 101 172.18C100.84 171.11 99.4899 170.52 98.5399 170.78C97.3899 171.1 96.9899 172.17 97.1399 173.24C97.6399 176.7 99.1599 179.56 100.54 182.72C101.92 185.88 102.88 189.35 102.84 192.83C102.81 195.66 102.92 198.4 101.19 200.76C100.9 201.15 100.63 201.54 100.1 201.53C99.9499 201.53 99.7399 201.38 99.5999 201.4C99.1299 201.46 99.8199 201.41 99.7499 201.7C99.7999 201.48 99.6699 200.99 99.6499 200.73C99.5799 199.5 99.5999 198.27 99.5399 197.05C99.3899 193.85 98.9899 190.69 98.5799 187.51C98.3799 185.94 96.4699 184.69 95.1699 186.1C94.3099 187.03 93.6099 188.13 92.8799 189.17C92.7199 189.39 92.3799 189.72 92.3099 189.98C92.2399 190.07 92.1699 190.17 92.0999 190.26L93.6699 190.29C93.9499 190.06 93.5199 187.63 93.4799 187.19C93.1199 182.71 92.6199 178.23 93.0699 173.74C93.1799 172.66 92.0699 171.74 91.0699 171.74C89.8999 171.74 89.1799 172.66 89.0699 173.74L89.0799 173.75Z" fill="#211715"/>
<path d="M13.7499 173.75C14.1799 178.25 13.6799 182.72 13.3299 187.2C13.2899 187.75 13.2399 188.31 13.2099 188.86C13.1899 189.09 13.0099 190.13 13.1399 190.29C13.5799 190.16 14.0299 190.05 14.4799 189.95C14.6599 190.18 14.6699 190.19 14.5099 189.98C14.4299 189.74 14.1599 189.49 14.0099 189.28C13.2599 188.21 12.5299 187.06 11.6499 186.1C10.3399 184.68 8.43994 185.94 8.23994 187.51C7.85994 190.43 7.49994 193.33 7.31994 196.27C7.24994 197.35 7.22994 198.42 7.20994 199.5C7.20994 199.74 7.01994 201.67 7.04994 201.68C7.21994 201.76 7.30994 201.2 7.39994 201.33C7.39994 201.33 6.93994 201.47 6.89994 201.48C6.66994 201.52 6.49994 201.54 6.27994 201.44C5.08994 200.89 4.47994 198.51 4.25994 197.37C4.09994 196.53 4.03994 194.86 4.00994 193.71C3.89994 190.17 4.65994 186.75 5.97994 183.46C7.36994 180.01 9.11994 176.98 9.68994 173.24C9.84994 172.17 9.41994 171.09 8.28994 170.78C7.33994 170.52 5.98994 171.1 5.82994 172.18C5.54994 174.04 5.10994 175.85 4.31994 177.56C3.47994 179.37 2.59994 181.14 1.88994 183C0.399939 186.92 -0.160061 190.96 0.0699394 195.12C0.259939 198.62 1.06994 203.41 4.63994 205.07C6.36994 205.87 9.39994 205.59 10.4699 203.79C11.3999 202.23 11.1899 200.1 11.2299 198.34C11.3299 194.62 11.7799 191.09 12.2399 187.5L8.82994 188.91C9.61994 189.76 10.5399 191.33 11.4299 192.46C13.1499 194.64 16.2399 194.09 16.9899 191.35C17.3499 190.04 17.2399 188.52 17.3499 187.17C17.4699 185.68 17.6099 184.18 17.7199 182.69C17.9499 179.7 18.0599 176.71 17.7699 173.72C17.6699 172.65 16.9299 171.72 15.7699 171.72C14.7699 171.72 13.6699 172.64 13.7699 173.72L13.7499 173.75Z" fill="#211715"/>
<path d="M71.8299 82.7899C78.8299 85.5199 86.7599 88.6199 91.2099 95.0499C95.0599 100.61 96.0799 107.92 96.9599 114.5C98.6799 127.31 99.4899 140.35 100.43 153.28C100.85 159.04 101.22 164.8 101.8 170.55L103.8 168.55C98.49 169 93.1699 169.24 87.8599 169.61C85.3099 169.79 85.2899 173.79 87.8599 173.61C93.1699 173.24 98.49 173 103.8 172.55C104.79 172.47 105.92 171.7 105.8 170.55C104.58 158.51 103.99 146.4 102.98 134.35C102.43 127.77 101.84 121.18 100.97 114.63C100.07 107.79 99.0499 100.45 95.5199 94.4099C90.6799 86.1199 81.4099 82.2798 72.8799 78.9498C71.8699 78.5598 70.6899 79.3799 70.4199 80.3499C70.1099 81.4799 70.8099 82.4198 71.8199 82.8098L71.8299 82.7899Z" fill="#211715"/>
<path d="M33.7199 78.9298C25.6399 82.0898 17.0699 85.6298 11.9499 93.0298C9.20988 96.9798 7.91988 101.79 6.95988 106.44C6.25988 109.82 5.79988 113.25 5.37988 116.68C3.53988 131.69 2.68988 146.81 1.53988 161.88C1.41988 163.5 1.28988 165.12 1.15988 166.74C0.989882 168.74 0.879882 170.75 2.80988 172C3.93988 172.73 5.28988 172.7 6.58988 172.8C8.02988 172.91 9.46988 173 10.9099 173.09C13.7899 173.27 16.6799 173.42 19.5599 173.62C22.1299 173.8 22.1199 169.8 19.5599 169.62C17.1999 169.46 14.8399 169.33 12.4799 169.19C10.1199 169.05 7.62988 169.09 5.28988 168.7C5.20988 168.69 5.00988 168.72 4.94988 168.64C4.96988 168.66 5.03988 168.77 4.99988 168.66C4.93988 168.51 5.03988 168.13 5.04988 167.97C5.09988 167.37 5.14988 166.76 5.19988 166.16C5.30988 164.78 5.41988 163.41 5.52988 162.03C6.05988 155.11 6.53988 148.18 7.06988 141.26C7.62988 134.02 8.22988 126.79 9.03988 119.58C9.35988 116.69 9.71988 113.79 10.1899 110.92C10.8699 106.76 11.7099 102.4 13.4599 98.5398C17.3899 89.8798 26.4599 86.0798 34.7899 82.8198C35.7999 82.4298 36.4899 81.4798 36.1899 80.3598C35.9299 79.3998 34.7399 78.5698 33.7299 78.9598L33.7199 78.9298Z" fill="#211715"/>
<path d="M35.4499 82.55C37.5999 84.08 40.1799 85.13 42.6599 85.98C46.6399 87.36 50.8799 88.06 55.0899 87.99C59.0999 87.92 63.1799 87.29 66.9699 85.95C69.2999 85.13 71.8499 84.08 73.6299 82.3C75.4099 80.52 72.6299 77.65 70.7999 79.47C70.6399 79.63 70.4799 79.77 70.3099 79.92C70.6699 79.62 70.2699 79.95 70.1799 80C69.7799 80.26 69.3699 80.52 68.9499 80.75C67.8799 81.34 66.7599 81.8 65.5999 82.2C62.0599 83.41 58.3499 83.98 54.6199 84C48.8299 84.03 42.2599 82.5 37.4699 79.09C36.5899 78.46 35.2499 78.93 34.7299 79.81C34.1399 80.81 34.5599 81.92 35.4499 82.55Z" fill="#211715"/>
<path d="M82.44 25.34C81.87 21.82 80.67 18.41 78.78 15.37C77.73 13.67 76.48 12.11 75.08 10.69C74.52 10.12 73.66 9.29 73.08 8.78C72.15 7.97 70.09 6.58 68.22 5.55C66.86 4.8 65.43 4.16 63.97 3.65C60.73 2.51 57.32 2 53.9 2C47.15 2 41.42 3.96 36.84 7.25C31.52 11.07 25.49 17.87 25.01 28.88C24.9 31.51 25.4 35.47 25.62 36.82L25.64 36.98C26.65 36.89 27.71 37.23 28.43 37.89C28.72 37.92 29.16 37.91 29.55 37.89C30.81 37.84 32 37.08 32.73 35.49C36.18 28.32 41.78 22.68 51.07 20.35C51.95 20.13 52.99 19.97 53.73 20.41C54.82 21.06 54.45 22.5 55.36 23.3C56.32 24.14 58.07 23.8 59.39 23.35C61.41 22.66 63.37 21.84 65.23 20.91C65.49 20.99 65.64 21.04 65.64 21.04C67.06 21.48 68.81 23.13 69.82 24.29C72.59 27.69 74.39 31.58 75.05 35.58C75.19 36.99 75.92 37.84 76.3 38.04C77.2 38.52 78.25 38.71 79.65 37.89C80.34 37.27 81.33 36.93 82.3 36.97C82.32 36.88 82.32 36.83 82.32 36.83C82.71 34.48 82.94 31.9 82.81 28.89C82.76 27.7 82.64 26.51 82.45 25.34H82.44Z" fill="#645D5C"/>
<path d="M84.2399 37.35C85.5099 29.51 84.7799 21.23 80.5099 14.36C76.4799 7.86996 69.8599 3.08996 62.4999 1.10996C48.9699 -2.53004 33.9399 2.96996 26.8599 15.23C22.9199 22.05 22.4599 29.74 23.6899 37.36C23.8599 38.43 25.1899 39.02 26.1499 38.76C27.2899 38.45 27.7199 37.37 27.5499 36.3C26.6099 30.49 26.7899 24.47 29.3599 19.07C31.4899 14.61 34.9099 10.82 39.0699 8.15996C50.5699 0.819957 66.7999 3.43996 75.3799 14.01C80.4299 20.23 81.6299 28.56 80.3799 36.29C80.2099 37.35 80.6599 38.44 81.7799 38.75C82.7299 39.01 84.0699 38.42 84.2399 37.35Z" fill="#211715"/>
<path d="M65.88 18.3099C64.17 19.2399 62.41 20.0899 60.59 20.7899C59.74 21.1199 58.87 21.4599 57.98 21.6799C57.67 21.7599 57.38 21.7999 57.06 21.8099C56.9 21.8099 56.61 21.7099 56.7 21.7999C56.33 21.4499 56.28 20.4299 56 19.9599C55.54 19.1899 54.78 18.6099 53.93 18.3399C52.22 17.7999 50.27 18.4499 48.63 18.9699C42.58 20.8899 37.46 24.5899 33.78 29.7599C32.85 31.0699 32.03 32.4499 31.3 33.8799C30.9 34.6599 30.08 36.3899 29.06 35.8499C26.79 34.6499 24.76 38.0999 27.04 39.2999C28.47 40.0599 30.23 40.0599 31.69 39.3699C33.27 38.6199 34.07 37.2399 34.83 35.7499C36.21 33.0399 37.95 30.5399 40.14 28.4199C42.36 26.2799 45.02 24.5699 47.89 23.4499C48.67 23.1499 49.46 22.8799 50.25 22.6399C50.71 22.4999 52.23 21.8399 52.71 22.1299C52.54 22.0199 53.11 23.5599 53.17 23.6699C53.6 24.4799 54.27 25.0899 55.12 25.4399C57.11 26.2599 59.31 25.5099 61.22 24.7999C63.51 23.9399 65.75 22.9199 67.89 21.7499C70.15 20.5099 68.13 17.0599 65.87 18.2999L65.88 18.3099Z" fill="#211715"/>
<path d="M65.1 22.96C65.64 23.14 66.56 23.85 67.15 24.41C67.88 25.09 68.52 25.82 69.1 26.63C70.45 28.52 71.57 30.59 72.3 32.8C72.98 34.86 72.93 37.35 74.42 39.05C76.01 40.86 78.71 40.69 80.65 39.62C82.91 38.38 80.89 34.92 78.63 36.17C78.25 36.38 77.94 36.48 77.67 36.46C77.98 36.49 77.43 36.39 77.38 36.37C77.59 36.45 77.37 36.37 77.26 36.3C77.14 36.23 77.2 36.27 77.44 36.44C77.33 36.31 77.31 36.31 77.4 36.42C77.43 36.64 77.3 36.27 77.26 36.18C77.13 35.96 77.05 35.51 76.97 35.06C76.61 32.81 75.85 30.63 74.88 28.58C73.14 24.89 70.22 20.51 66.17 19.12C65.15 18.77 63.98 19.52 63.71 20.52C63.41 21.62 64.08 22.63 65.11 22.98L65.1 22.96Z" fill="#211715"/>
<path d="M81.0099 39.3099C81.7199 38.7199 82.9899 38.9199 83.4399 39.6299C83.7999 40.1999 83.7899 40.9899 83.8099 41.6599C83.8299 42.5199 83.7899 43.3799 83.6399 44.2199C83.0799 47.2599 81.5699 50.9399 78.1799 51.5499C77.1199 51.7399 76.5199 53.0399 76.7799 54.0099C77.0899 55.1299 78.1699 55.5999 79.2399 55.4099C84.7199 54.4299 87.3399 48.2599 87.7499 43.2899C87.9699 40.6799 87.6999 37.7699 85.4499 36.0899C83.2099 34.4199 80.2399 34.7499 78.1699 36.4899C77.3399 37.1799 77.4499 38.5999 78.1699 39.3199C78.9899 40.1399 80.1699 40.0099 80.9999 39.3199L81.0099 39.3099Z" fill="#211715"/>
<path d="M76.67 50.6399C76.62 51.9399 76.25 53.1999 75.84 54.4299C75.78 54.6199 75.36 55.6599 75.66 55.0099C75.54 55.2799 75.41 55.5499 75.28 55.8199C74.48 57.4099 73.51 58.9099 72.46 60.3499C70.08 63.6199 66.7 67.1699 62.66 68.1199C60.15 68.7099 61.22 72.5699 63.72 71.9799C68.82 70.7799 72.77 66.6199 75.77 62.5599C78.35 59.0599 80.47 55.0899 80.65 50.6499C80.75 48.0799 76.75 48.0799 76.65 50.6499L76.67 50.6399Z" fill="#211715"/>
<path d="M29.89 36.4799C27.81 34.7399 24.85 34.4199 22.61 36.0799C20.35 37.7499 20.09 40.6699 20.31 43.2799C20.72 48.2499 23.34 54.4199 28.82 55.3999C29.88 55.5899 30.98 55.1099 31.28 53.9999C31.55 53.0299 30.95 51.7299 29.88 51.5399C26.49 50.9299 24.98 47.2599 24.43 44.2099C24.28 43.4099 24.24 42.5999 24.26 41.7899C24.27 41.1099 24.26 40.3199 24.57 39.7199C24.99 38.9099 26.33 38.6899 27.06 39.2999C27.89 39.9899 29.08 40.1099 29.89 39.2999C30.6 38.5899 30.72 37.1699 29.89 36.4699V36.4799Z" fill="#211715"/>
<path d="M27.5799 50.4999C28.4999 55.7399 30.5099 60.7199 33.9699 64.8099C37.5799 69.0799 42.3599 72.1299 47.9799 72.7399C49.0599 72.8599 49.9799 71.7399 49.9799 70.7399C49.9799 69.5599 49.0599 68.8599 47.9799 68.7399C43.3399 68.2399 39.4299 65.2199 36.5699 61.6999C33.7099 58.1799 32.2099 53.8299 31.4399 49.4299C31.2499 48.3699 29.9499 47.7699 28.9799 48.0299C27.8599 48.3399 27.3999 49.4199 27.5799 50.4899V50.4999Z" fill="#211715"/>
<path d="M49.1599 59.0801C50.8099 59.9501 52.5799 60.3301 54.4399 60.3201C56.4299 60.3101 58.3399 59.8801 59.9099 58.6401C60.2899 58.3501 60.4999 57.6801 60.4999 57.2301C60.4999 56.7401 60.2799 56.1501 59.9099 55.8201C59.5299 55.4701 59.0299 55.2101 58.4999 55.2301C57.9299 55.2601 57.5299 55.4701 57.0899 55.8201C57.7899 55.2801 57.1399 55.7601 56.9199 55.8801C56.7499 55.9701 56.3299 56.1001 56.9799 55.8801C56.8399 55.9301 56.6999 55.9901 56.5599 56.0301C56.1699 56.1501 55.7799 56.2001 55.3899 56.3001C55.5799 56.2501 55.7899 56.2501 55.4699 56.2801C55.3499 56.2901 55.2399 56.3001 55.1199 56.3101C54.8399 56.3301 54.5599 56.3401 54.2899 56.3301C54.0399 56.3301 53.7899 56.3301 53.5399 56.3001C53.4299 56.3001 53.3099 56.2801 53.1999 56.2701C53.1399 56.2701 53.0699 56.2601 53.0099 56.2501C52.8499 56.2301 52.9299 56.2501 53.2299 56.2801C52.8999 56.1501 52.4799 56.1401 52.1299 56.0401C51.9799 55.9901 51.8299 55.9401 51.6699 55.8901C51.2499 55.7401 52.1199 56.1001 51.7299 55.9201C51.5399 55.8301 51.3599 55.7401 51.1699 55.6401C50.2499 55.1501 48.9499 55.3801 48.4299 56.3601C47.9399 57.2801 48.1599 58.5801 49.1499 59.1001L49.1599 59.0801Z" fill="#211715"/>
<path d="M53.0999 47.0601C53.3099 47.8801 53.5199 48.7101 53.6399 49.5501L53.5699 49.0201C53.5799 49.1401 53.5899 49.2501 53.5699 49.3601L53.6399 48.8301C53.6399 48.8801 53.6199 48.9301 53.5999 48.9801L53.7999 48.5001C53.7999 48.5001 53.7699 48.5701 53.7499 48.6001L54.0599 48.2001C54.0599 48.2001 54.0099 48.2601 53.9799 48.2801L54.3799 47.9701C54.3199 48.0101 54.2499 48.0401 54.1799 48.0701L54.6599 47.8701C54.5499 47.9101 54.4399 47.9501 54.3299 47.9701L54.8599 47.9001C54.7599 47.9101 54.6499 47.9101 54.5499 47.9001L55.0799 47.9701C54.9599 47.9501 54.8499 47.9301 54.7299 47.9101C54.4599 47.8301 54.1999 47.8101 53.9299 47.8701C53.6599 47.8801 53.4199 47.9601 53.1899 48.1101C52.7699 48.3501 52.3799 48.8301 52.2699 49.3001C52.1499 49.8101 52.1799 50.3901 52.4699 50.8401L52.7799 51.2401C53.0299 51.4901 53.3199 51.6601 53.6599 51.7501C53.9899 51.7901 54.3099 51.8801 54.6499 51.8901C55.1999 51.9101 55.6999 51.7401 56.1899 51.5101C56.8099 51.2201 57.2999 50.6201 57.4699 49.9601C57.6099 49.3901 57.5499 48.9401 57.4599 48.3701C57.3299 47.5701 57.1399 46.7801 56.9299 45.9901C56.7999 45.5101 56.4399 45.0501 56.0099 44.8001C55.5799 44.5501 54.9499 44.4401 54.4699 44.6001C53.9899 44.7601 53.5199 45.0601 53.2799 45.5201C53.0299 46.0001 52.9399 46.5301 53.0799 47.0601H53.0999Z" fill="#211715"/>
<path d="M40.66 39.83C40.24 41.18 40.51 44.28 43.07 44.55C46.45 44.53 46.63 40.78 45.49 39.02C44.56 37.58 41.82 36.98 40.66 39.84V39.83Z" fill="#211715"/>
<path d="M67.7099 39.83C68.1299 41.18 67.8499 44.28 65.2999 44.55C61.9199 44.53 61.7399 40.78 62.8799 39.02C63.8099 37.58 66.5499 36.98 67.7099 39.84V39.83Z" fill="#211715"/>
</g>
<defs>
<clipPath id="clip0_61_2041">
<rect width="106.82" height="319.86" fill="white"/>
</clipPath>
</defs>
</svg>
