<svg width="265" height="264" viewBox="0 0 265 264" fill="none" xmlns="http://www.w3.org/2000/svg">
<rect width="265" height="264" fill="#F06B6B"/>
<g filter="url(#filter0_b_64_3750)">
<rect width="265" height="260" rx="130" fill="#F06B6B"/>
</g>
<path d="M169.728 218.054L169.088 205.638L169.024 201.862H172.544L172.48 205.638L171.84 218.054H169.728ZM170.784 225.958C170.208 225.958 169.717 225.766 169.312 225.382C168.928 224.998 168.736 224.486 168.736 223.846C168.736 223.206 168.939 222.694 169.344 222.31C169.749 221.905 170.229 221.702 170.784 221.702C171.339 221.702 171.819 221.905 172.224 222.31C172.629 222.694 172.832 223.206 172.832 223.846C172.832 224.486 172.629 224.998 172.224 225.382C171.819 225.766 171.339 225.958 170.784 225.958Z" fill="white"/>
<path d="M139.808 205.862H142.144V226.438H139.808V205.862ZM130.944 218.502H151.296V220.646H130.944V218.502ZM128.864 225.414H153.28V227.526H128.864V225.414ZM134.048 206.406L136.288 206.598C135.925 208.945 135.307 211.004 134.432 212.774C133.579 214.545 132.437 216.017 131.008 217.19C130.901 217.041 130.731 216.881 130.496 216.71C130.283 216.54 130.059 216.369 129.824 216.198C129.589 216.006 129.387 215.857 129.216 215.75C130.603 214.748 131.68 213.446 132.448 211.846C133.216 210.246 133.749 208.433 134.048 206.406ZM133.248 211.462L134.656 210.086C135.189 210.534 135.755 211.046 136.352 211.622C136.949 212.177 137.504 212.732 138.016 213.286C138.549 213.82 138.976 214.289 139.296 214.694L137.856 216.294C137.536 215.846 137.12 215.345 136.608 214.79C136.096 214.236 135.541 213.66 134.944 213.062C134.368 212.465 133.803 211.932 133.248 211.462ZM146.944 206.406L149.12 206.662C148.757 208.881 148.128 210.844 147.232 212.55C146.336 214.236 145.184 215.644 143.776 216.774C143.669 216.625 143.509 216.465 143.296 216.294C143.083 216.102 142.859 215.91 142.624 215.718C142.411 215.526 142.219 215.388 142.048 215.302C143.392 214.321 144.459 213.084 145.248 211.59C146.059 210.076 146.624 208.348 146.944 206.406ZM145.888 211.398L147.36 209.99C148.043 210.524 148.757 211.121 149.504 211.782C150.251 212.422 150.965 213.052 151.648 213.67C152.331 214.289 152.885 214.844 153.312 215.334L151.808 216.966C151.403 216.476 150.859 215.91 150.176 215.27C149.515 214.609 148.8 213.937 148.032 213.254C147.285 212.572 146.571 211.953 145.888 211.398ZM138.496 198.918H140.96V203.846H138.496V198.918ZM127.648 202.31H153.152V204.55H127.648V202.31ZM126.368 202.31H128.736V211.206C128.736 212.444 128.693 213.798 128.608 215.27C128.544 216.721 128.405 218.214 128.192 219.75C128 221.286 127.701 222.79 127.296 224.262C126.891 225.713 126.357 227.046 125.696 228.262C125.547 228.113 125.344 227.953 125.088 227.782C124.853 227.612 124.608 227.441 124.352 227.27C124.096 227.121 123.861 227.004 123.648 226.918C124.288 225.766 124.789 224.529 125.152 223.206C125.515 221.862 125.781 220.486 125.952 219.078C126.123 217.67 126.229 216.294 126.272 214.95C126.336 213.606 126.368 212.358 126.368 211.206V202.31Z" fill="white"/>
<path d="M103.84 201.67H121.12V203.494H103.84V201.67ZM102.976 209.446H121.568V211.366H102.976V209.446ZM102.944 221.318H121.632V223.302H102.944V221.318ZM105.984 217.382H118.944V219.014H105.984V217.382ZM104.48 205.478H120.48V207.302H104.48V205.478ZM107.648 198.918H109.824V210.31H107.648V198.918ZM114.944 198.918H117.152V210.31H114.944V198.918ZM111.2 210.342H113.248V222.47H111.2V210.342ZM117.632 213.19H119.84V225.926C119.84 226.524 119.765 226.972 119.616 227.27C119.467 227.59 119.179 227.846 118.752 228.038C118.325 228.188 117.749 228.273 117.024 228.294C116.299 228.337 115.392 228.358 114.304 228.358C114.261 228.06 114.176 227.729 114.048 227.366C113.941 227.004 113.813 226.684 113.664 226.406C114.453 226.428 115.168 226.438 115.808 226.438C116.448 226.46 116.875 226.46 117.088 226.438C117.301 226.417 117.44 226.364 117.504 226.278C117.589 226.214 117.632 226.086 117.632 225.894V213.19ZM104.896 213.19H118.464V214.982H106.976V228.358H104.896V213.19ZM93.408 208.774H101.92V210.694H93.408V208.774ZM93.568 200.038H101.792V201.958H93.568V200.038ZM93.408 213.158H101.92V215.046H93.408V213.158ZM92 204.326H102.752V206.31H92V204.326ZM94.528 217.542H102.048V226.854H94.528V224.902H99.968V219.526H94.528V217.542ZM93.344 217.542H95.392V228.326H93.344V217.542Z" fill="white"/>
<path d="M187.5 162.606C187.5 165.647 186.917 168.501 185.75 171.168C184.625 173.835 183.062 176.168 181.062 178.168C179.062 180.168 176.729 181.751 174.062 182.918C171.396 184.043 168.542 184.606 165.5 184.606H161.688C158.646 184.606 155.771 184.043 153.062 182.918C150.396 181.751 148.062 180.168 146.062 178.168C144.062 176.168 142.479 173.835 141.312 171.168C140.188 168.501 139.625 165.647 139.625 162.606V155.168C139.625 151.376 140.5 147.918 142.25 144.793C144.042 141.626 146.375 139.043 149.25 137.043C146.375 135.043 144.042 132.46 142.25 129.293C140.5 126.126 139.625 122.647 139.625 118.856V114.481C139.625 111.439 140.188 108.585 141.312 105.918C142.479 103.251 144.062 100.918 146.062 98.918C148.062 96.918 150.396 95.3555 153.062 94.2305C155.771 93.0639 158.646 92.4805 161.688 92.4805H165.5C168.542 92.4805 171.396 93.0639 174.062 94.2305C176.729 95.3555 179.062 96.918 181.062 98.918C183.062 100.918 184.625 103.251 185.75 105.918C186.917 108.585 187.5 111.439 187.5 114.481V118.856C187.5 122.647 186.625 126.126 184.875 129.293C183.125 132.46 180.812 135.043 177.938 137.043C180.812 139.043 183.125 141.626 184.875 144.793C186.625 147.918 187.5 151.376 187.5 155.168V162.606ZM179.438 114.481C179.438 112.481 179.062 110.626 178.312 108.918C177.562 107.168 176.542 105.647 175.25 104.356C173.958 103.064 172.438 102.043 170.688 101.293C168.979 100.543 167.125 100.168 165.125 100.168H162.062C160.062 100.168 158.188 100.543 156.438 101.293C154.729 102.043 153.208 103.064 151.875 104.356C150.583 105.647 149.562 107.168 148.812 108.918C148.062 110.626 147.688 112.481 147.688 114.481V118.856C147.688 120.856 148.062 122.731 148.812 124.481C149.562 126.189 150.583 127.689 151.875 128.981C153.208 130.272 154.729 131.293 156.438 132.043C158.188 132.793 160.062 133.168 162.062 133.168H165.125C167.125 133.168 168.979 132.793 170.688 132.043C172.438 131.293 173.958 130.272 175.25 128.981C176.542 127.689 177.562 126.189 178.312 124.481C179.062 122.731 179.438 120.856 179.438 118.856V114.481ZM179.438 155.168C179.438 153.168 179.062 151.314 178.312 149.606C177.562 147.856 176.542 146.335 175.25 145.043C173.958 143.751 172.438 142.731 170.688 141.981C168.979 141.231 167.125 140.856 165.125 140.856H162.062C160.062 140.856 158.188 141.231 156.438 141.981C154.729 142.731 153.208 143.751 151.875 145.043C150.583 146.335 149.562 147.856 148.812 149.606C148.062 151.314 147.688 153.168 147.688 155.168V162.606C147.688 164.606 148.062 166.481 148.812 168.231C149.562 169.939 150.583 171.46 151.875 172.793C153.208 174.085 154.729 175.106 156.438 175.856C158.188 176.606 160.062 176.981 162.062 176.981H165.125C167.125 176.981 168.979 176.606 170.688 175.856C172.438 175.106 173.958 174.085 175.25 172.793C176.542 171.46 177.562 169.939 178.312 168.231C179.062 166.481 179.438 164.606 179.438 162.606V155.168Z" fill="white"/>
<path d="M114.062 167.856V183.356H106V167.856H70V164.043L109.812 93.7305H114.062V160.168H121.75V167.856H114.062ZM106 115.793L81.3125 160.168H106V115.793Z" fill="white"/>
<path d="M140.64 32.7615H143.44V69.4015H140.64V32.7615ZM134.2 46.0815H150V48.8815H134.2V46.0815ZM140.24 47.5615L142.04 48.3215C141.693 49.7081 141.253 51.1481 140.72 52.6415C140.213 54.1081 139.653 55.5615 139.04 57.0015C138.427 58.4415 137.787 59.8015 137.12 61.0815C136.453 62.3348 135.787 63.4148 135.12 64.3215C135.013 64.0282 134.867 63.7081 134.68 63.3615C134.52 63.0148 134.333 62.6681 134.12 62.3215C133.933 61.9481 133.747 61.6415 133.56 61.4015C134.413 60.3615 135.267 59.0548 136.12 57.4815C137 55.9081 137.8 54.2548 138.52 52.5215C139.24 50.7615 139.813 49.1081 140.24 47.5615ZM143.4 49.4015C143.613 49.6415 143.92 50.0281 144.32 50.5615C144.747 51.0948 145.213 51.6948 145.72 52.3615C146.253 53.0281 146.773 53.6948 147.28 54.3615C147.787 55.0281 148.24 55.6415 148.64 56.2015C149.04 56.7348 149.32 57.1348 149.48 57.4015L147.48 59.7615C147.24 59.2281 146.88 58.5481 146.4 57.7215C145.92 56.8681 145.387 55.9881 144.8 55.0815C144.24 54.1481 143.693 53.2815 143.16 52.4815C142.653 51.6815 142.24 51.0681 141.92 50.6415L143.4 49.4015ZM134.48 35.7615L136.68 35.1615C137.08 36.0948 137.427 37.0948 137.72 38.1615C138.04 39.2281 138.32 40.2681 138.56 41.2815C138.8 42.2948 138.96 43.2148 139.04 44.0415L136.64 44.6415C136.613 43.8415 136.48 42.9348 136.24 41.9215C136.027 40.8815 135.76 39.8281 135.44 38.7615C135.147 37.6681 134.827 36.6681 134.48 35.7615ZM147.4 35.0415L150.04 35.7215C149.72 36.7081 149.36 37.7615 148.96 38.8815C148.587 39.9748 148.2 41.0415 147.8 42.0815C147.427 43.0948 147.067 43.9881 146.72 44.7615L144.76 44.1215C145.08 43.3215 145.4 42.3881 145.72 41.3215C146.067 40.2281 146.387 39.1348 146.68 38.0415C147 36.9215 147.24 35.9215 147.4 35.0415ZM162.92 32.6415H165.8V69.4015H162.92V32.6415ZM149.92 58.1215L170.48 54.4015L170.96 57.1615L150.44 60.8815L149.92 58.1215ZM152.96 37.5615L154.48 35.4815C155.253 35.9348 156.04 36.4548 156.84 37.0415C157.667 37.6015 158.44 38.1748 159.16 38.7615C159.88 39.3481 160.453 39.8948 160.88 40.4015L159.28 42.6815C158.88 42.1748 158.32 41.6148 157.6 41.0015C156.907 40.3881 156.147 39.7748 155.32 39.1615C154.52 38.5481 153.733 38.0148 152.96 37.5615ZM150.92 47.6415L152.32 45.5215C153.12 45.9215 153.947 46.3881 154.8 46.9215C155.653 47.4281 156.467 47.9615 157.24 48.5215C158.013 49.0548 158.627 49.5615 159.08 50.0415L157.6 52.4415C157.12 51.9615 156.507 51.4415 155.76 50.8815C155.013 50.2948 154.213 49.7215 153.36 49.1615C152.533 48.5748 151.72 48.0681 150.92 47.6415Z" fill="white"/>
<path d="M102.56 32.6415L105.48 33.4815C104.76 34.9748 103.907 36.4415 102.92 37.8815C101.933 39.2948 100.88 40.6148 99.76 41.8415C98.6667 43.0681 97.56 44.1481 96.44 45.0815C96.28 44.8948 96.04 44.6815 95.72 44.4415C95.4267 44.1748 95.12 43.9215 94.8 43.6815C94.5067 43.4415 94.24 43.2548 94 43.1215C95.7067 41.8415 97.32 40.2815 98.84 38.4415C100.36 36.6015 101.6 34.6681 102.56 32.6415ZM101.16 37.2415H128.72V39.9615H100.16L101.16 37.2415ZM94.48 46.6815H130.2V49.4415H94.48V46.6815ZM95.08 56.2415H129.68V59.0015H95.08V56.2415ZM107.2 38.1615H109.84V57.5615H107.2V38.1615ZM100.08 38.1615H102.76V57.6815H100.08V38.1615ZM114.44 38.1615H117.04V57.6815H114.44V38.1615ZM121.76 38.1615H124.56V57.6815H121.76V38.1615ZM106.12 61.7215L108.88 61.4415C109.147 62.6148 109.373 63.8815 109.56 65.2415C109.747 66.6015 109.853 67.7481 109.88 68.6815L106.96 69.0815C106.96 68.4415 106.92 67.6948 106.84 66.8415C106.787 66.0148 106.693 65.1481 106.56 64.2415C106.453 63.3348 106.307 62.4948 106.12 61.7215ZM114.28 61.7215L117.08 61.2015C117.453 61.9748 117.813 62.8148 118.16 63.7215C118.507 64.6015 118.813 65.4548 119.08 66.2815C119.347 67.1081 119.547 67.8415 119.68 68.4815L116.72 69.1215C116.533 68.1615 116.213 66.9881 115.76 65.6015C115.307 64.2148 114.813 62.9215 114.28 61.7215ZM122.44 61.4415L125.28 60.5215C125.947 61.2948 126.627 62.1615 127.32 63.1215C128.013 64.0815 128.653 65.0281 129.24 65.9615C129.853 66.8681 130.333 67.6948 130.68 68.4415L127.72 69.5215C127.4 68.8015 126.947 67.9748 126.36 67.0415C125.8 66.1081 125.173 65.1481 124.48 64.1615C123.787 63.1748 123.107 62.2681 122.44 61.4415ZM99.12 60.6815L102 61.4015C101.467 62.8948 100.773 64.3748 99.92 65.8415C99.0667 67.3081 98.0933 68.5215 97 69.4815L94.2 68.3215C95.24 67.4682 96.2 66.3481 97.08 64.9615C97.96 63.5748 98.64 62.1481 99.12 60.6815Z" fill="white"/>
<defs>
<filter id="filter0_b_64_3750" x="-4" y="-4" width="273" height="268" filterUnits="userSpaceOnUse" color-interpolation-filters="sRGB">
<feFlood flood-opacity="0" result="BackgroundImageFix"/>
<feGaussianBlur in="BackgroundImageFix" stdDeviation="2"/>
<feComposite in2="SourceAlpha" operator="in" result="effect1_backgroundBlur_64_3750"/>
<feBlend mode="normal" in="SourceGraphic" in2="effect1_backgroundBlur_64_3750" result="shape"/>
</filter>
</defs>
</svg>
