<svg width="318" height="161" viewBox="0 0 318 161" fill="none" xmlns="http://www.w3.org/2000/svg">
<path d="M311.929 148.021L311.098 133.408L310.9 127.864H316.761L316.563 133.408L315.731 148.021H311.929ZM313.83 158.554C312.774 158.554 311.903 158.185 311.217 157.446C310.557 156.706 310.227 155.809 310.227 154.753C310.227 153.644 310.557 152.733 311.217 152.02C311.903 151.308 312.774 150.951 313.83 150.951C314.886 150.951 315.744 151.308 316.404 152.02C317.091 152.733 317.434 153.644 317.434 154.753C317.434 155.809 317.091 156.706 316.404 157.446C315.744 158.185 314.886 158.554 313.83 158.554Z" fill="#333333"/>
<path d="M258.152 130.834C258.944 130.808 259.697 130.782 260.41 130.755C261.122 130.702 261.664 130.663 262.033 130.636C262.852 130.584 263.855 130.504 265.043 130.399C266.257 130.267 267.604 130.135 269.082 130.003C270.587 129.871 272.184 129.739 273.874 129.607C275.563 129.475 277.319 129.33 279.14 129.171C280.513 129.039 281.873 128.934 283.219 128.854C284.592 128.749 285.886 128.67 287.1 128.617C288.341 128.538 289.423 128.485 290.347 128.458L290.387 133.527C289.674 133.527 288.856 133.54 287.932 133.567C287.008 133.593 286.084 133.646 285.16 133.725C284.262 133.778 283.457 133.897 282.744 134.082C281.556 134.398 280.447 134.94 279.418 135.705C278.388 136.444 277.49 137.329 276.725 138.358C275.986 139.362 275.405 140.457 274.982 141.645C274.56 142.807 274.349 143.982 274.349 145.17C274.349 146.463 274.573 147.612 275.022 148.615C275.497 149.592 276.131 150.436 276.923 151.149C277.741 151.836 278.692 152.416 279.774 152.892C280.856 153.34 282.018 153.684 283.259 153.921C284.526 154.159 285.833 154.317 287.179 154.396L285.318 159.822C283.655 159.716 282.031 159.452 280.447 159.03C278.89 158.607 277.424 158.026 276.052 157.287C274.679 156.548 273.478 155.65 272.448 154.594C271.445 153.512 270.64 152.284 270.032 150.912C269.452 149.512 269.161 147.955 269.161 146.239C269.161 144.338 269.465 142.596 270.072 141.012C270.679 139.401 271.432 138.002 272.329 136.814C273.253 135.6 274.164 134.662 275.062 134.002C274.322 134.108 273.425 134.214 272.369 134.319C271.339 134.425 270.217 134.557 269.003 134.715C267.815 134.847 266.6 134.992 265.36 135.151C264.119 135.309 262.918 135.494 261.756 135.705C260.621 135.89 259.591 136.075 258.667 136.26L258.152 130.834ZM284.724 137.408C285.067 137.883 285.424 138.451 285.793 139.111C286.189 139.744 286.572 140.391 286.942 141.051C287.311 141.685 287.628 142.266 287.892 142.794L284.882 144.14C284.381 143.031 283.892 142.054 283.417 141.21C282.968 140.365 282.427 139.507 281.794 138.636L284.724 137.408ZM289.159 135.586C289.502 136.062 289.872 136.616 290.268 137.25C290.69 137.857 291.1 138.49 291.496 139.15C291.892 139.784 292.222 140.352 292.486 140.853L289.516 142.279C288.988 141.223 288.473 140.286 287.971 139.467C287.496 138.649 286.928 137.804 286.268 136.933L289.159 135.586Z" fill="#333333"/>
<path d="M213.88 127.904C214.566 128.379 215.371 128.96 216.295 129.646C217.219 130.333 218.17 131.085 219.146 131.904C220.15 132.696 221.087 133.474 221.958 134.24C222.829 135.006 223.542 135.692 224.096 136.299L220.057 140.418C219.556 139.863 218.896 139.203 218.077 138.438C217.259 137.672 216.374 136.88 215.424 136.062C214.474 135.243 213.536 134.464 212.612 133.725C211.688 132.986 210.87 132.366 210.157 131.864L213.88 127.904ZM208.93 154.278C210.989 153.987 212.929 153.578 214.751 153.05C216.572 152.522 218.262 151.915 219.82 151.228C221.377 150.542 222.803 149.829 224.096 149.09C226.34 147.744 228.4 146.212 230.274 144.496C232.148 142.78 233.785 140.998 235.184 139.15C236.584 137.276 237.692 135.454 238.511 133.686L241.6 139.269C240.596 141.038 239.356 142.807 237.877 144.576C236.425 146.344 234.775 148.034 232.927 149.644C231.079 151.228 229.086 152.654 226.948 153.921C225.601 154.74 224.149 155.518 222.592 156.258C221.034 156.97 219.384 157.604 217.642 158.158C215.926 158.739 214.13 159.188 212.256 159.505L208.93 154.278Z" fill="#333333"/>
<path d="M155.707 142.596C159.271 141.672 162.492 140.602 165.37 139.388C168.274 138.147 170.821 136.854 173.012 135.507C174.385 134.662 175.758 133.699 177.131 132.616C178.53 131.508 179.837 130.372 181.051 129.211C182.292 128.049 183.335 126.94 184.18 125.884L188.456 129.963C187.242 131.151 185.909 132.352 184.457 133.567C183.031 134.781 181.54 135.943 179.982 137.052C178.424 138.16 176.88 139.177 175.349 140.101C173.844 140.972 172.154 141.87 170.28 142.794C168.432 143.718 166.478 144.589 164.419 145.407C162.36 146.226 160.288 146.952 158.202 147.585L155.707 142.596ZM172.181 138.042L177.804 136.735V154.555C177.804 155.136 177.817 155.769 177.844 156.456C177.87 157.142 177.91 157.776 177.962 158.356C178.015 158.964 178.081 159.426 178.16 159.742H171.904C171.956 159.426 171.996 158.964 172.022 158.356C172.075 157.776 172.115 157.142 172.141 156.456C172.168 155.769 172.181 155.136 172.181 154.555V138.042Z" fill="#333333"/>
<path d="M110.999 127.627C111.553 127.706 112.213 127.759 112.979 127.785C113.745 127.812 114.457 127.825 115.117 127.825C115.619 127.825 116.385 127.825 117.414 127.825C118.47 127.825 119.632 127.825 120.899 127.825C122.193 127.825 123.473 127.825 124.74 127.825C126.007 127.825 127.143 127.825 128.146 127.825C129.149 127.825 129.888 127.825 130.363 127.825C130.971 127.825 131.697 127.812 132.541 127.785C133.386 127.759 134.086 127.706 134.64 127.627V132.735C134.112 132.682 133.426 132.656 132.581 132.656C131.763 132.63 130.997 132.616 130.284 132.616C129.862 132.616 129.136 132.616 128.106 132.616C127.103 132.616 125.955 132.616 124.661 132.616C123.394 132.616 122.113 132.616 120.82 132.616C119.553 132.616 118.404 132.616 117.375 132.616C116.345 132.616 115.593 132.616 115.117 132.616C114.484 132.616 113.784 132.63 113.019 132.656C112.279 132.682 111.606 132.709 110.999 132.735V127.627ZM137.967 139.111C137.835 139.375 137.689 139.665 137.531 139.982C137.399 140.299 137.293 140.563 137.214 140.774C136.607 142.675 135.841 144.576 134.917 146.476C134.02 148.351 132.832 150.106 131.353 151.743C129.373 153.961 127.156 155.769 124.701 157.168C122.245 158.541 119.751 159.584 117.216 160.297L113.296 155.822C116.279 155.188 118.932 154.264 121.255 153.05C123.579 151.836 125.493 150.45 126.997 148.892C128.053 147.81 128.898 146.674 129.532 145.486C130.192 144.272 130.707 143.124 131.076 142.041C130.786 142.041 130.284 142.041 129.571 142.041C128.859 142.041 128.001 142.041 126.997 142.041C126.021 142.041 124.965 142.041 123.829 142.041C122.694 142.041 121.533 142.041 120.345 142.041C119.157 142.041 118.021 142.041 116.939 142.041C115.857 142.041 114.88 142.041 114.009 142.041C113.164 142.041 112.477 142.041 111.949 142.041C111.474 142.041 110.801 142.054 109.93 142.081C109.059 142.107 108.201 142.16 107.356 142.239V137.091C108.201 137.144 109.019 137.197 109.811 137.25C110.629 137.302 111.342 137.329 111.949 137.329C112.345 137.329 112.939 137.329 113.731 137.329C114.55 137.329 115.487 137.329 116.543 137.329C117.599 137.329 118.721 137.329 119.909 137.329C121.123 137.329 122.325 137.329 123.513 137.329C124.727 137.329 125.875 137.329 126.958 137.329C128.04 137.329 128.977 137.329 129.769 137.329C130.561 137.329 131.155 137.329 131.551 137.329C132.185 137.329 132.753 137.289 133.254 137.21C133.782 137.131 134.178 137.038 134.442 136.933L137.967 139.111Z" fill="#333333"/>
<path d="M60.6277 127.904C61.3141 128.379 62.1193 128.96 63.0433 129.646C63.9673 130.333 64.9177 131.085 65.8945 131.904C66.8977 132.696 67.8349 133.474 68.7061 134.24C69.5773 135.006 70.2901 135.692 70.8445 136.299L66.8053 140.418C66.3037 139.863 65.6437 139.203 64.8253 138.438C64.0069 137.672 63.1225 136.88 62.1721 136.062C61.2217 135.243 60.2845 134.464 59.3605 133.725C58.4365 132.986 57.6181 132.366 56.9053 131.864L60.6277 127.904ZM55.6777 154.278C57.7369 153.987 59.6773 153.578 61.4989 153.05C63.3205 152.522 65.0101 151.915 66.5677 151.228C68.1253 150.542 69.5509 149.829 70.8445 149.09C73.0885 147.744 75.1477 146.212 77.0221 144.496C78.8965 142.78 80.5333 140.998 81.9325 139.15C83.3317 137.276 84.4405 135.454 85.2589 133.686L88.3477 139.269C87.3445 141.038 86.1037 142.807 84.6253 144.576C83.1733 146.344 81.5233 148.034 79.6753 149.644C77.8273 151.228 75.8341 152.654 73.6957 153.921C72.3493 154.74 70.8973 155.518 69.3397 156.258C67.7821 156.97 66.1321 157.604 64.3897 158.158C62.6737 158.739 60.8785 159.188 59.0041 159.505L55.6777 154.278Z" fill="#333333"/>
<path d="M27.0864 126.28C27.0072 126.888 26.9412 127.548 26.8884 128.26C26.862 128.973 26.8488 129.646 26.8488 130.28C26.8752 131.389 26.9016 132.59 26.928 133.884C26.9544 135.177 26.9808 136.55 27.0072 138.002C27.06 139.454 27.0996 140.946 27.126 142.477C27.1524 143.982 27.1788 145.5 27.2052 147.031C27.2316 148.536 27.258 150.027 27.2844 151.506C27.3108 152.958 27.3372 154.357 27.3636 155.703C27.39 156.97 27.0336 157.947 26.2944 158.634C25.5552 159.346 24.4332 159.703 22.9284 159.703C21.7404 159.703 20.5788 159.676 19.4436 159.624C18.3084 159.597 17.1732 159.544 16.038 159.465L15.6024 154.317C16.5 154.476 17.4372 154.594 18.414 154.674C19.3908 154.753 20.2092 154.792 20.8692 154.792C21.3708 154.792 21.7272 154.66 21.9384 154.396C22.1496 154.132 22.2552 153.71 22.2552 153.129C22.2552 152.232 22.2552 151.202 22.2552 150.04C22.2552 148.852 22.242 147.598 22.2156 146.278C22.2156 144.932 22.2024 143.559 22.176 142.16C22.1496 140.734 22.1232 139.322 22.0968 137.923C22.0704 136.524 22.0308 135.177 21.978 133.884C21.9516 132.59 21.912 131.389 21.8592 130.28C21.8064 129.409 21.7404 128.656 21.6612 128.023C21.6084 127.363 21.5424 126.782 21.4632 126.28H27.0864ZM4.47478 132.854C5.05558 132.933 5.75518 132.999 6.57358 133.052C7.41838 133.105 8.18398 133.131 8.87038 133.131C9.26638 133.131 9.93958 133.131 10.89 133.131C11.8404 133.131 12.9624 133.131 14.256 133.131C15.576 133.131 16.9752 133.131 18.4536 133.131C19.932 133.131 21.3972 133.131 22.8492 133.131C24.3012 133.131 25.6608 133.131 26.928 133.131C28.1952 133.131 29.2644 133.131 30.1356 133.131C31.0068 133.131 31.5744 133.131 31.8384 133.131C32.472 133.131 33.198 133.105 34.0164 133.052C34.8348 132.973 35.4816 132.894 35.9568 132.814V138.081C35.3232 138.055 34.65 138.028 33.9372 138.002C33.2508 137.976 32.6436 137.962 32.1156 137.962C31.878 137.962 31.3236 137.962 30.4524 137.962C29.5812 137.962 28.4988 137.962 27.2052 137.962C25.938 137.962 24.552 137.962 23.0472 137.962C21.5424 137.962 20.0244 137.962 18.4932 137.962C16.9884 137.962 15.5628 137.962 14.2164 137.962C12.8964 137.962 11.7744 137.962 10.8504 137.962C9.92638 137.962 9.30598 137.962 8.98918 137.962C8.27638 137.962 7.52398 137.976 6.73198 138.002C5.93998 138.028 5.18758 138.068 4.47478 138.121V132.854ZM2.37598 151.704C4.43518 150.727 6.40198 149.631 8.27638 148.417C10.1508 147.202 11.8668 145.935 13.4244 144.615C14.982 143.295 16.3548 141.988 17.5428 140.695C18.7572 139.375 19.7208 138.134 20.4336 136.972L23.0076 137.012L23.0472 141.21C22.2552 142.424 21.2388 143.691 19.998 145.011C18.7572 146.331 17.3844 147.651 15.8796 148.971C14.3748 150.291 12.7776 151.545 11.088 152.733C9.39838 153.895 7.70878 154.924 6.01918 155.822L2.37598 151.704Z" fill="#333333"/>
<path d="M274.666 64.2408C274.534 64.9536 274.322 65.8776 274.032 67.0128C273.742 68.148 273.319 69.4284 272.765 70.854C272.342 71.8308 271.854 72.8472 271.3 73.9032C270.772 74.9328 270.23 75.8568 269.676 76.6752C270.019 76.5168 270.455 76.3848 270.983 76.2792C271.511 76.1472 272.052 76.0548 272.606 76.002C273.187 75.9228 273.702 75.8832 274.151 75.8832C275.814 75.8832 277.187 76.3584 278.269 77.3088C279.378 78.2592 279.932 79.6716 279.932 81.546C279.932 82.074 279.932 82.7208 279.932 83.4864C279.959 84.252 279.985 85.0572 280.012 85.902C280.038 86.7204 280.064 87.5256 280.091 88.3176C280.117 89.1096 280.13 89.8224 280.13 90.456H275.378C275.431 90.0072 275.458 89.4792 275.458 88.872C275.484 88.2384 275.497 87.5784 275.497 86.892C275.524 86.2056 275.537 85.5456 275.537 84.912C275.563 84.252 275.576 83.658 275.576 83.13C275.576 81.8628 275.233 80.9916 274.547 80.5164C273.887 80.0148 273.148 79.764 272.329 79.764C271.22 79.764 270.098 80.0412 268.963 80.5956C267.854 81.1236 266.917 81.7572 266.152 82.4964C265.571 83.0772 264.977 83.724 264.37 84.4368C263.789 85.1496 263.155 85.9548 262.469 86.8524L258.232 83.6844C259.948 82.1004 261.426 80.5692 262.667 79.0908C263.934 77.6124 265.003 76.1472 265.874 74.6952C266.746 73.2432 267.458 71.7912 268.013 70.3392C268.409 69.2832 268.726 68.1876 268.963 67.0524C269.227 65.8908 269.386 64.8084 269.438 63.8052L274.666 64.2408ZM259.776 67.884C260.779 68.0424 261.941 68.1612 263.261 68.2404C264.581 68.3196 265.742 68.3592 266.746 68.3592C268.488 68.3592 270.389 68.3196 272.448 68.2404C274.534 68.1612 276.646 68.0292 278.784 67.8444C280.922 67.6332 282.955 67.3692 284.882 67.0524L284.843 71.646C283.444 71.8308 281.926 72.0024 280.289 72.1608C278.678 72.2928 277.028 72.4116 275.339 72.5172C273.676 72.5964 272.078 72.6624 270.547 72.7152C269.016 72.7416 267.656 72.7548 266.468 72.7548C265.94 72.7548 265.28 72.7548 264.488 72.7548C263.723 72.7284 262.931 72.702 262.112 72.6756C261.294 72.6228 260.515 72.57 259.776 72.5172V67.884ZM291.139 79.1304C290.717 79.2624 290.215 79.434 289.634 79.6452C289.08 79.83 288.512 80.028 287.932 80.2392C287.377 80.424 286.876 80.6088 286.427 80.7936C285.16 81.2952 283.655 81.9024 281.912 82.6152C280.196 83.328 278.401 84.1596 276.527 85.11C275.339 85.7436 274.336 86.364 273.517 86.9712C272.699 87.5784 272.078 88.1988 271.656 88.8324C271.234 89.4396 271.022 90.1128 271.022 90.852C271.022 91.4064 271.141 91.8684 271.379 92.238C271.616 92.5812 271.973 92.8584 272.448 93.0696C272.923 93.2808 273.517 93.426 274.23 93.5052C274.943 93.5844 275.788 93.624 276.764 93.624C278.454 93.624 280.315 93.5316 282.348 93.3468C284.381 93.1356 286.268 92.8584 288.011 92.5152L287.852 97.6236C287.008 97.7292 285.938 97.8348 284.645 97.9404C283.351 98.0724 282.005 98.1648 280.606 98.2176C279.233 98.2704 277.913 98.2968 276.646 98.2968C274.586 98.2968 272.738 98.0988 271.102 97.7028C269.465 97.3068 268.171 96.6336 267.221 95.6832C266.297 94.7064 265.835 93.3732 265.835 91.6836C265.835 90.3108 266.138 89.07 266.746 87.9612C267.379 86.8524 268.211 85.8492 269.24 84.9516C270.27 84.054 271.392 83.2488 272.606 82.536C273.847 81.7968 275.062 81.1236 276.25 80.5164C277.464 79.8828 278.56 79.3416 279.536 78.8928C280.513 78.444 281.424 78.048 282.269 77.7048C283.14 77.3352 283.972 76.9656 284.764 76.596C285.529 76.2528 286.268 75.9228 286.981 75.606C287.694 75.2628 288.42 74.9064 289.159 74.5368L291.139 79.1304Z" fill="#333333"/>
<path d="M233.007 66.3396C233.191 67.5804 233.455 68.9004 233.799 70.2996C234.168 71.6724 234.657 73.0848 235.264 74.5368C235.897 75.9888 236.716 77.4408 237.719 78.8928C238.722 80.3448 239.976 81.7704 241.481 83.1696L238.273 87.7236C236.821 86.1132 235.488 84.318 234.274 82.338C233.086 80.3316 231.977 78.114 230.947 75.6852C229.918 73.2564 228.941 70.6032 228.017 67.7256L233.007 66.3396ZM206.95 68.3196C207.663 68.3724 208.402 68.3724 209.167 68.3196C210.118 68.2668 211.2 68.1876 212.415 68.082C213.629 67.95 214.857 67.8048 216.097 67.6464C217.338 67.4616 218.487 67.2636 219.543 67.0524C220.599 66.8148 221.457 66.5772 222.117 66.3396L223.621 70.7352C223.331 70.8408 223.001 70.9728 222.631 71.1312C222.262 71.2632 221.918 71.4216 221.602 71.6064C221.074 72.0024 220.453 72.57 219.741 73.3092C219.054 74.022 218.341 74.8668 217.602 75.8436C216.889 76.8204 216.229 77.916 215.622 79.1304C215.015 80.3184 214.513 81.612 214.117 83.0112C213.748 84.384 213.563 85.836 213.563 87.3672C213.563 88.5288 213.734 89.5188 214.078 90.3372C214.447 91.1556 214.936 91.8156 215.543 92.3172C216.15 92.8188 216.876 93.2016 217.721 93.4656C218.566 93.7032 219.45 93.822 220.374 93.822C223.384 93.822 225.681 92.7924 227.265 90.7332C228.875 88.674 229.773 85.77 229.957 82.0212C230.169 78.246 229.693 73.8504 228.532 68.8344L233.165 76.398C233.587 78.5364 233.825 80.688 233.878 82.8528C233.957 84.9912 233.785 87.0372 233.363 88.9908C232.94 90.9444 232.201 92.6868 231.145 94.218C230.089 95.7492 228.664 96.9504 226.868 97.8216C225.1 98.6928 222.909 99.1284 220.295 99.1284C218.685 99.1284 217.167 98.904 215.741 98.4552C214.342 98.0328 213.088 97.3728 211.979 96.4752C210.897 95.604 210.039 94.5084 209.405 93.1884C208.798 91.842 208.494 90.2712 208.494 88.476C208.494 86.8656 208.652 85.3476 208.969 83.922C209.286 82.4964 209.722 81.15 210.276 79.8828C210.857 78.5892 211.53 77.3352 212.296 76.1208C213.088 74.9064 213.933 73.7052 214.83 72.5172C214.355 72.5436 213.774 72.5964 213.088 72.6756C212.428 72.7548 211.781 72.834 211.147 72.9132C210.54 72.9924 210.039 73.0584 209.643 73.1112C209.247 73.164 208.864 73.2168 208.494 73.2696C208.151 73.3224 207.755 73.3884 207.306 73.4676L206.95 68.3196ZM236.571 64.1616C236.808 64.6896 237.072 65.2968 237.363 65.9832C237.653 66.6696 237.93 67.356 238.194 68.0424C238.458 68.7024 238.683 69.3096 238.867 69.864L235.897 70.854C235.686 70.2204 235.449 69.5736 235.185 68.9136C234.947 68.2272 234.696 67.554 234.432 66.894C234.168 66.234 233.891 65.6268 233.601 65.0724L236.571 64.1616ZM240.808 62.6568C241.257 63.4752 241.692 64.4388 242.115 65.5476C242.563 66.63 242.946 67.5672 243.263 68.3592L240.293 69.3492C239.976 68.4516 239.607 67.488 239.184 66.4584C238.788 65.4024 238.379 64.4652 237.957 63.6468L240.808 62.6568Z" fill="#333333"/>
<path d="M162.479 75.8832H180.734V80.0016H162.479V75.8832ZM155.39 84.7932H190.832V89.1492H155.39V84.7932ZM170.636 82.2192H175.507V94.4556C175.507 95.67 175.336 96.6204 174.992 97.3068C174.649 97.9932 174.002 98.508 173.052 98.8512C172.102 99.1944 170.993 99.4056 169.726 99.4848C168.458 99.564 166.98 99.6036 165.29 99.6036C165.132 98.9172 164.855 98.1252 164.459 97.2276C164.089 96.3564 163.72 95.604 163.35 94.9704C164.195 94.9968 165.053 95.0232 165.924 95.0496C166.795 95.076 167.561 95.0892 168.221 95.0892C168.907 95.0892 169.382 95.076 169.646 95.0496C170.042 95.0496 170.306 94.9968 170.438 94.8912C170.57 94.7856 170.636 94.6008 170.636 94.3368V82.2192ZM179.23 75.8832H180.378L181.408 75.6456L184.378 77.9424C183.506 78.9192 182.49 79.896 181.328 80.8728C180.167 81.8496 178.952 82.7736 177.685 83.6448C176.418 84.4896 175.138 85.2288 173.844 85.8624C173.554 85.44 173.144 84.9648 172.616 84.4368C172.115 83.8824 171.692 83.4336 171.349 83.0904C172.379 82.5624 173.395 81.9288 174.398 81.1896C175.428 80.4504 176.365 79.698 177.21 78.9324C178.055 78.1404 178.728 77.4276 179.23 76.794V75.8832ZM155.905 68.6364H190.397V78.3384H185.724V72.834H160.34V78.3384H155.905V68.6364ZM183.308 62.6172L188.456 64.122C187.559 65.442 186.622 66.7356 185.645 68.0028C184.668 69.27 183.784 70.3392 182.992 71.2104L179.071 69.7848C179.599 69.0984 180.114 68.346 180.616 67.5276C181.144 66.7092 181.645 65.8776 182.12 65.0328C182.596 64.1616 182.992 63.3564 183.308 62.6172ZM158.558 64.5576L162.598 62.736C163.31 63.528 164.01 64.4124 164.696 65.3892C165.383 66.3396 165.884 67.1976 166.201 67.9632L161.924 69.9828C161.634 69.2436 161.159 68.3724 160.499 67.3692C159.865 66.3396 159.218 65.4024 158.558 64.5576ZM168.498 63.6864L172.696 62.142C173.329 62.9868 173.936 63.9504 174.517 65.0328C175.124 66.1152 175.56 67.0656 175.824 67.884L171.349 69.6264C171.138 68.8344 170.755 67.884 170.201 66.7752C169.673 65.64 169.105 64.6104 168.498 63.6864Z" fill="#333333"/>
<path d="M104.306 74.2992C105.046 74.1672 105.864 73.9824 106.762 73.7448C107.659 73.5072 108.464 73.296 109.177 73.1112C109.943 72.8736 110.972 72.5436 112.266 72.1212C113.586 71.6988 115.038 71.2764 116.622 70.854C118.206 70.4316 119.816 70.0752 121.453 69.7848C123.116 69.468 124.661 69.3096 126.086 69.3096C128.489 69.3096 130.654 69.7584 132.581 70.656C134.508 71.5536 136.039 72.8472 137.174 74.5368C138.31 76.2264 138.877 78.2988 138.877 80.754C138.877 82.5492 138.547 84.2124 137.887 85.7436C137.227 87.2748 136.25 88.6476 134.957 89.862C133.69 91.0764 132.145 92.1324 130.324 93.03C128.502 93.9276 126.416 94.6536 124.067 95.208C121.744 95.736 119.183 96.066 116.384 96.198L114.088 90.9312C116.78 90.8784 119.275 90.6408 121.572 90.2184C123.895 89.7696 125.928 89.136 127.67 88.3176C129.413 87.4728 130.772 86.4168 131.749 85.1496C132.726 83.8824 133.214 82.3908 133.214 80.6748C133.214 79.434 132.937 78.3252 132.383 77.3484C131.828 76.3452 130.997 75.5532 129.888 74.9724C128.806 74.3916 127.472 74.1012 125.888 74.1012C124.727 74.1012 123.446 74.2464 122.047 74.5368C120.648 74.8008 119.209 75.1572 117.731 75.606C116.279 76.0548 114.853 76.5432 113.454 77.0712C112.055 77.5728 110.761 78.0744 109.573 78.576C108.385 79.0776 107.382 79.5 106.564 79.8432L104.306 74.2992Z" fill="#333333"/>
<path d="M54.173 69.3096H87.7934V73.9824H54.173V69.3096ZM52.9058 93.2676H88.9814V98.0196H52.9058V93.2676ZM68.3102 62.34H73.2998V71.9232H68.3102V62.34ZM77.2994 75.3288L82.7642 76.3188C82.3682 77.9292 81.9458 79.5792 81.497 81.2688C81.0482 82.9584 80.573 84.6216 80.0714 86.2584C79.5962 87.8688 79.121 89.4 78.6458 90.852C78.1706 92.304 77.6954 93.6108 77.2202 94.7724L72.587 93.7428C73.0622 92.5284 73.5242 91.1688 73.973 89.664C74.4218 88.1592 74.8574 86.5884 75.2798 84.9516C75.7022 83.2884 76.085 81.6384 76.4282 80.0016C76.7714 78.3648 77.0618 76.8072 77.2994 75.3288ZM59.2814 76.6752L63.8354 75.4872C64.469 77.0976 65.0366 78.8268 65.5382 80.6748C66.0662 82.4964 66.5018 84.2784 66.845 86.0208C67.2146 87.7368 67.4654 89.3076 67.5974 90.7332L62.687 92.04C62.6078 90.6408 62.4098 89.0568 62.093 87.288C61.7762 85.5192 61.367 83.7108 60.8654 81.8628C60.3902 79.9884 59.8622 78.2592 59.2814 76.6752Z" fill="#333333"/>
<path d="M19.8793 63.726H30.1753V67.884H19.8793V63.726ZM14.9689 79.4868H32.6701V83.7636H14.9689V79.4868ZM27.3637 63.726H32.1157V72.3588C32.1157 73.0716 32.1685 73.4808 32.2741 73.5864C32.3269 73.6392 32.3929 73.692 32.4721 73.7448C32.5777 73.7712 32.6833 73.7844 32.7889 73.7844C32.8945 73.7844 33.0265 73.7844 33.1849 73.7844C33.3697 73.7844 33.5413 73.7844 33.6997 73.7844C33.7789 73.7844 33.8713 73.7712 33.9769 73.7448C34.1089 73.7184 34.2145 73.692 34.2937 73.6656C34.3465 73.6128 34.4125 73.5204 34.4917 73.3884C34.5709 73.2564 34.6237 73.0452 34.6501 72.7548C34.7029 72.4644 34.7293 72.0288 34.7293 71.448C34.7557 70.8672 34.7821 70.2072 34.8085 69.468C35.2045 69.8112 35.7457 70.1676 36.4321 70.5372C37.1449 70.8804 37.7917 71.1444 38.3725 71.3292C38.3461 72.174 38.2801 73.0056 38.1745 73.824C38.0689 74.6424 37.9369 75.2496 37.7785 75.6456C37.4881 76.4112 36.9865 76.9788 36.2737 77.3484C35.9569 77.5068 35.5609 77.6256 35.0857 77.7048C34.6369 77.784 34.2277 77.8236 33.8581 77.8236C33.6205 77.8236 33.3433 77.8236 33.0265 77.8236C32.7361 77.8236 32.4457 77.8236 32.1553 77.8236C31.8913 77.8236 31.6537 77.8236 31.4425 77.8236C30.9145 77.8236 30.3733 77.7444 29.8189 77.586C29.2645 77.4276 28.8157 77.1636 28.4725 76.794C28.0765 76.4244 27.7861 75.9492 27.6013 75.3684C27.4429 74.7876 27.3637 73.8504 27.3637 72.5568V63.726ZM31.0069 79.4868H31.9573L32.7889 79.2888L35.9965 80.7144C35.1781 83.3016 34.0957 85.6248 32.7493 87.684C31.4029 89.7168 29.8321 91.4988 28.0369 93.03C26.2681 94.5348 24.3145 95.8284 22.1761 96.9108C20.0641 98.0196 17.8069 98.9436 15.4045 99.6828C15.1141 99.0756 14.7049 98.376 14.1769 97.584C13.6753 96.792 13.2133 96.1584 12.7909 95.6832C14.9293 95.1552 16.9489 94.4292 18.8497 93.5052C20.7769 92.5812 22.5457 91.4724 24.1561 90.1788C25.7665 88.8852 27.1525 87.4068 28.3141 85.7436C29.5021 84.0804 30.3997 82.2456 31.0069 80.2392V79.4868ZM21.2653 83.526C22.7173 86.562 24.9349 89.1096 27.9181 91.1688C30.9013 93.228 34.5445 94.6536 38.8477 95.4456C38.5045 95.7624 38.1349 96.1716 37.7389 96.6732C37.3693 97.2012 36.9997 97.7292 36.6301 98.2572C36.2869 98.7852 36.0097 99.2604 35.7985 99.6828C31.2049 98.6004 27.3769 96.8184 24.3145 94.3368C21.2785 91.8288 18.8497 88.6608 17.0281 84.8328L21.2653 83.526ZM17.7013 63.726H22.2553V67.9632C22.2553 69.1776 22.1365 70.4712 21.8989 71.844C21.6613 73.2168 21.2125 74.5368 20.5525 75.804C19.8925 77.0712 18.9157 78.2064 17.6221 79.2096C17.3581 78.9192 16.9753 78.6024 16.4737 78.2592C15.9985 77.916 15.5101 77.586 15.0085 77.2692C14.5069 76.9524 14.0713 76.7016 13.7017 76.5168C14.8897 75.672 15.7609 74.7612 16.3153 73.7844C16.8961 72.7812 17.2657 71.7648 17.4241 70.7352C17.6089 69.7056 17.7013 68.742 17.7013 67.8444V63.726ZM10.7317 70.7352L14.9293 72.4776C13.9789 74.088 12.8437 75.7116 11.5237 77.3484C10.2301 78.9588 8.87054 80.49 7.44494 81.942C6.01934 83.3676 4.60694 84.6216 3.20774 85.704C3.07574 85.3608 2.85134 84.8988 2.53454 84.318C2.24414 83.7372 1.92734 83.1564 1.58414 82.5756C1.24094 81.9684 0.93734 81.4932 0.67334 81.15C1.88774 80.3052 3.11534 79.3284 4.35614 78.2196C5.59694 77.1108 6.77174 75.9228 7.88054 74.6556C8.98934 73.362 9.93974 72.0552 10.7317 70.7352ZM9.46454 62.3796L13.9789 64.2012C13.1077 65.442 12.0913 66.6828 10.9297 67.9236C9.76814 69.1644 8.54054 70.3392 7.24694 71.448C5.97974 72.5304 4.71254 73.4808 3.44534 74.2992C3.28694 73.9296 3.06254 73.494 2.77214 72.9924C2.48174 72.4908 2.17814 71.9892 1.86134 71.4876C1.57094 70.986 1.30694 70.5768 1.06934 70.26C2.12534 69.6264 3.18134 68.8608 4.23734 67.9632C5.31974 67.0656 6.32294 66.1416 7.24694 65.1912C8.17094 64.2144 8.91014 63.2772 9.46454 62.3796ZM6.69254 79.962L11.0881 75.5664L11.2861 75.6456V99.5244H6.69254V79.962Z" fill="#333333"/>
<path d="M104.9 6.8344C105.692 6.808 106.445 6.7816 107.158 6.75521C107.87 6.7024 108.412 6.66281 108.781 6.63641C109.6 6.58361 110.603 6.50441 111.791 6.39881C113.005 6.26681 114.352 6.13481 115.83 6.00281C117.335 5.87081 118.932 5.73881 120.622 5.60681C122.311 5.4748 124.067 5.32961 125.888 5.17121C127.261 5.03921 128.621 4.93361 129.967 4.8544C131.34 4.74881 132.634 4.66961 133.848 4.61681C135.089 4.53761 136.171 4.4848 137.095 4.4584L137.135 9.5272C136.422 9.5272 135.604 9.54041 134.68 9.5668C133.756 9.5932 132.832 9.646 131.908 9.7252C131.01 9.77801 130.205 9.89681 129.492 10.0816C128.304 10.3984 127.195 10.9396 126.166 11.7052C125.136 12.4444 124.238 13.3288 123.473 14.3584C122.734 15.3616 122.153 16.4572 121.73 17.6452C121.308 18.8068 121.097 19.9816 121.097 21.1696C121.097 22.4632 121.321 23.6116 121.77 24.6148C122.245 25.5916 122.879 26.4364 123.671 27.1492C124.489 27.8356 125.44 28.4164 126.522 28.8916C127.604 29.3404 128.766 29.6836 130.007 29.9212C131.274 30.1588 132.581 30.3172 133.927 30.3964L132.066 35.8216C130.403 35.716 128.779 35.452 127.195 35.0296C125.638 34.6072 124.172 34.0264 122.8 33.2872C121.427 32.548 120.226 31.6504 119.196 30.5944C118.193 29.512 117.388 28.2844 116.78 26.9116C116.2 25.5124 115.909 23.9548 115.909 22.2388C115.909 20.338 116.213 18.5956 116.82 17.0116C117.427 15.4012 118.18 14.002 119.077 12.814C120.001 11.5996 120.912 10.6624 121.81 10.0024C121.07 10.108 120.173 10.2136 119.117 10.3192C118.087 10.4248 116.965 10.5568 115.751 10.7152C114.563 10.8472 113.348 10.9924 112.108 11.1508C110.867 11.3092 109.666 11.494 108.504 11.7052C107.369 11.89 106.339 12.0748 105.415 12.2596L104.9 6.8344ZM131.472 13.408C131.815 13.8832 132.172 14.4508 132.541 15.1108C132.937 15.7444 133.32 16.3912 133.69 17.0512C134.059 17.6848 134.376 18.2656 134.64 18.7936L131.63 20.14C131.129 19.0312 130.64 18.0544 130.165 17.2096C129.716 16.3648 129.175 15.5068 128.542 14.6356L131.472 13.408ZM135.907 11.5864C136.25 12.0616 136.62 12.616 137.016 13.2496C137.438 13.8568 137.848 14.4904 138.244 15.1504C138.64 15.784 138.97 16.3516 139.234 16.8532L136.264 18.2788C135.736 17.2228 135.221 16.2856 134.719 15.4672C134.244 14.6488 133.676 13.804 133.016 12.9328L135.907 11.5864Z" fill="#333333"/>
<path d="M54.767 31.7032C57.1166 31.624 59.8358 31.5448 62.9246 31.4656C66.0398 31.36 69.3002 31.2412 72.7058 31.1092C76.1378 30.9772 79.517 30.8452 82.8434 30.7132L82.685 35.0692C79.4642 35.254 76.1906 35.4124 72.8642 35.5444C69.5642 35.7028 66.4226 35.848 63.4394 35.98C60.4562 36.1384 57.7634 36.2704 55.361 36.376L54.767 31.7032ZM54.569 19.942H87.4766V24.3772H54.569V19.942ZM61.6178 12.2992H80.1902V16.6552H61.6178V12.2992ZM64.2314 22.8328L69.6566 24.298C69.0494 25.5388 68.4026 26.806 67.7162 28.0996C67.0562 29.3668 66.3962 30.5812 65.7362 31.7428C65.1026 32.9044 64.4954 33.934 63.9146 34.8316L59.7566 33.4456C60.2846 32.4688 60.839 31.3732 61.4198 30.1588C62.0006 28.918 62.5286 27.664 63.0038 26.3968C63.5054 25.1032 63.9146 23.9152 64.2314 22.8328ZM74.0918 26.9116L78.2498 24.694C79.4378 25.7236 80.6126 26.8324 81.7742 28.0204C82.9358 29.2084 84.005 30.4096 84.9818 31.624C85.9586 32.812 86.7506 33.9076 87.3578 34.9108L82.9226 37.6036C82.3946 36.6004 81.6422 35.4652 80.6654 34.198C79.715 32.9572 78.659 31.69 77.4974 30.3964C76.3622 29.1028 75.227 27.9412 74.0918 26.9116ZM70.8446 4.97321C69.7886 6.47801 68.429 8.02241 66.7658 9.60641C65.1026 11.164 63.2546 12.6424 61.2218 14.0416C59.189 15.4408 57.077 16.6684 54.8858 17.7244C54.7274 17.3284 54.4766 16.8928 54.1334 16.4176C53.8166 15.916 53.4734 15.4408 53.1038 14.992C52.7606 14.5168 52.4174 14.1076 52.0742 13.7644C54.3446 12.7612 56.5226 11.5204 58.6082 10.042C60.6938 8.5372 62.555 6.95321 64.1918 5.29001C65.855 3.60041 67.175 1.97681 68.1518 0.419205H73.1414C74.1974 1.8712 75.3722 3.244 76.6658 4.53761C77.9594 5.8312 79.3322 7.0192 80.7842 8.1016C82.2362 9.1576 83.7278 10.108 85.259 10.9528C86.8166 11.7712 88.3874 12.4708 89.9714 13.0516C89.3906 13.6324 88.8362 14.3188 88.3082 15.1108C87.7802 15.9028 87.305 16.6552 86.8826 17.368C84.9026 16.444 82.8962 15.3088 80.8634 13.9624C78.8306 12.616 76.9298 11.164 75.161 9.60641C73.4186 8.04881 71.9798 6.50441 70.8446 4.97321Z" fill="#333333"/>
<path d="M16.2361 31.7428H38.7685V36.4156H16.2361V31.7428ZM17.8597 12.616H37.8181V17.2096H17.8597V12.616ZM25.3837 0.736009H30.2941V34H25.3837V0.736009ZM2.01969 7.70561H14.9689V11.9824H2.01969V7.70561ZM7.68249 21.2092L12.3949 15.586V37.564H7.68249V21.2092ZM7.68249 0.379608H12.3949V9.68561H7.68249V0.379608ZM11.8801 16.9324C12.2497 17.17 12.7513 17.566 13.3849 18.1204C14.0449 18.6484 14.7445 19.2424 15.4837 19.9024C16.2229 20.536 16.8961 21.13 17.5033 21.6844C18.1105 22.2124 18.5461 22.5952 18.8101 22.8328L15.9589 26.7136C15.5629 26.212 15.0745 25.6312 14.4937 24.9712C13.9393 24.2848 13.3453 23.5852 12.7117 22.8724C12.0781 22.1596 11.4577 21.4864 10.8505 20.8528C10.2433 20.2192 9.72849 19.6912 9.30609 19.2688L11.8801 16.9324ZM13.2661 7.70561H14.1769L15.0085 7.50761L17.6617 9.25001C16.6849 11.8372 15.4045 14.3056 13.8205 16.6552C12.2365 18.9784 10.4941 21.0772 8.59329 22.9516C6.69249 24.826 4.75209 26.3836 2.77209 27.6244C2.64009 27.202 2.42889 26.7004 2.13849 26.1196C1.87449 25.5124 1.59729 24.9448 1.30689 24.4168C1.04289 23.8624 0.778893 23.4268 0.514893 23.11C2.33649 22.1596 4.07889 20.9188 5.74209 19.3876C7.40529 17.83 8.89689 16.1272 10.2169 14.2792C11.5369 12.4048 12.5533 10.4908 13.2661 8.53721V7.70561Z" fill="#333333"/>
</svg>
